G04 (created by PCBNEW (2013-07-07 BZR 4022)-stable) date 9/18/2013 12:24:05*
%MOIN*%
G04 Gerber Fmt 3.4, Leading zero omitted, Abs format*
%FSLAX34Y34*%
G01*
G70*
G90*
G04 APERTURE LIST*
%ADD10C,0.00590551*%
%ADD11C,0.011811*%
%ADD12C,0.23622*%
%ADD13C,0.066*%
%ADD14C,0.1437*%
%ADD15C,0.0591*%
%ADD16C,0.0866142*%
%ADD17C,0.035*%
%ADD18C,0.0275591*%
%ADD19C,0.019685*%
%ADD20C,0.00787402*%
%ADD21C,0.01*%
G04 APERTURE END LIST*
G54D10*
G54D11*
X51397Y-11189D02*
X51482Y-11217D01*
X51510Y-11245D01*
X51538Y-11302D01*
X51538Y-11386D01*
X51510Y-11442D01*
X51482Y-11470D01*
X51425Y-11498D01*
X51200Y-11498D01*
X51200Y-10908D01*
X51397Y-10908D01*
X51453Y-10936D01*
X51482Y-10964D01*
X51510Y-11020D01*
X51510Y-11077D01*
X51482Y-11133D01*
X51453Y-11161D01*
X51397Y-11189D01*
X51200Y-11189D01*
X51791Y-11442D02*
X51819Y-11470D01*
X51791Y-11498D01*
X51763Y-11470D01*
X51791Y-11442D01*
X51791Y-11498D01*
X52859Y-11442D02*
X52831Y-11470D01*
X52747Y-11498D01*
X52691Y-11498D01*
X52606Y-11470D01*
X52550Y-11414D01*
X52522Y-11358D01*
X52494Y-11245D01*
X52494Y-11161D01*
X52522Y-11048D01*
X52550Y-10992D01*
X52606Y-10936D01*
X52691Y-10908D01*
X52747Y-10908D01*
X52831Y-10936D01*
X52859Y-10964D01*
X53366Y-11105D02*
X53366Y-11498D01*
X53113Y-11105D02*
X53113Y-11414D01*
X53141Y-11470D01*
X53197Y-11498D01*
X53281Y-11498D01*
X53338Y-11470D01*
X53366Y-11442D01*
G54D12*
X12204Y-10629D03*
X47637Y-10629D03*
X47637Y-46062D03*
X12204Y-46062D03*
G54D13*
X44488Y-10129D03*
X44488Y-11129D03*
X41732Y-10129D03*
X41732Y-11129D03*
X38779Y-10129D03*
X38779Y-11129D03*
X35826Y-10129D03*
X35826Y-11129D03*
X11901Y-42519D03*
X12901Y-42519D03*
X11901Y-39566D03*
X12901Y-39566D03*
X11901Y-36614D03*
X12901Y-36614D03*
X11901Y-33661D03*
X12901Y-33661D03*
X15944Y-10129D03*
X15944Y-11129D03*
X12901Y-22736D03*
X11901Y-22736D03*
G54D14*
X47244Y-25846D03*
X47244Y-30846D03*
G54D15*
X46244Y-26940D03*
X45543Y-27342D03*
X46244Y-27744D03*
X45543Y-28145D03*
X46244Y-28547D03*
X45543Y-28948D03*
X46244Y-29350D03*
X45543Y-29751D03*
G54D16*
X45893Y-25145D03*
X45893Y-31547D03*
G54D14*
X12598Y-30846D03*
X12598Y-25846D03*
G54D15*
X13598Y-29751D03*
X14299Y-29350D03*
X13598Y-28948D03*
X14299Y-28547D03*
X13598Y-28145D03*
X14299Y-27744D03*
X13598Y-27342D03*
X14299Y-26940D03*
G54D16*
X13948Y-31547D03*
X13948Y-25145D03*
G54D14*
X27421Y-11023D03*
X32421Y-11023D03*
G54D15*
X28515Y-12023D03*
X28917Y-12724D03*
X29318Y-12023D03*
X29720Y-12724D03*
X30122Y-12023D03*
X30523Y-12724D03*
X30925Y-12023D03*
X31326Y-12724D03*
G54D16*
X26720Y-12374D03*
X33122Y-12374D03*
G54D14*
X18759Y-11023D03*
X23759Y-11023D03*
G54D15*
X19854Y-12023D03*
X20255Y-12724D03*
X20657Y-12023D03*
X21059Y-12724D03*
X21460Y-12023D03*
X21862Y-12724D03*
X22263Y-12023D03*
X22665Y-12724D03*
G54D16*
X18059Y-12374D03*
X24460Y-12374D03*
G54D14*
X37145Y-45669D03*
X32145Y-45669D03*
G54D15*
X36051Y-44669D03*
X35649Y-43968D03*
X35248Y-44669D03*
X34846Y-43968D03*
X34444Y-44669D03*
X34043Y-43968D03*
X33641Y-44669D03*
X33240Y-43968D03*
G54D16*
X37846Y-44318D03*
X31444Y-44318D03*
G54D14*
X27696Y-45669D03*
X22696Y-45669D03*
G54D15*
X26602Y-44669D03*
X26200Y-43968D03*
X25799Y-44669D03*
X25397Y-43968D03*
X24996Y-44669D03*
X24594Y-43968D03*
X24192Y-44669D03*
X23791Y-43968D03*
G54D16*
X28397Y-44318D03*
X21996Y-44318D03*
G54D17*
X16062Y-21732D03*
X16062Y-22244D03*
X15590Y-22244D03*
G54D18*
X26200Y-42415D03*
X24585Y-40215D03*
X25397Y-42000D03*
X24990Y-40565D03*
X24594Y-41645D03*
X25465Y-40805D03*
X23791Y-42015D03*
X26000Y-40790D03*
X23560Y-26195D03*
X25470Y-28090D03*
X23910Y-24540D03*
X25170Y-27630D03*
X24520Y-24145D03*
X24700Y-28180D03*
X39790Y-24550D03*
X35030Y-21150D03*
X32130Y-25915D03*
X23430Y-29220D03*
X32590Y-27590D03*
X38480Y-26180D03*
X24350Y-21082D03*
X32047Y-19133D03*
X22240Y-25480D03*
X42310Y-28750D03*
X26130Y-27175D03*
X22785Y-28975D03*
X22322Y-31141D03*
X43700Y-27342D03*
X42125Y-27362D03*
X30835Y-29515D03*
X22945Y-34405D03*
G54D17*
X27244Y-25137D03*
X24015Y-21909D03*
X39330Y-30550D03*
X37955Y-30270D03*
X32410Y-26330D03*
X35480Y-26310D03*
X29225Y-35880D03*
X26035Y-35935D03*
G54D18*
X31190Y-37910D03*
X37845Y-35720D03*
X29720Y-37890D03*
X37735Y-36355D03*
X29575Y-20950D03*
X31570Y-22850D03*
X37000Y-36400D03*
X34990Y-37990D03*
X35280Y-37065D03*
X34550Y-37725D03*
X34350Y-37385D03*
X35015Y-36750D03*
X35885Y-37665D03*
X35650Y-38565D03*
X36490Y-23590D03*
X37810Y-25310D03*
X22795Y-31141D03*
X41890Y-28475D03*
X36540Y-30140D03*
X37025Y-30265D03*
X37100Y-22155D03*
X38295Y-34595D03*
X38465Y-36810D03*
X23575Y-34405D03*
X28821Y-18770D03*
X29470Y-18670D03*
X30155Y-18370D03*
X30492Y-17992D03*
X28105Y-23785D03*
X33190Y-23780D03*
G54D17*
X19055Y-21456D03*
X19173Y-22165D03*
X19478Y-21879D03*
X27677Y-19724D03*
X34965Y-30405D03*
X28335Y-19735D03*
X28630Y-29895D03*
X30500Y-29855D03*
X31140Y-19700D03*
X34040Y-35540D03*
X33090Y-36490D03*
G54D19*
X36051Y-44669D02*
X36051Y-46416D01*
X48490Y-36380D02*
X48490Y-30090D01*
X37935Y-46935D02*
X48490Y-36380D01*
X36570Y-46935D02*
X37935Y-46935D01*
X36051Y-46416D02*
X36570Y-46935D01*
X46244Y-28547D02*
X46947Y-28547D01*
X48490Y-30090D02*
X46947Y-28547D01*
X36130Y-44669D02*
X36051Y-44669D01*
X13598Y-29751D02*
X11903Y-29751D01*
X24996Y-45473D02*
X24996Y-44669D01*
X23595Y-46875D02*
X24996Y-45473D01*
X21465Y-46875D02*
X23595Y-46875D01*
X18610Y-44020D02*
X21465Y-46875D01*
X11360Y-44020D02*
X18610Y-44020D01*
X10835Y-43495D02*
X11360Y-44020D01*
X10835Y-30820D02*
X10835Y-43495D01*
X11903Y-29751D02*
X10835Y-30820D01*
X13598Y-28145D02*
X13394Y-28145D01*
X13421Y-29751D02*
X13598Y-29751D01*
X12800Y-29130D02*
X13421Y-29751D01*
X12800Y-28740D02*
X12800Y-29130D01*
X13394Y-28145D02*
X12800Y-28740D01*
X11330Y-16720D02*
X11330Y-26915D01*
X12560Y-28145D02*
X13598Y-28145D01*
X11330Y-26915D02*
X12560Y-28145D01*
X19854Y-12023D02*
X19854Y-10394D01*
X18215Y-9835D02*
X11330Y-16720D01*
X19295Y-9835D02*
X18215Y-9835D01*
X19854Y-10394D02*
X19295Y-9835D01*
X21460Y-12023D02*
X21460Y-11740D01*
X19854Y-11780D02*
X19854Y-12023D01*
X20460Y-11175D02*
X19854Y-11780D01*
X20895Y-11175D02*
X20460Y-11175D01*
X21460Y-11740D02*
X20895Y-11175D01*
X28515Y-12023D02*
X28515Y-10475D01*
X21460Y-10899D02*
X21460Y-12023D01*
X22505Y-9855D02*
X21460Y-10899D01*
X27895Y-9855D02*
X22505Y-9855D01*
X28515Y-10475D02*
X27895Y-9855D01*
X30122Y-12023D02*
X30122Y-11687D01*
X28515Y-11834D02*
X28515Y-12023D01*
X29190Y-11160D02*
X28515Y-11834D01*
X29595Y-11160D02*
X29190Y-11160D01*
X30122Y-11687D02*
X29595Y-11160D01*
X46244Y-26940D02*
X47819Y-26940D01*
X30122Y-11022D02*
X30122Y-12023D01*
X31995Y-9150D02*
X30122Y-11022D01*
X45120Y-9150D02*
X31995Y-9150D01*
X45980Y-10010D02*
X45120Y-9150D01*
X45980Y-11640D02*
X45980Y-10010D01*
X48470Y-14130D02*
X45980Y-11640D01*
X48470Y-26290D02*
X48470Y-14130D01*
X47819Y-26940D02*
X48470Y-26290D01*
X46244Y-28547D02*
X46382Y-28547D01*
X46380Y-26940D02*
X46244Y-26940D01*
X46980Y-27540D02*
X46380Y-26940D01*
X46980Y-27950D02*
X46980Y-27540D01*
X46382Y-28547D02*
X46980Y-27950D01*
X34444Y-44669D02*
X34444Y-44824D01*
X34444Y-44824D02*
X35070Y-45450D01*
X35070Y-45450D02*
X35595Y-45450D01*
X35595Y-45450D02*
X36051Y-44993D01*
X36051Y-44993D02*
X36051Y-44669D01*
X26602Y-44669D02*
X26602Y-46327D01*
X34444Y-45400D02*
X34444Y-44669D01*
X32880Y-46965D02*
X34444Y-45400D01*
X27240Y-46965D02*
X32880Y-46965D01*
X26602Y-46327D02*
X27240Y-46965D01*
X24996Y-44669D02*
X24996Y-44871D01*
X24996Y-44871D02*
X25480Y-45355D01*
X25480Y-45355D02*
X26080Y-45355D01*
X26080Y-45355D02*
X26602Y-44832D01*
X26602Y-44832D02*
X26602Y-44669D01*
G54D20*
X26100Y-40215D02*
X24585Y-40215D01*
X26520Y-40635D02*
X26100Y-40215D01*
X26520Y-42095D02*
X26520Y-40635D01*
X26520Y-42095D02*
X26200Y-42415D01*
X24400Y-40565D02*
X24990Y-40565D01*
X23205Y-41760D02*
X24400Y-40565D01*
X23205Y-42045D02*
X23205Y-41760D01*
X23540Y-42380D02*
X23205Y-42045D01*
X25017Y-42380D02*
X23540Y-42380D01*
X25017Y-42380D02*
X25397Y-42000D01*
X25434Y-40805D02*
X25465Y-40805D01*
X25434Y-40805D02*
X24594Y-41645D01*
X24778Y-42011D02*
X26000Y-40790D01*
X23795Y-42011D02*
X24778Y-42011D01*
X23795Y-42011D02*
X23791Y-42015D01*
X23995Y-26630D02*
X23560Y-26195D01*
X23995Y-28255D02*
X23995Y-26630D01*
X24520Y-28780D02*
X23995Y-28255D01*
X24925Y-28780D02*
X24520Y-28780D01*
X25355Y-28350D02*
X24925Y-28780D01*
X25355Y-28205D02*
X25355Y-28350D01*
X25470Y-28090D02*
X25355Y-28205D01*
X24200Y-24830D02*
X24200Y-28200D01*
X23910Y-24540D02*
X24200Y-24830D01*
X24600Y-28600D02*
X24200Y-28200D01*
X24820Y-28600D02*
X24600Y-28600D01*
X25030Y-28390D02*
X24820Y-28600D01*
X25030Y-27770D02*
X25030Y-28390D01*
X25170Y-27630D02*
X25030Y-27770D01*
X24520Y-28000D02*
X24520Y-24145D01*
X24700Y-28180D02*
X24520Y-28000D01*
X38430Y-24550D02*
X39790Y-24550D01*
X35030Y-21150D02*
X38430Y-24550D01*
X32590Y-27590D02*
X32030Y-27590D01*
X31590Y-26455D02*
X32130Y-25915D01*
X31590Y-27150D02*
X31590Y-26455D01*
X32030Y-27590D02*
X31590Y-27150D01*
X30960Y-29220D02*
X23430Y-29220D01*
X32590Y-27590D02*
X30960Y-29220D01*
X27860Y-24465D02*
X27732Y-24465D01*
X38480Y-26180D02*
X38370Y-26070D01*
X38370Y-26070D02*
X36975Y-26070D01*
X36975Y-26070D02*
X35370Y-24465D01*
X35370Y-24465D02*
X27860Y-24465D01*
X27732Y-24465D02*
X24350Y-21082D01*
X24940Y-19133D02*
X22240Y-21834D01*
X24940Y-19133D02*
X32047Y-19133D01*
X22240Y-21834D02*
X22240Y-25480D01*
X42508Y-28948D02*
X42310Y-28750D01*
X45543Y-28948D02*
X42508Y-28948D01*
X22785Y-28975D02*
X19140Y-28975D01*
X19140Y-28975D02*
X12901Y-22736D01*
X26130Y-28020D02*
X26130Y-27175D01*
X25212Y-28937D02*
X26130Y-28020D01*
X22822Y-28937D02*
X25212Y-28937D01*
X22785Y-28975D02*
X22822Y-28937D01*
X22315Y-31141D02*
X22315Y-31125D01*
X22322Y-31141D02*
X22315Y-31141D01*
X43681Y-27362D02*
X42125Y-27362D01*
X43681Y-27362D02*
X43700Y-27342D01*
X22315Y-32055D02*
X22315Y-31125D01*
X22315Y-31125D02*
X22960Y-30480D01*
X22960Y-30480D02*
X29125Y-30480D01*
X29125Y-30480D02*
X30090Y-29515D01*
X30090Y-29515D02*
X30835Y-29515D01*
X22945Y-34405D02*
X22315Y-33775D01*
X22315Y-33775D02*
X22315Y-32055D01*
G54D19*
X18059Y-12374D02*
X18059Y-12389D01*
X22503Y-14330D02*
X24460Y-12374D01*
X20000Y-14330D02*
X22503Y-14330D01*
X18059Y-12389D02*
X20000Y-14330D01*
X24015Y-21909D02*
X27244Y-25137D01*
X37955Y-30270D02*
X38235Y-30550D01*
X38235Y-30550D02*
X39330Y-30550D01*
X46244Y-29965D02*
X46244Y-29350D01*
X39330Y-30550D02*
X45660Y-30550D01*
X45660Y-30550D02*
X46244Y-29965D01*
X32410Y-26330D02*
X32430Y-26310D01*
X32430Y-26310D02*
X35480Y-26310D01*
X26090Y-35880D02*
X29225Y-35880D01*
X26035Y-35935D02*
X26090Y-35880D01*
G54D20*
X32220Y-37910D02*
X31190Y-37910D01*
X34520Y-35610D02*
X32220Y-37910D01*
X37735Y-35610D02*
X34520Y-35610D01*
X37845Y-35720D02*
X37735Y-35610D01*
X30000Y-38170D02*
X29720Y-37890D01*
X32182Y-38170D02*
X30000Y-38170D01*
X34585Y-35767D02*
X32182Y-38170D01*
X37147Y-35767D02*
X34585Y-35767D01*
X37735Y-36355D02*
X37147Y-35767D01*
X29670Y-20950D02*
X29575Y-20950D01*
X31570Y-22850D02*
X29670Y-20950D01*
X36580Y-36400D02*
X37000Y-36400D01*
X34990Y-37990D02*
X36580Y-36400D01*
X35210Y-37065D02*
X35280Y-37065D01*
X34550Y-37725D02*
X35210Y-37065D01*
X34350Y-37385D02*
X34985Y-36750D01*
X34985Y-36750D02*
X35015Y-36750D01*
X35885Y-38330D02*
X35885Y-37665D01*
X35650Y-38565D02*
X35885Y-38330D01*
X36490Y-23990D02*
X36490Y-23590D01*
X37810Y-25310D02*
X36490Y-23990D01*
X22805Y-31151D02*
X22805Y-32040D01*
X22795Y-31141D02*
X22805Y-31151D01*
X41890Y-28208D02*
X41889Y-28208D01*
X41889Y-28208D02*
X41826Y-28145D01*
X41890Y-28475D02*
X41890Y-28208D01*
X41890Y-28208D02*
X41952Y-28145D01*
X38465Y-36810D02*
X38340Y-36810D01*
X23575Y-35875D02*
X23575Y-34405D01*
X25255Y-37555D02*
X23575Y-35875D01*
X27700Y-37555D02*
X25255Y-37555D01*
X29130Y-38985D02*
X27700Y-37555D01*
X36165Y-38985D02*
X29130Y-38985D01*
X38340Y-36810D02*
X36165Y-38985D01*
X38534Y-28145D02*
X41826Y-28145D01*
X36540Y-30140D02*
X38534Y-28145D01*
X41826Y-28145D02*
X41952Y-28145D01*
X41952Y-28145D02*
X45543Y-28145D01*
X38295Y-34595D02*
X38295Y-31535D01*
X38295Y-31535D02*
X37025Y-30265D01*
X37100Y-22155D02*
X37145Y-22110D01*
X37145Y-22110D02*
X39507Y-22110D01*
X39507Y-22110D02*
X45543Y-28145D01*
X38295Y-36640D02*
X38295Y-34595D01*
X38465Y-36810D02*
X38295Y-36640D01*
X23575Y-34405D02*
X22805Y-33635D01*
X22805Y-33635D02*
X22805Y-32040D01*
X44488Y-10129D02*
X41773Y-12845D01*
X36610Y-12845D02*
X41773Y-12845D01*
X30485Y-18970D02*
X36610Y-12845D01*
X29021Y-18970D02*
X30485Y-18970D01*
X29021Y-18970D02*
X28821Y-18770D01*
X29470Y-18670D02*
X30562Y-18670D01*
X30562Y-18670D02*
X36977Y-12255D01*
X41732Y-10129D02*
X39607Y-12255D01*
X36977Y-12255D02*
X39607Y-12255D01*
X38779Y-10129D02*
X38779Y-10230D01*
X30657Y-18352D02*
X38779Y-10230D01*
X30172Y-18352D02*
X30657Y-18352D01*
X30172Y-18352D02*
X30155Y-18370D01*
X30492Y-17992D02*
X30794Y-17992D01*
X30794Y-17992D02*
X36955Y-11831D01*
X36955Y-11831D02*
X36955Y-11258D01*
X35826Y-10129D02*
X36955Y-11258D01*
X33185Y-23785D02*
X28105Y-23785D01*
X33190Y-23780D02*
X33185Y-23785D01*
G54D19*
X31140Y-19700D02*
X28370Y-19700D01*
X28335Y-19735D02*
X28370Y-19700D01*
X11901Y-33661D02*
X11901Y-32968D01*
X22175Y-29895D02*
X28630Y-29895D01*
X19310Y-32760D02*
X22175Y-29895D01*
X12110Y-32760D02*
X19310Y-32760D01*
X11901Y-32968D02*
X12110Y-32760D01*
X34965Y-30405D02*
X34965Y-29775D01*
X34115Y-19700D02*
X31140Y-19700D01*
X37305Y-22890D02*
X34115Y-19700D01*
X39135Y-22890D02*
X37305Y-22890D01*
X40620Y-24375D02*
X39135Y-22890D01*
X40620Y-25665D02*
X40620Y-24375D01*
X39195Y-27090D02*
X40620Y-25665D01*
X37650Y-27090D02*
X39195Y-27090D01*
X34965Y-29775D02*
X37650Y-27090D01*
X34965Y-30405D02*
X31050Y-30405D01*
X31050Y-30405D02*
X30500Y-29855D01*
X34040Y-35540D02*
X34040Y-31330D01*
X34040Y-31330D02*
X34965Y-30405D01*
X33090Y-36490D02*
X34040Y-35540D01*
X11901Y-39566D02*
X11901Y-42519D01*
X11901Y-36614D02*
X11901Y-39566D01*
X11901Y-33661D02*
X11901Y-36614D01*
G54D10*
G36*
X44438Y-27856D02*
X44088Y-27856D01*
X44088Y-27265D01*
X44029Y-27123D01*
X43920Y-27013D01*
X43778Y-26954D01*
X43623Y-26954D01*
X43481Y-27013D01*
X43422Y-27072D01*
X42385Y-27072D01*
X42345Y-27033D01*
X42203Y-26974D01*
X42049Y-26974D01*
X41906Y-27033D01*
X41797Y-27142D01*
X41738Y-27284D01*
X41738Y-27439D01*
X41797Y-27581D01*
X41906Y-27690D01*
X42048Y-27749D01*
X42202Y-27750D01*
X42345Y-27691D01*
X42385Y-27651D01*
X43461Y-27651D01*
X43480Y-27671D01*
X43623Y-27730D01*
X43777Y-27730D01*
X43920Y-27671D01*
X44029Y-27562D01*
X44088Y-27419D01*
X44088Y-27265D01*
X44088Y-27856D01*
X41952Y-27856D01*
X41826Y-27856D01*
X40177Y-27856D01*
X40177Y-24473D01*
X40118Y-24330D01*
X40009Y-24221D01*
X39867Y-24162D01*
X39713Y-24162D01*
X39570Y-24221D01*
X39530Y-24260D01*
X38549Y-24260D01*
X35417Y-21128D01*
X35417Y-21073D01*
X35358Y-20930D01*
X35249Y-20821D01*
X35107Y-20762D01*
X34953Y-20762D01*
X34810Y-20821D01*
X34701Y-20930D01*
X34642Y-21072D01*
X34642Y-21226D01*
X34701Y-21369D01*
X34810Y-21478D01*
X34952Y-21537D01*
X35008Y-21537D01*
X38225Y-24754D01*
X38225Y-24754D01*
X38319Y-24817D01*
X38430Y-24839D01*
X39530Y-24839D01*
X39570Y-24878D01*
X39712Y-24937D01*
X39866Y-24937D01*
X40009Y-24878D01*
X40118Y-24769D01*
X40177Y-24627D01*
X40177Y-24473D01*
X40177Y-27856D01*
X38867Y-27856D01*
X38867Y-26103D01*
X38808Y-25960D01*
X38699Y-25851D01*
X38557Y-25792D01*
X38427Y-25792D01*
X38427Y-25792D01*
X38370Y-25780D01*
X38197Y-25780D01*
X38197Y-25233D01*
X38138Y-25090D01*
X38029Y-24981D01*
X37887Y-24922D01*
X37831Y-24922D01*
X36779Y-23870D01*
X36779Y-23849D01*
X36818Y-23809D01*
X36877Y-23667D01*
X36877Y-23513D01*
X36818Y-23370D01*
X36709Y-23261D01*
X36567Y-23202D01*
X36413Y-23202D01*
X36270Y-23261D01*
X36161Y-23370D01*
X36102Y-23512D01*
X36102Y-23666D01*
X36161Y-23809D01*
X36200Y-23849D01*
X36200Y-23990D01*
X36222Y-24100D01*
X36285Y-24194D01*
X37422Y-25331D01*
X37422Y-25386D01*
X37481Y-25529D01*
X37590Y-25638D01*
X37732Y-25697D01*
X37886Y-25697D01*
X38029Y-25638D01*
X38138Y-25529D01*
X38197Y-25387D01*
X38197Y-25233D01*
X38197Y-25780D01*
X37094Y-25780D01*
X35574Y-24260D01*
X35480Y-24197D01*
X35370Y-24175D01*
X33577Y-24175D01*
X33577Y-23703D01*
X33518Y-23560D01*
X33409Y-23451D01*
X33267Y-23392D01*
X33113Y-23392D01*
X32970Y-23451D01*
X32925Y-23495D01*
X31957Y-23495D01*
X31957Y-22773D01*
X31898Y-22630D01*
X31789Y-22521D01*
X31647Y-22462D01*
X31591Y-22462D01*
X29934Y-20805D01*
X29903Y-20730D01*
X29794Y-20621D01*
X29652Y-20562D01*
X29498Y-20562D01*
X29355Y-20621D01*
X29246Y-20730D01*
X29187Y-20872D01*
X29187Y-21026D01*
X29246Y-21169D01*
X29355Y-21278D01*
X29497Y-21337D01*
X29648Y-21337D01*
X31182Y-22871D01*
X31182Y-22926D01*
X31241Y-23069D01*
X31350Y-23178D01*
X31492Y-23237D01*
X31646Y-23237D01*
X31789Y-23178D01*
X31898Y-23069D01*
X31957Y-22927D01*
X31957Y-22773D01*
X31957Y-23495D01*
X28364Y-23495D01*
X28324Y-23456D01*
X28182Y-23397D01*
X28028Y-23397D01*
X27885Y-23456D01*
X27776Y-23565D01*
X27717Y-23707D01*
X27717Y-23861D01*
X27776Y-24004D01*
X27885Y-24113D01*
X28027Y-24172D01*
X28181Y-24172D01*
X28324Y-24113D01*
X28364Y-24074D01*
X32935Y-24074D01*
X32970Y-24108D01*
X33112Y-24167D01*
X33266Y-24167D01*
X33409Y-24108D01*
X33518Y-23999D01*
X33577Y-23857D01*
X33577Y-23703D01*
X33577Y-24175D01*
X27860Y-24175D01*
X27852Y-24175D01*
X24738Y-21061D01*
X24738Y-21005D01*
X24679Y-20863D01*
X24570Y-20754D01*
X24427Y-20694D01*
X24273Y-20694D01*
X24131Y-20753D01*
X24021Y-20862D01*
X23962Y-21005D01*
X23962Y-21159D01*
X24021Y-21302D01*
X24130Y-21411D01*
X24272Y-21470D01*
X24328Y-21470D01*
X27528Y-24669D01*
X27528Y-24669D01*
X27621Y-24732D01*
X27732Y-24754D01*
X27860Y-24754D01*
X35250Y-24754D01*
X36770Y-26274D01*
X36770Y-26274D01*
X36864Y-26337D01*
X36864Y-26337D01*
X36882Y-26340D01*
X36975Y-26359D01*
X38134Y-26359D01*
X38151Y-26399D01*
X38260Y-26508D01*
X38402Y-26567D01*
X38556Y-26567D01*
X38699Y-26508D01*
X38808Y-26399D01*
X38867Y-26257D01*
X38867Y-26103D01*
X38867Y-27856D01*
X38534Y-27856D01*
X38423Y-27878D01*
X38329Y-27941D01*
X36518Y-29752D01*
X36463Y-29752D01*
X36320Y-29811D01*
X36211Y-29920D01*
X36152Y-30062D01*
X36152Y-30216D01*
X36211Y-30359D01*
X36320Y-30468D01*
X36462Y-30527D01*
X36616Y-30527D01*
X36703Y-30491D01*
X36805Y-30593D01*
X36947Y-30652D01*
X37003Y-30652D01*
X38005Y-31654D01*
X38005Y-34335D01*
X37966Y-34375D01*
X37907Y-34517D01*
X37907Y-34671D01*
X37966Y-34814D01*
X38005Y-34854D01*
X38005Y-35366D01*
X37922Y-35332D01*
X37792Y-35332D01*
X37792Y-35332D01*
X37735Y-35320D01*
X34520Y-35320D01*
X34409Y-35342D01*
X34378Y-35363D01*
X34315Y-35405D01*
X32100Y-37620D01*
X31449Y-37620D01*
X31409Y-37581D01*
X31267Y-37522D01*
X31113Y-37522D01*
X30970Y-37581D01*
X30861Y-37690D01*
X30802Y-37832D01*
X30802Y-37880D01*
X30119Y-37880D01*
X30107Y-37868D01*
X30107Y-37813D01*
X30048Y-37670D01*
X29939Y-37561D01*
X29797Y-37502D01*
X29650Y-37502D01*
X29650Y-35795D01*
X29585Y-35639D01*
X29466Y-35519D01*
X29309Y-35455D01*
X29140Y-35454D01*
X28984Y-35519D01*
X28972Y-35531D01*
X26171Y-35531D01*
X26119Y-35510D01*
X25950Y-35509D01*
X25794Y-35574D01*
X25674Y-35693D01*
X25610Y-35850D01*
X25609Y-36019D01*
X25674Y-36175D01*
X25793Y-36295D01*
X25950Y-36359D01*
X26119Y-36360D01*
X26275Y-36295D01*
X26342Y-36228D01*
X28972Y-36228D01*
X28983Y-36240D01*
X29140Y-36304D01*
X29309Y-36305D01*
X29465Y-36240D01*
X29585Y-36121D01*
X29649Y-35964D01*
X29650Y-35795D01*
X29650Y-37502D01*
X29643Y-37502D01*
X29500Y-37561D01*
X29391Y-37670D01*
X29332Y-37812D01*
X29332Y-37966D01*
X29391Y-38109D01*
X29500Y-38218D01*
X29642Y-38277D01*
X29698Y-38277D01*
X29795Y-38374D01*
X29795Y-38374D01*
X29858Y-38416D01*
X29889Y-38437D01*
X29889Y-38437D01*
X30000Y-38459D01*
X32182Y-38459D01*
X32182Y-38459D01*
X32293Y-38437D01*
X32387Y-38374D01*
X34705Y-36056D01*
X36814Y-36056D01*
X36780Y-36071D01*
X36740Y-36110D01*
X36580Y-36110D01*
X36469Y-36132D01*
X36438Y-36153D01*
X36375Y-36195D01*
X35642Y-36927D01*
X35608Y-36845D01*
X35499Y-36736D01*
X35402Y-36696D01*
X35402Y-36673D01*
X35343Y-36530D01*
X35234Y-36421D01*
X35092Y-36362D01*
X34938Y-36362D01*
X34795Y-36421D01*
X34686Y-36530D01*
X34627Y-36672D01*
X34627Y-36698D01*
X34328Y-36997D01*
X34273Y-36997D01*
X34130Y-37056D01*
X34021Y-37165D01*
X33962Y-37307D01*
X33962Y-37461D01*
X34021Y-37604D01*
X34130Y-37713D01*
X34162Y-37726D01*
X34162Y-37801D01*
X34221Y-37944D01*
X34330Y-38053D01*
X34472Y-38112D01*
X34621Y-38112D01*
X34661Y-38209D01*
X34770Y-38318D01*
X34912Y-38377D01*
X35066Y-38377D01*
X35209Y-38318D01*
X35318Y-38209D01*
X35377Y-38067D01*
X35377Y-38011D01*
X35541Y-37848D01*
X35556Y-37884D01*
X35595Y-37924D01*
X35595Y-38177D01*
X35573Y-38177D01*
X35430Y-38236D01*
X35321Y-38345D01*
X35262Y-38487D01*
X35262Y-38641D01*
X35284Y-38695D01*
X29249Y-38695D01*
X27904Y-37350D01*
X27810Y-37287D01*
X27700Y-37265D01*
X25374Y-37265D01*
X23864Y-35755D01*
X23864Y-34664D01*
X23903Y-34624D01*
X23962Y-34482D01*
X23962Y-34328D01*
X23903Y-34185D01*
X23794Y-34076D01*
X23652Y-34017D01*
X23596Y-34017D01*
X23094Y-33515D01*
X23094Y-32040D01*
X23094Y-31391D01*
X23123Y-31361D01*
X23183Y-31219D01*
X23183Y-31064D01*
X23124Y-30922D01*
X23025Y-30823D01*
X23079Y-30769D01*
X29125Y-30769D01*
X29125Y-30769D01*
X29235Y-30747D01*
X29329Y-30684D01*
X30209Y-29804D01*
X30575Y-29804D01*
X30615Y-29843D01*
X30757Y-29902D01*
X30911Y-29902D01*
X31054Y-29843D01*
X31163Y-29734D01*
X31222Y-29592D01*
X31222Y-29438D01*
X31201Y-29387D01*
X32611Y-27977D01*
X32666Y-27977D01*
X32809Y-27918D01*
X32918Y-27809D01*
X32977Y-27667D01*
X32977Y-27513D01*
X32918Y-27370D01*
X32809Y-27261D01*
X32667Y-27202D01*
X32513Y-27202D01*
X32370Y-27261D01*
X32330Y-27300D01*
X32149Y-27300D01*
X31879Y-27030D01*
X31879Y-26574D01*
X32001Y-26453D01*
X32049Y-26570D01*
X32168Y-26690D01*
X32325Y-26754D01*
X32494Y-26755D01*
X32650Y-26690D01*
X32682Y-26658D01*
X35227Y-26658D01*
X35238Y-26670D01*
X35395Y-26734D01*
X35564Y-26735D01*
X35720Y-26670D01*
X35840Y-26551D01*
X35904Y-26394D01*
X35905Y-26225D01*
X35840Y-26069D01*
X35721Y-25949D01*
X35564Y-25885D01*
X35395Y-25884D01*
X35239Y-25949D01*
X35227Y-25961D01*
X32630Y-25961D01*
X32517Y-25914D01*
X32517Y-25838D01*
X32458Y-25695D01*
X32349Y-25586D01*
X32207Y-25527D01*
X32053Y-25527D01*
X31910Y-25586D01*
X31801Y-25695D01*
X31742Y-25837D01*
X31742Y-25893D01*
X31385Y-26250D01*
X31322Y-26344D01*
X31300Y-26455D01*
X31300Y-27150D01*
X31322Y-27260D01*
X31385Y-27354D01*
X31825Y-27794D01*
X31825Y-27794D01*
X31915Y-27855D01*
X30840Y-28930D01*
X27669Y-28930D01*
X27669Y-25053D01*
X27604Y-24897D01*
X27485Y-24777D01*
X27329Y-24712D01*
X27311Y-24712D01*
X24440Y-21841D01*
X24440Y-21825D01*
X24376Y-21669D01*
X24256Y-21549D01*
X24100Y-21484D01*
X23931Y-21484D01*
X23775Y-21548D01*
X23655Y-21668D01*
X23590Y-21824D01*
X23590Y-21993D01*
X23655Y-22149D01*
X23774Y-22269D01*
X23930Y-22334D01*
X23947Y-22334D01*
X26819Y-25205D01*
X26819Y-25221D01*
X26883Y-25378D01*
X27003Y-25497D01*
X27159Y-25562D01*
X27328Y-25562D01*
X27484Y-25498D01*
X27604Y-25378D01*
X27669Y-25222D01*
X27669Y-25053D01*
X27669Y-28930D01*
X25628Y-28930D01*
X26334Y-28224D01*
X26334Y-28224D01*
X26397Y-28130D01*
X26419Y-28020D01*
X26419Y-28020D01*
X26419Y-27434D01*
X26458Y-27394D01*
X26517Y-27252D01*
X26517Y-27098D01*
X26458Y-26955D01*
X26349Y-26846D01*
X26207Y-26787D01*
X26053Y-26787D01*
X25910Y-26846D01*
X25801Y-26955D01*
X25742Y-27097D01*
X25742Y-27251D01*
X25801Y-27394D01*
X25840Y-27434D01*
X25840Y-27900D01*
X25819Y-27921D01*
X25798Y-27870D01*
X25689Y-27761D01*
X25557Y-27706D01*
X25557Y-27553D01*
X25498Y-27410D01*
X25389Y-27301D01*
X25247Y-27242D01*
X25093Y-27242D01*
X24950Y-27301D01*
X24841Y-27410D01*
X24809Y-27487D01*
X24809Y-24404D01*
X24848Y-24364D01*
X24907Y-24222D01*
X24907Y-24068D01*
X24848Y-23925D01*
X24739Y-23816D01*
X24597Y-23757D01*
X24443Y-23757D01*
X24300Y-23816D01*
X24191Y-23925D01*
X24132Y-24067D01*
X24132Y-24213D01*
X24129Y-24211D01*
X23987Y-24152D01*
X23833Y-24152D01*
X23690Y-24211D01*
X23581Y-24320D01*
X23522Y-24462D01*
X23522Y-24616D01*
X23581Y-24759D01*
X23690Y-24868D01*
X23832Y-24927D01*
X23888Y-24927D01*
X23910Y-24949D01*
X23910Y-26028D01*
X23888Y-25975D01*
X23779Y-25866D01*
X23637Y-25807D01*
X23483Y-25807D01*
X23340Y-25866D01*
X23231Y-25975D01*
X23172Y-26117D01*
X23172Y-26271D01*
X23231Y-26414D01*
X23340Y-26523D01*
X23482Y-26582D01*
X23538Y-26582D01*
X23705Y-26749D01*
X23705Y-28255D01*
X23727Y-28365D01*
X23790Y-28459D01*
X23978Y-28648D01*
X23006Y-28648D01*
X23004Y-28646D01*
X22862Y-28587D01*
X22708Y-28587D01*
X22565Y-28646D01*
X22525Y-28685D01*
X19260Y-28685D01*
X16979Y-26404D01*
X16979Y-22855D01*
X17766Y-22067D01*
X17766Y-20690D01*
X20296Y-18160D01*
X29822Y-18160D01*
X29767Y-18292D01*
X29767Y-18380D01*
X29729Y-18380D01*
X29689Y-18341D01*
X29547Y-18282D01*
X29393Y-18282D01*
X29250Y-18341D01*
X29141Y-18450D01*
X29114Y-18514D01*
X29041Y-18441D01*
X28898Y-18382D01*
X28744Y-18382D01*
X28601Y-18441D01*
X28492Y-18550D01*
X28433Y-18692D01*
X28433Y-18844D01*
X24940Y-18844D01*
X24830Y-18866D01*
X24799Y-18887D01*
X24736Y-18929D01*
X22035Y-21630D01*
X21972Y-21724D01*
X21950Y-21834D01*
X21950Y-25220D01*
X21911Y-25260D01*
X21852Y-25402D01*
X21852Y-25556D01*
X21911Y-25699D01*
X22020Y-25808D01*
X22162Y-25867D01*
X22316Y-25867D01*
X22459Y-25808D01*
X22568Y-25699D01*
X22627Y-25557D01*
X22627Y-25403D01*
X22568Y-25260D01*
X22529Y-25220D01*
X22529Y-21954D01*
X25060Y-19423D01*
X31788Y-19423D01*
X31827Y-19462D01*
X31969Y-19521D01*
X32124Y-19521D01*
X32266Y-19462D01*
X32375Y-19353D01*
X32434Y-19211D01*
X32435Y-19057D01*
X32376Y-18914D01*
X32267Y-18805D01*
X32124Y-18746D01*
X31970Y-18745D01*
X31827Y-18804D01*
X31788Y-18844D01*
X31019Y-18844D01*
X31703Y-18160D01*
X36987Y-18160D01*
X44438Y-25611D01*
X44438Y-26631D01*
X39712Y-21905D01*
X39618Y-21842D01*
X39507Y-21820D01*
X37305Y-21820D01*
X37177Y-21767D01*
X37023Y-21767D01*
X36880Y-21826D01*
X36771Y-21935D01*
X36712Y-22077D01*
X36712Y-22231D01*
X36771Y-22374D01*
X36880Y-22483D01*
X37022Y-22542D01*
X37176Y-22542D01*
X37319Y-22483D01*
X37404Y-22399D01*
X39387Y-22399D01*
X44438Y-27449D01*
X44438Y-27856D01*
X44438Y-27856D01*
G37*
G54D21*
X44438Y-27856D02*
X44088Y-27856D01*
X44088Y-27265D01*
X44029Y-27123D01*
X43920Y-27013D01*
X43778Y-26954D01*
X43623Y-26954D01*
X43481Y-27013D01*
X43422Y-27072D01*
X42385Y-27072D01*
X42345Y-27033D01*
X42203Y-26974D01*
X42049Y-26974D01*
X41906Y-27033D01*
X41797Y-27142D01*
X41738Y-27284D01*
X41738Y-27439D01*
X41797Y-27581D01*
X41906Y-27690D01*
X42048Y-27749D01*
X42202Y-27750D01*
X42345Y-27691D01*
X42385Y-27651D01*
X43461Y-27651D01*
X43480Y-27671D01*
X43623Y-27730D01*
X43777Y-27730D01*
X43920Y-27671D01*
X44029Y-27562D01*
X44088Y-27419D01*
X44088Y-27265D01*
X44088Y-27856D01*
X41952Y-27856D01*
X41826Y-27856D01*
X40177Y-27856D01*
X40177Y-24473D01*
X40118Y-24330D01*
X40009Y-24221D01*
X39867Y-24162D01*
X39713Y-24162D01*
X39570Y-24221D01*
X39530Y-24260D01*
X38549Y-24260D01*
X35417Y-21128D01*
X35417Y-21073D01*
X35358Y-20930D01*
X35249Y-20821D01*
X35107Y-20762D01*
X34953Y-20762D01*
X34810Y-20821D01*
X34701Y-20930D01*
X34642Y-21072D01*
X34642Y-21226D01*
X34701Y-21369D01*
X34810Y-21478D01*
X34952Y-21537D01*
X35008Y-21537D01*
X38225Y-24754D01*
X38225Y-24754D01*
X38319Y-24817D01*
X38430Y-24839D01*
X39530Y-24839D01*
X39570Y-24878D01*
X39712Y-24937D01*
X39866Y-24937D01*
X40009Y-24878D01*
X40118Y-24769D01*
X40177Y-24627D01*
X40177Y-24473D01*
X40177Y-27856D01*
X38867Y-27856D01*
X38867Y-26103D01*
X38808Y-25960D01*
X38699Y-25851D01*
X38557Y-25792D01*
X38427Y-25792D01*
X38427Y-25792D01*
X38370Y-25780D01*
X38197Y-25780D01*
X38197Y-25233D01*
X38138Y-25090D01*
X38029Y-24981D01*
X37887Y-24922D01*
X37831Y-24922D01*
X36779Y-23870D01*
X36779Y-23849D01*
X36818Y-23809D01*
X36877Y-23667D01*
X36877Y-23513D01*
X36818Y-23370D01*
X36709Y-23261D01*
X36567Y-23202D01*
X36413Y-23202D01*
X36270Y-23261D01*
X36161Y-23370D01*
X36102Y-23512D01*
X36102Y-23666D01*
X36161Y-23809D01*
X36200Y-23849D01*
X36200Y-23990D01*
X36222Y-24100D01*
X36285Y-24194D01*
X37422Y-25331D01*
X37422Y-25386D01*
X37481Y-25529D01*
X37590Y-25638D01*
X37732Y-25697D01*
X37886Y-25697D01*
X38029Y-25638D01*
X38138Y-25529D01*
X38197Y-25387D01*
X38197Y-25233D01*
X38197Y-25780D01*
X37094Y-25780D01*
X35574Y-24260D01*
X35480Y-24197D01*
X35370Y-24175D01*
X33577Y-24175D01*
X33577Y-23703D01*
X33518Y-23560D01*
X33409Y-23451D01*
X33267Y-23392D01*
X33113Y-23392D01*
X32970Y-23451D01*
X32925Y-23495D01*
X31957Y-23495D01*
X31957Y-22773D01*
X31898Y-22630D01*
X31789Y-22521D01*
X31647Y-22462D01*
X31591Y-22462D01*
X29934Y-20805D01*
X29903Y-20730D01*
X29794Y-20621D01*
X29652Y-20562D01*
X29498Y-20562D01*
X29355Y-20621D01*
X29246Y-20730D01*
X29187Y-20872D01*
X29187Y-21026D01*
X29246Y-21169D01*
X29355Y-21278D01*
X29497Y-21337D01*
X29648Y-21337D01*
X31182Y-22871D01*
X31182Y-22926D01*
X31241Y-23069D01*
X31350Y-23178D01*
X31492Y-23237D01*
X31646Y-23237D01*
X31789Y-23178D01*
X31898Y-23069D01*
X31957Y-22927D01*
X31957Y-22773D01*
X31957Y-23495D01*
X28364Y-23495D01*
X28324Y-23456D01*
X28182Y-23397D01*
X28028Y-23397D01*
X27885Y-23456D01*
X27776Y-23565D01*
X27717Y-23707D01*
X27717Y-23861D01*
X27776Y-24004D01*
X27885Y-24113D01*
X28027Y-24172D01*
X28181Y-24172D01*
X28324Y-24113D01*
X28364Y-24074D01*
X32935Y-24074D01*
X32970Y-24108D01*
X33112Y-24167D01*
X33266Y-24167D01*
X33409Y-24108D01*
X33518Y-23999D01*
X33577Y-23857D01*
X33577Y-23703D01*
X33577Y-24175D01*
X27860Y-24175D01*
X27852Y-24175D01*
X24738Y-21061D01*
X24738Y-21005D01*
X24679Y-20863D01*
X24570Y-20754D01*
X24427Y-20694D01*
X24273Y-20694D01*
X24131Y-20753D01*
X24021Y-20862D01*
X23962Y-21005D01*
X23962Y-21159D01*
X24021Y-21302D01*
X24130Y-21411D01*
X24272Y-21470D01*
X24328Y-21470D01*
X27528Y-24669D01*
X27528Y-24669D01*
X27621Y-24732D01*
X27732Y-24754D01*
X27860Y-24754D01*
X35250Y-24754D01*
X36770Y-26274D01*
X36770Y-26274D01*
X36864Y-26337D01*
X36864Y-26337D01*
X36882Y-26340D01*
X36975Y-26359D01*
X38134Y-26359D01*
X38151Y-26399D01*
X38260Y-26508D01*
X38402Y-26567D01*
X38556Y-26567D01*
X38699Y-26508D01*
X38808Y-26399D01*
X38867Y-26257D01*
X38867Y-26103D01*
X38867Y-27856D01*
X38534Y-27856D01*
X38423Y-27878D01*
X38329Y-27941D01*
X36518Y-29752D01*
X36463Y-29752D01*
X36320Y-29811D01*
X36211Y-29920D01*
X36152Y-30062D01*
X36152Y-30216D01*
X36211Y-30359D01*
X36320Y-30468D01*
X36462Y-30527D01*
X36616Y-30527D01*
X36703Y-30491D01*
X36805Y-30593D01*
X36947Y-30652D01*
X37003Y-30652D01*
X38005Y-31654D01*
X38005Y-34335D01*
X37966Y-34375D01*
X37907Y-34517D01*
X37907Y-34671D01*
X37966Y-34814D01*
X38005Y-34854D01*
X38005Y-35366D01*
X37922Y-35332D01*
X37792Y-35332D01*
X37792Y-35332D01*
X37735Y-35320D01*
X34520Y-35320D01*
X34409Y-35342D01*
X34378Y-35363D01*
X34315Y-35405D01*
X32100Y-37620D01*
X31449Y-37620D01*
X31409Y-37581D01*
X31267Y-37522D01*
X31113Y-37522D01*
X30970Y-37581D01*
X30861Y-37690D01*
X30802Y-37832D01*
X30802Y-37880D01*
X30119Y-37880D01*
X30107Y-37868D01*
X30107Y-37813D01*
X30048Y-37670D01*
X29939Y-37561D01*
X29797Y-37502D01*
X29650Y-37502D01*
X29650Y-35795D01*
X29585Y-35639D01*
X29466Y-35519D01*
X29309Y-35455D01*
X29140Y-35454D01*
X28984Y-35519D01*
X28972Y-35531D01*
X26171Y-35531D01*
X26119Y-35510D01*
X25950Y-35509D01*
X25794Y-35574D01*
X25674Y-35693D01*
X25610Y-35850D01*
X25609Y-36019D01*
X25674Y-36175D01*
X25793Y-36295D01*
X25950Y-36359D01*
X26119Y-36360D01*
X26275Y-36295D01*
X26342Y-36228D01*
X28972Y-36228D01*
X28983Y-36240D01*
X29140Y-36304D01*
X29309Y-36305D01*
X29465Y-36240D01*
X29585Y-36121D01*
X29649Y-35964D01*
X29650Y-35795D01*
X29650Y-37502D01*
X29643Y-37502D01*
X29500Y-37561D01*
X29391Y-37670D01*
X29332Y-37812D01*
X29332Y-37966D01*
X29391Y-38109D01*
X29500Y-38218D01*
X29642Y-38277D01*
X29698Y-38277D01*
X29795Y-38374D01*
X29795Y-38374D01*
X29858Y-38416D01*
X29889Y-38437D01*
X29889Y-38437D01*
X30000Y-38459D01*
X32182Y-38459D01*
X32182Y-38459D01*
X32293Y-38437D01*
X32387Y-38374D01*
X34705Y-36056D01*
X36814Y-36056D01*
X36780Y-36071D01*
X36740Y-36110D01*
X36580Y-36110D01*
X36469Y-36132D01*
X36438Y-36153D01*
X36375Y-36195D01*
X35642Y-36927D01*
X35608Y-36845D01*
X35499Y-36736D01*
X35402Y-36696D01*
X35402Y-36673D01*
X35343Y-36530D01*
X35234Y-36421D01*
X35092Y-36362D01*
X34938Y-36362D01*
X34795Y-36421D01*
X34686Y-36530D01*
X34627Y-36672D01*
X34627Y-36698D01*
X34328Y-36997D01*
X34273Y-36997D01*
X34130Y-37056D01*
X34021Y-37165D01*
X33962Y-37307D01*
X33962Y-37461D01*
X34021Y-37604D01*
X34130Y-37713D01*
X34162Y-37726D01*
X34162Y-37801D01*
X34221Y-37944D01*
X34330Y-38053D01*
X34472Y-38112D01*
X34621Y-38112D01*
X34661Y-38209D01*
X34770Y-38318D01*
X34912Y-38377D01*
X35066Y-38377D01*
X35209Y-38318D01*
X35318Y-38209D01*
X35377Y-38067D01*
X35377Y-38011D01*
X35541Y-37848D01*
X35556Y-37884D01*
X35595Y-37924D01*
X35595Y-38177D01*
X35573Y-38177D01*
X35430Y-38236D01*
X35321Y-38345D01*
X35262Y-38487D01*
X35262Y-38641D01*
X35284Y-38695D01*
X29249Y-38695D01*
X27904Y-37350D01*
X27810Y-37287D01*
X27700Y-37265D01*
X25374Y-37265D01*
X23864Y-35755D01*
X23864Y-34664D01*
X23903Y-34624D01*
X23962Y-34482D01*
X23962Y-34328D01*
X23903Y-34185D01*
X23794Y-34076D01*
X23652Y-34017D01*
X23596Y-34017D01*
X23094Y-33515D01*
X23094Y-32040D01*
X23094Y-31391D01*
X23123Y-31361D01*
X23183Y-31219D01*
X23183Y-31064D01*
X23124Y-30922D01*
X23025Y-30823D01*
X23079Y-30769D01*
X29125Y-30769D01*
X29125Y-30769D01*
X29235Y-30747D01*
X29329Y-30684D01*
X30209Y-29804D01*
X30575Y-29804D01*
X30615Y-29843D01*
X30757Y-29902D01*
X30911Y-29902D01*
X31054Y-29843D01*
X31163Y-29734D01*
X31222Y-29592D01*
X31222Y-29438D01*
X31201Y-29387D01*
X32611Y-27977D01*
X32666Y-27977D01*
X32809Y-27918D01*
X32918Y-27809D01*
X32977Y-27667D01*
X32977Y-27513D01*
X32918Y-27370D01*
X32809Y-27261D01*
X32667Y-27202D01*
X32513Y-27202D01*
X32370Y-27261D01*
X32330Y-27300D01*
X32149Y-27300D01*
X31879Y-27030D01*
X31879Y-26574D01*
X32001Y-26453D01*
X32049Y-26570D01*
X32168Y-26690D01*
X32325Y-26754D01*
X32494Y-26755D01*
X32650Y-26690D01*
X32682Y-26658D01*
X35227Y-26658D01*
X35238Y-26670D01*
X35395Y-26734D01*
X35564Y-26735D01*
X35720Y-26670D01*
X35840Y-26551D01*
X35904Y-26394D01*
X35905Y-26225D01*
X35840Y-26069D01*
X35721Y-25949D01*
X35564Y-25885D01*
X35395Y-25884D01*
X35239Y-25949D01*
X35227Y-25961D01*
X32630Y-25961D01*
X32517Y-25914D01*
X32517Y-25838D01*
X32458Y-25695D01*
X32349Y-25586D01*
X32207Y-25527D01*
X32053Y-25527D01*
X31910Y-25586D01*
X31801Y-25695D01*
X31742Y-25837D01*
X31742Y-25893D01*
X31385Y-26250D01*
X31322Y-26344D01*
X31300Y-26455D01*
X31300Y-27150D01*
X31322Y-27260D01*
X31385Y-27354D01*
X31825Y-27794D01*
X31825Y-27794D01*
X31915Y-27855D01*
X30840Y-28930D01*
X27669Y-28930D01*
X27669Y-25053D01*
X27604Y-24897D01*
X27485Y-24777D01*
X27329Y-24712D01*
X27311Y-24712D01*
X24440Y-21841D01*
X24440Y-21825D01*
X24376Y-21669D01*
X24256Y-21549D01*
X24100Y-21484D01*
X23931Y-21484D01*
X23775Y-21548D01*
X23655Y-21668D01*
X23590Y-21824D01*
X23590Y-21993D01*
X23655Y-22149D01*
X23774Y-22269D01*
X23930Y-22334D01*
X23947Y-22334D01*
X26819Y-25205D01*
X26819Y-25221D01*
X26883Y-25378D01*
X27003Y-25497D01*
X27159Y-25562D01*
X27328Y-25562D01*
X27484Y-25498D01*
X27604Y-25378D01*
X27669Y-25222D01*
X27669Y-25053D01*
X27669Y-28930D01*
X25628Y-28930D01*
X26334Y-28224D01*
X26334Y-28224D01*
X26397Y-28130D01*
X26419Y-28020D01*
X26419Y-28020D01*
X26419Y-27434D01*
X26458Y-27394D01*
X26517Y-27252D01*
X26517Y-27098D01*
X26458Y-26955D01*
X26349Y-26846D01*
X26207Y-26787D01*
X26053Y-26787D01*
X25910Y-26846D01*
X25801Y-26955D01*
X25742Y-27097D01*
X25742Y-27251D01*
X25801Y-27394D01*
X25840Y-27434D01*
X25840Y-27900D01*
X25819Y-27921D01*
X25798Y-27870D01*
X25689Y-27761D01*
X25557Y-27706D01*
X25557Y-27553D01*
X25498Y-27410D01*
X25389Y-27301D01*
X25247Y-27242D01*
X25093Y-27242D01*
X24950Y-27301D01*
X24841Y-27410D01*
X24809Y-27487D01*
X24809Y-24404D01*
X24848Y-24364D01*
X24907Y-24222D01*
X24907Y-24068D01*
X24848Y-23925D01*
X24739Y-23816D01*
X24597Y-23757D01*
X24443Y-23757D01*
X24300Y-23816D01*
X24191Y-23925D01*
X24132Y-24067D01*
X24132Y-24213D01*
X24129Y-24211D01*
X23987Y-24152D01*
X23833Y-24152D01*
X23690Y-24211D01*
X23581Y-24320D01*
X23522Y-24462D01*
X23522Y-24616D01*
X23581Y-24759D01*
X23690Y-24868D01*
X23832Y-24927D01*
X23888Y-24927D01*
X23910Y-24949D01*
X23910Y-26028D01*
X23888Y-25975D01*
X23779Y-25866D01*
X23637Y-25807D01*
X23483Y-25807D01*
X23340Y-25866D01*
X23231Y-25975D01*
X23172Y-26117D01*
X23172Y-26271D01*
X23231Y-26414D01*
X23340Y-26523D01*
X23482Y-26582D01*
X23538Y-26582D01*
X23705Y-26749D01*
X23705Y-28255D01*
X23727Y-28365D01*
X23790Y-28459D01*
X23978Y-28648D01*
X23006Y-28648D01*
X23004Y-28646D01*
X22862Y-28587D01*
X22708Y-28587D01*
X22565Y-28646D01*
X22525Y-28685D01*
X19260Y-28685D01*
X16979Y-26404D01*
X16979Y-22855D01*
X17766Y-22067D01*
X17766Y-20690D01*
X20296Y-18160D01*
X29822Y-18160D01*
X29767Y-18292D01*
X29767Y-18380D01*
X29729Y-18380D01*
X29689Y-18341D01*
X29547Y-18282D01*
X29393Y-18282D01*
X29250Y-18341D01*
X29141Y-18450D01*
X29114Y-18514D01*
X29041Y-18441D01*
X28898Y-18382D01*
X28744Y-18382D01*
X28601Y-18441D01*
X28492Y-18550D01*
X28433Y-18692D01*
X28433Y-18844D01*
X24940Y-18844D01*
X24830Y-18866D01*
X24799Y-18887D01*
X24736Y-18929D01*
X22035Y-21630D01*
X21972Y-21724D01*
X21950Y-21834D01*
X21950Y-25220D01*
X21911Y-25260D01*
X21852Y-25402D01*
X21852Y-25556D01*
X21911Y-25699D01*
X22020Y-25808D01*
X22162Y-25867D01*
X22316Y-25867D01*
X22459Y-25808D01*
X22568Y-25699D01*
X22627Y-25557D01*
X22627Y-25403D01*
X22568Y-25260D01*
X22529Y-25220D01*
X22529Y-21954D01*
X25060Y-19423D01*
X31788Y-19423D01*
X31827Y-19462D01*
X31969Y-19521D01*
X32124Y-19521D01*
X32266Y-19462D01*
X32375Y-19353D01*
X32434Y-19211D01*
X32435Y-19057D01*
X32376Y-18914D01*
X32267Y-18805D01*
X32124Y-18746D01*
X31970Y-18745D01*
X31827Y-18804D01*
X31788Y-18844D01*
X31019Y-18844D01*
X31703Y-18160D01*
X36987Y-18160D01*
X44438Y-25611D01*
X44438Y-26631D01*
X39712Y-21905D01*
X39618Y-21842D01*
X39507Y-21820D01*
X37305Y-21820D01*
X37177Y-21767D01*
X37023Y-21767D01*
X36880Y-21826D01*
X36771Y-21935D01*
X36712Y-22077D01*
X36712Y-22231D01*
X36771Y-22374D01*
X36880Y-22483D01*
X37022Y-22542D01*
X37176Y-22542D01*
X37319Y-22483D01*
X37404Y-22399D01*
X39387Y-22399D01*
X44438Y-27449D01*
X44438Y-27856D01*
G54D10*
G36*
X44438Y-36987D02*
X38365Y-43060D01*
X26809Y-43060D01*
X26809Y-42095D01*
X26809Y-40635D01*
X26787Y-40524D01*
X26724Y-40430D01*
X26724Y-40430D01*
X26304Y-40010D01*
X26210Y-39947D01*
X26100Y-39925D01*
X24844Y-39925D01*
X24804Y-39886D01*
X24662Y-39827D01*
X24508Y-39827D01*
X24365Y-39886D01*
X24256Y-39995D01*
X24197Y-40137D01*
X24197Y-40291D01*
X24218Y-40344D01*
X24195Y-40360D01*
X23000Y-41555D01*
X22937Y-41649D01*
X22915Y-41760D01*
X22915Y-42045D01*
X22937Y-42155D01*
X23000Y-42249D01*
X23335Y-42584D01*
X23335Y-42584D01*
X23429Y-42647D01*
X23540Y-42669D01*
X25017Y-42669D01*
X25017Y-42669D01*
X25128Y-42647D01*
X25222Y-42584D01*
X25419Y-42387D01*
X25474Y-42387D01*
X25617Y-42328D01*
X25726Y-42219D01*
X25785Y-42077D01*
X25785Y-41923D01*
X25726Y-41780D01*
X25617Y-41671D01*
X25554Y-41645D01*
X26021Y-41177D01*
X26076Y-41177D01*
X26219Y-41118D01*
X26230Y-41107D01*
X26230Y-41975D01*
X26179Y-42027D01*
X26123Y-42027D01*
X25981Y-42086D01*
X25872Y-42195D01*
X25813Y-42337D01*
X25812Y-42491D01*
X25871Y-42634D01*
X25980Y-42743D01*
X26123Y-42802D01*
X26277Y-42802D01*
X26420Y-42743D01*
X26529Y-42634D01*
X26588Y-42492D01*
X26588Y-42436D01*
X26724Y-42300D01*
X26724Y-42300D01*
X26787Y-42206D01*
X26809Y-42095D01*
X26809Y-42095D01*
X26809Y-43060D01*
X13112Y-43060D01*
X13229Y-43011D01*
X13392Y-42848D01*
X13481Y-42635D01*
X13481Y-42404D01*
X13481Y-39452D01*
X13481Y-36499D01*
X13481Y-33546D01*
X13393Y-33333D01*
X13230Y-33170D01*
X13017Y-33081D01*
X12786Y-33081D01*
X12573Y-33169D01*
X12410Y-33332D01*
X12401Y-33353D01*
X12309Y-33324D01*
X12238Y-33395D01*
X12238Y-33253D01*
X12207Y-33155D01*
X11990Y-33076D01*
X11760Y-33087D01*
X11595Y-33155D01*
X11564Y-33253D01*
X11901Y-33590D01*
X12238Y-33253D01*
X12238Y-33395D01*
X11972Y-33661D01*
X12309Y-33998D01*
X12401Y-33969D01*
X12409Y-33989D01*
X12572Y-34152D01*
X12785Y-34241D01*
X13016Y-34241D01*
X13229Y-34153D01*
X13392Y-33990D01*
X13481Y-33777D01*
X13481Y-33546D01*
X13481Y-36499D01*
X13393Y-36286D01*
X13230Y-36122D01*
X13017Y-36034D01*
X12786Y-36034D01*
X12573Y-36122D01*
X12410Y-36285D01*
X12401Y-36306D01*
X12309Y-36277D01*
X12238Y-36347D01*
X12238Y-36206D01*
X12238Y-34069D01*
X11901Y-33732D01*
X11564Y-34069D01*
X11595Y-34167D01*
X11812Y-34246D01*
X12043Y-34235D01*
X12207Y-34167D01*
X12238Y-34069D01*
X12238Y-36206D01*
X12207Y-36108D01*
X11990Y-36029D01*
X11760Y-36040D01*
X11595Y-36108D01*
X11564Y-36206D01*
X11901Y-36543D01*
X12238Y-36206D01*
X12238Y-36347D01*
X11972Y-36614D01*
X12309Y-36951D01*
X12401Y-36922D01*
X12409Y-36942D01*
X12572Y-37105D01*
X12785Y-37194D01*
X13016Y-37194D01*
X13229Y-37106D01*
X13392Y-36943D01*
X13481Y-36730D01*
X13481Y-36499D01*
X13481Y-39452D01*
X13393Y-39238D01*
X13230Y-39075D01*
X13017Y-38987D01*
X12786Y-38986D01*
X12573Y-39074D01*
X12410Y-39237D01*
X12401Y-39259D01*
X12309Y-39229D01*
X12238Y-39300D01*
X12238Y-39159D01*
X12238Y-37021D01*
X11901Y-36684D01*
X11564Y-37021D01*
X11595Y-37120D01*
X11812Y-37198D01*
X12043Y-37188D01*
X12207Y-37120D01*
X12238Y-37021D01*
X12238Y-39159D01*
X12207Y-39060D01*
X11990Y-38982D01*
X11760Y-38992D01*
X11595Y-39060D01*
X11564Y-39159D01*
X11901Y-39496D01*
X12238Y-39159D01*
X12238Y-39300D01*
X11972Y-39566D01*
X12309Y-39903D01*
X12401Y-39874D01*
X12409Y-39895D01*
X12572Y-40058D01*
X12785Y-40146D01*
X13016Y-40147D01*
X13229Y-40058D01*
X13392Y-39895D01*
X13481Y-39682D01*
X13481Y-39452D01*
X13481Y-42404D01*
X13393Y-42191D01*
X13230Y-42028D01*
X13017Y-41939D01*
X12786Y-41939D01*
X12573Y-42027D01*
X12410Y-42190D01*
X12401Y-42211D01*
X12309Y-42182D01*
X12238Y-42253D01*
X12238Y-42112D01*
X12238Y-39974D01*
X11901Y-39637D01*
X11564Y-39974D01*
X11595Y-40073D01*
X11812Y-40151D01*
X12043Y-40141D01*
X12207Y-40073D01*
X12238Y-39974D01*
X12238Y-42112D01*
X12207Y-42013D01*
X11990Y-41935D01*
X11760Y-41945D01*
X11595Y-42013D01*
X11564Y-42112D01*
X11901Y-42448D01*
X12238Y-42112D01*
X12238Y-42253D01*
X11972Y-42519D01*
X12309Y-42856D01*
X12401Y-42827D01*
X12409Y-42847D01*
X12572Y-43011D01*
X12690Y-43060D01*
X12124Y-43060D01*
X12207Y-43025D01*
X12238Y-42927D01*
X11901Y-42590D01*
X11564Y-42927D01*
X11595Y-43025D01*
X11690Y-43060D01*
X11467Y-43060D01*
X11467Y-42848D01*
X11493Y-42856D01*
X11830Y-42519D01*
X11493Y-42182D01*
X11467Y-42191D01*
X11467Y-39895D01*
X11493Y-39903D01*
X11830Y-39566D01*
X11493Y-39229D01*
X11467Y-39238D01*
X11467Y-36942D01*
X11493Y-36951D01*
X11830Y-36614D01*
X11493Y-36277D01*
X11467Y-36285D01*
X11467Y-33989D01*
X11493Y-33998D01*
X11830Y-33661D01*
X11493Y-33324D01*
X11467Y-33332D01*
X11467Y-32894D01*
X12028Y-32333D01*
X14784Y-32333D01*
X16979Y-30138D01*
X16979Y-27223D01*
X18935Y-29179D01*
X18935Y-29179D01*
X19029Y-29242D01*
X19140Y-29264D01*
X22525Y-29264D01*
X22565Y-29303D01*
X22707Y-29362D01*
X22861Y-29362D01*
X23004Y-29303D01*
X23042Y-29266D01*
X23042Y-29296D01*
X23101Y-29439D01*
X23210Y-29548D01*
X23352Y-29607D01*
X23506Y-29607D01*
X23649Y-29548D01*
X23689Y-29509D01*
X29686Y-29509D01*
X29005Y-30190D01*
X22960Y-30190D01*
X22849Y-30212D01*
X22755Y-30275D01*
X22276Y-30753D01*
X22246Y-30753D01*
X22103Y-30812D01*
X21994Y-30921D01*
X21935Y-31064D01*
X21934Y-31218D01*
X21993Y-31361D01*
X22025Y-31392D01*
X22025Y-32055D01*
X22025Y-33775D01*
X22047Y-33885D01*
X22110Y-33979D01*
X22557Y-34426D01*
X22557Y-34481D01*
X22616Y-34624D01*
X22725Y-34733D01*
X22867Y-34792D01*
X23021Y-34792D01*
X23164Y-34733D01*
X23260Y-34638D01*
X23285Y-34664D01*
X23285Y-35875D01*
X23307Y-35985D01*
X23370Y-36079D01*
X25050Y-37759D01*
X25050Y-37759D01*
X25144Y-37822D01*
X25255Y-37844D01*
X27580Y-37844D01*
X28925Y-39189D01*
X28925Y-39189D01*
X29019Y-39252D01*
X29019Y-39252D01*
X29037Y-39255D01*
X29130Y-39274D01*
X36165Y-39274D01*
X36165Y-39274D01*
X36275Y-39252D01*
X36369Y-39189D01*
X38369Y-37190D01*
X38387Y-37197D01*
X38541Y-37197D01*
X38684Y-37138D01*
X38793Y-37029D01*
X38852Y-36887D01*
X38852Y-36733D01*
X38793Y-36590D01*
X38684Y-36481D01*
X38584Y-36439D01*
X38584Y-34854D01*
X38623Y-34814D01*
X38682Y-34672D01*
X38682Y-34518D01*
X38623Y-34375D01*
X38584Y-34335D01*
X38584Y-31535D01*
X38562Y-31424D01*
X38499Y-31330D01*
X38499Y-31330D01*
X37859Y-30690D01*
X37870Y-30694D01*
X37887Y-30694D01*
X37988Y-30796D01*
X37988Y-30796D01*
X38101Y-30871D01*
X38235Y-30898D01*
X39077Y-30898D01*
X39088Y-30910D01*
X39245Y-30974D01*
X39414Y-30975D01*
X39570Y-30910D01*
X39582Y-30898D01*
X44438Y-30898D01*
X44438Y-36987D01*
X44438Y-36987D01*
G37*
G54D21*
X44438Y-36987D02*
X38365Y-43060D01*
X26809Y-43060D01*
X26809Y-42095D01*
X26809Y-40635D01*
X26787Y-40524D01*
X26724Y-40430D01*
X26724Y-40430D01*
X26304Y-40010D01*
X26210Y-39947D01*
X26100Y-39925D01*
X24844Y-39925D01*
X24804Y-39886D01*
X24662Y-39827D01*
X24508Y-39827D01*
X24365Y-39886D01*
X24256Y-39995D01*
X24197Y-40137D01*
X24197Y-40291D01*
X24218Y-40344D01*
X24195Y-40360D01*
X23000Y-41555D01*
X22937Y-41649D01*
X22915Y-41760D01*
X22915Y-42045D01*
X22937Y-42155D01*
X23000Y-42249D01*
X23335Y-42584D01*
X23335Y-42584D01*
X23429Y-42647D01*
X23540Y-42669D01*
X25017Y-42669D01*
X25017Y-42669D01*
X25128Y-42647D01*
X25222Y-42584D01*
X25419Y-42387D01*
X25474Y-42387D01*
X25617Y-42328D01*
X25726Y-42219D01*
X25785Y-42077D01*
X25785Y-41923D01*
X25726Y-41780D01*
X25617Y-41671D01*
X25554Y-41645D01*
X26021Y-41177D01*
X26076Y-41177D01*
X26219Y-41118D01*
X26230Y-41107D01*
X26230Y-41975D01*
X26179Y-42027D01*
X26123Y-42027D01*
X25981Y-42086D01*
X25872Y-42195D01*
X25813Y-42337D01*
X25812Y-42491D01*
X25871Y-42634D01*
X25980Y-42743D01*
X26123Y-42802D01*
X26277Y-42802D01*
X26420Y-42743D01*
X26529Y-42634D01*
X26588Y-42492D01*
X26588Y-42436D01*
X26724Y-42300D01*
X26724Y-42300D01*
X26787Y-42206D01*
X26809Y-42095D01*
X26809Y-42095D01*
X26809Y-43060D01*
X13112Y-43060D01*
X13229Y-43011D01*
X13392Y-42848D01*
X13481Y-42635D01*
X13481Y-42404D01*
X13481Y-39452D01*
X13481Y-36499D01*
X13481Y-33546D01*
X13393Y-33333D01*
X13230Y-33170D01*
X13017Y-33081D01*
X12786Y-33081D01*
X12573Y-33169D01*
X12410Y-33332D01*
X12401Y-33353D01*
X12309Y-33324D01*
X12238Y-33395D01*
X12238Y-33253D01*
X12207Y-33155D01*
X11990Y-33076D01*
X11760Y-33087D01*
X11595Y-33155D01*
X11564Y-33253D01*
X11901Y-33590D01*
X12238Y-33253D01*
X12238Y-33395D01*
X11972Y-33661D01*
X12309Y-33998D01*
X12401Y-33969D01*
X12409Y-33989D01*
X12572Y-34152D01*
X12785Y-34241D01*
X13016Y-34241D01*
X13229Y-34153D01*
X13392Y-33990D01*
X13481Y-33777D01*
X13481Y-33546D01*
X13481Y-36499D01*
X13393Y-36286D01*
X13230Y-36122D01*
X13017Y-36034D01*
X12786Y-36034D01*
X12573Y-36122D01*
X12410Y-36285D01*
X12401Y-36306D01*
X12309Y-36277D01*
X12238Y-36347D01*
X12238Y-36206D01*
X12238Y-34069D01*
X11901Y-33732D01*
X11564Y-34069D01*
X11595Y-34167D01*
X11812Y-34246D01*
X12043Y-34235D01*
X12207Y-34167D01*
X12238Y-34069D01*
X12238Y-36206D01*
X12207Y-36108D01*
X11990Y-36029D01*
X11760Y-36040D01*
X11595Y-36108D01*
X11564Y-36206D01*
X11901Y-36543D01*
X12238Y-36206D01*
X12238Y-36347D01*
X11972Y-36614D01*
X12309Y-36951D01*
X12401Y-36922D01*
X12409Y-36942D01*
X12572Y-37105D01*
X12785Y-37194D01*
X13016Y-37194D01*
X13229Y-37106D01*
X13392Y-36943D01*
X13481Y-36730D01*
X13481Y-36499D01*
X13481Y-39452D01*
X13393Y-39238D01*
X13230Y-39075D01*
X13017Y-38987D01*
X12786Y-38986D01*
X12573Y-39074D01*
X12410Y-39237D01*
X12401Y-39259D01*
X12309Y-39229D01*
X12238Y-39300D01*
X12238Y-39159D01*
X12238Y-37021D01*
X11901Y-36684D01*
X11564Y-37021D01*
X11595Y-37120D01*
X11812Y-37198D01*
X12043Y-37188D01*
X12207Y-37120D01*
X12238Y-37021D01*
X12238Y-39159D01*
X12207Y-39060D01*
X11990Y-38982D01*
X11760Y-38992D01*
X11595Y-39060D01*
X11564Y-39159D01*
X11901Y-39496D01*
X12238Y-39159D01*
X12238Y-39300D01*
X11972Y-39566D01*
X12309Y-39903D01*
X12401Y-39874D01*
X12409Y-39895D01*
X12572Y-40058D01*
X12785Y-40146D01*
X13016Y-40147D01*
X13229Y-40058D01*
X13392Y-39895D01*
X13481Y-39682D01*
X13481Y-39452D01*
X13481Y-42404D01*
X13393Y-42191D01*
X13230Y-42028D01*
X13017Y-41939D01*
X12786Y-41939D01*
X12573Y-42027D01*
X12410Y-42190D01*
X12401Y-42211D01*
X12309Y-42182D01*
X12238Y-42253D01*
X12238Y-42112D01*
X12238Y-39974D01*
X11901Y-39637D01*
X11564Y-39974D01*
X11595Y-40073D01*
X11812Y-40151D01*
X12043Y-40141D01*
X12207Y-40073D01*
X12238Y-39974D01*
X12238Y-42112D01*
X12207Y-42013D01*
X11990Y-41935D01*
X11760Y-41945D01*
X11595Y-42013D01*
X11564Y-42112D01*
X11901Y-42448D01*
X12238Y-42112D01*
X12238Y-42253D01*
X11972Y-42519D01*
X12309Y-42856D01*
X12401Y-42827D01*
X12409Y-42847D01*
X12572Y-43011D01*
X12690Y-43060D01*
X12124Y-43060D01*
X12207Y-43025D01*
X12238Y-42927D01*
X11901Y-42590D01*
X11564Y-42927D01*
X11595Y-43025D01*
X11690Y-43060D01*
X11467Y-43060D01*
X11467Y-42848D01*
X11493Y-42856D01*
X11830Y-42519D01*
X11493Y-42182D01*
X11467Y-42191D01*
X11467Y-39895D01*
X11493Y-39903D01*
X11830Y-39566D01*
X11493Y-39229D01*
X11467Y-39238D01*
X11467Y-36942D01*
X11493Y-36951D01*
X11830Y-36614D01*
X11493Y-36277D01*
X11467Y-36285D01*
X11467Y-33989D01*
X11493Y-33998D01*
X11830Y-33661D01*
X11493Y-33324D01*
X11467Y-33332D01*
X11467Y-32894D01*
X12028Y-32333D01*
X14784Y-32333D01*
X16979Y-30138D01*
X16979Y-27223D01*
X18935Y-29179D01*
X18935Y-29179D01*
X19029Y-29242D01*
X19140Y-29264D01*
X22525Y-29264D01*
X22565Y-29303D01*
X22707Y-29362D01*
X22861Y-29362D01*
X23004Y-29303D01*
X23042Y-29266D01*
X23042Y-29296D01*
X23101Y-29439D01*
X23210Y-29548D01*
X23352Y-29607D01*
X23506Y-29607D01*
X23649Y-29548D01*
X23689Y-29509D01*
X29686Y-29509D01*
X29005Y-30190D01*
X22960Y-30190D01*
X22849Y-30212D01*
X22755Y-30275D01*
X22276Y-30753D01*
X22246Y-30753D01*
X22103Y-30812D01*
X21994Y-30921D01*
X21935Y-31064D01*
X21934Y-31218D01*
X21993Y-31361D01*
X22025Y-31392D01*
X22025Y-32055D01*
X22025Y-33775D01*
X22047Y-33885D01*
X22110Y-33979D01*
X22557Y-34426D01*
X22557Y-34481D01*
X22616Y-34624D01*
X22725Y-34733D01*
X22867Y-34792D01*
X23021Y-34792D01*
X23164Y-34733D01*
X23260Y-34638D01*
X23285Y-34664D01*
X23285Y-35875D01*
X23307Y-35985D01*
X23370Y-36079D01*
X25050Y-37759D01*
X25050Y-37759D01*
X25144Y-37822D01*
X25255Y-37844D01*
X27580Y-37844D01*
X28925Y-39189D01*
X28925Y-39189D01*
X29019Y-39252D01*
X29019Y-39252D01*
X29037Y-39255D01*
X29130Y-39274D01*
X36165Y-39274D01*
X36165Y-39274D01*
X36275Y-39252D01*
X36369Y-39189D01*
X38369Y-37190D01*
X38387Y-37197D01*
X38541Y-37197D01*
X38684Y-37138D01*
X38793Y-37029D01*
X38852Y-36887D01*
X38852Y-36733D01*
X38793Y-36590D01*
X38684Y-36481D01*
X38584Y-36439D01*
X38584Y-34854D01*
X38623Y-34814D01*
X38682Y-34672D01*
X38682Y-34518D01*
X38623Y-34375D01*
X38584Y-34335D01*
X38584Y-31535D01*
X38562Y-31424D01*
X38499Y-31330D01*
X38499Y-31330D01*
X37859Y-30690D01*
X37870Y-30694D01*
X37887Y-30694D01*
X37988Y-30796D01*
X37988Y-30796D01*
X38101Y-30871D01*
X38235Y-30898D01*
X39077Y-30898D01*
X39088Y-30910D01*
X39245Y-30974D01*
X39414Y-30975D01*
X39570Y-30910D01*
X39582Y-30898D01*
X44438Y-30898D01*
X44438Y-36987D01*
G54D10*
G36*
X49336Y-47761D02*
X49069Y-47761D01*
X49069Y-45779D01*
X49069Y-10346D01*
X48851Y-9820D01*
X48449Y-9417D01*
X47923Y-9199D01*
X47354Y-9198D01*
X46828Y-9415D01*
X46425Y-9818D01*
X46206Y-10344D01*
X46206Y-10913D01*
X46423Y-11439D01*
X46826Y-11842D01*
X47351Y-12060D01*
X47921Y-12061D01*
X48447Y-11843D01*
X48850Y-11441D01*
X49068Y-10915D01*
X49069Y-10346D01*
X49069Y-45779D01*
X48851Y-45253D01*
X48449Y-44850D01*
X47923Y-44632D01*
X47354Y-44631D01*
X46828Y-44849D01*
X46425Y-45251D01*
X46206Y-45777D01*
X46206Y-46346D01*
X46423Y-46872D01*
X46826Y-47275D01*
X47351Y-47493D01*
X47921Y-47494D01*
X48447Y-47276D01*
X48850Y-46874D01*
X49068Y-46348D01*
X49069Y-45779D01*
X49069Y-47761D01*
X34756Y-47761D01*
X34756Y-45051D01*
X34444Y-44740D01*
X34132Y-45051D01*
X34159Y-45146D01*
X34364Y-45219D01*
X34580Y-45208D01*
X34730Y-45146D01*
X34756Y-45051D01*
X34756Y-47761D01*
X25308Y-47761D01*
X25308Y-45051D01*
X24996Y-44740D01*
X24684Y-45051D01*
X24710Y-45146D01*
X24915Y-45219D01*
X25132Y-45208D01*
X25281Y-45146D01*
X25308Y-45051D01*
X25308Y-47761D01*
X13636Y-47761D01*
X13636Y-45779D01*
X13418Y-45253D01*
X13016Y-44850D01*
X12490Y-44632D01*
X11921Y-44631D01*
X11395Y-44849D01*
X10992Y-45251D01*
X10773Y-45777D01*
X10773Y-46346D01*
X10990Y-46872D01*
X11393Y-47275D01*
X11918Y-47493D01*
X12488Y-47494D01*
X13014Y-47276D01*
X13417Y-46874D01*
X13635Y-46348D01*
X13636Y-45779D01*
X13636Y-47761D01*
X10505Y-47761D01*
X10505Y-43750D01*
X21598Y-43750D01*
X21417Y-43931D01*
X21313Y-44182D01*
X21312Y-44454D01*
X21416Y-44705D01*
X21608Y-44897D01*
X21859Y-45001D01*
X21994Y-45001D01*
X21876Y-45119D01*
X21728Y-45475D01*
X21728Y-45861D01*
X21875Y-46217D01*
X22147Y-46489D01*
X22503Y-46637D01*
X22888Y-46637D01*
X23244Y-46490D01*
X23517Y-46218D01*
X23665Y-45862D01*
X23665Y-45477D01*
X23518Y-45121D01*
X23246Y-44848D01*
X22890Y-44700D01*
X22577Y-44700D01*
X22679Y-44455D01*
X22679Y-44183D01*
X22575Y-43932D01*
X22394Y-43750D01*
X23291Y-43750D01*
X23245Y-43859D01*
X23245Y-44076D01*
X23328Y-44277D01*
X23481Y-44430D01*
X23669Y-44508D01*
X23647Y-44560D01*
X23647Y-44777D01*
X23730Y-44977D01*
X23883Y-45131D01*
X24083Y-45214D01*
X24300Y-45214D01*
X24501Y-45132D01*
X24655Y-44978D01*
X24682Y-44911D01*
X24925Y-44669D01*
X24919Y-44663D01*
X24990Y-44593D01*
X24996Y-44598D01*
X25001Y-44593D01*
X25072Y-44663D01*
X25066Y-44669D01*
X25309Y-44911D01*
X25336Y-44977D01*
X25489Y-45131D01*
X25690Y-45214D01*
X25907Y-45214D01*
X26107Y-45132D01*
X26261Y-44978D01*
X26289Y-44911D01*
X26531Y-44669D01*
X26526Y-44663D01*
X26596Y-44593D01*
X26602Y-44598D01*
X26914Y-44286D01*
X26887Y-44191D01*
X26723Y-44133D01*
X26746Y-44077D01*
X26746Y-43860D01*
X26701Y-43750D01*
X27999Y-43750D01*
X27818Y-43931D01*
X27714Y-44182D01*
X27714Y-44454D01*
X27816Y-44700D01*
X27505Y-44700D01*
X27148Y-44847D01*
X27100Y-44895D01*
X27152Y-44749D01*
X27141Y-44533D01*
X27079Y-44384D01*
X26985Y-44357D01*
X26673Y-44669D01*
X26678Y-44674D01*
X26607Y-44745D01*
X26602Y-44740D01*
X26290Y-45051D01*
X26317Y-45146D01*
X26521Y-45219D01*
X26738Y-45208D01*
X26860Y-45158D01*
X26728Y-45475D01*
X26728Y-45861D01*
X26875Y-46217D01*
X27147Y-46489D01*
X27503Y-46637D01*
X27888Y-46637D01*
X28244Y-46490D01*
X28517Y-46218D01*
X28665Y-45862D01*
X28665Y-45477D01*
X28518Y-45121D01*
X28399Y-45001D01*
X28532Y-45002D01*
X28784Y-44898D01*
X28976Y-44706D01*
X29080Y-44455D01*
X29080Y-44183D01*
X28977Y-43932D01*
X28795Y-43750D01*
X31047Y-43750D01*
X30866Y-43931D01*
X30761Y-44182D01*
X30761Y-44454D01*
X30865Y-44705D01*
X31057Y-44897D01*
X31308Y-45001D01*
X31443Y-45001D01*
X31325Y-45119D01*
X31177Y-45475D01*
X31177Y-45861D01*
X31324Y-46217D01*
X31596Y-46489D01*
X31952Y-46637D01*
X32337Y-46637D01*
X32693Y-46490D01*
X32966Y-46218D01*
X33114Y-45862D01*
X33114Y-45477D01*
X32967Y-45121D01*
X32694Y-44848D01*
X32339Y-44700D01*
X32025Y-44700D01*
X32127Y-44455D01*
X32128Y-44183D01*
X32024Y-43932D01*
X31842Y-43750D01*
X32739Y-43750D01*
X32694Y-43859D01*
X32694Y-44076D01*
X32777Y-44277D01*
X32930Y-44430D01*
X33117Y-44508D01*
X33096Y-44560D01*
X33096Y-44777D01*
X33179Y-44977D01*
X33332Y-45131D01*
X33532Y-45214D01*
X33749Y-45214D01*
X33950Y-45132D01*
X34103Y-44978D01*
X34131Y-44911D01*
X34374Y-44669D01*
X34368Y-44663D01*
X34439Y-44593D01*
X34444Y-44598D01*
X34450Y-44593D01*
X34521Y-44663D01*
X34515Y-44669D01*
X34757Y-44911D01*
X34785Y-44977D01*
X34938Y-45131D01*
X35139Y-45214D01*
X35356Y-45214D01*
X35556Y-45132D01*
X35710Y-44978D01*
X35738Y-44911D01*
X35980Y-44669D01*
X35974Y-44663D01*
X36045Y-44593D01*
X36051Y-44598D01*
X36363Y-44286D01*
X36336Y-44191D01*
X36171Y-44133D01*
X36195Y-44077D01*
X36195Y-43860D01*
X36149Y-43750D01*
X37448Y-43750D01*
X37267Y-43931D01*
X37163Y-44182D01*
X37163Y-44454D01*
X37265Y-44700D01*
X36953Y-44700D01*
X36597Y-44847D01*
X36549Y-44895D01*
X36601Y-44749D01*
X36590Y-44533D01*
X36528Y-44384D01*
X36433Y-44357D01*
X36121Y-44669D01*
X36127Y-44674D01*
X36056Y-44745D01*
X36051Y-44740D01*
X35739Y-45051D01*
X35766Y-45146D01*
X35970Y-45219D01*
X36187Y-45208D01*
X36309Y-45158D01*
X36177Y-45475D01*
X36177Y-45861D01*
X36324Y-46217D01*
X36596Y-46489D01*
X36952Y-46637D01*
X37337Y-46637D01*
X37693Y-46490D01*
X37966Y-46218D01*
X38114Y-45862D01*
X38114Y-45477D01*
X37967Y-45121D01*
X37847Y-45001D01*
X37981Y-45002D01*
X38232Y-44898D01*
X38425Y-44706D01*
X38529Y-44455D01*
X38529Y-44183D01*
X38425Y-43932D01*
X38244Y-43750D01*
X38603Y-43750D01*
X45128Y-37225D01*
X45128Y-30898D01*
X45659Y-30898D01*
X45660Y-30898D01*
X45660Y-30898D01*
X45689Y-30892D01*
X45507Y-30967D01*
X45314Y-31159D01*
X45210Y-31410D01*
X45210Y-31682D01*
X45314Y-31933D01*
X45506Y-32125D01*
X45757Y-32230D01*
X46028Y-32230D01*
X46280Y-32126D01*
X46472Y-31934D01*
X46576Y-31683D01*
X46576Y-31548D01*
X46694Y-31667D01*
X47050Y-31814D01*
X47435Y-31815D01*
X47791Y-31667D01*
X48064Y-31395D01*
X48212Y-31039D01*
X48212Y-30654D01*
X48212Y-25654D01*
X48065Y-25298D01*
X47793Y-25025D01*
X47437Y-24878D01*
X47052Y-24877D01*
X46696Y-25024D01*
X46576Y-25144D01*
X46576Y-25010D01*
X46473Y-24759D01*
X46281Y-24566D01*
X46030Y-24462D01*
X45758Y-24462D01*
X45507Y-24566D01*
X45314Y-24758D01*
X45210Y-25009D01*
X45210Y-25280D01*
X45314Y-25532D01*
X45506Y-25724D01*
X45757Y-25828D01*
X46028Y-25828D01*
X46275Y-25726D01*
X46275Y-26038D01*
X46422Y-26394D01*
X46470Y-26442D01*
X46324Y-26390D01*
X46108Y-26401D01*
X45958Y-26463D01*
X45932Y-26558D01*
X46244Y-26870D01*
X46249Y-26864D01*
X46320Y-26935D01*
X46314Y-26940D01*
X46626Y-27252D01*
X46721Y-27226D01*
X46794Y-27021D01*
X46783Y-26804D01*
X46732Y-26682D01*
X47050Y-26814D01*
X47435Y-26815D01*
X47791Y-26667D01*
X48064Y-26395D01*
X48212Y-26039D01*
X48212Y-25654D01*
X48212Y-30654D01*
X48065Y-30298D01*
X47793Y-30025D01*
X47437Y-29878D01*
X47052Y-29877D01*
X46794Y-29984D01*
X46794Y-28627D01*
X46783Y-28411D01*
X46721Y-28262D01*
X46626Y-28235D01*
X46314Y-28547D01*
X46626Y-28859D01*
X46721Y-28832D01*
X46794Y-28627D01*
X46794Y-29984D01*
X46696Y-30024D01*
X46423Y-30297D01*
X46275Y-30652D01*
X46275Y-30966D01*
X46030Y-30864D01*
X45805Y-30864D01*
X45906Y-30796D01*
X46490Y-30212D01*
X46490Y-30212D01*
X46490Y-30212D01*
X46565Y-30099D01*
X46592Y-29965D01*
X46592Y-29965D01*
X46592Y-29965D01*
X46592Y-29773D01*
X46706Y-29659D01*
X46789Y-29459D01*
X46789Y-29242D01*
X46706Y-29041D01*
X46553Y-28888D01*
X46486Y-28860D01*
X46244Y-28617D01*
X46238Y-28623D01*
X46167Y-28552D01*
X46173Y-28547D01*
X46167Y-28541D01*
X46238Y-28470D01*
X46244Y-28476D01*
X46486Y-28234D01*
X46552Y-28206D01*
X46706Y-28053D01*
X46789Y-27853D01*
X46789Y-27636D01*
X46706Y-27435D01*
X46553Y-27281D01*
X46486Y-27254D01*
X46244Y-27011D01*
X46238Y-27017D01*
X46167Y-26946D01*
X46173Y-26940D01*
X45861Y-26629D01*
X45766Y-26655D01*
X45708Y-26820D01*
X45652Y-26797D01*
X45435Y-26796D01*
X45234Y-26879D01*
X45128Y-26985D01*
X45128Y-24979D01*
X37619Y-17469D01*
X32394Y-17469D01*
X36729Y-13134D01*
X41773Y-13134D01*
X41773Y-13134D01*
X41883Y-13112D01*
X41977Y-13049D01*
X43908Y-11119D01*
X43908Y-11244D01*
X43996Y-11458D01*
X44159Y-11621D01*
X44372Y-11709D01*
X44603Y-11710D01*
X44816Y-11621D01*
X44979Y-11458D01*
X45068Y-11245D01*
X45068Y-11015D01*
X44980Y-10801D01*
X44817Y-10638D01*
X44796Y-10630D01*
X44816Y-10621D01*
X44979Y-10458D01*
X45068Y-10245D01*
X45068Y-10015D01*
X44980Y-9801D01*
X44817Y-9638D01*
X44604Y-9550D01*
X44373Y-9549D01*
X44160Y-9637D01*
X43996Y-9800D01*
X43908Y-10014D01*
X43908Y-10244D01*
X43924Y-10284D01*
X41653Y-12555D01*
X37085Y-12555D01*
X37097Y-12544D01*
X39607Y-12544D01*
X39607Y-12544D01*
X39717Y-12522D01*
X39811Y-12459D01*
X41152Y-11119D01*
X41152Y-11244D01*
X41240Y-11458D01*
X41403Y-11621D01*
X41616Y-11709D01*
X41847Y-11710D01*
X42060Y-11621D01*
X42223Y-11458D01*
X42312Y-11245D01*
X42312Y-11015D01*
X42224Y-10801D01*
X42061Y-10638D01*
X42040Y-10630D01*
X42060Y-10621D01*
X42223Y-10458D01*
X42312Y-10245D01*
X42312Y-10015D01*
X42224Y-9801D01*
X42061Y-9638D01*
X41848Y-9550D01*
X41617Y-9549D01*
X41404Y-9637D01*
X41240Y-9800D01*
X41152Y-10014D01*
X41152Y-10244D01*
X41168Y-10284D01*
X39487Y-11965D01*
X37453Y-11965D01*
X38199Y-11219D01*
X38199Y-11244D01*
X38287Y-11458D01*
X38450Y-11621D01*
X38663Y-11709D01*
X38894Y-11710D01*
X39107Y-11621D01*
X39270Y-11458D01*
X39359Y-11245D01*
X39359Y-11015D01*
X39271Y-10801D01*
X39108Y-10638D01*
X39088Y-10630D01*
X39107Y-10621D01*
X39270Y-10458D01*
X39359Y-10245D01*
X39359Y-10015D01*
X39271Y-9801D01*
X39108Y-9638D01*
X38895Y-9550D01*
X38664Y-9549D01*
X38451Y-9637D01*
X38288Y-9800D01*
X38199Y-10014D01*
X38199Y-10244D01*
X38245Y-10355D01*
X37244Y-11355D01*
X37244Y-11258D01*
X37244Y-11258D01*
X37222Y-11147D01*
X37222Y-11147D01*
X37201Y-11116D01*
X37159Y-11053D01*
X37159Y-11053D01*
X36390Y-10284D01*
X36406Y-10245D01*
X36406Y-10015D01*
X36318Y-9801D01*
X36155Y-9638D01*
X35942Y-9550D01*
X35711Y-9549D01*
X35498Y-9637D01*
X35335Y-9800D01*
X35246Y-10014D01*
X35246Y-10244D01*
X35334Y-10458D01*
X35497Y-10621D01*
X35518Y-10629D01*
X35498Y-10637D01*
X35335Y-10800D01*
X35246Y-11014D01*
X35246Y-11244D01*
X35334Y-11458D01*
X35497Y-11621D01*
X35710Y-11709D01*
X35941Y-11710D01*
X36154Y-11621D01*
X36318Y-11458D01*
X36406Y-11245D01*
X36406Y-11119D01*
X36665Y-11378D01*
X36665Y-11712D01*
X33805Y-14572D01*
X33805Y-12238D01*
X33701Y-11987D01*
X33509Y-11795D01*
X33258Y-11691D01*
X33123Y-11690D01*
X33241Y-11572D01*
X33389Y-11217D01*
X33389Y-10831D01*
X33242Y-10475D01*
X32970Y-10203D01*
X32614Y-10055D01*
X32229Y-10054D01*
X31873Y-10202D01*
X31600Y-10474D01*
X31452Y-10830D01*
X31452Y-11215D01*
X31599Y-11571D01*
X31871Y-11844D01*
X32227Y-11991D01*
X32540Y-11992D01*
X32439Y-12237D01*
X32438Y-12509D01*
X32542Y-12760D01*
X32734Y-12952D01*
X32985Y-13056D01*
X33257Y-13057D01*
X33508Y-12953D01*
X33700Y-12761D01*
X33804Y-12510D01*
X33805Y-12238D01*
X33805Y-14572D01*
X31872Y-16505D01*
X31872Y-12616D01*
X31789Y-12415D01*
X31636Y-12262D01*
X31449Y-12184D01*
X31470Y-12132D01*
X31470Y-11915D01*
X31387Y-11715D01*
X31234Y-11561D01*
X31034Y-11478D01*
X30817Y-11478D01*
X30616Y-11560D01*
X30463Y-11714D01*
X30435Y-11781D01*
X30433Y-11782D01*
X30433Y-11640D01*
X30407Y-11546D01*
X30202Y-11473D01*
X29986Y-11484D01*
X29836Y-11546D01*
X29810Y-11640D01*
X30122Y-11952D01*
X30433Y-11640D01*
X30433Y-11782D01*
X30192Y-12023D01*
X30198Y-12029D01*
X30127Y-12099D01*
X30122Y-12094D01*
X30116Y-12099D01*
X30045Y-12029D01*
X30051Y-12023D01*
X29808Y-11781D01*
X29781Y-11715D01*
X29628Y-11561D01*
X29427Y-11478D01*
X29210Y-11478D01*
X29010Y-11560D01*
X28856Y-11714D01*
X28828Y-11781D01*
X28827Y-11782D01*
X28827Y-11640D01*
X28800Y-11546D01*
X28596Y-11473D01*
X28379Y-11484D01*
X28257Y-11534D01*
X28389Y-11217D01*
X28389Y-10831D01*
X28242Y-10475D01*
X27970Y-10203D01*
X27614Y-10055D01*
X27229Y-10054D01*
X26873Y-10202D01*
X26600Y-10474D01*
X26452Y-10830D01*
X26452Y-11215D01*
X26599Y-11571D01*
X26718Y-11690D01*
X26585Y-11690D01*
X26334Y-11794D01*
X26141Y-11986D01*
X26037Y-12237D01*
X26037Y-12509D01*
X26141Y-12760D01*
X26333Y-12952D01*
X26584Y-13056D01*
X26855Y-13057D01*
X27106Y-12953D01*
X27299Y-12761D01*
X27403Y-12510D01*
X27403Y-12238D01*
X27301Y-11992D01*
X27613Y-11992D01*
X27969Y-11845D01*
X28017Y-11797D01*
X27965Y-11942D01*
X27976Y-12159D01*
X28038Y-12308D01*
X28133Y-12335D01*
X28445Y-12023D01*
X28439Y-12018D01*
X28510Y-11947D01*
X28515Y-11952D01*
X28827Y-11640D01*
X28827Y-11782D01*
X28586Y-12023D01*
X28592Y-12029D01*
X28521Y-12099D01*
X28515Y-12094D01*
X28203Y-12406D01*
X28230Y-12501D01*
X28395Y-12559D01*
X28371Y-12615D01*
X28371Y-12832D01*
X28454Y-13033D01*
X28607Y-13186D01*
X28808Y-13269D01*
X29025Y-13270D01*
X29225Y-13187D01*
X29318Y-13094D01*
X29411Y-13186D01*
X29611Y-13269D01*
X29828Y-13270D01*
X30029Y-13187D01*
X30122Y-13094D01*
X30214Y-13186D01*
X30414Y-13269D01*
X30631Y-13270D01*
X30832Y-13187D01*
X30925Y-13094D01*
X31017Y-13186D01*
X31217Y-13269D01*
X31434Y-13270D01*
X31635Y-13187D01*
X31788Y-13033D01*
X31872Y-12833D01*
X31872Y-12616D01*
X31872Y-16505D01*
X30907Y-17469D01*
X25143Y-17469D01*
X25143Y-12238D01*
X25040Y-11987D01*
X24848Y-11795D01*
X24597Y-11691D01*
X24462Y-11690D01*
X24580Y-11572D01*
X24728Y-11217D01*
X24728Y-10831D01*
X24581Y-10475D01*
X24309Y-10203D01*
X23953Y-10055D01*
X23568Y-10054D01*
X23211Y-10202D01*
X22939Y-10474D01*
X22791Y-10830D01*
X22791Y-11215D01*
X22938Y-11571D01*
X23210Y-11844D01*
X23566Y-11991D01*
X23879Y-11992D01*
X23777Y-12237D01*
X23777Y-12509D01*
X23793Y-12548D01*
X23210Y-13130D01*
X23210Y-12616D01*
X23128Y-12415D01*
X22974Y-12262D01*
X22787Y-12184D01*
X22809Y-12132D01*
X22809Y-11915D01*
X22726Y-11715D01*
X22573Y-11561D01*
X22372Y-11478D01*
X22155Y-11478D01*
X21955Y-11560D01*
X21801Y-11714D01*
X21773Y-11781D01*
X21772Y-11782D01*
X21772Y-11640D01*
X21745Y-11546D01*
X21541Y-11473D01*
X21324Y-11484D01*
X21175Y-11546D01*
X21148Y-11640D01*
X21460Y-11952D01*
X21772Y-11640D01*
X21772Y-11782D01*
X21531Y-12023D01*
X21536Y-12029D01*
X21466Y-12099D01*
X21460Y-12094D01*
X21455Y-12099D01*
X21384Y-12029D01*
X21389Y-12023D01*
X21147Y-11781D01*
X21120Y-11715D01*
X20966Y-11561D01*
X20766Y-11478D01*
X20549Y-11478D01*
X20348Y-11560D01*
X20195Y-11714D01*
X20167Y-11781D01*
X19925Y-12023D01*
X19930Y-12029D01*
X19859Y-12099D01*
X19854Y-12094D01*
X19542Y-12406D01*
X19569Y-12501D01*
X19733Y-12559D01*
X19710Y-12615D01*
X19710Y-12832D01*
X19793Y-13033D01*
X19946Y-13186D01*
X20146Y-13269D01*
X20363Y-13270D01*
X20564Y-13187D01*
X20657Y-13094D01*
X20749Y-13186D01*
X20950Y-13269D01*
X21167Y-13270D01*
X21367Y-13187D01*
X21460Y-13094D01*
X21552Y-13186D01*
X21753Y-13269D01*
X21970Y-13270D01*
X22170Y-13187D01*
X22263Y-13094D01*
X22355Y-13186D01*
X22556Y-13269D01*
X22773Y-13270D01*
X22973Y-13187D01*
X23127Y-13033D01*
X23210Y-12833D01*
X23210Y-12616D01*
X23210Y-13130D01*
X22359Y-13982D01*
X20144Y-13982D01*
X18721Y-12559D01*
X18742Y-12510D01*
X18742Y-12238D01*
X18640Y-11992D01*
X18951Y-11992D01*
X19307Y-11845D01*
X19355Y-11797D01*
X19304Y-11942D01*
X19315Y-12159D01*
X19376Y-12308D01*
X19471Y-12335D01*
X19783Y-12023D01*
X19778Y-12018D01*
X19848Y-11947D01*
X19854Y-11952D01*
X20166Y-11640D01*
X20139Y-11546D01*
X19935Y-11473D01*
X19718Y-11484D01*
X19596Y-11534D01*
X19728Y-11217D01*
X19728Y-10831D01*
X19581Y-10475D01*
X19309Y-10203D01*
X18953Y-10055D01*
X18568Y-10054D01*
X18211Y-10202D01*
X17939Y-10474D01*
X17791Y-10830D01*
X17791Y-11215D01*
X17938Y-11571D01*
X18057Y-11690D01*
X17923Y-11690D01*
X17672Y-11794D01*
X17480Y-11986D01*
X17376Y-12237D01*
X17375Y-12509D01*
X17479Y-12760D01*
X17671Y-12952D01*
X17922Y-13056D01*
X18194Y-13057D01*
X18222Y-13045D01*
X19753Y-14577D01*
X19753Y-14577D01*
X19866Y-14652D01*
X19999Y-14679D01*
X19999Y-14679D01*
X20000Y-14679D01*
X22503Y-14679D01*
X22503Y-14679D01*
X22503Y-14679D01*
X22615Y-14657D01*
X22637Y-14652D01*
X22637Y-14652D01*
X22750Y-14577D01*
X24286Y-13041D01*
X24324Y-13056D01*
X24595Y-13057D01*
X24847Y-12953D01*
X25039Y-12761D01*
X25143Y-12510D01*
X25143Y-12238D01*
X25143Y-17469D01*
X20254Y-17469D01*
X16524Y-21199D01*
X16524Y-11015D01*
X16436Y-10801D01*
X16273Y-10638D01*
X16253Y-10630D01*
X16272Y-10621D01*
X16436Y-10458D01*
X16524Y-10245D01*
X16524Y-10015D01*
X16436Y-9801D01*
X16273Y-9638D01*
X16060Y-9550D01*
X15830Y-9549D01*
X15616Y-9637D01*
X15453Y-9800D01*
X15364Y-10014D01*
X15364Y-10244D01*
X15452Y-10458D01*
X15615Y-10621D01*
X15636Y-10629D01*
X15616Y-10637D01*
X15453Y-10800D01*
X15364Y-11014D01*
X15364Y-11244D01*
X15452Y-11458D01*
X15615Y-11621D01*
X15829Y-11709D01*
X16059Y-11710D01*
X16272Y-11621D01*
X16436Y-11458D01*
X16524Y-11245D01*
X16524Y-11015D01*
X16524Y-21199D01*
X16485Y-21239D01*
X16485Y-21653D01*
X16485Y-25910D01*
X13636Y-23061D01*
X13636Y-10346D01*
X13418Y-9820D01*
X13016Y-9417D01*
X12490Y-9199D01*
X11921Y-9198D01*
X11395Y-9415D01*
X10992Y-9818D01*
X10773Y-10344D01*
X10773Y-10913D01*
X10990Y-11439D01*
X11393Y-11842D01*
X11918Y-12060D01*
X12488Y-12061D01*
X13014Y-11843D01*
X13417Y-11441D01*
X13635Y-10915D01*
X13636Y-10346D01*
X13636Y-23061D01*
X13465Y-22890D01*
X13481Y-22852D01*
X13481Y-22621D01*
X13393Y-22408D01*
X13230Y-22244D01*
X13017Y-22156D01*
X12786Y-22156D01*
X12573Y-22244D01*
X12410Y-22407D01*
X12401Y-22427D01*
X12393Y-22408D01*
X12230Y-22244D01*
X12017Y-22156D01*
X11786Y-22156D01*
X11573Y-22244D01*
X11410Y-22407D01*
X11321Y-22620D01*
X11321Y-22851D01*
X11409Y-23064D01*
X11572Y-23227D01*
X11785Y-23316D01*
X12016Y-23316D01*
X12229Y-23228D01*
X12392Y-23065D01*
X12401Y-23044D01*
X12409Y-23064D01*
X12572Y-23227D01*
X12785Y-23316D01*
X13016Y-23316D01*
X13056Y-23299D01*
X14313Y-24557D01*
X14085Y-24462D01*
X13813Y-24462D01*
X13562Y-24566D01*
X13370Y-24758D01*
X13265Y-25009D01*
X13265Y-25144D01*
X13147Y-25025D01*
X12791Y-24878D01*
X12406Y-24877D01*
X12050Y-25024D01*
X11777Y-25297D01*
X11630Y-25652D01*
X11629Y-26038D01*
X11776Y-26394D01*
X12049Y-26667D01*
X12404Y-26814D01*
X12790Y-26815D01*
X13146Y-26667D01*
X13419Y-26395D01*
X13566Y-26039D01*
X13567Y-25726D01*
X13812Y-25828D01*
X14084Y-25828D01*
X14335Y-25725D01*
X14527Y-25533D01*
X14631Y-25282D01*
X14632Y-25010D01*
X14537Y-24781D01*
X16485Y-26729D01*
X16485Y-29900D01*
X14844Y-31541D01*
X14844Y-29242D01*
X14761Y-29041D01*
X14669Y-28948D01*
X14761Y-28856D01*
X14844Y-28656D01*
X14844Y-28439D01*
X14761Y-28238D01*
X14669Y-28145D01*
X14761Y-28053D01*
X14844Y-27853D01*
X14844Y-27636D01*
X14761Y-27435D01*
X14669Y-27342D01*
X14761Y-27250D01*
X14844Y-27049D01*
X14844Y-26832D01*
X14761Y-26632D01*
X14608Y-26478D01*
X14408Y-26395D01*
X14191Y-26395D01*
X13990Y-26478D01*
X13837Y-26631D01*
X13759Y-26818D01*
X13707Y-26797D01*
X13490Y-26796D01*
X13289Y-26879D01*
X13136Y-27033D01*
X13053Y-27233D01*
X13052Y-27450D01*
X13135Y-27651D01*
X13289Y-27804D01*
X13355Y-27832D01*
X13598Y-28074D01*
X13603Y-28069D01*
X13674Y-28140D01*
X13669Y-28145D01*
X13674Y-28151D01*
X13603Y-28221D01*
X13598Y-28216D01*
X13527Y-28287D01*
X13527Y-28145D01*
X13215Y-27833D01*
X13120Y-27860D01*
X13048Y-28064D01*
X13059Y-28281D01*
X13120Y-28430D01*
X13215Y-28457D01*
X13527Y-28145D01*
X13527Y-28287D01*
X13356Y-28458D01*
X13289Y-28486D01*
X13136Y-28639D01*
X13053Y-28839D01*
X13052Y-29056D01*
X13135Y-29257D01*
X13289Y-29411D01*
X13355Y-29438D01*
X13598Y-29681D01*
X13603Y-29675D01*
X13674Y-29746D01*
X13669Y-29751D01*
X13981Y-30063D01*
X14075Y-30037D01*
X14134Y-29872D01*
X14190Y-29895D01*
X14407Y-29895D01*
X14607Y-29813D01*
X14761Y-29659D01*
X14844Y-29459D01*
X14844Y-29242D01*
X14844Y-31541D01*
X14581Y-31804D01*
X14631Y-31683D01*
X14632Y-31411D01*
X14528Y-31160D01*
X14336Y-30968D01*
X14085Y-30864D01*
X13813Y-30864D01*
X13566Y-30965D01*
X13567Y-30654D01*
X13419Y-30298D01*
X13371Y-30250D01*
X13517Y-30302D01*
X13734Y-30291D01*
X13883Y-30229D01*
X13910Y-30134D01*
X13598Y-29822D01*
X13592Y-29828D01*
X13522Y-29757D01*
X13527Y-29751D01*
X13215Y-29440D01*
X13120Y-29466D01*
X13048Y-29671D01*
X13059Y-29888D01*
X13109Y-30010D01*
X12791Y-29878D01*
X12406Y-29877D01*
X12050Y-30024D01*
X11777Y-30297D01*
X11630Y-30652D01*
X11629Y-31038D01*
X11776Y-31394D01*
X12049Y-31667D01*
X12404Y-31814D01*
X12790Y-31815D01*
X13146Y-31667D01*
X13265Y-31548D01*
X13265Y-31682D01*
X13330Y-31839D01*
X10505Y-31839D01*
X10505Y-8931D01*
X49336Y-8931D01*
X49336Y-47761D01*
X49336Y-47761D01*
G37*
G54D21*
X49336Y-47761D02*
X49069Y-47761D01*
X49069Y-45779D01*
X49069Y-10346D01*
X48851Y-9820D01*
X48449Y-9417D01*
X47923Y-9199D01*
X47354Y-9198D01*
X46828Y-9415D01*
X46425Y-9818D01*
X46206Y-10344D01*
X46206Y-10913D01*
X46423Y-11439D01*
X46826Y-11842D01*
X47351Y-12060D01*
X47921Y-12061D01*
X48447Y-11843D01*
X48850Y-11441D01*
X49068Y-10915D01*
X49069Y-10346D01*
X49069Y-45779D01*
X48851Y-45253D01*
X48449Y-44850D01*
X47923Y-44632D01*
X47354Y-44631D01*
X46828Y-44849D01*
X46425Y-45251D01*
X46206Y-45777D01*
X46206Y-46346D01*
X46423Y-46872D01*
X46826Y-47275D01*
X47351Y-47493D01*
X47921Y-47494D01*
X48447Y-47276D01*
X48850Y-46874D01*
X49068Y-46348D01*
X49069Y-45779D01*
X49069Y-47761D01*
X34756Y-47761D01*
X34756Y-45051D01*
X34444Y-44740D01*
X34132Y-45051D01*
X34159Y-45146D01*
X34364Y-45219D01*
X34580Y-45208D01*
X34730Y-45146D01*
X34756Y-45051D01*
X34756Y-47761D01*
X25308Y-47761D01*
X25308Y-45051D01*
X24996Y-44740D01*
X24684Y-45051D01*
X24710Y-45146D01*
X24915Y-45219D01*
X25132Y-45208D01*
X25281Y-45146D01*
X25308Y-45051D01*
X25308Y-47761D01*
X13636Y-47761D01*
X13636Y-45779D01*
X13418Y-45253D01*
X13016Y-44850D01*
X12490Y-44632D01*
X11921Y-44631D01*
X11395Y-44849D01*
X10992Y-45251D01*
X10773Y-45777D01*
X10773Y-46346D01*
X10990Y-46872D01*
X11393Y-47275D01*
X11918Y-47493D01*
X12488Y-47494D01*
X13014Y-47276D01*
X13417Y-46874D01*
X13635Y-46348D01*
X13636Y-45779D01*
X13636Y-47761D01*
X10505Y-47761D01*
X10505Y-43750D01*
X21598Y-43750D01*
X21417Y-43931D01*
X21313Y-44182D01*
X21312Y-44454D01*
X21416Y-44705D01*
X21608Y-44897D01*
X21859Y-45001D01*
X21994Y-45001D01*
X21876Y-45119D01*
X21728Y-45475D01*
X21728Y-45861D01*
X21875Y-46217D01*
X22147Y-46489D01*
X22503Y-46637D01*
X22888Y-46637D01*
X23244Y-46490D01*
X23517Y-46218D01*
X23665Y-45862D01*
X23665Y-45477D01*
X23518Y-45121D01*
X23246Y-44848D01*
X22890Y-44700D01*
X22577Y-44700D01*
X22679Y-44455D01*
X22679Y-44183D01*
X22575Y-43932D01*
X22394Y-43750D01*
X23291Y-43750D01*
X23245Y-43859D01*
X23245Y-44076D01*
X23328Y-44277D01*
X23481Y-44430D01*
X23669Y-44508D01*
X23647Y-44560D01*
X23647Y-44777D01*
X23730Y-44977D01*
X23883Y-45131D01*
X24083Y-45214D01*
X24300Y-45214D01*
X24501Y-45132D01*
X24655Y-44978D01*
X24682Y-44911D01*
X24925Y-44669D01*
X24919Y-44663D01*
X24990Y-44593D01*
X24996Y-44598D01*
X25001Y-44593D01*
X25072Y-44663D01*
X25066Y-44669D01*
X25309Y-44911D01*
X25336Y-44977D01*
X25489Y-45131D01*
X25690Y-45214D01*
X25907Y-45214D01*
X26107Y-45132D01*
X26261Y-44978D01*
X26289Y-44911D01*
X26531Y-44669D01*
X26526Y-44663D01*
X26596Y-44593D01*
X26602Y-44598D01*
X26914Y-44286D01*
X26887Y-44191D01*
X26723Y-44133D01*
X26746Y-44077D01*
X26746Y-43860D01*
X26701Y-43750D01*
X27999Y-43750D01*
X27818Y-43931D01*
X27714Y-44182D01*
X27714Y-44454D01*
X27816Y-44700D01*
X27505Y-44700D01*
X27148Y-44847D01*
X27100Y-44895D01*
X27152Y-44749D01*
X27141Y-44533D01*
X27079Y-44384D01*
X26985Y-44357D01*
X26673Y-44669D01*
X26678Y-44674D01*
X26607Y-44745D01*
X26602Y-44740D01*
X26290Y-45051D01*
X26317Y-45146D01*
X26521Y-45219D01*
X26738Y-45208D01*
X26860Y-45158D01*
X26728Y-45475D01*
X26728Y-45861D01*
X26875Y-46217D01*
X27147Y-46489D01*
X27503Y-46637D01*
X27888Y-46637D01*
X28244Y-46490D01*
X28517Y-46218D01*
X28665Y-45862D01*
X28665Y-45477D01*
X28518Y-45121D01*
X28399Y-45001D01*
X28532Y-45002D01*
X28784Y-44898D01*
X28976Y-44706D01*
X29080Y-44455D01*
X29080Y-44183D01*
X28977Y-43932D01*
X28795Y-43750D01*
X31047Y-43750D01*
X30866Y-43931D01*
X30761Y-44182D01*
X30761Y-44454D01*
X30865Y-44705D01*
X31057Y-44897D01*
X31308Y-45001D01*
X31443Y-45001D01*
X31325Y-45119D01*
X31177Y-45475D01*
X31177Y-45861D01*
X31324Y-46217D01*
X31596Y-46489D01*
X31952Y-46637D01*
X32337Y-46637D01*
X32693Y-46490D01*
X32966Y-46218D01*
X33114Y-45862D01*
X33114Y-45477D01*
X32967Y-45121D01*
X32694Y-44848D01*
X32339Y-44700D01*
X32025Y-44700D01*
X32127Y-44455D01*
X32128Y-44183D01*
X32024Y-43932D01*
X31842Y-43750D01*
X32739Y-43750D01*
X32694Y-43859D01*
X32694Y-44076D01*
X32777Y-44277D01*
X32930Y-44430D01*
X33117Y-44508D01*
X33096Y-44560D01*
X33096Y-44777D01*
X33179Y-44977D01*
X33332Y-45131D01*
X33532Y-45214D01*
X33749Y-45214D01*
X33950Y-45132D01*
X34103Y-44978D01*
X34131Y-44911D01*
X34374Y-44669D01*
X34368Y-44663D01*
X34439Y-44593D01*
X34444Y-44598D01*
X34450Y-44593D01*
X34521Y-44663D01*
X34515Y-44669D01*
X34757Y-44911D01*
X34785Y-44977D01*
X34938Y-45131D01*
X35139Y-45214D01*
X35356Y-45214D01*
X35556Y-45132D01*
X35710Y-44978D01*
X35738Y-44911D01*
X35980Y-44669D01*
X35974Y-44663D01*
X36045Y-44593D01*
X36051Y-44598D01*
X36363Y-44286D01*
X36336Y-44191D01*
X36171Y-44133D01*
X36195Y-44077D01*
X36195Y-43860D01*
X36149Y-43750D01*
X37448Y-43750D01*
X37267Y-43931D01*
X37163Y-44182D01*
X37163Y-44454D01*
X37265Y-44700D01*
X36953Y-44700D01*
X36597Y-44847D01*
X36549Y-44895D01*
X36601Y-44749D01*
X36590Y-44533D01*
X36528Y-44384D01*
X36433Y-44357D01*
X36121Y-44669D01*
X36127Y-44674D01*
X36056Y-44745D01*
X36051Y-44740D01*
X35739Y-45051D01*
X35766Y-45146D01*
X35970Y-45219D01*
X36187Y-45208D01*
X36309Y-45158D01*
X36177Y-45475D01*
X36177Y-45861D01*
X36324Y-46217D01*
X36596Y-46489D01*
X36952Y-46637D01*
X37337Y-46637D01*
X37693Y-46490D01*
X37966Y-46218D01*
X38114Y-45862D01*
X38114Y-45477D01*
X37967Y-45121D01*
X37847Y-45001D01*
X37981Y-45002D01*
X38232Y-44898D01*
X38425Y-44706D01*
X38529Y-44455D01*
X38529Y-44183D01*
X38425Y-43932D01*
X38244Y-43750D01*
X38603Y-43750D01*
X45128Y-37225D01*
X45128Y-30898D01*
X45659Y-30898D01*
X45660Y-30898D01*
X45660Y-30898D01*
X45689Y-30892D01*
X45507Y-30967D01*
X45314Y-31159D01*
X45210Y-31410D01*
X45210Y-31682D01*
X45314Y-31933D01*
X45506Y-32125D01*
X45757Y-32230D01*
X46028Y-32230D01*
X46280Y-32126D01*
X46472Y-31934D01*
X46576Y-31683D01*
X46576Y-31548D01*
X46694Y-31667D01*
X47050Y-31814D01*
X47435Y-31815D01*
X47791Y-31667D01*
X48064Y-31395D01*
X48212Y-31039D01*
X48212Y-30654D01*
X48212Y-25654D01*
X48065Y-25298D01*
X47793Y-25025D01*
X47437Y-24878D01*
X47052Y-24877D01*
X46696Y-25024D01*
X46576Y-25144D01*
X46576Y-25010D01*
X46473Y-24759D01*
X46281Y-24566D01*
X46030Y-24462D01*
X45758Y-24462D01*
X45507Y-24566D01*
X45314Y-24758D01*
X45210Y-25009D01*
X45210Y-25280D01*
X45314Y-25532D01*
X45506Y-25724D01*
X45757Y-25828D01*
X46028Y-25828D01*
X46275Y-25726D01*
X46275Y-26038D01*
X46422Y-26394D01*
X46470Y-26442D01*
X46324Y-26390D01*
X46108Y-26401D01*
X45958Y-26463D01*
X45932Y-26558D01*
X46244Y-26870D01*
X46249Y-26864D01*
X46320Y-26935D01*
X46314Y-26940D01*
X46626Y-27252D01*
X46721Y-27226D01*
X46794Y-27021D01*
X46783Y-26804D01*
X46732Y-26682D01*
X47050Y-26814D01*
X47435Y-26815D01*
X47791Y-26667D01*
X48064Y-26395D01*
X48212Y-26039D01*
X48212Y-25654D01*
X48212Y-30654D01*
X48065Y-30298D01*
X47793Y-30025D01*
X47437Y-29878D01*
X47052Y-29877D01*
X46794Y-29984D01*
X46794Y-28627D01*
X46783Y-28411D01*
X46721Y-28262D01*
X46626Y-28235D01*
X46314Y-28547D01*
X46626Y-28859D01*
X46721Y-28832D01*
X46794Y-28627D01*
X46794Y-29984D01*
X46696Y-30024D01*
X46423Y-30297D01*
X46275Y-30652D01*
X46275Y-30966D01*
X46030Y-30864D01*
X45805Y-30864D01*
X45906Y-30796D01*
X46490Y-30212D01*
X46490Y-30212D01*
X46490Y-30212D01*
X46565Y-30099D01*
X46592Y-29965D01*
X46592Y-29965D01*
X46592Y-29965D01*
X46592Y-29773D01*
X46706Y-29659D01*
X46789Y-29459D01*
X46789Y-29242D01*
X46706Y-29041D01*
X46553Y-28888D01*
X46486Y-28860D01*
X46244Y-28617D01*
X46238Y-28623D01*
X46167Y-28552D01*
X46173Y-28547D01*
X46167Y-28541D01*
X46238Y-28470D01*
X46244Y-28476D01*
X46486Y-28234D01*
X46552Y-28206D01*
X46706Y-28053D01*
X46789Y-27853D01*
X46789Y-27636D01*
X46706Y-27435D01*
X46553Y-27281D01*
X46486Y-27254D01*
X46244Y-27011D01*
X46238Y-27017D01*
X46167Y-26946D01*
X46173Y-26940D01*
X45861Y-26629D01*
X45766Y-26655D01*
X45708Y-26820D01*
X45652Y-26797D01*
X45435Y-26796D01*
X45234Y-26879D01*
X45128Y-26985D01*
X45128Y-24979D01*
X37619Y-17469D01*
X32394Y-17469D01*
X36729Y-13134D01*
X41773Y-13134D01*
X41773Y-13134D01*
X41883Y-13112D01*
X41977Y-13049D01*
X43908Y-11119D01*
X43908Y-11244D01*
X43996Y-11458D01*
X44159Y-11621D01*
X44372Y-11709D01*
X44603Y-11710D01*
X44816Y-11621D01*
X44979Y-11458D01*
X45068Y-11245D01*
X45068Y-11015D01*
X44980Y-10801D01*
X44817Y-10638D01*
X44796Y-10630D01*
X44816Y-10621D01*
X44979Y-10458D01*
X45068Y-10245D01*
X45068Y-10015D01*
X44980Y-9801D01*
X44817Y-9638D01*
X44604Y-9550D01*
X44373Y-9549D01*
X44160Y-9637D01*
X43996Y-9800D01*
X43908Y-10014D01*
X43908Y-10244D01*
X43924Y-10284D01*
X41653Y-12555D01*
X37085Y-12555D01*
X37097Y-12544D01*
X39607Y-12544D01*
X39607Y-12544D01*
X39717Y-12522D01*
X39811Y-12459D01*
X41152Y-11119D01*
X41152Y-11244D01*
X41240Y-11458D01*
X41403Y-11621D01*
X41616Y-11709D01*
X41847Y-11710D01*
X42060Y-11621D01*
X42223Y-11458D01*
X42312Y-11245D01*
X42312Y-11015D01*
X42224Y-10801D01*
X42061Y-10638D01*
X42040Y-10630D01*
X42060Y-10621D01*
X42223Y-10458D01*
X42312Y-10245D01*
X42312Y-10015D01*
X42224Y-9801D01*
X42061Y-9638D01*
X41848Y-9550D01*
X41617Y-9549D01*
X41404Y-9637D01*
X41240Y-9800D01*
X41152Y-10014D01*
X41152Y-10244D01*
X41168Y-10284D01*
X39487Y-11965D01*
X37453Y-11965D01*
X38199Y-11219D01*
X38199Y-11244D01*
X38287Y-11458D01*
X38450Y-11621D01*
X38663Y-11709D01*
X38894Y-11710D01*
X39107Y-11621D01*
X39270Y-11458D01*
X39359Y-11245D01*
X39359Y-11015D01*
X39271Y-10801D01*
X39108Y-10638D01*
X39088Y-10630D01*
X39107Y-10621D01*
X39270Y-10458D01*
X39359Y-10245D01*
X39359Y-10015D01*
X39271Y-9801D01*
X39108Y-9638D01*
X38895Y-9550D01*
X38664Y-9549D01*
X38451Y-9637D01*
X38288Y-9800D01*
X38199Y-10014D01*
X38199Y-10244D01*
X38245Y-10355D01*
X37244Y-11355D01*
X37244Y-11258D01*
X37244Y-11258D01*
X37222Y-11147D01*
X37222Y-11147D01*
X37201Y-11116D01*
X37159Y-11053D01*
X37159Y-11053D01*
X36390Y-10284D01*
X36406Y-10245D01*
X36406Y-10015D01*
X36318Y-9801D01*
X36155Y-9638D01*
X35942Y-9550D01*
X35711Y-9549D01*
X35498Y-9637D01*
X35335Y-9800D01*
X35246Y-10014D01*
X35246Y-10244D01*
X35334Y-10458D01*
X35497Y-10621D01*
X35518Y-10629D01*
X35498Y-10637D01*
X35335Y-10800D01*
X35246Y-11014D01*
X35246Y-11244D01*
X35334Y-11458D01*
X35497Y-11621D01*
X35710Y-11709D01*
X35941Y-11710D01*
X36154Y-11621D01*
X36318Y-11458D01*
X36406Y-11245D01*
X36406Y-11119D01*
X36665Y-11378D01*
X36665Y-11712D01*
X33805Y-14572D01*
X33805Y-12238D01*
X33701Y-11987D01*
X33509Y-11795D01*
X33258Y-11691D01*
X33123Y-11690D01*
X33241Y-11572D01*
X33389Y-11217D01*
X33389Y-10831D01*
X33242Y-10475D01*
X32970Y-10203D01*
X32614Y-10055D01*
X32229Y-10054D01*
X31873Y-10202D01*
X31600Y-10474D01*
X31452Y-10830D01*
X31452Y-11215D01*
X31599Y-11571D01*
X31871Y-11844D01*
X32227Y-11991D01*
X32540Y-11992D01*
X32439Y-12237D01*
X32438Y-12509D01*
X32542Y-12760D01*
X32734Y-12952D01*
X32985Y-13056D01*
X33257Y-13057D01*
X33508Y-12953D01*
X33700Y-12761D01*
X33804Y-12510D01*
X33805Y-12238D01*
X33805Y-14572D01*
X31872Y-16505D01*
X31872Y-12616D01*
X31789Y-12415D01*
X31636Y-12262D01*
X31449Y-12184D01*
X31470Y-12132D01*
X31470Y-11915D01*
X31387Y-11715D01*
X31234Y-11561D01*
X31034Y-11478D01*
X30817Y-11478D01*
X30616Y-11560D01*
X30463Y-11714D01*
X30435Y-11781D01*
X30433Y-11782D01*
X30433Y-11640D01*
X30407Y-11546D01*
X30202Y-11473D01*
X29986Y-11484D01*
X29836Y-11546D01*
X29810Y-11640D01*
X30122Y-11952D01*
X30433Y-11640D01*
X30433Y-11782D01*
X30192Y-12023D01*
X30198Y-12029D01*
X30127Y-12099D01*
X30122Y-12094D01*
X30116Y-12099D01*
X30045Y-12029D01*
X30051Y-12023D01*
X29808Y-11781D01*
X29781Y-11715D01*
X29628Y-11561D01*
X29427Y-11478D01*
X29210Y-11478D01*
X29010Y-11560D01*
X28856Y-11714D01*
X28828Y-11781D01*
X28827Y-11782D01*
X28827Y-11640D01*
X28800Y-11546D01*
X28596Y-11473D01*
X28379Y-11484D01*
X28257Y-11534D01*
X28389Y-11217D01*
X28389Y-10831D01*
X28242Y-10475D01*
X27970Y-10203D01*
X27614Y-10055D01*
X27229Y-10054D01*
X26873Y-10202D01*
X26600Y-10474D01*
X26452Y-10830D01*
X26452Y-11215D01*
X26599Y-11571D01*
X26718Y-11690D01*
X26585Y-11690D01*
X26334Y-11794D01*
X26141Y-11986D01*
X26037Y-12237D01*
X26037Y-12509D01*
X26141Y-12760D01*
X26333Y-12952D01*
X26584Y-13056D01*
X26855Y-13057D01*
X27106Y-12953D01*
X27299Y-12761D01*
X27403Y-12510D01*
X27403Y-12238D01*
X27301Y-11992D01*
X27613Y-11992D01*
X27969Y-11845D01*
X28017Y-11797D01*
X27965Y-11942D01*
X27976Y-12159D01*
X28038Y-12308D01*
X28133Y-12335D01*
X28445Y-12023D01*
X28439Y-12018D01*
X28510Y-11947D01*
X28515Y-11952D01*
X28827Y-11640D01*
X28827Y-11782D01*
X28586Y-12023D01*
X28592Y-12029D01*
X28521Y-12099D01*
X28515Y-12094D01*
X28203Y-12406D01*
X28230Y-12501D01*
X28395Y-12559D01*
X28371Y-12615D01*
X28371Y-12832D01*
X28454Y-13033D01*
X28607Y-13186D01*
X28808Y-13269D01*
X29025Y-13270D01*
X29225Y-13187D01*
X29318Y-13094D01*
X29411Y-13186D01*
X29611Y-13269D01*
X29828Y-13270D01*
X30029Y-13187D01*
X30122Y-13094D01*
X30214Y-13186D01*
X30414Y-13269D01*
X30631Y-13270D01*
X30832Y-13187D01*
X30925Y-13094D01*
X31017Y-13186D01*
X31217Y-13269D01*
X31434Y-13270D01*
X31635Y-13187D01*
X31788Y-13033D01*
X31872Y-12833D01*
X31872Y-12616D01*
X31872Y-16505D01*
X30907Y-17469D01*
X25143Y-17469D01*
X25143Y-12238D01*
X25040Y-11987D01*
X24848Y-11795D01*
X24597Y-11691D01*
X24462Y-11690D01*
X24580Y-11572D01*
X24728Y-11217D01*
X24728Y-10831D01*
X24581Y-10475D01*
X24309Y-10203D01*
X23953Y-10055D01*
X23568Y-10054D01*
X23211Y-10202D01*
X22939Y-10474D01*
X22791Y-10830D01*
X22791Y-11215D01*
X22938Y-11571D01*
X23210Y-11844D01*
X23566Y-11991D01*
X23879Y-11992D01*
X23777Y-12237D01*
X23777Y-12509D01*
X23793Y-12548D01*
X23210Y-13130D01*
X23210Y-12616D01*
X23128Y-12415D01*
X22974Y-12262D01*
X22787Y-12184D01*
X22809Y-12132D01*
X22809Y-11915D01*
X22726Y-11715D01*
X22573Y-11561D01*
X22372Y-11478D01*
X22155Y-11478D01*
X21955Y-11560D01*
X21801Y-11714D01*
X21773Y-11781D01*
X21772Y-11782D01*
X21772Y-11640D01*
X21745Y-11546D01*
X21541Y-11473D01*
X21324Y-11484D01*
X21175Y-11546D01*
X21148Y-11640D01*
X21460Y-11952D01*
X21772Y-11640D01*
X21772Y-11782D01*
X21531Y-12023D01*
X21536Y-12029D01*
X21466Y-12099D01*
X21460Y-12094D01*
X21455Y-12099D01*
X21384Y-12029D01*
X21389Y-12023D01*
X21147Y-11781D01*
X21120Y-11715D01*
X20966Y-11561D01*
X20766Y-11478D01*
X20549Y-11478D01*
X20348Y-11560D01*
X20195Y-11714D01*
X20167Y-11781D01*
X19925Y-12023D01*
X19930Y-12029D01*
X19859Y-12099D01*
X19854Y-12094D01*
X19542Y-12406D01*
X19569Y-12501D01*
X19733Y-12559D01*
X19710Y-12615D01*
X19710Y-12832D01*
X19793Y-13033D01*
X19946Y-13186D01*
X20146Y-13269D01*
X20363Y-13270D01*
X20564Y-13187D01*
X20657Y-13094D01*
X20749Y-13186D01*
X20950Y-13269D01*
X21167Y-13270D01*
X21367Y-13187D01*
X21460Y-13094D01*
X21552Y-13186D01*
X21753Y-13269D01*
X21970Y-13270D01*
X22170Y-13187D01*
X22263Y-13094D01*
X22355Y-13186D01*
X22556Y-13269D01*
X22773Y-13270D01*
X22973Y-13187D01*
X23127Y-13033D01*
X23210Y-12833D01*
X23210Y-12616D01*
X23210Y-13130D01*
X22359Y-13982D01*
X20144Y-13982D01*
X18721Y-12559D01*
X18742Y-12510D01*
X18742Y-12238D01*
X18640Y-11992D01*
X18951Y-11992D01*
X19307Y-11845D01*
X19355Y-11797D01*
X19304Y-11942D01*
X19315Y-12159D01*
X19376Y-12308D01*
X19471Y-12335D01*
X19783Y-12023D01*
X19778Y-12018D01*
X19848Y-11947D01*
X19854Y-11952D01*
X20166Y-11640D01*
X20139Y-11546D01*
X19935Y-11473D01*
X19718Y-11484D01*
X19596Y-11534D01*
X19728Y-11217D01*
X19728Y-10831D01*
X19581Y-10475D01*
X19309Y-10203D01*
X18953Y-10055D01*
X18568Y-10054D01*
X18211Y-10202D01*
X17939Y-10474D01*
X17791Y-10830D01*
X17791Y-11215D01*
X17938Y-11571D01*
X18057Y-11690D01*
X17923Y-11690D01*
X17672Y-11794D01*
X17480Y-11986D01*
X17376Y-12237D01*
X17375Y-12509D01*
X17479Y-12760D01*
X17671Y-12952D01*
X17922Y-13056D01*
X18194Y-13057D01*
X18222Y-13045D01*
X19753Y-14577D01*
X19753Y-14577D01*
X19866Y-14652D01*
X19999Y-14679D01*
X19999Y-14679D01*
X20000Y-14679D01*
X22503Y-14679D01*
X22503Y-14679D01*
X22503Y-14679D01*
X22615Y-14657D01*
X22637Y-14652D01*
X22637Y-14652D01*
X22750Y-14577D01*
X24286Y-13041D01*
X24324Y-13056D01*
X24595Y-13057D01*
X24847Y-12953D01*
X25039Y-12761D01*
X25143Y-12510D01*
X25143Y-12238D01*
X25143Y-17469D01*
X20254Y-17469D01*
X16524Y-21199D01*
X16524Y-11015D01*
X16436Y-10801D01*
X16273Y-10638D01*
X16253Y-10630D01*
X16272Y-10621D01*
X16436Y-10458D01*
X16524Y-10245D01*
X16524Y-10015D01*
X16436Y-9801D01*
X16273Y-9638D01*
X16060Y-9550D01*
X15830Y-9549D01*
X15616Y-9637D01*
X15453Y-9800D01*
X15364Y-10014D01*
X15364Y-10244D01*
X15452Y-10458D01*
X15615Y-10621D01*
X15636Y-10629D01*
X15616Y-10637D01*
X15453Y-10800D01*
X15364Y-11014D01*
X15364Y-11244D01*
X15452Y-11458D01*
X15615Y-11621D01*
X15829Y-11709D01*
X16059Y-11710D01*
X16272Y-11621D01*
X16436Y-11458D01*
X16524Y-11245D01*
X16524Y-11015D01*
X16524Y-21199D01*
X16485Y-21239D01*
X16485Y-21653D01*
X16485Y-25910D01*
X13636Y-23061D01*
X13636Y-10346D01*
X13418Y-9820D01*
X13016Y-9417D01*
X12490Y-9199D01*
X11921Y-9198D01*
X11395Y-9415D01*
X10992Y-9818D01*
X10773Y-10344D01*
X10773Y-10913D01*
X10990Y-11439D01*
X11393Y-11842D01*
X11918Y-12060D01*
X12488Y-12061D01*
X13014Y-11843D01*
X13417Y-11441D01*
X13635Y-10915D01*
X13636Y-10346D01*
X13636Y-23061D01*
X13465Y-22890D01*
X13481Y-22852D01*
X13481Y-22621D01*
X13393Y-22408D01*
X13230Y-22244D01*
X13017Y-22156D01*
X12786Y-22156D01*
X12573Y-22244D01*
X12410Y-22407D01*
X12401Y-22427D01*
X12393Y-22408D01*
X12230Y-22244D01*
X12017Y-22156D01*
X11786Y-22156D01*
X11573Y-22244D01*
X11410Y-22407D01*
X11321Y-22620D01*
X11321Y-22851D01*
X11409Y-23064D01*
X11572Y-23227D01*
X11785Y-23316D01*
X12016Y-23316D01*
X12229Y-23228D01*
X12392Y-23065D01*
X12401Y-23044D01*
X12409Y-23064D01*
X12572Y-23227D01*
X12785Y-23316D01*
X13016Y-23316D01*
X13056Y-23299D01*
X14313Y-24557D01*
X14085Y-24462D01*
X13813Y-24462D01*
X13562Y-24566D01*
X13370Y-24758D01*
X13265Y-25009D01*
X13265Y-25144D01*
X13147Y-25025D01*
X12791Y-24878D01*
X12406Y-24877D01*
X12050Y-25024D01*
X11777Y-25297D01*
X11630Y-25652D01*
X11629Y-26038D01*
X11776Y-26394D01*
X12049Y-26667D01*
X12404Y-26814D01*
X12790Y-26815D01*
X13146Y-26667D01*
X13419Y-26395D01*
X13566Y-26039D01*
X13567Y-25726D01*
X13812Y-25828D01*
X14084Y-25828D01*
X14335Y-25725D01*
X14527Y-25533D01*
X14631Y-25282D01*
X14632Y-25010D01*
X14537Y-24781D01*
X16485Y-26729D01*
X16485Y-29900D01*
X14844Y-31541D01*
X14844Y-29242D01*
X14761Y-29041D01*
X14669Y-28948D01*
X14761Y-28856D01*
X14844Y-28656D01*
X14844Y-28439D01*
X14761Y-28238D01*
X14669Y-28145D01*
X14761Y-28053D01*
X14844Y-27853D01*
X14844Y-27636D01*
X14761Y-27435D01*
X14669Y-27342D01*
X14761Y-27250D01*
X14844Y-27049D01*
X14844Y-26832D01*
X14761Y-26632D01*
X14608Y-26478D01*
X14408Y-26395D01*
X14191Y-26395D01*
X13990Y-26478D01*
X13837Y-26631D01*
X13759Y-26818D01*
X13707Y-26797D01*
X13490Y-26796D01*
X13289Y-26879D01*
X13136Y-27033D01*
X13053Y-27233D01*
X13052Y-27450D01*
X13135Y-27651D01*
X13289Y-27804D01*
X13355Y-27832D01*
X13598Y-28074D01*
X13603Y-28069D01*
X13674Y-28140D01*
X13669Y-28145D01*
X13674Y-28151D01*
X13603Y-28221D01*
X13598Y-28216D01*
X13527Y-28287D01*
X13527Y-28145D01*
X13215Y-27833D01*
X13120Y-27860D01*
X13048Y-28064D01*
X13059Y-28281D01*
X13120Y-28430D01*
X13215Y-28457D01*
X13527Y-28145D01*
X13527Y-28287D01*
X13356Y-28458D01*
X13289Y-28486D01*
X13136Y-28639D01*
X13053Y-28839D01*
X13052Y-29056D01*
X13135Y-29257D01*
X13289Y-29411D01*
X13355Y-29438D01*
X13598Y-29681D01*
X13603Y-29675D01*
X13674Y-29746D01*
X13669Y-29751D01*
X13981Y-30063D01*
X14075Y-30037D01*
X14134Y-29872D01*
X14190Y-29895D01*
X14407Y-29895D01*
X14607Y-29813D01*
X14761Y-29659D01*
X14844Y-29459D01*
X14844Y-29242D01*
X14844Y-31541D01*
X14581Y-31804D01*
X14631Y-31683D01*
X14632Y-31411D01*
X14528Y-31160D01*
X14336Y-30968D01*
X14085Y-30864D01*
X13813Y-30864D01*
X13566Y-30965D01*
X13567Y-30654D01*
X13419Y-30298D01*
X13371Y-30250D01*
X13517Y-30302D01*
X13734Y-30291D01*
X13883Y-30229D01*
X13910Y-30134D01*
X13598Y-29822D01*
X13592Y-29828D01*
X13522Y-29757D01*
X13527Y-29751D01*
X13215Y-29440D01*
X13120Y-29466D01*
X13048Y-29671D01*
X13059Y-29888D01*
X13109Y-30010D01*
X12791Y-29878D01*
X12406Y-29877D01*
X12050Y-30024D01*
X11777Y-30297D01*
X11630Y-30652D01*
X11629Y-31038D01*
X11776Y-31394D01*
X12049Y-31667D01*
X12404Y-31814D01*
X12790Y-31815D01*
X13146Y-31667D01*
X13265Y-31548D01*
X13265Y-31682D01*
X13330Y-31839D01*
X10505Y-31839D01*
X10505Y-8931D01*
X49336Y-8931D01*
X49336Y-47761D01*
M02*
