G04 (created by PCBNEW (2013-07-07 BZR 4022)-stable) date 9/18/2013 12:24:05*
%MOIN*%
G04 Gerber Fmt 3.4, Leading zero omitted, Abs format*
%FSLAX34Y34*%
G01*
G70*
G90*
G04 APERTURE LIST*
%ADD10C,0.00590551*%
%ADD11C,0.011811*%
%ADD12C,0.246063*%
%ADD13C,0.0758425*%
%ADD14C,0.153543*%
%ADD15C,0.0689425*%
%ADD16C,0.0964567*%
G04 APERTURE END LIST*
G54D10*
G54D11*
X51414Y-15284D02*
X51498Y-15312D01*
X51526Y-15340D01*
X51555Y-15396D01*
X51555Y-15480D01*
X51526Y-15537D01*
X51498Y-15565D01*
X51442Y-15593D01*
X51217Y-15593D01*
X51217Y-15002D01*
X51414Y-15002D01*
X51470Y-15030D01*
X51498Y-15059D01*
X51526Y-15115D01*
X51526Y-15171D01*
X51498Y-15227D01*
X51470Y-15255D01*
X51414Y-15284D01*
X51217Y-15284D01*
X51808Y-15537D02*
X51836Y-15565D01*
X51808Y-15593D01*
X51780Y-15565D01*
X51808Y-15537D01*
X51808Y-15593D01*
X52511Y-15565D02*
X52595Y-15593D01*
X52736Y-15593D01*
X52792Y-15565D01*
X52820Y-15537D01*
X52848Y-15480D01*
X52848Y-15424D01*
X52820Y-15368D01*
X52792Y-15340D01*
X52736Y-15312D01*
X52623Y-15284D01*
X52567Y-15255D01*
X52539Y-15227D01*
X52511Y-15171D01*
X52511Y-15115D01*
X52539Y-15059D01*
X52567Y-15030D01*
X52623Y-15002D01*
X52764Y-15002D01*
X52848Y-15030D01*
X53101Y-15593D02*
X53101Y-15199D01*
X53101Y-15002D02*
X53073Y-15030D01*
X53101Y-15059D01*
X53129Y-15030D01*
X53101Y-15002D01*
X53101Y-15059D01*
X53467Y-15593D02*
X53411Y-15565D01*
X53383Y-15508D01*
X53383Y-15002D01*
X53692Y-15593D02*
X53692Y-15002D01*
X53748Y-15368D02*
X53917Y-15593D01*
X53917Y-15199D02*
X53692Y-15424D01*
X54142Y-15565D02*
X54226Y-15593D01*
X54367Y-15593D01*
X54423Y-15565D01*
X54451Y-15537D01*
X54479Y-15480D01*
X54479Y-15424D01*
X54451Y-15368D01*
X54423Y-15340D01*
X54367Y-15312D01*
X54254Y-15284D01*
X54198Y-15255D01*
X54170Y-15227D01*
X54142Y-15171D01*
X54142Y-15115D01*
X54170Y-15059D01*
X54198Y-15030D01*
X54254Y-15002D01*
X54395Y-15002D01*
X54479Y-15030D01*
%LPC*%
X51428Y-17173D02*
X51512Y-17201D01*
X51541Y-17230D01*
X51569Y-17286D01*
X51569Y-17370D01*
X51541Y-17426D01*
X51512Y-17455D01*
X51456Y-17483D01*
X51231Y-17483D01*
X51231Y-16892D01*
X51428Y-16892D01*
X51484Y-16920D01*
X51512Y-16948D01*
X51541Y-17005D01*
X51541Y-17061D01*
X51512Y-17117D01*
X51484Y-17145D01*
X51428Y-17173D01*
X51231Y-17173D01*
X51822Y-17426D02*
X51850Y-17455D01*
X51822Y-17483D01*
X51794Y-17455D01*
X51822Y-17426D01*
X51822Y-17483D01*
X52553Y-17483D02*
X52553Y-16892D01*
X52750Y-17314D01*
X52947Y-16892D01*
X52947Y-17483D01*
X53481Y-17483D02*
X53481Y-17173D01*
X53453Y-17117D01*
X53397Y-17089D01*
X53284Y-17089D01*
X53228Y-17117D01*
X53481Y-17455D02*
X53425Y-17483D01*
X53284Y-17483D01*
X53228Y-17455D01*
X53200Y-17398D01*
X53200Y-17342D01*
X53228Y-17286D01*
X53284Y-17258D01*
X53425Y-17258D01*
X53481Y-17230D01*
X53734Y-17455D02*
X53790Y-17483D01*
X53903Y-17483D01*
X53959Y-17455D01*
X53987Y-17398D01*
X53987Y-17370D01*
X53959Y-17314D01*
X53903Y-17286D01*
X53818Y-17286D01*
X53762Y-17258D01*
X53734Y-17201D01*
X53734Y-17173D01*
X53762Y-17117D01*
X53818Y-17089D01*
X53903Y-17089D01*
X53959Y-17117D01*
X54240Y-17483D02*
X54240Y-16892D01*
X54296Y-17258D02*
X54465Y-17483D01*
X54465Y-17089D02*
X54240Y-17314D01*
G54D12*
X12204Y-10629D03*
X47637Y-10629D03*
X47637Y-46062D03*
X12204Y-46062D03*
G54D13*
X44488Y-10129D03*
X44488Y-11129D03*
X41732Y-10129D03*
X41732Y-11129D03*
X38779Y-10129D03*
X38779Y-11129D03*
X35826Y-10129D03*
X35826Y-11129D03*
X11901Y-42519D03*
X12901Y-42519D03*
X11901Y-39566D03*
X12901Y-39566D03*
X11901Y-36614D03*
X12901Y-36614D03*
X11901Y-33661D03*
X12901Y-33661D03*
X15944Y-10129D03*
X15944Y-11129D03*
X12901Y-22736D03*
X11901Y-22736D03*
G54D14*
X47244Y-25846D03*
X47244Y-30846D03*
G54D15*
X46244Y-26940D03*
X45543Y-27342D03*
X46244Y-27744D03*
X45543Y-28145D03*
X46244Y-28547D03*
X45543Y-28948D03*
X46244Y-29350D03*
X45543Y-29751D03*
G54D16*
X45893Y-25145D03*
X45893Y-31547D03*
G54D14*
X12598Y-30846D03*
X12598Y-25846D03*
G54D15*
X13598Y-29751D03*
X14299Y-29350D03*
X13598Y-28948D03*
X14299Y-28547D03*
X13598Y-28145D03*
X14299Y-27744D03*
X13598Y-27342D03*
X14299Y-26940D03*
G54D16*
X13948Y-31547D03*
X13948Y-25145D03*
G54D14*
X27421Y-11023D03*
X32421Y-11023D03*
G54D15*
X28515Y-12023D03*
X28917Y-12724D03*
X29318Y-12023D03*
X29720Y-12724D03*
X30122Y-12023D03*
X30523Y-12724D03*
X30925Y-12023D03*
X31326Y-12724D03*
G54D16*
X26720Y-12374D03*
X33122Y-12374D03*
G54D14*
X18759Y-11023D03*
X23759Y-11023D03*
G54D15*
X19854Y-12023D03*
X20255Y-12724D03*
X20657Y-12023D03*
X21059Y-12724D03*
X21460Y-12023D03*
X21862Y-12724D03*
X22263Y-12023D03*
X22665Y-12724D03*
G54D16*
X18059Y-12374D03*
X24460Y-12374D03*
G54D14*
X37145Y-45669D03*
X32145Y-45669D03*
G54D15*
X36051Y-44669D03*
X35649Y-43968D03*
X35248Y-44669D03*
X34846Y-43968D03*
X34444Y-44669D03*
X34043Y-43968D03*
X33641Y-44669D03*
X33240Y-43968D03*
G54D16*
X37846Y-44318D03*
X31444Y-44318D03*
G54D14*
X27696Y-45669D03*
X22696Y-45669D03*
G54D15*
X26602Y-44669D03*
X26200Y-43968D03*
X25799Y-44669D03*
X25397Y-43968D03*
X24996Y-44669D03*
X24594Y-43968D03*
X24192Y-44669D03*
X23791Y-43968D03*
G54D16*
X28397Y-44318D03*
X21996Y-44318D03*
M02*
