G04 (created by PCBNEW (2013-07-07 BZR 4022)-stable) date 9/18/2013 12:24:23*
%MOIN*%
G04 Gerber Fmt 3.4, Leading zero omitted, Abs format*
%FSLAX34Y34*%
G01*
G70*
G90*
G04 APERTURE LIST*
%ADD10C,0.005*%
%ADD11C,0.011811*%
%ADD12C,0.00393701*%
%ADD13C,0.00787402*%
G04 APERTURE END LIST*
G54D10*
G54D11*
X51197Y-18197D02*
X51394Y-18197D01*
X51479Y-18506D02*
X51197Y-18506D01*
X51197Y-17916D01*
X51479Y-17916D01*
X51985Y-18506D02*
X51985Y-17916D01*
X51985Y-18478D02*
X51929Y-18506D01*
X51816Y-18506D01*
X51760Y-18478D01*
X51732Y-18450D01*
X51704Y-18394D01*
X51704Y-18225D01*
X51732Y-18169D01*
X51760Y-18141D01*
X51816Y-18113D01*
X51929Y-18113D01*
X51985Y-18141D01*
X52519Y-18113D02*
X52519Y-18591D01*
X52491Y-18647D01*
X52463Y-18675D01*
X52407Y-18703D01*
X52322Y-18703D01*
X52266Y-18675D01*
X52519Y-18478D02*
X52463Y-18506D01*
X52350Y-18506D01*
X52294Y-18478D01*
X52266Y-18450D01*
X52238Y-18394D01*
X52238Y-18225D01*
X52266Y-18169D01*
X52294Y-18141D01*
X52350Y-18113D01*
X52463Y-18113D01*
X52519Y-18141D01*
X53025Y-18478D02*
X52969Y-18506D01*
X52857Y-18506D01*
X52800Y-18478D01*
X52772Y-18422D01*
X52772Y-18197D01*
X52800Y-18141D01*
X52857Y-18113D01*
X52969Y-18113D01*
X53025Y-18141D01*
X53053Y-18197D01*
X53053Y-18253D01*
X52772Y-18309D01*
X54094Y-18450D02*
X54066Y-18478D01*
X53982Y-18506D01*
X53925Y-18506D01*
X53841Y-18478D01*
X53785Y-18422D01*
X53757Y-18366D01*
X53728Y-18253D01*
X53728Y-18169D01*
X53757Y-18056D01*
X53785Y-18000D01*
X53841Y-17944D01*
X53925Y-17916D01*
X53982Y-17916D01*
X54066Y-17944D01*
X54094Y-17972D01*
X54600Y-18113D02*
X54600Y-18506D01*
X54347Y-18113D02*
X54347Y-18422D01*
X54375Y-18478D01*
X54431Y-18506D01*
X54516Y-18506D01*
X54572Y-18478D01*
X54600Y-18450D01*
X54797Y-18113D02*
X55022Y-18113D01*
X54881Y-17916D02*
X54881Y-18422D01*
X54910Y-18478D01*
X54966Y-18506D01*
X55022Y-18506D01*
X55191Y-18478D02*
X55247Y-18506D01*
X55359Y-18506D01*
X55416Y-18478D01*
X55444Y-18422D01*
X55444Y-18394D01*
X55416Y-18338D01*
X55359Y-18309D01*
X55275Y-18309D01*
X55219Y-18281D01*
X55191Y-18225D01*
X55191Y-18197D01*
X55219Y-18141D01*
X55275Y-18113D01*
X55359Y-18113D01*
X55416Y-18141D01*
G54D12*
X10236Y-48031D02*
X10236Y-8661D01*
X49606Y-48031D02*
X10236Y-48031D01*
X49606Y-8661D02*
X49606Y-48031D01*
X10236Y-8661D02*
X49606Y-8661D01*
G54D13*
X22141Y-25381D02*
X22338Y-25578D01*
X22338Y-25381D02*
X22141Y-25578D01*
X22224Y-31043D02*
X22421Y-31240D01*
X22421Y-31043D02*
X22224Y-31240D01*
X22686Y-28876D02*
X22883Y-29073D01*
X22883Y-28876D02*
X22686Y-29073D01*
X22696Y-31043D02*
X22893Y-31240D01*
X22893Y-31043D02*
X22696Y-31240D01*
X22846Y-34306D02*
X23043Y-34503D01*
X23043Y-34306D02*
X22846Y-34503D01*
X23331Y-29121D02*
X23528Y-29318D01*
X23528Y-29121D02*
X23331Y-29318D01*
X23461Y-26096D02*
X23658Y-26293D01*
X23658Y-26096D02*
X23461Y-26293D01*
X23476Y-34306D02*
X23673Y-34503D01*
X23673Y-34306D02*
X23476Y-34503D01*
X23692Y-41916D02*
X23889Y-42113D01*
X23889Y-41916D02*
X23692Y-42113D01*
X23811Y-24441D02*
X24008Y-24638D01*
X24008Y-24441D02*
X23811Y-24638D01*
X24251Y-20984D02*
X24448Y-21181D01*
X24448Y-20984D02*
X24251Y-21181D01*
X24421Y-24046D02*
X24618Y-24243D01*
X24618Y-24046D02*
X24421Y-24243D01*
X24486Y-40116D02*
X24683Y-40313D01*
X24683Y-40116D02*
X24486Y-40313D01*
X24496Y-41546D02*
X24692Y-41743D01*
X24692Y-41546D02*
X24496Y-41743D01*
X24601Y-28081D02*
X24798Y-28278D01*
X24798Y-28081D02*
X24601Y-28278D01*
X24891Y-40466D02*
X25088Y-40663D01*
X25088Y-40466D02*
X24891Y-40663D01*
X25071Y-27531D02*
X25268Y-27728D01*
X25268Y-27531D02*
X25071Y-27728D01*
X25299Y-41901D02*
X25496Y-42098D01*
X25496Y-41901D02*
X25299Y-42098D01*
X25366Y-40706D02*
X25563Y-40903D01*
X25563Y-40706D02*
X25366Y-40903D01*
X25371Y-27991D02*
X25568Y-28188D01*
X25568Y-27991D02*
X25371Y-28188D01*
X25901Y-40691D02*
X26098Y-40888D01*
X26098Y-40691D02*
X25901Y-40888D01*
X26031Y-27076D02*
X26228Y-27273D01*
X26228Y-27076D02*
X26031Y-27273D01*
X26102Y-42316D02*
X26299Y-42513D01*
X26299Y-42316D02*
X26102Y-42513D01*
X28006Y-23686D02*
X28203Y-23883D01*
X28203Y-23686D02*
X28006Y-23883D01*
X28722Y-18671D02*
X28919Y-18868D01*
X28919Y-18671D02*
X28722Y-18868D01*
X29371Y-18571D02*
X29568Y-18768D01*
X29568Y-18571D02*
X29371Y-18768D01*
X29476Y-20851D02*
X29673Y-21048D01*
X29673Y-20851D02*
X29476Y-21048D01*
X29621Y-37791D02*
X29818Y-37988D01*
X29818Y-37791D02*
X29621Y-37988D01*
X30056Y-18271D02*
X30253Y-18468D01*
X30253Y-18271D02*
X30056Y-18468D01*
X30393Y-17893D02*
X30590Y-18090D01*
X30590Y-17893D02*
X30393Y-18090D01*
X30736Y-29416D02*
X30933Y-29613D01*
X30933Y-29416D02*
X30736Y-29613D01*
X31091Y-37811D02*
X31288Y-38008D01*
X31288Y-37811D02*
X31091Y-38008D01*
X31471Y-22751D02*
X31668Y-22948D01*
X31668Y-22751D02*
X31471Y-22948D01*
X31948Y-19035D02*
X32145Y-19232D01*
X32145Y-19035D02*
X31948Y-19232D01*
X32031Y-25816D02*
X32228Y-26013D01*
X32228Y-25816D02*
X32031Y-26013D01*
X32491Y-27491D02*
X32688Y-27688D01*
X32688Y-27491D02*
X32491Y-27688D01*
X33091Y-23681D02*
X33288Y-23878D01*
X33288Y-23681D02*
X33091Y-23878D01*
X34251Y-37286D02*
X34448Y-37483D01*
X34448Y-37286D02*
X34251Y-37483D01*
X34451Y-37626D02*
X34648Y-37823D01*
X34648Y-37626D02*
X34451Y-37823D01*
X34891Y-37891D02*
X35088Y-38088D01*
X35088Y-37891D02*
X34891Y-38088D01*
X34916Y-36651D02*
X35113Y-36848D01*
X35113Y-36651D02*
X34916Y-36848D01*
X34931Y-21051D02*
X35128Y-21248D01*
X35128Y-21051D02*
X34931Y-21248D01*
X35181Y-36966D02*
X35378Y-37163D01*
X35378Y-36966D02*
X35181Y-37163D01*
X35551Y-38466D02*
X35748Y-38663D01*
X35748Y-38466D02*
X35551Y-38663D01*
X35786Y-37566D02*
X35983Y-37763D01*
X35983Y-37566D02*
X35786Y-37763D01*
X36391Y-23491D02*
X36588Y-23688D01*
X36588Y-23491D02*
X36391Y-23688D01*
X36441Y-30041D02*
X36638Y-30238D01*
X36638Y-30041D02*
X36441Y-30238D01*
X36901Y-36301D02*
X37098Y-36498D01*
X37098Y-36301D02*
X36901Y-36498D01*
X36926Y-30166D02*
X37123Y-30363D01*
X37123Y-30166D02*
X36926Y-30363D01*
X37001Y-22056D02*
X37198Y-22253D01*
X37198Y-22056D02*
X37001Y-22253D01*
X37636Y-36256D02*
X37833Y-36453D01*
X37833Y-36256D02*
X37636Y-36453D01*
X37711Y-25211D02*
X37908Y-25408D01*
X37908Y-25211D02*
X37711Y-25408D01*
X37746Y-35621D02*
X37943Y-35818D01*
X37943Y-35621D02*
X37746Y-35818D01*
X38196Y-34496D02*
X38393Y-34693D01*
X38393Y-34496D02*
X38196Y-34693D01*
X38366Y-36711D02*
X38563Y-36908D01*
X38563Y-36711D02*
X38366Y-36908D01*
X38381Y-26081D02*
X38578Y-26278D01*
X38578Y-26081D02*
X38381Y-26278D01*
X39691Y-24451D02*
X39888Y-24648D01*
X39888Y-24451D02*
X39691Y-24648D01*
X41791Y-28376D02*
X41988Y-28573D01*
X41988Y-28376D02*
X41791Y-28573D01*
X42027Y-27263D02*
X42224Y-27460D01*
X42224Y-27263D02*
X42027Y-27460D01*
X42211Y-28651D02*
X42408Y-28848D01*
X42408Y-28651D02*
X42211Y-28848D01*
X43602Y-27244D02*
X43799Y-27440D01*
X43799Y-27244D02*
X43602Y-27440D01*
X15715Y-22244D02*
G75*
G03X15715Y-22244I-125J0D01*
G74*
G01*
X16187Y-21732D02*
G75*
G03X16187Y-21732I-125J0D01*
G74*
G01*
X16187Y-22244D02*
G75*
G03X16187Y-22244I-125J0D01*
G74*
G01*
X19180Y-21456D02*
G75*
G03X19180Y-21456I-125J0D01*
G74*
G01*
X19298Y-22165D02*
G75*
G03X19298Y-22165I-125J0D01*
G74*
G01*
X19603Y-21879D02*
G75*
G03X19603Y-21879I-125J0D01*
G74*
G01*
X24140Y-21909D02*
G75*
G03X24140Y-21909I-125J0D01*
G74*
G01*
X26160Y-35935D02*
G75*
G03X26160Y-35935I-125J0D01*
G74*
G01*
X27369Y-25137D02*
G75*
G03X27369Y-25137I-125J0D01*
G74*
G01*
X27802Y-19724D02*
G75*
G03X27802Y-19724I-125J0D01*
G74*
G01*
X28460Y-19735D02*
G75*
G03X28460Y-19735I-125J0D01*
G74*
G01*
X28755Y-29895D02*
G75*
G03X28755Y-29895I-125J0D01*
G74*
G01*
X29350Y-35880D02*
G75*
G03X29350Y-35880I-125J0D01*
G74*
G01*
X30625Y-29855D02*
G75*
G03X30625Y-29855I-125J0D01*
G74*
G01*
X31265Y-19700D02*
G75*
G03X31265Y-19700I-125J0D01*
G74*
G01*
X32535Y-26330D02*
G75*
G03X32535Y-26330I-125J0D01*
G74*
G01*
X33215Y-36490D02*
G75*
G03X33215Y-36490I-125J0D01*
G74*
G01*
X34165Y-35540D02*
G75*
G03X34165Y-35540I-125J0D01*
G74*
G01*
X35090Y-30405D02*
G75*
G03X35090Y-30405I-125J0D01*
G74*
G01*
X35605Y-26310D02*
G75*
G03X35605Y-26310I-125J0D01*
G74*
G01*
X38080Y-30270D02*
G75*
G03X38080Y-30270I-125J0D01*
G74*
G01*
X39455Y-30550D02*
G75*
G03X39455Y-30550I-125J0D01*
G74*
G01*
X11901Y-22576D02*
X11901Y-22896D01*
X11741Y-22736D02*
X12061Y-22736D01*
X11901Y-33501D02*
X11901Y-33821D01*
X11741Y-33661D02*
X12061Y-33661D01*
X11901Y-36454D02*
X11901Y-36774D01*
X11741Y-36614D02*
X12061Y-36614D01*
X11901Y-39406D02*
X11901Y-39726D01*
X11741Y-39566D02*
X12061Y-39566D01*
X11901Y-42359D02*
X11901Y-42679D01*
X11741Y-42519D02*
X12061Y-42519D01*
X12901Y-22576D02*
X12901Y-22896D01*
X12741Y-22736D02*
X13061Y-22736D01*
X12901Y-33501D02*
X12901Y-33821D01*
X12741Y-33661D02*
X13061Y-33661D01*
X12901Y-36454D02*
X12901Y-36774D01*
X12741Y-36614D02*
X13061Y-36614D01*
X12901Y-39406D02*
X12901Y-39726D01*
X12741Y-39566D02*
X13061Y-39566D01*
X12901Y-42359D02*
X12901Y-42679D01*
X12741Y-42519D02*
X13061Y-42519D01*
X15944Y-9969D02*
X15944Y-10289D01*
X15784Y-10129D02*
X16104Y-10129D01*
X15944Y-10969D02*
X15944Y-11289D01*
X15784Y-11129D02*
X16104Y-11129D01*
X35826Y-9969D02*
X35826Y-10289D01*
X35666Y-10129D02*
X35986Y-10129D01*
X35826Y-10969D02*
X35826Y-11289D01*
X35666Y-11129D02*
X35986Y-11129D01*
X38779Y-9969D02*
X38779Y-10289D01*
X38619Y-10129D02*
X38939Y-10129D01*
X38779Y-10969D02*
X38779Y-11289D01*
X38619Y-11129D02*
X38939Y-11129D01*
X41732Y-9969D02*
X41732Y-10289D01*
X41572Y-10129D02*
X41892Y-10129D01*
X41732Y-10969D02*
X41732Y-11289D01*
X41572Y-11129D02*
X41892Y-11129D01*
X44488Y-9969D02*
X44488Y-10289D01*
X44328Y-10129D02*
X44648Y-10129D01*
X44488Y-10969D02*
X44488Y-11289D01*
X44328Y-11129D02*
X44648Y-11129D01*
X13723Y-27467D02*
X13723Y-27217D01*
X13473Y-27217D01*
X13473Y-27467D01*
X13723Y-27467D01*
X13723Y-28270D02*
X13723Y-28020D01*
X13473Y-28020D01*
X13473Y-28270D01*
X13723Y-28270D01*
X13723Y-29073D02*
X13723Y-28823D01*
X13473Y-28823D01*
X13473Y-29073D01*
X13723Y-29073D01*
X13723Y-29877D02*
X13723Y-29626D01*
X13473Y-29626D01*
X13473Y-29877D01*
X13723Y-29877D01*
X14424Y-27066D02*
X14424Y-26815D01*
X14174Y-26815D01*
X14174Y-27066D01*
X14424Y-27066D01*
X14424Y-27869D02*
X14424Y-27618D01*
X14174Y-27618D01*
X14174Y-27869D01*
X14424Y-27869D01*
X14424Y-28672D02*
X14424Y-28422D01*
X14174Y-28422D01*
X14174Y-28672D01*
X14424Y-28672D01*
X14424Y-29475D02*
X14424Y-29225D01*
X14174Y-29225D01*
X14174Y-29475D01*
X14424Y-29475D01*
X19979Y-12148D02*
X19979Y-11898D01*
X19729Y-11898D01*
X19729Y-12148D01*
X19979Y-12148D01*
X20381Y-12849D02*
X20381Y-12599D01*
X20130Y-12599D01*
X20130Y-12849D01*
X20381Y-12849D01*
X20782Y-12148D02*
X20782Y-11898D01*
X20532Y-11898D01*
X20532Y-12148D01*
X20782Y-12148D01*
X21184Y-12849D02*
X21184Y-12599D01*
X20933Y-12599D01*
X20933Y-12849D01*
X21184Y-12849D01*
X21585Y-12148D02*
X21585Y-11898D01*
X21335Y-11898D01*
X21335Y-12148D01*
X21585Y-12148D01*
X21987Y-12849D02*
X21987Y-12599D01*
X21737Y-12599D01*
X21737Y-12849D01*
X21987Y-12849D01*
X22388Y-12148D02*
X22388Y-11898D01*
X22138Y-11898D01*
X22138Y-12148D01*
X22388Y-12148D01*
X22790Y-12849D02*
X22790Y-12599D01*
X22540Y-12599D01*
X22540Y-12849D01*
X22790Y-12849D01*
X23916Y-44093D02*
X23916Y-43843D01*
X23666Y-43843D01*
X23666Y-44093D01*
X23916Y-44093D01*
X24318Y-44794D02*
X24318Y-44544D01*
X24067Y-44544D01*
X24067Y-44794D01*
X24318Y-44794D01*
X24719Y-44093D02*
X24719Y-43843D01*
X24469Y-43843D01*
X24469Y-44093D01*
X24719Y-44093D01*
X25121Y-44794D02*
X25121Y-44544D01*
X24870Y-44544D01*
X24870Y-44794D01*
X25121Y-44794D01*
X25522Y-44093D02*
X25522Y-43843D01*
X25272Y-43843D01*
X25272Y-44093D01*
X25522Y-44093D01*
X25924Y-44794D02*
X25924Y-44544D01*
X25674Y-44544D01*
X25674Y-44794D01*
X25924Y-44794D01*
X26325Y-44093D02*
X26325Y-43843D01*
X26075Y-43843D01*
X26075Y-44093D01*
X26325Y-44093D01*
X26727Y-44794D02*
X26727Y-44544D01*
X26477Y-44544D01*
X26477Y-44794D01*
X26727Y-44794D01*
X28640Y-12148D02*
X28640Y-11898D01*
X28390Y-11898D01*
X28390Y-12148D01*
X28640Y-12148D01*
X29042Y-12849D02*
X29042Y-12599D01*
X28792Y-12599D01*
X28792Y-12849D01*
X29042Y-12849D01*
X29444Y-12148D02*
X29444Y-11898D01*
X29193Y-11898D01*
X29193Y-12148D01*
X29444Y-12148D01*
X29845Y-12849D02*
X29845Y-12599D01*
X29595Y-12599D01*
X29595Y-12849D01*
X29845Y-12849D01*
X30247Y-12148D02*
X30247Y-11898D01*
X29996Y-11898D01*
X29996Y-12148D01*
X30247Y-12148D01*
X30648Y-12849D02*
X30648Y-12599D01*
X30398Y-12599D01*
X30398Y-12849D01*
X30648Y-12849D01*
X31050Y-12148D02*
X31050Y-11898D01*
X30800Y-11898D01*
X30800Y-12148D01*
X31050Y-12148D01*
X31451Y-12849D02*
X31451Y-12599D01*
X31201Y-12599D01*
X31201Y-12849D01*
X31451Y-12849D01*
X33365Y-44093D02*
X33365Y-43843D01*
X33114Y-43843D01*
X33114Y-44093D01*
X33365Y-44093D01*
X33766Y-44794D02*
X33766Y-44544D01*
X33516Y-44544D01*
X33516Y-44794D01*
X33766Y-44794D01*
X34168Y-44093D02*
X34168Y-43843D01*
X33918Y-43843D01*
X33918Y-44093D01*
X34168Y-44093D01*
X34570Y-44794D02*
X34570Y-44544D01*
X34319Y-44544D01*
X34319Y-44794D01*
X34570Y-44794D01*
X34971Y-44093D02*
X34971Y-43843D01*
X34721Y-43843D01*
X34721Y-44093D01*
X34971Y-44093D01*
X35373Y-44794D02*
X35373Y-44544D01*
X35122Y-44544D01*
X35122Y-44794D01*
X35373Y-44794D01*
X35774Y-44093D02*
X35774Y-43843D01*
X35524Y-43843D01*
X35524Y-44093D01*
X35774Y-44093D01*
X36176Y-44794D02*
X36176Y-44544D01*
X35926Y-44544D01*
X35926Y-44794D01*
X36176Y-44794D01*
X45668Y-27467D02*
X45668Y-27217D01*
X45418Y-27217D01*
X45418Y-27467D01*
X45668Y-27467D01*
X45668Y-28270D02*
X45668Y-28020D01*
X45418Y-28020D01*
X45418Y-28270D01*
X45668Y-28270D01*
X45668Y-29073D02*
X45668Y-28823D01*
X45418Y-28823D01*
X45418Y-29073D01*
X45668Y-29073D01*
X45668Y-29877D02*
X45668Y-29626D01*
X45418Y-29626D01*
X45418Y-29877D01*
X45668Y-29877D01*
X46369Y-27066D02*
X46369Y-26815D01*
X46118Y-26815D01*
X46118Y-27066D01*
X46369Y-27066D01*
X46369Y-27869D02*
X46369Y-27618D01*
X46118Y-27618D01*
X46118Y-27869D01*
X46369Y-27869D01*
X46369Y-28672D02*
X46369Y-28422D01*
X46118Y-28422D01*
X46118Y-28672D01*
X46369Y-28672D01*
X46369Y-29475D02*
X46369Y-29225D01*
X46118Y-29225D01*
X46118Y-29475D01*
X46369Y-29475D01*
X13948Y-25460D02*
X14263Y-25145D01*
X13948Y-24830D01*
X13633Y-25145D01*
X13948Y-25460D01*
X13948Y-31862D02*
X14263Y-31547D01*
X13948Y-31232D01*
X13633Y-31547D01*
X13948Y-31862D01*
X18059Y-12688D02*
X18374Y-12374D01*
X18059Y-12059D01*
X17744Y-12374D01*
X18059Y-12688D01*
X21996Y-44633D02*
X22311Y-44318D01*
X21996Y-44003D01*
X21681Y-44318D01*
X21996Y-44633D01*
X24460Y-12688D02*
X24775Y-12374D01*
X24460Y-12059D01*
X24145Y-12374D01*
X24460Y-12688D01*
X26720Y-12688D02*
X27035Y-12374D01*
X26720Y-12059D01*
X26405Y-12374D01*
X26720Y-12688D01*
X28397Y-44633D02*
X28712Y-44318D01*
X28397Y-44003D01*
X28082Y-44318D01*
X28397Y-44633D01*
X31444Y-44633D02*
X31759Y-44318D01*
X31444Y-44003D01*
X31129Y-44318D01*
X31444Y-44633D01*
X33122Y-12688D02*
X33437Y-12374D01*
X33122Y-12059D01*
X32807Y-12374D01*
X33122Y-12688D01*
X37846Y-44633D02*
X38161Y-44318D01*
X37846Y-44003D01*
X37531Y-44318D01*
X37846Y-44633D01*
X45893Y-25460D02*
X46208Y-25145D01*
X45893Y-24830D01*
X45578Y-25145D01*
X45893Y-25460D01*
X45893Y-31862D02*
X46208Y-31547D01*
X45893Y-31232D01*
X45578Y-31547D01*
X45893Y-31862D01*
G54D11*
X11285Y-49828D02*
X11285Y-48647D01*
X11566Y-48647D01*
X11735Y-48703D01*
X11847Y-48816D01*
X11903Y-48928D01*
X11960Y-49153D01*
X11960Y-49322D01*
X11903Y-49547D01*
X11847Y-49659D01*
X11735Y-49772D01*
X11566Y-49828D01*
X11285Y-49828D01*
X12466Y-49828D02*
X12466Y-49041D01*
X12466Y-49266D02*
X12522Y-49153D01*
X12578Y-49097D01*
X12691Y-49041D01*
X12803Y-49041D01*
X13197Y-49828D02*
X13197Y-49041D01*
X13197Y-48647D02*
X13141Y-48703D01*
X13197Y-48759D01*
X13253Y-48703D01*
X13197Y-48647D01*
X13197Y-48759D01*
X13928Y-49828D02*
X13816Y-49772D01*
X13759Y-49659D01*
X13759Y-48647D01*
X14547Y-49828D02*
X14434Y-49772D01*
X14378Y-49659D01*
X14378Y-48647D01*
X15897Y-49828D02*
X15897Y-48647D01*
X16290Y-49491D01*
X16684Y-48647D01*
X16684Y-49828D01*
X17753Y-49828D02*
X17753Y-49209D01*
X17696Y-49097D01*
X17584Y-49041D01*
X17359Y-49041D01*
X17246Y-49097D01*
X17753Y-49772D02*
X17640Y-49828D01*
X17359Y-49828D01*
X17246Y-49772D01*
X17190Y-49659D01*
X17190Y-49547D01*
X17246Y-49434D01*
X17359Y-49378D01*
X17640Y-49378D01*
X17753Y-49322D01*
X18315Y-49041D02*
X18315Y-50222D01*
X18315Y-49097D02*
X18428Y-49041D01*
X18652Y-49041D01*
X18765Y-49097D01*
X18821Y-49153D01*
X18877Y-49266D01*
X18877Y-49603D01*
X18821Y-49715D01*
X18765Y-49772D01*
X18652Y-49828D01*
X18428Y-49828D01*
X18315Y-49772D01*
X19384Y-49715D02*
X19440Y-49772D01*
X19384Y-49828D01*
X19327Y-49772D01*
X19384Y-49715D01*
X19384Y-49828D01*
X19384Y-49097D02*
X19440Y-49153D01*
X19384Y-49209D01*
X19327Y-49153D01*
X19384Y-49097D01*
X19384Y-49209D01*
X10019Y-51732D02*
X10216Y-51929D01*
X10216Y-51732D02*
X10019Y-51929D01*
X11510Y-51127D02*
X11622Y-51127D01*
X11735Y-51183D01*
X11791Y-51240D01*
X11847Y-51352D01*
X11903Y-51577D01*
X11903Y-51858D01*
X11847Y-52083D01*
X11791Y-52196D01*
X11735Y-52252D01*
X11622Y-52308D01*
X11510Y-52308D01*
X11397Y-52252D01*
X11341Y-52196D01*
X11285Y-52083D01*
X11228Y-51858D01*
X11228Y-51577D01*
X11285Y-51352D01*
X11341Y-51240D01*
X11397Y-51183D01*
X11510Y-51127D01*
X12410Y-52196D02*
X12466Y-52252D01*
X12410Y-52308D01*
X12353Y-52252D01*
X12410Y-52196D01*
X12410Y-52308D01*
X13534Y-51127D02*
X12972Y-51127D01*
X12916Y-51690D01*
X12972Y-51633D01*
X13084Y-51577D01*
X13366Y-51577D01*
X13478Y-51633D01*
X13534Y-51690D01*
X13591Y-51802D01*
X13591Y-52083D01*
X13534Y-52196D01*
X13478Y-52252D01*
X13366Y-52308D01*
X13084Y-52308D01*
X12972Y-52252D01*
X12916Y-52196D01*
X14322Y-51127D02*
X14434Y-51127D01*
X14547Y-51183D01*
X14603Y-51240D01*
X14659Y-51352D01*
X14715Y-51577D01*
X14715Y-51858D01*
X14659Y-52083D01*
X14603Y-52196D01*
X14547Y-52252D01*
X14434Y-52308D01*
X14322Y-52308D01*
X14209Y-52252D01*
X14153Y-52196D01*
X14097Y-52083D01*
X14041Y-51858D01*
X14041Y-51577D01*
X14097Y-51352D01*
X14153Y-51240D01*
X14209Y-51183D01*
X14322Y-51127D01*
X15222Y-52308D02*
X15222Y-51521D01*
X15222Y-51633D02*
X15278Y-51577D01*
X15390Y-51521D01*
X15559Y-51521D01*
X15672Y-51577D01*
X15728Y-51690D01*
X15728Y-52308D01*
X15728Y-51690D02*
X15784Y-51577D01*
X15897Y-51521D01*
X16065Y-51521D01*
X16178Y-51577D01*
X16234Y-51690D01*
X16234Y-52308D01*
X16796Y-52308D02*
X16796Y-51521D01*
X16796Y-51633D02*
X16853Y-51577D01*
X16965Y-51521D01*
X17134Y-51521D01*
X17246Y-51577D01*
X17303Y-51690D01*
X17303Y-52308D01*
X17303Y-51690D02*
X17359Y-51577D01*
X17471Y-51521D01*
X17640Y-51521D01*
X17753Y-51577D01*
X17809Y-51690D01*
X17809Y-52308D01*
X20115Y-51071D02*
X19102Y-52589D01*
X21633Y-51127D02*
X21746Y-51127D01*
X21858Y-51183D01*
X21915Y-51240D01*
X21971Y-51352D01*
X22027Y-51577D01*
X22027Y-51858D01*
X21971Y-52083D01*
X21915Y-52196D01*
X21858Y-52252D01*
X21746Y-52308D01*
X21633Y-52308D01*
X21521Y-52252D01*
X21465Y-52196D01*
X21408Y-52083D01*
X21352Y-51858D01*
X21352Y-51577D01*
X21408Y-51352D01*
X21465Y-51240D01*
X21521Y-51183D01*
X21633Y-51127D01*
X22533Y-52196D02*
X22589Y-52252D01*
X22533Y-52308D01*
X22477Y-52252D01*
X22533Y-52196D01*
X22533Y-52308D01*
X23321Y-51127D02*
X23433Y-51127D01*
X23546Y-51183D01*
X23602Y-51240D01*
X23658Y-51352D01*
X23714Y-51577D01*
X23714Y-51858D01*
X23658Y-52083D01*
X23602Y-52196D01*
X23546Y-52252D01*
X23433Y-52308D01*
X23321Y-52308D01*
X23208Y-52252D01*
X23152Y-52196D01*
X23096Y-52083D01*
X23039Y-51858D01*
X23039Y-51577D01*
X23096Y-51352D01*
X23152Y-51240D01*
X23208Y-51183D01*
X23321Y-51127D01*
X24164Y-51240D02*
X24221Y-51183D01*
X24333Y-51127D01*
X24614Y-51127D01*
X24727Y-51183D01*
X24783Y-51240D01*
X24839Y-51352D01*
X24839Y-51465D01*
X24783Y-51633D01*
X24108Y-52308D01*
X24839Y-52308D01*
X25570Y-51127D02*
X25683Y-51127D01*
X25795Y-51183D01*
X25852Y-51240D01*
X25908Y-51352D01*
X25964Y-51577D01*
X25964Y-51858D01*
X25908Y-52083D01*
X25852Y-52196D01*
X25795Y-52252D01*
X25683Y-52308D01*
X25570Y-52308D01*
X25458Y-52252D01*
X25402Y-52196D01*
X25345Y-52083D01*
X25289Y-51858D01*
X25289Y-51577D01*
X25345Y-51352D01*
X25402Y-51240D01*
X25458Y-51183D01*
X25570Y-51127D01*
X26414Y-51127D02*
X26414Y-51352D01*
X26864Y-51127D02*
X26864Y-51352D01*
X28607Y-52758D02*
X28551Y-52702D01*
X28439Y-52533D01*
X28383Y-52421D01*
X28326Y-52252D01*
X28270Y-51971D01*
X28270Y-51746D01*
X28326Y-51465D01*
X28383Y-51296D01*
X28439Y-51183D01*
X28551Y-51015D01*
X28607Y-50958D01*
X29564Y-51127D02*
X29339Y-51127D01*
X29226Y-51183D01*
X29170Y-51240D01*
X29057Y-51408D01*
X29001Y-51633D01*
X29001Y-52083D01*
X29057Y-52196D01*
X29114Y-52252D01*
X29226Y-52308D01*
X29451Y-52308D01*
X29564Y-52252D01*
X29620Y-52196D01*
X29676Y-52083D01*
X29676Y-51802D01*
X29620Y-51690D01*
X29564Y-51633D01*
X29451Y-51577D01*
X29226Y-51577D01*
X29114Y-51633D01*
X29057Y-51690D01*
X29001Y-51802D01*
X30801Y-52308D02*
X30126Y-52308D01*
X30464Y-52308D02*
X30464Y-51127D01*
X30351Y-51296D01*
X30239Y-51408D01*
X30126Y-51465D01*
X32207Y-52308D02*
X32207Y-51127D01*
X32713Y-52308D02*
X32713Y-51690D01*
X32657Y-51577D01*
X32544Y-51521D01*
X32376Y-51521D01*
X32263Y-51577D01*
X32207Y-51633D01*
X33444Y-52308D02*
X33332Y-52252D01*
X33276Y-52196D01*
X33219Y-52083D01*
X33219Y-51746D01*
X33276Y-51633D01*
X33332Y-51577D01*
X33444Y-51521D01*
X33613Y-51521D01*
X33726Y-51577D01*
X33782Y-51633D01*
X33838Y-51746D01*
X33838Y-52083D01*
X33782Y-52196D01*
X33726Y-52252D01*
X33613Y-52308D01*
X33444Y-52308D01*
X34513Y-52308D02*
X34401Y-52252D01*
X34344Y-52140D01*
X34344Y-51127D01*
X35413Y-52252D02*
X35300Y-52308D01*
X35075Y-52308D01*
X34963Y-52252D01*
X34907Y-52140D01*
X34907Y-51690D01*
X34963Y-51577D01*
X35075Y-51521D01*
X35300Y-51521D01*
X35413Y-51577D01*
X35469Y-51690D01*
X35469Y-51802D01*
X34907Y-51915D01*
X35919Y-52252D02*
X36032Y-52308D01*
X36257Y-52308D01*
X36369Y-52252D01*
X36425Y-52140D01*
X36425Y-52083D01*
X36369Y-51971D01*
X36257Y-51915D01*
X36088Y-51915D01*
X35975Y-51858D01*
X35919Y-51746D01*
X35919Y-51690D01*
X35975Y-51577D01*
X36088Y-51521D01*
X36257Y-51521D01*
X36369Y-51577D01*
X36819Y-52758D02*
X36875Y-52702D01*
X36988Y-52533D01*
X37044Y-52421D01*
X37100Y-52252D01*
X37156Y-51971D01*
X37156Y-51746D01*
X37100Y-51465D01*
X37044Y-51296D01*
X36988Y-51183D01*
X36875Y-51015D01*
X36819Y-50958D01*
G54D13*
X10216Y-53389D02*
G75*
G03X10216Y-53389I-125J0D01*
G74*
G01*
G54D11*
X11510Y-52686D02*
X11622Y-52686D01*
X11735Y-52742D01*
X11791Y-52799D01*
X11847Y-52911D01*
X11903Y-53136D01*
X11903Y-53417D01*
X11847Y-53642D01*
X11791Y-53755D01*
X11735Y-53811D01*
X11622Y-53867D01*
X11510Y-53867D01*
X11397Y-53811D01*
X11341Y-53755D01*
X11285Y-53642D01*
X11228Y-53417D01*
X11228Y-53136D01*
X11285Y-52911D01*
X11341Y-52799D01*
X11397Y-52742D01*
X11510Y-52686D01*
X12410Y-53755D02*
X12466Y-53811D01*
X12410Y-53867D01*
X12353Y-53811D01*
X12410Y-53755D01*
X12410Y-53867D01*
X13478Y-52686D02*
X13253Y-52686D01*
X13141Y-52742D01*
X13084Y-52799D01*
X12972Y-52967D01*
X12916Y-53192D01*
X12916Y-53642D01*
X12972Y-53755D01*
X13028Y-53811D01*
X13141Y-53867D01*
X13366Y-53867D01*
X13478Y-53811D01*
X13534Y-53755D01*
X13591Y-53642D01*
X13591Y-53361D01*
X13534Y-53249D01*
X13478Y-53192D01*
X13366Y-53136D01*
X13141Y-53136D01*
X13028Y-53192D01*
X12972Y-53249D01*
X12916Y-53361D01*
X14603Y-53080D02*
X14603Y-53867D01*
X14322Y-52630D02*
X14041Y-53474D01*
X14772Y-53474D01*
X15222Y-53867D02*
X15222Y-53080D01*
X15222Y-53192D02*
X15278Y-53136D01*
X15390Y-53080D01*
X15559Y-53080D01*
X15672Y-53136D01*
X15728Y-53249D01*
X15728Y-53867D01*
X15728Y-53249D02*
X15784Y-53136D01*
X15897Y-53080D01*
X16065Y-53080D01*
X16178Y-53136D01*
X16234Y-53249D01*
X16234Y-53867D01*
X16796Y-53867D02*
X16796Y-53080D01*
X16796Y-53192D02*
X16853Y-53136D01*
X16965Y-53080D01*
X17134Y-53080D01*
X17246Y-53136D01*
X17303Y-53249D01*
X17303Y-53867D01*
X17303Y-53249D02*
X17359Y-53136D01*
X17471Y-53080D01*
X17640Y-53080D01*
X17753Y-53136D01*
X17809Y-53249D01*
X17809Y-53867D01*
X20115Y-52630D02*
X19102Y-54149D01*
X21633Y-52686D02*
X21746Y-52686D01*
X21858Y-52742D01*
X21915Y-52799D01*
X21971Y-52911D01*
X22027Y-53136D01*
X22027Y-53417D01*
X21971Y-53642D01*
X21915Y-53755D01*
X21858Y-53811D01*
X21746Y-53867D01*
X21633Y-53867D01*
X21521Y-53811D01*
X21465Y-53755D01*
X21408Y-53642D01*
X21352Y-53417D01*
X21352Y-53136D01*
X21408Y-52911D01*
X21465Y-52799D01*
X21521Y-52742D01*
X21633Y-52686D01*
X22533Y-53755D02*
X22589Y-53811D01*
X22533Y-53867D01*
X22477Y-53811D01*
X22533Y-53755D01*
X22533Y-53867D01*
X23321Y-52686D02*
X23433Y-52686D01*
X23546Y-52742D01*
X23602Y-52799D01*
X23658Y-52911D01*
X23714Y-53136D01*
X23714Y-53417D01*
X23658Y-53642D01*
X23602Y-53755D01*
X23546Y-53811D01*
X23433Y-53867D01*
X23321Y-53867D01*
X23208Y-53811D01*
X23152Y-53755D01*
X23096Y-53642D01*
X23039Y-53417D01*
X23039Y-53136D01*
X23096Y-52911D01*
X23152Y-52799D01*
X23208Y-52742D01*
X23321Y-52686D01*
X24164Y-52799D02*
X24221Y-52742D01*
X24333Y-52686D01*
X24614Y-52686D01*
X24727Y-52742D01*
X24783Y-52799D01*
X24839Y-52911D01*
X24839Y-53024D01*
X24783Y-53192D01*
X24108Y-53867D01*
X24839Y-53867D01*
X25908Y-52686D02*
X25345Y-52686D01*
X25289Y-53249D01*
X25345Y-53192D01*
X25458Y-53136D01*
X25739Y-53136D01*
X25852Y-53192D01*
X25908Y-53249D01*
X25964Y-53361D01*
X25964Y-53642D01*
X25908Y-53755D01*
X25852Y-53811D01*
X25739Y-53867D01*
X25458Y-53867D01*
X25345Y-53811D01*
X25289Y-53755D01*
X26414Y-52686D02*
X26414Y-52911D01*
X26864Y-52686D02*
X26864Y-52911D01*
X28607Y-54317D02*
X28551Y-54261D01*
X28439Y-54092D01*
X28383Y-53980D01*
X28326Y-53811D01*
X28270Y-53530D01*
X28270Y-53305D01*
X28326Y-53024D01*
X28383Y-52855D01*
X28439Y-52742D01*
X28551Y-52574D01*
X28607Y-52517D01*
X29001Y-52799D02*
X29057Y-52742D01*
X29170Y-52686D01*
X29451Y-52686D01*
X29564Y-52742D01*
X29620Y-52799D01*
X29676Y-52911D01*
X29676Y-53024D01*
X29620Y-53192D01*
X28945Y-53867D01*
X29676Y-53867D01*
X30126Y-52799D02*
X30182Y-52742D01*
X30295Y-52686D01*
X30576Y-52686D01*
X30688Y-52742D01*
X30745Y-52799D01*
X30801Y-52911D01*
X30801Y-53024D01*
X30745Y-53192D01*
X30070Y-53867D01*
X30801Y-53867D01*
X32207Y-53867D02*
X32207Y-52686D01*
X32713Y-53867D02*
X32713Y-53249D01*
X32657Y-53136D01*
X32544Y-53080D01*
X32376Y-53080D01*
X32263Y-53136D01*
X32207Y-53192D01*
X33444Y-53867D02*
X33332Y-53811D01*
X33276Y-53755D01*
X33219Y-53642D01*
X33219Y-53305D01*
X33276Y-53192D01*
X33332Y-53136D01*
X33444Y-53080D01*
X33613Y-53080D01*
X33726Y-53136D01*
X33782Y-53192D01*
X33838Y-53305D01*
X33838Y-53642D01*
X33782Y-53755D01*
X33726Y-53811D01*
X33613Y-53867D01*
X33444Y-53867D01*
X34513Y-53867D02*
X34401Y-53811D01*
X34344Y-53699D01*
X34344Y-52686D01*
X35413Y-53811D02*
X35300Y-53867D01*
X35075Y-53867D01*
X34963Y-53811D01*
X34907Y-53699D01*
X34907Y-53249D01*
X34963Y-53136D01*
X35075Y-53080D01*
X35300Y-53080D01*
X35413Y-53136D01*
X35469Y-53249D01*
X35469Y-53361D01*
X34907Y-53474D01*
X35919Y-53811D02*
X36032Y-53867D01*
X36257Y-53867D01*
X36369Y-53811D01*
X36425Y-53699D01*
X36425Y-53642D01*
X36369Y-53530D01*
X36257Y-53474D01*
X36088Y-53474D01*
X35975Y-53417D01*
X35919Y-53305D01*
X35919Y-53249D01*
X35975Y-53136D01*
X36088Y-53080D01*
X36257Y-53080D01*
X36369Y-53136D01*
X36819Y-54317D02*
X36875Y-54261D01*
X36988Y-54092D01*
X37044Y-53980D01*
X37100Y-53811D01*
X37156Y-53530D01*
X37156Y-53305D01*
X37100Y-53024D01*
X37044Y-52855D01*
X36988Y-52742D01*
X36875Y-52574D01*
X36819Y-52517D01*
X10056Y-54788D02*
X10056Y-55108D01*
X9896Y-54948D02*
X10216Y-54948D01*
X11510Y-54245D02*
X11622Y-54245D01*
X11735Y-54302D01*
X11791Y-54358D01*
X11847Y-54470D01*
X11903Y-54695D01*
X11903Y-54976D01*
X11847Y-55201D01*
X11791Y-55314D01*
X11735Y-55370D01*
X11622Y-55426D01*
X11510Y-55426D01*
X11397Y-55370D01*
X11341Y-55314D01*
X11285Y-55201D01*
X11228Y-54976D01*
X11228Y-54695D01*
X11285Y-54470D01*
X11341Y-54358D01*
X11397Y-54302D01*
X11510Y-54245D01*
X12410Y-55314D02*
X12466Y-55370D01*
X12410Y-55426D01*
X12353Y-55370D01*
X12410Y-55314D01*
X12410Y-55426D01*
X13141Y-54751D02*
X13028Y-54695D01*
X12972Y-54639D01*
X12916Y-54526D01*
X12916Y-54470D01*
X12972Y-54358D01*
X13028Y-54302D01*
X13141Y-54245D01*
X13366Y-54245D01*
X13478Y-54302D01*
X13534Y-54358D01*
X13591Y-54470D01*
X13591Y-54526D01*
X13534Y-54639D01*
X13478Y-54695D01*
X13366Y-54751D01*
X13141Y-54751D01*
X13028Y-54808D01*
X12972Y-54864D01*
X12916Y-54976D01*
X12916Y-55201D01*
X12972Y-55314D01*
X13028Y-55370D01*
X13141Y-55426D01*
X13366Y-55426D01*
X13478Y-55370D01*
X13534Y-55314D01*
X13591Y-55201D01*
X13591Y-54976D01*
X13534Y-54864D01*
X13478Y-54808D01*
X13366Y-54751D01*
X14715Y-55426D02*
X14041Y-55426D01*
X14378Y-55426D02*
X14378Y-54245D01*
X14266Y-54414D01*
X14153Y-54526D01*
X14041Y-54583D01*
X15222Y-55426D02*
X15222Y-54639D01*
X15222Y-54751D02*
X15278Y-54695D01*
X15390Y-54639D01*
X15559Y-54639D01*
X15672Y-54695D01*
X15728Y-54808D01*
X15728Y-55426D01*
X15728Y-54808D02*
X15784Y-54695D01*
X15897Y-54639D01*
X16065Y-54639D01*
X16178Y-54695D01*
X16234Y-54808D01*
X16234Y-55426D01*
X16796Y-55426D02*
X16796Y-54639D01*
X16796Y-54751D02*
X16853Y-54695D01*
X16965Y-54639D01*
X17134Y-54639D01*
X17246Y-54695D01*
X17303Y-54808D01*
X17303Y-55426D01*
X17303Y-54808D02*
X17359Y-54695D01*
X17471Y-54639D01*
X17640Y-54639D01*
X17753Y-54695D01*
X17809Y-54808D01*
X17809Y-55426D01*
X20115Y-54189D02*
X19102Y-55708D01*
X21633Y-54245D02*
X21746Y-54245D01*
X21858Y-54302D01*
X21915Y-54358D01*
X21971Y-54470D01*
X22027Y-54695D01*
X22027Y-54976D01*
X21971Y-55201D01*
X21915Y-55314D01*
X21858Y-55370D01*
X21746Y-55426D01*
X21633Y-55426D01*
X21521Y-55370D01*
X21465Y-55314D01*
X21408Y-55201D01*
X21352Y-54976D01*
X21352Y-54695D01*
X21408Y-54470D01*
X21465Y-54358D01*
X21521Y-54302D01*
X21633Y-54245D01*
X22533Y-55314D02*
X22589Y-55370D01*
X22533Y-55426D01*
X22477Y-55370D01*
X22533Y-55314D01*
X22533Y-55426D01*
X23321Y-54245D02*
X23433Y-54245D01*
X23546Y-54302D01*
X23602Y-54358D01*
X23658Y-54470D01*
X23714Y-54695D01*
X23714Y-54976D01*
X23658Y-55201D01*
X23602Y-55314D01*
X23546Y-55370D01*
X23433Y-55426D01*
X23321Y-55426D01*
X23208Y-55370D01*
X23152Y-55314D01*
X23096Y-55201D01*
X23039Y-54976D01*
X23039Y-54695D01*
X23096Y-54470D01*
X23152Y-54358D01*
X23208Y-54302D01*
X23321Y-54245D01*
X24108Y-54245D02*
X24839Y-54245D01*
X24446Y-54695D01*
X24614Y-54695D01*
X24727Y-54751D01*
X24783Y-54808D01*
X24839Y-54920D01*
X24839Y-55201D01*
X24783Y-55314D01*
X24727Y-55370D01*
X24614Y-55426D01*
X24277Y-55426D01*
X24164Y-55370D01*
X24108Y-55314D01*
X25289Y-54358D02*
X25345Y-54302D01*
X25458Y-54245D01*
X25739Y-54245D01*
X25852Y-54302D01*
X25908Y-54358D01*
X25964Y-54470D01*
X25964Y-54583D01*
X25908Y-54751D01*
X25233Y-55426D01*
X25964Y-55426D01*
X26414Y-54245D02*
X26414Y-54470D01*
X26864Y-54245D02*
X26864Y-54470D01*
X28607Y-55876D02*
X28551Y-55820D01*
X28439Y-55651D01*
X28383Y-55539D01*
X28326Y-55370D01*
X28270Y-55089D01*
X28270Y-54864D01*
X28326Y-54583D01*
X28383Y-54414D01*
X28439Y-54302D01*
X28551Y-54133D01*
X28607Y-54077D01*
X29001Y-54358D02*
X29057Y-54302D01*
X29170Y-54245D01*
X29451Y-54245D01*
X29564Y-54302D01*
X29620Y-54358D01*
X29676Y-54470D01*
X29676Y-54583D01*
X29620Y-54751D01*
X28945Y-55426D01*
X29676Y-55426D01*
X30407Y-54245D02*
X30520Y-54245D01*
X30632Y-54302D01*
X30688Y-54358D01*
X30745Y-54470D01*
X30801Y-54695D01*
X30801Y-54976D01*
X30745Y-55201D01*
X30688Y-55314D01*
X30632Y-55370D01*
X30520Y-55426D01*
X30407Y-55426D01*
X30295Y-55370D01*
X30239Y-55314D01*
X30182Y-55201D01*
X30126Y-54976D01*
X30126Y-54695D01*
X30182Y-54470D01*
X30239Y-54358D01*
X30295Y-54302D01*
X30407Y-54245D01*
X32207Y-55426D02*
X32207Y-54245D01*
X32713Y-55426D02*
X32713Y-54808D01*
X32657Y-54695D01*
X32544Y-54639D01*
X32376Y-54639D01*
X32263Y-54695D01*
X32207Y-54751D01*
X33444Y-55426D02*
X33332Y-55370D01*
X33276Y-55314D01*
X33219Y-55201D01*
X33219Y-54864D01*
X33276Y-54751D01*
X33332Y-54695D01*
X33444Y-54639D01*
X33613Y-54639D01*
X33726Y-54695D01*
X33782Y-54751D01*
X33838Y-54864D01*
X33838Y-55201D01*
X33782Y-55314D01*
X33726Y-55370D01*
X33613Y-55426D01*
X33444Y-55426D01*
X34513Y-55426D02*
X34401Y-55370D01*
X34344Y-55258D01*
X34344Y-54245D01*
X35413Y-55370D02*
X35300Y-55426D01*
X35075Y-55426D01*
X34963Y-55370D01*
X34907Y-55258D01*
X34907Y-54808D01*
X34963Y-54695D01*
X35075Y-54639D01*
X35300Y-54639D01*
X35413Y-54695D01*
X35469Y-54808D01*
X35469Y-54920D01*
X34907Y-55033D01*
X35919Y-55370D02*
X36032Y-55426D01*
X36257Y-55426D01*
X36369Y-55370D01*
X36425Y-55258D01*
X36425Y-55201D01*
X36369Y-55089D01*
X36257Y-55033D01*
X36088Y-55033D01*
X35975Y-54976D01*
X35919Y-54864D01*
X35919Y-54808D01*
X35975Y-54695D01*
X36088Y-54639D01*
X36257Y-54639D01*
X36369Y-54695D01*
X36819Y-55876D02*
X36875Y-55820D01*
X36988Y-55651D01*
X37044Y-55539D01*
X37100Y-55370D01*
X37156Y-55089D01*
X37156Y-54864D01*
X37100Y-54583D01*
X37044Y-54414D01*
X36988Y-54302D01*
X36875Y-54133D01*
X36819Y-54077D01*
G54D13*
X10164Y-56633D02*
X10164Y-56382D01*
X9914Y-56382D01*
X9914Y-56633D01*
X10164Y-56633D01*
G54D11*
X11510Y-55804D02*
X11622Y-55804D01*
X11735Y-55861D01*
X11791Y-55917D01*
X11847Y-56029D01*
X11903Y-56254D01*
X11903Y-56535D01*
X11847Y-56760D01*
X11791Y-56873D01*
X11735Y-56929D01*
X11622Y-56985D01*
X11510Y-56985D01*
X11397Y-56929D01*
X11341Y-56873D01*
X11285Y-56760D01*
X11228Y-56535D01*
X11228Y-56254D01*
X11285Y-56029D01*
X11341Y-55917D01*
X11397Y-55861D01*
X11510Y-55804D01*
X12410Y-56873D02*
X12466Y-56929D01*
X12410Y-56985D01*
X12353Y-56929D01*
X12410Y-56873D01*
X12410Y-56985D01*
X13028Y-56985D02*
X13253Y-56985D01*
X13366Y-56929D01*
X13422Y-56873D01*
X13534Y-56704D01*
X13591Y-56479D01*
X13591Y-56029D01*
X13534Y-55917D01*
X13478Y-55861D01*
X13366Y-55804D01*
X13141Y-55804D01*
X13028Y-55861D01*
X12972Y-55917D01*
X12916Y-56029D01*
X12916Y-56311D01*
X12972Y-56423D01*
X13028Y-56479D01*
X13141Y-56535D01*
X13366Y-56535D01*
X13478Y-56479D01*
X13534Y-56423D01*
X13591Y-56311D01*
X14322Y-55804D02*
X14434Y-55804D01*
X14547Y-55861D01*
X14603Y-55917D01*
X14659Y-56029D01*
X14715Y-56254D01*
X14715Y-56535D01*
X14659Y-56760D01*
X14603Y-56873D01*
X14547Y-56929D01*
X14434Y-56985D01*
X14322Y-56985D01*
X14209Y-56929D01*
X14153Y-56873D01*
X14097Y-56760D01*
X14041Y-56535D01*
X14041Y-56254D01*
X14097Y-56029D01*
X14153Y-55917D01*
X14209Y-55861D01*
X14322Y-55804D01*
X15222Y-56985D02*
X15222Y-56198D01*
X15222Y-56311D02*
X15278Y-56254D01*
X15390Y-56198D01*
X15559Y-56198D01*
X15672Y-56254D01*
X15728Y-56367D01*
X15728Y-56985D01*
X15728Y-56367D02*
X15784Y-56254D01*
X15897Y-56198D01*
X16065Y-56198D01*
X16178Y-56254D01*
X16234Y-56367D01*
X16234Y-56985D01*
X16796Y-56985D02*
X16796Y-56198D01*
X16796Y-56311D02*
X16853Y-56254D01*
X16965Y-56198D01*
X17134Y-56198D01*
X17246Y-56254D01*
X17303Y-56367D01*
X17303Y-56985D01*
X17303Y-56367D02*
X17359Y-56254D01*
X17471Y-56198D01*
X17640Y-56198D01*
X17753Y-56254D01*
X17809Y-56367D01*
X17809Y-56985D01*
X20115Y-55748D02*
X19102Y-57267D01*
X21633Y-55804D02*
X21746Y-55804D01*
X21858Y-55861D01*
X21915Y-55917D01*
X21971Y-56029D01*
X22027Y-56254D01*
X22027Y-56535D01*
X21971Y-56760D01*
X21915Y-56873D01*
X21858Y-56929D01*
X21746Y-56985D01*
X21633Y-56985D01*
X21521Y-56929D01*
X21465Y-56873D01*
X21408Y-56760D01*
X21352Y-56535D01*
X21352Y-56254D01*
X21408Y-56029D01*
X21465Y-55917D01*
X21521Y-55861D01*
X21633Y-55804D01*
X22533Y-56873D02*
X22589Y-56929D01*
X22533Y-56985D01*
X22477Y-56929D01*
X22533Y-56873D01*
X22533Y-56985D01*
X23321Y-55804D02*
X23433Y-55804D01*
X23546Y-55861D01*
X23602Y-55917D01*
X23658Y-56029D01*
X23714Y-56254D01*
X23714Y-56535D01*
X23658Y-56760D01*
X23602Y-56873D01*
X23546Y-56929D01*
X23433Y-56985D01*
X23321Y-56985D01*
X23208Y-56929D01*
X23152Y-56873D01*
X23096Y-56760D01*
X23039Y-56535D01*
X23039Y-56254D01*
X23096Y-56029D01*
X23152Y-55917D01*
X23208Y-55861D01*
X23321Y-55804D01*
X24108Y-55804D02*
X24839Y-55804D01*
X24446Y-56254D01*
X24614Y-56254D01*
X24727Y-56311D01*
X24783Y-56367D01*
X24839Y-56479D01*
X24839Y-56760D01*
X24783Y-56873D01*
X24727Y-56929D01*
X24614Y-56985D01*
X24277Y-56985D01*
X24164Y-56929D01*
X24108Y-56873D01*
X25908Y-55804D02*
X25345Y-55804D01*
X25289Y-56367D01*
X25345Y-56311D01*
X25458Y-56254D01*
X25739Y-56254D01*
X25852Y-56311D01*
X25908Y-56367D01*
X25964Y-56479D01*
X25964Y-56760D01*
X25908Y-56873D01*
X25852Y-56929D01*
X25739Y-56985D01*
X25458Y-56985D01*
X25345Y-56929D01*
X25289Y-56873D01*
X26414Y-55804D02*
X26414Y-56029D01*
X26864Y-55804D02*
X26864Y-56029D01*
X28607Y-57435D02*
X28551Y-57379D01*
X28439Y-57210D01*
X28383Y-57098D01*
X28326Y-56929D01*
X28270Y-56648D01*
X28270Y-56423D01*
X28326Y-56142D01*
X28383Y-55973D01*
X28439Y-55861D01*
X28551Y-55692D01*
X28607Y-55636D01*
X29564Y-56198D02*
X29564Y-56985D01*
X29282Y-55748D02*
X29001Y-56592D01*
X29732Y-56592D01*
X30351Y-56311D02*
X30239Y-56254D01*
X30182Y-56198D01*
X30126Y-56086D01*
X30126Y-56029D01*
X30182Y-55917D01*
X30239Y-55861D01*
X30351Y-55804D01*
X30576Y-55804D01*
X30688Y-55861D01*
X30745Y-55917D01*
X30801Y-56029D01*
X30801Y-56086D01*
X30745Y-56198D01*
X30688Y-56254D01*
X30576Y-56311D01*
X30351Y-56311D01*
X30239Y-56367D01*
X30182Y-56423D01*
X30126Y-56535D01*
X30126Y-56760D01*
X30182Y-56873D01*
X30239Y-56929D01*
X30351Y-56985D01*
X30576Y-56985D01*
X30688Y-56929D01*
X30745Y-56873D01*
X30801Y-56760D01*
X30801Y-56535D01*
X30745Y-56423D01*
X30688Y-56367D01*
X30576Y-56311D01*
X32207Y-56985D02*
X32207Y-55804D01*
X32713Y-56985D02*
X32713Y-56367D01*
X32657Y-56254D01*
X32544Y-56198D01*
X32376Y-56198D01*
X32263Y-56254D01*
X32207Y-56311D01*
X33444Y-56985D02*
X33332Y-56929D01*
X33276Y-56873D01*
X33219Y-56760D01*
X33219Y-56423D01*
X33276Y-56311D01*
X33332Y-56254D01*
X33444Y-56198D01*
X33613Y-56198D01*
X33726Y-56254D01*
X33782Y-56311D01*
X33838Y-56423D01*
X33838Y-56760D01*
X33782Y-56873D01*
X33726Y-56929D01*
X33613Y-56985D01*
X33444Y-56985D01*
X34513Y-56985D02*
X34401Y-56929D01*
X34344Y-56817D01*
X34344Y-55804D01*
X35413Y-56929D02*
X35300Y-56985D01*
X35075Y-56985D01*
X34963Y-56929D01*
X34907Y-56817D01*
X34907Y-56367D01*
X34963Y-56254D01*
X35075Y-56198D01*
X35300Y-56198D01*
X35413Y-56254D01*
X35469Y-56367D01*
X35469Y-56479D01*
X34907Y-56592D01*
X35919Y-56929D02*
X36032Y-56985D01*
X36257Y-56985D01*
X36369Y-56929D01*
X36425Y-56817D01*
X36425Y-56760D01*
X36369Y-56648D01*
X36257Y-56592D01*
X36088Y-56592D01*
X35975Y-56535D01*
X35919Y-56423D01*
X35919Y-56367D01*
X35975Y-56254D01*
X36088Y-56198D01*
X36257Y-56198D01*
X36369Y-56254D01*
X36819Y-57435D02*
X36875Y-57379D01*
X36988Y-57210D01*
X37044Y-57098D01*
X37100Y-56929D01*
X37156Y-56648D01*
X37156Y-56423D01*
X37100Y-56142D01*
X37044Y-55973D01*
X36988Y-55861D01*
X36875Y-55692D01*
X36819Y-55636D01*
G54D13*
X9901Y-58381D02*
X10216Y-58066D01*
X9901Y-57751D01*
X9586Y-58066D01*
X9901Y-58381D01*
G54D11*
X11903Y-58544D02*
X11228Y-58544D01*
X11566Y-58544D02*
X11566Y-57363D01*
X11453Y-57532D01*
X11341Y-57645D01*
X11228Y-57701D01*
X12410Y-58432D02*
X12466Y-58488D01*
X12410Y-58544D01*
X12353Y-58488D01*
X12410Y-58432D01*
X12410Y-58544D01*
X13478Y-57363D02*
X13253Y-57363D01*
X13141Y-57420D01*
X13084Y-57476D01*
X12972Y-57645D01*
X12916Y-57870D01*
X12916Y-58320D01*
X12972Y-58432D01*
X13028Y-58488D01*
X13141Y-58544D01*
X13366Y-58544D01*
X13478Y-58488D01*
X13534Y-58432D01*
X13591Y-58320D01*
X13591Y-58038D01*
X13534Y-57926D01*
X13478Y-57870D01*
X13366Y-57813D01*
X13141Y-57813D01*
X13028Y-57870D01*
X12972Y-57926D01*
X12916Y-58038D01*
X14322Y-57363D02*
X14434Y-57363D01*
X14547Y-57420D01*
X14603Y-57476D01*
X14659Y-57588D01*
X14715Y-57813D01*
X14715Y-58095D01*
X14659Y-58320D01*
X14603Y-58432D01*
X14547Y-58488D01*
X14434Y-58544D01*
X14322Y-58544D01*
X14209Y-58488D01*
X14153Y-58432D01*
X14097Y-58320D01*
X14041Y-58095D01*
X14041Y-57813D01*
X14097Y-57588D01*
X14153Y-57476D01*
X14209Y-57420D01*
X14322Y-57363D01*
X15222Y-58544D02*
X15222Y-57757D01*
X15222Y-57870D02*
X15278Y-57813D01*
X15390Y-57757D01*
X15559Y-57757D01*
X15672Y-57813D01*
X15728Y-57926D01*
X15728Y-58544D01*
X15728Y-57926D02*
X15784Y-57813D01*
X15897Y-57757D01*
X16065Y-57757D01*
X16178Y-57813D01*
X16234Y-57926D01*
X16234Y-58544D01*
X16796Y-58544D02*
X16796Y-57757D01*
X16796Y-57870D02*
X16853Y-57813D01*
X16965Y-57757D01*
X17134Y-57757D01*
X17246Y-57813D01*
X17303Y-57926D01*
X17303Y-58544D01*
X17303Y-57926D02*
X17359Y-57813D01*
X17471Y-57757D01*
X17640Y-57757D01*
X17753Y-57813D01*
X17809Y-57926D01*
X17809Y-58544D01*
X20115Y-57307D02*
X19102Y-58826D01*
X21633Y-57363D02*
X21746Y-57363D01*
X21858Y-57420D01*
X21915Y-57476D01*
X21971Y-57588D01*
X22027Y-57813D01*
X22027Y-58095D01*
X21971Y-58320D01*
X21915Y-58432D01*
X21858Y-58488D01*
X21746Y-58544D01*
X21633Y-58544D01*
X21521Y-58488D01*
X21465Y-58432D01*
X21408Y-58320D01*
X21352Y-58095D01*
X21352Y-57813D01*
X21408Y-57588D01*
X21465Y-57476D01*
X21521Y-57420D01*
X21633Y-57363D01*
X22533Y-58432D02*
X22589Y-58488D01*
X22533Y-58544D01*
X22477Y-58488D01*
X22533Y-58432D01*
X22533Y-58544D01*
X23321Y-57363D02*
X23433Y-57363D01*
X23546Y-57420D01*
X23602Y-57476D01*
X23658Y-57588D01*
X23714Y-57813D01*
X23714Y-58095D01*
X23658Y-58320D01*
X23602Y-58432D01*
X23546Y-58488D01*
X23433Y-58544D01*
X23321Y-58544D01*
X23208Y-58488D01*
X23152Y-58432D01*
X23096Y-58320D01*
X23039Y-58095D01*
X23039Y-57813D01*
X23096Y-57588D01*
X23152Y-57476D01*
X23208Y-57420D01*
X23321Y-57363D01*
X24727Y-57363D02*
X24502Y-57363D01*
X24389Y-57420D01*
X24333Y-57476D01*
X24221Y-57645D01*
X24164Y-57870D01*
X24164Y-58320D01*
X24221Y-58432D01*
X24277Y-58488D01*
X24389Y-58544D01*
X24614Y-58544D01*
X24727Y-58488D01*
X24783Y-58432D01*
X24839Y-58320D01*
X24839Y-58038D01*
X24783Y-57926D01*
X24727Y-57870D01*
X24614Y-57813D01*
X24389Y-57813D01*
X24277Y-57870D01*
X24221Y-57926D01*
X24164Y-58038D01*
X25233Y-57363D02*
X25964Y-57363D01*
X25570Y-57813D01*
X25739Y-57813D01*
X25852Y-57870D01*
X25908Y-57926D01*
X25964Y-58038D01*
X25964Y-58320D01*
X25908Y-58432D01*
X25852Y-58488D01*
X25739Y-58544D01*
X25402Y-58544D01*
X25289Y-58488D01*
X25233Y-58432D01*
X26414Y-57363D02*
X26414Y-57588D01*
X26864Y-57363D02*
X26864Y-57588D01*
X28607Y-58994D02*
X28551Y-58938D01*
X28439Y-58769D01*
X28383Y-58657D01*
X28326Y-58488D01*
X28270Y-58207D01*
X28270Y-57982D01*
X28326Y-57701D01*
X28383Y-57532D01*
X28439Y-57420D01*
X28551Y-57251D01*
X28607Y-57195D01*
X29676Y-58544D02*
X29001Y-58544D01*
X29339Y-58544D02*
X29339Y-57363D01*
X29226Y-57532D01*
X29114Y-57645D01*
X29001Y-57701D01*
X30126Y-57476D02*
X30182Y-57420D01*
X30295Y-57363D01*
X30576Y-57363D01*
X30688Y-57420D01*
X30745Y-57476D01*
X30801Y-57588D01*
X30801Y-57701D01*
X30745Y-57870D01*
X30070Y-58544D01*
X30801Y-58544D01*
X32207Y-58544D02*
X32207Y-57363D01*
X32713Y-58544D02*
X32713Y-57926D01*
X32657Y-57813D01*
X32544Y-57757D01*
X32376Y-57757D01*
X32263Y-57813D01*
X32207Y-57870D01*
X33444Y-58544D02*
X33332Y-58488D01*
X33276Y-58432D01*
X33219Y-58320D01*
X33219Y-57982D01*
X33276Y-57870D01*
X33332Y-57813D01*
X33444Y-57757D01*
X33613Y-57757D01*
X33726Y-57813D01*
X33782Y-57870D01*
X33838Y-57982D01*
X33838Y-58320D01*
X33782Y-58432D01*
X33726Y-58488D01*
X33613Y-58544D01*
X33444Y-58544D01*
X34513Y-58544D02*
X34401Y-58488D01*
X34344Y-58376D01*
X34344Y-57363D01*
X35413Y-58488D02*
X35300Y-58544D01*
X35075Y-58544D01*
X34963Y-58488D01*
X34907Y-58376D01*
X34907Y-57926D01*
X34963Y-57813D01*
X35075Y-57757D01*
X35300Y-57757D01*
X35413Y-57813D01*
X35469Y-57926D01*
X35469Y-58038D01*
X34907Y-58151D01*
X35919Y-58488D02*
X36032Y-58544D01*
X36257Y-58544D01*
X36369Y-58488D01*
X36425Y-58376D01*
X36425Y-58320D01*
X36369Y-58207D01*
X36257Y-58151D01*
X36088Y-58151D01*
X35975Y-58095D01*
X35919Y-57982D01*
X35919Y-57926D01*
X35975Y-57813D01*
X36088Y-57757D01*
X36257Y-57757D01*
X36369Y-57813D01*
X36819Y-58994D02*
X36875Y-58938D01*
X36988Y-58769D01*
X37044Y-58657D01*
X37100Y-58488D01*
X37156Y-58207D01*
X37156Y-57982D01*
X37100Y-57701D01*
X37044Y-57532D01*
X36988Y-57420D01*
X36875Y-57251D01*
X36819Y-57195D01*
M02*
