G04 (created by PCBNEW (2013-07-07 BZR 4022)-stable) date 9/18/2013 12:24:05*
%MOIN*%
G04 Gerber Fmt 3.4, Leading zero omitted, Abs format*
%FSLAX34Y34*%
G01*
G70*
G90*
G04 APERTURE LIST*
%ADD10C,0.00590551*%
%ADD11C,0.011811*%
%ADD12R,0.033474X0.019674*%
%ADD13R,0.019674X0.033474*%
%ADD14R,0.0598425X0.0348425*%
%ADD15R,0.0348425X0.0598425*%
%ADD16C,0.246063*%
%ADD17C,0.0758425*%
%ADD18R,0.0648425X0.0448425*%
%ADD19R,0.0548425X0.0348425*%
%ADD20R,0.0348425X0.0548425*%
%ADD21R,0.0354425X0.0216425*%
%ADD22C,0.153543*%
%ADD23C,0.0689425*%
%ADD24C,0.0964567*%
%ADD25R,0.0374425X0.0728425*%
%ADD26R,0.0374425X0.0925425*%
%ADD27R,0.0885425X0.118143*%
G04 APERTURE END LIST*
G54D10*
G54D11*
X51392Y-16228D02*
X51195Y-16228D01*
X51195Y-16538D02*
X51195Y-15947D01*
X51476Y-15947D01*
X51701Y-16482D02*
X51729Y-16510D01*
X51701Y-16538D01*
X51673Y-16510D01*
X51701Y-16482D01*
X51701Y-16538D01*
X52432Y-16538D02*
X52432Y-15947D01*
X52629Y-16369D01*
X52826Y-15947D01*
X52826Y-16538D01*
X53360Y-16538D02*
X53360Y-16228D01*
X53332Y-16172D01*
X53276Y-16144D01*
X53163Y-16144D01*
X53107Y-16172D01*
X53360Y-16510D02*
X53304Y-16538D01*
X53163Y-16538D01*
X53107Y-16510D01*
X53079Y-16453D01*
X53079Y-16397D01*
X53107Y-16341D01*
X53163Y-16313D01*
X53304Y-16313D01*
X53360Y-16285D01*
X53613Y-16510D02*
X53669Y-16538D01*
X53782Y-16538D01*
X53838Y-16510D01*
X53866Y-16453D01*
X53866Y-16425D01*
X53838Y-16369D01*
X53782Y-16341D01*
X53697Y-16341D01*
X53641Y-16313D01*
X53613Y-16257D01*
X53613Y-16228D01*
X53641Y-16172D01*
X53697Y-16144D01*
X53782Y-16144D01*
X53838Y-16172D01*
X54119Y-16538D02*
X54119Y-15947D01*
X54176Y-16313D02*
X54344Y-16538D01*
X54344Y-16144D02*
X54119Y-16369D01*
G54D12*
X21425Y-39075D03*
X21425Y-39272D03*
X21425Y-39469D03*
X21425Y-39666D03*
X21878Y-39666D03*
X21878Y-39469D03*
X21878Y-39272D03*
X21878Y-39075D03*
X19322Y-28444D03*
X19322Y-28247D03*
X19322Y-28050D03*
X19322Y-27853D03*
X18869Y-27853D03*
X18869Y-28050D03*
X18869Y-28247D03*
X18869Y-28444D03*
G54D13*
X29626Y-17353D03*
X29823Y-17353D03*
X30020Y-17353D03*
X30217Y-17353D03*
X30217Y-16900D03*
X30020Y-16900D03*
X29823Y-16900D03*
X29626Y-16900D03*
G54D12*
X42291Y-35925D03*
X42291Y-36122D03*
X42291Y-36319D03*
X42291Y-36516D03*
X42744Y-36516D03*
X42744Y-36319D03*
X42744Y-36122D03*
X42744Y-35925D03*
G54D13*
X21554Y-16701D03*
X21357Y-16701D03*
X21160Y-16701D03*
X20963Y-16701D03*
X20963Y-17154D03*
X21160Y-17154D03*
X21357Y-17154D03*
X21554Y-17154D03*
G54D14*
X22915Y-23643D03*
X22915Y-24143D03*
X22915Y-24643D03*
X22915Y-25143D03*
X22915Y-25643D03*
X22915Y-26143D03*
X22915Y-26643D03*
X22915Y-27143D03*
X25115Y-27143D03*
X25115Y-26643D03*
X25115Y-26143D03*
X25115Y-25643D03*
X25115Y-25143D03*
X25115Y-24643D03*
X25115Y-24143D03*
X25115Y-23643D03*
G54D15*
X36295Y-37320D03*
X36795Y-37320D03*
X37295Y-37320D03*
X37795Y-37320D03*
X38295Y-37320D03*
X38795Y-37320D03*
X39295Y-37320D03*
X39295Y-35120D03*
X38795Y-35120D03*
X38295Y-35120D03*
X37795Y-35120D03*
X37295Y-35120D03*
X36795Y-35120D03*
X36295Y-35120D03*
X32208Y-35120D03*
X31708Y-35120D03*
X31208Y-35120D03*
X30708Y-35120D03*
X30208Y-35120D03*
X29708Y-35120D03*
X29208Y-35120D03*
X29208Y-37320D03*
X29708Y-37320D03*
X30208Y-37320D03*
X30708Y-37320D03*
X31208Y-37320D03*
X31708Y-37320D03*
X32208Y-37320D03*
X35507Y-29446D03*
X36007Y-29446D03*
X36507Y-29446D03*
X37007Y-29446D03*
X37507Y-29446D03*
X38007Y-29446D03*
X38507Y-29446D03*
X38507Y-27246D03*
X38007Y-27246D03*
X37507Y-27246D03*
X37007Y-27246D03*
X36507Y-27246D03*
X36007Y-27246D03*
X35507Y-27246D03*
G54D14*
X28821Y-20350D03*
X28821Y-20850D03*
X28821Y-21350D03*
X28821Y-21850D03*
X28821Y-22350D03*
X28821Y-22850D03*
X28821Y-23350D03*
X31021Y-23350D03*
X31021Y-22850D03*
X31021Y-22350D03*
X31021Y-21850D03*
X31021Y-21350D03*
X31021Y-20850D03*
X31021Y-20350D03*
X31808Y-29846D03*
X31808Y-29346D03*
X31808Y-28846D03*
X31808Y-28346D03*
X31808Y-27846D03*
X31808Y-27346D03*
X31808Y-26846D03*
X29608Y-26846D03*
X29608Y-27346D03*
X29608Y-27846D03*
X29608Y-28346D03*
X29608Y-28846D03*
X29608Y-29346D03*
X29608Y-29846D03*
G54D15*
X35507Y-22950D03*
X36007Y-22950D03*
X36507Y-22950D03*
X37007Y-22950D03*
X37507Y-22950D03*
X38007Y-22950D03*
X38507Y-22950D03*
X38507Y-20750D03*
X38007Y-20750D03*
X37507Y-20750D03*
X37007Y-20750D03*
X36507Y-20750D03*
X36007Y-20750D03*
X35507Y-20750D03*
G54D16*
X12204Y-10629D03*
X47637Y-10629D03*
X47637Y-46062D03*
X12204Y-46062D03*
G54D13*
X40452Y-13945D03*
X40255Y-13945D03*
X40058Y-13945D03*
X39861Y-13945D03*
X39861Y-14398D03*
X40058Y-14398D03*
X40255Y-14398D03*
X40452Y-14398D03*
G54D12*
X20047Y-32500D03*
X20047Y-32697D03*
X20047Y-32894D03*
X20047Y-33091D03*
X20500Y-33091D03*
X20500Y-32894D03*
X20500Y-32697D03*
X20500Y-32500D03*
G54D17*
X44488Y-10129D03*
X44488Y-11129D03*
X41732Y-10129D03*
X41732Y-11129D03*
X38779Y-10129D03*
X38779Y-11129D03*
X35826Y-10129D03*
X35826Y-11129D03*
G54D15*
X22068Y-35942D03*
X22568Y-35942D03*
X23068Y-35942D03*
X23568Y-35942D03*
X24068Y-35942D03*
X24568Y-35942D03*
X25068Y-35942D03*
X25568Y-35942D03*
X25568Y-33742D03*
X25068Y-33742D03*
X24568Y-33742D03*
X24068Y-33742D03*
X23568Y-33742D03*
X23068Y-33742D03*
X22568Y-33742D03*
X22068Y-33742D03*
G54D17*
X11901Y-42519D03*
X12901Y-42519D03*
X11901Y-39566D03*
X12901Y-39566D03*
X11901Y-36614D03*
X12901Y-36614D03*
X11901Y-33661D03*
X12901Y-33661D03*
G54D18*
X15551Y-21044D03*
X15551Y-20294D03*
X19881Y-20294D03*
X19881Y-21044D03*
G54D17*
X15944Y-10129D03*
X15944Y-11129D03*
G54D19*
X14763Y-12504D03*
X14763Y-11904D03*
G54D20*
X13095Y-20669D03*
X12495Y-20669D03*
G54D17*
X12901Y-22736D03*
X11901Y-22736D03*
G54D21*
X39929Y-30413D03*
X39929Y-30610D03*
X39929Y-30807D03*
X39929Y-31004D03*
X40382Y-31004D03*
X40382Y-30807D03*
X40382Y-30610D03*
X40382Y-30413D03*
G54D22*
X47244Y-25846D03*
X47244Y-30846D03*
G54D23*
X46244Y-26940D03*
X45543Y-27342D03*
X46244Y-27744D03*
X45543Y-28145D03*
X46244Y-28547D03*
X45543Y-28948D03*
X46244Y-29350D03*
X45543Y-29751D03*
G54D24*
X45893Y-25145D03*
X45893Y-31547D03*
G54D22*
X12598Y-30846D03*
X12598Y-25846D03*
G54D23*
X13598Y-29751D03*
X14299Y-29350D03*
X13598Y-28948D03*
X14299Y-28547D03*
X13598Y-28145D03*
X14299Y-27744D03*
X13598Y-27342D03*
X14299Y-26940D03*
G54D24*
X13948Y-31547D03*
X13948Y-25145D03*
G54D22*
X27421Y-11023D03*
X32421Y-11023D03*
G54D23*
X28515Y-12023D03*
X28917Y-12724D03*
X29318Y-12023D03*
X29720Y-12724D03*
X30122Y-12023D03*
X30523Y-12724D03*
X30925Y-12023D03*
X31326Y-12724D03*
G54D24*
X26720Y-12374D03*
X33122Y-12374D03*
G54D22*
X18759Y-11023D03*
X23759Y-11023D03*
G54D23*
X19854Y-12023D03*
X20255Y-12724D03*
X20657Y-12023D03*
X21059Y-12724D03*
X21460Y-12023D03*
X21862Y-12724D03*
X22263Y-12023D03*
X22665Y-12724D03*
G54D24*
X18059Y-12374D03*
X24460Y-12374D03*
G54D22*
X37145Y-45669D03*
X32145Y-45669D03*
G54D23*
X36051Y-44669D03*
X35649Y-43968D03*
X35248Y-44669D03*
X34846Y-43968D03*
X34444Y-44669D03*
X34043Y-43968D03*
X33641Y-44669D03*
X33240Y-43968D03*
G54D24*
X37846Y-44318D03*
X31444Y-44318D03*
G54D22*
X27696Y-45669D03*
X22696Y-45669D03*
G54D23*
X26602Y-44669D03*
X26200Y-43968D03*
X25799Y-44669D03*
X25397Y-43968D03*
X24996Y-44669D03*
X24594Y-43968D03*
X24192Y-44669D03*
X23791Y-43968D03*
G54D24*
X28397Y-44318D03*
X21996Y-44318D03*
G54D25*
X18307Y-21456D03*
G54D26*
X17716Y-21554D03*
G54D25*
X17125Y-21456D03*
G54D27*
X17716Y-22499D03*
M02*
