G04 (created by PCBNEW (2013-07-07 BZR 4022)-stable) date 9/18/2013 12:24:05*
%MOIN*%
G04 Gerber Fmt 3.4, Leading zero omitted, Abs format*
%FSLAX34Y34*%
G01*
G70*
G90*
G04 APERTURE LIST*
%ADD10C,0.00590551*%
%ADD11C,0.011811*%
%ADD12C,0.00393701*%
G04 APERTURE END LIST*
G54D10*
G54D11*
X51197Y-18197D02*
X51394Y-18197D01*
X51479Y-18506D02*
X51197Y-18506D01*
X51197Y-17916D01*
X51479Y-17916D01*
X51985Y-18506D02*
X51985Y-17916D01*
X51985Y-18478D02*
X51929Y-18506D01*
X51816Y-18506D01*
X51760Y-18478D01*
X51732Y-18450D01*
X51704Y-18394D01*
X51704Y-18225D01*
X51732Y-18169D01*
X51760Y-18141D01*
X51816Y-18113D01*
X51929Y-18113D01*
X51985Y-18141D01*
X52519Y-18113D02*
X52519Y-18591D01*
X52491Y-18647D01*
X52463Y-18675D01*
X52407Y-18703D01*
X52322Y-18703D01*
X52266Y-18675D01*
X52519Y-18478D02*
X52463Y-18506D01*
X52350Y-18506D01*
X52294Y-18478D01*
X52266Y-18450D01*
X52238Y-18394D01*
X52238Y-18225D01*
X52266Y-18169D01*
X52294Y-18141D01*
X52350Y-18113D01*
X52463Y-18113D01*
X52519Y-18141D01*
X53025Y-18478D02*
X52969Y-18506D01*
X52857Y-18506D01*
X52800Y-18478D01*
X52772Y-18422D01*
X52772Y-18197D01*
X52800Y-18141D01*
X52857Y-18113D01*
X52969Y-18113D01*
X53025Y-18141D01*
X53053Y-18197D01*
X53053Y-18253D01*
X52772Y-18309D01*
X54094Y-18450D02*
X54066Y-18478D01*
X53982Y-18506D01*
X53925Y-18506D01*
X53841Y-18478D01*
X53785Y-18422D01*
X53757Y-18366D01*
X53728Y-18253D01*
X53728Y-18169D01*
X53757Y-18056D01*
X53785Y-18000D01*
X53841Y-17944D01*
X53925Y-17916D01*
X53982Y-17916D01*
X54066Y-17944D01*
X54094Y-17972D01*
X54600Y-18113D02*
X54600Y-18506D01*
X54347Y-18113D02*
X54347Y-18422D01*
X54375Y-18478D01*
X54431Y-18506D01*
X54516Y-18506D01*
X54572Y-18478D01*
X54600Y-18450D01*
X54797Y-18113D02*
X55022Y-18113D01*
X54881Y-17916D02*
X54881Y-18422D01*
X54910Y-18478D01*
X54966Y-18506D01*
X55022Y-18506D01*
X55191Y-18478D02*
X55247Y-18506D01*
X55359Y-18506D01*
X55416Y-18478D01*
X55444Y-18422D01*
X55444Y-18394D01*
X55416Y-18338D01*
X55359Y-18309D01*
X55275Y-18309D01*
X55219Y-18281D01*
X55191Y-18225D01*
X55191Y-18197D01*
X55219Y-18141D01*
X55275Y-18113D01*
X55359Y-18113D01*
X55416Y-18141D01*
G54D12*
X10236Y-48031D02*
X10236Y-8661D01*
X49606Y-48031D02*
X10236Y-48031D01*
X49606Y-8661D02*
X49606Y-48031D01*
X10236Y-8661D02*
X49606Y-8661D01*
M02*
