G04 (created by PCBNEW (2013-07-07 BZR 4022)-stable) date 9/18/2013 12:44:27*
%MOIN*%
G04 Gerber Fmt 3.4, Leading zero omitted, Abs format*
%FSLAX34Y34*%
G01*
G70*
G90*
G04 APERTURE LIST*
%ADD10C,0.00590551*%
%ADD11C,0.153543*%
%ADD12C,0.0689425*%
%ADD13C,0.108268*%
%ADD14C,0.0758425*%
%ADD15C,0.246063*%
G04 APERTURE END LIST*
G54D10*
G54D11*
X26515Y-44881D03*
X21515Y-44881D03*
G54D12*
X25421Y-43881D03*
X25019Y-43181D03*
X24618Y-43881D03*
X24216Y-43181D03*
X23814Y-43881D03*
X23413Y-43181D03*
X23011Y-43881D03*
X22610Y-43181D03*
G54D13*
X27216Y-43531D03*
X20814Y-43531D03*
G54D11*
X45669Y-25059D03*
X45669Y-30059D03*
G54D12*
X44669Y-26153D03*
X43968Y-26555D03*
X44669Y-26956D03*
X43968Y-27358D03*
X44669Y-27759D03*
X43968Y-28161D03*
X44669Y-28562D03*
X43968Y-28964D03*
G54D13*
X44318Y-24358D03*
X44318Y-30759D03*
G54D11*
X11023Y-30059D03*
X11023Y-25059D03*
G54D12*
X12023Y-28964D03*
X12724Y-28562D03*
X12023Y-28161D03*
X12724Y-27759D03*
X12023Y-27358D03*
X12724Y-26956D03*
X12023Y-26555D03*
X12724Y-26153D03*
G54D13*
X12374Y-30759D03*
X12374Y-24358D03*
G54D11*
X25846Y-10236D03*
X30846Y-10236D03*
G54D12*
X26940Y-11236D03*
X27342Y-11937D03*
X27744Y-11236D03*
X28145Y-11937D03*
X28547Y-11236D03*
X28948Y-11937D03*
X29350Y-11236D03*
X29751Y-11937D03*
G54D13*
X25145Y-11586D03*
X31547Y-11586D03*
G54D11*
X35177Y-44881D03*
X30177Y-44881D03*
G54D12*
X34082Y-43881D03*
X33681Y-43181D03*
X33279Y-43881D03*
X32877Y-43181D03*
X32476Y-43881D03*
X32074Y-43181D03*
X31673Y-43881D03*
X31271Y-43181D03*
G54D13*
X35877Y-43531D03*
X29476Y-43531D03*
G54D14*
X33858Y-10342D03*
X33858Y-9342D03*
X37007Y-10342D03*
X37007Y-9342D03*
X40157Y-10342D03*
X40157Y-9342D03*
X43307Y-10342D03*
X43307Y-9342D03*
G54D15*
X10629Y-9842D03*
X46062Y-9842D03*
X46062Y-45275D03*
X10629Y-45275D03*
G54D14*
X10129Y-32677D03*
X11129Y-32677D03*
X10129Y-35629D03*
X11129Y-35629D03*
X10129Y-38582D03*
X11129Y-38582D03*
X10129Y-41535D03*
X11129Y-41535D03*
M02*
