G04 (created by PCBNEW (2013-07-07 BZR 4022)-stable) date 9/18/2013 12:44:27*
%MOIN*%
G04 Gerber Fmt 3.4, Leading zero omitted, Abs format*
%FSLAX34Y34*%
G01*
G70*
G90*
G04 APERTURE LIST*
%ADD10C,0.00590551*%
%ADD11R,0.05X0.025*%
%ADD12R,0.025X0.05*%
%ADD13R,0.0256X0.0118*%
%ADD14R,0.0118X0.0256*%
%ADD15R,0.055X0.035*%
%ADD16R,0.0276X0.063*%
%ADD17R,0.0276X0.0827*%
%ADD18R,0.0787X0.1083*%
G04 APERTURE END LIST*
G54D10*
G54D11*
X24096Y-20100D03*
X24096Y-20600D03*
X24096Y-21100D03*
X24096Y-21600D03*
X24096Y-22100D03*
X24096Y-22600D03*
X24096Y-23100D03*
X24096Y-23600D03*
X26296Y-23600D03*
X26296Y-23100D03*
X26296Y-22600D03*
X26296Y-22100D03*
X26296Y-21600D03*
X26296Y-21100D03*
X26296Y-20600D03*
X26296Y-20100D03*
X30592Y-20100D03*
X30592Y-20600D03*
X30592Y-21100D03*
X30592Y-21600D03*
X30592Y-22100D03*
X30592Y-22600D03*
X30592Y-23100D03*
X30592Y-23600D03*
X32792Y-23600D03*
X32792Y-23100D03*
X32792Y-22600D03*
X32792Y-22100D03*
X32792Y-21600D03*
X32792Y-21100D03*
X32792Y-20600D03*
X32792Y-20100D03*
G54D12*
X35311Y-35548D03*
X35811Y-35548D03*
X36311Y-35548D03*
X36811Y-35548D03*
X37311Y-35548D03*
X37811Y-35548D03*
X38311Y-35548D03*
X38311Y-33348D03*
X37811Y-33348D03*
X37311Y-33348D03*
X36811Y-33348D03*
X36311Y-33348D03*
X35811Y-33348D03*
X35311Y-33348D03*
X17988Y-30430D03*
X18488Y-30430D03*
X18988Y-30430D03*
X19488Y-30430D03*
X19988Y-30430D03*
X20488Y-30430D03*
X20988Y-30430D03*
X20988Y-28230D03*
X20488Y-28230D03*
X19988Y-28230D03*
X19488Y-28230D03*
X18988Y-28230D03*
X18488Y-28230D03*
X17988Y-28230D03*
X20988Y-33348D03*
X20488Y-33348D03*
X19988Y-33348D03*
X19488Y-33348D03*
X18988Y-33348D03*
X18488Y-33348D03*
X17988Y-33348D03*
X17988Y-35548D03*
X18488Y-35548D03*
X18988Y-35548D03*
X19488Y-35548D03*
X19988Y-35548D03*
X20488Y-35548D03*
X20988Y-35548D03*
X35311Y-30430D03*
X35811Y-30430D03*
X36311Y-30430D03*
X36811Y-30430D03*
X37311Y-30430D03*
X37811Y-30430D03*
X38311Y-30430D03*
X38311Y-28230D03*
X37811Y-28230D03*
X37311Y-28230D03*
X36811Y-28230D03*
X36311Y-28230D03*
X35811Y-28230D03*
X35311Y-28230D03*
G54D13*
X18535Y-41830D03*
X18535Y-41633D03*
X18535Y-41436D03*
X18535Y-41239D03*
X18082Y-41239D03*
X18082Y-41436D03*
X18082Y-41633D03*
X18082Y-41830D03*
X18535Y-40452D03*
X18535Y-40255D03*
X18535Y-40058D03*
X18535Y-39861D03*
X18082Y-39861D03*
X18082Y-40058D03*
X18082Y-40255D03*
X18082Y-40452D03*
G54D14*
X38090Y-14991D03*
X38287Y-14991D03*
X38484Y-14991D03*
X38681Y-14991D03*
X38681Y-14538D03*
X38484Y-14538D03*
X38287Y-14538D03*
X38090Y-14538D03*
X28051Y-16566D03*
X28248Y-16566D03*
X28445Y-16566D03*
X28642Y-16566D03*
X28642Y-16113D03*
X28445Y-16113D03*
X28248Y-16113D03*
X28051Y-16113D03*
X14468Y-42550D03*
X14665Y-42550D03*
X14862Y-42550D03*
X15059Y-42550D03*
X15059Y-42097D03*
X14862Y-42097D03*
X14665Y-42097D03*
X14468Y-42097D03*
G54D11*
X14648Y-35651D03*
X14648Y-36151D03*
X14648Y-36651D03*
X14648Y-37151D03*
X14648Y-37651D03*
X14648Y-38151D03*
X14648Y-38651D03*
X14648Y-39151D03*
X16848Y-39151D03*
X16848Y-38651D03*
X16848Y-38151D03*
X16848Y-37651D03*
X16848Y-37151D03*
X16848Y-36651D03*
X16848Y-36151D03*
X16848Y-35651D03*
G54D15*
X14370Y-17500D03*
X14370Y-16750D03*
X19094Y-17500D03*
X19094Y-16750D03*
G54D14*
X28287Y-24991D03*
X28484Y-24991D03*
X28681Y-24991D03*
X28878Y-24991D03*
X28878Y-24538D03*
X28681Y-24538D03*
X28484Y-24538D03*
X28287Y-24538D03*
G54D16*
X17205Y-17480D03*
G54D17*
X16614Y-17578D03*
G54D16*
X16023Y-17480D03*
G54D18*
X16614Y-18523D03*
M02*
