G04 (created by PCBNEW (2013-07-07 BZR 4022)-stable) date 9/18/2013 12:44:48*
%MOIN*%
G04 Gerber Fmt 3.4, Leading zero omitted, Abs format*
%FSLAX34Y34*%
G01*
G70*
G90*
G04 APERTURE LIST*
%ADD10C,0.005*%
%ADD11C,0.00393701*%
%ADD12C,0.00787402*%
%ADD13C,0.011811*%
G04 APERTURE END LIST*
G54D10*
G54D11*
X8661Y-47244D02*
X8661Y-7874D01*
X48031Y-47244D02*
X8661Y-47244D01*
X48031Y-7874D02*
X48031Y-47244D01*
X8661Y-7874D02*
X48031Y-7874D01*
G54D12*
X10039Y-9251D02*
X11220Y-10433D01*
X11220Y-9251D02*
X10039Y-10433D01*
X10039Y-44685D02*
X11220Y-45866D01*
X11220Y-44685D02*
X10039Y-45866D01*
X45472Y-9251D02*
X46653Y-10433D01*
X46653Y-9251D02*
X45472Y-10433D01*
X45472Y-44685D02*
X46653Y-45866D01*
X46653Y-44685D02*
X45472Y-45866D01*
X11663Y-25059D02*
G75*
G03X11663Y-25059I-640J0D01*
G74*
G01*
X11663Y-30059D02*
G75*
G03X11663Y-30059I-640J0D01*
G74*
G01*
X22155Y-44881D02*
G75*
G03X22155Y-44881I-640J0D01*
G74*
G01*
X26486Y-10236D02*
G75*
G03X26486Y-10236I-640J0D01*
G74*
G01*
X27155Y-44881D02*
G75*
G03X27155Y-44881I-640J0D01*
G74*
G01*
X30817Y-44881D02*
G75*
G03X30817Y-44881I-640J0D01*
G74*
G01*
X31486Y-10236D02*
G75*
G03X31486Y-10236I-640J0D01*
G74*
G01*
X35817Y-44881D02*
G75*
G03X35817Y-44881I-640J0D01*
G74*
G01*
X46309Y-25059D02*
G75*
G03X46309Y-25059I-640J0D01*
G74*
G01*
X46309Y-30059D02*
G75*
G03X46309Y-30059I-640J0D01*
G74*
G01*
G54D13*
X9710Y-49041D02*
X9710Y-47859D01*
X9991Y-47859D01*
X10160Y-47916D01*
X10272Y-48028D01*
X10329Y-48141D01*
X10385Y-48366D01*
X10385Y-48534D01*
X10329Y-48759D01*
X10272Y-48872D01*
X10160Y-48984D01*
X9991Y-49041D01*
X9710Y-49041D01*
X10891Y-49041D02*
X10891Y-48253D01*
X10891Y-48478D02*
X10947Y-48366D01*
X11003Y-48309D01*
X11116Y-48253D01*
X11228Y-48253D01*
X11622Y-49041D02*
X11622Y-48253D01*
X11622Y-47859D02*
X11566Y-47916D01*
X11622Y-47972D01*
X11678Y-47916D01*
X11622Y-47859D01*
X11622Y-47972D01*
X12353Y-49041D02*
X12241Y-48984D01*
X12185Y-48872D01*
X12185Y-47859D01*
X12972Y-49041D02*
X12859Y-48984D01*
X12803Y-48872D01*
X12803Y-47859D01*
X14322Y-49041D02*
X14322Y-47859D01*
X14715Y-48703D01*
X15109Y-47859D01*
X15109Y-49041D01*
X16178Y-49041D02*
X16178Y-48422D01*
X16122Y-48309D01*
X16009Y-48253D01*
X15784Y-48253D01*
X15672Y-48309D01*
X16178Y-48984D02*
X16065Y-49041D01*
X15784Y-49041D01*
X15672Y-48984D01*
X15615Y-48872D01*
X15615Y-48759D01*
X15672Y-48647D01*
X15784Y-48591D01*
X16065Y-48591D01*
X16178Y-48534D01*
X16740Y-48253D02*
X16740Y-49434D01*
X16740Y-48309D02*
X16853Y-48253D01*
X17078Y-48253D01*
X17190Y-48309D01*
X17246Y-48366D01*
X17303Y-48478D01*
X17303Y-48816D01*
X17246Y-48928D01*
X17190Y-48984D01*
X17078Y-49041D01*
X16853Y-49041D01*
X16740Y-48984D01*
X17809Y-48928D02*
X17865Y-48984D01*
X17809Y-49041D01*
X17753Y-48984D01*
X17809Y-48928D01*
X17809Y-49041D01*
X17809Y-48309D02*
X17865Y-48366D01*
X17809Y-48422D01*
X17753Y-48366D01*
X17809Y-48309D01*
X17809Y-48422D01*
X7460Y-50452D02*
X8641Y-51633D01*
X8641Y-50452D02*
X7460Y-51633D01*
X9597Y-50340D02*
X10329Y-50340D01*
X9935Y-50790D01*
X10104Y-50790D01*
X10216Y-50846D01*
X10272Y-50902D01*
X10329Y-51015D01*
X10329Y-51296D01*
X10272Y-51408D01*
X10216Y-51465D01*
X10104Y-51521D01*
X9766Y-51521D01*
X9654Y-51465D01*
X9597Y-51408D01*
X10835Y-51408D02*
X10891Y-51465D01*
X10835Y-51521D01*
X10778Y-51465D01*
X10835Y-51408D01*
X10835Y-51521D01*
X11622Y-50340D02*
X11735Y-50340D01*
X11847Y-50396D01*
X11903Y-50452D01*
X11960Y-50565D01*
X12016Y-50790D01*
X12016Y-51071D01*
X11960Y-51296D01*
X11903Y-51408D01*
X11847Y-51465D01*
X11735Y-51521D01*
X11622Y-51521D01*
X11510Y-51465D01*
X11453Y-51408D01*
X11397Y-51296D01*
X11341Y-51071D01*
X11341Y-50790D01*
X11397Y-50565D01*
X11453Y-50452D01*
X11510Y-50396D01*
X11622Y-50340D01*
X12747Y-50340D02*
X12859Y-50340D01*
X12972Y-50396D01*
X13028Y-50452D01*
X13084Y-50565D01*
X13141Y-50790D01*
X13141Y-51071D01*
X13084Y-51296D01*
X13028Y-51408D01*
X12972Y-51465D01*
X12859Y-51521D01*
X12747Y-51521D01*
X12634Y-51465D01*
X12578Y-51408D01*
X12522Y-51296D01*
X12466Y-51071D01*
X12466Y-50790D01*
X12522Y-50565D01*
X12578Y-50452D01*
X12634Y-50396D01*
X12747Y-50340D01*
X13647Y-51521D02*
X13647Y-50733D01*
X13647Y-50846D02*
X13703Y-50790D01*
X13816Y-50733D01*
X13984Y-50733D01*
X14097Y-50790D01*
X14153Y-50902D01*
X14153Y-51521D01*
X14153Y-50902D02*
X14209Y-50790D01*
X14322Y-50733D01*
X14491Y-50733D01*
X14603Y-50790D01*
X14659Y-50902D01*
X14659Y-51521D01*
X15222Y-51521D02*
X15222Y-50733D01*
X15222Y-50846D02*
X15278Y-50790D01*
X15390Y-50733D01*
X15559Y-50733D01*
X15672Y-50790D01*
X15728Y-50902D01*
X15728Y-51521D01*
X15728Y-50902D02*
X15784Y-50790D01*
X15897Y-50733D01*
X16065Y-50733D01*
X16178Y-50790D01*
X16234Y-50902D01*
X16234Y-51521D01*
X18540Y-50284D02*
X17528Y-51802D01*
X20059Y-50340D02*
X20171Y-50340D01*
X20284Y-50396D01*
X20340Y-50452D01*
X20396Y-50565D01*
X20452Y-50790D01*
X20452Y-51071D01*
X20396Y-51296D01*
X20340Y-51408D01*
X20284Y-51465D01*
X20171Y-51521D01*
X20059Y-51521D01*
X19946Y-51465D01*
X19890Y-51408D01*
X19834Y-51296D01*
X19777Y-51071D01*
X19777Y-50790D01*
X19834Y-50565D01*
X19890Y-50452D01*
X19946Y-50396D01*
X20059Y-50340D01*
X20958Y-51408D02*
X21015Y-51465D01*
X20958Y-51521D01*
X20902Y-51465D01*
X20958Y-51408D01*
X20958Y-51521D01*
X22140Y-51521D02*
X21465Y-51521D01*
X21802Y-51521D02*
X21802Y-50340D01*
X21690Y-50508D01*
X21577Y-50621D01*
X21465Y-50677D01*
X23264Y-51521D02*
X22589Y-51521D01*
X22927Y-51521D02*
X22927Y-50340D01*
X22814Y-50508D01*
X22702Y-50621D01*
X22589Y-50677D01*
X23939Y-50846D02*
X23827Y-50790D01*
X23771Y-50733D01*
X23714Y-50621D01*
X23714Y-50565D01*
X23771Y-50452D01*
X23827Y-50396D01*
X23939Y-50340D01*
X24164Y-50340D01*
X24277Y-50396D01*
X24333Y-50452D01*
X24389Y-50565D01*
X24389Y-50621D01*
X24333Y-50733D01*
X24277Y-50790D01*
X24164Y-50846D01*
X23939Y-50846D01*
X23827Y-50902D01*
X23771Y-50958D01*
X23714Y-51071D01*
X23714Y-51296D01*
X23771Y-51408D01*
X23827Y-51465D01*
X23939Y-51521D01*
X24164Y-51521D01*
X24277Y-51465D01*
X24333Y-51408D01*
X24389Y-51296D01*
X24389Y-51071D01*
X24333Y-50958D01*
X24277Y-50902D01*
X24164Y-50846D01*
X24839Y-50340D02*
X24839Y-50565D01*
X25289Y-50340D02*
X25289Y-50565D01*
X27033Y-51971D02*
X26976Y-51915D01*
X26864Y-51746D01*
X26808Y-51633D01*
X26751Y-51465D01*
X26695Y-51183D01*
X26695Y-50958D01*
X26751Y-50677D01*
X26808Y-50508D01*
X26864Y-50396D01*
X26976Y-50227D01*
X27033Y-50171D01*
X27989Y-50733D02*
X27989Y-51521D01*
X27708Y-50284D02*
X27426Y-51127D01*
X28158Y-51127D01*
X29507Y-51521D02*
X29507Y-50340D01*
X30014Y-51521D02*
X30014Y-50902D01*
X29957Y-50790D01*
X29845Y-50733D01*
X29676Y-50733D01*
X29564Y-50790D01*
X29507Y-50846D01*
X30745Y-51521D02*
X30632Y-51465D01*
X30576Y-51408D01*
X30520Y-51296D01*
X30520Y-50958D01*
X30576Y-50846D01*
X30632Y-50790D01*
X30745Y-50733D01*
X30913Y-50733D01*
X31026Y-50790D01*
X31082Y-50846D01*
X31138Y-50958D01*
X31138Y-51296D01*
X31082Y-51408D01*
X31026Y-51465D01*
X30913Y-51521D01*
X30745Y-51521D01*
X31813Y-51521D02*
X31701Y-51465D01*
X31645Y-51352D01*
X31645Y-50340D01*
X32713Y-51465D02*
X32601Y-51521D01*
X32376Y-51521D01*
X32263Y-51465D01*
X32207Y-51352D01*
X32207Y-50902D01*
X32263Y-50790D01*
X32376Y-50733D01*
X32601Y-50733D01*
X32713Y-50790D01*
X32769Y-50902D01*
X32769Y-51015D01*
X32207Y-51127D01*
X33219Y-51465D02*
X33332Y-51521D01*
X33557Y-51521D01*
X33669Y-51465D01*
X33726Y-51352D01*
X33726Y-51296D01*
X33669Y-51183D01*
X33557Y-51127D01*
X33388Y-51127D01*
X33276Y-51071D01*
X33219Y-50958D01*
X33219Y-50902D01*
X33276Y-50790D01*
X33388Y-50733D01*
X33557Y-50733D01*
X33669Y-50790D01*
X34119Y-51971D02*
X34176Y-51915D01*
X34288Y-51746D01*
X34344Y-51633D01*
X34401Y-51465D01*
X34457Y-51183D01*
X34457Y-50958D01*
X34401Y-50677D01*
X34344Y-50508D01*
X34288Y-50396D01*
X34176Y-50227D01*
X34119Y-50171D01*
G54D12*
X8641Y-52736D02*
G75*
G03X8641Y-52736I-640J0D01*
G74*
G01*
G54D13*
X9597Y-52033D02*
X10329Y-52033D01*
X9935Y-52483D01*
X10104Y-52483D01*
X10216Y-52539D01*
X10272Y-52595D01*
X10329Y-52708D01*
X10329Y-52989D01*
X10272Y-53101D01*
X10216Y-53158D01*
X10104Y-53214D01*
X9766Y-53214D01*
X9654Y-53158D01*
X9597Y-53101D01*
X10835Y-53101D02*
X10891Y-53158D01*
X10835Y-53214D01*
X10778Y-53158D01*
X10835Y-53101D01*
X10835Y-53214D01*
X11341Y-52145D02*
X11397Y-52089D01*
X11510Y-52033D01*
X11791Y-52033D01*
X11903Y-52089D01*
X11960Y-52145D01*
X12016Y-52258D01*
X12016Y-52370D01*
X11960Y-52539D01*
X11285Y-53214D01*
X12016Y-53214D01*
X13084Y-52033D02*
X12522Y-52033D01*
X12466Y-52595D01*
X12522Y-52539D01*
X12634Y-52483D01*
X12916Y-52483D01*
X13028Y-52539D01*
X13084Y-52595D01*
X13141Y-52708D01*
X13141Y-52989D01*
X13084Y-53101D01*
X13028Y-53158D01*
X12916Y-53214D01*
X12634Y-53214D01*
X12522Y-53158D01*
X12466Y-53101D01*
X13647Y-53214D02*
X13647Y-52426D01*
X13647Y-52539D02*
X13703Y-52483D01*
X13816Y-52426D01*
X13984Y-52426D01*
X14097Y-52483D01*
X14153Y-52595D01*
X14153Y-53214D01*
X14153Y-52595D02*
X14209Y-52483D01*
X14322Y-52426D01*
X14491Y-52426D01*
X14603Y-52483D01*
X14659Y-52595D01*
X14659Y-53214D01*
X15222Y-53214D02*
X15222Y-52426D01*
X15222Y-52539D02*
X15278Y-52483D01*
X15390Y-52426D01*
X15559Y-52426D01*
X15672Y-52483D01*
X15728Y-52595D01*
X15728Y-53214D01*
X15728Y-52595D02*
X15784Y-52483D01*
X15897Y-52426D01*
X16065Y-52426D01*
X16178Y-52483D01*
X16234Y-52595D01*
X16234Y-53214D01*
X18540Y-51976D02*
X17528Y-53495D01*
X20059Y-52033D02*
X20171Y-52033D01*
X20284Y-52089D01*
X20340Y-52145D01*
X20396Y-52258D01*
X20452Y-52483D01*
X20452Y-52764D01*
X20396Y-52989D01*
X20340Y-53101D01*
X20284Y-53158D01*
X20171Y-53214D01*
X20059Y-53214D01*
X19946Y-53158D01*
X19890Y-53101D01*
X19834Y-52989D01*
X19777Y-52764D01*
X19777Y-52483D01*
X19834Y-52258D01*
X19890Y-52145D01*
X19946Y-52089D01*
X20059Y-52033D01*
X20958Y-53101D02*
X21015Y-53158D01*
X20958Y-53214D01*
X20902Y-53158D01*
X20958Y-53101D01*
X20958Y-53214D01*
X22140Y-53214D02*
X21465Y-53214D01*
X21802Y-53214D02*
X21802Y-52033D01*
X21690Y-52201D01*
X21577Y-52314D01*
X21465Y-52370D01*
X22589Y-52145D02*
X22646Y-52089D01*
X22758Y-52033D01*
X23039Y-52033D01*
X23152Y-52089D01*
X23208Y-52145D01*
X23264Y-52258D01*
X23264Y-52370D01*
X23208Y-52539D01*
X22533Y-53214D01*
X23264Y-53214D01*
X23939Y-52539D02*
X23827Y-52483D01*
X23771Y-52426D01*
X23714Y-52314D01*
X23714Y-52258D01*
X23771Y-52145D01*
X23827Y-52089D01*
X23939Y-52033D01*
X24164Y-52033D01*
X24277Y-52089D01*
X24333Y-52145D01*
X24389Y-52258D01*
X24389Y-52314D01*
X24333Y-52426D01*
X24277Y-52483D01*
X24164Y-52539D01*
X23939Y-52539D01*
X23827Y-52595D01*
X23771Y-52651D01*
X23714Y-52764D01*
X23714Y-52989D01*
X23771Y-53101D01*
X23827Y-53158D01*
X23939Y-53214D01*
X24164Y-53214D01*
X24277Y-53158D01*
X24333Y-53101D01*
X24389Y-52989D01*
X24389Y-52764D01*
X24333Y-52651D01*
X24277Y-52595D01*
X24164Y-52539D01*
X24839Y-52033D02*
X24839Y-52258D01*
X25289Y-52033D02*
X25289Y-52258D01*
X27033Y-53664D02*
X26976Y-53607D01*
X26864Y-53439D01*
X26808Y-53326D01*
X26751Y-53158D01*
X26695Y-52876D01*
X26695Y-52651D01*
X26751Y-52370D01*
X26808Y-52201D01*
X26864Y-52089D01*
X26976Y-51920D01*
X27033Y-51864D01*
X28101Y-53214D02*
X27426Y-53214D01*
X27764Y-53214D02*
X27764Y-52033D01*
X27651Y-52201D01*
X27539Y-52314D01*
X27426Y-52370D01*
X28832Y-52033D02*
X28945Y-52033D01*
X29057Y-52089D01*
X29114Y-52145D01*
X29170Y-52258D01*
X29226Y-52483D01*
X29226Y-52764D01*
X29170Y-52989D01*
X29114Y-53101D01*
X29057Y-53158D01*
X28945Y-53214D01*
X28832Y-53214D01*
X28720Y-53158D01*
X28664Y-53101D01*
X28607Y-52989D01*
X28551Y-52764D01*
X28551Y-52483D01*
X28607Y-52258D01*
X28664Y-52145D01*
X28720Y-52089D01*
X28832Y-52033D01*
X30632Y-53214D02*
X30632Y-52033D01*
X31138Y-53214D02*
X31138Y-52595D01*
X31082Y-52483D01*
X30970Y-52426D01*
X30801Y-52426D01*
X30688Y-52483D01*
X30632Y-52539D01*
X31870Y-53214D02*
X31757Y-53158D01*
X31701Y-53101D01*
X31645Y-52989D01*
X31645Y-52651D01*
X31701Y-52539D01*
X31757Y-52483D01*
X31870Y-52426D01*
X32038Y-52426D01*
X32151Y-52483D01*
X32207Y-52539D01*
X32263Y-52651D01*
X32263Y-52989D01*
X32207Y-53101D01*
X32151Y-53158D01*
X32038Y-53214D01*
X31870Y-53214D01*
X32938Y-53214D02*
X32826Y-53158D01*
X32769Y-53045D01*
X32769Y-52033D01*
X33838Y-53158D02*
X33726Y-53214D01*
X33501Y-53214D01*
X33388Y-53158D01*
X33332Y-53045D01*
X33332Y-52595D01*
X33388Y-52483D01*
X33501Y-52426D01*
X33726Y-52426D01*
X33838Y-52483D01*
X33894Y-52595D01*
X33894Y-52708D01*
X33332Y-52820D01*
X34344Y-53158D02*
X34457Y-53214D01*
X34682Y-53214D01*
X34794Y-53158D01*
X34850Y-53045D01*
X34850Y-52989D01*
X34794Y-52876D01*
X34682Y-52820D01*
X34513Y-52820D01*
X34401Y-52764D01*
X34344Y-52651D01*
X34344Y-52595D01*
X34401Y-52483D01*
X34513Y-52426D01*
X34682Y-52426D01*
X34794Y-52483D01*
X35244Y-53664D02*
X35300Y-53607D01*
X35413Y-53439D01*
X35469Y-53326D01*
X35525Y-53158D01*
X35582Y-52876D01*
X35582Y-52651D01*
X35525Y-52370D01*
X35469Y-52201D01*
X35413Y-52089D01*
X35300Y-51920D01*
X35244Y-51864D01*
M02*
