G04 (created by PCBNEW (2013-07-07 BZR 4022)-stable) date 9/18/2013 12:44:48*
%MOIN*%
G04 Gerber Fmt 3.4, Leading zero omitted, Abs format*
%FSLAX34Y34*%
G01*
G70*
G90*
G04 APERTURE LIST*
%ADD10C,0.005*%
%ADD11C,0.00393701*%
%ADD12C,0.00787402*%
%ADD13C,0.011811*%
G04 APERTURE END LIST*
G54D10*
G54D11*
X8661Y-47244D02*
X8661Y-7874D01*
X48031Y-47244D02*
X8661Y-47244D01*
X48031Y-7874D02*
X48031Y-47244D01*
X8661Y-7874D02*
X48031Y-7874D01*
G54D12*
X13961Y-28796D02*
X14158Y-28993D01*
X14158Y-28796D02*
X13961Y-28993D01*
X15161Y-36061D02*
X15358Y-36258D01*
X15358Y-36061D02*
X15161Y-36258D01*
X15211Y-38036D02*
X15408Y-38233D01*
X15408Y-38036D02*
X15211Y-38233D01*
X15296Y-38496D02*
X15493Y-38693D01*
X15493Y-38496D02*
X15296Y-38693D01*
X15301Y-26051D02*
X15498Y-26248D01*
X15498Y-26051D02*
X15301Y-26248D01*
X15441Y-37621D02*
X15638Y-37818D01*
X15638Y-37621D02*
X15441Y-37818D01*
X15551Y-37051D02*
X15748Y-37248D01*
X15748Y-37051D02*
X15551Y-37248D01*
X15716Y-36546D02*
X15913Y-36743D01*
X15913Y-36546D02*
X15716Y-36743D01*
X17901Y-34901D02*
X18098Y-35098D01*
X18098Y-34901D02*
X17901Y-35098D01*
X18751Y-34301D02*
X18948Y-34498D01*
X18948Y-34301D02*
X18751Y-34498D01*
X18901Y-29801D02*
X19098Y-29998D01*
X19098Y-29801D02*
X18901Y-29998D01*
X19376Y-33826D02*
X19573Y-34023D01*
X19573Y-33826D02*
X19376Y-34023D01*
X19401Y-28701D02*
X19598Y-28898D01*
X19598Y-28701D02*
X19401Y-28898D01*
X19401Y-40701D02*
X19598Y-40898D01*
X19598Y-40701D02*
X19401Y-40898D01*
X19951Y-40401D02*
X20148Y-40598D01*
X20148Y-40401D02*
X19951Y-40598D01*
X20151Y-41101D02*
X20348Y-41298D01*
X20348Y-41101D02*
X20151Y-41298D01*
X20251Y-40101D02*
X20448Y-40298D01*
X20448Y-40101D02*
X20251Y-40298D01*
X20401Y-29801D02*
X20598Y-29998D01*
X20598Y-29801D02*
X20401Y-29998D01*
X20401Y-33801D02*
X20598Y-33998D01*
X20598Y-33801D02*
X20401Y-33998D01*
X20551Y-41401D02*
X20748Y-41598D01*
X20748Y-41401D02*
X20551Y-41598D01*
X20601Y-39801D02*
X20798Y-39998D01*
X20798Y-39801D02*
X20601Y-39998D01*
X20901Y-28651D02*
X21098Y-28848D01*
X21098Y-28651D02*
X20901Y-28848D01*
X21201Y-41701D02*
X21398Y-41898D01*
X21398Y-41701D02*
X21201Y-41898D01*
X22042Y-38401D02*
X22239Y-38598D01*
X22239Y-38401D02*
X22042Y-38598D01*
X23223Y-38401D02*
X23420Y-38598D01*
X23420Y-38401D02*
X23223Y-38598D01*
X23351Y-23001D02*
X23548Y-23198D01*
X23548Y-23001D02*
X23351Y-23198D01*
X24051Y-33111D02*
X24248Y-33308D01*
X24248Y-33111D02*
X24051Y-33308D01*
X24404Y-38401D02*
X24601Y-38598D01*
X24601Y-38401D02*
X24404Y-38598D01*
X24446Y-29446D02*
X24643Y-29643D01*
X24643Y-29446D02*
X24446Y-29643D01*
X24486Y-31316D02*
X24683Y-31513D01*
X24683Y-31316D02*
X24486Y-31513D01*
X24651Y-20601D02*
X24848Y-20798D01*
X24848Y-20601D02*
X24651Y-20798D01*
X24701Y-30501D02*
X24898Y-30698D01*
X24898Y-30501D02*
X24701Y-30698D01*
X24871Y-30901D02*
X25068Y-31098D01*
X25068Y-30901D02*
X24871Y-31098D01*
X25585Y-38401D02*
X25782Y-38598D01*
X25782Y-38401D02*
X25585Y-38598D01*
X25601Y-21051D02*
X25798Y-21248D01*
X25798Y-21051D02*
X25601Y-21248D01*
X25656Y-33576D02*
X25853Y-33773D01*
X25853Y-33576D02*
X25656Y-33773D01*
X25661Y-30931D02*
X25858Y-31128D01*
X25858Y-30931D02*
X25661Y-31128D01*
X26830Y-22500D02*
X27027Y-22696D01*
X27027Y-22500D02*
X26830Y-22696D01*
X26889Y-27814D02*
X27086Y-28011D01*
X27086Y-27814D02*
X26889Y-28011D01*
X26909Y-21043D02*
X27106Y-21240D01*
X27106Y-21043D02*
X26909Y-21240D01*
X26909Y-21948D02*
X27106Y-22145D01*
X27106Y-21948D02*
X26909Y-22145D01*
X27263Y-17751D02*
X27460Y-17948D01*
X27460Y-17751D02*
X27263Y-17948D01*
X27460Y-23110D02*
X27657Y-23307D01*
X27657Y-23110D02*
X27460Y-23307D01*
X27933Y-22519D02*
X28129Y-22716D01*
X28129Y-22519D02*
X27933Y-22716D01*
X28051Y-17801D02*
X28248Y-17998D01*
X28248Y-17801D02*
X28051Y-17998D01*
X28838Y-17751D02*
X29035Y-17948D01*
X29035Y-17751D02*
X28838Y-17948D01*
X29055Y-22716D02*
X29251Y-22913D01*
X29251Y-22716D02*
X29055Y-22913D01*
X29665Y-21200D02*
X29862Y-21397D01*
X29862Y-21200D02*
X29665Y-21397D01*
X29851Y-22301D02*
X30048Y-22498D01*
X30048Y-22301D02*
X29851Y-22498D01*
X29901Y-38651D02*
X30098Y-38848D01*
X30098Y-38651D02*
X29901Y-38848D01*
X30001Y-16251D02*
X30198Y-16448D01*
X30198Y-16251D02*
X30001Y-16448D01*
X30001Y-16751D02*
X30198Y-16948D01*
X30198Y-16751D02*
X30001Y-16948D01*
X30001Y-17251D02*
X30198Y-17448D01*
X30198Y-17251D02*
X30001Y-17448D01*
X30041Y-34331D02*
X30238Y-34528D01*
X30238Y-34331D02*
X30041Y-34528D01*
X30151Y-38251D02*
X30348Y-38448D01*
X30348Y-38251D02*
X30151Y-38448D01*
X30151Y-39051D02*
X30348Y-39248D01*
X30348Y-39051D02*
X30151Y-39248D01*
X30766Y-32571D02*
X30963Y-32768D01*
X30963Y-32571D02*
X30766Y-32768D01*
X30926Y-29156D02*
X31123Y-29353D01*
X31123Y-29156D02*
X30926Y-29353D01*
X31051Y-20501D02*
X31248Y-20698D01*
X31248Y-20501D02*
X31051Y-20698D01*
X31126Y-29931D02*
X31323Y-30128D01*
X31323Y-29931D02*
X31126Y-30128D01*
X31901Y-38251D02*
X32098Y-38448D01*
X32098Y-38251D02*
X31901Y-38448D01*
X31946Y-30196D02*
X32143Y-30393D01*
X32143Y-30196D02*
X31946Y-30393D01*
X32226Y-28881D02*
X32423Y-29078D01*
X32423Y-28881D02*
X32226Y-29078D01*
X32271Y-32551D02*
X32468Y-32748D01*
X32468Y-32551D02*
X32271Y-32748D01*
X32731Y-34461D02*
X32928Y-34658D01*
X32928Y-34461D02*
X32731Y-34658D01*
X33066Y-38601D02*
X33262Y-38798D01*
X33262Y-38601D02*
X33066Y-38798D01*
X33301Y-21001D02*
X33498Y-21198D01*
X33498Y-21001D02*
X33301Y-21198D01*
X33301Y-23501D02*
X33498Y-23698D01*
X33498Y-23501D02*
X33301Y-23698D01*
X34247Y-38601D02*
X34444Y-38798D01*
X34444Y-38601D02*
X34247Y-38798D01*
X34751Y-31601D02*
X34948Y-31798D01*
X34948Y-31601D02*
X34751Y-31798D01*
X35151Y-37101D02*
X35348Y-37298D01*
X35348Y-37101D02*
X35151Y-37298D01*
X35151Y-37501D02*
X35348Y-37698D01*
X35348Y-37501D02*
X35151Y-37698D01*
X35151Y-37951D02*
X35348Y-38148D01*
X35348Y-37951D02*
X35151Y-38148D01*
X35151Y-38351D02*
X35348Y-38548D01*
X35348Y-38351D02*
X35151Y-38548D01*
X35701Y-32101D02*
X35898Y-32298D01*
X35898Y-32101D02*
X35701Y-32298D01*
X35951Y-36051D02*
X36148Y-36248D01*
X36148Y-36051D02*
X35951Y-36248D01*
X36101Y-37951D02*
X36298Y-38148D01*
X36298Y-37951D02*
X36101Y-38148D01*
X36201Y-29751D02*
X36398Y-29948D01*
X36398Y-29751D02*
X36201Y-29948D01*
X36201Y-34926D02*
X36398Y-35123D01*
X36398Y-34926D02*
X36201Y-35123D01*
X36301Y-32001D02*
X36498Y-32198D01*
X36498Y-32001D02*
X36301Y-32198D01*
X36501Y-37451D02*
X36698Y-37648D01*
X36698Y-37451D02*
X36501Y-37648D01*
X36701Y-28676D02*
X36898Y-28873D01*
X36898Y-28676D02*
X36701Y-28873D01*
X36701Y-33776D02*
X36898Y-33973D01*
X36898Y-33776D02*
X36701Y-33973D01*
X36701Y-34901D02*
X36898Y-35098D01*
X36898Y-34901D02*
X36701Y-35098D01*
X36801Y-37101D02*
X36998Y-37298D01*
X36998Y-37101D02*
X36801Y-37298D01*
X37101Y-34326D02*
X37298Y-34523D01*
X37298Y-34326D02*
X37101Y-34523D01*
X37551Y-33901D02*
X37748Y-34098D01*
X37748Y-33901D02*
X37551Y-34098D01*
X37618Y-26358D02*
X37814Y-26555D01*
X37814Y-26358D02*
X37618Y-26555D01*
X37618Y-28779D02*
X37814Y-28976D01*
X37814Y-28779D02*
X37618Y-28976D01*
X37701Y-34951D02*
X37898Y-35148D01*
X37898Y-34951D02*
X37701Y-35148D01*
X38201Y-28726D02*
X38398Y-28923D01*
X38398Y-28726D02*
X38201Y-28923D01*
X40951Y-25401D02*
X41148Y-25598D01*
X41148Y-25401D02*
X40951Y-25598D01*
X11502Y-21102D02*
G75*
G03X11502Y-21102I-125J0D01*
G74*
G01*
X13904Y-18582D02*
G75*
G03X13904Y-18582I-125J0D01*
G74*
G01*
X13904Y-19173D02*
G75*
G03X13904Y-19173I-125J0D01*
G74*
G01*
X14495Y-18582D02*
G75*
G03X14495Y-18582I-125J0D01*
G74*
G01*
X17975Y-42850D02*
G75*
G03X17975Y-42850I-125J0D01*
G74*
G01*
X18200Y-39225D02*
G75*
G03X18200Y-39225I-125J0D01*
G74*
G01*
X20175Y-38050D02*
G75*
G03X20175Y-38050I-125J0D01*
G74*
G01*
X20475Y-36300D02*
G75*
G03X20475Y-36300I-125J0D01*
G74*
G01*
X20775Y-37450D02*
G75*
G03X20775Y-37450I-125J0D01*
G74*
G01*
X21125Y-31250D02*
G75*
G03X21125Y-31250I-125J0D01*
G74*
G01*
X21384Y-20511D02*
G75*
G03X21384Y-20511I-125J0D01*
G74*
G01*
X21975Y-26968D02*
G75*
G03X21975Y-26968I-125J0D01*
G74*
G01*
X23175Y-23650D02*
G75*
G03X23175Y-23650I-125J0D01*
G74*
G01*
X23353Y-18031D02*
G75*
G03X23353Y-18031I-125J0D01*
G74*
G01*
X23747Y-17559D02*
G75*
G03X23747Y-17559I-125J0D01*
G74*
G01*
X24219Y-18031D02*
G75*
G03X24219Y-18031I-125J0D01*
G74*
G01*
X26502Y-35826D02*
G75*
G03X26502Y-35826I-125J0D01*
G74*
G01*
X27093Y-19685D02*
G75*
G03X27093Y-19685I-125J0D01*
G74*
G01*
X29062Y-26968D02*
G75*
G03X29062Y-26968I-125J0D01*
G74*
G01*
X30025Y-23650D02*
G75*
G03X30025Y-23650I-125J0D01*
G74*
G01*
X30125Y-25000D02*
G75*
G03X30125Y-25000I-125J0D01*
G74*
G01*
X32014Y-19685D02*
G75*
G03X32014Y-19685I-125J0D01*
G74*
G01*
X38275Y-34550D02*
G75*
G03X38275Y-34550I-125J0D01*
G74*
G01*
X38425Y-29600D02*
G75*
G03X38425Y-29600I-125J0D01*
G74*
G01*
X10129Y-32517D02*
X10129Y-32837D01*
X9969Y-32677D02*
X10289Y-32677D01*
X10129Y-35469D02*
X10129Y-35789D01*
X9969Y-35629D02*
X10289Y-35629D01*
X10129Y-38422D02*
X10129Y-38742D01*
X9969Y-38582D02*
X10289Y-38582D01*
X10129Y-41375D02*
X10129Y-41695D01*
X9969Y-41535D02*
X10289Y-41535D01*
X11129Y-32517D02*
X11129Y-32837D01*
X10969Y-32677D02*
X11289Y-32677D01*
X11129Y-35469D02*
X11129Y-35789D01*
X10969Y-35629D02*
X11289Y-35629D01*
X11129Y-38422D02*
X11129Y-38742D01*
X10969Y-38582D02*
X11289Y-38582D01*
X11129Y-41375D02*
X11129Y-41695D01*
X10969Y-41535D02*
X11289Y-41535D01*
X33858Y-9182D02*
X33858Y-9502D01*
X33698Y-9342D02*
X34018Y-9342D01*
X33858Y-10182D02*
X33858Y-10502D01*
X33698Y-10342D02*
X34018Y-10342D01*
X37007Y-9182D02*
X37007Y-9502D01*
X36847Y-9342D02*
X37167Y-9342D01*
X37007Y-10182D02*
X37007Y-10502D01*
X36847Y-10342D02*
X37167Y-10342D01*
X40157Y-9182D02*
X40157Y-9502D01*
X39997Y-9342D02*
X40317Y-9342D01*
X40157Y-10182D02*
X40157Y-10502D01*
X39997Y-10342D02*
X40317Y-10342D01*
X43307Y-9182D02*
X43307Y-9502D01*
X43147Y-9342D02*
X43467Y-9342D01*
X43307Y-10182D02*
X43307Y-10502D01*
X43147Y-10342D02*
X43467Y-10342D01*
X12148Y-26680D02*
X12148Y-26429D01*
X11898Y-26429D01*
X11898Y-26680D01*
X12148Y-26680D01*
X12148Y-27483D02*
X12148Y-27233D01*
X11898Y-27233D01*
X11898Y-27483D01*
X12148Y-27483D01*
X12148Y-28286D02*
X12148Y-28036D01*
X11898Y-28036D01*
X11898Y-28286D01*
X12148Y-28286D01*
X12148Y-29089D02*
X12148Y-28839D01*
X11898Y-28839D01*
X11898Y-29089D01*
X12148Y-29089D01*
X12849Y-26278D02*
X12849Y-26028D01*
X12599Y-26028D01*
X12599Y-26278D01*
X12849Y-26278D01*
X12849Y-27081D02*
X12849Y-26831D01*
X12599Y-26831D01*
X12599Y-27081D01*
X12849Y-27081D01*
X12849Y-27885D02*
X12849Y-27634D01*
X12599Y-27634D01*
X12599Y-27885D01*
X12849Y-27885D01*
X12849Y-28688D02*
X12849Y-28437D01*
X12599Y-28437D01*
X12599Y-28688D01*
X12849Y-28688D01*
X22735Y-43306D02*
X22735Y-43055D01*
X22485Y-43055D01*
X22485Y-43306D01*
X22735Y-43306D01*
X23136Y-44007D02*
X23136Y-43756D01*
X22886Y-43756D01*
X22886Y-44007D01*
X23136Y-44007D01*
X23538Y-43306D02*
X23538Y-43055D01*
X23288Y-43055D01*
X23288Y-43306D01*
X23538Y-43306D01*
X23940Y-44007D02*
X23940Y-43756D01*
X23689Y-43756D01*
X23689Y-44007D01*
X23940Y-44007D01*
X24341Y-43306D02*
X24341Y-43055D01*
X24091Y-43055D01*
X24091Y-43306D01*
X24341Y-43306D01*
X24743Y-44007D02*
X24743Y-43756D01*
X24492Y-43756D01*
X24492Y-44007D01*
X24743Y-44007D01*
X25144Y-43306D02*
X25144Y-43055D01*
X24894Y-43055D01*
X24894Y-43306D01*
X25144Y-43306D01*
X25546Y-44007D02*
X25546Y-43756D01*
X25296Y-43756D01*
X25296Y-44007D01*
X25546Y-44007D01*
X27066Y-11361D02*
X27066Y-11111D01*
X26815Y-11111D01*
X26815Y-11361D01*
X27066Y-11361D01*
X27467Y-12062D02*
X27467Y-11811D01*
X27217Y-11811D01*
X27217Y-12062D01*
X27467Y-12062D01*
X27869Y-11361D02*
X27869Y-11111D01*
X27618Y-11111D01*
X27618Y-11361D01*
X27869Y-11361D01*
X28270Y-12062D02*
X28270Y-11811D01*
X28020Y-11811D01*
X28020Y-12062D01*
X28270Y-12062D01*
X28672Y-11361D02*
X28672Y-11111D01*
X28422Y-11111D01*
X28422Y-11361D01*
X28672Y-11361D01*
X29073Y-12062D02*
X29073Y-11811D01*
X28823Y-11811D01*
X28823Y-12062D01*
X29073Y-12062D01*
X29475Y-11361D02*
X29475Y-11111D01*
X29225Y-11111D01*
X29225Y-11361D01*
X29475Y-11361D01*
X29877Y-12062D02*
X29877Y-11811D01*
X29626Y-11811D01*
X29626Y-12062D01*
X29877Y-12062D01*
X31396Y-43306D02*
X31396Y-43055D01*
X31146Y-43055D01*
X31146Y-43306D01*
X31396Y-43306D01*
X31798Y-44007D02*
X31798Y-43756D01*
X31548Y-43756D01*
X31548Y-44007D01*
X31798Y-44007D01*
X32199Y-43306D02*
X32199Y-43055D01*
X31949Y-43055D01*
X31949Y-43306D01*
X32199Y-43306D01*
X32601Y-44007D02*
X32601Y-43756D01*
X32351Y-43756D01*
X32351Y-44007D01*
X32601Y-44007D01*
X33003Y-43306D02*
X33003Y-43055D01*
X32752Y-43055D01*
X32752Y-43306D01*
X33003Y-43306D01*
X33404Y-44007D02*
X33404Y-43756D01*
X33154Y-43756D01*
X33154Y-44007D01*
X33404Y-44007D01*
X33806Y-43306D02*
X33806Y-43055D01*
X33555Y-43055D01*
X33555Y-43306D01*
X33806Y-43306D01*
X34207Y-44007D02*
X34207Y-43756D01*
X33957Y-43756D01*
X33957Y-44007D01*
X34207Y-44007D01*
X44093Y-26680D02*
X44093Y-26429D01*
X43843Y-26429D01*
X43843Y-26680D01*
X44093Y-26680D01*
X44093Y-27483D02*
X44093Y-27233D01*
X43843Y-27233D01*
X43843Y-27483D01*
X44093Y-27483D01*
X44093Y-28286D02*
X44093Y-28036D01*
X43843Y-28036D01*
X43843Y-28286D01*
X44093Y-28286D01*
X44093Y-29089D02*
X44093Y-28839D01*
X43843Y-28839D01*
X43843Y-29089D01*
X44093Y-29089D01*
X44794Y-26278D02*
X44794Y-26028D01*
X44544Y-26028D01*
X44544Y-26278D01*
X44794Y-26278D01*
X44794Y-27081D02*
X44794Y-26831D01*
X44544Y-26831D01*
X44544Y-27081D01*
X44794Y-27081D01*
X44794Y-27885D02*
X44794Y-27634D01*
X44544Y-27634D01*
X44544Y-27885D01*
X44794Y-27885D01*
X44794Y-28688D02*
X44794Y-28437D01*
X44544Y-28437D01*
X44544Y-28688D01*
X44794Y-28688D01*
X12374Y-24673D02*
X12688Y-24358D01*
X12374Y-24043D01*
X12059Y-24358D01*
X12374Y-24673D01*
X12374Y-31074D02*
X12688Y-30759D01*
X12374Y-30444D01*
X12059Y-30759D01*
X12374Y-31074D01*
X20814Y-43846D02*
X21129Y-43531D01*
X20814Y-43216D01*
X20500Y-43531D01*
X20814Y-43846D01*
X25145Y-11901D02*
X25460Y-11586D01*
X25145Y-11271D01*
X24830Y-11586D01*
X25145Y-11901D01*
X27216Y-43846D02*
X27531Y-43531D01*
X27216Y-43216D01*
X26901Y-43531D01*
X27216Y-43846D01*
X29476Y-43846D02*
X29791Y-43531D01*
X29476Y-43216D01*
X29161Y-43531D01*
X29476Y-43846D01*
X31547Y-11901D02*
X31862Y-11586D01*
X31547Y-11271D01*
X31232Y-11586D01*
X31547Y-11901D01*
X35877Y-43846D02*
X36192Y-43531D01*
X35877Y-43216D01*
X35562Y-43531D01*
X35877Y-43846D01*
X44318Y-24673D02*
X44633Y-24358D01*
X44318Y-24043D01*
X44003Y-24358D01*
X44318Y-24673D01*
X44318Y-31074D02*
X44633Y-30759D01*
X44318Y-30444D01*
X44003Y-30759D01*
X44318Y-31074D01*
G54D13*
X9710Y-49041D02*
X9710Y-47859D01*
X9991Y-47859D01*
X10160Y-47916D01*
X10272Y-48028D01*
X10329Y-48141D01*
X10385Y-48366D01*
X10385Y-48534D01*
X10329Y-48759D01*
X10272Y-48872D01*
X10160Y-48984D01*
X9991Y-49041D01*
X9710Y-49041D01*
X10891Y-49041D02*
X10891Y-48253D01*
X10891Y-48478D02*
X10947Y-48366D01*
X11003Y-48309D01*
X11116Y-48253D01*
X11228Y-48253D01*
X11622Y-49041D02*
X11622Y-48253D01*
X11622Y-47859D02*
X11566Y-47916D01*
X11622Y-47972D01*
X11678Y-47916D01*
X11622Y-47859D01*
X11622Y-47972D01*
X12353Y-49041D02*
X12241Y-48984D01*
X12185Y-48872D01*
X12185Y-47859D01*
X12972Y-49041D02*
X12859Y-48984D01*
X12803Y-48872D01*
X12803Y-47859D01*
X14322Y-49041D02*
X14322Y-47859D01*
X14715Y-48703D01*
X15109Y-47859D01*
X15109Y-49041D01*
X16178Y-49041D02*
X16178Y-48422D01*
X16122Y-48309D01*
X16009Y-48253D01*
X15784Y-48253D01*
X15672Y-48309D01*
X16178Y-48984D02*
X16065Y-49041D01*
X15784Y-49041D01*
X15672Y-48984D01*
X15615Y-48872D01*
X15615Y-48759D01*
X15672Y-48647D01*
X15784Y-48591D01*
X16065Y-48591D01*
X16178Y-48534D01*
X16740Y-48253D02*
X16740Y-49434D01*
X16740Y-48309D02*
X16853Y-48253D01*
X17078Y-48253D01*
X17190Y-48309D01*
X17246Y-48366D01*
X17303Y-48478D01*
X17303Y-48816D01*
X17246Y-48928D01*
X17190Y-48984D01*
X17078Y-49041D01*
X16853Y-49041D01*
X16740Y-48984D01*
X17809Y-48928D02*
X17865Y-48984D01*
X17809Y-49041D01*
X17753Y-48984D01*
X17809Y-48928D01*
X17809Y-49041D01*
X17809Y-48309D02*
X17865Y-48366D01*
X17809Y-48422D01*
X17753Y-48366D01*
X17809Y-48309D01*
X17809Y-48422D01*
X8444Y-50944D02*
X8641Y-51141D01*
X8641Y-50944D02*
X8444Y-51141D01*
X9935Y-50340D02*
X10047Y-50340D01*
X10160Y-50396D01*
X10216Y-50452D01*
X10272Y-50565D01*
X10329Y-50790D01*
X10329Y-51071D01*
X10272Y-51296D01*
X10216Y-51408D01*
X10160Y-51465D01*
X10047Y-51521D01*
X9935Y-51521D01*
X9822Y-51465D01*
X9766Y-51408D01*
X9710Y-51296D01*
X9654Y-51071D01*
X9654Y-50790D01*
X9710Y-50565D01*
X9766Y-50452D01*
X9822Y-50396D01*
X9935Y-50340D01*
X10835Y-51408D02*
X10891Y-51465D01*
X10835Y-51521D01*
X10778Y-51465D01*
X10835Y-51408D01*
X10835Y-51521D01*
X11960Y-50340D02*
X11397Y-50340D01*
X11341Y-50902D01*
X11397Y-50846D01*
X11510Y-50790D01*
X11791Y-50790D01*
X11903Y-50846D01*
X11960Y-50902D01*
X12016Y-51015D01*
X12016Y-51296D01*
X11960Y-51408D01*
X11903Y-51465D01*
X11791Y-51521D01*
X11510Y-51521D01*
X11397Y-51465D01*
X11341Y-51408D01*
X12747Y-50340D02*
X12859Y-50340D01*
X12972Y-50396D01*
X13028Y-50452D01*
X13084Y-50565D01*
X13141Y-50790D01*
X13141Y-51071D01*
X13084Y-51296D01*
X13028Y-51408D01*
X12972Y-51465D01*
X12859Y-51521D01*
X12747Y-51521D01*
X12634Y-51465D01*
X12578Y-51408D01*
X12522Y-51296D01*
X12466Y-51071D01*
X12466Y-50790D01*
X12522Y-50565D01*
X12578Y-50452D01*
X12634Y-50396D01*
X12747Y-50340D01*
X13647Y-51521D02*
X13647Y-50733D01*
X13647Y-50846D02*
X13703Y-50790D01*
X13816Y-50733D01*
X13984Y-50733D01*
X14097Y-50790D01*
X14153Y-50902D01*
X14153Y-51521D01*
X14153Y-50902D02*
X14209Y-50790D01*
X14322Y-50733D01*
X14491Y-50733D01*
X14603Y-50790D01*
X14659Y-50902D01*
X14659Y-51521D01*
X15222Y-51521D02*
X15222Y-50733D01*
X15222Y-50846D02*
X15278Y-50790D01*
X15390Y-50733D01*
X15559Y-50733D01*
X15672Y-50790D01*
X15728Y-50902D01*
X15728Y-51521D01*
X15728Y-50902D02*
X15784Y-50790D01*
X15897Y-50733D01*
X16065Y-50733D01*
X16178Y-50790D01*
X16234Y-50902D01*
X16234Y-51521D01*
X18540Y-50284D02*
X17528Y-51802D01*
X20059Y-50340D02*
X20171Y-50340D01*
X20284Y-50396D01*
X20340Y-50452D01*
X20396Y-50565D01*
X20452Y-50790D01*
X20452Y-51071D01*
X20396Y-51296D01*
X20340Y-51408D01*
X20284Y-51465D01*
X20171Y-51521D01*
X20059Y-51521D01*
X19946Y-51465D01*
X19890Y-51408D01*
X19834Y-51296D01*
X19777Y-51071D01*
X19777Y-50790D01*
X19834Y-50565D01*
X19890Y-50452D01*
X19946Y-50396D01*
X20059Y-50340D01*
X20958Y-51408D02*
X21015Y-51465D01*
X20958Y-51521D01*
X20902Y-51465D01*
X20958Y-51408D01*
X20958Y-51521D01*
X21746Y-50340D02*
X21858Y-50340D01*
X21971Y-50396D01*
X22027Y-50452D01*
X22083Y-50565D01*
X22140Y-50790D01*
X22140Y-51071D01*
X22083Y-51296D01*
X22027Y-51408D01*
X21971Y-51465D01*
X21858Y-51521D01*
X21746Y-51521D01*
X21633Y-51465D01*
X21577Y-51408D01*
X21521Y-51296D01*
X21465Y-51071D01*
X21465Y-50790D01*
X21521Y-50565D01*
X21577Y-50452D01*
X21633Y-50396D01*
X21746Y-50340D01*
X22589Y-50452D02*
X22646Y-50396D01*
X22758Y-50340D01*
X23039Y-50340D01*
X23152Y-50396D01*
X23208Y-50452D01*
X23264Y-50565D01*
X23264Y-50677D01*
X23208Y-50846D01*
X22533Y-51521D01*
X23264Y-51521D01*
X23996Y-50340D02*
X24108Y-50340D01*
X24221Y-50396D01*
X24277Y-50452D01*
X24333Y-50565D01*
X24389Y-50790D01*
X24389Y-51071D01*
X24333Y-51296D01*
X24277Y-51408D01*
X24221Y-51465D01*
X24108Y-51521D01*
X23996Y-51521D01*
X23883Y-51465D01*
X23827Y-51408D01*
X23771Y-51296D01*
X23714Y-51071D01*
X23714Y-50790D01*
X23771Y-50565D01*
X23827Y-50452D01*
X23883Y-50396D01*
X23996Y-50340D01*
X24839Y-50340D02*
X24839Y-50565D01*
X25289Y-50340D02*
X25289Y-50565D01*
X27033Y-51971D02*
X26976Y-51915D01*
X26864Y-51746D01*
X26808Y-51633D01*
X26751Y-51465D01*
X26695Y-51183D01*
X26695Y-50958D01*
X26751Y-50677D01*
X26808Y-50508D01*
X26864Y-50396D01*
X26976Y-50227D01*
X27033Y-50171D01*
X27539Y-51521D02*
X27764Y-51521D01*
X27876Y-51465D01*
X27933Y-51408D01*
X28045Y-51240D01*
X28101Y-51015D01*
X28101Y-50565D01*
X28045Y-50452D01*
X27989Y-50396D01*
X27876Y-50340D01*
X27651Y-50340D01*
X27539Y-50396D01*
X27483Y-50452D01*
X27426Y-50565D01*
X27426Y-50846D01*
X27483Y-50958D01*
X27539Y-51015D01*
X27651Y-51071D01*
X27876Y-51071D01*
X27989Y-51015D01*
X28045Y-50958D01*
X28101Y-50846D01*
X28551Y-50452D02*
X28607Y-50396D01*
X28720Y-50340D01*
X29001Y-50340D01*
X29114Y-50396D01*
X29170Y-50452D01*
X29226Y-50565D01*
X29226Y-50677D01*
X29170Y-50846D01*
X28495Y-51521D01*
X29226Y-51521D01*
X30632Y-51521D02*
X30632Y-50340D01*
X31138Y-51521D02*
X31138Y-50902D01*
X31082Y-50790D01*
X30970Y-50733D01*
X30801Y-50733D01*
X30688Y-50790D01*
X30632Y-50846D01*
X31870Y-51521D02*
X31757Y-51465D01*
X31701Y-51408D01*
X31645Y-51296D01*
X31645Y-50958D01*
X31701Y-50846D01*
X31757Y-50790D01*
X31870Y-50733D01*
X32038Y-50733D01*
X32151Y-50790D01*
X32207Y-50846D01*
X32263Y-50958D01*
X32263Y-51296D01*
X32207Y-51408D01*
X32151Y-51465D01*
X32038Y-51521D01*
X31870Y-51521D01*
X32938Y-51521D02*
X32826Y-51465D01*
X32769Y-51352D01*
X32769Y-50340D01*
X33838Y-51465D02*
X33726Y-51521D01*
X33501Y-51521D01*
X33388Y-51465D01*
X33332Y-51352D01*
X33332Y-50902D01*
X33388Y-50790D01*
X33501Y-50733D01*
X33726Y-50733D01*
X33838Y-50790D01*
X33894Y-50902D01*
X33894Y-51015D01*
X33332Y-51127D01*
X34344Y-51465D02*
X34457Y-51521D01*
X34682Y-51521D01*
X34794Y-51465D01*
X34850Y-51352D01*
X34850Y-51296D01*
X34794Y-51183D01*
X34682Y-51127D01*
X34513Y-51127D01*
X34401Y-51071D01*
X34344Y-50958D01*
X34344Y-50902D01*
X34401Y-50790D01*
X34513Y-50733D01*
X34682Y-50733D01*
X34794Y-50790D01*
X35244Y-51971D02*
X35300Y-51915D01*
X35413Y-51746D01*
X35469Y-51633D01*
X35525Y-51465D01*
X35582Y-51183D01*
X35582Y-50958D01*
X35525Y-50677D01*
X35469Y-50508D01*
X35413Y-50396D01*
X35300Y-50227D01*
X35244Y-50171D01*
G54D12*
X8641Y-52602D02*
G75*
G03X8641Y-52602I-125J0D01*
G74*
G01*
G54D13*
X9935Y-51899D02*
X10047Y-51899D01*
X10160Y-51955D01*
X10216Y-52011D01*
X10272Y-52124D01*
X10329Y-52349D01*
X10329Y-52630D01*
X10272Y-52855D01*
X10216Y-52967D01*
X10160Y-53024D01*
X10047Y-53080D01*
X9935Y-53080D01*
X9822Y-53024D01*
X9766Y-52967D01*
X9710Y-52855D01*
X9654Y-52630D01*
X9654Y-52349D01*
X9710Y-52124D01*
X9766Y-52011D01*
X9822Y-51955D01*
X9935Y-51899D01*
X10835Y-52967D02*
X10891Y-53024D01*
X10835Y-53080D01*
X10778Y-53024D01*
X10835Y-52967D01*
X10835Y-53080D01*
X11903Y-51899D02*
X11678Y-51899D01*
X11566Y-51955D01*
X11510Y-52011D01*
X11397Y-52180D01*
X11341Y-52405D01*
X11341Y-52855D01*
X11397Y-52967D01*
X11453Y-53024D01*
X11566Y-53080D01*
X11791Y-53080D01*
X11903Y-53024D01*
X11960Y-52967D01*
X12016Y-52855D01*
X12016Y-52574D01*
X11960Y-52461D01*
X11903Y-52405D01*
X11791Y-52349D01*
X11566Y-52349D01*
X11453Y-52405D01*
X11397Y-52461D01*
X11341Y-52574D01*
X13028Y-52293D02*
X13028Y-53080D01*
X12747Y-51843D02*
X12466Y-52686D01*
X13197Y-52686D01*
X13647Y-53080D02*
X13647Y-52293D01*
X13647Y-52405D02*
X13703Y-52349D01*
X13816Y-52293D01*
X13984Y-52293D01*
X14097Y-52349D01*
X14153Y-52461D01*
X14153Y-53080D01*
X14153Y-52461D02*
X14209Y-52349D01*
X14322Y-52293D01*
X14491Y-52293D01*
X14603Y-52349D01*
X14659Y-52461D01*
X14659Y-53080D01*
X15222Y-53080D02*
X15222Y-52293D01*
X15222Y-52405D02*
X15278Y-52349D01*
X15390Y-52293D01*
X15559Y-52293D01*
X15672Y-52349D01*
X15728Y-52461D01*
X15728Y-53080D01*
X15728Y-52461D02*
X15784Y-52349D01*
X15897Y-52293D01*
X16065Y-52293D01*
X16178Y-52349D01*
X16234Y-52461D01*
X16234Y-53080D01*
X18540Y-51843D02*
X17528Y-53361D01*
X20059Y-51899D02*
X20171Y-51899D01*
X20284Y-51955D01*
X20340Y-52011D01*
X20396Y-52124D01*
X20452Y-52349D01*
X20452Y-52630D01*
X20396Y-52855D01*
X20340Y-52967D01*
X20284Y-53024D01*
X20171Y-53080D01*
X20059Y-53080D01*
X19946Y-53024D01*
X19890Y-52967D01*
X19834Y-52855D01*
X19777Y-52630D01*
X19777Y-52349D01*
X19834Y-52124D01*
X19890Y-52011D01*
X19946Y-51955D01*
X20059Y-51899D01*
X20958Y-52967D02*
X21015Y-53024D01*
X20958Y-53080D01*
X20902Y-53024D01*
X20958Y-52967D01*
X20958Y-53080D01*
X21746Y-51899D02*
X21858Y-51899D01*
X21971Y-51955D01*
X22027Y-52011D01*
X22083Y-52124D01*
X22140Y-52349D01*
X22140Y-52630D01*
X22083Y-52855D01*
X22027Y-52967D01*
X21971Y-53024D01*
X21858Y-53080D01*
X21746Y-53080D01*
X21633Y-53024D01*
X21577Y-52967D01*
X21521Y-52855D01*
X21465Y-52630D01*
X21465Y-52349D01*
X21521Y-52124D01*
X21577Y-52011D01*
X21633Y-51955D01*
X21746Y-51899D01*
X22589Y-52011D02*
X22646Y-51955D01*
X22758Y-51899D01*
X23039Y-51899D01*
X23152Y-51955D01*
X23208Y-52011D01*
X23264Y-52124D01*
X23264Y-52236D01*
X23208Y-52405D01*
X22533Y-53080D01*
X23264Y-53080D01*
X24333Y-51899D02*
X23771Y-51899D01*
X23714Y-52461D01*
X23771Y-52405D01*
X23883Y-52349D01*
X24164Y-52349D01*
X24277Y-52405D01*
X24333Y-52461D01*
X24389Y-52574D01*
X24389Y-52855D01*
X24333Y-52967D01*
X24277Y-53024D01*
X24164Y-53080D01*
X23883Y-53080D01*
X23771Y-53024D01*
X23714Y-52967D01*
X24839Y-51899D02*
X24839Y-52124D01*
X25289Y-51899D02*
X25289Y-52124D01*
X27033Y-53530D02*
X26976Y-53474D01*
X26864Y-53305D01*
X26808Y-53192D01*
X26751Y-53024D01*
X26695Y-52742D01*
X26695Y-52517D01*
X26751Y-52236D01*
X26808Y-52068D01*
X26864Y-51955D01*
X26976Y-51786D01*
X27033Y-51730D01*
X27426Y-52011D02*
X27483Y-51955D01*
X27595Y-51899D01*
X27876Y-51899D01*
X27989Y-51955D01*
X28045Y-52011D01*
X28101Y-52124D01*
X28101Y-52236D01*
X28045Y-52405D01*
X27370Y-53080D01*
X28101Y-53080D01*
X29114Y-52293D02*
X29114Y-53080D01*
X28832Y-51843D02*
X28551Y-52686D01*
X29282Y-52686D01*
X30632Y-53080D02*
X30632Y-51899D01*
X31138Y-53080D02*
X31138Y-52461D01*
X31082Y-52349D01*
X30970Y-52293D01*
X30801Y-52293D01*
X30688Y-52349D01*
X30632Y-52405D01*
X31870Y-53080D02*
X31757Y-53024D01*
X31701Y-52967D01*
X31645Y-52855D01*
X31645Y-52517D01*
X31701Y-52405D01*
X31757Y-52349D01*
X31870Y-52293D01*
X32038Y-52293D01*
X32151Y-52349D01*
X32207Y-52405D01*
X32263Y-52517D01*
X32263Y-52855D01*
X32207Y-52967D01*
X32151Y-53024D01*
X32038Y-53080D01*
X31870Y-53080D01*
X32938Y-53080D02*
X32826Y-53024D01*
X32769Y-52911D01*
X32769Y-51899D01*
X33838Y-53024D02*
X33726Y-53080D01*
X33501Y-53080D01*
X33388Y-53024D01*
X33332Y-52911D01*
X33332Y-52461D01*
X33388Y-52349D01*
X33501Y-52293D01*
X33726Y-52293D01*
X33838Y-52349D01*
X33894Y-52461D01*
X33894Y-52574D01*
X33332Y-52686D01*
X34344Y-53024D02*
X34457Y-53080D01*
X34682Y-53080D01*
X34794Y-53024D01*
X34850Y-52911D01*
X34850Y-52855D01*
X34794Y-52742D01*
X34682Y-52686D01*
X34513Y-52686D01*
X34401Y-52630D01*
X34344Y-52517D01*
X34344Y-52461D01*
X34401Y-52349D01*
X34513Y-52293D01*
X34682Y-52293D01*
X34794Y-52349D01*
X35244Y-53530D02*
X35300Y-53474D01*
X35413Y-53305D01*
X35469Y-53192D01*
X35525Y-53024D01*
X35582Y-52742D01*
X35582Y-52517D01*
X35525Y-52236D01*
X35469Y-52068D01*
X35413Y-51955D01*
X35300Y-51786D01*
X35244Y-51730D01*
X8481Y-54001D02*
X8481Y-54321D01*
X8321Y-54161D02*
X8641Y-54161D01*
X9935Y-53458D02*
X10047Y-53458D01*
X10160Y-53514D01*
X10216Y-53570D01*
X10272Y-53683D01*
X10329Y-53908D01*
X10329Y-54189D01*
X10272Y-54414D01*
X10216Y-54526D01*
X10160Y-54583D01*
X10047Y-54639D01*
X9935Y-54639D01*
X9822Y-54583D01*
X9766Y-54526D01*
X9710Y-54414D01*
X9654Y-54189D01*
X9654Y-53908D01*
X9710Y-53683D01*
X9766Y-53570D01*
X9822Y-53514D01*
X9935Y-53458D01*
X10835Y-54526D02*
X10891Y-54583D01*
X10835Y-54639D01*
X10778Y-54583D01*
X10835Y-54526D01*
X10835Y-54639D01*
X11566Y-53964D02*
X11453Y-53908D01*
X11397Y-53852D01*
X11341Y-53739D01*
X11341Y-53683D01*
X11397Y-53570D01*
X11453Y-53514D01*
X11566Y-53458D01*
X11791Y-53458D01*
X11903Y-53514D01*
X11960Y-53570D01*
X12016Y-53683D01*
X12016Y-53739D01*
X11960Y-53852D01*
X11903Y-53908D01*
X11791Y-53964D01*
X11566Y-53964D01*
X11453Y-54020D01*
X11397Y-54077D01*
X11341Y-54189D01*
X11341Y-54414D01*
X11397Y-54526D01*
X11453Y-54583D01*
X11566Y-54639D01*
X11791Y-54639D01*
X11903Y-54583D01*
X11960Y-54526D01*
X12016Y-54414D01*
X12016Y-54189D01*
X11960Y-54077D01*
X11903Y-54020D01*
X11791Y-53964D01*
X13141Y-54639D02*
X12466Y-54639D01*
X12803Y-54639D02*
X12803Y-53458D01*
X12691Y-53627D01*
X12578Y-53739D01*
X12466Y-53795D01*
X13647Y-54639D02*
X13647Y-53852D01*
X13647Y-53964D02*
X13703Y-53908D01*
X13816Y-53852D01*
X13984Y-53852D01*
X14097Y-53908D01*
X14153Y-54020D01*
X14153Y-54639D01*
X14153Y-54020D02*
X14209Y-53908D01*
X14322Y-53852D01*
X14491Y-53852D01*
X14603Y-53908D01*
X14659Y-54020D01*
X14659Y-54639D01*
X15222Y-54639D02*
X15222Y-53852D01*
X15222Y-53964D02*
X15278Y-53908D01*
X15390Y-53852D01*
X15559Y-53852D01*
X15672Y-53908D01*
X15728Y-54020D01*
X15728Y-54639D01*
X15728Y-54020D02*
X15784Y-53908D01*
X15897Y-53852D01*
X16065Y-53852D01*
X16178Y-53908D01*
X16234Y-54020D01*
X16234Y-54639D01*
X18540Y-53402D02*
X17528Y-54920D01*
X20059Y-53458D02*
X20171Y-53458D01*
X20284Y-53514D01*
X20340Y-53570D01*
X20396Y-53683D01*
X20452Y-53908D01*
X20452Y-54189D01*
X20396Y-54414D01*
X20340Y-54526D01*
X20284Y-54583D01*
X20171Y-54639D01*
X20059Y-54639D01*
X19946Y-54583D01*
X19890Y-54526D01*
X19834Y-54414D01*
X19777Y-54189D01*
X19777Y-53908D01*
X19834Y-53683D01*
X19890Y-53570D01*
X19946Y-53514D01*
X20059Y-53458D01*
X20958Y-54526D02*
X21015Y-54583D01*
X20958Y-54639D01*
X20902Y-54583D01*
X20958Y-54526D01*
X20958Y-54639D01*
X21746Y-53458D02*
X21858Y-53458D01*
X21971Y-53514D01*
X22027Y-53570D01*
X22083Y-53683D01*
X22140Y-53908D01*
X22140Y-54189D01*
X22083Y-54414D01*
X22027Y-54526D01*
X21971Y-54583D01*
X21858Y-54639D01*
X21746Y-54639D01*
X21633Y-54583D01*
X21577Y-54526D01*
X21521Y-54414D01*
X21465Y-54189D01*
X21465Y-53908D01*
X21521Y-53683D01*
X21577Y-53570D01*
X21633Y-53514D01*
X21746Y-53458D01*
X22533Y-53458D02*
X23264Y-53458D01*
X22871Y-53908D01*
X23039Y-53908D01*
X23152Y-53964D01*
X23208Y-54020D01*
X23264Y-54133D01*
X23264Y-54414D01*
X23208Y-54526D01*
X23152Y-54583D01*
X23039Y-54639D01*
X22702Y-54639D01*
X22589Y-54583D01*
X22533Y-54526D01*
X23714Y-53570D02*
X23771Y-53514D01*
X23883Y-53458D01*
X24164Y-53458D01*
X24277Y-53514D01*
X24333Y-53570D01*
X24389Y-53683D01*
X24389Y-53795D01*
X24333Y-53964D01*
X23658Y-54639D01*
X24389Y-54639D01*
X24839Y-53458D02*
X24839Y-53683D01*
X25289Y-53458D02*
X25289Y-53683D01*
X27033Y-55089D02*
X26976Y-55033D01*
X26864Y-54864D01*
X26808Y-54751D01*
X26751Y-54583D01*
X26695Y-54302D01*
X26695Y-54077D01*
X26751Y-53795D01*
X26808Y-53627D01*
X26864Y-53514D01*
X26976Y-53345D01*
X27033Y-53289D01*
X28101Y-54639D02*
X27426Y-54639D01*
X27764Y-54639D02*
X27764Y-53458D01*
X27651Y-53627D01*
X27539Y-53739D01*
X27426Y-53795D01*
X29114Y-53458D02*
X28889Y-53458D01*
X28776Y-53514D01*
X28720Y-53570D01*
X28607Y-53739D01*
X28551Y-53964D01*
X28551Y-54414D01*
X28607Y-54526D01*
X28664Y-54583D01*
X28776Y-54639D01*
X29001Y-54639D01*
X29114Y-54583D01*
X29170Y-54526D01*
X29226Y-54414D01*
X29226Y-54133D01*
X29170Y-54020D01*
X29114Y-53964D01*
X29001Y-53908D01*
X28776Y-53908D01*
X28664Y-53964D01*
X28607Y-54020D01*
X28551Y-54133D01*
X30632Y-54639D02*
X30632Y-53458D01*
X31138Y-54639D02*
X31138Y-54020D01*
X31082Y-53908D01*
X30970Y-53852D01*
X30801Y-53852D01*
X30688Y-53908D01*
X30632Y-53964D01*
X31870Y-54639D02*
X31757Y-54583D01*
X31701Y-54526D01*
X31645Y-54414D01*
X31645Y-54077D01*
X31701Y-53964D01*
X31757Y-53908D01*
X31870Y-53852D01*
X32038Y-53852D01*
X32151Y-53908D01*
X32207Y-53964D01*
X32263Y-54077D01*
X32263Y-54414D01*
X32207Y-54526D01*
X32151Y-54583D01*
X32038Y-54639D01*
X31870Y-54639D01*
X32938Y-54639D02*
X32826Y-54583D01*
X32769Y-54470D01*
X32769Y-53458D01*
X33838Y-54583D02*
X33726Y-54639D01*
X33501Y-54639D01*
X33388Y-54583D01*
X33332Y-54470D01*
X33332Y-54020D01*
X33388Y-53908D01*
X33501Y-53852D01*
X33726Y-53852D01*
X33838Y-53908D01*
X33894Y-54020D01*
X33894Y-54133D01*
X33332Y-54245D01*
X34344Y-54583D02*
X34457Y-54639D01*
X34682Y-54639D01*
X34794Y-54583D01*
X34850Y-54470D01*
X34850Y-54414D01*
X34794Y-54302D01*
X34682Y-54245D01*
X34513Y-54245D01*
X34401Y-54189D01*
X34344Y-54077D01*
X34344Y-54020D01*
X34401Y-53908D01*
X34513Y-53852D01*
X34682Y-53852D01*
X34794Y-53908D01*
X35244Y-55089D02*
X35300Y-55033D01*
X35413Y-54864D01*
X35469Y-54751D01*
X35525Y-54583D01*
X35582Y-54302D01*
X35582Y-54077D01*
X35525Y-53795D01*
X35469Y-53627D01*
X35413Y-53514D01*
X35300Y-53345D01*
X35244Y-53289D01*
G54D12*
X8589Y-55845D02*
X8589Y-55595D01*
X8339Y-55595D01*
X8339Y-55845D01*
X8589Y-55845D01*
G54D13*
X9935Y-55017D02*
X10047Y-55017D01*
X10160Y-55073D01*
X10216Y-55129D01*
X10272Y-55242D01*
X10329Y-55467D01*
X10329Y-55748D01*
X10272Y-55973D01*
X10216Y-56086D01*
X10160Y-56142D01*
X10047Y-56198D01*
X9935Y-56198D01*
X9822Y-56142D01*
X9766Y-56086D01*
X9710Y-55973D01*
X9654Y-55748D01*
X9654Y-55467D01*
X9710Y-55242D01*
X9766Y-55129D01*
X9822Y-55073D01*
X9935Y-55017D01*
X10835Y-56086D02*
X10891Y-56142D01*
X10835Y-56198D01*
X10778Y-56142D01*
X10835Y-56086D01*
X10835Y-56198D01*
X11453Y-56198D02*
X11678Y-56198D01*
X11791Y-56142D01*
X11847Y-56086D01*
X11960Y-55917D01*
X12016Y-55692D01*
X12016Y-55242D01*
X11960Y-55129D01*
X11903Y-55073D01*
X11791Y-55017D01*
X11566Y-55017D01*
X11453Y-55073D01*
X11397Y-55129D01*
X11341Y-55242D01*
X11341Y-55523D01*
X11397Y-55636D01*
X11453Y-55692D01*
X11566Y-55748D01*
X11791Y-55748D01*
X11903Y-55692D01*
X11960Y-55636D01*
X12016Y-55523D01*
X12747Y-55017D02*
X12859Y-55017D01*
X12972Y-55073D01*
X13028Y-55129D01*
X13084Y-55242D01*
X13141Y-55467D01*
X13141Y-55748D01*
X13084Y-55973D01*
X13028Y-56086D01*
X12972Y-56142D01*
X12859Y-56198D01*
X12747Y-56198D01*
X12634Y-56142D01*
X12578Y-56086D01*
X12522Y-55973D01*
X12466Y-55748D01*
X12466Y-55467D01*
X12522Y-55242D01*
X12578Y-55129D01*
X12634Y-55073D01*
X12747Y-55017D01*
X13647Y-56198D02*
X13647Y-55411D01*
X13647Y-55523D02*
X13703Y-55467D01*
X13816Y-55411D01*
X13984Y-55411D01*
X14097Y-55467D01*
X14153Y-55579D01*
X14153Y-56198D01*
X14153Y-55579D02*
X14209Y-55467D01*
X14322Y-55411D01*
X14491Y-55411D01*
X14603Y-55467D01*
X14659Y-55579D01*
X14659Y-56198D01*
X15222Y-56198D02*
X15222Y-55411D01*
X15222Y-55523D02*
X15278Y-55467D01*
X15390Y-55411D01*
X15559Y-55411D01*
X15672Y-55467D01*
X15728Y-55579D01*
X15728Y-56198D01*
X15728Y-55579D02*
X15784Y-55467D01*
X15897Y-55411D01*
X16065Y-55411D01*
X16178Y-55467D01*
X16234Y-55579D01*
X16234Y-56198D01*
X18540Y-54961D02*
X17528Y-56479D01*
X20059Y-55017D02*
X20171Y-55017D01*
X20284Y-55073D01*
X20340Y-55129D01*
X20396Y-55242D01*
X20452Y-55467D01*
X20452Y-55748D01*
X20396Y-55973D01*
X20340Y-56086D01*
X20284Y-56142D01*
X20171Y-56198D01*
X20059Y-56198D01*
X19946Y-56142D01*
X19890Y-56086D01*
X19834Y-55973D01*
X19777Y-55748D01*
X19777Y-55467D01*
X19834Y-55242D01*
X19890Y-55129D01*
X19946Y-55073D01*
X20059Y-55017D01*
X20958Y-56086D02*
X21015Y-56142D01*
X20958Y-56198D01*
X20902Y-56142D01*
X20958Y-56086D01*
X20958Y-56198D01*
X21746Y-55017D02*
X21858Y-55017D01*
X21971Y-55073D01*
X22027Y-55129D01*
X22083Y-55242D01*
X22140Y-55467D01*
X22140Y-55748D01*
X22083Y-55973D01*
X22027Y-56086D01*
X21971Y-56142D01*
X21858Y-56198D01*
X21746Y-56198D01*
X21633Y-56142D01*
X21577Y-56086D01*
X21521Y-55973D01*
X21465Y-55748D01*
X21465Y-55467D01*
X21521Y-55242D01*
X21577Y-55129D01*
X21633Y-55073D01*
X21746Y-55017D01*
X22533Y-55017D02*
X23264Y-55017D01*
X22871Y-55467D01*
X23039Y-55467D01*
X23152Y-55523D01*
X23208Y-55579D01*
X23264Y-55692D01*
X23264Y-55973D01*
X23208Y-56086D01*
X23152Y-56142D01*
X23039Y-56198D01*
X22702Y-56198D01*
X22589Y-56142D01*
X22533Y-56086D01*
X24333Y-55017D02*
X23771Y-55017D01*
X23714Y-55579D01*
X23771Y-55523D01*
X23883Y-55467D01*
X24164Y-55467D01*
X24277Y-55523D01*
X24333Y-55579D01*
X24389Y-55692D01*
X24389Y-55973D01*
X24333Y-56086D01*
X24277Y-56142D01*
X24164Y-56198D01*
X23883Y-56198D01*
X23771Y-56142D01*
X23714Y-56086D01*
X24839Y-55017D02*
X24839Y-55242D01*
X25289Y-55017D02*
X25289Y-55242D01*
X27033Y-56648D02*
X26976Y-56592D01*
X26864Y-56423D01*
X26808Y-56311D01*
X26751Y-56142D01*
X26695Y-55861D01*
X26695Y-55636D01*
X26751Y-55354D01*
X26808Y-55186D01*
X26864Y-55073D01*
X26976Y-54904D01*
X27033Y-54848D01*
X27989Y-55411D02*
X27989Y-56198D01*
X27708Y-54961D02*
X27426Y-55804D01*
X28158Y-55804D01*
X28832Y-55017D02*
X28945Y-55017D01*
X29057Y-55073D01*
X29114Y-55129D01*
X29170Y-55242D01*
X29226Y-55467D01*
X29226Y-55748D01*
X29170Y-55973D01*
X29114Y-56086D01*
X29057Y-56142D01*
X28945Y-56198D01*
X28832Y-56198D01*
X28720Y-56142D01*
X28664Y-56086D01*
X28607Y-55973D01*
X28551Y-55748D01*
X28551Y-55467D01*
X28607Y-55242D01*
X28664Y-55129D01*
X28720Y-55073D01*
X28832Y-55017D01*
X30632Y-56198D02*
X30632Y-55017D01*
X31138Y-56198D02*
X31138Y-55579D01*
X31082Y-55467D01*
X30970Y-55411D01*
X30801Y-55411D01*
X30688Y-55467D01*
X30632Y-55523D01*
X31870Y-56198D02*
X31757Y-56142D01*
X31701Y-56086D01*
X31645Y-55973D01*
X31645Y-55636D01*
X31701Y-55523D01*
X31757Y-55467D01*
X31870Y-55411D01*
X32038Y-55411D01*
X32151Y-55467D01*
X32207Y-55523D01*
X32263Y-55636D01*
X32263Y-55973D01*
X32207Y-56086D01*
X32151Y-56142D01*
X32038Y-56198D01*
X31870Y-56198D01*
X32938Y-56198D02*
X32826Y-56142D01*
X32769Y-56029D01*
X32769Y-55017D01*
X33838Y-56142D02*
X33726Y-56198D01*
X33501Y-56198D01*
X33388Y-56142D01*
X33332Y-56029D01*
X33332Y-55579D01*
X33388Y-55467D01*
X33501Y-55411D01*
X33726Y-55411D01*
X33838Y-55467D01*
X33894Y-55579D01*
X33894Y-55692D01*
X33332Y-55804D01*
X34344Y-56142D02*
X34457Y-56198D01*
X34682Y-56198D01*
X34794Y-56142D01*
X34850Y-56029D01*
X34850Y-55973D01*
X34794Y-55861D01*
X34682Y-55804D01*
X34513Y-55804D01*
X34401Y-55748D01*
X34344Y-55636D01*
X34344Y-55579D01*
X34401Y-55467D01*
X34513Y-55411D01*
X34682Y-55411D01*
X34794Y-55467D01*
X35244Y-56648D02*
X35300Y-56592D01*
X35413Y-56423D01*
X35469Y-56311D01*
X35525Y-56142D01*
X35582Y-55861D01*
X35582Y-55636D01*
X35525Y-55354D01*
X35469Y-55186D01*
X35413Y-55073D01*
X35300Y-54904D01*
X35244Y-54848D01*
G54D12*
X8326Y-57594D02*
X8641Y-57279D01*
X8326Y-56964D01*
X8011Y-57279D01*
X8326Y-57594D01*
G54D13*
X10329Y-57757D02*
X9654Y-57757D01*
X9991Y-57757D02*
X9991Y-56576D01*
X9879Y-56745D01*
X9766Y-56857D01*
X9654Y-56913D01*
X10835Y-57645D02*
X10891Y-57701D01*
X10835Y-57757D01*
X10778Y-57701D01*
X10835Y-57645D01*
X10835Y-57757D01*
X11903Y-56576D02*
X11678Y-56576D01*
X11566Y-56632D01*
X11510Y-56688D01*
X11397Y-56857D01*
X11341Y-57082D01*
X11341Y-57532D01*
X11397Y-57645D01*
X11453Y-57701D01*
X11566Y-57757D01*
X11791Y-57757D01*
X11903Y-57701D01*
X11960Y-57645D01*
X12016Y-57532D01*
X12016Y-57251D01*
X11960Y-57138D01*
X11903Y-57082D01*
X11791Y-57026D01*
X11566Y-57026D01*
X11453Y-57082D01*
X11397Y-57138D01*
X11341Y-57251D01*
X12747Y-56576D02*
X12859Y-56576D01*
X12972Y-56632D01*
X13028Y-56688D01*
X13084Y-56801D01*
X13141Y-57026D01*
X13141Y-57307D01*
X13084Y-57532D01*
X13028Y-57645D01*
X12972Y-57701D01*
X12859Y-57757D01*
X12747Y-57757D01*
X12634Y-57701D01*
X12578Y-57645D01*
X12522Y-57532D01*
X12466Y-57307D01*
X12466Y-57026D01*
X12522Y-56801D01*
X12578Y-56688D01*
X12634Y-56632D01*
X12747Y-56576D01*
X13647Y-57757D02*
X13647Y-56970D01*
X13647Y-57082D02*
X13703Y-57026D01*
X13816Y-56970D01*
X13984Y-56970D01*
X14097Y-57026D01*
X14153Y-57138D01*
X14153Y-57757D01*
X14153Y-57138D02*
X14209Y-57026D01*
X14322Y-56970D01*
X14491Y-56970D01*
X14603Y-57026D01*
X14659Y-57138D01*
X14659Y-57757D01*
X15222Y-57757D02*
X15222Y-56970D01*
X15222Y-57082D02*
X15278Y-57026D01*
X15390Y-56970D01*
X15559Y-56970D01*
X15672Y-57026D01*
X15728Y-57138D01*
X15728Y-57757D01*
X15728Y-57138D02*
X15784Y-57026D01*
X15897Y-56970D01*
X16065Y-56970D01*
X16178Y-57026D01*
X16234Y-57138D01*
X16234Y-57757D01*
X18540Y-56520D02*
X17528Y-58038D01*
X20059Y-56576D02*
X20171Y-56576D01*
X20284Y-56632D01*
X20340Y-56688D01*
X20396Y-56801D01*
X20452Y-57026D01*
X20452Y-57307D01*
X20396Y-57532D01*
X20340Y-57645D01*
X20284Y-57701D01*
X20171Y-57757D01*
X20059Y-57757D01*
X19946Y-57701D01*
X19890Y-57645D01*
X19834Y-57532D01*
X19777Y-57307D01*
X19777Y-57026D01*
X19834Y-56801D01*
X19890Y-56688D01*
X19946Y-56632D01*
X20059Y-56576D01*
X20958Y-57645D02*
X21015Y-57701D01*
X20958Y-57757D01*
X20902Y-57701D01*
X20958Y-57645D01*
X20958Y-57757D01*
X21746Y-56576D02*
X21858Y-56576D01*
X21971Y-56632D01*
X22027Y-56688D01*
X22083Y-56801D01*
X22140Y-57026D01*
X22140Y-57307D01*
X22083Y-57532D01*
X22027Y-57645D01*
X21971Y-57701D01*
X21858Y-57757D01*
X21746Y-57757D01*
X21633Y-57701D01*
X21577Y-57645D01*
X21521Y-57532D01*
X21465Y-57307D01*
X21465Y-57026D01*
X21521Y-56801D01*
X21577Y-56688D01*
X21633Y-56632D01*
X21746Y-56576D01*
X23152Y-56576D02*
X22927Y-56576D01*
X22814Y-56632D01*
X22758Y-56688D01*
X22646Y-56857D01*
X22589Y-57082D01*
X22589Y-57532D01*
X22646Y-57645D01*
X22702Y-57701D01*
X22814Y-57757D01*
X23039Y-57757D01*
X23152Y-57701D01*
X23208Y-57645D01*
X23264Y-57532D01*
X23264Y-57251D01*
X23208Y-57138D01*
X23152Y-57082D01*
X23039Y-57026D01*
X22814Y-57026D01*
X22702Y-57082D01*
X22646Y-57138D01*
X22589Y-57251D01*
X23658Y-56576D02*
X24389Y-56576D01*
X23996Y-57026D01*
X24164Y-57026D01*
X24277Y-57082D01*
X24333Y-57138D01*
X24389Y-57251D01*
X24389Y-57532D01*
X24333Y-57645D01*
X24277Y-57701D01*
X24164Y-57757D01*
X23827Y-57757D01*
X23714Y-57701D01*
X23658Y-57645D01*
X24839Y-56576D02*
X24839Y-56801D01*
X25289Y-56576D02*
X25289Y-56801D01*
X27033Y-58207D02*
X26976Y-58151D01*
X26864Y-57982D01*
X26808Y-57870D01*
X26751Y-57701D01*
X26695Y-57420D01*
X26695Y-57195D01*
X26751Y-56913D01*
X26808Y-56745D01*
X26864Y-56632D01*
X26976Y-56464D01*
X27033Y-56407D01*
X28101Y-57757D02*
X27426Y-57757D01*
X27764Y-57757D02*
X27764Y-56576D01*
X27651Y-56745D01*
X27539Y-56857D01*
X27426Y-56913D01*
X28832Y-56576D02*
X28945Y-56576D01*
X29057Y-56632D01*
X29114Y-56688D01*
X29170Y-56801D01*
X29226Y-57026D01*
X29226Y-57307D01*
X29170Y-57532D01*
X29114Y-57645D01*
X29057Y-57701D01*
X28945Y-57757D01*
X28832Y-57757D01*
X28720Y-57701D01*
X28664Y-57645D01*
X28607Y-57532D01*
X28551Y-57307D01*
X28551Y-57026D01*
X28607Y-56801D01*
X28664Y-56688D01*
X28720Y-56632D01*
X28832Y-56576D01*
X30632Y-57757D02*
X30632Y-56576D01*
X31138Y-57757D02*
X31138Y-57138D01*
X31082Y-57026D01*
X30970Y-56970D01*
X30801Y-56970D01*
X30688Y-57026D01*
X30632Y-57082D01*
X31870Y-57757D02*
X31757Y-57701D01*
X31701Y-57645D01*
X31645Y-57532D01*
X31645Y-57195D01*
X31701Y-57082D01*
X31757Y-57026D01*
X31870Y-56970D01*
X32038Y-56970D01*
X32151Y-57026D01*
X32207Y-57082D01*
X32263Y-57195D01*
X32263Y-57532D01*
X32207Y-57645D01*
X32151Y-57701D01*
X32038Y-57757D01*
X31870Y-57757D01*
X32938Y-57757D02*
X32826Y-57701D01*
X32769Y-57588D01*
X32769Y-56576D01*
X33838Y-57701D02*
X33726Y-57757D01*
X33501Y-57757D01*
X33388Y-57701D01*
X33332Y-57588D01*
X33332Y-57138D01*
X33388Y-57026D01*
X33501Y-56970D01*
X33726Y-56970D01*
X33838Y-57026D01*
X33894Y-57138D01*
X33894Y-57251D01*
X33332Y-57363D01*
X34344Y-57701D02*
X34457Y-57757D01*
X34682Y-57757D01*
X34794Y-57701D01*
X34850Y-57588D01*
X34850Y-57532D01*
X34794Y-57420D01*
X34682Y-57363D01*
X34513Y-57363D01*
X34401Y-57307D01*
X34344Y-57195D01*
X34344Y-57138D01*
X34401Y-57026D01*
X34513Y-56970D01*
X34682Y-56970D01*
X34794Y-57026D01*
X35244Y-58207D02*
X35300Y-58151D01*
X35413Y-57982D01*
X35469Y-57870D01*
X35525Y-57701D01*
X35582Y-57420D01*
X35582Y-57195D01*
X35525Y-56913D01*
X35469Y-56745D01*
X35413Y-56632D01*
X35300Y-56464D01*
X35244Y-56407D01*
M02*
