G04 (created by PCBNEW (2013-07-07 BZR 4022)-stable) date 9/18/2013 12:44:27*
%MOIN*%
G04 Gerber Fmt 3.4, Leading zero omitted, Abs format*
%FSLAX34Y34*%
G01*
G70*
G90*
G04 APERTURE LIST*
%ADD10C,0.00590551*%
%ADD11C,0.153543*%
%ADD12C,0.0689425*%
%ADD13C,0.108268*%
%ADD14R,0.0598425X0.0348425*%
%ADD15R,0.0348425X0.0598425*%
%ADD16C,0.0758425*%
%ADD17R,0.0354425X0.0216425*%
%ADD18R,0.0216425X0.0354425*%
%ADD19C,0.246063*%
%ADD20R,0.0648425X0.0448425*%
%ADD21R,0.0374425X0.0728425*%
%ADD22R,0.0374425X0.0925425*%
%ADD23R,0.0885425X0.118143*%
G04 APERTURE END LIST*
G54D10*
G54D11*
X26515Y-44881D03*
X21515Y-44881D03*
G54D12*
X25421Y-43881D03*
X25019Y-43181D03*
X24618Y-43881D03*
X24216Y-43181D03*
X23814Y-43881D03*
X23413Y-43181D03*
X23011Y-43881D03*
X22610Y-43181D03*
G54D13*
X27216Y-43531D03*
X20814Y-43531D03*
G54D11*
X45669Y-25059D03*
X45669Y-30059D03*
G54D12*
X44669Y-26153D03*
X43968Y-26555D03*
X44669Y-26956D03*
X43968Y-27358D03*
X44669Y-27759D03*
X43968Y-28161D03*
X44669Y-28562D03*
X43968Y-28964D03*
G54D13*
X44318Y-24358D03*
X44318Y-30759D03*
G54D11*
X11023Y-30059D03*
X11023Y-25059D03*
G54D12*
X12023Y-28964D03*
X12724Y-28562D03*
X12023Y-28161D03*
X12724Y-27759D03*
X12023Y-27358D03*
X12724Y-26956D03*
X12023Y-26555D03*
X12724Y-26153D03*
G54D13*
X12374Y-30759D03*
X12374Y-24358D03*
G54D11*
X25846Y-10236D03*
X30846Y-10236D03*
G54D12*
X26940Y-11236D03*
X27342Y-11937D03*
X27744Y-11236D03*
X28145Y-11937D03*
X28547Y-11236D03*
X28948Y-11937D03*
X29350Y-11236D03*
X29751Y-11937D03*
G54D13*
X25145Y-11586D03*
X31547Y-11586D03*
G54D11*
X35177Y-44881D03*
X30177Y-44881D03*
G54D12*
X34082Y-43881D03*
X33681Y-43181D03*
X33279Y-43881D03*
X32877Y-43181D03*
X32476Y-43881D03*
X32074Y-43181D03*
X31673Y-43881D03*
X31271Y-43181D03*
G54D13*
X35877Y-43531D03*
X29476Y-43531D03*
G54D14*
X24096Y-20100D03*
X24096Y-20600D03*
X24096Y-21100D03*
X24096Y-21600D03*
X24096Y-22100D03*
X24096Y-22600D03*
X24096Y-23100D03*
X24096Y-23600D03*
X26296Y-23600D03*
X26296Y-23100D03*
X26296Y-22600D03*
X26296Y-22100D03*
X26296Y-21600D03*
X26296Y-21100D03*
X26296Y-20600D03*
X26296Y-20100D03*
X30592Y-20100D03*
X30592Y-20600D03*
X30592Y-21100D03*
X30592Y-21600D03*
X30592Y-22100D03*
X30592Y-22600D03*
X30592Y-23100D03*
X30592Y-23600D03*
X32792Y-23600D03*
X32792Y-23100D03*
X32792Y-22600D03*
X32792Y-22100D03*
X32792Y-21600D03*
X32792Y-21100D03*
X32792Y-20600D03*
X32792Y-20100D03*
G54D15*
X35311Y-35548D03*
X35811Y-35548D03*
X36311Y-35548D03*
X36811Y-35548D03*
X37311Y-35548D03*
X37811Y-35548D03*
X38311Y-35548D03*
X38311Y-33348D03*
X37811Y-33348D03*
X37311Y-33348D03*
X36811Y-33348D03*
X36311Y-33348D03*
X35811Y-33348D03*
X35311Y-33348D03*
X17988Y-30430D03*
X18488Y-30430D03*
X18988Y-30430D03*
X19488Y-30430D03*
X19988Y-30430D03*
X20488Y-30430D03*
X20988Y-30430D03*
X20988Y-28230D03*
X20488Y-28230D03*
X19988Y-28230D03*
X19488Y-28230D03*
X18988Y-28230D03*
X18488Y-28230D03*
X17988Y-28230D03*
X20988Y-33348D03*
X20488Y-33348D03*
X19988Y-33348D03*
X19488Y-33348D03*
X18988Y-33348D03*
X18488Y-33348D03*
X17988Y-33348D03*
X17988Y-35548D03*
X18488Y-35548D03*
X18988Y-35548D03*
X19488Y-35548D03*
X19988Y-35548D03*
X20488Y-35548D03*
X20988Y-35548D03*
X35311Y-30430D03*
X35811Y-30430D03*
X36311Y-30430D03*
X36811Y-30430D03*
X37311Y-30430D03*
X37811Y-30430D03*
X38311Y-30430D03*
X38311Y-28230D03*
X37811Y-28230D03*
X37311Y-28230D03*
X36811Y-28230D03*
X36311Y-28230D03*
X35811Y-28230D03*
X35311Y-28230D03*
G54D16*
X33858Y-10342D03*
X33858Y-9342D03*
X37007Y-10342D03*
X37007Y-9342D03*
X40157Y-10342D03*
X40157Y-9342D03*
X43307Y-10342D03*
X43307Y-9342D03*
G54D17*
X18535Y-41830D03*
X18535Y-41633D03*
X18535Y-41436D03*
X18535Y-41239D03*
X18082Y-41239D03*
X18082Y-41436D03*
X18082Y-41633D03*
X18082Y-41830D03*
X18535Y-40452D03*
X18535Y-40255D03*
X18535Y-40058D03*
X18535Y-39861D03*
X18082Y-39861D03*
X18082Y-40058D03*
X18082Y-40255D03*
X18082Y-40452D03*
G54D18*
X38090Y-14991D03*
X38287Y-14991D03*
X38484Y-14991D03*
X38681Y-14991D03*
X38681Y-14538D03*
X38484Y-14538D03*
X38287Y-14538D03*
X38090Y-14538D03*
X28051Y-16566D03*
X28248Y-16566D03*
X28445Y-16566D03*
X28642Y-16566D03*
X28642Y-16113D03*
X28445Y-16113D03*
X28248Y-16113D03*
X28051Y-16113D03*
G54D19*
X10629Y-9842D03*
X46062Y-9842D03*
X46062Y-45275D03*
X10629Y-45275D03*
G54D18*
X14468Y-42550D03*
X14665Y-42550D03*
X14862Y-42550D03*
X15059Y-42550D03*
X15059Y-42097D03*
X14862Y-42097D03*
X14665Y-42097D03*
X14468Y-42097D03*
G54D14*
X14648Y-35651D03*
X14648Y-36151D03*
X14648Y-36651D03*
X14648Y-37151D03*
X14648Y-37651D03*
X14648Y-38151D03*
X14648Y-38651D03*
X14648Y-39151D03*
X16848Y-39151D03*
X16848Y-38651D03*
X16848Y-38151D03*
X16848Y-37651D03*
X16848Y-37151D03*
X16848Y-36651D03*
X16848Y-36151D03*
X16848Y-35651D03*
G54D16*
X10129Y-32677D03*
X11129Y-32677D03*
X10129Y-35629D03*
X11129Y-35629D03*
X10129Y-38582D03*
X11129Y-38582D03*
X10129Y-41535D03*
X11129Y-41535D03*
G54D20*
X14370Y-17500D03*
X14370Y-16750D03*
X19094Y-17500D03*
X19094Y-16750D03*
G54D18*
X28287Y-24991D03*
X28484Y-24991D03*
X28681Y-24991D03*
X28878Y-24991D03*
X28878Y-24538D03*
X28681Y-24538D03*
X28484Y-24538D03*
X28287Y-24538D03*
G54D21*
X17205Y-17480D03*
G54D22*
X16614Y-17578D03*
G54D21*
X16023Y-17480D03*
G54D23*
X16614Y-18523D03*
M02*
