M48
;DRILL file {Pcbnew (2013-mar-13)-testing} date Tue 15 Oct 2013 18:52:15 BST
;FORMAT={-:-/ absolute / metric / decimal}
FMAT,2
METRIC,TZ
T1C3.000
T2C3.251
%
G90
G05
M71
T1
X17.Y-17.
X17.Y-107.
X17.Y-137.
X107.Y-17.
X107.Y-107.
X107.Y-137.
T2
X17.35Y-70.65
X17.35Y-83.35
X45.65Y-17.35
X45.65Y-136.65
X58.35Y-17.35
X58.35Y-136.65
X65.65Y-17.35
X65.65Y-136.65
X78.35Y-17.35
X78.35Y-136.65
X106.65Y-25.65
X106.65Y-38.35
X106.65Y-45.65
X106.65Y-58.35
X106.65Y-65.65
X106.65Y-78.35
X106.65Y-85.65
X106.65Y-98.35
X106.65Y-115.65
X106.65Y-128.35
T0
M30
