M48
;DRILL file {Pcbnew (2013-mar-13)-testing} date Tue 15 Oct 2013 18:52:15 BST
;FORMAT={-:-/ absolute / metric / decimal}
FMAT,2
METRIC,TZ
T1C0.500
T2C0.600
T3C0.800
T4C0.899
T5C1.016
T6C1.600
%
G90
G05
M71
T1
X24.7Y-72.4
X31.3Y-26.5
X32.1Y-26.1
X32.1Y-80.8
X32.8Y-25.4
X33.6Y-24.7
X36.8Y-37.5
X36.8Y-40.
X36.8Y-42.5
X36.8Y-45.1
X39.5Y-46.375
X39.6Y-41.275
X39.85Y-43.8
X39.95Y-36.225
X39.975Y-38.725
X40.Y-79.8
X51.325Y-48.8
X51.9Y-102.3
X53.5Y-42.625
X53.6Y-40.
X53.6Y-44.95
X54.1Y-38.15
X57.4Y-40.
X57.55Y-42.625
X57.65Y-45.
X59.Y-96.9
X59.9Y-94.4
X60.8Y-91.9
X61.7Y-89.3
X62.6Y-91.8
X63.5Y-94.4
X63.75Y-67.28
X63.78Y-50.37
X64.2Y-96.9
X65.Y-99.5
X67.975Y-53.15
X68.025Y-54.5
X68.05Y-55.775
X72.Y-95.
X76.12Y-68.47
X76.15Y-44.55
X77.76Y-69.76
X77.78Y-46.55
X79.07Y-47.24
X79.07Y-51.36
X81.1Y-95.
X84.55Y-99.95
X85.4Y-121.5
X86.475Y-99.95
X87.7Y-24.3
X87.7Y-29.
X88.5Y-24.7
X88.5Y-27.275
X89.02Y-57.74
X89.3Y-25.1
X89.3Y-28.075
X90.Y-25.6
X90.58Y-56.74
X90.85Y-31.075
X91.825Y-31.05
X92.15Y-52.75
X92.15Y-54.175
X92.8Y-30.925
X95.34Y-68.76
X95.35Y-66.89
X95.35Y-67.81
X96.49Y-82.19
X97.68Y-82.87
T2
X31.8Y-110.5
X32.9Y-111.6
X34.Y-110.5
X48.575Y-87.95
X55.2Y-89.5
X72.7Y-106.7
X72.7Y-108.3
X73.5Y-107.5
X74.3Y-106.7
X74.3Y-108.3
X75.9Y-89.2
X75.9Y-95.9
X78.2Y-101.
X79.8Y-92.5
X83.8Y-89.2
X92.3Y-122.4
T3
X24.Y-15.73
X24.Y-18.27
X29.Y-15.73
X29.Y-18.27
X34.Y-15.73
X34.Y-18.27
X39.Y-15.73
X39.Y-18.27
X85.Y-15.73
X85.Y-18.27
X90.Y-15.73
X90.Y-18.27
X91.7Y-135.73
X91.7Y-138.27
X95.Y-15.73
X95.Y-18.27
X100.Y-15.73
X100.Y-18.27
T4
X19.89Y-74.45
X19.89Y-76.49
X19.89Y-78.53
X19.89Y-80.57
X21.67Y-73.43
X21.67Y-75.47
X21.67Y-77.51
X21.67Y-79.55
X48.43Y-19.89
X48.43Y-132.33
X49.45Y-21.67
X49.45Y-134.11
X50.47Y-19.89
X50.47Y-132.33
X51.49Y-21.67
X51.49Y-134.11
X52.51Y-19.89
X52.51Y-132.33
X53.53Y-21.67
X53.53Y-134.11
X54.55Y-19.89
X54.55Y-132.33
X55.57Y-21.67
X55.57Y-134.11
X68.43Y-19.89
X68.43Y-132.33
X69.45Y-21.67
X69.45Y-134.11
X70.47Y-19.89
X70.47Y-132.33
X71.49Y-21.67
X71.49Y-134.11
X72.51Y-19.89
X72.51Y-132.33
X73.53Y-21.67
X73.53Y-134.11
X74.55Y-19.89
X74.55Y-132.33
X75.57Y-21.67
X75.57Y-134.11
X102.33Y-29.45
X102.33Y-31.49
X102.33Y-33.53
X102.33Y-35.57
X102.33Y-49.45
X102.33Y-51.49
X102.33Y-53.53
X102.33Y-55.57
X102.33Y-69.45
X102.33Y-71.49
X102.33Y-73.53
X102.33Y-75.57
X102.33Y-89.45
X102.33Y-91.49
X102.33Y-93.53
X102.33Y-95.57
X102.33Y-119.45
X102.33Y-121.49
X102.33Y-123.53
X102.33Y-125.57
X104.11Y-28.43
X104.11Y-30.47
X104.11Y-32.51
X104.11Y-34.55
X104.11Y-48.43
X104.11Y-50.47
X104.11Y-52.51
X104.11Y-54.55
X104.11Y-68.43
X104.11Y-70.47
X104.11Y-72.51
X104.11Y-74.55
X104.11Y-88.43
X104.11Y-90.47
X104.11Y-92.51
X104.11Y-94.55
X104.11Y-118.43
X104.11Y-120.47
X104.11Y-122.51
X104.11Y-124.55
T5
X53.025Y-58.31
X53.025Y-60.85
X53.025Y-63.39
X79.93Y-107.675
X82.47Y-107.675
T6
X20.78Y-68.87
X20.78Y-85.13
X43.87Y-20.78
X43.87Y-133.22
X60.13Y-20.78
X60.13Y-133.22
X63.87Y-20.78
X63.87Y-133.22
X80.13Y-20.78
X80.13Y-133.22
X103.22Y-23.87
X103.22Y-40.13
X103.22Y-43.87
X103.22Y-60.13
X103.22Y-63.87
X103.22Y-80.13
X103.22Y-83.87
X103.22Y-100.13
X103.22Y-113.87
X103.22Y-130.13
T0
M30
