M48
;DRILL file {Pcbnew (2013-mar-13)-testing} date Tue 15 Oct 2013 18:35:20 BST
;FORMAT={-:-/ absolute / metric / decimal}
FMAT,2
METRIC,TZ
T1C0.200
T2C1.016
T3C3.000
%
G90
G05
M71
T1
X37.1Y-47.75
X38.53Y-60.76
X39.35Y-53.075
X39.525Y-60.775
X39.871Y-42.301
X39.875Y-37.775
X42.493Y-43.501
X42.862Y-45.739
X44.025Y-46.65
X44.174Y-43.719
X45.493Y-45.658
X45.575Y-72.025
X46.235Y-45.488
X47.25Y-45.675
X47.975Y-50.2
X49.825Y-47.575
X49.825Y-49.35
X51.641Y-62.781
X53.65Y-47.7
X55.981Y-52.761
X56.175Y-47.675
X57.34Y-62.42
X57.7Y-72.11
X57.95Y-64.2
X59.182Y-62.42
X59.625Y-45.825
X60.Y-63.6
X61.05Y-63.3
X61.9Y-58.96
X63.421Y-53.979
X64.718Y-49.27
X65.55Y-52.4
X67.38Y-48.52
X67.8Y-51.9
X69.35Y-47.625
X69.75Y-52.275
X70.65Y-52.35
X71.92Y-47.74
X72.675Y-47.9
X73.9Y-47.55
X75.439Y-47.57
X75.8Y-53.25
X76.44Y-53.66
X77.675Y-49.8
X78.23Y-41.37
X78.426Y-40.622
X78.737Y-42.467
X79.699Y-41.156
X79.725Y-64.3
X79.95Y-60.425
X80.443Y-39.987
X83.42Y-61.85
X83.537Y-40.472
X84.234Y-61.904
X85.002Y-38.097
X85.65Y-36.875
X85.65Y-39.
X85.874Y-57.485
X85.9Y-41.875
X86.133Y-45.865
X88.362Y-55.564
X88.569Y-45.759
X88.75Y-43.163
X88.85Y-58.229
X88.864Y-40.821
X88.879Y-42.453
X89.04Y-61.703
X89.045Y-60.188
X89.05Y-47.175
X89.343Y-58.81
X90.075Y-43.825
X90.418Y-59.776
X90.675Y-44.5
X91.392Y-52.325
X91.965Y-46.929
X92.665Y-47.192
X94.662Y-45.329
X96.82Y-52.38
X97.525Y-52.275
X99.35Y-47.925
X99.37Y-52.36
X100.65Y-52.4
X101.91Y-52.34
X103.268Y-47.537
X104.075Y-47.525
X105.044Y-48.573
X105.47Y-50.9
X105.687Y-51.628
X106.998Y-45.921
X108.54Y-57.89
X108.57Y-40.84
X111.075Y-53.925
X113.967Y-48.309
X114.328Y-50.074
X115.075Y-52.45
X116.527Y-48.045
X117.65Y-52.45
X118.92Y-47.58
X118.925Y-52.5
X120.175Y-47.625
X121.4Y-47.625
X122.354Y-45.526
X122.358Y-54.674
X123.Y-52.275
X123.805Y-45.706
X125.56Y-57.48
X125.68Y-59.76
X125.79Y-58.41
X126.173Y-44.709
X127.909Y-53.036
X128.164Y-44.193
X128.4Y-42.675
X129.51Y-54.154
X129.516Y-52.474
X129.688Y-46.783
T2
X46.555Y-55.535
X46.555Y-58.075
X46.555Y-60.615
X46.555Y-63.155
X46.555Y-65.695
X46.555Y-68.235
X46.555Y-70.775
X46.555Y-73.315
X49.095Y-55.535
X49.095Y-58.075
X49.095Y-60.615
X49.095Y-63.155
X49.095Y-65.695
X49.095Y-68.235
X49.095Y-70.775
X49.095Y-73.315
X53.155Y-55.535
X53.155Y-58.075
X53.155Y-60.615
X53.155Y-63.155
X53.155Y-65.695
X53.155Y-68.235
X53.155Y-70.775
X53.155Y-73.315
X55.695Y-55.535
X55.695Y-58.075
X55.695Y-60.615
X55.695Y-63.155
X55.695Y-65.695
X55.695Y-68.235
X55.695Y-70.775
X55.695Y-73.315
T3
X40.Y-30.
X40.Y-70.
X130.Y-30.
X130.Y-70.
T0
M30
