G04 (created by PCBNEW (2013-07-07 BZR 4022)-stable) date 18/09/2013 13:55:04*
%MOIN*%
G04 Gerber Fmt 3.4, Leading zero omitted, Abs format*
%FSLAX34Y34*%
G01*
G70*
G90*
G04 APERTURE LIST*
%ADD10C,0.00590551*%
%ADD11R,0.0348425X0.0598425*%
%ADD12R,0.033474X0.019674*%
%ADD13R,0.0354425X0.0216425*%
%ADD14R,0.019674X0.033474*%
%ADD15C,0.246063*%
%ADD16C,0.0688976*%
%ADD17R,0.0448425X0.0648425*%
%ADD18R,0.0648425X0.0448425*%
%ADD19C,0.153543*%
%ADD20C,0.0689425*%
%ADD21C,0.0964567*%
%ADD22R,0.0374425X0.0728425*%
%ADD23R,0.0374425X0.0925425*%
%ADD24R,0.0885425X0.118143*%
G04 APERTURE END LIST*
G54D10*
G54D11*
X35889Y-13466D03*
X35389Y-13466D03*
X34889Y-13466D03*
X34389Y-13466D03*
X33889Y-13466D03*
X33389Y-13466D03*
X32889Y-13466D03*
X32889Y-15666D03*
X33389Y-15666D03*
X33889Y-15666D03*
X34389Y-15666D03*
X34889Y-15666D03*
X35389Y-15666D03*
X35889Y-15666D03*
X18840Y-15666D03*
X19340Y-15666D03*
X19840Y-15666D03*
X20340Y-15666D03*
X20840Y-15666D03*
X21340Y-15666D03*
X21840Y-15666D03*
X22340Y-15666D03*
X22340Y-13466D03*
X21840Y-13466D03*
X21340Y-13466D03*
X20840Y-13466D03*
X20340Y-13466D03*
X19840Y-13466D03*
X19340Y-13466D03*
X18840Y-13466D03*
X25828Y-15686D03*
X26328Y-15686D03*
X26828Y-15686D03*
X27328Y-15686D03*
X27828Y-15686D03*
X28328Y-15686D03*
X28828Y-15686D03*
X29328Y-15686D03*
X29328Y-13486D03*
X28828Y-13486D03*
X28328Y-13486D03*
X27828Y-13486D03*
X27328Y-13486D03*
X26828Y-13486D03*
X26328Y-13486D03*
X25828Y-13486D03*
G54D12*
X18905Y-10000D03*
X18905Y-10197D03*
X18905Y-10394D03*
X18905Y-10591D03*
X19358Y-10591D03*
X19358Y-10394D03*
X19358Y-10197D03*
X19358Y-10000D03*
X11819Y-18267D03*
X11819Y-18464D03*
X11819Y-18661D03*
X11819Y-18858D03*
X12272Y-18858D03*
X12272Y-18661D03*
X12272Y-18464D03*
X12272Y-18267D03*
X36051Y-10472D03*
X36051Y-10669D03*
X36051Y-10866D03*
X36051Y-11063D03*
X36504Y-11063D03*
X36504Y-10866D03*
X36504Y-10669D03*
X36504Y-10472D03*
G54D13*
X39201Y-17697D03*
X39201Y-17894D03*
X39201Y-18091D03*
X39201Y-18288D03*
X39654Y-18288D03*
X39654Y-18091D03*
X39654Y-17894D03*
X39654Y-17697D03*
G54D12*
X11819Y-19547D03*
X11819Y-19744D03*
X11819Y-19941D03*
X11819Y-20138D03*
X12272Y-20138D03*
X12272Y-19941D03*
X12272Y-19744D03*
X12272Y-19547D03*
G54D14*
X13386Y-9696D03*
X13583Y-9696D03*
X13780Y-9696D03*
X13977Y-9696D03*
X13977Y-9243D03*
X13780Y-9243D03*
X13583Y-9243D03*
X13386Y-9243D03*
G54D12*
X36507Y-9684D03*
X36507Y-9487D03*
X36507Y-9290D03*
X36507Y-9093D03*
X36054Y-9093D03*
X36054Y-9290D03*
X36054Y-9487D03*
X36054Y-9684D03*
G54D15*
X6692Y-6692D03*
X6692Y-22440D03*
X42125Y-22440D03*
X42125Y-6692D03*
G54D16*
X41625Y-16791D03*
X42625Y-16791D03*
X9527Y-6917D03*
X9527Y-5917D03*
X41625Y-19311D03*
X42625Y-19311D03*
X12283Y-6917D03*
X12283Y-5917D03*
X15039Y-6917D03*
X15039Y-5917D03*
X17795Y-6917D03*
X17795Y-5917D03*
G54D17*
X29034Y-18464D03*
X29784Y-18464D03*
G54D18*
X33425Y-17695D03*
X33425Y-18445D03*
G54D19*
X21909Y-6811D03*
X26909Y-6811D03*
G54D20*
X23003Y-7811D03*
X23405Y-8511D03*
X23807Y-7811D03*
X24208Y-8511D03*
X24610Y-7811D03*
X25011Y-8511D03*
X25413Y-7811D03*
X25814Y-8511D03*
G54D21*
X21208Y-8161D03*
X27610Y-8161D03*
G54D19*
X6830Y-14330D03*
X6830Y-9330D03*
G54D20*
X7830Y-13236D03*
X8531Y-12834D03*
X7830Y-12433D03*
X8531Y-12031D03*
X7830Y-11629D03*
X8531Y-11228D03*
X7830Y-10826D03*
X8531Y-10425D03*
G54D21*
X8181Y-15031D03*
X8181Y-8629D03*
G54D19*
X42007Y-9330D03*
X42007Y-14330D03*
G54D20*
X41007Y-10425D03*
X40307Y-10826D03*
X41007Y-11228D03*
X40307Y-11629D03*
X41007Y-12031D03*
X40307Y-12433D03*
X41007Y-12834D03*
X40307Y-13236D03*
G54D21*
X40657Y-8629D03*
X40657Y-15031D03*
G54D19*
X19232Y-22322D03*
X14232Y-22322D03*
G54D20*
X18137Y-21322D03*
X17736Y-20622D03*
X17334Y-21322D03*
X16933Y-20622D03*
X16531Y-21322D03*
X16129Y-20622D03*
X15728Y-21322D03*
X15326Y-20622D03*
G54D21*
X19933Y-20972D03*
X13531Y-20972D03*
G54D19*
X29586Y-6811D03*
X34586Y-6811D03*
G54D20*
X30681Y-7811D03*
X31082Y-8511D03*
X31484Y-7811D03*
X31885Y-8511D03*
X32287Y-7811D03*
X32688Y-8511D03*
X33090Y-7811D03*
X33492Y-8511D03*
G54D21*
X28885Y-8161D03*
X35287Y-8161D03*
G54D19*
X26909Y-22322D03*
X21909Y-22322D03*
G54D20*
X25814Y-21322D03*
X25413Y-20622D03*
X25011Y-21322D03*
X24610Y-20622D03*
X24208Y-21322D03*
X23807Y-20622D03*
X23405Y-21322D03*
X23003Y-20622D03*
G54D21*
X27610Y-20972D03*
X21208Y-20972D03*
G54D22*
X32165Y-17677D03*
G54D23*
X31574Y-17775D03*
G54D22*
X30983Y-17677D03*
G54D24*
X31574Y-18720D03*
M02*
