G04 (created by PCBNEW (2013-07-07 BZR 4022)-stable) date 18/09/2013 13:55:04*
%MOIN*%
G04 Gerber Fmt 3.4, Leading zero omitted, Abs format*
%FSLAX34Y34*%
G01*
G70*
G90*
G04 APERTURE LIST*
%ADD10C,0.00590551*%
%ADD11R,0.025X0.05*%
%ADD12R,0.0256X0.0118*%
%ADD13R,0.0118X0.0256*%
%ADD14R,0.035X0.055*%
%ADD15R,0.055X0.035*%
%ADD16R,0.0276X0.063*%
%ADD17R,0.0276X0.0827*%
%ADD18R,0.0787X0.1083*%
G04 APERTURE END LIST*
G54D10*
G54D11*
X35889Y-13466D03*
X35389Y-13466D03*
X34889Y-13466D03*
X34389Y-13466D03*
X33889Y-13466D03*
X33389Y-13466D03*
X32889Y-13466D03*
X32889Y-15666D03*
X33389Y-15666D03*
X33889Y-15666D03*
X34389Y-15666D03*
X34889Y-15666D03*
X35389Y-15666D03*
X35889Y-15666D03*
X18840Y-15666D03*
X19340Y-15666D03*
X19840Y-15666D03*
X20340Y-15666D03*
X20840Y-15666D03*
X21340Y-15666D03*
X21840Y-15666D03*
X22340Y-15666D03*
X22340Y-13466D03*
X21840Y-13466D03*
X21340Y-13466D03*
X20840Y-13466D03*
X20340Y-13466D03*
X19840Y-13466D03*
X19340Y-13466D03*
X18840Y-13466D03*
X25828Y-15686D03*
X26328Y-15686D03*
X26828Y-15686D03*
X27328Y-15686D03*
X27828Y-15686D03*
X28328Y-15686D03*
X28828Y-15686D03*
X29328Y-15686D03*
X29328Y-13486D03*
X28828Y-13486D03*
X28328Y-13486D03*
X27828Y-13486D03*
X27328Y-13486D03*
X26828Y-13486D03*
X26328Y-13486D03*
X25828Y-13486D03*
G54D12*
X18905Y-10000D03*
X18905Y-10197D03*
X18905Y-10394D03*
X18905Y-10591D03*
X19358Y-10591D03*
X19358Y-10394D03*
X19358Y-10197D03*
X19358Y-10000D03*
X11819Y-18267D03*
X11819Y-18464D03*
X11819Y-18661D03*
X11819Y-18858D03*
X12272Y-18858D03*
X12272Y-18661D03*
X12272Y-18464D03*
X12272Y-18267D03*
X36051Y-10472D03*
X36051Y-10669D03*
X36051Y-10866D03*
X36051Y-11063D03*
X36504Y-11063D03*
X36504Y-10866D03*
X36504Y-10669D03*
X36504Y-10472D03*
X39201Y-17697D03*
X39201Y-17894D03*
X39201Y-18091D03*
X39201Y-18288D03*
X39654Y-18288D03*
X39654Y-18091D03*
X39654Y-17894D03*
X39654Y-17697D03*
X11819Y-19547D03*
X11819Y-19744D03*
X11819Y-19941D03*
X11819Y-20138D03*
X12272Y-20138D03*
X12272Y-19941D03*
X12272Y-19744D03*
X12272Y-19547D03*
G54D13*
X13386Y-9696D03*
X13583Y-9696D03*
X13780Y-9696D03*
X13977Y-9696D03*
X13977Y-9243D03*
X13780Y-9243D03*
X13583Y-9243D03*
X13386Y-9243D03*
G54D12*
X36507Y-9684D03*
X36507Y-9487D03*
X36507Y-9290D03*
X36507Y-9093D03*
X36054Y-9093D03*
X36054Y-9290D03*
X36054Y-9487D03*
X36054Y-9684D03*
G54D14*
X29034Y-18464D03*
X29784Y-18464D03*
G54D15*
X33425Y-17695D03*
X33425Y-18445D03*
G54D16*
X32165Y-17677D03*
G54D17*
X31574Y-17775D03*
G54D16*
X30983Y-17677D03*
G54D18*
X31574Y-18720D03*
M02*
