G04 (created by PCBNEW (2013-07-07 BZR 4022)-stable) date 18/09/2013 13:55:04*
%MOIN*%
G04 Gerber Fmt 3.4, Leading zero omitted, Abs format*
%FSLAX34Y34*%
G01*
G70*
G90*
G04 APERTURE LIST*
%ADD10C,0.00590551*%
%ADD11C,0.246063*%
%ADD12C,0.0688976*%
%ADD13C,0.153543*%
%ADD14C,0.0689425*%
%ADD15C,0.0964567*%
G04 APERTURE END LIST*
G54D10*
%LPC*%
G54D11*
X6692Y-6692D03*
X6692Y-22440D03*
X42125Y-22440D03*
X42125Y-6692D03*
G54D12*
X41625Y-16791D03*
X42625Y-16791D03*
X9527Y-6917D03*
X9527Y-5917D03*
X41625Y-19311D03*
X42625Y-19311D03*
X12283Y-6917D03*
X12283Y-5917D03*
X15039Y-6917D03*
X15039Y-5917D03*
X17795Y-6917D03*
X17795Y-5917D03*
G54D13*
X21909Y-6811D03*
X26909Y-6811D03*
G54D14*
X23003Y-7811D03*
X23405Y-8511D03*
X23807Y-7811D03*
X24208Y-8511D03*
X24610Y-7811D03*
X25011Y-8511D03*
X25413Y-7811D03*
X25814Y-8511D03*
G54D15*
X21208Y-8161D03*
X27610Y-8161D03*
G54D13*
X6830Y-14330D03*
X6830Y-9330D03*
G54D14*
X7830Y-13236D03*
X8531Y-12834D03*
X7830Y-12433D03*
X8531Y-12031D03*
X7830Y-11629D03*
X8531Y-11228D03*
X7830Y-10826D03*
X8531Y-10425D03*
G54D15*
X8181Y-15031D03*
X8181Y-8629D03*
G54D13*
X42007Y-9330D03*
X42007Y-14330D03*
G54D14*
X41007Y-10425D03*
X40307Y-10826D03*
X41007Y-11228D03*
X40307Y-11629D03*
X41007Y-12031D03*
X40307Y-12433D03*
X41007Y-12834D03*
X40307Y-13236D03*
G54D15*
X40657Y-8629D03*
X40657Y-15031D03*
G54D13*
X19232Y-22322D03*
X14232Y-22322D03*
G54D14*
X18137Y-21322D03*
X17736Y-20622D03*
X17334Y-21322D03*
X16933Y-20622D03*
X16531Y-21322D03*
X16129Y-20622D03*
X15728Y-21322D03*
X15326Y-20622D03*
G54D15*
X19933Y-20972D03*
X13531Y-20972D03*
G54D13*
X29586Y-6811D03*
X34586Y-6811D03*
G54D14*
X30681Y-7811D03*
X31082Y-8511D03*
X31484Y-7811D03*
X31885Y-8511D03*
X32287Y-7811D03*
X32688Y-8511D03*
X33090Y-7811D03*
X33492Y-8511D03*
G54D15*
X28885Y-8161D03*
X35287Y-8161D03*
G54D13*
X26909Y-22322D03*
X21909Y-22322D03*
G54D14*
X25814Y-21322D03*
X25413Y-20622D03*
X25011Y-21322D03*
X24610Y-20622D03*
X24208Y-21322D03*
X23807Y-20622D03*
X23405Y-21322D03*
X23003Y-20622D03*
G54D15*
X27610Y-20972D03*
X21208Y-20972D03*
M02*
