G04 (created by PCBNEW (2013-07-07 BZR 4022)-stable) date 18/09/2013 13:55:04*
%MOIN*%
G04 Gerber Fmt 3.4, Leading zero omitted, Abs format*
%FSLAX34Y34*%
G01*
G70*
G90*
G04 APERTURE LIST*
%ADD10C,0.00590551*%
%ADD11R,0.025X0.05*%
%ADD12R,0.0256X0.0118*%
%ADD13R,0.0118X0.0256*%
%ADD14C,0.23622*%
%ADD15C,0.0590551*%
%ADD16R,0.035X0.055*%
%ADD17R,0.055X0.035*%
%ADD18C,0.1437*%
%ADD19C,0.0591*%
%ADD20C,0.0866142*%
%ADD21R,0.0276X0.063*%
%ADD22R,0.0276X0.0827*%
%ADD23R,0.0787X0.1083*%
%ADD24C,0.0314961*%
%ADD25C,0.0255906*%
%ADD26C,0.0393701*%
%ADD27C,0.019685*%
%ADD28C,0.00787402*%
%ADD29C,0.01*%
G04 APERTURE END LIST*
G54D10*
G54D11*
X35889Y-13466D03*
X35389Y-13466D03*
X34889Y-13466D03*
X34389Y-13466D03*
X33889Y-13466D03*
X33389Y-13466D03*
X32889Y-13466D03*
X32889Y-15666D03*
X33389Y-15666D03*
X33889Y-15666D03*
X34389Y-15666D03*
X34889Y-15666D03*
X35389Y-15666D03*
X35889Y-15666D03*
X18840Y-15666D03*
X19340Y-15666D03*
X19840Y-15666D03*
X20340Y-15666D03*
X20840Y-15666D03*
X21340Y-15666D03*
X21840Y-15666D03*
X22340Y-15666D03*
X22340Y-13466D03*
X21840Y-13466D03*
X21340Y-13466D03*
X20840Y-13466D03*
X20340Y-13466D03*
X19840Y-13466D03*
X19340Y-13466D03*
X18840Y-13466D03*
X25828Y-15686D03*
X26328Y-15686D03*
X26828Y-15686D03*
X27328Y-15686D03*
X27828Y-15686D03*
X28328Y-15686D03*
X28828Y-15686D03*
X29328Y-15686D03*
X29328Y-13486D03*
X28828Y-13486D03*
X28328Y-13486D03*
X27828Y-13486D03*
X27328Y-13486D03*
X26828Y-13486D03*
X26328Y-13486D03*
X25828Y-13486D03*
G54D12*
X18905Y-10000D03*
X18905Y-10197D03*
X18905Y-10394D03*
X18905Y-10591D03*
X19358Y-10591D03*
X19358Y-10394D03*
X19358Y-10197D03*
X19358Y-10000D03*
X11819Y-18267D03*
X11819Y-18464D03*
X11819Y-18661D03*
X11819Y-18858D03*
X12272Y-18858D03*
X12272Y-18661D03*
X12272Y-18464D03*
X12272Y-18267D03*
X36051Y-10472D03*
X36051Y-10669D03*
X36051Y-10866D03*
X36051Y-11063D03*
X36504Y-11063D03*
X36504Y-10866D03*
X36504Y-10669D03*
X36504Y-10472D03*
X39201Y-17697D03*
X39201Y-17894D03*
X39201Y-18091D03*
X39201Y-18288D03*
X39654Y-18288D03*
X39654Y-18091D03*
X39654Y-17894D03*
X39654Y-17697D03*
X11819Y-19547D03*
X11819Y-19744D03*
X11819Y-19941D03*
X11819Y-20138D03*
X12272Y-20138D03*
X12272Y-19941D03*
X12272Y-19744D03*
X12272Y-19547D03*
G54D13*
X13386Y-9696D03*
X13583Y-9696D03*
X13780Y-9696D03*
X13977Y-9696D03*
X13977Y-9243D03*
X13780Y-9243D03*
X13583Y-9243D03*
X13386Y-9243D03*
G54D12*
X36507Y-9684D03*
X36507Y-9487D03*
X36507Y-9290D03*
X36507Y-9093D03*
X36054Y-9093D03*
X36054Y-9290D03*
X36054Y-9487D03*
X36054Y-9684D03*
G54D14*
X6692Y-6692D03*
X6692Y-22440D03*
X42125Y-22440D03*
X42125Y-6692D03*
G54D15*
X41625Y-16791D03*
X42625Y-16791D03*
X9527Y-6917D03*
X9527Y-5917D03*
X41625Y-19311D03*
X42625Y-19311D03*
X12283Y-6917D03*
X12283Y-5917D03*
X15039Y-6917D03*
X15039Y-5917D03*
X17795Y-6917D03*
X17795Y-5917D03*
G54D16*
X29034Y-18464D03*
X29784Y-18464D03*
G54D17*
X33425Y-17695D03*
X33425Y-18445D03*
G54D18*
X21909Y-6811D03*
X26909Y-6811D03*
G54D19*
X23003Y-7811D03*
X23405Y-8511D03*
X23807Y-7811D03*
X24208Y-8511D03*
X24610Y-7811D03*
X25011Y-8511D03*
X25413Y-7811D03*
X25814Y-8511D03*
G54D20*
X21208Y-8161D03*
X27610Y-8161D03*
G54D18*
X6830Y-14330D03*
X6830Y-9330D03*
G54D19*
X7830Y-13236D03*
X8531Y-12834D03*
X7830Y-12433D03*
X8531Y-12031D03*
X7830Y-11629D03*
X8531Y-11228D03*
X7830Y-10826D03*
X8531Y-10425D03*
G54D20*
X8181Y-15031D03*
X8181Y-8629D03*
G54D18*
X42007Y-9330D03*
X42007Y-14330D03*
G54D19*
X41007Y-10425D03*
X40307Y-10826D03*
X41007Y-11228D03*
X40307Y-11629D03*
X41007Y-12031D03*
X40307Y-12433D03*
X41007Y-12834D03*
X40307Y-13236D03*
G54D20*
X40657Y-8629D03*
X40657Y-15031D03*
G54D18*
X19232Y-22322D03*
X14232Y-22322D03*
G54D19*
X18137Y-21322D03*
X17736Y-20622D03*
X17334Y-21322D03*
X16933Y-20622D03*
X16531Y-21322D03*
X16129Y-20622D03*
X15728Y-21322D03*
X15326Y-20622D03*
G54D20*
X19933Y-20972D03*
X13531Y-20972D03*
G54D18*
X29586Y-6811D03*
X34586Y-6811D03*
G54D19*
X30681Y-7811D03*
X31082Y-8511D03*
X31484Y-7811D03*
X31885Y-8511D03*
X32287Y-7811D03*
X32688Y-8511D03*
X33090Y-7811D03*
X33492Y-8511D03*
G54D20*
X28885Y-8161D03*
X35287Y-8161D03*
G54D18*
X26909Y-22322D03*
X21909Y-22322D03*
G54D19*
X25814Y-21322D03*
X25413Y-20622D03*
X25011Y-21322D03*
X24610Y-20622D03*
X24208Y-21322D03*
X23807Y-20622D03*
X23405Y-21322D03*
X23003Y-20622D03*
G54D20*
X27610Y-20972D03*
X21208Y-20972D03*
G54D21*
X32165Y-17677D03*
G54D22*
X31574Y-17775D03*
G54D21*
X30983Y-17677D03*
G54D23*
X31574Y-18720D03*
G54D24*
X29685Y-22460D03*
X29271Y-22874D03*
X30098Y-22874D03*
X29685Y-22874D03*
G54D25*
X28582Y-14862D03*
X16476Y-16555D03*
X16141Y-16889D03*
X31673Y-12637D03*
X37086Y-9685D03*
X33503Y-10374D03*
X27322Y-16535D03*
X19330Y-16535D03*
X20866Y-15137D03*
X28818Y-15137D03*
X25393Y-18562D03*
X25098Y-18326D03*
X28326Y-16259D03*
X24291Y-18523D03*
X17334Y-9696D03*
X20334Y-14035D03*
X17086Y-10000D03*
X22736Y-12047D03*
X20826Y-12303D03*
X16850Y-10275D03*
X25826Y-14586D03*
X33877Y-14586D03*
X18858Y-14291D03*
X18858Y-15137D03*
X33385Y-15137D03*
G54D24*
X32007Y-16653D03*
X31102Y-16653D03*
X31574Y-16653D03*
X33889Y-16267D03*
X30291Y-14212D03*
X24488Y-12834D03*
X26318Y-12834D03*
X29862Y-15688D03*
G54D25*
X21338Y-14035D03*
X29330Y-14035D03*
X19842Y-14291D03*
X27834Y-14291D03*
X40255Y-17696D03*
X21515Y-11496D03*
X16062Y-11496D03*
X38267Y-12440D03*
X15787Y-11122D03*
X21515Y-11122D03*
X36988Y-13248D03*
X40944Y-17972D03*
G54D24*
X34881Y-19251D03*
X35590Y-19251D03*
X23425Y-13385D03*
X23425Y-16929D03*
X25826Y-12401D03*
X32775Y-16673D03*
X35885Y-16259D03*
X32303Y-14153D03*
X18838Y-12854D03*
G54D26*
X29685Y-22460D02*
X29685Y-20433D01*
X29685Y-20433D02*
X28188Y-18937D01*
X25814Y-21322D02*
X25814Y-21311D01*
X25814Y-21311D02*
X28188Y-18937D01*
X28188Y-18937D02*
X28661Y-18464D01*
X28661Y-18464D02*
X29034Y-18464D01*
G54D27*
X30983Y-17677D02*
X29330Y-17677D01*
X29330Y-17677D02*
X29034Y-17973D01*
X29034Y-17973D02*
X29034Y-18464D01*
G54D26*
X29685Y-22460D02*
X30098Y-22874D01*
X30098Y-22874D02*
X29271Y-22874D01*
X29271Y-22874D02*
X29685Y-22460D01*
G54D27*
X29429Y-22716D02*
X29940Y-22716D01*
X30098Y-22874D02*
X29271Y-22874D01*
X29685Y-22460D02*
X29429Y-22716D01*
X29429Y-22716D02*
X29271Y-22874D01*
X30098Y-22874D02*
X29940Y-22716D01*
X29940Y-22716D02*
X29685Y-22460D01*
X29685Y-22460D02*
X29685Y-22440D01*
X29685Y-22440D02*
X29685Y-22598D01*
X29685Y-22598D02*
X29685Y-22874D01*
G54D28*
X28828Y-13486D02*
X28828Y-14616D01*
X28828Y-14616D02*
X28582Y-14862D01*
X12272Y-19547D02*
X16661Y-19547D01*
X16661Y-19547D02*
X17736Y-20622D01*
X20340Y-13466D02*
X20340Y-12624D01*
X16476Y-13208D02*
X16476Y-16555D01*
X17677Y-12007D02*
X16476Y-13208D01*
X19724Y-12007D02*
X17677Y-12007D01*
X20340Y-12624D02*
X19724Y-12007D01*
X12272Y-19744D02*
X16055Y-19744D01*
X16055Y-19744D02*
X16933Y-20622D01*
X21840Y-12470D02*
X21840Y-13466D01*
X21141Y-11771D02*
X21840Y-12470D01*
X17519Y-11771D02*
X21141Y-11771D01*
X16141Y-13149D02*
X17519Y-11771D01*
X16141Y-16889D02*
X16141Y-13149D01*
X12272Y-19941D02*
X15449Y-19941D01*
X15449Y-19941D02*
X16129Y-20622D01*
X30826Y-15925D02*
X30826Y-13484D01*
X30826Y-13484D02*
X31673Y-12637D01*
X26417Y-16889D02*
X26417Y-16909D01*
X26417Y-16909D02*
X26328Y-16998D01*
X26417Y-16889D02*
X26417Y-16870D01*
X26417Y-16870D02*
X26328Y-16781D01*
X29862Y-16889D02*
X30826Y-15925D01*
X26328Y-16889D02*
X26417Y-16889D01*
X26417Y-16889D02*
X29862Y-16889D01*
X26328Y-15686D02*
X26328Y-16781D01*
X26328Y-16781D02*
X26328Y-16889D01*
X26328Y-16889D02*
X26328Y-16998D01*
X26328Y-16998D02*
X26328Y-19706D01*
X26328Y-19706D02*
X25413Y-20622D01*
X12272Y-18267D02*
X23059Y-18267D01*
X23059Y-18267D02*
X25413Y-20622D01*
X29192Y-16535D02*
X29822Y-16535D01*
X30629Y-15728D02*
X30629Y-13248D01*
X29822Y-16535D02*
X30629Y-15728D01*
X30846Y-13031D02*
X30629Y-13248D01*
X37086Y-9684D02*
X37086Y-9685D01*
X36507Y-9684D02*
X37086Y-9684D01*
X30846Y-13031D02*
X33503Y-10374D01*
X29173Y-16535D02*
X29192Y-16535D01*
X29074Y-16535D02*
X27322Y-16535D01*
X29074Y-16535D02*
X29173Y-16535D01*
X27322Y-16535D02*
X27322Y-15692D01*
X27322Y-15692D02*
X27328Y-15686D01*
X19340Y-15666D02*
X19340Y-16525D01*
X19340Y-16525D02*
X19330Y-16535D01*
X36507Y-9093D02*
X37243Y-9093D01*
X37185Y-10078D02*
X33326Y-10078D01*
X37401Y-9862D02*
X37185Y-10078D01*
X37401Y-9251D02*
X37401Y-9862D01*
X37243Y-9093D02*
X37401Y-9251D01*
X30019Y-13937D02*
X28818Y-15137D01*
X30019Y-13385D02*
X30019Y-13937D01*
X33326Y-10078D02*
X30019Y-13385D01*
X28828Y-15686D02*
X28828Y-15147D01*
X20840Y-15163D02*
X20840Y-15666D01*
X20866Y-15137D02*
X20840Y-15163D01*
X28828Y-15147D02*
X28818Y-15137D01*
X25393Y-16811D02*
X25393Y-18562D01*
X25669Y-14291D02*
X25393Y-14566D01*
X26732Y-15078D02*
X25944Y-14291D01*
X25393Y-16811D02*
X25393Y-14566D01*
X25944Y-14291D02*
X25669Y-14291D01*
X12272Y-18464D02*
X22453Y-18464D01*
X22453Y-18464D02*
X24610Y-20622D01*
X26828Y-15175D02*
X26832Y-15175D01*
X26832Y-15175D02*
X26929Y-15078D01*
X26828Y-15196D02*
X26828Y-15175D01*
X26828Y-15175D02*
X26732Y-15078D01*
X26828Y-15078D02*
X26732Y-15078D01*
X27598Y-15078D02*
X26929Y-15078D01*
X27828Y-15309D02*
X27598Y-15078D01*
X27828Y-15686D02*
X27828Y-15309D01*
X26929Y-15078D02*
X26828Y-15078D01*
X26828Y-15686D02*
X26828Y-15196D01*
X26828Y-15196D02*
X26828Y-15078D01*
X26909Y-13937D02*
X26751Y-13937D01*
X26828Y-13856D02*
X26828Y-13860D01*
X26828Y-13860D02*
X26751Y-13937D01*
X26751Y-13937D02*
X26594Y-14094D01*
X26594Y-14094D02*
X25511Y-14094D01*
X25098Y-14507D02*
X25098Y-16692D01*
X25511Y-14094D02*
X25098Y-14507D01*
X26828Y-13486D02*
X26828Y-13856D01*
X28328Y-15356D02*
X26909Y-13937D01*
X26909Y-13937D02*
X26828Y-13856D01*
X28328Y-15356D02*
X28328Y-15686D01*
X25098Y-16692D02*
X25098Y-18326D01*
X12272Y-18661D02*
X21847Y-18661D01*
X21847Y-18661D02*
X23807Y-20622D01*
X28328Y-15686D02*
X28328Y-16257D01*
X28328Y-16257D02*
X28326Y-16259D01*
X25098Y-16692D02*
X25098Y-16693D01*
X26206Y-12061D02*
X25340Y-12061D01*
X25340Y-12061D02*
X25334Y-12066D01*
X24822Y-13248D02*
X24822Y-12578D01*
X24822Y-17992D02*
X24822Y-13661D01*
X24291Y-18523D02*
X24822Y-17992D01*
X24822Y-13661D02*
X24822Y-13248D01*
X24822Y-12578D02*
X25334Y-12066D01*
X26206Y-12061D02*
X26625Y-12480D01*
X26625Y-12480D02*
X27255Y-13110D01*
X27401Y-13110D02*
X27255Y-13110D01*
X27255Y-13110D02*
X27328Y-13183D01*
X12272Y-18858D02*
X21240Y-18858D01*
X21240Y-18858D02*
X23003Y-20622D01*
X27328Y-13486D02*
X27328Y-13183D01*
X28328Y-13171D02*
X28328Y-13486D01*
X27328Y-13183D02*
X27401Y-13110D01*
X27401Y-13110D02*
X27578Y-12933D01*
X27578Y-12933D02*
X28090Y-12933D01*
X28090Y-12933D02*
X28328Y-13171D01*
X18905Y-10000D02*
X17638Y-10000D01*
X17638Y-10000D02*
X17334Y-9696D01*
X17334Y-9696D02*
X14479Y-9696D01*
X14479Y-9696D02*
X13977Y-9696D01*
X17638Y-10000D02*
X17334Y-9696D01*
X20340Y-15666D02*
X20340Y-14041D01*
X20340Y-14041D02*
X20334Y-14035D01*
X17086Y-10000D02*
X13877Y-10000D01*
X13877Y-10000D02*
X13780Y-9902D01*
X13780Y-9902D02*
X13780Y-9696D01*
X18905Y-10197D02*
X17283Y-10197D01*
X17283Y-10197D02*
X17086Y-10000D01*
X21840Y-15029D02*
X22736Y-14133D01*
X22736Y-14133D02*
X22736Y-12047D01*
X21840Y-15666D02*
X21840Y-15029D01*
X20826Y-12303D02*
X20840Y-12316D01*
X20840Y-13466D02*
X20840Y-12316D01*
X16850Y-10275D02*
X13838Y-10275D01*
X13583Y-10020D02*
X13583Y-9696D01*
X13838Y-10275D02*
X13583Y-10020D01*
X18905Y-10394D02*
X16969Y-10394D01*
X16969Y-10394D02*
X16850Y-10275D01*
X19015Y-10866D02*
X18905Y-10756D01*
X22340Y-11948D02*
X22340Y-11494D01*
X21712Y-10866D02*
X19015Y-10866D01*
X22340Y-11494D02*
X21712Y-10866D01*
X18905Y-10591D02*
X13839Y-10591D01*
X13386Y-10138D02*
X13386Y-9696D01*
X13839Y-10591D02*
X13386Y-10138D01*
X22340Y-13466D02*
X22340Y-11948D01*
X18905Y-10591D02*
X18905Y-10756D01*
X36504Y-10472D02*
X39953Y-10472D01*
X39953Y-10472D02*
X40307Y-10826D01*
X25826Y-14586D02*
X25826Y-15684D01*
X25826Y-15684D02*
X25828Y-15686D01*
X33889Y-13466D02*
X33889Y-14574D01*
X33889Y-14574D02*
X33877Y-14586D01*
X36504Y-11063D02*
X39740Y-11063D01*
X39740Y-11063D02*
X40307Y-11629D01*
X18858Y-15137D02*
X18858Y-14291D01*
X33389Y-15666D02*
X33389Y-15141D01*
X18840Y-15155D02*
X18840Y-15666D01*
X18858Y-15137D02*
X18840Y-15155D01*
X33389Y-15141D02*
X33385Y-15137D01*
G54D27*
X31574Y-18720D02*
X30531Y-18720D01*
X30531Y-18720D02*
X30275Y-18464D01*
X30275Y-18464D02*
X29784Y-18464D01*
X31574Y-18720D02*
X32697Y-18720D01*
X32697Y-18720D02*
X32971Y-18445D01*
X32971Y-18445D02*
X33425Y-18445D01*
G54D26*
X31574Y-18720D02*
X31574Y-20078D01*
X31574Y-18720D02*
X32500Y-18720D01*
X32500Y-18720D02*
X32519Y-18700D01*
X31574Y-18720D02*
X30570Y-18720D01*
X30570Y-18720D02*
X30551Y-18700D01*
G54D27*
X31574Y-17204D02*
X31574Y-17086D01*
X31574Y-17086D02*
X32007Y-16653D01*
X31574Y-17775D02*
X31574Y-17204D01*
X31574Y-17204D02*
X31574Y-17125D01*
X31574Y-17125D02*
X31102Y-16653D01*
X31574Y-17775D02*
X31574Y-16653D01*
X33090Y-7811D02*
X33090Y-6397D01*
X41606Y-10629D02*
X41007Y-11228D01*
X42755Y-10629D02*
X41606Y-10629D01*
X43385Y-10000D02*
X42755Y-10629D01*
X43385Y-8779D02*
X43385Y-10000D01*
X42834Y-8228D02*
X43385Y-8779D01*
X41417Y-8228D02*
X42834Y-8228D01*
X38503Y-5314D02*
X41417Y-8228D01*
X38307Y-5314D02*
X38503Y-5314D01*
X34173Y-5314D02*
X38307Y-5314D01*
X33090Y-6397D02*
X34173Y-5314D01*
X30118Y-7795D02*
X30118Y-8622D01*
X24488Y-11496D02*
X24488Y-12834D01*
X24488Y-10748D02*
X24488Y-11496D01*
X25275Y-9960D02*
X24488Y-10748D01*
X28779Y-9960D02*
X25275Y-9960D01*
X30118Y-8622D02*
X28779Y-9960D01*
X25413Y-7811D02*
X25413Y-6279D01*
X31484Y-6956D02*
X31484Y-7811D01*
X29921Y-5393D02*
X31484Y-6956D01*
X26299Y-5393D02*
X29921Y-5393D01*
X25413Y-6279D02*
X26299Y-5393D01*
X24488Y-12834D02*
X23385Y-12834D01*
X22620Y-15666D02*
X22340Y-15666D01*
X23031Y-15255D02*
X22620Y-15666D01*
X23031Y-13188D02*
X23031Y-15255D01*
X23385Y-12834D02*
X23031Y-13188D01*
X33889Y-16267D02*
X34696Y-16267D01*
X34889Y-16074D02*
X34889Y-15666D01*
X34696Y-16267D02*
X34889Y-16074D01*
X35389Y-13466D02*
X35389Y-13047D01*
X34389Y-13051D02*
X34389Y-13466D01*
X34527Y-12913D02*
X34389Y-13051D01*
X35255Y-12913D02*
X34527Y-12913D01*
X35389Y-13047D02*
X35255Y-12913D01*
X35389Y-15666D02*
X34889Y-15666D01*
X35889Y-13466D02*
X35389Y-13466D01*
X33889Y-16267D02*
X33889Y-15666D01*
X29862Y-14641D02*
X29862Y-15688D01*
X30291Y-14212D02*
X29862Y-14641D01*
X19055Y-12362D02*
X18622Y-12362D01*
X18248Y-16594D02*
X18799Y-17145D01*
X18248Y-12736D02*
X18248Y-16594D01*
X18622Y-12362D02*
X18248Y-12736D01*
X19340Y-13466D02*
X19340Y-12647D01*
X19340Y-12647D02*
X19055Y-12362D01*
X22340Y-16438D02*
X21633Y-17145D01*
X22340Y-15666D02*
X22340Y-16438D01*
X21633Y-17145D02*
X18799Y-17145D01*
X19055Y-12362D02*
X19340Y-12647D01*
X26328Y-13486D02*
X26328Y-12844D01*
X26328Y-12844D02*
X26318Y-12834D01*
X29328Y-15686D02*
X29859Y-15686D01*
X29859Y-15686D02*
X29862Y-15688D01*
G54D29*
X32889Y-13466D02*
X32889Y-12740D01*
X34566Y-11063D02*
X36051Y-11063D01*
X32889Y-12740D02*
X34566Y-11063D01*
X11023Y-20492D02*
X11200Y-20669D01*
X11200Y-20669D02*
X11240Y-20669D01*
X11023Y-20492D02*
X11003Y-20492D01*
X11003Y-20492D02*
X10826Y-20669D01*
X11819Y-19941D02*
X11357Y-19941D01*
X11023Y-20275D02*
X11023Y-20492D01*
X11023Y-20492D02*
X11023Y-20669D01*
X11357Y-19941D02*
X11023Y-20275D01*
X11819Y-19941D02*
X11819Y-19744D01*
X11819Y-19547D02*
X11819Y-19744D01*
X11819Y-18858D02*
X11819Y-19547D01*
X11819Y-18661D02*
X11819Y-18858D01*
X11819Y-18464D02*
X11819Y-18661D01*
X11819Y-18267D02*
X11819Y-18464D01*
G54D27*
X15728Y-21322D02*
X15082Y-21322D01*
X12657Y-20669D02*
X11240Y-20669D01*
X13011Y-20314D02*
X12657Y-20669D01*
X14074Y-20314D02*
X13011Y-20314D01*
X15082Y-21322D02*
X14074Y-20314D01*
X11240Y-20669D02*
X11023Y-20669D01*
X11023Y-20669D02*
X10826Y-20669D01*
X10826Y-20669D02*
X10669Y-20669D01*
X10669Y-20669D02*
X10433Y-20669D01*
X10433Y-20669D02*
X10393Y-20629D01*
X7047Y-12716D02*
X7547Y-12716D01*
X5885Y-13877D02*
X7047Y-12716D01*
X5885Y-15354D02*
X5885Y-13877D01*
X7547Y-12716D02*
X7830Y-12433D01*
X5885Y-16122D02*
X5885Y-15354D01*
X10275Y-20511D02*
X5885Y-16122D01*
X10393Y-20629D02*
X10275Y-20511D01*
X15728Y-21322D02*
X15728Y-21496D01*
X16767Y-21889D02*
X17334Y-21322D01*
X16122Y-21889D02*
X16767Y-21889D01*
X15728Y-21496D02*
X16122Y-21889D01*
X21811Y-20354D02*
X19685Y-20354D01*
X22779Y-21322D02*
X21811Y-20354D01*
X23405Y-21322D02*
X22779Y-21322D01*
X17862Y-21850D02*
X17334Y-21322D01*
X18326Y-21850D02*
X17862Y-21850D01*
X19055Y-21122D02*
X18326Y-21850D01*
X19055Y-20984D02*
X19055Y-21122D01*
X19685Y-20354D02*
X19055Y-20984D01*
X39153Y-23307D02*
X26279Y-23307D01*
X42625Y-19834D02*
X39153Y-23307D01*
X42625Y-19311D02*
X42625Y-19834D01*
X25011Y-22039D02*
X26279Y-23307D01*
X25011Y-22039D02*
X25011Y-21322D01*
X41007Y-11216D02*
X41007Y-11228D01*
X31484Y-7811D02*
X31484Y-7807D01*
X31484Y-7807D02*
X32007Y-7283D01*
X32007Y-7283D02*
X32562Y-7283D01*
X32562Y-7283D02*
X33090Y-7811D01*
X30956Y-7283D02*
X31484Y-7811D01*
X30118Y-7814D02*
X30118Y-7795D01*
X30118Y-7795D02*
X30118Y-7598D01*
X30118Y-7598D02*
X30433Y-7283D01*
X30433Y-7283D02*
X30956Y-7283D01*
X23807Y-7811D02*
X23807Y-7748D01*
X24826Y-7224D02*
X25413Y-7811D01*
X24330Y-7224D02*
X24826Y-7224D01*
X23807Y-7748D02*
X24330Y-7224D01*
X17795Y-5917D02*
X21543Y-5917D01*
X22992Y-6996D02*
X23807Y-7811D01*
X22992Y-6574D02*
X22992Y-6996D01*
X22283Y-5866D02*
X22992Y-6574D01*
X21594Y-5866D02*
X22283Y-5866D01*
X21543Y-5917D02*
X21594Y-5866D01*
X15039Y-5917D02*
X17795Y-5917D01*
X12283Y-5917D02*
X15039Y-5917D01*
X9527Y-5917D02*
X12283Y-5917D01*
X7830Y-10826D02*
X7830Y-9866D01*
X8818Y-6625D02*
X9527Y-5917D01*
X8818Y-8877D02*
X8818Y-6625D01*
X7830Y-9866D02*
X8818Y-8877D01*
X31574Y-19075D02*
X31574Y-18130D01*
X34035Y-14940D02*
X33700Y-14940D01*
X7830Y-12433D02*
X7807Y-12433D01*
X7204Y-11452D02*
X7830Y-10826D01*
X7204Y-11830D02*
X7204Y-11452D01*
X7807Y-12433D02*
X7204Y-11830D01*
X25011Y-21322D02*
X25011Y-21326D01*
X23661Y-21948D02*
X24389Y-21948D01*
X23405Y-21692D02*
X23661Y-21948D01*
X23405Y-21322D02*
X23405Y-21692D01*
X25011Y-21326D02*
X24389Y-21948D01*
X42625Y-19311D02*
X42625Y-16791D01*
X42625Y-16791D02*
X42625Y-15169D01*
X41007Y-13212D02*
X41007Y-12834D01*
X41141Y-13346D02*
X41007Y-13212D01*
X42440Y-13346D02*
X41141Y-13346D01*
X42992Y-13897D02*
X42440Y-13346D01*
X42992Y-14803D02*
X42992Y-13897D01*
X42625Y-15169D02*
X42992Y-14803D01*
X41007Y-11228D02*
X41444Y-11228D01*
X41496Y-12834D02*
X41007Y-12834D01*
X41830Y-12500D02*
X41496Y-12834D01*
X41830Y-11614D02*
X41830Y-12500D01*
X41444Y-11228D02*
X41830Y-11614D01*
X32889Y-13466D02*
X32889Y-14129D01*
X32889Y-14129D02*
X33700Y-14940D01*
X33700Y-14940D02*
X33889Y-15129D01*
X34389Y-13466D02*
X34389Y-14586D01*
X34389Y-14586D02*
X34035Y-14940D01*
X33889Y-15086D02*
X33889Y-15129D01*
X33889Y-15129D02*
X33889Y-15666D01*
X34035Y-14940D02*
X33889Y-15086D01*
G54D28*
X19358Y-10000D02*
X21917Y-10000D01*
X21917Y-10000D02*
X23405Y-8511D01*
X32889Y-15666D02*
X32889Y-16059D01*
X37224Y-16633D02*
X38878Y-18288D01*
X33464Y-16633D02*
X37224Y-16633D01*
X32889Y-16059D02*
X33464Y-16633D01*
X39201Y-18288D02*
X38878Y-18288D01*
X39201Y-17697D02*
X38858Y-17697D01*
X33389Y-12968D02*
X33389Y-13466D01*
X33661Y-12696D02*
X33389Y-12968D01*
X35866Y-12696D02*
X33661Y-12696D01*
X36515Y-13346D02*
X35866Y-12696D01*
X36515Y-15354D02*
X36515Y-13346D01*
X38858Y-17697D02*
X36515Y-15354D01*
X13780Y-9243D02*
X13780Y-8176D01*
X13780Y-8176D02*
X15039Y-6917D01*
X13583Y-9243D02*
X13583Y-8216D01*
X13583Y-8216D02*
X12283Y-6917D01*
X13386Y-9243D02*
X11853Y-9243D01*
X11853Y-9243D02*
X9527Y-6917D01*
X13977Y-9243D02*
X15469Y-9243D01*
X15469Y-9243D02*
X17795Y-6917D01*
X19358Y-10591D02*
X23735Y-10591D01*
X23735Y-10591D02*
X25814Y-8511D01*
X21340Y-15666D02*
X21340Y-14037D01*
X21340Y-14037D02*
X21338Y-14035D01*
X29328Y-13486D02*
X29328Y-14033D01*
X21340Y-14033D02*
X21340Y-13466D01*
X21338Y-14035D02*
X21340Y-14033D01*
X29328Y-14033D02*
X29330Y-14035D01*
X19840Y-15666D02*
X19840Y-14293D01*
X19840Y-14293D02*
X19842Y-14291D01*
X19840Y-14289D02*
X19840Y-13466D01*
X19842Y-14291D02*
X19840Y-14289D01*
X27828Y-13486D02*
X27828Y-14285D01*
X27828Y-14285D02*
X27834Y-14291D01*
X19358Y-10394D02*
X23129Y-10394D01*
X23129Y-10394D02*
X25011Y-8511D01*
X39654Y-17697D02*
X40255Y-17697D01*
X40255Y-17697D02*
X40255Y-17696D01*
X19358Y-10197D02*
X22523Y-10197D01*
X22523Y-10197D02*
X24208Y-8511D01*
X36054Y-9684D02*
X33058Y-9684D01*
X33058Y-9684D02*
X31885Y-8511D01*
X36054Y-9093D02*
X33270Y-9093D01*
X33270Y-9093D02*
X32688Y-8511D01*
X21515Y-11496D02*
X16062Y-11496D01*
X38275Y-12433D02*
X40307Y-12433D01*
X38267Y-12440D02*
X38275Y-12433D01*
X16082Y-11122D02*
X15787Y-11122D01*
X16082Y-11122D02*
X16102Y-11122D01*
X21515Y-11122D02*
X16082Y-11122D01*
X37000Y-13236D02*
X40307Y-13236D01*
X36988Y-13248D02*
X37000Y-13236D01*
X39654Y-18288D02*
X40629Y-18288D01*
X40629Y-18288D02*
X40944Y-17972D01*
G54D26*
X35236Y-18897D02*
X35590Y-19251D01*
X35236Y-18897D02*
X34881Y-19251D01*
X33858Y-17007D02*
X34803Y-17007D01*
X34803Y-17007D02*
X35236Y-17440D01*
X35236Y-17440D02*
X35236Y-18897D01*
X35236Y-18897D02*
X35236Y-18937D01*
X33858Y-17007D02*
X33740Y-17007D01*
X33740Y-17007D02*
X33425Y-17322D01*
X33425Y-17322D02*
X33425Y-17695D01*
G54D27*
X33425Y-17695D02*
X32184Y-17695D01*
X32184Y-17695D02*
X32165Y-17677D01*
G54D26*
X35590Y-19251D02*
X34881Y-19251D01*
G54D27*
X35236Y-19251D02*
X35236Y-18937D01*
X34881Y-19251D02*
X35236Y-19251D01*
X35236Y-19251D02*
X35590Y-19251D01*
X34823Y-19193D02*
X34881Y-19251D01*
X23425Y-13385D02*
X23425Y-16929D01*
X25828Y-13486D02*
X25828Y-12403D01*
X25828Y-12403D02*
X25826Y-12401D01*
X32303Y-16200D02*
X32775Y-16673D01*
X32303Y-14153D02*
X32303Y-16200D01*
X35889Y-16255D02*
X35889Y-15666D01*
X35885Y-16259D02*
X35889Y-16255D01*
G54D29*
X36051Y-10472D02*
X34645Y-10472D01*
X34645Y-10472D02*
X32303Y-12814D01*
X32303Y-12814D02*
X32303Y-14153D01*
G54D27*
X18840Y-12856D02*
X18838Y-12854D01*
X18840Y-13466D02*
X18840Y-12856D01*
G54D10*
G36*
X27002Y-13107D02*
X26981Y-13098D01*
X26926Y-13098D01*
X26676Y-13098D01*
X26658Y-13106D01*
X26656Y-13100D01*
X26589Y-13033D01*
X26501Y-12997D01*
X26408Y-12997D01*
X26348Y-13057D01*
X26348Y-13466D01*
X26356Y-13466D01*
X26356Y-13506D01*
X26348Y-13506D01*
X26348Y-13514D01*
X26309Y-13514D01*
X26309Y-13506D01*
X26301Y-13506D01*
X26301Y-13466D01*
X26309Y-13466D01*
X26309Y-13057D01*
X26249Y-12997D01*
X26156Y-12997D01*
X26068Y-13033D01*
X26064Y-13036D01*
X26064Y-12581D01*
X26076Y-12569D01*
X26121Y-12460D01*
X26122Y-12343D01*
X26078Y-12238D01*
X26133Y-12238D01*
X26500Y-12605D01*
X27002Y-13107D01*
X27002Y-13107D01*
G37*
G54D28*
X27002Y-13107D02*
X26981Y-13098D01*
X26926Y-13098D01*
X26676Y-13098D01*
X26658Y-13106D01*
X26656Y-13100D01*
X26589Y-13033D01*
X26501Y-12997D01*
X26408Y-12997D01*
X26348Y-13057D01*
X26348Y-13466D01*
X26356Y-13466D01*
X26356Y-13506D01*
X26348Y-13506D01*
X26348Y-13514D01*
X26309Y-13514D01*
X26309Y-13506D01*
X26301Y-13506D01*
X26301Y-13466D01*
X26309Y-13466D01*
X26309Y-13057D01*
X26249Y-12997D01*
X26156Y-12997D01*
X26068Y-13033D01*
X26064Y-13036D01*
X26064Y-12581D01*
X26076Y-12569D01*
X26121Y-12460D01*
X26122Y-12343D01*
X26078Y-12238D01*
X26133Y-12238D01*
X26500Y-12605D01*
X27002Y-13107D01*
G54D10*
G36*
X30463Y-13192D02*
X30452Y-13248D01*
X30452Y-15654D01*
X29749Y-16358D01*
X29693Y-16358D01*
X29693Y-15889D01*
X29693Y-15484D01*
X29693Y-15388D01*
X29656Y-15300D01*
X29589Y-15233D01*
X29501Y-15197D01*
X29408Y-15197D01*
X29348Y-15257D01*
X29348Y-15666D01*
X29633Y-15666D01*
X29693Y-15607D01*
X29693Y-15484D01*
X29693Y-15889D01*
X29693Y-15766D01*
X29633Y-15706D01*
X29348Y-15706D01*
X29348Y-16116D01*
X29408Y-16175D01*
X29501Y-16176D01*
X29589Y-16139D01*
X29656Y-16072D01*
X29693Y-15984D01*
X29693Y-15889D01*
X29693Y-16358D01*
X29192Y-16358D01*
X29173Y-16358D01*
X29074Y-16358D01*
X28573Y-16358D01*
X28592Y-16312D01*
X28592Y-16207D01*
X28552Y-16109D01*
X28506Y-16063D01*
X28531Y-16053D01*
X28570Y-16014D01*
X28578Y-15994D01*
X28586Y-16014D01*
X28625Y-16053D01*
X28676Y-16074D01*
X28731Y-16074D01*
X28981Y-16074D01*
X28998Y-16067D01*
X29000Y-16072D01*
X29068Y-16139D01*
X29156Y-16176D01*
X29249Y-16175D01*
X29309Y-16116D01*
X29309Y-15706D01*
X29301Y-15706D01*
X29301Y-15666D01*
X29309Y-15666D01*
X29309Y-15257D01*
X29249Y-15197D01*
X29156Y-15197D01*
X29068Y-15233D01*
X29065Y-15236D01*
X29084Y-15190D01*
X29084Y-15122D01*
X30144Y-14062D01*
X30183Y-14004D01*
X30196Y-13937D01*
X30196Y-13459D01*
X30463Y-13192D01*
X30463Y-13192D01*
G37*
G54D28*
X30463Y-13192D02*
X30452Y-13248D01*
X30452Y-15654D01*
X29749Y-16358D01*
X29693Y-16358D01*
X29693Y-15889D01*
X29693Y-15484D01*
X29693Y-15388D01*
X29656Y-15300D01*
X29589Y-15233D01*
X29501Y-15197D01*
X29408Y-15197D01*
X29348Y-15257D01*
X29348Y-15666D01*
X29633Y-15666D01*
X29693Y-15607D01*
X29693Y-15484D01*
X29693Y-15889D01*
X29693Y-15766D01*
X29633Y-15706D01*
X29348Y-15706D01*
X29348Y-16116D01*
X29408Y-16175D01*
X29501Y-16176D01*
X29589Y-16139D01*
X29656Y-16072D01*
X29693Y-15984D01*
X29693Y-15889D01*
X29693Y-16358D01*
X29192Y-16358D01*
X29173Y-16358D01*
X29074Y-16358D01*
X28573Y-16358D01*
X28592Y-16312D01*
X28592Y-16207D01*
X28552Y-16109D01*
X28506Y-16063D01*
X28531Y-16053D01*
X28570Y-16014D01*
X28578Y-15994D01*
X28586Y-16014D01*
X28625Y-16053D01*
X28676Y-16074D01*
X28731Y-16074D01*
X28981Y-16074D01*
X28998Y-16067D01*
X29000Y-16072D01*
X29068Y-16139D01*
X29156Y-16176D01*
X29249Y-16175D01*
X29309Y-16116D01*
X29309Y-15706D01*
X29301Y-15706D01*
X29301Y-15666D01*
X29309Y-15666D01*
X29309Y-15257D01*
X29249Y-15197D01*
X29156Y-15197D01*
X29068Y-15233D01*
X29065Y-15236D01*
X29084Y-15190D01*
X29084Y-15122D01*
X30144Y-14062D01*
X30183Y-14004D01*
X30196Y-13937D01*
X30196Y-13459D01*
X30463Y-13192D01*
G54D10*
G36*
X43927Y-24242D02*
X43445Y-24242D01*
X43445Y-22179D01*
X43445Y-6431D01*
X43244Y-5946D01*
X42874Y-5575D01*
X42389Y-5374D01*
X41864Y-5373D01*
X41379Y-5574D01*
X41008Y-5944D01*
X40807Y-6429D01*
X40806Y-6954D01*
X41007Y-7439D01*
X41377Y-7810D01*
X41862Y-8011D01*
X42387Y-8012D01*
X42872Y-7811D01*
X43243Y-7440D01*
X43444Y-6956D01*
X43445Y-6431D01*
X43445Y-22179D01*
X43244Y-21694D01*
X43160Y-21610D01*
X43160Y-19206D01*
X43160Y-16686D01*
X43080Y-16489D01*
X43078Y-16487D01*
X42982Y-16462D01*
X42954Y-16490D01*
X42954Y-16434D01*
X42930Y-16339D01*
X42864Y-16311D01*
X42864Y-14161D01*
X42864Y-9161D01*
X42734Y-8846D01*
X42493Y-8605D01*
X42178Y-8474D01*
X41838Y-8474D01*
X41523Y-8604D01*
X41307Y-8819D01*
X41328Y-8770D01*
X41331Y-8503D01*
X41231Y-8255D01*
X41223Y-8243D01*
X41113Y-8201D01*
X41085Y-8229D01*
X41085Y-8173D01*
X41044Y-8063D01*
X40798Y-7958D01*
X40530Y-7956D01*
X40282Y-8055D01*
X40270Y-8063D01*
X40229Y-8173D01*
X40657Y-8602D01*
X41085Y-8173D01*
X41085Y-8229D01*
X40685Y-8629D01*
X41113Y-9058D01*
X41208Y-9022D01*
X41151Y-9159D01*
X41151Y-9500D01*
X41281Y-9815D01*
X41522Y-10056D01*
X41836Y-10186D01*
X42177Y-10187D01*
X42492Y-10057D01*
X42733Y-9816D01*
X42864Y-9501D01*
X42864Y-9161D01*
X42864Y-14161D01*
X42734Y-13846D01*
X42493Y-13605D01*
X42178Y-13474D01*
X41838Y-13474D01*
X41543Y-13596D01*
X41543Y-12729D01*
X41543Y-11123D01*
X41462Y-10926D01*
X41460Y-10923D01*
X41364Y-10899D01*
X41035Y-11228D01*
X41364Y-11557D01*
X41460Y-11532D01*
X41542Y-11336D01*
X41543Y-11123D01*
X41543Y-12729D01*
X41462Y-12533D01*
X41460Y-12530D01*
X41441Y-12525D01*
X41441Y-11945D01*
X41375Y-11786D01*
X41282Y-11693D01*
X41309Y-11682D01*
X41312Y-11680D01*
X41336Y-11585D01*
X41007Y-11256D01*
X41002Y-11261D01*
X40974Y-11233D01*
X40980Y-11228D01*
X40974Y-11222D01*
X41002Y-11194D01*
X41007Y-11200D01*
X41336Y-10871D01*
X41312Y-10775D01*
X41282Y-10763D01*
X41374Y-10670D01*
X41441Y-10511D01*
X41441Y-10339D01*
X41375Y-10180D01*
X41253Y-10058D01*
X41094Y-9991D01*
X41085Y-9991D01*
X41085Y-9086D01*
X40657Y-8657D01*
X40629Y-8685D01*
X40629Y-8629D01*
X40201Y-8201D01*
X40091Y-8243D01*
X39986Y-8489D01*
X39983Y-8756D01*
X40083Y-9004D01*
X40091Y-9016D01*
X40201Y-9058D01*
X40629Y-8629D01*
X40629Y-8685D01*
X40229Y-9086D01*
X40270Y-9195D01*
X40516Y-9300D01*
X40784Y-9303D01*
X41032Y-9203D01*
X41044Y-9195D01*
X41085Y-9086D01*
X41085Y-9991D01*
X40922Y-9991D01*
X40762Y-10057D01*
X40640Y-10179D01*
X40574Y-10338D01*
X40574Y-10481D01*
X40552Y-10459D01*
X40393Y-10393D01*
X40221Y-10393D01*
X40152Y-10421D01*
X40078Y-10347D01*
X40020Y-10309D01*
X39953Y-10295D01*
X37578Y-10295D01*
X37578Y-9862D01*
X37578Y-9251D01*
X37565Y-9184D01*
X37526Y-9126D01*
X37368Y-8968D01*
X37311Y-8930D01*
X37243Y-8916D01*
X36710Y-8916D01*
X36663Y-8896D01*
X36608Y-8896D01*
X36352Y-8896D01*
X36301Y-8917D01*
X36281Y-8938D01*
X36260Y-8918D01*
X36210Y-8896D01*
X36155Y-8896D01*
X35961Y-8896D01*
X35961Y-8034D01*
X35861Y-7786D01*
X35853Y-7774D01*
X35743Y-7733D01*
X35715Y-7760D01*
X35715Y-7705D01*
X35674Y-7595D01*
X35428Y-7490D01*
X35160Y-7487D01*
X35094Y-7514D01*
X35312Y-7296D01*
X35442Y-6982D01*
X35443Y-6641D01*
X35312Y-6326D01*
X35072Y-6085D01*
X34757Y-5954D01*
X34417Y-5954D01*
X34102Y-6084D01*
X33861Y-6325D01*
X33730Y-6639D01*
X33730Y-6980D01*
X33860Y-7295D01*
X34100Y-7536D01*
X34415Y-7667D01*
X34756Y-7667D01*
X34894Y-7610D01*
X34859Y-7705D01*
X35287Y-8133D01*
X35715Y-7705D01*
X35715Y-7760D01*
X35315Y-8161D01*
X35743Y-8589D01*
X35853Y-8548D01*
X35958Y-8302D01*
X35961Y-8034D01*
X35961Y-8896D01*
X35899Y-8896D01*
X35851Y-8916D01*
X35715Y-8916D01*
X35715Y-8617D01*
X35287Y-8189D01*
X35259Y-8217D01*
X35259Y-8161D01*
X34831Y-7733D01*
X34721Y-7774D01*
X34616Y-8020D01*
X34613Y-8288D01*
X34713Y-8536D01*
X34721Y-8548D01*
X34831Y-8589D01*
X35259Y-8161D01*
X35259Y-8217D01*
X34859Y-8617D01*
X34900Y-8727D01*
X35146Y-8832D01*
X35414Y-8835D01*
X35662Y-8735D01*
X35674Y-8727D01*
X35715Y-8617D01*
X35715Y-8916D01*
X33647Y-8916D01*
X33737Y-8879D01*
X33859Y-8757D01*
X33925Y-8598D01*
X33925Y-8426D01*
X33859Y-8266D01*
X33737Y-8144D01*
X33578Y-8078D01*
X33558Y-8078D01*
X33625Y-7919D01*
X33625Y-7706D01*
X33544Y-7509D01*
X33543Y-7506D01*
X33447Y-7481D01*
X33419Y-7509D01*
X33419Y-7454D01*
X33394Y-7358D01*
X33198Y-7276D01*
X32985Y-7275D01*
X32789Y-7356D01*
X32786Y-7358D01*
X32761Y-7454D01*
X33090Y-7783D01*
X33419Y-7454D01*
X33419Y-7509D01*
X33118Y-7811D01*
X33123Y-7816D01*
X33096Y-7844D01*
X33090Y-7838D01*
X33084Y-7844D01*
X33057Y-7816D01*
X33062Y-7811D01*
X32733Y-7481D01*
X32638Y-7506D01*
X32625Y-7536D01*
X32533Y-7443D01*
X32373Y-7377D01*
X32201Y-7377D01*
X32042Y-7443D01*
X31949Y-7536D01*
X31938Y-7509D01*
X31936Y-7506D01*
X31841Y-7481D01*
X31813Y-7509D01*
X31813Y-7454D01*
X31788Y-7358D01*
X31592Y-7276D01*
X31379Y-7275D01*
X31182Y-7356D01*
X31179Y-7358D01*
X31155Y-7454D01*
X31484Y-7783D01*
X31813Y-7454D01*
X31813Y-7509D01*
X31512Y-7811D01*
X31517Y-7816D01*
X31489Y-7844D01*
X31484Y-7838D01*
X31478Y-7844D01*
X31450Y-7816D01*
X31456Y-7811D01*
X31127Y-7481D01*
X31031Y-7506D01*
X31019Y-7536D01*
X30926Y-7443D01*
X30767Y-7377D01*
X30595Y-7377D01*
X30443Y-7440D01*
X30443Y-6641D01*
X30312Y-6326D01*
X30072Y-6085D01*
X29757Y-5954D01*
X29417Y-5954D01*
X29102Y-6084D01*
X28861Y-6325D01*
X28730Y-6639D01*
X28730Y-6980D01*
X28860Y-7295D01*
X29075Y-7511D01*
X29026Y-7490D01*
X28759Y-7487D01*
X28510Y-7587D01*
X28498Y-7595D01*
X28457Y-7705D01*
X28885Y-8133D01*
X29314Y-7705D01*
X29278Y-7610D01*
X29415Y-7667D01*
X29756Y-7667D01*
X30071Y-7537D01*
X30312Y-7296D01*
X30442Y-6982D01*
X30443Y-6641D01*
X30443Y-7440D01*
X30435Y-7443D01*
X30313Y-7565D01*
X30247Y-7724D01*
X30247Y-7896D01*
X30313Y-8056D01*
X30435Y-8178D01*
X30594Y-8244D01*
X30737Y-8244D01*
X30715Y-8266D01*
X30649Y-8425D01*
X30649Y-8597D01*
X30715Y-8756D01*
X30836Y-8878D01*
X30996Y-8945D01*
X31168Y-8945D01*
X31327Y-8879D01*
X31449Y-8757D01*
X31484Y-8674D01*
X31518Y-8756D01*
X31640Y-8878D01*
X31799Y-8945D01*
X31971Y-8945D01*
X32040Y-8916D01*
X32933Y-9810D01*
X32990Y-9848D01*
X33058Y-9861D01*
X35851Y-9861D01*
X35898Y-9881D01*
X35953Y-9881D01*
X36209Y-9881D01*
X36260Y-9860D01*
X36281Y-9840D01*
X36301Y-9860D01*
X36351Y-9881D01*
X36406Y-9881D01*
X36662Y-9881D01*
X36710Y-9861D01*
X36887Y-9861D01*
X36927Y-9901D01*
X33326Y-9901D01*
X33258Y-9915D01*
X33201Y-9953D01*
X33201Y-9953D01*
X33201Y-9953D01*
X29894Y-13260D01*
X29856Y-13318D01*
X29842Y-13385D01*
X29842Y-13863D01*
X29581Y-14124D01*
X29596Y-14088D01*
X29596Y-13982D01*
X29556Y-13885D01*
X29526Y-13855D01*
X29531Y-13853D01*
X29570Y-13814D01*
X29591Y-13764D01*
X29591Y-13709D01*
X29591Y-13209D01*
X29570Y-13158D01*
X29559Y-13147D01*
X29559Y-8034D01*
X29459Y-7786D01*
X29451Y-7774D01*
X29342Y-7733D01*
X28913Y-8161D01*
X29342Y-8589D01*
X29451Y-8548D01*
X29556Y-8302D01*
X29559Y-8034D01*
X29559Y-13147D01*
X29531Y-13119D01*
X29481Y-13098D01*
X29426Y-13098D01*
X29314Y-13098D01*
X29314Y-8617D01*
X28885Y-8189D01*
X28857Y-8217D01*
X28857Y-8161D01*
X28429Y-7733D01*
X28319Y-7774D01*
X28247Y-7943D01*
X28184Y-7786D01*
X28176Y-7774D01*
X28066Y-7733D01*
X28038Y-7760D01*
X28038Y-7705D01*
X27997Y-7595D01*
X27751Y-7490D01*
X27483Y-7487D01*
X27416Y-7514D01*
X27634Y-7296D01*
X27765Y-6982D01*
X27765Y-6641D01*
X27635Y-6326D01*
X27395Y-6085D01*
X27080Y-5954D01*
X26739Y-5954D01*
X26425Y-6084D01*
X26183Y-6325D01*
X26053Y-6639D01*
X26053Y-6980D01*
X26183Y-7295D01*
X26423Y-7536D01*
X26738Y-7667D01*
X27079Y-7667D01*
X27217Y-7610D01*
X27181Y-7705D01*
X27610Y-8133D01*
X28038Y-7705D01*
X28038Y-7760D01*
X27638Y-8161D01*
X28066Y-8589D01*
X28176Y-8548D01*
X28248Y-8378D01*
X28311Y-8536D01*
X28319Y-8548D01*
X28429Y-8589D01*
X28857Y-8161D01*
X28857Y-8217D01*
X28457Y-8617D01*
X28498Y-8727D01*
X28744Y-8832D01*
X29012Y-8835D01*
X29260Y-8735D01*
X29272Y-8727D01*
X29314Y-8617D01*
X29314Y-13098D01*
X29176Y-13098D01*
X29125Y-13119D01*
X29086Y-13158D01*
X29078Y-13178D01*
X29070Y-13158D01*
X29031Y-13119D01*
X28981Y-13098D01*
X28926Y-13098D01*
X28676Y-13098D01*
X28625Y-13119D01*
X28586Y-13158D01*
X28578Y-13178D01*
X28570Y-13158D01*
X28531Y-13119D01*
X28492Y-13103D01*
X28492Y-13103D01*
X28454Y-13045D01*
X28215Y-12807D01*
X28158Y-12769D01*
X28090Y-12755D01*
X28038Y-12755D01*
X28038Y-8617D01*
X27610Y-8189D01*
X27582Y-8217D01*
X27582Y-8161D01*
X27154Y-7733D01*
X27044Y-7774D01*
X26939Y-8020D01*
X26936Y-8288D01*
X27036Y-8536D01*
X27044Y-8548D01*
X27154Y-8589D01*
X27582Y-8161D01*
X27582Y-8217D01*
X27181Y-8617D01*
X27223Y-8727D01*
X27469Y-8832D01*
X27736Y-8835D01*
X27985Y-8735D01*
X27997Y-8727D01*
X28038Y-8617D01*
X28038Y-12755D01*
X27578Y-12755D01*
X27510Y-12769D01*
X27453Y-12807D01*
X27328Y-12932D01*
X26751Y-12355D01*
X26331Y-11935D01*
X26274Y-11897D01*
X26248Y-11892D01*
X26248Y-8426D01*
X26182Y-8266D01*
X26060Y-8144D01*
X25901Y-8078D01*
X25881Y-8078D01*
X25947Y-7919D01*
X25948Y-7706D01*
X25867Y-7509D01*
X25865Y-7506D01*
X25770Y-7481D01*
X25742Y-7509D01*
X25742Y-7454D01*
X25717Y-7358D01*
X25521Y-7276D01*
X25308Y-7275D01*
X25111Y-7356D01*
X25108Y-7358D01*
X25084Y-7454D01*
X25413Y-7783D01*
X25742Y-7454D01*
X25742Y-7509D01*
X25441Y-7811D01*
X25446Y-7816D01*
X25418Y-7844D01*
X25413Y-7838D01*
X25407Y-7844D01*
X25379Y-7816D01*
X25385Y-7811D01*
X25056Y-7481D01*
X24960Y-7506D01*
X24948Y-7536D01*
X24855Y-7443D01*
X24696Y-7377D01*
X24524Y-7377D01*
X24365Y-7443D01*
X24272Y-7536D01*
X24261Y-7509D01*
X24259Y-7506D01*
X24164Y-7481D01*
X24136Y-7509D01*
X24136Y-7454D01*
X24111Y-7358D01*
X23915Y-7276D01*
X23702Y-7275D01*
X23505Y-7356D01*
X23502Y-7358D01*
X23477Y-7454D01*
X23807Y-7783D01*
X24136Y-7454D01*
X24136Y-7509D01*
X23834Y-7811D01*
X23840Y-7816D01*
X23812Y-7844D01*
X23807Y-7838D01*
X23801Y-7844D01*
X23773Y-7816D01*
X23779Y-7811D01*
X23450Y-7481D01*
X23354Y-7506D01*
X23342Y-7536D01*
X23249Y-7443D01*
X23090Y-7377D01*
X22918Y-7377D01*
X22765Y-7440D01*
X22765Y-6641D01*
X22635Y-6326D01*
X22395Y-6085D01*
X22080Y-5954D01*
X21739Y-5954D01*
X21425Y-6084D01*
X21183Y-6325D01*
X21053Y-6639D01*
X21053Y-6980D01*
X21183Y-7295D01*
X21398Y-7511D01*
X21349Y-7490D01*
X21082Y-7487D01*
X20833Y-7587D01*
X20821Y-7595D01*
X20780Y-7705D01*
X21208Y-8133D01*
X21637Y-7705D01*
X21601Y-7610D01*
X21738Y-7667D01*
X22079Y-7667D01*
X22393Y-7537D01*
X22634Y-7296D01*
X22765Y-6982D01*
X22765Y-6641D01*
X22765Y-7440D01*
X22758Y-7443D01*
X22636Y-7565D01*
X22570Y-7724D01*
X22570Y-7896D01*
X22636Y-8056D01*
X22758Y-8178D01*
X22917Y-8244D01*
X23060Y-8244D01*
X23038Y-8266D01*
X22972Y-8425D01*
X22972Y-8597D01*
X23000Y-8666D01*
X21882Y-9784D01*
X21882Y-8034D01*
X21782Y-7786D01*
X21774Y-7774D01*
X21664Y-7733D01*
X21236Y-8161D01*
X21664Y-8589D01*
X21774Y-8548D01*
X21879Y-8302D01*
X21882Y-8034D01*
X21882Y-9784D01*
X21843Y-9823D01*
X21637Y-9823D01*
X21637Y-8617D01*
X21208Y-8189D01*
X21180Y-8217D01*
X21180Y-8161D01*
X20752Y-7733D01*
X20642Y-7774D01*
X20537Y-8020D01*
X20534Y-8288D01*
X20634Y-8536D01*
X20642Y-8548D01*
X20752Y-8589D01*
X21180Y-8161D01*
X21180Y-8217D01*
X20780Y-8617D01*
X20821Y-8727D01*
X21067Y-8832D01*
X21335Y-8835D01*
X21583Y-8735D01*
X21595Y-8727D01*
X21637Y-8617D01*
X21637Y-9823D01*
X19561Y-9823D01*
X19514Y-9803D01*
X19459Y-9803D01*
X19203Y-9803D01*
X19152Y-9824D01*
X19132Y-9844D01*
X19112Y-9824D01*
X19061Y-9803D01*
X19006Y-9803D01*
X18750Y-9803D01*
X18703Y-9823D01*
X18330Y-9823D01*
X18330Y-5812D01*
X18249Y-5615D01*
X18247Y-5613D01*
X18152Y-5588D01*
X18124Y-5616D01*
X18124Y-5560D01*
X18099Y-5465D01*
X17903Y-5383D01*
X17690Y-5382D01*
X17493Y-5463D01*
X17490Y-5465D01*
X17466Y-5560D01*
X17795Y-5889D01*
X18124Y-5560D01*
X18124Y-5616D01*
X17823Y-5917D01*
X18152Y-6246D01*
X18247Y-6221D01*
X18329Y-6025D01*
X18330Y-5812D01*
X18330Y-9823D01*
X17711Y-9823D01*
X17600Y-9711D01*
X17600Y-9643D01*
X17559Y-9546D01*
X17485Y-9471D01*
X17387Y-9430D01*
X17281Y-9430D01*
X17183Y-9471D01*
X17135Y-9519D01*
X14479Y-9519D01*
X14164Y-9519D01*
X14152Y-9490D01*
X14132Y-9470D01*
X14152Y-9449D01*
X14164Y-9420D01*
X15469Y-9420D01*
X15536Y-9407D01*
X15536Y-9407D01*
X15594Y-9368D01*
X17640Y-7322D01*
X17708Y-7350D01*
X17881Y-7350D01*
X18040Y-7284D01*
X18162Y-7162D01*
X18228Y-7003D01*
X18228Y-6831D01*
X18162Y-6672D01*
X18124Y-6633D01*
X18124Y-6274D01*
X17795Y-5945D01*
X17767Y-5973D01*
X17767Y-5917D01*
X17438Y-5588D01*
X17342Y-5613D01*
X17260Y-5809D01*
X17260Y-6021D01*
X17341Y-6218D01*
X17342Y-6221D01*
X17438Y-6246D01*
X17767Y-5917D01*
X17767Y-5973D01*
X17466Y-6274D01*
X17490Y-6369D01*
X17687Y-6451D01*
X17899Y-6452D01*
X18096Y-6371D01*
X18099Y-6369D01*
X18124Y-6274D01*
X18124Y-6633D01*
X18040Y-6550D01*
X17881Y-6484D01*
X17709Y-6484D01*
X17550Y-6549D01*
X17428Y-6671D01*
X17362Y-6830D01*
X17362Y-7003D01*
X17390Y-7071D01*
X15574Y-8887D01*
X15574Y-5812D01*
X15493Y-5615D01*
X15491Y-5613D01*
X15396Y-5588D01*
X15368Y-5616D01*
X15368Y-5560D01*
X15343Y-5465D01*
X15147Y-5383D01*
X14934Y-5382D01*
X14737Y-5463D01*
X14735Y-5465D01*
X14710Y-5560D01*
X15039Y-5889D01*
X15368Y-5560D01*
X15368Y-5616D01*
X15067Y-5917D01*
X15396Y-6246D01*
X15491Y-6221D01*
X15573Y-6025D01*
X15574Y-5812D01*
X15574Y-8887D01*
X15395Y-9066D01*
X14164Y-9066D01*
X14152Y-9037D01*
X14114Y-8998D01*
X14063Y-8977D01*
X14008Y-8977D01*
X13957Y-8977D01*
X13957Y-8249D01*
X14885Y-7322D01*
X14952Y-7350D01*
X15125Y-7350D01*
X15284Y-7284D01*
X15406Y-7162D01*
X15472Y-7003D01*
X15472Y-6831D01*
X15406Y-6672D01*
X15368Y-6633D01*
X15368Y-6274D01*
X15039Y-5945D01*
X15011Y-5973D01*
X15011Y-5917D01*
X14682Y-5588D01*
X14587Y-5613D01*
X14505Y-5809D01*
X14504Y-6021D01*
X14585Y-6218D01*
X14587Y-6221D01*
X14682Y-6246D01*
X15011Y-5917D01*
X15011Y-5973D01*
X14710Y-6274D01*
X14735Y-6369D01*
X14931Y-6451D01*
X15144Y-6452D01*
X15340Y-6371D01*
X15343Y-6369D01*
X15368Y-6274D01*
X15368Y-6633D01*
X15285Y-6550D01*
X15125Y-6484D01*
X14953Y-6484D01*
X14794Y-6549D01*
X14672Y-6671D01*
X14606Y-6830D01*
X14606Y-7003D01*
X14634Y-7071D01*
X13661Y-8044D01*
X12818Y-7201D01*
X12818Y-5812D01*
X12737Y-5615D01*
X12735Y-5613D01*
X12640Y-5588D01*
X12612Y-5616D01*
X12612Y-5560D01*
X12587Y-5465D01*
X12391Y-5383D01*
X12178Y-5382D01*
X11982Y-5463D01*
X11979Y-5465D01*
X11954Y-5560D01*
X12283Y-5889D01*
X12612Y-5560D01*
X12612Y-5616D01*
X12311Y-5917D01*
X12640Y-6246D01*
X12735Y-6221D01*
X12817Y-6025D01*
X12818Y-5812D01*
X12818Y-7201D01*
X12688Y-7071D01*
X12716Y-7003D01*
X12716Y-6831D01*
X12650Y-6672D01*
X12612Y-6633D01*
X12612Y-6274D01*
X12283Y-5945D01*
X12255Y-5973D01*
X12255Y-5917D01*
X11926Y-5588D01*
X11831Y-5613D01*
X11749Y-5809D01*
X11748Y-6021D01*
X11829Y-6218D01*
X11831Y-6221D01*
X11926Y-6246D01*
X12255Y-5917D01*
X12255Y-5973D01*
X11954Y-6274D01*
X11979Y-6369D01*
X12175Y-6451D01*
X12388Y-6452D01*
X12584Y-6371D01*
X12587Y-6369D01*
X12612Y-6274D01*
X12612Y-6633D01*
X12529Y-6550D01*
X12369Y-6484D01*
X12197Y-6484D01*
X12038Y-6549D01*
X11916Y-6671D01*
X11850Y-6830D01*
X11850Y-7003D01*
X11916Y-7162D01*
X12037Y-7284D01*
X12196Y-7350D01*
X12369Y-7350D01*
X12437Y-7322D01*
X13405Y-8290D01*
X13405Y-8977D01*
X13299Y-8977D01*
X13249Y-8998D01*
X13210Y-9037D01*
X13198Y-9066D01*
X11927Y-9066D01*
X10062Y-7201D01*
X10062Y-5812D01*
X9981Y-5615D01*
X9979Y-5613D01*
X9884Y-5588D01*
X9856Y-5616D01*
X9856Y-5560D01*
X9831Y-5465D01*
X9635Y-5383D01*
X9422Y-5382D01*
X9226Y-5463D01*
X9223Y-5465D01*
X9198Y-5560D01*
X9527Y-5889D01*
X9856Y-5560D01*
X9856Y-5616D01*
X9555Y-5917D01*
X9884Y-6246D01*
X9979Y-6221D01*
X10061Y-6025D01*
X10062Y-5812D01*
X10062Y-7201D01*
X9932Y-7071D01*
X9960Y-7003D01*
X9960Y-6831D01*
X9894Y-6672D01*
X9856Y-6633D01*
X9856Y-6274D01*
X9527Y-5945D01*
X9499Y-5973D01*
X9499Y-5917D01*
X9170Y-5588D01*
X9075Y-5613D01*
X8993Y-5809D01*
X8992Y-6021D01*
X9073Y-6218D01*
X9075Y-6221D01*
X9170Y-6246D01*
X9499Y-5917D01*
X9499Y-5973D01*
X9198Y-6274D01*
X9223Y-6369D01*
X9419Y-6451D01*
X9632Y-6452D01*
X9828Y-6371D01*
X9831Y-6369D01*
X9856Y-6274D01*
X9856Y-6633D01*
X9773Y-6550D01*
X9614Y-6484D01*
X9441Y-6484D01*
X9282Y-6549D01*
X9160Y-6671D01*
X9094Y-6830D01*
X9094Y-7003D01*
X9160Y-7162D01*
X9281Y-7284D01*
X9441Y-7350D01*
X9613Y-7350D01*
X9681Y-7322D01*
X11728Y-9368D01*
X11728Y-9368D01*
X11785Y-9407D01*
X11853Y-9420D01*
X11853Y-9420D01*
X13198Y-9420D01*
X13210Y-9449D01*
X13230Y-9470D01*
X13210Y-9490D01*
X13189Y-9540D01*
X13189Y-9595D01*
X13189Y-9851D01*
X13208Y-9899D01*
X13208Y-10138D01*
X13222Y-10205D01*
X13260Y-10263D01*
X13714Y-10716D01*
X13714Y-10716D01*
X13771Y-10754D01*
X13839Y-10768D01*
X13839Y-10768D01*
X18703Y-10768D01*
X18733Y-10781D01*
X18742Y-10824D01*
X18780Y-10881D01*
X18843Y-10944D01*
X16102Y-10944D01*
X16082Y-10944D01*
X15986Y-10944D01*
X15938Y-10896D01*
X15840Y-10856D01*
X15734Y-10856D01*
X15637Y-10896D01*
X15562Y-10971D01*
X15521Y-11068D01*
X15521Y-11174D01*
X15561Y-11272D01*
X15636Y-11347D01*
X15734Y-11387D01*
X15820Y-11387D01*
X15797Y-11442D01*
X15797Y-11548D01*
X15837Y-11646D01*
X15912Y-11721D01*
X16009Y-11761D01*
X16115Y-11761D01*
X16213Y-11721D01*
X16261Y-11673D01*
X17367Y-11673D01*
X16016Y-13024D01*
X15978Y-13081D01*
X15964Y-13149D01*
X15964Y-16691D01*
X15916Y-16739D01*
X15876Y-16836D01*
X15875Y-16942D01*
X15916Y-17040D01*
X15991Y-17114D01*
X16088Y-17155D01*
X16194Y-17155D01*
X16292Y-17115D01*
X16366Y-17040D01*
X16407Y-16942D01*
X16407Y-16837D01*
X16396Y-16809D01*
X16423Y-16820D01*
X16529Y-16820D01*
X16626Y-16780D01*
X16701Y-16705D01*
X16742Y-16608D01*
X16742Y-16502D01*
X16701Y-16404D01*
X16653Y-16356D01*
X16653Y-13282D01*
X17750Y-12185D01*
X19651Y-12185D01*
X20163Y-12697D01*
X20163Y-13089D01*
X20137Y-13100D01*
X20098Y-13138D01*
X20090Y-13158D01*
X20082Y-13138D01*
X20043Y-13100D01*
X19993Y-13079D01*
X19938Y-13079D01*
X19688Y-13079D01*
X19670Y-13086D01*
X19668Y-13081D01*
X19600Y-13013D01*
X19512Y-12977D01*
X19420Y-12977D01*
X19360Y-13037D01*
X19360Y-13447D01*
X19368Y-13447D01*
X19368Y-13486D01*
X19360Y-13486D01*
X19360Y-13896D01*
X19420Y-13956D01*
X19512Y-13956D01*
X19600Y-13919D01*
X19663Y-13857D01*
X19663Y-14094D01*
X19617Y-14140D01*
X19576Y-14238D01*
X19576Y-14343D01*
X19617Y-14441D01*
X19663Y-14488D01*
X19663Y-15289D01*
X19637Y-15300D01*
X19598Y-15338D01*
X19590Y-15358D01*
X19582Y-15338D01*
X19543Y-15300D01*
X19493Y-15279D01*
X19438Y-15279D01*
X19320Y-15279D01*
X19320Y-13896D01*
X19320Y-13486D01*
X19312Y-13486D01*
X19312Y-13447D01*
X19320Y-13447D01*
X19320Y-13037D01*
X19261Y-12977D01*
X19168Y-12977D01*
X19094Y-13007D01*
X19133Y-12913D01*
X19133Y-12795D01*
X19089Y-12687D01*
X19006Y-12604D01*
X18897Y-12559D01*
X18780Y-12559D01*
X18671Y-12603D01*
X18588Y-12686D01*
X18543Y-12795D01*
X18543Y-12912D01*
X18588Y-13021D01*
X18604Y-13037D01*
X18604Y-13133D01*
X18598Y-13138D01*
X18577Y-13189D01*
X18577Y-13244D01*
X18577Y-13744D01*
X18598Y-13794D01*
X18637Y-13833D01*
X18688Y-13854D01*
X18742Y-13854D01*
X18992Y-13854D01*
X19010Y-13847D01*
X19012Y-13852D01*
X19080Y-13919D01*
X19168Y-13956D01*
X19261Y-13956D01*
X19320Y-13896D01*
X19320Y-15279D01*
X19188Y-15279D01*
X19137Y-15300D01*
X19098Y-15338D01*
X19090Y-15358D01*
X19082Y-15338D01*
X19057Y-15314D01*
X19083Y-15288D01*
X19123Y-15190D01*
X19124Y-15085D01*
X19083Y-14987D01*
X19035Y-14939D01*
X19035Y-14489D01*
X19083Y-14442D01*
X19123Y-14344D01*
X19124Y-14238D01*
X19083Y-14141D01*
X19008Y-14066D01*
X18911Y-14025D01*
X18805Y-14025D01*
X18707Y-14065D01*
X18633Y-14140D01*
X18592Y-14238D01*
X18592Y-14343D01*
X18632Y-14441D01*
X18681Y-14490D01*
X18681Y-14939D01*
X18633Y-14987D01*
X18592Y-15084D01*
X18592Y-15190D01*
X18632Y-15288D01*
X18642Y-15297D01*
X18637Y-15300D01*
X18598Y-15338D01*
X18577Y-15389D01*
X18577Y-15444D01*
X18577Y-15944D01*
X18598Y-15994D01*
X18637Y-16033D01*
X18688Y-16054D01*
X18742Y-16054D01*
X18992Y-16054D01*
X19043Y-16033D01*
X19082Y-15995D01*
X19090Y-15975D01*
X19098Y-15994D01*
X19137Y-16033D01*
X19163Y-16044D01*
X19163Y-16326D01*
X19105Y-16384D01*
X19065Y-16482D01*
X19064Y-16588D01*
X19105Y-16685D01*
X19179Y-16760D01*
X19277Y-16801D01*
X19383Y-16801D01*
X19481Y-16760D01*
X19555Y-16686D01*
X19596Y-16588D01*
X19596Y-16482D01*
X19556Y-16385D01*
X19517Y-16346D01*
X19517Y-16044D01*
X19543Y-16033D01*
X19582Y-15995D01*
X19590Y-15975D01*
X19598Y-15994D01*
X19637Y-16033D01*
X19688Y-16054D01*
X19742Y-16054D01*
X19992Y-16054D01*
X20043Y-16033D01*
X20082Y-15995D01*
X20090Y-15975D01*
X20098Y-15994D01*
X20137Y-16033D01*
X20188Y-16054D01*
X20242Y-16054D01*
X20492Y-16054D01*
X20543Y-16033D01*
X20582Y-15995D01*
X20590Y-15975D01*
X20598Y-15994D01*
X20637Y-16033D01*
X20688Y-16054D01*
X20742Y-16054D01*
X20992Y-16054D01*
X21043Y-16033D01*
X21082Y-15995D01*
X21090Y-15975D01*
X21098Y-15994D01*
X21137Y-16033D01*
X21188Y-16054D01*
X21242Y-16054D01*
X21492Y-16054D01*
X21543Y-16033D01*
X21582Y-15995D01*
X21590Y-15975D01*
X21598Y-15994D01*
X21637Y-16033D01*
X21688Y-16054D01*
X21742Y-16054D01*
X21992Y-16054D01*
X22010Y-16047D01*
X22012Y-16052D01*
X22080Y-16119D01*
X22168Y-16156D01*
X22261Y-16156D01*
X22320Y-16096D01*
X22320Y-15686D01*
X22312Y-15686D01*
X22312Y-15647D01*
X22320Y-15647D01*
X22320Y-15237D01*
X22261Y-15177D01*
X22168Y-15177D01*
X22080Y-15213D01*
X22017Y-15276D01*
X22017Y-15102D01*
X22861Y-14259D01*
X22861Y-14259D01*
X22861Y-14259D01*
X22899Y-14201D01*
X22913Y-14133D01*
X22913Y-14133D01*
X22913Y-12245D01*
X22961Y-12197D01*
X23001Y-12100D01*
X23002Y-11994D01*
X22961Y-11896D01*
X22886Y-11822D01*
X22789Y-11781D01*
X22683Y-11781D01*
X22585Y-11821D01*
X22517Y-11889D01*
X22517Y-11494D01*
X22504Y-11426D01*
X22465Y-11368D01*
X21865Y-10768D01*
X23735Y-10768D01*
X23803Y-10754D01*
X23803Y-10754D01*
X23860Y-10716D01*
X25660Y-8916D01*
X25728Y-8945D01*
X25900Y-8945D01*
X26060Y-8879D01*
X26182Y-8757D01*
X26248Y-8598D01*
X26248Y-8426D01*
X26248Y-11892D01*
X26206Y-11883D01*
X25340Y-11883D01*
X25272Y-11897D01*
X25215Y-11935D01*
X25209Y-11941D01*
X24697Y-12453D01*
X24659Y-12510D01*
X24645Y-12578D01*
X24645Y-13248D01*
X24645Y-13661D01*
X24645Y-17918D01*
X24306Y-18257D01*
X24238Y-18257D01*
X24141Y-18298D01*
X24066Y-18372D01*
X24025Y-18470D01*
X24025Y-18576D01*
X24065Y-18673D01*
X24140Y-18748D01*
X24238Y-18789D01*
X24343Y-18789D01*
X24441Y-18749D01*
X24516Y-18674D01*
X24557Y-18576D01*
X24557Y-18508D01*
X24861Y-18203D01*
X24832Y-18273D01*
X24832Y-18379D01*
X24873Y-18477D01*
X24947Y-18551D01*
X25045Y-18592D01*
X25127Y-18592D01*
X25127Y-18615D01*
X25168Y-18713D01*
X25242Y-18788D01*
X25340Y-18828D01*
X25446Y-18828D01*
X25544Y-18788D01*
X25618Y-18713D01*
X25659Y-18616D01*
X25659Y-18510D01*
X25619Y-18412D01*
X25570Y-18364D01*
X25570Y-16811D01*
X25570Y-15975D01*
X25586Y-16014D01*
X25625Y-16053D01*
X25676Y-16074D01*
X25731Y-16074D01*
X25981Y-16074D01*
X26031Y-16053D01*
X26070Y-16014D01*
X26078Y-15994D01*
X26086Y-16014D01*
X26125Y-16053D01*
X26151Y-16064D01*
X26151Y-16781D01*
X26151Y-16889D01*
X26151Y-16998D01*
X26151Y-19633D01*
X25567Y-20217D01*
X25499Y-20188D01*
X25327Y-20188D01*
X25258Y-20217D01*
X23720Y-18678D01*
X23720Y-16870D01*
X23675Y-16762D01*
X23661Y-16747D01*
X23661Y-13567D01*
X23675Y-13553D01*
X23720Y-13444D01*
X23720Y-13327D01*
X23675Y-13218D01*
X23592Y-13135D01*
X23484Y-13090D01*
X23366Y-13090D01*
X23258Y-13135D01*
X23175Y-13218D01*
X23129Y-13326D01*
X23129Y-13444D01*
X23174Y-13552D01*
X23188Y-13567D01*
X23188Y-16747D01*
X23175Y-16761D01*
X23129Y-16870D01*
X23129Y-16987D01*
X23174Y-17096D01*
X23257Y-17179D01*
X23366Y-17224D01*
X23483Y-17224D01*
X23592Y-17179D01*
X23675Y-17096D01*
X23720Y-16988D01*
X23720Y-16870D01*
X23720Y-18678D01*
X23184Y-18142D01*
X23127Y-18104D01*
X23059Y-18090D01*
X22704Y-18090D01*
X22704Y-15869D01*
X22704Y-15464D01*
X22704Y-15369D01*
X22668Y-15281D01*
X22600Y-15213D01*
X22512Y-15177D01*
X22420Y-15177D01*
X22360Y-15237D01*
X22360Y-15647D01*
X22645Y-15647D01*
X22704Y-15587D01*
X22704Y-15464D01*
X22704Y-15869D01*
X22704Y-15746D01*
X22645Y-15686D01*
X22360Y-15686D01*
X22360Y-16096D01*
X22420Y-16156D01*
X22512Y-16156D01*
X22600Y-16119D01*
X22668Y-16052D01*
X22704Y-15964D01*
X22704Y-15869D01*
X22704Y-18090D01*
X12474Y-18090D01*
X12427Y-18071D01*
X12372Y-18071D01*
X12147Y-18071D01*
X12083Y-18006D01*
X11995Y-17969D01*
X11899Y-17969D01*
X11898Y-17969D01*
X11838Y-18029D01*
X11838Y-18226D01*
X11838Y-18248D01*
X11838Y-18287D01*
X11838Y-18423D01*
X11838Y-18445D01*
X11838Y-18484D01*
X11838Y-18506D01*
X11838Y-18620D01*
X11838Y-18642D01*
X11838Y-18681D01*
X11838Y-18703D01*
X11838Y-18839D01*
X11838Y-18878D01*
X11838Y-18900D01*
X11838Y-19097D01*
X11898Y-19157D01*
X11899Y-19157D01*
X11995Y-19157D01*
X12083Y-19120D01*
X12147Y-19055D01*
X12171Y-19055D01*
X12427Y-19055D01*
X12475Y-19036D01*
X21167Y-19036D01*
X22598Y-20467D01*
X22570Y-20535D01*
X22570Y-20707D01*
X22636Y-20867D01*
X22758Y-20989D01*
X22917Y-21055D01*
X22937Y-21055D01*
X22870Y-21214D01*
X22870Y-21427D01*
X22951Y-21624D01*
X22953Y-21627D01*
X23048Y-21651D01*
X23377Y-21322D01*
X23372Y-21317D01*
X23399Y-21289D01*
X23405Y-21294D01*
X23411Y-21289D01*
X23438Y-21317D01*
X23433Y-21322D01*
X23762Y-21651D01*
X23857Y-21627D01*
X23870Y-21597D01*
X23962Y-21689D01*
X24122Y-21756D01*
X24294Y-21756D01*
X24453Y-21690D01*
X24546Y-21597D01*
X24557Y-21624D01*
X24559Y-21627D01*
X24654Y-21651D01*
X24983Y-21322D01*
X24978Y-21317D01*
X25006Y-21289D01*
X25011Y-21294D01*
X25017Y-21289D01*
X25045Y-21317D01*
X25039Y-21322D01*
X25368Y-21651D01*
X25464Y-21627D01*
X25476Y-21597D01*
X25569Y-21689D01*
X25728Y-21756D01*
X25900Y-21756D01*
X26060Y-21690D01*
X26182Y-21568D01*
X26248Y-21409D01*
X26248Y-21351D01*
X28188Y-19410D01*
X29350Y-20571D01*
X29350Y-22322D01*
X29035Y-22637D01*
X28962Y-22745D01*
X28937Y-22874D01*
X28962Y-23002D01*
X29035Y-23110D01*
X29143Y-23183D01*
X29271Y-23208D01*
X30098Y-23208D01*
X30226Y-23183D01*
X30335Y-23110D01*
X30407Y-23002D01*
X30433Y-22874D01*
X30407Y-22745D01*
X30335Y-22637D01*
X30198Y-22501D01*
X30198Y-18692D01*
X30198Y-18236D01*
X30198Y-18141D01*
X30162Y-18053D01*
X30094Y-17986D01*
X30006Y-17950D01*
X29863Y-17950D01*
X29804Y-18010D01*
X29804Y-18444D01*
X30138Y-18444D01*
X30198Y-18385D01*
X30198Y-18236D01*
X30198Y-18692D01*
X30198Y-18544D01*
X30138Y-18484D01*
X29804Y-18484D01*
X29804Y-18919D01*
X29863Y-18978D01*
X30006Y-18978D01*
X30094Y-18942D01*
X30162Y-18875D01*
X30198Y-18787D01*
X30198Y-18692D01*
X30198Y-22501D01*
X30019Y-22322D01*
X30019Y-20433D01*
X29994Y-20305D01*
X29994Y-20305D01*
X29965Y-20261D01*
X29921Y-20196D01*
X29921Y-20196D01*
X29764Y-20039D01*
X29764Y-18919D01*
X29764Y-18484D01*
X29764Y-18444D01*
X29764Y-18010D01*
X29704Y-17950D01*
X29562Y-17950D01*
X29474Y-17986D01*
X29406Y-18053D01*
X29370Y-18141D01*
X29370Y-18236D01*
X29370Y-18385D01*
X29429Y-18444D01*
X29764Y-18444D01*
X29764Y-18484D01*
X29429Y-18484D01*
X29370Y-18544D01*
X29370Y-18692D01*
X29370Y-18787D01*
X29406Y-18875D01*
X29474Y-18942D01*
X29562Y-18978D01*
X29704Y-18978D01*
X29764Y-18919D01*
X29764Y-20039D01*
X28662Y-18937D01*
X28762Y-18837D01*
X28781Y-18856D01*
X28831Y-18877D01*
X28886Y-18877D01*
X29236Y-18877D01*
X29287Y-18856D01*
X29326Y-18817D01*
X29347Y-18767D01*
X29347Y-18712D01*
X29347Y-18574D01*
X29369Y-18464D01*
X29347Y-18354D01*
X29347Y-18162D01*
X29326Y-18111D01*
X29287Y-18072D01*
X29274Y-18067D01*
X29428Y-17913D01*
X30707Y-17913D01*
X30707Y-18019D01*
X30728Y-18070D01*
X30767Y-18108D01*
X30818Y-18129D01*
X30873Y-18130D01*
X30942Y-18130D01*
X30941Y-18130D01*
X30941Y-18226D01*
X30941Y-18640D01*
X31001Y-18700D01*
X31555Y-18700D01*
X31555Y-18368D01*
X31555Y-17999D01*
X31555Y-17794D01*
X31547Y-17794D01*
X31547Y-17755D01*
X31555Y-17755D01*
X31555Y-17182D01*
X31495Y-17122D01*
X31389Y-17122D01*
X31301Y-17158D01*
X31233Y-17225D01*
X31218Y-17263D01*
X31199Y-17245D01*
X31149Y-17224D01*
X31094Y-17224D01*
X30818Y-17224D01*
X30767Y-17245D01*
X30729Y-17284D01*
X30708Y-17334D01*
X30707Y-17389D01*
X30707Y-17440D01*
X29330Y-17440D01*
X29240Y-17458D01*
X29163Y-17510D01*
X28867Y-17806D01*
X28816Y-17883D01*
X28798Y-17973D01*
X28798Y-18065D01*
X28781Y-18072D01*
X28742Y-18111D01*
X28735Y-18129D01*
X28661Y-18129D01*
X28533Y-18155D01*
X28424Y-18227D01*
X27952Y-18700D01*
X27952Y-18700D01*
X25763Y-20889D01*
X25758Y-20889D01*
X25780Y-20867D01*
X25846Y-20708D01*
X25846Y-20536D01*
X25818Y-20467D01*
X26454Y-19831D01*
X26492Y-19774D01*
X26505Y-19706D01*
X26505Y-17071D01*
X26510Y-17066D01*
X29862Y-17066D01*
X29930Y-17053D01*
X29930Y-17053D01*
X29987Y-17015D01*
X30952Y-16050D01*
X30990Y-15992D01*
X31003Y-15925D01*
X31003Y-13557D01*
X31658Y-12903D01*
X31725Y-12903D01*
X31823Y-12863D01*
X31898Y-12788D01*
X31938Y-12690D01*
X31939Y-12585D01*
X31898Y-12487D01*
X31823Y-12412D01*
X31747Y-12380D01*
X33488Y-10639D01*
X33556Y-10639D01*
X33654Y-10599D01*
X33729Y-10524D01*
X33769Y-10427D01*
X33769Y-10321D01*
X33742Y-10255D01*
X37185Y-10255D01*
X37252Y-10242D01*
X37252Y-10242D01*
X37310Y-10204D01*
X37526Y-9987D01*
X37565Y-9930D01*
X37578Y-9862D01*
X37578Y-10295D01*
X36707Y-10295D01*
X36660Y-10275D01*
X36605Y-10275D01*
X36349Y-10275D01*
X36298Y-10296D01*
X36278Y-10317D01*
X36257Y-10296D01*
X36207Y-10275D01*
X36152Y-10275D01*
X35896Y-10275D01*
X35874Y-10284D01*
X34645Y-10284D01*
X34645Y-10284D01*
X34631Y-10287D01*
X34573Y-10299D01*
X34512Y-10339D01*
X34512Y-10339D01*
X32170Y-12682D01*
X32129Y-12743D01*
X32115Y-12814D01*
X32115Y-13923D01*
X32052Y-13986D01*
X32007Y-14094D01*
X32007Y-14212D01*
X32052Y-14320D01*
X32066Y-14334D01*
X32066Y-16200D01*
X32084Y-16291D01*
X32136Y-16367D01*
X32480Y-16711D01*
X32480Y-16731D01*
X32525Y-16840D01*
X32608Y-16923D01*
X32716Y-16968D01*
X32834Y-16968D01*
X32942Y-16923D01*
X33025Y-16840D01*
X33070Y-16732D01*
X33070Y-16614D01*
X33026Y-16506D01*
X32943Y-16423D01*
X32834Y-16378D01*
X32814Y-16377D01*
X32539Y-16102D01*
X32539Y-14334D01*
X32553Y-14321D01*
X32598Y-14212D01*
X32598Y-14095D01*
X32553Y-13986D01*
X32490Y-13923D01*
X32490Y-12892D01*
X34723Y-10660D01*
X35785Y-10660D01*
X35785Y-10756D01*
X35790Y-10768D01*
X35785Y-10780D01*
X35785Y-10803D01*
X35720Y-10869D01*
X35684Y-10957D01*
X35684Y-10984D01*
X35744Y-11044D01*
X35849Y-11044D01*
X35895Y-11063D01*
X35950Y-11063D01*
X36079Y-11063D01*
X36079Y-11083D01*
X36071Y-11083D01*
X36071Y-11302D01*
X36131Y-11362D01*
X36132Y-11362D01*
X36227Y-11362D01*
X36315Y-11325D01*
X36380Y-11260D01*
X36403Y-11260D01*
X36659Y-11260D01*
X36707Y-11240D01*
X39667Y-11240D01*
X39902Y-11475D01*
X39873Y-11543D01*
X39873Y-11715D01*
X39939Y-11875D01*
X40061Y-11997D01*
X40144Y-12031D01*
X40061Y-12065D01*
X39939Y-12187D01*
X39911Y-12255D01*
X38458Y-12255D01*
X38418Y-12215D01*
X38320Y-12175D01*
X38215Y-12175D01*
X38117Y-12215D01*
X38042Y-12290D01*
X38002Y-12387D01*
X38001Y-12493D01*
X38042Y-12591D01*
X38116Y-12666D01*
X38214Y-12706D01*
X38320Y-12706D01*
X38418Y-12666D01*
X38474Y-12610D01*
X39911Y-12610D01*
X39939Y-12678D01*
X40061Y-12800D01*
X40144Y-12834D01*
X40061Y-12868D01*
X39939Y-12990D01*
X39911Y-13059D01*
X37175Y-13059D01*
X37138Y-13022D01*
X37041Y-12982D01*
X36935Y-12982D01*
X36837Y-13022D01*
X36763Y-13097D01*
X36722Y-13194D01*
X36722Y-13300D01*
X36762Y-13398D01*
X36837Y-13473D01*
X36935Y-13513D01*
X37040Y-13513D01*
X37138Y-13473D01*
X37198Y-13413D01*
X39911Y-13413D01*
X39939Y-13481D01*
X40061Y-13603D01*
X40220Y-13669D01*
X40392Y-13669D01*
X40552Y-13603D01*
X40674Y-13481D01*
X40740Y-13322D01*
X40740Y-13302D01*
X40899Y-13369D01*
X41112Y-13369D01*
X41309Y-13289D01*
X41312Y-13287D01*
X41336Y-13191D01*
X41007Y-12862D01*
X41002Y-12868D01*
X40974Y-12840D01*
X40980Y-12834D01*
X40974Y-12829D01*
X41002Y-12801D01*
X41007Y-12806D01*
X41336Y-12477D01*
X41312Y-12382D01*
X41282Y-12369D01*
X41374Y-12277D01*
X41441Y-12118D01*
X41441Y-11945D01*
X41441Y-12525D01*
X41364Y-12505D01*
X41035Y-12834D01*
X41364Y-13163D01*
X41460Y-13139D01*
X41542Y-12942D01*
X41543Y-12729D01*
X41543Y-13596D01*
X41523Y-13604D01*
X41282Y-13845D01*
X41151Y-14159D01*
X41151Y-14500D01*
X41208Y-14639D01*
X41113Y-14603D01*
X41085Y-14630D01*
X41085Y-14575D01*
X41044Y-14465D01*
X40798Y-14360D01*
X40530Y-14357D01*
X40282Y-14457D01*
X40270Y-14465D01*
X40229Y-14575D01*
X40657Y-15003D01*
X41085Y-14575D01*
X41085Y-14630D01*
X40685Y-15031D01*
X41113Y-15459D01*
X41223Y-15418D01*
X41328Y-15172D01*
X41331Y-14904D01*
X41304Y-14838D01*
X41522Y-15056D01*
X41836Y-15186D01*
X42177Y-15187D01*
X42492Y-15057D01*
X42733Y-14816D01*
X42864Y-14501D01*
X42864Y-14161D01*
X42864Y-16311D01*
X42734Y-16257D01*
X42521Y-16256D01*
X42324Y-16337D01*
X42321Y-16339D01*
X42297Y-16434D01*
X42625Y-16763D01*
X42954Y-16434D01*
X42954Y-16490D01*
X42653Y-16791D01*
X42982Y-17120D01*
X43078Y-17095D01*
X43160Y-16899D01*
X43160Y-16686D01*
X43160Y-19206D01*
X43080Y-19009D01*
X43078Y-19006D01*
X42982Y-18982D01*
X42954Y-19009D01*
X42954Y-18954D01*
X42954Y-17148D01*
X42625Y-16819D01*
X42598Y-16847D01*
X42598Y-16791D01*
X42269Y-16462D01*
X42173Y-16487D01*
X42091Y-16683D01*
X42091Y-16896D01*
X42171Y-17092D01*
X42173Y-17095D01*
X42269Y-17120D01*
X42598Y-16791D01*
X42598Y-16847D01*
X42297Y-17148D01*
X42321Y-17243D01*
X42517Y-17325D01*
X42730Y-17326D01*
X42927Y-17245D01*
X42930Y-17243D01*
X42954Y-17148D01*
X42954Y-18954D01*
X42930Y-18858D01*
X42734Y-18776D01*
X42521Y-18776D01*
X42324Y-18856D01*
X42321Y-18858D01*
X42297Y-18954D01*
X42625Y-19283D01*
X42954Y-18954D01*
X42954Y-19009D01*
X42653Y-19311D01*
X42982Y-19639D01*
X43078Y-19615D01*
X43160Y-19419D01*
X43160Y-19206D01*
X43160Y-21610D01*
X42954Y-21404D01*
X42954Y-19667D01*
X42625Y-19338D01*
X42598Y-19366D01*
X42598Y-19311D01*
X42269Y-18982D01*
X42173Y-19006D01*
X42091Y-19202D01*
X42091Y-19415D01*
X42171Y-19612D01*
X42173Y-19615D01*
X42269Y-19639D01*
X42598Y-19311D01*
X42598Y-19366D01*
X42297Y-19667D01*
X42321Y-19763D01*
X42517Y-19845D01*
X42730Y-19846D01*
X42927Y-19765D01*
X42930Y-19763D01*
X42954Y-19667D01*
X42954Y-21404D01*
X42874Y-21323D01*
X42389Y-21122D01*
X42059Y-21121D01*
X42059Y-19225D01*
X42059Y-16705D01*
X41993Y-16546D01*
X41871Y-16424D01*
X41712Y-16358D01*
X41540Y-16358D01*
X41380Y-16423D01*
X41259Y-16545D01*
X41192Y-16704D01*
X41192Y-16877D01*
X41258Y-17036D01*
X41380Y-17158D01*
X41539Y-17224D01*
X41711Y-17224D01*
X41870Y-17158D01*
X41992Y-17036D01*
X42058Y-16877D01*
X42059Y-16705D01*
X42059Y-19225D01*
X41993Y-19066D01*
X41871Y-18944D01*
X41712Y-18878D01*
X41540Y-18877D01*
X41380Y-18943D01*
X41259Y-19065D01*
X41210Y-19181D01*
X41210Y-17919D01*
X41170Y-17822D01*
X41095Y-17747D01*
X41085Y-17743D01*
X41085Y-15487D01*
X40657Y-15059D01*
X40629Y-15087D01*
X40629Y-15031D01*
X40201Y-14603D01*
X40091Y-14644D01*
X39986Y-14890D01*
X39983Y-15158D01*
X40083Y-15406D01*
X40091Y-15418D01*
X40201Y-15459D01*
X40629Y-15031D01*
X40629Y-15087D01*
X40229Y-15487D01*
X40270Y-15597D01*
X40516Y-15702D01*
X40784Y-15705D01*
X41032Y-15605D01*
X41044Y-15597D01*
X41085Y-15487D01*
X41085Y-17743D01*
X40997Y-17706D01*
X40892Y-17706D01*
X40794Y-17747D01*
X40719Y-17821D01*
X40679Y-17919D01*
X40679Y-17987D01*
X40555Y-18110D01*
X39919Y-18110D01*
X39919Y-18004D01*
X39914Y-17992D01*
X39919Y-17980D01*
X39919Y-17925D01*
X39919Y-17874D01*
X40057Y-17874D01*
X40105Y-17922D01*
X40202Y-17962D01*
X40308Y-17962D01*
X40406Y-17922D01*
X40481Y-17847D01*
X40521Y-17749D01*
X40521Y-17644D01*
X40481Y-17546D01*
X40406Y-17471D01*
X40308Y-17431D01*
X40203Y-17431D01*
X40105Y-17471D01*
X40056Y-17519D01*
X39856Y-17519D01*
X39809Y-17500D01*
X39754Y-17500D01*
X39498Y-17500D01*
X39448Y-17521D01*
X39427Y-17541D01*
X39407Y-17521D01*
X39356Y-17500D01*
X39301Y-17500D01*
X39045Y-17500D01*
X38998Y-17519D01*
X38931Y-17519D01*
X36692Y-15280D01*
X36692Y-13346D01*
X36679Y-13278D01*
X36641Y-13221D01*
X36031Y-12612D01*
X36031Y-11302D01*
X36031Y-11083D01*
X35744Y-11083D01*
X35684Y-11143D01*
X35684Y-11170D01*
X35720Y-11258D01*
X35787Y-11325D01*
X35875Y-11362D01*
X35970Y-11362D01*
X35972Y-11362D01*
X36031Y-11302D01*
X36031Y-12612D01*
X35991Y-12571D01*
X35933Y-12533D01*
X35866Y-12519D01*
X33661Y-12519D01*
X33593Y-12533D01*
X33536Y-12571D01*
X33264Y-12843D01*
X33226Y-12900D01*
X33212Y-12968D01*
X33212Y-13076D01*
X33150Y-13013D01*
X33062Y-12977D01*
X32969Y-12977D01*
X32909Y-13037D01*
X32909Y-13447D01*
X32917Y-13447D01*
X32917Y-13486D01*
X32909Y-13486D01*
X32909Y-13896D01*
X32969Y-13956D01*
X33062Y-13956D01*
X33150Y-13919D01*
X33217Y-13852D01*
X33219Y-13847D01*
X33237Y-13854D01*
X33292Y-13854D01*
X33542Y-13854D01*
X33592Y-13833D01*
X33631Y-13795D01*
X33639Y-13775D01*
X33647Y-13794D01*
X33686Y-13833D01*
X33712Y-13844D01*
X33712Y-14376D01*
X33652Y-14435D01*
X33612Y-14533D01*
X33612Y-14639D01*
X33652Y-14736D01*
X33727Y-14811D01*
X33824Y-14852D01*
X33930Y-14852D01*
X34028Y-14812D01*
X34103Y-14737D01*
X34143Y-14639D01*
X34143Y-14533D01*
X34103Y-14436D01*
X34066Y-14399D01*
X34066Y-13857D01*
X34129Y-13919D01*
X34217Y-13956D01*
X34310Y-13956D01*
X34370Y-13896D01*
X34370Y-13486D01*
X34362Y-13486D01*
X34362Y-13447D01*
X34370Y-13447D01*
X34370Y-13037D01*
X34310Y-12977D01*
X34217Y-12977D01*
X34129Y-13013D01*
X34061Y-13081D01*
X34059Y-13086D01*
X34042Y-13079D01*
X33987Y-13079D01*
X33737Y-13079D01*
X33686Y-13100D01*
X33648Y-13138D01*
X33639Y-13158D01*
X33631Y-13138D01*
X33592Y-13100D01*
X33566Y-13089D01*
X33566Y-13041D01*
X33734Y-12874D01*
X35792Y-12874D01*
X35932Y-13014D01*
X35909Y-13037D01*
X35909Y-13447D01*
X36194Y-13447D01*
X36254Y-13387D01*
X36254Y-13335D01*
X36338Y-13419D01*
X36338Y-15354D01*
X36352Y-15422D01*
X36390Y-15479D01*
X38733Y-17822D01*
X38733Y-17822D01*
X38790Y-17860D01*
X38858Y-17874D01*
X38935Y-17874D01*
X38935Y-17980D01*
X38940Y-17992D01*
X38935Y-18004D01*
X38935Y-18059D01*
X38935Y-18094D01*
X37349Y-16508D01*
X37292Y-16470D01*
X37224Y-16456D01*
X36254Y-16456D01*
X36254Y-13669D01*
X36254Y-13546D01*
X36194Y-13486D01*
X35909Y-13486D01*
X35909Y-13896D01*
X35969Y-13956D01*
X36062Y-13956D01*
X36150Y-13919D01*
X36217Y-13852D01*
X36254Y-13764D01*
X36254Y-13669D01*
X36254Y-16456D01*
X36106Y-16456D01*
X36136Y-16427D01*
X36181Y-16318D01*
X36181Y-16201D01*
X36136Y-16092D01*
X36125Y-16082D01*
X36125Y-16000D01*
X36131Y-15995D01*
X36152Y-15944D01*
X36152Y-15889D01*
X36152Y-15389D01*
X36131Y-15338D01*
X36092Y-15300D01*
X36042Y-15279D01*
X35987Y-15279D01*
X35870Y-15279D01*
X35870Y-13896D01*
X35870Y-13486D01*
X35870Y-13447D01*
X35870Y-13037D01*
X35810Y-12977D01*
X35717Y-12977D01*
X35639Y-13009D01*
X35562Y-12977D01*
X35469Y-12977D01*
X35409Y-13037D01*
X35409Y-13447D01*
X35585Y-13447D01*
X35694Y-13447D01*
X35870Y-13447D01*
X35870Y-13486D01*
X35694Y-13486D01*
X35585Y-13486D01*
X35409Y-13486D01*
X35409Y-13896D01*
X35469Y-13956D01*
X35562Y-13956D01*
X35639Y-13924D01*
X35717Y-13956D01*
X35810Y-13956D01*
X35870Y-13896D01*
X35870Y-15279D01*
X35737Y-15279D01*
X35719Y-15286D01*
X35717Y-15281D01*
X35650Y-15213D01*
X35562Y-15177D01*
X35469Y-15177D01*
X35409Y-15237D01*
X35409Y-15647D01*
X35417Y-15647D01*
X35417Y-15686D01*
X35409Y-15686D01*
X35409Y-16096D01*
X35469Y-16156D01*
X35562Y-16156D01*
X35618Y-16132D01*
X35590Y-16200D01*
X35590Y-16318D01*
X35635Y-16426D01*
X35665Y-16456D01*
X35370Y-16456D01*
X35370Y-16096D01*
X35370Y-15686D01*
X35370Y-15647D01*
X35370Y-15237D01*
X35370Y-13896D01*
X35370Y-13486D01*
X35362Y-13486D01*
X35362Y-13447D01*
X35370Y-13447D01*
X35370Y-13037D01*
X35310Y-12977D01*
X35217Y-12977D01*
X35129Y-13013D01*
X35061Y-13081D01*
X35059Y-13086D01*
X35042Y-13079D01*
X34987Y-13079D01*
X34737Y-13079D01*
X34719Y-13086D01*
X34717Y-13081D01*
X34650Y-13013D01*
X34562Y-12977D01*
X34469Y-12977D01*
X34409Y-13037D01*
X34409Y-13447D01*
X34417Y-13447D01*
X34417Y-13486D01*
X34409Y-13486D01*
X34409Y-13896D01*
X34469Y-13956D01*
X34562Y-13956D01*
X34650Y-13919D01*
X34717Y-13852D01*
X34719Y-13847D01*
X34737Y-13854D01*
X34792Y-13854D01*
X35042Y-13854D01*
X35059Y-13847D01*
X35061Y-13852D01*
X35129Y-13919D01*
X35217Y-13956D01*
X35310Y-13956D01*
X35370Y-13896D01*
X35370Y-15237D01*
X35310Y-15177D01*
X35217Y-15177D01*
X35139Y-15209D01*
X35062Y-15177D01*
X34969Y-15177D01*
X34909Y-15237D01*
X34909Y-15647D01*
X35085Y-15647D01*
X35194Y-15647D01*
X35370Y-15647D01*
X35370Y-15686D01*
X35194Y-15686D01*
X35085Y-15686D01*
X34909Y-15686D01*
X34909Y-16096D01*
X34969Y-16156D01*
X35062Y-16156D01*
X35139Y-16124D01*
X35217Y-16156D01*
X35310Y-16156D01*
X35370Y-16096D01*
X35370Y-16456D01*
X34870Y-16456D01*
X34870Y-16096D01*
X34870Y-15686D01*
X34862Y-15686D01*
X34862Y-15647D01*
X34870Y-15647D01*
X34870Y-15237D01*
X34810Y-15177D01*
X34717Y-15177D01*
X34629Y-15213D01*
X34561Y-15281D01*
X34559Y-15286D01*
X34542Y-15279D01*
X34487Y-15279D01*
X34237Y-15279D01*
X34219Y-15286D01*
X34217Y-15281D01*
X34150Y-15213D01*
X34062Y-15177D01*
X33969Y-15177D01*
X33909Y-15237D01*
X33909Y-15647D01*
X33917Y-15647D01*
X33917Y-15686D01*
X33909Y-15686D01*
X33909Y-16096D01*
X33969Y-16156D01*
X34062Y-16156D01*
X34150Y-16119D01*
X34217Y-16052D01*
X34219Y-16047D01*
X34237Y-16054D01*
X34292Y-16054D01*
X34542Y-16054D01*
X34559Y-16047D01*
X34561Y-16052D01*
X34629Y-16119D01*
X34717Y-16156D01*
X34810Y-16156D01*
X34870Y-16096D01*
X34870Y-16456D01*
X33537Y-16456D01*
X33103Y-16022D01*
X33131Y-15995D01*
X33139Y-15975D01*
X33147Y-15994D01*
X33186Y-16033D01*
X33237Y-16054D01*
X33292Y-16054D01*
X33542Y-16054D01*
X33559Y-16047D01*
X33561Y-16052D01*
X33629Y-16119D01*
X33717Y-16156D01*
X33810Y-16156D01*
X33870Y-16096D01*
X33870Y-15686D01*
X33862Y-15686D01*
X33862Y-15647D01*
X33870Y-15647D01*
X33870Y-15237D01*
X33810Y-15177D01*
X33717Y-15177D01*
X33644Y-15207D01*
X33651Y-15190D01*
X33651Y-15085D01*
X33611Y-14987D01*
X33536Y-14912D01*
X33438Y-14872D01*
X33333Y-14872D01*
X33235Y-14912D01*
X33160Y-14987D01*
X33120Y-15084D01*
X33120Y-15190D01*
X33160Y-15288D01*
X33179Y-15307D01*
X33148Y-15338D01*
X33139Y-15358D01*
X33131Y-15338D01*
X33092Y-15300D01*
X33042Y-15279D01*
X32987Y-15279D01*
X32870Y-15279D01*
X32870Y-13896D01*
X32870Y-13486D01*
X32870Y-13447D01*
X32870Y-13037D01*
X32810Y-12977D01*
X32717Y-12977D01*
X32629Y-13013D01*
X32561Y-13081D01*
X32525Y-13169D01*
X32525Y-13264D01*
X32525Y-13387D01*
X32585Y-13447D01*
X32870Y-13447D01*
X32870Y-13486D01*
X32585Y-13486D01*
X32525Y-13546D01*
X32525Y-13669D01*
X32525Y-13764D01*
X32561Y-13852D01*
X32629Y-13919D01*
X32717Y-13956D01*
X32810Y-13956D01*
X32870Y-13896D01*
X32870Y-15279D01*
X32737Y-15279D01*
X32686Y-15300D01*
X32648Y-15338D01*
X32626Y-15389D01*
X32626Y-15444D01*
X32626Y-15944D01*
X32647Y-15994D01*
X32686Y-16033D01*
X32712Y-16044D01*
X32712Y-16059D01*
X32726Y-16126D01*
X32764Y-16184D01*
X33339Y-16759D01*
X33339Y-16759D01*
X33396Y-16797D01*
X33463Y-16810D01*
X33188Y-17086D01*
X33116Y-17194D01*
X33090Y-17322D01*
X33090Y-17396D01*
X33072Y-17403D01*
X33033Y-17442D01*
X33026Y-17459D01*
X32441Y-17459D01*
X32441Y-17334D01*
X32420Y-17284D01*
X32381Y-17245D01*
X32331Y-17224D01*
X32276Y-17224D01*
X32000Y-17224D01*
X31949Y-17245D01*
X31931Y-17263D01*
X31915Y-17225D01*
X31848Y-17158D01*
X31760Y-17122D01*
X31654Y-17122D01*
X31594Y-17182D01*
X31594Y-17755D01*
X31602Y-17755D01*
X31602Y-17794D01*
X31594Y-17794D01*
X31594Y-17999D01*
X31594Y-18368D01*
X31594Y-18700D01*
X32147Y-18700D01*
X32207Y-18640D01*
X32207Y-18226D01*
X32207Y-18130D01*
X32207Y-18130D01*
X32331Y-18130D01*
X32381Y-18109D01*
X32420Y-18070D01*
X32441Y-18019D01*
X32441Y-17964D01*
X32441Y-17932D01*
X33026Y-17932D01*
X33033Y-17948D01*
X33072Y-17987D01*
X33122Y-18008D01*
X33177Y-18008D01*
X33315Y-18008D01*
X33425Y-18030D01*
X33534Y-18008D01*
X33727Y-18008D01*
X33778Y-17987D01*
X33816Y-17949D01*
X33837Y-17898D01*
X33838Y-17843D01*
X33838Y-17493D01*
X33817Y-17442D01*
X33797Y-17423D01*
X33878Y-17342D01*
X34664Y-17342D01*
X34901Y-17579D01*
X34901Y-18267D01*
X34294Y-18267D01*
X34212Y-18349D01*
X34212Y-19839D01*
X34294Y-19921D01*
X36177Y-19921D01*
X36259Y-19839D01*
X36259Y-18349D01*
X36177Y-18267D01*
X35570Y-18267D01*
X35570Y-17440D01*
X35570Y-17440D01*
X35570Y-17440D01*
X35565Y-17415D01*
X35545Y-17312D01*
X35545Y-17312D01*
X35472Y-17204D01*
X35472Y-17204D01*
X35079Y-16811D01*
X37151Y-16811D01*
X38753Y-18413D01*
X38810Y-18451D01*
X38810Y-18451D01*
X38878Y-18465D01*
X38998Y-18465D01*
X39045Y-18484D01*
X39100Y-18484D01*
X39356Y-18484D01*
X39407Y-18464D01*
X39427Y-18443D01*
X39447Y-18463D01*
X39498Y-18484D01*
X39553Y-18484D01*
X39809Y-18484D01*
X39856Y-18465D01*
X40629Y-18465D01*
X40696Y-18451D01*
X40696Y-18451D01*
X40754Y-18413D01*
X40929Y-18238D01*
X40997Y-18238D01*
X41095Y-18197D01*
X41170Y-18123D01*
X41210Y-18025D01*
X41210Y-17919D01*
X41210Y-19181D01*
X41192Y-19224D01*
X41192Y-19396D01*
X41258Y-19556D01*
X41380Y-19677D01*
X41539Y-19744D01*
X41711Y-19744D01*
X41870Y-19678D01*
X41992Y-19556D01*
X42058Y-19397D01*
X42059Y-19225D01*
X42059Y-21121D01*
X41864Y-21121D01*
X41379Y-21322D01*
X41008Y-21692D01*
X40807Y-22177D01*
X40806Y-22702D01*
X41007Y-23187D01*
X41377Y-23558D01*
X41862Y-23759D01*
X42387Y-23760D01*
X42872Y-23559D01*
X43243Y-23189D01*
X43444Y-22704D01*
X43445Y-22179D01*
X43445Y-24242D01*
X36259Y-24242D01*
X33939Y-24242D01*
X33939Y-18668D01*
X33939Y-18223D01*
X33903Y-18135D01*
X33835Y-18068D01*
X33748Y-18031D01*
X33652Y-18031D01*
X33504Y-18031D01*
X33444Y-18091D01*
X33444Y-18426D01*
X33879Y-18426D01*
X33939Y-18366D01*
X33939Y-18223D01*
X33939Y-18668D01*
X33939Y-18525D01*
X33879Y-18465D01*
X33444Y-18465D01*
X33444Y-18800D01*
X33504Y-18860D01*
X33652Y-18860D01*
X33748Y-18860D01*
X33835Y-18823D01*
X33903Y-18756D01*
X33939Y-18668D01*
X33939Y-24242D01*
X33405Y-24242D01*
X33405Y-18800D01*
X33405Y-18465D01*
X33405Y-18426D01*
X33405Y-18091D01*
X33345Y-18031D01*
X33197Y-18031D01*
X33102Y-18031D01*
X33014Y-18068D01*
X32947Y-18135D01*
X32910Y-18223D01*
X32910Y-18366D01*
X32970Y-18426D01*
X33405Y-18426D01*
X33405Y-18465D01*
X32970Y-18465D01*
X32910Y-18525D01*
X32910Y-18668D01*
X32947Y-18756D01*
X33014Y-18823D01*
X33102Y-18860D01*
X33197Y-18860D01*
X33345Y-18860D01*
X33405Y-18800D01*
X33405Y-24242D01*
X32207Y-24242D01*
X32207Y-19214D01*
X32207Y-18799D01*
X32147Y-18739D01*
X31594Y-18739D01*
X31594Y-19441D01*
X31654Y-19501D01*
X32015Y-19501D01*
X32103Y-19464D01*
X32171Y-19397D01*
X32207Y-19309D01*
X32207Y-19214D01*
X32207Y-24242D01*
X31555Y-24242D01*
X31555Y-19441D01*
X31555Y-18739D01*
X31001Y-18739D01*
X30941Y-18799D01*
X30941Y-19214D01*
X30941Y-19309D01*
X30978Y-19397D01*
X31045Y-19464D01*
X31133Y-19501D01*
X31495Y-19501D01*
X31555Y-19441D01*
X31555Y-24242D01*
X28284Y-24242D01*
X28284Y-20845D01*
X28184Y-20597D01*
X28176Y-20585D01*
X28066Y-20544D01*
X28038Y-20571D01*
X28038Y-20516D01*
X27997Y-20406D01*
X27751Y-20301D01*
X27483Y-20298D01*
X27235Y-20398D01*
X27223Y-20406D01*
X27181Y-20516D01*
X27610Y-20944D01*
X28038Y-20516D01*
X28038Y-20571D01*
X27638Y-20972D01*
X28066Y-21400D01*
X28176Y-21359D01*
X28281Y-21113D01*
X28284Y-20845D01*
X28284Y-24242D01*
X28038Y-24242D01*
X28038Y-21428D01*
X27610Y-21000D01*
X27582Y-21028D01*
X27582Y-20972D01*
X27154Y-20544D01*
X27044Y-20585D01*
X26939Y-20831D01*
X26936Y-21099D01*
X27036Y-21347D01*
X27044Y-21359D01*
X27154Y-21400D01*
X27582Y-20972D01*
X27582Y-21028D01*
X27181Y-21428D01*
X27217Y-21523D01*
X27080Y-21466D01*
X26739Y-21466D01*
X26425Y-21596D01*
X26183Y-21837D01*
X26053Y-22151D01*
X26053Y-22492D01*
X26183Y-22807D01*
X26423Y-23048D01*
X26738Y-23178D01*
X27079Y-23179D01*
X27393Y-23049D01*
X27634Y-22808D01*
X27765Y-22493D01*
X27765Y-22153D01*
X27635Y-21838D01*
X27420Y-21622D01*
X27469Y-21643D01*
X27736Y-21646D01*
X27985Y-21546D01*
X27997Y-21538D01*
X28038Y-21428D01*
X28038Y-24242D01*
X25340Y-24242D01*
X25340Y-21679D01*
X25011Y-21350D01*
X24682Y-21679D01*
X24707Y-21775D01*
X24903Y-21857D01*
X25116Y-21858D01*
X25313Y-21777D01*
X25316Y-21775D01*
X25340Y-21679D01*
X25340Y-24242D01*
X23734Y-24242D01*
X23734Y-21679D01*
X23405Y-21350D01*
X23076Y-21679D01*
X23101Y-21775D01*
X23297Y-21857D01*
X23510Y-21858D01*
X23707Y-21777D01*
X23709Y-21775D01*
X23734Y-21679D01*
X23734Y-24242D01*
X22765Y-24242D01*
X22765Y-22153D01*
X22635Y-21838D01*
X22395Y-21597D01*
X22080Y-21466D01*
X21882Y-21466D01*
X21882Y-20845D01*
X21782Y-20597D01*
X21774Y-20585D01*
X21664Y-20544D01*
X21637Y-20571D01*
X21637Y-20516D01*
X21595Y-20406D01*
X21349Y-20301D01*
X21082Y-20298D01*
X20833Y-20398D01*
X20821Y-20406D01*
X20780Y-20516D01*
X21208Y-20944D01*
X21637Y-20516D01*
X21637Y-20571D01*
X21236Y-20972D01*
X21664Y-21400D01*
X21774Y-21359D01*
X21879Y-21113D01*
X21882Y-20845D01*
X21882Y-21466D01*
X21739Y-21466D01*
X21601Y-21523D01*
X21637Y-21428D01*
X21208Y-21000D01*
X21180Y-21028D01*
X21180Y-20972D01*
X20752Y-20544D01*
X20642Y-20585D01*
X20570Y-20754D01*
X20507Y-20597D01*
X20499Y-20585D01*
X20389Y-20544D01*
X20361Y-20571D01*
X20361Y-20516D01*
X20319Y-20406D01*
X20073Y-20301D01*
X19806Y-20298D01*
X19558Y-20398D01*
X19546Y-20406D01*
X19504Y-20516D01*
X19933Y-20944D01*
X20361Y-20516D01*
X20361Y-20571D01*
X19960Y-20972D01*
X20389Y-21400D01*
X20499Y-21359D01*
X20571Y-21189D01*
X20634Y-21347D01*
X20642Y-21359D01*
X20752Y-21400D01*
X21180Y-20972D01*
X21180Y-21028D01*
X20780Y-21428D01*
X20821Y-21538D01*
X21067Y-21643D01*
X21335Y-21646D01*
X21402Y-21619D01*
X21183Y-21837D01*
X21053Y-22151D01*
X21053Y-22492D01*
X21183Y-22807D01*
X21423Y-23048D01*
X21738Y-23178D01*
X22079Y-23179D01*
X22393Y-23049D01*
X22634Y-22808D01*
X22765Y-22493D01*
X22765Y-22153D01*
X22765Y-24242D01*
X20361Y-24242D01*
X20361Y-21428D01*
X19933Y-21000D01*
X19905Y-21028D01*
X19905Y-20972D01*
X19476Y-20544D01*
X19367Y-20585D01*
X19262Y-20831D01*
X19259Y-21099D01*
X19359Y-21347D01*
X19367Y-21359D01*
X19476Y-21400D01*
X19905Y-20972D01*
X19905Y-21028D01*
X19504Y-21428D01*
X19540Y-21523D01*
X19403Y-21466D01*
X19062Y-21466D01*
X18747Y-21596D01*
X18571Y-21772D01*
X18571Y-21237D01*
X18505Y-21077D01*
X18383Y-20955D01*
X18224Y-20889D01*
X18081Y-20889D01*
X18103Y-20867D01*
X18169Y-20708D01*
X18169Y-20536D01*
X18103Y-20376D01*
X17981Y-20254D01*
X17822Y-20188D01*
X17650Y-20188D01*
X17581Y-20217D01*
X16786Y-19422D01*
X16729Y-19383D01*
X16661Y-19370D01*
X12474Y-19370D01*
X12427Y-19350D01*
X12372Y-19350D01*
X12147Y-19350D01*
X12083Y-19285D01*
X11995Y-19249D01*
X11899Y-19249D01*
X11898Y-19249D01*
X11838Y-19308D01*
X11838Y-19505D01*
X11838Y-19527D01*
X11838Y-19567D01*
X11838Y-19702D01*
X11838Y-19724D01*
X11838Y-19764D01*
X11838Y-19772D01*
X11799Y-19772D01*
X11799Y-19764D01*
X11799Y-19724D01*
X11799Y-19702D01*
X11799Y-19567D01*
X11799Y-19527D01*
X11799Y-19505D01*
X11799Y-19308D01*
X11799Y-19097D01*
X11799Y-18900D01*
X11799Y-18878D01*
X11799Y-18839D01*
X11799Y-18703D01*
X11799Y-18681D01*
X11799Y-18642D01*
X11799Y-18620D01*
X11799Y-18506D01*
X11799Y-18484D01*
X11799Y-18445D01*
X11799Y-18423D01*
X11799Y-18287D01*
X11799Y-18248D01*
X11799Y-18226D01*
X11799Y-18029D01*
X11739Y-17969D01*
X11738Y-17969D01*
X11643Y-17969D01*
X11555Y-18006D01*
X11488Y-18073D01*
X11451Y-18161D01*
X11451Y-18188D01*
X11511Y-18247D01*
X11488Y-18270D01*
X11459Y-18339D01*
X11451Y-18347D01*
X11451Y-18358D01*
X11451Y-18358D01*
X11451Y-18366D01*
X11451Y-18374D01*
X11451Y-18374D01*
X11451Y-18385D01*
X11459Y-18393D01*
X11488Y-18462D01*
X11490Y-18464D01*
X11488Y-18467D01*
X11459Y-18536D01*
X11451Y-18544D01*
X11451Y-18555D01*
X11451Y-18555D01*
X11451Y-18563D01*
X11451Y-18571D01*
X11451Y-18571D01*
X11451Y-18582D01*
X11459Y-18590D01*
X11488Y-18659D01*
X11490Y-18661D01*
X11488Y-18664D01*
X11459Y-18733D01*
X11451Y-18741D01*
X11451Y-18752D01*
X11451Y-18752D01*
X11451Y-18760D01*
X11451Y-18768D01*
X11451Y-18768D01*
X11451Y-18779D01*
X11459Y-18787D01*
X11488Y-18856D01*
X11511Y-18879D01*
X11451Y-18938D01*
X11451Y-18965D01*
X11488Y-19053D01*
X11555Y-19120D01*
X11643Y-19157D01*
X11738Y-19157D01*
X11739Y-19157D01*
X11799Y-19097D01*
X11799Y-19308D01*
X11739Y-19249D01*
X11738Y-19249D01*
X11643Y-19249D01*
X11555Y-19285D01*
X11488Y-19353D01*
X11451Y-19441D01*
X11451Y-19467D01*
X11511Y-19527D01*
X11488Y-19550D01*
X11459Y-19619D01*
X11451Y-19627D01*
X11451Y-19638D01*
X11451Y-19638D01*
X11451Y-19646D01*
X11451Y-19653D01*
X11451Y-19653D01*
X11451Y-19664D01*
X11459Y-19672D01*
X11488Y-19741D01*
X11490Y-19744D01*
X11488Y-19747D01*
X11459Y-19816D01*
X11451Y-19824D01*
X11451Y-19835D01*
X11451Y-19835D01*
X11451Y-19843D01*
X11451Y-19850D01*
X11451Y-19850D01*
X11451Y-19861D01*
X11459Y-19869D01*
X11488Y-19938D01*
X11511Y-19961D01*
X11451Y-20021D01*
X11451Y-20047D01*
X11488Y-20135D01*
X11553Y-20201D01*
X11553Y-20224D01*
X11574Y-20275D01*
X11613Y-20314D01*
X11663Y-20335D01*
X11718Y-20335D01*
X11974Y-20335D01*
X12025Y-20314D01*
X12045Y-20293D01*
X12066Y-20314D01*
X12116Y-20335D01*
X12171Y-20335D01*
X12427Y-20335D01*
X12478Y-20314D01*
X12516Y-20275D01*
X12538Y-20225D01*
X12538Y-20170D01*
X12538Y-20118D01*
X15376Y-20118D01*
X15469Y-20212D01*
X15413Y-20188D01*
X15240Y-20188D01*
X15081Y-20254D01*
X14959Y-20376D01*
X14893Y-20535D01*
X14893Y-20707D01*
X14959Y-20867D01*
X15081Y-20989D01*
X15240Y-21055D01*
X15260Y-21055D01*
X15193Y-21214D01*
X15193Y-21427D01*
X15273Y-21624D01*
X15275Y-21627D01*
X15371Y-21651D01*
X15700Y-21322D01*
X15694Y-21317D01*
X15722Y-21289D01*
X15728Y-21294D01*
X15733Y-21289D01*
X15761Y-21317D01*
X15756Y-21322D01*
X16085Y-21651D01*
X16180Y-21627D01*
X16193Y-21597D01*
X16285Y-21689D01*
X16444Y-21756D01*
X16617Y-21756D01*
X16776Y-21690D01*
X16869Y-21597D01*
X16880Y-21624D01*
X16882Y-21627D01*
X16977Y-21651D01*
X17306Y-21322D01*
X17301Y-21317D01*
X17329Y-21289D01*
X17334Y-21294D01*
X17340Y-21289D01*
X17368Y-21317D01*
X17362Y-21322D01*
X17691Y-21651D01*
X17787Y-21627D01*
X17799Y-21597D01*
X17892Y-21689D01*
X18051Y-21756D01*
X18223Y-21756D01*
X18382Y-21690D01*
X18504Y-21568D01*
X18571Y-21409D01*
X18571Y-21237D01*
X18571Y-21772D01*
X18506Y-21837D01*
X18376Y-22151D01*
X18375Y-22492D01*
X18505Y-22807D01*
X18746Y-23048D01*
X19061Y-23178D01*
X19401Y-23179D01*
X19716Y-23049D01*
X19957Y-22808D01*
X20088Y-22493D01*
X20088Y-22153D01*
X19958Y-21838D01*
X19743Y-21622D01*
X19792Y-21643D01*
X20059Y-21646D01*
X20307Y-21546D01*
X20319Y-21538D01*
X20361Y-21428D01*
X20361Y-24242D01*
X17663Y-24242D01*
X17663Y-21679D01*
X17334Y-21350D01*
X17005Y-21679D01*
X17030Y-21775D01*
X17226Y-21857D01*
X17439Y-21858D01*
X17636Y-21777D01*
X17639Y-21775D01*
X17663Y-21679D01*
X17663Y-24242D01*
X16057Y-24242D01*
X16057Y-21679D01*
X15728Y-21350D01*
X15399Y-21679D01*
X15423Y-21775D01*
X15620Y-21857D01*
X15833Y-21858D01*
X16029Y-21777D01*
X16032Y-21775D01*
X16057Y-21679D01*
X16057Y-24242D01*
X15088Y-24242D01*
X15088Y-22153D01*
X14958Y-21838D01*
X14717Y-21597D01*
X14403Y-21466D01*
X14205Y-21466D01*
X14205Y-20845D01*
X14105Y-20597D01*
X14097Y-20585D01*
X13987Y-20544D01*
X13959Y-20571D01*
X13959Y-20516D01*
X13918Y-20406D01*
X13672Y-20301D01*
X13404Y-20298D01*
X13156Y-20398D01*
X13144Y-20406D01*
X13103Y-20516D01*
X13531Y-20944D01*
X13959Y-20516D01*
X13959Y-20571D01*
X13559Y-20972D01*
X13987Y-21400D01*
X14097Y-21359D01*
X14202Y-21113D01*
X14205Y-20845D01*
X14205Y-21466D01*
X14062Y-21466D01*
X13923Y-21523D01*
X13959Y-21428D01*
X13531Y-21000D01*
X13503Y-21028D01*
X13503Y-20972D01*
X13075Y-20544D01*
X12965Y-20585D01*
X12860Y-20831D01*
X12857Y-21099D01*
X12957Y-21347D01*
X12965Y-21359D01*
X13075Y-21400D01*
X13503Y-20972D01*
X13503Y-21028D01*
X13103Y-21428D01*
X13144Y-21538D01*
X13390Y-21643D01*
X13658Y-21646D01*
X13724Y-21619D01*
X13506Y-21837D01*
X13376Y-22151D01*
X13375Y-22492D01*
X13505Y-22807D01*
X13746Y-23048D01*
X14061Y-23178D01*
X14401Y-23179D01*
X14716Y-23049D01*
X14957Y-22808D01*
X15088Y-22493D01*
X15088Y-22153D01*
X15088Y-24242D01*
X8964Y-24242D01*
X8964Y-12748D01*
X8899Y-12589D01*
X8777Y-12467D01*
X8694Y-12433D01*
X8776Y-12399D01*
X8898Y-12277D01*
X8964Y-12118D01*
X8964Y-11945D01*
X8899Y-11786D01*
X8777Y-11664D01*
X8694Y-11629D01*
X8776Y-11595D01*
X8898Y-11474D01*
X8964Y-11314D01*
X8964Y-11142D01*
X8899Y-10983D01*
X8777Y-10861D01*
X8694Y-10826D01*
X8776Y-10792D01*
X8898Y-10670D01*
X8964Y-10511D01*
X8964Y-10339D01*
X8899Y-10180D01*
X8854Y-10135D01*
X8854Y-8503D01*
X8755Y-8255D01*
X8747Y-8243D01*
X8637Y-8201D01*
X8609Y-8229D01*
X8609Y-8173D01*
X8568Y-8063D01*
X8321Y-7958D01*
X8054Y-7956D01*
X8012Y-7973D01*
X8012Y-6431D01*
X7811Y-5946D01*
X7440Y-5575D01*
X6956Y-5374D01*
X6431Y-5373D01*
X5946Y-5574D01*
X5575Y-5944D01*
X5374Y-6429D01*
X5373Y-6954D01*
X5574Y-7439D01*
X5944Y-7810D01*
X6429Y-8011D01*
X6954Y-8012D01*
X7439Y-7811D01*
X7810Y-7440D01*
X8011Y-6956D01*
X8012Y-6431D01*
X8012Y-7973D01*
X7806Y-8055D01*
X7794Y-8063D01*
X7752Y-8173D01*
X8181Y-8602D01*
X8609Y-8173D01*
X8609Y-8229D01*
X8208Y-8629D01*
X8637Y-9058D01*
X8747Y-9016D01*
X8852Y-8770D01*
X8854Y-8503D01*
X8854Y-10135D01*
X8777Y-10058D01*
X8618Y-9991D01*
X8609Y-9991D01*
X8609Y-9086D01*
X8181Y-8657D01*
X8153Y-8685D01*
X8153Y-8629D01*
X7724Y-8201D01*
X7615Y-8243D01*
X7510Y-8489D01*
X7507Y-8756D01*
X7534Y-8823D01*
X7316Y-8605D01*
X7001Y-8474D01*
X6661Y-8474D01*
X6346Y-8604D01*
X6105Y-8845D01*
X5974Y-9159D01*
X5974Y-9500D01*
X6104Y-9815D01*
X6345Y-10056D01*
X6659Y-10186D01*
X7000Y-10187D01*
X7315Y-10057D01*
X7556Y-9816D01*
X7686Y-9501D01*
X7687Y-9161D01*
X7629Y-9022D01*
X7724Y-9058D01*
X8153Y-8629D01*
X8153Y-8685D01*
X7752Y-9086D01*
X7794Y-9195D01*
X8040Y-9300D01*
X8307Y-9303D01*
X8555Y-9203D01*
X8568Y-9195D01*
X8609Y-9086D01*
X8609Y-9991D01*
X8445Y-9991D01*
X8286Y-10057D01*
X8164Y-10179D01*
X8098Y-10338D01*
X8098Y-10358D01*
X7938Y-10292D01*
X7726Y-10291D01*
X7529Y-10372D01*
X7526Y-10374D01*
X7501Y-10469D01*
X7830Y-10798D01*
X7836Y-10793D01*
X7864Y-10821D01*
X7858Y-10826D01*
X7864Y-10832D01*
X7836Y-10860D01*
X7830Y-10854D01*
X7802Y-10882D01*
X7802Y-10826D01*
X7473Y-10497D01*
X7378Y-10522D01*
X7296Y-10718D01*
X7295Y-10931D01*
X7376Y-11128D01*
X7378Y-11131D01*
X7473Y-11155D01*
X7802Y-10826D01*
X7802Y-10882D01*
X7501Y-11183D01*
X7526Y-11279D01*
X7556Y-11291D01*
X7463Y-11384D01*
X7397Y-11543D01*
X7397Y-11715D01*
X7463Y-11875D01*
X7555Y-11967D01*
X7529Y-11978D01*
X7526Y-11980D01*
X7501Y-12076D01*
X7830Y-12405D01*
X7836Y-12399D01*
X7864Y-12427D01*
X7858Y-12433D01*
X7864Y-12438D01*
X7836Y-12466D01*
X7830Y-12460D01*
X7802Y-12488D01*
X7802Y-12433D01*
X7473Y-12103D01*
X7378Y-12128D01*
X7296Y-12324D01*
X7295Y-12537D01*
X7376Y-12734D01*
X7378Y-12737D01*
X7473Y-12762D01*
X7802Y-12433D01*
X7802Y-12488D01*
X7501Y-12790D01*
X7526Y-12885D01*
X7556Y-12898D01*
X7463Y-12990D01*
X7397Y-13149D01*
X7397Y-13322D01*
X7463Y-13481D01*
X7584Y-13603D01*
X7744Y-13669D01*
X7916Y-13669D01*
X8075Y-13603D01*
X8197Y-13481D01*
X8263Y-13322D01*
X8264Y-13180D01*
X8285Y-13201D01*
X8444Y-13267D01*
X8617Y-13268D01*
X8776Y-13202D01*
X8898Y-13080D01*
X8964Y-12921D01*
X8964Y-12748D01*
X8964Y-24242D01*
X8854Y-24242D01*
X8854Y-14904D01*
X8755Y-14656D01*
X8747Y-14644D01*
X8637Y-14603D01*
X8609Y-14630D01*
X8609Y-14575D01*
X8568Y-14465D01*
X8321Y-14360D01*
X8054Y-14357D01*
X7806Y-14457D01*
X7794Y-14465D01*
X7752Y-14575D01*
X8181Y-15003D01*
X8609Y-14575D01*
X8609Y-14630D01*
X8208Y-15031D01*
X8637Y-15459D01*
X8747Y-15418D01*
X8852Y-15172D01*
X8854Y-14904D01*
X8854Y-24242D01*
X8609Y-24242D01*
X8609Y-15487D01*
X8181Y-15059D01*
X8153Y-15087D01*
X8153Y-15031D01*
X7724Y-14603D01*
X7629Y-14639D01*
X7686Y-14501D01*
X7687Y-14161D01*
X7557Y-13846D01*
X7316Y-13605D01*
X7001Y-13474D01*
X6661Y-13474D01*
X6346Y-13604D01*
X6105Y-13845D01*
X5974Y-14159D01*
X5974Y-14500D01*
X6104Y-14815D01*
X6345Y-15056D01*
X6659Y-15186D01*
X7000Y-15187D01*
X7315Y-15057D01*
X7531Y-14841D01*
X7510Y-14890D01*
X7507Y-15158D01*
X7607Y-15406D01*
X7615Y-15418D01*
X7724Y-15459D01*
X8153Y-15031D01*
X8153Y-15087D01*
X7752Y-15487D01*
X7794Y-15597D01*
X8040Y-15702D01*
X8307Y-15705D01*
X8555Y-15605D01*
X8568Y-15597D01*
X8609Y-15487D01*
X8609Y-24242D01*
X8012Y-24242D01*
X8012Y-22179D01*
X7811Y-21694D01*
X7440Y-21323D01*
X6956Y-21122D01*
X6431Y-21121D01*
X5946Y-21322D01*
X5575Y-21692D01*
X5374Y-22177D01*
X5373Y-22702D01*
X5574Y-23187D01*
X5944Y-23558D01*
X6429Y-23759D01*
X6954Y-23760D01*
X7439Y-23559D01*
X7810Y-23189D01*
X8011Y-22704D01*
X8012Y-22179D01*
X8012Y-24242D01*
X4891Y-24242D01*
X4891Y-4891D01*
X43927Y-4891D01*
X43927Y-24242D01*
X43927Y-24242D01*
G37*
G54D28*
X43927Y-24242D02*
X43445Y-24242D01*
X43445Y-22179D01*
X43445Y-6431D01*
X43244Y-5946D01*
X42874Y-5575D01*
X42389Y-5374D01*
X41864Y-5373D01*
X41379Y-5574D01*
X41008Y-5944D01*
X40807Y-6429D01*
X40806Y-6954D01*
X41007Y-7439D01*
X41377Y-7810D01*
X41862Y-8011D01*
X42387Y-8012D01*
X42872Y-7811D01*
X43243Y-7440D01*
X43444Y-6956D01*
X43445Y-6431D01*
X43445Y-22179D01*
X43244Y-21694D01*
X43160Y-21610D01*
X43160Y-19206D01*
X43160Y-16686D01*
X43080Y-16489D01*
X43078Y-16487D01*
X42982Y-16462D01*
X42954Y-16490D01*
X42954Y-16434D01*
X42930Y-16339D01*
X42864Y-16311D01*
X42864Y-14161D01*
X42864Y-9161D01*
X42734Y-8846D01*
X42493Y-8605D01*
X42178Y-8474D01*
X41838Y-8474D01*
X41523Y-8604D01*
X41307Y-8819D01*
X41328Y-8770D01*
X41331Y-8503D01*
X41231Y-8255D01*
X41223Y-8243D01*
X41113Y-8201D01*
X41085Y-8229D01*
X41085Y-8173D01*
X41044Y-8063D01*
X40798Y-7958D01*
X40530Y-7956D01*
X40282Y-8055D01*
X40270Y-8063D01*
X40229Y-8173D01*
X40657Y-8602D01*
X41085Y-8173D01*
X41085Y-8229D01*
X40685Y-8629D01*
X41113Y-9058D01*
X41208Y-9022D01*
X41151Y-9159D01*
X41151Y-9500D01*
X41281Y-9815D01*
X41522Y-10056D01*
X41836Y-10186D01*
X42177Y-10187D01*
X42492Y-10057D01*
X42733Y-9816D01*
X42864Y-9501D01*
X42864Y-9161D01*
X42864Y-14161D01*
X42734Y-13846D01*
X42493Y-13605D01*
X42178Y-13474D01*
X41838Y-13474D01*
X41543Y-13596D01*
X41543Y-12729D01*
X41543Y-11123D01*
X41462Y-10926D01*
X41460Y-10923D01*
X41364Y-10899D01*
X41035Y-11228D01*
X41364Y-11557D01*
X41460Y-11532D01*
X41542Y-11336D01*
X41543Y-11123D01*
X41543Y-12729D01*
X41462Y-12533D01*
X41460Y-12530D01*
X41441Y-12525D01*
X41441Y-11945D01*
X41375Y-11786D01*
X41282Y-11693D01*
X41309Y-11682D01*
X41312Y-11680D01*
X41336Y-11585D01*
X41007Y-11256D01*
X41002Y-11261D01*
X40974Y-11233D01*
X40980Y-11228D01*
X40974Y-11222D01*
X41002Y-11194D01*
X41007Y-11200D01*
X41336Y-10871D01*
X41312Y-10775D01*
X41282Y-10763D01*
X41374Y-10670D01*
X41441Y-10511D01*
X41441Y-10339D01*
X41375Y-10180D01*
X41253Y-10058D01*
X41094Y-9991D01*
X41085Y-9991D01*
X41085Y-9086D01*
X40657Y-8657D01*
X40629Y-8685D01*
X40629Y-8629D01*
X40201Y-8201D01*
X40091Y-8243D01*
X39986Y-8489D01*
X39983Y-8756D01*
X40083Y-9004D01*
X40091Y-9016D01*
X40201Y-9058D01*
X40629Y-8629D01*
X40629Y-8685D01*
X40229Y-9086D01*
X40270Y-9195D01*
X40516Y-9300D01*
X40784Y-9303D01*
X41032Y-9203D01*
X41044Y-9195D01*
X41085Y-9086D01*
X41085Y-9991D01*
X40922Y-9991D01*
X40762Y-10057D01*
X40640Y-10179D01*
X40574Y-10338D01*
X40574Y-10481D01*
X40552Y-10459D01*
X40393Y-10393D01*
X40221Y-10393D01*
X40152Y-10421D01*
X40078Y-10347D01*
X40020Y-10309D01*
X39953Y-10295D01*
X37578Y-10295D01*
X37578Y-9862D01*
X37578Y-9251D01*
X37565Y-9184D01*
X37526Y-9126D01*
X37368Y-8968D01*
X37311Y-8930D01*
X37243Y-8916D01*
X36710Y-8916D01*
X36663Y-8896D01*
X36608Y-8896D01*
X36352Y-8896D01*
X36301Y-8917D01*
X36281Y-8938D01*
X36260Y-8918D01*
X36210Y-8896D01*
X36155Y-8896D01*
X35961Y-8896D01*
X35961Y-8034D01*
X35861Y-7786D01*
X35853Y-7774D01*
X35743Y-7733D01*
X35715Y-7760D01*
X35715Y-7705D01*
X35674Y-7595D01*
X35428Y-7490D01*
X35160Y-7487D01*
X35094Y-7514D01*
X35312Y-7296D01*
X35442Y-6982D01*
X35443Y-6641D01*
X35312Y-6326D01*
X35072Y-6085D01*
X34757Y-5954D01*
X34417Y-5954D01*
X34102Y-6084D01*
X33861Y-6325D01*
X33730Y-6639D01*
X33730Y-6980D01*
X33860Y-7295D01*
X34100Y-7536D01*
X34415Y-7667D01*
X34756Y-7667D01*
X34894Y-7610D01*
X34859Y-7705D01*
X35287Y-8133D01*
X35715Y-7705D01*
X35715Y-7760D01*
X35315Y-8161D01*
X35743Y-8589D01*
X35853Y-8548D01*
X35958Y-8302D01*
X35961Y-8034D01*
X35961Y-8896D01*
X35899Y-8896D01*
X35851Y-8916D01*
X35715Y-8916D01*
X35715Y-8617D01*
X35287Y-8189D01*
X35259Y-8217D01*
X35259Y-8161D01*
X34831Y-7733D01*
X34721Y-7774D01*
X34616Y-8020D01*
X34613Y-8288D01*
X34713Y-8536D01*
X34721Y-8548D01*
X34831Y-8589D01*
X35259Y-8161D01*
X35259Y-8217D01*
X34859Y-8617D01*
X34900Y-8727D01*
X35146Y-8832D01*
X35414Y-8835D01*
X35662Y-8735D01*
X35674Y-8727D01*
X35715Y-8617D01*
X35715Y-8916D01*
X33647Y-8916D01*
X33737Y-8879D01*
X33859Y-8757D01*
X33925Y-8598D01*
X33925Y-8426D01*
X33859Y-8266D01*
X33737Y-8144D01*
X33578Y-8078D01*
X33558Y-8078D01*
X33625Y-7919D01*
X33625Y-7706D01*
X33544Y-7509D01*
X33543Y-7506D01*
X33447Y-7481D01*
X33419Y-7509D01*
X33419Y-7454D01*
X33394Y-7358D01*
X33198Y-7276D01*
X32985Y-7275D01*
X32789Y-7356D01*
X32786Y-7358D01*
X32761Y-7454D01*
X33090Y-7783D01*
X33419Y-7454D01*
X33419Y-7509D01*
X33118Y-7811D01*
X33123Y-7816D01*
X33096Y-7844D01*
X33090Y-7838D01*
X33084Y-7844D01*
X33057Y-7816D01*
X33062Y-7811D01*
X32733Y-7481D01*
X32638Y-7506D01*
X32625Y-7536D01*
X32533Y-7443D01*
X32373Y-7377D01*
X32201Y-7377D01*
X32042Y-7443D01*
X31949Y-7536D01*
X31938Y-7509D01*
X31936Y-7506D01*
X31841Y-7481D01*
X31813Y-7509D01*
X31813Y-7454D01*
X31788Y-7358D01*
X31592Y-7276D01*
X31379Y-7275D01*
X31182Y-7356D01*
X31179Y-7358D01*
X31155Y-7454D01*
X31484Y-7783D01*
X31813Y-7454D01*
X31813Y-7509D01*
X31512Y-7811D01*
X31517Y-7816D01*
X31489Y-7844D01*
X31484Y-7838D01*
X31478Y-7844D01*
X31450Y-7816D01*
X31456Y-7811D01*
X31127Y-7481D01*
X31031Y-7506D01*
X31019Y-7536D01*
X30926Y-7443D01*
X30767Y-7377D01*
X30595Y-7377D01*
X30443Y-7440D01*
X30443Y-6641D01*
X30312Y-6326D01*
X30072Y-6085D01*
X29757Y-5954D01*
X29417Y-5954D01*
X29102Y-6084D01*
X28861Y-6325D01*
X28730Y-6639D01*
X28730Y-6980D01*
X28860Y-7295D01*
X29075Y-7511D01*
X29026Y-7490D01*
X28759Y-7487D01*
X28510Y-7587D01*
X28498Y-7595D01*
X28457Y-7705D01*
X28885Y-8133D01*
X29314Y-7705D01*
X29278Y-7610D01*
X29415Y-7667D01*
X29756Y-7667D01*
X30071Y-7537D01*
X30312Y-7296D01*
X30442Y-6982D01*
X30443Y-6641D01*
X30443Y-7440D01*
X30435Y-7443D01*
X30313Y-7565D01*
X30247Y-7724D01*
X30247Y-7896D01*
X30313Y-8056D01*
X30435Y-8178D01*
X30594Y-8244D01*
X30737Y-8244D01*
X30715Y-8266D01*
X30649Y-8425D01*
X30649Y-8597D01*
X30715Y-8756D01*
X30836Y-8878D01*
X30996Y-8945D01*
X31168Y-8945D01*
X31327Y-8879D01*
X31449Y-8757D01*
X31484Y-8674D01*
X31518Y-8756D01*
X31640Y-8878D01*
X31799Y-8945D01*
X31971Y-8945D01*
X32040Y-8916D01*
X32933Y-9810D01*
X32990Y-9848D01*
X33058Y-9861D01*
X35851Y-9861D01*
X35898Y-9881D01*
X35953Y-9881D01*
X36209Y-9881D01*
X36260Y-9860D01*
X36281Y-9840D01*
X36301Y-9860D01*
X36351Y-9881D01*
X36406Y-9881D01*
X36662Y-9881D01*
X36710Y-9861D01*
X36887Y-9861D01*
X36927Y-9901D01*
X33326Y-9901D01*
X33258Y-9915D01*
X33201Y-9953D01*
X33201Y-9953D01*
X33201Y-9953D01*
X29894Y-13260D01*
X29856Y-13318D01*
X29842Y-13385D01*
X29842Y-13863D01*
X29581Y-14124D01*
X29596Y-14088D01*
X29596Y-13982D01*
X29556Y-13885D01*
X29526Y-13855D01*
X29531Y-13853D01*
X29570Y-13814D01*
X29591Y-13764D01*
X29591Y-13709D01*
X29591Y-13209D01*
X29570Y-13158D01*
X29559Y-13147D01*
X29559Y-8034D01*
X29459Y-7786D01*
X29451Y-7774D01*
X29342Y-7733D01*
X28913Y-8161D01*
X29342Y-8589D01*
X29451Y-8548D01*
X29556Y-8302D01*
X29559Y-8034D01*
X29559Y-13147D01*
X29531Y-13119D01*
X29481Y-13098D01*
X29426Y-13098D01*
X29314Y-13098D01*
X29314Y-8617D01*
X28885Y-8189D01*
X28857Y-8217D01*
X28857Y-8161D01*
X28429Y-7733D01*
X28319Y-7774D01*
X28247Y-7943D01*
X28184Y-7786D01*
X28176Y-7774D01*
X28066Y-7733D01*
X28038Y-7760D01*
X28038Y-7705D01*
X27997Y-7595D01*
X27751Y-7490D01*
X27483Y-7487D01*
X27416Y-7514D01*
X27634Y-7296D01*
X27765Y-6982D01*
X27765Y-6641D01*
X27635Y-6326D01*
X27395Y-6085D01*
X27080Y-5954D01*
X26739Y-5954D01*
X26425Y-6084D01*
X26183Y-6325D01*
X26053Y-6639D01*
X26053Y-6980D01*
X26183Y-7295D01*
X26423Y-7536D01*
X26738Y-7667D01*
X27079Y-7667D01*
X27217Y-7610D01*
X27181Y-7705D01*
X27610Y-8133D01*
X28038Y-7705D01*
X28038Y-7760D01*
X27638Y-8161D01*
X28066Y-8589D01*
X28176Y-8548D01*
X28248Y-8378D01*
X28311Y-8536D01*
X28319Y-8548D01*
X28429Y-8589D01*
X28857Y-8161D01*
X28857Y-8217D01*
X28457Y-8617D01*
X28498Y-8727D01*
X28744Y-8832D01*
X29012Y-8835D01*
X29260Y-8735D01*
X29272Y-8727D01*
X29314Y-8617D01*
X29314Y-13098D01*
X29176Y-13098D01*
X29125Y-13119D01*
X29086Y-13158D01*
X29078Y-13178D01*
X29070Y-13158D01*
X29031Y-13119D01*
X28981Y-13098D01*
X28926Y-13098D01*
X28676Y-13098D01*
X28625Y-13119D01*
X28586Y-13158D01*
X28578Y-13178D01*
X28570Y-13158D01*
X28531Y-13119D01*
X28492Y-13103D01*
X28492Y-13103D01*
X28454Y-13045D01*
X28215Y-12807D01*
X28158Y-12769D01*
X28090Y-12755D01*
X28038Y-12755D01*
X28038Y-8617D01*
X27610Y-8189D01*
X27582Y-8217D01*
X27582Y-8161D01*
X27154Y-7733D01*
X27044Y-7774D01*
X26939Y-8020D01*
X26936Y-8288D01*
X27036Y-8536D01*
X27044Y-8548D01*
X27154Y-8589D01*
X27582Y-8161D01*
X27582Y-8217D01*
X27181Y-8617D01*
X27223Y-8727D01*
X27469Y-8832D01*
X27736Y-8835D01*
X27985Y-8735D01*
X27997Y-8727D01*
X28038Y-8617D01*
X28038Y-12755D01*
X27578Y-12755D01*
X27510Y-12769D01*
X27453Y-12807D01*
X27328Y-12932D01*
X26751Y-12355D01*
X26331Y-11935D01*
X26274Y-11897D01*
X26248Y-11892D01*
X26248Y-8426D01*
X26182Y-8266D01*
X26060Y-8144D01*
X25901Y-8078D01*
X25881Y-8078D01*
X25947Y-7919D01*
X25948Y-7706D01*
X25867Y-7509D01*
X25865Y-7506D01*
X25770Y-7481D01*
X25742Y-7509D01*
X25742Y-7454D01*
X25717Y-7358D01*
X25521Y-7276D01*
X25308Y-7275D01*
X25111Y-7356D01*
X25108Y-7358D01*
X25084Y-7454D01*
X25413Y-7783D01*
X25742Y-7454D01*
X25742Y-7509D01*
X25441Y-7811D01*
X25446Y-7816D01*
X25418Y-7844D01*
X25413Y-7838D01*
X25407Y-7844D01*
X25379Y-7816D01*
X25385Y-7811D01*
X25056Y-7481D01*
X24960Y-7506D01*
X24948Y-7536D01*
X24855Y-7443D01*
X24696Y-7377D01*
X24524Y-7377D01*
X24365Y-7443D01*
X24272Y-7536D01*
X24261Y-7509D01*
X24259Y-7506D01*
X24164Y-7481D01*
X24136Y-7509D01*
X24136Y-7454D01*
X24111Y-7358D01*
X23915Y-7276D01*
X23702Y-7275D01*
X23505Y-7356D01*
X23502Y-7358D01*
X23477Y-7454D01*
X23807Y-7783D01*
X24136Y-7454D01*
X24136Y-7509D01*
X23834Y-7811D01*
X23840Y-7816D01*
X23812Y-7844D01*
X23807Y-7838D01*
X23801Y-7844D01*
X23773Y-7816D01*
X23779Y-7811D01*
X23450Y-7481D01*
X23354Y-7506D01*
X23342Y-7536D01*
X23249Y-7443D01*
X23090Y-7377D01*
X22918Y-7377D01*
X22765Y-7440D01*
X22765Y-6641D01*
X22635Y-6326D01*
X22395Y-6085D01*
X22080Y-5954D01*
X21739Y-5954D01*
X21425Y-6084D01*
X21183Y-6325D01*
X21053Y-6639D01*
X21053Y-6980D01*
X21183Y-7295D01*
X21398Y-7511D01*
X21349Y-7490D01*
X21082Y-7487D01*
X20833Y-7587D01*
X20821Y-7595D01*
X20780Y-7705D01*
X21208Y-8133D01*
X21637Y-7705D01*
X21601Y-7610D01*
X21738Y-7667D01*
X22079Y-7667D01*
X22393Y-7537D01*
X22634Y-7296D01*
X22765Y-6982D01*
X22765Y-6641D01*
X22765Y-7440D01*
X22758Y-7443D01*
X22636Y-7565D01*
X22570Y-7724D01*
X22570Y-7896D01*
X22636Y-8056D01*
X22758Y-8178D01*
X22917Y-8244D01*
X23060Y-8244D01*
X23038Y-8266D01*
X22972Y-8425D01*
X22972Y-8597D01*
X23000Y-8666D01*
X21882Y-9784D01*
X21882Y-8034D01*
X21782Y-7786D01*
X21774Y-7774D01*
X21664Y-7733D01*
X21236Y-8161D01*
X21664Y-8589D01*
X21774Y-8548D01*
X21879Y-8302D01*
X21882Y-8034D01*
X21882Y-9784D01*
X21843Y-9823D01*
X21637Y-9823D01*
X21637Y-8617D01*
X21208Y-8189D01*
X21180Y-8217D01*
X21180Y-8161D01*
X20752Y-7733D01*
X20642Y-7774D01*
X20537Y-8020D01*
X20534Y-8288D01*
X20634Y-8536D01*
X20642Y-8548D01*
X20752Y-8589D01*
X21180Y-8161D01*
X21180Y-8217D01*
X20780Y-8617D01*
X20821Y-8727D01*
X21067Y-8832D01*
X21335Y-8835D01*
X21583Y-8735D01*
X21595Y-8727D01*
X21637Y-8617D01*
X21637Y-9823D01*
X19561Y-9823D01*
X19514Y-9803D01*
X19459Y-9803D01*
X19203Y-9803D01*
X19152Y-9824D01*
X19132Y-9844D01*
X19112Y-9824D01*
X19061Y-9803D01*
X19006Y-9803D01*
X18750Y-9803D01*
X18703Y-9823D01*
X18330Y-9823D01*
X18330Y-5812D01*
X18249Y-5615D01*
X18247Y-5613D01*
X18152Y-5588D01*
X18124Y-5616D01*
X18124Y-5560D01*
X18099Y-5465D01*
X17903Y-5383D01*
X17690Y-5382D01*
X17493Y-5463D01*
X17490Y-5465D01*
X17466Y-5560D01*
X17795Y-5889D01*
X18124Y-5560D01*
X18124Y-5616D01*
X17823Y-5917D01*
X18152Y-6246D01*
X18247Y-6221D01*
X18329Y-6025D01*
X18330Y-5812D01*
X18330Y-9823D01*
X17711Y-9823D01*
X17600Y-9711D01*
X17600Y-9643D01*
X17559Y-9546D01*
X17485Y-9471D01*
X17387Y-9430D01*
X17281Y-9430D01*
X17183Y-9471D01*
X17135Y-9519D01*
X14479Y-9519D01*
X14164Y-9519D01*
X14152Y-9490D01*
X14132Y-9470D01*
X14152Y-9449D01*
X14164Y-9420D01*
X15469Y-9420D01*
X15536Y-9407D01*
X15536Y-9407D01*
X15594Y-9368D01*
X17640Y-7322D01*
X17708Y-7350D01*
X17881Y-7350D01*
X18040Y-7284D01*
X18162Y-7162D01*
X18228Y-7003D01*
X18228Y-6831D01*
X18162Y-6672D01*
X18124Y-6633D01*
X18124Y-6274D01*
X17795Y-5945D01*
X17767Y-5973D01*
X17767Y-5917D01*
X17438Y-5588D01*
X17342Y-5613D01*
X17260Y-5809D01*
X17260Y-6021D01*
X17341Y-6218D01*
X17342Y-6221D01*
X17438Y-6246D01*
X17767Y-5917D01*
X17767Y-5973D01*
X17466Y-6274D01*
X17490Y-6369D01*
X17687Y-6451D01*
X17899Y-6452D01*
X18096Y-6371D01*
X18099Y-6369D01*
X18124Y-6274D01*
X18124Y-6633D01*
X18040Y-6550D01*
X17881Y-6484D01*
X17709Y-6484D01*
X17550Y-6549D01*
X17428Y-6671D01*
X17362Y-6830D01*
X17362Y-7003D01*
X17390Y-7071D01*
X15574Y-8887D01*
X15574Y-5812D01*
X15493Y-5615D01*
X15491Y-5613D01*
X15396Y-5588D01*
X15368Y-5616D01*
X15368Y-5560D01*
X15343Y-5465D01*
X15147Y-5383D01*
X14934Y-5382D01*
X14737Y-5463D01*
X14735Y-5465D01*
X14710Y-5560D01*
X15039Y-5889D01*
X15368Y-5560D01*
X15368Y-5616D01*
X15067Y-5917D01*
X15396Y-6246D01*
X15491Y-6221D01*
X15573Y-6025D01*
X15574Y-5812D01*
X15574Y-8887D01*
X15395Y-9066D01*
X14164Y-9066D01*
X14152Y-9037D01*
X14114Y-8998D01*
X14063Y-8977D01*
X14008Y-8977D01*
X13957Y-8977D01*
X13957Y-8249D01*
X14885Y-7322D01*
X14952Y-7350D01*
X15125Y-7350D01*
X15284Y-7284D01*
X15406Y-7162D01*
X15472Y-7003D01*
X15472Y-6831D01*
X15406Y-6672D01*
X15368Y-6633D01*
X15368Y-6274D01*
X15039Y-5945D01*
X15011Y-5973D01*
X15011Y-5917D01*
X14682Y-5588D01*
X14587Y-5613D01*
X14505Y-5809D01*
X14504Y-6021D01*
X14585Y-6218D01*
X14587Y-6221D01*
X14682Y-6246D01*
X15011Y-5917D01*
X15011Y-5973D01*
X14710Y-6274D01*
X14735Y-6369D01*
X14931Y-6451D01*
X15144Y-6452D01*
X15340Y-6371D01*
X15343Y-6369D01*
X15368Y-6274D01*
X15368Y-6633D01*
X15285Y-6550D01*
X15125Y-6484D01*
X14953Y-6484D01*
X14794Y-6549D01*
X14672Y-6671D01*
X14606Y-6830D01*
X14606Y-7003D01*
X14634Y-7071D01*
X13661Y-8044D01*
X12818Y-7201D01*
X12818Y-5812D01*
X12737Y-5615D01*
X12735Y-5613D01*
X12640Y-5588D01*
X12612Y-5616D01*
X12612Y-5560D01*
X12587Y-5465D01*
X12391Y-5383D01*
X12178Y-5382D01*
X11982Y-5463D01*
X11979Y-5465D01*
X11954Y-5560D01*
X12283Y-5889D01*
X12612Y-5560D01*
X12612Y-5616D01*
X12311Y-5917D01*
X12640Y-6246D01*
X12735Y-6221D01*
X12817Y-6025D01*
X12818Y-5812D01*
X12818Y-7201D01*
X12688Y-7071D01*
X12716Y-7003D01*
X12716Y-6831D01*
X12650Y-6672D01*
X12612Y-6633D01*
X12612Y-6274D01*
X12283Y-5945D01*
X12255Y-5973D01*
X12255Y-5917D01*
X11926Y-5588D01*
X11831Y-5613D01*
X11749Y-5809D01*
X11748Y-6021D01*
X11829Y-6218D01*
X11831Y-6221D01*
X11926Y-6246D01*
X12255Y-5917D01*
X12255Y-5973D01*
X11954Y-6274D01*
X11979Y-6369D01*
X12175Y-6451D01*
X12388Y-6452D01*
X12584Y-6371D01*
X12587Y-6369D01*
X12612Y-6274D01*
X12612Y-6633D01*
X12529Y-6550D01*
X12369Y-6484D01*
X12197Y-6484D01*
X12038Y-6549D01*
X11916Y-6671D01*
X11850Y-6830D01*
X11850Y-7003D01*
X11916Y-7162D01*
X12037Y-7284D01*
X12196Y-7350D01*
X12369Y-7350D01*
X12437Y-7322D01*
X13405Y-8290D01*
X13405Y-8977D01*
X13299Y-8977D01*
X13249Y-8998D01*
X13210Y-9037D01*
X13198Y-9066D01*
X11927Y-9066D01*
X10062Y-7201D01*
X10062Y-5812D01*
X9981Y-5615D01*
X9979Y-5613D01*
X9884Y-5588D01*
X9856Y-5616D01*
X9856Y-5560D01*
X9831Y-5465D01*
X9635Y-5383D01*
X9422Y-5382D01*
X9226Y-5463D01*
X9223Y-5465D01*
X9198Y-5560D01*
X9527Y-5889D01*
X9856Y-5560D01*
X9856Y-5616D01*
X9555Y-5917D01*
X9884Y-6246D01*
X9979Y-6221D01*
X10061Y-6025D01*
X10062Y-5812D01*
X10062Y-7201D01*
X9932Y-7071D01*
X9960Y-7003D01*
X9960Y-6831D01*
X9894Y-6672D01*
X9856Y-6633D01*
X9856Y-6274D01*
X9527Y-5945D01*
X9499Y-5973D01*
X9499Y-5917D01*
X9170Y-5588D01*
X9075Y-5613D01*
X8993Y-5809D01*
X8992Y-6021D01*
X9073Y-6218D01*
X9075Y-6221D01*
X9170Y-6246D01*
X9499Y-5917D01*
X9499Y-5973D01*
X9198Y-6274D01*
X9223Y-6369D01*
X9419Y-6451D01*
X9632Y-6452D01*
X9828Y-6371D01*
X9831Y-6369D01*
X9856Y-6274D01*
X9856Y-6633D01*
X9773Y-6550D01*
X9614Y-6484D01*
X9441Y-6484D01*
X9282Y-6549D01*
X9160Y-6671D01*
X9094Y-6830D01*
X9094Y-7003D01*
X9160Y-7162D01*
X9281Y-7284D01*
X9441Y-7350D01*
X9613Y-7350D01*
X9681Y-7322D01*
X11728Y-9368D01*
X11728Y-9368D01*
X11785Y-9407D01*
X11853Y-9420D01*
X11853Y-9420D01*
X13198Y-9420D01*
X13210Y-9449D01*
X13230Y-9470D01*
X13210Y-9490D01*
X13189Y-9540D01*
X13189Y-9595D01*
X13189Y-9851D01*
X13208Y-9899D01*
X13208Y-10138D01*
X13222Y-10205D01*
X13260Y-10263D01*
X13714Y-10716D01*
X13714Y-10716D01*
X13771Y-10754D01*
X13839Y-10768D01*
X13839Y-10768D01*
X18703Y-10768D01*
X18733Y-10781D01*
X18742Y-10824D01*
X18780Y-10881D01*
X18843Y-10944D01*
X16102Y-10944D01*
X16082Y-10944D01*
X15986Y-10944D01*
X15938Y-10896D01*
X15840Y-10856D01*
X15734Y-10856D01*
X15637Y-10896D01*
X15562Y-10971D01*
X15521Y-11068D01*
X15521Y-11174D01*
X15561Y-11272D01*
X15636Y-11347D01*
X15734Y-11387D01*
X15820Y-11387D01*
X15797Y-11442D01*
X15797Y-11548D01*
X15837Y-11646D01*
X15912Y-11721D01*
X16009Y-11761D01*
X16115Y-11761D01*
X16213Y-11721D01*
X16261Y-11673D01*
X17367Y-11673D01*
X16016Y-13024D01*
X15978Y-13081D01*
X15964Y-13149D01*
X15964Y-16691D01*
X15916Y-16739D01*
X15876Y-16836D01*
X15875Y-16942D01*
X15916Y-17040D01*
X15991Y-17114D01*
X16088Y-17155D01*
X16194Y-17155D01*
X16292Y-17115D01*
X16366Y-17040D01*
X16407Y-16942D01*
X16407Y-16837D01*
X16396Y-16809D01*
X16423Y-16820D01*
X16529Y-16820D01*
X16626Y-16780D01*
X16701Y-16705D01*
X16742Y-16608D01*
X16742Y-16502D01*
X16701Y-16404D01*
X16653Y-16356D01*
X16653Y-13282D01*
X17750Y-12185D01*
X19651Y-12185D01*
X20163Y-12697D01*
X20163Y-13089D01*
X20137Y-13100D01*
X20098Y-13138D01*
X20090Y-13158D01*
X20082Y-13138D01*
X20043Y-13100D01*
X19993Y-13079D01*
X19938Y-13079D01*
X19688Y-13079D01*
X19670Y-13086D01*
X19668Y-13081D01*
X19600Y-13013D01*
X19512Y-12977D01*
X19420Y-12977D01*
X19360Y-13037D01*
X19360Y-13447D01*
X19368Y-13447D01*
X19368Y-13486D01*
X19360Y-13486D01*
X19360Y-13896D01*
X19420Y-13956D01*
X19512Y-13956D01*
X19600Y-13919D01*
X19663Y-13857D01*
X19663Y-14094D01*
X19617Y-14140D01*
X19576Y-14238D01*
X19576Y-14343D01*
X19617Y-14441D01*
X19663Y-14488D01*
X19663Y-15289D01*
X19637Y-15300D01*
X19598Y-15338D01*
X19590Y-15358D01*
X19582Y-15338D01*
X19543Y-15300D01*
X19493Y-15279D01*
X19438Y-15279D01*
X19320Y-15279D01*
X19320Y-13896D01*
X19320Y-13486D01*
X19312Y-13486D01*
X19312Y-13447D01*
X19320Y-13447D01*
X19320Y-13037D01*
X19261Y-12977D01*
X19168Y-12977D01*
X19094Y-13007D01*
X19133Y-12913D01*
X19133Y-12795D01*
X19089Y-12687D01*
X19006Y-12604D01*
X18897Y-12559D01*
X18780Y-12559D01*
X18671Y-12603D01*
X18588Y-12686D01*
X18543Y-12795D01*
X18543Y-12912D01*
X18588Y-13021D01*
X18604Y-13037D01*
X18604Y-13133D01*
X18598Y-13138D01*
X18577Y-13189D01*
X18577Y-13244D01*
X18577Y-13744D01*
X18598Y-13794D01*
X18637Y-13833D01*
X18688Y-13854D01*
X18742Y-13854D01*
X18992Y-13854D01*
X19010Y-13847D01*
X19012Y-13852D01*
X19080Y-13919D01*
X19168Y-13956D01*
X19261Y-13956D01*
X19320Y-13896D01*
X19320Y-15279D01*
X19188Y-15279D01*
X19137Y-15300D01*
X19098Y-15338D01*
X19090Y-15358D01*
X19082Y-15338D01*
X19057Y-15314D01*
X19083Y-15288D01*
X19123Y-15190D01*
X19124Y-15085D01*
X19083Y-14987D01*
X19035Y-14939D01*
X19035Y-14489D01*
X19083Y-14442D01*
X19123Y-14344D01*
X19124Y-14238D01*
X19083Y-14141D01*
X19008Y-14066D01*
X18911Y-14025D01*
X18805Y-14025D01*
X18707Y-14065D01*
X18633Y-14140D01*
X18592Y-14238D01*
X18592Y-14343D01*
X18632Y-14441D01*
X18681Y-14490D01*
X18681Y-14939D01*
X18633Y-14987D01*
X18592Y-15084D01*
X18592Y-15190D01*
X18632Y-15288D01*
X18642Y-15297D01*
X18637Y-15300D01*
X18598Y-15338D01*
X18577Y-15389D01*
X18577Y-15444D01*
X18577Y-15944D01*
X18598Y-15994D01*
X18637Y-16033D01*
X18688Y-16054D01*
X18742Y-16054D01*
X18992Y-16054D01*
X19043Y-16033D01*
X19082Y-15995D01*
X19090Y-15975D01*
X19098Y-15994D01*
X19137Y-16033D01*
X19163Y-16044D01*
X19163Y-16326D01*
X19105Y-16384D01*
X19065Y-16482D01*
X19064Y-16588D01*
X19105Y-16685D01*
X19179Y-16760D01*
X19277Y-16801D01*
X19383Y-16801D01*
X19481Y-16760D01*
X19555Y-16686D01*
X19596Y-16588D01*
X19596Y-16482D01*
X19556Y-16385D01*
X19517Y-16346D01*
X19517Y-16044D01*
X19543Y-16033D01*
X19582Y-15995D01*
X19590Y-15975D01*
X19598Y-15994D01*
X19637Y-16033D01*
X19688Y-16054D01*
X19742Y-16054D01*
X19992Y-16054D01*
X20043Y-16033D01*
X20082Y-15995D01*
X20090Y-15975D01*
X20098Y-15994D01*
X20137Y-16033D01*
X20188Y-16054D01*
X20242Y-16054D01*
X20492Y-16054D01*
X20543Y-16033D01*
X20582Y-15995D01*
X20590Y-15975D01*
X20598Y-15994D01*
X20637Y-16033D01*
X20688Y-16054D01*
X20742Y-16054D01*
X20992Y-16054D01*
X21043Y-16033D01*
X21082Y-15995D01*
X21090Y-15975D01*
X21098Y-15994D01*
X21137Y-16033D01*
X21188Y-16054D01*
X21242Y-16054D01*
X21492Y-16054D01*
X21543Y-16033D01*
X21582Y-15995D01*
X21590Y-15975D01*
X21598Y-15994D01*
X21637Y-16033D01*
X21688Y-16054D01*
X21742Y-16054D01*
X21992Y-16054D01*
X22010Y-16047D01*
X22012Y-16052D01*
X22080Y-16119D01*
X22168Y-16156D01*
X22261Y-16156D01*
X22320Y-16096D01*
X22320Y-15686D01*
X22312Y-15686D01*
X22312Y-15647D01*
X22320Y-15647D01*
X22320Y-15237D01*
X22261Y-15177D01*
X22168Y-15177D01*
X22080Y-15213D01*
X22017Y-15276D01*
X22017Y-15102D01*
X22861Y-14259D01*
X22861Y-14259D01*
X22861Y-14259D01*
X22899Y-14201D01*
X22913Y-14133D01*
X22913Y-14133D01*
X22913Y-12245D01*
X22961Y-12197D01*
X23001Y-12100D01*
X23002Y-11994D01*
X22961Y-11896D01*
X22886Y-11822D01*
X22789Y-11781D01*
X22683Y-11781D01*
X22585Y-11821D01*
X22517Y-11889D01*
X22517Y-11494D01*
X22504Y-11426D01*
X22465Y-11368D01*
X21865Y-10768D01*
X23735Y-10768D01*
X23803Y-10754D01*
X23803Y-10754D01*
X23860Y-10716D01*
X25660Y-8916D01*
X25728Y-8945D01*
X25900Y-8945D01*
X26060Y-8879D01*
X26182Y-8757D01*
X26248Y-8598D01*
X26248Y-8426D01*
X26248Y-11892D01*
X26206Y-11883D01*
X25340Y-11883D01*
X25272Y-11897D01*
X25215Y-11935D01*
X25209Y-11941D01*
X24697Y-12453D01*
X24659Y-12510D01*
X24645Y-12578D01*
X24645Y-13248D01*
X24645Y-13661D01*
X24645Y-17918D01*
X24306Y-18257D01*
X24238Y-18257D01*
X24141Y-18298D01*
X24066Y-18372D01*
X24025Y-18470D01*
X24025Y-18576D01*
X24065Y-18673D01*
X24140Y-18748D01*
X24238Y-18789D01*
X24343Y-18789D01*
X24441Y-18749D01*
X24516Y-18674D01*
X24557Y-18576D01*
X24557Y-18508D01*
X24861Y-18203D01*
X24832Y-18273D01*
X24832Y-18379D01*
X24873Y-18477D01*
X24947Y-18551D01*
X25045Y-18592D01*
X25127Y-18592D01*
X25127Y-18615D01*
X25168Y-18713D01*
X25242Y-18788D01*
X25340Y-18828D01*
X25446Y-18828D01*
X25544Y-18788D01*
X25618Y-18713D01*
X25659Y-18616D01*
X25659Y-18510D01*
X25619Y-18412D01*
X25570Y-18364D01*
X25570Y-16811D01*
X25570Y-15975D01*
X25586Y-16014D01*
X25625Y-16053D01*
X25676Y-16074D01*
X25731Y-16074D01*
X25981Y-16074D01*
X26031Y-16053D01*
X26070Y-16014D01*
X26078Y-15994D01*
X26086Y-16014D01*
X26125Y-16053D01*
X26151Y-16064D01*
X26151Y-16781D01*
X26151Y-16889D01*
X26151Y-16998D01*
X26151Y-19633D01*
X25567Y-20217D01*
X25499Y-20188D01*
X25327Y-20188D01*
X25258Y-20217D01*
X23720Y-18678D01*
X23720Y-16870D01*
X23675Y-16762D01*
X23661Y-16747D01*
X23661Y-13567D01*
X23675Y-13553D01*
X23720Y-13444D01*
X23720Y-13327D01*
X23675Y-13218D01*
X23592Y-13135D01*
X23484Y-13090D01*
X23366Y-13090D01*
X23258Y-13135D01*
X23175Y-13218D01*
X23129Y-13326D01*
X23129Y-13444D01*
X23174Y-13552D01*
X23188Y-13567D01*
X23188Y-16747D01*
X23175Y-16761D01*
X23129Y-16870D01*
X23129Y-16987D01*
X23174Y-17096D01*
X23257Y-17179D01*
X23366Y-17224D01*
X23483Y-17224D01*
X23592Y-17179D01*
X23675Y-17096D01*
X23720Y-16988D01*
X23720Y-16870D01*
X23720Y-18678D01*
X23184Y-18142D01*
X23127Y-18104D01*
X23059Y-18090D01*
X22704Y-18090D01*
X22704Y-15869D01*
X22704Y-15464D01*
X22704Y-15369D01*
X22668Y-15281D01*
X22600Y-15213D01*
X22512Y-15177D01*
X22420Y-15177D01*
X22360Y-15237D01*
X22360Y-15647D01*
X22645Y-15647D01*
X22704Y-15587D01*
X22704Y-15464D01*
X22704Y-15869D01*
X22704Y-15746D01*
X22645Y-15686D01*
X22360Y-15686D01*
X22360Y-16096D01*
X22420Y-16156D01*
X22512Y-16156D01*
X22600Y-16119D01*
X22668Y-16052D01*
X22704Y-15964D01*
X22704Y-15869D01*
X22704Y-18090D01*
X12474Y-18090D01*
X12427Y-18071D01*
X12372Y-18071D01*
X12147Y-18071D01*
X12083Y-18006D01*
X11995Y-17969D01*
X11899Y-17969D01*
X11898Y-17969D01*
X11838Y-18029D01*
X11838Y-18226D01*
X11838Y-18248D01*
X11838Y-18287D01*
X11838Y-18423D01*
X11838Y-18445D01*
X11838Y-18484D01*
X11838Y-18506D01*
X11838Y-18620D01*
X11838Y-18642D01*
X11838Y-18681D01*
X11838Y-18703D01*
X11838Y-18839D01*
X11838Y-18878D01*
X11838Y-18900D01*
X11838Y-19097D01*
X11898Y-19157D01*
X11899Y-19157D01*
X11995Y-19157D01*
X12083Y-19120D01*
X12147Y-19055D01*
X12171Y-19055D01*
X12427Y-19055D01*
X12475Y-19036D01*
X21167Y-19036D01*
X22598Y-20467D01*
X22570Y-20535D01*
X22570Y-20707D01*
X22636Y-20867D01*
X22758Y-20989D01*
X22917Y-21055D01*
X22937Y-21055D01*
X22870Y-21214D01*
X22870Y-21427D01*
X22951Y-21624D01*
X22953Y-21627D01*
X23048Y-21651D01*
X23377Y-21322D01*
X23372Y-21317D01*
X23399Y-21289D01*
X23405Y-21294D01*
X23411Y-21289D01*
X23438Y-21317D01*
X23433Y-21322D01*
X23762Y-21651D01*
X23857Y-21627D01*
X23870Y-21597D01*
X23962Y-21689D01*
X24122Y-21756D01*
X24294Y-21756D01*
X24453Y-21690D01*
X24546Y-21597D01*
X24557Y-21624D01*
X24559Y-21627D01*
X24654Y-21651D01*
X24983Y-21322D01*
X24978Y-21317D01*
X25006Y-21289D01*
X25011Y-21294D01*
X25017Y-21289D01*
X25045Y-21317D01*
X25039Y-21322D01*
X25368Y-21651D01*
X25464Y-21627D01*
X25476Y-21597D01*
X25569Y-21689D01*
X25728Y-21756D01*
X25900Y-21756D01*
X26060Y-21690D01*
X26182Y-21568D01*
X26248Y-21409D01*
X26248Y-21351D01*
X28188Y-19410D01*
X29350Y-20571D01*
X29350Y-22322D01*
X29035Y-22637D01*
X28962Y-22745D01*
X28937Y-22874D01*
X28962Y-23002D01*
X29035Y-23110D01*
X29143Y-23183D01*
X29271Y-23208D01*
X30098Y-23208D01*
X30226Y-23183D01*
X30335Y-23110D01*
X30407Y-23002D01*
X30433Y-22874D01*
X30407Y-22745D01*
X30335Y-22637D01*
X30198Y-22501D01*
X30198Y-18692D01*
X30198Y-18236D01*
X30198Y-18141D01*
X30162Y-18053D01*
X30094Y-17986D01*
X30006Y-17950D01*
X29863Y-17950D01*
X29804Y-18010D01*
X29804Y-18444D01*
X30138Y-18444D01*
X30198Y-18385D01*
X30198Y-18236D01*
X30198Y-18692D01*
X30198Y-18544D01*
X30138Y-18484D01*
X29804Y-18484D01*
X29804Y-18919D01*
X29863Y-18978D01*
X30006Y-18978D01*
X30094Y-18942D01*
X30162Y-18875D01*
X30198Y-18787D01*
X30198Y-18692D01*
X30198Y-22501D01*
X30019Y-22322D01*
X30019Y-20433D01*
X29994Y-20305D01*
X29994Y-20305D01*
X29965Y-20261D01*
X29921Y-20196D01*
X29921Y-20196D01*
X29764Y-20039D01*
X29764Y-18919D01*
X29764Y-18484D01*
X29764Y-18444D01*
X29764Y-18010D01*
X29704Y-17950D01*
X29562Y-17950D01*
X29474Y-17986D01*
X29406Y-18053D01*
X29370Y-18141D01*
X29370Y-18236D01*
X29370Y-18385D01*
X29429Y-18444D01*
X29764Y-18444D01*
X29764Y-18484D01*
X29429Y-18484D01*
X29370Y-18544D01*
X29370Y-18692D01*
X29370Y-18787D01*
X29406Y-18875D01*
X29474Y-18942D01*
X29562Y-18978D01*
X29704Y-18978D01*
X29764Y-18919D01*
X29764Y-20039D01*
X28662Y-18937D01*
X28762Y-18837D01*
X28781Y-18856D01*
X28831Y-18877D01*
X28886Y-18877D01*
X29236Y-18877D01*
X29287Y-18856D01*
X29326Y-18817D01*
X29347Y-18767D01*
X29347Y-18712D01*
X29347Y-18574D01*
X29369Y-18464D01*
X29347Y-18354D01*
X29347Y-18162D01*
X29326Y-18111D01*
X29287Y-18072D01*
X29274Y-18067D01*
X29428Y-17913D01*
X30707Y-17913D01*
X30707Y-18019D01*
X30728Y-18070D01*
X30767Y-18108D01*
X30818Y-18129D01*
X30873Y-18130D01*
X30942Y-18130D01*
X30941Y-18130D01*
X30941Y-18226D01*
X30941Y-18640D01*
X31001Y-18700D01*
X31555Y-18700D01*
X31555Y-18368D01*
X31555Y-17999D01*
X31555Y-17794D01*
X31547Y-17794D01*
X31547Y-17755D01*
X31555Y-17755D01*
X31555Y-17182D01*
X31495Y-17122D01*
X31389Y-17122D01*
X31301Y-17158D01*
X31233Y-17225D01*
X31218Y-17263D01*
X31199Y-17245D01*
X31149Y-17224D01*
X31094Y-17224D01*
X30818Y-17224D01*
X30767Y-17245D01*
X30729Y-17284D01*
X30708Y-17334D01*
X30707Y-17389D01*
X30707Y-17440D01*
X29330Y-17440D01*
X29240Y-17458D01*
X29163Y-17510D01*
X28867Y-17806D01*
X28816Y-17883D01*
X28798Y-17973D01*
X28798Y-18065D01*
X28781Y-18072D01*
X28742Y-18111D01*
X28735Y-18129D01*
X28661Y-18129D01*
X28533Y-18155D01*
X28424Y-18227D01*
X27952Y-18700D01*
X27952Y-18700D01*
X25763Y-20889D01*
X25758Y-20889D01*
X25780Y-20867D01*
X25846Y-20708D01*
X25846Y-20536D01*
X25818Y-20467D01*
X26454Y-19831D01*
X26492Y-19774D01*
X26505Y-19706D01*
X26505Y-17071D01*
X26510Y-17066D01*
X29862Y-17066D01*
X29930Y-17053D01*
X29930Y-17053D01*
X29987Y-17015D01*
X30952Y-16050D01*
X30990Y-15992D01*
X31003Y-15925D01*
X31003Y-13557D01*
X31658Y-12903D01*
X31725Y-12903D01*
X31823Y-12863D01*
X31898Y-12788D01*
X31938Y-12690D01*
X31939Y-12585D01*
X31898Y-12487D01*
X31823Y-12412D01*
X31747Y-12380D01*
X33488Y-10639D01*
X33556Y-10639D01*
X33654Y-10599D01*
X33729Y-10524D01*
X33769Y-10427D01*
X33769Y-10321D01*
X33742Y-10255D01*
X37185Y-10255D01*
X37252Y-10242D01*
X37252Y-10242D01*
X37310Y-10204D01*
X37526Y-9987D01*
X37565Y-9930D01*
X37578Y-9862D01*
X37578Y-10295D01*
X36707Y-10295D01*
X36660Y-10275D01*
X36605Y-10275D01*
X36349Y-10275D01*
X36298Y-10296D01*
X36278Y-10317D01*
X36257Y-10296D01*
X36207Y-10275D01*
X36152Y-10275D01*
X35896Y-10275D01*
X35874Y-10284D01*
X34645Y-10284D01*
X34645Y-10284D01*
X34631Y-10287D01*
X34573Y-10299D01*
X34512Y-10339D01*
X34512Y-10339D01*
X32170Y-12682D01*
X32129Y-12743D01*
X32115Y-12814D01*
X32115Y-13923D01*
X32052Y-13986D01*
X32007Y-14094D01*
X32007Y-14212D01*
X32052Y-14320D01*
X32066Y-14334D01*
X32066Y-16200D01*
X32084Y-16291D01*
X32136Y-16367D01*
X32480Y-16711D01*
X32480Y-16731D01*
X32525Y-16840D01*
X32608Y-16923D01*
X32716Y-16968D01*
X32834Y-16968D01*
X32942Y-16923D01*
X33025Y-16840D01*
X33070Y-16732D01*
X33070Y-16614D01*
X33026Y-16506D01*
X32943Y-16423D01*
X32834Y-16378D01*
X32814Y-16377D01*
X32539Y-16102D01*
X32539Y-14334D01*
X32553Y-14321D01*
X32598Y-14212D01*
X32598Y-14095D01*
X32553Y-13986D01*
X32490Y-13923D01*
X32490Y-12892D01*
X34723Y-10660D01*
X35785Y-10660D01*
X35785Y-10756D01*
X35790Y-10768D01*
X35785Y-10780D01*
X35785Y-10803D01*
X35720Y-10869D01*
X35684Y-10957D01*
X35684Y-10984D01*
X35744Y-11044D01*
X35849Y-11044D01*
X35895Y-11063D01*
X35950Y-11063D01*
X36079Y-11063D01*
X36079Y-11083D01*
X36071Y-11083D01*
X36071Y-11302D01*
X36131Y-11362D01*
X36132Y-11362D01*
X36227Y-11362D01*
X36315Y-11325D01*
X36380Y-11260D01*
X36403Y-11260D01*
X36659Y-11260D01*
X36707Y-11240D01*
X39667Y-11240D01*
X39902Y-11475D01*
X39873Y-11543D01*
X39873Y-11715D01*
X39939Y-11875D01*
X40061Y-11997D01*
X40144Y-12031D01*
X40061Y-12065D01*
X39939Y-12187D01*
X39911Y-12255D01*
X38458Y-12255D01*
X38418Y-12215D01*
X38320Y-12175D01*
X38215Y-12175D01*
X38117Y-12215D01*
X38042Y-12290D01*
X38002Y-12387D01*
X38001Y-12493D01*
X38042Y-12591D01*
X38116Y-12666D01*
X38214Y-12706D01*
X38320Y-12706D01*
X38418Y-12666D01*
X38474Y-12610D01*
X39911Y-12610D01*
X39939Y-12678D01*
X40061Y-12800D01*
X40144Y-12834D01*
X40061Y-12868D01*
X39939Y-12990D01*
X39911Y-13059D01*
X37175Y-13059D01*
X37138Y-13022D01*
X37041Y-12982D01*
X36935Y-12982D01*
X36837Y-13022D01*
X36763Y-13097D01*
X36722Y-13194D01*
X36722Y-13300D01*
X36762Y-13398D01*
X36837Y-13473D01*
X36935Y-13513D01*
X37040Y-13513D01*
X37138Y-13473D01*
X37198Y-13413D01*
X39911Y-13413D01*
X39939Y-13481D01*
X40061Y-13603D01*
X40220Y-13669D01*
X40392Y-13669D01*
X40552Y-13603D01*
X40674Y-13481D01*
X40740Y-13322D01*
X40740Y-13302D01*
X40899Y-13369D01*
X41112Y-13369D01*
X41309Y-13289D01*
X41312Y-13287D01*
X41336Y-13191D01*
X41007Y-12862D01*
X41002Y-12868D01*
X40974Y-12840D01*
X40980Y-12834D01*
X40974Y-12829D01*
X41002Y-12801D01*
X41007Y-12806D01*
X41336Y-12477D01*
X41312Y-12382D01*
X41282Y-12369D01*
X41374Y-12277D01*
X41441Y-12118D01*
X41441Y-11945D01*
X41441Y-12525D01*
X41364Y-12505D01*
X41035Y-12834D01*
X41364Y-13163D01*
X41460Y-13139D01*
X41542Y-12942D01*
X41543Y-12729D01*
X41543Y-13596D01*
X41523Y-13604D01*
X41282Y-13845D01*
X41151Y-14159D01*
X41151Y-14500D01*
X41208Y-14639D01*
X41113Y-14603D01*
X41085Y-14630D01*
X41085Y-14575D01*
X41044Y-14465D01*
X40798Y-14360D01*
X40530Y-14357D01*
X40282Y-14457D01*
X40270Y-14465D01*
X40229Y-14575D01*
X40657Y-15003D01*
X41085Y-14575D01*
X41085Y-14630D01*
X40685Y-15031D01*
X41113Y-15459D01*
X41223Y-15418D01*
X41328Y-15172D01*
X41331Y-14904D01*
X41304Y-14838D01*
X41522Y-15056D01*
X41836Y-15186D01*
X42177Y-15187D01*
X42492Y-15057D01*
X42733Y-14816D01*
X42864Y-14501D01*
X42864Y-14161D01*
X42864Y-16311D01*
X42734Y-16257D01*
X42521Y-16256D01*
X42324Y-16337D01*
X42321Y-16339D01*
X42297Y-16434D01*
X42625Y-16763D01*
X42954Y-16434D01*
X42954Y-16490D01*
X42653Y-16791D01*
X42982Y-17120D01*
X43078Y-17095D01*
X43160Y-16899D01*
X43160Y-16686D01*
X43160Y-19206D01*
X43080Y-19009D01*
X43078Y-19006D01*
X42982Y-18982D01*
X42954Y-19009D01*
X42954Y-18954D01*
X42954Y-17148D01*
X42625Y-16819D01*
X42598Y-16847D01*
X42598Y-16791D01*
X42269Y-16462D01*
X42173Y-16487D01*
X42091Y-16683D01*
X42091Y-16896D01*
X42171Y-17092D01*
X42173Y-17095D01*
X42269Y-17120D01*
X42598Y-16791D01*
X42598Y-16847D01*
X42297Y-17148D01*
X42321Y-17243D01*
X42517Y-17325D01*
X42730Y-17326D01*
X42927Y-17245D01*
X42930Y-17243D01*
X42954Y-17148D01*
X42954Y-18954D01*
X42930Y-18858D01*
X42734Y-18776D01*
X42521Y-18776D01*
X42324Y-18856D01*
X42321Y-18858D01*
X42297Y-18954D01*
X42625Y-19283D01*
X42954Y-18954D01*
X42954Y-19009D01*
X42653Y-19311D01*
X42982Y-19639D01*
X43078Y-19615D01*
X43160Y-19419D01*
X43160Y-19206D01*
X43160Y-21610D01*
X42954Y-21404D01*
X42954Y-19667D01*
X42625Y-19338D01*
X42598Y-19366D01*
X42598Y-19311D01*
X42269Y-18982D01*
X42173Y-19006D01*
X42091Y-19202D01*
X42091Y-19415D01*
X42171Y-19612D01*
X42173Y-19615D01*
X42269Y-19639D01*
X42598Y-19311D01*
X42598Y-19366D01*
X42297Y-19667D01*
X42321Y-19763D01*
X42517Y-19845D01*
X42730Y-19846D01*
X42927Y-19765D01*
X42930Y-19763D01*
X42954Y-19667D01*
X42954Y-21404D01*
X42874Y-21323D01*
X42389Y-21122D01*
X42059Y-21121D01*
X42059Y-19225D01*
X42059Y-16705D01*
X41993Y-16546D01*
X41871Y-16424D01*
X41712Y-16358D01*
X41540Y-16358D01*
X41380Y-16423D01*
X41259Y-16545D01*
X41192Y-16704D01*
X41192Y-16877D01*
X41258Y-17036D01*
X41380Y-17158D01*
X41539Y-17224D01*
X41711Y-17224D01*
X41870Y-17158D01*
X41992Y-17036D01*
X42058Y-16877D01*
X42059Y-16705D01*
X42059Y-19225D01*
X41993Y-19066D01*
X41871Y-18944D01*
X41712Y-18878D01*
X41540Y-18877D01*
X41380Y-18943D01*
X41259Y-19065D01*
X41210Y-19181D01*
X41210Y-17919D01*
X41170Y-17822D01*
X41095Y-17747D01*
X41085Y-17743D01*
X41085Y-15487D01*
X40657Y-15059D01*
X40629Y-15087D01*
X40629Y-15031D01*
X40201Y-14603D01*
X40091Y-14644D01*
X39986Y-14890D01*
X39983Y-15158D01*
X40083Y-15406D01*
X40091Y-15418D01*
X40201Y-15459D01*
X40629Y-15031D01*
X40629Y-15087D01*
X40229Y-15487D01*
X40270Y-15597D01*
X40516Y-15702D01*
X40784Y-15705D01*
X41032Y-15605D01*
X41044Y-15597D01*
X41085Y-15487D01*
X41085Y-17743D01*
X40997Y-17706D01*
X40892Y-17706D01*
X40794Y-17747D01*
X40719Y-17821D01*
X40679Y-17919D01*
X40679Y-17987D01*
X40555Y-18110D01*
X39919Y-18110D01*
X39919Y-18004D01*
X39914Y-17992D01*
X39919Y-17980D01*
X39919Y-17925D01*
X39919Y-17874D01*
X40057Y-17874D01*
X40105Y-17922D01*
X40202Y-17962D01*
X40308Y-17962D01*
X40406Y-17922D01*
X40481Y-17847D01*
X40521Y-17749D01*
X40521Y-17644D01*
X40481Y-17546D01*
X40406Y-17471D01*
X40308Y-17431D01*
X40203Y-17431D01*
X40105Y-17471D01*
X40056Y-17519D01*
X39856Y-17519D01*
X39809Y-17500D01*
X39754Y-17500D01*
X39498Y-17500D01*
X39448Y-17521D01*
X39427Y-17541D01*
X39407Y-17521D01*
X39356Y-17500D01*
X39301Y-17500D01*
X39045Y-17500D01*
X38998Y-17519D01*
X38931Y-17519D01*
X36692Y-15280D01*
X36692Y-13346D01*
X36679Y-13278D01*
X36641Y-13221D01*
X36031Y-12612D01*
X36031Y-11302D01*
X36031Y-11083D01*
X35744Y-11083D01*
X35684Y-11143D01*
X35684Y-11170D01*
X35720Y-11258D01*
X35787Y-11325D01*
X35875Y-11362D01*
X35970Y-11362D01*
X35972Y-11362D01*
X36031Y-11302D01*
X36031Y-12612D01*
X35991Y-12571D01*
X35933Y-12533D01*
X35866Y-12519D01*
X33661Y-12519D01*
X33593Y-12533D01*
X33536Y-12571D01*
X33264Y-12843D01*
X33226Y-12900D01*
X33212Y-12968D01*
X33212Y-13076D01*
X33150Y-13013D01*
X33062Y-12977D01*
X32969Y-12977D01*
X32909Y-13037D01*
X32909Y-13447D01*
X32917Y-13447D01*
X32917Y-13486D01*
X32909Y-13486D01*
X32909Y-13896D01*
X32969Y-13956D01*
X33062Y-13956D01*
X33150Y-13919D01*
X33217Y-13852D01*
X33219Y-13847D01*
X33237Y-13854D01*
X33292Y-13854D01*
X33542Y-13854D01*
X33592Y-13833D01*
X33631Y-13795D01*
X33639Y-13775D01*
X33647Y-13794D01*
X33686Y-13833D01*
X33712Y-13844D01*
X33712Y-14376D01*
X33652Y-14435D01*
X33612Y-14533D01*
X33612Y-14639D01*
X33652Y-14736D01*
X33727Y-14811D01*
X33824Y-14852D01*
X33930Y-14852D01*
X34028Y-14812D01*
X34103Y-14737D01*
X34143Y-14639D01*
X34143Y-14533D01*
X34103Y-14436D01*
X34066Y-14399D01*
X34066Y-13857D01*
X34129Y-13919D01*
X34217Y-13956D01*
X34310Y-13956D01*
X34370Y-13896D01*
X34370Y-13486D01*
X34362Y-13486D01*
X34362Y-13447D01*
X34370Y-13447D01*
X34370Y-13037D01*
X34310Y-12977D01*
X34217Y-12977D01*
X34129Y-13013D01*
X34061Y-13081D01*
X34059Y-13086D01*
X34042Y-13079D01*
X33987Y-13079D01*
X33737Y-13079D01*
X33686Y-13100D01*
X33648Y-13138D01*
X33639Y-13158D01*
X33631Y-13138D01*
X33592Y-13100D01*
X33566Y-13089D01*
X33566Y-13041D01*
X33734Y-12874D01*
X35792Y-12874D01*
X35932Y-13014D01*
X35909Y-13037D01*
X35909Y-13447D01*
X36194Y-13447D01*
X36254Y-13387D01*
X36254Y-13335D01*
X36338Y-13419D01*
X36338Y-15354D01*
X36352Y-15422D01*
X36390Y-15479D01*
X38733Y-17822D01*
X38733Y-17822D01*
X38790Y-17860D01*
X38858Y-17874D01*
X38935Y-17874D01*
X38935Y-17980D01*
X38940Y-17992D01*
X38935Y-18004D01*
X38935Y-18059D01*
X38935Y-18094D01*
X37349Y-16508D01*
X37292Y-16470D01*
X37224Y-16456D01*
X36254Y-16456D01*
X36254Y-13669D01*
X36254Y-13546D01*
X36194Y-13486D01*
X35909Y-13486D01*
X35909Y-13896D01*
X35969Y-13956D01*
X36062Y-13956D01*
X36150Y-13919D01*
X36217Y-13852D01*
X36254Y-13764D01*
X36254Y-13669D01*
X36254Y-16456D01*
X36106Y-16456D01*
X36136Y-16427D01*
X36181Y-16318D01*
X36181Y-16201D01*
X36136Y-16092D01*
X36125Y-16082D01*
X36125Y-16000D01*
X36131Y-15995D01*
X36152Y-15944D01*
X36152Y-15889D01*
X36152Y-15389D01*
X36131Y-15338D01*
X36092Y-15300D01*
X36042Y-15279D01*
X35987Y-15279D01*
X35870Y-15279D01*
X35870Y-13896D01*
X35870Y-13486D01*
X35870Y-13447D01*
X35870Y-13037D01*
X35810Y-12977D01*
X35717Y-12977D01*
X35639Y-13009D01*
X35562Y-12977D01*
X35469Y-12977D01*
X35409Y-13037D01*
X35409Y-13447D01*
X35585Y-13447D01*
X35694Y-13447D01*
X35870Y-13447D01*
X35870Y-13486D01*
X35694Y-13486D01*
X35585Y-13486D01*
X35409Y-13486D01*
X35409Y-13896D01*
X35469Y-13956D01*
X35562Y-13956D01*
X35639Y-13924D01*
X35717Y-13956D01*
X35810Y-13956D01*
X35870Y-13896D01*
X35870Y-15279D01*
X35737Y-15279D01*
X35719Y-15286D01*
X35717Y-15281D01*
X35650Y-15213D01*
X35562Y-15177D01*
X35469Y-15177D01*
X35409Y-15237D01*
X35409Y-15647D01*
X35417Y-15647D01*
X35417Y-15686D01*
X35409Y-15686D01*
X35409Y-16096D01*
X35469Y-16156D01*
X35562Y-16156D01*
X35618Y-16132D01*
X35590Y-16200D01*
X35590Y-16318D01*
X35635Y-16426D01*
X35665Y-16456D01*
X35370Y-16456D01*
X35370Y-16096D01*
X35370Y-15686D01*
X35370Y-15647D01*
X35370Y-15237D01*
X35370Y-13896D01*
X35370Y-13486D01*
X35362Y-13486D01*
X35362Y-13447D01*
X35370Y-13447D01*
X35370Y-13037D01*
X35310Y-12977D01*
X35217Y-12977D01*
X35129Y-13013D01*
X35061Y-13081D01*
X35059Y-13086D01*
X35042Y-13079D01*
X34987Y-13079D01*
X34737Y-13079D01*
X34719Y-13086D01*
X34717Y-13081D01*
X34650Y-13013D01*
X34562Y-12977D01*
X34469Y-12977D01*
X34409Y-13037D01*
X34409Y-13447D01*
X34417Y-13447D01*
X34417Y-13486D01*
X34409Y-13486D01*
X34409Y-13896D01*
X34469Y-13956D01*
X34562Y-13956D01*
X34650Y-13919D01*
X34717Y-13852D01*
X34719Y-13847D01*
X34737Y-13854D01*
X34792Y-13854D01*
X35042Y-13854D01*
X35059Y-13847D01*
X35061Y-13852D01*
X35129Y-13919D01*
X35217Y-13956D01*
X35310Y-13956D01*
X35370Y-13896D01*
X35370Y-15237D01*
X35310Y-15177D01*
X35217Y-15177D01*
X35139Y-15209D01*
X35062Y-15177D01*
X34969Y-15177D01*
X34909Y-15237D01*
X34909Y-15647D01*
X35085Y-15647D01*
X35194Y-15647D01*
X35370Y-15647D01*
X35370Y-15686D01*
X35194Y-15686D01*
X35085Y-15686D01*
X34909Y-15686D01*
X34909Y-16096D01*
X34969Y-16156D01*
X35062Y-16156D01*
X35139Y-16124D01*
X35217Y-16156D01*
X35310Y-16156D01*
X35370Y-16096D01*
X35370Y-16456D01*
X34870Y-16456D01*
X34870Y-16096D01*
X34870Y-15686D01*
X34862Y-15686D01*
X34862Y-15647D01*
X34870Y-15647D01*
X34870Y-15237D01*
X34810Y-15177D01*
X34717Y-15177D01*
X34629Y-15213D01*
X34561Y-15281D01*
X34559Y-15286D01*
X34542Y-15279D01*
X34487Y-15279D01*
X34237Y-15279D01*
X34219Y-15286D01*
X34217Y-15281D01*
X34150Y-15213D01*
X34062Y-15177D01*
X33969Y-15177D01*
X33909Y-15237D01*
X33909Y-15647D01*
X33917Y-15647D01*
X33917Y-15686D01*
X33909Y-15686D01*
X33909Y-16096D01*
X33969Y-16156D01*
X34062Y-16156D01*
X34150Y-16119D01*
X34217Y-16052D01*
X34219Y-16047D01*
X34237Y-16054D01*
X34292Y-16054D01*
X34542Y-16054D01*
X34559Y-16047D01*
X34561Y-16052D01*
X34629Y-16119D01*
X34717Y-16156D01*
X34810Y-16156D01*
X34870Y-16096D01*
X34870Y-16456D01*
X33537Y-16456D01*
X33103Y-16022D01*
X33131Y-15995D01*
X33139Y-15975D01*
X33147Y-15994D01*
X33186Y-16033D01*
X33237Y-16054D01*
X33292Y-16054D01*
X33542Y-16054D01*
X33559Y-16047D01*
X33561Y-16052D01*
X33629Y-16119D01*
X33717Y-16156D01*
X33810Y-16156D01*
X33870Y-16096D01*
X33870Y-15686D01*
X33862Y-15686D01*
X33862Y-15647D01*
X33870Y-15647D01*
X33870Y-15237D01*
X33810Y-15177D01*
X33717Y-15177D01*
X33644Y-15207D01*
X33651Y-15190D01*
X33651Y-15085D01*
X33611Y-14987D01*
X33536Y-14912D01*
X33438Y-14872D01*
X33333Y-14872D01*
X33235Y-14912D01*
X33160Y-14987D01*
X33120Y-15084D01*
X33120Y-15190D01*
X33160Y-15288D01*
X33179Y-15307D01*
X33148Y-15338D01*
X33139Y-15358D01*
X33131Y-15338D01*
X33092Y-15300D01*
X33042Y-15279D01*
X32987Y-15279D01*
X32870Y-15279D01*
X32870Y-13896D01*
X32870Y-13486D01*
X32870Y-13447D01*
X32870Y-13037D01*
X32810Y-12977D01*
X32717Y-12977D01*
X32629Y-13013D01*
X32561Y-13081D01*
X32525Y-13169D01*
X32525Y-13264D01*
X32525Y-13387D01*
X32585Y-13447D01*
X32870Y-13447D01*
X32870Y-13486D01*
X32585Y-13486D01*
X32525Y-13546D01*
X32525Y-13669D01*
X32525Y-13764D01*
X32561Y-13852D01*
X32629Y-13919D01*
X32717Y-13956D01*
X32810Y-13956D01*
X32870Y-13896D01*
X32870Y-15279D01*
X32737Y-15279D01*
X32686Y-15300D01*
X32648Y-15338D01*
X32626Y-15389D01*
X32626Y-15444D01*
X32626Y-15944D01*
X32647Y-15994D01*
X32686Y-16033D01*
X32712Y-16044D01*
X32712Y-16059D01*
X32726Y-16126D01*
X32764Y-16184D01*
X33339Y-16759D01*
X33339Y-16759D01*
X33396Y-16797D01*
X33463Y-16810D01*
X33188Y-17086D01*
X33116Y-17194D01*
X33090Y-17322D01*
X33090Y-17396D01*
X33072Y-17403D01*
X33033Y-17442D01*
X33026Y-17459D01*
X32441Y-17459D01*
X32441Y-17334D01*
X32420Y-17284D01*
X32381Y-17245D01*
X32331Y-17224D01*
X32276Y-17224D01*
X32000Y-17224D01*
X31949Y-17245D01*
X31931Y-17263D01*
X31915Y-17225D01*
X31848Y-17158D01*
X31760Y-17122D01*
X31654Y-17122D01*
X31594Y-17182D01*
X31594Y-17755D01*
X31602Y-17755D01*
X31602Y-17794D01*
X31594Y-17794D01*
X31594Y-17999D01*
X31594Y-18368D01*
X31594Y-18700D01*
X32147Y-18700D01*
X32207Y-18640D01*
X32207Y-18226D01*
X32207Y-18130D01*
X32207Y-18130D01*
X32331Y-18130D01*
X32381Y-18109D01*
X32420Y-18070D01*
X32441Y-18019D01*
X32441Y-17964D01*
X32441Y-17932D01*
X33026Y-17932D01*
X33033Y-17948D01*
X33072Y-17987D01*
X33122Y-18008D01*
X33177Y-18008D01*
X33315Y-18008D01*
X33425Y-18030D01*
X33534Y-18008D01*
X33727Y-18008D01*
X33778Y-17987D01*
X33816Y-17949D01*
X33837Y-17898D01*
X33838Y-17843D01*
X33838Y-17493D01*
X33817Y-17442D01*
X33797Y-17423D01*
X33878Y-17342D01*
X34664Y-17342D01*
X34901Y-17579D01*
X34901Y-18267D01*
X34294Y-18267D01*
X34212Y-18349D01*
X34212Y-19839D01*
X34294Y-19921D01*
X36177Y-19921D01*
X36259Y-19839D01*
X36259Y-18349D01*
X36177Y-18267D01*
X35570Y-18267D01*
X35570Y-17440D01*
X35570Y-17440D01*
X35570Y-17440D01*
X35565Y-17415D01*
X35545Y-17312D01*
X35545Y-17312D01*
X35472Y-17204D01*
X35472Y-17204D01*
X35079Y-16811D01*
X37151Y-16811D01*
X38753Y-18413D01*
X38810Y-18451D01*
X38810Y-18451D01*
X38878Y-18465D01*
X38998Y-18465D01*
X39045Y-18484D01*
X39100Y-18484D01*
X39356Y-18484D01*
X39407Y-18464D01*
X39427Y-18443D01*
X39447Y-18463D01*
X39498Y-18484D01*
X39553Y-18484D01*
X39809Y-18484D01*
X39856Y-18465D01*
X40629Y-18465D01*
X40696Y-18451D01*
X40696Y-18451D01*
X40754Y-18413D01*
X40929Y-18238D01*
X40997Y-18238D01*
X41095Y-18197D01*
X41170Y-18123D01*
X41210Y-18025D01*
X41210Y-17919D01*
X41210Y-19181D01*
X41192Y-19224D01*
X41192Y-19396D01*
X41258Y-19556D01*
X41380Y-19677D01*
X41539Y-19744D01*
X41711Y-19744D01*
X41870Y-19678D01*
X41992Y-19556D01*
X42058Y-19397D01*
X42059Y-19225D01*
X42059Y-21121D01*
X41864Y-21121D01*
X41379Y-21322D01*
X41008Y-21692D01*
X40807Y-22177D01*
X40806Y-22702D01*
X41007Y-23187D01*
X41377Y-23558D01*
X41862Y-23759D01*
X42387Y-23760D01*
X42872Y-23559D01*
X43243Y-23189D01*
X43444Y-22704D01*
X43445Y-22179D01*
X43445Y-24242D01*
X36259Y-24242D01*
X33939Y-24242D01*
X33939Y-18668D01*
X33939Y-18223D01*
X33903Y-18135D01*
X33835Y-18068D01*
X33748Y-18031D01*
X33652Y-18031D01*
X33504Y-18031D01*
X33444Y-18091D01*
X33444Y-18426D01*
X33879Y-18426D01*
X33939Y-18366D01*
X33939Y-18223D01*
X33939Y-18668D01*
X33939Y-18525D01*
X33879Y-18465D01*
X33444Y-18465D01*
X33444Y-18800D01*
X33504Y-18860D01*
X33652Y-18860D01*
X33748Y-18860D01*
X33835Y-18823D01*
X33903Y-18756D01*
X33939Y-18668D01*
X33939Y-24242D01*
X33405Y-24242D01*
X33405Y-18800D01*
X33405Y-18465D01*
X33405Y-18426D01*
X33405Y-18091D01*
X33345Y-18031D01*
X33197Y-18031D01*
X33102Y-18031D01*
X33014Y-18068D01*
X32947Y-18135D01*
X32910Y-18223D01*
X32910Y-18366D01*
X32970Y-18426D01*
X33405Y-18426D01*
X33405Y-18465D01*
X32970Y-18465D01*
X32910Y-18525D01*
X32910Y-18668D01*
X32947Y-18756D01*
X33014Y-18823D01*
X33102Y-18860D01*
X33197Y-18860D01*
X33345Y-18860D01*
X33405Y-18800D01*
X33405Y-24242D01*
X32207Y-24242D01*
X32207Y-19214D01*
X32207Y-18799D01*
X32147Y-18739D01*
X31594Y-18739D01*
X31594Y-19441D01*
X31654Y-19501D01*
X32015Y-19501D01*
X32103Y-19464D01*
X32171Y-19397D01*
X32207Y-19309D01*
X32207Y-19214D01*
X32207Y-24242D01*
X31555Y-24242D01*
X31555Y-19441D01*
X31555Y-18739D01*
X31001Y-18739D01*
X30941Y-18799D01*
X30941Y-19214D01*
X30941Y-19309D01*
X30978Y-19397D01*
X31045Y-19464D01*
X31133Y-19501D01*
X31495Y-19501D01*
X31555Y-19441D01*
X31555Y-24242D01*
X28284Y-24242D01*
X28284Y-20845D01*
X28184Y-20597D01*
X28176Y-20585D01*
X28066Y-20544D01*
X28038Y-20571D01*
X28038Y-20516D01*
X27997Y-20406D01*
X27751Y-20301D01*
X27483Y-20298D01*
X27235Y-20398D01*
X27223Y-20406D01*
X27181Y-20516D01*
X27610Y-20944D01*
X28038Y-20516D01*
X28038Y-20571D01*
X27638Y-20972D01*
X28066Y-21400D01*
X28176Y-21359D01*
X28281Y-21113D01*
X28284Y-20845D01*
X28284Y-24242D01*
X28038Y-24242D01*
X28038Y-21428D01*
X27610Y-21000D01*
X27582Y-21028D01*
X27582Y-20972D01*
X27154Y-20544D01*
X27044Y-20585D01*
X26939Y-20831D01*
X26936Y-21099D01*
X27036Y-21347D01*
X27044Y-21359D01*
X27154Y-21400D01*
X27582Y-20972D01*
X27582Y-21028D01*
X27181Y-21428D01*
X27217Y-21523D01*
X27080Y-21466D01*
X26739Y-21466D01*
X26425Y-21596D01*
X26183Y-21837D01*
X26053Y-22151D01*
X26053Y-22492D01*
X26183Y-22807D01*
X26423Y-23048D01*
X26738Y-23178D01*
X27079Y-23179D01*
X27393Y-23049D01*
X27634Y-22808D01*
X27765Y-22493D01*
X27765Y-22153D01*
X27635Y-21838D01*
X27420Y-21622D01*
X27469Y-21643D01*
X27736Y-21646D01*
X27985Y-21546D01*
X27997Y-21538D01*
X28038Y-21428D01*
X28038Y-24242D01*
X25340Y-24242D01*
X25340Y-21679D01*
X25011Y-21350D01*
X24682Y-21679D01*
X24707Y-21775D01*
X24903Y-21857D01*
X25116Y-21858D01*
X25313Y-21777D01*
X25316Y-21775D01*
X25340Y-21679D01*
X25340Y-24242D01*
X23734Y-24242D01*
X23734Y-21679D01*
X23405Y-21350D01*
X23076Y-21679D01*
X23101Y-21775D01*
X23297Y-21857D01*
X23510Y-21858D01*
X23707Y-21777D01*
X23709Y-21775D01*
X23734Y-21679D01*
X23734Y-24242D01*
X22765Y-24242D01*
X22765Y-22153D01*
X22635Y-21838D01*
X22395Y-21597D01*
X22080Y-21466D01*
X21882Y-21466D01*
X21882Y-20845D01*
X21782Y-20597D01*
X21774Y-20585D01*
X21664Y-20544D01*
X21637Y-20571D01*
X21637Y-20516D01*
X21595Y-20406D01*
X21349Y-20301D01*
X21082Y-20298D01*
X20833Y-20398D01*
X20821Y-20406D01*
X20780Y-20516D01*
X21208Y-20944D01*
X21637Y-20516D01*
X21637Y-20571D01*
X21236Y-20972D01*
X21664Y-21400D01*
X21774Y-21359D01*
X21879Y-21113D01*
X21882Y-20845D01*
X21882Y-21466D01*
X21739Y-21466D01*
X21601Y-21523D01*
X21637Y-21428D01*
X21208Y-21000D01*
X21180Y-21028D01*
X21180Y-20972D01*
X20752Y-20544D01*
X20642Y-20585D01*
X20570Y-20754D01*
X20507Y-20597D01*
X20499Y-20585D01*
X20389Y-20544D01*
X20361Y-20571D01*
X20361Y-20516D01*
X20319Y-20406D01*
X20073Y-20301D01*
X19806Y-20298D01*
X19558Y-20398D01*
X19546Y-20406D01*
X19504Y-20516D01*
X19933Y-20944D01*
X20361Y-20516D01*
X20361Y-20571D01*
X19960Y-20972D01*
X20389Y-21400D01*
X20499Y-21359D01*
X20571Y-21189D01*
X20634Y-21347D01*
X20642Y-21359D01*
X20752Y-21400D01*
X21180Y-20972D01*
X21180Y-21028D01*
X20780Y-21428D01*
X20821Y-21538D01*
X21067Y-21643D01*
X21335Y-21646D01*
X21402Y-21619D01*
X21183Y-21837D01*
X21053Y-22151D01*
X21053Y-22492D01*
X21183Y-22807D01*
X21423Y-23048D01*
X21738Y-23178D01*
X22079Y-23179D01*
X22393Y-23049D01*
X22634Y-22808D01*
X22765Y-22493D01*
X22765Y-22153D01*
X22765Y-24242D01*
X20361Y-24242D01*
X20361Y-21428D01*
X19933Y-21000D01*
X19905Y-21028D01*
X19905Y-20972D01*
X19476Y-20544D01*
X19367Y-20585D01*
X19262Y-20831D01*
X19259Y-21099D01*
X19359Y-21347D01*
X19367Y-21359D01*
X19476Y-21400D01*
X19905Y-20972D01*
X19905Y-21028D01*
X19504Y-21428D01*
X19540Y-21523D01*
X19403Y-21466D01*
X19062Y-21466D01*
X18747Y-21596D01*
X18571Y-21772D01*
X18571Y-21237D01*
X18505Y-21077D01*
X18383Y-20955D01*
X18224Y-20889D01*
X18081Y-20889D01*
X18103Y-20867D01*
X18169Y-20708D01*
X18169Y-20536D01*
X18103Y-20376D01*
X17981Y-20254D01*
X17822Y-20188D01*
X17650Y-20188D01*
X17581Y-20217D01*
X16786Y-19422D01*
X16729Y-19383D01*
X16661Y-19370D01*
X12474Y-19370D01*
X12427Y-19350D01*
X12372Y-19350D01*
X12147Y-19350D01*
X12083Y-19285D01*
X11995Y-19249D01*
X11899Y-19249D01*
X11898Y-19249D01*
X11838Y-19308D01*
X11838Y-19505D01*
X11838Y-19527D01*
X11838Y-19567D01*
X11838Y-19702D01*
X11838Y-19724D01*
X11838Y-19764D01*
X11838Y-19772D01*
X11799Y-19772D01*
X11799Y-19764D01*
X11799Y-19724D01*
X11799Y-19702D01*
X11799Y-19567D01*
X11799Y-19527D01*
X11799Y-19505D01*
X11799Y-19308D01*
X11799Y-19097D01*
X11799Y-18900D01*
X11799Y-18878D01*
X11799Y-18839D01*
X11799Y-18703D01*
X11799Y-18681D01*
X11799Y-18642D01*
X11799Y-18620D01*
X11799Y-18506D01*
X11799Y-18484D01*
X11799Y-18445D01*
X11799Y-18423D01*
X11799Y-18287D01*
X11799Y-18248D01*
X11799Y-18226D01*
X11799Y-18029D01*
X11739Y-17969D01*
X11738Y-17969D01*
X11643Y-17969D01*
X11555Y-18006D01*
X11488Y-18073D01*
X11451Y-18161D01*
X11451Y-18188D01*
X11511Y-18247D01*
X11488Y-18270D01*
X11459Y-18339D01*
X11451Y-18347D01*
X11451Y-18358D01*
X11451Y-18358D01*
X11451Y-18366D01*
X11451Y-18374D01*
X11451Y-18374D01*
X11451Y-18385D01*
X11459Y-18393D01*
X11488Y-18462D01*
X11490Y-18464D01*
X11488Y-18467D01*
X11459Y-18536D01*
X11451Y-18544D01*
X11451Y-18555D01*
X11451Y-18555D01*
X11451Y-18563D01*
X11451Y-18571D01*
X11451Y-18571D01*
X11451Y-18582D01*
X11459Y-18590D01*
X11488Y-18659D01*
X11490Y-18661D01*
X11488Y-18664D01*
X11459Y-18733D01*
X11451Y-18741D01*
X11451Y-18752D01*
X11451Y-18752D01*
X11451Y-18760D01*
X11451Y-18768D01*
X11451Y-18768D01*
X11451Y-18779D01*
X11459Y-18787D01*
X11488Y-18856D01*
X11511Y-18879D01*
X11451Y-18938D01*
X11451Y-18965D01*
X11488Y-19053D01*
X11555Y-19120D01*
X11643Y-19157D01*
X11738Y-19157D01*
X11739Y-19157D01*
X11799Y-19097D01*
X11799Y-19308D01*
X11739Y-19249D01*
X11738Y-19249D01*
X11643Y-19249D01*
X11555Y-19285D01*
X11488Y-19353D01*
X11451Y-19441D01*
X11451Y-19467D01*
X11511Y-19527D01*
X11488Y-19550D01*
X11459Y-19619D01*
X11451Y-19627D01*
X11451Y-19638D01*
X11451Y-19638D01*
X11451Y-19646D01*
X11451Y-19653D01*
X11451Y-19653D01*
X11451Y-19664D01*
X11459Y-19672D01*
X11488Y-19741D01*
X11490Y-19744D01*
X11488Y-19747D01*
X11459Y-19816D01*
X11451Y-19824D01*
X11451Y-19835D01*
X11451Y-19835D01*
X11451Y-19843D01*
X11451Y-19850D01*
X11451Y-19850D01*
X11451Y-19861D01*
X11459Y-19869D01*
X11488Y-19938D01*
X11511Y-19961D01*
X11451Y-20021D01*
X11451Y-20047D01*
X11488Y-20135D01*
X11553Y-20201D01*
X11553Y-20224D01*
X11574Y-20275D01*
X11613Y-20314D01*
X11663Y-20335D01*
X11718Y-20335D01*
X11974Y-20335D01*
X12025Y-20314D01*
X12045Y-20293D01*
X12066Y-20314D01*
X12116Y-20335D01*
X12171Y-20335D01*
X12427Y-20335D01*
X12478Y-20314D01*
X12516Y-20275D01*
X12538Y-20225D01*
X12538Y-20170D01*
X12538Y-20118D01*
X15376Y-20118D01*
X15469Y-20212D01*
X15413Y-20188D01*
X15240Y-20188D01*
X15081Y-20254D01*
X14959Y-20376D01*
X14893Y-20535D01*
X14893Y-20707D01*
X14959Y-20867D01*
X15081Y-20989D01*
X15240Y-21055D01*
X15260Y-21055D01*
X15193Y-21214D01*
X15193Y-21427D01*
X15273Y-21624D01*
X15275Y-21627D01*
X15371Y-21651D01*
X15700Y-21322D01*
X15694Y-21317D01*
X15722Y-21289D01*
X15728Y-21294D01*
X15733Y-21289D01*
X15761Y-21317D01*
X15756Y-21322D01*
X16085Y-21651D01*
X16180Y-21627D01*
X16193Y-21597D01*
X16285Y-21689D01*
X16444Y-21756D01*
X16617Y-21756D01*
X16776Y-21690D01*
X16869Y-21597D01*
X16880Y-21624D01*
X16882Y-21627D01*
X16977Y-21651D01*
X17306Y-21322D01*
X17301Y-21317D01*
X17329Y-21289D01*
X17334Y-21294D01*
X17340Y-21289D01*
X17368Y-21317D01*
X17362Y-21322D01*
X17691Y-21651D01*
X17787Y-21627D01*
X17799Y-21597D01*
X17892Y-21689D01*
X18051Y-21756D01*
X18223Y-21756D01*
X18382Y-21690D01*
X18504Y-21568D01*
X18571Y-21409D01*
X18571Y-21237D01*
X18571Y-21772D01*
X18506Y-21837D01*
X18376Y-22151D01*
X18375Y-22492D01*
X18505Y-22807D01*
X18746Y-23048D01*
X19061Y-23178D01*
X19401Y-23179D01*
X19716Y-23049D01*
X19957Y-22808D01*
X20088Y-22493D01*
X20088Y-22153D01*
X19958Y-21838D01*
X19743Y-21622D01*
X19792Y-21643D01*
X20059Y-21646D01*
X20307Y-21546D01*
X20319Y-21538D01*
X20361Y-21428D01*
X20361Y-24242D01*
X17663Y-24242D01*
X17663Y-21679D01*
X17334Y-21350D01*
X17005Y-21679D01*
X17030Y-21775D01*
X17226Y-21857D01*
X17439Y-21858D01*
X17636Y-21777D01*
X17639Y-21775D01*
X17663Y-21679D01*
X17663Y-24242D01*
X16057Y-24242D01*
X16057Y-21679D01*
X15728Y-21350D01*
X15399Y-21679D01*
X15423Y-21775D01*
X15620Y-21857D01*
X15833Y-21858D01*
X16029Y-21777D01*
X16032Y-21775D01*
X16057Y-21679D01*
X16057Y-24242D01*
X15088Y-24242D01*
X15088Y-22153D01*
X14958Y-21838D01*
X14717Y-21597D01*
X14403Y-21466D01*
X14205Y-21466D01*
X14205Y-20845D01*
X14105Y-20597D01*
X14097Y-20585D01*
X13987Y-20544D01*
X13959Y-20571D01*
X13959Y-20516D01*
X13918Y-20406D01*
X13672Y-20301D01*
X13404Y-20298D01*
X13156Y-20398D01*
X13144Y-20406D01*
X13103Y-20516D01*
X13531Y-20944D01*
X13959Y-20516D01*
X13959Y-20571D01*
X13559Y-20972D01*
X13987Y-21400D01*
X14097Y-21359D01*
X14202Y-21113D01*
X14205Y-20845D01*
X14205Y-21466D01*
X14062Y-21466D01*
X13923Y-21523D01*
X13959Y-21428D01*
X13531Y-21000D01*
X13503Y-21028D01*
X13503Y-20972D01*
X13075Y-20544D01*
X12965Y-20585D01*
X12860Y-20831D01*
X12857Y-21099D01*
X12957Y-21347D01*
X12965Y-21359D01*
X13075Y-21400D01*
X13503Y-20972D01*
X13503Y-21028D01*
X13103Y-21428D01*
X13144Y-21538D01*
X13390Y-21643D01*
X13658Y-21646D01*
X13724Y-21619D01*
X13506Y-21837D01*
X13376Y-22151D01*
X13375Y-22492D01*
X13505Y-22807D01*
X13746Y-23048D01*
X14061Y-23178D01*
X14401Y-23179D01*
X14716Y-23049D01*
X14957Y-22808D01*
X15088Y-22493D01*
X15088Y-22153D01*
X15088Y-24242D01*
X8964Y-24242D01*
X8964Y-12748D01*
X8899Y-12589D01*
X8777Y-12467D01*
X8694Y-12433D01*
X8776Y-12399D01*
X8898Y-12277D01*
X8964Y-12118D01*
X8964Y-11945D01*
X8899Y-11786D01*
X8777Y-11664D01*
X8694Y-11629D01*
X8776Y-11595D01*
X8898Y-11474D01*
X8964Y-11314D01*
X8964Y-11142D01*
X8899Y-10983D01*
X8777Y-10861D01*
X8694Y-10826D01*
X8776Y-10792D01*
X8898Y-10670D01*
X8964Y-10511D01*
X8964Y-10339D01*
X8899Y-10180D01*
X8854Y-10135D01*
X8854Y-8503D01*
X8755Y-8255D01*
X8747Y-8243D01*
X8637Y-8201D01*
X8609Y-8229D01*
X8609Y-8173D01*
X8568Y-8063D01*
X8321Y-7958D01*
X8054Y-7956D01*
X8012Y-7973D01*
X8012Y-6431D01*
X7811Y-5946D01*
X7440Y-5575D01*
X6956Y-5374D01*
X6431Y-5373D01*
X5946Y-5574D01*
X5575Y-5944D01*
X5374Y-6429D01*
X5373Y-6954D01*
X5574Y-7439D01*
X5944Y-7810D01*
X6429Y-8011D01*
X6954Y-8012D01*
X7439Y-7811D01*
X7810Y-7440D01*
X8011Y-6956D01*
X8012Y-6431D01*
X8012Y-7973D01*
X7806Y-8055D01*
X7794Y-8063D01*
X7752Y-8173D01*
X8181Y-8602D01*
X8609Y-8173D01*
X8609Y-8229D01*
X8208Y-8629D01*
X8637Y-9058D01*
X8747Y-9016D01*
X8852Y-8770D01*
X8854Y-8503D01*
X8854Y-10135D01*
X8777Y-10058D01*
X8618Y-9991D01*
X8609Y-9991D01*
X8609Y-9086D01*
X8181Y-8657D01*
X8153Y-8685D01*
X8153Y-8629D01*
X7724Y-8201D01*
X7615Y-8243D01*
X7510Y-8489D01*
X7507Y-8756D01*
X7534Y-8823D01*
X7316Y-8605D01*
X7001Y-8474D01*
X6661Y-8474D01*
X6346Y-8604D01*
X6105Y-8845D01*
X5974Y-9159D01*
X5974Y-9500D01*
X6104Y-9815D01*
X6345Y-10056D01*
X6659Y-10186D01*
X7000Y-10187D01*
X7315Y-10057D01*
X7556Y-9816D01*
X7686Y-9501D01*
X7687Y-9161D01*
X7629Y-9022D01*
X7724Y-9058D01*
X8153Y-8629D01*
X8153Y-8685D01*
X7752Y-9086D01*
X7794Y-9195D01*
X8040Y-9300D01*
X8307Y-9303D01*
X8555Y-9203D01*
X8568Y-9195D01*
X8609Y-9086D01*
X8609Y-9991D01*
X8445Y-9991D01*
X8286Y-10057D01*
X8164Y-10179D01*
X8098Y-10338D01*
X8098Y-10358D01*
X7938Y-10292D01*
X7726Y-10291D01*
X7529Y-10372D01*
X7526Y-10374D01*
X7501Y-10469D01*
X7830Y-10798D01*
X7836Y-10793D01*
X7864Y-10821D01*
X7858Y-10826D01*
X7864Y-10832D01*
X7836Y-10860D01*
X7830Y-10854D01*
X7802Y-10882D01*
X7802Y-10826D01*
X7473Y-10497D01*
X7378Y-10522D01*
X7296Y-10718D01*
X7295Y-10931D01*
X7376Y-11128D01*
X7378Y-11131D01*
X7473Y-11155D01*
X7802Y-10826D01*
X7802Y-10882D01*
X7501Y-11183D01*
X7526Y-11279D01*
X7556Y-11291D01*
X7463Y-11384D01*
X7397Y-11543D01*
X7397Y-11715D01*
X7463Y-11875D01*
X7555Y-11967D01*
X7529Y-11978D01*
X7526Y-11980D01*
X7501Y-12076D01*
X7830Y-12405D01*
X7836Y-12399D01*
X7864Y-12427D01*
X7858Y-12433D01*
X7864Y-12438D01*
X7836Y-12466D01*
X7830Y-12460D01*
X7802Y-12488D01*
X7802Y-12433D01*
X7473Y-12103D01*
X7378Y-12128D01*
X7296Y-12324D01*
X7295Y-12537D01*
X7376Y-12734D01*
X7378Y-12737D01*
X7473Y-12762D01*
X7802Y-12433D01*
X7802Y-12488D01*
X7501Y-12790D01*
X7526Y-12885D01*
X7556Y-12898D01*
X7463Y-12990D01*
X7397Y-13149D01*
X7397Y-13322D01*
X7463Y-13481D01*
X7584Y-13603D01*
X7744Y-13669D01*
X7916Y-13669D01*
X8075Y-13603D01*
X8197Y-13481D01*
X8263Y-13322D01*
X8264Y-13180D01*
X8285Y-13201D01*
X8444Y-13267D01*
X8617Y-13268D01*
X8776Y-13202D01*
X8898Y-13080D01*
X8964Y-12921D01*
X8964Y-12748D01*
X8964Y-24242D01*
X8854Y-24242D01*
X8854Y-14904D01*
X8755Y-14656D01*
X8747Y-14644D01*
X8637Y-14603D01*
X8609Y-14630D01*
X8609Y-14575D01*
X8568Y-14465D01*
X8321Y-14360D01*
X8054Y-14357D01*
X7806Y-14457D01*
X7794Y-14465D01*
X7752Y-14575D01*
X8181Y-15003D01*
X8609Y-14575D01*
X8609Y-14630D01*
X8208Y-15031D01*
X8637Y-15459D01*
X8747Y-15418D01*
X8852Y-15172D01*
X8854Y-14904D01*
X8854Y-24242D01*
X8609Y-24242D01*
X8609Y-15487D01*
X8181Y-15059D01*
X8153Y-15087D01*
X8153Y-15031D01*
X7724Y-14603D01*
X7629Y-14639D01*
X7686Y-14501D01*
X7687Y-14161D01*
X7557Y-13846D01*
X7316Y-13605D01*
X7001Y-13474D01*
X6661Y-13474D01*
X6346Y-13604D01*
X6105Y-13845D01*
X5974Y-14159D01*
X5974Y-14500D01*
X6104Y-14815D01*
X6345Y-15056D01*
X6659Y-15186D01*
X7000Y-15187D01*
X7315Y-15057D01*
X7531Y-14841D01*
X7510Y-14890D01*
X7507Y-15158D01*
X7607Y-15406D01*
X7615Y-15418D01*
X7724Y-15459D01*
X8153Y-15031D01*
X8153Y-15087D01*
X7752Y-15487D01*
X7794Y-15597D01*
X8040Y-15702D01*
X8307Y-15705D01*
X8555Y-15605D01*
X8568Y-15597D01*
X8609Y-15487D01*
X8609Y-24242D01*
X8012Y-24242D01*
X8012Y-22179D01*
X7811Y-21694D01*
X7440Y-21323D01*
X6956Y-21122D01*
X6431Y-21121D01*
X5946Y-21322D01*
X5575Y-21692D01*
X5374Y-22177D01*
X5373Y-22702D01*
X5574Y-23187D01*
X5944Y-23558D01*
X6429Y-23759D01*
X6954Y-23760D01*
X7439Y-23559D01*
X7810Y-23189D01*
X8011Y-22704D01*
X8012Y-22179D01*
X8012Y-24242D01*
X4891Y-24242D01*
X4891Y-4891D01*
X43927Y-4891D01*
X43927Y-24242D01*
G54D10*
G36*
X35787Y-19412D02*
X35751Y-19448D01*
X34721Y-19448D01*
X34685Y-19412D01*
X34685Y-18776D01*
X34721Y-18740D01*
X35751Y-18740D01*
X35787Y-18776D01*
X35787Y-19412D01*
X35787Y-19412D01*
G37*
G54D28*
X35787Y-19412D02*
X35751Y-19448D01*
X34721Y-19448D01*
X34685Y-19412D01*
X34685Y-18776D01*
X34721Y-18740D01*
X35751Y-18740D01*
X35787Y-18776D01*
X35787Y-19412D01*
M02*
