G04 (created by PCBNEW (2013-07-07 BZR 4022)-stable) date 18/09/2013 13:21:15*
%MOIN*%
G04 Gerber Fmt 3.4, Leading zero omitted, Abs format*
%FSLAX34Y34*%
G01*
G70*
G90*
G04 APERTURE LIST*
%ADD10C,0.00590551*%
%ADD11C,0.011811*%
%ADD12C,0.0098*%
%ADD13C,0.012*%
%ADD14C,0.0758425*%
%ADD15R,0.0216425X0.0354425*%
%ADD16C,0.246063*%
%ADD17C,0.153543*%
%ADD18C,0.0689425*%
%ADD19C,0.0964567*%
G04 APERTURE END LIST*
G54D10*
G54D11*
X45351Y-11110D02*
X45435Y-11138D01*
X45464Y-11167D01*
X45492Y-11223D01*
X45492Y-11307D01*
X45464Y-11363D01*
X45435Y-11392D01*
X45379Y-11420D01*
X45154Y-11420D01*
X45154Y-10829D01*
X45351Y-10829D01*
X45407Y-10857D01*
X45435Y-10885D01*
X45464Y-10942D01*
X45464Y-10998D01*
X45435Y-11054D01*
X45407Y-11082D01*
X45351Y-11110D01*
X45154Y-11110D01*
X45745Y-11363D02*
X45773Y-11392D01*
X45745Y-11420D01*
X45717Y-11392D01*
X45745Y-11363D01*
X45745Y-11420D01*
X46448Y-11392D02*
X46532Y-11420D01*
X46673Y-11420D01*
X46729Y-11392D01*
X46757Y-11363D01*
X46785Y-11307D01*
X46785Y-11251D01*
X46757Y-11195D01*
X46729Y-11167D01*
X46673Y-11138D01*
X46560Y-11110D01*
X46504Y-11082D01*
X46476Y-11054D01*
X46448Y-10998D01*
X46448Y-10942D01*
X46476Y-10885D01*
X46504Y-10857D01*
X46560Y-10829D01*
X46701Y-10829D01*
X46785Y-10857D01*
X47038Y-11420D02*
X47038Y-11026D01*
X47038Y-10829D02*
X47010Y-10857D01*
X47038Y-10885D01*
X47066Y-10857D01*
X47038Y-10829D01*
X47038Y-10885D01*
X47404Y-11420D02*
X47348Y-11392D01*
X47320Y-11335D01*
X47320Y-10829D01*
X47629Y-11420D02*
X47629Y-10829D01*
X47685Y-11195D02*
X47854Y-11420D01*
X47854Y-11026D02*
X47629Y-11251D01*
X48079Y-11392D02*
X48163Y-11420D01*
X48304Y-11420D01*
X48360Y-11392D01*
X48388Y-11363D01*
X48416Y-11307D01*
X48416Y-11251D01*
X48388Y-11195D01*
X48360Y-11167D01*
X48304Y-11138D01*
X48191Y-11110D01*
X48135Y-11082D01*
X48107Y-11054D01*
X48079Y-10998D01*
X48079Y-10942D01*
X48107Y-10885D01*
X48135Y-10857D01*
X48191Y-10829D01*
X48332Y-10829D01*
X48416Y-10857D01*
G54D12*
X24944Y-17999D02*
X24944Y-19034D01*
X24944Y-19034D02*
X23889Y-19034D01*
X23889Y-19034D02*
X23889Y-18007D01*
X23893Y-17991D02*
X24944Y-17991D01*
G54D13*
X24886Y-16985D02*
X24886Y-17471D01*
X24858Y-17528D01*
X24829Y-17557D01*
X24772Y-17585D01*
X24658Y-17585D01*
X24600Y-17557D01*
X24572Y-17528D01*
X24543Y-17471D01*
X24543Y-16985D01*
X24315Y-16985D02*
X23943Y-16985D01*
X24143Y-17214D01*
X24058Y-17214D01*
X24000Y-17242D01*
X23972Y-17271D01*
X23943Y-17328D01*
X23943Y-17471D01*
X23972Y-17528D01*
X24000Y-17557D01*
X24058Y-17585D01*
X24229Y-17585D01*
X24286Y-17557D01*
X24315Y-17528D01*
%LPC*%
G54D11*
X45365Y-13000D02*
X45449Y-13028D01*
X45478Y-13056D01*
X45506Y-13113D01*
X45506Y-13197D01*
X45478Y-13253D01*
X45449Y-13281D01*
X45393Y-13309D01*
X45168Y-13309D01*
X45168Y-12719D01*
X45365Y-12719D01*
X45421Y-12747D01*
X45449Y-12775D01*
X45478Y-12831D01*
X45478Y-12888D01*
X45449Y-12944D01*
X45421Y-12972D01*
X45365Y-13000D01*
X45168Y-13000D01*
X45759Y-13253D02*
X45787Y-13281D01*
X45759Y-13309D01*
X45731Y-13281D01*
X45759Y-13253D01*
X45759Y-13309D01*
X46490Y-13309D02*
X46490Y-12719D01*
X46687Y-13141D01*
X46884Y-12719D01*
X46884Y-13309D01*
X47418Y-13309D02*
X47418Y-13000D01*
X47390Y-12944D01*
X47334Y-12916D01*
X47221Y-12916D01*
X47165Y-12944D01*
X47418Y-13281D02*
X47362Y-13309D01*
X47221Y-13309D01*
X47165Y-13281D01*
X47137Y-13225D01*
X47137Y-13169D01*
X47165Y-13113D01*
X47221Y-13084D01*
X47362Y-13084D01*
X47418Y-13056D01*
X47671Y-13281D02*
X47727Y-13309D01*
X47840Y-13309D01*
X47896Y-13281D01*
X47924Y-13225D01*
X47924Y-13197D01*
X47896Y-13141D01*
X47840Y-13113D01*
X47755Y-13113D01*
X47699Y-13084D01*
X47671Y-13028D01*
X47671Y-13000D01*
X47699Y-12944D01*
X47755Y-12916D01*
X47840Y-12916D01*
X47896Y-12944D01*
X48177Y-13309D02*
X48177Y-12719D01*
X48233Y-13084D02*
X48402Y-13309D01*
X48402Y-12916D02*
X48177Y-13141D01*
G54D14*
X38082Y-21259D03*
X39082Y-21259D03*
X35326Y-21259D03*
X36326Y-21259D03*
X32570Y-21259D03*
X33570Y-21259D03*
X29814Y-21259D03*
X30814Y-21259D03*
G54D15*
X24704Y-18731D03*
X24507Y-18731D03*
X24310Y-18731D03*
X24113Y-18731D03*
X24113Y-18278D03*
X24310Y-18278D03*
X24507Y-18278D03*
X24704Y-18278D03*
G54D16*
X6692Y-6692D03*
X6692Y-22440D03*
X42125Y-22440D03*
X42125Y-6692D03*
G54D17*
X17972Y-7086D03*
X22972Y-7086D03*
G54D18*
X19066Y-8086D03*
X19468Y-8787D03*
X19870Y-8086D03*
X20271Y-8787D03*
X20673Y-8086D03*
X21074Y-8787D03*
X21476Y-8086D03*
X21877Y-8787D03*
G54D19*
X17271Y-8437D03*
X23673Y-8437D03*
G54D17*
X26909Y-22047D03*
X21909Y-22047D03*
G54D18*
X25814Y-21047D03*
X25413Y-20346D03*
X25011Y-21047D03*
X24610Y-20346D03*
X24208Y-21047D03*
X23807Y-20346D03*
X23405Y-21047D03*
X23003Y-20346D03*
G54D19*
X27610Y-20696D03*
X21208Y-20696D03*
G54D17*
X10098Y-7086D03*
X15098Y-7086D03*
G54D18*
X11192Y-8086D03*
X11594Y-8787D03*
X11996Y-8086D03*
X12397Y-8787D03*
X12799Y-8086D03*
X13200Y-8787D03*
X13602Y-8086D03*
X14003Y-8787D03*
G54D19*
X9397Y-8437D03*
X15799Y-8437D03*
G54D17*
X33720Y-7086D03*
X38720Y-7086D03*
G54D18*
X34814Y-8086D03*
X35216Y-8787D03*
X35618Y-8086D03*
X36019Y-8787D03*
X36421Y-8086D03*
X36822Y-8787D03*
X37224Y-8086D03*
X37625Y-8787D03*
G54D19*
X33019Y-8437D03*
X39421Y-8437D03*
G54D17*
X25846Y-7086D03*
X30846Y-7086D03*
G54D18*
X26940Y-8086D03*
X27342Y-8787D03*
X27744Y-8086D03*
X28145Y-8787D03*
X28547Y-8086D03*
X28948Y-8787D03*
X29350Y-8086D03*
X29751Y-8787D03*
G54D19*
X25145Y-8437D03*
X31547Y-8437D03*
M02*
