G04 (created by PCBNEW (2013-07-07 BZR 4022)-stable) date 18/09/2013 13:21:15*
%MOIN*%
G04 Gerber Fmt 3.4, Leading zero omitted, Abs format*
%FSLAX34Y34*%
G01*
G70*
G90*
G04 APERTURE LIST*
%ADD10C,0.00590551*%
%ADD11C,0.011811*%
%ADD12C,0.066*%
%ADD13R,0.0118X0.0256*%
%ADD14R,0.0787402X0.023622*%
%ADD15R,0.035X0.055*%
%ADD16C,0.23622*%
%ADD17C,0.1437*%
%ADD18C,0.0591*%
%ADD19C,0.0866142*%
%ADD20R,0.0276X0.063*%
%ADD21R,0.0276X0.0827*%
%ADD22R,0.0787X0.1083*%
%ADD23C,0.035*%
%ADD24C,0.0393701*%
%ADD25C,0.019685*%
%ADD26C,0.00787402*%
%ADD27C,0.01*%
G04 APERTURE END LIST*
G54D10*
G54D11*
X45298Y-5913D02*
X45101Y-5913D01*
X45101Y-6223D02*
X45101Y-5632D01*
X45382Y-5632D01*
X45607Y-6167D02*
X45635Y-6195D01*
X45607Y-6223D01*
X45579Y-6195D01*
X45607Y-6167D01*
X45607Y-6223D01*
X46676Y-6167D02*
X46647Y-6195D01*
X46563Y-6223D01*
X46507Y-6223D01*
X46422Y-6195D01*
X46366Y-6138D01*
X46338Y-6082D01*
X46310Y-5970D01*
X46310Y-5885D01*
X46338Y-5773D01*
X46366Y-5717D01*
X46422Y-5660D01*
X46507Y-5632D01*
X46563Y-5632D01*
X46647Y-5660D01*
X46676Y-5688D01*
X47182Y-5829D02*
X47182Y-6223D01*
X46929Y-5829D02*
X46929Y-6138D01*
X46957Y-6195D01*
X47013Y-6223D01*
X47097Y-6223D01*
X47154Y-6195D01*
X47182Y-6167D01*
G54D12*
X38082Y-21259D03*
X39082Y-21259D03*
X35326Y-21259D03*
X36326Y-21259D03*
X32570Y-21259D03*
X33570Y-21259D03*
X29814Y-21259D03*
X30814Y-21259D03*
G54D13*
X41476Y-18197D03*
X41279Y-18197D03*
X41082Y-18197D03*
X40885Y-18197D03*
X40885Y-18650D03*
X41082Y-18650D03*
X41279Y-18650D03*
X41476Y-18650D03*
X12303Y-12629D03*
X12500Y-12629D03*
X12697Y-12629D03*
X12894Y-12629D03*
X12894Y-12176D03*
X12697Y-12176D03*
X12500Y-12176D03*
X12303Y-12176D03*
X20177Y-12629D03*
X20374Y-12629D03*
X20571Y-12629D03*
X20768Y-12629D03*
X20768Y-12176D03*
X20571Y-12176D03*
X20374Y-12176D03*
X20177Y-12176D03*
X28051Y-12629D03*
X28248Y-12629D03*
X28445Y-12629D03*
X28642Y-12629D03*
X28642Y-12176D03*
X28445Y-12176D03*
X28248Y-12176D03*
X28051Y-12176D03*
X35925Y-12629D03*
X36122Y-12629D03*
X36319Y-12629D03*
X36516Y-12629D03*
X36516Y-12176D03*
X36319Y-12176D03*
X36122Y-12176D03*
X35925Y-12176D03*
G54D14*
X14685Y-14875D03*
X14685Y-15375D03*
X14685Y-15875D03*
X14685Y-16375D03*
X14685Y-16875D03*
X14685Y-17375D03*
X14685Y-17875D03*
X14685Y-18375D03*
X14685Y-18875D03*
X14685Y-19375D03*
X18385Y-19375D03*
X18385Y-18875D03*
X18385Y-18375D03*
X18385Y-17875D03*
X18385Y-17375D03*
X18385Y-16875D03*
X18385Y-16375D03*
X18385Y-15875D03*
X18385Y-15375D03*
X18385Y-14875D03*
X34370Y-13891D03*
X34370Y-14391D03*
X34370Y-14891D03*
X34370Y-15391D03*
X34370Y-15891D03*
X34370Y-16391D03*
X34370Y-16891D03*
X34370Y-17391D03*
X34370Y-17891D03*
X34370Y-18391D03*
X38070Y-18391D03*
X38070Y-17891D03*
X38070Y-17391D03*
X38070Y-16891D03*
X38070Y-16391D03*
X38070Y-15891D03*
X38070Y-15391D03*
X38070Y-14891D03*
X38070Y-14391D03*
X38070Y-13891D03*
G54D15*
X7302Y-19881D03*
X8052Y-19881D03*
X9981Y-19881D03*
X9231Y-19881D03*
G54D16*
X6692Y-6692D03*
X6692Y-22440D03*
X42125Y-22440D03*
X42125Y-6692D03*
G54D17*
X17972Y-7086D03*
X22972Y-7086D03*
G54D18*
X19066Y-8086D03*
X19468Y-8787D03*
X19870Y-8086D03*
X20271Y-8787D03*
X20673Y-8086D03*
X21074Y-8787D03*
X21476Y-8086D03*
X21877Y-8787D03*
G54D19*
X17271Y-8437D03*
X23673Y-8437D03*
G54D17*
X26909Y-22047D03*
X21909Y-22047D03*
G54D18*
X25814Y-21047D03*
X25413Y-20346D03*
X25011Y-21047D03*
X24610Y-20346D03*
X24208Y-21047D03*
X23807Y-20346D03*
X23405Y-21047D03*
X23003Y-20346D03*
G54D19*
X27610Y-20696D03*
X21208Y-20696D03*
G54D17*
X10098Y-7086D03*
X15098Y-7086D03*
G54D18*
X11192Y-8086D03*
X11594Y-8787D03*
X11996Y-8086D03*
X12397Y-8787D03*
X12799Y-8086D03*
X13200Y-8787D03*
X13602Y-8086D03*
X14003Y-8787D03*
G54D19*
X9397Y-8437D03*
X15799Y-8437D03*
G54D17*
X33720Y-7086D03*
X38720Y-7086D03*
G54D18*
X34814Y-8086D03*
X35216Y-8787D03*
X35618Y-8086D03*
X36019Y-8787D03*
X36421Y-8086D03*
X36822Y-8787D03*
X37224Y-8086D03*
X37625Y-8787D03*
G54D19*
X33019Y-8437D03*
X39421Y-8437D03*
G54D17*
X25846Y-7086D03*
X30846Y-7086D03*
G54D18*
X26940Y-8086D03*
X27342Y-8787D03*
X27744Y-8086D03*
X28145Y-8787D03*
X28547Y-8086D03*
X28948Y-8787D03*
X29350Y-8086D03*
X29751Y-8787D03*
G54D19*
X25145Y-8437D03*
X31547Y-8437D03*
G54D20*
X9370Y-16220D03*
G54D21*
X8779Y-16318D03*
G54D20*
X8188Y-16220D03*
G54D22*
X8779Y-17263D03*
G54D23*
X8188Y-13700D03*
X8188Y-14173D03*
X8188Y-13149D03*
X7322Y-20708D03*
X15551Y-18858D03*
X38858Y-18346D03*
X38858Y-13897D03*
X19994Y-19375D03*
X40629Y-13897D03*
X40629Y-17362D03*
X40157Y-16377D03*
X40157Y-13897D03*
X39685Y-15393D03*
X39685Y-13897D03*
X26614Y-16338D03*
X31141Y-16929D03*
X37244Y-16417D03*
X37244Y-14881D03*
X15511Y-17913D03*
X17559Y-17401D03*
X17559Y-15866D03*
X24527Y-13464D03*
X19251Y-16889D03*
X30433Y-15866D03*
X27834Y-15866D03*
X23976Y-13897D03*
X19251Y-17834D03*
X27834Y-16574D03*
X32401Y-14881D03*
X36062Y-16929D03*
X35196Y-14881D03*
X16496Y-17913D03*
X15511Y-15866D03*
X36653Y-17913D03*
X35196Y-13897D03*
X32755Y-13858D03*
X17007Y-18858D03*
X15433Y-14881D03*
X10826Y-16929D03*
X11181Y-16574D03*
X10826Y-16220D03*
X11889Y-19370D03*
X33385Y-18425D03*
G54D24*
X8188Y-14488D02*
X8188Y-14488D01*
X8188Y-14488D02*
X8385Y-14291D01*
X8385Y-14291D02*
X8385Y-12913D01*
X8385Y-12913D02*
X8188Y-12716D01*
X8188Y-14488D02*
X8188Y-14487D01*
X8188Y-14487D02*
X7992Y-14291D01*
X7992Y-14291D02*
X7992Y-12913D01*
X7992Y-12913D02*
X8188Y-12716D01*
X8188Y-12716D02*
X8188Y-12716D01*
X8188Y-14251D02*
X8188Y-14173D01*
X8188Y-14173D02*
X8188Y-14173D01*
X8188Y-14251D02*
X8188Y-13700D01*
X8188Y-13700D02*
X8188Y-13149D01*
X8188Y-13149D02*
X8188Y-13110D01*
X8188Y-13110D02*
X8188Y-13110D01*
X8188Y-13110D02*
X8188Y-13110D01*
G54D25*
X11192Y-8086D02*
X10811Y-8086D01*
X10811Y-8086D02*
X8188Y-10709D01*
X8188Y-10709D02*
X8188Y-12716D01*
X8188Y-12716D02*
X8188Y-13110D01*
X8188Y-14251D02*
X8188Y-14488D01*
X8188Y-14488D02*
X8188Y-16220D01*
X8188Y-16220D02*
X7165Y-16220D01*
X7165Y-16220D02*
X6377Y-17007D01*
X6377Y-17007D02*
X6377Y-19370D01*
X6377Y-19370D02*
X6889Y-19881D01*
X6889Y-19881D02*
X7302Y-19881D01*
X7302Y-19881D02*
X7302Y-20687D01*
X7302Y-20687D02*
X7322Y-20708D01*
X8779Y-15196D02*
X8779Y-15000D01*
X8779Y-15000D02*
X9094Y-14685D01*
X9094Y-14685D02*
X10669Y-14685D01*
X10669Y-14685D02*
X12007Y-16023D01*
X12007Y-16023D02*
X12007Y-17755D01*
X8779Y-16318D02*
X8779Y-15196D01*
G54D24*
X8779Y-17263D02*
X9468Y-17263D01*
X9468Y-17263D02*
X9488Y-17283D01*
X8779Y-17263D02*
X7421Y-17263D01*
X7421Y-17263D02*
X7401Y-17283D01*
X8779Y-17263D02*
X8779Y-18307D01*
G54D25*
X9231Y-19881D02*
X9231Y-18758D01*
X9231Y-18758D02*
X8779Y-18307D01*
X8052Y-19881D02*
X8052Y-19034D01*
X8052Y-19034D02*
X8779Y-18307D01*
X8052Y-19881D02*
X9231Y-19881D01*
X30814Y-21259D02*
X30814Y-21366D01*
X32783Y-22047D02*
X33570Y-21259D01*
X31496Y-22047D02*
X32783Y-22047D01*
X30814Y-21366D02*
X31496Y-22047D01*
X33570Y-21259D02*
X33570Y-21366D01*
X35618Y-21968D02*
X36326Y-21259D01*
X34173Y-21968D02*
X35618Y-21968D01*
X33570Y-21366D02*
X34173Y-21968D01*
X36326Y-21259D02*
X36326Y-21287D01*
X36326Y-21287D02*
X37007Y-21968D01*
X37007Y-21968D02*
X38374Y-21968D01*
X38374Y-21968D02*
X39082Y-21259D01*
X25011Y-21047D02*
X25011Y-21153D01*
X28925Y-23149D02*
X30814Y-21259D01*
X26535Y-23149D02*
X28925Y-23149D01*
X25826Y-22440D02*
X26535Y-23149D01*
X25826Y-21968D02*
X25826Y-22440D01*
X25011Y-21153D02*
X25826Y-21968D01*
X19870Y-8086D02*
X19870Y-7901D01*
X14094Y-7594D02*
X13602Y-8086D01*
X14094Y-6535D02*
X14094Y-7594D01*
X14960Y-5669D02*
X14094Y-6535D01*
X18188Y-5669D02*
X14960Y-5669D01*
X18976Y-6456D02*
X18188Y-5669D01*
X18976Y-7007D02*
X18976Y-6456D01*
X19870Y-7901D02*
X18976Y-7007D01*
X21476Y-8086D02*
X21476Y-7893D01*
X27244Y-7586D02*
X27744Y-8086D01*
X27244Y-7086D02*
X27244Y-7586D01*
X26141Y-5984D02*
X27244Y-7086D01*
X22440Y-5984D02*
X26141Y-5984D01*
X21889Y-6535D02*
X22440Y-5984D01*
X21889Y-7480D02*
X21889Y-6535D01*
X21476Y-7893D02*
X21889Y-7480D01*
X21476Y-8086D02*
X21476Y-7933D01*
X19870Y-7767D02*
X19870Y-8086D01*
X20314Y-7322D02*
X19870Y-7767D01*
X20866Y-7322D02*
X20314Y-7322D01*
X21476Y-7933D02*
X20866Y-7322D01*
X35618Y-8086D02*
X35618Y-7980D01*
X29685Y-7751D02*
X29350Y-8086D01*
X29685Y-6850D02*
X29685Y-7751D01*
X30787Y-5748D02*
X29685Y-6850D01*
X33858Y-5748D02*
X30787Y-5748D01*
X34803Y-6692D02*
X33858Y-5748D01*
X34803Y-7165D02*
X34803Y-6692D01*
X35618Y-7980D02*
X34803Y-7165D01*
X29350Y-8086D02*
X29350Y-7933D01*
X29350Y-7933D02*
X28740Y-7322D01*
X28740Y-7322D02*
X28110Y-7322D01*
X28110Y-7322D02*
X27744Y-7688D01*
X27744Y-7688D02*
X27744Y-8086D01*
X14685Y-18875D02*
X13127Y-18875D01*
X13127Y-18875D02*
X12007Y-17755D01*
X25011Y-21047D02*
X25011Y-21129D01*
X23405Y-21358D02*
X23405Y-21047D01*
X23779Y-21732D02*
X23405Y-21358D01*
X24409Y-21732D02*
X23779Y-21732D01*
X25011Y-21129D02*
X24409Y-21732D01*
X35618Y-8086D02*
X35618Y-7610D01*
X37224Y-7618D02*
X37224Y-8086D01*
X36850Y-7244D02*
X37224Y-7618D01*
X35984Y-7244D02*
X36850Y-7244D01*
X35618Y-7610D02*
X35984Y-7244D01*
X11996Y-8086D02*
X11996Y-7688D01*
X11996Y-7688D02*
X12440Y-7244D01*
X12440Y-7244D02*
X13228Y-7244D01*
X13228Y-7244D02*
X13602Y-7618D01*
X13602Y-7618D02*
X13602Y-8086D01*
X34370Y-17891D02*
X35450Y-17891D01*
X35950Y-18391D02*
X38070Y-18391D01*
X35450Y-17891D02*
X35950Y-18391D01*
X14685Y-18875D02*
X15533Y-18875D01*
X15533Y-18875D02*
X15551Y-18858D01*
X38858Y-13897D02*
X38852Y-13891D01*
X38070Y-13891D02*
X38852Y-13891D01*
X38812Y-18391D02*
X38070Y-18391D01*
X38858Y-18346D02*
X38812Y-18391D01*
X18385Y-19375D02*
X19994Y-19375D01*
X22181Y-8086D02*
X21476Y-8086D01*
X19994Y-19375D02*
X22913Y-16456D01*
X22913Y-16456D02*
X22913Y-8818D01*
X22913Y-8818D02*
X22181Y-8086D01*
X18385Y-14875D02*
X18385Y-12086D01*
X18385Y-12086D02*
X14385Y-8086D01*
X14385Y-8086D02*
X13602Y-8086D01*
X13625Y-8110D02*
X13602Y-8086D01*
G54D26*
X41476Y-18650D02*
X41476Y-20019D01*
X38791Y-20551D02*
X38082Y-21259D01*
X40944Y-20551D02*
X38791Y-20551D01*
X41476Y-20019D02*
X40944Y-20551D01*
X20571Y-12176D02*
X20571Y-9290D01*
X20571Y-9290D02*
X21074Y-8787D01*
G54D27*
X21062Y-8799D02*
X21074Y-8787D01*
G54D26*
X20374Y-12176D02*
X20374Y-8890D01*
X20374Y-8890D02*
X20271Y-8787D01*
G54D27*
X20275Y-8791D02*
X20271Y-8787D01*
G54D26*
X19468Y-8787D02*
X19468Y-11909D01*
X19735Y-12176D02*
X20177Y-12176D01*
X19468Y-11909D02*
X19735Y-12176D01*
G54D27*
X19488Y-8807D02*
X19468Y-8787D01*
G54D26*
X20571Y-12629D02*
X20571Y-16357D01*
X19553Y-17375D02*
X18385Y-17375D01*
X20571Y-16357D02*
X19553Y-17375D01*
X18385Y-16375D02*
X19765Y-16375D01*
X20374Y-15767D02*
X20374Y-12629D01*
X19765Y-16375D02*
X20374Y-15767D01*
X20177Y-12629D02*
X20177Y-14546D01*
X19348Y-15375D02*
X18385Y-15375D01*
X20177Y-14546D02*
X19348Y-15375D01*
X14003Y-8787D02*
X14003Y-11586D01*
X13413Y-12176D02*
X12894Y-12176D01*
X14003Y-11586D02*
X13413Y-12176D01*
G54D27*
X13976Y-8814D02*
X14003Y-8787D01*
G54D26*
X12697Y-12176D02*
X12697Y-9290D01*
X12697Y-9290D02*
X13200Y-8787D01*
G54D27*
X13188Y-8799D02*
X13200Y-8787D01*
G54D26*
X12500Y-12176D02*
X12500Y-8890D01*
X12500Y-8890D02*
X12397Y-8787D01*
G54D27*
X12401Y-8791D02*
X12397Y-8787D01*
G54D26*
X11594Y-8787D02*
X11594Y-11791D01*
X11979Y-12176D02*
X12303Y-12176D01*
X11594Y-11791D02*
X11979Y-12176D01*
X14685Y-15375D02*
X13879Y-15375D01*
X12894Y-14390D02*
X12894Y-12629D01*
X13879Y-15375D02*
X12894Y-14390D01*
X14685Y-16375D02*
X13226Y-16375D01*
X12697Y-15847D02*
X12697Y-12629D01*
X13226Y-16375D02*
X12697Y-15847D01*
X28051Y-12629D02*
X28051Y-15059D01*
X30383Y-17391D02*
X34370Y-17391D01*
X28051Y-15059D02*
X30383Y-17391D01*
X29751Y-8787D02*
X29751Y-11586D01*
X29162Y-12176D02*
X28642Y-12176D01*
X29751Y-11586D02*
X29162Y-12176D01*
X28445Y-12176D02*
X28445Y-9290D01*
X28445Y-9290D02*
X28948Y-8787D01*
X28248Y-12176D02*
X28248Y-8890D01*
X28248Y-8890D02*
X28145Y-8787D01*
X27342Y-8787D02*
X27342Y-11791D01*
X27727Y-12176D02*
X28051Y-12176D01*
X27342Y-11791D02*
X27727Y-12176D01*
X28642Y-12629D02*
X28642Y-13603D01*
X29431Y-14391D02*
X34370Y-14391D01*
X28642Y-13603D02*
X29431Y-14391D01*
X28248Y-12629D02*
X28248Y-14547D01*
X30092Y-16391D02*
X34370Y-16391D01*
X28248Y-14547D02*
X30092Y-16391D01*
X28445Y-12629D02*
X28445Y-13957D01*
X29879Y-15391D02*
X34370Y-15391D01*
X28445Y-13957D02*
X29879Y-15391D01*
X14685Y-18375D02*
X13179Y-18375D01*
X12303Y-17500D02*
X12303Y-12629D01*
X13179Y-18375D02*
X12303Y-17500D01*
X38100Y-17362D02*
X38070Y-17391D01*
X40629Y-17362D02*
X38100Y-17362D01*
X40885Y-18197D02*
X40885Y-17617D01*
X39361Y-12629D02*
X36516Y-12629D01*
X40629Y-13897D02*
X39361Y-12629D01*
X40885Y-17617D02*
X40629Y-17362D01*
X36319Y-12629D02*
X36319Y-12973D01*
X40157Y-16377D02*
X40157Y-16391D01*
X39488Y-13228D02*
X40157Y-13897D01*
X36574Y-13228D02*
X39488Y-13228D01*
X36319Y-12973D02*
X36574Y-13228D01*
X38070Y-16391D02*
X40157Y-16391D01*
X40157Y-16391D02*
X40171Y-16391D01*
X41082Y-17302D02*
X41082Y-18197D01*
X40171Y-16391D02*
X41082Y-17302D01*
X36122Y-12629D02*
X36122Y-13090D01*
X39685Y-15393D02*
X39685Y-15391D01*
X39251Y-13464D02*
X39685Y-13897D01*
X36496Y-13464D02*
X39251Y-13464D01*
X36122Y-13090D02*
X36496Y-13464D01*
X38070Y-15391D02*
X39685Y-15391D01*
X39685Y-15391D02*
X40116Y-15391D01*
X41279Y-16554D02*
X41279Y-18197D01*
X40116Y-15391D02*
X41279Y-16554D01*
X38070Y-14391D02*
X40061Y-14391D01*
X41476Y-15806D02*
X41476Y-18197D01*
X40061Y-14391D02*
X41476Y-15806D01*
X35925Y-12629D02*
X35925Y-13799D01*
X36517Y-14391D02*
X38070Y-14391D01*
X35925Y-13799D02*
X36517Y-14391D01*
X37625Y-8787D02*
X37625Y-11586D01*
X37036Y-12176D02*
X36516Y-12176D01*
X37625Y-11586D02*
X37036Y-12176D01*
X36319Y-12176D02*
X36319Y-9290D01*
X36319Y-9290D02*
X36822Y-8787D01*
X36122Y-12176D02*
X36122Y-8890D01*
X36122Y-8890D02*
X36019Y-8787D01*
X35216Y-8787D02*
X35216Y-11791D01*
X35601Y-12176D02*
X35925Y-12176D01*
X35216Y-11791D02*
X35601Y-12176D01*
X34370Y-16891D02*
X31179Y-16891D01*
X23070Y-20279D02*
X23003Y-20346D01*
X23070Y-17322D02*
X23070Y-20279D01*
X24055Y-16338D02*
X23070Y-17322D01*
X26614Y-16338D02*
X24055Y-16338D01*
X31179Y-16891D02*
X31141Y-16929D01*
X38070Y-14891D02*
X37253Y-14891D01*
X34372Y-16889D02*
X34370Y-16891D01*
X35275Y-16889D02*
X34372Y-16889D01*
X35748Y-16417D02*
X35275Y-16889D01*
X37244Y-16417D02*
X35748Y-16417D01*
X37253Y-14891D02*
X37244Y-14881D01*
X18385Y-15875D02*
X17568Y-15875D01*
X17637Y-20039D02*
X15511Y-17913D01*
X21535Y-20039D02*
X17637Y-20039D01*
X21842Y-20346D02*
X21535Y-20039D01*
X23003Y-20346D02*
X21842Y-20346D01*
X15984Y-17440D02*
X15511Y-17913D01*
X17519Y-17440D02*
X15984Y-17440D01*
X17559Y-17401D02*
X17519Y-17440D01*
X17568Y-15875D02*
X17559Y-15866D01*
X15511Y-17913D02*
X14722Y-17913D01*
X14722Y-17913D02*
X14685Y-17875D01*
X14685Y-17375D02*
X13675Y-17375D01*
X12500Y-16201D02*
X12500Y-12629D01*
X13675Y-17375D02*
X12500Y-16201D01*
X18385Y-16875D02*
X19238Y-16875D01*
X26929Y-15866D02*
X27834Y-15866D01*
X24527Y-13464D02*
X26929Y-15866D01*
X19238Y-16875D02*
X19251Y-16889D01*
X34370Y-15891D02*
X30458Y-15891D01*
X30458Y-15891D02*
X30433Y-15866D01*
X23807Y-19893D02*
X23807Y-20346D01*
X27834Y-15866D02*
X23807Y-19893D01*
X38070Y-15891D02*
X34370Y-15891D01*
X18385Y-16875D02*
X14685Y-16875D01*
X23807Y-20440D02*
X23799Y-20433D01*
X18385Y-17875D02*
X19210Y-17875D01*
X28307Y-16102D02*
X27834Y-16574D01*
X28307Y-15905D02*
X28307Y-16102D01*
X25118Y-12716D02*
X28307Y-15905D01*
X24409Y-12716D02*
X25118Y-12716D01*
X23937Y-13188D02*
X24409Y-12716D01*
X23937Y-13858D02*
X23937Y-13188D01*
X23976Y-13897D02*
X23937Y-13858D01*
X19210Y-17875D02*
X19251Y-17834D01*
X34370Y-14891D02*
X32411Y-14891D01*
X32411Y-14891D02*
X32401Y-14881D01*
X24610Y-19799D02*
X24610Y-20346D01*
X27834Y-16574D02*
X24610Y-19799D01*
X34370Y-14891D02*
X35187Y-14891D01*
X36100Y-16891D02*
X38070Y-16891D01*
X36062Y-16929D02*
X36100Y-16891D01*
X35187Y-14891D02*
X35196Y-14881D01*
X14685Y-15875D02*
X15501Y-15875D01*
X16533Y-17875D02*
X18385Y-17875D01*
X16496Y-17913D02*
X16533Y-17875D01*
X15501Y-15875D02*
X15511Y-15866D01*
X34370Y-13891D02*
X35190Y-13891D01*
X36675Y-17891D02*
X38070Y-17891D01*
X36653Y-17913D02*
X36675Y-17891D01*
X35190Y-13891D02*
X35196Y-13897D01*
X32789Y-13891D02*
X34370Y-13891D01*
X32755Y-13858D02*
X32789Y-13891D01*
X14685Y-14875D02*
X15427Y-14875D01*
X17025Y-18875D02*
X18385Y-18875D01*
X17007Y-18858D02*
X17025Y-18875D01*
X15427Y-14875D02*
X15433Y-14881D01*
X25413Y-20346D02*
X26897Y-20346D01*
X26897Y-20346D02*
X27795Y-19448D01*
X27795Y-19448D02*
X38661Y-19448D01*
X38661Y-19448D02*
X39685Y-18425D01*
X39685Y-18425D02*
X39685Y-18188D01*
X39685Y-18188D02*
X39387Y-17891D01*
X39387Y-17891D02*
X38070Y-17891D01*
X40885Y-18650D02*
X40011Y-18650D01*
X31192Y-19881D02*
X29814Y-21259D01*
X38779Y-19881D02*
X31192Y-19881D01*
X40011Y-18650D02*
X38779Y-19881D01*
X41082Y-18650D02*
X41082Y-19232D01*
X33751Y-20078D02*
X32570Y-21259D01*
X40236Y-20078D02*
X33751Y-20078D01*
X41082Y-19232D02*
X40236Y-20078D01*
X41279Y-18650D02*
X41279Y-19823D01*
X36271Y-20314D02*
X35326Y-21259D01*
X40787Y-20314D02*
X36271Y-20314D01*
X41279Y-19823D02*
X40787Y-20314D01*
X18385Y-18375D02*
X19340Y-18375D01*
X20768Y-16948D02*
X20768Y-12629D01*
X19340Y-18375D02*
X20768Y-16948D01*
X21877Y-8787D02*
X21877Y-11389D01*
X21091Y-12176D02*
X20768Y-12176D01*
X21877Y-11389D02*
X21091Y-12176D01*
G54D27*
X21850Y-8814D02*
X21877Y-8787D01*
G54D25*
X10826Y-16929D02*
X10748Y-16929D01*
X10748Y-16929D02*
X10629Y-16811D01*
X10629Y-16811D02*
X10629Y-16220D01*
X10964Y-16791D02*
X10964Y-16358D01*
X10964Y-16358D02*
X10944Y-16338D01*
X10826Y-16929D02*
X10964Y-16791D01*
X10964Y-16791D02*
X11181Y-16574D01*
X10826Y-16220D02*
X10826Y-16929D01*
X10826Y-16220D02*
X10944Y-16338D01*
X10944Y-16338D02*
X11181Y-16574D01*
X9370Y-16220D02*
X10629Y-16220D01*
X10629Y-16220D02*
X10826Y-16220D01*
X10826Y-16220D02*
X10826Y-16220D01*
X9370Y-16220D02*
X9803Y-16220D01*
X9981Y-16398D02*
X9981Y-19881D01*
X9803Y-16220D02*
X9981Y-16398D01*
X9981Y-19881D02*
X10414Y-19881D01*
X11883Y-19375D02*
X11377Y-19881D01*
X11377Y-19881D02*
X10414Y-19881D01*
X11883Y-19375D02*
X11889Y-19375D01*
X34370Y-18391D02*
X33419Y-18391D01*
X11889Y-19370D02*
X11889Y-19375D01*
X33419Y-18391D02*
X33385Y-18425D01*
X14685Y-19375D02*
X11889Y-19375D01*
G54D10*
G36*
X39579Y-14203D02*
X38624Y-14203D01*
X38676Y-14151D01*
X38714Y-14059D01*
X38714Y-13963D01*
X38652Y-13900D01*
X38079Y-13900D01*
X38079Y-13908D01*
X38061Y-13908D01*
X38061Y-13900D01*
X37489Y-13900D01*
X37427Y-13963D01*
X37427Y-14059D01*
X37465Y-14151D01*
X37517Y-14203D01*
X36595Y-14203D01*
X36113Y-13721D01*
X36113Y-13347D01*
X36363Y-13597D01*
X36424Y-13638D01*
X36424Y-13638D01*
X36496Y-13652D01*
X37456Y-13652D01*
X37427Y-13724D01*
X37427Y-13820D01*
X37489Y-13882D01*
X38061Y-13882D01*
X38061Y-13874D01*
X38079Y-13874D01*
X38079Y-13882D01*
X38652Y-13882D01*
X38714Y-13820D01*
X38714Y-13724D01*
X38684Y-13652D01*
X39174Y-13652D01*
X39361Y-13839D01*
X39361Y-13961D01*
X39410Y-14080D01*
X39501Y-14171D01*
X39579Y-14203D01*
X39579Y-14203D01*
G37*
G54D27*
X39579Y-14203D02*
X38624Y-14203D01*
X38676Y-14151D01*
X38714Y-14059D01*
X38714Y-13963D01*
X38652Y-13900D01*
X38079Y-13900D01*
X38079Y-13908D01*
X38061Y-13908D01*
X38061Y-13900D01*
X37489Y-13900D01*
X37427Y-13963D01*
X37427Y-14059D01*
X37465Y-14151D01*
X37517Y-14203D01*
X36595Y-14203D01*
X36113Y-13721D01*
X36113Y-13347D01*
X36363Y-13597D01*
X36424Y-13638D01*
X36424Y-13638D01*
X36496Y-13652D01*
X37456Y-13652D01*
X37427Y-13724D01*
X37427Y-13820D01*
X37489Y-13882D01*
X38061Y-13882D01*
X38061Y-13874D01*
X38079Y-13874D01*
X38079Y-13882D01*
X38652Y-13882D01*
X38714Y-13820D01*
X38714Y-13724D01*
X38684Y-13652D01*
X39174Y-13652D01*
X39361Y-13839D01*
X39361Y-13961D01*
X39410Y-14080D01*
X39501Y-14171D01*
X39579Y-14203D01*
G54D10*
G36*
X43916Y-24231D02*
X43457Y-24231D01*
X43457Y-22177D01*
X43457Y-6429D01*
X43255Y-5939D01*
X42880Y-5565D01*
X42391Y-5362D01*
X41862Y-5361D01*
X41372Y-5563D01*
X40998Y-5937D01*
X40795Y-6426D01*
X40794Y-6956D01*
X40996Y-7445D01*
X41370Y-7820D01*
X41860Y-8023D01*
X42389Y-8024D01*
X42879Y-7822D01*
X43253Y-7447D01*
X43456Y-6958D01*
X43457Y-6429D01*
X43457Y-22177D01*
X43255Y-21687D01*
X42880Y-21313D01*
X42391Y-21110D01*
X41862Y-21109D01*
X41683Y-21183D01*
X41683Y-18748D01*
X41683Y-18492D01*
X41661Y-18438D01*
X41646Y-18423D01*
X41660Y-18409D01*
X41683Y-18354D01*
X41683Y-18295D01*
X41683Y-18039D01*
X41663Y-17992D01*
X41663Y-15806D01*
X41663Y-15806D01*
X41663Y-15806D01*
X41661Y-15792D01*
X41649Y-15734D01*
X41649Y-15734D01*
X41608Y-15674D01*
X41608Y-15674D01*
X40193Y-14258D01*
X40137Y-14221D01*
X40221Y-14221D01*
X40340Y-14171D01*
X40393Y-14118D01*
X40446Y-14171D01*
X40565Y-14221D01*
X40693Y-14221D01*
X40812Y-14171D01*
X40903Y-14081D01*
X40953Y-13962D01*
X40953Y-13833D01*
X40904Y-13714D01*
X40813Y-13623D01*
X40694Y-13574D01*
X40572Y-13574D01*
X40107Y-13109D01*
X40107Y-8319D01*
X40010Y-8065D01*
X39989Y-8035D01*
X39875Y-7995D01*
X39863Y-8007D01*
X39863Y-7982D01*
X39823Y-7868D01*
X39575Y-7757D01*
X39303Y-7750D01*
X39272Y-7762D01*
X39456Y-7579D01*
X39588Y-7260D01*
X39589Y-6914D01*
X39457Y-6595D01*
X39213Y-6350D01*
X38893Y-6218D01*
X38548Y-6217D01*
X38229Y-6349D01*
X37984Y-6594D01*
X37852Y-6913D01*
X37851Y-7258D01*
X37983Y-7577D01*
X38227Y-7822D01*
X38546Y-7954D01*
X38892Y-7955D01*
X39005Y-7908D01*
X38979Y-7982D01*
X39421Y-8424D01*
X39863Y-7982D01*
X39863Y-8007D01*
X39434Y-8437D01*
X39875Y-8878D01*
X39989Y-8839D01*
X40100Y-8590D01*
X40107Y-8319D01*
X40107Y-13109D01*
X39863Y-12865D01*
X39863Y-8891D01*
X39421Y-8449D01*
X39408Y-8462D01*
X39408Y-8437D01*
X38966Y-7995D01*
X38852Y-8035D01*
X38741Y-8283D01*
X38734Y-8554D01*
X38832Y-8808D01*
X38852Y-8839D01*
X38966Y-8878D01*
X39408Y-8437D01*
X39408Y-8462D01*
X38979Y-8891D01*
X39019Y-9005D01*
X39267Y-9116D01*
X39539Y-9123D01*
X39792Y-9026D01*
X39823Y-9005D01*
X39863Y-8891D01*
X39863Y-12865D01*
X39494Y-12496D01*
X39433Y-12456D01*
X39361Y-12441D01*
X36711Y-12441D01*
X36701Y-12417D01*
X36686Y-12403D01*
X36701Y-12388D01*
X36711Y-12364D01*
X37036Y-12364D01*
X37107Y-12350D01*
X37168Y-12309D01*
X37758Y-11719D01*
X37799Y-11658D01*
X37813Y-11586D01*
X37813Y-9190D01*
X37877Y-9163D01*
X38002Y-9039D01*
X38069Y-8876D01*
X38069Y-8699D01*
X38002Y-8536D01*
X37877Y-8411D01*
X37714Y-8343D01*
X37707Y-8343D01*
X37767Y-8207D01*
X37772Y-7990D01*
X37693Y-7788D01*
X37679Y-7767D01*
X37579Y-7743D01*
X37567Y-7756D01*
X37567Y-7731D01*
X37543Y-7631D01*
X37345Y-7543D01*
X37128Y-7538D01*
X36926Y-7617D01*
X36904Y-7631D01*
X36881Y-7731D01*
X37224Y-8073D01*
X37567Y-7731D01*
X37567Y-7756D01*
X37237Y-8086D01*
X37242Y-8092D01*
X37229Y-8104D01*
X37224Y-8099D01*
X37218Y-8104D01*
X37206Y-8092D01*
X37211Y-8086D01*
X36868Y-7743D01*
X36769Y-7767D01*
X36757Y-7793D01*
X36673Y-7709D01*
X36510Y-7641D01*
X36333Y-7641D01*
X36169Y-7708D01*
X36088Y-7789D01*
X36087Y-7788D01*
X36073Y-7767D01*
X35973Y-7743D01*
X35960Y-7756D01*
X35960Y-7731D01*
X35937Y-7631D01*
X35739Y-7543D01*
X35522Y-7538D01*
X35319Y-7617D01*
X35298Y-7631D01*
X35275Y-7731D01*
X35618Y-8073D01*
X35960Y-7731D01*
X35960Y-7756D01*
X35630Y-8086D01*
X35636Y-8092D01*
X35623Y-8104D01*
X35618Y-8099D01*
X35612Y-8104D01*
X35599Y-8092D01*
X35605Y-8086D01*
X35262Y-7743D01*
X35162Y-7767D01*
X35151Y-7793D01*
X35067Y-7709D01*
X34903Y-7641D01*
X34726Y-7641D01*
X34589Y-7697D01*
X34589Y-6914D01*
X34457Y-6595D01*
X34213Y-6350D01*
X33893Y-6218D01*
X33548Y-6217D01*
X33229Y-6349D01*
X32984Y-6594D01*
X32852Y-6913D01*
X32851Y-7258D01*
X32983Y-7577D01*
X33162Y-7757D01*
X32901Y-7750D01*
X32648Y-7847D01*
X32617Y-7868D01*
X32577Y-7982D01*
X33019Y-8424D01*
X33461Y-7982D01*
X33435Y-7908D01*
X33546Y-7954D01*
X33892Y-7955D01*
X34211Y-7823D01*
X34456Y-7579D01*
X34588Y-7260D01*
X34589Y-6914D01*
X34589Y-7697D01*
X34562Y-7708D01*
X34437Y-7833D01*
X34369Y-7997D01*
X34369Y-8174D01*
X34437Y-8338D01*
X34562Y-8464D01*
X34725Y-8532D01*
X34843Y-8532D01*
X34840Y-8535D01*
X34772Y-8698D01*
X34772Y-8875D01*
X34839Y-9038D01*
X34964Y-9163D01*
X35028Y-9190D01*
X35028Y-11791D01*
X35043Y-11863D01*
X35083Y-11924D01*
X35468Y-12309D01*
X35468Y-12309D01*
X35529Y-12350D01*
X35529Y-12350D01*
X35601Y-12364D01*
X35601Y-12364D01*
X35730Y-12364D01*
X35740Y-12388D01*
X35755Y-12403D01*
X35740Y-12417D01*
X35718Y-12471D01*
X35718Y-12530D01*
X35718Y-12786D01*
X35737Y-12834D01*
X35737Y-13799D01*
X35751Y-13871D01*
X35792Y-13932D01*
X36384Y-14524D01*
X36445Y-14565D01*
X36445Y-14565D01*
X36517Y-14579D01*
X37128Y-14579D01*
X37061Y-14607D01*
X36970Y-14698D01*
X36920Y-14817D01*
X36920Y-14945D01*
X36969Y-15064D01*
X37060Y-15155D01*
X37179Y-15205D01*
X37308Y-15205D01*
X37427Y-15156D01*
X37503Y-15079D01*
X37545Y-15079D01*
X37551Y-15093D01*
X37592Y-15135D01*
X37607Y-15141D01*
X37593Y-15147D01*
X37551Y-15189D01*
X37528Y-15243D01*
X37528Y-15303D01*
X37528Y-15539D01*
X37551Y-15593D01*
X37592Y-15635D01*
X37607Y-15641D01*
X37593Y-15647D01*
X37551Y-15689D01*
X37545Y-15703D01*
X34895Y-15703D01*
X34889Y-15689D01*
X34847Y-15647D01*
X34833Y-15641D01*
X34847Y-15635D01*
X34889Y-15594D01*
X34912Y-15539D01*
X34912Y-15480D01*
X34912Y-15244D01*
X34889Y-15189D01*
X34847Y-15147D01*
X34833Y-15141D01*
X34847Y-15135D01*
X34889Y-15094D01*
X34895Y-15079D01*
X34937Y-15079D01*
X35013Y-15155D01*
X35132Y-15205D01*
X35260Y-15205D01*
X35379Y-15156D01*
X35470Y-15065D01*
X35520Y-14946D01*
X35520Y-14817D01*
X35471Y-14698D01*
X35380Y-14607D01*
X35261Y-14558D01*
X35132Y-14558D01*
X35013Y-14607D01*
X34922Y-14698D01*
X34920Y-14703D01*
X34895Y-14703D01*
X34889Y-14689D01*
X34847Y-14647D01*
X34833Y-14641D01*
X34847Y-14635D01*
X34889Y-14594D01*
X34912Y-14539D01*
X34912Y-14480D01*
X34912Y-14244D01*
X34889Y-14189D01*
X34847Y-14147D01*
X34833Y-14141D01*
X34847Y-14135D01*
X34889Y-14094D01*
X34895Y-14079D01*
X34922Y-14079D01*
X34922Y-14080D01*
X35013Y-14171D01*
X35132Y-14221D01*
X35260Y-14221D01*
X35379Y-14171D01*
X35470Y-14081D01*
X35520Y-13962D01*
X35520Y-13833D01*
X35471Y-13714D01*
X35380Y-13623D01*
X35261Y-13574D01*
X35132Y-13574D01*
X35013Y-13623D01*
X34933Y-13703D01*
X34895Y-13703D01*
X34889Y-13689D01*
X34847Y-13647D01*
X34793Y-13625D01*
X34734Y-13625D01*
X33946Y-13625D01*
X33892Y-13647D01*
X33850Y-13689D01*
X33844Y-13703D01*
X33706Y-13703D01*
X33706Y-8319D01*
X33608Y-8065D01*
X33588Y-8035D01*
X33474Y-7995D01*
X33032Y-8437D01*
X33474Y-8878D01*
X33588Y-8839D01*
X33698Y-8590D01*
X33706Y-8319D01*
X33706Y-13703D01*
X33461Y-13703D01*
X33461Y-8891D01*
X33019Y-8449D01*
X33006Y-8462D01*
X33006Y-8437D01*
X32565Y-7995D01*
X32450Y-8035D01*
X32340Y-8283D01*
X32333Y-8554D01*
X32430Y-8808D01*
X32450Y-8839D01*
X32565Y-8878D01*
X33006Y-8437D01*
X33006Y-8462D01*
X32577Y-8891D01*
X32617Y-9005D01*
X32865Y-9116D01*
X33137Y-9123D01*
X33391Y-9026D01*
X33421Y-9005D01*
X33461Y-8891D01*
X33461Y-13703D01*
X33042Y-13703D01*
X33030Y-13675D01*
X32939Y-13584D01*
X32820Y-13534D01*
X32691Y-13534D01*
X32572Y-13583D01*
X32481Y-13674D01*
X32432Y-13793D01*
X32432Y-13922D01*
X32481Y-14041D01*
X32572Y-14132D01*
X32691Y-14181D01*
X32819Y-14181D01*
X32938Y-14132D01*
X32992Y-14079D01*
X33844Y-14079D01*
X33850Y-14093D01*
X33892Y-14135D01*
X33906Y-14141D01*
X33892Y-14147D01*
X33850Y-14189D01*
X33844Y-14203D01*
X32233Y-14203D01*
X32233Y-8319D01*
X32136Y-8065D01*
X32115Y-8035D01*
X32001Y-7995D01*
X31989Y-8007D01*
X31989Y-7982D01*
X31949Y-7868D01*
X31701Y-7757D01*
X31429Y-7750D01*
X31398Y-7762D01*
X31582Y-7579D01*
X31714Y-7260D01*
X31715Y-6914D01*
X31583Y-6595D01*
X31339Y-6350D01*
X31019Y-6218D01*
X30674Y-6217D01*
X30355Y-6349D01*
X30110Y-6594D01*
X29978Y-6913D01*
X29977Y-7258D01*
X30109Y-7577D01*
X30353Y-7822D01*
X30672Y-7954D01*
X31018Y-7955D01*
X31131Y-7908D01*
X31105Y-7982D01*
X31547Y-8424D01*
X31989Y-7982D01*
X31989Y-8007D01*
X31560Y-8437D01*
X32001Y-8878D01*
X32115Y-8839D01*
X32226Y-8590D01*
X32233Y-8319D01*
X32233Y-14203D01*
X31989Y-14203D01*
X31989Y-8891D01*
X31547Y-8449D01*
X31534Y-8462D01*
X31534Y-8437D01*
X31092Y-7995D01*
X30978Y-8035D01*
X30867Y-8283D01*
X30860Y-8554D01*
X30958Y-8808D01*
X30978Y-8839D01*
X31092Y-8878D01*
X31534Y-8437D01*
X31534Y-8462D01*
X31105Y-8891D01*
X31145Y-9005D01*
X31393Y-9116D01*
X31665Y-9123D01*
X31918Y-9026D01*
X31949Y-9005D01*
X31989Y-8891D01*
X31989Y-14203D01*
X29508Y-14203D01*
X28830Y-13525D01*
X28830Y-12834D01*
X28849Y-12787D01*
X28849Y-12728D01*
X28849Y-12472D01*
X28827Y-12417D01*
X28812Y-12403D01*
X28827Y-12388D01*
X28837Y-12364D01*
X29162Y-12364D01*
X29233Y-12350D01*
X29294Y-12309D01*
X29884Y-11719D01*
X29925Y-11658D01*
X29939Y-11586D01*
X29939Y-9190D01*
X30003Y-9163D01*
X30128Y-9039D01*
X30195Y-8876D01*
X30195Y-8699D01*
X30128Y-8536D01*
X30003Y-8411D01*
X29840Y-8343D01*
X29833Y-8343D01*
X29893Y-8207D01*
X29898Y-7990D01*
X29819Y-7788D01*
X29805Y-7767D01*
X29705Y-7743D01*
X29693Y-7756D01*
X29693Y-7731D01*
X29669Y-7631D01*
X29471Y-7543D01*
X29254Y-7538D01*
X29052Y-7617D01*
X29030Y-7631D01*
X29007Y-7731D01*
X29350Y-8073D01*
X29693Y-7731D01*
X29693Y-7756D01*
X29363Y-8086D01*
X29368Y-8092D01*
X29355Y-8104D01*
X29350Y-8099D01*
X29344Y-8104D01*
X29332Y-8092D01*
X29337Y-8086D01*
X28994Y-7743D01*
X28895Y-7767D01*
X28883Y-7793D01*
X28799Y-7709D01*
X28636Y-7641D01*
X28459Y-7641D01*
X28295Y-7708D01*
X28214Y-7789D01*
X28213Y-7788D01*
X28199Y-7767D01*
X28099Y-7743D01*
X28086Y-7756D01*
X28086Y-7731D01*
X28063Y-7631D01*
X27865Y-7543D01*
X27648Y-7538D01*
X27445Y-7617D01*
X27424Y-7631D01*
X27401Y-7731D01*
X27744Y-8073D01*
X28086Y-7731D01*
X28086Y-7756D01*
X27756Y-8086D01*
X27762Y-8092D01*
X27749Y-8104D01*
X27744Y-8099D01*
X27738Y-8104D01*
X27725Y-8092D01*
X27731Y-8086D01*
X27388Y-7743D01*
X27288Y-7767D01*
X27277Y-7793D01*
X27193Y-7709D01*
X27029Y-7641D01*
X26852Y-7641D01*
X26715Y-7697D01*
X26715Y-6914D01*
X26583Y-6595D01*
X26339Y-6350D01*
X26019Y-6218D01*
X25674Y-6217D01*
X25355Y-6349D01*
X25110Y-6594D01*
X24978Y-6913D01*
X24977Y-7258D01*
X25109Y-7577D01*
X25288Y-7757D01*
X25027Y-7750D01*
X24774Y-7847D01*
X24743Y-7868D01*
X24703Y-7982D01*
X25145Y-8424D01*
X25587Y-7982D01*
X25561Y-7908D01*
X25672Y-7954D01*
X26018Y-7955D01*
X26337Y-7823D01*
X26582Y-7579D01*
X26714Y-7260D01*
X26715Y-6914D01*
X26715Y-7697D01*
X26688Y-7708D01*
X26563Y-7833D01*
X26495Y-7997D01*
X26495Y-8174D01*
X26563Y-8338D01*
X26688Y-8464D01*
X26851Y-8532D01*
X26969Y-8532D01*
X26966Y-8535D01*
X26898Y-8698D01*
X26898Y-8875D01*
X26965Y-9038D01*
X27090Y-9163D01*
X27154Y-9190D01*
X27154Y-11791D01*
X27169Y-11863D01*
X27209Y-11924D01*
X27594Y-12309D01*
X27594Y-12309D01*
X27655Y-12350D01*
X27655Y-12350D01*
X27727Y-12364D01*
X27727Y-12364D01*
X27856Y-12364D01*
X27866Y-12388D01*
X27881Y-12403D01*
X27866Y-12417D01*
X27844Y-12471D01*
X27844Y-12530D01*
X27844Y-12786D01*
X27863Y-12834D01*
X27863Y-15059D01*
X27877Y-15131D01*
X27918Y-15192D01*
X30251Y-17524D01*
X30311Y-17565D01*
X30311Y-17565D01*
X30383Y-17579D01*
X33816Y-17579D01*
X33764Y-17632D01*
X33726Y-17724D01*
X33726Y-17820D01*
X33788Y-17882D01*
X34361Y-17882D01*
X34361Y-17874D01*
X34379Y-17874D01*
X34379Y-17882D01*
X34951Y-17882D01*
X35013Y-17820D01*
X35013Y-17724D01*
X34975Y-17632D01*
X34905Y-17561D01*
X34903Y-17560D01*
X34912Y-17539D01*
X34912Y-17480D01*
X34912Y-17244D01*
X34889Y-17189D01*
X34847Y-17147D01*
X34833Y-17141D01*
X34847Y-17135D01*
X34889Y-17094D01*
X34896Y-17077D01*
X35275Y-17077D01*
X35347Y-17063D01*
X35408Y-17022D01*
X35825Y-16605D01*
X36974Y-16605D01*
X37060Y-16691D01*
X37090Y-16703D01*
X36295Y-16703D01*
X36246Y-16655D01*
X36127Y-16605D01*
X35998Y-16605D01*
X35880Y-16654D01*
X35788Y-16745D01*
X35739Y-16864D01*
X35739Y-16993D01*
X35788Y-17112D01*
X35879Y-17203D01*
X35998Y-17252D01*
X36127Y-17252D01*
X36245Y-17203D01*
X36337Y-17112D01*
X36350Y-17079D01*
X37545Y-17079D01*
X37551Y-17093D01*
X37592Y-17135D01*
X37607Y-17141D01*
X37593Y-17147D01*
X37551Y-17189D01*
X37528Y-17243D01*
X37528Y-17303D01*
X37528Y-17539D01*
X37551Y-17593D01*
X37592Y-17635D01*
X37607Y-17641D01*
X37593Y-17647D01*
X37551Y-17689D01*
X37545Y-17703D01*
X36901Y-17703D01*
X36836Y-17639D01*
X36718Y-17590D01*
X36589Y-17589D01*
X36470Y-17639D01*
X36379Y-17729D01*
X36330Y-17848D01*
X36330Y-17977D01*
X36379Y-18096D01*
X36470Y-18187D01*
X36588Y-18236D01*
X36717Y-18236D01*
X36836Y-18187D01*
X36927Y-18096D01*
X36934Y-18079D01*
X37517Y-18079D01*
X37465Y-18132D01*
X37427Y-18224D01*
X37427Y-18320D01*
X37489Y-18382D01*
X38061Y-18382D01*
X38061Y-18374D01*
X38079Y-18374D01*
X38079Y-18382D01*
X38652Y-18382D01*
X38714Y-18320D01*
X38714Y-18224D01*
X38676Y-18132D01*
X38624Y-18079D01*
X39310Y-18079D01*
X39497Y-18266D01*
X39497Y-18347D01*
X38714Y-19130D01*
X38714Y-18559D01*
X38714Y-18463D01*
X38652Y-18400D01*
X38079Y-18400D01*
X38079Y-18697D01*
X38142Y-18759D01*
X38415Y-18759D01*
X38514Y-18759D01*
X38606Y-18721D01*
X38676Y-18651D01*
X38714Y-18559D01*
X38714Y-19130D01*
X38583Y-19261D01*
X38061Y-19261D01*
X38061Y-18697D01*
X38061Y-18400D01*
X37489Y-18400D01*
X37427Y-18463D01*
X37427Y-18559D01*
X37465Y-18651D01*
X37535Y-18721D01*
X37627Y-18759D01*
X37726Y-18759D01*
X37999Y-18759D01*
X38061Y-18697D01*
X38061Y-19261D01*
X35013Y-19261D01*
X35013Y-18059D01*
X35013Y-17963D01*
X34951Y-17900D01*
X34379Y-17900D01*
X34379Y-17908D01*
X34361Y-17908D01*
X34361Y-17900D01*
X33788Y-17900D01*
X33726Y-17963D01*
X33726Y-18059D01*
X33761Y-18143D01*
X33554Y-18143D01*
X33450Y-18100D01*
X33321Y-18100D01*
X33201Y-18149D01*
X33110Y-18240D01*
X33060Y-18360D01*
X33060Y-18489D01*
X33110Y-18609D01*
X33201Y-18700D01*
X33320Y-18750D01*
X33450Y-18750D01*
X33569Y-18700D01*
X33630Y-18640D01*
X33899Y-18640D01*
X33946Y-18659D01*
X34006Y-18659D01*
X34793Y-18659D01*
X34848Y-18637D01*
X34890Y-18594D01*
X34913Y-18539D01*
X34913Y-18480D01*
X34913Y-18243D01*
X34904Y-18222D01*
X34905Y-18221D01*
X34975Y-18151D01*
X35013Y-18059D01*
X35013Y-19261D01*
X27795Y-19261D01*
X27723Y-19275D01*
X27662Y-19316D01*
X27662Y-19316D01*
X27662Y-19316D01*
X26819Y-20158D01*
X25816Y-20158D01*
X25789Y-20095D01*
X25665Y-19970D01*
X25502Y-19902D01*
X25325Y-19902D01*
X25162Y-19969D01*
X25037Y-20094D01*
X25011Y-20155D01*
X24986Y-20095D01*
X24862Y-19970D01*
X24798Y-19943D01*
X24798Y-19877D01*
X27776Y-16898D01*
X27898Y-16898D01*
X28017Y-16849D01*
X28108Y-16758D01*
X28158Y-16639D01*
X28158Y-16516D01*
X28439Y-16235D01*
X28480Y-16174D01*
X28480Y-16174D01*
X28494Y-16102D01*
X28494Y-15905D01*
X28494Y-15905D01*
X28480Y-15833D01*
X28480Y-15833D01*
X28439Y-15772D01*
X28439Y-15772D01*
X25832Y-13164D01*
X25832Y-8319D01*
X25734Y-8065D01*
X25714Y-8035D01*
X25600Y-7995D01*
X25158Y-8437D01*
X25600Y-8878D01*
X25714Y-8839D01*
X25824Y-8590D01*
X25832Y-8319D01*
X25832Y-13164D01*
X25587Y-12920D01*
X25587Y-8891D01*
X25145Y-8449D01*
X25132Y-8462D01*
X25132Y-8437D01*
X24691Y-7995D01*
X24576Y-8035D01*
X24466Y-8283D01*
X24459Y-8554D01*
X24556Y-8808D01*
X24576Y-8839D01*
X24691Y-8878D01*
X25132Y-8437D01*
X25132Y-8462D01*
X24703Y-8891D01*
X24743Y-9005D01*
X24991Y-9116D01*
X25263Y-9123D01*
X25517Y-9026D01*
X25547Y-9005D01*
X25587Y-8891D01*
X25587Y-12920D01*
X25250Y-12583D01*
X25189Y-12543D01*
X25118Y-12528D01*
X24409Y-12528D01*
X24359Y-12538D01*
X24359Y-8319D01*
X24262Y-8065D01*
X24241Y-8035D01*
X24127Y-7995D01*
X24115Y-8007D01*
X24115Y-7982D01*
X24075Y-7868D01*
X23826Y-7757D01*
X23555Y-7750D01*
X23524Y-7762D01*
X23708Y-7579D01*
X23840Y-7260D01*
X23841Y-6914D01*
X23709Y-6595D01*
X23465Y-6350D01*
X23145Y-6218D01*
X22800Y-6217D01*
X22481Y-6349D01*
X22236Y-6594D01*
X22104Y-6913D01*
X22103Y-7258D01*
X22235Y-7577D01*
X22479Y-7822D01*
X22798Y-7954D01*
X23144Y-7955D01*
X23257Y-7908D01*
X23231Y-7982D01*
X23673Y-8424D01*
X24115Y-7982D01*
X24115Y-8007D01*
X23686Y-8437D01*
X24127Y-8878D01*
X24241Y-8839D01*
X24352Y-8590D01*
X24359Y-8319D01*
X24359Y-12538D01*
X24337Y-12543D01*
X24276Y-12583D01*
X24115Y-12745D01*
X24115Y-8891D01*
X23673Y-8449D01*
X23660Y-8462D01*
X23660Y-8437D01*
X23218Y-7995D01*
X23104Y-8035D01*
X22993Y-8283D01*
X22986Y-8554D01*
X23084Y-8808D01*
X23104Y-8839D01*
X23218Y-8878D01*
X23660Y-8437D01*
X23660Y-8462D01*
X23231Y-8891D01*
X23271Y-9005D01*
X23519Y-9116D01*
X23791Y-9123D01*
X24044Y-9026D01*
X24075Y-9005D01*
X24115Y-8891D01*
X24115Y-12745D01*
X23804Y-13056D01*
X23763Y-13117D01*
X23749Y-13188D01*
X23749Y-13667D01*
X23702Y-13714D01*
X23653Y-13833D01*
X23652Y-13961D01*
X23702Y-14080D01*
X23792Y-14171D01*
X23911Y-14221D01*
X24040Y-14221D01*
X24159Y-14171D01*
X24250Y-14081D01*
X24299Y-13962D01*
X24299Y-13833D01*
X24250Y-13714D01*
X24159Y-13623D01*
X24124Y-13609D01*
X24124Y-13266D01*
X24487Y-12904D01*
X25040Y-12904D01*
X27705Y-15569D01*
X27651Y-15591D01*
X27564Y-15678D01*
X27006Y-15678D01*
X24850Y-13522D01*
X24851Y-13400D01*
X24801Y-13281D01*
X24711Y-13190D01*
X24592Y-13141D01*
X24463Y-13141D01*
X24344Y-13190D01*
X24253Y-13281D01*
X24204Y-13399D01*
X24204Y-13528D01*
X24253Y-13647D01*
X24344Y-13738D01*
X24462Y-13787D01*
X24585Y-13788D01*
X26796Y-15998D01*
X26796Y-15998D01*
X26857Y-16039D01*
X26857Y-16039D01*
X26914Y-16051D01*
X26929Y-16053D01*
X26929Y-16053D01*
X26929Y-16053D01*
X27381Y-16053D01*
X23674Y-19760D01*
X23633Y-19821D01*
X23619Y-19893D01*
X23619Y-19943D01*
X23555Y-19969D01*
X23430Y-20094D01*
X23405Y-20155D01*
X23380Y-20095D01*
X23258Y-19973D01*
X23258Y-17400D01*
X24132Y-16526D01*
X26344Y-16526D01*
X26430Y-16612D01*
X26549Y-16661D01*
X26678Y-16662D01*
X26797Y-16612D01*
X26888Y-16522D01*
X26937Y-16403D01*
X26937Y-16274D01*
X26888Y-16155D01*
X26797Y-16064D01*
X26678Y-16015D01*
X26550Y-16015D01*
X26431Y-16064D01*
X26344Y-16150D01*
X24055Y-16150D01*
X23983Y-16165D01*
X23922Y-16205D01*
X23922Y-16205D01*
X23922Y-16205D01*
X22938Y-17190D01*
X22897Y-17250D01*
X22883Y-17322D01*
X22883Y-19916D01*
X22752Y-19969D01*
X22627Y-20094D01*
X22601Y-20158D01*
X21920Y-20158D01*
X21668Y-19906D01*
X21607Y-19865D01*
X21535Y-19851D01*
X19029Y-19851D01*
X19029Y-19543D01*
X19029Y-19447D01*
X18967Y-19385D01*
X18394Y-19385D01*
X18394Y-19681D01*
X18457Y-19744D01*
X18730Y-19744D01*
X18829Y-19744D01*
X18921Y-19705D01*
X18991Y-19635D01*
X19029Y-19543D01*
X19029Y-19851D01*
X18376Y-19851D01*
X18376Y-19681D01*
X18376Y-19385D01*
X17804Y-19385D01*
X17742Y-19447D01*
X17742Y-19543D01*
X17780Y-19635D01*
X17850Y-19705D01*
X17942Y-19744D01*
X18041Y-19744D01*
X18314Y-19744D01*
X18376Y-19681D01*
X18376Y-19851D01*
X17715Y-19851D01*
X17045Y-19181D01*
X17071Y-19181D01*
X17190Y-19132D01*
X17259Y-19063D01*
X17832Y-19063D01*
X17780Y-19116D01*
X17742Y-19208D01*
X17742Y-19304D01*
X17804Y-19366D01*
X18376Y-19366D01*
X18376Y-19359D01*
X18394Y-19359D01*
X18394Y-19366D01*
X18967Y-19366D01*
X19029Y-19304D01*
X19029Y-19208D01*
X18991Y-19116D01*
X18921Y-19046D01*
X18919Y-19045D01*
X18927Y-19023D01*
X18927Y-18964D01*
X18927Y-18728D01*
X18905Y-18673D01*
X18863Y-18632D01*
X18848Y-18625D01*
X18863Y-18619D01*
X18905Y-18578D01*
X18911Y-18563D01*
X19340Y-18563D01*
X19412Y-18549D01*
X19473Y-18508D01*
X20901Y-17080D01*
X20941Y-17019D01*
X20941Y-17019D01*
X20956Y-16948D01*
X20956Y-12834D01*
X20975Y-12787D01*
X20975Y-12728D01*
X20975Y-12472D01*
X20953Y-12417D01*
X20938Y-12403D01*
X20953Y-12388D01*
X20963Y-12364D01*
X21091Y-12364D01*
X21163Y-12350D01*
X21223Y-12309D01*
X22010Y-11522D01*
X22010Y-11522D01*
X22010Y-11522D01*
X22051Y-11461D01*
X22051Y-11461D01*
X22062Y-11404D01*
X22065Y-11389D01*
X22065Y-11389D01*
X22065Y-11389D01*
X22065Y-9190D01*
X22129Y-9163D01*
X22254Y-9039D01*
X22321Y-8876D01*
X22321Y-8699D01*
X22254Y-8536D01*
X22129Y-8411D01*
X21966Y-8343D01*
X21959Y-8343D01*
X22019Y-8207D01*
X22024Y-7990D01*
X21945Y-7788D01*
X21931Y-7767D01*
X21831Y-7743D01*
X21819Y-7756D01*
X21819Y-7731D01*
X21795Y-7631D01*
X21597Y-7543D01*
X21380Y-7538D01*
X21178Y-7617D01*
X21156Y-7631D01*
X21133Y-7731D01*
X21476Y-8073D01*
X21819Y-7731D01*
X21819Y-7756D01*
X21489Y-8086D01*
X21494Y-8092D01*
X21481Y-8104D01*
X21476Y-8099D01*
X21470Y-8104D01*
X21458Y-8092D01*
X21463Y-8086D01*
X21120Y-7743D01*
X21021Y-7767D01*
X21009Y-7793D01*
X20925Y-7709D01*
X20762Y-7641D01*
X20585Y-7641D01*
X20421Y-7708D01*
X20340Y-7789D01*
X20339Y-7788D01*
X20325Y-7767D01*
X20225Y-7743D01*
X20212Y-7756D01*
X20212Y-7731D01*
X20189Y-7631D01*
X19991Y-7543D01*
X19774Y-7538D01*
X19571Y-7617D01*
X19550Y-7631D01*
X19527Y-7731D01*
X19870Y-8073D01*
X20212Y-7731D01*
X20212Y-7756D01*
X19882Y-8086D01*
X19888Y-8092D01*
X19875Y-8104D01*
X19870Y-8099D01*
X19864Y-8104D01*
X19851Y-8092D01*
X19857Y-8086D01*
X19514Y-7743D01*
X19414Y-7767D01*
X19403Y-7793D01*
X19319Y-7709D01*
X19155Y-7641D01*
X18978Y-7641D01*
X18841Y-7697D01*
X18841Y-6914D01*
X18709Y-6595D01*
X18465Y-6350D01*
X18145Y-6218D01*
X17800Y-6217D01*
X17481Y-6349D01*
X17236Y-6594D01*
X17104Y-6913D01*
X17103Y-7258D01*
X17235Y-7577D01*
X17414Y-7757D01*
X17153Y-7750D01*
X16900Y-7847D01*
X16869Y-7868D01*
X16829Y-7982D01*
X17271Y-8424D01*
X17713Y-7982D01*
X17687Y-7908D01*
X17798Y-7954D01*
X18144Y-7955D01*
X18463Y-7823D01*
X18708Y-7579D01*
X18840Y-7260D01*
X18841Y-6914D01*
X18841Y-7697D01*
X18814Y-7708D01*
X18689Y-7833D01*
X18621Y-7997D01*
X18621Y-8174D01*
X18689Y-8338D01*
X18814Y-8464D01*
X18977Y-8532D01*
X19095Y-8532D01*
X19092Y-8535D01*
X19024Y-8698D01*
X19024Y-8875D01*
X19091Y-9038D01*
X19216Y-9163D01*
X19280Y-9190D01*
X19280Y-11909D01*
X19295Y-11981D01*
X19335Y-12042D01*
X19602Y-12309D01*
X19602Y-12309D01*
X19663Y-12350D01*
X19663Y-12350D01*
X19735Y-12364D01*
X19735Y-12364D01*
X19982Y-12364D01*
X19992Y-12388D01*
X20007Y-12403D01*
X19992Y-12417D01*
X19970Y-12471D01*
X19969Y-12530D01*
X19969Y-12786D01*
X19989Y-12834D01*
X19989Y-14469D01*
X19270Y-15188D01*
X18939Y-15188D01*
X18991Y-15135D01*
X19029Y-15043D01*
X19029Y-14708D01*
X18991Y-14616D01*
X18921Y-14546D01*
X18829Y-14507D01*
X18730Y-14507D01*
X18457Y-14507D01*
X18394Y-14570D01*
X18394Y-14866D01*
X18967Y-14866D01*
X19029Y-14804D01*
X19029Y-14708D01*
X19029Y-15043D01*
X19029Y-14947D01*
X18967Y-14885D01*
X18394Y-14885D01*
X18394Y-14892D01*
X18376Y-14892D01*
X18376Y-14885D01*
X18376Y-14866D01*
X18376Y-14570D01*
X18314Y-14507D01*
X18041Y-14507D01*
X17958Y-14507D01*
X17958Y-8319D01*
X17860Y-8065D01*
X17840Y-8035D01*
X17726Y-7995D01*
X17284Y-8437D01*
X17726Y-8878D01*
X17840Y-8839D01*
X17950Y-8590D01*
X17958Y-8319D01*
X17958Y-14507D01*
X17942Y-14507D01*
X17850Y-14546D01*
X17780Y-14616D01*
X17742Y-14708D01*
X17742Y-14804D01*
X17804Y-14866D01*
X18376Y-14866D01*
X18376Y-14885D01*
X17804Y-14885D01*
X17742Y-14947D01*
X17742Y-15043D01*
X17780Y-15135D01*
X17850Y-15205D01*
X17852Y-15206D01*
X17843Y-15228D01*
X17843Y-15287D01*
X17843Y-15523D01*
X17866Y-15578D01*
X17907Y-15619D01*
X17922Y-15625D01*
X17908Y-15631D01*
X17866Y-15673D01*
X17860Y-15688D01*
X17835Y-15688D01*
X17833Y-15683D01*
X17742Y-15592D01*
X17713Y-15580D01*
X17713Y-8891D01*
X17271Y-8449D01*
X17258Y-8462D01*
X17258Y-8437D01*
X16817Y-7995D01*
X16702Y-8035D01*
X16592Y-8283D01*
X16585Y-8554D01*
X16682Y-8808D01*
X16702Y-8839D01*
X16817Y-8878D01*
X17258Y-8437D01*
X17258Y-8462D01*
X16829Y-8891D01*
X16869Y-9005D01*
X17117Y-9116D01*
X17389Y-9123D01*
X17643Y-9026D01*
X17673Y-9005D01*
X17713Y-8891D01*
X17713Y-15580D01*
X17623Y-15542D01*
X17495Y-15542D01*
X17376Y-15591D01*
X17285Y-15682D01*
X17235Y-15801D01*
X17235Y-15930D01*
X17284Y-16049D01*
X17375Y-16140D01*
X17494Y-16189D01*
X17623Y-16189D01*
X17742Y-16140D01*
X17818Y-16063D01*
X17860Y-16063D01*
X17866Y-16078D01*
X17907Y-16119D01*
X17922Y-16125D01*
X17908Y-16131D01*
X17866Y-16173D01*
X17843Y-16228D01*
X17843Y-16287D01*
X17843Y-16523D01*
X17866Y-16578D01*
X17907Y-16619D01*
X17922Y-16625D01*
X17908Y-16631D01*
X17866Y-16673D01*
X17860Y-16688D01*
X16485Y-16688D01*
X16485Y-8319D01*
X16388Y-8065D01*
X16367Y-8035D01*
X16253Y-7995D01*
X16241Y-8007D01*
X16241Y-7982D01*
X16201Y-7868D01*
X15952Y-7757D01*
X15681Y-7750D01*
X15650Y-7762D01*
X15834Y-7579D01*
X15966Y-7260D01*
X15967Y-6914D01*
X15835Y-6595D01*
X15591Y-6350D01*
X15271Y-6218D01*
X14926Y-6217D01*
X14607Y-6349D01*
X14362Y-6594D01*
X14230Y-6913D01*
X14229Y-7258D01*
X14361Y-7577D01*
X14605Y-7822D01*
X14924Y-7954D01*
X15270Y-7955D01*
X15383Y-7908D01*
X15357Y-7982D01*
X15799Y-8424D01*
X16241Y-7982D01*
X16241Y-8007D01*
X15812Y-8437D01*
X16253Y-8878D01*
X16367Y-8839D01*
X16478Y-8590D01*
X16485Y-8319D01*
X16485Y-16688D01*
X16241Y-16688D01*
X16241Y-8891D01*
X15799Y-8449D01*
X15786Y-8462D01*
X15786Y-8437D01*
X15344Y-7995D01*
X15230Y-8035D01*
X15119Y-8283D01*
X15112Y-8554D01*
X15210Y-8808D01*
X15230Y-8839D01*
X15344Y-8878D01*
X15786Y-8437D01*
X15786Y-8462D01*
X15357Y-8891D01*
X15397Y-9005D01*
X15645Y-9116D01*
X15917Y-9123D01*
X16170Y-9026D01*
X16201Y-9005D01*
X16241Y-8891D01*
X16241Y-16688D01*
X15210Y-16688D01*
X15204Y-16673D01*
X15162Y-16632D01*
X15148Y-16625D01*
X15162Y-16619D01*
X15204Y-16578D01*
X15227Y-16523D01*
X15227Y-16464D01*
X15227Y-16228D01*
X15204Y-16173D01*
X15162Y-16132D01*
X15148Y-16125D01*
X15162Y-16119D01*
X15204Y-16078D01*
X15210Y-16063D01*
X15252Y-16063D01*
X15328Y-16140D01*
X15447Y-16189D01*
X15575Y-16189D01*
X15694Y-16140D01*
X15785Y-16049D01*
X15835Y-15930D01*
X15835Y-15802D01*
X15786Y-15683D01*
X15695Y-15592D01*
X15576Y-15542D01*
X15447Y-15542D01*
X15328Y-15591D01*
X15237Y-15682D01*
X15235Y-15688D01*
X15210Y-15688D01*
X15204Y-15673D01*
X15162Y-15632D01*
X15148Y-15625D01*
X15162Y-15619D01*
X15204Y-15578D01*
X15227Y-15523D01*
X15227Y-15464D01*
X15227Y-15228D01*
X15204Y-15173D01*
X15162Y-15132D01*
X15148Y-15125D01*
X15162Y-15119D01*
X15188Y-15094D01*
X15249Y-15155D01*
X15368Y-15205D01*
X15497Y-15205D01*
X15616Y-15156D01*
X15707Y-15065D01*
X15756Y-14946D01*
X15756Y-14817D01*
X15707Y-14698D01*
X15616Y-14607D01*
X15497Y-14558D01*
X15369Y-14558D01*
X15250Y-14607D01*
X15194Y-14663D01*
X15162Y-14632D01*
X15108Y-14609D01*
X15049Y-14609D01*
X14261Y-14609D01*
X14207Y-14631D01*
X14165Y-14673D01*
X14142Y-14728D01*
X14142Y-14787D01*
X14142Y-15023D01*
X14165Y-15078D01*
X14207Y-15119D01*
X14221Y-15125D01*
X14207Y-15131D01*
X14165Y-15173D01*
X14159Y-15188D01*
X13957Y-15188D01*
X13082Y-14312D01*
X13082Y-12834D01*
X13101Y-12787D01*
X13101Y-12728D01*
X13101Y-12472D01*
X13079Y-12417D01*
X13064Y-12403D01*
X13079Y-12388D01*
X13089Y-12364D01*
X13413Y-12364D01*
X13485Y-12350D01*
X13546Y-12309D01*
X14136Y-11719D01*
X14177Y-11658D01*
X14191Y-11586D01*
X14191Y-9190D01*
X14255Y-9163D01*
X14380Y-9039D01*
X14447Y-8876D01*
X14447Y-8699D01*
X14380Y-8536D01*
X14255Y-8411D01*
X14092Y-8343D01*
X14085Y-8343D01*
X14145Y-8207D01*
X14150Y-7990D01*
X14071Y-7788D01*
X14057Y-7767D01*
X13957Y-7743D01*
X13944Y-7756D01*
X13944Y-7731D01*
X13921Y-7631D01*
X13723Y-7543D01*
X13506Y-7538D01*
X13304Y-7617D01*
X13282Y-7631D01*
X13259Y-7731D01*
X13602Y-8073D01*
X13944Y-7731D01*
X13944Y-7756D01*
X13615Y-8086D01*
X13620Y-8092D01*
X13607Y-8104D01*
X13602Y-8099D01*
X13596Y-8104D01*
X13583Y-8092D01*
X13589Y-8086D01*
X13246Y-7743D01*
X13147Y-7767D01*
X13135Y-7793D01*
X13051Y-7709D01*
X12888Y-7641D01*
X12710Y-7641D01*
X12547Y-7708D01*
X12466Y-7789D01*
X12465Y-7788D01*
X12451Y-7767D01*
X12351Y-7743D01*
X12338Y-7756D01*
X12338Y-7731D01*
X12315Y-7631D01*
X12117Y-7543D01*
X11900Y-7538D01*
X11697Y-7617D01*
X11676Y-7631D01*
X11653Y-7731D01*
X11996Y-8073D01*
X12338Y-7731D01*
X12338Y-7756D01*
X12008Y-8086D01*
X12014Y-8092D01*
X12001Y-8104D01*
X11996Y-8099D01*
X11990Y-8104D01*
X11977Y-8092D01*
X11983Y-8086D01*
X11640Y-7743D01*
X11540Y-7767D01*
X11529Y-7793D01*
X11445Y-7709D01*
X11281Y-7641D01*
X11104Y-7641D01*
X10967Y-7697D01*
X10967Y-6914D01*
X10835Y-6595D01*
X10591Y-6350D01*
X10271Y-6218D01*
X9926Y-6217D01*
X9607Y-6349D01*
X9362Y-6594D01*
X9230Y-6913D01*
X9229Y-7258D01*
X9361Y-7577D01*
X9540Y-7757D01*
X9279Y-7750D01*
X9026Y-7847D01*
X8995Y-7868D01*
X8955Y-7982D01*
X9397Y-8424D01*
X9839Y-7982D01*
X9813Y-7908D01*
X9924Y-7954D01*
X10270Y-7955D01*
X10589Y-7823D01*
X10834Y-7579D01*
X10966Y-7260D01*
X10967Y-6914D01*
X10967Y-7697D01*
X10940Y-7708D01*
X10815Y-7833D01*
X10813Y-7838D01*
X10811Y-7838D01*
X10715Y-7857D01*
X10689Y-7874D01*
X10635Y-7910D01*
X10080Y-8466D01*
X10084Y-8319D01*
X9986Y-8065D01*
X9966Y-8035D01*
X9852Y-7995D01*
X9410Y-8437D01*
X9416Y-8442D01*
X9403Y-8455D01*
X9397Y-8449D01*
X9384Y-8462D01*
X9384Y-8437D01*
X8943Y-7995D01*
X8828Y-8035D01*
X8718Y-8283D01*
X8711Y-8554D01*
X8808Y-8808D01*
X8828Y-8839D01*
X8943Y-8878D01*
X9384Y-8437D01*
X9384Y-8462D01*
X8955Y-8891D01*
X8995Y-9005D01*
X9243Y-9116D01*
X9425Y-9121D01*
X8024Y-10522D01*
X8024Y-6429D01*
X7822Y-5939D01*
X7447Y-5565D01*
X6958Y-5362D01*
X6429Y-5361D01*
X5939Y-5563D01*
X5565Y-5937D01*
X5362Y-6426D01*
X5361Y-6956D01*
X5563Y-7445D01*
X5937Y-7820D01*
X6426Y-8023D01*
X6956Y-8024D01*
X7445Y-7822D01*
X7820Y-7447D01*
X8023Y-6958D01*
X8024Y-6429D01*
X8024Y-10522D01*
X7107Y-11438D01*
X7053Y-11519D01*
X7035Y-11614D01*
X7035Y-13853D01*
X6963Y-13961D01*
X6936Y-14094D01*
X6936Y-14704D01*
X6936Y-16929D01*
X6963Y-17061D01*
X7038Y-17174D01*
X7392Y-17528D01*
X7505Y-17603D01*
X7637Y-17630D01*
X7940Y-17630D01*
X7962Y-17683D01*
X8005Y-17725D01*
X8018Y-17731D01*
X8018Y-17810D01*
X7126Y-18703D01*
X7072Y-18783D01*
X7053Y-18878D01*
X7053Y-19474D01*
X7042Y-19479D01*
X7000Y-19521D01*
X6977Y-19576D01*
X6977Y-19636D01*
X6977Y-20186D01*
X6999Y-20241D01*
X7042Y-20283D01*
X7053Y-20288D01*
X7053Y-20518D01*
X7047Y-20524D01*
X6997Y-20643D01*
X6997Y-20773D01*
X7047Y-20892D01*
X7138Y-20984D01*
X7257Y-21033D01*
X7387Y-21033D01*
X7506Y-20984D01*
X7598Y-20892D01*
X7647Y-20773D01*
X7647Y-20644D01*
X7598Y-20524D01*
X7550Y-20476D01*
X7550Y-20288D01*
X7562Y-20284D01*
X7604Y-20241D01*
X7627Y-20186D01*
X7627Y-20156D01*
X7627Y-20206D01*
X7665Y-20298D01*
X7735Y-20368D01*
X7827Y-20406D01*
X7980Y-20406D01*
X8043Y-20344D01*
X8043Y-19890D01*
X8035Y-19890D01*
X8035Y-19872D01*
X8043Y-19872D01*
X8043Y-19419D01*
X7980Y-19356D01*
X7827Y-19356D01*
X7735Y-19394D01*
X7665Y-19465D01*
X7627Y-19556D01*
X7627Y-19577D01*
X7604Y-19522D01*
X7562Y-19479D01*
X7550Y-19474D01*
X7550Y-18981D01*
X8442Y-18089D01*
X8442Y-18089D01*
X8478Y-18035D01*
X8496Y-18008D01*
X8496Y-18008D01*
X8515Y-17913D01*
X8515Y-17913D01*
X8515Y-17787D01*
X8539Y-17810D01*
X8631Y-17848D01*
X8786Y-17848D01*
X8849Y-17786D01*
X8849Y-17194D01*
X8841Y-17194D01*
X8841Y-17176D01*
X8849Y-17176D01*
X8849Y-16969D01*
X8849Y-16584D01*
X8849Y-16249D01*
X8849Y-16231D01*
X8849Y-15511D01*
X8786Y-15448D01*
X8415Y-15448D01*
X8323Y-15486D01*
X8252Y-15557D01*
X8214Y-15648D01*
X8214Y-15748D01*
X8214Y-16168D01*
X8277Y-16231D01*
X8849Y-16231D01*
X8849Y-16249D01*
X8277Y-16249D01*
X8214Y-16311D01*
X8214Y-16732D01*
X8214Y-16818D01*
X8060Y-16818D01*
X8005Y-16841D01*
X7963Y-16883D01*
X7940Y-16936D01*
X7781Y-16936D01*
X7630Y-16785D01*
X7630Y-14848D01*
X7843Y-14635D01*
X7843Y-14635D01*
X7843Y-14635D01*
X8138Y-14339D01*
X8214Y-14227D01*
X8240Y-14094D01*
X8240Y-13484D01*
X8214Y-13351D01*
X8138Y-13238D01*
X8026Y-13163D01*
X7893Y-13137D01*
X7760Y-13163D01*
X7648Y-13238D01*
X7531Y-13355D01*
X7531Y-11717D01*
X10862Y-8386D01*
X10940Y-8464D01*
X11103Y-8532D01*
X11221Y-8532D01*
X11218Y-8535D01*
X11150Y-8698D01*
X11150Y-8875D01*
X11217Y-9038D01*
X11342Y-9163D01*
X11406Y-9190D01*
X11406Y-11791D01*
X11420Y-11863D01*
X11461Y-11924D01*
X11846Y-12309D01*
X11846Y-12309D01*
X11907Y-12350D01*
X11907Y-12350D01*
X11979Y-12364D01*
X11979Y-12364D01*
X12108Y-12364D01*
X12118Y-12388D01*
X12133Y-12403D01*
X12118Y-12417D01*
X12096Y-12471D01*
X12095Y-12530D01*
X12095Y-12786D01*
X12115Y-12834D01*
X12115Y-17500D01*
X12129Y-17572D01*
X12170Y-17633D01*
X13046Y-18508D01*
X13107Y-18549D01*
X13179Y-18563D01*
X14131Y-18563D01*
X14079Y-18616D01*
X14041Y-18708D01*
X14041Y-18804D01*
X14103Y-18866D01*
X14675Y-18866D01*
X14675Y-18859D01*
X14694Y-18859D01*
X14694Y-18866D01*
X15266Y-18866D01*
X15328Y-18804D01*
X15328Y-18708D01*
X15290Y-18616D01*
X15220Y-18546D01*
X15218Y-18545D01*
X15227Y-18523D01*
X15227Y-18464D01*
X15227Y-18228D01*
X15204Y-18173D01*
X15162Y-18132D01*
X15148Y-18125D01*
X15162Y-18119D01*
X15181Y-18101D01*
X15242Y-18101D01*
X15328Y-18187D01*
X15447Y-18236D01*
X15569Y-18236D01*
X17505Y-20172D01*
X17565Y-20212D01*
X17637Y-20227D01*
X20726Y-20227D01*
X20754Y-20255D01*
X20639Y-20294D01*
X20529Y-20543D01*
X20522Y-20814D01*
X20619Y-21068D01*
X20639Y-21098D01*
X20754Y-21138D01*
X21195Y-20696D01*
X21190Y-20691D01*
X21203Y-20678D01*
X21208Y-20684D01*
X21214Y-20678D01*
X21227Y-20691D01*
X21221Y-20696D01*
X21663Y-21138D01*
X21777Y-21098D01*
X21887Y-20850D01*
X21895Y-20578D01*
X21877Y-20534D01*
X22601Y-20534D01*
X22627Y-20597D01*
X22752Y-20722D01*
X22915Y-20790D01*
X22922Y-20790D01*
X22862Y-20926D01*
X22857Y-21143D01*
X22936Y-21345D01*
X22950Y-21366D01*
X23050Y-21389D01*
X23392Y-21047D01*
X23387Y-21041D01*
X23399Y-21028D01*
X23405Y-21034D01*
X23411Y-21028D01*
X23423Y-21041D01*
X23418Y-21047D01*
X23760Y-21389D01*
X23860Y-21366D01*
X23872Y-21340D01*
X23955Y-21424D01*
X24119Y-21492D01*
X24296Y-21492D01*
X24460Y-21425D01*
X24541Y-21344D01*
X24542Y-21345D01*
X24556Y-21366D01*
X24656Y-21389D01*
X24999Y-21047D01*
X24993Y-21041D01*
X25006Y-21028D01*
X25011Y-21034D01*
X25017Y-21028D01*
X25030Y-21041D01*
X25024Y-21047D01*
X25367Y-21389D01*
X25467Y-21366D01*
X25478Y-21340D01*
X25562Y-21424D01*
X25725Y-21492D01*
X25903Y-21492D01*
X26066Y-21425D01*
X26192Y-21299D01*
X26260Y-21136D01*
X26260Y-20959D01*
X26192Y-20795D01*
X26067Y-20669D01*
X25903Y-20601D01*
X25786Y-20601D01*
X25789Y-20598D01*
X25816Y-20534D01*
X26897Y-20534D01*
X26938Y-20526D01*
X26930Y-20543D01*
X26923Y-20814D01*
X27021Y-21068D01*
X27041Y-21098D01*
X27155Y-21138D01*
X27597Y-20696D01*
X27591Y-20691D01*
X27604Y-20678D01*
X27610Y-20684D01*
X28052Y-20242D01*
X28012Y-20128D01*
X27764Y-20017D01*
X27499Y-20010D01*
X27873Y-19636D01*
X38661Y-19636D01*
X38733Y-19622D01*
X38794Y-19581D01*
X39817Y-18557D01*
X39858Y-18497D01*
X39858Y-18497D01*
X39872Y-18425D01*
X39872Y-18188D01*
X39858Y-18117D01*
X39817Y-18056D01*
X39520Y-17758D01*
X39459Y-17718D01*
X39387Y-17703D01*
X38596Y-17703D01*
X38590Y-17689D01*
X38548Y-17647D01*
X38534Y-17641D01*
X38548Y-17635D01*
X38590Y-17594D01*
X38608Y-17550D01*
X40360Y-17550D01*
X40446Y-17636D01*
X40565Y-17685D01*
X40687Y-17685D01*
X40697Y-17695D01*
X40697Y-17992D01*
X40677Y-18039D01*
X40677Y-18098D01*
X40677Y-18354D01*
X40700Y-18409D01*
X40714Y-18423D01*
X40700Y-18438D01*
X40690Y-18462D01*
X40011Y-18462D01*
X39939Y-18476D01*
X39878Y-18517D01*
X38701Y-19694D01*
X31192Y-19694D01*
X31121Y-19708D01*
X31060Y-19749D01*
X29993Y-20815D01*
X29910Y-20781D01*
X29720Y-20781D01*
X29544Y-20854D01*
X29409Y-20988D01*
X29336Y-21164D01*
X29336Y-21354D01*
X29409Y-21530D01*
X29543Y-21665D01*
X29719Y-21738D01*
X29909Y-21738D01*
X30085Y-21665D01*
X30220Y-21531D01*
X30260Y-21434D01*
X30315Y-21576D01*
X30331Y-21600D01*
X30434Y-21627D01*
X30802Y-21259D01*
X30796Y-21254D01*
X30809Y-21241D01*
X30814Y-21247D01*
X31182Y-20879D01*
X31155Y-20776D01*
X30944Y-20682D01*
X30713Y-20677D01*
X30631Y-20708D01*
X31270Y-20069D01*
X33495Y-20069D01*
X32749Y-20815D01*
X32666Y-20781D01*
X32476Y-20781D01*
X32300Y-20854D01*
X32165Y-20988D01*
X32092Y-21164D01*
X32092Y-21354D01*
X32165Y-21530D01*
X32299Y-21665D01*
X32475Y-21738D01*
X32665Y-21738D01*
X32841Y-21665D01*
X32976Y-21531D01*
X33016Y-21434D01*
X33071Y-21576D01*
X33087Y-21600D01*
X33190Y-21627D01*
X33558Y-21259D01*
X33552Y-21254D01*
X33565Y-21241D01*
X33570Y-21247D01*
X33938Y-20879D01*
X33911Y-20776D01*
X33700Y-20682D01*
X33469Y-20677D01*
X33387Y-20708D01*
X33829Y-20266D01*
X36054Y-20266D01*
X35505Y-20815D01*
X35422Y-20781D01*
X35232Y-20781D01*
X35056Y-20854D01*
X34921Y-20988D01*
X34848Y-21164D01*
X34848Y-21354D01*
X34920Y-21530D01*
X35055Y-21665D01*
X35231Y-21738D01*
X35421Y-21738D01*
X35597Y-21665D01*
X35732Y-21531D01*
X35772Y-21434D01*
X35827Y-21576D01*
X35843Y-21600D01*
X35946Y-21627D01*
X36313Y-21259D01*
X36308Y-21254D01*
X36321Y-21241D01*
X36326Y-21247D01*
X36694Y-20879D01*
X36666Y-20776D01*
X36456Y-20682D01*
X36225Y-20677D01*
X36143Y-20708D01*
X36349Y-20502D01*
X38574Y-20502D01*
X38261Y-20815D01*
X38178Y-20781D01*
X37987Y-20781D01*
X37812Y-20854D01*
X37677Y-20988D01*
X37604Y-21164D01*
X37604Y-21354D01*
X37676Y-21530D01*
X37811Y-21665D01*
X37987Y-21738D01*
X38177Y-21738D01*
X38353Y-21665D01*
X38488Y-21531D01*
X38528Y-21434D01*
X38583Y-21576D01*
X38598Y-21600D01*
X38702Y-21627D01*
X39069Y-21259D01*
X39064Y-21254D01*
X39077Y-21241D01*
X39082Y-21247D01*
X39450Y-20879D01*
X39422Y-20776D01*
X39338Y-20738D01*
X40944Y-20738D01*
X41016Y-20724D01*
X41077Y-20683D01*
X41608Y-20152D01*
X41649Y-20091D01*
X41649Y-20091D01*
X41663Y-20019D01*
X41663Y-18855D01*
X41683Y-18807D01*
X41683Y-18748D01*
X41683Y-21183D01*
X41372Y-21311D01*
X40998Y-21685D01*
X40795Y-22175D01*
X40794Y-22704D01*
X40996Y-23193D01*
X41370Y-23568D01*
X41860Y-23771D01*
X42389Y-23772D01*
X42879Y-23570D01*
X43253Y-23195D01*
X43456Y-22706D01*
X43457Y-22177D01*
X43457Y-24231D01*
X39665Y-24231D01*
X39665Y-21158D01*
X39582Y-20943D01*
X39566Y-20919D01*
X39462Y-20892D01*
X39095Y-21259D01*
X39462Y-21627D01*
X39566Y-21600D01*
X39659Y-21389D01*
X39665Y-21158D01*
X39665Y-24231D01*
X39450Y-24231D01*
X39450Y-21640D01*
X39082Y-21272D01*
X38715Y-21640D01*
X38742Y-21743D01*
X38953Y-21836D01*
X39184Y-21842D01*
X39399Y-21759D01*
X39422Y-21743D01*
X39450Y-21640D01*
X39450Y-24231D01*
X36909Y-24231D01*
X36909Y-21158D01*
X36826Y-20943D01*
X36810Y-20919D01*
X36707Y-20892D01*
X36339Y-21259D01*
X36707Y-21627D01*
X36810Y-21600D01*
X36903Y-21389D01*
X36909Y-21158D01*
X36909Y-24231D01*
X36694Y-24231D01*
X36694Y-21640D01*
X36326Y-21272D01*
X35959Y-21640D01*
X35986Y-21743D01*
X36197Y-21836D01*
X36428Y-21842D01*
X36643Y-21759D01*
X36666Y-21743D01*
X36694Y-21640D01*
X36694Y-24231D01*
X34153Y-24231D01*
X34153Y-21158D01*
X34070Y-20943D01*
X34054Y-20919D01*
X33951Y-20892D01*
X33583Y-21259D01*
X33951Y-21627D01*
X34054Y-21600D01*
X34147Y-21389D01*
X34153Y-21158D01*
X34153Y-24231D01*
X33938Y-24231D01*
X33938Y-21640D01*
X33570Y-21272D01*
X33203Y-21640D01*
X33230Y-21743D01*
X33441Y-21836D01*
X33672Y-21842D01*
X33887Y-21759D01*
X33911Y-21743D01*
X33938Y-21640D01*
X33938Y-24231D01*
X31397Y-24231D01*
X31397Y-21158D01*
X31314Y-20943D01*
X31298Y-20919D01*
X31195Y-20892D01*
X30827Y-21259D01*
X31195Y-21627D01*
X31298Y-21600D01*
X31392Y-21389D01*
X31397Y-21158D01*
X31397Y-24231D01*
X31182Y-24231D01*
X31182Y-21640D01*
X30814Y-21272D01*
X30447Y-21640D01*
X30474Y-21743D01*
X30685Y-21836D01*
X30916Y-21842D01*
X31131Y-21759D01*
X31155Y-21743D01*
X31182Y-21640D01*
X31182Y-24231D01*
X28296Y-24231D01*
X28296Y-20578D01*
X28199Y-20325D01*
X28178Y-20294D01*
X28064Y-20255D01*
X27623Y-20696D01*
X28064Y-21138D01*
X28178Y-21098D01*
X28289Y-20850D01*
X28296Y-20578D01*
X28296Y-24231D01*
X28052Y-24231D01*
X28052Y-21151D01*
X27610Y-20709D01*
X27168Y-21151D01*
X27194Y-21225D01*
X27082Y-21178D01*
X26737Y-21178D01*
X26418Y-21310D01*
X26173Y-21554D01*
X26041Y-21873D01*
X26040Y-22219D01*
X26172Y-22538D01*
X26416Y-22783D01*
X26735Y-22915D01*
X27081Y-22915D01*
X27400Y-22783D01*
X27645Y-22539D01*
X27777Y-22220D01*
X27778Y-21875D01*
X27646Y-21555D01*
X27466Y-21376D01*
X27728Y-21383D01*
X27981Y-21285D01*
X28012Y-21265D01*
X28052Y-21151D01*
X28052Y-24231D01*
X25354Y-24231D01*
X25354Y-21402D01*
X25011Y-21060D01*
X24669Y-21402D01*
X24692Y-21502D01*
X24890Y-21590D01*
X25107Y-21595D01*
X25310Y-21516D01*
X25331Y-21502D01*
X25354Y-21402D01*
X25354Y-24231D01*
X23748Y-24231D01*
X23748Y-21402D01*
X23405Y-21060D01*
X23062Y-21402D01*
X23085Y-21502D01*
X23284Y-21590D01*
X23501Y-21595D01*
X23703Y-21516D01*
X23725Y-21502D01*
X23748Y-21402D01*
X23748Y-24231D01*
X22778Y-24231D01*
X22778Y-21875D01*
X22646Y-21555D01*
X22402Y-21311D01*
X22082Y-21178D01*
X21737Y-21178D01*
X21624Y-21225D01*
X21650Y-21151D01*
X21208Y-20709D01*
X21195Y-20722D01*
X20766Y-21151D01*
X20806Y-21265D01*
X21054Y-21376D01*
X21326Y-21383D01*
X21356Y-21371D01*
X21173Y-21554D01*
X21041Y-21873D01*
X21040Y-22219D01*
X21172Y-22538D01*
X21416Y-22783D01*
X21735Y-22915D01*
X22081Y-22915D01*
X22400Y-22783D01*
X22645Y-22539D01*
X22777Y-22220D01*
X22778Y-21875D01*
X22778Y-24231D01*
X15328Y-24231D01*
X15328Y-19043D01*
X15328Y-18947D01*
X15266Y-18885D01*
X14694Y-18885D01*
X14694Y-18892D01*
X14675Y-18892D01*
X14675Y-18885D01*
X14103Y-18885D01*
X14041Y-18947D01*
X14041Y-19043D01*
X14075Y-19127D01*
X12106Y-19127D01*
X12074Y-19094D01*
X11954Y-19045D01*
X11825Y-19045D01*
X11705Y-19094D01*
X11614Y-19185D01*
X11564Y-19305D01*
X11564Y-19343D01*
X11275Y-19633D01*
X10739Y-19633D01*
X10739Y-19577D01*
X10716Y-19522D01*
X10674Y-19479D01*
X10662Y-19474D01*
X10662Y-19075D01*
X10643Y-18980D01*
X10643Y-18980D01*
X10626Y-18953D01*
X10590Y-18900D01*
X10590Y-18900D01*
X9697Y-18007D01*
X9697Y-17731D01*
X9711Y-17725D01*
X9753Y-17683D01*
X9775Y-17630D01*
X10519Y-17630D01*
X10519Y-17972D01*
X10545Y-18105D01*
X10620Y-18217D01*
X11073Y-18670D01*
X11186Y-18745D01*
X11186Y-18745D01*
X11318Y-18772D01*
X11318Y-18772D01*
X11451Y-18745D01*
X11451Y-18745D01*
X11564Y-18670D01*
X11639Y-18557D01*
X11639Y-18557D01*
X11665Y-18425D01*
X11665Y-18425D01*
X11665Y-17933D01*
X11639Y-17800D01*
X11564Y-17687D01*
X11150Y-17274D01*
X10914Y-17038D01*
X10801Y-16962D01*
X10669Y-16936D01*
X9775Y-16936D01*
X9753Y-16883D01*
X9711Y-16841D01*
X9656Y-16818D01*
X9596Y-16818D01*
X9501Y-16818D01*
X9501Y-16732D01*
X9501Y-15748D01*
X9501Y-15648D01*
X9463Y-15557D01*
X9393Y-15486D01*
X9301Y-15448D01*
X8929Y-15448D01*
X8867Y-15511D01*
X8867Y-16231D01*
X9439Y-16231D01*
X9501Y-16168D01*
X9501Y-15748D01*
X9501Y-16732D01*
X9501Y-16311D01*
X9439Y-16249D01*
X8867Y-16249D01*
X8867Y-16584D01*
X8867Y-16969D01*
X8867Y-17176D01*
X8875Y-17176D01*
X8875Y-17194D01*
X8867Y-17194D01*
X8867Y-17786D01*
X8929Y-17848D01*
X9084Y-17848D01*
X9176Y-17810D01*
X9200Y-17787D01*
X9200Y-18110D01*
X9219Y-18205D01*
X9273Y-18286D01*
X10165Y-19178D01*
X10165Y-19474D01*
X10154Y-19479D01*
X10112Y-19521D01*
X10089Y-19576D01*
X10089Y-19606D01*
X10089Y-19556D01*
X10051Y-19465D01*
X9980Y-19394D01*
X9888Y-19356D01*
X9735Y-19356D01*
X9673Y-19419D01*
X9673Y-19872D01*
X9681Y-19872D01*
X9681Y-19890D01*
X9673Y-19890D01*
X9673Y-20344D01*
X9735Y-20406D01*
X9888Y-20406D01*
X9980Y-20368D01*
X10051Y-20298D01*
X10089Y-20206D01*
X10089Y-20186D01*
X10089Y-20186D01*
X10112Y-20241D01*
X10154Y-20283D01*
X10209Y-20306D01*
X10269Y-20306D01*
X10619Y-20306D01*
X10674Y-20284D01*
X10716Y-20241D01*
X10739Y-20186D01*
X10739Y-20130D01*
X11377Y-20130D01*
X11377Y-20130D01*
X11473Y-20111D01*
X11553Y-20057D01*
X11916Y-19695D01*
X11954Y-19695D01*
X12073Y-19645D01*
X12095Y-19624D01*
X14214Y-19624D01*
X14261Y-19644D01*
X14321Y-19644D01*
X15108Y-19644D01*
X15163Y-19621D01*
X15205Y-19579D01*
X15228Y-19524D01*
X15228Y-19464D01*
X15228Y-19228D01*
X15219Y-19206D01*
X15220Y-19205D01*
X15290Y-19135D01*
X15328Y-19043D01*
X15328Y-24231D01*
X9655Y-24231D01*
X9655Y-20344D01*
X9655Y-19890D01*
X9655Y-19872D01*
X9655Y-19419D01*
X9592Y-19356D01*
X9439Y-19356D01*
X9347Y-19394D01*
X9277Y-19465D01*
X9239Y-19556D01*
X9239Y-19656D01*
X9239Y-19810D01*
X9301Y-19872D01*
X9655Y-19872D01*
X9655Y-19890D01*
X9301Y-19890D01*
X9239Y-19953D01*
X9239Y-20107D01*
X9239Y-20206D01*
X9277Y-20298D01*
X9347Y-20368D01*
X9439Y-20406D01*
X9592Y-20406D01*
X9655Y-20344D01*
X9655Y-24231D01*
X8477Y-24231D01*
X8477Y-20107D01*
X8477Y-19656D01*
X8477Y-19556D01*
X8438Y-19465D01*
X8368Y-19394D01*
X8276Y-19356D01*
X8123Y-19356D01*
X8061Y-19419D01*
X8061Y-19872D01*
X8414Y-19872D01*
X8477Y-19810D01*
X8477Y-19656D01*
X8477Y-20107D01*
X8477Y-19953D01*
X8414Y-19890D01*
X8061Y-19890D01*
X8061Y-20344D01*
X8123Y-20406D01*
X8276Y-20406D01*
X8368Y-20368D01*
X8438Y-20298D01*
X8477Y-20206D01*
X8477Y-20107D01*
X8477Y-24231D01*
X8024Y-24231D01*
X8024Y-22177D01*
X7822Y-21687D01*
X7447Y-21313D01*
X6958Y-21110D01*
X6429Y-21109D01*
X5939Y-21311D01*
X5565Y-21685D01*
X5362Y-22175D01*
X5361Y-22704D01*
X5563Y-23193D01*
X5937Y-23568D01*
X6426Y-23771D01*
X6956Y-23772D01*
X7445Y-23570D01*
X7820Y-23195D01*
X8023Y-22706D01*
X8024Y-22177D01*
X8024Y-24231D01*
X4902Y-24231D01*
X4902Y-4902D01*
X43916Y-4902D01*
X43916Y-24231D01*
X43916Y-24231D01*
G37*
G54D27*
X43916Y-24231D02*
X43457Y-24231D01*
X43457Y-22177D01*
X43457Y-6429D01*
X43255Y-5939D01*
X42880Y-5565D01*
X42391Y-5362D01*
X41862Y-5361D01*
X41372Y-5563D01*
X40998Y-5937D01*
X40795Y-6426D01*
X40794Y-6956D01*
X40996Y-7445D01*
X41370Y-7820D01*
X41860Y-8023D01*
X42389Y-8024D01*
X42879Y-7822D01*
X43253Y-7447D01*
X43456Y-6958D01*
X43457Y-6429D01*
X43457Y-22177D01*
X43255Y-21687D01*
X42880Y-21313D01*
X42391Y-21110D01*
X41862Y-21109D01*
X41683Y-21183D01*
X41683Y-18748D01*
X41683Y-18492D01*
X41661Y-18438D01*
X41646Y-18423D01*
X41660Y-18409D01*
X41683Y-18354D01*
X41683Y-18295D01*
X41683Y-18039D01*
X41663Y-17992D01*
X41663Y-15806D01*
X41663Y-15806D01*
X41663Y-15806D01*
X41661Y-15792D01*
X41649Y-15734D01*
X41649Y-15734D01*
X41608Y-15674D01*
X41608Y-15674D01*
X40193Y-14258D01*
X40137Y-14221D01*
X40221Y-14221D01*
X40340Y-14171D01*
X40393Y-14118D01*
X40446Y-14171D01*
X40565Y-14221D01*
X40693Y-14221D01*
X40812Y-14171D01*
X40903Y-14081D01*
X40953Y-13962D01*
X40953Y-13833D01*
X40904Y-13714D01*
X40813Y-13623D01*
X40694Y-13574D01*
X40572Y-13574D01*
X40107Y-13109D01*
X40107Y-8319D01*
X40010Y-8065D01*
X39989Y-8035D01*
X39875Y-7995D01*
X39863Y-8007D01*
X39863Y-7982D01*
X39823Y-7868D01*
X39575Y-7757D01*
X39303Y-7750D01*
X39272Y-7762D01*
X39456Y-7579D01*
X39588Y-7260D01*
X39589Y-6914D01*
X39457Y-6595D01*
X39213Y-6350D01*
X38893Y-6218D01*
X38548Y-6217D01*
X38229Y-6349D01*
X37984Y-6594D01*
X37852Y-6913D01*
X37851Y-7258D01*
X37983Y-7577D01*
X38227Y-7822D01*
X38546Y-7954D01*
X38892Y-7955D01*
X39005Y-7908D01*
X38979Y-7982D01*
X39421Y-8424D01*
X39863Y-7982D01*
X39863Y-8007D01*
X39434Y-8437D01*
X39875Y-8878D01*
X39989Y-8839D01*
X40100Y-8590D01*
X40107Y-8319D01*
X40107Y-13109D01*
X39863Y-12865D01*
X39863Y-8891D01*
X39421Y-8449D01*
X39408Y-8462D01*
X39408Y-8437D01*
X38966Y-7995D01*
X38852Y-8035D01*
X38741Y-8283D01*
X38734Y-8554D01*
X38832Y-8808D01*
X38852Y-8839D01*
X38966Y-8878D01*
X39408Y-8437D01*
X39408Y-8462D01*
X38979Y-8891D01*
X39019Y-9005D01*
X39267Y-9116D01*
X39539Y-9123D01*
X39792Y-9026D01*
X39823Y-9005D01*
X39863Y-8891D01*
X39863Y-12865D01*
X39494Y-12496D01*
X39433Y-12456D01*
X39361Y-12441D01*
X36711Y-12441D01*
X36701Y-12417D01*
X36686Y-12403D01*
X36701Y-12388D01*
X36711Y-12364D01*
X37036Y-12364D01*
X37107Y-12350D01*
X37168Y-12309D01*
X37758Y-11719D01*
X37799Y-11658D01*
X37813Y-11586D01*
X37813Y-9190D01*
X37877Y-9163D01*
X38002Y-9039D01*
X38069Y-8876D01*
X38069Y-8699D01*
X38002Y-8536D01*
X37877Y-8411D01*
X37714Y-8343D01*
X37707Y-8343D01*
X37767Y-8207D01*
X37772Y-7990D01*
X37693Y-7788D01*
X37679Y-7767D01*
X37579Y-7743D01*
X37567Y-7756D01*
X37567Y-7731D01*
X37543Y-7631D01*
X37345Y-7543D01*
X37128Y-7538D01*
X36926Y-7617D01*
X36904Y-7631D01*
X36881Y-7731D01*
X37224Y-8073D01*
X37567Y-7731D01*
X37567Y-7756D01*
X37237Y-8086D01*
X37242Y-8092D01*
X37229Y-8104D01*
X37224Y-8099D01*
X37218Y-8104D01*
X37206Y-8092D01*
X37211Y-8086D01*
X36868Y-7743D01*
X36769Y-7767D01*
X36757Y-7793D01*
X36673Y-7709D01*
X36510Y-7641D01*
X36333Y-7641D01*
X36169Y-7708D01*
X36088Y-7789D01*
X36087Y-7788D01*
X36073Y-7767D01*
X35973Y-7743D01*
X35960Y-7756D01*
X35960Y-7731D01*
X35937Y-7631D01*
X35739Y-7543D01*
X35522Y-7538D01*
X35319Y-7617D01*
X35298Y-7631D01*
X35275Y-7731D01*
X35618Y-8073D01*
X35960Y-7731D01*
X35960Y-7756D01*
X35630Y-8086D01*
X35636Y-8092D01*
X35623Y-8104D01*
X35618Y-8099D01*
X35612Y-8104D01*
X35599Y-8092D01*
X35605Y-8086D01*
X35262Y-7743D01*
X35162Y-7767D01*
X35151Y-7793D01*
X35067Y-7709D01*
X34903Y-7641D01*
X34726Y-7641D01*
X34589Y-7697D01*
X34589Y-6914D01*
X34457Y-6595D01*
X34213Y-6350D01*
X33893Y-6218D01*
X33548Y-6217D01*
X33229Y-6349D01*
X32984Y-6594D01*
X32852Y-6913D01*
X32851Y-7258D01*
X32983Y-7577D01*
X33162Y-7757D01*
X32901Y-7750D01*
X32648Y-7847D01*
X32617Y-7868D01*
X32577Y-7982D01*
X33019Y-8424D01*
X33461Y-7982D01*
X33435Y-7908D01*
X33546Y-7954D01*
X33892Y-7955D01*
X34211Y-7823D01*
X34456Y-7579D01*
X34588Y-7260D01*
X34589Y-6914D01*
X34589Y-7697D01*
X34562Y-7708D01*
X34437Y-7833D01*
X34369Y-7997D01*
X34369Y-8174D01*
X34437Y-8338D01*
X34562Y-8464D01*
X34725Y-8532D01*
X34843Y-8532D01*
X34840Y-8535D01*
X34772Y-8698D01*
X34772Y-8875D01*
X34839Y-9038D01*
X34964Y-9163D01*
X35028Y-9190D01*
X35028Y-11791D01*
X35043Y-11863D01*
X35083Y-11924D01*
X35468Y-12309D01*
X35468Y-12309D01*
X35529Y-12350D01*
X35529Y-12350D01*
X35601Y-12364D01*
X35601Y-12364D01*
X35730Y-12364D01*
X35740Y-12388D01*
X35755Y-12403D01*
X35740Y-12417D01*
X35718Y-12471D01*
X35718Y-12530D01*
X35718Y-12786D01*
X35737Y-12834D01*
X35737Y-13799D01*
X35751Y-13871D01*
X35792Y-13932D01*
X36384Y-14524D01*
X36445Y-14565D01*
X36445Y-14565D01*
X36517Y-14579D01*
X37128Y-14579D01*
X37061Y-14607D01*
X36970Y-14698D01*
X36920Y-14817D01*
X36920Y-14945D01*
X36969Y-15064D01*
X37060Y-15155D01*
X37179Y-15205D01*
X37308Y-15205D01*
X37427Y-15156D01*
X37503Y-15079D01*
X37545Y-15079D01*
X37551Y-15093D01*
X37592Y-15135D01*
X37607Y-15141D01*
X37593Y-15147D01*
X37551Y-15189D01*
X37528Y-15243D01*
X37528Y-15303D01*
X37528Y-15539D01*
X37551Y-15593D01*
X37592Y-15635D01*
X37607Y-15641D01*
X37593Y-15647D01*
X37551Y-15689D01*
X37545Y-15703D01*
X34895Y-15703D01*
X34889Y-15689D01*
X34847Y-15647D01*
X34833Y-15641D01*
X34847Y-15635D01*
X34889Y-15594D01*
X34912Y-15539D01*
X34912Y-15480D01*
X34912Y-15244D01*
X34889Y-15189D01*
X34847Y-15147D01*
X34833Y-15141D01*
X34847Y-15135D01*
X34889Y-15094D01*
X34895Y-15079D01*
X34937Y-15079D01*
X35013Y-15155D01*
X35132Y-15205D01*
X35260Y-15205D01*
X35379Y-15156D01*
X35470Y-15065D01*
X35520Y-14946D01*
X35520Y-14817D01*
X35471Y-14698D01*
X35380Y-14607D01*
X35261Y-14558D01*
X35132Y-14558D01*
X35013Y-14607D01*
X34922Y-14698D01*
X34920Y-14703D01*
X34895Y-14703D01*
X34889Y-14689D01*
X34847Y-14647D01*
X34833Y-14641D01*
X34847Y-14635D01*
X34889Y-14594D01*
X34912Y-14539D01*
X34912Y-14480D01*
X34912Y-14244D01*
X34889Y-14189D01*
X34847Y-14147D01*
X34833Y-14141D01*
X34847Y-14135D01*
X34889Y-14094D01*
X34895Y-14079D01*
X34922Y-14079D01*
X34922Y-14080D01*
X35013Y-14171D01*
X35132Y-14221D01*
X35260Y-14221D01*
X35379Y-14171D01*
X35470Y-14081D01*
X35520Y-13962D01*
X35520Y-13833D01*
X35471Y-13714D01*
X35380Y-13623D01*
X35261Y-13574D01*
X35132Y-13574D01*
X35013Y-13623D01*
X34933Y-13703D01*
X34895Y-13703D01*
X34889Y-13689D01*
X34847Y-13647D01*
X34793Y-13625D01*
X34734Y-13625D01*
X33946Y-13625D01*
X33892Y-13647D01*
X33850Y-13689D01*
X33844Y-13703D01*
X33706Y-13703D01*
X33706Y-8319D01*
X33608Y-8065D01*
X33588Y-8035D01*
X33474Y-7995D01*
X33032Y-8437D01*
X33474Y-8878D01*
X33588Y-8839D01*
X33698Y-8590D01*
X33706Y-8319D01*
X33706Y-13703D01*
X33461Y-13703D01*
X33461Y-8891D01*
X33019Y-8449D01*
X33006Y-8462D01*
X33006Y-8437D01*
X32565Y-7995D01*
X32450Y-8035D01*
X32340Y-8283D01*
X32333Y-8554D01*
X32430Y-8808D01*
X32450Y-8839D01*
X32565Y-8878D01*
X33006Y-8437D01*
X33006Y-8462D01*
X32577Y-8891D01*
X32617Y-9005D01*
X32865Y-9116D01*
X33137Y-9123D01*
X33391Y-9026D01*
X33421Y-9005D01*
X33461Y-8891D01*
X33461Y-13703D01*
X33042Y-13703D01*
X33030Y-13675D01*
X32939Y-13584D01*
X32820Y-13534D01*
X32691Y-13534D01*
X32572Y-13583D01*
X32481Y-13674D01*
X32432Y-13793D01*
X32432Y-13922D01*
X32481Y-14041D01*
X32572Y-14132D01*
X32691Y-14181D01*
X32819Y-14181D01*
X32938Y-14132D01*
X32992Y-14079D01*
X33844Y-14079D01*
X33850Y-14093D01*
X33892Y-14135D01*
X33906Y-14141D01*
X33892Y-14147D01*
X33850Y-14189D01*
X33844Y-14203D01*
X32233Y-14203D01*
X32233Y-8319D01*
X32136Y-8065D01*
X32115Y-8035D01*
X32001Y-7995D01*
X31989Y-8007D01*
X31989Y-7982D01*
X31949Y-7868D01*
X31701Y-7757D01*
X31429Y-7750D01*
X31398Y-7762D01*
X31582Y-7579D01*
X31714Y-7260D01*
X31715Y-6914D01*
X31583Y-6595D01*
X31339Y-6350D01*
X31019Y-6218D01*
X30674Y-6217D01*
X30355Y-6349D01*
X30110Y-6594D01*
X29978Y-6913D01*
X29977Y-7258D01*
X30109Y-7577D01*
X30353Y-7822D01*
X30672Y-7954D01*
X31018Y-7955D01*
X31131Y-7908D01*
X31105Y-7982D01*
X31547Y-8424D01*
X31989Y-7982D01*
X31989Y-8007D01*
X31560Y-8437D01*
X32001Y-8878D01*
X32115Y-8839D01*
X32226Y-8590D01*
X32233Y-8319D01*
X32233Y-14203D01*
X31989Y-14203D01*
X31989Y-8891D01*
X31547Y-8449D01*
X31534Y-8462D01*
X31534Y-8437D01*
X31092Y-7995D01*
X30978Y-8035D01*
X30867Y-8283D01*
X30860Y-8554D01*
X30958Y-8808D01*
X30978Y-8839D01*
X31092Y-8878D01*
X31534Y-8437D01*
X31534Y-8462D01*
X31105Y-8891D01*
X31145Y-9005D01*
X31393Y-9116D01*
X31665Y-9123D01*
X31918Y-9026D01*
X31949Y-9005D01*
X31989Y-8891D01*
X31989Y-14203D01*
X29508Y-14203D01*
X28830Y-13525D01*
X28830Y-12834D01*
X28849Y-12787D01*
X28849Y-12728D01*
X28849Y-12472D01*
X28827Y-12417D01*
X28812Y-12403D01*
X28827Y-12388D01*
X28837Y-12364D01*
X29162Y-12364D01*
X29233Y-12350D01*
X29294Y-12309D01*
X29884Y-11719D01*
X29925Y-11658D01*
X29939Y-11586D01*
X29939Y-9190D01*
X30003Y-9163D01*
X30128Y-9039D01*
X30195Y-8876D01*
X30195Y-8699D01*
X30128Y-8536D01*
X30003Y-8411D01*
X29840Y-8343D01*
X29833Y-8343D01*
X29893Y-8207D01*
X29898Y-7990D01*
X29819Y-7788D01*
X29805Y-7767D01*
X29705Y-7743D01*
X29693Y-7756D01*
X29693Y-7731D01*
X29669Y-7631D01*
X29471Y-7543D01*
X29254Y-7538D01*
X29052Y-7617D01*
X29030Y-7631D01*
X29007Y-7731D01*
X29350Y-8073D01*
X29693Y-7731D01*
X29693Y-7756D01*
X29363Y-8086D01*
X29368Y-8092D01*
X29355Y-8104D01*
X29350Y-8099D01*
X29344Y-8104D01*
X29332Y-8092D01*
X29337Y-8086D01*
X28994Y-7743D01*
X28895Y-7767D01*
X28883Y-7793D01*
X28799Y-7709D01*
X28636Y-7641D01*
X28459Y-7641D01*
X28295Y-7708D01*
X28214Y-7789D01*
X28213Y-7788D01*
X28199Y-7767D01*
X28099Y-7743D01*
X28086Y-7756D01*
X28086Y-7731D01*
X28063Y-7631D01*
X27865Y-7543D01*
X27648Y-7538D01*
X27445Y-7617D01*
X27424Y-7631D01*
X27401Y-7731D01*
X27744Y-8073D01*
X28086Y-7731D01*
X28086Y-7756D01*
X27756Y-8086D01*
X27762Y-8092D01*
X27749Y-8104D01*
X27744Y-8099D01*
X27738Y-8104D01*
X27725Y-8092D01*
X27731Y-8086D01*
X27388Y-7743D01*
X27288Y-7767D01*
X27277Y-7793D01*
X27193Y-7709D01*
X27029Y-7641D01*
X26852Y-7641D01*
X26715Y-7697D01*
X26715Y-6914D01*
X26583Y-6595D01*
X26339Y-6350D01*
X26019Y-6218D01*
X25674Y-6217D01*
X25355Y-6349D01*
X25110Y-6594D01*
X24978Y-6913D01*
X24977Y-7258D01*
X25109Y-7577D01*
X25288Y-7757D01*
X25027Y-7750D01*
X24774Y-7847D01*
X24743Y-7868D01*
X24703Y-7982D01*
X25145Y-8424D01*
X25587Y-7982D01*
X25561Y-7908D01*
X25672Y-7954D01*
X26018Y-7955D01*
X26337Y-7823D01*
X26582Y-7579D01*
X26714Y-7260D01*
X26715Y-6914D01*
X26715Y-7697D01*
X26688Y-7708D01*
X26563Y-7833D01*
X26495Y-7997D01*
X26495Y-8174D01*
X26563Y-8338D01*
X26688Y-8464D01*
X26851Y-8532D01*
X26969Y-8532D01*
X26966Y-8535D01*
X26898Y-8698D01*
X26898Y-8875D01*
X26965Y-9038D01*
X27090Y-9163D01*
X27154Y-9190D01*
X27154Y-11791D01*
X27169Y-11863D01*
X27209Y-11924D01*
X27594Y-12309D01*
X27594Y-12309D01*
X27655Y-12350D01*
X27655Y-12350D01*
X27727Y-12364D01*
X27727Y-12364D01*
X27856Y-12364D01*
X27866Y-12388D01*
X27881Y-12403D01*
X27866Y-12417D01*
X27844Y-12471D01*
X27844Y-12530D01*
X27844Y-12786D01*
X27863Y-12834D01*
X27863Y-15059D01*
X27877Y-15131D01*
X27918Y-15192D01*
X30251Y-17524D01*
X30311Y-17565D01*
X30311Y-17565D01*
X30383Y-17579D01*
X33816Y-17579D01*
X33764Y-17632D01*
X33726Y-17724D01*
X33726Y-17820D01*
X33788Y-17882D01*
X34361Y-17882D01*
X34361Y-17874D01*
X34379Y-17874D01*
X34379Y-17882D01*
X34951Y-17882D01*
X35013Y-17820D01*
X35013Y-17724D01*
X34975Y-17632D01*
X34905Y-17561D01*
X34903Y-17560D01*
X34912Y-17539D01*
X34912Y-17480D01*
X34912Y-17244D01*
X34889Y-17189D01*
X34847Y-17147D01*
X34833Y-17141D01*
X34847Y-17135D01*
X34889Y-17094D01*
X34896Y-17077D01*
X35275Y-17077D01*
X35347Y-17063D01*
X35408Y-17022D01*
X35825Y-16605D01*
X36974Y-16605D01*
X37060Y-16691D01*
X37090Y-16703D01*
X36295Y-16703D01*
X36246Y-16655D01*
X36127Y-16605D01*
X35998Y-16605D01*
X35880Y-16654D01*
X35788Y-16745D01*
X35739Y-16864D01*
X35739Y-16993D01*
X35788Y-17112D01*
X35879Y-17203D01*
X35998Y-17252D01*
X36127Y-17252D01*
X36245Y-17203D01*
X36337Y-17112D01*
X36350Y-17079D01*
X37545Y-17079D01*
X37551Y-17093D01*
X37592Y-17135D01*
X37607Y-17141D01*
X37593Y-17147D01*
X37551Y-17189D01*
X37528Y-17243D01*
X37528Y-17303D01*
X37528Y-17539D01*
X37551Y-17593D01*
X37592Y-17635D01*
X37607Y-17641D01*
X37593Y-17647D01*
X37551Y-17689D01*
X37545Y-17703D01*
X36901Y-17703D01*
X36836Y-17639D01*
X36718Y-17590D01*
X36589Y-17589D01*
X36470Y-17639D01*
X36379Y-17729D01*
X36330Y-17848D01*
X36330Y-17977D01*
X36379Y-18096D01*
X36470Y-18187D01*
X36588Y-18236D01*
X36717Y-18236D01*
X36836Y-18187D01*
X36927Y-18096D01*
X36934Y-18079D01*
X37517Y-18079D01*
X37465Y-18132D01*
X37427Y-18224D01*
X37427Y-18320D01*
X37489Y-18382D01*
X38061Y-18382D01*
X38061Y-18374D01*
X38079Y-18374D01*
X38079Y-18382D01*
X38652Y-18382D01*
X38714Y-18320D01*
X38714Y-18224D01*
X38676Y-18132D01*
X38624Y-18079D01*
X39310Y-18079D01*
X39497Y-18266D01*
X39497Y-18347D01*
X38714Y-19130D01*
X38714Y-18559D01*
X38714Y-18463D01*
X38652Y-18400D01*
X38079Y-18400D01*
X38079Y-18697D01*
X38142Y-18759D01*
X38415Y-18759D01*
X38514Y-18759D01*
X38606Y-18721D01*
X38676Y-18651D01*
X38714Y-18559D01*
X38714Y-19130D01*
X38583Y-19261D01*
X38061Y-19261D01*
X38061Y-18697D01*
X38061Y-18400D01*
X37489Y-18400D01*
X37427Y-18463D01*
X37427Y-18559D01*
X37465Y-18651D01*
X37535Y-18721D01*
X37627Y-18759D01*
X37726Y-18759D01*
X37999Y-18759D01*
X38061Y-18697D01*
X38061Y-19261D01*
X35013Y-19261D01*
X35013Y-18059D01*
X35013Y-17963D01*
X34951Y-17900D01*
X34379Y-17900D01*
X34379Y-17908D01*
X34361Y-17908D01*
X34361Y-17900D01*
X33788Y-17900D01*
X33726Y-17963D01*
X33726Y-18059D01*
X33761Y-18143D01*
X33554Y-18143D01*
X33450Y-18100D01*
X33321Y-18100D01*
X33201Y-18149D01*
X33110Y-18240D01*
X33060Y-18360D01*
X33060Y-18489D01*
X33110Y-18609D01*
X33201Y-18700D01*
X33320Y-18750D01*
X33450Y-18750D01*
X33569Y-18700D01*
X33630Y-18640D01*
X33899Y-18640D01*
X33946Y-18659D01*
X34006Y-18659D01*
X34793Y-18659D01*
X34848Y-18637D01*
X34890Y-18594D01*
X34913Y-18539D01*
X34913Y-18480D01*
X34913Y-18243D01*
X34904Y-18222D01*
X34905Y-18221D01*
X34975Y-18151D01*
X35013Y-18059D01*
X35013Y-19261D01*
X27795Y-19261D01*
X27723Y-19275D01*
X27662Y-19316D01*
X27662Y-19316D01*
X27662Y-19316D01*
X26819Y-20158D01*
X25816Y-20158D01*
X25789Y-20095D01*
X25665Y-19970D01*
X25502Y-19902D01*
X25325Y-19902D01*
X25162Y-19969D01*
X25037Y-20094D01*
X25011Y-20155D01*
X24986Y-20095D01*
X24862Y-19970D01*
X24798Y-19943D01*
X24798Y-19877D01*
X27776Y-16898D01*
X27898Y-16898D01*
X28017Y-16849D01*
X28108Y-16758D01*
X28158Y-16639D01*
X28158Y-16516D01*
X28439Y-16235D01*
X28480Y-16174D01*
X28480Y-16174D01*
X28494Y-16102D01*
X28494Y-15905D01*
X28494Y-15905D01*
X28480Y-15833D01*
X28480Y-15833D01*
X28439Y-15772D01*
X28439Y-15772D01*
X25832Y-13164D01*
X25832Y-8319D01*
X25734Y-8065D01*
X25714Y-8035D01*
X25600Y-7995D01*
X25158Y-8437D01*
X25600Y-8878D01*
X25714Y-8839D01*
X25824Y-8590D01*
X25832Y-8319D01*
X25832Y-13164D01*
X25587Y-12920D01*
X25587Y-8891D01*
X25145Y-8449D01*
X25132Y-8462D01*
X25132Y-8437D01*
X24691Y-7995D01*
X24576Y-8035D01*
X24466Y-8283D01*
X24459Y-8554D01*
X24556Y-8808D01*
X24576Y-8839D01*
X24691Y-8878D01*
X25132Y-8437D01*
X25132Y-8462D01*
X24703Y-8891D01*
X24743Y-9005D01*
X24991Y-9116D01*
X25263Y-9123D01*
X25517Y-9026D01*
X25547Y-9005D01*
X25587Y-8891D01*
X25587Y-12920D01*
X25250Y-12583D01*
X25189Y-12543D01*
X25118Y-12528D01*
X24409Y-12528D01*
X24359Y-12538D01*
X24359Y-8319D01*
X24262Y-8065D01*
X24241Y-8035D01*
X24127Y-7995D01*
X24115Y-8007D01*
X24115Y-7982D01*
X24075Y-7868D01*
X23826Y-7757D01*
X23555Y-7750D01*
X23524Y-7762D01*
X23708Y-7579D01*
X23840Y-7260D01*
X23841Y-6914D01*
X23709Y-6595D01*
X23465Y-6350D01*
X23145Y-6218D01*
X22800Y-6217D01*
X22481Y-6349D01*
X22236Y-6594D01*
X22104Y-6913D01*
X22103Y-7258D01*
X22235Y-7577D01*
X22479Y-7822D01*
X22798Y-7954D01*
X23144Y-7955D01*
X23257Y-7908D01*
X23231Y-7982D01*
X23673Y-8424D01*
X24115Y-7982D01*
X24115Y-8007D01*
X23686Y-8437D01*
X24127Y-8878D01*
X24241Y-8839D01*
X24352Y-8590D01*
X24359Y-8319D01*
X24359Y-12538D01*
X24337Y-12543D01*
X24276Y-12583D01*
X24115Y-12745D01*
X24115Y-8891D01*
X23673Y-8449D01*
X23660Y-8462D01*
X23660Y-8437D01*
X23218Y-7995D01*
X23104Y-8035D01*
X22993Y-8283D01*
X22986Y-8554D01*
X23084Y-8808D01*
X23104Y-8839D01*
X23218Y-8878D01*
X23660Y-8437D01*
X23660Y-8462D01*
X23231Y-8891D01*
X23271Y-9005D01*
X23519Y-9116D01*
X23791Y-9123D01*
X24044Y-9026D01*
X24075Y-9005D01*
X24115Y-8891D01*
X24115Y-12745D01*
X23804Y-13056D01*
X23763Y-13117D01*
X23749Y-13188D01*
X23749Y-13667D01*
X23702Y-13714D01*
X23653Y-13833D01*
X23652Y-13961D01*
X23702Y-14080D01*
X23792Y-14171D01*
X23911Y-14221D01*
X24040Y-14221D01*
X24159Y-14171D01*
X24250Y-14081D01*
X24299Y-13962D01*
X24299Y-13833D01*
X24250Y-13714D01*
X24159Y-13623D01*
X24124Y-13609D01*
X24124Y-13266D01*
X24487Y-12904D01*
X25040Y-12904D01*
X27705Y-15569D01*
X27651Y-15591D01*
X27564Y-15678D01*
X27006Y-15678D01*
X24850Y-13522D01*
X24851Y-13400D01*
X24801Y-13281D01*
X24711Y-13190D01*
X24592Y-13141D01*
X24463Y-13141D01*
X24344Y-13190D01*
X24253Y-13281D01*
X24204Y-13399D01*
X24204Y-13528D01*
X24253Y-13647D01*
X24344Y-13738D01*
X24462Y-13787D01*
X24585Y-13788D01*
X26796Y-15998D01*
X26796Y-15998D01*
X26857Y-16039D01*
X26857Y-16039D01*
X26914Y-16051D01*
X26929Y-16053D01*
X26929Y-16053D01*
X26929Y-16053D01*
X27381Y-16053D01*
X23674Y-19760D01*
X23633Y-19821D01*
X23619Y-19893D01*
X23619Y-19943D01*
X23555Y-19969D01*
X23430Y-20094D01*
X23405Y-20155D01*
X23380Y-20095D01*
X23258Y-19973D01*
X23258Y-17400D01*
X24132Y-16526D01*
X26344Y-16526D01*
X26430Y-16612D01*
X26549Y-16661D01*
X26678Y-16662D01*
X26797Y-16612D01*
X26888Y-16522D01*
X26937Y-16403D01*
X26937Y-16274D01*
X26888Y-16155D01*
X26797Y-16064D01*
X26678Y-16015D01*
X26550Y-16015D01*
X26431Y-16064D01*
X26344Y-16150D01*
X24055Y-16150D01*
X23983Y-16165D01*
X23922Y-16205D01*
X23922Y-16205D01*
X23922Y-16205D01*
X22938Y-17190D01*
X22897Y-17250D01*
X22883Y-17322D01*
X22883Y-19916D01*
X22752Y-19969D01*
X22627Y-20094D01*
X22601Y-20158D01*
X21920Y-20158D01*
X21668Y-19906D01*
X21607Y-19865D01*
X21535Y-19851D01*
X19029Y-19851D01*
X19029Y-19543D01*
X19029Y-19447D01*
X18967Y-19385D01*
X18394Y-19385D01*
X18394Y-19681D01*
X18457Y-19744D01*
X18730Y-19744D01*
X18829Y-19744D01*
X18921Y-19705D01*
X18991Y-19635D01*
X19029Y-19543D01*
X19029Y-19851D01*
X18376Y-19851D01*
X18376Y-19681D01*
X18376Y-19385D01*
X17804Y-19385D01*
X17742Y-19447D01*
X17742Y-19543D01*
X17780Y-19635D01*
X17850Y-19705D01*
X17942Y-19744D01*
X18041Y-19744D01*
X18314Y-19744D01*
X18376Y-19681D01*
X18376Y-19851D01*
X17715Y-19851D01*
X17045Y-19181D01*
X17071Y-19181D01*
X17190Y-19132D01*
X17259Y-19063D01*
X17832Y-19063D01*
X17780Y-19116D01*
X17742Y-19208D01*
X17742Y-19304D01*
X17804Y-19366D01*
X18376Y-19366D01*
X18376Y-19359D01*
X18394Y-19359D01*
X18394Y-19366D01*
X18967Y-19366D01*
X19029Y-19304D01*
X19029Y-19208D01*
X18991Y-19116D01*
X18921Y-19046D01*
X18919Y-19045D01*
X18927Y-19023D01*
X18927Y-18964D01*
X18927Y-18728D01*
X18905Y-18673D01*
X18863Y-18632D01*
X18848Y-18625D01*
X18863Y-18619D01*
X18905Y-18578D01*
X18911Y-18563D01*
X19340Y-18563D01*
X19412Y-18549D01*
X19473Y-18508D01*
X20901Y-17080D01*
X20941Y-17019D01*
X20941Y-17019D01*
X20956Y-16948D01*
X20956Y-12834D01*
X20975Y-12787D01*
X20975Y-12728D01*
X20975Y-12472D01*
X20953Y-12417D01*
X20938Y-12403D01*
X20953Y-12388D01*
X20963Y-12364D01*
X21091Y-12364D01*
X21163Y-12350D01*
X21223Y-12309D01*
X22010Y-11522D01*
X22010Y-11522D01*
X22010Y-11522D01*
X22051Y-11461D01*
X22051Y-11461D01*
X22062Y-11404D01*
X22065Y-11389D01*
X22065Y-11389D01*
X22065Y-11389D01*
X22065Y-9190D01*
X22129Y-9163D01*
X22254Y-9039D01*
X22321Y-8876D01*
X22321Y-8699D01*
X22254Y-8536D01*
X22129Y-8411D01*
X21966Y-8343D01*
X21959Y-8343D01*
X22019Y-8207D01*
X22024Y-7990D01*
X21945Y-7788D01*
X21931Y-7767D01*
X21831Y-7743D01*
X21819Y-7756D01*
X21819Y-7731D01*
X21795Y-7631D01*
X21597Y-7543D01*
X21380Y-7538D01*
X21178Y-7617D01*
X21156Y-7631D01*
X21133Y-7731D01*
X21476Y-8073D01*
X21819Y-7731D01*
X21819Y-7756D01*
X21489Y-8086D01*
X21494Y-8092D01*
X21481Y-8104D01*
X21476Y-8099D01*
X21470Y-8104D01*
X21458Y-8092D01*
X21463Y-8086D01*
X21120Y-7743D01*
X21021Y-7767D01*
X21009Y-7793D01*
X20925Y-7709D01*
X20762Y-7641D01*
X20585Y-7641D01*
X20421Y-7708D01*
X20340Y-7789D01*
X20339Y-7788D01*
X20325Y-7767D01*
X20225Y-7743D01*
X20212Y-7756D01*
X20212Y-7731D01*
X20189Y-7631D01*
X19991Y-7543D01*
X19774Y-7538D01*
X19571Y-7617D01*
X19550Y-7631D01*
X19527Y-7731D01*
X19870Y-8073D01*
X20212Y-7731D01*
X20212Y-7756D01*
X19882Y-8086D01*
X19888Y-8092D01*
X19875Y-8104D01*
X19870Y-8099D01*
X19864Y-8104D01*
X19851Y-8092D01*
X19857Y-8086D01*
X19514Y-7743D01*
X19414Y-7767D01*
X19403Y-7793D01*
X19319Y-7709D01*
X19155Y-7641D01*
X18978Y-7641D01*
X18841Y-7697D01*
X18841Y-6914D01*
X18709Y-6595D01*
X18465Y-6350D01*
X18145Y-6218D01*
X17800Y-6217D01*
X17481Y-6349D01*
X17236Y-6594D01*
X17104Y-6913D01*
X17103Y-7258D01*
X17235Y-7577D01*
X17414Y-7757D01*
X17153Y-7750D01*
X16900Y-7847D01*
X16869Y-7868D01*
X16829Y-7982D01*
X17271Y-8424D01*
X17713Y-7982D01*
X17687Y-7908D01*
X17798Y-7954D01*
X18144Y-7955D01*
X18463Y-7823D01*
X18708Y-7579D01*
X18840Y-7260D01*
X18841Y-6914D01*
X18841Y-7697D01*
X18814Y-7708D01*
X18689Y-7833D01*
X18621Y-7997D01*
X18621Y-8174D01*
X18689Y-8338D01*
X18814Y-8464D01*
X18977Y-8532D01*
X19095Y-8532D01*
X19092Y-8535D01*
X19024Y-8698D01*
X19024Y-8875D01*
X19091Y-9038D01*
X19216Y-9163D01*
X19280Y-9190D01*
X19280Y-11909D01*
X19295Y-11981D01*
X19335Y-12042D01*
X19602Y-12309D01*
X19602Y-12309D01*
X19663Y-12350D01*
X19663Y-12350D01*
X19735Y-12364D01*
X19735Y-12364D01*
X19982Y-12364D01*
X19992Y-12388D01*
X20007Y-12403D01*
X19992Y-12417D01*
X19970Y-12471D01*
X19969Y-12530D01*
X19969Y-12786D01*
X19989Y-12834D01*
X19989Y-14469D01*
X19270Y-15188D01*
X18939Y-15188D01*
X18991Y-15135D01*
X19029Y-15043D01*
X19029Y-14708D01*
X18991Y-14616D01*
X18921Y-14546D01*
X18829Y-14507D01*
X18730Y-14507D01*
X18457Y-14507D01*
X18394Y-14570D01*
X18394Y-14866D01*
X18967Y-14866D01*
X19029Y-14804D01*
X19029Y-14708D01*
X19029Y-15043D01*
X19029Y-14947D01*
X18967Y-14885D01*
X18394Y-14885D01*
X18394Y-14892D01*
X18376Y-14892D01*
X18376Y-14885D01*
X18376Y-14866D01*
X18376Y-14570D01*
X18314Y-14507D01*
X18041Y-14507D01*
X17958Y-14507D01*
X17958Y-8319D01*
X17860Y-8065D01*
X17840Y-8035D01*
X17726Y-7995D01*
X17284Y-8437D01*
X17726Y-8878D01*
X17840Y-8839D01*
X17950Y-8590D01*
X17958Y-8319D01*
X17958Y-14507D01*
X17942Y-14507D01*
X17850Y-14546D01*
X17780Y-14616D01*
X17742Y-14708D01*
X17742Y-14804D01*
X17804Y-14866D01*
X18376Y-14866D01*
X18376Y-14885D01*
X17804Y-14885D01*
X17742Y-14947D01*
X17742Y-15043D01*
X17780Y-15135D01*
X17850Y-15205D01*
X17852Y-15206D01*
X17843Y-15228D01*
X17843Y-15287D01*
X17843Y-15523D01*
X17866Y-15578D01*
X17907Y-15619D01*
X17922Y-15625D01*
X17908Y-15631D01*
X17866Y-15673D01*
X17860Y-15688D01*
X17835Y-15688D01*
X17833Y-15683D01*
X17742Y-15592D01*
X17713Y-15580D01*
X17713Y-8891D01*
X17271Y-8449D01*
X17258Y-8462D01*
X17258Y-8437D01*
X16817Y-7995D01*
X16702Y-8035D01*
X16592Y-8283D01*
X16585Y-8554D01*
X16682Y-8808D01*
X16702Y-8839D01*
X16817Y-8878D01*
X17258Y-8437D01*
X17258Y-8462D01*
X16829Y-8891D01*
X16869Y-9005D01*
X17117Y-9116D01*
X17389Y-9123D01*
X17643Y-9026D01*
X17673Y-9005D01*
X17713Y-8891D01*
X17713Y-15580D01*
X17623Y-15542D01*
X17495Y-15542D01*
X17376Y-15591D01*
X17285Y-15682D01*
X17235Y-15801D01*
X17235Y-15930D01*
X17284Y-16049D01*
X17375Y-16140D01*
X17494Y-16189D01*
X17623Y-16189D01*
X17742Y-16140D01*
X17818Y-16063D01*
X17860Y-16063D01*
X17866Y-16078D01*
X17907Y-16119D01*
X17922Y-16125D01*
X17908Y-16131D01*
X17866Y-16173D01*
X17843Y-16228D01*
X17843Y-16287D01*
X17843Y-16523D01*
X17866Y-16578D01*
X17907Y-16619D01*
X17922Y-16625D01*
X17908Y-16631D01*
X17866Y-16673D01*
X17860Y-16688D01*
X16485Y-16688D01*
X16485Y-8319D01*
X16388Y-8065D01*
X16367Y-8035D01*
X16253Y-7995D01*
X16241Y-8007D01*
X16241Y-7982D01*
X16201Y-7868D01*
X15952Y-7757D01*
X15681Y-7750D01*
X15650Y-7762D01*
X15834Y-7579D01*
X15966Y-7260D01*
X15967Y-6914D01*
X15835Y-6595D01*
X15591Y-6350D01*
X15271Y-6218D01*
X14926Y-6217D01*
X14607Y-6349D01*
X14362Y-6594D01*
X14230Y-6913D01*
X14229Y-7258D01*
X14361Y-7577D01*
X14605Y-7822D01*
X14924Y-7954D01*
X15270Y-7955D01*
X15383Y-7908D01*
X15357Y-7982D01*
X15799Y-8424D01*
X16241Y-7982D01*
X16241Y-8007D01*
X15812Y-8437D01*
X16253Y-8878D01*
X16367Y-8839D01*
X16478Y-8590D01*
X16485Y-8319D01*
X16485Y-16688D01*
X16241Y-16688D01*
X16241Y-8891D01*
X15799Y-8449D01*
X15786Y-8462D01*
X15786Y-8437D01*
X15344Y-7995D01*
X15230Y-8035D01*
X15119Y-8283D01*
X15112Y-8554D01*
X15210Y-8808D01*
X15230Y-8839D01*
X15344Y-8878D01*
X15786Y-8437D01*
X15786Y-8462D01*
X15357Y-8891D01*
X15397Y-9005D01*
X15645Y-9116D01*
X15917Y-9123D01*
X16170Y-9026D01*
X16201Y-9005D01*
X16241Y-8891D01*
X16241Y-16688D01*
X15210Y-16688D01*
X15204Y-16673D01*
X15162Y-16632D01*
X15148Y-16625D01*
X15162Y-16619D01*
X15204Y-16578D01*
X15227Y-16523D01*
X15227Y-16464D01*
X15227Y-16228D01*
X15204Y-16173D01*
X15162Y-16132D01*
X15148Y-16125D01*
X15162Y-16119D01*
X15204Y-16078D01*
X15210Y-16063D01*
X15252Y-16063D01*
X15328Y-16140D01*
X15447Y-16189D01*
X15575Y-16189D01*
X15694Y-16140D01*
X15785Y-16049D01*
X15835Y-15930D01*
X15835Y-15802D01*
X15786Y-15683D01*
X15695Y-15592D01*
X15576Y-15542D01*
X15447Y-15542D01*
X15328Y-15591D01*
X15237Y-15682D01*
X15235Y-15688D01*
X15210Y-15688D01*
X15204Y-15673D01*
X15162Y-15632D01*
X15148Y-15625D01*
X15162Y-15619D01*
X15204Y-15578D01*
X15227Y-15523D01*
X15227Y-15464D01*
X15227Y-15228D01*
X15204Y-15173D01*
X15162Y-15132D01*
X15148Y-15125D01*
X15162Y-15119D01*
X15188Y-15094D01*
X15249Y-15155D01*
X15368Y-15205D01*
X15497Y-15205D01*
X15616Y-15156D01*
X15707Y-15065D01*
X15756Y-14946D01*
X15756Y-14817D01*
X15707Y-14698D01*
X15616Y-14607D01*
X15497Y-14558D01*
X15369Y-14558D01*
X15250Y-14607D01*
X15194Y-14663D01*
X15162Y-14632D01*
X15108Y-14609D01*
X15049Y-14609D01*
X14261Y-14609D01*
X14207Y-14631D01*
X14165Y-14673D01*
X14142Y-14728D01*
X14142Y-14787D01*
X14142Y-15023D01*
X14165Y-15078D01*
X14207Y-15119D01*
X14221Y-15125D01*
X14207Y-15131D01*
X14165Y-15173D01*
X14159Y-15188D01*
X13957Y-15188D01*
X13082Y-14312D01*
X13082Y-12834D01*
X13101Y-12787D01*
X13101Y-12728D01*
X13101Y-12472D01*
X13079Y-12417D01*
X13064Y-12403D01*
X13079Y-12388D01*
X13089Y-12364D01*
X13413Y-12364D01*
X13485Y-12350D01*
X13546Y-12309D01*
X14136Y-11719D01*
X14177Y-11658D01*
X14191Y-11586D01*
X14191Y-9190D01*
X14255Y-9163D01*
X14380Y-9039D01*
X14447Y-8876D01*
X14447Y-8699D01*
X14380Y-8536D01*
X14255Y-8411D01*
X14092Y-8343D01*
X14085Y-8343D01*
X14145Y-8207D01*
X14150Y-7990D01*
X14071Y-7788D01*
X14057Y-7767D01*
X13957Y-7743D01*
X13944Y-7756D01*
X13944Y-7731D01*
X13921Y-7631D01*
X13723Y-7543D01*
X13506Y-7538D01*
X13304Y-7617D01*
X13282Y-7631D01*
X13259Y-7731D01*
X13602Y-8073D01*
X13944Y-7731D01*
X13944Y-7756D01*
X13615Y-8086D01*
X13620Y-8092D01*
X13607Y-8104D01*
X13602Y-8099D01*
X13596Y-8104D01*
X13583Y-8092D01*
X13589Y-8086D01*
X13246Y-7743D01*
X13147Y-7767D01*
X13135Y-7793D01*
X13051Y-7709D01*
X12888Y-7641D01*
X12710Y-7641D01*
X12547Y-7708D01*
X12466Y-7789D01*
X12465Y-7788D01*
X12451Y-7767D01*
X12351Y-7743D01*
X12338Y-7756D01*
X12338Y-7731D01*
X12315Y-7631D01*
X12117Y-7543D01*
X11900Y-7538D01*
X11697Y-7617D01*
X11676Y-7631D01*
X11653Y-7731D01*
X11996Y-8073D01*
X12338Y-7731D01*
X12338Y-7756D01*
X12008Y-8086D01*
X12014Y-8092D01*
X12001Y-8104D01*
X11996Y-8099D01*
X11990Y-8104D01*
X11977Y-8092D01*
X11983Y-8086D01*
X11640Y-7743D01*
X11540Y-7767D01*
X11529Y-7793D01*
X11445Y-7709D01*
X11281Y-7641D01*
X11104Y-7641D01*
X10967Y-7697D01*
X10967Y-6914D01*
X10835Y-6595D01*
X10591Y-6350D01*
X10271Y-6218D01*
X9926Y-6217D01*
X9607Y-6349D01*
X9362Y-6594D01*
X9230Y-6913D01*
X9229Y-7258D01*
X9361Y-7577D01*
X9540Y-7757D01*
X9279Y-7750D01*
X9026Y-7847D01*
X8995Y-7868D01*
X8955Y-7982D01*
X9397Y-8424D01*
X9839Y-7982D01*
X9813Y-7908D01*
X9924Y-7954D01*
X10270Y-7955D01*
X10589Y-7823D01*
X10834Y-7579D01*
X10966Y-7260D01*
X10967Y-6914D01*
X10967Y-7697D01*
X10940Y-7708D01*
X10815Y-7833D01*
X10813Y-7838D01*
X10811Y-7838D01*
X10715Y-7857D01*
X10689Y-7874D01*
X10635Y-7910D01*
X10080Y-8466D01*
X10084Y-8319D01*
X9986Y-8065D01*
X9966Y-8035D01*
X9852Y-7995D01*
X9410Y-8437D01*
X9416Y-8442D01*
X9403Y-8455D01*
X9397Y-8449D01*
X9384Y-8462D01*
X9384Y-8437D01*
X8943Y-7995D01*
X8828Y-8035D01*
X8718Y-8283D01*
X8711Y-8554D01*
X8808Y-8808D01*
X8828Y-8839D01*
X8943Y-8878D01*
X9384Y-8437D01*
X9384Y-8462D01*
X8955Y-8891D01*
X8995Y-9005D01*
X9243Y-9116D01*
X9425Y-9121D01*
X8024Y-10522D01*
X8024Y-6429D01*
X7822Y-5939D01*
X7447Y-5565D01*
X6958Y-5362D01*
X6429Y-5361D01*
X5939Y-5563D01*
X5565Y-5937D01*
X5362Y-6426D01*
X5361Y-6956D01*
X5563Y-7445D01*
X5937Y-7820D01*
X6426Y-8023D01*
X6956Y-8024D01*
X7445Y-7822D01*
X7820Y-7447D01*
X8023Y-6958D01*
X8024Y-6429D01*
X8024Y-10522D01*
X7107Y-11438D01*
X7053Y-11519D01*
X7035Y-11614D01*
X7035Y-13853D01*
X6963Y-13961D01*
X6936Y-14094D01*
X6936Y-14704D01*
X6936Y-16929D01*
X6963Y-17061D01*
X7038Y-17174D01*
X7392Y-17528D01*
X7505Y-17603D01*
X7637Y-17630D01*
X7940Y-17630D01*
X7962Y-17683D01*
X8005Y-17725D01*
X8018Y-17731D01*
X8018Y-17810D01*
X7126Y-18703D01*
X7072Y-18783D01*
X7053Y-18878D01*
X7053Y-19474D01*
X7042Y-19479D01*
X7000Y-19521D01*
X6977Y-19576D01*
X6977Y-19636D01*
X6977Y-20186D01*
X6999Y-20241D01*
X7042Y-20283D01*
X7053Y-20288D01*
X7053Y-20518D01*
X7047Y-20524D01*
X6997Y-20643D01*
X6997Y-20773D01*
X7047Y-20892D01*
X7138Y-20984D01*
X7257Y-21033D01*
X7387Y-21033D01*
X7506Y-20984D01*
X7598Y-20892D01*
X7647Y-20773D01*
X7647Y-20644D01*
X7598Y-20524D01*
X7550Y-20476D01*
X7550Y-20288D01*
X7562Y-20284D01*
X7604Y-20241D01*
X7627Y-20186D01*
X7627Y-20156D01*
X7627Y-20206D01*
X7665Y-20298D01*
X7735Y-20368D01*
X7827Y-20406D01*
X7980Y-20406D01*
X8043Y-20344D01*
X8043Y-19890D01*
X8035Y-19890D01*
X8035Y-19872D01*
X8043Y-19872D01*
X8043Y-19419D01*
X7980Y-19356D01*
X7827Y-19356D01*
X7735Y-19394D01*
X7665Y-19465D01*
X7627Y-19556D01*
X7627Y-19577D01*
X7604Y-19522D01*
X7562Y-19479D01*
X7550Y-19474D01*
X7550Y-18981D01*
X8442Y-18089D01*
X8442Y-18089D01*
X8478Y-18035D01*
X8496Y-18008D01*
X8496Y-18008D01*
X8515Y-17913D01*
X8515Y-17913D01*
X8515Y-17787D01*
X8539Y-17810D01*
X8631Y-17848D01*
X8786Y-17848D01*
X8849Y-17786D01*
X8849Y-17194D01*
X8841Y-17194D01*
X8841Y-17176D01*
X8849Y-17176D01*
X8849Y-16969D01*
X8849Y-16584D01*
X8849Y-16249D01*
X8849Y-16231D01*
X8849Y-15511D01*
X8786Y-15448D01*
X8415Y-15448D01*
X8323Y-15486D01*
X8252Y-15557D01*
X8214Y-15648D01*
X8214Y-15748D01*
X8214Y-16168D01*
X8277Y-16231D01*
X8849Y-16231D01*
X8849Y-16249D01*
X8277Y-16249D01*
X8214Y-16311D01*
X8214Y-16732D01*
X8214Y-16818D01*
X8060Y-16818D01*
X8005Y-16841D01*
X7963Y-16883D01*
X7940Y-16936D01*
X7781Y-16936D01*
X7630Y-16785D01*
X7630Y-14848D01*
X7843Y-14635D01*
X7843Y-14635D01*
X7843Y-14635D01*
X8138Y-14339D01*
X8214Y-14227D01*
X8240Y-14094D01*
X8240Y-13484D01*
X8214Y-13351D01*
X8138Y-13238D01*
X8026Y-13163D01*
X7893Y-13137D01*
X7760Y-13163D01*
X7648Y-13238D01*
X7531Y-13355D01*
X7531Y-11717D01*
X10862Y-8386D01*
X10940Y-8464D01*
X11103Y-8532D01*
X11221Y-8532D01*
X11218Y-8535D01*
X11150Y-8698D01*
X11150Y-8875D01*
X11217Y-9038D01*
X11342Y-9163D01*
X11406Y-9190D01*
X11406Y-11791D01*
X11420Y-11863D01*
X11461Y-11924D01*
X11846Y-12309D01*
X11846Y-12309D01*
X11907Y-12350D01*
X11907Y-12350D01*
X11979Y-12364D01*
X11979Y-12364D01*
X12108Y-12364D01*
X12118Y-12388D01*
X12133Y-12403D01*
X12118Y-12417D01*
X12096Y-12471D01*
X12095Y-12530D01*
X12095Y-12786D01*
X12115Y-12834D01*
X12115Y-17500D01*
X12129Y-17572D01*
X12170Y-17633D01*
X13046Y-18508D01*
X13107Y-18549D01*
X13179Y-18563D01*
X14131Y-18563D01*
X14079Y-18616D01*
X14041Y-18708D01*
X14041Y-18804D01*
X14103Y-18866D01*
X14675Y-18866D01*
X14675Y-18859D01*
X14694Y-18859D01*
X14694Y-18866D01*
X15266Y-18866D01*
X15328Y-18804D01*
X15328Y-18708D01*
X15290Y-18616D01*
X15220Y-18546D01*
X15218Y-18545D01*
X15227Y-18523D01*
X15227Y-18464D01*
X15227Y-18228D01*
X15204Y-18173D01*
X15162Y-18132D01*
X15148Y-18125D01*
X15162Y-18119D01*
X15181Y-18101D01*
X15242Y-18101D01*
X15328Y-18187D01*
X15447Y-18236D01*
X15569Y-18236D01*
X17505Y-20172D01*
X17565Y-20212D01*
X17637Y-20227D01*
X20726Y-20227D01*
X20754Y-20255D01*
X20639Y-20294D01*
X20529Y-20543D01*
X20522Y-20814D01*
X20619Y-21068D01*
X20639Y-21098D01*
X20754Y-21138D01*
X21195Y-20696D01*
X21190Y-20691D01*
X21203Y-20678D01*
X21208Y-20684D01*
X21214Y-20678D01*
X21227Y-20691D01*
X21221Y-20696D01*
X21663Y-21138D01*
X21777Y-21098D01*
X21887Y-20850D01*
X21895Y-20578D01*
X21877Y-20534D01*
X22601Y-20534D01*
X22627Y-20597D01*
X22752Y-20722D01*
X22915Y-20790D01*
X22922Y-20790D01*
X22862Y-20926D01*
X22857Y-21143D01*
X22936Y-21345D01*
X22950Y-21366D01*
X23050Y-21389D01*
X23392Y-21047D01*
X23387Y-21041D01*
X23399Y-21028D01*
X23405Y-21034D01*
X23411Y-21028D01*
X23423Y-21041D01*
X23418Y-21047D01*
X23760Y-21389D01*
X23860Y-21366D01*
X23872Y-21340D01*
X23955Y-21424D01*
X24119Y-21492D01*
X24296Y-21492D01*
X24460Y-21425D01*
X24541Y-21344D01*
X24542Y-21345D01*
X24556Y-21366D01*
X24656Y-21389D01*
X24999Y-21047D01*
X24993Y-21041D01*
X25006Y-21028D01*
X25011Y-21034D01*
X25017Y-21028D01*
X25030Y-21041D01*
X25024Y-21047D01*
X25367Y-21389D01*
X25467Y-21366D01*
X25478Y-21340D01*
X25562Y-21424D01*
X25725Y-21492D01*
X25903Y-21492D01*
X26066Y-21425D01*
X26192Y-21299D01*
X26260Y-21136D01*
X26260Y-20959D01*
X26192Y-20795D01*
X26067Y-20669D01*
X25903Y-20601D01*
X25786Y-20601D01*
X25789Y-20598D01*
X25816Y-20534D01*
X26897Y-20534D01*
X26938Y-20526D01*
X26930Y-20543D01*
X26923Y-20814D01*
X27021Y-21068D01*
X27041Y-21098D01*
X27155Y-21138D01*
X27597Y-20696D01*
X27591Y-20691D01*
X27604Y-20678D01*
X27610Y-20684D01*
X28052Y-20242D01*
X28012Y-20128D01*
X27764Y-20017D01*
X27499Y-20010D01*
X27873Y-19636D01*
X38661Y-19636D01*
X38733Y-19622D01*
X38794Y-19581D01*
X39817Y-18557D01*
X39858Y-18497D01*
X39858Y-18497D01*
X39872Y-18425D01*
X39872Y-18188D01*
X39858Y-18117D01*
X39817Y-18056D01*
X39520Y-17758D01*
X39459Y-17718D01*
X39387Y-17703D01*
X38596Y-17703D01*
X38590Y-17689D01*
X38548Y-17647D01*
X38534Y-17641D01*
X38548Y-17635D01*
X38590Y-17594D01*
X38608Y-17550D01*
X40360Y-17550D01*
X40446Y-17636D01*
X40565Y-17685D01*
X40687Y-17685D01*
X40697Y-17695D01*
X40697Y-17992D01*
X40677Y-18039D01*
X40677Y-18098D01*
X40677Y-18354D01*
X40700Y-18409D01*
X40714Y-18423D01*
X40700Y-18438D01*
X40690Y-18462D01*
X40011Y-18462D01*
X39939Y-18476D01*
X39878Y-18517D01*
X38701Y-19694D01*
X31192Y-19694D01*
X31121Y-19708D01*
X31060Y-19749D01*
X29993Y-20815D01*
X29910Y-20781D01*
X29720Y-20781D01*
X29544Y-20854D01*
X29409Y-20988D01*
X29336Y-21164D01*
X29336Y-21354D01*
X29409Y-21530D01*
X29543Y-21665D01*
X29719Y-21738D01*
X29909Y-21738D01*
X30085Y-21665D01*
X30220Y-21531D01*
X30260Y-21434D01*
X30315Y-21576D01*
X30331Y-21600D01*
X30434Y-21627D01*
X30802Y-21259D01*
X30796Y-21254D01*
X30809Y-21241D01*
X30814Y-21247D01*
X31182Y-20879D01*
X31155Y-20776D01*
X30944Y-20682D01*
X30713Y-20677D01*
X30631Y-20708D01*
X31270Y-20069D01*
X33495Y-20069D01*
X32749Y-20815D01*
X32666Y-20781D01*
X32476Y-20781D01*
X32300Y-20854D01*
X32165Y-20988D01*
X32092Y-21164D01*
X32092Y-21354D01*
X32165Y-21530D01*
X32299Y-21665D01*
X32475Y-21738D01*
X32665Y-21738D01*
X32841Y-21665D01*
X32976Y-21531D01*
X33016Y-21434D01*
X33071Y-21576D01*
X33087Y-21600D01*
X33190Y-21627D01*
X33558Y-21259D01*
X33552Y-21254D01*
X33565Y-21241D01*
X33570Y-21247D01*
X33938Y-20879D01*
X33911Y-20776D01*
X33700Y-20682D01*
X33469Y-20677D01*
X33387Y-20708D01*
X33829Y-20266D01*
X36054Y-20266D01*
X35505Y-20815D01*
X35422Y-20781D01*
X35232Y-20781D01*
X35056Y-20854D01*
X34921Y-20988D01*
X34848Y-21164D01*
X34848Y-21354D01*
X34920Y-21530D01*
X35055Y-21665D01*
X35231Y-21738D01*
X35421Y-21738D01*
X35597Y-21665D01*
X35732Y-21531D01*
X35772Y-21434D01*
X35827Y-21576D01*
X35843Y-21600D01*
X35946Y-21627D01*
X36313Y-21259D01*
X36308Y-21254D01*
X36321Y-21241D01*
X36326Y-21247D01*
X36694Y-20879D01*
X36666Y-20776D01*
X36456Y-20682D01*
X36225Y-20677D01*
X36143Y-20708D01*
X36349Y-20502D01*
X38574Y-20502D01*
X38261Y-20815D01*
X38178Y-20781D01*
X37987Y-20781D01*
X37812Y-20854D01*
X37677Y-20988D01*
X37604Y-21164D01*
X37604Y-21354D01*
X37676Y-21530D01*
X37811Y-21665D01*
X37987Y-21738D01*
X38177Y-21738D01*
X38353Y-21665D01*
X38488Y-21531D01*
X38528Y-21434D01*
X38583Y-21576D01*
X38598Y-21600D01*
X38702Y-21627D01*
X39069Y-21259D01*
X39064Y-21254D01*
X39077Y-21241D01*
X39082Y-21247D01*
X39450Y-20879D01*
X39422Y-20776D01*
X39338Y-20738D01*
X40944Y-20738D01*
X41016Y-20724D01*
X41077Y-20683D01*
X41608Y-20152D01*
X41649Y-20091D01*
X41649Y-20091D01*
X41663Y-20019D01*
X41663Y-18855D01*
X41683Y-18807D01*
X41683Y-18748D01*
X41683Y-21183D01*
X41372Y-21311D01*
X40998Y-21685D01*
X40795Y-22175D01*
X40794Y-22704D01*
X40996Y-23193D01*
X41370Y-23568D01*
X41860Y-23771D01*
X42389Y-23772D01*
X42879Y-23570D01*
X43253Y-23195D01*
X43456Y-22706D01*
X43457Y-22177D01*
X43457Y-24231D01*
X39665Y-24231D01*
X39665Y-21158D01*
X39582Y-20943D01*
X39566Y-20919D01*
X39462Y-20892D01*
X39095Y-21259D01*
X39462Y-21627D01*
X39566Y-21600D01*
X39659Y-21389D01*
X39665Y-21158D01*
X39665Y-24231D01*
X39450Y-24231D01*
X39450Y-21640D01*
X39082Y-21272D01*
X38715Y-21640D01*
X38742Y-21743D01*
X38953Y-21836D01*
X39184Y-21842D01*
X39399Y-21759D01*
X39422Y-21743D01*
X39450Y-21640D01*
X39450Y-24231D01*
X36909Y-24231D01*
X36909Y-21158D01*
X36826Y-20943D01*
X36810Y-20919D01*
X36707Y-20892D01*
X36339Y-21259D01*
X36707Y-21627D01*
X36810Y-21600D01*
X36903Y-21389D01*
X36909Y-21158D01*
X36909Y-24231D01*
X36694Y-24231D01*
X36694Y-21640D01*
X36326Y-21272D01*
X35959Y-21640D01*
X35986Y-21743D01*
X36197Y-21836D01*
X36428Y-21842D01*
X36643Y-21759D01*
X36666Y-21743D01*
X36694Y-21640D01*
X36694Y-24231D01*
X34153Y-24231D01*
X34153Y-21158D01*
X34070Y-20943D01*
X34054Y-20919D01*
X33951Y-20892D01*
X33583Y-21259D01*
X33951Y-21627D01*
X34054Y-21600D01*
X34147Y-21389D01*
X34153Y-21158D01*
X34153Y-24231D01*
X33938Y-24231D01*
X33938Y-21640D01*
X33570Y-21272D01*
X33203Y-21640D01*
X33230Y-21743D01*
X33441Y-21836D01*
X33672Y-21842D01*
X33887Y-21759D01*
X33911Y-21743D01*
X33938Y-21640D01*
X33938Y-24231D01*
X31397Y-24231D01*
X31397Y-21158D01*
X31314Y-20943D01*
X31298Y-20919D01*
X31195Y-20892D01*
X30827Y-21259D01*
X31195Y-21627D01*
X31298Y-21600D01*
X31392Y-21389D01*
X31397Y-21158D01*
X31397Y-24231D01*
X31182Y-24231D01*
X31182Y-21640D01*
X30814Y-21272D01*
X30447Y-21640D01*
X30474Y-21743D01*
X30685Y-21836D01*
X30916Y-21842D01*
X31131Y-21759D01*
X31155Y-21743D01*
X31182Y-21640D01*
X31182Y-24231D01*
X28296Y-24231D01*
X28296Y-20578D01*
X28199Y-20325D01*
X28178Y-20294D01*
X28064Y-20255D01*
X27623Y-20696D01*
X28064Y-21138D01*
X28178Y-21098D01*
X28289Y-20850D01*
X28296Y-20578D01*
X28296Y-24231D01*
X28052Y-24231D01*
X28052Y-21151D01*
X27610Y-20709D01*
X27168Y-21151D01*
X27194Y-21225D01*
X27082Y-21178D01*
X26737Y-21178D01*
X26418Y-21310D01*
X26173Y-21554D01*
X26041Y-21873D01*
X26040Y-22219D01*
X26172Y-22538D01*
X26416Y-22783D01*
X26735Y-22915D01*
X27081Y-22915D01*
X27400Y-22783D01*
X27645Y-22539D01*
X27777Y-22220D01*
X27778Y-21875D01*
X27646Y-21555D01*
X27466Y-21376D01*
X27728Y-21383D01*
X27981Y-21285D01*
X28012Y-21265D01*
X28052Y-21151D01*
X28052Y-24231D01*
X25354Y-24231D01*
X25354Y-21402D01*
X25011Y-21060D01*
X24669Y-21402D01*
X24692Y-21502D01*
X24890Y-21590D01*
X25107Y-21595D01*
X25310Y-21516D01*
X25331Y-21502D01*
X25354Y-21402D01*
X25354Y-24231D01*
X23748Y-24231D01*
X23748Y-21402D01*
X23405Y-21060D01*
X23062Y-21402D01*
X23085Y-21502D01*
X23284Y-21590D01*
X23501Y-21595D01*
X23703Y-21516D01*
X23725Y-21502D01*
X23748Y-21402D01*
X23748Y-24231D01*
X22778Y-24231D01*
X22778Y-21875D01*
X22646Y-21555D01*
X22402Y-21311D01*
X22082Y-21178D01*
X21737Y-21178D01*
X21624Y-21225D01*
X21650Y-21151D01*
X21208Y-20709D01*
X21195Y-20722D01*
X20766Y-21151D01*
X20806Y-21265D01*
X21054Y-21376D01*
X21326Y-21383D01*
X21356Y-21371D01*
X21173Y-21554D01*
X21041Y-21873D01*
X21040Y-22219D01*
X21172Y-22538D01*
X21416Y-22783D01*
X21735Y-22915D01*
X22081Y-22915D01*
X22400Y-22783D01*
X22645Y-22539D01*
X22777Y-22220D01*
X22778Y-21875D01*
X22778Y-24231D01*
X15328Y-24231D01*
X15328Y-19043D01*
X15328Y-18947D01*
X15266Y-18885D01*
X14694Y-18885D01*
X14694Y-18892D01*
X14675Y-18892D01*
X14675Y-18885D01*
X14103Y-18885D01*
X14041Y-18947D01*
X14041Y-19043D01*
X14075Y-19127D01*
X12106Y-19127D01*
X12074Y-19094D01*
X11954Y-19045D01*
X11825Y-19045D01*
X11705Y-19094D01*
X11614Y-19185D01*
X11564Y-19305D01*
X11564Y-19343D01*
X11275Y-19633D01*
X10739Y-19633D01*
X10739Y-19577D01*
X10716Y-19522D01*
X10674Y-19479D01*
X10662Y-19474D01*
X10662Y-19075D01*
X10643Y-18980D01*
X10643Y-18980D01*
X10626Y-18953D01*
X10590Y-18900D01*
X10590Y-18900D01*
X9697Y-18007D01*
X9697Y-17731D01*
X9711Y-17725D01*
X9753Y-17683D01*
X9775Y-17630D01*
X10519Y-17630D01*
X10519Y-17972D01*
X10545Y-18105D01*
X10620Y-18217D01*
X11073Y-18670D01*
X11186Y-18745D01*
X11186Y-18745D01*
X11318Y-18772D01*
X11318Y-18772D01*
X11451Y-18745D01*
X11451Y-18745D01*
X11564Y-18670D01*
X11639Y-18557D01*
X11639Y-18557D01*
X11665Y-18425D01*
X11665Y-18425D01*
X11665Y-17933D01*
X11639Y-17800D01*
X11564Y-17687D01*
X11150Y-17274D01*
X10914Y-17038D01*
X10801Y-16962D01*
X10669Y-16936D01*
X9775Y-16936D01*
X9753Y-16883D01*
X9711Y-16841D01*
X9656Y-16818D01*
X9596Y-16818D01*
X9501Y-16818D01*
X9501Y-16732D01*
X9501Y-15748D01*
X9501Y-15648D01*
X9463Y-15557D01*
X9393Y-15486D01*
X9301Y-15448D01*
X8929Y-15448D01*
X8867Y-15511D01*
X8867Y-16231D01*
X9439Y-16231D01*
X9501Y-16168D01*
X9501Y-15748D01*
X9501Y-16732D01*
X9501Y-16311D01*
X9439Y-16249D01*
X8867Y-16249D01*
X8867Y-16584D01*
X8867Y-16969D01*
X8867Y-17176D01*
X8875Y-17176D01*
X8875Y-17194D01*
X8867Y-17194D01*
X8867Y-17786D01*
X8929Y-17848D01*
X9084Y-17848D01*
X9176Y-17810D01*
X9200Y-17787D01*
X9200Y-18110D01*
X9219Y-18205D01*
X9273Y-18286D01*
X10165Y-19178D01*
X10165Y-19474D01*
X10154Y-19479D01*
X10112Y-19521D01*
X10089Y-19576D01*
X10089Y-19606D01*
X10089Y-19556D01*
X10051Y-19465D01*
X9980Y-19394D01*
X9888Y-19356D01*
X9735Y-19356D01*
X9673Y-19419D01*
X9673Y-19872D01*
X9681Y-19872D01*
X9681Y-19890D01*
X9673Y-19890D01*
X9673Y-20344D01*
X9735Y-20406D01*
X9888Y-20406D01*
X9980Y-20368D01*
X10051Y-20298D01*
X10089Y-20206D01*
X10089Y-20186D01*
X10089Y-20186D01*
X10112Y-20241D01*
X10154Y-20283D01*
X10209Y-20306D01*
X10269Y-20306D01*
X10619Y-20306D01*
X10674Y-20284D01*
X10716Y-20241D01*
X10739Y-20186D01*
X10739Y-20130D01*
X11377Y-20130D01*
X11377Y-20130D01*
X11473Y-20111D01*
X11553Y-20057D01*
X11916Y-19695D01*
X11954Y-19695D01*
X12073Y-19645D01*
X12095Y-19624D01*
X14214Y-19624D01*
X14261Y-19644D01*
X14321Y-19644D01*
X15108Y-19644D01*
X15163Y-19621D01*
X15205Y-19579D01*
X15228Y-19524D01*
X15228Y-19464D01*
X15228Y-19228D01*
X15219Y-19206D01*
X15220Y-19205D01*
X15290Y-19135D01*
X15328Y-19043D01*
X15328Y-24231D01*
X9655Y-24231D01*
X9655Y-20344D01*
X9655Y-19890D01*
X9655Y-19872D01*
X9655Y-19419D01*
X9592Y-19356D01*
X9439Y-19356D01*
X9347Y-19394D01*
X9277Y-19465D01*
X9239Y-19556D01*
X9239Y-19656D01*
X9239Y-19810D01*
X9301Y-19872D01*
X9655Y-19872D01*
X9655Y-19890D01*
X9301Y-19890D01*
X9239Y-19953D01*
X9239Y-20107D01*
X9239Y-20206D01*
X9277Y-20298D01*
X9347Y-20368D01*
X9439Y-20406D01*
X9592Y-20406D01*
X9655Y-20344D01*
X9655Y-24231D01*
X8477Y-24231D01*
X8477Y-20107D01*
X8477Y-19656D01*
X8477Y-19556D01*
X8438Y-19465D01*
X8368Y-19394D01*
X8276Y-19356D01*
X8123Y-19356D01*
X8061Y-19419D01*
X8061Y-19872D01*
X8414Y-19872D01*
X8477Y-19810D01*
X8477Y-19656D01*
X8477Y-20107D01*
X8477Y-19953D01*
X8414Y-19890D01*
X8061Y-19890D01*
X8061Y-20344D01*
X8123Y-20406D01*
X8276Y-20406D01*
X8368Y-20368D01*
X8438Y-20298D01*
X8477Y-20206D01*
X8477Y-20107D01*
X8477Y-24231D01*
X8024Y-24231D01*
X8024Y-22177D01*
X7822Y-21687D01*
X7447Y-21313D01*
X6958Y-21110D01*
X6429Y-21109D01*
X5939Y-21311D01*
X5565Y-21685D01*
X5362Y-22175D01*
X5361Y-22704D01*
X5563Y-23193D01*
X5937Y-23568D01*
X6426Y-23771D01*
X6956Y-23772D01*
X7445Y-23570D01*
X7820Y-23195D01*
X8023Y-22706D01*
X8024Y-22177D01*
X8024Y-24231D01*
X4902Y-24231D01*
X4902Y-4902D01*
X43916Y-4902D01*
X43916Y-24231D01*
M02*
