G04 (created by PCBNEW (2013-07-07 BZR 4022)-stable) date 18/09/2013 13:21:22*
%MOIN*%
G04 Gerber Fmt 3.4, Leading zero omitted, Abs format*
%FSLAX34Y34*%
G01*
G70*
G90*
G04 APERTURE LIST*
%ADD10C,0.005*%
%ADD11C,0.011811*%
%ADD12C,0.00590551*%
%ADD13C,0.00787402*%
G04 APERTURE END LIST*
G54D10*
G54D11*
X45213Y-13945D02*
X45410Y-13945D01*
X45494Y-14254D02*
X45213Y-14254D01*
X45213Y-13664D01*
X45494Y-13664D01*
X46001Y-14254D02*
X46001Y-13664D01*
X46001Y-14226D02*
X45944Y-14254D01*
X45832Y-14254D01*
X45776Y-14226D01*
X45748Y-14198D01*
X45719Y-14142D01*
X45719Y-13973D01*
X45748Y-13917D01*
X45776Y-13889D01*
X45832Y-13861D01*
X45944Y-13861D01*
X46001Y-13889D01*
X46535Y-13861D02*
X46535Y-14339D01*
X46507Y-14395D01*
X46479Y-14423D01*
X46422Y-14451D01*
X46338Y-14451D01*
X46282Y-14423D01*
X46535Y-14226D02*
X46479Y-14254D01*
X46366Y-14254D01*
X46310Y-14226D01*
X46282Y-14198D01*
X46254Y-14142D01*
X46254Y-13973D01*
X46282Y-13917D01*
X46310Y-13889D01*
X46366Y-13861D01*
X46479Y-13861D01*
X46535Y-13889D01*
X47041Y-14226D02*
X46985Y-14254D01*
X46872Y-14254D01*
X46816Y-14226D01*
X46788Y-14170D01*
X46788Y-13945D01*
X46816Y-13889D01*
X46872Y-13861D01*
X46985Y-13861D01*
X47041Y-13889D01*
X47069Y-13945D01*
X47069Y-14001D01*
X46788Y-14057D01*
X48110Y-14198D02*
X48082Y-14226D01*
X47997Y-14254D01*
X47941Y-14254D01*
X47857Y-14226D01*
X47800Y-14170D01*
X47772Y-14114D01*
X47744Y-14001D01*
X47744Y-13917D01*
X47772Y-13804D01*
X47800Y-13748D01*
X47857Y-13692D01*
X47941Y-13664D01*
X47997Y-13664D01*
X48082Y-13692D01*
X48110Y-13720D01*
X48616Y-13861D02*
X48616Y-14254D01*
X48363Y-13861D02*
X48363Y-14170D01*
X48391Y-14226D01*
X48447Y-14254D01*
X48532Y-14254D01*
X48588Y-14226D01*
X48616Y-14198D01*
X48813Y-13861D02*
X49038Y-13861D01*
X48897Y-13664D02*
X48897Y-14170D01*
X48925Y-14226D01*
X48982Y-14254D01*
X49038Y-14254D01*
X49206Y-14226D02*
X49263Y-14254D01*
X49375Y-14254D01*
X49431Y-14226D01*
X49460Y-14170D01*
X49460Y-14142D01*
X49431Y-14086D01*
X49375Y-14057D01*
X49291Y-14057D01*
X49235Y-14029D01*
X49206Y-13973D01*
X49206Y-13945D01*
X49235Y-13889D01*
X49291Y-13861D01*
X49375Y-13861D01*
X49431Y-13889D01*
G54D12*
X4724Y-24409D02*
X4724Y-4724D01*
X44094Y-24409D02*
X4724Y-24409D01*
X44094Y-4724D02*
X44094Y-24409D01*
X4724Y-4724D02*
X44094Y-4724D01*
G54D13*
X7197Y-20583D02*
X7447Y-20833D01*
X7447Y-20583D02*
X7197Y-20833D01*
X8063Y-13024D02*
X8313Y-13274D01*
X8313Y-13024D02*
X8063Y-13274D01*
X8063Y-13575D02*
X8313Y-13825D01*
X8313Y-13575D02*
X8063Y-13825D01*
X8063Y-14048D02*
X8313Y-14298D01*
X8313Y-14048D02*
X8063Y-14298D01*
X10701Y-16095D02*
X10951Y-16345D01*
X10951Y-16095D02*
X10701Y-16345D01*
X10701Y-16804D02*
X10951Y-17054D01*
X10951Y-16804D02*
X10701Y-17054D01*
X11056Y-16449D02*
X11306Y-16699D01*
X11306Y-16449D02*
X11056Y-16699D01*
X11764Y-19245D02*
X12014Y-19495D01*
X12014Y-19245D02*
X11764Y-19495D01*
X15308Y-14756D02*
X15558Y-15006D01*
X15558Y-14756D02*
X15308Y-15006D01*
X15386Y-15741D02*
X15636Y-15991D01*
X15636Y-15741D02*
X15386Y-15991D01*
X15386Y-17788D02*
X15636Y-18038D01*
X15636Y-17788D02*
X15386Y-18038D01*
X15426Y-18733D02*
X15676Y-18983D01*
X15676Y-18733D02*
X15426Y-18983D01*
X16371Y-17788D02*
X16621Y-18038D01*
X16621Y-17788D02*
X16371Y-18038D01*
X16882Y-18733D02*
X17132Y-18983D01*
X17132Y-18733D02*
X16882Y-18983D01*
X17434Y-15741D02*
X17684Y-15991D01*
X17684Y-15741D02*
X17434Y-15991D01*
X17434Y-17276D02*
X17684Y-17526D01*
X17684Y-17276D02*
X17434Y-17526D01*
X19126Y-16764D02*
X19376Y-17014D01*
X19376Y-16764D02*
X19126Y-17014D01*
X19126Y-17709D02*
X19376Y-17959D01*
X19376Y-17709D02*
X19126Y-17959D01*
X19869Y-19250D02*
X20119Y-19500D01*
X20119Y-19250D02*
X19869Y-19500D01*
X23851Y-13772D02*
X24101Y-14022D01*
X24101Y-13772D02*
X23851Y-14022D01*
X24402Y-13339D02*
X24652Y-13589D01*
X24652Y-13339D02*
X24402Y-13589D01*
X26489Y-16213D02*
X26739Y-16463D01*
X26739Y-16213D02*
X26489Y-16463D01*
X27709Y-15741D02*
X27959Y-15991D01*
X27959Y-15741D02*
X27709Y-15991D01*
X27709Y-16449D02*
X27959Y-16699D01*
X27959Y-16449D02*
X27709Y-16699D01*
X30308Y-15741D02*
X30558Y-15991D01*
X30558Y-15741D02*
X30308Y-15991D01*
X31016Y-16804D02*
X31266Y-17054D01*
X31266Y-16804D02*
X31016Y-17054D01*
X32276Y-14756D02*
X32526Y-15006D01*
X32526Y-14756D02*
X32276Y-15006D01*
X32630Y-13733D02*
X32880Y-13983D01*
X32880Y-13733D02*
X32630Y-13983D01*
X33260Y-18300D02*
X33510Y-18550D01*
X33510Y-18300D02*
X33260Y-18550D01*
X35071Y-13772D02*
X35321Y-14022D01*
X35321Y-13772D02*
X35071Y-14022D01*
X35071Y-14756D02*
X35321Y-15006D01*
X35321Y-14756D02*
X35071Y-15006D01*
X35937Y-16804D02*
X36187Y-17054D01*
X36187Y-16804D02*
X35937Y-17054D01*
X36528Y-17788D02*
X36778Y-18038D01*
X36778Y-17788D02*
X36528Y-18038D01*
X37119Y-14756D02*
X37369Y-15006D01*
X37369Y-14756D02*
X37119Y-15006D01*
X37119Y-16292D02*
X37369Y-16542D01*
X37369Y-16292D02*
X37119Y-16542D01*
X38733Y-13772D02*
X38983Y-14022D01*
X38983Y-13772D02*
X38733Y-14022D01*
X38733Y-18221D02*
X38983Y-18471D01*
X38983Y-18221D02*
X38733Y-18471D01*
X39560Y-13772D02*
X39810Y-14022D01*
X39810Y-13772D02*
X39560Y-14022D01*
X39560Y-15268D02*
X39810Y-15518D01*
X39810Y-15268D02*
X39560Y-15518D01*
X40032Y-13772D02*
X40282Y-14022D01*
X40282Y-13772D02*
X40032Y-14022D01*
X40032Y-16252D02*
X40282Y-16502D01*
X40282Y-16252D02*
X40032Y-16502D01*
X40504Y-13772D02*
X40754Y-14022D01*
X40754Y-13772D02*
X40504Y-14022D01*
X40504Y-17237D02*
X40754Y-17487D01*
X40754Y-17237D02*
X40504Y-17487D01*
X29974Y-21259D02*
G75*
G03X29974Y-21259I-160J0D01*
G74*
G01*
X30974Y-21259D02*
G75*
G03X30974Y-21259I-160J0D01*
G74*
G01*
X32730Y-21259D02*
G75*
G03X32730Y-21259I-160J0D01*
G74*
G01*
X33730Y-21259D02*
G75*
G03X33730Y-21259I-160J0D01*
G74*
G01*
X35486Y-21259D02*
G75*
G03X35486Y-21259I-160J0D01*
G74*
G01*
X36486Y-21259D02*
G75*
G03X36486Y-21259I-160J0D01*
G74*
G01*
X38242Y-21259D02*
G75*
G03X38242Y-21259I-160J0D01*
G74*
G01*
X39242Y-21259D02*
G75*
G03X39242Y-21259I-160J0D01*
G74*
G01*
X11192Y-7909D02*
X11192Y-8263D01*
X11015Y-8086D02*
X11369Y-8086D01*
X11594Y-8610D02*
X11594Y-8964D01*
X11417Y-8787D02*
X11771Y-8787D01*
X11996Y-7909D02*
X11996Y-8263D01*
X11819Y-8086D02*
X12173Y-8086D01*
X12397Y-8610D02*
X12397Y-8964D01*
X12220Y-8787D02*
X12574Y-8787D01*
X12799Y-7909D02*
X12799Y-8263D01*
X12622Y-8086D02*
X12976Y-8086D01*
X13200Y-8610D02*
X13200Y-8964D01*
X13023Y-8787D02*
X13377Y-8787D01*
X13602Y-7909D02*
X13602Y-8263D01*
X13425Y-8086D02*
X13779Y-8086D01*
X14003Y-8610D02*
X14003Y-8964D01*
X13826Y-8787D02*
X14180Y-8787D01*
X19066Y-7909D02*
X19066Y-8263D01*
X18889Y-8086D02*
X19243Y-8086D01*
X19468Y-8610D02*
X19468Y-8964D01*
X19291Y-8787D02*
X19645Y-8787D01*
X19870Y-7909D02*
X19870Y-8263D01*
X19693Y-8086D02*
X20047Y-8086D01*
X20271Y-8610D02*
X20271Y-8964D01*
X20094Y-8787D02*
X20448Y-8787D01*
X20673Y-7909D02*
X20673Y-8263D01*
X20496Y-8086D02*
X20850Y-8086D01*
X21074Y-8610D02*
X21074Y-8964D01*
X20897Y-8787D02*
X21251Y-8787D01*
X21476Y-7909D02*
X21476Y-8263D01*
X21299Y-8086D02*
X21653Y-8086D01*
X21877Y-8610D02*
X21877Y-8964D01*
X21700Y-8787D02*
X22054Y-8787D01*
X23003Y-20169D02*
X23003Y-20523D01*
X22826Y-20346D02*
X23180Y-20346D01*
X23405Y-20870D02*
X23405Y-21224D01*
X23228Y-21047D02*
X23582Y-21047D01*
X23807Y-20169D02*
X23807Y-20523D01*
X23630Y-20346D02*
X23984Y-20346D01*
X24208Y-20870D02*
X24208Y-21224D01*
X24031Y-21047D02*
X24385Y-21047D01*
X24610Y-20169D02*
X24610Y-20523D01*
X24433Y-20346D02*
X24787Y-20346D01*
X25011Y-20870D02*
X25011Y-21224D01*
X24834Y-21047D02*
X25188Y-21047D01*
X25413Y-20169D02*
X25413Y-20523D01*
X25236Y-20346D02*
X25590Y-20346D01*
X25814Y-20870D02*
X25814Y-21224D01*
X25637Y-21047D02*
X25991Y-21047D01*
X26940Y-7909D02*
X26940Y-8263D01*
X26763Y-8086D02*
X27117Y-8086D01*
X27342Y-8610D02*
X27342Y-8964D01*
X27165Y-8787D02*
X27519Y-8787D01*
X27744Y-7909D02*
X27744Y-8263D01*
X27567Y-8086D02*
X27921Y-8086D01*
X28145Y-8610D02*
X28145Y-8964D01*
X27968Y-8787D02*
X28322Y-8787D01*
X28547Y-7909D02*
X28547Y-8263D01*
X28370Y-8086D02*
X28724Y-8086D01*
X28948Y-8610D02*
X28948Y-8964D01*
X28771Y-8787D02*
X29125Y-8787D01*
X29350Y-7909D02*
X29350Y-8263D01*
X29173Y-8086D02*
X29527Y-8086D01*
X29751Y-8610D02*
X29751Y-8964D01*
X29574Y-8787D02*
X29928Y-8787D01*
X34814Y-7909D02*
X34814Y-8263D01*
X34637Y-8086D02*
X34991Y-8086D01*
X35216Y-8610D02*
X35216Y-8964D01*
X35039Y-8787D02*
X35393Y-8787D01*
X35618Y-7909D02*
X35618Y-8263D01*
X35441Y-8086D02*
X35795Y-8086D01*
X36019Y-8610D02*
X36019Y-8964D01*
X35842Y-8787D02*
X36196Y-8787D01*
X36421Y-7909D02*
X36421Y-8263D01*
X36244Y-8086D02*
X36598Y-8086D01*
X36822Y-8610D02*
X36822Y-8964D01*
X36645Y-8787D02*
X36999Y-8787D01*
X37224Y-7909D02*
X37224Y-8263D01*
X37047Y-8086D02*
X37401Y-8086D01*
X37625Y-8610D02*
X37625Y-8964D01*
X37448Y-8787D02*
X37802Y-8787D01*
X9620Y-8659D02*
X9620Y-8214D01*
X9174Y-8214D01*
X9174Y-8659D01*
X9620Y-8659D01*
X16021Y-8659D02*
X16021Y-8214D01*
X15576Y-8214D01*
X15576Y-8659D01*
X16021Y-8659D01*
X17494Y-8659D02*
X17494Y-8214D01*
X17048Y-8214D01*
X17048Y-8659D01*
X17494Y-8659D01*
X21431Y-20919D02*
X21431Y-20474D01*
X20985Y-20474D01*
X20985Y-20919D01*
X21431Y-20919D01*
X23895Y-8659D02*
X23895Y-8214D01*
X23450Y-8214D01*
X23450Y-8659D01*
X23895Y-8659D01*
X25368Y-8659D02*
X25368Y-8214D01*
X24922Y-8214D01*
X24922Y-8659D01*
X25368Y-8659D01*
X27832Y-20919D02*
X27832Y-20474D01*
X27387Y-20474D01*
X27387Y-20919D01*
X27832Y-20919D01*
X31769Y-8659D02*
X31769Y-8214D01*
X31324Y-8214D01*
X31324Y-8659D01*
X31769Y-8659D01*
X33242Y-8659D02*
X33242Y-8214D01*
X32796Y-8214D01*
X32796Y-8659D01*
X33242Y-8659D01*
X39643Y-8659D02*
X39643Y-8214D01*
X39198Y-8214D01*
X39198Y-8659D01*
X39643Y-8659D01*
G54D11*
X5763Y-26216D02*
X5763Y-25035D01*
X6044Y-25035D01*
X6213Y-25091D01*
X6325Y-25203D01*
X6382Y-25316D01*
X6438Y-25541D01*
X6438Y-25710D01*
X6382Y-25935D01*
X6325Y-26047D01*
X6213Y-26160D01*
X6044Y-26216D01*
X5763Y-26216D01*
X6944Y-26216D02*
X6944Y-25428D01*
X6944Y-25653D02*
X7000Y-25541D01*
X7057Y-25485D01*
X7169Y-25428D01*
X7282Y-25428D01*
X7675Y-26216D02*
X7675Y-25428D01*
X7675Y-25035D02*
X7619Y-25091D01*
X7675Y-25147D01*
X7732Y-25091D01*
X7675Y-25035D01*
X7675Y-25147D01*
X8406Y-26216D02*
X8294Y-26160D01*
X8238Y-26047D01*
X8238Y-25035D01*
X9025Y-26216D02*
X8913Y-26160D01*
X8856Y-26047D01*
X8856Y-25035D01*
X10375Y-26216D02*
X10375Y-25035D01*
X10769Y-25878D01*
X11162Y-25035D01*
X11162Y-26216D01*
X12231Y-26216D02*
X12231Y-25597D01*
X12175Y-25485D01*
X12062Y-25428D01*
X11837Y-25428D01*
X11725Y-25485D01*
X12231Y-26160D02*
X12118Y-26216D01*
X11837Y-26216D01*
X11725Y-26160D01*
X11669Y-26047D01*
X11669Y-25935D01*
X11725Y-25822D01*
X11837Y-25766D01*
X12118Y-25766D01*
X12231Y-25710D01*
X12793Y-25428D02*
X12793Y-26609D01*
X12793Y-25485D02*
X12906Y-25428D01*
X13131Y-25428D01*
X13243Y-25485D01*
X13300Y-25541D01*
X13356Y-25653D01*
X13356Y-25991D01*
X13300Y-26103D01*
X13243Y-26160D01*
X13131Y-26216D01*
X12906Y-26216D01*
X12793Y-26160D01*
X13862Y-26103D02*
X13918Y-26160D01*
X13862Y-26216D01*
X13806Y-26160D01*
X13862Y-26103D01*
X13862Y-26216D01*
X13862Y-25485D02*
X13918Y-25541D01*
X13862Y-25597D01*
X13806Y-25541D01*
X13862Y-25485D01*
X13862Y-25597D01*
X4444Y-28093D02*
X4694Y-28343D01*
X4694Y-28093D02*
X4444Y-28343D01*
X5988Y-27515D02*
X6100Y-27515D01*
X6213Y-27571D01*
X6269Y-27627D01*
X6325Y-27740D01*
X6382Y-27965D01*
X6382Y-28246D01*
X6325Y-28471D01*
X6269Y-28584D01*
X6213Y-28640D01*
X6100Y-28696D01*
X5988Y-28696D01*
X5875Y-28640D01*
X5819Y-28584D01*
X5763Y-28471D01*
X5707Y-28246D01*
X5707Y-27965D01*
X5763Y-27740D01*
X5819Y-27627D01*
X5875Y-27571D01*
X5988Y-27515D01*
X6888Y-28584D02*
X6944Y-28640D01*
X6888Y-28696D01*
X6832Y-28640D01*
X6888Y-28584D01*
X6888Y-28696D01*
X7956Y-27515D02*
X7732Y-27515D01*
X7619Y-27571D01*
X7563Y-27627D01*
X7450Y-27796D01*
X7394Y-28021D01*
X7394Y-28471D01*
X7450Y-28584D01*
X7507Y-28640D01*
X7619Y-28696D01*
X7844Y-28696D01*
X7956Y-28640D01*
X8013Y-28584D01*
X8069Y-28471D01*
X8069Y-28190D01*
X8013Y-28077D01*
X7956Y-28021D01*
X7844Y-27965D01*
X7619Y-27965D01*
X7507Y-28021D01*
X7450Y-28077D01*
X7394Y-28190D01*
X9081Y-27909D02*
X9081Y-28696D01*
X8800Y-27459D02*
X8519Y-28302D01*
X9250Y-28302D01*
X9700Y-28696D02*
X9700Y-27909D01*
X9700Y-28021D02*
X9756Y-27965D01*
X9869Y-27909D01*
X10037Y-27909D01*
X10150Y-27965D01*
X10206Y-28077D01*
X10206Y-28696D01*
X10206Y-28077D02*
X10262Y-27965D01*
X10375Y-27909D01*
X10544Y-27909D01*
X10656Y-27965D01*
X10712Y-28077D01*
X10712Y-28696D01*
X11275Y-28696D02*
X11275Y-27909D01*
X11275Y-28021D02*
X11331Y-27965D01*
X11444Y-27909D01*
X11612Y-27909D01*
X11725Y-27965D01*
X11781Y-28077D01*
X11781Y-28696D01*
X11781Y-28077D02*
X11837Y-27965D01*
X11950Y-27909D01*
X12118Y-27909D01*
X12231Y-27965D01*
X12287Y-28077D01*
X12287Y-28696D01*
X14593Y-27459D02*
X13581Y-28977D01*
X16112Y-27515D02*
X16224Y-27515D01*
X16337Y-27571D01*
X16393Y-27627D01*
X16449Y-27740D01*
X16505Y-27965D01*
X16505Y-28246D01*
X16449Y-28471D01*
X16393Y-28584D01*
X16337Y-28640D01*
X16224Y-28696D01*
X16112Y-28696D01*
X15999Y-28640D01*
X15943Y-28584D01*
X15887Y-28471D01*
X15830Y-28246D01*
X15830Y-27965D01*
X15887Y-27740D01*
X15943Y-27627D01*
X15999Y-27571D01*
X16112Y-27515D01*
X17012Y-28584D02*
X17068Y-28640D01*
X17012Y-28696D01*
X16955Y-28640D01*
X17012Y-28584D01*
X17012Y-28696D01*
X17799Y-27515D02*
X17911Y-27515D01*
X18024Y-27571D01*
X18080Y-27627D01*
X18136Y-27740D01*
X18193Y-27965D01*
X18193Y-28246D01*
X18136Y-28471D01*
X18080Y-28584D01*
X18024Y-28640D01*
X17911Y-28696D01*
X17799Y-28696D01*
X17687Y-28640D01*
X17630Y-28584D01*
X17574Y-28471D01*
X17518Y-28246D01*
X17518Y-27965D01*
X17574Y-27740D01*
X17630Y-27627D01*
X17687Y-27571D01*
X17799Y-27515D01*
X18643Y-27627D02*
X18699Y-27571D01*
X18811Y-27515D01*
X19093Y-27515D01*
X19205Y-27571D01*
X19261Y-27627D01*
X19318Y-27740D01*
X19318Y-27852D01*
X19261Y-28021D01*
X18586Y-28696D01*
X19318Y-28696D01*
X20386Y-27515D02*
X19824Y-27515D01*
X19767Y-28077D01*
X19824Y-28021D01*
X19936Y-27965D01*
X20217Y-27965D01*
X20330Y-28021D01*
X20386Y-28077D01*
X20442Y-28190D01*
X20442Y-28471D01*
X20386Y-28584D01*
X20330Y-28640D01*
X20217Y-28696D01*
X19936Y-28696D01*
X19824Y-28640D01*
X19767Y-28584D01*
X20892Y-27515D02*
X20892Y-27740D01*
X21342Y-27515D02*
X21342Y-27740D01*
X23086Y-29146D02*
X23030Y-29090D01*
X22917Y-28921D01*
X22861Y-28809D01*
X22805Y-28640D01*
X22748Y-28359D01*
X22748Y-28134D01*
X22805Y-27852D01*
X22861Y-27684D01*
X22917Y-27571D01*
X23030Y-27402D01*
X23086Y-27346D01*
X24042Y-27909D02*
X24042Y-28696D01*
X23761Y-27459D02*
X23480Y-28302D01*
X24211Y-28302D01*
X24548Y-27515D02*
X25279Y-27515D01*
X24886Y-27965D01*
X25054Y-27965D01*
X25167Y-28021D01*
X25223Y-28077D01*
X25279Y-28190D01*
X25279Y-28471D01*
X25223Y-28584D01*
X25167Y-28640D01*
X25054Y-28696D01*
X24717Y-28696D01*
X24604Y-28640D01*
X24548Y-28584D01*
X26685Y-28696D02*
X26685Y-27515D01*
X27192Y-28696D02*
X27192Y-28077D01*
X27135Y-27965D01*
X27023Y-27909D01*
X26854Y-27909D01*
X26742Y-27965D01*
X26685Y-28021D01*
X27923Y-28696D02*
X27810Y-28640D01*
X27754Y-28584D01*
X27698Y-28471D01*
X27698Y-28134D01*
X27754Y-28021D01*
X27810Y-27965D01*
X27923Y-27909D01*
X28091Y-27909D01*
X28204Y-27965D01*
X28260Y-28021D01*
X28316Y-28134D01*
X28316Y-28471D01*
X28260Y-28584D01*
X28204Y-28640D01*
X28091Y-28696D01*
X27923Y-28696D01*
X28991Y-28696D02*
X28879Y-28640D01*
X28823Y-28527D01*
X28823Y-27515D01*
X29891Y-28640D02*
X29779Y-28696D01*
X29554Y-28696D01*
X29441Y-28640D01*
X29385Y-28527D01*
X29385Y-28077D01*
X29441Y-27965D01*
X29554Y-27909D01*
X29779Y-27909D01*
X29891Y-27965D01*
X29947Y-28077D01*
X29947Y-28190D01*
X29385Y-28302D01*
X30397Y-28640D02*
X30510Y-28696D01*
X30735Y-28696D01*
X30847Y-28640D01*
X30904Y-28527D01*
X30904Y-28471D01*
X30847Y-28359D01*
X30735Y-28302D01*
X30566Y-28302D01*
X30454Y-28246D01*
X30397Y-28134D01*
X30397Y-28077D01*
X30454Y-27965D01*
X30566Y-27909D01*
X30735Y-27909D01*
X30847Y-27965D01*
X31297Y-29146D02*
X31354Y-29090D01*
X31466Y-28921D01*
X31522Y-28809D01*
X31579Y-28640D01*
X31635Y-28359D01*
X31635Y-28134D01*
X31579Y-27852D01*
X31522Y-27684D01*
X31466Y-27571D01*
X31354Y-27402D01*
X31297Y-27346D01*
G54D13*
X4694Y-29777D02*
G75*
G03X4694Y-29777I-160J0D01*
G74*
G01*
G54D11*
X5988Y-29074D02*
X6100Y-29074D01*
X6213Y-29130D01*
X6269Y-29187D01*
X6325Y-29299D01*
X6382Y-29524D01*
X6382Y-29805D01*
X6325Y-30030D01*
X6269Y-30143D01*
X6213Y-30199D01*
X6100Y-30255D01*
X5988Y-30255D01*
X5875Y-30199D01*
X5819Y-30143D01*
X5763Y-30030D01*
X5707Y-29805D01*
X5707Y-29524D01*
X5763Y-29299D01*
X5819Y-29187D01*
X5875Y-29130D01*
X5988Y-29074D01*
X6888Y-30143D02*
X6944Y-30199D01*
X6888Y-30255D01*
X6832Y-30199D01*
X6888Y-30143D01*
X6888Y-30255D01*
X7619Y-29580D02*
X7507Y-29524D01*
X7450Y-29468D01*
X7394Y-29355D01*
X7394Y-29299D01*
X7450Y-29187D01*
X7507Y-29130D01*
X7619Y-29074D01*
X7844Y-29074D01*
X7956Y-29130D01*
X8013Y-29187D01*
X8069Y-29299D01*
X8069Y-29355D01*
X8013Y-29468D01*
X7956Y-29524D01*
X7844Y-29580D01*
X7619Y-29580D01*
X7507Y-29636D01*
X7450Y-29693D01*
X7394Y-29805D01*
X7394Y-30030D01*
X7450Y-30143D01*
X7507Y-30199D01*
X7619Y-30255D01*
X7844Y-30255D01*
X7956Y-30199D01*
X8013Y-30143D01*
X8069Y-30030D01*
X8069Y-29805D01*
X8013Y-29693D01*
X7956Y-29636D01*
X7844Y-29580D01*
X9194Y-30255D02*
X8519Y-30255D01*
X8856Y-30255D02*
X8856Y-29074D01*
X8744Y-29243D01*
X8631Y-29355D01*
X8519Y-29411D01*
X9700Y-30255D02*
X9700Y-29468D01*
X9700Y-29580D02*
X9756Y-29524D01*
X9869Y-29468D01*
X10037Y-29468D01*
X10150Y-29524D01*
X10206Y-29636D01*
X10206Y-30255D01*
X10206Y-29636D02*
X10262Y-29524D01*
X10375Y-29468D01*
X10544Y-29468D01*
X10656Y-29524D01*
X10712Y-29636D01*
X10712Y-30255D01*
X11275Y-30255D02*
X11275Y-29468D01*
X11275Y-29580D02*
X11331Y-29524D01*
X11444Y-29468D01*
X11612Y-29468D01*
X11725Y-29524D01*
X11781Y-29636D01*
X11781Y-30255D01*
X11781Y-29636D02*
X11837Y-29524D01*
X11950Y-29468D01*
X12118Y-29468D01*
X12231Y-29524D01*
X12287Y-29636D01*
X12287Y-30255D01*
X14593Y-29018D02*
X13581Y-30536D01*
X16112Y-29074D02*
X16224Y-29074D01*
X16337Y-29130D01*
X16393Y-29187D01*
X16449Y-29299D01*
X16505Y-29524D01*
X16505Y-29805D01*
X16449Y-30030D01*
X16393Y-30143D01*
X16337Y-30199D01*
X16224Y-30255D01*
X16112Y-30255D01*
X15999Y-30199D01*
X15943Y-30143D01*
X15887Y-30030D01*
X15830Y-29805D01*
X15830Y-29524D01*
X15887Y-29299D01*
X15943Y-29187D01*
X15999Y-29130D01*
X16112Y-29074D01*
X17012Y-30143D02*
X17068Y-30199D01*
X17012Y-30255D01*
X16955Y-30199D01*
X17012Y-30143D01*
X17012Y-30255D01*
X17799Y-29074D02*
X17911Y-29074D01*
X18024Y-29130D01*
X18080Y-29187D01*
X18136Y-29299D01*
X18193Y-29524D01*
X18193Y-29805D01*
X18136Y-30030D01*
X18080Y-30143D01*
X18024Y-30199D01*
X17911Y-30255D01*
X17799Y-30255D01*
X17687Y-30199D01*
X17630Y-30143D01*
X17574Y-30030D01*
X17518Y-29805D01*
X17518Y-29524D01*
X17574Y-29299D01*
X17630Y-29187D01*
X17687Y-29130D01*
X17799Y-29074D01*
X18586Y-29074D02*
X19318Y-29074D01*
X18924Y-29524D01*
X19093Y-29524D01*
X19205Y-29580D01*
X19261Y-29636D01*
X19318Y-29749D01*
X19318Y-30030D01*
X19261Y-30143D01*
X19205Y-30199D01*
X19093Y-30255D01*
X18755Y-30255D01*
X18643Y-30199D01*
X18586Y-30143D01*
X19767Y-29187D02*
X19824Y-29130D01*
X19936Y-29074D01*
X20217Y-29074D01*
X20330Y-29130D01*
X20386Y-29187D01*
X20442Y-29299D01*
X20442Y-29411D01*
X20386Y-29580D01*
X19711Y-30255D01*
X20442Y-30255D01*
X20892Y-29074D02*
X20892Y-29299D01*
X21342Y-29074D02*
X21342Y-29299D01*
X23086Y-30705D02*
X23030Y-30649D01*
X22917Y-30480D01*
X22861Y-30368D01*
X22805Y-30199D01*
X22748Y-29918D01*
X22748Y-29693D01*
X22805Y-29411D01*
X22861Y-29243D01*
X22917Y-29130D01*
X23030Y-28962D01*
X23086Y-28905D01*
X23705Y-29580D02*
X23592Y-29524D01*
X23536Y-29468D01*
X23480Y-29355D01*
X23480Y-29299D01*
X23536Y-29187D01*
X23592Y-29130D01*
X23705Y-29074D01*
X23929Y-29074D01*
X24042Y-29130D01*
X24098Y-29187D01*
X24154Y-29299D01*
X24154Y-29355D01*
X24098Y-29468D01*
X24042Y-29524D01*
X23929Y-29580D01*
X23705Y-29580D01*
X23592Y-29636D01*
X23536Y-29693D01*
X23480Y-29805D01*
X23480Y-30030D01*
X23536Y-30143D01*
X23592Y-30199D01*
X23705Y-30255D01*
X23929Y-30255D01*
X24042Y-30199D01*
X24098Y-30143D01*
X24154Y-30030D01*
X24154Y-29805D01*
X24098Y-29693D01*
X24042Y-29636D01*
X23929Y-29580D01*
X25561Y-30255D02*
X25561Y-29074D01*
X26067Y-30255D02*
X26067Y-29636D01*
X26010Y-29524D01*
X25898Y-29468D01*
X25729Y-29468D01*
X25617Y-29524D01*
X25561Y-29580D01*
X26798Y-30255D02*
X26685Y-30199D01*
X26629Y-30143D01*
X26573Y-30030D01*
X26573Y-29693D01*
X26629Y-29580D01*
X26685Y-29524D01*
X26798Y-29468D01*
X26967Y-29468D01*
X27079Y-29524D01*
X27135Y-29580D01*
X27192Y-29693D01*
X27192Y-30030D01*
X27135Y-30143D01*
X27079Y-30199D01*
X26967Y-30255D01*
X26798Y-30255D01*
X27866Y-30255D02*
X27754Y-30199D01*
X27698Y-30086D01*
X27698Y-29074D01*
X28766Y-30199D02*
X28654Y-30255D01*
X28429Y-30255D01*
X28316Y-30199D01*
X28260Y-30086D01*
X28260Y-29636D01*
X28316Y-29524D01*
X28429Y-29468D01*
X28654Y-29468D01*
X28766Y-29524D01*
X28823Y-29636D01*
X28823Y-29749D01*
X28260Y-29861D01*
X29273Y-30199D02*
X29385Y-30255D01*
X29610Y-30255D01*
X29723Y-30199D01*
X29779Y-30086D01*
X29779Y-30030D01*
X29723Y-29918D01*
X29610Y-29861D01*
X29441Y-29861D01*
X29329Y-29805D01*
X29273Y-29693D01*
X29273Y-29636D01*
X29329Y-29524D01*
X29441Y-29468D01*
X29610Y-29468D01*
X29723Y-29524D01*
X30172Y-30705D02*
X30229Y-30649D01*
X30341Y-30480D01*
X30397Y-30368D01*
X30454Y-30199D01*
X30510Y-29918D01*
X30510Y-29693D01*
X30454Y-29411D01*
X30397Y-29243D01*
X30341Y-29130D01*
X30229Y-28962D01*
X30172Y-28905D01*
X4517Y-31159D02*
X4517Y-31513D01*
X4340Y-31336D02*
X4694Y-31336D01*
X5988Y-30633D02*
X6100Y-30633D01*
X6213Y-30689D01*
X6269Y-30746D01*
X6325Y-30858D01*
X6382Y-31083D01*
X6382Y-31364D01*
X6325Y-31589D01*
X6269Y-31702D01*
X6213Y-31758D01*
X6100Y-31814D01*
X5988Y-31814D01*
X5875Y-31758D01*
X5819Y-31702D01*
X5763Y-31589D01*
X5707Y-31364D01*
X5707Y-31083D01*
X5763Y-30858D01*
X5819Y-30746D01*
X5875Y-30689D01*
X5988Y-30633D01*
X6888Y-31702D02*
X6944Y-31758D01*
X6888Y-31814D01*
X6832Y-31758D01*
X6888Y-31702D01*
X6888Y-31814D01*
X7507Y-31814D02*
X7732Y-31814D01*
X7844Y-31758D01*
X7900Y-31702D01*
X8013Y-31533D01*
X8069Y-31308D01*
X8069Y-30858D01*
X8013Y-30746D01*
X7956Y-30689D01*
X7844Y-30633D01*
X7619Y-30633D01*
X7507Y-30689D01*
X7450Y-30746D01*
X7394Y-30858D01*
X7394Y-31139D01*
X7450Y-31252D01*
X7507Y-31308D01*
X7619Y-31364D01*
X7844Y-31364D01*
X7956Y-31308D01*
X8013Y-31252D01*
X8069Y-31139D01*
X8800Y-30633D02*
X8913Y-30633D01*
X9025Y-30689D01*
X9081Y-30746D01*
X9138Y-30858D01*
X9194Y-31083D01*
X9194Y-31364D01*
X9138Y-31589D01*
X9081Y-31702D01*
X9025Y-31758D01*
X8913Y-31814D01*
X8800Y-31814D01*
X8688Y-31758D01*
X8631Y-31702D01*
X8575Y-31589D01*
X8519Y-31364D01*
X8519Y-31083D01*
X8575Y-30858D01*
X8631Y-30746D01*
X8688Y-30689D01*
X8800Y-30633D01*
X9700Y-31814D02*
X9700Y-31027D01*
X9700Y-31139D02*
X9756Y-31083D01*
X9869Y-31027D01*
X10037Y-31027D01*
X10150Y-31083D01*
X10206Y-31196D01*
X10206Y-31814D01*
X10206Y-31196D02*
X10262Y-31083D01*
X10375Y-31027D01*
X10544Y-31027D01*
X10656Y-31083D01*
X10712Y-31196D01*
X10712Y-31814D01*
X11275Y-31814D02*
X11275Y-31027D01*
X11275Y-31139D02*
X11331Y-31083D01*
X11444Y-31027D01*
X11612Y-31027D01*
X11725Y-31083D01*
X11781Y-31196D01*
X11781Y-31814D01*
X11781Y-31196D02*
X11837Y-31083D01*
X11950Y-31027D01*
X12118Y-31027D01*
X12231Y-31083D01*
X12287Y-31196D01*
X12287Y-31814D01*
X14593Y-30577D02*
X13581Y-32095D01*
X16112Y-30633D02*
X16224Y-30633D01*
X16337Y-30689D01*
X16393Y-30746D01*
X16449Y-30858D01*
X16505Y-31083D01*
X16505Y-31364D01*
X16449Y-31589D01*
X16393Y-31702D01*
X16337Y-31758D01*
X16224Y-31814D01*
X16112Y-31814D01*
X15999Y-31758D01*
X15943Y-31702D01*
X15887Y-31589D01*
X15830Y-31364D01*
X15830Y-31083D01*
X15887Y-30858D01*
X15943Y-30746D01*
X15999Y-30689D01*
X16112Y-30633D01*
X17012Y-31702D02*
X17068Y-31758D01*
X17012Y-31814D01*
X16955Y-31758D01*
X17012Y-31702D01*
X17012Y-31814D01*
X17799Y-30633D02*
X17911Y-30633D01*
X18024Y-30689D01*
X18080Y-30746D01*
X18136Y-30858D01*
X18193Y-31083D01*
X18193Y-31364D01*
X18136Y-31589D01*
X18080Y-31702D01*
X18024Y-31758D01*
X17911Y-31814D01*
X17799Y-31814D01*
X17687Y-31758D01*
X17630Y-31702D01*
X17574Y-31589D01*
X17518Y-31364D01*
X17518Y-31083D01*
X17574Y-30858D01*
X17630Y-30746D01*
X17687Y-30689D01*
X17799Y-30633D01*
X18586Y-30633D02*
X19318Y-30633D01*
X18924Y-31083D01*
X19093Y-31083D01*
X19205Y-31139D01*
X19261Y-31196D01*
X19318Y-31308D01*
X19318Y-31589D01*
X19261Y-31702D01*
X19205Y-31758D01*
X19093Y-31814D01*
X18755Y-31814D01*
X18643Y-31758D01*
X18586Y-31702D01*
X20386Y-30633D02*
X19824Y-30633D01*
X19767Y-31196D01*
X19824Y-31139D01*
X19936Y-31083D01*
X20217Y-31083D01*
X20330Y-31139D01*
X20386Y-31196D01*
X20442Y-31308D01*
X20442Y-31589D01*
X20386Y-31702D01*
X20330Y-31758D01*
X20217Y-31814D01*
X19936Y-31814D01*
X19824Y-31758D01*
X19767Y-31702D01*
X20892Y-30633D02*
X20892Y-30858D01*
X21342Y-30633D02*
X21342Y-30858D01*
X23086Y-32264D02*
X23030Y-32208D01*
X22917Y-32039D01*
X22861Y-31927D01*
X22805Y-31758D01*
X22748Y-31477D01*
X22748Y-31252D01*
X22805Y-30971D01*
X22861Y-30802D01*
X22917Y-30689D01*
X23030Y-30521D01*
X23086Y-30464D01*
X24042Y-31027D02*
X24042Y-31814D01*
X23761Y-30577D02*
X23480Y-31420D01*
X24211Y-31420D01*
X24886Y-30633D02*
X24998Y-30633D01*
X25111Y-30689D01*
X25167Y-30746D01*
X25223Y-30858D01*
X25279Y-31083D01*
X25279Y-31364D01*
X25223Y-31589D01*
X25167Y-31702D01*
X25111Y-31758D01*
X24998Y-31814D01*
X24886Y-31814D01*
X24773Y-31758D01*
X24717Y-31702D01*
X24661Y-31589D01*
X24604Y-31364D01*
X24604Y-31083D01*
X24661Y-30858D01*
X24717Y-30746D01*
X24773Y-30689D01*
X24886Y-30633D01*
X26685Y-31814D02*
X26685Y-30633D01*
X27192Y-31814D02*
X27192Y-31196D01*
X27135Y-31083D01*
X27023Y-31027D01*
X26854Y-31027D01*
X26742Y-31083D01*
X26685Y-31139D01*
X27923Y-31814D02*
X27810Y-31758D01*
X27754Y-31702D01*
X27698Y-31589D01*
X27698Y-31252D01*
X27754Y-31139D01*
X27810Y-31083D01*
X27923Y-31027D01*
X28091Y-31027D01*
X28204Y-31083D01*
X28260Y-31139D01*
X28316Y-31252D01*
X28316Y-31589D01*
X28260Y-31702D01*
X28204Y-31758D01*
X28091Y-31814D01*
X27923Y-31814D01*
X28991Y-31814D02*
X28879Y-31758D01*
X28823Y-31645D01*
X28823Y-30633D01*
X29891Y-31758D02*
X29779Y-31814D01*
X29554Y-31814D01*
X29441Y-31758D01*
X29385Y-31645D01*
X29385Y-31196D01*
X29441Y-31083D01*
X29554Y-31027D01*
X29779Y-31027D01*
X29891Y-31083D01*
X29947Y-31196D01*
X29947Y-31308D01*
X29385Y-31420D01*
X30397Y-31758D02*
X30510Y-31814D01*
X30735Y-31814D01*
X30847Y-31758D01*
X30904Y-31645D01*
X30904Y-31589D01*
X30847Y-31477D01*
X30735Y-31420D01*
X30566Y-31420D01*
X30454Y-31364D01*
X30397Y-31252D01*
X30397Y-31196D01*
X30454Y-31083D01*
X30566Y-31027D01*
X30735Y-31027D01*
X30847Y-31083D01*
X31297Y-32264D02*
X31354Y-32208D01*
X31466Y-32039D01*
X31522Y-31927D01*
X31579Y-31758D01*
X31635Y-31477D01*
X31635Y-31252D01*
X31579Y-30971D01*
X31522Y-30802D01*
X31466Y-30689D01*
X31354Y-30521D01*
X31297Y-30464D01*
G54D13*
X4602Y-33118D02*
X4602Y-32672D01*
X4157Y-32672D01*
X4157Y-33118D01*
X4602Y-33118D01*
G54D11*
X6382Y-33373D02*
X5707Y-33373D01*
X6044Y-33373D02*
X6044Y-32192D01*
X5932Y-32361D01*
X5819Y-32473D01*
X5707Y-32530D01*
X6888Y-33261D02*
X6944Y-33317D01*
X6888Y-33373D01*
X6832Y-33317D01*
X6888Y-33261D01*
X6888Y-33373D01*
X7956Y-32192D02*
X7732Y-32192D01*
X7619Y-32248D01*
X7563Y-32305D01*
X7450Y-32473D01*
X7394Y-32698D01*
X7394Y-33148D01*
X7450Y-33261D01*
X7507Y-33317D01*
X7619Y-33373D01*
X7844Y-33373D01*
X7956Y-33317D01*
X8013Y-33261D01*
X8069Y-33148D01*
X8069Y-32867D01*
X8013Y-32755D01*
X7956Y-32698D01*
X7844Y-32642D01*
X7619Y-32642D01*
X7507Y-32698D01*
X7450Y-32755D01*
X7394Y-32867D01*
X8800Y-32192D02*
X8913Y-32192D01*
X9025Y-32248D01*
X9081Y-32305D01*
X9138Y-32417D01*
X9194Y-32642D01*
X9194Y-32923D01*
X9138Y-33148D01*
X9081Y-33261D01*
X9025Y-33317D01*
X8913Y-33373D01*
X8800Y-33373D01*
X8688Y-33317D01*
X8631Y-33261D01*
X8575Y-33148D01*
X8519Y-32923D01*
X8519Y-32642D01*
X8575Y-32417D01*
X8631Y-32305D01*
X8688Y-32248D01*
X8800Y-32192D01*
X9700Y-33373D02*
X9700Y-32586D01*
X9700Y-32698D02*
X9756Y-32642D01*
X9869Y-32586D01*
X10037Y-32586D01*
X10150Y-32642D01*
X10206Y-32755D01*
X10206Y-33373D01*
X10206Y-32755D02*
X10262Y-32642D01*
X10375Y-32586D01*
X10544Y-32586D01*
X10656Y-32642D01*
X10712Y-32755D01*
X10712Y-33373D01*
X11275Y-33373D02*
X11275Y-32586D01*
X11275Y-32698D02*
X11331Y-32642D01*
X11444Y-32586D01*
X11612Y-32586D01*
X11725Y-32642D01*
X11781Y-32755D01*
X11781Y-33373D01*
X11781Y-32755D02*
X11837Y-32642D01*
X11950Y-32586D01*
X12118Y-32586D01*
X12231Y-32642D01*
X12287Y-32755D01*
X12287Y-33373D01*
X14593Y-32136D02*
X13581Y-33654D01*
X16112Y-32192D02*
X16224Y-32192D01*
X16337Y-32248D01*
X16393Y-32305D01*
X16449Y-32417D01*
X16505Y-32642D01*
X16505Y-32923D01*
X16449Y-33148D01*
X16393Y-33261D01*
X16337Y-33317D01*
X16224Y-33373D01*
X16112Y-33373D01*
X15999Y-33317D01*
X15943Y-33261D01*
X15887Y-33148D01*
X15830Y-32923D01*
X15830Y-32642D01*
X15887Y-32417D01*
X15943Y-32305D01*
X15999Y-32248D01*
X16112Y-32192D01*
X17012Y-33261D02*
X17068Y-33317D01*
X17012Y-33373D01*
X16955Y-33317D01*
X17012Y-33261D01*
X17012Y-33373D01*
X17799Y-32192D02*
X17911Y-32192D01*
X18024Y-32248D01*
X18080Y-32305D01*
X18136Y-32417D01*
X18193Y-32642D01*
X18193Y-32923D01*
X18136Y-33148D01*
X18080Y-33261D01*
X18024Y-33317D01*
X17911Y-33373D01*
X17799Y-33373D01*
X17687Y-33317D01*
X17630Y-33261D01*
X17574Y-33148D01*
X17518Y-32923D01*
X17518Y-32642D01*
X17574Y-32417D01*
X17630Y-32305D01*
X17687Y-32248D01*
X17799Y-32192D01*
X19205Y-32192D02*
X18980Y-32192D01*
X18868Y-32248D01*
X18811Y-32305D01*
X18699Y-32473D01*
X18643Y-32698D01*
X18643Y-33148D01*
X18699Y-33261D01*
X18755Y-33317D01*
X18868Y-33373D01*
X19093Y-33373D01*
X19205Y-33317D01*
X19261Y-33261D01*
X19318Y-33148D01*
X19318Y-32867D01*
X19261Y-32755D01*
X19205Y-32698D01*
X19093Y-32642D01*
X18868Y-32642D01*
X18755Y-32698D01*
X18699Y-32755D01*
X18643Y-32867D01*
X19711Y-32192D02*
X20442Y-32192D01*
X20049Y-32642D01*
X20217Y-32642D01*
X20330Y-32698D01*
X20386Y-32755D01*
X20442Y-32867D01*
X20442Y-33148D01*
X20386Y-33261D01*
X20330Y-33317D01*
X20217Y-33373D01*
X19880Y-33373D01*
X19767Y-33317D01*
X19711Y-33261D01*
X20892Y-32192D02*
X20892Y-32417D01*
X21342Y-32192D02*
X21342Y-32417D01*
X23086Y-33823D02*
X23030Y-33767D01*
X22917Y-33598D01*
X22861Y-33486D01*
X22805Y-33317D01*
X22748Y-33036D01*
X22748Y-32811D01*
X22805Y-32530D01*
X22861Y-32361D01*
X22917Y-32248D01*
X23030Y-32080D01*
X23086Y-32023D01*
X24154Y-33373D02*
X23480Y-33373D01*
X23817Y-33373D02*
X23817Y-32192D01*
X23705Y-32361D01*
X23592Y-32473D01*
X23480Y-32530D01*
X24886Y-32192D02*
X24998Y-32192D01*
X25111Y-32248D01*
X25167Y-32305D01*
X25223Y-32417D01*
X25279Y-32642D01*
X25279Y-32923D01*
X25223Y-33148D01*
X25167Y-33261D01*
X25111Y-33317D01*
X24998Y-33373D01*
X24886Y-33373D01*
X24773Y-33317D01*
X24717Y-33261D01*
X24661Y-33148D01*
X24604Y-32923D01*
X24604Y-32642D01*
X24661Y-32417D01*
X24717Y-32305D01*
X24773Y-32248D01*
X24886Y-32192D01*
X26685Y-33373D02*
X26685Y-32192D01*
X27192Y-33373D02*
X27192Y-32755D01*
X27135Y-32642D01*
X27023Y-32586D01*
X26854Y-32586D01*
X26742Y-32642D01*
X26685Y-32698D01*
X27923Y-33373D02*
X27810Y-33317D01*
X27754Y-33261D01*
X27698Y-33148D01*
X27698Y-32811D01*
X27754Y-32698D01*
X27810Y-32642D01*
X27923Y-32586D01*
X28091Y-32586D01*
X28204Y-32642D01*
X28260Y-32698D01*
X28316Y-32811D01*
X28316Y-33148D01*
X28260Y-33261D01*
X28204Y-33317D01*
X28091Y-33373D01*
X27923Y-33373D01*
X28991Y-33373D02*
X28879Y-33317D01*
X28823Y-33205D01*
X28823Y-32192D01*
X29891Y-33317D02*
X29779Y-33373D01*
X29554Y-33373D01*
X29441Y-33317D01*
X29385Y-33205D01*
X29385Y-32755D01*
X29441Y-32642D01*
X29554Y-32586D01*
X29779Y-32586D01*
X29891Y-32642D01*
X29947Y-32755D01*
X29947Y-32867D01*
X29385Y-32980D01*
X30397Y-33317D02*
X30510Y-33373D01*
X30735Y-33373D01*
X30847Y-33317D01*
X30904Y-33205D01*
X30904Y-33148D01*
X30847Y-33036D01*
X30735Y-32980D01*
X30566Y-32980D01*
X30454Y-32923D01*
X30397Y-32811D01*
X30397Y-32755D01*
X30454Y-32642D01*
X30566Y-32586D01*
X30735Y-32586D01*
X30847Y-32642D01*
X31297Y-33823D02*
X31354Y-33767D01*
X31466Y-33598D01*
X31522Y-33486D01*
X31579Y-33317D01*
X31635Y-33036D01*
X31635Y-32811D01*
X31579Y-32530D01*
X31522Y-32361D01*
X31466Y-32248D01*
X31354Y-32080D01*
X31297Y-32023D01*
M02*
