G04 (created by PCBNEW (2013-07-07 BZR 4022)-stable) date 18/09/2013 13:21:15*
%MOIN*%
G04 Gerber Fmt 3.4, Leading zero omitted, Abs format*
%FSLAX34Y34*%
G01*
G70*
G90*
G04 APERTURE LIST*
%ADD10C,0.00590551*%
%ADD11C,0.011811*%
%ADD12R,0.0118X0.0256*%
G04 APERTURE END LIST*
G54D10*
G54D11*
X45303Y-9063D02*
X45388Y-9091D01*
X45416Y-9119D01*
X45444Y-9176D01*
X45444Y-9260D01*
X45416Y-9316D01*
X45388Y-9344D01*
X45331Y-9372D01*
X45106Y-9372D01*
X45106Y-8782D01*
X45303Y-8782D01*
X45359Y-8810D01*
X45388Y-8838D01*
X45416Y-8894D01*
X45416Y-8951D01*
X45388Y-9007D01*
X45359Y-9035D01*
X45303Y-9063D01*
X45106Y-9063D01*
X45697Y-9316D02*
X45725Y-9344D01*
X45697Y-9372D01*
X45669Y-9344D01*
X45697Y-9316D01*
X45697Y-9372D01*
X46428Y-9372D02*
X46428Y-8782D01*
X46653Y-8782D01*
X46709Y-8810D01*
X46737Y-8838D01*
X46766Y-8894D01*
X46766Y-8979D01*
X46737Y-9035D01*
X46709Y-9063D01*
X46653Y-9091D01*
X46428Y-9091D01*
X47272Y-9372D02*
X47272Y-9063D01*
X47244Y-9007D01*
X47187Y-8979D01*
X47075Y-8979D01*
X47019Y-9007D01*
X47272Y-9344D02*
X47215Y-9372D01*
X47075Y-9372D01*
X47019Y-9344D01*
X46991Y-9288D01*
X46991Y-9232D01*
X47019Y-9176D01*
X47075Y-9147D01*
X47215Y-9147D01*
X47272Y-9119D01*
X47525Y-9344D02*
X47581Y-9372D01*
X47694Y-9372D01*
X47750Y-9344D01*
X47778Y-9288D01*
X47778Y-9260D01*
X47750Y-9204D01*
X47694Y-9176D01*
X47609Y-9176D01*
X47553Y-9147D01*
X47525Y-9091D01*
X47525Y-9063D01*
X47553Y-9007D01*
X47609Y-8979D01*
X47694Y-8979D01*
X47750Y-9007D01*
X47947Y-8979D02*
X48172Y-8979D01*
X48031Y-8782D02*
X48031Y-9288D01*
X48059Y-9344D01*
X48115Y-9372D01*
X48172Y-9372D01*
X48593Y-9344D02*
X48537Y-9372D01*
X48425Y-9372D01*
X48368Y-9344D01*
X48340Y-9288D01*
X48340Y-9063D01*
X48368Y-9007D01*
X48425Y-8979D01*
X48537Y-8979D01*
X48593Y-9007D01*
X48622Y-9063D01*
X48622Y-9119D01*
X48340Y-9176D01*
G54D12*
X24704Y-18731D03*
X24507Y-18731D03*
X24310Y-18731D03*
X24113Y-18731D03*
X24113Y-18278D03*
X24310Y-18278D03*
X24507Y-18278D03*
X24704Y-18278D03*
M02*
