M48
;DRILL file {Pcbnew (2013-07-07 BZR 4022)-stable} date 9/18/2013 13:07:05
;FORMAT={-:-/ absolute / metric / decimal}
FMAT,2
METRIC,TZ
T1C0.500
T2C0.600
T3C0.800
T4C0.899
T5C1.600
%
G90
G05
M71
T1
X26.6Y-27.1
X31.5Y-28.5
X33.2Y-29.3
X47.9Y-36.3
X47.9Y-38.45
X49.15Y-37.8
X49.7Y-50.5
X50.4Y-36.3
X50.4Y-42.9
X52.95Y-28.05
X52.95Y-38.45
X54.2Y-35.65
X54.2Y-42.05
X56.75Y-24.1
X57.87Y-49.78
X58.15Y-29.35
X60.45Y-47.25
X61.65Y-50.1
X63.6Y-30.1
X63.6Y-31.05
X65.6Y-37.05
X68.15Y-41.3
X69.4Y-37.8
X70.7Y-36.3
X73.25Y-38.45
X73.9Y-24.1
X74.5Y-35.65
X75.7Y-49.25
X75.75Y-25.15
X75.751Y-26.401
X78.9Y-46.8
X81.7Y-44.
X84.8Y-38.45
X85.9Y-44.95
X86.05Y-37.05
X98.05Y-44.95
T2
X24.8Y-48.9
X26.1Y-48.9
X27.4Y-48.9
X42.5Y-50.2
X43.3Y-51.
X45.05Y-39.05
X45.85Y-39.9
X48.25Y-32.3
X64.45Y-34.25
X83.5Y-24.3
X83.5Y-31.45
X90.95Y-35.75
X91.15Y-41.5
X91.575Y-24.95
T3
X78.8Y-15.03
X78.8Y-17.57
X85.8Y-15.03
X85.8Y-17.57
X92.8Y-15.03
X92.8Y-17.57
X99.8Y-15.03
X99.8Y-17.57
X105.73Y-42.65
X105.73Y-49.05
X108.27Y-42.65
X108.27Y-49.05
T4
X19.89Y-27.5
X19.89Y-29.54
X19.89Y-31.58
X19.89Y-33.62
X21.67Y-26.48
X21.67Y-28.52
X21.67Y-30.56
X21.67Y-32.6
X38.93Y-19.89
X39.95Y-21.67
X40.97Y-19.89
X41.99Y-21.67
X43.01Y-19.89
X44.03Y-21.67
X45.05Y-19.89
X46.07Y-21.67
X58.43Y-19.89
X58.43Y-52.33
X59.45Y-21.67
X59.45Y-54.11
X60.47Y-19.89
X60.47Y-52.33
X61.49Y-21.67
X61.49Y-54.11
X62.51Y-19.89
X62.51Y-52.33
X63.53Y-21.67
X63.53Y-54.11
X64.55Y-19.89
X64.55Y-52.33
X65.57Y-21.67
X65.57Y-54.11
X77.93Y-52.33
X78.95Y-54.11
X79.97Y-52.33
X80.99Y-54.11
X82.01Y-52.33
X83.03Y-54.11
X84.05Y-52.33
X85.07Y-54.11
X102.33Y-27.5
X102.33Y-29.54
X102.33Y-31.58
X102.33Y-33.62
X104.11Y-26.48
X104.11Y-28.52
X104.11Y-30.56
X104.11Y-32.6
T5
X20.78Y-21.92
X20.78Y-38.18
X34.37Y-20.78
X50.63Y-20.78
X53.87Y-20.78
X53.87Y-53.22
X70.13Y-20.78
X70.13Y-53.22
X73.37Y-53.22
X89.63Y-53.22
X103.22Y-21.92
X103.22Y-38.18
T0
M30
