G04 (created by PCBNEW (2013-07-07 BZR 4022)-stable) date 9/18/2013 11:59:41*
%MOIN*%
G04 Gerber Fmt 3.4, Leading zero omitted, Abs format*
%FSLAX34Y34*%
G01*
G70*
G90*
G04 APERTURE LIST*
%ADD10C,0.00590551*%
%ADD11C,0.011811*%
%ADD12C,0.066*%
%ADD13C,0.23622*%
%ADD14C,0.1437*%
%ADD15C,0.0591*%
%ADD16C,0.0866142*%
%ADD17C,0.0346457*%
%ADD18C,0.0275591*%
%ADD19C,0.019685*%
%ADD20C,0.00787402*%
%ADD21C,0.01*%
G04 APERTURE END LIST*
G54D10*
G54D11*
X49176Y-8315D02*
X49260Y-8343D01*
X49288Y-8371D01*
X49316Y-8428D01*
X49316Y-8512D01*
X49288Y-8568D01*
X49260Y-8596D01*
X49204Y-8624D01*
X48979Y-8624D01*
X48979Y-8034D01*
X49176Y-8034D01*
X49232Y-8062D01*
X49260Y-8090D01*
X49288Y-8146D01*
X49288Y-8203D01*
X49260Y-8259D01*
X49232Y-8287D01*
X49176Y-8315D01*
X48979Y-8315D01*
X50357Y-8568D02*
X50329Y-8596D01*
X50244Y-8624D01*
X50188Y-8624D01*
X50104Y-8596D01*
X50047Y-8540D01*
X50019Y-8484D01*
X49991Y-8371D01*
X49991Y-8287D01*
X50019Y-8174D01*
X50047Y-8118D01*
X50104Y-8062D01*
X50188Y-8034D01*
X50244Y-8034D01*
X50329Y-8062D01*
X50357Y-8090D01*
X50863Y-8231D02*
X50863Y-8624D01*
X50610Y-8231D02*
X50610Y-8540D01*
X50638Y-8596D01*
X50694Y-8624D01*
X50778Y-8624D01*
X50835Y-8596D01*
X50863Y-8568D01*
G54D12*
X31692Y-8767D03*
X31692Y-7767D03*
X16535Y-36114D03*
X16535Y-37114D03*
X23228Y-36114D03*
X23228Y-37114D03*
X29921Y-36114D03*
X29921Y-37114D03*
X36220Y-36114D03*
X36220Y-37114D03*
X40551Y-8767D03*
X40551Y-7767D03*
X37598Y-8767D03*
X37598Y-7767D03*
X34645Y-8767D03*
X34645Y-7767D03*
G54D13*
X8661Y-8267D03*
X8661Y-43700D03*
X44094Y-43700D03*
X44094Y-8267D03*
G54D14*
X43700Y-23484D03*
X43700Y-28484D03*
G54D15*
X42700Y-24578D03*
X42000Y-24980D03*
X42700Y-25381D03*
X42000Y-25783D03*
X42700Y-26185D03*
X42000Y-26586D03*
X42700Y-26988D03*
X42000Y-27389D03*
G54D16*
X42350Y-22783D03*
X42350Y-29185D03*
G54D14*
X40688Y-43307D03*
X35688Y-43307D03*
G54D15*
X39594Y-42307D03*
X39192Y-41606D03*
X38791Y-42307D03*
X38389Y-41606D03*
X37988Y-42307D03*
X37586Y-41606D03*
X37185Y-42307D03*
X36783Y-41606D03*
G54D16*
X41389Y-41956D03*
X34988Y-41956D03*
G54D14*
X32814Y-43307D03*
X27814Y-43307D03*
G54D15*
X31720Y-42307D03*
X31318Y-41606D03*
X30917Y-42307D03*
X30515Y-41606D03*
X30114Y-42307D03*
X29712Y-41606D03*
X29311Y-42307D03*
X28909Y-41606D03*
G54D16*
X33515Y-41956D03*
X27114Y-41956D03*
G54D14*
X24940Y-43307D03*
X19940Y-43307D03*
G54D15*
X23846Y-42307D03*
X23444Y-41606D03*
X23043Y-42307D03*
X22641Y-41606D03*
X22240Y-42307D03*
X21838Y-41606D03*
X21437Y-42307D03*
X21035Y-41606D03*
G54D16*
X25641Y-41956D03*
X19240Y-41956D03*
G54D14*
X23877Y-8661D03*
X28877Y-8661D03*
G54D15*
X24972Y-9661D03*
X25374Y-10362D03*
X25775Y-9661D03*
X26177Y-10362D03*
X26578Y-9661D03*
X26980Y-10362D03*
X27381Y-9661D03*
X27783Y-10362D03*
G54D16*
X23177Y-10011D03*
X29578Y-10011D03*
G54D14*
X17066Y-43307D03*
X12066Y-43307D03*
G54D15*
X15972Y-42307D03*
X15570Y-41606D03*
X15169Y-42307D03*
X14767Y-41606D03*
X14366Y-42307D03*
X13964Y-41606D03*
X13562Y-42307D03*
X13161Y-41606D03*
G54D16*
X17767Y-41956D03*
X11366Y-41956D03*
G54D14*
X9055Y-28484D03*
X9055Y-23484D03*
G54D15*
X10055Y-27389D03*
X10755Y-26988D03*
X10055Y-26586D03*
X10755Y-26185D03*
X10055Y-25783D03*
X10755Y-25381D03*
X10055Y-24980D03*
X10755Y-24578D03*
G54D16*
X10405Y-29185D03*
X10405Y-22783D03*
G54D17*
X14015Y-16023D03*
X14409Y-15629D03*
X14770Y-15285D03*
X32950Y-30940D03*
X29085Y-19985D03*
X34755Y-29155D03*
G54D18*
X37840Y-35860D03*
X12550Y-27630D03*
X12580Y-28530D03*
X29575Y-40340D03*
X27292Y-15892D03*
X20820Y-18380D03*
X26673Y-15738D03*
X29480Y-19630D03*
X25980Y-15760D03*
X29455Y-18370D03*
X27827Y-15872D03*
X20305Y-21825D03*
X18055Y-39785D03*
X11450Y-39785D03*
X10915Y-39440D03*
X28910Y-39480D03*
X10420Y-39085D03*
X10125Y-39650D03*
X9715Y-39265D03*
X13165Y-39785D03*
X12590Y-39785D03*
X12020Y-39785D03*
X16390Y-39785D03*
X42820Y-38955D03*
X38845Y-38950D03*
X23450Y-40600D03*
X37505Y-35300D03*
X31720Y-22205D03*
X31965Y-18160D03*
X31425Y-21775D03*
X40500Y-20345D03*
G54D17*
X19842Y-15728D03*
X19842Y-15078D03*
X19291Y-15078D03*
X24590Y-21190D03*
X30465Y-29640D03*
X32115Y-28685D03*
G54D19*
X9424Y-27389D02*
X9417Y-27389D01*
X10055Y-27389D02*
X9429Y-27389D01*
X9424Y-27389D02*
X9429Y-27389D01*
X9192Y-26645D02*
X10055Y-25783D01*
X9192Y-27165D02*
X9192Y-26645D01*
X9417Y-27389D02*
X9192Y-27165D01*
X29870Y-11180D02*
X29605Y-11180D01*
X35400Y-11180D02*
X29870Y-11180D01*
X45010Y-20790D02*
X35400Y-11180D01*
X45010Y-23675D02*
X45010Y-20790D01*
X44106Y-24578D02*
X45010Y-23675D01*
X42700Y-24578D02*
X44106Y-24578D01*
X27263Y-8976D02*
X26578Y-9661D01*
X27657Y-8976D02*
X27263Y-8976D01*
X28090Y-9409D02*
X27657Y-8976D01*
X28090Y-9665D02*
X28090Y-9409D01*
X29605Y-11180D02*
X28090Y-9665D01*
X14366Y-42307D02*
X14366Y-42318D01*
X15405Y-42874D02*
X15972Y-42307D01*
X14921Y-42874D02*
X15405Y-42874D01*
X14366Y-42318D02*
X14921Y-42874D01*
X22240Y-42307D02*
X22248Y-42307D01*
X23279Y-42874D02*
X23846Y-42307D01*
X22814Y-42874D02*
X23279Y-42874D01*
X22248Y-42307D02*
X22814Y-42874D01*
X30114Y-42307D02*
X30114Y-42338D01*
X31153Y-42874D02*
X31720Y-42307D01*
X30649Y-42874D02*
X31153Y-42874D01*
X30114Y-42338D02*
X30649Y-42874D01*
X37988Y-42307D02*
X37988Y-42338D01*
X39007Y-42893D02*
X39594Y-42307D01*
X38543Y-42893D02*
X39007Y-42893D01*
X37988Y-42338D02*
X38543Y-42893D01*
X42700Y-26185D02*
X42712Y-26185D01*
X43326Y-25204D02*
X42700Y-24578D01*
X43326Y-25570D02*
X43326Y-25204D01*
X42712Y-26185D02*
X43326Y-25570D01*
X42700Y-24578D02*
X43098Y-24578D01*
X14366Y-42307D02*
X14366Y-42523D01*
X11417Y-28751D02*
X10055Y-27389D01*
X11417Y-30118D02*
X11417Y-28751D01*
X7874Y-33661D02*
X11417Y-30118D01*
X7874Y-39763D02*
X7874Y-33661D01*
X10433Y-42322D02*
X7874Y-39763D01*
X10433Y-43307D02*
X10433Y-42322D01*
X11614Y-44488D02*
X10433Y-43307D01*
X12401Y-44488D02*
X11614Y-44488D01*
X14366Y-42523D02*
X12401Y-44488D01*
X14770Y-15285D02*
X14770Y-11910D01*
X14770Y-11910D02*
X15305Y-11375D01*
X15305Y-11375D02*
X23258Y-11375D01*
X23258Y-11375D02*
X24972Y-9661D01*
X10055Y-25783D02*
X8998Y-25783D01*
X14175Y-15285D02*
X14770Y-15285D01*
X7700Y-21760D02*
X14175Y-15285D01*
X7700Y-24485D02*
X7700Y-21760D01*
X8998Y-25783D02*
X7700Y-24485D01*
X39594Y-42307D02*
X39594Y-43989D01*
X43455Y-26185D02*
X42700Y-26185D01*
X45055Y-27785D02*
X43455Y-26185D01*
X45055Y-38700D02*
X45055Y-27785D01*
X42270Y-41485D02*
X45055Y-38700D01*
X42270Y-43500D02*
X42270Y-41485D01*
X41355Y-44415D02*
X42270Y-43500D01*
X40020Y-44415D02*
X41355Y-44415D01*
X39594Y-43989D02*
X40020Y-44415D01*
X31720Y-42307D02*
X31720Y-43825D01*
X31720Y-43825D02*
X32265Y-44370D01*
X32265Y-44370D02*
X36810Y-44370D01*
X36810Y-44370D02*
X37988Y-43191D01*
X37988Y-43191D02*
X37988Y-42307D01*
X23846Y-42307D02*
X23846Y-43736D01*
X23846Y-43736D02*
X24495Y-44385D01*
X24495Y-44385D02*
X28920Y-44385D01*
X28920Y-44385D02*
X30114Y-43190D01*
X30114Y-43190D02*
X30114Y-42307D01*
X15972Y-42307D02*
X15972Y-43962D01*
X15972Y-43962D02*
X16530Y-44520D01*
X16530Y-44520D02*
X21075Y-44520D01*
X21075Y-44520D02*
X22240Y-43354D01*
X22240Y-43354D02*
X22240Y-42307D01*
X15972Y-42627D02*
X15972Y-42307D01*
X22240Y-42307D02*
X22240Y-42590D01*
X23846Y-42773D02*
X23846Y-42307D01*
X30114Y-42307D02*
X30114Y-42644D01*
X31720Y-42679D02*
X31720Y-42307D01*
X37988Y-42307D02*
X37988Y-42598D01*
X39594Y-42645D02*
X39594Y-42307D01*
X10055Y-25783D02*
X9701Y-25783D01*
X24972Y-9661D02*
X24972Y-9312D01*
X24972Y-9312D02*
X25520Y-8765D01*
X25520Y-8765D02*
X26140Y-8765D01*
X26140Y-8765D02*
X26578Y-9203D01*
X26578Y-9203D02*
X26578Y-9661D01*
X43104Y-26185D02*
X42700Y-26185D01*
X34755Y-29155D02*
X34735Y-29155D01*
X34735Y-29155D02*
X32950Y-30940D01*
X10055Y-24980D02*
X10055Y-24264D01*
X25440Y-23630D02*
X29085Y-19985D01*
X10690Y-23630D02*
X25440Y-23630D01*
X10055Y-24264D02*
X10690Y-23630D01*
X42700Y-26988D02*
X42700Y-27719D01*
X42160Y-28260D02*
X42700Y-27719D01*
X35650Y-28260D02*
X42160Y-28260D01*
X35650Y-28260D02*
X34755Y-29155D01*
G54D20*
X23228Y-37114D02*
X23228Y-37718D01*
X37840Y-37375D02*
X37840Y-35860D01*
X36634Y-38580D02*
X37840Y-37375D01*
X24090Y-38580D02*
X36634Y-38580D01*
X23228Y-37718D02*
X24090Y-38580D01*
X42000Y-26586D02*
X31403Y-26586D01*
X12970Y-28050D02*
X12550Y-27630D01*
X29940Y-28050D02*
X12970Y-28050D01*
X31403Y-26586D02*
X29940Y-28050D01*
X42000Y-27389D02*
X31970Y-27389D01*
X12785Y-28735D02*
X12580Y-28530D01*
X30625Y-28735D02*
X12785Y-28735D01*
X31970Y-27389D02*
X30625Y-28735D01*
X31318Y-41606D02*
X31318Y-41571D01*
X30087Y-40340D02*
X29575Y-40340D01*
X31318Y-41571D02*
X30087Y-40340D01*
X22757Y-18380D02*
X20820Y-18380D01*
X25794Y-15342D02*
X22757Y-18380D01*
X26742Y-15342D02*
X25794Y-15342D01*
X26742Y-15342D02*
X27292Y-15892D01*
X29480Y-18970D02*
X29480Y-19630D01*
X29050Y-18540D02*
X29480Y-18970D01*
X28360Y-18540D02*
X29050Y-18540D01*
X25715Y-15895D02*
X28360Y-18540D01*
X25715Y-15645D02*
X25715Y-15895D01*
X25860Y-15500D02*
X25715Y-15645D01*
X26435Y-15500D02*
X25860Y-15500D01*
X26435Y-15500D02*
X26673Y-15738D01*
X29280Y-18195D02*
X29455Y-18370D01*
X28415Y-18195D02*
X29280Y-18195D01*
X28415Y-18195D02*
X25980Y-15760D01*
X20305Y-18505D02*
X20305Y-21825D01*
X20710Y-18100D02*
X20305Y-18505D01*
X22814Y-18100D02*
X20710Y-18100D01*
X25729Y-15185D02*
X22814Y-18100D01*
X27140Y-15185D02*
X25729Y-15185D01*
X27140Y-15185D02*
X27827Y-15872D01*
X15570Y-41606D02*
X15570Y-41579D01*
X17365Y-39785D02*
X18055Y-39785D01*
X15570Y-41579D02*
X17365Y-39785D01*
X36783Y-41606D02*
X36783Y-41468D01*
X11450Y-39762D02*
X11450Y-39785D01*
X12474Y-38737D02*
X11450Y-39762D01*
X13596Y-38737D02*
X12474Y-38737D01*
X13753Y-38895D02*
X13596Y-38737D01*
X34210Y-38895D02*
X13753Y-38895D01*
X36783Y-41468D02*
X34210Y-38895D01*
X36783Y-41606D02*
X36701Y-41606D01*
X37586Y-41606D02*
X37586Y-41486D01*
X11774Y-38580D02*
X10915Y-39440D01*
X13661Y-38580D02*
X11774Y-38580D01*
X13818Y-38737D02*
X13661Y-38580D01*
X34837Y-38737D02*
X13818Y-38737D01*
X37586Y-41486D02*
X34837Y-38737D01*
X30515Y-41606D02*
X30515Y-41525D01*
X28910Y-40300D02*
X28910Y-39480D01*
X29480Y-40870D02*
X28910Y-40300D01*
X29860Y-40870D02*
X29480Y-40870D01*
X30515Y-41525D02*
X29860Y-40870D01*
X29712Y-41606D02*
X29712Y-41582D01*
X10420Y-40089D02*
X10420Y-39085D01*
X10700Y-40370D02*
X10420Y-40089D01*
X11540Y-40370D02*
X10700Y-40370D01*
X11760Y-40150D02*
X11540Y-40370D01*
X11760Y-39675D02*
X11760Y-40150D01*
X12539Y-38895D02*
X11760Y-39675D01*
X13530Y-38895D02*
X12539Y-38895D01*
X13688Y-39052D02*
X13530Y-38895D01*
X27182Y-39052D02*
X13688Y-39052D01*
X29712Y-41582D02*
X27182Y-39052D01*
X21838Y-41606D02*
X21838Y-41498D01*
X12330Y-39665D02*
X12330Y-40342D01*
X12330Y-40342D02*
X12145Y-40527D01*
X12145Y-40527D02*
X10635Y-40527D01*
X10635Y-40527D02*
X10125Y-40017D01*
X10125Y-40017D02*
X10125Y-39650D01*
X12784Y-39210D02*
X12330Y-39665D01*
X13400Y-39210D02*
X12784Y-39210D01*
X13557Y-39367D02*
X13400Y-39210D01*
X19707Y-39367D02*
X13557Y-39367D01*
X21838Y-41498D02*
X19707Y-39367D01*
X21838Y-41606D02*
X21838Y-41578D01*
X13964Y-41606D02*
X13964Y-40219D01*
X9715Y-39830D02*
X9715Y-39265D01*
X10570Y-40685D02*
X9715Y-39830D01*
X12335Y-40685D02*
X10570Y-40685D01*
X12905Y-40115D02*
X12335Y-40685D01*
X12905Y-39680D02*
X12905Y-40115D01*
X13060Y-39525D02*
X12905Y-39680D01*
X13270Y-39525D02*
X13060Y-39525D01*
X13964Y-40219D02*
X13270Y-39525D01*
X13161Y-41606D02*
X13161Y-39788D01*
X13161Y-39788D02*
X13165Y-39785D01*
X19005Y-39525D02*
X13492Y-39525D01*
X21035Y-41555D02*
X19005Y-39525D01*
X21035Y-41606D02*
X21035Y-41555D01*
X12590Y-39772D02*
X12590Y-39785D01*
X12994Y-39367D02*
X12590Y-39772D01*
X13335Y-39367D02*
X12994Y-39367D01*
X13492Y-39525D02*
X13335Y-39367D01*
X28909Y-41606D02*
X28909Y-41579D01*
X12020Y-39752D02*
X12020Y-39785D01*
X12719Y-39052D02*
X12020Y-39752D01*
X13465Y-39052D02*
X12719Y-39052D01*
X13623Y-39210D02*
X13465Y-39052D01*
X26540Y-39210D02*
X13623Y-39210D01*
X28909Y-41579D02*
X26540Y-39210D01*
X28909Y-41606D02*
X28909Y-41424D01*
X14767Y-41606D02*
X14767Y-41407D01*
X14767Y-41407D02*
X16390Y-39785D01*
X39192Y-41606D02*
X40908Y-41606D01*
X42820Y-39695D02*
X42820Y-38955D01*
X40908Y-41606D02*
X42820Y-39695D01*
X38389Y-41606D02*
X38389Y-39405D01*
X38389Y-39405D02*
X38845Y-38950D01*
X22641Y-41408D02*
X23450Y-40600D01*
X22641Y-41408D02*
X22641Y-41606D01*
X16535Y-37114D02*
X22105Y-37114D01*
X37505Y-37487D02*
X37505Y-35300D01*
X36569Y-38422D02*
X37505Y-37487D01*
X25237Y-38422D02*
X36569Y-38422D01*
X23405Y-36590D02*
X25237Y-38422D01*
X22630Y-36590D02*
X23405Y-36590D01*
X22105Y-37114D02*
X22630Y-36590D01*
X10755Y-26185D02*
X27739Y-26185D01*
X27739Y-26185D02*
X31720Y-22205D01*
X31245Y-22205D02*
X31720Y-22205D01*
X31080Y-22040D02*
X31245Y-22205D01*
X31080Y-19045D02*
X31080Y-22040D01*
X31965Y-18160D02*
X31080Y-19045D01*
X10755Y-26988D02*
X27921Y-26988D01*
X32085Y-21775D02*
X31425Y-21775D01*
X32275Y-21965D02*
X32085Y-21775D01*
X32275Y-22635D02*
X32275Y-21965D01*
X27921Y-26988D02*
X32275Y-22635D01*
X40500Y-20345D02*
X32855Y-20345D01*
X32855Y-20345D02*
X31425Y-21775D01*
X42000Y-24980D02*
X42000Y-23955D01*
X41220Y-20345D02*
X40500Y-20345D01*
X41540Y-20665D02*
X41220Y-20345D01*
X41540Y-23495D02*
X41540Y-20665D01*
X42000Y-23955D02*
X41540Y-23495D01*
G54D19*
X19535Y-16085D02*
X19535Y-15322D01*
X19535Y-15322D02*
X19291Y-15078D01*
X23075Y-22705D02*
X24590Y-21190D01*
X19935Y-22705D02*
X23075Y-22705D01*
X19535Y-22305D02*
X19935Y-22705D01*
X19535Y-16085D02*
X19535Y-22305D01*
X30465Y-29640D02*
X31420Y-28685D01*
X31420Y-28685D02*
X32115Y-28685D01*
G54D10*
G36*
X35834Y-20157D02*
X32855Y-20157D01*
X32783Y-20171D01*
X32722Y-20212D01*
X31445Y-21488D01*
X31368Y-21488D01*
X31267Y-21530D01*
X31267Y-19122D01*
X31944Y-18446D01*
X32021Y-18446D01*
X32126Y-18402D01*
X32207Y-18322D01*
X32251Y-18217D01*
X32251Y-18103D01*
X32207Y-17998D01*
X32127Y-17917D01*
X32022Y-17873D01*
X31908Y-17873D01*
X31803Y-17917D01*
X31722Y-17997D01*
X31678Y-18102D01*
X31678Y-18180D01*
X30947Y-18912D01*
X30906Y-18973D01*
X30892Y-19045D01*
X30892Y-22040D01*
X30906Y-22111D01*
X30947Y-22172D01*
X31112Y-22337D01*
X31112Y-22337D01*
X31173Y-22378D01*
X31173Y-22378D01*
X31244Y-22392D01*
X31245Y-22392D01*
X31266Y-22392D01*
X27662Y-25997D01*
X21540Y-25997D01*
X19420Y-23876D01*
X25440Y-23876D01*
X25534Y-23858D01*
X25534Y-23858D01*
X25614Y-23804D01*
X29112Y-20306D01*
X29148Y-20306D01*
X29266Y-20257D01*
X29357Y-20167D01*
X29406Y-20049D01*
X29406Y-19921D01*
X29400Y-19907D01*
X29422Y-19916D01*
X29536Y-19916D01*
X29641Y-19872D01*
X29722Y-19792D01*
X29766Y-19687D01*
X29766Y-19573D01*
X29722Y-19468D01*
X29667Y-19412D01*
X29667Y-18970D01*
X29653Y-18898D01*
X29612Y-18837D01*
X29431Y-18656D01*
X29511Y-18656D01*
X29616Y-18612D01*
X29697Y-18532D01*
X29741Y-18427D01*
X29741Y-18313D01*
X29697Y-18208D01*
X29617Y-18127D01*
X29512Y-18083D01*
X29434Y-18083D01*
X29412Y-18062D01*
X29351Y-18021D01*
X29280Y-18007D01*
X28492Y-18007D01*
X26266Y-15780D01*
X26266Y-15703D01*
X26259Y-15687D01*
X26357Y-15687D01*
X26387Y-15718D01*
X26387Y-15795D01*
X26430Y-15900D01*
X26511Y-15981D01*
X26616Y-16024D01*
X26730Y-16024D01*
X26835Y-15981D01*
X26916Y-15900D01*
X26951Y-15816D01*
X27006Y-15871D01*
X27006Y-15949D01*
X27049Y-16054D01*
X27130Y-16135D01*
X27235Y-16178D01*
X27349Y-16178D01*
X27454Y-16135D01*
X27535Y-16054D01*
X27564Y-15984D01*
X27584Y-16034D01*
X27665Y-16115D01*
X27770Y-16158D01*
X27884Y-16158D01*
X27989Y-16115D01*
X28070Y-16034D01*
X28113Y-15929D01*
X28113Y-15815D01*
X28070Y-15710D01*
X27989Y-15629D01*
X27884Y-15586D01*
X27806Y-15586D01*
X27272Y-15052D01*
X27211Y-15011D01*
X27140Y-14997D01*
X25729Y-14997D01*
X25657Y-15011D01*
X25596Y-15052D01*
X25596Y-15052D01*
X25596Y-15052D01*
X22736Y-17912D01*
X20710Y-17912D01*
X20638Y-17926D01*
X20577Y-17967D01*
X20172Y-18372D01*
X20131Y-18433D01*
X20117Y-18505D01*
X20117Y-21608D01*
X20062Y-21662D01*
X20018Y-21767D01*
X20018Y-21881D01*
X20062Y-21986D01*
X20142Y-22067D01*
X20247Y-22111D01*
X20361Y-22111D01*
X20466Y-22067D01*
X20547Y-21987D01*
X20591Y-21882D01*
X20591Y-21768D01*
X20547Y-21663D01*
X20492Y-21607D01*
X20492Y-18582D01*
X20564Y-18511D01*
X20577Y-18541D01*
X20657Y-18622D01*
X20762Y-18666D01*
X20876Y-18666D01*
X20981Y-18622D01*
X21037Y-18567D01*
X22757Y-18567D01*
X22829Y-18553D01*
X22890Y-18512D01*
X25527Y-15875D01*
X25527Y-15895D01*
X25541Y-15966D01*
X25582Y-16027D01*
X28227Y-18672D01*
X28227Y-18672D01*
X28288Y-18713D01*
X28288Y-18713D01*
X28359Y-18727D01*
X28360Y-18727D01*
X28972Y-18727D01*
X29292Y-19047D01*
X29292Y-19413D01*
X29237Y-19467D01*
X29193Y-19572D01*
X29193Y-19681D01*
X29149Y-19663D01*
X29021Y-19663D01*
X28903Y-19712D01*
X28812Y-19802D01*
X28763Y-19920D01*
X28763Y-19957D01*
X25337Y-23383D01*
X18926Y-23383D01*
X17963Y-22420D01*
X17963Y-15178D01*
X20296Y-12845D01*
X28522Y-12845D01*
X35834Y-20157D01*
X35834Y-20157D01*
G37*
G54D21*
X35834Y-20157D02*
X32855Y-20157D01*
X32783Y-20171D01*
X32722Y-20212D01*
X31445Y-21488D01*
X31368Y-21488D01*
X31267Y-21530D01*
X31267Y-19122D01*
X31944Y-18446D01*
X32021Y-18446D01*
X32126Y-18402D01*
X32207Y-18322D01*
X32251Y-18217D01*
X32251Y-18103D01*
X32207Y-17998D01*
X32127Y-17917D01*
X32022Y-17873D01*
X31908Y-17873D01*
X31803Y-17917D01*
X31722Y-17997D01*
X31678Y-18102D01*
X31678Y-18180D01*
X30947Y-18912D01*
X30906Y-18973D01*
X30892Y-19045D01*
X30892Y-22040D01*
X30906Y-22111D01*
X30947Y-22172D01*
X31112Y-22337D01*
X31112Y-22337D01*
X31173Y-22378D01*
X31173Y-22378D01*
X31244Y-22392D01*
X31245Y-22392D01*
X31266Y-22392D01*
X27662Y-25997D01*
X21540Y-25997D01*
X19420Y-23876D01*
X25440Y-23876D01*
X25534Y-23858D01*
X25534Y-23858D01*
X25614Y-23804D01*
X29112Y-20306D01*
X29148Y-20306D01*
X29266Y-20257D01*
X29357Y-20167D01*
X29406Y-20049D01*
X29406Y-19921D01*
X29400Y-19907D01*
X29422Y-19916D01*
X29536Y-19916D01*
X29641Y-19872D01*
X29722Y-19792D01*
X29766Y-19687D01*
X29766Y-19573D01*
X29722Y-19468D01*
X29667Y-19412D01*
X29667Y-18970D01*
X29653Y-18898D01*
X29612Y-18837D01*
X29431Y-18656D01*
X29511Y-18656D01*
X29616Y-18612D01*
X29697Y-18532D01*
X29741Y-18427D01*
X29741Y-18313D01*
X29697Y-18208D01*
X29617Y-18127D01*
X29512Y-18083D01*
X29434Y-18083D01*
X29412Y-18062D01*
X29351Y-18021D01*
X29280Y-18007D01*
X28492Y-18007D01*
X26266Y-15780D01*
X26266Y-15703D01*
X26259Y-15687D01*
X26357Y-15687D01*
X26387Y-15718D01*
X26387Y-15795D01*
X26430Y-15900D01*
X26511Y-15981D01*
X26616Y-16024D01*
X26730Y-16024D01*
X26835Y-15981D01*
X26916Y-15900D01*
X26951Y-15816D01*
X27006Y-15871D01*
X27006Y-15949D01*
X27049Y-16054D01*
X27130Y-16135D01*
X27235Y-16178D01*
X27349Y-16178D01*
X27454Y-16135D01*
X27535Y-16054D01*
X27564Y-15984D01*
X27584Y-16034D01*
X27665Y-16115D01*
X27770Y-16158D01*
X27884Y-16158D01*
X27989Y-16115D01*
X28070Y-16034D01*
X28113Y-15929D01*
X28113Y-15815D01*
X28070Y-15710D01*
X27989Y-15629D01*
X27884Y-15586D01*
X27806Y-15586D01*
X27272Y-15052D01*
X27211Y-15011D01*
X27140Y-14997D01*
X25729Y-14997D01*
X25657Y-15011D01*
X25596Y-15052D01*
X25596Y-15052D01*
X25596Y-15052D01*
X22736Y-17912D01*
X20710Y-17912D01*
X20638Y-17926D01*
X20577Y-17967D01*
X20172Y-18372D01*
X20131Y-18433D01*
X20117Y-18505D01*
X20117Y-21608D01*
X20062Y-21662D01*
X20018Y-21767D01*
X20018Y-21881D01*
X20062Y-21986D01*
X20142Y-22067D01*
X20247Y-22111D01*
X20361Y-22111D01*
X20466Y-22067D01*
X20547Y-21987D01*
X20591Y-21882D01*
X20591Y-21768D01*
X20547Y-21663D01*
X20492Y-21607D01*
X20492Y-18582D01*
X20564Y-18511D01*
X20577Y-18541D01*
X20657Y-18622D01*
X20762Y-18666D01*
X20876Y-18666D01*
X20981Y-18622D01*
X21037Y-18567D01*
X22757Y-18567D01*
X22829Y-18553D01*
X22890Y-18512D01*
X25527Y-15875D01*
X25527Y-15895D01*
X25541Y-15966D01*
X25582Y-16027D01*
X28227Y-18672D01*
X28227Y-18672D01*
X28288Y-18713D01*
X28288Y-18713D01*
X28359Y-18727D01*
X28360Y-18727D01*
X28972Y-18727D01*
X29292Y-19047D01*
X29292Y-19413D01*
X29237Y-19467D01*
X29193Y-19572D01*
X29193Y-19681D01*
X29149Y-19663D01*
X29021Y-19663D01*
X28903Y-19712D01*
X28812Y-19802D01*
X28763Y-19920D01*
X28763Y-19957D01*
X25337Y-23383D01*
X18926Y-23383D01*
X17963Y-22420D01*
X17963Y-15178D01*
X20296Y-12845D01*
X28522Y-12845D01*
X35834Y-20157D01*
G54D10*
G36*
X38729Y-32656D02*
X35412Y-35973D01*
X31516Y-35973D01*
X24465Y-28922D01*
X30625Y-28922D01*
X30696Y-28908D01*
X30757Y-28867D01*
X32048Y-27577D01*
X38729Y-27577D01*
X38729Y-28013D01*
X35650Y-28013D01*
X35555Y-28031D01*
X35475Y-28085D01*
X35475Y-28085D01*
X34727Y-28833D01*
X34691Y-28833D01*
X34573Y-28882D01*
X34482Y-28972D01*
X34433Y-29090D01*
X34433Y-29107D01*
X32922Y-30618D01*
X32886Y-30618D01*
X32768Y-30667D01*
X32677Y-30757D01*
X32628Y-30875D01*
X32628Y-31003D01*
X32677Y-31121D01*
X32767Y-31212D01*
X32885Y-31261D01*
X33013Y-31261D01*
X33131Y-31212D01*
X33222Y-31122D01*
X33271Y-31004D01*
X33271Y-30967D01*
X34762Y-29476D01*
X34818Y-29476D01*
X34936Y-29427D01*
X35027Y-29337D01*
X35076Y-29219D01*
X35076Y-29182D01*
X35752Y-28506D01*
X38729Y-28506D01*
X38729Y-32656D01*
X38729Y-32656D01*
G37*
G54D21*
X38729Y-32656D02*
X35412Y-35973D01*
X31516Y-35973D01*
X24465Y-28922D01*
X30625Y-28922D01*
X30696Y-28908D01*
X30757Y-28867D01*
X32048Y-27577D01*
X38729Y-27577D01*
X38729Y-28013D01*
X35650Y-28013D01*
X35555Y-28031D01*
X35475Y-28085D01*
X35475Y-28085D01*
X34727Y-28833D01*
X34691Y-28833D01*
X34573Y-28882D01*
X34482Y-28972D01*
X34433Y-29090D01*
X34433Y-29107D01*
X32922Y-30618D01*
X32886Y-30618D01*
X32768Y-30667D01*
X32677Y-30757D01*
X32628Y-30875D01*
X32628Y-31003D01*
X32677Y-31121D01*
X32767Y-31212D01*
X32885Y-31261D01*
X33013Y-31261D01*
X33131Y-31212D01*
X33222Y-31122D01*
X33271Y-31004D01*
X33271Y-30967D01*
X34762Y-29476D01*
X34818Y-29476D01*
X34936Y-29427D01*
X35027Y-29337D01*
X35076Y-29219D01*
X35076Y-29182D01*
X35752Y-28506D01*
X38729Y-28506D01*
X38729Y-32656D01*
G54D10*
G36*
X45885Y-45491D02*
X45424Y-45491D01*
X45424Y-43437D01*
X45424Y-8004D01*
X45222Y-7515D01*
X44848Y-7141D01*
X44360Y-6938D01*
X43831Y-6937D01*
X43342Y-7139D01*
X42968Y-7513D01*
X42765Y-8002D01*
X42764Y-8531D01*
X42966Y-9019D01*
X43340Y-9394D01*
X43828Y-9597D01*
X44357Y-9597D01*
X44846Y-9395D01*
X45220Y-9021D01*
X45423Y-8533D01*
X45424Y-8004D01*
X45424Y-43437D01*
X45222Y-42948D01*
X44848Y-42574D01*
X44567Y-42457D01*
X44567Y-28312D01*
X44567Y-23312D01*
X44436Y-22993D01*
X44192Y-22749D01*
X43873Y-22617D01*
X43529Y-22617D01*
X43210Y-22748D01*
X42966Y-22992D01*
X42931Y-23075D01*
X42931Y-22668D01*
X42843Y-22454D01*
X42680Y-22290D01*
X42466Y-22202D01*
X42235Y-22201D01*
X42021Y-22290D01*
X41857Y-22453D01*
X41768Y-22667D01*
X41768Y-22898D01*
X41857Y-23112D01*
X42020Y-23276D01*
X42234Y-23364D01*
X42465Y-23365D01*
X42679Y-23276D01*
X42843Y-23113D01*
X42931Y-22899D01*
X42931Y-22668D01*
X42931Y-23075D01*
X42834Y-23311D01*
X42833Y-23655D01*
X42965Y-23974D01*
X43209Y-24218D01*
X43527Y-24351D01*
X43872Y-24351D01*
X44191Y-24219D01*
X44435Y-23975D01*
X44567Y-23657D01*
X44567Y-23312D01*
X44567Y-28312D01*
X44436Y-27993D01*
X44192Y-27749D01*
X43873Y-27617D01*
X43529Y-27617D01*
X43248Y-27733D01*
X43248Y-26089D01*
X43248Y-24482D01*
X43170Y-24280D01*
X43156Y-24259D01*
X43056Y-24236D01*
X43043Y-24248D01*
X43043Y-24223D01*
X43020Y-24123D01*
X42821Y-24035D01*
X42604Y-24030D01*
X42402Y-24109D01*
X42381Y-24123D01*
X42358Y-24223D01*
X42700Y-24565D01*
X43043Y-24223D01*
X43043Y-24248D01*
X42713Y-24578D01*
X43056Y-24921D01*
X43156Y-24898D01*
X43243Y-24699D01*
X43248Y-24482D01*
X43248Y-26089D01*
X43170Y-25886D01*
X43156Y-25865D01*
X43056Y-25842D01*
X42713Y-26185D01*
X43056Y-26527D01*
X43156Y-26504D01*
X43243Y-26306D01*
X43248Y-26089D01*
X43248Y-27733D01*
X43210Y-27748D01*
X43144Y-27814D01*
X43144Y-26900D01*
X43077Y-26737D01*
X42996Y-26655D01*
X42999Y-26654D01*
X43020Y-26640D01*
X43043Y-26540D01*
X42700Y-26197D01*
X42695Y-26203D01*
X42682Y-26190D01*
X42687Y-26185D01*
X42682Y-26179D01*
X42695Y-26166D01*
X42700Y-26172D01*
X43043Y-25829D01*
X43020Y-25729D01*
X42992Y-25717D01*
X43076Y-25633D01*
X43144Y-25470D01*
X43144Y-25293D01*
X43077Y-25130D01*
X42996Y-25049D01*
X42999Y-25048D01*
X43020Y-25033D01*
X43043Y-24934D01*
X42700Y-24591D01*
X42695Y-24597D01*
X42682Y-24584D01*
X42687Y-24578D01*
X42345Y-24236D01*
X42245Y-24259D01*
X42187Y-24390D01*
X42187Y-23955D01*
X42173Y-23883D01*
X42132Y-23822D01*
X41727Y-23417D01*
X41727Y-20665D01*
X41727Y-20664D01*
X41727Y-20664D01*
X41724Y-20650D01*
X41713Y-20593D01*
X41713Y-20593D01*
X41672Y-20532D01*
X41672Y-20532D01*
X41352Y-20212D01*
X41291Y-20171D01*
X41220Y-20157D01*
X41029Y-20157D01*
X41029Y-8672D01*
X41029Y-7672D01*
X40957Y-7497D01*
X40822Y-7362D01*
X40646Y-7289D01*
X40456Y-7289D01*
X40280Y-7361D01*
X40145Y-7496D01*
X40072Y-7672D01*
X40072Y-7862D01*
X40145Y-8038D01*
X40279Y-8173D01*
X40455Y-8246D01*
X40645Y-8246D01*
X40821Y-8173D01*
X40956Y-8039D01*
X41029Y-7863D01*
X41029Y-7672D01*
X41029Y-8672D01*
X40957Y-8497D01*
X40822Y-8362D01*
X40646Y-8289D01*
X40456Y-8289D01*
X40280Y-8361D01*
X40145Y-8496D01*
X40072Y-8672D01*
X40072Y-8862D01*
X40145Y-9038D01*
X40279Y-9173D01*
X40455Y-9246D01*
X40645Y-9246D01*
X40821Y-9173D01*
X40956Y-9039D01*
X41029Y-8863D01*
X41029Y-8672D01*
X41029Y-20157D01*
X40716Y-20157D01*
X40662Y-20102D01*
X40557Y-20058D01*
X40443Y-20058D01*
X40338Y-20102D01*
X40282Y-20157D01*
X38076Y-20157D01*
X38076Y-8672D01*
X38076Y-7672D01*
X38004Y-7497D01*
X37869Y-7362D01*
X37694Y-7289D01*
X37503Y-7289D01*
X37327Y-7361D01*
X37193Y-7496D01*
X37120Y-7672D01*
X37119Y-7862D01*
X37192Y-8038D01*
X37327Y-8173D01*
X37502Y-8246D01*
X37693Y-8246D01*
X37869Y-8173D01*
X38003Y-8039D01*
X38076Y-7863D01*
X38076Y-7672D01*
X38076Y-8672D01*
X38004Y-8497D01*
X37869Y-8362D01*
X37694Y-8289D01*
X37503Y-8289D01*
X37327Y-8361D01*
X37193Y-8496D01*
X37120Y-8672D01*
X37119Y-8862D01*
X37192Y-9038D01*
X37327Y-9173D01*
X37502Y-9246D01*
X37693Y-9246D01*
X37869Y-9173D01*
X38003Y-9039D01*
X38076Y-8863D01*
X38076Y-8672D01*
X38076Y-20157D01*
X36566Y-20157D01*
X35124Y-18714D01*
X35124Y-8672D01*
X35124Y-7672D01*
X35051Y-7497D01*
X34917Y-7362D01*
X34741Y-7289D01*
X34550Y-7289D01*
X34375Y-7361D01*
X34240Y-7496D01*
X34167Y-7672D01*
X34167Y-7862D01*
X34239Y-8038D01*
X34374Y-8173D01*
X34550Y-8246D01*
X34740Y-8246D01*
X34916Y-8173D01*
X35051Y-8039D01*
X35124Y-7863D01*
X35124Y-7672D01*
X35124Y-8672D01*
X35051Y-8497D01*
X34917Y-8362D01*
X34741Y-8289D01*
X34550Y-8289D01*
X34375Y-8361D01*
X34240Y-8496D01*
X34167Y-8672D01*
X34167Y-8862D01*
X34239Y-9038D01*
X34374Y-9173D01*
X34550Y-9246D01*
X34740Y-9246D01*
X34916Y-9173D01*
X35051Y-9039D01*
X35124Y-8863D01*
X35124Y-8672D01*
X35124Y-18714D01*
X32171Y-15762D01*
X32171Y-8672D01*
X32171Y-7672D01*
X32098Y-7497D01*
X31964Y-7362D01*
X31788Y-7289D01*
X31598Y-7289D01*
X31422Y-7361D01*
X31287Y-7496D01*
X31214Y-7672D01*
X31214Y-7862D01*
X31287Y-8038D01*
X31421Y-8173D01*
X31597Y-8246D01*
X31787Y-8246D01*
X31963Y-8173D01*
X32098Y-8039D01*
X32171Y-7863D01*
X32171Y-7672D01*
X32171Y-8672D01*
X32098Y-8497D01*
X31964Y-8362D01*
X31788Y-8289D01*
X31598Y-8289D01*
X31422Y-8361D01*
X31287Y-8496D01*
X31214Y-8672D01*
X31214Y-8862D01*
X31287Y-9038D01*
X31421Y-9173D01*
X31597Y-9246D01*
X31787Y-9246D01*
X31963Y-9173D01*
X32098Y-9039D01*
X32171Y-8863D01*
X32171Y-8672D01*
X32171Y-15762D01*
X30160Y-13751D01*
X30160Y-9896D01*
X30071Y-9682D01*
X29908Y-9519D01*
X29745Y-9451D01*
X29745Y-8489D01*
X29613Y-8170D01*
X29369Y-7926D01*
X29051Y-7794D01*
X28706Y-7794D01*
X28387Y-7926D01*
X28143Y-8169D01*
X28011Y-8488D01*
X28010Y-8833D01*
X28142Y-9151D01*
X28386Y-9395D01*
X28704Y-9528D01*
X29049Y-9528D01*
X29368Y-9396D01*
X29612Y-9153D01*
X29744Y-8834D01*
X29745Y-8489D01*
X29745Y-9451D01*
X29694Y-9430D01*
X29463Y-9430D01*
X29249Y-9518D01*
X29086Y-9681D01*
X28997Y-9895D01*
X28997Y-10126D01*
X29085Y-10340D01*
X29248Y-10504D01*
X29462Y-10593D01*
X29693Y-10593D01*
X29907Y-10505D01*
X30071Y-10341D01*
X30160Y-10127D01*
X30160Y-9896D01*
X30160Y-13751D01*
X28760Y-12351D01*
X28227Y-12351D01*
X28227Y-10274D01*
X28160Y-10111D01*
X28035Y-9986D01*
X27872Y-9918D01*
X27752Y-9918D01*
X27758Y-9913D01*
X27825Y-9750D01*
X27825Y-9573D01*
X27758Y-9410D01*
X27633Y-9285D01*
X27470Y-9217D01*
X27293Y-9217D01*
X27130Y-9284D01*
X27049Y-9366D01*
X27048Y-9363D01*
X27033Y-9341D01*
X26934Y-9318D01*
X26921Y-9331D01*
X26921Y-9305D01*
X26898Y-9206D01*
X26699Y-9118D01*
X26482Y-9113D01*
X26280Y-9191D01*
X26259Y-9206D01*
X26236Y-9305D01*
X26578Y-9648D01*
X26921Y-9305D01*
X26921Y-9331D01*
X26591Y-9661D01*
X26597Y-9666D01*
X26584Y-9679D01*
X26578Y-9674D01*
X26573Y-9679D01*
X26560Y-9666D01*
X26565Y-9661D01*
X26223Y-9318D01*
X26123Y-9341D01*
X26111Y-9369D01*
X26027Y-9285D01*
X25864Y-9217D01*
X25687Y-9217D01*
X25524Y-9284D01*
X25443Y-9366D01*
X25441Y-9363D01*
X25427Y-9341D01*
X25327Y-9318D01*
X25315Y-9331D01*
X25315Y-9305D01*
X25291Y-9206D01*
X25093Y-9118D01*
X24876Y-9113D01*
X24745Y-9164D01*
X24745Y-8489D01*
X24613Y-8170D01*
X24369Y-7926D01*
X24051Y-7794D01*
X23706Y-7794D01*
X23387Y-7926D01*
X23143Y-8169D01*
X23011Y-8488D01*
X23010Y-8833D01*
X23142Y-9151D01*
X23386Y-9395D01*
X23704Y-9528D01*
X24049Y-9528D01*
X24368Y-9396D01*
X24612Y-9153D01*
X24744Y-8834D01*
X24745Y-8489D01*
X24745Y-9164D01*
X24674Y-9191D01*
X24652Y-9206D01*
X24629Y-9305D01*
X24972Y-9648D01*
X25315Y-9305D01*
X25315Y-9331D01*
X24985Y-9661D01*
X24990Y-9666D01*
X24978Y-9679D01*
X24972Y-9674D01*
X24959Y-9687D01*
X24959Y-9661D01*
X24617Y-9318D01*
X24517Y-9341D01*
X24429Y-9540D01*
X24424Y-9757D01*
X24503Y-9959D01*
X24517Y-9980D01*
X24617Y-10004D01*
X24959Y-9661D01*
X24959Y-9687D01*
X24629Y-10016D01*
X24652Y-10116D01*
X24851Y-10204D01*
X24957Y-10206D01*
X24930Y-10273D01*
X24930Y-10450D01*
X24997Y-10613D01*
X25122Y-10738D01*
X25285Y-10806D01*
X25461Y-10806D01*
X25625Y-10738D01*
X25750Y-10613D01*
X25775Y-10552D01*
X25800Y-10613D01*
X25925Y-10738D01*
X26088Y-10806D01*
X26265Y-10806D01*
X26428Y-10738D01*
X26553Y-10613D01*
X26578Y-10552D01*
X26603Y-10613D01*
X26728Y-10738D01*
X26891Y-10806D01*
X27068Y-10806D01*
X27231Y-10738D01*
X27356Y-10613D01*
X27381Y-10552D01*
X27406Y-10613D01*
X27531Y-10738D01*
X27694Y-10806D01*
X27871Y-10806D01*
X28034Y-10738D01*
X28159Y-10613D01*
X28227Y-10450D01*
X28227Y-10274D01*
X28227Y-12351D01*
X23758Y-12351D01*
X23758Y-9896D01*
X23670Y-9682D01*
X23506Y-9519D01*
X23293Y-9430D01*
X23062Y-9430D01*
X22848Y-9518D01*
X22684Y-9681D01*
X22595Y-9895D01*
X22595Y-10126D01*
X22683Y-10340D01*
X22847Y-10504D01*
X23060Y-10593D01*
X23292Y-10593D01*
X23506Y-10505D01*
X23669Y-10341D01*
X23758Y-10127D01*
X23758Y-9896D01*
X23758Y-12351D01*
X20058Y-12351D01*
X17469Y-14939D01*
X17469Y-22461D01*
X18391Y-23383D01*
X10987Y-23383D01*
X10987Y-22668D01*
X10898Y-22454D01*
X10735Y-22290D01*
X10521Y-22202D01*
X10290Y-22201D01*
X10076Y-22290D01*
X9991Y-22375D01*
X9991Y-8004D01*
X9789Y-7515D01*
X9415Y-7141D01*
X8927Y-6938D01*
X8398Y-6937D01*
X7909Y-7139D01*
X7534Y-7513D01*
X7332Y-8002D01*
X7331Y-8531D01*
X7533Y-9019D01*
X7907Y-9394D01*
X8395Y-9597D01*
X8924Y-9597D01*
X9413Y-9395D01*
X9787Y-9021D01*
X9990Y-8533D01*
X9991Y-8004D01*
X9991Y-22375D01*
X9912Y-22453D01*
X9824Y-22667D01*
X9823Y-22898D01*
X9912Y-23112D01*
X10075Y-23276D01*
X10289Y-23364D01*
X10520Y-23365D01*
X10734Y-23276D01*
X10898Y-23113D01*
X10986Y-22899D01*
X10987Y-22668D01*
X10987Y-23383D01*
X10690Y-23383D01*
X10689Y-23383D01*
X10642Y-23392D01*
X10595Y-23401D01*
X10515Y-23455D01*
X10515Y-23455D01*
X10515Y-23455D01*
X9922Y-24048D01*
X9922Y-23312D01*
X9790Y-22993D01*
X9546Y-22749D01*
X9228Y-22617D01*
X8883Y-22617D01*
X8564Y-22748D01*
X8320Y-22992D01*
X8188Y-23311D01*
X8188Y-23655D01*
X8319Y-23974D01*
X8563Y-24218D01*
X8881Y-24351D01*
X9226Y-24351D01*
X9545Y-24219D01*
X9789Y-23975D01*
X9921Y-23657D01*
X9922Y-23312D01*
X9922Y-24048D01*
X9880Y-24090D01*
X9827Y-24170D01*
X9808Y-24264D01*
X9808Y-24601D01*
X9803Y-24603D01*
X9678Y-24728D01*
X9611Y-24891D01*
X9611Y-25068D01*
X9678Y-25231D01*
X9759Y-25312D01*
X9756Y-25314D01*
X9735Y-25328D01*
X9712Y-25428D01*
X10055Y-25770D01*
X10060Y-25765D01*
X10073Y-25777D01*
X10067Y-25783D01*
X10073Y-25789D01*
X10060Y-25801D01*
X10055Y-25796D01*
X10042Y-25809D01*
X10042Y-25783D01*
X9699Y-25440D01*
X9599Y-25463D01*
X9512Y-25662D01*
X9507Y-25879D01*
X9585Y-26081D01*
X9599Y-26103D01*
X9699Y-26126D01*
X10042Y-25783D01*
X10042Y-25809D01*
X9712Y-26138D01*
X9735Y-26238D01*
X9763Y-26250D01*
X9678Y-26334D01*
X9611Y-26497D01*
X9611Y-26674D01*
X9678Y-26837D01*
X9759Y-26919D01*
X9756Y-26920D01*
X9735Y-26934D01*
X9712Y-27034D01*
X10055Y-27376D01*
X10060Y-27371D01*
X10073Y-27384D01*
X10067Y-27389D01*
X10410Y-27732D01*
X10510Y-27709D01*
X10597Y-27510D01*
X10600Y-27404D01*
X10667Y-27432D01*
X10843Y-27432D01*
X11007Y-27364D01*
X11132Y-27239D01*
X11158Y-27175D01*
X22184Y-27175D01*
X22870Y-27862D01*
X13047Y-27862D01*
X12836Y-27650D01*
X12836Y-27573D01*
X12792Y-27468D01*
X12712Y-27387D01*
X12607Y-27343D01*
X12493Y-27343D01*
X12388Y-27387D01*
X12307Y-27467D01*
X12263Y-27572D01*
X12263Y-27686D01*
X12307Y-27791D01*
X12387Y-27872D01*
X12492Y-27916D01*
X12570Y-27916D01*
X12837Y-28182D01*
X12898Y-28223D01*
X12970Y-28237D01*
X23245Y-28237D01*
X23555Y-28547D01*
X12866Y-28547D01*
X12866Y-28473D01*
X12822Y-28368D01*
X12742Y-28287D01*
X12637Y-28243D01*
X12523Y-28243D01*
X12418Y-28287D01*
X12337Y-28367D01*
X12293Y-28472D01*
X12293Y-28586D01*
X12337Y-28691D01*
X12417Y-28772D01*
X12522Y-28816D01*
X12600Y-28816D01*
X12652Y-28867D01*
X12713Y-28908D01*
X12785Y-28922D01*
X23930Y-28922D01*
X31475Y-36467D01*
X35650Y-36467D01*
X35790Y-36327D01*
X35814Y-36384D01*
X35949Y-36519D01*
X36124Y-36592D01*
X36315Y-36592D01*
X36491Y-36519D01*
X36625Y-36385D01*
X36698Y-36209D01*
X36698Y-36019D01*
X36626Y-35843D01*
X36491Y-35708D01*
X36433Y-35684D01*
X39223Y-32894D01*
X39223Y-28506D01*
X42160Y-28506D01*
X42254Y-28488D01*
X42254Y-28488D01*
X42334Y-28434D01*
X42875Y-27893D01*
X42875Y-27893D01*
X42875Y-27893D01*
X42928Y-27813D01*
X42928Y-27813D01*
X42938Y-27766D01*
X42947Y-27719D01*
X42947Y-27719D01*
X42947Y-27719D01*
X42947Y-27366D01*
X42951Y-27364D01*
X43076Y-27239D01*
X43144Y-27076D01*
X43144Y-26900D01*
X43144Y-27814D01*
X42966Y-27992D01*
X42834Y-28311D01*
X42833Y-28655D01*
X42965Y-28974D01*
X43209Y-29218D01*
X43527Y-29351D01*
X43872Y-29351D01*
X44191Y-29219D01*
X44435Y-28975D01*
X44567Y-28657D01*
X44567Y-28312D01*
X44567Y-42457D01*
X44360Y-42371D01*
X43831Y-42371D01*
X43342Y-42573D01*
X43106Y-42808D01*
X43106Y-38898D01*
X43062Y-38793D01*
X42982Y-38712D01*
X42931Y-38691D01*
X42931Y-29069D01*
X42843Y-28856D01*
X42680Y-28692D01*
X42466Y-28603D01*
X42235Y-28603D01*
X42021Y-28691D01*
X41857Y-28855D01*
X41768Y-29068D01*
X41768Y-29300D01*
X41857Y-29514D01*
X42020Y-29677D01*
X42234Y-29766D01*
X42465Y-29766D01*
X42679Y-29678D01*
X42843Y-29514D01*
X42931Y-29301D01*
X42931Y-29069D01*
X42931Y-38691D01*
X42877Y-38668D01*
X42763Y-38668D01*
X42658Y-38712D01*
X42577Y-38792D01*
X42533Y-38897D01*
X42533Y-39011D01*
X42577Y-39116D01*
X42632Y-39172D01*
X42632Y-39617D01*
X40830Y-41418D01*
X39595Y-41418D01*
X39569Y-41355D01*
X39444Y-41230D01*
X39281Y-41162D01*
X39223Y-41162D01*
X39104Y-41162D01*
X38941Y-41229D01*
X38816Y-41354D01*
X38791Y-41415D01*
X38766Y-41355D01*
X38641Y-41230D01*
X38577Y-41203D01*
X38577Y-39483D01*
X38824Y-39236D01*
X38901Y-39236D01*
X39006Y-39192D01*
X39087Y-39112D01*
X39131Y-39007D01*
X39131Y-38893D01*
X39087Y-38788D01*
X39007Y-38707D01*
X38902Y-38663D01*
X38788Y-38663D01*
X38683Y-38707D01*
X38602Y-38787D01*
X38558Y-38892D01*
X38558Y-38970D01*
X38256Y-39272D01*
X38216Y-39333D01*
X38201Y-39405D01*
X38201Y-41203D01*
X38138Y-41229D01*
X38013Y-41354D01*
X37988Y-41415D01*
X37963Y-41355D01*
X37838Y-41230D01*
X37675Y-41162D01*
X37527Y-41162D01*
X35133Y-38767D01*
X36634Y-38767D01*
X36706Y-38753D01*
X36767Y-38712D01*
X37972Y-37507D01*
X37972Y-37507D01*
X37972Y-37507D01*
X38013Y-37446D01*
X38013Y-37446D01*
X38024Y-37389D01*
X38027Y-37375D01*
X38027Y-37375D01*
X38027Y-37375D01*
X38027Y-36076D01*
X38082Y-36022D01*
X38126Y-35917D01*
X38126Y-35803D01*
X38082Y-35698D01*
X38002Y-35617D01*
X37897Y-35573D01*
X37783Y-35573D01*
X37692Y-35611D01*
X37692Y-35516D01*
X37747Y-35462D01*
X37791Y-35357D01*
X37791Y-35243D01*
X37747Y-35138D01*
X37667Y-35057D01*
X37562Y-35013D01*
X37448Y-35013D01*
X37343Y-35057D01*
X37262Y-35137D01*
X37218Y-35242D01*
X37218Y-35356D01*
X37262Y-35461D01*
X37317Y-35517D01*
X37317Y-37409D01*
X36698Y-38027D01*
X36698Y-37019D01*
X36626Y-36843D01*
X36491Y-36708D01*
X36316Y-36635D01*
X36125Y-36635D01*
X35949Y-36708D01*
X35815Y-36842D01*
X35742Y-37018D01*
X35741Y-37208D01*
X35814Y-37384D01*
X35949Y-37519D01*
X36124Y-37592D01*
X36315Y-37592D01*
X36491Y-37519D01*
X36625Y-37385D01*
X36698Y-37209D01*
X36698Y-37019D01*
X36698Y-38027D01*
X36491Y-38234D01*
X30399Y-38234D01*
X30399Y-37019D01*
X30399Y-36019D01*
X30327Y-35843D01*
X30192Y-35708D01*
X30016Y-35635D01*
X29826Y-35635D01*
X29650Y-35708D01*
X29515Y-35842D01*
X29442Y-36018D01*
X29442Y-36208D01*
X29515Y-36384D01*
X29649Y-36519D01*
X29825Y-36592D01*
X30016Y-36592D01*
X30191Y-36519D01*
X30326Y-36385D01*
X30399Y-36209D01*
X30399Y-36019D01*
X30399Y-37019D01*
X30327Y-36843D01*
X30192Y-36708D01*
X30016Y-36635D01*
X29826Y-36635D01*
X29650Y-36708D01*
X29515Y-36842D01*
X29442Y-37018D01*
X29442Y-37208D01*
X29515Y-37384D01*
X29649Y-37519D01*
X29825Y-37592D01*
X30016Y-37592D01*
X30191Y-37519D01*
X30326Y-37385D01*
X30399Y-37209D01*
X30399Y-37019D01*
X30399Y-38234D01*
X25315Y-38234D01*
X23549Y-36469D01*
X23633Y-36385D01*
X23706Y-36209D01*
X23706Y-36019D01*
X23634Y-35843D01*
X23499Y-35708D01*
X23323Y-35635D01*
X23133Y-35635D01*
X22957Y-35708D01*
X22822Y-35842D01*
X22750Y-36018D01*
X22749Y-36208D01*
X22822Y-36384D01*
X22839Y-36402D01*
X22630Y-36402D01*
X22558Y-36416D01*
X22497Y-36457D01*
X22497Y-36457D01*
X22497Y-36457D01*
X22028Y-36926D01*
X17013Y-36926D01*
X17013Y-36019D01*
X16941Y-35843D01*
X16806Y-35708D01*
X16631Y-35635D01*
X16440Y-35635D01*
X16264Y-35708D01*
X16130Y-35842D01*
X16057Y-36018D01*
X16056Y-36208D01*
X16129Y-36384D01*
X16264Y-36519D01*
X16439Y-36592D01*
X16630Y-36592D01*
X16806Y-36519D01*
X16940Y-36385D01*
X17013Y-36209D01*
X17013Y-36019D01*
X17013Y-36926D01*
X16975Y-36926D01*
X16941Y-36843D01*
X16806Y-36708D01*
X16631Y-36635D01*
X16440Y-36635D01*
X16264Y-36708D01*
X16130Y-36842D01*
X16057Y-37018D01*
X16056Y-37208D01*
X16129Y-37384D01*
X16264Y-37519D01*
X16439Y-37592D01*
X16630Y-37592D01*
X16806Y-37519D01*
X16940Y-37385D01*
X16975Y-37301D01*
X22105Y-37301D01*
X22177Y-37287D01*
X22238Y-37246D01*
X22707Y-36777D01*
X22888Y-36777D01*
X22822Y-36842D01*
X22750Y-37018D01*
X22749Y-37208D01*
X22822Y-37384D01*
X22956Y-37519D01*
X23040Y-37554D01*
X23040Y-37718D01*
X23054Y-37790D01*
X23095Y-37851D01*
X23794Y-38549D01*
X13896Y-38549D01*
X13794Y-38447D01*
X13733Y-38406D01*
X13661Y-38392D01*
X11774Y-38392D01*
X11774Y-38392D01*
X11760Y-38395D01*
X11703Y-38406D01*
X11642Y-38447D01*
X11642Y-38447D01*
X11642Y-38447D01*
X10987Y-39102D01*
X10987Y-29069D01*
X10898Y-28856D01*
X10735Y-28692D01*
X10521Y-28603D01*
X10397Y-28603D01*
X10397Y-27745D01*
X10055Y-27402D01*
X10042Y-27415D01*
X10042Y-27389D01*
X9699Y-27047D01*
X9599Y-27070D01*
X9512Y-27268D01*
X9507Y-27485D01*
X9585Y-27688D01*
X9599Y-27709D01*
X9699Y-27732D01*
X10042Y-27389D01*
X10042Y-27415D01*
X9712Y-27745D01*
X9735Y-27844D01*
X9934Y-27932D01*
X10151Y-27937D01*
X10353Y-27859D01*
X10374Y-27844D01*
X10397Y-27745D01*
X10397Y-28603D01*
X10290Y-28603D01*
X10076Y-28691D01*
X9922Y-28845D01*
X9922Y-28312D01*
X9790Y-27993D01*
X9546Y-27749D01*
X9228Y-27617D01*
X8883Y-27617D01*
X8564Y-27748D01*
X8320Y-27992D01*
X8188Y-28311D01*
X8188Y-28655D01*
X8319Y-28974D01*
X8563Y-29218D01*
X8881Y-29351D01*
X9226Y-29351D01*
X9545Y-29219D01*
X9789Y-28975D01*
X9921Y-28657D01*
X9922Y-28312D01*
X9922Y-28845D01*
X9912Y-28855D01*
X9824Y-29068D01*
X9823Y-29300D01*
X9912Y-29514D01*
X10075Y-29677D01*
X10289Y-29766D01*
X10520Y-29766D01*
X10734Y-29678D01*
X10898Y-29514D01*
X10986Y-29301D01*
X10987Y-29069D01*
X10987Y-39102D01*
X10935Y-39153D01*
X10858Y-39153D01*
X10753Y-39197D01*
X10672Y-39277D01*
X10628Y-39382D01*
X10628Y-39496D01*
X10672Y-39601D01*
X10752Y-39682D01*
X10857Y-39726D01*
X10971Y-39726D01*
X11076Y-39682D01*
X11157Y-39602D01*
X11201Y-39497D01*
X11201Y-39419D01*
X11852Y-38767D01*
X12178Y-38767D01*
X11447Y-39498D01*
X11393Y-39498D01*
X11288Y-39542D01*
X11207Y-39622D01*
X11163Y-39727D01*
X11163Y-39841D01*
X11207Y-39946D01*
X11287Y-40027D01*
X11392Y-40071D01*
X11506Y-40071D01*
X11572Y-40044D01*
X11572Y-40072D01*
X11462Y-40182D01*
X10778Y-40182D01*
X10607Y-40011D01*
X10607Y-39301D01*
X10662Y-39247D01*
X10706Y-39142D01*
X10706Y-39028D01*
X10662Y-38923D01*
X10582Y-38842D01*
X10477Y-38798D01*
X10363Y-38798D01*
X10258Y-38842D01*
X10177Y-38922D01*
X10133Y-39027D01*
X10133Y-39141D01*
X10177Y-39246D01*
X10232Y-39302D01*
X10232Y-39384D01*
X10182Y-39363D01*
X10068Y-39363D01*
X9966Y-39405D01*
X10001Y-39322D01*
X10001Y-39208D01*
X9957Y-39103D01*
X9877Y-39022D01*
X9772Y-38978D01*
X9658Y-38978D01*
X9553Y-39022D01*
X9472Y-39102D01*
X9428Y-39207D01*
X9428Y-39321D01*
X9472Y-39426D01*
X9527Y-39482D01*
X9527Y-39830D01*
X9541Y-39901D01*
X9582Y-39962D01*
X10437Y-40817D01*
X10498Y-40858D01*
X10498Y-40858D01*
X10570Y-40872D01*
X12335Y-40872D01*
X12406Y-40858D01*
X12467Y-40817D01*
X12973Y-40311D01*
X12973Y-41203D01*
X12910Y-41229D01*
X12785Y-41354D01*
X12717Y-41517D01*
X12717Y-41694D01*
X12784Y-41857D01*
X12909Y-41982D01*
X13072Y-42050D01*
X13191Y-42050D01*
X13186Y-42055D01*
X13119Y-42218D01*
X13118Y-42395D01*
X13186Y-42558D01*
X13311Y-42683D01*
X13474Y-42750D01*
X13650Y-42751D01*
X13814Y-42683D01*
X13895Y-42602D01*
X13896Y-42605D01*
X13910Y-42626D01*
X14010Y-42649D01*
X14353Y-42307D01*
X14347Y-42301D01*
X14360Y-42288D01*
X14366Y-42294D01*
X14371Y-42288D01*
X14384Y-42301D01*
X14378Y-42307D01*
X14721Y-42649D01*
X14821Y-42626D01*
X14833Y-42599D01*
X14917Y-42683D01*
X15080Y-42750D01*
X15257Y-42751D01*
X15420Y-42683D01*
X15501Y-42602D01*
X15503Y-42605D01*
X15517Y-42626D01*
X15617Y-42649D01*
X15959Y-42307D01*
X15954Y-42301D01*
X15966Y-42288D01*
X15972Y-42294D01*
X16315Y-41951D01*
X16291Y-41851D01*
X16093Y-41764D01*
X15986Y-41761D01*
X16014Y-41694D01*
X16014Y-41518D01*
X15980Y-41435D01*
X17442Y-39972D01*
X17838Y-39972D01*
X17892Y-40027D01*
X17997Y-40071D01*
X18111Y-40071D01*
X18216Y-40027D01*
X18297Y-39947D01*
X18341Y-39842D01*
X18341Y-39728D01*
X18334Y-39712D01*
X18927Y-39712D01*
X20632Y-41418D01*
X20591Y-41517D01*
X20591Y-41694D01*
X20658Y-41857D01*
X20783Y-41982D01*
X20946Y-42050D01*
X21065Y-42050D01*
X21060Y-42055D01*
X20993Y-42218D01*
X20993Y-42395D01*
X21060Y-42558D01*
X21185Y-42683D01*
X21348Y-42750D01*
X21524Y-42751D01*
X21688Y-42683D01*
X21769Y-42602D01*
X21770Y-42605D01*
X21784Y-42626D01*
X21884Y-42649D01*
X22227Y-42307D01*
X22221Y-42301D01*
X22234Y-42288D01*
X22240Y-42294D01*
X22245Y-42288D01*
X22258Y-42301D01*
X22252Y-42307D01*
X22595Y-42649D01*
X22695Y-42626D01*
X22707Y-42599D01*
X22791Y-42683D01*
X22954Y-42750D01*
X23131Y-42751D01*
X23294Y-42683D01*
X23375Y-42602D01*
X23377Y-42605D01*
X23391Y-42626D01*
X23491Y-42649D01*
X23833Y-42307D01*
X23828Y-42301D01*
X23840Y-42288D01*
X23846Y-42294D01*
X24189Y-41951D01*
X24166Y-41851D01*
X23967Y-41764D01*
X23860Y-41761D01*
X23888Y-41694D01*
X23888Y-41518D01*
X23821Y-41355D01*
X23696Y-41230D01*
X23533Y-41162D01*
X23356Y-41162D01*
X23193Y-41229D01*
X23068Y-41354D01*
X23043Y-41415D01*
X23018Y-41355D01*
X22989Y-41326D01*
X23429Y-40886D01*
X23506Y-40886D01*
X23611Y-40842D01*
X23692Y-40762D01*
X23736Y-40657D01*
X23736Y-40543D01*
X23692Y-40438D01*
X23612Y-40357D01*
X23507Y-40313D01*
X23393Y-40313D01*
X23288Y-40357D01*
X23207Y-40437D01*
X23163Y-40542D01*
X23163Y-40620D01*
X22622Y-41162D01*
X22553Y-41162D01*
X22390Y-41229D01*
X22265Y-41354D01*
X22240Y-41415D01*
X22215Y-41355D01*
X22090Y-41230D01*
X21927Y-41162D01*
X21767Y-41162D01*
X20003Y-39397D01*
X26462Y-39397D01*
X28499Y-41435D01*
X28465Y-41517D01*
X28465Y-41694D01*
X28532Y-41857D01*
X28657Y-41982D01*
X28820Y-42050D01*
X28939Y-42050D01*
X28934Y-42055D01*
X28867Y-42218D01*
X28867Y-42395D01*
X28934Y-42558D01*
X29059Y-42683D01*
X29222Y-42750D01*
X29398Y-42751D01*
X29562Y-42683D01*
X29643Y-42602D01*
X29644Y-42605D01*
X29658Y-42626D01*
X29758Y-42649D01*
X30101Y-42307D01*
X30095Y-42301D01*
X30108Y-42288D01*
X30114Y-42294D01*
X30119Y-42288D01*
X30132Y-42301D01*
X30126Y-42307D01*
X30469Y-42649D01*
X30569Y-42626D01*
X30581Y-42599D01*
X30665Y-42683D01*
X30828Y-42750D01*
X31005Y-42751D01*
X31168Y-42683D01*
X31249Y-42602D01*
X31251Y-42605D01*
X31265Y-42626D01*
X31365Y-42649D01*
X31707Y-42307D01*
X31702Y-42301D01*
X31714Y-42288D01*
X31720Y-42294D01*
X32063Y-41951D01*
X32040Y-41851D01*
X31841Y-41764D01*
X31735Y-41761D01*
X31762Y-41694D01*
X31762Y-41518D01*
X31695Y-41355D01*
X31570Y-41230D01*
X31407Y-41162D01*
X31230Y-41162D01*
X31191Y-41178D01*
X30220Y-40207D01*
X30159Y-40166D01*
X30087Y-40152D01*
X29791Y-40152D01*
X29737Y-40097D01*
X29632Y-40053D01*
X29518Y-40053D01*
X29413Y-40097D01*
X29332Y-40177D01*
X29288Y-40282D01*
X29288Y-40396D01*
X29300Y-40424D01*
X29097Y-40222D01*
X29097Y-39696D01*
X29152Y-39642D01*
X29196Y-39537D01*
X29196Y-39423D01*
X29152Y-39318D01*
X29072Y-39237D01*
X28967Y-39193D01*
X28853Y-39193D01*
X28748Y-39237D01*
X28667Y-39317D01*
X28623Y-39422D01*
X28623Y-39536D01*
X28667Y-39641D01*
X28722Y-39697D01*
X28722Y-40300D01*
X28728Y-40333D01*
X27478Y-39082D01*
X34132Y-39082D01*
X36406Y-41356D01*
X36339Y-41517D01*
X36339Y-41694D01*
X36406Y-41857D01*
X36531Y-41982D01*
X36694Y-42050D01*
X36813Y-42050D01*
X36808Y-42055D01*
X36741Y-42218D01*
X36741Y-42395D01*
X36808Y-42558D01*
X36933Y-42683D01*
X37096Y-42750D01*
X37272Y-42751D01*
X37436Y-42683D01*
X37517Y-42602D01*
X37518Y-42605D01*
X37532Y-42626D01*
X37632Y-42649D01*
X37975Y-42307D01*
X37969Y-42301D01*
X37982Y-42288D01*
X37988Y-42294D01*
X37993Y-42288D01*
X38006Y-42301D01*
X38000Y-42307D01*
X38343Y-42649D01*
X38443Y-42626D01*
X38455Y-42599D01*
X38539Y-42683D01*
X38702Y-42750D01*
X38879Y-42751D01*
X39042Y-42683D01*
X39123Y-42602D01*
X39125Y-42605D01*
X39139Y-42626D01*
X39223Y-42646D01*
X39239Y-42649D01*
X39581Y-42307D01*
X39576Y-42301D01*
X39588Y-42288D01*
X39594Y-42294D01*
X39937Y-41951D01*
X39914Y-41851D01*
X39783Y-41794D01*
X40827Y-41794D01*
X40808Y-41840D01*
X40808Y-42071D01*
X40896Y-42285D01*
X41059Y-42449D01*
X41273Y-42538D01*
X41504Y-42538D01*
X41718Y-42449D01*
X41882Y-42286D01*
X41971Y-42072D01*
X41971Y-41841D01*
X41883Y-41627D01*
X41719Y-41464D01*
X41505Y-41375D01*
X41405Y-41375D01*
X42952Y-39827D01*
X42993Y-39766D01*
X42993Y-39766D01*
X43007Y-39695D01*
X43007Y-39171D01*
X43062Y-39117D01*
X43106Y-39012D01*
X43106Y-38898D01*
X43106Y-42808D01*
X42968Y-42946D01*
X42765Y-43435D01*
X42764Y-43964D01*
X42966Y-44452D01*
X43340Y-44827D01*
X43828Y-45030D01*
X44357Y-45030D01*
X44846Y-44828D01*
X45220Y-44454D01*
X45423Y-43966D01*
X45424Y-43437D01*
X45424Y-45491D01*
X41556Y-45491D01*
X41556Y-43135D01*
X41424Y-42816D01*
X41180Y-42572D01*
X40862Y-42440D01*
X40517Y-42440D01*
X40198Y-42571D01*
X40142Y-42627D01*
X40142Y-42211D01*
X40063Y-42008D01*
X40049Y-41987D01*
X39949Y-41964D01*
X39607Y-42307D01*
X39949Y-42649D01*
X40049Y-42626D01*
X40137Y-42428D01*
X40142Y-42211D01*
X40142Y-42627D01*
X39954Y-42815D01*
X39937Y-42857D01*
X39937Y-42662D01*
X39594Y-42319D01*
X39251Y-42662D01*
X39274Y-42762D01*
X39473Y-42849D01*
X39690Y-42854D01*
X39892Y-42776D01*
X39914Y-42762D01*
X39937Y-42662D01*
X39937Y-42857D01*
X39822Y-43133D01*
X39821Y-43478D01*
X39953Y-43797D01*
X40197Y-44041D01*
X40515Y-44173D01*
X40860Y-44174D01*
X41179Y-44042D01*
X41423Y-43798D01*
X41555Y-43480D01*
X41556Y-43135D01*
X41556Y-45491D01*
X39223Y-45491D01*
X38330Y-45491D01*
X38330Y-42662D01*
X37988Y-42319D01*
X37645Y-42662D01*
X37668Y-42762D01*
X37867Y-42849D01*
X38084Y-42854D01*
X38286Y-42776D01*
X38307Y-42762D01*
X38330Y-42662D01*
X38330Y-45491D01*
X36556Y-45491D01*
X36556Y-43135D01*
X36424Y-42816D01*
X36180Y-42572D01*
X35862Y-42440D01*
X35569Y-42440D01*
X35569Y-41841D01*
X35481Y-41627D01*
X35318Y-41464D01*
X35104Y-41375D01*
X34873Y-41375D01*
X34659Y-41463D01*
X34495Y-41626D01*
X34406Y-41840D01*
X34406Y-42071D01*
X34494Y-42285D01*
X34658Y-42449D01*
X34872Y-42538D01*
X35103Y-42538D01*
X35317Y-42449D01*
X35480Y-42286D01*
X35569Y-42072D01*
X35569Y-41841D01*
X35569Y-42440D01*
X35517Y-42440D01*
X35198Y-42571D01*
X34954Y-42815D01*
X34822Y-43133D01*
X34821Y-43478D01*
X34953Y-43797D01*
X35197Y-44041D01*
X35515Y-44173D01*
X35860Y-44174D01*
X36179Y-44042D01*
X36423Y-43798D01*
X36555Y-43480D01*
X36556Y-43135D01*
X36556Y-45491D01*
X34097Y-45491D01*
X34097Y-41841D01*
X34009Y-41627D01*
X33845Y-41464D01*
X33631Y-41375D01*
X33400Y-41375D01*
X33186Y-41463D01*
X33023Y-41626D01*
X32934Y-41840D01*
X32934Y-42071D01*
X33022Y-42285D01*
X33185Y-42449D01*
X33399Y-42538D01*
X33630Y-42538D01*
X33844Y-42449D01*
X34008Y-42286D01*
X34097Y-42072D01*
X34097Y-41841D01*
X34097Y-45491D01*
X33682Y-45491D01*
X33682Y-43135D01*
X33550Y-42816D01*
X33306Y-42572D01*
X32988Y-42440D01*
X32643Y-42440D01*
X32324Y-42571D01*
X32268Y-42627D01*
X32268Y-42211D01*
X32189Y-42008D01*
X32175Y-41987D01*
X32075Y-41964D01*
X31733Y-42307D01*
X32075Y-42649D01*
X32175Y-42626D01*
X32263Y-42428D01*
X32268Y-42211D01*
X32268Y-42627D01*
X32080Y-42815D01*
X32063Y-42857D01*
X32063Y-42662D01*
X31720Y-42319D01*
X31377Y-42662D01*
X31400Y-42762D01*
X31599Y-42849D01*
X31816Y-42854D01*
X32018Y-42776D01*
X32040Y-42762D01*
X32063Y-42662D01*
X32063Y-42857D01*
X31948Y-43133D01*
X31947Y-43478D01*
X32079Y-43797D01*
X32323Y-44041D01*
X32641Y-44173D01*
X32986Y-44174D01*
X33305Y-44042D01*
X33549Y-43798D01*
X33681Y-43480D01*
X33682Y-43135D01*
X33682Y-45491D01*
X30456Y-45491D01*
X30456Y-42662D01*
X30114Y-42319D01*
X29771Y-42662D01*
X29794Y-42762D01*
X29993Y-42849D01*
X30210Y-42854D01*
X30412Y-42776D01*
X30433Y-42762D01*
X30456Y-42662D01*
X30456Y-45491D01*
X28682Y-45491D01*
X28682Y-43135D01*
X28550Y-42816D01*
X28306Y-42572D01*
X27988Y-42440D01*
X27695Y-42440D01*
X27695Y-41841D01*
X27607Y-41627D01*
X27443Y-41464D01*
X27230Y-41375D01*
X26999Y-41375D01*
X26785Y-41463D01*
X26621Y-41626D01*
X26532Y-41840D01*
X26532Y-42071D01*
X26620Y-42285D01*
X26784Y-42449D01*
X26997Y-42538D01*
X27229Y-42538D01*
X27443Y-42449D01*
X27606Y-42286D01*
X27695Y-42072D01*
X27695Y-41841D01*
X27695Y-42440D01*
X27643Y-42440D01*
X27324Y-42571D01*
X27080Y-42815D01*
X26948Y-43133D01*
X26947Y-43478D01*
X27079Y-43797D01*
X27323Y-44041D01*
X27641Y-44173D01*
X27986Y-44174D01*
X28305Y-44042D01*
X28549Y-43798D01*
X28681Y-43480D01*
X28682Y-43135D01*
X28682Y-45491D01*
X26223Y-45491D01*
X26223Y-41841D01*
X26134Y-41627D01*
X25971Y-41464D01*
X25757Y-41375D01*
X25526Y-41375D01*
X25312Y-41463D01*
X25149Y-41626D01*
X25060Y-41840D01*
X25060Y-42071D01*
X25148Y-42285D01*
X25311Y-42449D01*
X25525Y-42538D01*
X25756Y-42538D01*
X25970Y-42449D01*
X26134Y-42286D01*
X26223Y-42072D01*
X26223Y-41841D01*
X26223Y-45491D01*
X25808Y-45491D01*
X25808Y-43135D01*
X25676Y-42816D01*
X25432Y-42572D01*
X25114Y-42440D01*
X24769Y-42440D01*
X24450Y-42571D01*
X24394Y-42627D01*
X24394Y-42211D01*
X24315Y-42008D01*
X24301Y-41987D01*
X24201Y-41964D01*
X23859Y-42307D01*
X24201Y-42649D01*
X24301Y-42626D01*
X24389Y-42428D01*
X24394Y-42211D01*
X24394Y-42627D01*
X24206Y-42815D01*
X24189Y-42857D01*
X24189Y-42662D01*
X23846Y-42319D01*
X23503Y-42662D01*
X23526Y-42762D01*
X23725Y-42849D01*
X23942Y-42854D01*
X24144Y-42776D01*
X24166Y-42762D01*
X24189Y-42662D01*
X24189Y-42857D01*
X24074Y-43133D01*
X24073Y-43478D01*
X24205Y-43797D01*
X24449Y-44041D01*
X24767Y-44173D01*
X25112Y-44174D01*
X25431Y-44042D01*
X25675Y-43798D01*
X25807Y-43480D01*
X25808Y-43135D01*
X25808Y-45491D01*
X22582Y-45491D01*
X22582Y-42662D01*
X22240Y-42319D01*
X21897Y-42662D01*
X21920Y-42762D01*
X22119Y-42849D01*
X22336Y-42854D01*
X22538Y-42776D01*
X22559Y-42762D01*
X22582Y-42662D01*
X22582Y-45491D01*
X20808Y-45491D01*
X20808Y-43135D01*
X20676Y-42816D01*
X20432Y-42572D01*
X20114Y-42440D01*
X19821Y-42440D01*
X19821Y-41841D01*
X19733Y-41627D01*
X19569Y-41464D01*
X19356Y-41375D01*
X19124Y-41375D01*
X18911Y-41463D01*
X18747Y-41626D01*
X18658Y-41840D01*
X18658Y-42071D01*
X18746Y-42285D01*
X18910Y-42449D01*
X19123Y-42538D01*
X19355Y-42538D01*
X19569Y-42449D01*
X19732Y-42286D01*
X19821Y-42072D01*
X19821Y-41841D01*
X19821Y-42440D01*
X19769Y-42440D01*
X19450Y-42571D01*
X19206Y-42815D01*
X19074Y-43133D01*
X19073Y-43478D01*
X19205Y-43797D01*
X19449Y-44041D01*
X19767Y-44173D01*
X20112Y-44174D01*
X20431Y-44042D01*
X20675Y-43798D01*
X20807Y-43480D01*
X20808Y-43135D01*
X20808Y-45491D01*
X18349Y-45491D01*
X18349Y-41841D01*
X18260Y-41627D01*
X18097Y-41464D01*
X17883Y-41375D01*
X17652Y-41375D01*
X17438Y-41463D01*
X17275Y-41626D01*
X17186Y-41840D01*
X17186Y-42071D01*
X17274Y-42285D01*
X17437Y-42449D01*
X17651Y-42538D01*
X17882Y-42538D01*
X18096Y-42449D01*
X18260Y-42286D01*
X18349Y-42072D01*
X18349Y-41841D01*
X18349Y-45491D01*
X17934Y-45491D01*
X17934Y-43135D01*
X17802Y-42816D01*
X17558Y-42572D01*
X17240Y-42440D01*
X16895Y-42440D01*
X16576Y-42571D01*
X16520Y-42627D01*
X16520Y-42211D01*
X16441Y-42008D01*
X16427Y-41987D01*
X16327Y-41964D01*
X15985Y-42307D01*
X16327Y-42649D01*
X16427Y-42626D01*
X16515Y-42428D01*
X16520Y-42211D01*
X16520Y-42627D01*
X16332Y-42815D01*
X16315Y-42857D01*
X16315Y-42662D01*
X15972Y-42319D01*
X15629Y-42662D01*
X15652Y-42762D01*
X15851Y-42849D01*
X16068Y-42854D01*
X16270Y-42776D01*
X16291Y-42762D01*
X16315Y-42662D01*
X16315Y-42857D01*
X16200Y-43133D01*
X16199Y-43478D01*
X16331Y-43797D01*
X16575Y-44041D01*
X16893Y-44173D01*
X17238Y-44174D01*
X17557Y-44042D01*
X17801Y-43798D01*
X17933Y-43480D01*
X17934Y-43135D01*
X17934Y-45491D01*
X14708Y-45491D01*
X14708Y-42662D01*
X14366Y-42319D01*
X14023Y-42662D01*
X14046Y-42762D01*
X14245Y-42849D01*
X14462Y-42854D01*
X14664Y-42776D01*
X14685Y-42762D01*
X14708Y-42662D01*
X14708Y-45491D01*
X12934Y-45491D01*
X12934Y-43135D01*
X12802Y-42816D01*
X12558Y-42572D01*
X12240Y-42440D01*
X11947Y-42440D01*
X11947Y-41841D01*
X11859Y-41627D01*
X11695Y-41464D01*
X11482Y-41375D01*
X11250Y-41375D01*
X11037Y-41463D01*
X10873Y-41626D01*
X10784Y-41840D01*
X10784Y-42071D01*
X10872Y-42285D01*
X11036Y-42449D01*
X11249Y-42538D01*
X11481Y-42538D01*
X11695Y-42449D01*
X11858Y-42286D01*
X11947Y-42072D01*
X11947Y-41841D01*
X11947Y-42440D01*
X11895Y-42440D01*
X11576Y-42571D01*
X11332Y-42815D01*
X11200Y-43133D01*
X11199Y-43478D01*
X11331Y-43797D01*
X11575Y-44041D01*
X11893Y-44173D01*
X12238Y-44174D01*
X12557Y-44042D01*
X12801Y-43798D01*
X12933Y-43480D01*
X12934Y-43135D01*
X12934Y-45491D01*
X9991Y-45491D01*
X9991Y-43437D01*
X9789Y-42948D01*
X9415Y-42574D01*
X8927Y-42371D01*
X8398Y-42371D01*
X7909Y-42573D01*
X7534Y-42946D01*
X7332Y-43435D01*
X7331Y-43964D01*
X7533Y-44452D01*
X7907Y-44827D01*
X8395Y-45030D01*
X8924Y-45030D01*
X9413Y-44828D01*
X9787Y-44454D01*
X9990Y-43966D01*
X9991Y-43437D01*
X9991Y-45491D01*
X6870Y-45491D01*
X6870Y-25984D01*
X6870Y-6477D01*
X45885Y-6477D01*
X45885Y-25984D01*
X45885Y-45491D01*
X45885Y-45491D01*
G37*
G54D21*
X45885Y-45491D02*
X45424Y-45491D01*
X45424Y-43437D01*
X45424Y-8004D01*
X45222Y-7515D01*
X44848Y-7141D01*
X44360Y-6938D01*
X43831Y-6937D01*
X43342Y-7139D01*
X42968Y-7513D01*
X42765Y-8002D01*
X42764Y-8531D01*
X42966Y-9019D01*
X43340Y-9394D01*
X43828Y-9597D01*
X44357Y-9597D01*
X44846Y-9395D01*
X45220Y-9021D01*
X45423Y-8533D01*
X45424Y-8004D01*
X45424Y-43437D01*
X45222Y-42948D01*
X44848Y-42574D01*
X44567Y-42457D01*
X44567Y-28312D01*
X44567Y-23312D01*
X44436Y-22993D01*
X44192Y-22749D01*
X43873Y-22617D01*
X43529Y-22617D01*
X43210Y-22748D01*
X42966Y-22992D01*
X42931Y-23075D01*
X42931Y-22668D01*
X42843Y-22454D01*
X42680Y-22290D01*
X42466Y-22202D01*
X42235Y-22201D01*
X42021Y-22290D01*
X41857Y-22453D01*
X41768Y-22667D01*
X41768Y-22898D01*
X41857Y-23112D01*
X42020Y-23276D01*
X42234Y-23364D01*
X42465Y-23365D01*
X42679Y-23276D01*
X42843Y-23113D01*
X42931Y-22899D01*
X42931Y-22668D01*
X42931Y-23075D01*
X42834Y-23311D01*
X42833Y-23655D01*
X42965Y-23974D01*
X43209Y-24218D01*
X43527Y-24351D01*
X43872Y-24351D01*
X44191Y-24219D01*
X44435Y-23975D01*
X44567Y-23657D01*
X44567Y-23312D01*
X44567Y-28312D01*
X44436Y-27993D01*
X44192Y-27749D01*
X43873Y-27617D01*
X43529Y-27617D01*
X43248Y-27733D01*
X43248Y-26089D01*
X43248Y-24482D01*
X43170Y-24280D01*
X43156Y-24259D01*
X43056Y-24236D01*
X43043Y-24248D01*
X43043Y-24223D01*
X43020Y-24123D01*
X42821Y-24035D01*
X42604Y-24030D01*
X42402Y-24109D01*
X42381Y-24123D01*
X42358Y-24223D01*
X42700Y-24565D01*
X43043Y-24223D01*
X43043Y-24248D01*
X42713Y-24578D01*
X43056Y-24921D01*
X43156Y-24898D01*
X43243Y-24699D01*
X43248Y-24482D01*
X43248Y-26089D01*
X43170Y-25886D01*
X43156Y-25865D01*
X43056Y-25842D01*
X42713Y-26185D01*
X43056Y-26527D01*
X43156Y-26504D01*
X43243Y-26306D01*
X43248Y-26089D01*
X43248Y-27733D01*
X43210Y-27748D01*
X43144Y-27814D01*
X43144Y-26900D01*
X43077Y-26737D01*
X42996Y-26655D01*
X42999Y-26654D01*
X43020Y-26640D01*
X43043Y-26540D01*
X42700Y-26197D01*
X42695Y-26203D01*
X42682Y-26190D01*
X42687Y-26185D01*
X42682Y-26179D01*
X42695Y-26166D01*
X42700Y-26172D01*
X43043Y-25829D01*
X43020Y-25729D01*
X42992Y-25717D01*
X43076Y-25633D01*
X43144Y-25470D01*
X43144Y-25293D01*
X43077Y-25130D01*
X42996Y-25049D01*
X42999Y-25048D01*
X43020Y-25033D01*
X43043Y-24934D01*
X42700Y-24591D01*
X42695Y-24597D01*
X42682Y-24584D01*
X42687Y-24578D01*
X42345Y-24236D01*
X42245Y-24259D01*
X42187Y-24390D01*
X42187Y-23955D01*
X42173Y-23883D01*
X42132Y-23822D01*
X41727Y-23417D01*
X41727Y-20665D01*
X41727Y-20664D01*
X41727Y-20664D01*
X41724Y-20650D01*
X41713Y-20593D01*
X41713Y-20593D01*
X41672Y-20532D01*
X41672Y-20532D01*
X41352Y-20212D01*
X41291Y-20171D01*
X41220Y-20157D01*
X41029Y-20157D01*
X41029Y-8672D01*
X41029Y-7672D01*
X40957Y-7497D01*
X40822Y-7362D01*
X40646Y-7289D01*
X40456Y-7289D01*
X40280Y-7361D01*
X40145Y-7496D01*
X40072Y-7672D01*
X40072Y-7862D01*
X40145Y-8038D01*
X40279Y-8173D01*
X40455Y-8246D01*
X40645Y-8246D01*
X40821Y-8173D01*
X40956Y-8039D01*
X41029Y-7863D01*
X41029Y-7672D01*
X41029Y-8672D01*
X40957Y-8497D01*
X40822Y-8362D01*
X40646Y-8289D01*
X40456Y-8289D01*
X40280Y-8361D01*
X40145Y-8496D01*
X40072Y-8672D01*
X40072Y-8862D01*
X40145Y-9038D01*
X40279Y-9173D01*
X40455Y-9246D01*
X40645Y-9246D01*
X40821Y-9173D01*
X40956Y-9039D01*
X41029Y-8863D01*
X41029Y-8672D01*
X41029Y-20157D01*
X40716Y-20157D01*
X40662Y-20102D01*
X40557Y-20058D01*
X40443Y-20058D01*
X40338Y-20102D01*
X40282Y-20157D01*
X38076Y-20157D01*
X38076Y-8672D01*
X38076Y-7672D01*
X38004Y-7497D01*
X37869Y-7362D01*
X37694Y-7289D01*
X37503Y-7289D01*
X37327Y-7361D01*
X37193Y-7496D01*
X37120Y-7672D01*
X37119Y-7862D01*
X37192Y-8038D01*
X37327Y-8173D01*
X37502Y-8246D01*
X37693Y-8246D01*
X37869Y-8173D01*
X38003Y-8039D01*
X38076Y-7863D01*
X38076Y-7672D01*
X38076Y-8672D01*
X38004Y-8497D01*
X37869Y-8362D01*
X37694Y-8289D01*
X37503Y-8289D01*
X37327Y-8361D01*
X37193Y-8496D01*
X37120Y-8672D01*
X37119Y-8862D01*
X37192Y-9038D01*
X37327Y-9173D01*
X37502Y-9246D01*
X37693Y-9246D01*
X37869Y-9173D01*
X38003Y-9039D01*
X38076Y-8863D01*
X38076Y-8672D01*
X38076Y-20157D01*
X36566Y-20157D01*
X35124Y-18714D01*
X35124Y-8672D01*
X35124Y-7672D01*
X35051Y-7497D01*
X34917Y-7362D01*
X34741Y-7289D01*
X34550Y-7289D01*
X34375Y-7361D01*
X34240Y-7496D01*
X34167Y-7672D01*
X34167Y-7862D01*
X34239Y-8038D01*
X34374Y-8173D01*
X34550Y-8246D01*
X34740Y-8246D01*
X34916Y-8173D01*
X35051Y-8039D01*
X35124Y-7863D01*
X35124Y-7672D01*
X35124Y-8672D01*
X35051Y-8497D01*
X34917Y-8362D01*
X34741Y-8289D01*
X34550Y-8289D01*
X34375Y-8361D01*
X34240Y-8496D01*
X34167Y-8672D01*
X34167Y-8862D01*
X34239Y-9038D01*
X34374Y-9173D01*
X34550Y-9246D01*
X34740Y-9246D01*
X34916Y-9173D01*
X35051Y-9039D01*
X35124Y-8863D01*
X35124Y-8672D01*
X35124Y-18714D01*
X32171Y-15762D01*
X32171Y-8672D01*
X32171Y-7672D01*
X32098Y-7497D01*
X31964Y-7362D01*
X31788Y-7289D01*
X31598Y-7289D01*
X31422Y-7361D01*
X31287Y-7496D01*
X31214Y-7672D01*
X31214Y-7862D01*
X31287Y-8038D01*
X31421Y-8173D01*
X31597Y-8246D01*
X31787Y-8246D01*
X31963Y-8173D01*
X32098Y-8039D01*
X32171Y-7863D01*
X32171Y-7672D01*
X32171Y-8672D01*
X32098Y-8497D01*
X31964Y-8362D01*
X31788Y-8289D01*
X31598Y-8289D01*
X31422Y-8361D01*
X31287Y-8496D01*
X31214Y-8672D01*
X31214Y-8862D01*
X31287Y-9038D01*
X31421Y-9173D01*
X31597Y-9246D01*
X31787Y-9246D01*
X31963Y-9173D01*
X32098Y-9039D01*
X32171Y-8863D01*
X32171Y-8672D01*
X32171Y-15762D01*
X30160Y-13751D01*
X30160Y-9896D01*
X30071Y-9682D01*
X29908Y-9519D01*
X29745Y-9451D01*
X29745Y-8489D01*
X29613Y-8170D01*
X29369Y-7926D01*
X29051Y-7794D01*
X28706Y-7794D01*
X28387Y-7926D01*
X28143Y-8169D01*
X28011Y-8488D01*
X28010Y-8833D01*
X28142Y-9151D01*
X28386Y-9395D01*
X28704Y-9528D01*
X29049Y-9528D01*
X29368Y-9396D01*
X29612Y-9153D01*
X29744Y-8834D01*
X29745Y-8489D01*
X29745Y-9451D01*
X29694Y-9430D01*
X29463Y-9430D01*
X29249Y-9518D01*
X29086Y-9681D01*
X28997Y-9895D01*
X28997Y-10126D01*
X29085Y-10340D01*
X29248Y-10504D01*
X29462Y-10593D01*
X29693Y-10593D01*
X29907Y-10505D01*
X30071Y-10341D01*
X30160Y-10127D01*
X30160Y-9896D01*
X30160Y-13751D01*
X28760Y-12351D01*
X28227Y-12351D01*
X28227Y-10274D01*
X28160Y-10111D01*
X28035Y-9986D01*
X27872Y-9918D01*
X27752Y-9918D01*
X27758Y-9913D01*
X27825Y-9750D01*
X27825Y-9573D01*
X27758Y-9410D01*
X27633Y-9285D01*
X27470Y-9217D01*
X27293Y-9217D01*
X27130Y-9284D01*
X27049Y-9366D01*
X27048Y-9363D01*
X27033Y-9341D01*
X26934Y-9318D01*
X26921Y-9331D01*
X26921Y-9305D01*
X26898Y-9206D01*
X26699Y-9118D01*
X26482Y-9113D01*
X26280Y-9191D01*
X26259Y-9206D01*
X26236Y-9305D01*
X26578Y-9648D01*
X26921Y-9305D01*
X26921Y-9331D01*
X26591Y-9661D01*
X26597Y-9666D01*
X26584Y-9679D01*
X26578Y-9674D01*
X26573Y-9679D01*
X26560Y-9666D01*
X26565Y-9661D01*
X26223Y-9318D01*
X26123Y-9341D01*
X26111Y-9369D01*
X26027Y-9285D01*
X25864Y-9217D01*
X25687Y-9217D01*
X25524Y-9284D01*
X25443Y-9366D01*
X25441Y-9363D01*
X25427Y-9341D01*
X25327Y-9318D01*
X25315Y-9331D01*
X25315Y-9305D01*
X25291Y-9206D01*
X25093Y-9118D01*
X24876Y-9113D01*
X24745Y-9164D01*
X24745Y-8489D01*
X24613Y-8170D01*
X24369Y-7926D01*
X24051Y-7794D01*
X23706Y-7794D01*
X23387Y-7926D01*
X23143Y-8169D01*
X23011Y-8488D01*
X23010Y-8833D01*
X23142Y-9151D01*
X23386Y-9395D01*
X23704Y-9528D01*
X24049Y-9528D01*
X24368Y-9396D01*
X24612Y-9153D01*
X24744Y-8834D01*
X24745Y-8489D01*
X24745Y-9164D01*
X24674Y-9191D01*
X24652Y-9206D01*
X24629Y-9305D01*
X24972Y-9648D01*
X25315Y-9305D01*
X25315Y-9331D01*
X24985Y-9661D01*
X24990Y-9666D01*
X24978Y-9679D01*
X24972Y-9674D01*
X24959Y-9687D01*
X24959Y-9661D01*
X24617Y-9318D01*
X24517Y-9341D01*
X24429Y-9540D01*
X24424Y-9757D01*
X24503Y-9959D01*
X24517Y-9980D01*
X24617Y-10004D01*
X24959Y-9661D01*
X24959Y-9687D01*
X24629Y-10016D01*
X24652Y-10116D01*
X24851Y-10204D01*
X24957Y-10206D01*
X24930Y-10273D01*
X24930Y-10450D01*
X24997Y-10613D01*
X25122Y-10738D01*
X25285Y-10806D01*
X25461Y-10806D01*
X25625Y-10738D01*
X25750Y-10613D01*
X25775Y-10552D01*
X25800Y-10613D01*
X25925Y-10738D01*
X26088Y-10806D01*
X26265Y-10806D01*
X26428Y-10738D01*
X26553Y-10613D01*
X26578Y-10552D01*
X26603Y-10613D01*
X26728Y-10738D01*
X26891Y-10806D01*
X27068Y-10806D01*
X27231Y-10738D01*
X27356Y-10613D01*
X27381Y-10552D01*
X27406Y-10613D01*
X27531Y-10738D01*
X27694Y-10806D01*
X27871Y-10806D01*
X28034Y-10738D01*
X28159Y-10613D01*
X28227Y-10450D01*
X28227Y-10274D01*
X28227Y-12351D01*
X23758Y-12351D01*
X23758Y-9896D01*
X23670Y-9682D01*
X23506Y-9519D01*
X23293Y-9430D01*
X23062Y-9430D01*
X22848Y-9518D01*
X22684Y-9681D01*
X22595Y-9895D01*
X22595Y-10126D01*
X22683Y-10340D01*
X22847Y-10504D01*
X23060Y-10593D01*
X23292Y-10593D01*
X23506Y-10505D01*
X23669Y-10341D01*
X23758Y-10127D01*
X23758Y-9896D01*
X23758Y-12351D01*
X20058Y-12351D01*
X17469Y-14939D01*
X17469Y-22461D01*
X18391Y-23383D01*
X10987Y-23383D01*
X10987Y-22668D01*
X10898Y-22454D01*
X10735Y-22290D01*
X10521Y-22202D01*
X10290Y-22201D01*
X10076Y-22290D01*
X9991Y-22375D01*
X9991Y-8004D01*
X9789Y-7515D01*
X9415Y-7141D01*
X8927Y-6938D01*
X8398Y-6937D01*
X7909Y-7139D01*
X7534Y-7513D01*
X7332Y-8002D01*
X7331Y-8531D01*
X7533Y-9019D01*
X7907Y-9394D01*
X8395Y-9597D01*
X8924Y-9597D01*
X9413Y-9395D01*
X9787Y-9021D01*
X9990Y-8533D01*
X9991Y-8004D01*
X9991Y-22375D01*
X9912Y-22453D01*
X9824Y-22667D01*
X9823Y-22898D01*
X9912Y-23112D01*
X10075Y-23276D01*
X10289Y-23364D01*
X10520Y-23365D01*
X10734Y-23276D01*
X10898Y-23113D01*
X10986Y-22899D01*
X10987Y-22668D01*
X10987Y-23383D01*
X10690Y-23383D01*
X10689Y-23383D01*
X10642Y-23392D01*
X10595Y-23401D01*
X10515Y-23455D01*
X10515Y-23455D01*
X10515Y-23455D01*
X9922Y-24048D01*
X9922Y-23312D01*
X9790Y-22993D01*
X9546Y-22749D01*
X9228Y-22617D01*
X8883Y-22617D01*
X8564Y-22748D01*
X8320Y-22992D01*
X8188Y-23311D01*
X8188Y-23655D01*
X8319Y-23974D01*
X8563Y-24218D01*
X8881Y-24351D01*
X9226Y-24351D01*
X9545Y-24219D01*
X9789Y-23975D01*
X9921Y-23657D01*
X9922Y-23312D01*
X9922Y-24048D01*
X9880Y-24090D01*
X9827Y-24170D01*
X9808Y-24264D01*
X9808Y-24601D01*
X9803Y-24603D01*
X9678Y-24728D01*
X9611Y-24891D01*
X9611Y-25068D01*
X9678Y-25231D01*
X9759Y-25312D01*
X9756Y-25314D01*
X9735Y-25328D01*
X9712Y-25428D01*
X10055Y-25770D01*
X10060Y-25765D01*
X10073Y-25777D01*
X10067Y-25783D01*
X10073Y-25789D01*
X10060Y-25801D01*
X10055Y-25796D01*
X10042Y-25809D01*
X10042Y-25783D01*
X9699Y-25440D01*
X9599Y-25463D01*
X9512Y-25662D01*
X9507Y-25879D01*
X9585Y-26081D01*
X9599Y-26103D01*
X9699Y-26126D01*
X10042Y-25783D01*
X10042Y-25809D01*
X9712Y-26138D01*
X9735Y-26238D01*
X9763Y-26250D01*
X9678Y-26334D01*
X9611Y-26497D01*
X9611Y-26674D01*
X9678Y-26837D01*
X9759Y-26919D01*
X9756Y-26920D01*
X9735Y-26934D01*
X9712Y-27034D01*
X10055Y-27376D01*
X10060Y-27371D01*
X10073Y-27384D01*
X10067Y-27389D01*
X10410Y-27732D01*
X10510Y-27709D01*
X10597Y-27510D01*
X10600Y-27404D01*
X10667Y-27432D01*
X10843Y-27432D01*
X11007Y-27364D01*
X11132Y-27239D01*
X11158Y-27175D01*
X22184Y-27175D01*
X22870Y-27862D01*
X13047Y-27862D01*
X12836Y-27650D01*
X12836Y-27573D01*
X12792Y-27468D01*
X12712Y-27387D01*
X12607Y-27343D01*
X12493Y-27343D01*
X12388Y-27387D01*
X12307Y-27467D01*
X12263Y-27572D01*
X12263Y-27686D01*
X12307Y-27791D01*
X12387Y-27872D01*
X12492Y-27916D01*
X12570Y-27916D01*
X12837Y-28182D01*
X12898Y-28223D01*
X12970Y-28237D01*
X23245Y-28237D01*
X23555Y-28547D01*
X12866Y-28547D01*
X12866Y-28473D01*
X12822Y-28368D01*
X12742Y-28287D01*
X12637Y-28243D01*
X12523Y-28243D01*
X12418Y-28287D01*
X12337Y-28367D01*
X12293Y-28472D01*
X12293Y-28586D01*
X12337Y-28691D01*
X12417Y-28772D01*
X12522Y-28816D01*
X12600Y-28816D01*
X12652Y-28867D01*
X12713Y-28908D01*
X12785Y-28922D01*
X23930Y-28922D01*
X31475Y-36467D01*
X35650Y-36467D01*
X35790Y-36327D01*
X35814Y-36384D01*
X35949Y-36519D01*
X36124Y-36592D01*
X36315Y-36592D01*
X36491Y-36519D01*
X36625Y-36385D01*
X36698Y-36209D01*
X36698Y-36019D01*
X36626Y-35843D01*
X36491Y-35708D01*
X36433Y-35684D01*
X39223Y-32894D01*
X39223Y-28506D01*
X42160Y-28506D01*
X42254Y-28488D01*
X42254Y-28488D01*
X42334Y-28434D01*
X42875Y-27893D01*
X42875Y-27893D01*
X42875Y-27893D01*
X42928Y-27813D01*
X42928Y-27813D01*
X42938Y-27766D01*
X42947Y-27719D01*
X42947Y-27719D01*
X42947Y-27719D01*
X42947Y-27366D01*
X42951Y-27364D01*
X43076Y-27239D01*
X43144Y-27076D01*
X43144Y-26900D01*
X43144Y-27814D01*
X42966Y-27992D01*
X42834Y-28311D01*
X42833Y-28655D01*
X42965Y-28974D01*
X43209Y-29218D01*
X43527Y-29351D01*
X43872Y-29351D01*
X44191Y-29219D01*
X44435Y-28975D01*
X44567Y-28657D01*
X44567Y-28312D01*
X44567Y-42457D01*
X44360Y-42371D01*
X43831Y-42371D01*
X43342Y-42573D01*
X43106Y-42808D01*
X43106Y-38898D01*
X43062Y-38793D01*
X42982Y-38712D01*
X42931Y-38691D01*
X42931Y-29069D01*
X42843Y-28856D01*
X42680Y-28692D01*
X42466Y-28603D01*
X42235Y-28603D01*
X42021Y-28691D01*
X41857Y-28855D01*
X41768Y-29068D01*
X41768Y-29300D01*
X41857Y-29514D01*
X42020Y-29677D01*
X42234Y-29766D01*
X42465Y-29766D01*
X42679Y-29678D01*
X42843Y-29514D01*
X42931Y-29301D01*
X42931Y-29069D01*
X42931Y-38691D01*
X42877Y-38668D01*
X42763Y-38668D01*
X42658Y-38712D01*
X42577Y-38792D01*
X42533Y-38897D01*
X42533Y-39011D01*
X42577Y-39116D01*
X42632Y-39172D01*
X42632Y-39617D01*
X40830Y-41418D01*
X39595Y-41418D01*
X39569Y-41355D01*
X39444Y-41230D01*
X39281Y-41162D01*
X39223Y-41162D01*
X39104Y-41162D01*
X38941Y-41229D01*
X38816Y-41354D01*
X38791Y-41415D01*
X38766Y-41355D01*
X38641Y-41230D01*
X38577Y-41203D01*
X38577Y-39483D01*
X38824Y-39236D01*
X38901Y-39236D01*
X39006Y-39192D01*
X39087Y-39112D01*
X39131Y-39007D01*
X39131Y-38893D01*
X39087Y-38788D01*
X39007Y-38707D01*
X38902Y-38663D01*
X38788Y-38663D01*
X38683Y-38707D01*
X38602Y-38787D01*
X38558Y-38892D01*
X38558Y-38970D01*
X38256Y-39272D01*
X38216Y-39333D01*
X38201Y-39405D01*
X38201Y-41203D01*
X38138Y-41229D01*
X38013Y-41354D01*
X37988Y-41415D01*
X37963Y-41355D01*
X37838Y-41230D01*
X37675Y-41162D01*
X37527Y-41162D01*
X35133Y-38767D01*
X36634Y-38767D01*
X36706Y-38753D01*
X36767Y-38712D01*
X37972Y-37507D01*
X37972Y-37507D01*
X37972Y-37507D01*
X38013Y-37446D01*
X38013Y-37446D01*
X38024Y-37389D01*
X38027Y-37375D01*
X38027Y-37375D01*
X38027Y-37375D01*
X38027Y-36076D01*
X38082Y-36022D01*
X38126Y-35917D01*
X38126Y-35803D01*
X38082Y-35698D01*
X38002Y-35617D01*
X37897Y-35573D01*
X37783Y-35573D01*
X37692Y-35611D01*
X37692Y-35516D01*
X37747Y-35462D01*
X37791Y-35357D01*
X37791Y-35243D01*
X37747Y-35138D01*
X37667Y-35057D01*
X37562Y-35013D01*
X37448Y-35013D01*
X37343Y-35057D01*
X37262Y-35137D01*
X37218Y-35242D01*
X37218Y-35356D01*
X37262Y-35461D01*
X37317Y-35517D01*
X37317Y-37409D01*
X36698Y-38027D01*
X36698Y-37019D01*
X36626Y-36843D01*
X36491Y-36708D01*
X36316Y-36635D01*
X36125Y-36635D01*
X35949Y-36708D01*
X35815Y-36842D01*
X35742Y-37018D01*
X35741Y-37208D01*
X35814Y-37384D01*
X35949Y-37519D01*
X36124Y-37592D01*
X36315Y-37592D01*
X36491Y-37519D01*
X36625Y-37385D01*
X36698Y-37209D01*
X36698Y-37019D01*
X36698Y-38027D01*
X36491Y-38234D01*
X30399Y-38234D01*
X30399Y-37019D01*
X30399Y-36019D01*
X30327Y-35843D01*
X30192Y-35708D01*
X30016Y-35635D01*
X29826Y-35635D01*
X29650Y-35708D01*
X29515Y-35842D01*
X29442Y-36018D01*
X29442Y-36208D01*
X29515Y-36384D01*
X29649Y-36519D01*
X29825Y-36592D01*
X30016Y-36592D01*
X30191Y-36519D01*
X30326Y-36385D01*
X30399Y-36209D01*
X30399Y-36019D01*
X30399Y-37019D01*
X30327Y-36843D01*
X30192Y-36708D01*
X30016Y-36635D01*
X29826Y-36635D01*
X29650Y-36708D01*
X29515Y-36842D01*
X29442Y-37018D01*
X29442Y-37208D01*
X29515Y-37384D01*
X29649Y-37519D01*
X29825Y-37592D01*
X30016Y-37592D01*
X30191Y-37519D01*
X30326Y-37385D01*
X30399Y-37209D01*
X30399Y-37019D01*
X30399Y-38234D01*
X25315Y-38234D01*
X23549Y-36469D01*
X23633Y-36385D01*
X23706Y-36209D01*
X23706Y-36019D01*
X23634Y-35843D01*
X23499Y-35708D01*
X23323Y-35635D01*
X23133Y-35635D01*
X22957Y-35708D01*
X22822Y-35842D01*
X22750Y-36018D01*
X22749Y-36208D01*
X22822Y-36384D01*
X22839Y-36402D01*
X22630Y-36402D01*
X22558Y-36416D01*
X22497Y-36457D01*
X22497Y-36457D01*
X22497Y-36457D01*
X22028Y-36926D01*
X17013Y-36926D01*
X17013Y-36019D01*
X16941Y-35843D01*
X16806Y-35708D01*
X16631Y-35635D01*
X16440Y-35635D01*
X16264Y-35708D01*
X16130Y-35842D01*
X16057Y-36018D01*
X16056Y-36208D01*
X16129Y-36384D01*
X16264Y-36519D01*
X16439Y-36592D01*
X16630Y-36592D01*
X16806Y-36519D01*
X16940Y-36385D01*
X17013Y-36209D01*
X17013Y-36019D01*
X17013Y-36926D01*
X16975Y-36926D01*
X16941Y-36843D01*
X16806Y-36708D01*
X16631Y-36635D01*
X16440Y-36635D01*
X16264Y-36708D01*
X16130Y-36842D01*
X16057Y-37018D01*
X16056Y-37208D01*
X16129Y-37384D01*
X16264Y-37519D01*
X16439Y-37592D01*
X16630Y-37592D01*
X16806Y-37519D01*
X16940Y-37385D01*
X16975Y-37301D01*
X22105Y-37301D01*
X22177Y-37287D01*
X22238Y-37246D01*
X22707Y-36777D01*
X22888Y-36777D01*
X22822Y-36842D01*
X22750Y-37018D01*
X22749Y-37208D01*
X22822Y-37384D01*
X22956Y-37519D01*
X23040Y-37554D01*
X23040Y-37718D01*
X23054Y-37790D01*
X23095Y-37851D01*
X23794Y-38549D01*
X13896Y-38549D01*
X13794Y-38447D01*
X13733Y-38406D01*
X13661Y-38392D01*
X11774Y-38392D01*
X11774Y-38392D01*
X11760Y-38395D01*
X11703Y-38406D01*
X11642Y-38447D01*
X11642Y-38447D01*
X11642Y-38447D01*
X10987Y-39102D01*
X10987Y-29069D01*
X10898Y-28856D01*
X10735Y-28692D01*
X10521Y-28603D01*
X10397Y-28603D01*
X10397Y-27745D01*
X10055Y-27402D01*
X10042Y-27415D01*
X10042Y-27389D01*
X9699Y-27047D01*
X9599Y-27070D01*
X9512Y-27268D01*
X9507Y-27485D01*
X9585Y-27688D01*
X9599Y-27709D01*
X9699Y-27732D01*
X10042Y-27389D01*
X10042Y-27415D01*
X9712Y-27745D01*
X9735Y-27844D01*
X9934Y-27932D01*
X10151Y-27937D01*
X10353Y-27859D01*
X10374Y-27844D01*
X10397Y-27745D01*
X10397Y-28603D01*
X10290Y-28603D01*
X10076Y-28691D01*
X9922Y-28845D01*
X9922Y-28312D01*
X9790Y-27993D01*
X9546Y-27749D01*
X9228Y-27617D01*
X8883Y-27617D01*
X8564Y-27748D01*
X8320Y-27992D01*
X8188Y-28311D01*
X8188Y-28655D01*
X8319Y-28974D01*
X8563Y-29218D01*
X8881Y-29351D01*
X9226Y-29351D01*
X9545Y-29219D01*
X9789Y-28975D01*
X9921Y-28657D01*
X9922Y-28312D01*
X9922Y-28845D01*
X9912Y-28855D01*
X9824Y-29068D01*
X9823Y-29300D01*
X9912Y-29514D01*
X10075Y-29677D01*
X10289Y-29766D01*
X10520Y-29766D01*
X10734Y-29678D01*
X10898Y-29514D01*
X10986Y-29301D01*
X10987Y-29069D01*
X10987Y-39102D01*
X10935Y-39153D01*
X10858Y-39153D01*
X10753Y-39197D01*
X10672Y-39277D01*
X10628Y-39382D01*
X10628Y-39496D01*
X10672Y-39601D01*
X10752Y-39682D01*
X10857Y-39726D01*
X10971Y-39726D01*
X11076Y-39682D01*
X11157Y-39602D01*
X11201Y-39497D01*
X11201Y-39419D01*
X11852Y-38767D01*
X12178Y-38767D01*
X11447Y-39498D01*
X11393Y-39498D01*
X11288Y-39542D01*
X11207Y-39622D01*
X11163Y-39727D01*
X11163Y-39841D01*
X11207Y-39946D01*
X11287Y-40027D01*
X11392Y-40071D01*
X11506Y-40071D01*
X11572Y-40044D01*
X11572Y-40072D01*
X11462Y-40182D01*
X10778Y-40182D01*
X10607Y-40011D01*
X10607Y-39301D01*
X10662Y-39247D01*
X10706Y-39142D01*
X10706Y-39028D01*
X10662Y-38923D01*
X10582Y-38842D01*
X10477Y-38798D01*
X10363Y-38798D01*
X10258Y-38842D01*
X10177Y-38922D01*
X10133Y-39027D01*
X10133Y-39141D01*
X10177Y-39246D01*
X10232Y-39302D01*
X10232Y-39384D01*
X10182Y-39363D01*
X10068Y-39363D01*
X9966Y-39405D01*
X10001Y-39322D01*
X10001Y-39208D01*
X9957Y-39103D01*
X9877Y-39022D01*
X9772Y-38978D01*
X9658Y-38978D01*
X9553Y-39022D01*
X9472Y-39102D01*
X9428Y-39207D01*
X9428Y-39321D01*
X9472Y-39426D01*
X9527Y-39482D01*
X9527Y-39830D01*
X9541Y-39901D01*
X9582Y-39962D01*
X10437Y-40817D01*
X10498Y-40858D01*
X10498Y-40858D01*
X10570Y-40872D01*
X12335Y-40872D01*
X12406Y-40858D01*
X12467Y-40817D01*
X12973Y-40311D01*
X12973Y-41203D01*
X12910Y-41229D01*
X12785Y-41354D01*
X12717Y-41517D01*
X12717Y-41694D01*
X12784Y-41857D01*
X12909Y-41982D01*
X13072Y-42050D01*
X13191Y-42050D01*
X13186Y-42055D01*
X13119Y-42218D01*
X13118Y-42395D01*
X13186Y-42558D01*
X13311Y-42683D01*
X13474Y-42750D01*
X13650Y-42751D01*
X13814Y-42683D01*
X13895Y-42602D01*
X13896Y-42605D01*
X13910Y-42626D01*
X14010Y-42649D01*
X14353Y-42307D01*
X14347Y-42301D01*
X14360Y-42288D01*
X14366Y-42294D01*
X14371Y-42288D01*
X14384Y-42301D01*
X14378Y-42307D01*
X14721Y-42649D01*
X14821Y-42626D01*
X14833Y-42599D01*
X14917Y-42683D01*
X15080Y-42750D01*
X15257Y-42751D01*
X15420Y-42683D01*
X15501Y-42602D01*
X15503Y-42605D01*
X15517Y-42626D01*
X15617Y-42649D01*
X15959Y-42307D01*
X15954Y-42301D01*
X15966Y-42288D01*
X15972Y-42294D01*
X16315Y-41951D01*
X16291Y-41851D01*
X16093Y-41764D01*
X15986Y-41761D01*
X16014Y-41694D01*
X16014Y-41518D01*
X15980Y-41435D01*
X17442Y-39972D01*
X17838Y-39972D01*
X17892Y-40027D01*
X17997Y-40071D01*
X18111Y-40071D01*
X18216Y-40027D01*
X18297Y-39947D01*
X18341Y-39842D01*
X18341Y-39728D01*
X18334Y-39712D01*
X18927Y-39712D01*
X20632Y-41418D01*
X20591Y-41517D01*
X20591Y-41694D01*
X20658Y-41857D01*
X20783Y-41982D01*
X20946Y-42050D01*
X21065Y-42050D01*
X21060Y-42055D01*
X20993Y-42218D01*
X20993Y-42395D01*
X21060Y-42558D01*
X21185Y-42683D01*
X21348Y-42750D01*
X21524Y-42751D01*
X21688Y-42683D01*
X21769Y-42602D01*
X21770Y-42605D01*
X21784Y-42626D01*
X21884Y-42649D01*
X22227Y-42307D01*
X22221Y-42301D01*
X22234Y-42288D01*
X22240Y-42294D01*
X22245Y-42288D01*
X22258Y-42301D01*
X22252Y-42307D01*
X22595Y-42649D01*
X22695Y-42626D01*
X22707Y-42599D01*
X22791Y-42683D01*
X22954Y-42750D01*
X23131Y-42751D01*
X23294Y-42683D01*
X23375Y-42602D01*
X23377Y-42605D01*
X23391Y-42626D01*
X23491Y-42649D01*
X23833Y-42307D01*
X23828Y-42301D01*
X23840Y-42288D01*
X23846Y-42294D01*
X24189Y-41951D01*
X24166Y-41851D01*
X23967Y-41764D01*
X23860Y-41761D01*
X23888Y-41694D01*
X23888Y-41518D01*
X23821Y-41355D01*
X23696Y-41230D01*
X23533Y-41162D01*
X23356Y-41162D01*
X23193Y-41229D01*
X23068Y-41354D01*
X23043Y-41415D01*
X23018Y-41355D01*
X22989Y-41326D01*
X23429Y-40886D01*
X23506Y-40886D01*
X23611Y-40842D01*
X23692Y-40762D01*
X23736Y-40657D01*
X23736Y-40543D01*
X23692Y-40438D01*
X23612Y-40357D01*
X23507Y-40313D01*
X23393Y-40313D01*
X23288Y-40357D01*
X23207Y-40437D01*
X23163Y-40542D01*
X23163Y-40620D01*
X22622Y-41162D01*
X22553Y-41162D01*
X22390Y-41229D01*
X22265Y-41354D01*
X22240Y-41415D01*
X22215Y-41355D01*
X22090Y-41230D01*
X21927Y-41162D01*
X21767Y-41162D01*
X20003Y-39397D01*
X26462Y-39397D01*
X28499Y-41435D01*
X28465Y-41517D01*
X28465Y-41694D01*
X28532Y-41857D01*
X28657Y-41982D01*
X28820Y-42050D01*
X28939Y-42050D01*
X28934Y-42055D01*
X28867Y-42218D01*
X28867Y-42395D01*
X28934Y-42558D01*
X29059Y-42683D01*
X29222Y-42750D01*
X29398Y-42751D01*
X29562Y-42683D01*
X29643Y-42602D01*
X29644Y-42605D01*
X29658Y-42626D01*
X29758Y-42649D01*
X30101Y-42307D01*
X30095Y-42301D01*
X30108Y-42288D01*
X30114Y-42294D01*
X30119Y-42288D01*
X30132Y-42301D01*
X30126Y-42307D01*
X30469Y-42649D01*
X30569Y-42626D01*
X30581Y-42599D01*
X30665Y-42683D01*
X30828Y-42750D01*
X31005Y-42751D01*
X31168Y-42683D01*
X31249Y-42602D01*
X31251Y-42605D01*
X31265Y-42626D01*
X31365Y-42649D01*
X31707Y-42307D01*
X31702Y-42301D01*
X31714Y-42288D01*
X31720Y-42294D01*
X32063Y-41951D01*
X32040Y-41851D01*
X31841Y-41764D01*
X31735Y-41761D01*
X31762Y-41694D01*
X31762Y-41518D01*
X31695Y-41355D01*
X31570Y-41230D01*
X31407Y-41162D01*
X31230Y-41162D01*
X31191Y-41178D01*
X30220Y-40207D01*
X30159Y-40166D01*
X30087Y-40152D01*
X29791Y-40152D01*
X29737Y-40097D01*
X29632Y-40053D01*
X29518Y-40053D01*
X29413Y-40097D01*
X29332Y-40177D01*
X29288Y-40282D01*
X29288Y-40396D01*
X29300Y-40424D01*
X29097Y-40222D01*
X29097Y-39696D01*
X29152Y-39642D01*
X29196Y-39537D01*
X29196Y-39423D01*
X29152Y-39318D01*
X29072Y-39237D01*
X28967Y-39193D01*
X28853Y-39193D01*
X28748Y-39237D01*
X28667Y-39317D01*
X28623Y-39422D01*
X28623Y-39536D01*
X28667Y-39641D01*
X28722Y-39697D01*
X28722Y-40300D01*
X28728Y-40333D01*
X27478Y-39082D01*
X34132Y-39082D01*
X36406Y-41356D01*
X36339Y-41517D01*
X36339Y-41694D01*
X36406Y-41857D01*
X36531Y-41982D01*
X36694Y-42050D01*
X36813Y-42050D01*
X36808Y-42055D01*
X36741Y-42218D01*
X36741Y-42395D01*
X36808Y-42558D01*
X36933Y-42683D01*
X37096Y-42750D01*
X37272Y-42751D01*
X37436Y-42683D01*
X37517Y-42602D01*
X37518Y-42605D01*
X37532Y-42626D01*
X37632Y-42649D01*
X37975Y-42307D01*
X37969Y-42301D01*
X37982Y-42288D01*
X37988Y-42294D01*
X37993Y-42288D01*
X38006Y-42301D01*
X38000Y-42307D01*
X38343Y-42649D01*
X38443Y-42626D01*
X38455Y-42599D01*
X38539Y-42683D01*
X38702Y-42750D01*
X38879Y-42751D01*
X39042Y-42683D01*
X39123Y-42602D01*
X39125Y-42605D01*
X39139Y-42626D01*
X39223Y-42646D01*
X39239Y-42649D01*
X39581Y-42307D01*
X39576Y-42301D01*
X39588Y-42288D01*
X39594Y-42294D01*
X39937Y-41951D01*
X39914Y-41851D01*
X39783Y-41794D01*
X40827Y-41794D01*
X40808Y-41840D01*
X40808Y-42071D01*
X40896Y-42285D01*
X41059Y-42449D01*
X41273Y-42538D01*
X41504Y-42538D01*
X41718Y-42449D01*
X41882Y-42286D01*
X41971Y-42072D01*
X41971Y-41841D01*
X41883Y-41627D01*
X41719Y-41464D01*
X41505Y-41375D01*
X41405Y-41375D01*
X42952Y-39827D01*
X42993Y-39766D01*
X42993Y-39766D01*
X43007Y-39695D01*
X43007Y-39171D01*
X43062Y-39117D01*
X43106Y-39012D01*
X43106Y-38898D01*
X43106Y-42808D01*
X42968Y-42946D01*
X42765Y-43435D01*
X42764Y-43964D01*
X42966Y-44452D01*
X43340Y-44827D01*
X43828Y-45030D01*
X44357Y-45030D01*
X44846Y-44828D01*
X45220Y-44454D01*
X45423Y-43966D01*
X45424Y-43437D01*
X45424Y-45491D01*
X41556Y-45491D01*
X41556Y-43135D01*
X41424Y-42816D01*
X41180Y-42572D01*
X40862Y-42440D01*
X40517Y-42440D01*
X40198Y-42571D01*
X40142Y-42627D01*
X40142Y-42211D01*
X40063Y-42008D01*
X40049Y-41987D01*
X39949Y-41964D01*
X39607Y-42307D01*
X39949Y-42649D01*
X40049Y-42626D01*
X40137Y-42428D01*
X40142Y-42211D01*
X40142Y-42627D01*
X39954Y-42815D01*
X39937Y-42857D01*
X39937Y-42662D01*
X39594Y-42319D01*
X39251Y-42662D01*
X39274Y-42762D01*
X39473Y-42849D01*
X39690Y-42854D01*
X39892Y-42776D01*
X39914Y-42762D01*
X39937Y-42662D01*
X39937Y-42857D01*
X39822Y-43133D01*
X39821Y-43478D01*
X39953Y-43797D01*
X40197Y-44041D01*
X40515Y-44173D01*
X40860Y-44174D01*
X41179Y-44042D01*
X41423Y-43798D01*
X41555Y-43480D01*
X41556Y-43135D01*
X41556Y-45491D01*
X39223Y-45491D01*
X38330Y-45491D01*
X38330Y-42662D01*
X37988Y-42319D01*
X37645Y-42662D01*
X37668Y-42762D01*
X37867Y-42849D01*
X38084Y-42854D01*
X38286Y-42776D01*
X38307Y-42762D01*
X38330Y-42662D01*
X38330Y-45491D01*
X36556Y-45491D01*
X36556Y-43135D01*
X36424Y-42816D01*
X36180Y-42572D01*
X35862Y-42440D01*
X35569Y-42440D01*
X35569Y-41841D01*
X35481Y-41627D01*
X35318Y-41464D01*
X35104Y-41375D01*
X34873Y-41375D01*
X34659Y-41463D01*
X34495Y-41626D01*
X34406Y-41840D01*
X34406Y-42071D01*
X34494Y-42285D01*
X34658Y-42449D01*
X34872Y-42538D01*
X35103Y-42538D01*
X35317Y-42449D01*
X35480Y-42286D01*
X35569Y-42072D01*
X35569Y-41841D01*
X35569Y-42440D01*
X35517Y-42440D01*
X35198Y-42571D01*
X34954Y-42815D01*
X34822Y-43133D01*
X34821Y-43478D01*
X34953Y-43797D01*
X35197Y-44041D01*
X35515Y-44173D01*
X35860Y-44174D01*
X36179Y-44042D01*
X36423Y-43798D01*
X36555Y-43480D01*
X36556Y-43135D01*
X36556Y-45491D01*
X34097Y-45491D01*
X34097Y-41841D01*
X34009Y-41627D01*
X33845Y-41464D01*
X33631Y-41375D01*
X33400Y-41375D01*
X33186Y-41463D01*
X33023Y-41626D01*
X32934Y-41840D01*
X32934Y-42071D01*
X33022Y-42285D01*
X33185Y-42449D01*
X33399Y-42538D01*
X33630Y-42538D01*
X33844Y-42449D01*
X34008Y-42286D01*
X34097Y-42072D01*
X34097Y-41841D01*
X34097Y-45491D01*
X33682Y-45491D01*
X33682Y-43135D01*
X33550Y-42816D01*
X33306Y-42572D01*
X32988Y-42440D01*
X32643Y-42440D01*
X32324Y-42571D01*
X32268Y-42627D01*
X32268Y-42211D01*
X32189Y-42008D01*
X32175Y-41987D01*
X32075Y-41964D01*
X31733Y-42307D01*
X32075Y-42649D01*
X32175Y-42626D01*
X32263Y-42428D01*
X32268Y-42211D01*
X32268Y-42627D01*
X32080Y-42815D01*
X32063Y-42857D01*
X32063Y-42662D01*
X31720Y-42319D01*
X31377Y-42662D01*
X31400Y-42762D01*
X31599Y-42849D01*
X31816Y-42854D01*
X32018Y-42776D01*
X32040Y-42762D01*
X32063Y-42662D01*
X32063Y-42857D01*
X31948Y-43133D01*
X31947Y-43478D01*
X32079Y-43797D01*
X32323Y-44041D01*
X32641Y-44173D01*
X32986Y-44174D01*
X33305Y-44042D01*
X33549Y-43798D01*
X33681Y-43480D01*
X33682Y-43135D01*
X33682Y-45491D01*
X30456Y-45491D01*
X30456Y-42662D01*
X30114Y-42319D01*
X29771Y-42662D01*
X29794Y-42762D01*
X29993Y-42849D01*
X30210Y-42854D01*
X30412Y-42776D01*
X30433Y-42762D01*
X30456Y-42662D01*
X30456Y-45491D01*
X28682Y-45491D01*
X28682Y-43135D01*
X28550Y-42816D01*
X28306Y-42572D01*
X27988Y-42440D01*
X27695Y-42440D01*
X27695Y-41841D01*
X27607Y-41627D01*
X27443Y-41464D01*
X27230Y-41375D01*
X26999Y-41375D01*
X26785Y-41463D01*
X26621Y-41626D01*
X26532Y-41840D01*
X26532Y-42071D01*
X26620Y-42285D01*
X26784Y-42449D01*
X26997Y-42538D01*
X27229Y-42538D01*
X27443Y-42449D01*
X27606Y-42286D01*
X27695Y-42072D01*
X27695Y-41841D01*
X27695Y-42440D01*
X27643Y-42440D01*
X27324Y-42571D01*
X27080Y-42815D01*
X26948Y-43133D01*
X26947Y-43478D01*
X27079Y-43797D01*
X27323Y-44041D01*
X27641Y-44173D01*
X27986Y-44174D01*
X28305Y-44042D01*
X28549Y-43798D01*
X28681Y-43480D01*
X28682Y-43135D01*
X28682Y-45491D01*
X26223Y-45491D01*
X26223Y-41841D01*
X26134Y-41627D01*
X25971Y-41464D01*
X25757Y-41375D01*
X25526Y-41375D01*
X25312Y-41463D01*
X25149Y-41626D01*
X25060Y-41840D01*
X25060Y-42071D01*
X25148Y-42285D01*
X25311Y-42449D01*
X25525Y-42538D01*
X25756Y-42538D01*
X25970Y-42449D01*
X26134Y-42286D01*
X26223Y-42072D01*
X26223Y-41841D01*
X26223Y-45491D01*
X25808Y-45491D01*
X25808Y-43135D01*
X25676Y-42816D01*
X25432Y-42572D01*
X25114Y-42440D01*
X24769Y-42440D01*
X24450Y-42571D01*
X24394Y-42627D01*
X24394Y-42211D01*
X24315Y-42008D01*
X24301Y-41987D01*
X24201Y-41964D01*
X23859Y-42307D01*
X24201Y-42649D01*
X24301Y-42626D01*
X24389Y-42428D01*
X24394Y-42211D01*
X24394Y-42627D01*
X24206Y-42815D01*
X24189Y-42857D01*
X24189Y-42662D01*
X23846Y-42319D01*
X23503Y-42662D01*
X23526Y-42762D01*
X23725Y-42849D01*
X23942Y-42854D01*
X24144Y-42776D01*
X24166Y-42762D01*
X24189Y-42662D01*
X24189Y-42857D01*
X24074Y-43133D01*
X24073Y-43478D01*
X24205Y-43797D01*
X24449Y-44041D01*
X24767Y-44173D01*
X25112Y-44174D01*
X25431Y-44042D01*
X25675Y-43798D01*
X25807Y-43480D01*
X25808Y-43135D01*
X25808Y-45491D01*
X22582Y-45491D01*
X22582Y-42662D01*
X22240Y-42319D01*
X21897Y-42662D01*
X21920Y-42762D01*
X22119Y-42849D01*
X22336Y-42854D01*
X22538Y-42776D01*
X22559Y-42762D01*
X22582Y-42662D01*
X22582Y-45491D01*
X20808Y-45491D01*
X20808Y-43135D01*
X20676Y-42816D01*
X20432Y-42572D01*
X20114Y-42440D01*
X19821Y-42440D01*
X19821Y-41841D01*
X19733Y-41627D01*
X19569Y-41464D01*
X19356Y-41375D01*
X19124Y-41375D01*
X18911Y-41463D01*
X18747Y-41626D01*
X18658Y-41840D01*
X18658Y-42071D01*
X18746Y-42285D01*
X18910Y-42449D01*
X19123Y-42538D01*
X19355Y-42538D01*
X19569Y-42449D01*
X19732Y-42286D01*
X19821Y-42072D01*
X19821Y-41841D01*
X19821Y-42440D01*
X19769Y-42440D01*
X19450Y-42571D01*
X19206Y-42815D01*
X19074Y-43133D01*
X19073Y-43478D01*
X19205Y-43797D01*
X19449Y-44041D01*
X19767Y-44173D01*
X20112Y-44174D01*
X20431Y-44042D01*
X20675Y-43798D01*
X20807Y-43480D01*
X20808Y-43135D01*
X20808Y-45491D01*
X18349Y-45491D01*
X18349Y-41841D01*
X18260Y-41627D01*
X18097Y-41464D01*
X17883Y-41375D01*
X17652Y-41375D01*
X17438Y-41463D01*
X17275Y-41626D01*
X17186Y-41840D01*
X17186Y-42071D01*
X17274Y-42285D01*
X17437Y-42449D01*
X17651Y-42538D01*
X17882Y-42538D01*
X18096Y-42449D01*
X18260Y-42286D01*
X18349Y-42072D01*
X18349Y-41841D01*
X18349Y-45491D01*
X17934Y-45491D01*
X17934Y-43135D01*
X17802Y-42816D01*
X17558Y-42572D01*
X17240Y-42440D01*
X16895Y-42440D01*
X16576Y-42571D01*
X16520Y-42627D01*
X16520Y-42211D01*
X16441Y-42008D01*
X16427Y-41987D01*
X16327Y-41964D01*
X15985Y-42307D01*
X16327Y-42649D01*
X16427Y-42626D01*
X16515Y-42428D01*
X16520Y-42211D01*
X16520Y-42627D01*
X16332Y-42815D01*
X16315Y-42857D01*
X16315Y-42662D01*
X15972Y-42319D01*
X15629Y-42662D01*
X15652Y-42762D01*
X15851Y-42849D01*
X16068Y-42854D01*
X16270Y-42776D01*
X16291Y-42762D01*
X16315Y-42662D01*
X16315Y-42857D01*
X16200Y-43133D01*
X16199Y-43478D01*
X16331Y-43797D01*
X16575Y-44041D01*
X16893Y-44173D01*
X17238Y-44174D01*
X17557Y-44042D01*
X17801Y-43798D01*
X17933Y-43480D01*
X17934Y-43135D01*
X17934Y-45491D01*
X14708Y-45491D01*
X14708Y-42662D01*
X14366Y-42319D01*
X14023Y-42662D01*
X14046Y-42762D01*
X14245Y-42849D01*
X14462Y-42854D01*
X14664Y-42776D01*
X14685Y-42762D01*
X14708Y-42662D01*
X14708Y-45491D01*
X12934Y-45491D01*
X12934Y-43135D01*
X12802Y-42816D01*
X12558Y-42572D01*
X12240Y-42440D01*
X11947Y-42440D01*
X11947Y-41841D01*
X11859Y-41627D01*
X11695Y-41464D01*
X11482Y-41375D01*
X11250Y-41375D01*
X11037Y-41463D01*
X10873Y-41626D01*
X10784Y-41840D01*
X10784Y-42071D01*
X10872Y-42285D01*
X11036Y-42449D01*
X11249Y-42538D01*
X11481Y-42538D01*
X11695Y-42449D01*
X11858Y-42286D01*
X11947Y-42072D01*
X11947Y-41841D01*
X11947Y-42440D01*
X11895Y-42440D01*
X11576Y-42571D01*
X11332Y-42815D01*
X11200Y-43133D01*
X11199Y-43478D01*
X11331Y-43797D01*
X11575Y-44041D01*
X11893Y-44173D01*
X12238Y-44174D01*
X12557Y-44042D01*
X12801Y-43798D01*
X12933Y-43480D01*
X12934Y-43135D01*
X12934Y-45491D01*
X9991Y-45491D01*
X9991Y-43437D01*
X9789Y-42948D01*
X9415Y-42574D01*
X8927Y-42371D01*
X8398Y-42371D01*
X7909Y-42573D01*
X7534Y-42946D01*
X7332Y-43435D01*
X7331Y-43964D01*
X7533Y-44452D01*
X7907Y-44827D01*
X8395Y-45030D01*
X8924Y-45030D01*
X9413Y-44828D01*
X9787Y-44454D01*
X9990Y-43966D01*
X9991Y-43437D01*
X9991Y-45491D01*
X6870Y-45491D01*
X6870Y-25984D01*
X6870Y-6477D01*
X45885Y-6477D01*
X45885Y-25984D01*
X45885Y-45491D01*
M02*
