G04 (created by PCBNEW (2013-07-07 BZR 4022)-stable) date 9/18/2013 11:59:42*
%MOIN*%
G04 Gerber Fmt 3.4, Leading zero omitted, Abs format*
%FSLAX34Y34*%
G01*
G70*
G90*
G04 APERTURE LIST*
%ADD10C,0.00590551*%
%ADD11C,0.011811*%
G04 APERTURE END LIST*
G54D10*
G54D11*
X48855Y-16563D02*
X49052Y-16563D01*
X49136Y-16872D02*
X48855Y-16872D01*
X48855Y-16282D01*
X49136Y-16282D01*
X49642Y-16872D02*
X49642Y-16282D01*
X49642Y-16844D02*
X49586Y-16872D01*
X49474Y-16872D01*
X49417Y-16844D01*
X49389Y-16816D01*
X49361Y-16760D01*
X49361Y-16591D01*
X49389Y-16535D01*
X49417Y-16507D01*
X49474Y-16479D01*
X49586Y-16479D01*
X49642Y-16507D01*
X50177Y-16479D02*
X50177Y-16957D01*
X50149Y-17013D01*
X50120Y-17041D01*
X50064Y-17069D01*
X49980Y-17069D01*
X49924Y-17041D01*
X50177Y-16844D02*
X50120Y-16872D01*
X50008Y-16872D01*
X49952Y-16844D01*
X49924Y-16816D01*
X49895Y-16760D01*
X49895Y-16591D01*
X49924Y-16535D01*
X49952Y-16507D01*
X50008Y-16479D01*
X50120Y-16479D01*
X50177Y-16507D01*
X50683Y-16844D02*
X50627Y-16872D01*
X50514Y-16872D01*
X50458Y-16844D01*
X50430Y-16788D01*
X50430Y-16563D01*
X50458Y-16507D01*
X50514Y-16479D01*
X50627Y-16479D01*
X50683Y-16507D01*
X50711Y-16563D01*
X50711Y-16619D01*
X50430Y-16676D01*
X51751Y-16816D02*
X51723Y-16844D01*
X51639Y-16872D01*
X51583Y-16872D01*
X51498Y-16844D01*
X51442Y-16788D01*
X51414Y-16732D01*
X51386Y-16619D01*
X51386Y-16535D01*
X51414Y-16422D01*
X51442Y-16366D01*
X51498Y-16310D01*
X51583Y-16282D01*
X51639Y-16282D01*
X51723Y-16310D01*
X51751Y-16338D01*
X52258Y-16479D02*
X52258Y-16872D01*
X52005Y-16479D02*
X52005Y-16788D01*
X52033Y-16844D01*
X52089Y-16872D01*
X52173Y-16872D01*
X52230Y-16844D01*
X52258Y-16816D01*
X52455Y-16479D02*
X52679Y-16479D01*
X52539Y-16282D02*
X52539Y-16788D01*
X52567Y-16844D01*
X52623Y-16872D01*
X52679Y-16872D01*
X52848Y-16844D02*
X52904Y-16872D01*
X53017Y-16872D01*
X53073Y-16844D01*
X53101Y-16788D01*
X53101Y-16760D01*
X53073Y-16704D01*
X53017Y-16676D01*
X52933Y-16676D01*
X52876Y-16647D01*
X52848Y-16591D01*
X52848Y-16563D01*
X52876Y-16507D01*
X52933Y-16479D01*
X53017Y-16479D01*
X53073Y-16507D01*
G54D10*
X6692Y-45669D02*
X6692Y-25984D01*
X46062Y-45669D02*
X6692Y-45669D01*
X46062Y-25984D02*
X46062Y-45669D01*
X6692Y-25984D02*
X6692Y-6299D01*
X46062Y-6299D02*
X46062Y-25984D01*
X6692Y-6299D02*
X46062Y-6299D01*
M02*
