G04 (created by PCBNEW (2013-07-07 BZR 4022)-stable) date 9/18/2013 11:59:41*
%MOIN*%
G04 Gerber Fmt 3.4, Leading zero omitted, Abs format*
%FSLAX34Y34*%
G01*
G70*
G90*
G04 APERTURE LIST*
%ADD10C,0.00590551*%
%ADD11C,0.011811*%
%ADD12R,0.0118X0.0256*%
%ADD13R,0.0256X0.0118*%
%ADD14R,0.025X0.05*%
%ADD15C,0.066*%
%ADD16C,0.23622*%
%ADD17R,0.055X0.035*%
%ADD18C,0.1437*%
%ADD19C,0.0591*%
%ADD20C,0.0866142*%
%ADD21R,0.0276X0.063*%
%ADD22R,0.0276X0.0827*%
%ADD23R,0.0787X0.1083*%
%ADD24C,0.0346457*%
%ADD25C,0.0275591*%
%ADD26C,0.0393701*%
%ADD27C,0.019685*%
%ADD28C,0.00787402*%
G04 APERTURE END LIST*
G54D10*
G54D11*
X49257Y-7154D02*
X49060Y-7154D01*
X49060Y-7463D02*
X49060Y-6872D01*
X49341Y-6872D01*
X50354Y-7407D02*
X50326Y-7435D01*
X50241Y-7463D01*
X50185Y-7463D01*
X50101Y-7435D01*
X50044Y-7379D01*
X50016Y-7322D01*
X49988Y-7210D01*
X49988Y-7125D01*
X50016Y-7013D01*
X50044Y-6957D01*
X50101Y-6901D01*
X50185Y-6872D01*
X50241Y-6872D01*
X50326Y-6901D01*
X50354Y-6929D01*
X50860Y-7069D02*
X50860Y-7463D01*
X50607Y-7069D02*
X50607Y-7379D01*
X50635Y-7435D01*
X50691Y-7463D01*
X50776Y-7463D01*
X50832Y-7435D01*
X50860Y-7407D01*
G54D12*
X26476Y-14401D03*
X26673Y-14401D03*
X26870Y-14401D03*
X27067Y-14401D03*
X27067Y-13948D03*
X26870Y-13948D03*
X26673Y-13948D03*
X26476Y-13948D03*
X36319Y-12432D03*
X36516Y-12432D03*
X36713Y-12432D03*
X36910Y-12432D03*
X36910Y-11979D03*
X36713Y-11979D03*
X36516Y-11979D03*
X36319Y-11979D03*
X26515Y-28473D03*
X26712Y-28473D03*
X26909Y-28473D03*
X27106Y-28473D03*
X27106Y-28020D03*
X26909Y-28020D03*
X26712Y-28020D03*
X26515Y-28020D03*
X40905Y-20827D03*
X40708Y-20827D03*
X40511Y-20827D03*
X40314Y-20827D03*
X40314Y-21280D03*
X40511Y-21280D03*
X40708Y-21280D03*
X40905Y-21280D03*
G54D13*
X43141Y-34940D03*
X43141Y-34743D03*
X43141Y-34546D03*
X43141Y-34349D03*
X42688Y-34349D03*
X42688Y-34546D03*
X42688Y-34743D03*
X42688Y-34940D03*
X43141Y-33365D03*
X43141Y-33168D03*
X43141Y-32971D03*
X43141Y-32774D03*
X42688Y-32774D03*
X42688Y-32971D03*
X42688Y-33168D03*
X42688Y-33365D03*
X10008Y-34744D03*
X10008Y-34941D03*
X10008Y-35138D03*
X10008Y-35335D03*
X10461Y-35335D03*
X10461Y-35138D03*
X10461Y-34941D03*
X10461Y-34744D03*
X10008Y-33169D03*
X10008Y-33366D03*
X10008Y-33563D03*
X10008Y-33760D03*
X10461Y-33760D03*
X10461Y-33563D03*
X10461Y-33366D03*
X10461Y-33169D03*
G54D14*
X32458Y-18978D03*
X31958Y-18978D03*
X31458Y-18978D03*
X30958Y-18978D03*
X30458Y-18978D03*
X29958Y-18978D03*
X29458Y-18978D03*
X28958Y-18978D03*
X28958Y-21178D03*
X29458Y-21178D03*
X29958Y-21178D03*
X30458Y-21178D03*
X30958Y-21178D03*
X31458Y-21178D03*
X31958Y-21178D03*
X32458Y-21178D03*
X31714Y-30233D03*
X32214Y-30233D03*
X32714Y-30233D03*
X33214Y-30233D03*
X33714Y-30233D03*
X34214Y-30233D03*
X34714Y-30233D03*
X35214Y-30233D03*
X35214Y-28033D03*
X34714Y-28033D03*
X34214Y-28033D03*
X33714Y-28033D03*
X33214Y-28033D03*
X32714Y-28033D03*
X32214Y-28033D03*
X31714Y-28033D03*
X23797Y-18978D03*
X23297Y-18978D03*
X22797Y-18978D03*
X22297Y-18978D03*
X21797Y-18978D03*
X21297Y-18978D03*
X20797Y-18978D03*
X20297Y-18978D03*
X20297Y-21178D03*
X20797Y-21178D03*
X21297Y-21178D03*
X21797Y-21178D03*
X22297Y-21178D03*
X22797Y-21178D03*
X23297Y-21178D03*
X23797Y-21178D03*
G54D15*
X31692Y-8767D03*
X31692Y-7767D03*
X16535Y-36114D03*
X16535Y-37114D03*
X23228Y-36114D03*
X23228Y-37114D03*
X29921Y-36114D03*
X29921Y-37114D03*
X36220Y-36114D03*
X36220Y-37114D03*
X40551Y-8767D03*
X40551Y-7767D03*
X37598Y-8767D03*
X37598Y-7767D03*
X34645Y-8767D03*
X34645Y-7767D03*
G54D16*
X8661Y-8267D03*
X8661Y-43700D03*
X44094Y-43700D03*
X44094Y-8267D03*
G54D17*
X14960Y-13957D03*
X14960Y-13207D03*
X19291Y-13957D03*
X19291Y-13207D03*
G54D18*
X43700Y-23484D03*
X43700Y-28484D03*
G54D19*
X42700Y-24578D03*
X42000Y-24980D03*
X42700Y-25381D03*
X42000Y-25783D03*
X42700Y-26185D03*
X42000Y-26586D03*
X42700Y-26988D03*
X42000Y-27389D03*
G54D20*
X42350Y-22783D03*
X42350Y-29185D03*
G54D18*
X40688Y-43307D03*
X35688Y-43307D03*
G54D19*
X39594Y-42307D03*
X39192Y-41606D03*
X38791Y-42307D03*
X38389Y-41606D03*
X37988Y-42307D03*
X37586Y-41606D03*
X37185Y-42307D03*
X36783Y-41606D03*
G54D20*
X41389Y-41956D03*
X34988Y-41956D03*
G54D18*
X32814Y-43307D03*
X27814Y-43307D03*
G54D19*
X31720Y-42307D03*
X31318Y-41606D03*
X30917Y-42307D03*
X30515Y-41606D03*
X30114Y-42307D03*
X29712Y-41606D03*
X29311Y-42307D03*
X28909Y-41606D03*
G54D20*
X33515Y-41956D03*
X27114Y-41956D03*
G54D18*
X24940Y-43307D03*
X19940Y-43307D03*
G54D19*
X23846Y-42307D03*
X23444Y-41606D03*
X23043Y-42307D03*
X22641Y-41606D03*
X22240Y-42307D03*
X21838Y-41606D03*
X21437Y-42307D03*
X21035Y-41606D03*
G54D20*
X25641Y-41956D03*
X19240Y-41956D03*
G54D18*
X23877Y-8661D03*
X28877Y-8661D03*
G54D19*
X24972Y-9661D03*
X25374Y-10362D03*
X25775Y-9661D03*
X26177Y-10362D03*
X26578Y-9661D03*
X26980Y-10362D03*
X27381Y-9661D03*
X27783Y-10362D03*
G54D20*
X23177Y-10011D03*
X29578Y-10011D03*
G54D18*
X17066Y-43307D03*
X12066Y-43307D03*
G54D19*
X15972Y-42307D03*
X15570Y-41606D03*
X15169Y-42307D03*
X14767Y-41606D03*
X14366Y-42307D03*
X13964Y-41606D03*
X13562Y-42307D03*
X13161Y-41606D03*
G54D20*
X17767Y-41956D03*
X11366Y-41956D03*
G54D18*
X9055Y-28484D03*
X9055Y-23484D03*
G54D19*
X10055Y-27389D03*
X10755Y-26988D03*
X10055Y-26586D03*
X10755Y-26185D03*
X10055Y-25783D03*
X10755Y-25381D03*
X10055Y-24980D03*
X10755Y-24578D03*
G54D20*
X10405Y-29185D03*
X10405Y-22783D03*
G54D21*
X17677Y-14055D03*
G54D22*
X17086Y-14153D03*
G54D21*
X16495Y-14055D03*
G54D23*
X17086Y-15098D03*
G54D24*
X14015Y-16023D03*
X14409Y-15629D03*
X14770Y-15285D03*
X32950Y-30940D03*
X29085Y-19985D03*
X34755Y-29155D03*
G54D25*
X37840Y-35860D03*
X12550Y-27630D03*
X12580Y-28530D03*
X29575Y-40340D03*
X27292Y-15892D03*
X20820Y-18380D03*
X26673Y-15738D03*
X29480Y-19630D03*
X25980Y-15760D03*
X29455Y-18370D03*
X27827Y-15872D03*
X20305Y-21825D03*
X18055Y-39785D03*
X11450Y-39785D03*
X10915Y-39440D03*
X28910Y-39480D03*
X10420Y-39085D03*
X10125Y-39650D03*
X9715Y-39265D03*
X13165Y-39785D03*
X12590Y-39785D03*
X12020Y-39785D03*
X16390Y-39785D03*
X42820Y-38955D03*
X38845Y-38950D03*
X23450Y-40600D03*
X37505Y-35300D03*
X31720Y-22205D03*
X31965Y-18160D03*
X31425Y-21775D03*
X40500Y-20345D03*
G54D24*
X19842Y-15728D03*
X19842Y-15078D03*
X19291Y-15078D03*
X24590Y-21190D03*
X30465Y-29640D03*
X32115Y-28685D03*
G54D26*
X15921Y-14133D02*
X16416Y-14133D01*
X16416Y-14133D02*
X16495Y-14055D01*
G54D27*
X15748Y-14291D02*
X15763Y-14291D01*
X15763Y-14291D02*
X15921Y-14133D01*
X14960Y-13957D02*
X15414Y-13957D01*
X15414Y-13957D02*
X15748Y-14291D01*
X15748Y-14291D02*
X15755Y-14299D01*
G54D26*
X14015Y-16023D02*
X14015Y-15472D01*
X14754Y-15285D02*
X14770Y-15285D01*
X14754Y-15285D02*
X14409Y-15629D01*
X14015Y-16023D02*
X14409Y-15629D01*
X14203Y-15285D02*
X14770Y-15285D01*
X14015Y-15472D02*
X14203Y-15285D01*
X15921Y-14133D02*
X15755Y-14299D01*
X15755Y-14299D02*
X14770Y-15285D01*
G54D27*
X14960Y-15094D02*
X14960Y-13957D01*
X14770Y-15285D02*
X14960Y-15094D01*
G54D26*
X17086Y-15098D02*
X16279Y-15098D01*
X16279Y-15098D02*
X16259Y-15078D01*
X17086Y-15098D02*
X17086Y-16102D01*
X17086Y-15098D02*
X17932Y-15098D01*
X17932Y-15098D02*
X17952Y-15118D01*
G54D27*
X20297Y-17207D02*
X20297Y-17187D01*
X20297Y-17207D02*
X20297Y-18352D01*
X20297Y-18978D02*
X20297Y-18352D01*
X17480Y-16496D02*
X17086Y-16102D01*
X19606Y-16496D02*
X17480Y-16496D01*
X20297Y-17187D02*
X19606Y-16496D01*
X14960Y-13207D02*
X16790Y-13207D01*
X17086Y-13503D02*
X17086Y-14153D01*
X16790Y-13207D02*
X17086Y-13503D01*
X9205Y-27345D02*
X9296Y-27345D01*
X8565Y-27345D02*
X8035Y-27875D01*
X9205Y-27345D02*
X8565Y-27345D01*
X10461Y-32362D02*
X10461Y-32350D01*
X8035Y-29924D02*
X10461Y-32350D01*
X8035Y-27875D02*
X8035Y-29924D01*
X9296Y-27345D02*
X10055Y-26586D01*
X9485Y-25550D02*
X9485Y-26016D01*
X9485Y-26016D02*
X10055Y-26586D01*
X10055Y-24980D02*
X9485Y-25550D01*
X40205Y-18545D02*
X40198Y-18545D01*
X42838Y-25381D02*
X43670Y-24550D01*
X43670Y-24550D02*
X44050Y-24550D01*
X44050Y-24550D02*
X44705Y-23895D01*
X44705Y-23895D02*
X44705Y-23045D01*
X44705Y-23045D02*
X40205Y-18545D01*
X42700Y-25381D02*
X42838Y-25381D01*
X32458Y-18407D02*
X32458Y-18978D01*
X33011Y-17854D02*
X32458Y-18407D01*
X39507Y-17854D02*
X33011Y-17854D01*
X40198Y-18545D02*
X39507Y-17854D01*
X13562Y-42307D02*
X13562Y-42322D01*
X14602Y-42874D02*
X15169Y-42307D01*
X14114Y-42874D02*
X14602Y-42874D01*
X13562Y-42322D02*
X14114Y-42874D01*
X23043Y-42307D02*
X23043Y-42330D01*
X22023Y-42893D02*
X21437Y-42307D01*
X22480Y-42893D02*
X22023Y-42893D01*
X23043Y-42330D02*
X22480Y-42893D01*
X29311Y-42307D02*
X29311Y-42322D01*
X30350Y-42874D02*
X30917Y-42307D01*
X29862Y-42874D02*
X30350Y-42874D01*
X29311Y-42322D02*
X29862Y-42874D01*
X37185Y-42307D02*
X37185Y-42322D01*
X38224Y-42874D02*
X38791Y-42307D01*
X37736Y-42874D02*
X38224Y-42874D01*
X37185Y-42322D02*
X37736Y-42874D01*
X41600Y-30984D02*
X41614Y-30984D01*
X42688Y-32058D02*
X42688Y-32774D01*
X41614Y-30984D02*
X42688Y-32058D01*
X10472Y-32362D02*
X10629Y-32519D01*
X10472Y-32362D02*
X10944Y-32362D01*
X10461Y-34251D02*
X10629Y-34251D01*
X11181Y-32362D02*
X10944Y-32362D01*
X11417Y-33858D02*
X11023Y-34251D01*
X11417Y-32598D02*
X11417Y-33858D01*
X11181Y-32362D02*
X11417Y-32598D01*
X10629Y-34251D02*
X11023Y-34251D01*
X41600Y-31181D02*
X41600Y-31206D01*
X41600Y-33292D02*
X42165Y-33858D01*
X42165Y-33858D02*
X42637Y-33858D01*
X41600Y-31206D02*
X41600Y-31535D01*
X41600Y-31535D02*
X41600Y-33292D01*
G54D28*
X42688Y-33365D02*
X42688Y-34349D01*
G54D27*
X10461Y-32362D02*
X10472Y-32362D01*
G54D28*
X10461Y-34251D02*
X10461Y-34744D01*
G54D27*
X10461Y-32362D02*
X10461Y-32519D01*
X10461Y-32519D02*
X10461Y-32677D01*
X9963Y-26586D02*
X10055Y-26586D01*
G54D28*
X10461Y-33169D02*
X10461Y-32786D01*
G54D27*
X10461Y-32677D02*
X10461Y-32786D01*
X39760Y-21280D02*
X39921Y-21280D01*
X37458Y-18978D02*
X39760Y-21280D01*
X32458Y-18978D02*
X37458Y-18978D01*
G54D28*
X39921Y-21280D02*
X40314Y-21280D01*
G54D27*
X31714Y-30684D02*
X31714Y-30233D01*
X31980Y-30950D02*
X31714Y-30684D01*
X32940Y-30950D02*
X31980Y-30950D01*
X32950Y-30940D02*
X32940Y-30950D01*
X28958Y-19858D02*
X28958Y-18978D01*
X29085Y-19985D02*
X28958Y-19858D01*
X10055Y-24980D02*
X10055Y-24554D01*
X10055Y-24554D02*
X10830Y-23780D01*
X10830Y-23780D02*
X14220Y-23780D01*
X14220Y-23780D02*
X19021Y-18978D01*
X19021Y-18978D02*
X20297Y-18978D01*
X23797Y-18978D02*
X28958Y-18978D01*
X38791Y-42307D02*
X38791Y-43261D01*
X38791Y-43261D02*
X39945Y-44415D01*
X39945Y-44415D02*
X41295Y-44415D01*
X41295Y-44415D02*
X42525Y-43185D01*
X42525Y-43185D02*
X42525Y-42570D01*
X42525Y-42570D02*
X43260Y-41835D01*
X43260Y-41835D02*
X44070Y-41835D01*
X44070Y-41835D02*
X45365Y-40540D01*
X45365Y-40540D02*
X45365Y-28565D01*
X45365Y-28565D02*
X44170Y-27370D01*
X44170Y-27370D02*
X43082Y-27370D01*
X43082Y-27370D02*
X42700Y-26988D01*
X30917Y-42307D02*
X30917Y-43127D01*
X30917Y-43127D02*
X32145Y-44355D01*
X32145Y-44355D02*
X36330Y-44355D01*
X36330Y-44355D02*
X37185Y-43499D01*
X37185Y-43499D02*
X37185Y-42307D01*
X23043Y-42307D02*
X23043Y-42558D01*
X29311Y-43498D02*
X29311Y-42307D01*
X28395Y-44415D02*
X29311Y-43498D01*
X24510Y-44415D02*
X28395Y-44415D01*
X23775Y-43680D02*
X24510Y-44415D01*
X23775Y-43290D02*
X23775Y-43680D01*
X23043Y-42558D02*
X23775Y-43290D01*
X21437Y-42307D02*
X21437Y-43782D01*
X15169Y-43234D02*
X15169Y-42307D01*
X16425Y-44490D02*
X15169Y-43234D01*
X20730Y-44490D02*
X16425Y-44490D01*
X21437Y-43782D02*
X20730Y-44490D01*
X8530Y-26640D02*
X10001Y-26640D01*
X10001Y-26640D02*
X10055Y-26586D01*
X13562Y-42307D02*
X13562Y-43362D01*
X7640Y-27530D02*
X8530Y-26640D01*
X7640Y-39560D02*
X7640Y-27530D01*
X10575Y-42495D02*
X7640Y-39560D01*
X10575Y-43590D02*
X10575Y-42495D01*
X11400Y-44415D02*
X10575Y-43590D01*
X12510Y-44415D02*
X11400Y-44415D01*
X13562Y-43362D02*
X12510Y-44415D01*
X13562Y-42307D02*
X13562Y-42552D01*
X15169Y-42710D02*
X15169Y-42307D01*
X21437Y-42307D02*
X21437Y-42617D01*
X29311Y-42307D02*
X29311Y-42531D01*
X30917Y-42592D02*
X30917Y-42307D01*
X37185Y-42307D02*
X37185Y-42545D01*
X38791Y-42578D02*
X38791Y-42307D01*
X42700Y-25381D02*
X43978Y-25381D01*
X45250Y-12466D02*
X40551Y-7767D01*
X45250Y-24110D02*
X45250Y-12466D01*
X43978Y-25381D02*
X45250Y-24110D01*
X10055Y-26586D02*
X9891Y-26586D01*
X25775Y-9661D02*
X25775Y-9269D01*
X26645Y-8925D02*
X27381Y-9661D01*
X26120Y-8925D02*
X26645Y-8925D01*
X25775Y-9269D02*
X26120Y-8925D01*
X42700Y-25381D02*
X42871Y-25381D01*
X42871Y-25381D02*
X43410Y-25920D01*
X43410Y-25920D02*
X43410Y-26560D01*
X43410Y-26560D02*
X42981Y-26988D01*
X42981Y-26988D02*
X42700Y-26988D01*
X32214Y-28033D02*
X32214Y-27599D01*
X32214Y-27599D02*
X31895Y-27280D01*
X31895Y-27280D02*
X31455Y-27280D01*
X31455Y-27280D02*
X31095Y-27640D01*
X31095Y-27640D02*
X31095Y-28425D01*
X31095Y-28425D02*
X31825Y-29155D01*
X31825Y-29155D02*
X34755Y-29155D01*
X35214Y-29614D02*
X35214Y-30233D01*
X34755Y-29155D02*
X35214Y-29614D01*
X33214Y-28033D02*
X33214Y-23009D01*
X31958Y-21753D02*
X31958Y-21178D01*
X33214Y-23009D02*
X31958Y-21753D01*
X32714Y-28033D02*
X33214Y-28033D01*
X32214Y-28033D02*
X32714Y-28033D01*
X23297Y-21178D02*
X23297Y-20092D01*
X23797Y-19592D02*
X23797Y-18978D01*
X23297Y-20092D02*
X23797Y-19592D01*
G54D28*
X40708Y-21280D02*
X40905Y-21280D01*
X40511Y-21280D02*
X40708Y-21280D01*
X40314Y-21280D02*
X40511Y-21280D01*
X42688Y-34743D02*
X42688Y-34940D01*
X42688Y-34546D02*
X42688Y-34743D01*
X42688Y-34349D02*
X42688Y-34546D01*
X42688Y-33168D02*
X42688Y-33365D01*
X42688Y-32971D02*
X42688Y-33168D01*
X42688Y-32774D02*
X42688Y-32971D01*
G54D27*
X42700Y-26988D02*
X42700Y-27524D01*
X42700Y-27524D02*
X41600Y-28625D01*
X41600Y-28625D02*
X41600Y-30984D01*
X41600Y-30984D02*
X41600Y-31181D01*
X41600Y-31181D02*
X41600Y-31170D01*
G54D28*
X10461Y-35138D02*
X10461Y-35335D01*
X10461Y-34941D02*
X10461Y-35138D01*
X10461Y-34744D02*
X10461Y-34941D01*
X10461Y-33760D02*
X10461Y-34251D01*
X10461Y-33563D02*
X10461Y-33760D01*
X10461Y-33366D02*
X10461Y-33563D01*
X10461Y-33169D02*
X10461Y-33366D01*
G54D27*
X37598Y-7767D02*
X40551Y-7767D01*
X34645Y-7767D02*
X37598Y-7767D01*
X31692Y-7767D02*
X34645Y-7767D01*
X27381Y-9661D02*
X27381Y-8558D01*
X31350Y-7425D02*
X31692Y-7767D01*
X28515Y-7425D02*
X31350Y-7425D01*
X27381Y-8558D02*
X28515Y-7425D01*
G54D28*
X36713Y-11979D02*
X36713Y-9652D01*
X36713Y-9652D02*
X37598Y-8767D01*
X33714Y-30884D02*
X33714Y-30233D01*
X37842Y-35012D02*
X33714Y-30884D01*
X37842Y-35857D02*
X37842Y-35012D01*
X37840Y-35860D02*
X37842Y-35857D01*
X36220Y-37114D02*
X37795Y-37114D01*
X34714Y-31439D02*
X34714Y-30233D01*
X38280Y-35005D02*
X34714Y-31439D01*
X38280Y-36630D02*
X38280Y-35005D01*
X37795Y-37114D02*
X38280Y-36630D01*
X11311Y-25381D02*
X10755Y-25381D01*
X11920Y-25990D02*
X11311Y-25381D01*
X11920Y-27000D02*
X11920Y-25990D01*
X12550Y-27630D02*
X11920Y-27000D01*
X11628Y-24578D02*
X10755Y-24578D01*
X12920Y-25870D02*
X11628Y-24578D01*
X12920Y-28190D02*
X12920Y-25870D01*
X12580Y-28530D02*
X12920Y-28190D01*
X30958Y-19398D02*
X31345Y-19785D01*
X31345Y-19785D02*
X33071Y-19785D01*
X33071Y-19785D02*
X37444Y-24158D01*
X37444Y-24158D02*
X37444Y-31753D01*
X37444Y-31753D02*
X41947Y-36256D01*
X41947Y-36256D02*
X41947Y-38297D01*
X41947Y-38297D02*
X42145Y-38495D01*
X42145Y-38495D02*
X42145Y-39485D01*
X30958Y-19398D02*
X30958Y-18978D01*
X41594Y-40035D02*
X42145Y-39485D01*
X29879Y-40035D02*
X41594Y-40035D01*
X29575Y-40340D02*
X29879Y-40035D01*
X31318Y-41606D02*
X31318Y-41566D01*
X43569Y-34349D02*
X43141Y-34349D01*
X44220Y-35000D02*
X43569Y-34349D01*
X44220Y-40059D02*
X44220Y-35000D01*
X43614Y-40665D02*
X44220Y-40059D01*
X32219Y-40665D02*
X43614Y-40665D01*
X31318Y-41566D02*
X32219Y-40665D01*
X20797Y-18978D02*
X20797Y-18402D01*
X20820Y-18380D02*
X20797Y-18402D01*
X26870Y-15400D02*
X26870Y-15470D01*
X26870Y-14401D02*
X26870Y-15400D01*
X27627Y-16147D02*
X33022Y-16147D01*
X33022Y-16147D02*
X36516Y-12653D01*
X36516Y-12653D02*
X36516Y-12432D01*
X27547Y-16147D02*
X27627Y-16147D01*
X26870Y-15470D02*
X27292Y-15892D01*
X27292Y-15892D02*
X27547Y-16147D01*
X28958Y-21178D02*
X28958Y-20666D01*
X29470Y-20155D02*
X28958Y-20666D01*
X29470Y-19640D02*
X29470Y-20155D01*
X29480Y-19630D02*
X29470Y-19640D01*
X26673Y-15696D02*
X26673Y-15738D01*
X26673Y-14401D02*
X26673Y-15696D01*
X27239Y-16304D02*
X33087Y-16304D01*
X33087Y-16304D02*
X36713Y-12679D01*
X36713Y-12679D02*
X36713Y-12432D01*
X26673Y-15738D02*
X27239Y-16304D01*
X36319Y-11979D02*
X34904Y-11979D01*
X34904Y-11979D02*
X31692Y-8767D01*
X29458Y-18978D02*
X29458Y-18373D01*
X29455Y-18370D02*
X29458Y-18373D01*
X25980Y-15760D02*
X26020Y-15760D01*
X36910Y-12705D02*
X36910Y-12432D01*
X33152Y-16462D02*
X36910Y-12705D01*
X27174Y-16462D02*
X33152Y-16462D01*
X26787Y-16075D02*
X27174Y-16462D01*
X26335Y-16075D02*
X26787Y-16075D01*
X26020Y-15760D02*
X26335Y-16075D01*
X26476Y-14401D02*
X26476Y-15263D01*
X26476Y-15263D02*
X25980Y-15760D01*
X34600Y-37114D02*
X35580Y-37114D01*
X37590Y-36570D02*
X38122Y-36037D01*
X38122Y-36037D02*
X38122Y-35070D01*
X38122Y-35070D02*
X34214Y-31162D01*
X34214Y-30233D02*
X34214Y-31162D01*
X34600Y-37114D02*
X29921Y-37114D01*
X37505Y-36655D02*
X37590Y-36570D01*
X36040Y-36655D02*
X36495Y-36655D01*
X36495Y-36655D02*
X37505Y-36655D01*
X35580Y-37114D02*
X36040Y-36655D01*
X26870Y-13948D02*
X26870Y-10471D01*
X26870Y-10471D02*
X26980Y-10362D01*
X26476Y-13948D02*
X26476Y-11464D01*
X26476Y-11464D02*
X25374Y-10362D01*
X27067Y-13948D02*
X27067Y-11078D01*
X27067Y-11078D02*
X27783Y-10362D01*
X26673Y-13948D02*
X26673Y-10858D01*
X26673Y-10858D02*
X26177Y-10362D01*
X27827Y-15872D02*
X32316Y-15872D01*
X35756Y-12432D02*
X36319Y-12432D01*
X32316Y-15872D02*
X35756Y-12432D01*
X20297Y-21178D02*
X20297Y-21817D01*
X20305Y-21825D02*
X20297Y-21817D01*
X27067Y-14401D02*
X27067Y-14977D01*
X27067Y-15112D02*
X27067Y-14977D01*
X27827Y-15872D02*
X27067Y-15112D01*
X18055Y-39785D02*
X18124Y-39785D01*
X41265Y-36019D02*
X41265Y-39450D01*
X37129Y-31884D02*
X41265Y-36019D01*
X37129Y-24289D02*
X37129Y-31884D01*
X32940Y-20100D02*
X37129Y-24289D01*
X30535Y-20100D02*
X32940Y-20100D01*
X29958Y-19523D02*
X30535Y-20100D01*
X29958Y-19523D02*
X29958Y-18978D01*
X40994Y-39720D02*
X41265Y-39450D01*
X29597Y-39720D02*
X40994Y-39720D01*
X29109Y-40207D02*
X29597Y-39720D01*
X28720Y-40207D02*
X29109Y-40207D01*
X28232Y-39720D02*
X28720Y-40207D01*
X26247Y-39720D02*
X28232Y-39720D01*
X24903Y-41063D02*
X26247Y-39720D01*
X23191Y-41063D02*
X24903Y-41063D01*
X22017Y-39890D02*
X23191Y-41063D01*
X18230Y-39890D02*
X22017Y-39890D01*
X18124Y-39785D02*
X18230Y-39890D01*
X18055Y-39785D02*
X18119Y-39720D01*
X15570Y-41606D02*
X15570Y-41555D01*
X9039Y-33760D02*
X10008Y-33760D01*
X8824Y-33975D02*
X9039Y-33760D01*
X8824Y-39639D02*
X8824Y-33975D01*
X9862Y-40677D02*
X8824Y-39639D01*
X14692Y-40677D02*
X9862Y-40677D01*
X15570Y-41555D02*
X14692Y-40677D01*
X11450Y-39785D02*
X11400Y-39735D01*
X11400Y-39735D02*
X11400Y-35791D01*
X11400Y-35791D02*
X12667Y-34524D01*
X22297Y-20827D02*
X22297Y-21178D01*
X21662Y-20192D02*
X22297Y-20827D01*
X19569Y-20192D02*
X21662Y-20192D01*
X17497Y-22264D02*
X19569Y-20192D01*
X17497Y-29694D02*
X17497Y-22264D01*
X12667Y-34524D02*
X17497Y-29694D01*
X44377Y-35320D02*
X44377Y-33935D01*
X36783Y-41606D02*
X36783Y-41586D01*
X44377Y-40124D02*
X44377Y-35320D01*
X43679Y-40822D02*
X44377Y-40124D01*
X37547Y-40822D02*
X43679Y-40822D01*
X36783Y-41586D02*
X37547Y-40822D01*
X43807Y-33365D02*
X43141Y-33365D01*
X44377Y-33935D02*
X43807Y-33365D01*
X22797Y-19397D02*
X22159Y-20035D01*
X22159Y-20035D02*
X19504Y-20035D01*
X19504Y-20035D02*
X17340Y-22199D01*
X17340Y-22199D02*
X17340Y-29629D01*
X17340Y-29629D02*
X12524Y-34445D01*
X22797Y-19397D02*
X22797Y-18978D01*
X10910Y-36059D02*
X12524Y-34445D01*
X10910Y-39435D02*
X10910Y-36059D01*
X10915Y-39440D02*
X10910Y-39435D01*
X44535Y-35255D02*
X44535Y-33870D01*
X37586Y-41388D02*
X37994Y-40980D01*
X37994Y-40980D02*
X43744Y-40980D01*
X43744Y-40980D02*
X44535Y-40189D01*
X44535Y-40189D02*
X44535Y-35255D01*
X37586Y-41606D02*
X37586Y-41388D01*
X43833Y-33168D02*
X43141Y-33168D01*
X44535Y-33870D02*
X43833Y-33168D01*
X36910Y-11979D02*
X37339Y-11979D01*
X37339Y-11979D02*
X40551Y-8767D01*
X26312Y-39877D02*
X28167Y-39877D01*
X24583Y-41606D02*
X26312Y-39877D01*
X41529Y-39877D02*
X41790Y-39617D01*
X41790Y-39617D02*
X41790Y-38660D01*
X30458Y-18978D02*
X30458Y-19481D01*
X41790Y-36321D02*
X41790Y-38660D01*
X37287Y-31818D02*
X41790Y-36321D01*
X37287Y-24223D02*
X37287Y-31818D01*
X33006Y-19942D02*
X37287Y-24223D01*
X30920Y-19942D02*
X33006Y-19942D01*
X30458Y-19481D02*
X30920Y-19942D01*
X24583Y-41606D02*
X23444Y-41606D01*
X29662Y-39877D02*
X41529Y-39877D01*
X29175Y-40365D02*
X29662Y-39877D01*
X28655Y-40365D02*
X29175Y-40365D01*
X28167Y-39877D02*
X28655Y-40365D01*
X23444Y-41606D02*
X23444Y-41539D01*
X9579Y-35335D02*
X10008Y-35335D01*
X9454Y-35460D02*
X9579Y-35335D01*
X9454Y-39378D02*
X9454Y-35460D01*
X10123Y-40047D02*
X9454Y-39378D01*
X21952Y-40047D02*
X10123Y-40047D01*
X23444Y-41539D02*
X21952Y-40047D01*
X30458Y-21041D02*
X30927Y-20572D01*
X30927Y-20572D02*
X32745Y-20572D01*
X32745Y-20572D02*
X36657Y-24484D01*
X36657Y-24484D02*
X36657Y-32079D01*
X36657Y-32079D02*
X39680Y-35102D01*
X39680Y-35102D02*
X39680Y-38630D01*
X30458Y-21041D02*
X30458Y-21178D01*
X39062Y-39247D02*
X39680Y-38630D01*
X29142Y-39247D02*
X39062Y-39247D01*
X28910Y-39480D02*
X29142Y-39247D01*
X30515Y-41606D02*
X30515Y-41499D01*
X43543Y-34546D02*
X43141Y-34546D01*
X44062Y-35065D02*
X43543Y-34546D01*
X44062Y-39993D02*
X44062Y-35065D01*
X43548Y-40507D02*
X44062Y-39993D01*
X31507Y-40507D02*
X43548Y-40507D01*
X30515Y-41499D02*
X31507Y-40507D01*
X22297Y-19415D02*
X21835Y-19877D01*
X21835Y-19877D02*
X19438Y-19877D01*
X19438Y-19877D02*
X17182Y-22133D01*
X17182Y-22133D02*
X17182Y-29563D01*
X17182Y-29563D02*
X12396Y-34350D01*
X22297Y-19415D02*
X22297Y-18978D01*
X10440Y-36306D02*
X12396Y-34350D01*
X10440Y-39065D02*
X10440Y-36306D01*
X10420Y-39085D02*
X10440Y-39065D01*
X29712Y-41606D02*
X29712Y-41447D01*
X43518Y-34743D02*
X43141Y-34743D01*
X43905Y-35130D02*
X43518Y-34743D01*
X43905Y-39928D02*
X43905Y-35130D01*
X43483Y-40350D02*
X43905Y-39928D01*
X30809Y-40350D02*
X43483Y-40350D01*
X29712Y-41447D02*
X30809Y-40350D01*
X10125Y-39650D02*
X10150Y-39625D01*
X10150Y-39625D02*
X10150Y-36373D01*
X10150Y-36373D02*
X12322Y-34201D01*
X21797Y-18978D02*
X21797Y-19407D01*
X17025Y-29498D02*
X12322Y-34201D01*
X17025Y-22068D02*
X17025Y-29498D01*
X19373Y-19720D02*
X17025Y-22068D01*
X21485Y-19720D02*
X19373Y-19720D01*
X21797Y-19407D02*
X21485Y-19720D01*
X12322Y-34201D02*
X12328Y-34195D01*
X21838Y-41606D02*
X21838Y-41588D01*
X9391Y-34941D02*
X10008Y-34941D01*
X9139Y-35192D02*
X9391Y-34941D01*
X9139Y-39509D02*
X9139Y-35192D01*
X9993Y-40362D02*
X9139Y-39509D01*
X20612Y-40362D02*
X9993Y-40362D01*
X21838Y-41588D02*
X20612Y-40362D01*
X21297Y-19305D02*
X21040Y-19562D01*
X21040Y-19562D02*
X19308Y-19562D01*
X19308Y-19562D02*
X16867Y-22003D01*
X16867Y-22003D02*
X16867Y-29433D01*
X16867Y-29433D02*
X12211Y-34090D01*
X21297Y-19305D02*
X21297Y-18978D01*
X9675Y-36626D02*
X12211Y-34090D01*
X9675Y-39225D02*
X9675Y-36626D01*
X9715Y-39265D02*
X9675Y-39225D01*
X13964Y-41606D02*
X13964Y-41494D01*
X8988Y-33366D02*
X10008Y-33366D01*
X8510Y-33845D02*
X8988Y-33366D01*
X8510Y-39770D02*
X8510Y-33845D01*
X9735Y-40995D02*
X8510Y-39770D01*
X13465Y-40995D02*
X9735Y-40995D01*
X13964Y-41494D02*
X13465Y-40995D01*
X20635Y-20665D02*
X20797Y-20827D01*
X19765Y-20665D02*
X20635Y-20665D01*
X17970Y-22460D02*
X19765Y-20665D01*
X17970Y-29890D02*
X17970Y-22460D01*
X13170Y-34690D02*
X17970Y-29890D01*
X20797Y-20827D02*
X20797Y-21178D01*
X13140Y-34720D02*
X13170Y-34690D01*
X13140Y-39760D02*
X13140Y-34720D01*
X13165Y-39785D02*
X13140Y-39760D01*
X13161Y-41606D02*
X13161Y-41391D01*
X8955Y-33169D02*
X10008Y-33169D01*
X8350Y-33775D02*
X8955Y-33169D01*
X8350Y-39845D02*
X8350Y-33775D01*
X9665Y-41160D02*
X8350Y-39845D01*
X12930Y-41160D02*
X9665Y-41160D01*
X13161Y-41391D02*
X12930Y-41160D01*
X12570Y-35067D02*
X12982Y-34654D01*
X21297Y-20772D02*
X21297Y-21178D01*
X21032Y-20507D02*
X21297Y-20772D01*
X19699Y-20507D02*
X21032Y-20507D01*
X17812Y-22394D02*
X19699Y-20507D01*
X17812Y-29824D02*
X17812Y-22394D01*
X12982Y-34654D02*
X17812Y-29824D01*
X12570Y-39765D02*
X12570Y-35207D01*
X12590Y-39785D02*
X12570Y-39765D01*
X12570Y-35207D02*
X12570Y-35067D01*
X21035Y-41606D02*
X21035Y-41230D01*
X9365Y-34744D02*
X10008Y-34744D01*
X8982Y-35127D02*
X9365Y-34744D01*
X8982Y-39574D02*
X8982Y-35127D01*
X9928Y-40520D02*
X8982Y-39574D01*
X20325Y-40520D02*
X9928Y-40520D01*
X21035Y-41230D02*
X20325Y-40520D01*
X12020Y-39785D02*
X12025Y-39780D01*
X12025Y-39780D02*
X12025Y-35389D01*
X12025Y-35389D02*
X12825Y-34589D01*
X21797Y-20787D02*
X21797Y-21178D01*
X21360Y-20350D02*
X21797Y-20787D01*
X19634Y-20350D02*
X21360Y-20350D01*
X17655Y-22329D02*
X19634Y-20350D01*
X17655Y-29759D02*
X17655Y-22329D01*
X12825Y-34589D02*
X17655Y-29759D01*
X28909Y-41606D02*
X28909Y-41510D01*
X43492Y-34940D02*
X43141Y-34940D01*
X43747Y-35195D02*
X43492Y-34940D01*
X43747Y-39863D02*
X43747Y-35195D01*
X43418Y-40192D02*
X43747Y-39863D01*
X30227Y-40192D02*
X43418Y-40192D01*
X28909Y-41510D02*
X30227Y-40192D01*
X18222Y-39520D02*
X18332Y-39520D01*
X29458Y-21121D02*
X30322Y-20257D01*
X30322Y-20257D02*
X32875Y-20257D01*
X32875Y-20257D02*
X36972Y-24354D01*
X36972Y-24354D02*
X36972Y-31949D01*
X36972Y-31949D02*
X40790Y-35766D01*
X40790Y-35766D02*
X40790Y-38660D01*
X29458Y-21121D02*
X29458Y-21178D01*
X16655Y-39520D02*
X18222Y-39520D01*
X16390Y-39785D02*
X16655Y-39520D01*
X40790Y-39165D02*
X40790Y-38660D01*
X40392Y-39562D02*
X40790Y-39165D01*
X29531Y-39562D02*
X40392Y-39562D01*
X29044Y-40050D02*
X29531Y-39562D01*
X28785Y-40050D02*
X29044Y-40050D01*
X28298Y-39562D02*
X28785Y-40050D01*
X26181Y-39562D02*
X28298Y-39562D01*
X24838Y-40906D02*
X26181Y-39562D01*
X23256Y-40906D02*
X24838Y-40906D01*
X22083Y-39732D02*
X23256Y-40906D01*
X18545Y-39732D02*
X22083Y-39732D01*
X18332Y-39520D02*
X18545Y-39732D01*
X14767Y-41606D02*
X14767Y-41437D01*
X9014Y-33563D02*
X10008Y-33563D01*
X8667Y-33910D02*
X9014Y-33563D01*
X8667Y-39704D02*
X8667Y-33910D01*
X9797Y-40835D02*
X8667Y-39704D01*
X14165Y-40835D02*
X9797Y-40835D01*
X14767Y-41437D02*
X14165Y-40835D01*
X36516Y-11979D02*
X36516Y-10638D01*
X36516Y-10638D02*
X34645Y-8767D01*
X31458Y-19221D02*
X31865Y-19627D01*
X31865Y-19627D02*
X33136Y-19627D01*
X33136Y-19627D02*
X37602Y-24093D01*
X37602Y-24093D02*
X37602Y-31688D01*
X37602Y-31688D02*
X42104Y-36190D01*
X42104Y-36190D02*
X42104Y-38232D01*
X42104Y-38232D02*
X42820Y-38947D01*
X42820Y-38947D02*
X42820Y-38955D01*
X31458Y-19221D02*
X31458Y-18978D01*
X44850Y-35125D02*
X44850Y-33740D01*
X39213Y-41606D02*
X39525Y-41295D01*
X39525Y-41295D02*
X43875Y-41295D01*
X43875Y-41295D02*
X44850Y-40320D01*
X44850Y-40320D02*
X44850Y-35125D01*
X39192Y-41606D02*
X39213Y-41606D01*
X43884Y-32774D02*
X43141Y-32774D01*
X44850Y-33740D02*
X43884Y-32774D01*
X30958Y-20951D02*
X31180Y-20730D01*
X31180Y-20730D02*
X32680Y-20730D01*
X32680Y-20730D02*
X36500Y-24550D01*
X36500Y-24550D02*
X36500Y-32145D01*
X36500Y-32145D02*
X39140Y-34785D01*
X30958Y-20951D02*
X30958Y-21178D01*
X39522Y-35167D02*
X39140Y-34785D01*
X39522Y-38272D02*
X39522Y-35167D01*
X38845Y-38950D02*
X39522Y-38272D01*
X44692Y-35190D02*
X44692Y-33805D01*
X38389Y-41425D02*
X38677Y-41137D01*
X38677Y-41137D02*
X43809Y-41137D01*
X43809Y-41137D02*
X44692Y-40254D01*
X44692Y-40254D02*
X44692Y-35190D01*
X38389Y-41606D02*
X38389Y-41425D01*
X43859Y-32971D02*
X43141Y-32971D01*
X44692Y-33805D02*
X43859Y-32971D01*
X26116Y-39405D02*
X24926Y-40595D01*
X26116Y-39405D02*
X28363Y-39405D01*
X28363Y-39405D02*
X28850Y-39892D01*
X28850Y-39892D02*
X28979Y-39892D01*
X28979Y-39892D02*
X29466Y-39405D01*
X29466Y-39405D02*
X39784Y-39405D01*
X39784Y-39405D02*
X40170Y-39020D01*
X40170Y-39020D02*
X40170Y-35369D01*
X29958Y-21178D02*
X29958Y-21121D01*
X36814Y-32014D02*
X40170Y-35369D01*
X36814Y-24419D02*
X36814Y-32014D01*
X32810Y-20415D02*
X36814Y-24419D01*
X30664Y-20415D02*
X32810Y-20415D01*
X29958Y-21121D02*
X30664Y-20415D01*
X23454Y-40595D02*
X23450Y-40600D01*
X24926Y-40595D02*
X23454Y-40595D01*
X22641Y-41606D02*
X22641Y-41461D01*
X9417Y-35138D02*
X10008Y-35138D01*
X9297Y-35258D02*
X9417Y-35138D01*
X9297Y-39443D02*
X9297Y-35258D01*
X10058Y-40205D02*
X9297Y-39443D01*
X21385Y-40205D02*
X10058Y-40205D01*
X22641Y-41461D02*
X21385Y-40205D01*
X23228Y-36114D02*
X23228Y-32629D01*
X26712Y-29145D02*
X26712Y-28473D01*
X23228Y-32629D02*
X26712Y-29145D01*
X16535Y-36114D02*
X16550Y-36114D01*
X26515Y-29120D02*
X26515Y-28473D01*
X21050Y-34585D02*
X26515Y-29120D01*
X18080Y-34585D02*
X21050Y-34585D01*
X16550Y-36114D02*
X18080Y-34585D01*
X29921Y-36114D02*
X26719Y-36114D01*
X26909Y-29171D02*
X26909Y-28473D01*
X25105Y-30975D02*
X26909Y-29171D01*
X25105Y-34500D02*
X25105Y-30975D01*
X26719Y-36114D02*
X25105Y-34500D01*
X36220Y-36114D02*
X35099Y-36114D01*
X27106Y-29197D02*
X27106Y-28473D01*
X25262Y-31040D02*
X27106Y-29197D01*
X25262Y-33287D02*
X25262Y-31040D01*
X27360Y-35385D02*
X25262Y-33287D01*
X34370Y-35385D02*
X27360Y-35385D01*
X35099Y-36114D02*
X34370Y-35385D01*
X33214Y-30607D02*
X33214Y-30233D01*
X37520Y-34914D02*
X33214Y-30607D01*
X37520Y-35284D02*
X37520Y-34914D01*
X37505Y-35300D02*
X37520Y-35284D01*
X31958Y-18978D02*
X31958Y-19268D01*
X41413Y-25783D02*
X42000Y-25783D01*
X35060Y-19430D02*
X41413Y-25783D01*
X32120Y-19430D02*
X35060Y-19430D01*
X31958Y-19268D02*
X32120Y-19430D01*
X23297Y-18978D02*
X23297Y-18667D01*
X31745Y-17940D02*
X31965Y-18160D01*
X24025Y-17940D02*
X31745Y-17940D01*
X23297Y-18667D02*
X24025Y-17940D01*
X31958Y-18978D02*
X31958Y-18166D01*
X32714Y-29829D02*
X32714Y-30233D01*
X32355Y-29470D02*
X32714Y-29829D01*
X31530Y-29470D02*
X32355Y-29470D01*
X30335Y-28275D02*
X31530Y-29470D01*
X30335Y-27195D02*
X30335Y-28275D01*
X31730Y-25800D02*
X30335Y-27195D01*
X31730Y-22215D02*
X31730Y-25800D01*
X31720Y-22205D02*
X31730Y-22215D01*
X31958Y-18166D02*
X31965Y-18160D01*
X42000Y-25783D02*
X41968Y-25783D01*
X41968Y-25783D02*
X41400Y-25215D01*
X41400Y-25215D02*
X41400Y-22755D01*
X41400Y-22755D02*
X41610Y-22545D01*
X41610Y-22545D02*
X41610Y-20495D01*
X41610Y-20495D02*
X41185Y-20070D01*
X41185Y-20070D02*
X40380Y-20070D01*
X40380Y-20070D02*
X40220Y-20230D01*
X40220Y-20230D02*
X40220Y-20535D01*
X40220Y-20535D02*
X40314Y-20629D01*
X40314Y-20629D02*
X40314Y-20827D01*
X23012Y-21772D02*
X23287Y-21772D01*
X28155Y-21775D02*
X31425Y-21775D01*
X26960Y-20580D02*
X28155Y-21775D01*
X23830Y-20580D02*
X26960Y-20580D01*
X23545Y-20865D02*
X23830Y-20580D01*
X23545Y-21515D02*
X23545Y-20865D01*
X23287Y-21772D02*
X23545Y-21515D01*
X22797Y-21178D02*
X22797Y-21557D01*
X22797Y-21557D02*
X23012Y-21772D01*
X23012Y-21772D02*
X23015Y-21775D01*
X31425Y-21775D02*
X31425Y-25765D01*
X31425Y-25765D02*
X30090Y-27100D01*
X30090Y-27100D02*
X30090Y-28370D01*
X30090Y-28370D02*
X31390Y-29670D01*
X31390Y-29670D02*
X32010Y-29670D01*
X32010Y-29670D02*
X32214Y-29874D01*
X32214Y-29874D02*
X32214Y-30233D01*
X31458Y-21741D02*
X31458Y-21178D01*
X31425Y-21775D02*
X31458Y-21741D01*
X40511Y-20356D02*
X40511Y-20827D01*
X40500Y-20345D02*
X40511Y-20356D01*
G54D27*
X19291Y-13957D02*
X18758Y-13957D01*
X18464Y-14251D02*
X18464Y-14133D01*
X18758Y-13957D02*
X18464Y-14251D01*
G54D26*
X18346Y-14133D02*
X18464Y-14133D01*
X18464Y-14133D02*
X17756Y-14133D01*
X17756Y-14133D02*
X17677Y-14055D01*
X19842Y-15728D02*
X19842Y-15629D01*
X19842Y-15078D02*
X19291Y-15078D01*
X19842Y-15728D02*
X19842Y-15078D01*
X19842Y-15629D02*
X19291Y-15078D01*
X18346Y-14133D02*
X18346Y-14133D01*
X18346Y-14133D02*
X19291Y-15078D01*
G54D27*
X24620Y-21190D02*
X24590Y-21190D01*
X19291Y-15078D02*
X19291Y-13957D01*
X35910Y-24704D02*
X35905Y-24704D01*
X32458Y-21671D02*
X32458Y-21178D01*
X32933Y-22145D02*
X32458Y-21671D01*
X33346Y-22145D02*
X32933Y-22145D01*
X35905Y-24704D02*
X33346Y-22145D01*
X24620Y-21180D02*
X24620Y-21190D01*
X24620Y-21180D02*
X24618Y-21178D01*
X24618Y-21178D02*
X23797Y-21178D01*
X24620Y-21190D02*
X24620Y-23795D01*
X24620Y-23795D02*
X30465Y-29640D01*
X23797Y-21178D02*
X23797Y-26395D01*
X25421Y-28020D02*
X26062Y-28020D01*
G54D28*
X26062Y-28020D02*
X26515Y-28020D01*
G54D27*
X23797Y-26395D02*
X25421Y-28020D01*
G54D28*
X26909Y-28020D02*
X27106Y-28020D01*
X26712Y-28020D02*
X26909Y-28020D01*
X26515Y-28020D02*
X26712Y-28020D01*
G54D27*
X31714Y-28033D02*
X31714Y-28289D01*
X31714Y-28289D02*
X32110Y-28685D01*
X32110Y-28685D02*
X32115Y-28685D01*
X32458Y-21248D02*
X32458Y-21178D01*
X32115Y-28685D02*
X35395Y-28685D01*
X35395Y-28685D02*
X35910Y-28170D01*
X35910Y-28170D02*
X35910Y-24704D01*
X35910Y-24704D02*
X35910Y-24700D01*
G54D10*
G36*
X31262Y-21548D02*
X31212Y-21597D01*
X28228Y-21597D01*
X27085Y-20454D01*
X27027Y-20416D01*
X26960Y-20402D01*
X24161Y-20402D01*
X24161Y-19181D01*
X24161Y-18776D01*
X24161Y-18680D01*
X24125Y-18592D01*
X24057Y-18525D01*
X23969Y-18489D01*
X23876Y-18489D01*
X23816Y-18549D01*
X23816Y-18959D01*
X24101Y-18959D01*
X24161Y-18899D01*
X24161Y-18776D01*
X24161Y-19181D01*
X24161Y-19058D01*
X24101Y-18998D01*
X23816Y-18998D01*
X23816Y-19408D01*
X23876Y-19468D01*
X23969Y-19468D01*
X24057Y-19431D01*
X24125Y-19364D01*
X24161Y-19276D01*
X24161Y-19181D01*
X24161Y-20402D01*
X23830Y-20402D01*
X23762Y-20416D01*
X23704Y-20454D01*
X23469Y-20689D01*
X23469Y-20689D01*
X23376Y-20689D01*
X23316Y-20749D01*
X23316Y-21159D01*
X23324Y-21159D01*
X23324Y-21198D01*
X23316Y-21198D01*
X23316Y-21206D01*
X23277Y-21206D01*
X23277Y-21198D01*
X23269Y-21198D01*
X23269Y-21159D01*
X23277Y-21159D01*
X23277Y-20749D01*
X23217Y-20689D01*
X23124Y-20689D01*
X23036Y-20725D01*
X22969Y-20792D01*
X22967Y-20798D01*
X22949Y-20790D01*
X22894Y-20790D01*
X22644Y-20790D01*
X22594Y-20811D01*
X22555Y-20850D01*
X22547Y-20870D01*
X22539Y-20850D01*
X22500Y-20811D01*
X22468Y-20798D01*
X22468Y-20798D01*
X22460Y-20759D01*
X22460Y-20759D01*
X22422Y-20701D01*
X21932Y-20212D01*
X22159Y-20212D01*
X22227Y-20198D01*
X22227Y-20198D01*
X22285Y-20160D01*
X22922Y-19523D01*
X22960Y-19465D01*
X22974Y-19397D01*
X22974Y-19356D01*
X23000Y-19345D01*
X23038Y-19306D01*
X23047Y-19287D01*
X23055Y-19306D01*
X23094Y-19345D01*
X23144Y-19366D01*
X23199Y-19366D01*
X23449Y-19366D01*
X23467Y-19359D01*
X23469Y-19364D01*
X23536Y-19431D01*
X23624Y-19468D01*
X23717Y-19468D01*
X23777Y-19408D01*
X23777Y-18998D01*
X23769Y-18998D01*
X23769Y-18959D01*
X23777Y-18959D01*
X23777Y-18549D01*
X23721Y-18493D01*
X24098Y-18117D01*
X29345Y-18117D01*
X29299Y-18136D01*
X29221Y-18213D01*
X29179Y-18314D01*
X29179Y-18424D01*
X29221Y-18525D01*
X29281Y-18586D01*
X29281Y-18588D01*
X29219Y-18525D01*
X29131Y-18489D01*
X29038Y-18489D01*
X28978Y-18549D01*
X28978Y-18959D01*
X28986Y-18959D01*
X28986Y-18998D01*
X28978Y-18998D01*
X28978Y-19408D01*
X29038Y-19468D01*
X29131Y-19468D01*
X29219Y-19431D01*
X29286Y-19364D01*
X29288Y-19359D01*
X29306Y-19366D01*
X29360Y-19366D01*
X29395Y-19366D01*
X29324Y-19396D01*
X29246Y-19473D01*
X29204Y-19574D01*
X29204Y-19684D01*
X29246Y-19785D01*
X29292Y-19832D01*
X29292Y-20081D01*
X28938Y-20435D01*
X28938Y-19408D01*
X28938Y-18998D01*
X28938Y-18959D01*
X28938Y-18549D01*
X28879Y-18489D01*
X28786Y-18489D01*
X28698Y-18525D01*
X28630Y-18592D01*
X28594Y-18680D01*
X28594Y-18776D01*
X28594Y-18899D01*
X28654Y-18959D01*
X28938Y-18959D01*
X28938Y-18998D01*
X28654Y-18998D01*
X28594Y-19058D01*
X28594Y-19181D01*
X28594Y-19276D01*
X28630Y-19364D01*
X28698Y-19431D01*
X28786Y-19468D01*
X28879Y-19468D01*
X28938Y-19408D01*
X28938Y-20435D01*
X28833Y-20541D01*
X28794Y-20598D01*
X28781Y-20666D01*
X28781Y-20801D01*
X28755Y-20811D01*
X28716Y-20850D01*
X28695Y-20901D01*
X28695Y-20956D01*
X28695Y-21456D01*
X28716Y-21506D01*
X28755Y-21545D01*
X28806Y-21566D01*
X28860Y-21566D01*
X29110Y-21566D01*
X29161Y-21545D01*
X29200Y-21506D01*
X29208Y-21487D01*
X29216Y-21506D01*
X29255Y-21545D01*
X29306Y-21566D01*
X29360Y-21566D01*
X29610Y-21566D01*
X29661Y-21545D01*
X29700Y-21506D01*
X29708Y-21487D01*
X29716Y-21506D01*
X29755Y-21545D01*
X29806Y-21566D01*
X29860Y-21566D01*
X30110Y-21566D01*
X30161Y-21545D01*
X30200Y-21506D01*
X30208Y-21487D01*
X30216Y-21506D01*
X30255Y-21545D01*
X30306Y-21566D01*
X30360Y-21566D01*
X30610Y-21566D01*
X30661Y-21545D01*
X30700Y-21506D01*
X30708Y-21487D01*
X30716Y-21506D01*
X30755Y-21545D01*
X30806Y-21566D01*
X30860Y-21566D01*
X31110Y-21566D01*
X31161Y-21545D01*
X31200Y-21506D01*
X31208Y-21487D01*
X31216Y-21506D01*
X31255Y-21545D01*
X31262Y-21548D01*
X31262Y-21548D01*
G37*
G54D28*
X31262Y-21548D02*
X31212Y-21597D01*
X28228Y-21597D01*
X27085Y-20454D01*
X27027Y-20416D01*
X26960Y-20402D01*
X24161Y-20402D01*
X24161Y-19181D01*
X24161Y-18776D01*
X24161Y-18680D01*
X24125Y-18592D01*
X24057Y-18525D01*
X23969Y-18489D01*
X23876Y-18489D01*
X23816Y-18549D01*
X23816Y-18959D01*
X24101Y-18959D01*
X24161Y-18899D01*
X24161Y-18776D01*
X24161Y-19181D01*
X24161Y-19058D01*
X24101Y-18998D01*
X23816Y-18998D01*
X23816Y-19408D01*
X23876Y-19468D01*
X23969Y-19468D01*
X24057Y-19431D01*
X24125Y-19364D01*
X24161Y-19276D01*
X24161Y-19181D01*
X24161Y-20402D01*
X23830Y-20402D01*
X23762Y-20416D01*
X23704Y-20454D01*
X23469Y-20689D01*
X23469Y-20689D01*
X23376Y-20689D01*
X23316Y-20749D01*
X23316Y-21159D01*
X23324Y-21159D01*
X23324Y-21198D01*
X23316Y-21198D01*
X23316Y-21206D01*
X23277Y-21206D01*
X23277Y-21198D01*
X23269Y-21198D01*
X23269Y-21159D01*
X23277Y-21159D01*
X23277Y-20749D01*
X23217Y-20689D01*
X23124Y-20689D01*
X23036Y-20725D01*
X22969Y-20792D01*
X22967Y-20798D01*
X22949Y-20790D01*
X22894Y-20790D01*
X22644Y-20790D01*
X22594Y-20811D01*
X22555Y-20850D01*
X22547Y-20870D01*
X22539Y-20850D01*
X22500Y-20811D01*
X22468Y-20798D01*
X22468Y-20798D01*
X22460Y-20759D01*
X22460Y-20759D01*
X22422Y-20701D01*
X21932Y-20212D01*
X22159Y-20212D01*
X22227Y-20198D01*
X22227Y-20198D01*
X22285Y-20160D01*
X22922Y-19523D01*
X22960Y-19465D01*
X22974Y-19397D01*
X22974Y-19356D01*
X23000Y-19345D01*
X23038Y-19306D01*
X23047Y-19287D01*
X23055Y-19306D01*
X23094Y-19345D01*
X23144Y-19366D01*
X23199Y-19366D01*
X23449Y-19366D01*
X23467Y-19359D01*
X23469Y-19364D01*
X23536Y-19431D01*
X23624Y-19468D01*
X23717Y-19468D01*
X23777Y-19408D01*
X23777Y-18998D01*
X23769Y-18998D01*
X23769Y-18959D01*
X23777Y-18959D01*
X23777Y-18549D01*
X23721Y-18493D01*
X24098Y-18117D01*
X29345Y-18117D01*
X29299Y-18136D01*
X29221Y-18213D01*
X29179Y-18314D01*
X29179Y-18424D01*
X29221Y-18525D01*
X29281Y-18586D01*
X29281Y-18588D01*
X29219Y-18525D01*
X29131Y-18489D01*
X29038Y-18489D01*
X28978Y-18549D01*
X28978Y-18959D01*
X28986Y-18959D01*
X28986Y-18998D01*
X28978Y-18998D01*
X28978Y-19408D01*
X29038Y-19468D01*
X29131Y-19468D01*
X29219Y-19431D01*
X29286Y-19364D01*
X29288Y-19359D01*
X29306Y-19366D01*
X29360Y-19366D01*
X29395Y-19366D01*
X29324Y-19396D01*
X29246Y-19473D01*
X29204Y-19574D01*
X29204Y-19684D01*
X29246Y-19785D01*
X29292Y-19832D01*
X29292Y-20081D01*
X28938Y-20435D01*
X28938Y-19408D01*
X28938Y-18998D01*
X28938Y-18959D01*
X28938Y-18549D01*
X28879Y-18489D01*
X28786Y-18489D01*
X28698Y-18525D01*
X28630Y-18592D01*
X28594Y-18680D01*
X28594Y-18776D01*
X28594Y-18899D01*
X28654Y-18959D01*
X28938Y-18959D01*
X28938Y-18998D01*
X28654Y-18998D01*
X28594Y-19058D01*
X28594Y-19181D01*
X28594Y-19276D01*
X28630Y-19364D01*
X28698Y-19431D01*
X28786Y-19468D01*
X28879Y-19468D01*
X28938Y-19408D01*
X28938Y-20435D01*
X28833Y-20541D01*
X28794Y-20598D01*
X28781Y-20666D01*
X28781Y-20801D01*
X28755Y-20811D01*
X28716Y-20850D01*
X28695Y-20901D01*
X28695Y-20956D01*
X28695Y-21456D01*
X28716Y-21506D01*
X28755Y-21545D01*
X28806Y-21566D01*
X28860Y-21566D01*
X29110Y-21566D01*
X29161Y-21545D01*
X29200Y-21506D01*
X29208Y-21487D01*
X29216Y-21506D01*
X29255Y-21545D01*
X29306Y-21566D01*
X29360Y-21566D01*
X29610Y-21566D01*
X29661Y-21545D01*
X29700Y-21506D01*
X29708Y-21487D01*
X29716Y-21506D01*
X29755Y-21545D01*
X29806Y-21566D01*
X29860Y-21566D01*
X30110Y-21566D01*
X30161Y-21545D01*
X30200Y-21506D01*
X30208Y-21487D01*
X30216Y-21506D01*
X30255Y-21545D01*
X30306Y-21566D01*
X30360Y-21566D01*
X30610Y-21566D01*
X30661Y-21545D01*
X30700Y-21506D01*
X30708Y-21487D01*
X30716Y-21506D01*
X30755Y-21545D01*
X30806Y-21566D01*
X30860Y-21566D01*
X31110Y-21566D01*
X31161Y-21545D01*
X31200Y-21506D01*
X31208Y-21487D01*
X31216Y-21506D01*
X31255Y-21545D01*
X31262Y-21548D01*
G54D10*
G36*
X37777Y-36132D02*
X37464Y-36444D01*
X37464Y-36444D01*
X37431Y-36477D01*
X36518Y-36477D01*
X36616Y-36379D01*
X36688Y-36207D01*
X36688Y-36021D01*
X36617Y-35849D01*
X36485Y-35717D01*
X36313Y-35646D01*
X36127Y-35646D01*
X35955Y-35717D01*
X35824Y-35848D01*
X35787Y-35937D01*
X35172Y-35937D01*
X34495Y-35259D01*
X34437Y-35221D01*
X34370Y-35207D01*
X31694Y-35207D01*
X31694Y-30663D01*
X31694Y-30253D01*
X31410Y-30253D01*
X31350Y-30313D01*
X31350Y-30436D01*
X31350Y-30531D01*
X31386Y-30619D01*
X31454Y-30686D01*
X31542Y-30723D01*
X31635Y-30723D01*
X31694Y-30663D01*
X31694Y-35207D01*
X27433Y-35207D01*
X25439Y-33214D01*
X25439Y-31113D01*
X27231Y-29322D01*
X27231Y-29322D01*
X27231Y-29322D01*
X27269Y-29264D01*
X27283Y-29197D01*
X27283Y-29197D01*
X27283Y-28675D01*
X27302Y-28628D01*
X27302Y-28573D01*
X27302Y-28317D01*
X27281Y-28267D01*
X27261Y-28246D01*
X27281Y-28226D01*
X27302Y-28175D01*
X27302Y-28120D01*
X27302Y-27864D01*
X27281Y-27814D01*
X27243Y-27775D01*
X27192Y-27754D01*
X27137Y-27754D01*
X27019Y-27754D01*
X27007Y-27759D01*
X26995Y-27754D01*
X26940Y-27754D01*
X26822Y-27754D01*
X26810Y-27759D01*
X26798Y-27754D01*
X26743Y-27754D01*
X26625Y-27754D01*
X26613Y-27759D01*
X26601Y-27754D01*
X26546Y-27754D01*
X26428Y-27754D01*
X26378Y-27775D01*
X26339Y-27813D01*
X26327Y-27842D01*
X26214Y-27842D01*
X26153Y-27801D01*
X26062Y-27783D01*
X25519Y-27783D01*
X24033Y-26297D01*
X24033Y-21512D01*
X24038Y-21506D01*
X24060Y-21456D01*
X24060Y-21414D01*
X24375Y-21414D01*
X24383Y-21423D01*
X24383Y-23795D01*
X24401Y-23885D01*
X24452Y-23962D01*
X30153Y-29663D01*
X30153Y-29701D01*
X30201Y-29815D01*
X30288Y-29903D01*
X30402Y-29950D01*
X30526Y-29951D01*
X30640Y-29903D01*
X30728Y-29816D01*
X30775Y-29702D01*
X30776Y-29578D01*
X30728Y-29464D01*
X30641Y-29376D01*
X30527Y-29329D01*
X30488Y-29328D01*
X24856Y-23697D01*
X24856Y-21359D01*
X24900Y-21252D01*
X24901Y-21128D01*
X24853Y-21014D01*
X24766Y-20926D01*
X24652Y-20879D01*
X24528Y-20878D01*
X24414Y-20926D01*
X24397Y-20942D01*
X24060Y-20942D01*
X24060Y-20901D01*
X24039Y-20850D01*
X24000Y-20811D01*
X23949Y-20790D01*
X23894Y-20790D01*
X23869Y-20790D01*
X23903Y-20757D01*
X26886Y-20757D01*
X28029Y-21900D01*
X28087Y-21938D01*
X28155Y-21952D01*
X31212Y-21952D01*
X31247Y-21987D01*
X31247Y-25691D01*
X29964Y-26974D01*
X29926Y-27032D01*
X29912Y-27100D01*
X29912Y-28370D01*
X29926Y-28437D01*
X29964Y-28495D01*
X31264Y-29795D01*
X31322Y-29833D01*
X31388Y-29846D01*
X31386Y-29848D01*
X31350Y-29936D01*
X31350Y-30031D01*
X31350Y-30154D01*
X31410Y-30214D01*
X31694Y-30214D01*
X31694Y-30206D01*
X31734Y-30206D01*
X31734Y-30214D01*
X31742Y-30214D01*
X31742Y-30253D01*
X31734Y-30253D01*
X31734Y-30663D01*
X31794Y-30723D01*
X31886Y-30723D01*
X31974Y-30686D01*
X32042Y-30619D01*
X32044Y-30614D01*
X32062Y-30621D01*
X32116Y-30621D01*
X32366Y-30621D01*
X32417Y-30600D01*
X32456Y-30562D01*
X32464Y-30542D01*
X32472Y-30561D01*
X32511Y-30600D01*
X32562Y-30621D01*
X32616Y-30621D01*
X32866Y-30621D01*
X32917Y-30600D01*
X32956Y-30562D01*
X32964Y-30542D01*
X32972Y-30561D01*
X33011Y-30600D01*
X33038Y-30611D01*
X33050Y-30675D01*
X33089Y-30732D01*
X37343Y-34987D01*
X37343Y-35071D01*
X37271Y-35143D01*
X37229Y-35244D01*
X37229Y-35354D01*
X37271Y-35455D01*
X37348Y-35533D01*
X37449Y-35575D01*
X37559Y-35575D01*
X37660Y-35533D01*
X37665Y-35529D01*
X37665Y-35645D01*
X37606Y-35703D01*
X37564Y-35804D01*
X37564Y-35914D01*
X37606Y-36015D01*
X37683Y-36093D01*
X37777Y-36132D01*
X37777Y-36132D01*
G37*
G54D28*
X37777Y-36132D02*
X37464Y-36444D01*
X37464Y-36444D01*
X37431Y-36477D01*
X36518Y-36477D01*
X36616Y-36379D01*
X36688Y-36207D01*
X36688Y-36021D01*
X36617Y-35849D01*
X36485Y-35717D01*
X36313Y-35646D01*
X36127Y-35646D01*
X35955Y-35717D01*
X35824Y-35848D01*
X35787Y-35937D01*
X35172Y-35937D01*
X34495Y-35259D01*
X34437Y-35221D01*
X34370Y-35207D01*
X31694Y-35207D01*
X31694Y-30663D01*
X31694Y-30253D01*
X31410Y-30253D01*
X31350Y-30313D01*
X31350Y-30436D01*
X31350Y-30531D01*
X31386Y-30619D01*
X31454Y-30686D01*
X31542Y-30723D01*
X31635Y-30723D01*
X31694Y-30663D01*
X31694Y-35207D01*
X27433Y-35207D01*
X25439Y-33214D01*
X25439Y-31113D01*
X27231Y-29322D01*
X27231Y-29322D01*
X27231Y-29322D01*
X27269Y-29264D01*
X27283Y-29197D01*
X27283Y-29197D01*
X27283Y-28675D01*
X27302Y-28628D01*
X27302Y-28573D01*
X27302Y-28317D01*
X27281Y-28267D01*
X27261Y-28246D01*
X27281Y-28226D01*
X27302Y-28175D01*
X27302Y-28120D01*
X27302Y-27864D01*
X27281Y-27814D01*
X27243Y-27775D01*
X27192Y-27754D01*
X27137Y-27754D01*
X27019Y-27754D01*
X27007Y-27759D01*
X26995Y-27754D01*
X26940Y-27754D01*
X26822Y-27754D01*
X26810Y-27759D01*
X26798Y-27754D01*
X26743Y-27754D01*
X26625Y-27754D01*
X26613Y-27759D01*
X26601Y-27754D01*
X26546Y-27754D01*
X26428Y-27754D01*
X26378Y-27775D01*
X26339Y-27813D01*
X26327Y-27842D01*
X26214Y-27842D01*
X26153Y-27801D01*
X26062Y-27783D01*
X25519Y-27783D01*
X24033Y-26297D01*
X24033Y-21512D01*
X24038Y-21506D01*
X24060Y-21456D01*
X24060Y-21414D01*
X24375Y-21414D01*
X24383Y-21423D01*
X24383Y-23795D01*
X24401Y-23885D01*
X24452Y-23962D01*
X30153Y-29663D01*
X30153Y-29701D01*
X30201Y-29815D01*
X30288Y-29903D01*
X30402Y-29950D01*
X30526Y-29951D01*
X30640Y-29903D01*
X30728Y-29816D01*
X30775Y-29702D01*
X30776Y-29578D01*
X30728Y-29464D01*
X30641Y-29376D01*
X30527Y-29329D01*
X30488Y-29328D01*
X24856Y-23697D01*
X24856Y-21359D01*
X24900Y-21252D01*
X24901Y-21128D01*
X24853Y-21014D01*
X24766Y-20926D01*
X24652Y-20879D01*
X24528Y-20878D01*
X24414Y-20926D01*
X24397Y-20942D01*
X24060Y-20942D01*
X24060Y-20901D01*
X24039Y-20850D01*
X24000Y-20811D01*
X23949Y-20790D01*
X23894Y-20790D01*
X23869Y-20790D01*
X23903Y-20757D01*
X26886Y-20757D01*
X28029Y-21900D01*
X28087Y-21938D01*
X28155Y-21952D01*
X31212Y-21952D01*
X31247Y-21987D01*
X31247Y-25691D01*
X29964Y-26974D01*
X29926Y-27032D01*
X29912Y-27100D01*
X29912Y-28370D01*
X29926Y-28437D01*
X29964Y-28495D01*
X31264Y-29795D01*
X31322Y-29833D01*
X31388Y-29846D01*
X31386Y-29848D01*
X31350Y-29936D01*
X31350Y-30031D01*
X31350Y-30154D01*
X31410Y-30214D01*
X31694Y-30214D01*
X31694Y-30206D01*
X31734Y-30206D01*
X31734Y-30214D01*
X31742Y-30214D01*
X31742Y-30253D01*
X31734Y-30253D01*
X31734Y-30663D01*
X31794Y-30723D01*
X31886Y-30723D01*
X31974Y-30686D01*
X32042Y-30619D01*
X32044Y-30614D01*
X32062Y-30621D01*
X32116Y-30621D01*
X32366Y-30621D01*
X32417Y-30600D01*
X32456Y-30562D01*
X32464Y-30542D01*
X32472Y-30561D01*
X32511Y-30600D01*
X32562Y-30621D01*
X32616Y-30621D01*
X32866Y-30621D01*
X32917Y-30600D01*
X32956Y-30562D01*
X32964Y-30542D01*
X32972Y-30561D01*
X33011Y-30600D01*
X33038Y-30611D01*
X33050Y-30675D01*
X33089Y-30732D01*
X37343Y-34987D01*
X37343Y-35071D01*
X37271Y-35143D01*
X37229Y-35244D01*
X37229Y-35354D01*
X37271Y-35455D01*
X37348Y-35533D01*
X37449Y-35575D01*
X37559Y-35575D01*
X37660Y-35533D01*
X37665Y-35529D01*
X37665Y-35645D01*
X37606Y-35703D01*
X37564Y-35804D01*
X37564Y-35914D01*
X37606Y-36015D01*
X37683Y-36093D01*
X37777Y-36132D01*
G54D10*
G36*
X39345Y-38199D02*
X38870Y-38674D01*
X38790Y-38674D01*
X38689Y-38716D01*
X38611Y-38793D01*
X38569Y-38894D01*
X38569Y-39004D01*
X38596Y-39070D01*
X29142Y-39070D01*
X29074Y-39084D01*
X29016Y-39122D01*
X28935Y-39204D01*
X28855Y-39204D01*
X28754Y-39246D01*
X28676Y-39323D01*
X28634Y-39424D01*
X28634Y-39425D01*
X28488Y-39279D01*
X28431Y-39241D01*
X28363Y-39228D01*
X26116Y-39228D01*
X26048Y-39241D01*
X25991Y-39279D01*
X24852Y-40418D01*
X23696Y-40418D01*
X23696Y-37021D01*
X23625Y-36849D01*
X23493Y-36717D01*
X23321Y-36646D01*
X23135Y-36646D01*
X22963Y-36717D01*
X22832Y-36848D01*
X22760Y-37020D01*
X22760Y-37206D01*
X22831Y-37378D01*
X22963Y-37510D01*
X23134Y-37581D01*
X23320Y-37582D01*
X23492Y-37510D01*
X23624Y-37379D01*
X23696Y-37207D01*
X23696Y-37021D01*
X23696Y-40418D01*
X23658Y-40418D01*
X23606Y-40366D01*
X23505Y-40324D01*
X23395Y-40324D01*
X23294Y-40366D01*
X23216Y-40443D01*
X23174Y-40544D01*
X23174Y-40573D01*
X22208Y-39607D01*
X22150Y-39568D01*
X22083Y-39555D01*
X18618Y-39555D01*
X18457Y-39394D01*
X18400Y-39356D01*
X18332Y-39342D01*
X18222Y-39342D01*
X17003Y-39342D01*
X17003Y-37021D01*
X16932Y-36849D01*
X16800Y-36717D01*
X16628Y-36646D01*
X16442Y-36646D01*
X16270Y-36717D01*
X16139Y-36848D01*
X16067Y-37020D01*
X16067Y-37206D01*
X16138Y-37378D01*
X16270Y-37510D01*
X16441Y-37581D01*
X16628Y-37582D01*
X16800Y-37510D01*
X16931Y-37379D01*
X17003Y-37207D01*
X17003Y-37021D01*
X17003Y-39342D01*
X16655Y-39342D01*
X16587Y-39356D01*
X16529Y-39394D01*
X16415Y-39509D01*
X16335Y-39509D01*
X16234Y-39551D01*
X16156Y-39628D01*
X16114Y-39729D01*
X16114Y-39839D01*
X16127Y-39870D01*
X13427Y-39870D01*
X13440Y-39840D01*
X13440Y-39730D01*
X13398Y-39629D01*
X13321Y-39551D01*
X13317Y-39549D01*
X13317Y-34793D01*
X18095Y-30015D01*
X18095Y-30015D01*
X18133Y-29957D01*
X18147Y-29890D01*
X18147Y-29890D01*
X18147Y-22533D01*
X19838Y-20842D01*
X20063Y-20842D01*
X20055Y-20850D01*
X20034Y-20901D01*
X20034Y-20956D01*
X20034Y-21456D01*
X20055Y-21506D01*
X20094Y-21545D01*
X20120Y-21556D01*
X20120Y-21620D01*
X20071Y-21668D01*
X20029Y-21769D01*
X20029Y-21879D01*
X20071Y-21980D01*
X20148Y-22058D01*
X20249Y-22100D01*
X20359Y-22100D01*
X20460Y-22058D01*
X20538Y-21981D01*
X20580Y-21880D01*
X20580Y-21770D01*
X20538Y-21669D01*
X20474Y-21604D01*
X20474Y-21556D01*
X20500Y-21545D01*
X20538Y-21506D01*
X20547Y-21487D01*
X20555Y-21506D01*
X20594Y-21545D01*
X20644Y-21566D01*
X20699Y-21566D01*
X20949Y-21566D01*
X21000Y-21545D01*
X21038Y-21506D01*
X21047Y-21487D01*
X21055Y-21506D01*
X21094Y-21545D01*
X21144Y-21566D01*
X21199Y-21566D01*
X21449Y-21566D01*
X21500Y-21545D01*
X21538Y-21506D01*
X21547Y-21487D01*
X21555Y-21506D01*
X21594Y-21545D01*
X21644Y-21566D01*
X21699Y-21566D01*
X21949Y-21566D01*
X22000Y-21545D01*
X22038Y-21506D01*
X22047Y-21487D01*
X22055Y-21506D01*
X22094Y-21545D01*
X22144Y-21566D01*
X22199Y-21566D01*
X22449Y-21566D01*
X22500Y-21545D01*
X22538Y-21506D01*
X22547Y-21487D01*
X22555Y-21506D01*
X22594Y-21545D01*
X22620Y-21556D01*
X22620Y-21557D01*
X22633Y-21625D01*
X22671Y-21682D01*
X22887Y-21897D01*
X22889Y-21900D01*
X22947Y-21938D01*
X23015Y-21952D01*
X23027Y-21949D01*
X23287Y-21949D01*
X23355Y-21936D01*
X23355Y-21936D01*
X23412Y-21897D01*
X23561Y-21749D01*
X23561Y-26395D01*
X23579Y-26486D01*
X23630Y-26562D01*
X25254Y-28187D01*
X25331Y-28238D01*
X25331Y-28238D01*
X25421Y-28256D01*
X26062Y-28256D01*
X26153Y-28238D01*
X26214Y-28197D01*
X26327Y-28197D01*
X26339Y-28225D01*
X26359Y-28246D01*
X26339Y-28266D01*
X26318Y-28317D01*
X26318Y-28372D01*
X26318Y-28628D01*
X26337Y-28675D01*
X26337Y-29046D01*
X20976Y-34407D01*
X18080Y-34407D01*
X18012Y-34421D01*
X17954Y-34459D01*
X17954Y-34459D01*
X17954Y-34459D01*
X16727Y-35687D01*
X16628Y-35646D01*
X16442Y-35646D01*
X16270Y-35717D01*
X16139Y-35848D01*
X16067Y-36020D01*
X16067Y-36206D01*
X16138Y-36378D01*
X16270Y-36510D01*
X16441Y-36581D01*
X16628Y-36582D01*
X16800Y-36510D01*
X16931Y-36379D01*
X17003Y-36207D01*
X17003Y-36021D01*
X16971Y-35944D01*
X18153Y-34762D01*
X21050Y-34762D01*
X21117Y-34748D01*
X21117Y-34748D01*
X21175Y-34710D01*
X23051Y-32834D01*
X23051Y-35681D01*
X22963Y-35717D01*
X22832Y-35848D01*
X22760Y-36020D01*
X22760Y-36206D01*
X22831Y-36378D01*
X22963Y-36510D01*
X23134Y-36581D01*
X23320Y-36582D01*
X23492Y-36510D01*
X23624Y-36379D01*
X23696Y-36207D01*
X23696Y-36021D01*
X23625Y-35849D01*
X23493Y-35717D01*
X23405Y-35681D01*
X23405Y-32702D01*
X24928Y-31180D01*
X24928Y-34500D01*
X24941Y-34568D01*
X24979Y-34625D01*
X26593Y-36239D01*
X26593Y-36239D01*
X26651Y-36277D01*
X26719Y-36291D01*
X26719Y-36291D01*
X29488Y-36291D01*
X29524Y-36378D01*
X29655Y-36510D01*
X29827Y-36581D01*
X30013Y-36582D01*
X30185Y-36510D01*
X30317Y-36379D01*
X30388Y-36207D01*
X30389Y-36021D01*
X30318Y-35849D01*
X30186Y-35717D01*
X30014Y-35646D01*
X29828Y-35646D01*
X29656Y-35717D01*
X29524Y-35848D01*
X29488Y-35937D01*
X26792Y-35937D01*
X25282Y-34426D01*
X25282Y-33557D01*
X27234Y-35510D01*
X27234Y-35510D01*
X27292Y-35548D01*
X27359Y-35562D01*
X27360Y-35562D01*
X34296Y-35562D01*
X34973Y-36239D01*
X34973Y-36239D01*
X35031Y-36277D01*
X35099Y-36291D01*
X35099Y-36291D01*
X35787Y-36291D01*
X35823Y-36378D01*
X35950Y-36505D01*
X35914Y-36529D01*
X35507Y-36937D01*
X34600Y-36937D01*
X30354Y-36937D01*
X30318Y-36849D01*
X30186Y-36717D01*
X30014Y-36646D01*
X29828Y-36646D01*
X29656Y-36717D01*
X29524Y-36848D01*
X29453Y-37020D01*
X29453Y-37206D01*
X29524Y-37378D01*
X29655Y-37510D01*
X29827Y-37581D01*
X30013Y-37582D01*
X30185Y-37510D01*
X30317Y-37379D01*
X30354Y-37291D01*
X34600Y-37291D01*
X35580Y-37291D01*
X35648Y-37277D01*
X35648Y-37277D01*
X35706Y-37239D01*
X35752Y-37192D01*
X35752Y-37206D01*
X35823Y-37378D01*
X35955Y-37510D01*
X36127Y-37581D01*
X36313Y-37582D01*
X36485Y-37510D01*
X36616Y-37379D01*
X36653Y-37291D01*
X37795Y-37291D01*
X37863Y-37277D01*
X37863Y-37277D01*
X37921Y-37239D01*
X38405Y-36755D01*
X38405Y-36755D01*
X38405Y-36755D01*
X38443Y-36697D01*
X38457Y-36630D01*
X38457Y-36630D01*
X38457Y-35005D01*
X38457Y-35004D01*
X38443Y-34937D01*
X38405Y-34879D01*
X38405Y-34879D01*
X35578Y-32053D01*
X35578Y-30436D01*
X35578Y-30031D01*
X35578Y-29936D01*
X35542Y-29848D01*
X35474Y-29780D01*
X35386Y-29744D01*
X35294Y-29744D01*
X35234Y-29804D01*
X35234Y-30214D01*
X35519Y-30214D01*
X35578Y-30154D01*
X35578Y-30031D01*
X35578Y-30436D01*
X35578Y-30313D01*
X35519Y-30253D01*
X35234Y-30253D01*
X35234Y-30663D01*
X35294Y-30723D01*
X35386Y-30723D01*
X35474Y-30686D01*
X35542Y-30619D01*
X35578Y-30531D01*
X35578Y-30436D01*
X35578Y-32053D01*
X34891Y-31366D01*
X34891Y-30624D01*
X34954Y-30686D01*
X35042Y-30723D01*
X35135Y-30723D01*
X35194Y-30663D01*
X35194Y-30253D01*
X35187Y-30253D01*
X35187Y-30214D01*
X35194Y-30214D01*
X35194Y-29804D01*
X35135Y-29744D01*
X35042Y-29744D01*
X34954Y-29780D01*
X34886Y-29848D01*
X34884Y-29853D01*
X34867Y-29846D01*
X34812Y-29846D01*
X34562Y-29846D01*
X34511Y-29866D01*
X34472Y-29905D01*
X34464Y-29925D01*
X34456Y-29905D01*
X34417Y-29867D01*
X34367Y-29846D01*
X34312Y-29846D01*
X34062Y-29846D01*
X34011Y-29866D01*
X33972Y-29905D01*
X33964Y-29925D01*
X33956Y-29905D01*
X33917Y-29867D01*
X33867Y-29846D01*
X33812Y-29846D01*
X33562Y-29846D01*
X33511Y-29866D01*
X33472Y-29905D01*
X33464Y-29925D01*
X33456Y-29905D01*
X33417Y-29867D01*
X33367Y-29846D01*
X33312Y-29846D01*
X33062Y-29846D01*
X33011Y-29866D01*
X32972Y-29905D01*
X32964Y-29925D01*
X32956Y-29905D01*
X32917Y-29867D01*
X32891Y-29856D01*
X32891Y-29829D01*
X32878Y-29761D01*
X32839Y-29704D01*
X32480Y-29344D01*
X32422Y-29306D01*
X32355Y-29292D01*
X31603Y-29292D01*
X30512Y-28201D01*
X30512Y-27268D01*
X31855Y-25925D01*
X31855Y-25925D01*
X31855Y-25925D01*
X31893Y-25867D01*
X31907Y-25800D01*
X31907Y-25800D01*
X31907Y-22407D01*
X31953Y-22361D01*
X31995Y-22260D01*
X31995Y-22150D01*
X31953Y-22049D01*
X31876Y-21971D01*
X31775Y-21929D01*
X31665Y-21929D01*
X31656Y-21932D01*
X31658Y-21931D01*
X31700Y-21830D01*
X31700Y-21720D01*
X31658Y-21619D01*
X31635Y-21596D01*
X31635Y-21569D01*
X31698Y-21631D01*
X31786Y-21668D01*
X31879Y-21668D01*
X31938Y-21608D01*
X31938Y-21198D01*
X31931Y-21198D01*
X31931Y-21159D01*
X31938Y-21159D01*
X31938Y-21151D01*
X31978Y-21151D01*
X31978Y-21159D01*
X31986Y-21159D01*
X31986Y-21198D01*
X31978Y-21198D01*
X31978Y-21608D01*
X32038Y-21668D01*
X32131Y-21668D01*
X32219Y-21631D01*
X32222Y-21628D01*
X32222Y-21671D01*
X32240Y-21761D01*
X32291Y-21838D01*
X32766Y-22312D01*
X32842Y-22363D01*
X32842Y-22363D01*
X32933Y-22381D01*
X33248Y-22381D01*
X35673Y-24807D01*
X35673Y-28072D01*
X35477Y-28268D01*
X35477Y-28256D01*
X35477Y-27756D01*
X35456Y-27705D01*
X35417Y-27667D01*
X35367Y-27646D01*
X35312Y-27646D01*
X35062Y-27646D01*
X35011Y-27666D01*
X34972Y-27705D01*
X34964Y-27725D01*
X34956Y-27705D01*
X34917Y-27667D01*
X34867Y-27646D01*
X34812Y-27646D01*
X34562Y-27646D01*
X34511Y-27666D01*
X34472Y-27705D01*
X34464Y-27725D01*
X34456Y-27705D01*
X34417Y-27667D01*
X34367Y-27646D01*
X34312Y-27646D01*
X34062Y-27646D01*
X34011Y-27666D01*
X33972Y-27705D01*
X33964Y-27725D01*
X33956Y-27705D01*
X33917Y-27667D01*
X33867Y-27646D01*
X33812Y-27646D01*
X33562Y-27646D01*
X33544Y-27653D01*
X33542Y-27648D01*
X33474Y-27580D01*
X33386Y-27544D01*
X33294Y-27544D01*
X33234Y-27604D01*
X33234Y-28014D01*
X33242Y-28014D01*
X33242Y-28053D01*
X33234Y-28053D01*
X33234Y-28061D01*
X33194Y-28061D01*
X33194Y-28053D01*
X33194Y-28014D01*
X33194Y-27604D01*
X33135Y-27544D01*
X33042Y-27544D01*
X32964Y-27576D01*
X32886Y-27544D01*
X32794Y-27544D01*
X32734Y-27604D01*
X32734Y-28014D01*
X32910Y-28014D01*
X33019Y-28014D01*
X33194Y-28014D01*
X33194Y-28053D01*
X33019Y-28053D01*
X32910Y-28053D01*
X32734Y-28053D01*
X32734Y-28061D01*
X32694Y-28061D01*
X32694Y-28053D01*
X32694Y-28014D01*
X32694Y-27604D01*
X32635Y-27544D01*
X32542Y-27544D01*
X32464Y-27576D01*
X32386Y-27544D01*
X32294Y-27544D01*
X32234Y-27604D01*
X32234Y-28014D01*
X32410Y-28014D01*
X32519Y-28014D01*
X32694Y-28014D01*
X32694Y-28053D01*
X32519Y-28053D01*
X32410Y-28053D01*
X32234Y-28053D01*
X32234Y-28061D01*
X32194Y-28061D01*
X32194Y-28053D01*
X32187Y-28053D01*
X32187Y-28014D01*
X32194Y-28014D01*
X32194Y-27604D01*
X32135Y-27544D01*
X32042Y-27544D01*
X31954Y-27580D01*
X31886Y-27648D01*
X31884Y-27653D01*
X31867Y-27646D01*
X31812Y-27646D01*
X31562Y-27646D01*
X31511Y-27666D01*
X31472Y-27705D01*
X31451Y-27756D01*
X31451Y-27811D01*
X31451Y-28311D01*
X31472Y-28361D01*
X31507Y-28396D01*
X31547Y-28456D01*
X31803Y-28713D01*
X31803Y-28746D01*
X31851Y-28860D01*
X31938Y-28948D01*
X32052Y-28995D01*
X32176Y-28996D01*
X32290Y-28948D01*
X32318Y-28921D01*
X35395Y-28921D01*
X35485Y-28903D01*
X35562Y-28852D01*
X36077Y-28337D01*
X36077Y-28337D01*
X36111Y-28285D01*
X36128Y-28260D01*
X36128Y-28260D01*
X36146Y-28170D01*
X36146Y-28170D01*
X36146Y-24704D01*
X36146Y-24700D01*
X36128Y-24609D01*
X36077Y-24532D01*
X36049Y-24514D01*
X33513Y-21978D01*
X33436Y-21927D01*
X33346Y-21909D01*
X33030Y-21909D01*
X32694Y-21573D01*
X32694Y-21512D01*
X32700Y-21506D01*
X32721Y-21456D01*
X32721Y-21401D01*
X32721Y-21022D01*
X36322Y-24623D01*
X36322Y-32145D01*
X36336Y-32212D01*
X36374Y-32270D01*
X39014Y-34910D01*
X39345Y-35240D01*
X39345Y-38199D01*
X39345Y-38199D01*
G37*
G54D28*
X39345Y-38199D02*
X38870Y-38674D01*
X38790Y-38674D01*
X38689Y-38716D01*
X38611Y-38793D01*
X38569Y-38894D01*
X38569Y-39004D01*
X38596Y-39070D01*
X29142Y-39070D01*
X29074Y-39084D01*
X29016Y-39122D01*
X28935Y-39204D01*
X28855Y-39204D01*
X28754Y-39246D01*
X28676Y-39323D01*
X28634Y-39424D01*
X28634Y-39425D01*
X28488Y-39279D01*
X28431Y-39241D01*
X28363Y-39228D01*
X26116Y-39228D01*
X26048Y-39241D01*
X25991Y-39279D01*
X24852Y-40418D01*
X23696Y-40418D01*
X23696Y-37021D01*
X23625Y-36849D01*
X23493Y-36717D01*
X23321Y-36646D01*
X23135Y-36646D01*
X22963Y-36717D01*
X22832Y-36848D01*
X22760Y-37020D01*
X22760Y-37206D01*
X22831Y-37378D01*
X22963Y-37510D01*
X23134Y-37581D01*
X23320Y-37582D01*
X23492Y-37510D01*
X23624Y-37379D01*
X23696Y-37207D01*
X23696Y-37021D01*
X23696Y-40418D01*
X23658Y-40418D01*
X23606Y-40366D01*
X23505Y-40324D01*
X23395Y-40324D01*
X23294Y-40366D01*
X23216Y-40443D01*
X23174Y-40544D01*
X23174Y-40573D01*
X22208Y-39607D01*
X22150Y-39568D01*
X22083Y-39555D01*
X18618Y-39555D01*
X18457Y-39394D01*
X18400Y-39356D01*
X18332Y-39342D01*
X18222Y-39342D01*
X17003Y-39342D01*
X17003Y-37021D01*
X16932Y-36849D01*
X16800Y-36717D01*
X16628Y-36646D01*
X16442Y-36646D01*
X16270Y-36717D01*
X16139Y-36848D01*
X16067Y-37020D01*
X16067Y-37206D01*
X16138Y-37378D01*
X16270Y-37510D01*
X16441Y-37581D01*
X16628Y-37582D01*
X16800Y-37510D01*
X16931Y-37379D01*
X17003Y-37207D01*
X17003Y-37021D01*
X17003Y-39342D01*
X16655Y-39342D01*
X16587Y-39356D01*
X16529Y-39394D01*
X16415Y-39509D01*
X16335Y-39509D01*
X16234Y-39551D01*
X16156Y-39628D01*
X16114Y-39729D01*
X16114Y-39839D01*
X16127Y-39870D01*
X13427Y-39870D01*
X13440Y-39840D01*
X13440Y-39730D01*
X13398Y-39629D01*
X13321Y-39551D01*
X13317Y-39549D01*
X13317Y-34793D01*
X18095Y-30015D01*
X18095Y-30015D01*
X18133Y-29957D01*
X18147Y-29890D01*
X18147Y-29890D01*
X18147Y-22533D01*
X19838Y-20842D01*
X20063Y-20842D01*
X20055Y-20850D01*
X20034Y-20901D01*
X20034Y-20956D01*
X20034Y-21456D01*
X20055Y-21506D01*
X20094Y-21545D01*
X20120Y-21556D01*
X20120Y-21620D01*
X20071Y-21668D01*
X20029Y-21769D01*
X20029Y-21879D01*
X20071Y-21980D01*
X20148Y-22058D01*
X20249Y-22100D01*
X20359Y-22100D01*
X20460Y-22058D01*
X20538Y-21981D01*
X20580Y-21880D01*
X20580Y-21770D01*
X20538Y-21669D01*
X20474Y-21604D01*
X20474Y-21556D01*
X20500Y-21545D01*
X20538Y-21506D01*
X20547Y-21487D01*
X20555Y-21506D01*
X20594Y-21545D01*
X20644Y-21566D01*
X20699Y-21566D01*
X20949Y-21566D01*
X21000Y-21545D01*
X21038Y-21506D01*
X21047Y-21487D01*
X21055Y-21506D01*
X21094Y-21545D01*
X21144Y-21566D01*
X21199Y-21566D01*
X21449Y-21566D01*
X21500Y-21545D01*
X21538Y-21506D01*
X21547Y-21487D01*
X21555Y-21506D01*
X21594Y-21545D01*
X21644Y-21566D01*
X21699Y-21566D01*
X21949Y-21566D01*
X22000Y-21545D01*
X22038Y-21506D01*
X22047Y-21487D01*
X22055Y-21506D01*
X22094Y-21545D01*
X22144Y-21566D01*
X22199Y-21566D01*
X22449Y-21566D01*
X22500Y-21545D01*
X22538Y-21506D01*
X22547Y-21487D01*
X22555Y-21506D01*
X22594Y-21545D01*
X22620Y-21556D01*
X22620Y-21557D01*
X22633Y-21625D01*
X22671Y-21682D01*
X22887Y-21897D01*
X22889Y-21900D01*
X22947Y-21938D01*
X23015Y-21952D01*
X23027Y-21949D01*
X23287Y-21949D01*
X23355Y-21936D01*
X23355Y-21936D01*
X23412Y-21897D01*
X23561Y-21749D01*
X23561Y-26395D01*
X23579Y-26486D01*
X23630Y-26562D01*
X25254Y-28187D01*
X25331Y-28238D01*
X25331Y-28238D01*
X25421Y-28256D01*
X26062Y-28256D01*
X26153Y-28238D01*
X26214Y-28197D01*
X26327Y-28197D01*
X26339Y-28225D01*
X26359Y-28246D01*
X26339Y-28266D01*
X26318Y-28317D01*
X26318Y-28372D01*
X26318Y-28628D01*
X26337Y-28675D01*
X26337Y-29046D01*
X20976Y-34407D01*
X18080Y-34407D01*
X18012Y-34421D01*
X17954Y-34459D01*
X17954Y-34459D01*
X17954Y-34459D01*
X16727Y-35687D01*
X16628Y-35646D01*
X16442Y-35646D01*
X16270Y-35717D01*
X16139Y-35848D01*
X16067Y-36020D01*
X16067Y-36206D01*
X16138Y-36378D01*
X16270Y-36510D01*
X16441Y-36581D01*
X16628Y-36582D01*
X16800Y-36510D01*
X16931Y-36379D01*
X17003Y-36207D01*
X17003Y-36021D01*
X16971Y-35944D01*
X18153Y-34762D01*
X21050Y-34762D01*
X21117Y-34748D01*
X21117Y-34748D01*
X21175Y-34710D01*
X23051Y-32834D01*
X23051Y-35681D01*
X22963Y-35717D01*
X22832Y-35848D01*
X22760Y-36020D01*
X22760Y-36206D01*
X22831Y-36378D01*
X22963Y-36510D01*
X23134Y-36581D01*
X23320Y-36582D01*
X23492Y-36510D01*
X23624Y-36379D01*
X23696Y-36207D01*
X23696Y-36021D01*
X23625Y-35849D01*
X23493Y-35717D01*
X23405Y-35681D01*
X23405Y-32702D01*
X24928Y-31180D01*
X24928Y-34500D01*
X24941Y-34568D01*
X24979Y-34625D01*
X26593Y-36239D01*
X26593Y-36239D01*
X26651Y-36277D01*
X26719Y-36291D01*
X26719Y-36291D01*
X29488Y-36291D01*
X29524Y-36378D01*
X29655Y-36510D01*
X29827Y-36581D01*
X30013Y-36582D01*
X30185Y-36510D01*
X30317Y-36379D01*
X30388Y-36207D01*
X30389Y-36021D01*
X30318Y-35849D01*
X30186Y-35717D01*
X30014Y-35646D01*
X29828Y-35646D01*
X29656Y-35717D01*
X29524Y-35848D01*
X29488Y-35937D01*
X26792Y-35937D01*
X25282Y-34426D01*
X25282Y-33557D01*
X27234Y-35510D01*
X27234Y-35510D01*
X27292Y-35548D01*
X27359Y-35562D01*
X27360Y-35562D01*
X34296Y-35562D01*
X34973Y-36239D01*
X34973Y-36239D01*
X35031Y-36277D01*
X35099Y-36291D01*
X35099Y-36291D01*
X35787Y-36291D01*
X35823Y-36378D01*
X35950Y-36505D01*
X35914Y-36529D01*
X35507Y-36937D01*
X34600Y-36937D01*
X30354Y-36937D01*
X30318Y-36849D01*
X30186Y-36717D01*
X30014Y-36646D01*
X29828Y-36646D01*
X29656Y-36717D01*
X29524Y-36848D01*
X29453Y-37020D01*
X29453Y-37206D01*
X29524Y-37378D01*
X29655Y-37510D01*
X29827Y-37581D01*
X30013Y-37582D01*
X30185Y-37510D01*
X30317Y-37379D01*
X30354Y-37291D01*
X34600Y-37291D01*
X35580Y-37291D01*
X35648Y-37277D01*
X35648Y-37277D01*
X35706Y-37239D01*
X35752Y-37192D01*
X35752Y-37206D01*
X35823Y-37378D01*
X35955Y-37510D01*
X36127Y-37581D01*
X36313Y-37582D01*
X36485Y-37510D01*
X36616Y-37379D01*
X36653Y-37291D01*
X37795Y-37291D01*
X37863Y-37277D01*
X37863Y-37277D01*
X37921Y-37239D01*
X38405Y-36755D01*
X38405Y-36755D01*
X38405Y-36755D01*
X38443Y-36697D01*
X38457Y-36630D01*
X38457Y-36630D01*
X38457Y-35005D01*
X38457Y-35004D01*
X38443Y-34937D01*
X38405Y-34879D01*
X38405Y-34879D01*
X35578Y-32053D01*
X35578Y-30436D01*
X35578Y-30031D01*
X35578Y-29936D01*
X35542Y-29848D01*
X35474Y-29780D01*
X35386Y-29744D01*
X35294Y-29744D01*
X35234Y-29804D01*
X35234Y-30214D01*
X35519Y-30214D01*
X35578Y-30154D01*
X35578Y-30031D01*
X35578Y-30436D01*
X35578Y-30313D01*
X35519Y-30253D01*
X35234Y-30253D01*
X35234Y-30663D01*
X35294Y-30723D01*
X35386Y-30723D01*
X35474Y-30686D01*
X35542Y-30619D01*
X35578Y-30531D01*
X35578Y-30436D01*
X35578Y-32053D01*
X34891Y-31366D01*
X34891Y-30624D01*
X34954Y-30686D01*
X35042Y-30723D01*
X35135Y-30723D01*
X35194Y-30663D01*
X35194Y-30253D01*
X35187Y-30253D01*
X35187Y-30214D01*
X35194Y-30214D01*
X35194Y-29804D01*
X35135Y-29744D01*
X35042Y-29744D01*
X34954Y-29780D01*
X34886Y-29848D01*
X34884Y-29853D01*
X34867Y-29846D01*
X34812Y-29846D01*
X34562Y-29846D01*
X34511Y-29866D01*
X34472Y-29905D01*
X34464Y-29925D01*
X34456Y-29905D01*
X34417Y-29867D01*
X34367Y-29846D01*
X34312Y-29846D01*
X34062Y-29846D01*
X34011Y-29866D01*
X33972Y-29905D01*
X33964Y-29925D01*
X33956Y-29905D01*
X33917Y-29867D01*
X33867Y-29846D01*
X33812Y-29846D01*
X33562Y-29846D01*
X33511Y-29866D01*
X33472Y-29905D01*
X33464Y-29925D01*
X33456Y-29905D01*
X33417Y-29867D01*
X33367Y-29846D01*
X33312Y-29846D01*
X33062Y-29846D01*
X33011Y-29866D01*
X32972Y-29905D01*
X32964Y-29925D01*
X32956Y-29905D01*
X32917Y-29867D01*
X32891Y-29856D01*
X32891Y-29829D01*
X32878Y-29761D01*
X32839Y-29704D01*
X32480Y-29344D01*
X32422Y-29306D01*
X32355Y-29292D01*
X31603Y-29292D01*
X30512Y-28201D01*
X30512Y-27268D01*
X31855Y-25925D01*
X31855Y-25925D01*
X31855Y-25925D01*
X31893Y-25867D01*
X31907Y-25800D01*
X31907Y-25800D01*
X31907Y-22407D01*
X31953Y-22361D01*
X31995Y-22260D01*
X31995Y-22150D01*
X31953Y-22049D01*
X31876Y-21971D01*
X31775Y-21929D01*
X31665Y-21929D01*
X31656Y-21932D01*
X31658Y-21931D01*
X31700Y-21830D01*
X31700Y-21720D01*
X31658Y-21619D01*
X31635Y-21596D01*
X31635Y-21569D01*
X31698Y-21631D01*
X31786Y-21668D01*
X31879Y-21668D01*
X31938Y-21608D01*
X31938Y-21198D01*
X31931Y-21198D01*
X31931Y-21159D01*
X31938Y-21159D01*
X31938Y-21151D01*
X31978Y-21151D01*
X31978Y-21159D01*
X31986Y-21159D01*
X31986Y-21198D01*
X31978Y-21198D01*
X31978Y-21608D01*
X32038Y-21668D01*
X32131Y-21668D01*
X32219Y-21631D01*
X32222Y-21628D01*
X32222Y-21671D01*
X32240Y-21761D01*
X32291Y-21838D01*
X32766Y-22312D01*
X32842Y-22363D01*
X32842Y-22363D01*
X32933Y-22381D01*
X33248Y-22381D01*
X35673Y-24807D01*
X35673Y-28072D01*
X35477Y-28268D01*
X35477Y-28256D01*
X35477Y-27756D01*
X35456Y-27705D01*
X35417Y-27667D01*
X35367Y-27646D01*
X35312Y-27646D01*
X35062Y-27646D01*
X35011Y-27666D01*
X34972Y-27705D01*
X34964Y-27725D01*
X34956Y-27705D01*
X34917Y-27667D01*
X34867Y-27646D01*
X34812Y-27646D01*
X34562Y-27646D01*
X34511Y-27666D01*
X34472Y-27705D01*
X34464Y-27725D01*
X34456Y-27705D01*
X34417Y-27667D01*
X34367Y-27646D01*
X34312Y-27646D01*
X34062Y-27646D01*
X34011Y-27666D01*
X33972Y-27705D01*
X33964Y-27725D01*
X33956Y-27705D01*
X33917Y-27667D01*
X33867Y-27646D01*
X33812Y-27646D01*
X33562Y-27646D01*
X33544Y-27653D01*
X33542Y-27648D01*
X33474Y-27580D01*
X33386Y-27544D01*
X33294Y-27544D01*
X33234Y-27604D01*
X33234Y-28014D01*
X33242Y-28014D01*
X33242Y-28053D01*
X33234Y-28053D01*
X33234Y-28061D01*
X33194Y-28061D01*
X33194Y-28053D01*
X33194Y-28014D01*
X33194Y-27604D01*
X33135Y-27544D01*
X33042Y-27544D01*
X32964Y-27576D01*
X32886Y-27544D01*
X32794Y-27544D01*
X32734Y-27604D01*
X32734Y-28014D01*
X32910Y-28014D01*
X33019Y-28014D01*
X33194Y-28014D01*
X33194Y-28053D01*
X33019Y-28053D01*
X32910Y-28053D01*
X32734Y-28053D01*
X32734Y-28061D01*
X32694Y-28061D01*
X32694Y-28053D01*
X32694Y-28014D01*
X32694Y-27604D01*
X32635Y-27544D01*
X32542Y-27544D01*
X32464Y-27576D01*
X32386Y-27544D01*
X32294Y-27544D01*
X32234Y-27604D01*
X32234Y-28014D01*
X32410Y-28014D01*
X32519Y-28014D01*
X32694Y-28014D01*
X32694Y-28053D01*
X32519Y-28053D01*
X32410Y-28053D01*
X32234Y-28053D01*
X32234Y-28061D01*
X32194Y-28061D01*
X32194Y-28053D01*
X32187Y-28053D01*
X32187Y-28014D01*
X32194Y-28014D01*
X32194Y-27604D01*
X32135Y-27544D01*
X32042Y-27544D01*
X31954Y-27580D01*
X31886Y-27648D01*
X31884Y-27653D01*
X31867Y-27646D01*
X31812Y-27646D01*
X31562Y-27646D01*
X31511Y-27666D01*
X31472Y-27705D01*
X31451Y-27756D01*
X31451Y-27811D01*
X31451Y-28311D01*
X31472Y-28361D01*
X31507Y-28396D01*
X31547Y-28456D01*
X31803Y-28713D01*
X31803Y-28746D01*
X31851Y-28860D01*
X31938Y-28948D01*
X32052Y-28995D01*
X32176Y-28996D01*
X32290Y-28948D01*
X32318Y-28921D01*
X35395Y-28921D01*
X35485Y-28903D01*
X35562Y-28852D01*
X36077Y-28337D01*
X36077Y-28337D01*
X36111Y-28285D01*
X36128Y-28260D01*
X36128Y-28260D01*
X36146Y-28170D01*
X36146Y-28170D01*
X36146Y-24704D01*
X36146Y-24700D01*
X36128Y-24609D01*
X36077Y-24532D01*
X36049Y-24514D01*
X33513Y-21978D01*
X33436Y-21927D01*
X33346Y-21909D01*
X33030Y-21909D01*
X32694Y-21573D01*
X32694Y-21512D01*
X32700Y-21506D01*
X32721Y-21456D01*
X32721Y-21401D01*
X32721Y-21022D01*
X36322Y-24623D01*
X36322Y-32145D01*
X36336Y-32212D01*
X36374Y-32270D01*
X39014Y-34910D01*
X39345Y-35240D01*
X39345Y-38199D01*
G54D10*
G36*
X45895Y-45501D02*
X45413Y-45501D01*
X45413Y-43439D01*
X45413Y-8006D01*
X45213Y-7521D01*
X44842Y-7150D01*
X44357Y-6949D01*
X43833Y-6948D01*
X43348Y-7148D01*
X42977Y-7519D01*
X42775Y-8004D01*
X42775Y-8528D01*
X42975Y-9013D01*
X43346Y-9385D01*
X43830Y-9586D01*
X44355Y-9586D01*
X44840Y-9386D01*
X45211Y-9015D01*
X45413Y-8531D01*
X45413Y-8006D01*
X45413Y-43439D01*
X45213Y-42954D01*
X45027Y-42768D01*
X45027Y-40320D01*
X45027Y-35125D01*
X45027Y-33740D01*
X45013Y-33672D01*
X44975Y-33614D01*
X44975Y-33614D01*
X44557Y-33196D01*
X44557Y-28314D01*
X44557Y-23314D01*
X44427Y-22999D01*
X44186Y-22758D01*
X43871Y-22628D01*
X43531Y-22627D01*
X43216Y-22757D01*
X43000Y-22973D01*
X43021Y-22924D01*
X43024Y-22656D01*
X42924Y-22408D01*
X42916Y-22396D01*
X42806Y-22355D01*
X42778Y-22382D01*
X42778Y-22327D01*
X42737Y-22217D01*
X42491Y-22112D01*
X42223Y-22109D01*
X41975Y-22209D01*
X41963Y-22217D01*
X41922Y-22327D01*
X42350Y-22755D01*
X42778Y-22327D01*
X42778Y-22382D01*
X42378Y-22783D01*
X42806Y-23211D01*
X42901Y-23175D01*
X42844Y-23313D01*
X42844Y-23653D01*
X42974Y-23968D01*
X43215Y-24209D01*
X43529Y-24340D01*
X43870Y-24340D01*
X44185Y-24210D01*
X44426Y-23969D01*
X44556Y-23655D01*
X44557Y-23314D01*
X44557Y-28314D01*
X44427Y-27999D01*
X44186Y-27758D01*
X43871Y-27628D01*
X43531Y-27627D01*
X43235Y-27749D01*
X43235Y-26883D01*
X43235Y-25277D01*
X43155Y-25080D01*
X43153Y-25077D01*
X43057Y-25052D01*
X42728Y-25381D01*
X43057Y-25710D01*
X43153Y-25686D01*
X43235Y-25489D01*
X43235Y-25277D01*
X43235Y-26883D01*
X43155Y-26686D01*
X43153Y-26683D01*
X43057Y-26659D01*
X42728Y-26988D01*
X43057Y-27317D01*
X43153Y-27292D01*
X43235Y-27096D01*
X43235Y-26883D01*
X43235Y-27749D01*
X43216Y-27757D01*
X42975Y-27998D01*
X42844Y-28313D01*
X42844Y-28653D01*
X42901Y-28792D01*
X42806Y-28756D01*
X42778Y-28784D01*
X42778Y-28728D01*
X42737Y-28619D01*
X42491Y-28514D01*
X42223Y-28511D01*
X41975Y-28610D01*
X41963Y-28619D01*
X41922Y-28728D01*
X42350Y-29157D01*
X42778Y-28728D01*
X42778Y-28784D01*
X42378Y-29185D01*
X42806Y-29613D01*
X42916Y-29571D01*
X43021Y-29325D01*
X43024Y-29058D01*
X42997Y-28991D01*
X43215Y-29209D01*
X43529Y-29340D01*
X43870Y-29340D01*
X44185Y-29210D01*
X44426Y-28969D01*
X44556Y-28655D01*
X44557Y-28314D01*
X44557Y-33196D01*
X44010Y-32649D01*
X43952Y-32611D01*
X43884Y-32597D01*
X43344Y-32597D01*
X43296Y-32578D01*
X43242Y-32578D01*
X43017Y-32578D01*
X42952Y-32513D01*
X42864Y-32476D01*
X42778Y-32476D01*
X42778Y-29641D01*
X42350Y-29212D01*
X42322Y-29240D01*
X42322Y-29185D01*
X41894Y-28756D01*
X41784Y-28798D01*
X41679Y-29044D01*
X41676Y-29311D01*
X41776Y-29559D01*
X41784Y-29571D01*
X41894Y-29613D01*
X42322Y-29185D01*
X42322Y-29240D01*
X41922Y-29641D01*
X41963Y-29751D01*
X42209Y-29856D01*
X42477Y-29858D01*
X42725Y-29759D01*
X42737Y-29751D01*
X42778Y-29641D01*
X42778Y-32476D01*
X42768Y-32476D01*
X42767Y-32476D01*
X42708Y-32536D01*
X42708Y-32733D01*
X42708Y-32755D01*
X42708Y-32794D01*
X42708Y-32930D01*
X42708Y-32952D01*
X42708Y-32991D01*
X42708Y-33013D01*
X42708Y-33127D01*
X42708Y-33149D01*
X42708Y-33188D01*
X42708Y-33210D01*
X42708Y-33346D01*
X42708Y-33385D01*
X42708Y-33407D01*
X42708Y-33604D01*
X42767Y-33664D01*
X42768Y-33664D01*
X42864Y-33664D01*
X42952Y-33627D01*
X43017Y-33562D01*
X43040Y-33562D01*
X43296Y-33562D01*
X43344Y-33543D01*
X43734Y-33543D01*
X44200Y-34009D01*
X44200Y-34729D01*
X43694Y-34224D01*
X43637Y-34185D01*
X43569Y-34172D01*
X43344Y-34172D01*
X43296Y-34152D01*
X43242Y-34152D01*
X43017Y-34152D01*
X42952Y-34087D01*
X42864Y-34051D01*
X42768Y-34051D01*
X42767Y-34051D01*
X42708Y-34111D01*
X42708Y-34308D01*
X42708Y-34329D01*
X42708Y-34369D01*
X42708Y-34505D01*
X42708Y-34526D01*
X42708Y-34566D01*
X42708Y-34588D01*
X42708Y-34702D01*
X42708Y-34723D01*
X42708Y-34763D01*
X42708Y-34785D01*
X42708Y-34920D01*
X42708Y-34960D01*
X42708Y-34982D01*
X42708Y-35179D01*
X42767Y-35239D01*
X42768Y-35239D01*
X42864Y-35238D01*
X42952Y-35202D01*
X43017Y-35137D01*
X43040Y-35137D01*
X43296Y-35137D01*
X43344Y-35117D01*
X43419Y-35117D01*
X43570Y-35269D01*
X43570Y-39790D01*
X43345Y-40015D01*
X41865Y-40015D01*
X42270Y-39610D01*
X42308Y-39552D01*
X42322Y-39485D01*
X42322Y-38700D01*
X42544Y-38922D01*
X42544Y-39009D01*
X42586Y-39110D01*
X42663Y-39188D01*
X42764Y-39230D01*
X42874Y-39230D01*
X42975Y-39188D01*
X43053Y-39111D01*
X43095Y-39010D01*
X43095Y-38900D01*
X43053Y-38799D01*
X42976Y-38721D01*
X42875Y-38679D01*
X42802Y-38679D01*
X42668Y-38545D01*
X42668Y-35179D01*
X42668Y-34982D01*
X42668Y-34960D01*
X42668Y-34920D01*
X42668Y-34785D01*
X42668Y-34763D01*
X42668Y-34723D01*
X42668Y-34702D01*
X42668Y-34588D01*
X42668Y-34566D01*
X42668Y-34526D01*
X42668Y-34505D01*
X42668Y-34369D01*
X42668Y-34329D01*
X42668Y-34308D01*
X42668Y-34111D01*
X42668Y-33604D01*
X42668Y-33407D01*
X42668Y-33385D01*
X42668Y-33346D01*
X42668Y-33210D01*
X42668Y-33188D01*
X42668Y-33149D01*
X42668Y-33127D01*
X42668Y-33013D01*
X42668Y-32991D01*
X42668Y-32952D01*
X42668Y-32930D01*
X42668Y-32794D01*
X42668Y-32755D01*
X42668Y-32733D01*
X42668Y-32536D01*
X42608Y-32476D01*
X42607Y-32476D01*
X42512Y-32476D01*
X42424Y-32513D01*
X42357Y-32580D01*
X42320Y-32668D01*
X42321Y-32695D01*
X42380Y-32754D01*
X42357Y-32777D01*
X42328Y-32846D01*
X42321Y-32854D01*
X42320Y-32865D01*
X42320Y-32865D01*
X42320Y-32873D01*
X42320Y-32881D01*
X42320Y-32881D01*
X42321Y-32892D01*
X42328Y-32900D01*
X42357Y-32969D01*
X42359Y-32971D01*
X42357Y-32974D01*
X42328Y-33043D01*
X42321Y-33051D01*
X42320Y-33062D01*
X42320Y-33062D01*
X42320Y-33070D01*
X42320Y-33078D01*
X42320Y-33078D01*
X42321Y-33089D01*
X42328Y-33097D01*
X42357Y-33166D01*
X42359Y-33168D01*
X42357Y-33171D01*
X42328Y-33240D01*
X42321Y-33248D01*
X42320Y-33259D01*
X42320Y-33259D01*
X42320Y-33267D01*
X42320Y-33275D01*
X42320Y-33275D01*
X42321Y-33286D01*
X42328Y-33294D01*
X42357Y-33363D01*
X42380Y-33386D01*
X42321Y-33445D01*
X42320Y-33472D01*
X42357Y-33560D01*
X42424Y-33627D01*
X42512Y-33664D01*
X42607Y-33664D01*
X42608Y-33664D01*
X42668Y-33604D01*
X42668Y-34111D01*
X42608Y-34051D01*
X42607Y-34051D01*
X42512Y-34051D01*
X42424Y-34087D01*
X42357Y-34155D01*
X42320Y-34243D01*
X42321Y-34270D01*
X42380Y-34329D01*
X42357Y-34352D01*
X42328Y-34421D01*
X42321Y-34429D01*
X42320Y-34440D01*
X42320Y-34440D01*
X42320Y-34448D01*
X42320Y-34456D01*
X42320Y-34456D01*
X42321Y-34467D01*
X42328Y-34474D01*
X42357Y-34544D01*
X42359Y-34546D01*
X42357Y-34549D01*
X42328Y-34618D01*
X42321Y-34626D01*
X42320Y-34637D01*
X42320Y-34637D01*
X42320Y-34645D01*
X42320Y-34653D01*
X42320Y-34653D01*
X42321Y-34664D01*
X42328Y-34671D01*
X42357Y-34741D01*
X42359Y-34743D01*
X42357Y-34746D01*
X42328Y-34815D01*
X42321Y-34823D01*
X42320Y-34834D01*
X42320Y-34834D01*
X42320Y-34842D01*
X42320Y-34850D01*
X42320Y-34850D01*
X42321Y-34861D01*
X42328Y-34868D01*
X42357Y-34938D01*
X42380Y-34960D01*
X42321Y-35020D01*
X42320Y-35047D01*
X42357Y-35135D01*
X42424Y-35202D01*
X42512Y-35238D01*
X42607Y-35239D01*
X42608Y-35239D01*
X42668Y-35179D01*
X42668Y-38545D01*
X42282Y-38158D01*
X42282Y-36190D01*
X42268Y-36123D01*
X42230Y-36065D01*
X42230Y-36065D01*
X37779Y-31615D01*
X37779Y-24093D01*
X37766Y-24025D01*
X37727Y-23968D01*
X33366Y-19607D01*
X34986Y-19607D01*
X41288Y-25908D01*
X41345Y-25947D01*
X41413Y-25960D01*
X41604Y-25960D01*
X41632Y-26028D01*
X41754Y-26150D01*
X41837Y-26185D01*
X41754Y-26219D01*
X41632Y-26340D01*
X41566Y-26500D01*
X41566Y-26672D01*
X41632Y-26831D01*
X41754Y-26953D01*
X41837Y-26988D01*
X41754Y-27022D01*
X41632Y-27144D01*
X41566Y-27303D01*
X41566Y-27475D01*
X41632Y-27634D01*
X41754Y-27756D01*
X41913Y-27822D01*
X42085Y-27823D01*
X42245Y-27757D01*
X42367Y-27635D01*
X42433Y-27476D01*
X42433Y-27456D01*
X42592Y-27522D01*
X42805Y-27523D01*
X43002Y-27442D01*
X43005Y-27440D01*
X43029Y-27345D01*
X42700Y-27016D01*
X42695Y-27021D01*
X42667Y-26993D01*
X42672Y-26988D01*
X42667Y-26982D01*
X42695Y-26954D01*
X42700Y-26960D01*
X43029Y-26631D01*
X43005Y-26535D01*
X42975Y-26523D01*
X43067Y-26430D01*
X43134Y-26271D01*
X43134Y-26099D01*
X43068Y-25939D01*
X42975Y-25847D01*
X43002Y-25836D01*
X43005Y-25834D01*
X43029Y-25738D01*
X42700Y-25409D01*
X42695Y-25415D01*
X42667Y-25387D01*
X42672Y-25381D01*
X42667Y-25376D01*
X42695Y-25348D01*
X42700Y-25354D01*
X43029Y-25024D01*
X43005Y-24929D01*
X42975Y-24916D01*
X43067Y-24824D01*
X43134Y-24665D01*
X43134Y-24492D01*
X43068Y-24333D01*
X42946Y-24211D01*
X42787Y-24145D01*
X42778Y-24145D01*
X42778Y-23239D01*
X42350Y-22811D01*
X41922Y-23239D01*
X41963Y-23349D01*
X42209Y-23454D01*
X42477Y-23457D01*
X42725Y-23357D01*
X42737Y-23349D01*
X42778Y-23239D01*
X42778Y-24145D01*
X42614Y-24145D01*
X42455Y-24211D01*
X42333Y-24332D01*
X42267Y-24492D01*
X42267Y-24634D01*
X42245Y-24613D01*
X42086Y-24547D01*
X41914Y-24546D01*
X41754Y-24612D01*
X41632Y-24734D01*
X41577Y-24868D01*
X41577Y-22828D01*
X41678Y-22727D01*
X41676Y-22910D01*
X41776Y-23158D01*
X41784Y-23170D01*
X41894Y-23211D01*
X42322Y-22783D01*
X41894Y-22355D01*
X41787Y-22395D01*
X41787Y-20495D01*
X41773Y-20427D01*
X41735Y-20369D01*
X41310Y-19944D01*
X41252Y-19906D01*
X41185Y-19892D01*
X41121Y-19892D01*
X41121Y-7657D01*
X41035Y-7447D01*
X41032Y-7442D01*
X40933Y-7413D01*
X40905Y-7441D01*
X40905Y-7385D01*
X40876Y-7286D01*
X40667Y-7198D01*
X40440Y-7197D01*
X40231Y-7283D01*
X40226Y-7286D01*
X40197Y-7385D01*
X40551Y-7739D01*
X40905Y-7385D01*
X40905Y-7441D01*
X40579Y-7767D01*
X40933Y-8121D01*
X41032Y-8092D01*
X41119Y-7884D01*
X41121Y-7657D01*
X41121Y-19892D01*
X41019Y-19892D01*
X41019Y-8675D01*
X40947Y-8503D01*
X40816Y-8371D01*
X40698Y-8322D01*
X40871Y-8252D01*
X40876Y-8248D01*
X40905Y-8149D01*
X40551Y-7795D01*
X40523Y-7823D01*
X40523Y-7767D01*
X40169Y-7413D01*
X40070Y-7442D01*
X39982Y-7651D01*
X39981Y-7877D01*
X40066Y-8087D01*
X40070Y-8092D01*
X40169Y-8121D01*
X40523Y-7767D01*
X40523Y-7823D01*
X40197Y-8149D01*
X40226Y-8248D01*
X40402Y-8322D01*
X40286Y-8370D01*
X40154Y-8502D01*
X40083Y-8674D01*
X40083Y-8860D01*
X40119Y-8948D01*
X38168Y-10899D01*
X38168Y-7657D01*
X38082Y-7447D01*
X38079Y-7442D01*
X37980Y-7413D01*
X37952Y-7441D01*
X37952Y-7385D01*
X37923Y-7286D01*
X37714Y-7198D01*
X37488Y-7197D01*
X37278Y-7283D01*
X37273Y-7286D01*
X37244Y-7385D01*
X37598Y-7739D01*
X37952Y-7385D01*
X37952Y-7441D01*
X37626Y-7767D01*
X37980Y-8121D01*
X38079Y-8092D01*
X38167Y-7884D01*
X38168Y-7657D01*
X38168Y-10899D01*
X37265Y-11802D01*
X37097Y-11802D01*
X37086Y-11773D01*
X37047Y-11734D01*
X36996Y-11713D01*
X36941Y-11713D01*
X36890Y-11713D01*
X36890Y-9726D01*
X37417Y-9199D01*
X37504Y-9235D01*
X37691Y-9235D01*
X37863Y-9164D01*
X37994Y-9033D01*
X38066Y-8861D01*
X38066Y-8675D01*
X37995Y-8503D01*
X37863Y-8371D01*
X37745Y-8322D01*
X37918Y-8252D01*
X37923Y-8248D01*
X37952Y-8149D01*
X37598Y-7795D01*
X37570Y-7823D01*
X37570Y-7767D01*
X37216Y-7413D01*
X37117Y-7442D01*
X37029Y-7651D01*
X37028Y-7877D01*
X37114Y-8087D01*
X37117Y-8092D01*
X37216Y-8121D01*
X37570Y-7767D01*
X37570Y-7823D01*
X37244Y-8149D01*
X37273Y-8248D01*
X37449Y-8322D01*
X37333Y-8370D01*
X37202Y-8502D01*
X37130Y-8674D01*
X37130Y-8860D01*
X37167Y-8948D01*
X36587Y-9527D01*
X36549Y-9585D01*
X36536Y-9652D01*
X36536Y-10407D01*
X35215Y-9087D01*
X35215Y-7657D01*
X35130Y-7447D01*
X35126Y-7442D01*
X35027Y-7413D01*
X34999Y-7441D01*
X34999Y-7385D01*
X34970Y-7286D01*
X34761Y-7198D01*
X34535Y-7197D01*
X34325Y-7283D01*
X34320Y-7286D01*
X34291Y-7385D01*
X34645Y-7739D01*
X34999Y-7385D01*
X34999Y-7441D01*
X34673Y-7767D01*
X35027Y-8121D01*
X35126Y-8092D01*
X35214Y-7884D01*
X35215Y-7657D01*
X35215Y-9087D01*
X35077Y-8948D01*
X35113Y-8861D01*
X35113Y-8675D01*
X35042Y-8503D01*
X34911Y-8371D01*
X34793Y-8322D01*
X34965Y-8252D01*
X34970Y-8248D01*
X34999Y-8149D01*
X34645Y-7795D01*
X34617Y-7823D01*
X34617Y-7767D01*
X34263Y-7413D01*
X34164Y-7442D01*
X34076Y-7651D01*
X34075Y-7877D01*
X34161Y-8087D01*
X34164Y-8092D01*
X34263Y-8121D01*
X34617Y-7767D01*
X34617Y-7823D01*
X34291Y-8149D01*
X34320Y-8248D01*
X34497Y-8322D01*
X34381Y-8370D01*
X34249Y-8502D01*
X34177Y-8674D01*
X34177Y-8860D01*
X34248Y-9032D01*
X34380Y-9164D01*
X34552Y-9235D01*
X34738Y-9235D01*
X34826Y-9199D01*
X36339Y-10711D01*
X36339Y-11713D01*
X36232Y-11713D01*
X36182Y-11734D01*
X36143Y-11773D01*
X36131Y-11802D01*
X34978Y-11802D01*
X32262Y-9087D01*
X32262Y-7657D01*
X32177Y-7447D01*
X32173Y-7442D01*
X32074Y-7413D01*
X32046Y-7441D01*
X32046Y-7385D01*
X32018Y-7286D01*
X31809Y-7198D01*
X31582Y-7197D01*
X31372Y-7283D01*
X31367Y-7286D01*
X31338Y-7385D01*
X31692Y-7739D01*
X32046Y-7385D01*
X32046Y-7441D01*
X31720Y-7767D01*
X32074Y-8121D01*
X32173Y-8092D01*
X32261Y-7884D01*
X32262Y-7657D01*
X32262Y-9087D01*
X32124Y-8948D01*
X32160Y-8861D01*
X32160Y-8675D01*
X32089Y-8503D01*
X31958Y-8371D01*
X31840Y-8322D01*
X32012Y-8252D01*
X32018Y-8248D01*
X32046Y-8149D01*
X31692Y-7795D01*
X31665Y-7823D01*
X31665Y-7767D01*
X31311Y-7413D01*
X31211Y-7442D01*
X31124Y-7651D01*
X31122Y-7877D01*
X31208Y-8087D01*
X31211Y-8092D01*
X31311Y-8121D01*
X31665Y-7767D01*
X31665Y-7823D01*
X31338Y-8149D01*
X31367Y-8248D01*
X31544Y-8322D01*
X31428Y-8370D01*
X31296Y-8502D01*
X31225Y-8674D01*
X31225Y-8860D01*
X31296Y-9032D01*
X31427Y-9164D01*
X31599Y-9235D01*
X31785Y-9235D01*
X31873Y-9199D01*
X34779Y-12104D01*
X34837Y-12143D01*
X34904Y-12156D01*
X36131Y-12156D01*
X36143Y-12185D01*
X36163Y-12206D01*
X36143Y-12226D01*
X36131Y-12255D01*
X35756Y-12255D01*
X35688Y-12269D01*
X35630Y-12307D01*
X32243Y-15695D01*
X30252Y-15695D01*
X30252Y-9885D01*
X30152Y-9636D01*
X30144Y-9624D01*
X30034Y-9583D01*
X30007Y-9611D01*
X30007Y-9555D01*
X29965Y-9445D01*
X29719Y-9340D01*
X29452Y-9337D01*
X29385Y-9364D01*
X29603Y-9147D01*
X29734Y-8832D01*
X29734Y-8491D01*
X29604Y-8176D01*
X29363Y-7935D01*
X29049Y-7805D01*
X28708Y-7804D01*
X28393Y-7935D01*
X28152Y-8175D01*
X28021Y-8490D01*
X28021Y-8830D01*
X28151Y-9145D01*
X28392Y-9386D01*
X28706Y-9517D01*
X29047Y-9517D01*
X29186Y-9460D01*
X29150Y-9555D01*
X29578Y-9983D01*
X30007Y-9555D01*
X30007Y-9611D01*
X29606Y-10011D01*
X30034Y-10440D01*
X30144Y-10398D01*
X30249Y-10152D01*
X30252Y-9885D01*
X30252Y-15695D01*
X30007Y-15695D01*
X30007Y-10467D01*
X29578Y-10039D01*
X29550Y-10067D01*
X29550Y-10011D01*
X29122Y-9583D01*
X29012Y-9624D01*
X28907Y-9870D01*
X28904Y-10138D01*
X29004Y-10386D01*
X29012Y-10398D01*
X29122Y-10440D01*
X29550Y-10011D01*
X29550Y-10067D01*
X29150Y-10467D01*
X29191Y-10577D01*
X29437Y-10682D01*
X29705Y-10685D01*
X29953Y-10585D01*
X29965Y-10577D01*
X30007Y-10467D01*
X30007Y-15695D01*
X28040Y-15695D01*
X27983Y-15639D01*
X27882Y-15596D01*
X27802Y-15596D01*
X27244Y-15039D01*
X27244Y-14977D01*
X27244Y-14603D01*
X27264Y-14556D01*
X27264Y-14501D01*
X27264Y-14245D01*
X27243Y-14195D01*
X27223Y-14174D01*
X27243Y-14154D01*
X27264Y-14103D01*
X27264Y-14048D01*
X27264Y-13792D01*
X27244Y-13745D01*
X27244Y-11151D01*
X27628Y-10767D01*
X27696Y-10795D01*
X27869Y-10795D01*
X28028Y-10729D01*
X28150Y-10607D01*
X28216Y-10448D01*
X28216Y-10276D01*
X28151Y-10117D01*
X28029Y-9995D01*
X27870Y-9928D01*
X27849Y-9928D01*
X27916Y-9769D01*
X27917Y-9556D01*
X27836Y-9359D01*
X27834Y-9357D01*
X27738Y-9332D01*
X27710Y-9360D01*
X27710Y-9304D01*
X27686Y-9208D01*
X27489Y-9126D01*
X27277Y-9126D01*
X27080Y-9207D01*
X27077Y-9208D01*
X27052Y-9304D01*
X27381Y-9633D01*
X27710Y-9304D01*
X27710Y-9360D01*
X27409Y-9661D01*
X27415Y-9666D01*
X27387Y-9694D01*
X27381Y-9689D01*
X27376Y-9694D01*
X27348Y-9666D01*
X27354Y-9661D01*
X27024Y-9332D01*
X26929Y-9357D01*
X26916Y-9386D01*
X26824Y-9294D01*
X26665Y-9228D01*
X26492Y-9228D01*
X26333Y-9293D01*
X26240Y-9386D01*
X26229Y-9359D01*
X26228Y-9357D01*
X26132Y-9332D01*
X26104Y-9360D01*
X26104Y-9304D01*
X26080Y-9208D01*
X25883Y-9126D01*
X25670Y-9126D01*
X25474Y-9207D01*
X25471Y-9208D01*
X25446Y-9304D01*
X25775Y-9633D01*
X26104Y-9304D01*
X26104Y-9360D01*
X25803Y-9661D01*
X25808Y-9666D01*
X25781Y-9694D01*
X25775Y-9689D01*
X25770Y-9694D01*
X25742Y-9666D01*
X25747Y-9661D01*
X25418Y-9332D01*
X25323Y-9357D01*
X25310Y-9386D01*
X25218Y-9294D01*
X25059Y-9228D01*
X24886Y-9228D01*
X24734Y-9290D01*
X24734Y-8491D01*
X24604Y-8176D01*
X24363Y-7935D01*
X24049Y-7805D01*
X23708Y-7804D01*
X23393Y-7935D01*
X23152Y-8175D01*
X23021Y-8490D01*
X23021Y-8830D01*
X23151Y-9145D01*
X23367Y-9361D01*
X23318Y-9340D01*
X23050Y-9337D01*
X22802Y-9437D01*
X22790Y-9445D01*
X22748Y-9555D01*
X23177Y-9983D01*
X23605Y-9555D01*
X23569Y-9460D01*
X23706Y-9517D01*
X24047Y-9517D01*
X24362Y-9387D01*
X24603Y-9147D01*
X24734Y-8832D01*
X24734Y-8491D01*
X24734Y-9290D01*
X24727Y-9293D01*
X24605Y-9415D01*
X24539Y-9574D01*
X24539Y-9747D01*
X24604Y-9906D01*
X24726Y-10028D01*
X24885Y-10094D01*
X25028Y-10094D01*
X25006Y-10116D01*
X24940Y-10275D01*
X24940Y-10448D01*
X25006Y-10607D01*
X25128Y-10729D01*
X25287Y-10795D01*
X25459Y-10795D01*
X25528Y-10767D01*
X26299Y-11538D01*
X26299Y-13745D01*
X26279Y-13792D01*
X26279Y-13847D01*
X26279Y-14103D01*
X26300Y-14154D01*
X26321Y-14174D01*
X26300Y-14195D01*
X26279Y-14245D01*
X26279Y-14300D01*
X26279Y-14556D01*
X26299Y-14604D01*
X26299Y-15189D01*
X26005Y-15484D01*
X25925Y-15484D01*
X25824Y-15526D01*
X25746Y-15603D01*
X25704Y-15704D01*
X25704Y-15814D01*
X25746Y-15915D01*
X25823Y-15993D01*
X25924Y-16035D01*
X26034Y-16035D01*
X26042Y-16032D01*
X26209Y-16200D01*
X26267Y-16238D01*
X26335Y-16252D01*
X26713Y-16252D01*
X27049Y-16587D01*
X27106Y-16626D01*
X27106Y-16626D01*
X27174Y-16639D01*
X33152Y-16639D01*
X33220Y-16626D01*
X33220Y-16626D01*
X33278Y-16587D01*
X37035Y-12830D01*
X37035Y-12830D01*
X37035Y-12830D01*
X37073Y-12773D01*
X37087Y-12705D01*
X37087Y-12705D01*
X37087Y-12635D01*
X37106Y-12588D01*
X37106Y-12533D01*
X37106Y-12277D01*
X37086Y-12226D01*
X37065Y-12206D01*
X37085Y-12185D01*
X37097Y-12156D01*
X37339Y-12156D01*
X37406Y-12143D01*
X37406Y-12143D01*
X37464Y-12104D01*
X40370Y-9199D01*
X40457Y-9235D01*
X40643Y-9235D01*
X40815Y-9164D01*
X40947Y-9033D01*
X41018Y-8861D01*
X41019Y-8675D01*
X41019Y-19892D01*
X40380Y-19892D01*
X40312Y-19906D01*
X40254Y-19944D01*
X40094Y-20104D01*
X40056Y-20162D01*
X40042Y-20230D01*
X40042Y-20535D01*
X40056Y-20602D01*
X40094Y-20660D01*
X40117Y-20682D01*
X40117Y-20726D01*
X40117Y-20951D01*
X40052Y-21016D01*
X40015Y-21104D01*
X40015Y-21199D01*
X40015Y-21200D01*
X40075Y-21260D01*
X40272Y-21260D01*
X40294Y-21260D01*
X40333Y-21260D01*
X40469Y-21260D01*
X40491Y-21260D01*
X40530Y-21260D01*
X40552Y-21260D01*
X40666Y-21260D01*
X40688Y-21260D01*
X40727Y-21260D01*
X40749Y-21260D01*
X40885Y-21260D01*
X40924Y-21260D01*
X40946Y-21260D01*
X41143Y-21260D01*
X41203Y-21200D01*
X41203Y-21199D01*
X41203Y-21104D01*
X41166Y-21016D01*
X41101Y-20951D01*
X41101Y-20927D01*
X41101Y-20671D01*
X41080Y-20621D01*
X41042Y-20582D01*
X40991Y-20561D01*
X40936Y-20561D01*
X40818Y-20561D01*
X40806Y-20566D01*
X40794Y-20561D01*
X40739Y-20561D01*
X40688Y-20561D01*
X40688Y-20546D01*
X40733Y-20501D01*
X40775Y-20400D01*
X40775Y-20290D01*
X40757Y-20247D01*
X41111Y-20247D01*
X41432Y-20568D01*
X41432Y-22471D01*
X41274Y-22629D01*
X41236Y-22687D01*
X41222Y-22755D01*
X41222Y-25215D01*
X41236Y-25282D01*
X41274Y-25340D01*
X41540Y-25606D01*
X41486Y-25606D01*
X41203Y-25322D01*
X41203Y-21360D01*
X41203Y-21359D01*
X41143Y-21299D01*
X40946Y-21299D01*
X40924Y-21299D01*
X40885Y-21299D01*
X40749Y-21299D01*
X40727Y-21299D01*
X40688Y-21299D01*
X40666Y-21299D01*
X40552Y-21299D01*
X40530Y-21299D01*
X40491Y-21299D01*
X40469Y-21299D01*
X40333Y-21299D01*
X40294Y-21299D01*
X40272Y-21299D01*
X40075Y-21299D01*
X40015Y-21359D01*
X40015Y-21360D01*
X40015Y-21455D01*
X40052Y-21543D01*
X40119Y-21611D01*
X40207Y-21647D01*
X40234Y-21647D01*
X40293Y-21588D01*
X40316Y-21611D01*
X40385Y-21639D01*
X40393Y-21647D01*
X40404Y-21647D01*
X40404Y-21647D01*
X40412Y-21647D01*
X40420Y-21647D01*
X40420Y-21647D01*
X40431Y-21647D01*
X40439Y-21639D01*
X40508Y-21611D01*
X40511Y-21608D01*
X40513Y-21611D01*
X40582Y-21639D01*
X40590Y-21647D01*
X40601Y-21647D01*
X40601Y-21647D01*
X40609Y-21647D01*
X40617Y-21647D01*
X40617Y-21647D01*
X40628Y-21647D01*
X40636Y-21639D01*
X40705Y-21611D01*
X40708Y-21608D01*
X40710Y-21611D01*
X40779Y-21639D01*
X40787Y-21647D01*
X40798Y-21647D01*
X40798Y-21647D01*
X40806Y-21647D01*
X40814Y-21647D01*
X40814Y-21647D01*
X40825Y-21647D01*
X40833Y-21639D01*
X40902Y-21611D01*
X40925Y-21588D01*
X40984Y-21647D01*
X41011Y-21647D01*
X41099Y-21611D01*
X41166Y-21543D01*
X41203Y-21455D01*
X41203Y-21360D01*
X41203Y-25322D01*
X35185Y-19304D01*
X35127Y-19266D01*
X35060Y-19252D01*
X32823Y-19252D01*
X32823Y-19181D01*
X32823Y-18776D01*
X32822Y-18680D01*
X32786Y-18592D01*
X32719Y-18525D01*
X32631Y-18489D01*
X32538Y-18489D01*
X32478Y-18549D01*
X32478Y-18959D01*
X32763Y-18959D01*
X32823Y-18899D01*
X32823Y-18776D01*
X32823Y-19181D01*
X32823Y-19058D01*
X32763Y-18998D01*
X32478Y-18998D01*
X32478Y-19006D01*
X32438Y-19006D01*
X32438Y-18998D01*
X32431Y-18998D01*
X32431Y-18959D01*
X32438Y-18959D01*
X32438Y-18549D01*
X32379Y-18489D01*
X32286Y-18489D01*
X32198Y-18525D01*
X32135Y-18588D01*
X32135Y-18378D01*
X32198Y-18316D01*
X32240Y-18215D01*
X32240Y-18105D01*
X32198Y-18004D01*
X32121Y-17926D01*
X32020Y-17884D01*
X31939Y-17884D01*
X31870Y-17814D01*
X31812Y-17776D01*
X31745Y-17762D01*
X24025Y-17762D01*
X23957Y-17776D01*
X23899Y-17814D01*
X23850Y-17863D01*
X23850Y-9885D01*
X23751Y-9636D01*
X23743Y-9624D01*
X23633Y-9583D01*
X23205Y-10011D01*
X23633Y-10440D01*
X23743Y-10398D01*
X23848Y-10152D01*
X23850Y-9885D01*
X23850Y-17863D01*
X23605Y-18108D01*
X23605Y-10467D01*
X23177Y-10039D01*
X23149Y-10067D01*
X23149Y-10011D01*
X22720Y-9583D01*
X22611Y-9624D01*
X22506Y-9870D01*
X22503Y-10138D01*
X22603Y-10386D01*
X22611Y-10398D01*
X22720Y-10440D01*
X23149Y-10011D01*
X23149Y-10067D01*
X22748Y-10467D01*
X22790Y-10577D01*
X23036Y-10682D01*
X23303Y-10685D01*
X23552Y-10585D01*
X23564Y-10577D01*
X23605Y-10467D01*
X23605Y-18108D01*
X23171Y-18542D01*
X23137Y-18593D01*
X23137Y-18593D01*
X23094Y-18611D01*
X23055Y-18650D01*
X23047Y-18670D01*
X23039Y-18650D01*
X23000Y-18611D01*
X22949Y-18590D01*
X22894Y-18590D01*
X22644Y-18590D01*
X22594Y-18611D01*
X22555Y-18650D01*
X22547Y-18670D01*
X22539Y-18650D01*
X22500Y-18611D01*
X22449Y-18590D01*
X22394Y-18590D01*
X22144Y-18590D01*
X22094Y-18611D01*
X22055Y-18650D01*
X22047Y-18670D01*
X22039Y-18650D01*
X22000Y-18611D01*
X21949Y-18590D01*
X21894Y-18590D01*
X21644Y-18590D01*
X21594Y-18611D01*
X21555Y-18650D01*
X21547Y-18670D01*
X21539Y-18650D01*
X21500Y-18611D01*
X21449Y-18590D01*
X21394Y-18590D01*
X21144Y-18590D01*
X21094Y-18611D01*
X21055Y-18650D01*
X21047Y-18670D01*
X21039Y-18650D01*
X21000Y-18611D01*
X20984Y-18605D01*
X21053Y-18536D01*
X21095Y-18435D01*
X21095Y-18325D01*
X21053Y-18224D01*
X20976Y-18146D01*
X20875Y-18104D01*
X20765Y-18104D01*
X20664Y-18146D01*
X20586Y-18223D01*
X20544Y-18324D01*
X20544Y-18434D01*
X20586Y-18535D01*
X20620Y-18569D01*
X20620Y-18588D01*
X20557Y-18525D01*
X20469Y-18489D01*
X20376Y-18489D01*
X20316Y-18549D01*
X20316Y-18959D01*
X20324Y-18959D01*
X20324Y-18998D01*
X20316Y-18998D01*
X20316Y-19006D01*
X20277Y-19006D01*
X20277Y-18998D01*
X20277Y-18959D01*
X20277Y-18549D01*
X20217Y-18489D01*
X20177Y-18489D01*
X20177Y-15728D01*
X20177Y-15629D01*
X20177Y-15629D01*
X20177Y-15078D01*
X20151Y-14950D01*
X20079Y-14842D01*
X19970Y-14769D01*
X19842Y-14744D01*
X19805Y-14744D01*
X19805Y-13430D01*
X19805Y-12985D01*
X19769Y-12897D01*
X19702Y-12829D01*
X19614Y-12793D01*
X19518Y-12793D01*
X19370Y-12793D01*
X19311Y-12853D01*
X19311Y-13187D01*
X19745Y-13187D01*
X19805Y-13128D01*
X19805Y-12985D01*
X19805Y-13430D01*
X19805Y-13287D01*
X19745Y-13227D01*
X19311Y-13227D01*
X19311Y-13562D01*
X19370Y-13622D01*
X19518Y-13622D01*
X19614Y-13622D01*
X19702Y-13585D01*
X19769Y-13518D01*
X19805Y-13430D01*
X19805Y-14744D01*
X19527Y-14744D01*
X19527Y-14270D01*
X19593Y-14270D01*
X19644Y-14249D01*
X19683Y-14210D01*
X19704Y-14160D01*
X19704Y-14105D01*
X19704Y-13755D01*
X19683Y-13704D01*
X19644Y-13665D01*
X19593Y-13644D01*
X19539Y-13644D01*
X19271Y-13644D01*
X19271Y-13562D01*
X19271Y-13227D01*
X19271Y-13187D01*
X19271Y-12853D01*
X19211Y-12793D01*
X19063Y-12793D01*
X18968Y-12793D01*
X18880Y-12829D01*
X18813Y-12897D01*
X18776Y-12985D01*
X18776Y-13128D01*
X18836Y-13187D01*
X19271Y-13187D01*
X19271Y-13227D01*
X18836Y-13227D01*
X18776Y-13287D01*
X18776Y-13430D01*
X18813Y-13518D01*
X18880Y-13585D01*
X18968Y-13622D01*
X19063Y-13622D01*
X19211Y-13622D01*
X19271Y-13562D01*
X19271Y-13644D01*
X18989Y-13644D01*
X18938Y-13665D01*
X18899Y-13704D01*
X18892Y-13721D01*
X18758Y-13721D01*
X18668Y-13739D01*
X18643Y-13756D01*
X18591Y-13790D01*
X18563Y-13818D01*
X18464Y-13799D01*
X18346Y-13799D01*
X18346Y-13799D01*
X18346Y-13799D01*
X17953Y-13799D01*
X17953Y-13712D01*
X17932Y-13662D01*
X17893Y-13623D01*
X17843Y-13602D01*
X17788Y-13602D01*
X17512Y-13602D01*
X17461Y-13623D01*
X17443Y-13641D01*
X17427Y-13603D01*
X17360Y-13536D01*
X17272Y-13500D01*
X17166Y-13500D01*
X17106Y-13560D01*
X17106Y-14133D01*
X17114Y-14133D01*
X17114Y-14172D01*
X17106Y-14172D01*
X17106Y-14377D01*
X17106Y-14746D01*
X17106Y-15078D01*
X17659Y-15078D01*
X17719Y-15018D01*
X17719Y-14604D01*
X17719Y-14508D01*
X17719Y-14507D01*
X17842Y-14507D01*
X17893Y-14487D01*
X17912Y-14468D01*
X18207Y-14468D01*
X19054Y-15315D01*
X19054Y-15315D01*
X19517Y-15778D01*
X19533Y-15856D01*
X19605Y-15964D01*
X19714Y-16037D01*
X19842Y-16062D01*
X19970Y-16037D01*
X20079Y-15964D01*
X20151Y-15856D01*
X20177Y-15728D01*
X20177Y-18489D01*
X20124Y-18489D01*
X20036Y-18525D01*
X19969Y-18592D01*
X19932Y-18680D01*
X19932Y-18776D01*
X19932Y-18899D01*
X19992Y-18959D01*
X20277Y-18959D01*
X20277Y-18998D01*
X19992Y-18998D01*
X19932Y-19058D01*
X19932Y-19181D01*
X19932Y-19276D01*
X19969Y-19364D01*
X19990Y-19385D01*
X19308Y-19385D01*
X19240Y-19398D01*
X19183Y-19437D01*
X19183Y-19437D01*
X19183Y-19437D01*
X17719Y-20900D01*
X17719Y-15592D01*
X17719Y-15177D01*
X17659Y-15117D01*
X17106Y-15117D01*
X17106Y-15819D01*
X17166Y-15879D01*
X17527Y-15879D01*
X17615Y-15842D01*
X17682Y-15775D01*
X17719Y-15687D01*
X17719Y-15592D01*
X17719Y-20900D01*
X17066Y-21553D01*
X17066Y-15819D01*
X17066Y-15117D01*
X17066Y-15078D01*
X17066Y-14746D01*
X17066Y-14377D01*
X17066Y-14172D01*
X17059Y-14172D01*
X17059Y-14133D01*
X17066Y-14133D01*
X17066Y-13560D01*
X17007Y-13500D01*
X16901Y-13500D01*
X16813Y-13536D01*
X16745Y-13603D01*
X16730Y-13641D01*
X16711Y-13623D01*
X16661Y-13602D01*
X16606Y-13602D01*
X16330Y-13602D01*
X16279Y-13623D01*
X16240Y-13661D01*
X16219Y-13712D01*
X16219Y-13767D01*
X16219Y-13799D01*
X15921Y-13799D01*
X15793Y-13824D01*
X15686Y-13895D01*
X15581Y-13790D01*
X15504Y-13739D01*
X15475Y-13733D01*
X15475Y-13430D01*
X15475Y-12985D01*
X15438Y-12897D01*
X15371Y-12829D01*
X15283Y-12793D01*
X15188Y-12793D01*
X15040Y-12793D01*
X14980Y-12853D01*
X14980Y-13187D01*
X15415Y-13187D01*
X15475Y-13128D01*
X15475Y-12985D01*
X15475Y-13430D01*
X15475Y-13287D01*
X15415Y-13227D01*
X14980Y-13227D01*
X14980Y-13562D01*
X15040Y-13622D01*
X15188Y-13622D01*
X15283Y-13622D01*
X15371Y-13585D01*
X15438Y-13518D01*
X15475Y-13430D01*
X15475Y-13733D01*
X15414Y-13721D01*
X15359Y-13721D01*
X15352Y-13704D01*
X15313Y-13665D01*
X15263Y-13644D01*
X15208Y-13644D01*
X14940Y-13644D01*
X14940Y-13562D01*
X14940Y-13227D01*
X14940Y-13187D01*
X14940Y-12853D01*
X14881Y-12793D01*
X14733Y-12793D01*
X14637Y-12793D01*
X14549Y-12829D01*
X14482Y-12897D01*
X14446Y-12985D01*
X14446Y-13128D01*
X14506Y-13187D01*
X14940Y-13187D01*
X14940Y-13227D01*
X14506Y-13227D01*
X14446Y-13287D01*
X14446Y-13430D01*
X14482Y-13518D01*
X14549Y-13585D01*
X14637Y-13622D01*
X14733Y-13622D01*
X14881Y-13622D01*
X14940Y-13562D01*
X14940Y-13644D01*
X14658Y-13644D01*
X14607Y-13665D01*
X14568Y-13704D01*
X14547Y-13755D01*
X14547Y-13809D01*
X14547Y-14159D01*
X14568Y-14210D01*
X14607Y-14249D01*
X14658Y-14270D01*
X14712Y-14270D01*
X14724Y-14270D01*
X14724Y-14857D01*
X14631Y-14950D01*
X14203Y-14950D01*
X14075Y-14975D01*
X13966Y-15048D01*
X13779Y-15235D01*
X13706Y-15344D01*
X13681Y-15472D01*
X13681Y-16023D01*
X13706Y-16151D01*
X13779Y-16260D01*
X13887Y-16332D01*
X14015Y-16358D01*
X14143Y-16332D01*
X14252Y-16260D01*
X14646Y-15866D01*
X14646Y-15866D01*
X14646Y-15866D01*
X14959Y-15553D01*
X15006Y-15521D01*
X15992Y-14535D01*
X15992Y-14535D01*
X15992Y-14535D01*
X16059Y-14468D01*
X16261Y-14468D01*
X16279Y-14486D01*
X16330Y-14507D01*
X16384Y-14507D01*
X16454Y-14507D01*
X16453Y-14508D01*
X16453Y-14604D01*
X16453Y-15018D01*
X16513Y-15078D01*
X17066Y-15078D01*
X17066Y-15117D01*
X16513Y-15117D01*
X16453Y-15177D01*
X16453Y-15592D01*
X16453Y-15687D01*
X16490Y-15775D01*
X16557Y-15842D01*
X16645Y-15879D01*
X17007Y-15879D01*
X17066Y-15819D01*
X17066Y-21553D01*
X16742Y-21878D01*
X16703Y-21935D01*
X16690Y-22003D01*
X16690Y-29360D01*
X13097Y-32953D01*
X13097Y-28190D01*
X13097Y-25870D01*
X13083Y-25802D01*
X13045Y-25744D01*
X13045Y-25744D01*
X11754Y-24453D01*
X11696Y-24415D01*
X11628Y-24401D01*
X11151Y-24401D01*
X11123Y-24333D01*
X11079Y-24289D01*
X11079Y-22656D01*
X10979Y-22408D01*
X10971Y-22396D01*
X10861Y-22355D01*
X10833Y-22382D01*
X10833Y-22327D01*
X10792Y-22217D01*
X10546Y-22112D01*
X10278Y-22109D01*
X10030Y-22209D01*
X10018Y-22217D01*
X9980Y-22318D01*
X9980Y-8006D01*
X9780Y-7521D01*
X9409Y-7150D01*
X8924Y-6949D01*
X8400Y-6948D01*
X7915Y-7148D01*
X7543Y-7519D01*
X7342Y-8004D01*
X7342Y-8528D01*
X7542Y-9013D01*
X7913Y-9385D01*
X8397Y-9586D01*
X8922Y-9586D01*
X9407Y-9386D01*
X9778Y-9015D01*
X9980Y-8531D01*
X9980Y-8006D01*
X9980Y-22318D01*
X9977Y-22327D01*
X10405Y-22755D01*
X10833Y-22327D01*
X10833Y-22382D01*
X10433Y-22783D01*
X10861Y-23211D01*
X10971Y-23170D01*
X11076Y-22924D01*
X11079Y-22656D01*
X11079Y-24289D01*
X11001Y-24211D01*
X10842Y-24145D01*
X10833Y-24145D01*
X10833Y-23239D01*
X10405Y-22811D01*
X10377Y-22839D01*
X10377Y-22783D01*
X9949Y-22355D01*
X9839Y-22396D01*
X9734Y-22642D01*
X9731Y-22910D01*
X9758Y-22976D01*
X9540Y-22758D01*
X9226Y-22628D01*
X8885Y-22627D01*
X8570Y-22757D01*
X8329Y-22998D01*
X8198Y-23313D01*
X8198Y-23653D01*
X8328Y-23968D01*
X8569Y-24209D01*
X8884Y-24340D01*
X9224Y-24340D01*
X9539Y-24210D01*
X9780Y-23969D01*
X9911Y-23655D01*
X9911Y-23314D01*
X9854Y-23175D01*
X9949Y-23211D01*
X10377Y-22783D01*
X10377Y-22839D01*
X9977Y-23239D01*
X10018Y-23349D01*
X10264Y-23454D01*
X10532Y-23457D01*
X10780Y-23357D01*
X10792Y-23349D01*
X10833Y-23239D01*
X10833Y-24145D01*
X10670Y-24145D01*
X10510Y-24211D01*
X10388Y-24332D01*
X10322Y-24492D01*
X10322Y-24512D01*
X10163Y-24445D01*
X9950Y-24445D01*
X9753Y-24525D01*
X9750Y-24527D01*
X9726Y-24623D01*
X10055Y-24952D01*
X10060Y-24946D01*
X10088Y-24974D01*
X10082Y-24980D01*
X10088Y-24985D01*
X10060Y-25013D01*
X10055Y-25008D01*
X10027Y-25035D01*
X10027Y-24980D01*
X9698Y-24651D01*
X9602Y-24675D01*
X9520Y-24872D01*
X9519Y-25085D01*
X9600Y-25281D01*
X9602Y-25284D01*
X9698Y-25309D01*
X10027Y-24980D01*
X10027Y-25035D01*
X9726Y-25337D01*
X9750Y-25432D01*
X9780Y-25445D01*
X9688Y-25537D01*
X9621Y-25696D01*
X9621Y-25869D01*
X9687Y-26028D01*
X9780Y-26121D01*
X9753Y-26132D01*
X9750Y-26134D01*
X9726Y-26229D01*
X10055Y-26558D01*
X10060Y-26553D01*
X10088Y-26581D01*
X10082Y-26586D01*
X10088Y-26592D01*
X10060Y-26620D01*
X10055Y-26614D01*
X10027Y-26642D01*
X10027Y-26586D01*
X9698Y-26257D01*
X9602Y-26282D01*
X9520Y-26478D01*
X9519Y-26691D01*
X9600Y-26888D01*
X9602Y-26891D01*
X9698Y-26915D01*
X10027Y-26586D01*
X10027Y-26642D01*
X9726Y-26943D01*
X9750Y-27039D01*
X9780Y-27051D01*
X9688Y-27144D01*
X9621Y-27303D01*
X9621Y-27475D01*
X9687Y-27634D01*
X9809Y-27756D01*
X9968Y-27822D01*
X10140Y-27823D01*
X10300Y-27757D01*
X10422Y-27635D01*
X10488Y-27476D01*
X10488Y-27333D01*
X10510Y-27355D01*
X10669Y-27421D01*
X10841Y-27421D01*
X11001Y-27355D01*
X11123Y-27233D01*
X11189Y-27074D01*
X11189Y-26902D01*
X11123Y-26743D01*
X11001Y-26621D01*
X10918Y-26586D01*
X11001Y-26552D01*
X11123Y-26430D01*
X11189Y-26271D01*
X11189Y-26099D01*
X11123Y-25939D01*
X11001Y-25817D01*
X10918Y-25783D01*
X11001Y-25749D01*
X11123Y-25627D01*
X11151Y-25559D01*
X11238Y-25559D01*
X11742Y-26063D01*
X11742Y-27000D01*
X11756Y-27067D01*
X11794Y-27125D01*
X12274Y-27604D01*
X12274Y-27684D01*
X12316Y-27785D01*
X12393Y-27863D01*
X12494Y-27905D01*
X12604Y-27905D01*
X12705Y-27863D01*
X12742Y-27826D01*
X12742Y-28116D01*
X12605Y-28254D01*
X12525Y-28254D01*
X12424Y-28296D01*
X12346Y-28373D01*
X12304Y-28474D01*
X12304Y-28584D01*
X12346Y-28685D01*
X12423Y-28763D01*
X12524Y-28805D01*
X12634Y-28805D01*
X12735Y-28763D01*
X12813Y-28686D01*
X12855Y-28585D01*
X12855Y-28504D01*
X13045Y-28315D01*
X13045Y-28315D01*
X13045Y-28315D01*
X13083Y-28257D01*
X13097Y-28190D01*
X13097Y-28190D01*
X13097Y-32953D01*
X12085Y-33964D01*
X11079Y-34971D01*
X11079Y-29058D01*
X10979Y-28810D01*
X10971Y-28798D01*
X10861Y-28756D01*
X10833Y-28784D01*
X10833Y-28728D01*
X10792Y-28619D01*
X10546Y-28514D01*
X10278Y-28511D01*
X10030Y-28610D01*
X10018Y-28619D01*
X9977Y-28728D01*
X10405Y-29157D01*
X10833Y-28728D01*
X10833Y-28784D01*
X10433Y-29185D01*
X10861Y-29613D01*
X10971Y-29571D01*
X11076Y-29325D01*
X11079Y-29058D01*
X11079Y-34971D01*
X10833Y-35216D01*
X10833Y-29641D01*
X10405Y-29212D01*
X10377Y-29240D01*
X10377Y-29185D01*
X9949Y-28756D01*
X9854Y-28792D01*
X9911Y-28655D01*
X9911Y-28314D01*
X9781Y-27999D01*
X9540Y-27758D01*
X9226Y-27628D01*
X8885Y-27627D01*
X8570Y-27757D01*
X8329Y-27998D01*
X8198Y-28313D01*
X8198Y-28653D01*
X8328Y-28968D01*
X8569Y-29209D01*
X8884Y-29340D01*
X9224Y-29340D01*
X9539Y-29210D01*
X9755Y-28995D01*
X9734Y-29044D01*
X9731Y-29311D01*
X9831Y-29559D01*
X9839Y-29571D01*
X9949Y-29613D01*
X10377Y-29185D01*
X10377Y-29240D01*
X9977Y-29641D01*
X10018Y-29751D01*
X10264Y-29856D01*
X10532Y-29858D01*
X10780Y-29759D01*
X10792Y-29751D01*
X10833Y-29641D01*
X10833Y-35216D01*
X10828Y-35221D01*
X10828Y-35217D01*
X10820Y-35210D01*
X10792Y-35140D01*
X10789Y-35138D01*
X10792Y-35135D01*
X10820Y-35066D01*
X10828Y-35058D01*
X10828Y-35047D01*
X10828Y-35047D01*
X10828Y-35039D01*
X10828Y-35031D01*
X10828Y-35031D01*
X10828Y-35020D01*
X10820Y-35013D01*
X10792Y-34943D01*
X10789Y-34941D01*
X10792Y-34938D01*
X10820Y-34869D01*
X10828Y-34861D01*
X10828Y-34850D01*
X10828Y-34850D01*
X10828Y-34842D01*
X10828Y-34834D01*
X10828Y-34834D01*
X10828Y-34823D01*
X10820Y-34816D01*
X10792Y-34746D01*
X10769Y-34724D01*
X10828Y-34664D01*
X10828Y-34637D01*
X10828Y-33866D01*
X10828Y-33840D01*
X10769Y-33780D01*
X10792Y-33757D01*
X10820Y-33688D01*
X10828Y-33681D01*
X10828Y-33670D01*
X10828Y-33669D01*
X10828Y-33662D01*
X10828Y-33654D01*
X10828Y-33654D01*
X10828Y-33643D01*
X10820Y-33635D01*
X10792Y-33566D01*
X10789Y-33563D01*
X10792Y-33560D01*
X10820Y-33491D01*
X10828Y-33484D01*
X10828Y-33473D01*
X10828Y-33472D01*
X10828Y-33465D01*
X10828Y-33457D01*
X10828Y-33457D01*
X10828Y-33446D01*
X10820Y-33438D01*
X10792Y-33369D01*
X10789Y-33366D01*
X10792Y-33363D01*
X10820Y-33294D01*
X10828Y-33287D01*
X10828Y-33276D01*
X10828Y-33275D01*
X10828Y-33268D01*
X10828Y-33260D01*
X10828Y-33260D01*
X10828Y-33249D01*
X10820Y-33241D01*
X10792Y-33172D01*
X10769Y-33149D01*
X10828Y-33090D01*
X10828Y-33063D01*
X10792Y-32975D01*
X10724Y-32907D01*
X10637Y-32871D01*
X10541Y-32871D01*
X10540Y-32871D01*
X10480Y-32931D01*
X10480Y-33128D01*
X10480Y-33149D01*
X10480Y-33189D01*
X10480Y-33325D01*
X10480Y-33346D01*
X10480Y-33386D01*
X10480Y-33408D01*
X10480Y-33522D01*
X10480Y-33543D01*
X10480Y-33583D01*
X10480Y-33605D01*
X10480Y-33740D01*
X10480Y-33780D01*
X10480Y-33802D01*
X10480Y-33999D01*
X10540Y-34058D01*
X10541Y-34058D01*
X10637Y-34058D01*
X10724Y-34022D01*
X10792Y-33954D01*
X10828Y-33866D01*
X10828Y-34637D01*
X10792Y-34549D01*
X10724Y-34482D01*
X10637Y-34446D01*
X10541Y-34445D01*
X10540Y-34446D01*
X10480Y-34505D01*
X10480Y-34702D01*
X10480Y-34724D01*
X10480Y-34764D01*
X10480Y-34899D01*
X10480Y-34921D01*
X10480Y-34961D01*
X10480Y-34982D01*
X10480Y-35096D01*
X10480Y-35118D01*
X10480Y-35158D01*
X10480Y-35179D01*
X10480Y-35315D01*
X10480Y-35355D01*
X10480Y-35362D01*
X10441Y-35362D01*
X10441Y-35355D01*
X10441Y-35315D01*
X10441Y-35179D01*
X10441Y-35158D01*
X10441Y-35118D01*
X10441Y-35096D01*
X10441Y-34982D01*
X10441Y-34961D01*
X10441Y-34921D01*
X10441Y-34899D01*
X10441Y-34764D01*
X10441Y-34724D01*
X10441Y-34702D01*
X10441Y-34505D01*
X10381Y-34446D01*
X10380Y-34445D01*
X10285Y-34446D01*
X10197Y-34482D01*
X10132Y-34547D01*
X10108Y-34547D01*
X9852Y-34547D01*
X9805Y-34567D01*
X9365Y-34567D01*
X9297Y-34580D01*
X9240Y-34619D01*
X9002Y-34857D01*
X9002Y-34048D01*
X9113Y-33937D01*
X9805Y-33937D01*
X9852Y-33957D01*
X9907Y-33957D01*
X10132Y-33957D01*
X10197Y-34022D01*
X10285Y-34058D01*
X10380Y-34058D01*
X10381Y-34058D01*
X10441Y-33999D01*
X10441Y-33802D01*
X10441Y-33780D01*
X10441Y-33740D01*
X10441Y-33605D01*
X10441Y-33583D01*
X10441Y-33543D01*
X10441Y-33522D01*
X10441Y-33408D01*
X10441Y-33386D01*
X10441Y-33346D01*
X10441Y-33325D01*
X10441Y-33189D01*
X10441Y-33149D01*
X10441Y-33128D01*
X10441Y-32931D01*
X10381Y-32871D01*
X10380Y-32871D01*
X10285Y-32871D01*
X10197Y-32907D01*
X10132Y-32972D01*
X10108Y-32972D01*
X9852Y-32972D01*
X9805Y-32992D01*
X8955Y-32992D01*
X8887Y-33005D01*
X8830Y-33044D01*
X8224Y-33649D01*
X8186Y-33707D01*
X8172Y-33775D01*
X8172Y-39845D01*
X8186Y-39912D01*
X8224Y-39970D01*
X9539Y-41285D01*
X9539Y-41285D01*
X9597Y-41323D01*
X9664Y-41337D01*
X9665Y-41337D01*
X11104Y-41337D01*
X10991Y-41382D01*
X10979Y-41390D01*
X10937Y-41500D01*
X11366Y-41928D01*
X11794Y-41500D01*
X11753Y-41390D01*
X11627Y-41337D01*
X12817Y-41337D01*
X12794Y-41360D01*
X12728Y-41519D01*
X12728Y-41692D01*
X12793Y-41851D01*
X12915Y-41973D01*
X13074Y-42039D01*
X13095Y-42039D01*
X13028Y-42199D01*
X13027Y-42411D01*
X13108Y-42608D01*
X13110Y-42611D01*
X13206Y-42636D01*
X13535Y-42307D01*
X13529Y-42301D01*
X13557Y-42273D01*
X13562Y-42279D01*
X13568Y-42273D01*
X13596Y-42301D01*
X13590Y-42307D01*
X13919Y-42636D01*
X14015Y-42611D01*
X14027Y-42581D01*
X14120Y-42674D01*
X14279Y-42740D01*
X14451Y-42740D01*
X14611Y-42674D01*
X14703Y-42582D01*
X14714Y-42608D01*
X14716Y-42611D01*
X14812Y-42636D01*
X15141Y-42307D01*
X15135Y-42301D01*
X15163Y-42273D01*
X15169Y-42279D01*
X15174Y-42273D01*
X15202Y-42301D01*
X15197Y-42307D01*
X15526Y-42636D01*
X15621Y-42611D01*
X15634Y-42581D01*
X15726Y-42674D01*
X15885Y-42740D01*
X16058Y-42740D01*
X16217Y-42674D01*
X16339Y-42552D01*
X16405Y-42393D01*
X16405Y-42221D01*
X16339Y-42061D01*
X16218Y-41939D01*
X16059Y-41873D01*
X15916Y-41873D01*
X15937Y-41852D01*
X16004Y-41692D01*
X16004Y-41520D01*
X15938Y-41361D01*
X15816Y-41239D01*
X15657Y-41173D01*
X15485Y-41172D01*
X15452Y-41186D01*
X14962Y-40697D01*
X20251Y-40697D01*
X20792Y-41237D01*
X20790Y-41238D01*
X20668Y-41360D01*
X20602Y-41519D01*
X20602Y-41692D01*
X20667Y-41851D01*
X20789Y-41973D01*
X20948Y-42039D01*
X20969Y-42039D01*
X20902Y-42199D01*
X20901Y-42411D01*
X20982Y-42608D01*
X20984Y-42611D01*
X21080Y-42636D01*
X21409Y-42307D01*
X21403Y-42301D01*
X21431Y-42273D01*
X21437Y-42279D01*
X21442Y-42273D01*
X21470Y-42301D01*
X21464Y-42307D01*
X21793Y-42636D01*
X21889Y-42611D01*
X21901Y-42581D01*
X21994Y-42674D01*
X22153Y-42740D01*
X22325Y-42740D01*
X22485Y-42674D01*
X22578Y-42582D01*
X22588Y-42608D01*
X22590Y-42611D01*
X22686Y-42636D01*
X23015Y-42307D01*
X23009Y-42301D01*
X23037Y-42273D01*
X23043Y-42279D01*
X23048Y-42273D01*
X23076Y-42301D01*
X23071Y-42307D01*
X23400Y-42636D01*
X23495Y-42611D01*
X23508Y-42581D01*
X23600Y-42674D01*
X23759Y-42740D01*
X23932Y-42740D01*
X24091Y-42674D01*
X24213Y-42552D01*
X24279Y-42393D01*
X24279Y-42221D01*
X24214Y-42061D01*
X24092Y-41939D01*
X23933Y-41873D01*
X23790Y-41873D01*
X23811Y-41852D01*
X23840Y-41783D01*
X24583Y-41783D01*
X24651Y-41769D01*
X24651Y-41769D01*
X24708Y-41731D01*
X26385Y-40054D01*
X28094Y-40054D01*
X28529Y-40490D01*
X28587Y-40528D01*
X28587Y-40528D01*
X28655Y-40542D01*
X29175Y-40542D01*
X29242Y-40528D01*
X29242Y-40528D01*
X29300Y-40490D01*
X29327Y-40462D01*
X29341Y-40495D01*
X29418Y-40573D01*
X29519Y-40615D01*
X29553Y-40615D01*
X28996Y-41173D01*
X28996Y-41173D01*
X28823Y-41172D01*
X28664Y-41238D01*
X28542Y-41360D01*
X28476Y-41519D01*
X28476Y-41692D01*
X28541Y-41851D01*
X28663Y-41973D01*
X28822Y-42039D01*
X28843Y-42039D01*
X28776Y-42199D01*
X28775Y-42411D01*
X28856Y-42608D01*
X28858Y-42611D01*
X28954Y-42636D01*
X29283Y-42307D01*
X29277Y-42301D01*
X29305Y-42273D01*
X29311Y-42279D01*
X29316Y-42273D01*
X29344Y-42301D01*
X29338Y-42307D01*
X29667Y-42636D01*
X29763Y-42611D01*
X29775Y-42581D01*
X29868Y-42674D01*
X30027Y-42740D01*
X30199Y-42740D01*
X30359Y-42674D01*
X30452Y-42582D01*
X30462Y-42608D01*
X30464Y-42611D01*
X30560Y-42636D01*
X30889Y-42307D01*
X30883Y-42301D01*
X30911Y-42273D01*
X30917Y-42279D01*
X30922Y-42273D01*
X30950Y-42301D01*
X30945Y-42307D01*
X31274Y-42636D01*
X31369Y-42611D01*
X31382Y-42581D01*
X31474Y-42674D01*
X31633Y-42740D01*
X31806Y-42740D01*
X31965Y-42674D01*
X32087Y-42552D01*
X32153Y-42393D01*
X32153Y-42221D01*
X32088Y-42061D01*
X31966Y-41939D01*
X31807Y-41873D01*
X31664Y-41873D01*
X31686Y-41852D01*
X31752Y-41692D01*
X31752Y-41520D01*
X31712Y-41423D01*
X32293Y-40842D01*
X37277Y-40842D01*
X36923Y-41195D01*
X36870Y-41173D01*
X36697Y-41172D01*
X36538Y-41238D01*
X36416Y-41360D01*
X36350Y-41519D01*
X36350Y-41692D01*
X36415Y-41851D01*
X36537Y-41973D01*
X36696Y-42039D01*
X36717Y-42039D01*
X36650Y-42199D01*
X36649Y-42411D01*
X36730Y-42608D01*
X36732Y-42611D01*
X36828Y-42636D01*
X37157Y-42307D01*
X37151Y-42301D01*
X37179Y-42273D01*
X37185Y-42279D01*
X37190Y-42273D01*
X37218Y-42301D01*
X37212Y-42307D01*
X37541Y-42636D01*
X37637Y-42611D01*
X37650Y-42581D01*
X37742Y-42674D01*
X37901Y-42740D01*
X38073Y-42740D01*
X38233Y-42674D01*
X38326Y-42582D01*
X38336Y-42608D01*
X38338Y-42611D01*
X38434Y-42636D01*
X38763Y-42307D01*
X38757Y-42301D01*
X38785Y-42273D01*
X38791Y-42279D01*
X38796Y-42273D01*
X38824Y-42301D01*
X38819Y-42307D01*
X39148Y-42636D01*
X39243Y-42611D01*
X39256Y-42581D01*
X39348Y-42674D01*
X39507Y-42740D01*
X39680Y-42740D01*
X39839Y-42674D01*
X39961Y-42552D01*
X40027Y-42393D01*
X40027Y-42221D01*
X39962Y-42061D01*
X39840Y-41939D01*
X39681Y-41873D01*
X39538Y-41873D01*
X39560Y-41852D01*
X39626Y-41692D01*
X39626Y-41520D01*
X39606Y-41472D01*
X40972Y-41472D01*
X40961Y-41500D01*
X41389Y-41928D01*
X41818Y-41500D01*
X41807Y-41472D01*
X43875Y-41472D01*
X43942Y-41458D01*
X43942Y-41458D01*
X44000Y-41420D01*
X44975Y-40445D01*
X44975Y-40445D01*
X44975Y-40445D01*
X45013Y-40387D01*
X45027Y-40320D01*
X45027Y-40320D01*
X45027Y-42768D01*
X44842Y-42583D01*
X44357Y-42382D01*
X43833Y-42381D01*
X43348Y-42582D01*
X42977Y-42952D01*
X42775Y-43437D01*
X42775Y-43961D01*
X42975Y-44446D01*
X43346Y-44818D01*
X43830Y-45019D01*
X44355Y-45019D01*
X44840Y-44819D01*
X45211Y-44448D01*
X45413Y-43964D01*
X45413Y-43439D01*
X45413Y-45501D01*
X42063Y-45501D01*
X42063Y-41830D01*
X41963Y-41581D01*
X41955Y-41569D01*
X41845Y-41528D01*
X41417Y-41956D01*
X41845Y-42385D01*
X41955Y-42343D01*
X42060Y-42097D01*
X42063Y-41830D01*
X42063Y-45501D01*
X41818Y-45501D01*
X41818Y-42412D01*
X41389Y-41984D01*
X41361Y-42012D01*
X41361Y-41956D01*
X40933Y-41528D01*
X40823Y-41569D01*
X40718Y-41815D01*
X40715Y-42083D01*
X40815Y-42331D01*
X40823Y-42343D01*
X40933Y-42385D01*
X41361Y-41956D01*
X41361Y-42012D01*
X40961Y-42412D01*
X40997Y-42507D01*
X40860Y-42450D01*
X40519Y-42450D01*
X40204Y-42580D01*
X39963Y-42821D01*
X39832Y-43136D01*
X39832Y-43476D01*
X39962Y-43791D01*
X40203Y-44032D01*
X40517Y-44163D01*
X40858Y-44163D01*
X41173Y-44033D01*
X41414Y-43792D01*
X41545Y-43478D01*
X41545Y-43137D01*
X41415Y-42822D01*
X41199Y-42606D01*
X41248Y-42627D01*
X41516Y-42630D01*
X41764Y-42530D01*
X41776Y-42522D01*
X41818Y-42412D01*
X41818Y-45501D01*
X39120Y-45501D01*
X39120Y-42664D01*
X38791Y-42334D01*
X38462Y-42664D01*
X38486Y-42759D01*
X38683Y-42841D01*
X38896Y-42842D01*
X39092Y-42761D01*
X39095Y-42759D01*
X39120Y-42664D01*
X39120Y-45501D01*
X37514Y-45501D01*
X37514Y-42664D01*
X37185Y-42334D01*
X36855Y-42664D01*
X36880Y-42759D01*
X37076Y-42841D01*
X37289Y-42842D01*
X37486Y-42761D01*
X37489Y-42759D01*
X37514Y-42664D01*
X37514Y-45501D01*
X36545Y-45501D01*
X36545Y-43137D01*
X36415Y-42822D01*
X36174Y-42581D01*
X35860Y-42450D01*
X35662Y-42450D01*
X35662Y-41830D01*
X35562Y-41581D01*
X35554Y-41569D01*
X35444Y-41528D01*
X35416Y-41556D01*
X35416Y-41500D01*
X35375Y-41390D01*
X35129Y-41285D01*
X34861Y-41282D01*
X34613Y-41382D01*
X34601Y-41390D01*
X34559Y-41500D01*
X34988Y-41928D01*
X35416Y-41500D01*
X35416Y-41556D01*
X35016Y-41956D01*
X35444Y-42385D01*
X35554Y-42343D01*
X35659Y-42097D01*
X35662Y-41830D01*
X35662Y-42450D01*
X35519Y-42450D01*
X35380Y-42507D01*
X35416Y-42412D01*
X34988Y-41984D01*
X34960Y-42012D01*
X34960Y-41956D01*
X34532Y-41528D01*
X34422Y-41569D01*
X34317Y-41815D01*
X34314Y-42083D01*
X34414Y-42331D01*
X34422Y-42343D01*
X34532Y-42385D01*
X34960Y-41956D01*
X34960Y-42012D01*
X34559Y-42412D01*
X34601Y-42522D01*
X34847Y-42627D01*
X35114Y-42630D01*
X35181Y-42603D01*
X34963Y-42821D01*
X34832Y-43136D01*
X34832Y-43476D01*
X34962Y-43791D01*
X35203Y-44032D01*
X35517Y-44163D01*
X35858Y-44163D01*
X36173Y-44033D01*
X36414Y-43792D01*
X36545Y-43478D01*
X36545Y-43137D01*
X36545Y-45501D01*
X34189Y-45501D01*
X34189Y-41830D01*
X34089Y-41581D01*
X34081Y-41569D01*
X33971Y-41528D01*
X33944Y-41556D01*
X33944Y-41500D01*
X33902Y-41390D01*
X33656Y-41285D01*
X33389Y-41282D01*
X33140Y-41382D01*
X33128Y-41390D01*
X33087Y-41500D01*
X33515Y-41928D01*
X33944Y-41500D01*
X33944Y-41556D01*
X33543Y-41956D01*
X33971Y-42385D01*
X34081Y-42343D01*
X34186Y-42097D01*
X34189Y-41830D01*
X34189Y-45501D01*
X33944Y-45501D01*
X33944Y-42412D01*
X33515Y-41984D01*
X33487Y-42012D01*
X33487Y-41956D01*
X33059Y-41528D01*
X32949Y-41569D01*
X32844Y-41815D01*
X32841Y-42083D01*
X32941Y-42331D01*
X32949Y-42343D01*
X33059Y-42385D01*
X33487Y-41956D01*
X33487Y-42012D01*
X33087Y-42412D01*
X33123Y-42507D01*
X32986Y-42450D01*
X32645Y-42450D01*
X32330Y-42580D01*
X32089Y-42821D01*
X31958Y-43136D01*
X31958Y-43476D01*
X32088Y-43791D01*
X32329Y-44032D01*
X32643Y-44163D01*
X32984Y-44163D01*
X33299Y-44033D01*
X33540Y-43792D01*
X33671Y-43478D01*
X33671Y-43137D01*
X33541Y-42822D01*
X33325Y-42606D01*
X33374Y-42627D01*
X33642Y-42630D01*
X33890Y-42530D01*
X33902Y-42522D01*
X33944Y-42412D01*
X33944Y-45501D01*
X31246Y-45501D01*
X31246Y-42664D01*
X30917Y-42334D01*
X30588Y-42664D01*
X30612Y-42759D01*
X30809Y-42841D01*
X31022Y-42842D01*
X31218Y-42761D01*
X31221Y-42759D01*
X31246Y-42664D01*
X31246Y-45501D01*
X29640Y-45501D01*
X29640Y-42664D01*
X29311Y-42334D01*
X28981Y-42664D01*
X29006Y-42759D01*
X29202Y-42841D01*
X29415Y-42842D01*
X29612Y-42761D01*
X29615Y-42759D01*
X29640Y-42664D01*
X29640Y-45501D01*
X28671Y-45501D01*
X28671Y-43137D01*
X28541Y-42822D01*
X28300Y-42581D01*
X27986Y-42450D01*
X27787Y-42450D01*
X27787Y-41830D01*
X27688Y-41581D01*
X27680Y-41569D01*
X27570Y-41528D01*
X27542Y-41556D01*
X27542Y-41500D01*
X27501Y-41390D01*
X27255Y-41285D01*
X26987Y-41282D01*
X26739Y-41382D01*
X26727Y-41390D01*
X26685Y-41500D01*
X27114Y-41928D01*
X27542Y-41500D01*
X27542Y-41556D01*
X27142Y-41956D01*
X27570Y-42385D01*
X27680Y-42343D01*
X27785Y-42097D01*
X27787Y-41830D01*
X27787Y-42450D01*
X27645Y-42450D01*
X27506Y-42507D01*
X27542Y-42412D01*
X27114Y-41984D01*
X27086Y-42012D01*
X27086Y-41956D01*
X26657Y-41528D01*
X26548Y-41569D01*
X26443Y-41815D01*
X26440Y-42083D01*
X26540Y-42331D01*
X26548Y-42343D01*
X26657Y-42385D01*
X27086Y-41956D01*
X27086Y-42012D01*
X26685Y-42412D01*
X26727Y-42522D01*
X26973Y-42627D01*
X27240Y-42630D01*
X27307Y-42603D01*
X27089Y-42821D01*
X26958Y-43136D01*
X26958Y-43476D01*
X27088Y-43791D01*
X27329Y-44032D01*
X27643Y-44163D01*
X27984Y-44163D01*
X28299Y-44033D01*
X28540Y-43792D01*
X28671Y-43478D01*
X28671Y-43137D01*
X28671Y-45501D01*
X26315Y-45501D01*
X26315Y-41830D01*
X26215Y-41581D01*
X26207Y-41569D01*
X26097Y-41528D01*
X26070Y-41556D01*
X26070Y-41500D01*
X26028Y-41390D01*
X25782Y-41285D01*
X25515Y-41282D01*
X25266Y-41382D01*
X25254Y-41390D01*
X25213Y-41500D01*
X25641Y-41928D01*
X26070Y-41500D01*
X26070Y-41556D01*
X25669Y-41956D01*
X26097Y-42385D01*
X26207Y-42343D01*
X26312Y-42097D01*
X26315Y-41830D01*
X26315Y-45501D01*
X26070Y-45501D01*
X26070Y-42412D01*
X25641Y-41984D01*
X25613Y-42012D01*
X25613Y-41956D01*
X25185Y-41528D01*
X25075Y-41569D01*
X24970Y-41815D01*
X24967Y-42083D01*
X25067Y-42331D01*
X25075Y-42343D01*
X25185Y-42385D01*
X25613Y-41956D01*
X25613Y-42012D01*
X25213Y-42412D01*
X25249Y-42507D01*
X25112Y-42450D01*
X24771Y-42450D01*
X24456Y-42580D01*
X24215Y-42821D01*
X24084Y-43136D01*
X24084Y-43476D01*
X24214Y-43791D01*
X24455Y-44032D01*
X24769Y-44163D01*
X25110Y-44163D01*
X25425Y-44033D01*
X25666Y-43792D01*
X25797Y-43478D01*
X25797Y-43137D01*
X25667Y-42822D01*
X25451Y-42606D01*
X25500Y-42627D01*
X25768Y-42630D01*
X26016Y-42530D01*
X26028Y-42522D01*
X26070Y-42412D01*
X26070Y-45501D01*
X23372Y-45501D01*
X23372Y-42664D01*
X23043Y-42334D01*
X22714Y-42664D01*
X22738Y-42759D01*
X22935Y-42841D01*
X23148Y-42842D01*
X23344Y-42761D01*
X23347Y-42759D01*
X23372Y-42664D01*
X23372Y-45501D01*
X21766Y-45501D01*
X21766Y-42664D01*
X21437Y-42334D01*
X21107Y-42664D01*
X21132Y-42759D01*
X21328Y-42841D01*
X21541Y-42842D01*
X21738Y-42761D01*
X21741Y-42759D01*
X21766Y-42664D01*
X21766Y-45501D01*
X20797Y-45501D01*
X20797Y-43137D01*
X20667Y-42822D01*
X20426Y-42581D01*
X20112Y-42450D01*
X19913Y-42450D01*
X19913Y-41830D01*
X19814Y-41581D01*
X19806Y-41569D01*
X19696Y-41528D01*
X19668Y-41556D01*
X19668Y-41500D01*
X19627Y-41390D01*
X19381Y-41285D01*
X19113Y-41282D01*
X18865Y-41382D01*
X18853Y-41390D01*
X18811Y-41500D01*
X19240Y-41928D01*
X19668Y-41500D01*
X19668Y-41556D01*
X19267Y-41956D01*
X19696Y-42385D01*
X19806Y-42343D01*
X19911Y-42097D01*
X19913Y-41830D01*
X19913Y-42450D01*
X19771Y-42450D01*
X19632Y-42507D01*
X19668Y-42412D01*
X19240Y-41984D01*
X19212Y-42012D01*
X19212Y-41956D01*
X18783Y-41528D01*
X18674Y-41569D01*
X18569Y-41815D01*
X18566Y-42083D01*
X18666Y-42331D01*
X18674Y-42343D01*
X18783Y-42385D01*
X19212Y-41956D01*
X19212Y-42012D01*
X18811Y-42412D01*
X18853Y-42522D01*
X19099Y-42627D01*
X19366Y-42630D01*
X19433Y-42603D01*
X19215Y-42821D01*
X19084Y-43136D01*
X19084Y-43476D01*
X19214Y-43791D01*
X19455Y-44032D01*
X19769Y-44163D01*
X20110Y-44163D01*
X20425Y-44033D01*
X20666Y-43792D01*
X20797Y-43478D01*
X20797Y-43137D01*
X20797Y-45501D01*
X18441Y-45501D01*
X18441Y-41830D01*
X18341Y-41581D01*
X18333Y-41569D01*
X18223Y-41528D01*
X18196Y-41556D01*
X18196Y-41500D01*
X18154Y-41390D01*
X17908Y-41285D01*
X17641Y-41282D01*
X17392Y-41382D01*
X17380Y-41390D01*
X17339Y-41500D01*
X17767Y-41928D01*
X18196Y-41500D01*
X18196Y-41556D01*
X17795Y-41956D01*
X18223Y-42385D01*
X18333Y-42343D01*
X18438Y-42097D01*
X18441Y-41830D01*
X18441Y-45501D01*
X18196Y-45501D01*
X18196Y-42412D01*
X17767Y-41984D01*
X17739Y-42012D01*
X17739Y-41956D01*
X17311Y-41528D01*
X17201Y-41569D01*
X17096Y-41815D01*
X17093Y-42083D01*
X17193Y-42331D01*
X17201Y-42343D01*
X17311Y-42385D01*
X17739Y-41956D01*
X17739Y-42012D01*
X17339Y-42412D01*
X17375Y-42507D01*
X17238Y-42450D01*
X16897Y-42450D01*
X16582Y-42580D01*
X16341Y-42821D01*
X16210Y-43136D01*
X16210Y-43476D01*
X16340Y-43791D01*
X16581Y-44032D01*
X16895Y-44163D01*
X17236Y-44163D01*
X17551Y-44033D01*
X17792Y-43792D01*
X17923Y-43478D01*
X17923Y-43137D01*
X17793Y-42822D01*
X17577Y-42606D01*
X17626Y-42627D01*
X17894Y-42630D01*
X18142Y-42530D01*
X18154Y-42522D01*
X18196Y-42412D01*
X18196Y-45501D01*
X15498Y-45501D01*
X15498Y-42664D01*
X15169Y-42334D01*
X14840Y-42664D01*
X14864Y-42759D01*
X15061Y-42841D01*
X15273Y-42842D01*
X15470Y-42761D01*
X15473Y-42759D01*
X15498Y-42664D01*
X15498Y-45501D01*
X13892Y-45501D01*
X13892Y-42664D01*
X13562Y-42334D01*
X13233Y-42664D01*
X13258Y-42759D01*
X13454Y-42841D01*
X13667Y-42842D01*
X13864Y-42761D01*
X13867Y-42759D01*
X13892Y-42664D01*
X13892Y-45501D01*
X12923Y-45501D01*
X12923Y-43137D01*
X12793Y-42822D01*
X12552Y-42581D01*
X12238Y-42450D01*
X12039Y-42450D01*
X12039Y-41830D01*
X11940Y-41581D01*
X11932Y-41569D01*
X11822Y-41528D01*
X11393Y-41956D01*
X11822Y-42385D01*
X11932Y-42343D01*
X12037Y-42097D01*
X12039Y-41830D01*
X12039Y-42450D01*
X11897Y-42450D01*
X11758Y-42507D01*
X11794Y-42412D01*
X11366Y-41984D01*
X11338Y-42012D01*
X11338Y-41956D01*
X10909Y-41528D01*
X10800Y-41569D01*
X10695Y-41815D01*
X10692Y-42083D01*
X10792Y-42331D01*
X10800Y-42343D01*
X10909Y-42385D01*
X11338Y-41956D01*
X11338Y-42012D01*
X10937Y-42412D01*
X10979Y-42522D01*
X11225Y-42627D01*
X11492Y-42630D01*
X11559Y-42603D01*
X11341Y-42821D01*
X11210Y-43136D01*
X11210Y-43476D01*
X11340Y-43791D01*
X11581Y-44032D01*
X11895Y-44163D01*
X12236Y-44163D01*
X12551Y-44033D01*
X12792Y-43792D01*
X12923Y-43478D01*
X12923Y-43137D01*
X12923Y-45501D01*
X9980Y-45501D01*
X9980Y-43439D01*
X9780Y-42954D01*
X9409Y-42583D01*
X8924Y-42382D01*
X8400Y-42381D01*
X7915Y-42582D01*
X7543Y-42952D01*
X7342Y-43437D01*
X7342Y-43961D01*
X7542Y-44446D01*
X7913Y-44818D01*
X8397Y-45019D01*
X8922Y-45019D01*
X9407Y-44819D01*
X9778Y-44448D01*
X9980Y-43964D01*
X9980Y-43439D01*
X9980Y-45501D01*
X6860Y-45501D01*
X6860Y-25984D01*
X6860Y-6466D01*
X45895Y-6466D01*
X45895Y-25984D01*
X45895Y-45501D01*
X45895Y-45501D01*
G37*
G54D28*
X45895Y-45501D02*
X45413Y-45501D01*
X45413Y-43439D01*
X45413Y-8006D01*
X45213Y-7521D01*
X44842Y-7150D01*
X44357Y-6949D01*
X43833Y-6948D01*
X43348Y-7148D01*
X42977Y-7519D01*
X42775Y-8004D01*
X42775Y-8528D01*
X42975Y-9013D01*
X43346Y-9385D01*
X43830Y-9586D01*
X44355Y-9586D01*
X44840Y-9386D01*
X45211Y-9015D01*
X45413Y-8531D01*
X45413Y-8006D01*
X45413Y-43439D01*
X45213Y-42954D01*
X45027Y-42768D01*
X45027Y-40320D01*
X45027Y-35125D01*
X45027Y-33740D01*
X45013Y-33672D01*
X44975Y-33614D01*
X44975Y-33614D01*
X44557Y-33196D01*
X44557Y-28314D01*
X44557Y-23314D01*
X44427Y-22999D01*
X44186Y-22758D01*
X43871Y-22628D01*
X43531Y-22627D01*
X43216Y-22757D01*
X43000Y-22973D01*
X43021Y-22924D01*
X43024Y-22656D01*
X42924Y-22408D01*
X42916Y-22396D01*
X42806Y-22355D01*
X42778Y-22382D01*
X42778Y-22327D01*
X42737Y-22217D01*
X42491Y-22112D01*
X42223Y-22109D01*
X41975Y-22209D01*
X41963Y-22217D01*
X41922Y-22327D01*
X42350Y-22755D01*
X42778Y-22327D01*
X42778Y-22382D01*
X42378Y-22783D01*
X42806Y-23211D01*
X42901Y-23175D01*
X42844Y-23313D01*
X42844Y-23653D01*
X42974Y-23968D01*
X43215Y-24209D01*
X43529Y-24340D01*
X43870Y-24340D01*
X44185Y-24210D01*
X44426Y-23969D01*
X44556Y-23655D01*
X44557Y-23314D01*
X44557Y-28314D01*
X44427Y-27999D01*
X44186Y-27758D01*
X43871Y-27628D01*
X43531Y-27627D01*
X43235Y-27749D01*
X43235Y-26883D01*
X43235Y-25277D01*
X43155Y-25080D01*
X43153Y-25077D01*
X43057Y-25052D01*
X42728Y-25381D01*
X43057Y-25710D01*
X43153Y-25686D01*
X43235Y-25489D01*
X43235Y-25277D01*
X43235Y-26883D01*
X43155Y-26686D01*
X43153Y-26683D01*
X43057Y-26659D01*
X42728Y-26988D01*
X43057Y-27317D01*
X43153Y-27292D01*
X43235Y-27096D01*
X43235Y-26883D01*
X43235Y-27749D01*
X43216Y-27757D01*
X42975Y-27998D01*
X42844Y-28313D01*
X42844Y-28653D01*
X42901Y-28792D01*
X42806Y-28756D01*
X42778Y-28784D01*
X42778Y-28728D01*
X42737Y-28619D01*
X42491Y-28514D01*
X42223Y-28511D01*
X41975Y-28610D01*
X41963Y-28619D01*
X41922Y-28728D01*
X42350Y-29157D01*
X42778Y-28728D01*
X42778Y-28784D01*
X42378Y-29185D01*
X42806Y-29613D01*
X42916Y-29571D01*
X43021Y-29325D01*
X43024Y-29058D01*
X42997Y-28991D01*
X43215Y-29209D01*
X43529Y-29340D01*
X43870Y-29340D01*
X44185Y-29210D01*
X44426Y-28969D01*
X44556Y-28655D01*
X44557Y-28314D01*
X44557Y-33196D01*
X44010Y-32649D01*
X43952Y-32611D01*
X43884Y-32597D01*
X43344Y-32597D01*
X43296Y-32578D01*
X43242Y-32578D01*
X43017Y-32578D01*
X42952Y-32513D01*
X42864Y-32476D01*
X42778Y-32476D01*
X42778Y-29641D01*
X42350Y-29212D01*
X42322Y-29240D01*
X42322Y-29185D01*
X41894Y-28756D01*
X41784Y-28798D01*
X41679Y-29044D01*
X41676Y-29311D01*
X41776Y-29559D01*
X41784Y-29571D01*
X41894Y-29613D01*
X42322Y-29185D01*
X42322Y-29240D01*
X41922Y-29641D01*
X41963Y-29751D01*
X42209Y-29856D01*
X42477Y-29858D01*
X42725Y-29759D01*
X42737Y-29751D01*
X42778Y-29641D01*
X42778Y-32476D01*
X42768Y-32476D01*
X42767Y-32476D01*
X42708Y-32536D01*
X42708Y-32733D01*
X42708Y-32755D01*
X42708Y-32794D01*
X42708Y-32930D01*
X42708Y-32952D01*
X42708Y-32991D01*
X42708Y-33013D01*
X42708Y-33127D01*
X42708Y-33149D01*
X42708Y-33188D01*
X42708Y-33210D01*
X42708Y-33346D01*
X42708Y-33385D01*
X42708Y-33407D01*
X42708Y-33604D01*
X42767Y-33664D01*
X42768Y-33664D01*
X42864Y-33664D01*
X42952Y-33627D01*
X43017Y-33562D01*
X43040Y-33562D01*
X43296Y-33562D01*
X43344Y-33543D01*
X43734Y-33543D01*
X44200Y-34009D01*
X44200Y-34729D01*
X43694Y-34224D01*
X43637Y-34185D01*
X43569Y-34172D01*
X43344Y-34172D01*
X43296Y-34152D01*
X43242Y-34152D01*
X43017Y-34152D01*
X42952Y-34087D01*
X42864Y-34051D01*
X42768Y-34051D01*
X42767Y-34051D01*
X42708Y-34111D01*
X42708Y-34308D01*
X42708Y-34329D01*
X42708Y-34369D01*
X42708Y-34505D01*
X42708Y-34526D01*
X42708Y-34566D01*
X42708Y-34588D01*
X42708Y-34702D01*
X42708Y-34723D01*
X42708Y-34763D01*
X42708Y-34785D01*
X42708Y-34920D01*
X42708Y-34960D01*
X42708Y-34982D01*
X42708Y-35179D01*
X42767Y-35239D01*
X42768Y-35239D01*
X42864Y-35238D01*
X42952Y-35202D01*
X43017Y-35137D01*
X43040Y-35137D01*
X43296Y-35137D01*
X43344Y-35117D01*
X43419Y-35117D01*
X43570Y-35269D01*
X43570Y-39790D01*
X43345Y-40015D01*
X41865Y-40015D01*
X42270Y-39610D01*
X42308Y-39552D01*
X42322Y-39485D01*
X42322Y-38700D01*
X42544Y-38922D01*
X42544Y-39009D01*
X42586Y-39110D01*
X42663Y-39188D01*
X42764Y-39230D01*
X42874Y-39230D01*
X42975Y-39188D01*
X43053Y-39111D01*
X43095Y-39010D01*
X43095Y-38900D01*
X43053Y-38799D01*
X42976Y-38721D01*
X42875Y-38679D01*
X42802Y-38679D01*
X42668Y-38545D01*
X42668Y-35179D01*
X42668Y-34982D01*
X42668Y-34960D01*
X42668Y-34920D01*
X42668Y-34785D01*
X42668Y-34763D01*
X42668Y-34723D01*
X42668Y-34702D01*
X42668Y-34588D01*
X42668Y-34566D01*
X42668Y-34526D01*
X42668Y-34505D01*
X42668Y-34369D01*
X42668Y-34329D01*
X42668Y-34308D01*
X42668Y-34111D01*
X42668Y-33604D01*
X42668Y-33407D01*
X42668Y-33385D01*
X42668Y-33346D01*
X42668Y-33210D01*
X42668Y-33188D01*
X42668Y-33149D01*
X42668Y-33127D01*
X42668Y-33013D01*
X42668Y-32991D01*
X42668Y-32952D01*
X42668Y-32930D01*
X42668Y-32794D01*
X42668Y-32755D01*
X42668Y-32733D01*
X42668Y-32536D01*
X42608Y-32476D01*
X42607Y-32476D01*
X42512Y-32476D01*
X42424Y-32513D01*
X42357Y-32580D01*
X42320Y-32668D01*
X42321Y-32695D01*
X42380Y-32754D01*
X42357Y-32777D01*
X42328Y-32846D01*
X42321Y-32854D01*
X42320Y-32865D01*
X42320Y-32865D01*
X42320Y-32873D01*
X42320Y-32881D01*
X42320Y-32881D01*
X42321Y-32892D01*
X42328Y-32900D01*
X42357Y-32969D01*
X42359Y-32971D01*
X42357Y-32974D01*
X42328Y-33043D01*
X42321Y-33051D01*
X42320Y-33062D01*
X42320Y-33062D01*
X42320Y-33070D01*
X42320Y-33078D01*
X42320Y-33078D01*
X42321Y-33089D01*
X42328Y-33097D01*
X42357Y-33166D01*
X42359Y-33168D01*
X42357Y-33171D01*
X42328Y-33240D01*
X42321Y-33248D01*
X42320Y-33259D01*
X42320Y-33259D01*
X42320Y-33267D01*
X42320Y-33275D01*
X42320Y-33275D01*
X42321Y-33286D01*
X42328Y-33294D01*
X42357Y-33363D01*
X42380Y-33386D01*
X42321Y-33445D01*
X42320Y-33472D01*
X42357Y-33560D01*
X42424Y-33627D01*
X42512Y-33664D01*
X42607Y-33664D01*
X42608Y-33664D01*
X42668Y-33604D01*
X42668Y-34111D01*
X42608Y-34051D01*
X42607Y-34051D01*
X42512Y-34051D01*
X42424Y-34087D01*
X42357Y-34155D01*
X42320Y-34243D01*
X42321Y-34270D01*
X42380Y-34329D01*
X42357Y-34352D01*
X42328Y-34421D01*
X42321Y-34429D01*
X42320Y-34440D01*
X42320Y-34440D01*
X42320Y-34448D01*
X42320Y-34456D01*
X42320Y-34456D01*
X42321Y-34467D01*
X42328Y-34474D01*
X42357Y-34544D01*
X42359Y-34546D01*
X42357Y-34549D01*
X42328Y-34618D01*
X42321Y-34626D01*
X42320Y-34637D01*
X42320Y-34637D01*
X42320Y-34645D01*
X42320Y-34653D01*
X42320Y-34653D01*
X42321Y-34664D01*
X42328Y-34671D01*
X42357Y-34741D01*
X42359Y-34743D01*
X42357Y-34746D01*
X42328Y-34815D01*
X42321Y-34823D01*
X42320Y-34834D01*
X42320Y-34834D01*
X42320Y-34842D01*
X42320Y-34850D01*
X42320Y-34850D01*
X42321Y-34861D01*
X42328Y-34868D01*
X42357Y-34938D01*
X42380Y-34960D01*
X42321Y-35020D01*
X42320Y-35047D01*
X42357Y-35135D01*
X42424Y-35202D01*
X42512Y-35238D01*
X42607Y-35239D01*
X42608Y-35239D01*
X42668Y-35179D01*
X42668Y-38545D01*
X42282Y-38158D01*
X42282Y-36190D01*
X42268Y-36123D01*
X42230Y-36065D01*
X42230Y-36065D01*
X37779Y-31615D01*
X37779Y-24093D01*
X37766Y-24025D01*
X37727Y-23968D01*
X33366Y-19607D01*
X34986Y-19607D01*
X41288Y-25908D01*
X41345Y-25947D01*
X41413Y-25960D01*
X41604Y-25960D01*
X41632Y-26028D01*
X41754Y-26150D01*
X41837Y-26185D01*
X41754Y-26219D01*
X41632Y-26340D01*
X41566Y-26500D01*
X41566Y-26672D01*
X41632Y-26831D01*
X41754Y-26953D01*
X41837Y-26988D01*
X41754Y-27022D01*
X41632Y-27144D01*
X41566Y-27303D01*
X41566Y-27475D01*
X41632Y-27634D01*
X41754Y-27756D01*
X41913Y-27822D01*
X42085Y-27823D01*
X42245Y-27757D01*
X42367Y-27635D01*
X42433Y-27476D01*
X42433Y-27456D01*
X42592Y-27522D01*
X42805Y-27523D01*
X43002Y-27442D01*
X43005Y-27440D01*
X43029Y-27345D01*
X42700Y-27016D01*
X42695Y-27021D01*
X42667Y-26993D01*
X42672Y-26988D01*
X42667Y-26982D01*
X42695Y-26954D01*
X42700Y-26960D01*
X43029Y-26631D01*
X43005Y-26535D01*
X42975Y-26523D01*
X43067Y-26430D01*
X43134Y-26271D01*
X43134Y-26099D01*
X43068Y-25939D01*
X42975Y-25847D01*
X43002Y-25836D01*
X43005Y-25834D01*
X43029Y-25738D01*
X42700Y-25409D01*
X42695Y-25415D01*
X42667Y-25387D01*
X42672Y-25381D01*
X42667Y-25376D01*
X42695Y-25348D01*
X42700Y-25354D01*
X43029Y-25024D01*
X43005Y-24929D01*
X42975Y-24916D01*
X43067Y-24824D01*
X43134Y-24665D01*
X43134Y-24492D01*
X43068Y-24333D01*
X42946Y-24211D01*
X42787Y-24145D01*
X42778Y-24145D01*
X42778Y-23239D01*
X42350Y-22811D01*
X41922Y-23239D01*
X41963Y-23349D01*
X42209Y-23454D01*
X42477Y-23457D01*
X42725Y-23357D01*
X42737Y-23349D01*
X42778Y-23239D01*
X42778Y-24145D01*
X42614Y-24145D01*
X42455Y-24211D01*
X42333Y-24332D01*
X42267Y-24492D01*
X42267Y-24634D01*
X42245Y-24613D01*
X42086Y-24547D01*
X41914Y-24546D01*
X41754Y-24612D01*
X41632Y-24734D01*
X41577Y-24868D01*
X41577Y-22828D01*
X41678Y-22727D01*
X41676Y-22910D01*
X41776Y-23158D01*
X41784Y-23170D01*
X41894Y-23211D01*
X42322Y-22783D01*
X41894Y-22355D01*
X41787Y-22395D01*
X41787Y-20495D01*
X41773Y-20427D01*
X41735Y-20369D01*
X41310Y-19944D01*
X41252Y-19906D01*
X41185Y-19892D01*
X41121Y-19892D01*
X41121Y-7657D01*
X41035Y-7447D01*
X41032Y-7442D01*
X40933Y-7413D01*
X40905Y-7441D01*
X40905Y-7385D01*
X40876Y-7286D01*
X40667Y-7198D01*
X40440Y-7197D01*
X40231Y-7283D01*
X40226Y-7286D01*
X40197Y-7385D01*
X40551Y-7739D01*
X40905Y-7385D01*
X40905Y-7441D01*
X40579Y-7767D01*
X40933Y-8121D01*
X41032Y-8092D01*
X41119Y-7884D01*
X41121Y-7657D01*
X41121Y-19892D01*
X41019Y-19892D01*
X41019Y-8675D01*
X40947Y-8503D01*
X40816Y-8371D01*
X40698Y-8322D01*
X40871Y-8252D01*
X40876Y-8248D01*
X40905Y-8149D01*
X40551Y-7795D01*
X40523Y-7823D01*
X40523Y-7767D01*
X40169Y-7413D01*
X40070Y-7442D01*
X39982Y-7651D01*
X39981Y-7877D01*
X40066Y-8087D01*
X40070Y-8092D01*
X40169Y-8121D01*
X40523Y-7767D01*
X40523Y-7823D01*
X40197Y-8149D01*
X40226Y-8248D01*
X40402Y-8322D01*
X40286Y-8370D01*
X40154Y-8502D01*
X40083Y-8674D01*
X40083Y-8860D01*
X40119Y-8948D01*
X38168Y-10899D01*
X38168Y-7657D01*
X38082Y-7447D01*
X38079Y-7442D01*
X37980Y-7413D01*
X37952Y-7441D01*
X37952Y-7385D01*
X37923Y-7286D01*
X37714Y-7198D01*
X37488Y-7197D01*
X37278Y-7283D01*
X37273Y-7286D01*
X37244Y-7385D01*
X37598Y-7739D01*
X37952Y-7385D01*
X37952Y-7441D01*
X37626Y-7767D01*
X37980Y-8121D01*
X38079Y-8092D01*
X38167Y-7884D01*
X38168Y-7657D01*
X38168Y-10899D01*
X37265Y-11802D01*
X37097Y-11802D01*
X37086Y-11773D01*
X37047Y-11734D01*
X36996Y-11713D01*
X36941Y-11713D01*
X36890Y-11713D01*
X36890Y-9726D01*
X37417Y-9199D01*
X37504Y-9235D01*
X37691Y-9235D01*
X37863Y-9164D01*
X37994Y-9033D01*
X38066Y-8861D01*
X38066Y-8675D01*
X37995Y-8503D01*
X37863Y-8371D01*
X37745Y-8322D01*
X37918Y-8252D01*
X37923Y-8248D01*
X37952Y-8149D01*
X37598Y-7795D01*
X37570Y-7823D01*
X37570Y-7767D01*
X37216Y-7413D01*
X37117Y-7442D01*
X37029Y-7651D01*
X37028Y-7877D01*
X37114Y-8087D01*
X37117Y-8092D01*
X37216Y-8121D01*
X37570Y-7767D01*
X37570Y-7823D01*
X37244Y-8149D01*
X37273Y-8248D01*
X37449Y-8322D01*
X37333Y-8370D01*
X37202Y-8502D01*
X37130Y-8674D01*
X37130Y-8860D01*
X37167Y-8948D01*
X36587Y-9527D01*
X36549Y-9585D01*
X36536Y-9652D01*
X36536Y-10407D01*
X35215Y-9087D01*
X35215Y-7657D01*
X35130Y-7447D01*
X35126Y-7442D01*
X35027Y-7413D01*
X34999Y-7441D01*
X34999Y-7385D01*
X34970Y-7286D01*
X34761Y-7198D01*
X34535Y-7197D01*
X34325Y-7283D01*
X34320Y-7286D01*
X34291Y-7385D01*
X34645Y-7739D01*
X34999Y-7385D01*
X34999Y-7441D01*
X34673Y-7767D01*
X35027Y-8121D01*
X35126Y-8092D01*
X35214Y-7884D01*
X35215Y-7657D01*
X35215Y-9087D01*
X35077Y-8948D01*
X35113Y-8861D01*
X35113Y-8675D01*
X35042Y-8503D01*
X34911Y-8371D01*
X34793Y-8322D01*
X34965Y-8252D01*
X34970Y-8248D01*
X34999Y-8149D01*
X34645Y-7795D01*
X34617Y-7823D01*
X34617Y-7767D01*
X34263Y-7413D01*
X34164Y-7442D01*
X34076Y-7651D01*
X34075Y-7877D01*
X34161Y-8087D01*
X34164Y-8092D01*
X34263Y-8121D01*
X34617Y-7767D01*
X34617Y-7823D01*
X34291Y-8149D01*
X34320Y-8248D01*
X34497Y-8322D01*
X34381Y-8370D01*
X34249Y-8502D01*
X34177Y-8674D01*
X34177Y-8860D01*
X34248Y-9032D01*
X34380Y-9164D01*
X34552Y-9235D01*
X34738Y-9235D01*
X34826Y-9199D01*
X36339Y-10711D01*
X36339Y-11713D01*
X36232Y-11713D01*
X36182Y-11734D01*
X36143Y-11773D01*
X36131Y-11802D01*
X34978Y-11802D01*
X32262Y-9087D01*
X32262Y-7657D01*
X32177Y-7447D01*
X32173Y-7442D01*
X32074Y-7413D01*
X32046Y-7441D01*
X32046Y-7385D01*
X32018Y-7286D01*
X31809Y-7198D01*
X31582Y-7197D01*
X31372Y-7283D01*
X31367Y-7286D01*
X31338Y-7385D01*
X31692Y-7739D01*
X32046Y-7385D01*
X32046Y-7441D01*
X31720Y-7767D01*
X32074Y-8121D01*
X32173Y-8092D01*
X32261Y-7884D01*
X32262Y-7657D01*
X32262Y-9087D01*
X32124Y-8948D01*
X32160Y-8861D01*
X32160Y-8675D01*
X32089Y-8503D01*
X31958Y-8371D01*
X31840Y-8322D01*
X32012Y-8252D01*
X32018Y-8248D01*
X32046Y-8149D01*
X31692Y-7795D01*
X31665Y-7823D01*
X31665Y-7767D01*
X31311Y-7413D01*
X31211Y-7442D01*
X31124Y-7651D01*
X31122Y-7877D01*
X31208Y-8087D01*
X31211Y-8092D01*
X31311Y-8121D01*
X31665Y-7767D01*
X31665Y-7823D01*
X31338Y-8149D01*
X31367Y-8248D01*
X31544Y-8322D01*
X31428Y-8370D01*
X31296Y-8502D01*
X31225Y-8674D01*
X31225Y-8860D01*
X31296Y-9032D01*
X31427Y-9164D01*
X31599Y-9235D01*
X31785Y-9235D01*
X31873Y-9199D01*
X34779Y-12104D01*
X34837Y-12143D01*
X34904Y-12156D01*
X36131Y-12156D01*
X36143Y-12185D01*
X36163Y-12206D01*
X36143Y-12226D01*
X36131Y-12255D01*
X35756Y-12255D01*
X35688Y-12269D01*
X35630Y-12307D01*
X32243Y-15695D01*
X30252Y-15695D01*
X30252Y-9885D01*
X30152Y-9636D01*
X30144Y-9624D01*
X30034Y-9583D01*
X30007Y-9611D01*
X30007Y-9555D01*
X29965Y-9445D01*
X29719Y-9340D01*
X29452Y-9337D01*
X29385Y-9364D01*
X29603Y-9147D01*
X29734Y-8832D01*
X29734Y-8491D01*
X29604Y-8176D01*
X29363Y-7935D01*
X29049Y-7805D01*
X28708Y-7804D01*
X28393Y-7935D01*
X28152Y-8175D01*
X28021Y-8490D01*
X28021Y-8830D01*
X28151Y-9145D01*
X28392Y-9386D01*
X28706Y-9517D01*
X29047Y-9517D01*
X29186Y-9460D01*
X29150Y-9555D01*
X29578Y-9983D01*
X30007Y-9555D01*
X30007Y-9611D01*
X29606Y-10011D01*
X30034Y-10440D01*
X30144Y-10398D01*
X30249Y-10152D01*
X30252Y-9885D01*
X30252Y-15695D01*
X30007Y-15695D01*
X30007Y-10467D01*
X29578Y-10039D01*
X29550Y-10067D01*
X29550Y-10011D01*
X29122Y-9583D01*
X29012Y-9624D01*
X28907Y-9870D01*
X28904Y-10138D01*
X29004Y-10386D01*
X29012Y-10398D01*
X29122Y-10440D01*
X29550Y-10011D01*
X29550Y-10067D01*
X29150Y-10467D01*
X29191Y-10577D01*
X29437Y-10682D01*
X29705Y-10685D01*
X29953Y-10585D01*
X29965Y-10577D01*
X30007Y-10467D01*
X30007Y-15695D01*
X28040Y-15695D01*
X27983Y-15639D01*
X27882Y-15596D01*
X27802Y-15596D01*
X27244Y-15039D01*
X27244Y-14977D01*
X27244Y-14603D01*
X27264Y-14556D01*
X27264Y-14501D01*
X27264Y-14245D01*
X27243Y-14195D01*
X27223Y-14174D01*
X27243Y-14154D01*
X27264Y-14103D01*
X27264Y-14048D01*
X27264Y-13792D01*
X27244Y-13745D01*
X27244Y-11151D01*
X27628Y-10767D01*
X27696Y-10795D01*
X27869Y-10795D01*
X28028Y-10729D01*
X28150Y-10607D01*
X28216Y-10448D01*
X28216Y-10276D01*
X28151Y-10117D01*
X28029Y-9995D01*
X27870Y-9928D01*
X27849Y-9928D01*
X27916Y-9769D01*
X27917Y-9556D01*
X27836Y-9359D01*
X27834Y-9357D01*
X27738Y-9332D01*
X27710Y-9360D01*
X27710Y-9304D01*
X27686Y-9208D01*
X27489Y-9126D01*
X27277Y-9126D01*
X27080Y-9207D01*
X27077Y-9208D01*
X27052Y-9304D01*
X27381Y-9633D01*
X27710Y-9304D01*
X27710Y-9360D01*
X27409Y-9661D01*
X27415Y-9666D01*
X27387Y-9694D01*
X27381Y-9689D01*
X27376Y-9694D01*
X27348Y-9666D01*
X27354Y-9661D01*
X27024Y-9332D01*
X26929Y-9357D01*
X26916Y-9386D01*
X26824Y-9294D01*
X26665Y-9228D01*
X26492Y-9228D01*
X26333Y-9293D01*
X26240Y-9386D01*
X26229Y-9359D01*
X26228Y-9357D01*
X26132Y-9332D01*
X26104Y-9360D01*
X26104Y-9304D01*
X26080Y-9208D01*
X25883Y-9126D01*
X25670Y-9126D01*
X25474Y-9207D01*
X25471Y-9208D01*
X25446Y-9304D01*
X25775Y-9633D01*
X26104Y-9304D01*
X26104Y-9360D01*
X25803Y-9661D01*
X25808Y-9666D01*
X25781Y-9694D01*
X25775Y-9689D01*
X25770Y-9694D01*
X25742Y-9666D01*
X25747Y-9661D01*
X25418Y-9332D01*
X25323Y-9357D01*
X25310Y-9386D01*
X25218Y-9294D01*
X25059Y-9228D01*
X24886Y-9228D01*
X24734Y-9290D01*
X24734Y-8491D01*
X24604Y-8176D01*
X24363Y-7935D01*
X24049Y-7805D01*
X23708Y-7804D01*
X23393Y-7935D01*
X23152Y-8175D01*
X23021Y-8490D01*
X23021Y-8830D01*
X23151Y-9145D01*
X23367Y-9361D01*
X23318Y-9340D01*
X23050Y-9337D01*
X22802Y-9437D01*
X22790Y-9445D01*
X22748Y-9555D01*
X23177Y-9983D01*
X23605Y-9555D01*
X23569Y-9460D01*
X23706Y-9517D01*
X24047Y-9517D01*
X24362Y-9387D01*
X24603Y-9147D01*
X24734Y-8832D01*
X24734Y-8491D01*
X24734Y-9290D01*
X24727Y-9293D01*
X24605Y-9415D01*
X24539Y-9574D01*
X24539Y-9747D01*
X24604Y-9906D01*
X24726Y-10028D01*
X24885Y-10094D01*
X25028Y-10094D01*
X25006Y-10116D01*
X24940Y-10275D01*
X24940Y-10448D01*
X25006Y-10607D01*
X25128Y-10729D01*
X25287Y-10795D01*
X25459Y-10795D01*
X25528Y-10767D01*
X26299Y-11538D01*
X26299Y-13745D01*
X26279Y-13792D01*
X26279Y-13847D01*
X26279Y-14103D01*
X26300Y-14154D01*
X26321Y-14174D01*
X26300Y-14195D01*
X26279Y-14245D01*
X26279Y-14300D01*
X26279Y-14556D01*
X26299Y-14604D01*
X26299Y-15189D01*
X26005Y-15484D01*
X25925Y-15484D01*
X25824Y-15526D01*
X25746Y-15603D01*
X25704Y-15704D01*
X25704Y-15814D01*
X25746Y-15915D01*
X25823Y-15993D01*
X25924Y-16035D01*
X26034Y-16035D01*
X26042Y-16032D01*
X26209Y-16200D01*
X26267Y-16238D01*
X26335Y-16252D01*
X26713Y-16252D01*
X27049Y-16587D01*
X27106Y-16626D01*
X27106Y-16626D01*
X27174Y-16639D01*
X33152Y-16639D01*
X33220Y-16626D01*
X33220Y-16626D01*
X33278Y-16587D01*
X37035Y-12830D01*
X37035Y-12830D01*
X37035Y-12830D01*
X37073Y-12773D01*
X37087Y-12705D01*
X37087Y-12705D01*
X37087Y-12635D01*
X37106Y-12588D01*
X37106Y-12533D01*
X37106Y-12277D01*
X37086Y-12226D01*
X37065Y-12206D01*
X37085Y-12185D01*
X37097Y-12156D01*
X37339Y-12156D01*
X37406Y-12143D01*
X37406Y-12143D01*
X37464Y-12104D01*
X40370Y-9199D01*
X40457Y-9235D01*
X40643Y-9235D01*
X40815Y-9164D01*
X40947Y-9033D01*
X41018Y-8861D01*
X41019Y-8675D01*
X41019Y-19892D01*
X40380Y-19892D01*
X40312Y-19906D01*
X40254Y-19944D01*
X40094Y-20104D01*
X40056Y-20162D01*
X40042Y-20230D01*
X40042Y-20535D01*
X40056Y-20602D01*
X40094Y-20660D01*
X40117Y-20682D01*
X40117Y-20726D01*
X40117Y-20951D01*
X40052Y-21016D01*
X40015Y-21104D01*
X40015Y-21199D01*
X40015Y-21200D01*
X40075Y-21260D01*
X40272Y-21260D01*
X40294Y-21260D01*
X40333Y-21260D01*
X40469Y-21260D01*
X40491Y-21260D01*
X40530Y-21260D01*
X40552Y-21260D01*
X40666Y-21260D01*
X40688Y-21260D01*
X40727Y-21260D01*
X40749Y-21260D01*
X40885Y-21260D01*
X40924Y-21260D01*
X40946Y-21260D01*
X41143Y-21260D01*
X41203Y-21200D01*
X41203Y-21199D01*
X41203Y-21104D01*
X41166Y-21016D01*
X41101Y-20951D01*
X41101Y-20927D01*
X41101Y-20671D01*
X41080Y-20621D01*
X41042Y-20582D01*
X40991Y-20561D01*
X40936Y-20561D01*
X40818Y-20561D01*
X40806Y-20566D01*
X40794Y-20561D01*
X40739Y-20561D01*
X40688Y-20561D01*
X40688Y-20546D01*
X40733Y-20501D01*
X40775Y-20400D01*
X40775Y-20290D01*
X40757Y-20247D01*
X41111Y-20247D01*
X41432Y-20568D01*
X41432Y-22471D01*
X41274Y-22629D01*
X41236Y-22687D01*
X41222Y-22755D01*
X41222Y-25215D01*
X41236Y-25282D01*
X41274Y-25340D01*
X41540Y-25606D01*
X41486Y-25606D01*
X41203Y-25322D01*
X41203Y-21360D01*
X41203Y-21359D01*
X41143Y-21299D01*
X40946Y-21299D01*
X40924Y-21299D01*
X40885Y-21299D01*
X40749Y-21299D01*
X40727Y-21299D01*
X40688Y-21299D01*
X40666Y-21299D01*
X40552Y-21299D01*
X40530Y-21299D01*
X40491Y-21299D01*
X40469Y-21299D01*
X40333Y-21299D01*
X40294Y-21299D01*
X40272Y-21299D01*
X40075Y-21299D01*
X40015Y-21359D01*
X40015Y-21360D01*
X40015Y-21455D01*
X40052Y-21543D01*
X40119Y-21611D01*
X40207Y-21647D01*
X40234Y-21647D01*
X40293Y-21588D01*
X40316Y-21611D01*
X40385Y-21639D01*
X40393Y-21647D01*
X40404Y-21647D01*
X40404Y-21647D01*
X40412Y-21647D01*
X40420Y-21647D01*
X40420Y-21647D01*
X40431Y-21647D01*
X40439Y-21639D01*
X40508Y-21611D01*
X40511Y-21608D01*
X40513Y-21611D01*
X40582Y-21639D01*
X40590Y-21647D01*
X40601Y-21647D01*
X40601Y-21647D01*
X40609Y-21647D01*
X40617Y-21647D01*
X40617Y-21647D01*
X40628Y-21647D01*
X40636Y-21639D01*
X40705Y-21611D01*
X40708Y-21608D01*
X40710Y-21611D01*
X40779Y-21639D01*
X40787Y-21647D01*
X40798Y-21647D01*
X40798Y-21647D01*
X40806Y-21647D01*
X40814Y-21647D01*
X40814Y-21647D01*
X40825Y-21647D01*
X40833Y-21639D01*
X40902Y-21611D01*
X40925Y-21588D01*
X40984Y-21647D01*
X41011Y-21647D01*
X41099Y-21611D01*
X41166Y-21543D01*
X41203Y-21455D01*
X41203Y-21360D01*
X41203Y-25322D01*
X35185Y-19304D01*
X35127Y-19266D01*
X35060Y-19252D01*
X32823Y-19252D01*
X32823Y-19181D01*
X32823Y-18776D01*
X32822Y-18680D01*
X32786Y-18592D01*
X32719Y-18525D01*
X32631Y-18489D01*
X32538Y-18489D01*
X32478Y-18549D01*
X32478Y-18959D01*
X32763Y-18959D01*
X32823Y-18899D01*
X32823Y-18776D01*
X32823Y-19181D01*
X32823Y-19058D01*
X32763Y-18998D01*
X32478Y-18998D01*
X32478Y-19006D01*
X32438Y-19006D01*
X32438Y-18998D01*
X32431Y-18998D01*
X32431Y-18959D01*
X32438Y-18959D01*
X32438Y-18549D01*
X32379Y-18489D01*
X32286Y-18489D01*
X32198Y-18525D01*
X32135Y-18588D01*
X32135Y-18378D01*
X32198Y-18316D01*
X32240Y-18215D01*
X32240Y-18105D01*
X32198Y-18004D01*
X32121Y-17926D01*
X32020Y-17884D01*
X31939Y-17884D01*
X31870Y-17814D01*
X31812Y-17776D01*
X31745Y-17762D01*
X24025Y-17762D01*
X23957Y-17776D01*
X23899Y-17814D01*
X23850Y-17863D01*
X23850Y-9885D01*
X23751Y-9636D01*
X23743Y-9624D01*
X23633Y-9583D01*
X23205Y-10011D01*
X23633Y-10440D01*
X23743Y-10398D01*
X23848Y-10152D01*
X23850Y-9885D01*
X23850Y-17863D01*
X23605Y-18108D01*
X23605Y-10467D01*
X23177Y-10039D01*
X23149Y-10067D01*
X23149Y-10011D01*
X22720Y-9583D01*
X22611Y-9624D01*
X22506Y-9870D01*
X22503Y-10138D01*
X22603Y-10386D01*
X22611Y-10398D01*
X22720Y-10440D01*
X23149Y-10011D01*
X23149Y-10067D01*
X22748Y-10467D01*
X22790Y-10577D01*
X23036Y-10682D01*
X23303Y-10685D01*
X23552Y-10585D01*
X23564Y-10577D01*
X23605Y-10467D01*
X23605Y-18108D01*
X23171Y-18542D01*
X23137Y-18593D01*
X23137Y-18593D01*
X23094Y-18611D01*
X23055Y-18650D01*
X23047Y-18670D01*
X23039Y-18650D01*
X23000Y-18611D01*
X22949Y-18590D01*
X22894Y-18590D01*
X22644Y-18590D01*
X22594Y-18611D01*
X22555Y-18650D01*
X22547Y-18670D01*
X22539Y-18650D01*
X22500Y-18611D01*
X22449Y-18590D01*
X22394Y-18590D01*
X22144Y-18590D01*
X22094Y-18611D01*
X22055Y-18650D01*
X22047Y-18670D01*
X22039Y-18650D01*
X22000Y-18611D01*
X21949Y-18590D01*
X21894Y-18590D01*
X21644Y-18590D01*
X21594Y-18611D01*
X21555Y-18650D01*
X21547Y-18670D01*
X21539Y-18650D01*
X21500Y-18611D01*
X21449Y-18590D01*
X21394Y-18590D01*
X21144Y-18590D01*
X21094Y-18611D01*
X21055Y-18650D01*
X21047Y-18670D01*
X21039Y-18650D01*
X21000Y-18611D01*
X20984Y-18605D01*
X21053Y-18536D01*
X21095Y-18435D01*
X21095Y-18325D01*
X21053Y-18224D01*
X20976Y-18146D01*
X20875Y-18104D01*
X20765Y-18104D01*
X20664Y-18146D01*
X20586Y-18223D01*
X20544Y-18324D01*
X20544Y-18434D01*
X20586Y-18535D01*
X20620Y-18569D01*
X20620Y-18588D01*
X20557Y-18525D01*
X20469Y-18489D01*
X20376Y-18489D01*
X20316Y-18549D01*
X20316Y-18959D01*
X20324Y-18959D01*
X20324Y-18998D01*
X20316Y-18998D01*
X20316Y-19006D01*
X20277Y-19006D01*
X20277Y-18998D01*
X20277Y-18959D01*
X20277Y-18549D01*
X20217Y-18489D01*
X20177Y-18489D01*
X20177Y-15728D01*
X20177Y-15629D01*
X20177Y-15629D01*
X20177Y-15078D01*
X20151Y-14950D01*
X20079Y-14842D01*
X19970Y-14769D01*
X19842Y-14744D01*
X19805Y-14744D01*
X19805Y-13430D01*
X19805Y-12985D01*
X19769Y-12897D01*
X19702Y-12829D01*
X19614Y-12793D01*
X19518Y-12793D01*
X19370Y-12793D01*
X19311Y-12853D01*
X19311Y-13187D01*
X19745Y-13187D01*
X19805Y-13128D01*
X19805Y-12985D01*
X19805Y-13430D01*
X19805Y-13287D01*
X19745Y-13227D01*
X19311Y-13227D01*
X19311Y-13562D01*
X19370Y-13622D01*
X19518Y-13622D01*
X19614Y-13622D01*
X19702Y-13585D01*
X19769Y-13518D01*
X19805Y-13430D01*
X19805Y-14744D01*
X19527Y-14744D01*
X19527Y-14270D01*
X19593Y-14270D01*
X19644Y-14249D01*
X19683Y-14210D01*
X19704Y-14160D01*
X19704Y-14105D01*
X19704Y-13755D01*
X19683Y-13704D01*
X19644Y-13665D01*
X19593Y-13644D01*
X19539Y-13644D01*
X19271Y-13644D01*
X19271Y-13562D01*
X19271Y-13227D01*
X19271Y-13187D01*
X19271Y-12853D01*
X19211Y-12793D01*
X19063Y-12793D01*
X18968Y-12793D01*
X18880Y-12829D01*
X18813Y-12897D01*
X18776Y-12985D01*
X18776Y-13128D01*
X18836Y-13187D01*
X19271Y-13187D01*
X19271Y-13227D01*
X18836Y-13227D01*
X18776Y-13287D01*
X18776Y-13430D01*
X18813Y-13518D01*
X18880Y-13585D01*
X18968Y-13622D01*
X19063Y-13622D01*
X19211Y-13622D01*
X19271Y-13562D01*
X19271Y-13644D01*
X18989Y-13644D01*
X18938Y-13665D01*
X18899Y-13704D01*
X18892Y-13721D01*
X18758Y-13721D01*
X18668Y-13739D01*
X18643Y-13756D01*
X18591Y-13790D01*
X18563Y-13818D01*
X18464Y-13799D01*
X18346Y-13799D01*
X18346Y-13799D01*
X18346Y-13799D01*
X17953Y-13799D01*
X17953Y-13712D01*
X17932Y-13662D01*
X17893Y-13623D01*
X17843Y-13602D01*
X17788Y-13602D01*
X17512Y-13602D01*
X17461Y-13623D01*
X17443Y-13641D01*
X17427Y-13603D01*
X17360Y-13536D01*
X17272Y-13500D01*
X17166Y-13500D01*
X17106Y-13560D01*
X17106Y-14133D01*
X17114Y-14133D01*
X17114Y-14172D01*
X17106Y-14172D01*
X17106Y-14377D01*
X17106Y-14746D01*
X17106Y-15078D01*
X17659Y-15078D01*
X17719Y-15018D01*
X17719Y-14604D01*
X17719Y-14508D01*
X17719Y-14507D01*
X17842Y-14507D01*
X17893Y-14487D01*
X17912Y-14468D01*
X18207Y-14468D01*
X19054Y-15315D01*
X19054Y-15315D01*
X19517Y-15778D01*
X19533Y-15856D01*
X19605Y-15964D01*
X19714Y-16037D01*
X19842Y-16062D01*
X19970Y-16037D01*
X20079Y-15964D01*
X20151Y-15856D01*
X20177Y-15728D01*
X20177Y-18489D01*
X20124Y-18489D01*
X20036Y-18525D01*
X19969Y-18592D01*
X19932Y-18680D01*
X19932Y-18776D01*
X19932Y-18899D01*
X19992Y-18959D01*
X20277Y-18959D01*
X20277Y-18998D01*
X19992Y-18998D01*
X19932Y-19058D01*
X19932Y-19181D01*
X19932Y-19276D01*
X19969Y-19364D01*
X19990Y-19385D01*
X19308Y-19385D01*
X19240Y-19398D01*
X19183Y-19437D01*
X19183Y-19437D01*
X19183Y-19437D01*
X17719Y-20900D01*
X17719Y-15592D01*
X17719Y-15177D01*
X17659Y-15117D01*
X17106Y-15117D01*
X17106Y-15819D01*
X17166Y-15879D01*
X17527Y-15879D01*
X17615Y-15842D01*
X17682Y-15775D01*
X17719Y-15687D01*
X17719Y-15592D01*
X17719Y-20900D01*
X17066Y-21553D01*
X17066Y-15819D01*
X17066Y-15117D01*
X17066Y-15078D01*
X17066Y-14746D01*
X17066Y-14377D01*
X17066Y-14172D01*
X17059Y-14172D01*
X17059Y-14133D01*
X17066Y-14133D01*
X17066Y-13560D01*
X17007Y-13500D01*
X16901Y-13500D01*
X16813Y-13536D01*
X16745Y-13603D01*
X16730Y-13641D01*
X16711Y-13623D01*
X16661Y-13602D01*
X16606Y-13602D01*
X16330Y-13602D01*
X16279Y-13623D01*
X16240Y-13661D01*
X16219Y-13712D01*
X16219Y-13767D01*
X16219Y-13799D01*
X15921Y-13799D01*
X15793Y-13824D01*
X15686Y-13895D01*
X15581Y-13790D01*
X15504Y-13739D01*
X15475Y-13733D01*
X15475Y-13430D01*
X15475Y-12985D01*
X15438Y-12897D01*
X15371Y-12829D01*
X15283Y-12793D01*
X15188Y-12793D01*
X15040Y-12793D01*
X14980Y-12853D01*
X14980Y-13187D01*
X15415Y-13187D01*
X15475Y-13128D01*
X15475Y-12985D01*
X15475Y-13430D01*
X15475Y-13287D01*
X15415Y-13227D01*
X14980Y-13227D01*
X14980Y-13562D01*
X15040Y-13622D01*
X15188Y-13622D01*
X15283Y-13622D01*
X15371Y-13585D01*
X15438Y-13518D01*
X15475Y-13430D01*
X15475Y-13733D01*
X15414Y-13721D01*
X15359Y-13721D01*
X15352Y-13704D01*
X15313Y-13665D01*
X15263Y-13644D01*
X15208Y-13644D01*
X14940Y-13644D01*
X14940Y-13562D01*
X14940Y-13227D01*
X14940Y-13187D01*
X14940Y-12853D01*
X14881Y-12793D01*
X14733Y-12793D01*
X14637Y-12793D01*
X14549Y-12829D01*
X14482Y-12897D01*
X14446Y-12985D01*
X14446Y-13128D01*
X14506Y-13187D01*
X14940Y-13187D01*
X14940Y-13227D01*
X14506Y-13227D01*
X14446Y-13287D01*
X14446Y-13430D01*
X14482Y-13518D01*
X14549Y-13585D01*
X14637Y-13622D01*
X14733Y-13622D01*
X14881Y-13622D01*
X14940Y-13562D01*
X14940Y-13644D01*
X14658Y-13644D01*
X14607Y-13665D01*
X14568Y-13704D01*
X14547Y-13755D01*
X14547Y-13809D01*
X14547Y-14159D01*
X14568Y-14210D01*
X14607Y-14249D01*
X14658Y-14270D01*
X14712Y-14270D01*
X14724Y-14270D01*
X14724Y-14857D01*
X14631Y-14950D01*
X14203Y-14950D01*
X14075Y-14975D01*
X13966Y-15048D01*
X13779Y-15235D01*
X13706Y-15344D01*
X13681Y-15472D01*
X13681Y-16023D01*
X13706Y-16151D01*
X13779Y-16260D01*
X13887Y-16332D01*
X14015Y-16358D01*
X14143Y-16332D01*
X14252Y-16260D01*
X14646Y-15866D01*
X14646Y-15866D01*
X14646Y-15866D01*
X14959Y-15553D01*
X15006Y-15521D01*
X15992Y-14535D01*
X15992Y-14535D01*
X15992Y-14535D01*
X16059Y-14468D01*
X16261Y-14468D01*
X16279Y-14486D01*
X16330Y-14507D01*
X16384Y-14507D01*
X16454Y-14507D01*
X16453Y-14508D01*
X16453Y-14604D01*
X16453Y-15018D01*
X16513Y-15078D01*
X17066Y-15078D01*
X17066Y-15117D01*
X16513Y-15117D01*
X16453Y-15177D01*
X16453Y-15592D01*
X16453Y-15687D01*
X16490Y-15775D01*
X16557Y-15842D01*
X16645Y-15879D01*
X17007Y-15879D01*
X17066Y-15819D01*
X17066Y-21553D01*
X16742Y-21878D01*
X16703Y-21935D01*
X16690Y-22003D01*
X16690Y-29360D01*
X13097Y-32953D01*
X13097Y-28190D01*
X13097Y-25870D01*
X13083Y-25802D01*
X13045Y-25744D01*
X13045Y-25744D01*
X11754Y-24453D01*
X11696Y-24415D01*
X11628Y-24401D01*
X11151Y-24401D01*
X11123Y-24333D01*
X11079Y-24289D01*
X11079Y-22656D01*
X10979Y-22408D01*
X10971Y-22396D01*
X10861Y-22355D01*
X10833Y-22382D01*
X10833Y-22327D01*
X10792Y-22217D01*
X10546Y-22112D01*
X10278Y-22109D01*
X10030Y-22209D01*
X10018Y-22217D01*
X9980Y-22318D01*
X9980Y-8006D01*
X9780Y-7521D01*
X9409Y-7150D01*
X8924Y-6949D01*
X8400Y-6948D01*
X7915Y-7148D01*
X7543Y-7519D01*
X7342Y-8004D01*
X7342Y-8528D01*
X7542Y-9013D01*
X7913Y-9385D01*
X8397Y-9586D01*
X8922Y-9586D01*
X9407Y-9386D01*
X9778Y-9015D01*
X9980Y-8531D01*
X9980Y-8006D01*
X9980Y-22318D01*
X9977Y-22327D01*
X10405Y-22755D01*
X10833Y-22327D01*
X10833Y-22382D01*
X10433Y-22783D01*
X10861Y-23211D01*
X10971Y-23170D01*
X11076Y-22924D01*
X11079Y-22656D01*
X11079Y-24289D01*
X11001Y-24211D01*
X10842Y-24145D01*
X10833Y-24145D01*
X10833Y-23239D01*
X10405Y-22811D01*
X10377Y-22839D01*
X10377Y-22783D01*
X9949Y-22355D01*
X9839Y-22396D01*
X9734Y-22642D01*
X9731Y-22910D01*
X9758Y-22976D01*
X9540Y-22758D01*
X9226Y-22628D01*
X8885Y-22627D01*
X8570Y-22757D01*
X8329Y-22998D01*
X8198Y-23313D01*
X8198Y-23653D01*
X8328Y-23968D01*
X8569Y-24209D01*
X8884Y-24340D01*
X9224Y-24340D01*
X9539Y-24210D01*
X9780Y-23969D01*
X9911Y-23655D01*
X9911Y-23314D01*
X9854Y-23175D01*
X9949Y-23211D01*
X10377Y-22783D01*
X10377Y-22839D01*
X9977Y-23239D01*
X10018Y-23349D01*
X10264Y-23454D01*
X10532Y-23457D01*
X10780Y-23357D01*
X10792Y-23349D01*
X10833Y-23239D01*
X10833Y-24145D01*
X10670Y-24145D01*
X10510Y-24211D01*
X10388Y-24332D01*
X10322Y-24492D01*
X10322Y-24512D01*
X10163Y-24445D01*
X9950Y-24445D01*
X9753Y-24525D01*
X9750Y-24527D01*
X9726Y-24623D01*
X10055Y-24952D01*
X10060Y-24946D01*
X10088Y-24974D01*
X10082Y-24980D01*
X10088Y-24985D01*
X10060Y-25013D01*
X10055Y-25008D01*
X10027Y-25035D01*
X10027Y-24980D01*
X9698Y-24651D01*
X9602Y-24675D01*
X9520Y-24872D01*
X9519Y-25085D01*
X9600Y-25281D01*
X9602Y-25284D01*
X9698Y-25309D01*
X10027Y-24980D01*
X10027Y-25035D01*
X9726Y-25337D01*
X9750Y-25432D01*
X9780Y-25445D01*
X9688Y-25537D01*
X9621Y-25696D01*
X9621Y-25869D01*
X9687Y-26028D01*
X9780Y-26121D01*
X9753Y-26132D01*
X9750Y-26134D01*
X9726Y-26229D01*
X10055Y-26558D01*
X10060Y-26553D01*
X10088Y-26581D01*
X10082Y-26586D01*
X10088Y-26592D01*
X10060Y-26620D01*
X10055Y-26614D01*
X10027Y-26642D01*
X10027Y-26586D01*
X9698Y-26257D01*
X9602Y-26282D01*
X9520Y-26478D01*
X9519Y-26691D01*
X9600Y-26888D01*
X9602Y-26891D01*
X9698Y-26915D01*
X10027Y-26586D01*
X10027Y-26642D01*
X9726Y-26943D01*
X9750Y-27039D01*
X9780Y-27051D01*
X9688Y-27144D01*
X9621Y-27303D01*
X9621Y-27475D01*
X9687Y-27634D01*
X9809Y-27756D01*
X9968Y-27822D01*
X10140Y-27823D01*
X10300Y-27757D01*
X10422Y-27635D01*
X10488Y-27476D01*
X10488Y-27333D01*
X10510Y-27355D01*
X10669Y-27421D01*
X10841Y-27421D01*
X11001Y-27355D01*
X11123Y-27233D01*
X11189Y-27074D01*
X11189Y-26902D01*
X11123Y-26743D01*
X11001Y-26621D01*
X10918Y-26586D01*
X11001Y-26552D01*
X11123Y-26430D01*
X11189Y-26271D01*
X11189Y-26099D01*
X11123Y-25939D01*
X11001Y-25817D01*
X10918Y-25783D01*
X11001Y-25749D01*
X11123Y-25627D01*
X11151Y-25559D01*
X11238Y-25559D01*
X11742Y-26063D01*
X11742Y-27000D01*
X11756Y-27067D01*
X11794Y-27125D01*
X12274Y-27604D01*
X12274Y-27684D01*
X12316Y-27785D01*
X12393Y-27863D01*
X12494Y-27905D01*
X12604Y-27905D01*
X12705Y-27863D01*
X12742Y-27826D01*
X12742Y-28116D01*
X12605Y-28254D01*
X12525Y-28254D01*
X12424Y-28296D01*
X12346Y-28373D01*
X12304Y-28474D01*
X12304Y-28584D01*
X12346Y-28685D01*
X12423Y-28763D01*
X12524Y-28805D01*
X12634Y-28805D01*
X12735Y-28763D01*
X12813Y-28686D01*
X12855Y-28585D01*
X12855Y-28504D01*
X13045Y-28315D01*
X13045Y-28315D01*
X13045Y-28315D01*
X13083Y-28257D01*
X13097Y-28190D01*
X13097Y-28190D01*
X13097Y-32953D01*
X12085Y-33964D01*
X11079Y-34971D01*
X11079Y-29058D01*
X10979Y-28810D01*
X10971Y-28798D01*
X10861Y-28756D01*
X10833Y-28784D01*
X10833Y-28728D01*
X10792Y-28619D01*
X10546Y-28514D01*
X10278Y-28511D01*
X10030Y-28610D01*
X10018Y-28619D01*
X9977Y-28728D01*
X10405Y-29157D01*
X10833Y-28728D01*
X10833Y-28784D01*
X10433Y-29185D01*
X10861Y-29613D01*
X10971Y-29571D01*
X11076Y-29325D01*
X11079Y-29058D01*
X11079Y-34971D01*
X10833Y-35216D01*
X10833Y-29641D01*
X10405Y-29212D01*
X10377Y-29240D01*
X10377Y-29185D01*
X9949Y-28756D01*
X9854Y-28792D01*
X9911Y-28655D01*
X9911Y-28314D01*
X9781Y-27999D01*
X9540Y-27758D01*
X9226Y-27628D01*
X8885Y-27627D01*
X8570Y-27757D01*
X8329Y-27998D01*
X8198Y-28313D01*
X8198Y-28653D01*
X8328Y-28968D01*
X8569Y-29209D01*
X8884Y-29340D01*
X9224Y-29340D01*
X9539Y-29210D01*
X9755Y-28995D01*
X9734Y-29044D01*
X9731Y-29311D01*
X9831Y-29559D01*
X9839Y-29571D01*
X9949Y-29613D01*
X10377Y-29185D01*
X10377Y-29240D01*
X9977Y-29641D01*
X10018Y-29751D01*
X10264Y-29856D01*
X10532Y-29858D01*
X10780Y-29759D01*
X10792Y-29751D01*
X10833Y-29641D01*
X10833Y-35216D01*
X10828Y-35221D01*
X10828Y-35217D01*
X10820Y-35210D01*
X10792Y-35140D01*
X10789Y-35138D01*
X10792Y-35135D01*
X10820Y-35066D01*
X10828Y-35058D01*
X10828Y-35047D01*
X10828Y-35047D01*
X10828Y-35039D01*
X10828Y-35031D01*
X10828Y-35031D01*
X10828Y-35020D01*
X10820Y-35013D01*
X10792Y-34943D01*
X10789Y-34941D01*
X10792Y-34938D01*
X10820Y-34869D01*
X10828Y-34861D01*
X10828Y-34850D01*
X10828Y-34850D01*
X10828Y-34842D01*
X10828Y-34834D01*
X10828Y-34834D01*
X10828Y-34823D01*
X10820Y-34816D01*
X10792Y-34746D01*
X10769Y-34724D01*
X10828Y-34664D01*
X10828Y-34637D01*
X10828Y-33866D01*
X10828Y-33840D01*
X10769Y-33780D01*
X10792Y-33757D01*
X10820Y-33688D01*
X10828Y-33681D01*
X10828Y-33670D01*
X10828Y-33669D01*
X10828Y-33662D01*
X10828Y-33654D01*
X10828Y-33654D01*
X10828Y-33643D01*
X10820Y-33635D01*
X10792Y-33566D01*
X10789Y-33563D01*
X10792Y-33560D01*
X10820Y-33491D01*
X10828Y-33484D01*
X10828Y-33473D01*
X10828Y-33472D01*
X10828Y-33465D01*
X10828Y-33457D01*
X10828Y-33457D01*
X10828Y-33446D01*
X10820Y-33438D01*
X10792Y-33369D01*
X10789Y-33366D01*
X10792Y-33363D01*
X10820Y-33294D01*
X10828Y-33287D01*
X10828Y-33276D01*
X10828Y-33275D01*
X10828Y-33268D01*
X10828Y-33260D01*
X10828Y-33260D01*
X10828Y-33249D01*
X10820Y-33241D01*
X10792Y-33172D01*
X10769Y-33149D01*
X10828Y-33090D01*
X10828Y-33063D01*
X10792Y-32975D01*
X10724Y-32907D01*
X10637Y-32871D01*
X10541Y-32871D01*
X10540Y-32871D01*
X10480Y-32931D01*
X10480Y-33128D01*
X10480Y-33149D01*
X10480Y-33189D01*
X10480Y-33325D01*
X10480Y-33346D01*
X10480Y-33386D01*
X10480Y-33408D01*
X10480Y-33522D01*
X10480Y-33543D01*
X10480Y-33583D01*
X10480Y-33605D01*
X10480Y-33740D01*
X10480Y-33780D01*
X10480Y-33802D01*
X10480Y-33999D01*
X10540Y-34058D01*
X10541Y-34058D01*
X10637Y-34058D01*
X10724Y-34022D01*
X10792Y-33954D01*
X10828Y-33866D01*
X10828Y-34637D01*
X10792Y-34549D01*
X10724Y-34482D01*
X10637Y-34446D01*
X10541Y-34445D01*
X10540Y-34446D01*
X10480Y-34505D01*
X10480Y-34702D01*
X10480Y-34724D01*
X10480Y-34764D01*
X10480Y-34899D01*
X10480Y-34921D01*
X10480Y-34961D01*
X10480Y-34982D01*
X10480Y-35096D01*
X10480Y-35118D01*
X10480Y-35158D01*
X10480Y-35179D01*
X10480Y-35315D01*
X10480Y-35355D01*
X10480Y-35362D01*
X10441Y-35362D01*
X10441Y-35355D01*
X10441Y-35315D01*
X10441Y-35179D01*
X10441Y-35158D01*
X10441Y-35118D01*
X10441Y-35096D01*
X10441Y-34982D01*
X10441Y-34961D01*
X10441Y-34921D01*
X10441Y-34899D01*
X10441Y-34764D01*
X10441Y-34724D01*
X10441Y-34702D01*
X10441Y-34505D01*
X10381Y-34446D01*
X10380Y-34445D01*
X10285Y-34446D01*
X10197Y-34482D01*
X10132Y-34547D01*
X10108Y-34547D01*
X9852Y-34547D01*
X9805Y-34567D01*
X9365Y-34567D01*
X9297Y-34580D01*
X9240Y-34619D01*
X9002Y-34857D01*
X9002Y-34048D01*
X9113Y-33937D01*
X9805Y-33937D01*
X9852Y-33957D01*
X9907Y-33957D01*
X10132Y-33957D01*
X10197Y-34022D01*
X10285Y-34058D01*
X10380Y-34058D01*
X10381Y-34058D01*
X10441Y-33999D01*
X10441Y-33802D01*
X10441Y-33780D01*
X10441Y-33740D01*
X10441Y-33605D01*
X10441Y-33583D01*
X10441Y-33543D01*
X10441Y-33522D01*
X10441Y-33408D01*
X10441Y-33386D01*
X10441Y-33346D01*
X10441Y-33325D01*
X10441Y-33189D01*
X10441Y-33149D01*
X10441Y-33128D01*
X10441Y-32931D01*
X10381Y-32871D01*
X10380Y-32871D01*
X10285Y-32871D01*
X10197Y-32907D01*
X10132Y-32972D01*
X10108Y-32972D01*
X9852Y-32972D01*
X9805Y-32992D01*
X8955Y-32992D01*
X8887Y-33005D01*
X8830Y-33044D01*
X8224Y-33649D01*
X8186Y-33707D01*
X8172Y-33775D01*
X8172Y-39845D01*
X8186Y-39912D01*
X8224Y-39970D01*
X9539Y-41285D01*
X9539Y-41285D01*
X9597Y-41323D01*
X9664Y-41337D01*
X9665Y-41337D01*
X11104Y-41337D01*
X10991Y-41382D01*
X10979Y-41390D01*
X10937Y-41500D01*
X11366Y-41928D01*
X11794Y-41500D01*
X11753Y-41390D01*
X11627Y-41337D01*
X12817Y-41337D01*
X12794Y-41360D01*
X12728Y-41519D01*
X12728Y-41692D01*
X12793Y-41851D01*
X12915Y-41973D01*
X13074Y-42039D01*
X13095Y-42039D01*
X13028Y-42199D01*
X13027Y-42411D01*
X13108Y-42608D01*
X13110Y-42611D01*
X13206Y-42636D01*
X13535Y-42307D01*
X13529Y-42301D01*
X13557Y-42273D01*
X13562Y-42279D01*
X13568Y-42273D01*
X13596Y-42301D01*
X13590Y-42307D01*
X13919Y-42636D01*
X14015Y-42611D01*
X14027Y-42581D01*
X14120Y-42674D01*
X14279Y-42740D01*
X14451Y-42740D01*
X14611Y-42674D01*
X14703Y-42582D01*
X14714Y-42608D01*
X14716Y-42611D01*
X14812Y-42636D01*
X15141Y-42307D01*
X15135Y-42301D01*
X15163Y-42273D01*
X15169Y-42279D01*
X15174Y-42273D01*
X15202Y-42301D01*
X15197Y-42307D01*
X15526Y-42636D01*
X15621Y-42611D01*
X15634Y-42581D01*
X15726Y-42674D01*
X15885Y-42740D01*
X16058Y-42740D01*
X16217Y-42674D01*
X16339Y-42552D01*
X16405Y-42393D01*
X16405Y-42221D01*
X16339Y-42061D01*
X16218Y-41939D01*
X16059Y-41873D01*
X15916Y-41873D01*
X15937Y-41852D01*
X16004Y-41692D01*
X16004Y-41520D01*
X15938Y-41361D01*
X15816Y-41239D01*
X15657Y-41173D01*
X15485Y-41172D01*
X15452Y-41186D01*
X14962Y-40697D01*
X20251Y-40697D01*
X20792Y-41237D01*
X20790Y-41238D01*
X20668Y-41360D01*
X20602Y-41519D01*
X20602Y-41692D01*
X20667Y-41851D01*
X20789Y-41973D01*
X20948Y-42039D01*
X20969Y-42039D01*
X20902Y-42199D01*
X20901Y-42411D01*
X20982Y-42608D01*
X20984Y-42611D01*
X21080Y-42636D01*
X21409Y-42307D01*
X21403Y-42301D01*
X21431Y-42273D01*
X21437Y-42279D01*
X21442Y-42273D01*
X21470Y-42301D01*
X21464Y-42307D01*
X21793Y-42636D01*
X21889Y-42611D01*
X21901Y-42581D01*
X21994Y-42674D01*
X22153Y-42740D01*
X22325Y-42740D01*
X22485Y-42674D01*
X22578Y-42582D01*
X22588Y-42608D01*
X22590Y-42611D01*
X22686Y-42636D01*
X23015Y-42307D01*
X23009Y-42301D01*
X23037Y-42273D01*
X23043Y-42279D01*
X23048Y-42273D01*
X23076Y-42301D01*
X23071Y-42307D01*
X23400Y-42636D01*
X23495Y-42611D01*
X23508Y-42581D01*
X23600Y-42674D01*
X23759Y-42740D01*
X23932Y-42740D01*
X24091Y-42674D01*
X24213Y-42552D01*
X24279Y-42393D01*
X24279Y-42221D01*
X24214Y-42061D01*
X24092Y-41939D01*
X23933Y-41873D01*
X23790Y-41873D01*
X23811Y-41852D01*
X23840Y-41783D01*
X24583Y-41783D01*
X24651Y-41769D01*
X24651Y-41769D01*
X24708Y-41731D01*
X26385Y-40054D01*
X28094Y-40054D01*
X28529Y-40490D01*
X28587Y-40528D01*
X28587Y-40528D01*
X28655Y-40542D01*
X29175Y-40542D01*
X29242Y-40528D01*
X29242Y-40528D01*
X29300Y-40490D01*
X29327Y-40462D01*
X29341Y-40495D01*
X29418Y-40573D01*
X29519Y-40615D01*
X29553Y-40615D01*
X28996Y-41173D01*
X28996Y-41173D01*
X28823Y-41172D01*
X28664Y-41238D01*
X28542Y-41360D01*
X28476Y-41519D01*
X28476Y-41692D01*
X28541Y-41851D01*
X28663Y-41973D01*
X28822Y-42039D01*
X28843Y-42039D01*
X28776Y-42199D01*
X28775Y-42411D01*
X28856Y-42608D01*
X28858Y-42611D01*
X28954Y-42636D01*
X29283Y-42307D01*
X29277Y-42301D01*
X29305Y-42273D01*
X29311Y-42279D01*
X29316Y-42273D01*
X29344Y-42301D01*
X29338Y-42307D01*
X29667Y-42636D01*
X29763Y-42611D01*
X29775Y-42581D01*
X29868Y-42674D01*
X30027Y-42740D01*
X30199Y-42740D01*
X30359Y-42674D01*
X30452Y-42582D01*
X30462Y-42608D01*
X30464Y-42611D01*
X30560Y-42636D01*
X30889Y-42307D01*
X30883Y-42301D01*
X30911Y-42273D01*
X30917Y-42279D01*
X30922Y-42273D01*
X30950Y-42301D01*
X30945Y-42307D01*
X31274Y-42636D01*
X31369Y-42611D01*
X31382Y-42581D01*
X31474Y-42674D01*
X31633Y-42740D01*
X31806Y-42740D01*
X31965Y-42674D01*
X32087Y-42552D01*
X32153Y-42393D01*
X32153Y-42221D01*
X32088Y-42061D01*
X31966Y-41939D01*
X31807Y-41873D01*
X31664Y-41873D01*
X31686Y-41852D01*
X31752Y-41692D01*
X31752Y-41520D01*
X31712Y-41423D01*
X32293Y-40842D01*
X37277Y-40842D01*
X36923Y-41195D01*
X36870Y-41173D01*
X36697Y-41172D01*
X36538Y-41238D01*
X36416Y-41360D01*
X36350Y-41519D01*
X36350Y-41692D01*
X36415Y-41851D01*
X36537Y-41973D01*
X36696Y-42039D01*
X36717Y-42039D01*
X36650Y-42199D01*
X36649Y-42411D01*
X36730Y-42608D01*
X36732Y-42611D01*
X36828Y-42636D01*
X37157Y-42307D01*
X37151Y-42301D01*
X37179Y-42273D01*
X37185Y-42279D01*
X37190Y-42273D01*
X37218Y-42301D01*
X37212Y-42307D01*
X37541Y-42636D01*
X37637Y-42611D01*
X37650Y-42581D01*
X37742Y-42674D01*
X37901Y-42740D01*
X38073Y-42740D01*
X38233Y-42674D01*
X38326Y-42582D01*
X38336Y-42608D01*
X38338Y-42611D01*
X38434Y-42636D01*
X38763Y-42307D01*
X38757Y-42301D01*
X38785Y-42273D01*
X38791Y-42279D01*
X38796Y-42273D01*
X38824Y-42301D01*
X38819Y-42307D01*
X39148Y-42636D01*
X39243Y-42611D01*
X39256Y-42581D01*
X39348Y-42674D01*
X39507Y-42740D01*
X39680Y-42740D01*
X39839Y-42674D01*
X39961Y-42552D01*
X40027Y-42393D01*
X40027Y-42221D01*
X39962Y-42061D01*
X39840Y-41939D01*
X39681Y-41873D01*
X39538Y-41873D01*
X39560Y-41852D01*
X39626Y-41692D01*
X39626Y-41520D01*
X39606Y-41472D01*
X40972Y-41472D01*
X40961Y-41500D01*
X41389Y-41928D01*
X41818Y-41500D01*
X41807Y-41472D01*
X43875Y-41472D01*
X43942Y-41458D01*
X43942Y-41458D01*
X44000Y-41420D01*
X44975Y-40445D01*
X44975Y-40445D01*
X44975Y-40445D01*
X45013Y-40387D01*
X45027Y-40320D01*
X45027Y-40320D01*
X45027Y-42768D01*
X44842Y-42583D01*
X44357Y-42382D01*
X43833Y-42381D01*
X43348Y-42582D01*
X42977Y-42952D01*
X42775Y-43437D01*
X42775Y-43961D01*
X42975Y-44446D01*
X43346Y-44818D01*
X43830Y-45019D01*
X44355Y-45019D01*
X44840Y-44819D01*
X45211Y-44448D01*
X45413Y-43964D01*
X45413Y-43439D01*
X45413Y-45501D01*
X42063Y-45501D01*
X42063Y-41830D01*
X41963Y-41581D01*
X41955Y-41569D01*
X41845Y-41528D01*
X41417Y-41956D01*
X41845Y-42385D01*
X41955Y-42343D01*
X42060Y-42097D01*
X42063Y-41830D01*
X42063Y-45501D01*
X41818Y-45501D01*
X41818Y-42412D01*
X41389Y-41984D01*
X41361Y-42012D01*
X41361Y-41956D01*
X40933Y-41528D01*
X40823Y-41569D01*
X40718Y-41815D01*
X40715Y-42083D01*
X40815Y-42331D01*
X40823Y-42343D01*
X40933Y-42385D01*
X41361Y-41956D01*
X41361Y-42012D01*
X40961Y-42412D01*
X40997Y-42507D01*
X40860Y-42450D01*
X40519Y-42450D01*
X40204Y-42580D01*
X39963Y-42821D01*
X39832Y-43136D01*
X39832Y-43476D01*
X39962Y-43791D01*
X40203Y-44032D01*
X40517Y-44163D01*
X40858Y-44163D01*
X41173Y-44033D01*
X41414Y-43792D01*
X41545Y-43478D01*
X41545Y-43137D01*
X41415Y-42822D01*
X41199Y-42606D01*
X41248Y-42627D01*
X41516Y-42630D01*
X41764Y-42530D01*
X41776Y-42522D01*
X41818Y-42412D01*
X41818Y-45501D01*
X39120Y-45501D01*
X39120Y-42664D01*
X38791Y-42334D01*
X38462Y-42664D01*
X38486Y-42759D01*
X38683Y-42841D01*
X38896Y-42842D01*
X39092Y-42761D01*
X39095Y-42759D01*
X39120Y-42664D01*
X39120Y-45501D01*
X37514Y-45501D01*
X37514Y-42664D01*
X37185Y-42334D01*
X36855Y-42664D01*
X36880Y-42759D01*
X37076Y-42841D01*
X37289Y-42842D01*
X37486Y-42761D01*
X37489Y-42759D01*
X37514Y-42664D01*
X37514Y-45501D01*
X36545Y-45501D01*
X36545Y-43137D01*
X36415Y-42822D01*
X36174Y-42581D01*
X35860Y-42450D01*
X35662Y-42450D01*
X35662Y-41830D01*
X35562Y-41581D01*
X35554Y-41569D01*
X35444Y-41528D01*
X35416Y-41556D01*
X35416Y-41500D01*
X35375Y-41390D01*
X35129Y-41285D01*
X34861Y-41282D01*
X34613Y-41382D01*
X34601Y-41390D01*
X34559Y-41500D01*
X34988Y-41928D01*
X35416Y-41500D01*
X35416Y-41556D01*
X35016Y-41956D01*
X35444Y-42385D01*
X35554Y-42343D01*
X35659Y-42097D01*
X35662Y-41830D01*
X35662Y-42450D01*
X35519Y-42450D01*
X35380Y-42507D01*
X35416Y-42412D01*
X34988Y-41984D01*
X34960Y-42012D01*
X34960Y-41956D01*
X34532Y-41528D01*
X34422Y-41569D01*
X34317Y-41815D01*
X34314Y-42083D01*
X34414Y-42331D01*
X34422Y-42343D01*
X34532Y-42385D01*
X34960Y-41956D01*
X34960Y-42012D01*
X34559Y-42412D01*
X34601Y-42522D01*
X34847Y-42627D01*
X35114Y-42630D01*
X35181Y-42603D01*
X34963Y-42821D01*
X34832Y-43136D01*
X34832Y-43476D01*
X34962Y-43791D01*
X35203Y-44032D01*
X35517Y-44163D01*
X35858Y-44163D01*
X36173Y-44033D01*
X36414Y-43792D01*
X36545Y-43478D01*
X36545Y-43137D01*
X36545Y-45501D01*
X34189Y-45501D01*
X34189Y-41830D01*
X34089Y-41581D01*
X34081Y-41569D01*
X33971Y-41528D01*
X33944Y-41556D01*
X33944Y-41500D01*
X33902Y-41390D01*
X33656Y-41285D01*
X33389Y-41282D01*
X33140Y-41382D01*
X33128Y-41390D01*
X33087Y-41500D01*
X33515Y-41928D01*
X33944Y-41500D01*
X33944Y-41556D01*
X33543Y-41956D01*
X33971Y-42385D01*
X34081Y-42343D01*
X34186Y-42097D01*
X34189Y-41830D01*
X34189Y-45501D01*
X33944Y-45501D01*
X33944Y-42412D01*
X33515Y-41984D01*
X33487Y-42012D01*
X33487Y-41956D01*
X33059Y-41528D01*
X32949Y-41569D01*
X32844Y-41815D01*
X32841Y-42083D01*
X32941Y-42331D01*
X32949Y-42343D01*
X33059Y-42385D01*
X33487Y-41956D01*
X33487Y-42012D01*
X33087Y-42412D01*
X33123Y-42507D01*
X32986Y-42450D01*
X32645Y-42450D01*
X32330Y-42580D01*
X32089Y-42821D01*
X31958Y-43136D01*
X31958Y-43476D01*
X32088Y-43791D01*
X32329Y-44032D01*
X32643Y-44163D01*
X32984Y-44163D01*
X33299Y-44033D01*
X33540Y-43792D01*
X33671Y-43478D01*
X33671Y-43137D01*
X33541Y-42822D01*
X33325Y-42606D01*
X33374Y-42627D01*
X33642Y-42630D01*
X33890Y-42530D01*
X33902Y-42522D01*
X33944Y-42412D01*
X33944Y-45501D01*
X31246Y-45501D01*
X31246Y-42664D01*
X30917Y-42334D01*
X30588Y-42664D01*
X30612Y-42759D01*
X30809Y-42841D01*
X31022Y-42842D01*
X31218Y-42761D01*
X31221Y-42759D01*
X31246Y-42664D01*
X31246Y-45501D01*
X29640Y-45501D01*
X29640Y-42664D01*
X29311Y-42334D01*
X28981Y-42664D01*
X29006Y-42759D01*
X29202Y-42841D01*
X29415Y-42842D01*
X29612Y-42761D01*
X29615Y-42759D01*
X29640Y-42664D01*
X29640Y-45501D01*
X28671Y-45501D01*
X28671Y-43137D01*
X28541Y-42822D01*
X28300Y-42581D01*
X27986Y-42450D01*
X27787Y-42450D01*
X27787Y-41830D01*
X27688Y-41581D01*
X27680Y-41569D01*
X27570Y-41528D01*
X27542Y-41556D01*
X27542Y-41500D01*
X27501Y-41390D01*
X27255Y-41285D01*
X26987Y-41282D01*
X26739Y-41382D01*
X26727Y-41390D01*
X26685Y-41500D01*
X27114Y-41928D01*
X27542Y-41500D01*
X27542Y-41556D01*
X27142Y-41956D01*
X27570Y-42385D01*
X27680Y-42343D01*
X27785Y-42097D01*
X27787Y-41830D01*
X27787Y-42450D01*
X27645Y-42450D01*
X27506Y-42507D01*
X27542Y-42412D01*
X27114Y-41984D01*
X27086Y-42012D01*
X27086Y-41956D01*
X26657Y-41528D01*
X26548Y-41569D01*
X26443Y-41815D01*
X26440Y-42083D01*
X26540Y-42331D01*
X26548Y-42343D01*
X26657Y-42385D01*
X27086Y-41956D01*
X27086Y-42012D01*
X26685Y-42412D01*
X26727Y-42522D01*
X26973Y-42627D01*
X27240Y-42630D01*
X27307Y-42603D01*
X27089Y-42821D01*
X26958Y-43136D01*
X26958Y-43476D01*
X27088Y-43791D01*
X27329Y-44032D01*
X27643Y-44163D01*
X27984Y-44163D01*
X28299Y-44033D01*
X28540Y-43792D01*
X28671Y-43478D01*
X28671Y-43137D01*
X28671Y-45501D01*
X26315Y-45501D01*
X26315Y-41830D01*
X26215Y-41581D01*
X26207Y-41569D01*
X26097Y-41528D01*
X26070Y-41556D01*
X26070Y-41500D01*
X26028Y-41390D01*
X25782Y-41285D01*
X25515Y-41282D01*
X25266Y-41382D01*
X25254Y-41390D01*
X25213Y-41500D01*
X25641Y-41928D01*
X26070Y-41500D01*
X26070Y-41556D01*
X25669Y-41956D01*
X26097Y-42385D01*
X26207Y-42343D01*
X26312Y-42097D01*
X26315Y-41830D01*
X26315Y-45501D01*
X26070Y-45501D01*
X26070Y-42412D01*
X25641Y-41984D01*
X25613Y-42012D01*
X25613Y-41956D01*
X25185Y-41528D01*
X25075Y-41569D01*
X24970Y-41815D01*
X24967Y-42083D01*
X25067Y-42331D01*
X25075Y-42343D01*
X25185Y-42385D01*
X25613Y-41956D01*
X25613Y-42012D01*
X25213Y-42412D01*
X25249Y-42507D01*
X25112Y-42450D01*
X24771Y-42450D01*
X24456Y-42580D01*
X24215Y-42821D01*
X24084Y-43136D01*
X24084Y-43476D01*
X24214Y-43791D01*
X24455Y-44032D01*
X24769Y-44163D01*
X25110Y-44163D01*
X25425Y-44033D01*
X25666Y-43792D01*
X25797Y-43478D01*
X25797Y-43137D01*
X25667Y-42822D01*
X25451Y-42606D01*
X25500Y-42627D01*
X25768Y-42630D01*
X26016Y-42530D01*
X26028Y-42522D01*
X26070Y-42412D01*
X26070Y-45501D01*
X23372Y-45501D01*
X23372Y-42664D01*
X23043Y-42334D01*
X22714Y-42664D01*
X22738Y-42759D01*
X22935Y-42841D01*
X23148Y-42842D01*
X23344Y-42761D01*
X23347Y-42759D01*
X23372Y-42664D01*
X23372Y-45501D01*
X21766Y-45501D01*
X21766Y-42664D01*
X21437Y-42334D01*
X21107Y-42664D01*
X21132Y-42759D01*
X21328Y-42841D01*
X21541Y-42842D01*
X21738Y-42761D01*
X21741Y-42759D01*
X21766Y-42664D01*
X21766Y-45501D01*
X20797Y-45501D01*
X20797Y-43137D01*
X20667Y-42822D01*
X20426Y-42581D01*
X20112Y-42450D01*
X19913Y-42450D01*
X19913Y-41830D01*
X19814Y-41581D01*
X19806Y-41569D01*
X19696Y-41528D01*
X19668Y-41556D01*
X19668Y-41500D01*
X19627Y-41390D01*
X19381Y-41285D01*
X19113Y-41282D01*
X18865Y-41382D01*
X18853Y-41390D01*
X18811Y-41500D01*
X19240Y-41928D01*
X19668Y-41500D01*
X19668Y-41556D01*
X19267Y-41956D01*
X19696Y-42385D01*
X19806Y-42343D01*
X19911Y-42097D01*
X19913Y-41830D01*
X19913Y-42450D01*
X19771Y-42450D01*
X19632Y-42507D01*
X19668Y-42412D01*
X19240Y-41984D01*
X19212Y-42012D01*
X19212Y-41956D01*
X18783Y-41528D01*
X18674Y-41569D01*
X18569Y-41815D01*
X18566Y-42083D01*
X18666Y-42331D01*
X18674Y-42343D01*
X18783Y-42385D01*
X19212Y-41956D01*
X19212Y-42012D01*
X18811Y-42412D01*
X18853Y-42522D01*
X19099Y-42627D01*
X19366Y-42630D01*
X19433Y-42603D01*
X19215Y-42821D01*
X19084Y-43136D01*
X19084Y-43476D01*
X19214Y-43791D01*
X19455Y-44032D01*
X19769Y-44163D01*
X20110Y-44163D01*
X20425Y-44033D01*
X20666Y-43792D01*
X20797Y-43478D01*
X20797Y-43137D01*
X20797Y-45501D01*
X18441Y-45501D01*
X18441Y-41830D01*
X18341Y-41581D01*
X18333Y-41569D01*
X18223Y-41528D01*
X18196Y-41556D01*
X18196Y-41500D01*
X18154Y-41390D01*
X17908Y-41285D01*
X17641Y-41282D01*
X17392Y-41382D01*
X17380Y-41390D01*
X17339Y-41500D01*
X17767Y-41928D01*
X18196Y-41500D01*
X18196Y-41556D01*
X17795Y-41956D01*
X18223Y-42385D01*
X18333Y-42343D01*
X18438Y-42097D01*
X18441Y-41830D01*
X18441Y-45501D01*
X18196Y-45501D01*
X18196Y-42412D01*
X17767Y-41984D01*
X17739Y-42012D01*
X17739Y-41956D01*
X17311Y-41528D01*
X17201Y-41569D01*
X17096Y-41815D01*
X17093Y-42083D01*
X17193Y-42331D01*
X17201Y-42343D01*
X17311Y-42385D01*
X17739Y-41956D01*
X17739Y-42012D01*
X17339Y-42412D01*
X17375Y-42507D01*
X17238Y-42450D01*
X16897Y-42450D01*
X16582Y-42580D01*
X16341Y-42821D01*
X16210Y-43136D01*
X16210Y-43476D01*
X16340Y-43791D01*
X16581Y-44032D01*
X16895Y-44163D01*
X17236Y-44163D01*
X17551Y-44033D01*
X17792Y-43792D01*
X17923Y-43478D01*
X17923Y-43137D01*
X17793Y-42822D01*
X17577Y-42606D01*
X17626Y-42627D01*
X17894Y-42630D01*
X18142Y-42530D01*
X18154Y-42522D01*
X18196Y-42412D01*
X18196Y-45501D01*
X15498Y-45501D01*
X15498Y-42664D01*
X15169Y-42334D01*
X14840Y-42664D01*
X14864Y-42759D01*
X15061Y-42841D01*
X15273Y-42842D01*
X15470Y-42761D01*
X15473Y-42759D01*
X15498Y-42664D01*
X15498Y-45501D01*
X13892Y-45501D01*
X13892Y-42664D01*
X13562Y-42334D01*
X13233Y-42664D01*
X13258Y-42759D01*
X13454Y-42841D01*
X13667Y-42842D01*
X13864Y-42761D01*
X13867Y-42759D01*
X13892Y-42664D01*
X13892Y-45501D01*
X12923Y-45501D01*
X12923Y-43137D01*
X12793Y-42822D01*
X12552Y-42581D01*
X12238Y-42450D01*
X12039Y-42450D01*
X12039Y-41830D01*
X11940Y-41581D01*
X11932Y-41569D01*
X11822Y-41528D01*
X11393Y-41956D01*
X11822Y-42385D01*
X11932Y-42343D01*
X12037Y-42097D01*
X12039Y-41830D01*
X12039Y-42450D01*
X11897Y-42450D01*
X11758Y-42507D01*
X11794Y-42412D01*
X11366Y-41984D01*
X11338Y-42012D01*
X11338Y-41956D01*
X10909Y-41528D01*
X10800Y-41569D01*
X10695Y-41815D01*
X10692Y-42083D01*
X10792Y-42331D01*
X10800Y-42343D01*
X10909Y-42385D01*
X11338Y-41956D01*
X11338Y-42012D01*
X10937Y-42412D01*
X10979Y-42522D01*
X11225Y-42627D01*
X11492Y-42630D01*
X11559Y-42603D01*
X11341Y-42821D01*
X11210Y-43136D01*
X11210Y-43476D01*
X11340Y-43791D01*
X11581Y-44032D01*
X11895Y-44163D01*
X12236Y-44163D01*
X12551Y-44033D01*
X12792Y-43792D01*
X12923Y-43478D01*
X12923Y-43137D01*
X12923Y-45501D01*
X9980Y-45501D01*
X9980Y-43439D01*
X9780Y-42954D01*
X9409Y-42583D01*
X8924Y-42382D01*
X8400Y-42381D01*
X7915Y-42582D01*
X7543Y-42952D01*
X7342Y-43437D01*
X7342Y-43961D01*
X7542Y-44446D01*
X7913Y-44818D01*
X8397Y-45019D01*
X8922Y-45019D01*
X9407Y-44819D01*
X9778Y-44448D01*
X9980Y-43964D01*
X9980Y-43439D01*
X9980Y-45501D01*
X6860Y-45501D01*
X6860Y-25984D01*
X6860Y-6466D01*
X45895Y-6466D01*
X45895Y-25984D01*
X45895Y-45501D01*
M02*
