G04 (created by PCBNEW (2013-07-07 BZR 4022)-stable) date 9/18/2013 12:02:33*
%MOIN*%
G04 Gerber Fmt 3.4, Leading zero omitted, Abs format*
%FSLAX34Y34*%
G01*
G70*
G90*
G04 APERTURE LIST*
%ADD10C,0.005*%
%ADD11C,0.011811*%
%ADD12C,0.00590551*%
%ADD13C,0.00787402*%
G04 APERTURE END LIST*
G54D10*
G54D11*
X48855Y-16563D02*
X49052Y-16563D01*
X49136Y-16872D02*
X48855Y-16872D01*
X48855Y-16282D01*
X49136Y-16282D01*
X49642Y-16872D02*
X49642Y-16282D01*
X49642Y-16844D02*
X49586Y-16872D01*
X49474Y-16872D01*
X49417Y-16844D01*
X49389Y-16816D01*
X49361Y-16760D01*
X49361Y-16591D01*
X49389Y-16535D01*
X49417Y-16507D01*
X49474Y-16479D01*
X49586Y-16479D01*
X49642Y-16507D01*
X50177Y-16479D02*
X50177Y-16957D01*
X50149Y-17013D01*
X50120Y-17041D01*
X50064Y-17069D01*
X49980Y-17069D01*
X49924Y-17041D01*
X50177Y-16844D02*
X50120Y-16872D01*
X50008Y-16872D01*
X49952Y-16844D01*
X49924Y-16816D01*
X49895Y-16760D01*
X49895Y-16591D01*
X49924Y-16535D01*
X49952Y-16507D01*
X50008Y-16479D01*
X50120Y-16479D01*
X50177Y-16507D01*
X50683Y-16844D02*
X50627Y-16872D01*
X50514Y-16872D01*
X50458Y-16844D01*
X50430Y-16788D01*
X50430Y-16563D01*
X50458Y-16507D01*
X50514Y-16479D01*
X50627Y-16479D01*
X50683Y-16507D01*
X50711Y-16563D01*
X50711Y-16619D01*
X50430Y-16676D01*
X51751Y-16816D02*
X51723Y-16844D01*
X51639Y-16872D01*
X51583Y-16872D01*
X51498Y-16844D01*
X51442Y-16788D01*
X51414Y-16732D01*
X51386Y-16619D01*
X51386Y-16535D01*
X51414Y-16422D01*
X51442Y-16366D01*
X51498Y-16310D01*
X51583Y-16282D01*
X51639Y-16282D01*
X51723Y-16310D01*
X51751Y-16338D01*
X52258Y-16479D02*
X52258Y-16872D01*
X52005Y-16479D02*
X52005Y-16788D01*
X52033Y-16844D01*
X52089Y-16872D01*
X52173Y-16872D01*
X52230Y-16844D01*
X52258Y-16816D01*
X52455Y-16479D02*
X52679Y-16479D01*
X52539Y-16282D02*
X52539Y-16788D01*
X52567Y-16844D01*
X52623Y-16872D01*
X52679Y-16872D01*
X52848Y-16844D02*
X52904Y-16872D01*
X53017Y-16872D01*
X53073Y-16844D01*
X53101Y-16788D01*
X53101Y-16760D01*
X53073Y-16704D01*
X53017Y-16676D01*
X52933Y-16676D01*
X52876Y-16647D01*
X52848Y-16591D01*
X52848Y-16563D01*
X52876Y-16507D01*
X52933Y-16479D01*
X53017Y-16479D01*
X53073Y-16507D01*
G54D12*
X6692Y-45669D02*
X6692Y-25984D01*
X46062Y-45669D02*
X6692Y-45669D01*
X46062Y-25984D02*
X46062Y-45669D01*
X6692Y-25984D02*
X6692Y-6299D01*
X46062Y-6299D02*
X46062Y-25984D01*
X6692Y-6299D02*
X46062Y-6299D01*
G54D13*
X9616Y-39166D02*
X9813Y-39363D01*
X9813Y-39166D02*
X9616Y-39363D01*
X10026Y-39551D02*
X10223Y-39748D01*
X10223Y-39551D02*
X10026Y-39748D01*
X10321Y-38986D02*
X10518Y-39183D01*
X10518Y-38986D02*
X10321Y-39183D01*
X10816Y-39341D02*
X11013Y-39538D01*
X11013Y-39341D02*
X10816Y-39538D01*
X11351Y-39686D02*
X11548Y-39883D01*
X11548Y-39686D02*
X11351Y-39883D01*
X11921Y-39686D02*
X12118Y-39883D01*
X12118Y-39686D02*
X11921Y-39883D01*
X12451Y-27531D02*
X12648Y-27728D01*
X12648Y-27531D02*
X12451Y-27728D01*
X12481Y-28431D02*
X12678Y-28628D01*
X12678Y-28431D02*
X12481Y-28628D01*
X12491Y-39686D02*
X12688Y-39883D01*
X12688Y-39686D02*
X12491Y-39883D01*
X13066Y-39686D02*
X13263Y-39883D01*
X13263Y-39686D02*
X13066Y-39883D01*
X16291Y-39686D02*
X16488Y-39883D01*
X16488Y-39686D02*
X16291Y-39883D01*
X17956Y-39686D02*
X18153Y-39883D01*
X18153Y-39686D02*
X17956Y-39883D01*
X20206Y-21726D02*
X20403Y-21923D01*
X20403Y-21726D02*
X20206Y-21923D01*
X20721Y-18281D02*
X20918Y-18478D01*
X20918Y-18281D02*
X20721Y-18478D01*
X23351Y-40501D02*
X23548Y-40698D01*
X23548Y-40501D02*
X23351Y-40698D01*
X25881Y-15661D02*
X26078Y-15858D01*
X26078Y-15661D02*
X25881Y-15858D01*
X26575Y-15640D02*
X26772Y-15837D01*
X26772Y-15640D02*
X26575Y-15837D01*
X27194Y-15794D02*
X27390Y-15990D01*
X27390Y-15794D02*
X27194Y-15990D01*
X27729Y-15774D02*
X27925Y-15970D01*
X27925Y-15774D02*
X27729Y-15970D01*
X28811Y-39381D02*
X29008Y-39578D01*
X29008Y-39381D02*
X28811Y-39578D01*
X29356Y-18271D02*
X29553Y-18468D01*
X29553Y-18271D02*
X29356Y-18468D01*
X29381Y-19531D02*
X29578Y-19728D01*
X29578Y-19531D02*
X29381Y-19728D01*
X29476Y-40241D02*
X29673Y-40438D01*
X29673Y-40241D02*
X29476Y-40438D01*
X31326Y-21676D02*
X31523Y-21873D01*
X31523Y-21676D02*
X31326Y-21873D01*
X31621Y-22106D02*
X31818Y-22303D01*
X31818Y-22106D02*
X31621Y-22303D01*
X31866Y-18061D02*
X32063Y-18258D01*
X32063Y-18061D02*
X31866Y-18258D01*
X37406Y-35201D02*
X37603Y-35398D01*
X37603Y-35201D02*
X37406Y-35398D01*
X37741Y-35761D02*
X37938Y-35958D01*
X37938Y-35761D02*
X37741Y-35958D01*
X38746Y-38851D02*
X38943Y-39048D01*
X38943Y-38851D02*
X38746Y-39048D01*
X40401Y-20246D02*
X40598Y-20443D01*
X40598Y-20246D02*
X40401Y-20443D01*
X42721Y-38856D02*
X42918Y-39053D01*
X42918Y-38856D02*
X42721Y-39053D01*
X14149Y-16023D02*
G75*
G03X14149Y-16023I-133J0D01*
G74*
G01*
X14543Y-15629D02*
G75*
G03X14543Y-15629I-133J0D01*
G74*
G01*
X14903Y-15285D02*
G75*
G03X14903Y-15285I-133J0D01*
G74*
G01*
X19425Y-15078D02*
G75*
G03X19425Y-15078I-133J0D01*
G74*
G01*
X19976Y-15078D02*
G75*
G03X19976Y-15078I-133J0D01*
G74*
G01*
X19976Y-15728D02*
G75*
G03X19976Y-15728I-133J0D01*
G74*
G01*
X24723Y-21190D02*
G75*
G03X24723Y-21190I-133J0D01*
G74*
G01*
X29218Y-19985D02*
G75*
G03X29218Y-19985I-133J0D01*
G74*
G01*
X30598Y-29640D02*
G75*
G03X30598Y-29640I-133J0D01*
G74*
G01*
X32248Y-28685D02*
G75*
G03X32248Y-28685I-133J0D01*
G74*
G01*
X33083Y-30940D02*
G75*
G03X33083Y-30940I-133J0D01*
G74*
G01*
X34888Y-29155D02*
G75*
G03X34888Y-29155I-133J0D01*
G74*
G01*
X16535Y-35954D02*
X16535Y-36274D01*
X16375Y-36114D02*
X16695Y-36114D01*
X16535Y-36954D02*
X16535Y-37274D01*
X16375Y-37114D02*
X16695Y-37114D01*
X23228Y-35954D02*
X23228Y-36274D01*
X23068Y-36114D02*
X23388Y-36114D01*
X23228Y-36954D02*
X23228Y-37274D01*
X23068Y-37114D02*
X23388Y-37114D01*
X29921Y-35954D02*
X29921Y-36274D01*
X29761Y-36114D02*
X30081Y-36114D01*
X29921Y-36954D02*
X29921Y-37274D01*
X29761Y-37114D02*
X30081Y-37114D01*
X31692Y-7607D02*
X31692Y-7927D01*
X31532Y-7767D02*
X31852Y-7767D01*
X31692Y-8607D02*
X31692Y-8927D01*
X31532Y-8767D02*
X31852Y-8767D01*
X34645Y-7607D02*
X34645Y-7927D01*
X34485Y-7767D02*
X34805Y-7767D01*
X34645Y-8607D02*
X34645Y-8927D01*
X34485Y-8767D02*
X34805Y-8767D01*
X36220Y-35954D02*
X36220Y-36274D01*
X36060Y-36114D02*
X36380Y-36114D01*
X36220Y-36954D02*
X36220Y-37274D01*
X36060Y-37114D02*
X36380Y-37114D01*
X37598Y-7607D02*
X37598Y-7927D01*
X37438Y-7767D02*
X37758Y-7767D01*
X37598Y-8607D02*
X37598Y-8927D01*
X37438Y-8767D02*
X37758Y-8767D01*
X40551Y-7607D02*
X40551Y-7927D01*
X40391Y-7767D02*
X40711Y-7767D01*
X40551Y-8607D02*
X40551Y-8927D01*
X40391Y-8767D02*
X40711Y-8767D01*
X10180Y-25105D02*
X10180Y-24855D01*
X9929Y-24855D01*
X9929Y-25105D01*
X10180Y-25105D01*
X10180Y-25908D02*
X10180Y-25658D01*
X9929Y-25658D01*
X9929Y-25908D01*
X10180Y-25908D01*
X10180Y-26711D02*
X10180Y-26461D01*
X9929Y-26461D01*
X9929Y-26711D01*
X10180Y-26711D01*
X10180Y-27514D02*
X10180Y-27264D01*
X9929Y-27264D01*
X9929Y-27514D01*
X10180Y-27514D01*
X10881Y-24703D02*
X10881Y-24453D01*
X10630Y-24453D01*
X10630Y-24703D01*
X10881Y-24703D01*
X10881Y-25507D02*
X10881Y-25256D01*
X10630Y-25256D01*
X10630Y-25507D01*
X10881Y-25507D01*
X10881Y-26310D02*
X10881Y-26059D01*
X10630Y-26059D01*
X10630Y-26310D01*
X10881Y-26310D01*
X10881Y-27113D02*
X10881Y-26863D01*
X10630Y-26863D01*
X10630Y-27113D01*
X10881Y-27113D01*
X13286Y-41731D02*
X13286Y-41481D01*
X13036Y-41481D01*
X13036Y-41731D01*
X13286Y-41731D01*
X13688Y-42432D02*
X13688Y-42181D01*
X13437Y-42181D01*
X13437Y-42432D01*
X13688Y-42432D01*
X14089Y-41731D02*
X14089Y-41481D01*
X13839Y-41481D01*
X13839Y-41731D01*
X14089Y-41731D01*
X14491Y-42432D02*
X14491Y-42181D01*
X14240Y-42181D01*
X14240Y-42432D01*
X14491Y-42432D01*
X14892Y-41731D02*
X14892Y-41481D01*
X14642Y-41481D01*
X14642Y-41731D01*
X14892Y-41731D01*
X15294Y-42432D02*
X15294Y-42181D01*
X15044Y-42181D01*
X15044Y-42432D01*
X15294Y-42432D01*
X15696Y-41731D02*
X15696Y-41481D01*
X15445Y-41481D01*
X15445Y-41731D01*
X15696Y-41731D01*
X16097Y-42432D02*
X16097Y-42181D01*
X15847Y-42181D01*
X15847Y-42432D01*
X16097Y-42432D01*
X21160Y-41731D02*
X21160Y-41481D01*
X20910Y-41481D01*
X20910Y-41731D01*
X21160Y-41731D01*
X21562Y-42432D02*
X21562Y-42181D01*
X21311Y-42181D01*
X21311Y-42432D01*
X21562Y-42432D01*
X21963Y-41731D02*
X21963Y-41481D01*
X21713Y-41481D01*
X21713Y-41731D01*
X21963Y-41731D01*
X22365Y-42432D02*
X22365Y-42181D01*
X22114Y-42181D01*
X22114Y-42432D01*
X22365Y-42432D01*
X22766Y-41731D02*
X22766Y-41481D01*
X22516Y-41481D01*
X22516Y-41731D01*
X22766Y-41731D01*
X23168Y-42432D02*
X23168Y-42181D01*
X22918Y-42181D01*
X22918Y-42432D01*
X23168Y-42432D01*
X23570Y-41731D02*
X23570Y-41481D01*
X23319Y-41481D01*
X23319Y-41731D01*
X23570Y-41731D01*
X23971Y-42432D02*
X23971Y-42181D01*
X23721Y-42181D01*
X23721Y-42432D01*
X23971Y-42432D01*
X25097Y-9786D02*
X25097Y-9536D01*
X24847Y-9536D01*
X24847Y-9786D01*
X25097Y-9786D01*
X25499Y-10487D02*
X25499Y-10237D01*
X25248Y-10237D01*
X25248Y-10487D01*
X25499Y-10487D01*
X25900Y-9786D02*
X25900Y-9536D01*
X25650Y-9536D01*
X25650Y-9786D01*
X25900Y-9786D01*
X26302Y-10487D02*
X26302Y-10237D01*
X26052Y-10237D01*
X26052Y-10487D01*
X26302Y-10487D01*
X26703Y-9786D02*
X26703Y-9536D01*
X26453Y-9536D01*
X26453Y-9786D01*
X26703Y-9786D01*
X27105Y-10487D02*
X27105Y-10237D01*
X26855Y-10237D01*
X26855Y-10487D01*
X27105Y-10487D01*
X27507Y-9786D02*
X27507Y-9536D01*
X27256Y-9536D01*
X27256Y-9786D01*
X27507Y-9786D01*
X27908Y-10487D02*
X27908Y-10237D01*
X27658Y-10237D01*
X27658Y-10487D01*
X27908Y-10487D01*
X29034Y-41731D02*
X29034Y-41481D01*
X28784Y-41481D01*
X28784Y-41731D01*
X29034Y-41731D01*
X29436Y-42432D02*
X29436Y-42181D01*
X29185Y-42181D01*
X29185Y-42432D01*
X29436Y-42432D01*
X29837Y-41731D02*
X29837Y-41481D01*
X29587Y-41481D01*
X29587Y-41731D01*
X29837Y-41731D01*
X30239Y-42432D02*
X30239Y-42181D01*
X29989Y-42181D01*
X29989Y-42432D01*
X30239Y-42432D01*
X30640Y-41731D02*
X30640Y-41481D01*
X30390Y-41481D01*
X30390Y-41731D01*
X30640Y-41731D01*
X31042Y-42432D02*
X31042Y-42181D01*
X30792Y-42181D01*
X30792Y-42432D01*
X31042Y-42432D01*
X31444Y-41731D02*
X31444Y-41481D01*
X31193Y-41481D01*
X31193Y-41731D01*
X31444Y-41731D01*
X31845Y-42432D02*
X31845Y-42181D01*
X31595Y-42181D01*
X31595Y-42432D01*
X31845Y-42432D01*
X36908Y-41731D02*
X36908Y-41481D01*
X36658Y-41481D01*
X36658Y-41731D01*
X36908Y-41731D01*
X37310Y-42432D02*
X37310Y-42181D01*
X37059Y-42181D01*
X37059Y-42432D01*
X37310Y-42432D01*
X37711Y-41731D02*
X37711Y-41481D01*
X37461Y-41481D01*
X37461Y-41731D01*
X37711Y-41731D01*
X38113Y-42432D02*
X38113Y-42181D01*
X37863Y-42181D01*
X37863Y-42432D01*
X38113Y-42432D01*
X38514Y-41731D02*
X38514Y-41481D01*
X38264Y-41481D01*
X38264Y-41731D01*
X38514Y-41731D01*
X38916Y-42432D02*
X38916Y-42181D01*
X38666Y-42181D01*
X38666Y-42432D01*
X38916Y-42432D01*
X39318Y-41731D02*
X39318Y-41481D01*
X39067Y-41481D01*
X39067Y-41731D01*
X39318Y-41731D01*
X39719Y-42432D02*
X39719Y-42181D01*
X39469Y-42181D01*
X39469Y-42432D01*
X39719Y-42432D01*
X42125Y-25105D02*
X42125Y-24855D01*
X41874Y-24855D01*
X41874Y-25105D01*
X42125Y-25105D01*
X42125Y-25908D02*
X42125Y-25658D01*
X41874Y-25658D01*
X41874Y-25908D01*
X42125Y-25908D01*
X42125Y-26711D02*
X42125Y-26461D01*
X41874Y-26461D01*
X41874Y-26711D01*
X42125Y-26711D01*
X42125Y-27514D02*
X42125Y-27264D01*
X41874Y-27264D01*
X41874Y-27514D01*
X42125Y-27514D01*
X42825Y-24703D02*
X42825Y-24453D01*
X42575Y-24453D01*
X42575Y-24703D01*
X42825Y-24703D01*
X42825Y-25507D02*
X42825Y-25256D01*
X42575Y-25256D01*
X42575Y-25507D01*
X42825Y-25507D01*
X42825Y-26310D02*
X42825Y-26059D01*
X42575Y-26059D01*
X42575Y-26310D01*
X42825Y-26310D01*
X42825Y-27113D02*
X42825Y-26863D01*
X42575Y-26863D01*
X42575Y-27113D01*
X42825Y-27113D01*
X10405Y-23098D02*
X10720Y-22783D01*
X10405Y-22468D01*
X10090Y-22783D01*
X10405Y-23098D01*
X10405Y-29500D02*
X10720Y-29185D01*
X10405Y-28870D01*
X10090Y-29185D01*
X10405Y-29500D01*
X11366Y-42271D02*
X11681Y-41956D01*
X11366Y-41641D01*
X11051Y-41956D01*
X11366Y-42271D01*
X17767Y-42271D02*
X18082Y-41956D01*
X17767Y-41641D01*
X17452Y-41956D01*
X17767Y-42271D01*
X19240Y-42271D02*
X19555Y-41956D01*
X19240Y-41641D01*
X18925Y-41956D01*
X19240Y-42271D01*
X23177Y-10326D02*
X23492Y-10011D01*
X23177Y-9696D01*
X22862Y-10011D01*
X23177Y-10326D01*
X25641Y-42271D02*
X25956Y-41956D01*
X25641Y-41641D01*
X25326Y-41956D01*
X25641Y-42271D01*
X27114Y-42271D02*
X27429Y-41956D01*
X27114Y-41641D01*
X26799Y-41956D01*
X27114Y-42271D01*
X29578Y-10326D02*
X29893Y-10011D01*
X29578Y-9696D01*
X29263Y-10011D01*
X29578Y-10326D01*
X33515Y-42271D02*
X33830Y-41956D01*
X33515Y-41641D01*
X33200Y-41956D01*
X33515Y-42271D01*
X34988Y-42271D02*
X35303Y-41956D01*
X34988Y-41641D01*
X34673Y-41956D01*
X34988Y-42271D01*
X41389Y-42271D02*
X41704Y-41956D01*
X41389Y-41641D01*
X41074Y-41956D01*
X41389Y-42271D01*
X42350Y-23098D02*
X42665Y-22783D01*
X42350Y-22468D01*
X42035Y-22783D01*
X42350Y-23098D01*
X42350Y-29500D02*
X42665Y-29185D01*
X42350Y-28870D01*
X42035Y-29185D01*
X42350Y-29500D01*
G54D11*
X7732Y-47476D02*
X7732Y-46294D01*
X8013Y-46294D01*
X8181Y-46351D01*
X8294Y-46463D01*
X8350Y-46576D01*
X8406Y-46801D01*
X8406Y-46969D01*
X8350Y-47194D01*
X8294Y-47307D01*
X8181Y-47419D01*
X8013Y-47476D01*
X7732Y-47476D01*
X8913Y-47476D02*
X8913Y-46688D01*
X8913Y-46913D02*
X8969Y-46801D01*
X9025Y-46744D01*
X9138Y-46688D01*
X9250Y-46688D01*
X9644Y-47476D02*
X9644Y-46688D01*
X9644Y-46294D02*
X9588Y-46351D01*
X9644Y-46407D01*
X9700Y-46351D01*
X9644Y-46294D01*
X9644Y-46407D01*
X10375Y-47476D02*
X10262Y-47419D01*
X10206Y-47307D01*
X10206Y-46294D01*
X10994Y-47476D02*
X10881Y-47419D01*
X10825Y-47307D01*
X10825Y-46294D01*
X12343Y-47476D02*
X12343Y-46294D01*
X12737Y-47138D01*
X13131Y-46294D01*
X13131Y-47476D01*
X14199Y-47476D02*
X14199Y-46857D01*
X14143Y-46744D01*
X14031Y-46688D01*
X13806Y-46688D01*
X13693Y-46744D01*
X14199Y-47419D02*
X14087Y-47476D01*
X13806Y-47476D01*
X13693Y-47419D01*
X13637Y-47307D01*
X13637Y-47194D01*
X13693Y-47082D01*
X13806Y-47026D01*
X14087Y-47026D01*
X14199Y-46969D01*
X14762Y-46688D02*
X14762Y-47869D01*
X14762Y-46744D02*
X14874Y-46688D01*
X15099Y-46688D01*
X15212Y-46744D01*
X15268Y-46801D01*
X15324Y-46913D01*
X15324Y-47251D01*
X15268Y-47363D01*
X15212Y-47419D01*
X15099Y-47476D01*
X14874Y-47476D01*
X14762Y-47419D01*
X15830Y-47363D02*
X15887Y-47419D01*
X15830Y-47476D01*
X15774Y-47419D01*
X15830Y-47363D01*
X15830Y-47476D01*
X15830Y-46744D02*
X15887Y-46801D01*
X15830Y-46857D01*
X15774Y-46801D01*
X15830Y-46744D01*
X15830Y-46857D01*
X6466Y-49379D02*
X6663Y-49576D01*
X6663Y-49379D02*
X6466Y-49576D01*
X7956Y-48775D02*
X8069Y-48775D01*
X8181Y-48831D01*
X8238Y-48887D01*
X8294Y-49000D01*
X8350Y-49225D01*
X8350Y-49506D01*
X8294Y-49731D01*
X8238Y-49843D01*
X8181Y-49900D01*
X8069Y-49956D01*
X7956Y-49956D01*
X7844Y-49900D01*
X7788Y-49843D01*
X7732Y-49731D01*
X7675Y-49506D01*
X7675Y-49225D01*
X7732Y-49000D01*
X7788Y-48887D01*
X7844Y-48831D01*
X7956Y-48775D01*
X8856Y-49843D02*
X8913Y-49900D01*
X8856Y-49956D01*
X8800Y-49900D01*
X8856Y-49843D01*
X8856Y-49956D01*
X9981Y-48775D02*
X9419Y-48775D01*
X9363Y-49337D01*
X9419Y-49281D01*
X9531Y-49225D01*
X9812Y-49225D01*
X9925Y-49281D01*
X9981Y-49337D01*
X10037Y-49450D01*
X10037Y-49731D01*
X9981Y-49843D01*
X9925Y-49900D01*
X9812Y-49956D01*
X9531Y-49956D01*
X9419Y-49900D01*
X9363Y-49843D01*
X10769Y-48775D02*
X10881Y-48775D01*
X10994Y-48831D01*
X11050Y-48887D01*
X11106Y-49000D01*
X11162Y-49225D01*
X11162Y-49506D01*
X11106Y-49731D01*
X11050Y-49843D01*
X10994Y-49900D01*
X10881Y-49956D01*
X10769Y-49956D01*
X10656Y-49900D01*
X10600Y-49843D01*
X10544Y-49731D01*
X10487Y-49506D01*
X10487Y-49225D01*
X10544Y-49000D01*
X10600Y-48887D01*
X10656Y-48831D01*
X10769Y-48775D01*
X11669Y-49956D02*
X11669Y-49169D01*
X11669Y-49281D02*
X11725Y-49225D01*
X11837Y-49169D01*
X12006Y-49169D01*
X12118Y-49225D01*
X12175Y-49337D01*
X12175Y-49956D01*
X12175Y-49337D02*
X12231Y-49225D01*
X12343Y-49169D01*
X12512Y-49169D01*
X12625Y-49225D01*
X12681Y-49337D01*
X12681Y-49956D01*
X13243Y-49956D02*
X13243Y-49169D01*
X13243Y-49281D02*
X13300Y-49225D01*
X13412Y-49169D01*
X13581Y-49169D01*
X13693Y-49225D01*
X13749Y-49337D01*
X13749Y-49956D01*
X13749Y-49337D02*
X13806Y-49225D01*
X13918Y-49169D01*
X14087Y-49169D01*
X14199Y-49225D01*
X14256Y-49337D01*
X14256Y-49956D01*
X16562Y-48719D02*
X15549Y-50237D01*
X18080Y-48775D02*
X18193Y-48775D01*
X18305Y-48831D01*
X18361Y-48887D01*
X18418Y-49000D01*
X18474Y-49225D01*
X18474Y-49506D01*
X18418Y-49731D01*
X18361Y-49843D01*
X18305Y-49900D01*
X18193Y-49956D01*
X18080Y-49956D01*
X17968Y-49900D01*
X17911Y-49843D01*
X17855Y-49731D01*
X17799Y-49506D01*
X17799Y-49225D01*
X17855Y-49000D01*
X17911Y-48887D01*
X17968Y-48831D01*
X18080Y-48775D01*
X18980Y-49843D02*
X19036Y-49900D01*
X18980Y-49956D01*
X18924Y-49900D01*
X18980Y-49843D01*
X18980Y-49956D01*
X19767Y-48775D02*
X19880Y-48775D01*
X19992Y-48831D01*
X20049Y-48887D01*
X20105Y-49000D01*
X20161Y-49225D01*
X20161Y-49506D01*
X20105Y-49731D01*
X20049Y-49843D01*
X19992Y-49900D01*
X19880Y-49956D01*
X19767Y-49956D01*
X19655Y-49900D01*
X19599Y-49843D01*
X19543Y-49731D01*
X19486Y-49506D01*
X19486Y-49225D01*
X19543Y-49000D01*
X19599Y-48887D01*
X19655Y-48831D01*
X19767Y-48775D01*
X20611Y-48887D02*
X20667Y-48831D01*
X20780Y-48775D01*
X21061Y-48775D01*
X21174Y-48831D01*
X21230Y-48887D01*
X21286Y-49000D01*
X21286Y-49112D01*
X21230Y-49281D01*
X20555Y-49956D01*
X21286Y-49956D01*
X22017Y-48775D02*
X22130Y-48775D01*
X22242Y-48831D01*
X22298Y-48887D01*
X22355Y-49000D01*
X22411Y-49225D01*
X22411Y-49506D01*
X22355Y-49731D01*
X22298Y-49843D01*
X22242Y-49900D01*
X22130Y-49956D01*
X22017Y-49956D01*
X21905Y-49900D01*
X21848Y-49843D01*
X21792Y-49731D01*
X21736Y-49506D01*
X21736Y-49225D01*
X21792Y-49000D01*
X21848Y-48887D01*
X21905Y-48831D01*
X22017Y-48775D01*
X22861Y-48775D02*
X22861Y-49000D01*
X23311Y-48775D02*
X23311Y-49000D01*
X25054Y-50406D02*
X24998Y-50350D01*
X24886Y-50181D01*
X24829Y-50068D01*
X24773Y-49900D01*
X24717Y-49618D01*
X24717Y-49393D01*
X24773Y-49112D01*
X24829Y-48944D01*
X24886Y-48831D01*
X24998Y-48662D01*
X25054Y-48606D01*
X25392Y-48775D02*
X26123Y-48775D01*
X25729Y-49225D01*
X25898Y-49225D01*
X26010Y-49281D01*
X26067Y-49337D01*
X26123Y-49450D01*
X26123Y-49731D01*
X26067Y-49843D01*
X26010Y-49900D01*
X25898Y-49956D01*
X25561Y-49956D01*
X25448Y-49900D01*
X25392Y-49843D01*
X27248Y-49956D02*
X26573Y-49956D01*
X26910Y-49956D02*
X26910Y-48775D01*
X26798Y-48944D01*
X26685Y-49056D01*
X26573Y-49112D01*
X28654Y-49956D02*
X28654Y-48775D01*
X29160Y-49956D02*
X29160Y-49337D01*
X29104Y-49225D01*
X28991Y-49169D01*
X28823Y-49169D01*
X28710Y-49225D01*
X28654Y-49281D01*
X29891Y-49956D02*
X29779Y-49900D01*
X29723Y-49843D01*
X29666Y-49731D01*
X29666Y-49393D01*
X29723Y-49281D01*
X29779Y-49225D01*
X29891Y-49169D01*
X30060Y-49169D01*
X30172Y-49225D01*
X30229Y-49281D01*
X30285Y-49393D01*
X30285Y-49731D01*
X30229Y-49843D01*
X30172Y-49900D01*
X30060Y-49956D01*
X29891Y-49956D01*
X30960Y-49956D02*
X30847Y-49900D01*
X30791Y-49787D01*
X30791Y-48775D01*
X31860Y-49900D02*
X31747Y-49956D01*
X31522Y-49956D01*
X31410Y-49900D01*
X31354Y-49787D01*
X31354Y-49337D01*
X31410Y-49225D01*
X31522Y-49169D01*
X31747Y-49169D01*
X31860Y-49225D01*
X31916Y-49337D01*
X31916Y-49450D01*
X31354Y-49562D01*
X32366Y-49900D02*
X32478Y-49956D01*
X32703Y-49956D01*
X32816Y-49900D01*
X32872Y-49787D01*
X32872Y-49731D01*
X32816Y-49618D01*
X32703Y-49562D01*
X32535Y-49562D01*
X32422Y-49506D01*
X32366Y-49393D01*
X32366Y-49337D01*
X32422Y-49225D01*
X32535Y-49169D01*
X32703Y-49169D01*
X32816Y-49225D01*
X33266Y-50406D02*
X33322Y-50350D01*
X33435Y-50181D01*
X33491Y-50068D01*
X33547Y-49900D01*
X33603Y-49618D01*
X33603Y-49393D01*
X33547Y-49112D01*
X33491Y-48944D01*
X33435Y-48831D01*
X33322Y-48662D01*
X33266Y-48606D01*
G54D13*
X6663Y-51037D02*
G75*
G03X6663Y-51037I-133J0D01*
G74*
G01*
G54D11*
X7956Y-50334D02*
X8069Y-50334D01*
X8181Y-50390D01*
X8238Y-50446D01*
X8294Y-50559D01*
X8350Y-50784D01*
X8350Y-51065D01*
X8294Y-51290D01*
X8238Y-51402D01*
X8181Y-51459D01*
X8069Y-51515D01*
X7956Y-51515D01*
X7844Y-51459D01*
X7788Y-51402D01*
X7732Y-51290D01*
X7675Y-51065D01*
X7675Y-50784D01*
X7732Y-50559D01*
X7788Y-50446D01*
X7844Y-50390D01*
X7956Y-50334D01*
X8856Y-51402D02*
X8913Y-51459D01*
X8856Y-51515D01*
X8800Y-51459D01*
X8856Y-51402D01*
X8856Y-51515D01*
X9925Y-50334D02*
X9700Y-50334D01*
X9588Y-50390D01*
X9531Y-50446D01*
X9419Y-50615D01*
X9363Y-50840D01*
X9363Y-51290D01*
X9419Y-51402D01*
X9475Y-51459D01*
X9588Y-51515D01*
X9812Y-51515D01*
X9925Y-51459D01*
X9981Y-51402D01*
X10037Y-51290D01*
X10037Y-51009D01*
X9981Y-50896D01*
X9925Y-50840D01*
X9812Y-50784D01*
X9588Y-50784D01*
X9475Y-50840D01*
X9419Y-50896D01*
X9363Y-51009D01*
X10712Y-50840D02*
X10600Y-50784D01*
X10544Y-50728D01*
X10487Y-50615D01*
X10487Y-50559D01*
X10544Y-50446D01*
X10600Y-50390D01*
X10712Y-50334D01*
X10937Y-50334D01*
X11050Y-50390D01*
X11106Y-50446D01*
X11162Y-50559D01*
X11162Y-50615D01*
X11106Y-50728D01*
X11050Y-50784D01*
X10937Y-50840D01*
X10712Y-50840D01*
X10600Y-50896D01*
X10544Y-50953D01*
X10487Y-51065D01*
X10487Y-51290D01*
X10544Y-51402D01*
X10600Y-51459D01*
X10712Y-51515D01*
X10937Y-51515D01*
X11050Y-51459D01*
X11106Y-51402D01*
X11162Y-51290D01*
X11162Y-51065D01*
X11106Y-50953D01*
X11050Y-50896D01*
X10937Y-50840D01*
X11669Y-51515D02*
X11669Y-50728D01*
X11669Y-50840D02*
X11725Y-50784D01*
X11837Y-50728D01*
X12006Y-50728D01*
X12118Y-50784D01*
X12175Y-50896D01*
X12175Y-51515D01*
X12175Y-50896D02*
X12231Y-50784D01*
X12343Y-50728D01*
X12512Y-50728D01*
X12625Y-50784D01*
X12681Y-50896D01*
X12681Y-51515D01*
X13243Y-51515D02*
X13243Y-50728D01*
X13243Y-50840D02*
X13300Y-50784D01*
X13412Y-50728D01*
X13581Y-50728D01*
X13693Y-50784D01*
X13749Y-50896D01*
X13749Y-51515D01*
X13749Y-50896D02*
X13806Y-50784D01*
X13918Y-50728D01*
X14087Y-50728D01*
X14199Y-50784D01*
X14256Y-50896D01*
X14256Y-51515D01*
X16562Y-50278D02*
X15549Y-51796D01*
X18080Y-50334D02*
X18193Y-50334D01*
X18305Y-50390D01*
X18361Y-50446D01*
X18418Y-50559D01*
X18474Y-50784D01*
X18474Y-51065D01*
X18418Y-51290D01*
X18361Y-51402D01*
X18305Y-51459D01*
X18193Y-51515D01*
X18080Y-51515D01*
X17968Y-51459D01*
X17911Y-51402D01*
X17855Y-51290D01*
X17799Y-51065D01*
X17799Y-50784D01*
X17855Y-50559D01*
X17911Y-50446D01*
X17968Y-50390D01*
X18080Y-50334D01*
X18980Y-51402D02*
X19036Y-51459D01*
X18980Y-51515D01*
X18924Y-51459D01*
X18980Y-51402D01*
X18980Y-51515D01*
X19767Y-50334D02*
X19880Y-50334D01*
X19992Y-50390D01*
X20049Y-50446D01*
X20105Y-50559D01*
X20161Y-50784D01*
X20161Y-51065D01*
X20105Y-51290D01*
X20049Y-51402D01*
X19992Y-51459D01*
X19880Y-51515D01*
X19767Y-51515D01*
X19655Y-51459D01*
X19599Y-51402D01*
X19543Y-51290D01*
X19486Y-51065D01*
X19486Y-50784D01*
X19543Y-50559D01*
X19599Y-50446D01*
X19655Y-50390D01*
X19767Y-50334D01*
X20611Y-50446D02*
X20667Y-50390D01*
X20780Y-50334D01*
X21061Y-50334D01*
X21174Y-50390D01*
X21230Y-50446D01*
X21286Y-50559D01*
X21286Y-50671D01*
X21230Y-50840D01*
X20555Y-51515D01*
X21286Y-51515D01*
X21680Y-50334D02*
X22467Y-50334D01*
X21961Y-51515D01*
X22861Y-50334D02*
X22861Y-50559D01*
X23311Y-50334D02*
X23311Y-50559D01*
X25054Y-51965D02*
X24998Y-51909D01*
X24886Y-51740D01*
X24829Y-51627D01*
X24773Y-51459D01*
X24717Y-51178D01*
X24717Y-50953D01*
X24773Y-50671D01*
X24829Y-50503D01*
X24886Y-50390D01*
X24998Y-50221D01*
X25054Y-50165D01*
X26123Y-51515D02*
X25448Y-51515D01*
X25785Y-51515D02*
X25785Y-50334D01*
X25673Y-50503D01*
X25561Y-50615D01*
X25448Y-50671D01*
X26573Y-50446D02*
X26629Y-50390D01*
X26742Y-50334D01*
X27023Y-50334D01*
X27135Y-50390D01*
X27192Y-50446D01*
X27248Y-50559D01*
X27248Y-50671D01*
X27192Y-50840D01*
X26517Y-51515D01*
X27248Y-51515D01*
X28654Y-51515D02*
X28654Y-50334D01*
X29160Y-51515D02*
X29160Y-50896D01*
X29104Y-50784D01*
X28991Y-50728D01*
X28823Y-50728D01*
X28710Y-50784D01*
X28654Y-50840D01*
X29891Y-51515D02*
X29779Y-51459D01*
X29723Y-51402D01*
X29666Y-51290D01*
X29666Y-50953D01*
X29723Y-50840D01*
X29779Y-50784D01*
X29891Y-50728D01*
X30060Y-50728D01*
X30172Y-50784D01*
X30229Y-50840D01*
X30285Y-50953D01*
X30285Y-51290D01*
X30229Y-51402D01*
X30172Y-51459D01*
X30060Y-51515D01*
X29891Y-51515D01*
X30960Y-51515D02*
X30847Y-51459D01*
X30791Y-51346D01*
X30791Y-50334D01*
X31860Y-51459D02*
X31747Y-51515D01*
X31522Y-51515D01*
X31410Y-51459D01*
X31354Y-51346D01*
X31354Y-50896D01*
X31410Y-50784D01*
X31522Y-50728D01*
X31747Y-50728D01*
X31860Y-50784D01*
X31916Y-50896D01*
X31916Y-51009D01*
X31354Y-51121D01*
X32366Y-51459D02*
X32478Y-51515D01*
X32703Y-51515D01*
X32816Y-51459D01*
X32872Y-51346D01*
X32872Y-51290D01*
X32816Y-51178D01*
X32703Y-51121D01*
X32535Y-51121D01*
X32422Y-51065D01*
X32366Y-50953D01*
X32366Y-50896D01*
X32422Y-50784D01*
X32535Y-50728D01*
X32703Y-50728D01*
X32816Y-50784D01*
X33266Y-51965D02*
X33322Y-51909D01*
X33435Y-51740D01*
X33491Y-51627D01*
X33547Y-51459D01*
X33603Y-51178D01*
X33603Y-50953D01*
X33547Y-50671D01*
X33491Y-50503D01*
X33435Y-50390D01*
X33322Y-50221D01*
X33266Y-50165D01*
X6503Y-52436D02*
X6503Y-52756D01*
X6343Y-52596D02*
X6663Y-52596D01*
X7956Y-51893D02*
X8069Y-51893D01*
X8181Y-51949D01*
X8238Y-52005D01*
X8294Y-52118D01*
X8350Y-52343D01*
X8350Y-52624D01*
X8294Y-52849D01*
X8238Y-52962D01*
X8181Y-53018D01*
X8069Y-53074D01*
X7956Y-53074D01*
X7844Y-53018D01*
X7788Y-52962D01*
X7732Y-52849D01*
X7675Y-52624D01*
X7675Y-52343D01*
X7732Y-52118D01*
X7788Y-52005D01*
X7844Y-51949D01*
X7956Y-51893D01*
X8856Y-52962D02*
X8913Y-53018D01*
X8856Y-53074D01*
X8800Y-53018D01*
X8856Y-52962D01*
X8856Y-53074D01*
X9588Y-52399D02*
X9475Y-52343D01*
X9419Y-52287D01*
X9363Y-52174D01*
X9363Y-52118D01*
X9419Y-52005D01*
X9475Y-51949D01*
X9588Y-51893D01*
X9812Y-51893D01*
X9925Y-51949D01*
X9981Y-52005D01*
X10037Y-52118D01*
X10037Y-52174D01*
X9981Y-52287D01*
X9925Y-52343D01*
X9812Y-52399D01*
X9588Y-52399D01*
X9475Y-52455D01*
X9419Y-52512D01*
X9363Y-52624D01*
X9363Y-52849D01*
X9419Y-52962D01*
X9475Y-53018D01*
X9588Y-53074D01*
X9812Y-53074D01*
X9925Y-53018D01*
X9981Y-52962D01*
X10037Y-52849D01*
X10037Y-52624D01*
X9981Y-52512D01*
X9925Y-52455D01*
X9812Y-52399D01*
X11162Y-53074D02*
X10487Y-53074D01*
X10825Y-53074D02*
X10825Y-51893D01*
X10712Y-52062D01*
X10600Y-52174D01*
X10487Y-52230D01*
X11669Y-53074D02*
X11669Y-52287D01*
X11669Y-52399D02*
X11725Y-52343D01*
X11837Y-52287D01*
X12006Y-52287D01*
X12118Y-52343D01*
X12175Y-52455D01*
X12175Y-53074D01*
X12175Y-52455D02*
X12231Y-52343D01*
X12343Y-52287D01*
X12512Y-52287D01*
X12625Y-52343D01*
X12681Y-52455D01*
X12681Y-53074D01*
X13243Y-53074D02*
X13243Y-52287D01*
X13243Y-52399D02*
X13300Y-52343D01*
X13412Y-52287D01*
X13581Y-52287D01*
X13693Y-52343D01*
X13749Y-52455D01*
X13749Y-53074D01*
X13749Y-52455D02*
X13806Y-52343D01*
X13918Y-52287D01*
X14087Y-52287D01*
X14199Y-52343D01*
X14256Y-52455D01*
X14256Y-53074D01*
X16562Y-51837D02*
X15549Y-53355D01*
X18080Y-51893D02*
X18193Y-51893D01*
X18305Y-51949D01*
X18361Y-52005D01*
X18418Y-52118D01*
X18474Y-52343D01*
X18474Y-52624D01*
X18418Y-52849D01*
X18361Y-52962D01*
X18305Y-53018D01*
X18193Y-53074D01*
X18080Y-53074D01*
X17968Y-53018D01*
X17911Y-52962D01*
X17855Y-52849D01*
X17799Y-52624D01*
X17799Y-52343D01*
X17855Y-52118D01*
X17911Y-52005D01*
X17968Y-51949D01*
X18080Y-51893D01*
X18980Y-52962D02*
X19036Y-53018D01*
X18980Y-53074D01*
X18924Y-53018D01*
X18980Y-52962D01*
X18980Y-53074D01*
X19767Y-51893D02*
X19880Y-51893D01*
X19992Y-51949D01*
X20049Y-52005D01*
X20105Y-52118D01*
X20161Y-52343D01*
X20161Y-52624D01*
X20105Y-52849D01*
X20049Y-52962D01*
X19992Y-53018D01*
X19880Y-53074D01*
X19767Y-53074D01*
X19655Y-53018D01*
X19599Y-52962D01*
X19543Y-52849D01*
X19486Y-52624D01*
X19486Y-52343D01*
X19543Y-52118D01*
X19599Y-52005D01*
X19655Y-51949D01*
X19767Y-51893D01*
X20555Y-51893D02*
X21286Y-51893D01*
X20892Y-52343D01*
X21061Y-52343D01*
X21174Y-52399D01*
X21230Y-52455D01*
X21286Y-52568D01*
X21286Y-52849D01*
X21230Y-52962D01*
X21174Y-53018D01*
X21061Y-53074D01*
X20724Y-53074D01*
X20611Y-53018D01*
X20555Y-52962D01*
X21736Y-52005D02*
X21792Y-51949D01*
X21905Y-51893D01*
X22186Y-51893D01*
X22298Y-51949D01*
X22355Y-52005D01*
X22411Y-52118D01*
X22411Y-52230D01*
X22355Y-52399D01*
X21680Y-53074D01*
X22411Y-53074D01*
X22861Y-51893D02*
X22861Y-52118D01*
X23311Y-51893D02*
X23311Y-52118D01*
X25054Y-53524D02*
X24998Y-53468D01*
X24886Y-53299D01*
X24829Y-53187D01*
X24773Y-53018D01*
X24717Y-52737D01*
X24717Y-52512D01*
X24773Y-52230D01*
X24829Y-52062D01*
X24886Y-51949D01*
X24998Y-51780D01*
X25054Y-51724D01*
X26123Y-53074D02*
X25448Y-53074D01*
X25785Y-53074D02*
X25785Y-51893D01*
X25673Y-52062D01*
X25561Y-52174D01*
X25448Y-52230D01*
X27135Y-51893D02*
X26910Y-51893D01*
X26798Y-51949D01*
X26742Y-52005D01*
X26629Y-52174D01*
X26573Y-52399D01*
X26573Y-52849D01*
X26629Y-52962D01*
X26685Y-53018D01*
X26798Y-53074D01*
X27023Y-53074D01*
X27135Y-53018D01*
X27192Y-52962D01*
X27248Y-52849D01*
X27248Y-52568D01*
X27192Y-52455D01*
X27135Y-52399D01*
X27023Y-52343D01*
X26798Y-52343D01*
X26685Y-52399D01*
X26629Y-52455D01*
X26573Y-52568D01*
X28654Y-53074D02*
X28654Y-51893D01*
X29160Y-53074D02*
X29160Y-52455D01*
X29104Y-52343D01*
X28991Y-52287D01*
X28823Y-52287D01*
X28710Y-52343D01*
X28654Y-52399D01*
X29891Y-53074D02*
X29779Y-53018D01*
X29723Y-52962D01*
X29666Y-52849D01*
X29666Y-52512D01*
X29723Y-52399D01*
X29779Y-52343D01*
X29891Y-52287D01*
X30060Y-52287D01*
X30172Y-52343D01*
X30229Y-52399D01*
X30285Y-52512D01*
X30285Y-52849D01*
X30229Y-52962D01*
X30172Y-53018D01*
X30060Y-53074D01*
X29891Y-53074D01*
X30960Y-53074D02*
X30847Y-53018D01*
X30791Y-52905D01*
X30791Y-51893D01*
X31860Y-53018D02*
X31747Y-53074D01*
X31522Y-53074D01*
X31410Y-53018D01*
X31354Y-52905D01*
X31354Y-52455D01*
X31410Y-52343D01*
X31522Y-52287D01*
X31747Y-52287D01*
X31860Y-52343D01*
X31916Y-52455D01*
X31916Y-52568D01*
X31354Y-52680D01*
X32366Y-53018D02*
X32478Y-53074D01*
X32703Y-53074D01*
X32816Y-53018D01*
X32872Y-52905D01*
X32872Y-52849D01*
X32816Y-52737D01*
X32703Y-52680D01*
X32535Y-52680D01*
X32422Y-52624D01*
X32366Y-52512D01*
X32366Y-52455D01*
X32422Y-52343D01*
X32535Y-52287D01*
X32703Y-52287D01*
X32816Y-52343D01*
X33266Y-53524D02*
X33322Y-53468D01*
X33435Y-53299D01*
X33491Y-53187D01*
X33547Y-53018D01*
X33603Y-52737D01*
X33603Y-52512D01*
X33547Y-52230D01*
X33491Y-52062D01*
X33435Y-51949D01*
X33322Y-51780D01*
X33266Y-51724D01*
G54D13*
X6611Y-54280D02*
X6611Y-54030D01*
X6361Y-54030D01*
X6361Y-54280D01*
X6611Y-54280D01*
G54D11*
X7956Y-53452D02*
X8069Y-53452D01*
X8181Y-53508D01*
X8238Y-53564D01*
X8294Y-53677D01*
X8350Y-53902D01*
X8350Y-54183D01*
X8294Y-54408D01*
X8238Y-54521D01*
X8181Y-54577D01*
X8069Y-54633D01*
X7956Y-54633D01*
X7844Y-54577D01*
X7788Y-54521D01*
X7732Y-54408D01*
X7675Y-54183D01*
X7675Y-53902D01*
X7732Y-53677D01*
X7788Y-53564D01*
X7844Y-53508D01*
X7956Y-53452D01*
X8856Y-54521D02*
X8913Y-54577D01*
X8856Y-54633D01*
X8800Y-54577D01*
X8856Y-54521D01*
X8856Y-54633D01*
X9475Y-54633D02*
X9700Y-54633D01*
X9812Y-54577D01*
X9869Y-54521D01*
X9981Y-54352D01*
X10037Y-54127D01*
X10037Y-53677D01*
X9981Y-53564D01*
X9925Y-53508D01*
X9812Y-53452D01*
X9588Y-53452D01*
X9475Y-53508D01*
X9419Y-53564D01*
X9363Y-53677D01*
X9363Y-53958D01*
X9419Y-54071D01*
X9475Y-54127D01*
X9588Y-54183D01*
X9812Y-54183D01*
X9925Y-54127D01*
X9981Y-54071D01*
X10037Y-53958D01*
X10769Y-53452D02*
X10881Y-53452D01*
X10994Y-53508D01*
X11050Y-53564D01*
X11106Y-53677D01*
X11162Y-53902D01*
X11162Y-54183D01*
X11106Y-54408D01*
X11050Y-54521D01*
X10994Y-54577D01*
X10881Y-54633D01*
X10769Y-54633D01*
X10656Y-54577D01*
X10600Y-54521D01*
X10544Y-54408D01*
X10487Y-54183D01*
X10487Y-53902D01*
X10544Y-53677D01*
X10600Y-53564D01*
X10656Y-53508D01*
X10769Y-53452D01*
X11669Y-54633D02*
X11669Y-53846D01*
X11669Y-53958D02*
X11725Y-53902D01*
X11837Y-53846D01*
X12006Y-53846D01*
X12118Y-53902D01*
X12175Y-54014D01*
X12175Y-54633D01*
X12175Y-54014D02*
X12231Y-53902D01*
X12343Y-53846D01*
X12512Y-53846D01*
X12625Y-53902D01*
X12681Y-54014D01*
X12681Y-54633D01*
X13243Y-54633D02*
X13243Y-53846D01*
X13243Y-53958D02*
X13300Y-53902D01*
X13412Y-53846D01*
X13581Y-53846D01*
X13693Y-53902D01*
X13749Y-54014D01*
X13749Y-54633D01*
X13749Y-54014D02*
X13806Y-53902D01*
X13918Y-53846D01*
X14087Y-53846D01*
X14199Y-53902D01*
X14256Y-54014D01*
X14256Y-54633D01*
X16562Y-53396D02*
X15549Y-54914D01*
X18080Y-53452D02*
X18193Y-53452D01*
X18305Y-53508D01*
X18361Y-53564D01*
X18418Y-53677D01*
X18474Y-53902D01*
X18474Y-54183D01*
X18418Y-54408D01*
X18361Y-54521D01*
X18305Y-54577D01*
X18193Y-54633D01*
X18080Y-54633D01*
X17968Y-54577D01*
X17911Y-54521D01*
X17855Y-54408D01*
X17799Y-54183D01*
X17799Y-53902D01*
X17855Y-53677D01*
X17911Y-53564D01*
X17968Y-53508D01*
X18080Y-53452D01*
X18980Y-54521D02*
X19036Y-54577D01*
X18980Y-54633D01*
X18924Y-54577D01*
X18980Y-54521D01*
X18980Y-54633D01*
X19767Y-53452D02*
X19880Y-53452D01*
X19992Y-53508D01*
X20049Y-53564D01*
X20105Y-53677D01*
X20161Y-53902D01*
X20161Y-54183D01*
X20105Y-54408D01*
X20049Y-54521D01*
X19992Y-54577D01*
X19880Y-54633D01*
X19767Y-54633D01*
X19655Y-54577D01*
X19599Y-54521D01*
X19543Y-54408D01*
X19486Y-54183D01*
X19486Y-53902D01*
X19543Y-53677D01*
X19599Y-53564D01*
X19655Y-53508D01*
X19767Y-53452D01*
X20555Y-53452D02*
X21286Y-53452D01*
X20892Y-53902D01*
X21061Y-53902D01*
X21174Y-53958D01*
X21230Y-54014D01*
X21286Y-54127D01*
X21286Y-54408D01*
X21230Y-54521D01*
X21174Y-54577D01*
X21061Y-54633D01*
X20724Y-54633D01*
X20611Y-54577D01*
X20555Y-54521D01*
X22355Y-53452D02*
X21792Y-53452D01*
X21736Y-54014D01*
X21792Y-53958D01*
X21905Y-53902D01*
X22186Y-53902D01*
X22298Y-53958D01*
X22355Y-54014D01*
X22411Y-54127D01*
X22411Y-54408D01*
X22355Y-54521D01*
X22298Y-54577D01*
X22186Y-54633D01*
X21905Y-54633D01*
X21792Y-54577D01*
X21736Y-54521D01*
X22861Y-53452D02*
X22861Y-53677D01*
X23311Y-53452D02*
X23311Y-53677D01*
X25054Y-55083D02*
X24998Y-55027D01*
X24886Y-54858D01*
X24829Y-54746D01*
X24773Y-54577D01*
X24717Y-54296D01*
X24717Y-54071D01*
X24773Y-53789D01*
X24829Y-53621D01*
X24886Y-53508D01*
X24998Y-53339D01*
X25054Y-53283D01*
X26067Y-53452D02*
X25504Y-53452D01*
X25448Y-54014D01*
X25504Y-53958D01*
X25617Y-53902D01*
X25898Y-53902D01*
X26010Y-53958D01*
X26067Y-54014D01*
X26123Y-54127D01*
X26123Y-54408D01*
X26067Y-54521D01*
X26010Y-54577D01*
X25898Y-54633D01*
X25617Y-54633D01*
X25504Y-54577D01*
X25448Y-54521D01*
X27135Y-53452D02*
X26910Y-53452D01*
X26798Y-53508D01*
X26742Y-53564D01*
X26629Y-53733D01*
X26573Y-53958D01*
X26573Y-54408D01*
X26629Y-54521D01*
X26685Y-54577D01*
X26798Y-54633D01*
X27023Y-54633D01*
X27135Y-54577D01*
X27192Y-54521D01*
X27248Y-54408D01*
X27248Y-54127D01*
X27192Y-54014D01*
X27135Y-53958D01*
X27023Y-53902D01*
X26798Y-53902D01*
X26685Y-53958D01*
X26629Y-54014D01*
X26573Y-54127D01*
X28654Y-54633D02*
X28654Y-53452D01*
X29160Y-54633D02*
X29160Y-54014D01*
X29104Y-53902D01*
X28991Y-53846D01*
X28823Y-53846D01*
X28710Y-53902D01*
X28654Y-53958D01*
X29891Y-54633D02*
X29779Y-54577D01*
X29723Y-54521D01*
X29666Y-54408D01*
X29666Y-54071D01*
X29723Y-53958D01*
X29779Y-53902D01*
X29891Y-53846D01*
X30060Y-53846D01*
X30172Y-53902D01*
X30229Y-53958D01*
X30285Y-54071D01*
X30285Y-54408D01*
X30229Y-54521D01*
X30172Y-54577D01*
X30060Y-54633D01*
X29891Y-54633D01*
X30960Y-54633D02*
X30847Y-54577D01*
X30791Y-54464D01*
X30791Y-53452D01*
X31860Y-54577D02*
X31747Y-54633D01*
X31522Y-54633D01*
X31410Y-54577D01*
X31354Y-54464D01*
X31354Y-54014D01*
X31410Y-53902D01*
X31522Y-53846D01*
X31747Y-53846D01*
X31860Y-53902D01*
X31916Y-54014D01*
X31916Y-54127D01*
X31354Y-54239D01*
X32366Y-54577D02*
X32478Y-54633D01*
X32703Y-54633D01*
X32816Y-54577D01*
X32872Y-54464D01*
X32872Y-54408D01*
X32816Y-54296D01*
X32703Y-54239D01*
X32535Y-54239D01*
X32422Y-54183D01*
X32366Y-54071D01*
X32366Y-54014D01*
X32422Y-53902D01*
X32535Y-53846D01*
X32703Y-53846D01*
X32816Y-53902D01*
X33266Y-55083D02*
X33322Y-55027D01*
X33435Y-54858D01*
X33491Y-54746D01*
X33547Y-54577D01*
X33603Y-54296D01*
X33603Y-54071D01*
X33547Y-53789D01*
X33491Y-53621D01*
X33435Y-53508D01*
X33322Y-53339D01*
X33266Y-53283D01*
G54D13*
X6348Y-56029D02*
X6663Y-55714D01*
X6348Y-55399D01*
X6033Y-55714D01*
X6348Y-56029D01*
G54D11*
X8350Y-56192D02*
X7675Y-56192D01*
X8013Y-56192D02*
X8013Y-55011D01*
X7900Y-55180D01*
X7788Y-55292D01*
X7675Y-55348D01*
X8856Y-56080D02*
X8913Y-56136D01*
X8856Y-56192D01*
X8800Y-56136D01*
X8856Y-56080D01*
X8856Y-56192D01*
X9925Y-55011D02*
X9700Y-55011D01*
X9588Y-55067D01*
X9531Y-55124D01*
X9419Y-55292D01*
X9363Y-55517D01*
X9363Y-55967D01*
X9419Y-56080D01*
X9475Y-56136D01*
X9588Y-56192D01*
X9812Y-56192D01*
X9925Y-56136D01*
X9981Y-56080D01*
X10037Y-55967D01*
X10037Y-55686D01*
X9981Y-55573D01*
X9925Y-55517D01*
X9812Y-55461D01*
X9588Y-55461D01*
X9475Y-55517D01*
X9419Y-55573D01*
X9363Y-55686D01*
X10769Y-55011D02*
X10881Y-55011D01*
X10994Y-55067D01*
X11050Y-55124D01*
X11106Y-55236D01*
X11162Y-55461D01*
X11162Y-55742D01*
X11106Y-55967D01*
X11050Y-56080D01*
X10994Y-56136D01*
X10881Y-56192D01*
X10769Y-56192D01*
X10656Y-56136D01*
X10600Y-56080D01*
X10544Y-55967D01*
X10487Y-55742D01*
X10487Y-55461D01*
X10544Y-55236D01*
X10600Y-55124D01*
X10656Y-55067D01*
X10769Y-55011D01*
X11669Y-56192D02*
X11669Y-55405D01*
X11669Y-55517D02*
X11725Y-55461D01*
X11837Y-55405D01*
X12006Y-55405D01*
X12118Y-55461D01*
X12175Y-55573D01*
X12175Y-56192D01*
X12175Y-55573D02*
X12231Y-55461D01*
X12343Y-55405D01*
X12512Y-55405D01*
X12625Y-55461D01*
X12681Y-55573D01*
X12681Y-56192D01*
X13243Y-56192D02*
X13243Y-55405D01*
X13243Y-55517D02*
X13300Y-55461D01*
X13412Y-55405D01*
X13581Y-55405D01*
X13693Y-55461D01*
X13749Y-55573D01*
X13749Y-56192D01*
X13749Y-55573D02*
X13806Y-55461D01*
X13918Y-55405D01*
X14087Y-55405D01*
X14199Y-55461D01*
X14256Y-55573D01*
X14256Y-56192D01*
X16562Y-54955D02*
X15549Y-56473D01*
X18080Y-55011D02*
X18193Y-55011D01*
X18305Y-55067D01*
X18361Y-55124D01*
X18418Y-55236D01*
X18474Y-55461D01*
X18474Y-55742D01*
X18418Y-55967D01*
X18361Y-56080D01*
X18305Y-56136D01*
X18193Y-56192D01*
X18080Y-56192D01*
X17968Y-56136D01*
X17911Y-56080D01*
X17855Y-55967D01*
X17799Y-55742D01*
X17799Y-55461D01*
X17855Y-55236D01*
X17911Y-55124D01*
X17968Y-55067D01*
X18080Y-55011D01*
X18980Y-56080D02*
X19036Y-56136D01*
X18980Y-56192D01*
X18924Y-56136D01*
X18980Y-56080D01*
X18980Y-56192D01*
X19767Y-55011D02*
X19880Y-55011D01*
X19992Y-55067D01*
X20049Y-55124D01*
X20105Y-55236D01*
X20161Y-55461D01*
X20161Y-55742D01*
X20105Y-55967D01*
X20049Y-56080D01*
X19992Y-56136D01*
X19880Y-56192D01*
X19767Y-56192D01*
X19655Y-56136D01*
X19599Y-56080D01*
X19543Y-55967D01*
X19486Y-55742D01*
X19486Y-55461D01*
X19543Y-55236D01*
X19599Y-55124D01*
X19655Y-55067D01*
X19767Y-55011D01*
X21174Y-55011D02*
X20949Y-55011D01*
X20836Y-55067D01*
X20780Y-55124D01*
X20667Y-55292D01*
X20611Y-55517D01*
X20611Y-55967D01*
X20667Y-56080D01*
X20724Y-56136D01*
X20836Y-56192D01*
X21061Y-56192D01*
X21174Y-56136D01*
X21230Y-56080D01*
X21286Y-55967D01*
X21286Y-55686D01*
X21230Y-55573D01*
X21174Y-55517D01*
X21061Y-55461D01*
X20836Y-55461D01*
X20724Y-55517D01*
X20667Y-55573D01*
X20611Y-55686D01*
X21680Y-55011D02*
X22411Y-55011D01*
X22017Y-55461D01*
X22186Y-55461D01*
X22298Y-55517D01*
X22355Y-55573D01*
X22411Y-55686D01*
X22411Y-55967D01*
X22355Y-56080D01*
X22298Y-56136D01*
X22186Y-56192D01*
X21848Y-56192D01*
X21736Y-56136D01*
X21680Y-56080D01*
X22861Y-55011D02*
X22861Y-55236D01*
X23311Y-55011D02*
X23311Y-55236D01*
X25054Y-56642D02*
X24998Y-56586D01*
X24886Y-56417D01*
X24829Y-56305D01*
X24773Y-56136D01*
X24717Y-55855D01*
X24717Y-55630D01*
X24773Y-55348D01*
X24829Y-55180D01*
X24886Y-55067D01*
X24998Y-54899D01*
X25054Y-54842D01*
X26123Y-56192D02*
X25448Y-56192D01*
X25785Y-56192D02*
X25785Y-55011D01*
X25673Y-55180D01*
X25561Y-55292D01*
X25448Y-55348D01*
X27135Y-55405D02*
X27135Y-56192D01*
X26854Y-54955D02*
X26573Y-55798D01*
X27304Y-55798D01*
X28654Y-56192D02*
X28654Y-55011D01*
X29160Y-56192D02*
X29160Y-55573D01*
X29104Y-55461D01*
X28991Y-55405D01*
X28823Y-55405D01*
X28710Y-55461D01*
X28654Y-55517D01*
X29891Y-56192D02*
X29779Y-56136D01*
X29723Y-56080D01*
X29666Y-55967D01*
X29666Y-55630D01*
X29723Y-55517D01*
X29779Y-55461D01*
X29891Y-55405D01*
X30060Y-55405D01*
X30172Y-55461D01*
X30229Y-55517D01*
X30285Y-55630D01*
X30285Y-55967D01*
X30229Y-56080D01*
X30172Y-56136D01*
X30060Y-56192D01*
X29891Y-56192D01*
X30960Y-56192D02*
X30847Y-56136D01*
X30791Y-56023D01*
X30791Y-55011D01*
X31860Y-56136D02*
X31747Y-56192D01*
X31522Y-56192D01*
X31410Y-56136D01*
X31354Y-56023D01*
X31354Y-55573D01*
X31410Y-55461D01*
X31522Y-55405D01*
X31747Y-55405D01*
X31860Y-55461D01*
X31916Y-55573D01*
X31916Y-55686D01*
X31354Y-55798D01*
X32366Y-56136D02*
X32478Y-56192D01*
X32703Y-56192D01*
X32816Y-56136D01*
X32872Y-56023D01*
X32872Y-55967D01*
X32816Y-55855D01*
X32703Y-55798D01*
X32535Y-55798D01*
X32422Y-55742D01*
X32366Y-55630D01*
X32366Y-55573D01*
X32422Y-55461D01*
X32535Y-55405D01*
X32703Y-55405D01*
X32816Y-55461D01*
X33266Y-56642D02*
X33322Y-56586D01*
X33435Y-56417D01*
X33491Y-56305D01*
X33547Y-56136D01*
X33603Y-55855D01*
X33603Y-55630D01*
X33547Y-55348D01*
X33491Y-55180D01*
X33435Y-55067D01*
X33322Y-54899D01*
X33266Y-54842D01*
M02*
