M48
;DRILL file {Pcbnew (2013-07-07 BZR 4022)-stable} date 18/09/2013 13:55:10
;FORMAT={-:-/ absolute / metric / decimal}
FMAT,2
METRIC,TZ
T1C0.500
T2C0.600
T3C0.800
T4C0.899
T5C1.600
%
G90
G05
M71
T1
X40.1Y-28.25
X40.8Y-29.2
X41.Y-42.9
X41.85Y-42.05
X42.8Y-26.1
X43.4Y-25.4
X44.029Y-24.629
X47.9Y-36.3
X47.9Y-38.45
X49.1Y-42.
X50.4Y-36.3
X51.65Y-35.65
X52.9Y-31.25
X53.Y-38.45
X54.2Y-35.65
X54.65Y-28.25
X54.65Y-29.2
X57.75Y-30.6
X61.7Y-47.05
X63.75Y-46.55
X64.5Y-47.15
X65.6Y-37.05
X69.4Y-42.
X70.7Y-36.3
X71.95Y-41.3
X72.6Y-37.75
X73.2Y-38.45
X74.5Y-35.65
X80.45Y-32.1
X84.8Y-38.45
X85.1Y-26.35
X86.05Y-37.05
X93.95Y-33.65
X94.2Y-24.6
X97.2Y-31.6
X102.25Y-44.95
X104.Y-45.65
T2
X47.85Y-32.65
X59.5Y-34.
X59.5Y-43.
X62.2Y-32.6
X65.6Y-31.5
X66.85Y-32.6
X74.35Y-58.1
X75.4Y-57.05
X75.4Y-58.1
X75.85Y-39.85
X76.45Y-58.1
X76.94Y-36.1
X79.Y-42.3
X80.2Y-42.3
X81.3Y-42.3
X82.05Y-35.95
X83.25Y-42.35
X86.08Y-41.32
X88.6Y-48.9
X90.4Y-48.9
X91.15Y-41.3
T3
X24.2Y-15.03
X24.2Y-17.57
X31.2Y-15.03
X31.2Y-17.57
X38.2Y-15.03
X38.2Y-17.57
X45.2Y-15.03
X45.2Y-17.57
X105.73Y-42.65
X105.73Y-49.05
X108.27Y-42.65
X108.27Y-49.05
T4
X19.89Y-27.5
X19.89Y-29.54
X19.89Y-31.58
X19.89Y-33.62
X21.67Y-26.48
X21.67Y-28.52
X21.67Y-30.56
X21.67Y-32.6
X38.93Y-52.38
X39.95Y-54.16
X40.97Y-52.38
X41.99Y-54.16
X43.01Y-52.38
X44.03Y-54.16
X45.05Y-52.38
X46.07Y-54.16
X58.43Y-19.84
X58.43Y-52.38
X59.45Y-21.62
X59.45Y-54.16
X60.47Y-19.84
X60.47Y-52.38
X61.49Y-21.62
X61.49Y-54.16
X62.51Y-19.84
X62.51Y-52.38
X63.53Y-21.62
X63.53Y-54.16
X64.55Y-19.84
X64.55Y-52.38
X65.57Y-21.62
X65.57Y-54.16
X77.93Y-19.84
X78.95Y-21.62
X79.97Y-19.84
X80.99Y-21.62
X82.01Y-19.84
X83.03Y-21.62
X84.05Y-19.84
X85.07Y-21.62
X102.38Y-27.5
X102.38Y-29.54
X102.38Y-31.58
X102.38Y-33.62
X104.16Y-26.48
X104.16Y-28.52
X104.16Y-30.56
X104.16Y-32.6
T5
X20.78Y-21.92
X20.78Y-38.18
X34.37Y-53.27
X50.63Y-53.27
X53.87Y-20.73
X53.87Y-53.27
X70.13Y-20.73
X70.13Y-53.27
X73.37Y-20.73
X89.63Y-20.73
X103.27Y-21.92
X103.27Y-38.18
T0
M30
