G04 (created by PCBNEW (2013-mar-13)-testing) date Tue 15 Oct 2013 18:35:14 BST*
%MOIN*%
G04 Gerber Fmt 3.4, Leading zero omitted, Abs format*
%FSLAX34Y34*%
G01*
G70*
G90*
G04 APERTURE LIST*
%ADD10C,0.005000*%
%ADD11C,0.003937*%
%ADD12C,0.007874*%
%ADD13C,0.011811*%
G04 APERTURE END LIST*
G54D10*
G54D11*
X13779Y-29527D02*
X13779Y-9842D01*
X53149Y-29527D02*
X13779Y-29527D01*
X53149Y-9842D02*
X53149Y-29527D01*
X13779Y-9842D02*
X53149Y-9842D01*
G54D12*
X17976Y-12479D02*
X19255Y-13759D01*
X19255Y-12479D02*
X17976Y-13759D01*
X22476Y-12479D02*
X23755Y-13759D01*
X23755Y-12479D02*
X22476Y-13759D01*
X24669Y-12479D02*
X25948Y-13759D01*
X25948Y-12479D02*
X24669Y-13759D01*
X24669Y-25610D02*
X25948Y-26890D01*
X25948Y-25610D02*
X24669Y-26890D01*
X29169Y-12479D02*
X30448Y-13759D01*
X30448Y-12479D02*
X29169Y-13759D01*
X29169Y-25610D02*
X30448Y-26890D01*
X30448Y-25610D02*
X29169Y-26890D01*
X36480Y-12479D02*
X37759Y-13759D01*
X37759Y-12479D02*
X36480Y-13759D01*
X36480Y-25610D02*
X37759Y-26890D01*
X37759Y-25610D02*
X36480Y-26890D01*
X40980Y-12479D02*
X42259Y-13759D01*
X42259Y-12479D02*
X40980Y-13759D01*
X40980Y-25610D02*
X42259Y-26890D01*
X42259Y-25610D02*
X40980Y-26890D01*
X43173Y-12479D02*
X44452Y-13759D01*
X44452Y-12479D02*
X43173Y-13759D01*
X43173Y-25610D02*
X44452Y-26890D01*
X44452Y-25610D02*
X43173Y-26890D01*
X47673Y-12479D02*
X48952Y-13759D01*
X48952Y-12479D02*
X47673Y-13759D01*
X47673Y-25610D02*
X48952Y-26890D01*
X48952Y-25610D02*
X47673Y-26890D01*
G54D13*
X14828Y-31380D02*
X14828Y-30199D01*
X15109Y-30199D01*
X15278Y-30255D01*
X15390Y-30368D01*
X15447Y-30480D01*
X15503Y-30705D01*
X15503Y-30874D01*
X15447Y-31099D01*
X15390Y-31212D01*
X15278Y-31324D01*
X15109Y-31380D01*
X14828Y-31380D01*
X16009Y-31380D02*
X16009Y-30593D01*
X16009Y-30818D02*
X16065Y-30705D01*
X16122Y-30649D01*
X16234Y-30593D01*
X16347Y-30593D01*
X16740Y-31380D02*
X16740Y-30593D01*
X16740Y-30199D02*
X16684Y-30255D01*
X16740Y-30312D01*
X16796Y-30255D01*
X16740Y-30199D01*
X16740Y-30312D01*
X17471Y-31380D02*
X17359Y-31324D01*
X17303Y-31212D01*
X17303Y-30199D01*
X18090Y-31380D02*
X17978Y-31324D01*
X17921Y-31212D01*
X17921Y-30199D01*
X19440Y-31380D02*
X19440Y-30199D01*
X19834Y-31043D01*
X20227Y-30199D01*
X20227Y-31380D01*
X21296Y-31380D02*
X21296Y-30762D01*
X21240Y-30649D01*
X21127Y-30593D01*
X20902Y-30593D01*
X20790Y-30649D01*
X21296Y-31324D02*
X21183Y-31380D01*
X20902Y-31380D01*
X20790Y-31324D01*
X20733Y-31212D01*
X20733Y-31099D01*
X20790Y-30987D01*
X20902Y-30930D01*
X21183Y-30930D01*
X21296Y-30874D01*
X21858Y-30593D02*
X21858Y-31774D01*
X21858Y-30649D02*
X21971Y-30593D01*
X22196Y-30593D01*
X22308Y-30649D01*
X22365Y-30705D01*
X22421Y-30818D01*
X22421Y-31155D01*
X22365Y-31268D01*
X22308Y-31324D01*
X22196Y-31380D01*
X21971Y-31380D01*
X21858Y-31324D01*
X22927Y-31268D02*
X22983Y-31324D01*
X22927Y-31380D01*
X22871Y-31324D01*
X22927Y-31268D01*
X22927Y-31380D01*
X22927Y-30649D02*
X22983Y-30705D01*
X22927Y-30762D01*
X22871Y-30705D01*
X22927Y-30649D01*
X22927Y-30762D01*
X12480Y-32687D02*
X13759Y-33966D01*
X13759Y-32687D02*
X12480Y-33966D01*
X14715Y-32679D02*
X15447Y-32679D01*
X15053Y-33129D01*
X15222Y-33129D01*
X15334Y-33186D01*
X15390Y-33242D01*
X15447Y-33354D01*
X15447Y-33636D01*
X15390Y-33748D01*
X15334Y-33804D01*
X15222Y-33861D01*
X14884Y-33861D01*
X14772Y-33804D01*
X14715Y-33748D01*
X15953Y-33748D02*
X16009Y-33804D01*
X15953Y-33861D01*
X15897Y-33804D01*
X15953Y-33748D01*
X15953Y-33861D01*
X16459Y-32792D02*
X16515Y-32736D01*
X16628Y-32679D01*
X16909Y-32679D01*
X17021Y-32736D01*
X17078Y-32792D01*
X17134Y-32904D01*
X17134Y-33017D01*
X17078Y-33186D01*
X16403Y-33861D01*
X17134Y-33861D01*
X18203Y-32679D02*
X17640Y-32679D01*
X17584Y-33242D01*
X17640Y-33186D01*
X17753Y-33129D01*
X18034Y-33129D01*
X18146Y-33186D01*
X18203Y-33242D01*
X18259Y-33354D01*
X18259Y-33636D01*
X18203Y-33748D01*
X18146Y-33804D01*
X18034Y-33861D01*
X17753Y-33861D01*
X17640Y-33804D01*
X17584Y-33748D01*
X18765Y-33861D02*
X18765Y-33073D01*
X18765Y-33186D02*
X18821Y-33129D01*
X18934Y-33073D01*
X19102Y-33073D01*
X19215Y-33129D01*
X19271Y-33242D01*
X19271Y-33861D01*
X19271Y-33242D02*
X19327Y-33129D01*
X19440Y-33073D01*
X19609Y-33073D01*
X19721Y-33129D01*
X19777Y-33242D01*
X19777Y-33861D01*
X20340Y-33861D02*
X20340Y-33073D01*
X20340Y-33186D02*
X20396Y-33129D01*
X20508Y-33073D01*
X20677Y-33073D01*
X20790Y-33129D01*
X20846Y-33242D01*
X20846Y-33861D01*
X20846Y-33242D02*
X20902Y-33129D01*
X21015Y-33073D01*
X21183Y-33073D01*
X21296Y-33129D01*
X21352Y-33242D01*
X21352Y-33861D01*
X23658Y-32623D02*
X22646Y-34142D01*
X25177Y-32679D02*
X25289Y-32679D01*
X25402Y-32736D01*
X25458Y-32792D01*
X25514Y-32904D01*
X25570Y-33129D01*
X25570Y-33411D01*
X25514Y-33636D01*
X25458Y-33748D01*
X25402Y-33804D01*
X25289Y-33861D01*
X25177Y-33861D01*
X25064Y-33804D01*
X25008Y-33748D01*
X24952Y-33636D01*
X24895Y-33411D01*
X24895Y-33129D01*
X24952Y-32904D01*
X25008Y-32792D01*
X25064Y-32736D01*
X25177Y-32679D01*
X26077Y-33748D02*
X26133Y-33804D01*
X26077Y-33861D01*
X26020Y-33804D01*
X26077Y-33748D01*
X26077Y-33861D01*
X27258Y-33861D02*
X26583Y-33861D01*
X26920Y-33861D02*
X26920Y-32679D01*
X26808Y-32848D01*
X26695Y-32961D01*
X26583Y-33017D01*
X27708Y-32792D02*
X27764Y-32736D01*
X27876Y-32679D01*
X28158Y-32679D01*
X28270Y-32736D01*
X28326Y-32792D01*
X28383Y-32904D01*
X28383Y-33017D01*
X28326Y-33186D01*
X27651Y-33861D01*
X28383Y-33861D01*
X29057Y-33186D02*
X28945Y-33129D01*
X28889Y-33073D01*
X28832Y-32961D01*
X28832Y-32904D01*
X28889Y-32792D01*
X28945Y-32736D01*
X29057Y-32679D01*
X29282Y-32679D01*
X29395Y-32736D01*
X29451Y-32792D01*
X29507Y-32904D01*
X29507Y-32961D01*
X29451Y-33073D01*
X29395Y-33129D01*
X29282Y-33186D01*
X29057Y-33186D01*
X28945Y-33242D01*
X28889Y-33298D01*
X28832Y-33411D01*
X28832Y-33636D01*
X28889Y-33748D01*
X28945Y-33804D01*
X29057Y-33861D01*
X29282Y-33861D01*
X29395Y-33804D01*
X29451Y-33748D01*
X29507Y-33636D01*
X29507Y-33411D01*
X29451Y-33298D01*
X29395Y-33242D01*
X29282Y-33186D01*
X29957Y-32679D02*
X29957Y-32904D01*
X30407Y-32679D02*
X30407Y-32904D01*
X32151Y-34311D02*
X32095Y-34254D01*
X31982Y-34086D01*
X31926Y-33973D01*
X31870Y-33804D01*
X31813Y-33523D01*
X31813Y-33298D01*
X31870Y-33017D01*
X31926Y-32848D01*
X31982Y-32736D01*
X32095Y-32567D01*
X32151Y-32511D01*
X33219Y-33861D02*
X32544Y-33861D01*
X32882Y-33861D02*
X32882Y-32679D01*
X32769Y-32848D01*
X32657Y-32961D01*
X32544Y-33017D01*
X34232Y-33073D02*
X34232Y-33861D01*
X33951Y-32623D02*
X33669Y-33467D01*
X34401Y-33467D01*
X35750Y-33861D02*
X35750Y-32679D01*
X36257Y-33861D02*
X36257Y-33242D01*
X36200Y-33129D01*
X36088Y-33073D01*
X35919Y-33073D01*
X35807Y-33129D01*
X35750Y-33186D01*
X36988Y-33861D02*
X36875Y-33804D01*
X36819Y-33748D01*
X36763Y-33636D01*
X36763Y-33298D01*
X36819Y-33186D01*
X36875Y-33129D01*
X36988Y-33073D01*
X37156Y-33073D01*
X37269Y-33129D01*
X37325Y-33186D01*
X37381Y-33298D01*
X37381Y-33636D01*
X37325Y-33748D01*
X37269Y-33804D01*
X37156Y-33861D01*
X36988Y-33861D01*
X38056Y-33861D02*
X37944Y-33804D01*
X37888Y-33692D01*
X37888Y-32679D01*
X38956Y-33804D02*
X38844Y-33861D01*
X38619Y-33861D01*
X38506Y-33804D01*
X38450Y-33692D01*
X38450Y-33242D01*
X38506Y-33129D01*
X38619Y-33073D01*
X38844Y-33073D01*
X38956Y-33129D01*
X39012Y-33242D01*
X39012Y-33354D01*
X38450Y-33467D01*
X39462Y-33804D02*
X39575Y-33861D01*
X39800Y-33861D01*
X39912Y-33804D01*
X39969Y-33692D01*
X39969Y-33636D01*
X39912Y-33523D01*
X39800Y-33467D01*
X39631Y-33467D01*
X39519Y-33411D01*
X39462Y-33298D01*
X39462Y-33242D01*
X39519Y-33129D01*
X39631Y-33073D01*
X39800Y-33073D01*
X39912Y-33129D01*
X40362Y-34311D02*
X40419Y-34254D01*
X40531Y-34086D01*
X40587Y-33973D01*
X40643Y-33804D01*
X40700Y-33523D01*
X40700Y-33298D01*
X40643Y-33017D01*
X40587Y-32848D01*
X40531Y-32736D01*
X40419Y-32567D01*
X40362Y-32511D01*
M02*
