G04 (created by PCBNEW (2013-mar-13)-testing) date Tue 15 Oct 2013 18:57:03 BST*
%MOIN*%
G04 Gerber Fmt 3.4, Leading zero omitted, Abs format*
%FSLAX34Y34*%
G01*
G70*
G90*
G04 APERTURE LIST*
%ADD10C,0.005906*%
%ADD11R,0.060000X0.060000*%
%ADD12C,0.060000*%
%ADD13C,0.236220*%
%ADD14C,0.019685*%
%ADD15C,0.007874*%
%ADD16C,0.019685*%
%ADD17C,0.011811*%
G04 APERTURE END LIST*
G54D10*
G54D11*
X19328Y-28864D03*
G54D12*
X18328Y-28864D03*
X19328Y-27864D03*
X18328Y-27864D03*
X19328Y-26864D03*
X18328Y-26864D03*
X19328Y-25864D03*
X18328Y-25864D03*
X19328Y-24864D03*
X18328Y-24864D03*
X19328Y-23864D03*
X18328Y-23864D03*
X19328Y-22864D03*
X18328Y-22864D03*
X19328Y-21864D03*
X18328Y-21864D03*
G54D11*
X21927Y-28864D03*
G54D12*
X20927Y-28864D03*
X21927Y-27864D03*
X20927Y-27864D03*
X21927Y-26864D03*
X20927Y-26864D03*
X21927Y-25864D03*
X20927Y-25864D03*
X21927Y-24864D03*
X20927Y-24864D03*
X21927Y-23864D03*
X20927Y-23864D03*
X21927Y-22864D03*
X20927Y-22864D03*
X21927Y-21864D03*
X20927Y-21864D03*
G54D13*
X15748Y-11811D03*
X15748Y-27559D03*
X51181Y-27559D03*
X51181Y-11811D03*
G54D14*
X47795Y-18750D03*
X43730Y-21230D03*
X46318Y-20649D03*
X40974Y-18710D03*
X39114Y-18868D03*
X38395Y-20580D03*
X39625Y-20629D03*
X27814Y-20610D03*
X25807Y-20629D03*
X27303Y-18750D03*
X29094Y-18720D03*
X25479Y-19397D03*
X45876Y-18915D03*
X31670Y-15743D03*
X22116Y-18769D03*
X17332Y-18366D03*
X30876Y-15993D03*
X21122Y-18779D03*
X16874Y-18007D03*
X35698Y-17519D03*
X50458Y-17398D03*
X34940Y-16993D03*
X49674Y-17601D03*
X37268Y-17846D03*
X34991Y-16713D03*
X47312Y-18750D03*
X50551Y-16801D03*
X48171Y-17923D03*
X33818Y-16486D03*
X48742Y-17994D03*
X35462Y-17253D03*
X42125Y-18079D03*
X22039Y-20771D03*
X51058Y-18418D03*
X42744Y-16078D03*
X34985Y-16071D03*
X15698Y-14872D03*
X31377Y-16203D03*
X15697Y-16653D03*
X30799Y-16287D03*
X16729Y-17126D03*
X28612Y-18858D03*
X17910Y-17975D03*
X30998Y-16719D03*
X17391Y-17212D03*
X32888Y-15933D03*
X18202Y-17908D03*
X18602Y-17982D03*
X23474Y-18041D03*
X40656Y-18715D03*
X41355Y-19123D03*
X34869Y-18015D03*
X20331Y-24716D03*
X23300Y-24575D03*
X22575Y-24575D03*
X33910Y-18057D03*
X24370Y-23212D03*
X27460Y-20580D03*
X30094Y-21125D03*
X42732Y-22791D03*
X35055Y-24292D03*
X50988Y-21320D03*
X46820Y-20669D03*
X50357Y-20880D03*
X35057Y-23696D03*
X48172Y-21525D03*
X35597Y-23533D03*
X50990Y-20659D03*
X48425Y-20580D03*
X38118Y-20622D03*
X35174Y-23153D03*
X41609Y-20325D03*
X39122Y-20614D03*
X34980Y-22924D03*
X33808Y-22631D03*
X41523Y-20039D03*
X40122Y-20606D03*
X34788Y-21875D03*
X35980Y-20600D03*
X29700Y-18728D03*
X23622Y-25039D03*
X36206Y-18475D03*
X32842Y-24350D03*
X15561Y-23927D03*
X49523Y-22996D03*
X24035Y-24921D03*
X36482Y-18579D03*
X33163Y-24371D03*
X15169Y-23921D03*
X49480Y-23527D03*
X22716Y-28389D03*
X49433Y-22629D03*
X17942Y-28356D03*
X15492Y-20895D03*
X33720Y-15354D03*
X33720Y-14517D03*
X14606Y-18799D03*
X19616Y-18730D03*
X19616Y-19429D03*
X29842Y-20964D03*
X30580Y-19606D03*
X26692Y-20433D03*
X45305Y-20649D03*
X46818Y-18732D03*
X28314Y-18795D03*
X26527Y-19102D03*
X24968Y-21251D03*
X45011Y-19714D03*
X44869Y-19019D03*
X22814Y-25275D03*
X31387Y-25314D03*
X31476Y-23789D03*
X35059Y-18572D03*
X33465Y-14998D03*
X18887Y-19763D03*
G54D15*
X47075Y-19126D02*
X47418Y-19126D01*
X46171Y-19209D02*
X46253Y-19126D01*
X46253Y-19126D02*
X47075Y-19126D01*
X47418Y-19126D02*
X47795Y-18750D01*
X43730Y-21230D02*
X43730Y-20902D01*
X43730Y-20902D02*
X43730Y-20915D01*
X43730Y-20915D02*
X43730Y-20902D01*
X46318Y-20649D02*
X46171Y-20649D01*
X46171Y-20649D02*
X46116Y-20595D01*
X41998Y-19460D02*
X41998Y-19390D01*
X41998Y-20242D02*
X41998Y-19460D01*
X41318Y-18710D02*
X40974Y-18710D01*
X41998Y-19390D02*
X41318Y-18710D01*
X40846Y-18498D02*
X40880Y-18498D01*
X40880Y-18498D02*
X40974Y-18592D01*
X40974Y-18592D02*
X40974Y-18710D01*
X41106Y-18578D02*
X41117Y-18578D01*
X40974Y-18710D02*
X41106Y-18578D01*
X39105Y-18859D02*
X39105Y-18611D01*
X39114Y-18868D02*
X39105Y-18859D01*
X39625Y-20629D02*
X39625Y-20659D01*
X38750Y-20935D02*
X38395Y-20580D01*
X39350Y-20935D02*
X38750Y-20935D01*
X39625Y-20659D02*
X39350Y-20935D01*
X39625Y-20935D02*
X39625Y-20964D01*
X39625Y-20964D02*
X39745Y-21084D01*
X39625Y-20944D02*
X39625Y-20935D01*
X39625Y-20935D02*
X39625Y-20629D01*
G54D16*
X28690Y-20314D02*
X30513Y-18491D01*
X28110Y-20314D02*
X28690Y-20314D01*
X27814Y-20610D02*
X28110Y-20314D01*
X25479Y-20302D02*
X25479Y-19397D01*
X25807Y-20629D02*
X25479Y-20302D01*
G54D15*
X27303Y-18750D02*
X27303Y-18491D01*
X27303Y-18491D02*
X27303Y-18484D01*
X27303Y-18484D02*
X27303Y-18491D01*
X29104Y-18710D02*
X29104Y-18491D01*
X29094Y-18720D02*
X29104Y-18710D01*
G54D17*
X29436Y-18491D02*
X29921Y-18491D01*
G54D16*
X32646Y-17797D02*
X31952Y-18491D01*
X31952Y-18491D02*
X30513Y-18491D01*
X30513Y-18491D02*
X29921Y-18491D01*
G54D15*
X33419Y-17797D02*
X36452Y-17797D01*
X36452Y-17797D02*
X37266Y-18611D01*
X37266Y-18611D02*
X39105Y-18611D01*
X39105Y-18611D02*
X39217Y-18498D01*
X39217Y-18498D02*
X40846Y-18498D01*
X40846Y-18498D02*
X40847Y-18498D01*
G54D16*
X33419Y-17797D02*
X32646Y-17797D01*
X25479Y-19397D02*
X25523Y-19397D01*
X29436Y-18491D02*
X29438Y-18494D01*
X26429Y-18491D02*
X27303Y-18491D01*
X27303Y-18491D02*
X29104Y-18491D01*
X29104Y-18491D02*
X29436Y-18491D01*
X25523Y-19397D02*
X26429Y-18491D01*
G54D15*
X45876Y-18915D02*
X46171Y-19209D01*
X46126Y-20584D02*
X46116Y-20595D01*
X46126Y-19253D02*
X46126Y-20584D01*
X46171Y-19209D02*
X46126Y-19253D01*
X46116Y-20595D02*
X46116Y-20595D01*
X45755Y-20956D02*
X46116Y-20595D01*
X44020Y-20956D02*
X45755Y-20956D01*
X43967Y-20902D02*
X44020Y-20956D01*
X42659Y-20902D02*
X43730Y-20902D01*
X43730Y-20902D02*
X43967Y-20902D01*
X41998Y-20242D02*
X42659Y-20902D01*
X41156Y-21084D02*
X41998Y-20242D01*
X39745Y-21084D02*
X41156Y-21084D01*
X39744Y-21084D02*
X39745Y-21084D01*
X23957Y-16935D02*
X23562Y-16935D01*
X31670Y-15743D02*
X31670Y-15743D01*
X31670Y-15743D02*
X31670Y-16387D01*
X31670Y-16387D02*
X31122Y-16935D01*
X31122Y-16935D02*
X23957Y-16935D01*
X23562Y-16935D02*
X21730Y-18767D01*
X22116Y-18769D02*
X22114Y-18767D01*
X22114Y-18767D02*
X21730Y-18767D01*
X20816Y-19192D02*
X19218Y-17594D01*
X17759Y-17594D02*
X17332Y-18020D01*
X19218Y-17594D02*
X17759Y-17594D01*
X17332Y-18020D02*
X17332Y-18366D01*
X21730Y-18767D02*
X21305Y-19192D01*
X21305Y-19192D02*
X20816Y-19192D01*
X18910Y-28080D02*
X18910Y-28111D01*
X17332Y-18553D02*
X17332Y-25466D01*
X17332Y-25466D02*
X18312Y-26445D01*
X18312Y-26445D02*
X18505Y-26445D01*
X18505Y-26445D02*
X18910Y-26850D01*
X18910Y-26850D02*
X18910Y-28080D01*
X19328Y-28529D02*
X19328Y-28864D01*
X18910Y-28111D02*
X19328Y-28529D01*
X17332Y-18366D02*
X17332Y-18563D01*
X30820Y-16555D02*
X30845Y-16555D01*
X20230Y-16991D02*
X20666Y-16555D01*
X23068Y-16555D02*
X30820Y-16555D01*
X23068Y-16555D02*
X20666Y-16555D01*
X31114Y-16230D02*
X30876Y-15993D01*
X31114Y-16287D02*
X31114Y-16230D01*
X30845Y-16555D02*
X31114Y-16287D01*
X30876Y-15993D02*
X30876Y-15993D01*
X16874Y-17387D02*
X16874Y-18007D01*
X16874Y-17387D02*
X17270Y-16991D01*
X17270Y-16991D02*
X19465Y-16991D01*
X20230Y-16991D02*
X19465Y-16991D01*
X21122Y-17883D02*
X20230Y-16991D01*
X21122Y-18779D02*
X21122Y-17883D01*
X16874Y-25633D02*
X16874Y-18007D01*
X17838Y-26596D02*
X16874Y-25633D01*
X17838Y-26997D02*
X17838Y-26596D01*
X18260Y-27419D02*
X17838Y-26997D01*
X18481Y-27419D02*
X18260Y-27419D01*
X18752Y-27690D02*
X18481Y-27419D01*
X18752Y-28440D02*
X18752Y-27690D01*
X18328Y-28864D02*
X18752Y-28440D01*
X47639Y-18322D02*
X48023Y-18322D01*
X36506Y-17628D02*
X36397Y-17519D01*
X35698Y-17519D02*
X36397Y-17519D01*
X49429Y-18427D02*
X50458Y-17398D01*
X37200Y-18322D02*
X47639Y-18322D01*
X36506Y-17628D02*
X37200Y-18322D01*
X36506Y-17628D02*
X36506Y-17628D01*
X49431Y-18425D02*
X49429Y-18427D01*
X48126Y-18425D02*
X49431Y-18425D01*
X48023Y-18322D02*
X48126Y-18425D01*
X33474Y-17519D02*
X32618Y-17519D01*
X35698Y-17519D02*
X33474Y-17519D01*
X32618Y-17519D02*
X31862Y-18275D01*
X26295Y-18275D02*
X31862Y-18275D01*
X23399Y-21170D02*
X26295Y-18275D01*
X21027Y-21170D02*
X23399Y-21170D01*
X20334Y-21863D02*
X21027Y-21170D01*
X20334Y-22858D02*
X20334Y-21863D01*
X20334Y-22858D02*
X19328Y-23864D01*
X49032Y-18244D02*
X49674Y-17601D01*
X48167Y-18244D02*
X49032Y-18244D01*
X47769Y-17846D02*
X48167Y-18244D01*
X37268Y-17846D02*
X47769Y-17846D01*
X18828Y-23364D02*
X18328Y-23864D01*
X19578Y-23364D02*
X18828Y-23364D01*
X19910Y-23032D02*
X19578Y-23364D01*
X19910Y-22064D02*
X19910Y-23032D01*
X21420Y-20555D02*
X19910Y-22064D01*
X23123Y-20555D02*
X21420Y-20555D01*
X25797Y-17881D02*
X23123Y-20555D01*
X31780Y-17881D02*
X25797Y-17881D01*
X32668Y-16993D02*
X31780Y-17881D01*
X34940Y-16993D02*
X32668Y-16993D01*
X34989Y-16944D02*
X34940Y-16993D01*
X36366Y-16944D02*
X34989Y-16944D01*
X37268Y-17846D02*
X36366Y-16944D01*
X48562Y-18661D02*
X51151Y-18661D01*
X47312Y-18750D02*
X47549Y-18513D01*
X47549Y-18513D02*
X47933Y-18513D01*
X47933Y-18513D02*
X48080Y-18661D01*
X48080Y-18661D02*
X48562Y-18661D01*
X51338Y-17588D02*
X50551Y-16801D01*
X51338Y-18474D02*
X51338Y-17588D01*
X51151Y-18661D02*
X51338Y-18474D01*
X46961Y-16713D02*
X48171Y-17923D01*
X34991Y-16713D02*
X46961Y-16713D01*
X19752Y-22440D02*
X19328Y-22864D01*
X19752Y-21973D02*
X19752Y-22440D01*
X21328Y-20397D02*
X19752Y-21973D01*
X22834Y-20397D02*
X21328Y-20397D01*
X25508Y-17723D02*
X22834Y-20397D01*
X31714Y-17723D02*
X25508Y-17723D01*
X32724Y-16713D02*
X31714Y-17723D01*
X34991Y-16713D02*
X32724Y-16713D01*
X47248Y-16501D02*
X35329Y-16501D01*
X35314Y-16486D02*
X33818Y-16486D01*
X35329Y-16501D02*
X35314Y-16486D01*
X32702Y-16512D02*
X33792Y-16512D01*
X33792Y-16512D02*
X33818Y-16486D01*
X18328Y-22864D02*
X18828Y-22364D01*
X18828Y-21673D02*
X18828Y-22364D01*
X20261Y-20240D02*
X18828Y-21673D01*
X22769Y-20240D02*
X20261Y-20240D01*
X25443Y-17566D02*
X22769Y-20240D01*
X31649Y-17566D02*
X25443Y-17566D01*
X32702Y-16512D02*
X31649Y-17566D01*
X47244Y-16496D02*
X47248Y-16501D01*
X47248Y-16501D02*
X48742Y-17994D01*
X35462Y-17253D02*
X35458Y-17249D01*
X35458Y-17249D02*
X35191Y-17249D01*
X35191Y-17249D02*
X35187Y-17253D01*
X35187Y-17253D02*
X35187Y-17249D01*
X35455Y-17249D02*
X36350Y-17249D01*
X36350Y-17249D02*
X37180Y-18079D01*
X37180Y-18079D02*
X42125Y-18079D01*
X32634Y-17249D02*
X35187Y-17249D01*
X35187Y-17249D02*
X35455Y-17249D01*
X31845Y-18039D02*
X32634Y-17249D01*
X25993Y-18039D02*
X31845Y-18039D01*
X23260Y-20771D02*
X25993Y-18039D01*
X22039Y-20771D02*
X23260Y-20771D01*
X42744Y-16078D02*
X49471Y-16078D01*
X49665Y-16272D02*
X51058Y-17665D01*
X51058Y-17665D02*
X51058Y-18418D01*
X49471Y-16078D02*
X49665Y-16272D01*
X42606Y-16078D02*
X42606Y-16071D01*
X42613Y-16071D02*
X42606Y-16078D01*
X42736Y-16071D02*
X42613Y-16071D01*
X42744Y-16078D02*
X42736Y-16071D01*
X42606Y-16071D02*
X34985Y-16071D01*
X20110Y-20082D02*
X18328Y-21864D01*
X22481Y-20082D02*
X20110Y-20082D01*
X25155Y-17408D02*
X22481Y-20082D01*
X31552Y-17408D02*
X25155Y-17408D01*
X32605Y-16355D02*
X31552Y-17408D01*
X33600Y-16355D02*
X32605Y-16355D01*
X33884Y-16071D02*
X33600Y-16355D01*
X34985Y-16071D02*
X33884Y-16071D01*
X15697Y-16653D02*
X15697Y-14873D01*
X15697Y-14873D02*
X15698Y-14872D01*
X16581Y-15769D02*
X15697Y-16653D01*
X16581Y-15769D02*
X30976Y-15769D01*
X30976Y-15769D02*
X31377Y-16171D01*
X31377Y-16171D02*
X31377Y-16203D01*
X30799Y-16287D02*
X17568Y-16287D01*
X17516Y-16338D02*
X16729Y-17126D01*
X17568Y-16287D02*
X17516Y-16338D01*
X16657Y-17198D02*
X16729Y-17126D01*
X16657Y-25638D02*
X16657Y-17198D01*
X17641Y-26623D02*
X16657Y-25638D01*
X17641Y-27090D02*
X17641Y-26623D01*
X18311Y-27759D02*
X17641Y-27090D01*
X26000Y-21468D02*
X28407Y-19060D01*
X24879Y-21468D02*
X26000Y-21468D01*
X24856Y-21445D02*
X24879Y-21468D01*
X21727Y-21445D02*
X24856Y-21445D01*
X21345Y-21827D02*
X21727Y-21445D01*
X21345Y-23152D02*
X21345Y-21827D01*
X21122Y-23375D02*
X21345Y-23152D01*
X20570Y-23375D02*
X21122Y-23375D01*
X20114Y-23832D02*
X20570Y-23375D01*
X20114Y-24781D02*
X20114Y-23832D01*
X19476Y-25419D02*
X20114Y-24781D01*
X28407Y-19060D02*
X28409Y-19060D01*
X28409Y-19060D02*
X28612Y-18858D01*
X19755Y-25699D02*
X19476Y-25419D01*
X19755Y-26437D02*
X19755Y-25699D01*
X19328Y-26864D02*
X19755Y-26437D01*
X17910Y-19375D02*
X17910Y-17975D01*
X17688Y-19597D02*
X17910Y-19375D01*
X17688Y-23838D02*
X17688Y-19597D01*
X18254Y-24403D02*
X17688Y-23838D01*
X18462Y-24403D02*
X18254Y-24403D01*
X18889Y-24830D02*
X18462Y-24403D01*
X18889Y-25024D02*
X18889Y-24830D01*
X19284Y-25419D02*
X18889Y-25024D01*
X19476Y-25419D02*
X19284Y-25419D01*
X30998Y-16719D02*
X23553Y-16719D01*
X20076Y-17212D02*
X20797Y-17933D01*
X20797Y-17933D02*
X20797Y-18887D01*
X20797Y-18887D02*
X20944Y-19035D01*
X20944Y-19035D02*
X21240Y-19035D01*
X21240Y-19035D02*
X23556Y-16719D01*
X23556Y-16719D02*
X23556Y-16728D01*
X23556Y-16728D02*
X23553Y-16732D01*
X23553Y-16732D02*
X23553Y-16719D01*
X20076Y-17212D02*
X19360Y-17212D01*
X17098Y-17504D02*
X17391Y-17212D01*
X17098Y-25633D02*
X17098Y-17504D01*
X18328Y-26864D02*
X17098Y-25633D01*
X19363Y-17212D02*
X19360Y-17212D01*
X19360Y-17212D02*
X17391Y-17212D01*
X32390Y-15933D02*
X31230Y-17093D01*
X31230Y-17093D02*
X24755Y-17093D01*
X24755Y-17093D02*
X22264Y-19584D01*
X32888Y-15933D02*
X32390Y-15933D01*
X19482Y-19842D02*
X19793Y-19842D01*
X22264Y-19585D02*
X22264Y-19584D01*
X19793Y-19842D02*
X20050Y-19585D01*
X20050Y-19585D02*
X22264Y-19585D01*
X18202Y-18537D02*
X18202Y-18563D01*
X18202Y-17908D02*
X18202Y-18537D01*
X18202Y-18563D02*
X19482Y-19842D01*
X22264Y-19584D02*
X22264Y-19585D01*
X18772Y-25308D02*
X19328Y-25864D01*
X18181Y-25308D02*
X18772Y-25308D01*
X17531Y-24657D02*
X18181Y-25308D01*
X17531Y-18653D02*
X17531Y-24657D01*
X17675Y-18509D02*
X17531Y-18653D01*
X17675Y-17904D02*
X17675Y-18509D01*
X17820Y-17759D02*
X17675Y-17904D01*
X18052Y-17759D02*
X17820Y-17759D01*
X18202Y-17908D02*
X18052Y-17759D01*
X19517Y-19655D02*
X19714Y-19655D01*
X18602Y-18740D02*
X19517Y-19655D01*
X18602Y-18700D02*
X18602Y-17982D01*
X18602Y-18700D02*
X18602Y-18740D01*
X19990Y-19379D02*
X22135Y-19379D01*
X19714Y-19655D02*
X19990Y-19379D01*
X23474Y-18041D02*
X22135Y-19379D01*
X22135Y-19379D02*
X22116Y-19399D01*
X41064Y-19123D02*
X40656Y-18715D01*
X41064Y-19123D02*
X41355Y-19123D01*
X28841Y-24043D02*
X34869Y-18015D01*
X22510Y-24043D02*
X28841Y-24043D01*
X22246Y-24308D02*
X22510Y-24043D01*
X20739Y-24308D02*
X22246Y-24308D01*
X20331Y-24716D02*
X20739Y-24308D01*
X40242Y-19129D02*
X40656Y-18715D01*
X37561Y-19129D02*
X40242Y-19129D01*
X36447Y-18015D02*
X37561Y-19129D01*
X34869Y-18015D02*
X36447Y-18015D01*
X23300Y-24575D02*
X22575Y-24575D01*
X28786Y-23180D02*
X24401Y-23180D01*
X28786Y-23180D02*
X33910Y-18057D01*
X24401Y-23180D02*
X24370Y-23212D01*
X25669Y-22362D02*
X25669Y-22364D01*
X25671Y-22364D02*
X25669Y-22362D01*
X25677Y-22364D02*
X25671Y-22364D01*
X27460Y-20580D02*
X25677Y-22364D01*
X21700Y-22364D02*
X25669Y-22364D01*
X21503Y-22561D02*
X21700Y-22364D01*
X21503Y-23288D02*
X21503Y-22561D01*
X20927Y-23864D02*
X21503Y-23288D01*
X28318Y-21933D02*
X29287Y-21933D01*
X21927Y-22864D02*
X26299Y-22864D01*
X27387Y-22864D02*
X28318Y-21933D01*
X26299Y-22864D02*
X27387Y-22864D01*
X29287Y-21933D02*
X30094Y-21125D01*
X41122Y-24292D02*
X41230Y-24292D01*
X35055Y-24292D02*
X41122Y-24292D01*
X41230Y-24292D02*
X42732Y-22791D01*
X42732Y-22791D02*
X43498Y-22025D01*
X50283Y-22025D02*
X43515Y-22025D01*
X50988Y-21320D02*
X50283Y-22025D01*
X31483Y-27864D02*
X35055Y-24292D01*
X21927Y-27864D02*
X31483Y-27864D01*
X24934Y-25492D02*
X30590Y-25492D01*
X35057Y-23696D02*
X33260Y-25492D01*
X24934Y-25492D02*
X23562Y-26864D01*
X23562Y-26864D02*
X21927Y-26864D01*
X32818Y-25935D02*
X33260Y-25492D01*
X31033Y-25935D02*
X32818Y-25935D01*
X30590Y-25492D02*
X31033Y-25935D01*
X47038Y-20837D02*
X47135Y-20837D01*
X46988Y-20837D02*
X47038Y-20837D01*
X46820Y-20669D02*
X46988Y-20837D01*
X50314Y-20837D02*
X50357Y-20880D01*
X47135Y-20837D02*
X50314Y-20837D01*
X36945Y-21808D02*
X35057Y-23696D01*
X43029Y-21808D02*
X36945Y-21808D01*
X43186Y-21650D02*
X43029Y-21808D01*
X46321Y-21650D02*
X43186Y-21650D01*
X47135Y-20837D02*
X46321Y-21650D01*
X50124Y-21525D02*
X48172Y-21525D01*
X50990Y-20659D02*
X50124Y-21525D01*
X41565Y-23533D02*
X35597Y-23533D01*
X43291Y-21808D02*
X41565Y-23533D01*
X47889Y-21808D02*
X43291Y-21808D01*
X48172Y-21525D02*
X47889Y-21808D01*
X21360Y-27297D02*
X20927Y-26864D01*
X31744Y-27297D02*
X21360Y-27297D01*
X34965Y-24076D02*
X31744Y-27297D01*
X35055Y-24076D02*
X34965Y-24076D01*
X35597Y-23533D02*
X35055Y-24076D01*
X24645Y-25334D02*
X30728Y-25334D01*
X35174Y-23153D02*
X32992Y-25334D01*
X24645Y-25334D02*
X24061Y-25919D01*
X24061Y-25919D02*
X21982Y-25919D01*
X21982Y-25919D02*
X21927Y-25864D01*
X32628Y-25698D02*
X32992Y-25334D01*
X31092Y-25698D02*
X32628Y-25698D01*
X30728Y-25334D02*
X31092Y-25698D01*
X45495Y-21493D02*
X46174Y-21493D01*
X46555Y-20590D02*
X46722Y-20423D01*
X46555Y-21112D02*
X46555Y-20590D01*
X46174Y-21493D02*
X46555Y-21112D01*
X48267Y-20423D02*
X48425Y-20580D01*
X46722Y-20423D02*
X48267Y-20423D01*
X45495Y-21493D02*
X45495Y-21493D01*
X45495Y-21493D02*
X45495Y-21493D01*
X39177Y-21574D02*
X39177Y-21575D01*
X39175Y-21575D02*
X39177Y-21574D01*
X39072Y-21575D02*
X39175Y-21575D01*
X38118Y-20622D02*
X39072Y-21575D01*
X43121Y-21493D02*
X45495Y-21493D01*
X43038Y-21575D02*
X43121Y-21493D01*
X36751Y-21575D02*
X39177Y-21575D01*
X39177Y-21575D02*
X43038Y-21575D01*
X35174Y-23153D02*
X36751Y-21575D01*
X24005Y-25285D02*
X24005Y-25275D01*
X22306Y-25445D02*
X22732Y-25019D01*
X22732Y-25019D02*
X23257Y-25019D01*
X23257Y-25019D02*
X23523Y-25285D01*
X23523Y-25285D02*
X24005Y-25285D01*
X20927Y-25864D02*
X21346Y-25445D01*
X21346Y-25445D02*
X22306Y-25445D01*
X32992Y-24911D02*
X32992Y-24912D01*
X32942Y-24960D02*
X32992Y-24911D01*
X24320Y-24960D02*
X32942Y-24960D01*
X24005Y-25275D02*
X24320Y-24960D01*
X34980Y-22924D02*
X32992Y-24912D01*
X38263Y-20358D02*
X38866Y-20358D01*
X38263Y-20358D02*
X37546Y-20358D01*
X37546Y-20358D02*
X37099Y-20805D01*
X34980Y-22924D02*
X37099Y-20805D01*
X38866Y-20358D02*
X39122Y-20614D01*
X41022Y-20912D02*
X39996Y-20912D01*
X39996Y-20912D02*
X39872Y-20787D01*
X39872Y-20787D02*
X39872Y-20482D01*
X39872Y-20482D02*
X39793Y-20403D01*
X39793Y-20403D02*
X39332Y-20403D01*
X39332Y-20403D02*
X39122Y-20614D01*
X41022Y-20912D02*
X41609Y-20325D01*
X39681Y-20165D02*
X39850Y-20165D01*
X36468Y-18259D02*
X38375Y-20165D01*
X36092Y-18259D02*
X36468Y-18259D01*
X33808Y-20542D02*
X36092Y-18259D01*
X33808Y-22631D02*
X33808Y-20542D01*
X38375Y-20165D02*
X39681Y-20165D01*
X40122Y-20437D02*
X40122Y-20606D01*
X39850Y-20165D02*
X40122Y-20437D01*
X40956Y-20606D02*
X40122Y-20606D01*
X41523Y-20039D02*
X40956Y-20606D01*
X32188Y-24251D02*
X33808Y-22631D01*
X22539Y-24251D02*
X32188Y-24251D01*
X21927Y-24864D02*
X22539Y-24251D01*
X23748Y-24499D02*
X23748Y-24499D01*
X34788Y-22013D02*
X34788Y-21875D01*
X33838Y-22962D02*
X34788Y-22013D01*
X33700Y-22962D02*
X33838Y-22962D01*
X32254Y-24409D02*
X33700Y-22962D01*
X23838Y-24409D02*
X32254Y-24409D01*
X23748Y-24499D02*
X23838Y-24409D01*
X23750Y-24499D02*
X23748Y-24499D01*
X21350Y-25287D02*
X21350Y-25287D01*
X22241Y-25287D02*
X21350Y-25287D01*
X22667Y-24862D02*
X22241Y-25287D01*
X23385Y-24862D02*
X22667Y-24862D01*
X23748Y-24499D02*
X23385Y-24862D01*
X35980Y-20682D02*
X34788Y-21875D01*
X35980Y-20600D02*
X35980Y-20682D01*
X21350Y-25287D02*
X21350Y-25287D01*
X21350Y-25287D02*
X20927Y-24864D01*
X34788Y-21875D02*
X34788Y-21964D01*
X23750Y-24499D02*
X23746Y-24499D01*
X28431Y-19997D02*
X29700Y-18728D01*
X27693Y-19997D02*
X28431Y-19997D01*
X25827Y-21864D02*
X27693Y-19997D01*
X21927Y-21864D02*
X25827Y-21864D01*
X21927Y-21864D02*
X21927Y-21864D01*
X23868Y-24616D02*
X23710Y-24773D01*
X23602Y-25019D02*
X23622Y-25039D01*
X23602Y-24881D02*
X23602Y-25019D01*
X23710Y-24773D02*
X23602Y-24881D01*
X32576Y-24616D02*
X23868Y-24616D01*
X23868Y-24616D02*
X23864Y-24616D01*
X32576Y-24616D02*
X32842Y-24350D01*
X36206Y-20986D02*
X36206Y-18475D01*
X36206Y-20986D02*
X32842Y-24350D01*
X15561Y-23927D02*
X15561Y-25068D01*
X43710Y-28336D02*
X47472Y-24574D01*
X23425Y-28336D02*
X43710Y-28336D01*
X22467Y-29294D02*
X23425Y-28336D01*
X18030Y-29294D02*
X22467Y-29294D01*
X17608Y-28872D02*
X18030Y-29294D01*
X17608Y-27608D02*
X17608Y-28872D01*
X17293Y-27293D02*
X17608Y-27608D01*
X17293Y-26801D02*
X17293Y-27293D01*
X15561Y-25068D02*
X17293Y-26801D01*
X48724Y-23322D02*
X47472Y-24574D01*
X49377Y-23322D02*
X48724Y-23322D01*
X49523Y-23177D02*
X49377Y-23322D01*
X49523Y-22996D02*
X49523Y-23177D01*
X24153Y-24803D02*
X24035Y-24921D01*
X32736Y-24803D02*
X24153Y-24803D01*
X33163Y-24376D02*
X32736Y-24803D01*
X33163Y-24371D02*
X33163Y-24376D01*
X36482Y-21052D02*
X36482Y-18579D01*
X36482Y-21052D02*
X33163Y-24371D01*
X15169Y-23921D02*
X15169Y-24905D01*
X43779Y-28551D02*
X47460Y-24870D01*
X23488Y-28551D02*
X43779Y-28551D01*
X22587Y-29451D02*
X23488Y-28551D01*
X17963Y-29451D02*
X22587Y-29451D01*
X17429Y-28917D02*
X17963Y-29451D01*
X17429Y-27665D02*
X17429Y-28917D01*
X17114Y-27350D02*
X17429Y-27665D01*
X17114Y-26850D02*
X17114Y-27350D01*
X15169Y-24905D02*
X17114Y-26850D01*
X47708Y-24870D02*
X47460Y-24870D01*
X49051Y-23527D02*
X47708Y-24870D01*
X49480Y-23527D02*
X49051Y-23527D01*
X48578Y-23090D02*
X49031Y-22637D01*
X43511Y-28157D02*
X48578Y-23090D01*
X22948Y-28157D02*
X43511Y-28157D01*
X22716Y-28389D02*
X22948Y-28157D01*
X49425Y-22637D02*
X49433Y-22629D01*
X49031Y-22637D02*
X49425Y-22637D01*
X17775Y-27509D02*
X17775Y-28188D01*
X17775Y-27509D02*
X17460Y-27194D01*
X17460Y-27194D02*
X17460Y-26732D01*
X17460Y-26732D02*
X16000Y-25272D01*
X16000Y-25219D02*
X16000Y-25272D01*
X17775Y-28188D02*
X17942Y-28356D01*
X14606Y-18799D02*
X14606Y-20009D01*
X14606Y-20009D02*
X15492Y-20895D01*
X33720Y-14517D02*
X33720Y-15354D01*
X16000Y-22914D02*
X15206Y-22120D01*
X16000Y-25273D02*
X16000Y-25206D01*
X16000Y-25206D02*
X16000Y-22914D01*
X15206Y-21240D02*
X15206Y-22120D01*
X14606Y-20639D02*
X15206Y-21240D01*
X14606Y-18799D02*
X14606Y-20639D01*
X19616Y-18730D02*
X19616Y-19429D01*
X29842Y-20344D02*
X29842Y-20964D01*
X30580Y-19606D02*
X29842Y-20344D01*
X26683Y-20442D02*
X26486Y-20442D01*
X26692Y-20433D02*
X26683Y-20442D01*
X45011Y-20355D02*
X45011Y-19714D01*
X45305Y-20649D02*
X45011Y-20355D01*
X45428Y-18602D02*
X46519Y-18602D01*
X45011Y-19019D02*
X45428Y-18602D01*
X46688Y-18602D02*
X46818Y-18732D01*
X46688Y-18602D02*
X46519Y-18602D01*
X46519Y-18602D02*
X46519Y-18602D01*
X26654Y-19553D02*
X26654Y-19553D01*
X27928Y-19181D02*
X28314Y-18795D01*
X26654Y-19553D02*
X27026Y-19181D01*
X27026Y-19181D02*
X27889Y-19181D01*
X27889Y-19181D02*
X27928Y-19181D01*
X26654Y-19553D02*
X26486Y-19722D01*
X26486Y-19795D02*
X26486Y-19784D01*
X26486Y-19795D02*
X26486Y-19722D01*
X26486Y-19722D02*
X26486Y-19143D01*
X26486Y-19143D02*
X26527Y-19102D01*
X25910Y-21251D02*
X24968Y-21251D01*
X25910Y-21251D02*
X26486Y-20675D01*
X45011Y-19019D02*
X45011Y-19714D01*
X26486Y-19795D02*
X26486Y-20442D01*
X26486Y-20442D02*
X26486Y-20675D01*
X45011Y-19019D02*
X44869Y-19019D01*
X31230Y-25157D02*
X31387Y-25314D01*
X23011Y-25275D02*
X23307Y-25570D01*
X23307Y-25570D02*
X24064Y-25570D01*
X24064Y-25570D02*
X24478Y-25157D01*
X24478Y-25157D02*
X31230Y-25157D01*
X22814Y-25275D02*
X23011Y-25275D01*
X31476Y-23789D02*
X32864Y-22401D01*
X32864Y-22401D02*
X32864Y-20767D01*
X32864Y-20767D02*
X35059Y-18572D01*
X19763Y-20137D02*
X19261Y-20137D01*
X19261Y-20137D02*
X18887Y-19763D01*
X33465Y-15663D02*
X32931Y-16197D01*
X32931Y-16197D02*
X32349Y-16197D01*
X32349Y-16197D02*
X31296Y-17251D01*
X31296Y-17251D02*
X24821Y-17251D01*
X24821Y-17251D02*
X22309Y-19762D01*
X33465Y-14998D02*
X33465Y-15663D01*
X22147Y-19924D02*
X22309Y-19762D01*
X22147Y-19924D02*
X19976Y-19924D01*
X19976Y-19924D02*
X19763Y-20137D01*
M02*
