G04 (created by PCBNEW (2013-07-07 BZR 4022)-stable) date 9/18/2013 14:01:54*
%MOIN*%
G04 Gerber Fmt 3.4, Leading zero omitted, Abs format*
%FSLAX34Y34*%
G01*
G70*
G90*
G04 APERTURE LIST*
%ADD10C,0.00590551*%
%ADD11C,0.011811*%
G04 APERTURE END LIST*
G54D10*
G54D11*
X50666Y-13000D02*
X50750Y-13028D01*
X50778Y-13056D01*
X50807Y-13113D01*
X50807Y-13197D01*
X50778Y-13253D01*
X50750Y-13281D01*
X50694Y-13309D01*
X50469Y-13309D01*
X50469Y-12719D01*
X50666Y-12719D01*
X50722Y-12747D01*
X50750Y-12775D01*
X50778Y-12831D01*
X50778Y-12888D01*
X50750Y-12944D01*
X50722Y-12972D01*
X50666Y-13000D01*
X50469Y-13000D01*
X51060Y-13253D02*
X51088Y-13281D01*
X51060Y-13309D01*
X51032Y-13281D01*
X51060Y-13253D01*
X51060Y-13309D01*
X51341Y-13309D02*
X51341Y-12719D01*
X51566Y-12719D01*
X51622Y-12747D01*
X51650Y-12775D01*
X51678Y-12831D01*
X51678Y-12916D01*
X51650Y-12972D01*
X51622Y-13000D01*
X51566Y-13028D01*
X51341Y-13028D01*
X52185Y-13309D02*
X52185Y-13000D01*
X52156Y-12944D01*
X52100Y-12916D01*
X51988Y-12916D01*
X51931Y-12944D01*
X52185Y-13281D02*
X52128Y-13309D01*
X51988Y-13309D01*
X51931Y-13281D01*
X51903Y-13225D01*
X51903Y-13169D01*
X51931Y-13113D01*
X51988Y-13084D01*
X52128Y-13084D01*
X52185Y-13056D01*
X52438Y-13281D02*
X52494Y-13309D01*
X52606Y-13309D01*
X52663Y-13281D01*
X52691Y-13225D01*
X52691Y-13197D01*
X52663Y-13141D01*
X52606Y-13113D01*
X52522Y-13113D01*
X52466Y-13084D01*
X52438Y-13028D01*
X52438Y-13000D01*
X52466Y-12944D01*
X52522Y-12916D01*
X52606Y-12916D01*
X52663Y-12944D01*
X52859Y-12916D02*
X53084Y-12916D01*
X52944Y-12719D02*
X52944Y-13225D01*
X52972Y-13281D01*
X53028Y-13309D01*
X53084Y-13309D01*
X53506Y-13281D02*
X53450Y-13309D01*
X53338Y-13309D01*
X53281Y-13281D01*
X53253Y-13225D01*
X53253Y-13000D01*
X53281Y-12944D01*
X53338Y-12916D01*
X53450Y-12916D01*
X53506Y-12944D01*
X53534Y-13000D01*
X53534Y-13056D01*
X53253Y-13113D01*
M02*
