G04 (created by PCBNEW (2013-07-07 BZR 4022)-stable) date 9/18/2013 14:02:00*
%MOIN*%
G04 Gerber Fmt 3.4, Leading zero omitted, Abs format*
%FSLAX34Y34*%
G01*
G70*
G90*
G04 APERTURE LIST*
%ADD10C,0.005*%
%ADD11C,0.011811*%
%ADD12C,0.00393701*%
%ADD13C,0.00787402*%
G04 APERTURE END LIST*
G54D10*
G54D11*
X50416Y-19004D02*
X50613Y-19004D01*
X50697Y-19313D02*
X50416Y-19313D01*
X50416Y-18723D01*
X50697Y-18723D01*
X51203Y-19313D02*
X51203Y-18723D01*
X51203Y-19285D02*
X51147Y-19313D01*
X51034Y-19313D01*
X50978Y-19285D01*
X50950Y-19257D01*
X50922Y-19201D01*
X50922Y-19032D01*
X50950Y-18976D01*
X50978Y-18948D01*
X51034Y-18920D01*
X51147Y-18920D01*
X51203Y-18948D01*
X51737Y-18920D02*
X51737Y-19398D01*
X51709Y-19454D01*
X51681Y-19482D01*
X51625Y-19510D01*
X51541Y-19510D01*
X51484Y-19482D01*
X51737Y-19285D02*
X51681Y-19313D01*
X51569Y-19313D01*
X51512Y-19285D01*
X51484Y-19257D01*
X51456Y-19201D01*
X51456Y-19032D01*
X51484Y-18976D01*
X51512Y-18948D01*
X51569Y-18920D01*
X51681Y-18920D01*
X51737Y-18948D01*
X52244Y-19285D02*
X52187Y-19313D01*
X52075Y-19313D01*
X52019Y-19285D01*
X51991Y-19229D01*
X51991Y-19004D01*
X52019Y-18948D01*
X52075Y-18920D01*
X52187Y-18920D01*
X52244Y-18948D01*
X52272Y-19004D01*
X52272Y-19060D01*
X51991Y-19116D01*
X52525Y-19257D02*
X52553Y-19285D01*
X52525Y-19313D01*
X52497Y-19285D01*
X52525Y-19257D01*
X52525Y-19313D01*
X53143Y-19257D02*
X53115Y-19285D01*
X53031Y-19313D01*
X52975Y-19313D01*
X52890Y-19285D01*
X52834Y-19229D01*
X52806Y-19173D01*
X52778Y-19060D01*
X52778Y-18976D01*
X52806Y-18863D01*
X52834Y-18807D01*
X52890Y-18751D01*
X52975Y-18723D01*
X53031Y-18723D01*
X53115Y-18751D01*
X53143Y-18779D01*
X53650Y-18920D02*
X53650Y-19313D01*
X53397Y-18920D02*
X53397Y-19229D01*
X53425Y-19285D01*
X53481Y-19313D01*
X53565Y-19313D01*
X53622Y-19285D01*
X53650Y-19257D01*
X53847Y-18920D02*
X54071Y-18920D01*
X53931Y-18723D02*
X53931Y-19229D01*
X53959Y-19285D01*
X54015Y-19313D01*
X54071Y-19313D01*
X54240Y-19285D02*
X54296Y-19313D01*
X54409Y-19313D01*
X54465Y-19285D01*
X54493Y-19229D01*
X54493Y-19201D01*
X54465Y-19145D01*
X54409Y-19116D01*
X54325Y-19116D01*
X54268Y-19088D01*
X54240Y-19032D01*
X54240Y-19004D01*
X54268Y-18948D01*
X54325Y-18920D01*
X54409Y-18920D01*
X54465Y-18948D01*
G54D12*
X9448Y-48425D02*
X9448Y-9055D01*
X48818Y-48425D02*
X9448Y-48425D01*
X48818Y-9055D02*
X48818Y-48425D01*
X9448Y-9055D02*
X48818Y-9055D01*
G54D13*
X10826Y-10433D02*
X12007Y-11614D01*
X12007Y-10433D02*
X10826Y-11614D01*
X10826Y-45866D02*
X12007Y-47047D01*
X12007Y-45866D02*
X10826Y-47047D01*
X46259Y-10433D02*
X47440Y-11614D01*
X47440Y-10433D02*
X46259Y-11614D01*
X46259Y-45866D02*
X47440Y-47047D01*
X47440Y-45866D02*
X46259Y-47047D01*
X12451Y-26240D02*
G75*
G03X12451Y-26240I-640J0D01*
G74*
G01*
X12451Y-31240D02*
G75*
G03X12451Y-31240I-640J0D01*
G74*
G01*
X15462Y-11417D02*
G75*
G03X15462Y-11417I-640J0D01*
G74*
G01*
X20462Y-11417D02*
G75*
G03X20462Y-11417I-640J0D01*
G74*
G01*
X23336Y-11417D02*
G75*
G03X23336Y-11417I-640J0D01*
G74*
G01*
X27273Y-46062D02*
G75*
G03X27273Y-46062I-640J0D01*
G74*
G01*
X28336Y-11417D02*
G75*
G03X28336Y-11417I-640J0D01*
G74*
G01*
X31210Y-11417D02*
G75*
G03X31210Y-11417I-640J0D01*
G74*
G01*
X32273Y-46062D02*
G75*
G03X32273Y-46062I-640J0D01*
G74*
G01*
X36210Y-11417D02*
G75*
G03X36210Y-11417I-640J0D01*
G74*
G01*
X39084Y-11417D02*
G75*
G03X39084Y-11417I-640J0D01*
G74*
G01*
X44084Y-11417D02*
G75*
G03X44084Y-11417I-640J0D01*
G74*
G01*
X47096Y-26240D02*
G75*
G03X47096Y-26240I-640J0D01*
G74*
G01*
X47096Y-31240D02*
G75*
G03X47096Y-31240I-640J0D01*
G74*
G01*
G54D11*
X10497Y-50222D02*
X10497Y-49041D01*
X10778Y-49041D01*
X10947Y-49097D01*
X11060Y-49209D01*
X11116Y-49322D01*
X11172Y-49547D01*
X11172Y-49715D01*
X11116Y-49940D01*
X11060Y-50053D01*
X10947Y-50165D01*
X10778Y-50222D01*
X10497Y-50222D01*
X11678Y-50222D02*
X11678Y-49434D01*
X11678Y-49659D02*
X11735Y-49547D01*
X11791Y-49491D01*
X11903Y-49434D01*
X12016Y-49434D01*
X12410Y-50222D02*
X12410Y-49434D01*
X12410Y-49041D02*
X12353Y-49097D01*
X12410Y-49153D01*
X12466Y-49097D01*
X12410Y-49041D01*
X12410Y-49153D01*
X13141Y-50222D02*
X13028Y-50165D01*
X12972Y-50053D01*
X12972Y-49041D01*
X13759Y-50222D02*
X13647Y-50165D01*
X13591Y-50053D01*
X13591Y-49041D01*
X15109Y-50222D02*
X15109Y-49041D01*
X15503Y-49884D01*
X15897Y-49041D01*
X15897Y-50222D01*
X16965Y-50222D02*
X16965Y-49603D01*
X16909Y-49491D01*
X16796Y-49434D01*
X16571Y-49434D01*
X16459Y-49491D01*
X16965Y-50165D02*
X16853Y-50222D01*
X16571Y-50222D01*
X16459Y-50165D01*
X16403Y-50053D01*
X16403Y-49940D01*
X16459Y-49828D01*
X16571Y-49772D01*
X16853Y-49772D01*
X16965Y-49715D01*
X17528Y-49434D02*
X17528Y-50615D01*
X17528Y-49491D02*
X17640Y-49434D01*
X17865Y-49434D01*
X17978Y-49491D01*
X18034Y-49547D01*
X18090Y-49659D01*
X18090Y-49997D01*
X18034Y-50109D01*
X17978Y-50165D01*
X17865Y-50222D01*
X17640Y-50222D01*
X17528Y-50165D01*
X18596Y-50109D02*
X18652Y-50165D01*
X18596Y-50222D01*
X18540Y-50165D01*
X18596Y-50109D01*
X18596Y-50222D01*
X18596Y-49491D02*
X18652Y-49547D01*
X18596Y-49603D01*
X18540Y-49547D01*
X18596Y-49491D01*
X18596Y-49603D01*
X8248Y-51633D02*
X9429Y-52814D01*
X9429Y-51633D02*
X8248Y-52814D01*
X10385Y-51521D02*
X11116Y-51521D01*
X10722Y-51971D01*
X10891Y-51971D01*
X11003Y-52027D01*
X11060Y-52083D01*
X11116Y-52196D01*
X11116Y-52477D01*
X11060Y-52589D01*
X11003Y-52646D01*
X10891Y-52702D01*
X10553Y-52702D01*
X10441Y-52646D01*
X10385Y-52589D01*
X11622Y-52589D02*
X11678Y-52646D01*
X11622Y-52702D01*
X11566Y-52646D01*
X11622Y-52589D01*
X11622Y-52702D01*
X12410Y-51521D02*
X12522Y-51521D01*
X12634Y-51577D01*
X12691Y-51633D01*
X12747Y-51746D01*
X12803Y-51971D01*
X12803Y-52252D01*
X12747Y-52477D01*
X12691Y-52589D01*
X12634Y-52646D01*
X12522Y-52702D01*
X12410Y-52702D01*
X12297Y-52646D01*
X12241Y-52589D01*
X12185Y-52477D01*
X12128Y-52252D01*
X12128Y-51971D01*
X12185Y-51746D01*
X12241Y-51633D01*
X12297Y-51577D01*
X12410Y-51521D01*
X13534Y-51521D02*
X13647Y-51521D01*
X13759Y-51577D01*
X13816Y-51633D01*
X13872Y-51746D01*
X13928Y-51971D01*
X13928Y-52252D01*
X13872Y-52477D01*
X13816Y-52589D01*
X13759Y-52646D01*
X13647Y-52702D01*
X13534Y-52702D01*
X13422Y-52646D01*
X13366Y-52589D01*
X13309Y-52477D01*
X13253Y-52252D01*
X13253Y-51971D01*
X13309Y-51746D01*
X13366Y-51633D01*
X13422Y-51577D01*
X13534Y-51521D01*
X14434Y-52702D02*
X14434Y-51915D01*
X14434Y-52027D02*
X14491Y-51971D01*
X14603Y-51915D01*
X14772Y-51915D01*
X14884Y-51971D01*
X14940Y-52083D01*
X14940Y-52702D01*
X14940Y-52083D02*
X14997Y-51971D01*
X15109Y-51915D01*
X15278Y-51915D01*
X15390Y-51971D01*
X15447Y-52083D01*
X15447Y-52702D01*
X16009Y-52702D02*
X16009Y-51915D01*
X16009Y-52027D02*
X16065Y-51971D01*
X16178Y-51915D01*
X16347Y-51915D01*
X16459Y-51971D01*
X16515Y-52083D01*
X16515Y-52702D01*
X16515Y-52083D02*
X16571Y-51971D01*
X16684Y-51915D01*
X16853Y-51915D01*
X16965Y-51971D01*
X17021Y-52083D01*
X17021Y-52702D01*
X19327Y-51465D02*
X18315Y-52983D01*
X20846Y-51521D02*
X20958Y-51521D01*
X21071Y-51577D01*
X21127Y-51633D01*
X21183Y-51746D01*
X21240Y-51971D01*
X21240Y-52252D01*
X21183Y-52477D01*
X21127Y-52589D01*
X21071Y-52646D01*
X20958Y-52702D01*
X20846Y-52702D01*
X20733Y-52646D01*
X20677Y-52589D01*
X20621Y-52477D01*
X20565Y-52252D01*
X20565Y-51971D01*
X20621Y-51746D01*
X20677Y-51633D01*
X20733Y-51577D01*
X20846Y-51521D01*
X21746Y-52589D02*
X21802Y-52646D01*
X21746Y-52702D01*
X21690Y-52646D01*
X21746Y-52589D01*
X21746Y-52702D01*
X22927Y-52702D02*
X22252Y-52702D01*
X22589Y-52702D02*
X22589Y-51521D01*
X22477Y-51690D01*
X22365Y-51802D01*
X22252Y-51858D01*
X24052Y-52702D02*
X23377Y-52702D01*
X23714Y-52702D02*
X23714Y-51521D01*
X23602Y-51690D01*
X23489Y-51802D01*
X23377Y-51858D01*
X24727Y-52027D02*
X24614Y-51971D01*
X24558Y-51915D01*
X24502Y-51802D01*
X24502Y-51746D01*
X24558Y-51633D01*
X24614Y-51577D01*
X24727Y-51521D01*
X24952Y-51521D01*
X25064Y-51577D01*
X25120Y-51633D01*
X25177Y-51746D01*
X25177Y-51802D01*
X25120Y-51915D01*
X25064Y-51971D01*
X24952Y-52027D01*
X24727Y-52027D01*
X24614Y-52083D01*
X24558Y-52140D01*
X24502Y-52252D01*
X24502Y-52477D01*
X24558Y-52589D01*
X24614Y-52646D01*
X24727Y-52702D01*
X24952Y-52702D01*
X25064Y-52646D01*
X25120Y-52589D01*
X25177Y-52477D01*
X25177Y-52252D01*
X25120Y-52140D01*
X25064Y-52083D01*
X24952Y-52027D01*
X25627Y-51521D02*
X25627Y-51746D01*
X26077Y-51521D02*
X26077Y-51746D01*
X27820Y-53152D02*
X27764Y-53096D01*
X27651Y-52927D01*
X27595Y-52814D01*
X27539Y-52646D01*
X27483Y-52365D01*
X27483Y-52140D01*
X27539Y-51858D01*
X27595Y-51690D01*
X27651Y-51577D01*
X27764Y-51408D01*
X27820Y-51352D01*
X28776Y-51915D02*
X28776Y-52702D01*
X28495Y-51465D02*
X28214Y-52308D01*
X28945Y-52308D01*
X30295Y-52702D02*
X30295Y-51521D01*
X30801Y-52702D02*
X30801Y-52083D01*
X30745Y-51971D01*
X30632Y-51915D01*
X30464Y-51915D01*
X30351Y-51971D01*
X30295Y-52027D01*
X31532Y-52702D02*
X31420Y-52646D01*
X31363Y-52589D01*
X31307Y-52477D01*
X31307Y-52140D01*
X31363Y-52027D01*
X31420Y-51971D01*
X31532Y-51915D01*
X31701Y-51915D01*
X31813Y-51971D01*
X31870Y-52027D01*
X31926Y-52140D01*
X31926Y-52477D01*
X31870Y-52589D01*
X31813Y-52646D01*
X31701Y-52702D01*
X31532Y-52702D01*
X32601Y-52702D02*
X32488Y-52646D01*
X32432Y-52533D01*
X32432Y-51521D01*
X33501Y-52646D02*
X33388Y-52702D01*
X33163Y-52702D01*
X33051Y-52646D01*
X32994Y-52533D01*
X32994Y-52083D01*
X33051Y-51971D01*
X33163Y-51915D01*
X33388Y-51915D01*
X33501Y-51971D01*
X33557Y-52083D01*
X33557Y-52196D01*
X32994Y-52308D01*
X34007Y-52646D02*
X34119Y-52702D01*
X34344Y-52702D01*
X34457Y-52646D01*
X34513Y-52533D01*
X34513Y-52477D01*
X34457Y-52365D01*
X34344Y-52308D01*
X34176Y-52308D01*
X34063Y-52252D01*
X34007Y-52140D01*
X34007Y-52083D01*
X34063Y-51971D01*
X34176Y-51915D01*
X34344Y-51915D01*
X34457Y-51971D01*
X34907Y-53152D02*
X34963Y-53096D01*
X35075Y-52927D01*
X35132Y-52814D01*
X35188Y-52646D01*
X35244Y-52365D01*
X35244Y-52140D01*
X35188Y-51858D01*
X35132Y-51690D01*
X35075Y-51577D01*
X34963Y-51408D01*
X34907Y-51352D01*
G54D13*
X9429Y-53917D02*
G75*
G03X9429Y-53917I-640J0D01*
G74*
G01*
G54D11*
X10385Y-53214D02*
X11116Y-53214D01*
X10722Y-53664D01*
X10891Y-53664D01*
X11003Y-53720D01*
X11060Y-53776D01*
X11116Y-53889D01*
X11116Y-54170D01*
X11060Y-54282D01*
X11003Y-54339D01*
X10891Y-54395D01*
X10553Y-54395D01*
X10441Y-54339D01*
X10385Y-54282D01*
X11622Y-54282D02*
X11678Y-54339D01*
X11622Y-54395D01*
X11566Y-54339D01*
X11622Y-54282D01*
X11622Y-54395D01*
X12128Y-53326D02*
X12185Y-53270D01*
X12297Y-53214D01*
X12578Y-53214D01*
X12691Y-53270D01*
X12747Y-53326D01*
X12803Y-53439D01*
X12803Y-53551D01*
X12747Y-53720D01*
X12072Y-54395D01*
X12803Y-54395D01*
X13872Y-53214D02*
X13309Y-53214D01*
X13253Y-53776D01*
X13309Y-53720D01*
X13422Y-53664D01*
X13703Y-53664D01*
X13816Y-53720D01*
X13872Y-53776D01*
X13928Y-53889D01*
X13928Y-54170D01*
X13872Y-54282D01*
X13816Y-54339D01*
X13703Y-54395D01*
X13422Y-54395D01*
X13309Y-54339D01*
X13253Y-54282D01*
X14434Y-54395D02*
X14434Y-53607D01*
X14434Y-53720D02*
X14491Y-53664D01*
X14603Y-53607D01*
X14772Y-53607D01*
X14884Y-53664D01*
X14940Y-53776D01*
X14940Y-54395D01*
X14940Y-53776D02*
X14997Y-53664D01*
X15109Y-53607D01*
X15278Y-53607D01*
X15390Y-53664D01*
X15447Y-53776D01*
X15447Y-54395D01*
X16009Y-54395D02*
X16009Y-53607D01*
X16009Y-53720D02*
X16065Y-53664D01*
X16178Y-53607D01*
X16347Y-53607D01*
X16459Y-53664D01*
X16515Y-53776D01*
X16515Y-54395D01*
X16515Y-53776D02*
X16571Y-53664D01*
X16684Y-53607D01*
X16853Y-53607D01*
X16965Y-53664D01*
X17021Y-53776D01*
X17021Y-54395D01*
X19327Y-53158D02*
X18315Y-54676D01*
X20846Y-53214D02*
X20958Y-53214D01*
X21071Y-53270D01*
X21127Y-53326D01*
X21183Y-53439D01*
X21240Y-53664D01*
X21240Y-53945D01*
X21183Y-54170D01*
X21127Y-54282D01*
X21071Y-54339D01*
X20958Y-54395D01*
X20846Y-54395D01*
X20733Y-54339D01*
X20677Y-54282D01*
X20621Y-54170D01*
X20565Y-53945D01*
X20565Y-53664D01*
X20621Y-53439D01*
X20677Y-53326D01*
X20733Y-53270D01*
X20846Y-53214D01*
X21746Y-54282D02*
X21802Y-54339D01*
X21746Y-54395D01*
X21690Y-54339D01*
X21746Y-54282D01*
X21746Y-54395D01*
X22927Y-54395D02*
X22252Y-54395D01*
X22589Y-54395D02*
X22589Y-53214D01*
X22477Y-53383D01*
X22365Y-53495D01*
X22252Y-53551D01*
X23377Y-53326D02*
X23433Y-53270D01*
X23546Y-53214D01*
X23827Y-53214D01*
X23939Y-53270D01*
X23996Y-53326D01*
X24052Y-53439D01*
X24052Y-53551D01*
X23996Y-53720D01*
X23321Y-54395D01*
X24052Y-54395D01*
X24727Y-53720D02*
X24614Y-53664D01*
X24558Y-53607D01*
X24502Y-53495D01*
X24502Y-53439D01*
X24558Y-53326D01*
X24614Y-53270D01*
X24727Y-53214D01*
X24952Y-53214D01*
X25064Y-53270D01*
X25120Y-53326D01*
X25177Y-53439D01*
X25177Y-53495D01*
X25120Y-53607D01*
X25064Y-53664D01*
X24952Y-53720D01*
X24727Y-53720D01*
X24614Y-53776D01*
X24558Y-53832D01*
X24502Y-53945D01*
X24502Y-54170D01*
X24558Y-54282D01*
X24614Y-54339D01*
X24727Y-54395D01*
X24952Y-54395D01*
X25064Y-54339D01*
X25120Y-54282D01*
X25177Y-54170D01*
X25177Y-53945D01*
X25120Y-53832D01*
X25064Y-53776D01*
X24952Y-53720D01*
X25627Y-53214D02*
X25627Y-53439D01*
X26077Y-53214D02*
X26077Y-53439D01*
X27820Y-54845D02*
X27764Y-54789D01*
X27651Y-54620D01*
X27595Y-54507D01*
X27539Y-54339D01*
X27483Y-54057D01*
X27483Y-53832D01*
X27539Y-53551D01*
X27595Y-53383D01*
X27651Y-53270D01*
X27764Y-53101D01*
X27820Y-53045D01*
X28889Y-54395D02*
X28214Y-54395D01*
X28551Y-54395D02*
X28551Y-53214D01*
X28439Y-53383D01*
X28326Y-53495D01*
X28214Y-53551D01*
X29901Y-53607D02*
X29901Y-54395D01*
X29620Y-53158D02*
X29339Y-54001D01*
X30070Y-54001D01*
X31420Y-54395D02*
X31420Y-53214D01*
X31926Y-54395D02*
X31926Y-53776D01*
X31870Y-53664D01*
X31757Y-53607D01*
X31588Y-53607D01*
X31476Y-53664D01*
X31420Y-53720D01*
X32657Y-54395D02*
X32544Y-54339D01*
X32488Y-54282D01*
X32432Y-54170D01*
X32432Y-53832D01*
X32488Y-53720D01*
X32544Y-53664D01*
X32657Y-53607D01*
X32826Y-53607D01*
X32938Y-53664D01*
X32994Y-53720D01*
X33051Y-53832D01*
X33051Y-54170D01*
X32994Y-54282D01*
X32938Y-54339D01*
X32826Y-54395D01*
X32657Y-54395D01*
X33726Y-54395D02*
X33613Y-54339D01*
X33557Y-54226D01*
X33557Y-53214D01*
X34625Y-54339D02*
X34513Y-54395D01*
X34288Y-54395D01*
X34176Y-54339D01*
X34119Y-54226D01*
X34119Y-53776D01*
X34176Y-53664D01*
X34288Y-53607D01*
X34513Y-53607D01*
X34625Y-53664D01*
X34682Y-53776D01*
X34682Y-53889D01*
X34119Y-54001D01*
X35132Y-54339D02*
X35244Y-54395D01*
X35469Y-54395D01*
X35582Y-54339D01*
X35638Y-54226D01*
X35638Y-54170D01*
X35582Y-54057D01*
X35469Y-54001D01*
X35300Y-54001D01*
X35188Y-53945D01*
X35132Y-53832D01*
X35132Y-53776D01*
X35188Y-53664D01*
X35300Y-53607D01*
X35469Y-53607D01*
X35582Y-53664D01*
X36032Y-54845D02*
X36088Y-54789D01*
X36200Y-54620D01*
X36257Y-54507D01*
X36313Y-54339D01*
X36369Y-54057D01*
X36369Y-53832D01*
X36313Y-53551D01*
X36257Y-53383D01*
X36200Y-53270D01*
X36088Y-53101D01*
X36032Y-53045D01*
M02*
