G04 (created by PCBNEW (2013-07-07 BZR 4022)-stable) date 9/18/2013 14:01:54*
%MOIN*%
G04 Gerber Fmt 3.4, Leading zero omitted, Abs format*
%FSLAX34Y34*%
G01*
G70*
G90*
G04 APERTURE LIST*
%ADD10C,0.00590551*%
%ADD11C,0.011811*%
%ADD12C,0.00393701*%
G04 APERTURE END LIST*
G54D10*
G54D11*
X50416Y-19004D02*
X50613Y-19004D01*
X50697Y-19313D02*
X50416Y-19313D01*
X50416Y-18723D01*
X50697Y-18723D01*
X51203Y-19313D02*
X51203Y-18723D01*
X51203Y-19285D02*
X51147Y-19313D01*
X51034Y-19313D01*
X50978Y-19285D01*
X50950Y-19257D01*
X50922Y-19201D01*
X50922Y-19032D01*
X50950Y-18976D01*
X50978Y-18948D01*
X51034Y-18920D01*
X51147Y-18920D01*
X51203Y-18948D01*
X51737Y-18920D02*
X51737Y-19398D01*
X51709Y-19454D01*
X51681Y-19482D01*
X51625Y-19510D01*
X51541Y-19510D01*
X51484Y-19482D01*
X51737Y-19285D02*
X51681Y-19313D01*
X51569Y-19313D01*
X51512Y-19285D01*
X51484Y-19257D01*
X51456Y-19201D01*
X51456Y-19032D01*
X51484Y-18976D01*
X51512Y-18948D01*
X51569Y-18920D01*
X51681Y-18920D01*
X51737Y-18948D01*
X52244Y-19285D02*
X52187Y-19313D01*
X52075Y-19313D01*
X52019Y-19285D01*
X51991Y-19229D01*
X51991Y-19004D01*
X52019Y-18948D01*
X52075Y-18920D01*
X52187Y-18920D01*
X52244Y-18948D01*
X52272Y-19004D01*
X52272Y-19060D01*
X51991Y-19116D01*
X52525Y-19257D02*
X52553Y-19285D01*
X52525Y-19313D01*
X52497Y-19285D01*
X52525Y-19257D01*
X52525Y-19313D01*
X53143Y-19257D02*
X53115Y-19285D01*
X53031Y-19313D01*
X52975Y-19313D01*
X52890Y-19285D01*
X52834Y-19229D01*
X52806Y-19173D01*
X52778Y-19060D01*
X52778Y-18976D01*
X52806Y-18863D01*
X52834Y-18807D01*
X52890Y-18751D01*
X52975Y-18723D01*
X53031Y-18723D01*
X53115Y-18751D01*
X53143Y-18779D01*
X53650Y-18920D02*
X53650Y-19313D01*
X53397Y-18920D02*
X53397Y-19229D01*
X53425Y-19285D01*
X53481Y-19313D01*
X53565Y-19313D01*
X53622Y-19285D01*
X53650Y-19257D01*
X53847Y-18920D02*
X54071Y-18920D01*
X53931Y-18723D02*
X53931Y-19229D01*
X53959Y-19285D01*
X54015Y-19313D01*
X54071Y-19313D01*
X54240Y-19285D02*
X54296Y-19313D01*
X54409Y-19313D01*
X54465Y-19285D01*
X54493Y-19229D01*
X54493Y-19201D01*
X54465Y-19145D01*
X54409Y-19116D01*
X54325Y-19116D01*
X54268Y-19088D01*
X54240Y-19032D01*
X54240Y-19004D01*
X54268Y-18948D01*
X54325Y-18920D01*
X54409Y-18920D01*
X54465Y-18948D01*
G54D12*
X9448Y-48425D02*
X9448Y-9055D01*
X48818Y-48425D02*
X9448Y-48425D01*
X48818Y-9055D02*
X48818Y-48425D01*
X9448Y-9055D02*
X48818Y-9055D01*
M02*
