G04 (created by PCBNEW (2013-07-07 BZR 4022)-stable) date 9/18/2013 14:01:54*
%MOIN*%
G04 Gerber Fmt 3.4, Leading zero omitted, Abs format*
%FSLAX34Y34*%
G01*
G70*
G90*
G04 APERTURE LIST*
%ADD10C,0.00590551*%
%ADD11C,0.011811*%
%ADD12C,0.23622*%
%ADD13C,0.066*%
%ADD14C,0.1437*%
%ADD15C,0.0591*%
%ADD16C,0.0866142*%
%ADD17C,0.035*%
%ADD18C,0.0275591*%
%ADD19C,0.019685*%
%ADD20C,0.00787402*%
%ADD21C,0.01*%
G04 APERTURE END LIST*
G54D10*
G54D11*
X50658Y-10638D02*
X50742Y-10666D01*
X50770Y-10694D01*
X50798Y-10750D01*
X50798Y-10835D01*
X50770Y-10891D01*
X50742Y-10919D01*
X50686Y-10947D01*
X50461Y-10947D01*
X50461Y-10357D01*
X50658Y-10357D01*
X50714Y-10385D01*
X50742Y-10413D01*
X50770Y-10469D01*
X50770Y-10525D01*
X50742Y-10582D01*
X50714Y-10610D01*
X50658Y-10638D01*
X50461Y-10638D01*
X51051Y-10891D02*
X51079Y-10919D01*
X51051Y-10947D01*
X51023Y-10919D01*
X51051Y-10891D01*
X51051Y-10947D01*
X51670Y-10891D02*
X51642Y-10919D01*
X51557Y-10947D01*
X51501Y-10947D01*
X51417Y-10919D01*
X51361Y-10863D01*
X51332Y-10807D01*
X51304Y-10694D01*
X51304Y-10610D01*
X51332Y-10497D01*
X51361Y-10441D01*
X51417Y-10385D01*
X51501Y-10357D01*
X51557Y-10357D01*
X51642Y-10385D01*
X51670Y-10413D01*
X52176Y-10553D02*
X52176Y-10947D01*
X51923Y-10553D02*
X51923Y-10863D01*
X51951Y-10919D01*
X52007Y-10947D01*
X52092Y-10947D01*
X52148Y-10919D01*
X52176Y-10891D01*
G54D12*
X11417Y-11023D03*
X46850Y-11023D03*
X46850Y-46456D03*
X11417Y-46456D03*
G54D13*
X18791Y-18700D03*
X19791Y-18700D03*
X34539Y-18700D03*
X35539Y-18700D03*
X26665Y-18700D03*
X27665Y-18700D03*
X42413Y-18700D03*
X43413Y-18700D03*
G54D14*
X11811Y-31240D03*
X11811Y-26240D03*
G54D15*
X12811Y-30145D03*
X13511Y-29744D03*
X12811Y-29342D03*
X13511Y-28940D03*
X12811Y-28539D03*
X13511Y-28137D03*
X12811Y-27736D03*
X13511Y-27334D03*
G54D16*
X13161Y-31940D03*
X13161Y-25539D03*
G54D14*
X46456Y-26240D03*
X46456Y-31240D03*
G54D15*
X45456Y-27334D03*
X44755Y-27736D03*
X45456Y-28137D03*
X44755Y-28539D03*
X45456Y-28940D03*
X44755Y-29342D03*
X45456Y-29744D03*
X44755Y-30145D03*
G54D16*
X45106Y-25539D03*
X45106Y-31940D03*
G54D14*
X38444Y-11417D03*
X43444Y-11417D03*
G54D15*
X39539Y-12417D03*
X39940Y-13118D03*
X40342Y-12417D03*
X40744Y-13118D03*
X41145Y-12417D03*
X41547Y-13118D03*
X41948Y-12417D03*
X42350Y-13118D03*
G54D16*
X37744Y-12767D03*
X44145Y-12767D03*
G54D14*
X30570Y-11417D03*
X35570Y-11417D03*
G54D15*
X31665Y-12417D03*
X32066Y-13118D03*
X32468Y-12417D03*
X32870Y-13118D03*
X33271Y-12417D03*
X33673Y-13118D03*
X34074Y-12417D03*
X34476Y-13118D03*
G54D16*
X29870Y-12767D03*
X36271Y-12767D03*
G54D14*
X22696Y-11417D03*
X27696Y-11417D03*
G54D15*
X23791Y-12417D03*
X24192Y-13118D03*
X24594Y-12417D03*
X24996Y-13118D03*
X25397Y-12417D03*
X25799Y-13118D03*
X26200Y-12417D03*
X26602Y-13118D03*
G54D16*
X21996Y-12767D03*
X28397Y-12767D03*
G54D14*
X14822Y-11417D03*
X19822Y-11417D03*
G54D15*
X15917Y-12417D03*
X16318Y-13118D03*
X16720Y-12417D03*
X17122Y-13118D03*
X17523Y-12417D03*
X17925Y-13118D03*
X18326Y-12417D03*
X18728Y-13118D03*
G54D16*
X14122Y-12767D03*
X20523Y-12767D03*
G54D14*
X31633Y-46062D03*
X26633Y-46062D03*
G54D15*
X30539Y-45062D03*
X30137Y-44362D03*
X29736Y-45062D03*
X29334Y-44362D03*
X28933Y-45062D03*
X28531Y-44362D03*
X28129Y-45062D03*
X27728Y-44362D03*
G54D16*
X32334Y-44712D03*
X25933Y-44712D03*
G54D13*
X34933Y-46062D03*
X35933Y-46062D03*
X37688Y-46062D03*
X38688Y-46062D03*
X40444Y-46062D03*
X41444Y-46062D03*
X43200Y-46062D03*
X44200Y-46062D03*
G54D17*
X13858Y-24606D03*
X13248Y-24606D03*
X14173Y-24212D03*
X34420Y-26540D03*
X34060Y-25095D03*
X46170Y-20710D03*
X41270Y-21355D03*
X34460Y-24390D03*
X36920Y-23240D03*
X28290Y-25090D03*
G54D18*
X30137Y-39665D03*
X30600Y-34530D03*
X29330Y-40039D03*
X29630Y-34555D03*
X28523Y-40433D03*
X28615Y-34545D03*
X27716Y-40905D03*
X27716Y-37165D03*
X14450Y-26980D03*
X44000Y-19400D03*
X42070Y-17465D03*
X43011Y-26771D03*
X37874Y-29409D03*
X41585Y-17745D03*
X41565Y-18130D03*
X44730Y-20070D03*
X44350Y-19720D03*
X32390Y-30205D03*
X31595Y-32165D03*
X31435Y-29670D03*
X32070Y-32550D03*
X24400Y-25220D03*
X24400Y-24480D03*
X29410Y-26810D03*
X24690Y-26790D03*
X22890Y-23255D03*
X22175Y-23250D03*
X29575Y-26030D03*
X32550Y-26085D03*
X28505Y-29170D03*
X29895Y-27960D03*
X25970Y-27330D03*
X31080Y-27330D03*
X33460Y-26080D03*
X28770Y-25695D03*
X38905Y-23690D03*
X24890Y-26090D03*
X29070Y-34585D03*
X20728Y-28976D03*
X21141Y-28858D03*
X29650Y-35495D03*
X22965Y-20075D03*
X25135Y-23235D03*
X23520Y-20055D03*
X25125Y-22230D03*
G54D17*
X16240Y-20807D03*
X20157Y-29133D03*
X22677Y-31653D03*
X15905Y-21141D03*
X16240Y-20196D03*
X46870Y-19670D03*
X38340Y-23735D03*
X46397Y-23543D03*
X30795Y-32670D03*
X36125Y-21840D03*
X34250Y-20770D03*
X23545Y-24280D03*
G54D19*
X46210Y-29815D02*
X46210Y-29375D01*
X44285Y-31740D02*
X46210Y-29815D01*
X36580Y-31740D02*
X44285Y-31740D01*
X41145Y-11794D02*
X42680Y-10260D01*
X41145Y-12417D02*
X41145Y-11794D01*
X44955Y-15410D02*
X46520Y-16975D01*
X44955Y-11235D02*
X44955Y-15410D01*
X43980Y-10260D02*
X44955Y-11235D01*
X42680Y-10260D02*
X43980Y-10260D01*
X15917Y-12417D02*
X15917Y-12429D01*
X15917Y-12429D02*
X14173Y-14173D01*
X14173Y-14173D02*
X14173Y-24212D01*
X12811Y-28539D02*
X12200Y-28539D01*
X11811Y-24212D02*
X14173Y-24212D01*
X10433Y-25590D02*
X11811Y-24212D01*
X10433Y-26771D02*
X10433Y-25590D01*
X12200Y-28539D02*
X10433Y-26771D01*
X12811Y-30145D02*
X12811Y-30171D01*
X28933Y-46041D02*
X28933Y-45062D01*
X27675Y-47300D02*
X28933Y-46041D01*
X24505Y-47300D02*
X27675Y-47300D01*
X20920Y-43715D02*
X24505Y-47300D01*
X20920Y-38280D02*
X20920Y-43715D01*
X12811Y-30171D02*
X20920Y-38280D01*
X30539Y-45062D02*
X30539Y-46664D01*
X45775Y-28940D02*
X45456Y-28940D01*
X46210Y-29375D02*
X45775Y-28940D01*
X33360Y-34960D02*
X36580Y-31740D01*
X33360Y-45990D02*
X33360Y-34960D01*
X32115Y-47235D02*
X33360Y-45990D01*
X31110Y-47235D02*
X32115Y-47235D01*
X30539Y-46664D02*
X31110Y-47235D01*
X28933Y-45062D02*
X28933Y-45443D01*
X28933Y-45443D02*
X29210Y-45720D01*
X29210Y-45720D02*
X30135Y-45720D01*
X30135Y-45720D02*
X30539Y-45315D01*
X30539Y-45315D02*
X30539Y-45062D01*
X45456Y-27334D02*
X45549Y-27334D01*
X45549Y-27334D02*
X46080Y-27865D01*
X46080Y-27865D02*
X46080Y-28485D01*
X46080Y-28485D02*
X45624Y-28940D01*
X45624Y-28940D02*
X45456Y-28940D01*
X46520Y-16975D02*
X46520Y-16980D01*
X47055Y-27334D02*
X45456Y-27334D01*
X47695Y-26695D02*
X47055Y-27334D01*
X47695Y-18155D02*
X47695Y-26695D01*
X46520Y-16980D02*
X47695Y-18155D01*
X39539Y-12417D02*
X39539Y-12255D01*
X41145Y-12120D02*
X41145Y-12417D01*
X40755Y-11730D02*
X41145Y-12120D01*
X40065Y-11730D02*
X40755Y-11730D01*
X39539Y-12255D02*
X40065Y-11730D01*
X33271Y-12417D02*
X33271Y-11713D01*
X39539Y-10964D02*
X39539Y-12417D01*
X38865Y-10290D02*
X39539Y-10964D01*
X34695Y-10290D02*
X38865Y-10290D01*
X33271Y-11713D02*
X34695Y-10290D01*
X31665Y-12417D02*
X31665Y-12239D01*
X33271Y-12346D02*
X33271Y-12417D01*
X32760Y-11835D02*
X33271Y-12346D01*
X32070Y-11835D02*
X32760Y-11835D01*
X31665Y-12239D02*
X32070Y-11835D01*
X25397Y-12417D02*
X25397Y-11517D01*
X31665Y-10830D02*
X31665Y-12417D01*
X31110Y-10275D02*
X31665Y-10830D01*
X26640Y-10275D02*
X31110Y-10275D01*
X25397Y-11517D02*
X26640Y-10275D01*
X23791Y-12417D02*
X23791Y-12163D01*
X25397Y-12197D02*
X25397Y-12417D01*
X24930Y-11730D02*
X25397Y-12197D01*
X24225Y-11730D02*
X24930Y-11730D01*
X23791Y-12163D02*
X24225Y-11730D01*
X17523Y-12417D02*
X17523Y-11816D01*
X23791Y-10831D02*
X23791Y-12417D01*
X23190Y-10230D02*
X23791Y-10831D01*
X19110Y-10230D02*
X23190Y-10230D01*
X17523Y-11816D02*
X19110Y-10230D01*
X15917Y-12417D02*
X15917Y-12012D01*
X17523Y-12213D02*
X17523Y-12417D01*
X17040Y-11730D02*
X17523Y-12213D01*
X16200Y-11730D02*
X17040Y-11730D01*
X15917Y-12012D02*
X16200Y-11730D01*
X12811Y-28539D02*
X12675Y-28539D01*
X12715Y-30145D02*
X12811Y-30145D01*
X12150Y-29580D02*
X12715Y-30145D01*
X12150Y-29065D02*
X12150Y-29580D01*
X12675Y-28539D02*
X12150Y-29065D01*
X34060Y-25095D02*
X34420Y-25455D01*
X34420Y-25455D02*
X34420Y-26540D01*
X41270Y-21355D02*
X44915Y-21355D01*
X45560Y-20710D02*
X46170Y-20710D01*
X44915Y-21355D02*
X45560Y-20710D01*
X36920Y-23240D02*
X37190Y-23240D01*
X39075Y-21355D02*
X41270Y-21355D01*
X37190Y-23240D02*
X39075Y-21355D01*
X34460Y-24390D02*
X35610Y-23240D01*
X35610Y-23240D02*
X36920Y-23240D01*
X28295Y-25095D02*
X34060Y-25095D01*
X28290Y-25090D02*
X28295Y-25095D01*
G54D20*
X30137Y-44362D02*
X30137Y-39665D01*
X30137Y-39665D02*
X30137Y-34992D01*
X30137Y-34992D02*
X30600Y-34530D01*
X43200Y-46062D02*
X43200Y-46055D01*
X29330Y-40039D02*
X29334Y-40039D01*
X29334Y-44362D02*
X29334Y-40039D01*
X29334Y-40039D02*
X29334Y-34850D01*
X29334Y-34850D02*
X29630Y-34555D01*
X40444Y-46062D02*
X40433Y-46062D01*
X37688Y-46062D02*
X37688Y-46015D01*
X28523Y-40433D02*
X28531Y-40433D01*
X28531Y-44362D02*
X28531Y-40433D01*
X28531Y-40433D02*
X28531Y-39021D01*
X28531Y-39021D02*
X28115Y-38605D01*
X28115Y-38605D02*
X28115Y-35045D01*
X28115Y-35045D02*
X28615Y-34545D01*
X27716Y-40905D02*
X27728Y-40905D01*
X27728Y-39691D02*
X27728Y-37177D01*
X27728Y-37177D02*
X27716Y-37165D01*
X27728Y-40905D02*
X27728Y-39691D01*
X27728Y-44362D02*
X27728Y-40905D01*
X44755Y-30145D02*
X44744Y-30145D01*
X20884Y-27334D02*
X13511Y-27334D01*
X26970Y-33420D02*
X20884Y-27334D01*
X33285Y-33420D02*
X26970Y-33420D01*
X35400Y-31305D02*
X33285Y-33420D01*
X43585Y-31305D02*
X35400Y-31305D01*
X44744Y-30145D02*
X43585Y-31305D01*
X44755Y-29342D02*
X44637Y-29342D01*
X21265Y-26980D02*
X14450Y-26980D01*
X27360Y-33075D02*
X21265Y-26980D01*
X33025Y-33075D02*
X27360Y-33075D01*
X35290Y-30810D02*
X33025Y-33075D01*
X43170Y-30810D02*
X35290Y-30810D01*
X44637Y-29342D02*
X43170Y-30810D01*
X36233Y-19395D02*
X35539Y-18700D01*
X43995Y-19395D02*
X36233Y-19395D01*
X44000Y-19400D02*
X43995Y-19395D01*
X18791Y-18700D02*
X18791Y-18608D01*
X19935Y-17465D02*
X42070Y-17465D01*
X18791Y-18608D02*
X19935Y-17465D01*
X44755Y-27640D02*
X44755Y-27736D01*
X44755Y-28515D02*
X44755Y-28539D01*
X43011Y-26771D02*
X44755Y-28515D01*
X41755Y-28539D02*
X44755Y-28539D01*
X40866Y-29429D02*
X41755Y-28539D01*
X37893Y-29429D02*
X40866Y-29429D01*
X37874Y-29409D02*
X37893Y-29429D01*
X27606Y-17760D02*
X26665Y-18700D01*
X41570Y-17760D02*
X27606Y-17760D01*
X41585Y-17745D02*
X41570Y-17760D01*
X34539Y-18700D02*
X34539Y-18590D01*
X41545Y-18110D02*
X41565Y-18130D01*
X35020Y-18110D02*
X41545Y-18110D01*
X34539Y-18590D02*
X35020Y-18110D01*
X23935Y-18700D02*
X19791Y-18700D01*
X25335Y-20100D02*
X23935Y-18700D01*
X44700Y-20100D02*
X25335Y-20100D01*
X44730Y-20070D02*
X44700Y-20100D01*
X28694Y-19730D02*
X27665Y-18700D01*
X44340Y-19730D02*
X28694Y-19730D01*
X44350Y-19720D02*
X44340Y-19730D01*
X31570Y-30925D02*
X32290Y-30205D01*
X32290Y-30205D02*
X32390Y-30205D01*
X31570Y-32140D02*
X31570Y-30925D01*
X31595Y-32165D02*
X31570Y-32140D01*
X30760Y-30345D02*
X31435Y-29670D01*
X30760Y-32070D02*
X30760Y-30345D01*
X31120Y-32430D02*
X30760Y-32070D01*
X31950Y-32430D02*
X31120Y-32430D01*
X32070Y-32550D02*
X31950Y-32430D01*
X24400Y-24480D02*
X24400Y-25220D01*
X24710Y-26810D02*
X29410Y-26810D01*
X24690Y-26790D02*
X24710Y-26810D01*
X22180Y-23255D02*
X22890Y-23255D01*
X22175Y-23250D02*
X22180Y-23255D01*
X32495Y-26030D02*
X29575Y-26030D01*
X32550Y-26085D02*
X32495Y-26030D01*
X28685Y-29170D02*
X28505Y-29170D01*
X29895Y-27960D02*
X28685Y-29170D01*
X31080Y-27330D02*
X25970Y-27330D01*
X33070Y-25690D02*
X33460Y-26080D01*
X28775Y-25690D02*
X33070Y-25690D01*
X28770Y-25695D02*
X28775Y-25690D01*
X37815Y-24780D02*
X38905Y-23690D01*
X26200Y-24780D02*
X37815Y-24780D01*
X24890Y-26090D02*
X26200Y-24780D01*
X21295Y-29545D02*
X21295Y-29543D01*
X29070Y-34585D02*
X28725Y-34240D01*
X28725Y-34240D02*
X25990Y-34240D01*
X25990Y-34240D02*
X21295Y-29545D01*
X21295Y-29543D02*
X20728Y-28976D01*
X21870Y-29585D02*
X21869Y-29585D01*
X21869Y-29585D02*
X21141Y-28858D01*
X29650Y-34965D02*
X29650Y-35495D01*
X30040Y-34575D02*
X29650Y-34965D01*
X30040Y-34245D02*
X30040Y-34575D01*
X29840Y-34045D02*
X30040Y-34245D01*
X26330Y-34045D02*
X29840Y-34045D01*
X21870Y-29585D02*
X26330Y-34045D01*
X22965Y-21065D02*
X22965Y-20075D01*
X25135Y-23235D02*
X22965Y-21065D01*
X23520Y-20625D02*
X23520Y-20055D01*
X25125Y-22230D02*
X23520Y-20625D01*
G54D19*
X18965Y-24280D02*
X16850Y-22165D01*
X23545Y-24280D02*
X18965Y-24280D01*
X16850Y-21417D02*
X16240Y-20807D01*
X16850Y-22165D02*
X16850Y-21417D01*
X22677Y-31653D02*
X20157Y-29133D01*
X46830Y-23543D02*
X46850Y-23543D01*
X46397Y-23543D02*
X46830Y-23543D01*
X47125Y-20826D02*
X46870Y-20570D01*
X47125Y-23267D02*
X47125Y-20826D01*
X46850Y-23543D02*
X47125Y-23267D01*
X46870Y-19670D02*
X46870Y-20570D01*
X46870Y-20570D02*
X46870Y-20590D01*
X38340Y-23735D02*
X38340Y-23726D01*
X38340Y-23726D02*
X39547Y-22519D01*
X39547Y-22519D02*
X45964Y-22519D01*
X45964Y-22519D02*
X46397Y-22952D01*
X46397Y-22952D02*
X46397Y-23543D01*
X23545Y-24280D02*
X23545Y-28000D01*
X28215Y-32670D02*
X30795Y-32670D01*
X23545Y-28000D02*
X28215Y-32670D01*
X35055Y-20770D02*
X34250Y-20770D01*
X36125Y-21840D02*
X35055Y-20770D01*
X23545Y-24280D02*
X23545Y-24085D01*
X23545Y-24085D02*
X23825Y-23805D01*
X31215Y-23805D02*
X34250Y-20770D01*
X23825Y-23805D02*
X31215Y-23805D01*
G54D10*
G36*
X35759Y-31492D02*
X32824Y-34428D01*
X32824Y-39349D01*
X30325Y-41847D01*
X30325Y-39882D01*
X30380Y-39827D01*
X30423Y-39722D01*
X30424Y-39608D01*
X30380Y-39503D01*
X30325Y-39448D01*
X30325Y-35069D01*
X30579Y-34816D01*
X30656Y-34816D01*
X30761Y-34772D01*
X30842Y-34692D01*
X30886Y-34587D01*
X30886Y-34473D01*
X30842Y-34368D01*
X30762Y-34287D01*
X30657Y-34243D01*
X30543Y-34243D01*
X30438Y-34287D01*
X30357Y-34367D01*
X30313Y-34472D01*
X30313Y-34550D01*
X30205Y-34659D01*
X30213Y-34646D01*
X30213Y-34646D01*
X30227Y-34575D01*
X30227Y-34575D01*
X30227Y-34245D01*
X30213Y-34173D01*
X30213Y-34173D01*
X30172Y-34112D01*
X29972Y-33912D01*
X29911Y-33871D01*
X29840Y-33857D01*
X26407Y-33857D01*
X22003Y-29453D01*
X21999Y-29449D01*
X21427Y-28878D01*
X21428Y-28801D01*
X21384Y-28696D01*
X21304Y-28615D01*
X21198Y-28572D01*
X21085Y-28571D01*
X20979Y-28615D01*
X20899Y-28695D01*
X20884Y-28731D01*
X20785Y-28690D01*
X20671Y-28690D01*
X20566Y-28733D01*
X20485Y-28814D01*
X20442Y-28919D01*
X20442Y-29033D01*
X20485Y-29138D01*
X20566Y-29218D01*
X20671Y-29262D01*
X20749Y-29262D01*
X21158Y-29671D01*
X21162Y-29677D01*
X25857Y-34372D01*
X25857Y-34372D01*
X25918Y-34413D01*
X25918Y-34413D01*
X25989Y-34427D01*
X25990Y-34427D01*
X28353Y-34427D01*
X28328Y-34487D01*
X28328Y-34565D01*
X27982Y-34912D01*
X27941Y-34973D01*
X27927Y-35045D01*
X27927Y-36971D01*
X27878Y-36922D01*
X27773Y-36879D01*
X27659Y-36879D01*
X27554Y-36922D01*
X27474Y-37003D01*
X27430Y-37108D01*
X27430Y-37222D01*
X27473Y-37327D01*
X27540Y-37394D01*
X27540Y-39691D01*
X27540Y-40676D01*
X27474Y-40743D01*
X27430Y-40848D01*
X27430Y-40962D01*
X27473Y-41067D01*
X27540Y-41134D01*
X27540Y-42666D01*
X24627Y-42666D01*
X21506Y-39546D01*
X21506Y-33247D01*
X15782Y-27522D01*
X20806Y-27522D01*
X26837Y-33552D01*
X26898Y-33593D01*
X26970Y-33607D01*
X33285Y-33607D01*
X33356Y-33593D01*
X33417Y-33552D01*
X35477Y-31492D01*
X35759Y-31492D01*
X35759Y-31492D01*
G37*
G54D21*
X35759Y-31492D02*
X32824Y-34428D01*
X32824Y-39349D01*
X30325Y-41847D01*
X30325Y-39882D01*
X30380Y-39827D01*
X30423Y-39722D01*
X30424Y-39608D01*
X30380Y-39503D01*
X30325Y-39448D01*
X30325Y-35069D01*
X30579Y-34816D01*
X30656Y-34816D01*
X30761Y-34772D01*
X30842Y-34692D01*
X30886Y-34587D01*
X30886Y-34473D01*
X30842Y-34368D01*
X30762Y-34287D01*
X30657Y-34243D01*
X30543Y-34243D01*
X30438Y-34287D01*
X30357Y-34367D01*
X30313Y-34472D01*
X30313Y-34550D01*
X30205Y-34659D01*
X30213Y-34646D01*
X30213Y-34646D01*
X30227Y-34575D01*
X30227Y-34575D01*
X30227Y-34245D01*
X30213Y-34173D01*
X30213Y-34173D01*
X30172Y-34112D01*
X29972Y-33912D01*
X29911Y-33871D01*
X29840Y-33857D01*
X26407Y-33857D01*
X22003Y-29453D01*
X21999Y-29449D01*
X21427Y-28878D01*
X21428Y-28801D01*
X21384Y-28696D01*
X21304Y-28615D01*
X21198Y-28572D01*
X21085Y-28571D01*
X20979Y-28615D01*
X20899Y-28695D01*
X20884Y-28731D01*
X20785Y-28690D01*
X20671Y-28690D01*
X20566Y-28733D01*
X20485Y-28814D01*
X20442Y-28919D01*
X20442Y-29033D01*
X20485Y-29138D01*
X20566Y-29218D01*
X20671Y-29262D01*
X20749Y-29262D01*
X21158Y-29671D01*
X21162Y-29677D01*
X25857Y-34372D01*
X25857Y-34372D01*
X25918Y-34413D01*
X25918Y-34413D01*
X25989Y-34427D01*
X25990Y-34427D01*
X28353Y-34427D01*
X28328Y-34487D01*
X28328Y-34565D01*
X27982Y-34912D01*
X27941Y-34973D01*
X27927Y-35045D01*
X27927Y-36971D01*
X27878Y-36922D01*
X27773Y-36879D01*
X27659Y-36879D01*
X27554Y-36922D01*
X27474Y-37003D01*
X27430Y-37108D01*
X27430Y-37222D01*
X27473Y-37327D01*
X27540Y-37394D01*
X27540Y-39691D01*
X27540Y-40676D01*
X27474Y-40743D01*
X27430Y-40848D01*
X27430Y-40962D01*
X27473Y-41067D01*
X27540Y-41134D01*
X27540Y-42666D01*
X24627Y-42666D01*
X21506Y-39546D01*
X21506Y-33247D01*
X15782Y-27522D01*
X20806Y-27522D01*
X26837Y-33552D01*
X26898Y-33593D01*
X26970Y-33607D01*
X33285Y-33607D01*
X33356Y-33593D01*
X33417Y-33552D01*
X35477Y-31492D01*
X35759Y-31492D01*
G54D10*
G36*
X47194Y-24191D02*
X46493Y-24892D01*
X46493Y-20645D01*
X46444Y-20527D01*
X46353Y-20435D01*
X46234Y-20386D01*
X46105Y-20386D01*
X45987Y-20435D01*
X45959Y-20463D01*
X45560Y-20463D01*
X45465Y-20481D01*
X45385Y-20535D01*
X45016Y-20904D01*
X45016Y-20013D01*
X44972Y-19908D01*
X44892Y-19827D01*
X44787Y-19783D01*
X44673Y-19783D01*
X44625Y-19803D01*
X44636Y-19777D01*
X44636Y-19663D01*
X44592Y-19558D01*
X44512Y-19477D01*
X44407Y-19433D01*
X44293Y-19433D01*
X44286Y-19436D01*
X44286Y-19343D01*
X44242Y-19238D01*
X44162Y-19157D01*
X44057Y-19113D01*
X43943Y-19113D01*
X43891Y-19134D01*
X43891Y-18606D01*
X43819Y-18430D01*
X43684Y-18295D01*
X43508Y-18222D01*
X43318Y-18222D01*
X43142Y-18294D01*
X43008Y-18429D01*
X42935Y-18605D01*
X42934Y-18795D01*
X43007Y-18971D01*
X43142Y-19106D01*
X43317Y-19179D01*
X43508Y-19179D01*
X43684Y-19106D01*
X43818Y-18972D01*
X43891Y-18796D01*
X43891Y-18606D01*
X43891Y-19134D01*
X43838Y-19157D01*
X43788Y-19207D01*
X42891Y-19207D01*
X42891Y-18606D01*
X42819Y-18430D01*
X42684Y-18295D01*
X42508Y-18222D01*
X42318Y-18222D01*
X42142Y-18294D01*
X42008Y-18429D01*
X41935Y-18605D01*
X41934Y-18795D01*
X42007Y-18971D01*
X42142Y-19106D01*
X42317Y-19179D01*
X42508Y-19179D01*
X42684Y-19106D01*
X42818Y-18972D01*
X42891Y-18796D01*
X42891Y-18606D01*
X42891Y-19207D01*
X36311Y-19207D01*
X35983Y-18879D01*
X36017Y-18796D01*
X36017Y-18606D01*
X35945Y-18430D01*
X35813Y-18297D01*
X41328Y-18297D01*
X41402Y-18372D01*
X41507Y-18416D01*
X41621Y-18416D01*
X41726Y-18372D01*
X41807Y-18292D01*
X41851Y-18187D01*
X41851Y-18073D01*
X41807Y-17968D01*
X41787Y-17947D01*
X41827Y-17907D01*
X41871Y-17802D01*
X41871Y-17688D01*
X41859Y-17658D01*
X41907Y-17707D01*
X42012Y-17751D01*
X42126Y-17751D01*
X42231Y-17707D01*
X42312Y-17627D01*
X42356Y-17522D01*
X42356Y-17408D01*
X42312Y-17303D01*
X42232Y-17222D01*
X42127Y-17178D01*
X42013Y-17178D01*
X41908Y-17222D01*
X41852Y-17277D01*
X19935Y-17277D01*
X19863Y-17291D01*
X19802Y-17332D01*
X19802Y-17332D01*
X19802Y-17332D01*
X18904Y-18229D01*
X18886Y-18222D01*
X18696Y-18222D01*
X18520Y-18294D01*
X18385Y-18429D01*
X18312Y-18605D01*
X18312Y-18795D01*
X18385Y-18971D01*
X18519Y-19106D01*
X18695Y-19179D01*
X18886Y-19179D01*
X19061Y-19106D01*
X19196Y-18972D01*
X19269Y-18796D01*
X19269Y-18606D01*
X19208Y-18457D01*
X20012Y-17652D01*
X27447Y-17652D01*
X26843Y-18256D01*
X26760Y-18222D01*
X26570Y-18222D01*
X26394Y-18294D01*
X26260Y-18429D01*
X26187Y-18605D01*
X26186Y-18795D01*
X26259Y-18971D01*
X26393Y-19106D01*
X26569Y-19179D01*
X26760Y-19179D01*
X26936Y-19106D01*
X27070Y-18972D01*
X27143Y-18796D01*
X27143Y-18606D01*
X27109Y-18522D01*
X27683Y-17947D01*
X34931Y-17947D01*
X34887Y-17977D01*
X34887Y-17977D01*
X34887Y-17977D01*
X34639Y-18224D01*
X34634Y-18222D01*
X34444Y-18222D01*
X34268Y-18294D01*
X34134Y-18429D01*
X34061Y-18605D01*
X34060Y-18795D01*
X34133Y-18971D01*
X34268Y-19106D01*
X34443Y-19179D01*
X34634Y-19179D01*
X34810Y-19106D01*
X34944Y-18972D01*
X35017Y-18796D01*
X35017Y-18606D01*
X34951Y-18444D01*
X35097Y-18297D01*
X35265Y-18297D01*
X35134Y-18429D01*
X35061Y-18605D01*
X35060Y-18795D01*
X35133Y-18971D01*
X35268Y-19106D01*
X35443Y-19179D01*
X35634Y-19179D01*
X35717Y-19144D01*
X36100Y-19527D01*
X36100Y-19527D01*
X36122Y-19542D01*
X28772Y-19542D01*
X28109Y-18879D01*
X28143Y-18796D01*
X28143Y-18606D01*
X28071Y-18430D01*
X27936Y-18295D01*
X27760Y-18222D01*
X27570Y-18222D01*
X27394Y-18294D01*
X27260Y-18429D01*
X27187Y-18605D01*
X27186Y-18795D01*
X27259Y-18971D01*
X27393Y-19106D01*
X27569Y-19179D01*
X27760Y-19179D01*
X27843Y-19144D01*
X28561Y-19862D01*
X28622Y-19903D01*
X28666Y-19912D01*
X25412Y-19912D01*
X24068Y-18567D01*
X24007Y-18527D01*
X23935Y-18512D01*
X20231Y-18512D01*
X20197Y-18430D01*
X20062Y-18295D01*
X19886Y-18222D01*
X19696Y-18222D01*
X19520Y-18294D01*
X19385Y-18429D01*
X19312Y-18605D01*
X19312Y-18795D01*
X19385Y-18971D01*
X19519Y-19106D01*
X19695Y-19179D01*
X19886Y-19179D01*
X20061Y-19106D01*
X20196Y-18972D01*
X20231Y-18888D01*
X23858Y-18888D01*
X25202Y-20232D01*
X25263Y-20273D01*
X25335Y-20287D01*
X44542Y-20287D01*
X44567Y-20312D01*
X44672Y-20356D01*
X44786Y-20356D01*
X44891Y-20312D01*
X44972Y-20232D01*
X45016Y-20127D01*
X45016Y-20013D01*
X45016Y-20904D01*
X44812Y-21108D01*
X41480Y-21108D01*
X41453Y-21080D01*
X41334Y-21031D01*
X41205Y-21031D01*
X41087Y-21080D01*
X41059Y-21108D01*
X39075Y-21108D01*
X38980Y-21126D01*
X38900Y-21180D01*
X37109Y-22971D01*
X37103Y-22965D01*
X36984Y-22916D01*
X36855Y-22916D01*
X36737Y-22965D01*
X36709Y-22993D01*
X35610Y-22993D01*
X35515Y-23011D01*
X35435Y-23065D01*
X35435Y-23065D01*
X35435Y-23065D01*
X34434Y-24066D01*
X34395Y-24066D01*
X34277Y-24115D01*
X34185Y-24206D01*
X34136Y-24325D01*
X34136Y-24454D01*
X34185Y-24572D01*
X34204Y-24592D01*
X26200Y-24592D01*
X26128Y-24606D01*
X26067Y-24647D01*
X25421Y-25293D01*
X25421Y-23178D01*
X25377Y-23073D01*
X25297Y-22992D01*
X25192Y-22948D01*
X25114Y-22948D01*
X23152Y-20987D01*
X23152Y-20291D01*
X23207Y-20237D01*
X23246Y-20143D01*
X23277Y-20216D01*
X23332Y-20272D01*
X23332Y-20625D01*
X23346Y-20696D01*
X23387Y-20757D01*
X24838Y-22209D01*
X24838Y-22286D01*
X24882Y-22391D01*
X24962Y-22472D01*
X25067Y-22516D01*
X25181Y-22516D01*
X25286Y-22472D01*
X25367Y-22392D01*
X25411Y-22287D01*
X25411Y-22173D01*
X25367Y-22068D01*
X25287Y-21987D01*
X25182Y-21943D01*
X25104Y-21943D01*
X23707Y-20547D01*
X23707Y-20271D01*
X23762Y-20217D01*
X23806Y-20112D01*
X23806Y-19998D01*
X23762Y-19893D01*
X23682Y-19812D01*
X23577Y-19768D01*
X23463Y-19768D01*
X23358Y-19812D01*
X23277Y-19892D01*
X23238Y-19986D01*
X23207Y-19913D01*
X23127Y-19832D01*
X23022Y-19788D01*
X22908Y-19788D01*
X22803Y-19832D01*
X22722Y-19912D01*
X22678Y-20017D01*
X22678Y-20131D01*
X22722Y-20236D01*
X22777Y-20292D01*
X22777Y-21065D01*
X22791Y-21136D01*
X22832Y-21197D01*
X24848Y-23214D01*
X24848Y-23291D01*
X24892Y-23396D01*
X24972Y-23477D01*
X25077Y-23521D01*
X25191Y-23521D01*
X25296Y-23477D01*
X25377Y-23397D01*
X25421Y-23292D01*
X25421Y-23178D01*
X25421Y-25293D01*
X24910Y-25803D01*
X24833Y-25803D01*
X24728Y-25847D01*
X24686Y-25888D01*
X24686Y-25163D01*
X24642Y-25058D01*
X24587Y-25002D01*
X24587Y-24696D01*
X24642Y-24642D01*
X24686Y-24537D01*
X24686Y-24423D01*
X24642Y-24318D01*
X24562Y-24237D01*
X24457Y-24193D01*
X24343Y-24193D01*
X24238Y-24237D01*
X24157Y-24317D01*
X24113Y-24422D01*
X24113Y-24536D01*
X24157Y-24641D01*
X24212Y-24697D01*
X24212Y-25003D01*
X24157Y-25057D01*
X24113Y-25162D01*
X24113Y-25276D01*
X24157Y-25381D01*
X24237Y-25462D01*
X24342Y-25506D01*
X24456Y-25506D01*
X24561Y-25462D01*
X24642Y-25382D01*
X24686Y-25277D01*
X24686Y-25163D01*
X24686Y-25888D01*
X24647Y-25927D01*
X24603Y-26032D01*
X24603Y-26146D01*
X24647Y-26251D01*
X24727Y-26332D01*
X24832Y-26376D01*
X24946Y-26376D01*
X25051Y-26332D01*
X25132Y-26252D01*
X25176Y-26147D01*
X25176Y-26069D01*
X26277Y-24967D01*
X27990Y-24967D01*
X27966Y-25025D01*
X27966Y-25154D01*
X28015Y-25272D01*
X28106Y-25364D01*
X28225Y-25413D01*
X28354Y-25413D01*
X28472Y-25364D01*
X28495Y-25341D01*
X33849Y-25341D01*
X33876Y-25369D01*
X33995Y-25418D01*
X34034Y-25418D01*
X34173Y-25557D01*
X34173Y-26329D01*
X34145Y-26356D01*
X34096Y-26475D01*
X34096Y-26604D01*
X34145Y-26722D01*
X34236Y-26814D01*
X34355Y-26863D01*
X34484Y-26863D01*
X34602Y-26814D01*
X34694Y-26723D01*
X34743Y-26604D01*
X34743Y-26475D01*
X34694Y-26357D01*
X34666Y-26329D01*
X34666Y-25455D01*
X34666Y-25454D01*
X34648Y-25360D01*
X34648Y-25360D01*
X34594Y-25280D01*
X34594Y-25280D01*
X34383Y-25069D01*
X34383Y-25030D01*
X34357Y-24967D01*
X37815Y-24967D01*
X37886Y-24953D01*
X37947Y-24912D01*
X38884Y-23976D01*
X38961Y-23976D01*
X39066Y-23932D01*
X39147Y-23852D01*
X39191Y-23747D01*
X39191Y-23633D01*
X39147Y-23528D01*
X39067Y-23447D01*
X38962Y-23403D01*
X38848Y-23403D01*
X38743Y-23447D01*
X38662Y-23527D01*
X38618Y-23632D01*
X38618Y-23710D01*
X37737Y-24592D01*
X34715Y-24592D01*
X34734Y-24573D01*
X34783Y-24454D01*
X34783Y-24415D01*
X35712Y-23486D01*
X36709Y-23486D01*
X36736Y-23514D01*
X36855Y-23563D01*
X36984Y-23563D01*
X37102Y-23514D01*
X37130Y-23486D01*
X37190Y-23486D01*
X37284Y-23468D01*
X37284Y-23468D01*
X37364Y-23414D01*
X39177Y-21601D01*
X41059Y-21601D01*
X41086Y-21629D01*
X41205Y-21678D01*
X41334Y-21678D01*
X41452Y-21629D01*
X41480Y-21601D01*
X44915Y-21601D01*
X45009Y-21583D01*
X45009Y-21583D01*
X45089Y-21529D01*
X45662Y-20956D01*
X45959Y-20956D01*
X45986Y-20984D01*
X46105Y-21033D01*
X46234Y-21033D01*
X46352Y-20984D01*
X46444Y-20893D01*
X46493Y-20774D01*
X46493Y-20645D01*
X46493Y-24892D01*
X45657Y-25728D01*
X45687Y-25655D01*
X45687Y-25424D01*
X45599Y-25210D01*
X45436Y-25046D01*
X45222Y-24957D01*
X44991Y-24957D01*
X44777Y-25046D01*
X44613Y-25209D01*
X44524Y-25423D01*
X44524Y-25654D01*
X44613Y-25868D01*
X44776Y-26032D01*
X44990Y-26120D01*
X45221Y-26120D01*
X45295Y-26090D01*
X44044Y-27341D01*
X44044Y-27538D01*
X43298Y-26792D01*
X43298Y-26714D01*
X43254Y-26609D01*
X43174Y-26529D01*
X43068Y-26485D01*
X42955Y-26485D01*
X42849Y-26528D01*
X42769Y-26609D01*
X42725Y-26714D01*
X42725Y-26828D01*
X42769Y-26933D01*
X42849Y-27014D01*
X42954Y-27057D01*
X43032Y-27057D01*
X44044Y-28069D01*
X44044Y-28351D01*
X41755Y-28351D01*
X41684Y-28365D01*
X41623Y-28406D01*
X41623Y-28406D01*
X40788Y-29241D01*
X38110Y-29241D01*
X38036Y-29166D01*
X37931Y-29123D01*
X37817Y-29123D01*
X37712Y-29166D01*
X37631Y-29247D01*
X37587Y-29352D01*
X37587Y-29466D01*
X37631Y-29571D01*
X37711Y-29651D01*
X37816Y-29695D01*
X37930Y-29695D01*
X38035Y-29652D01*
X38071Y-29616D01*
X40866Y-29616D01*
X40938Y-29602D01*
X40998Y-29561D01*
X41833Y-28727D01*
X44044Y-28727D01*
X44044Y-29669D01*
X43092Y-30622D01*
X35290Y-30622D01*
X35218Y-30636D01*
X35157Y-30677D01*
X33746Y-32088D01*
X33746Y-26023D01*
X33702Y-25918D01*
X33622Y-25837D01*
X33517Y-25793D01*
X33439Y-25793D01*
X33202Y-25557D01*
X33141Y-25516D01*
X33070Y-25502D01*
X28981Y-25502D01*
X28932Y-25452D01*
X28827Y-25408D01*
X28713Y-25408D01*
X28608Y-25452D01*
X28527Y-25532D01*
X28483Y-25637D01*
X28483Y-25751D01*
X28527Y-25856D01*
X28607Y-25937D01*
X28712Y-25981D01*
X28826Y-25981D01*
X28931Y-25937D01*
X28992Y-25877D01*
X29328Y-25877D01*
X29288Y-25972D01*
X29288Y-26086D01*
X29332Y-26191D01*
X29412Y-26272D01*
X29517Y-26316D01*
X29631Y-26316D01*
X29736Y-26272D01*
X29792Y-26217D01*
X32295Y-26217D01*
X32307Y-26246D01*
X32387Y-26327D01*
X32492Y-26371D01*
X32606Y-26371D01*
X32711Y-26327D01*
X32792Y-26247D01*
X32836Y-26142D01*
X32836Y-26028D01*
X32792Y-25923D01*
X32747Y-25877D01*
X32992Y-25877D01*
X33173Y-26059D01*
X33173Y-26136D01*
X33217Y-26241D01*
X33297Y-26322D01*
X33402Y-26366D01*
X33516Y-26366D01*
X33621Y-26322D01*
X33702Y-26242D01*
X33746Y-26137D01*
X33746Y-26023D01*
X33746Y-32088D01*
X32947Y-32887D01*
X32676Y-32887D01*
X32676Y-30148D01*
X32632Y-30043D01*
X32552Y-29962D01*
X32447Y-29918D01*
X32333Y-29918D01*
X32228Y-29962D01*
X32147Y-30042D01*
X32119Y-30109D01*
X31437Y-30792D01*
X31396Y-30853D01*
X31382Y-30925D01*
X31382Y-31973D01*
X31352Y-32002D01*
X31308Y-32107D01*
X31308Y-32221D01*
X31317Y-32242D01*
X31197Y-32242D01*
X30947Y-31992D01*
X30947Y-30422D01*
X31414Y-29956D01*
X31491Y-29956D01*
X31596Y-29912D01*
X31677Y-29832D01*
X31721Y-29727D01*
X31721Y-29613D01*
X31677Y-29508D01*
X31597Y-29427D01*
X31492Y-29383D01*
X31378Y-29383D01*
X31366Y-29388D01*
X31366Y-27273D01*
X31322Y-27168D01*
X31242Y-27087D01*
X31137Y-27043D01*
X31023Y-27043D01*
X30918Y-27087D01*
X30862Y-27142D01*
X29696Y-27142D01*
X29696Y-26753D01*
X29652Y-26648D01*
X29572Y-26567D01*
X29467Y-26523D01*
X29353Y-26523D01*
X29248Y-26567D01*
X29192Y-26622D01*
X24926Y-26622D01*
X24852Y-26547D01*
X24747Y-26503D01*
X24633Y-26503D01*
X24528Y-26547D01*
X24447Y-26627D01*
X24403Y-26732D01*
X24403Y-26846D01*
X24447Y-26951D01*
X24527Y-27032D01*
X24632Y-27076D01*
X24746Y-27076D01*
X24851Y-27032D01*
X24886Y-26997D01*
X29193Y-26997D01*
X29247Y-27052D01*
X29352Y-27096D01*
X29466Y-27096D01*
X29571Y-27052D01*
X29652Y-26972D01*
X29696Y-26867D01*
X29696Y-26753D01*
X29696Y-27142D01*
X26186Y-27142D01*
X26132Y-27087D01*
X26027Y-27043D01*
X25913Y-27043D01*
X25808Y-27087D01*
X25727Y-27167D01*
X25683Y-27272D01*
X25683Y-27386D01*
X25727Y-27491D01*
X25807Y-27572D01*
X25912Y-27616D01*
X26026Y-27616D01*
X26131Y-27572D01*
X26187Y-27517D01*
X30863Y-27517D01*
X30917Y-27572D01*
X31022Y-27616D01*
X31136Y-27616D01*
X31241Y-27572D01*
X31322Y-27492D01*
X31366Y-27387D01*
X31366Y-27273D01*
X31366Y-29388D01*
X31273Y-29427D01*
X31192Y-29507D01*
X31148Y-29612D01*
X31148Y-29690D01*
X30627Y-30212D01*
X30586Y-30273D01*
X30572Y-30345D01*
X30572Y-32070D01*
X30586Y-32141D01*
X30627Y-32202D01*
X30987Y-32562D01*
X30987Y-32562D01*
X31048Y-32603D01*
X31048Y-32603D01*
X31119Y-32617D01*
X31120Y-32617D01*
X31788Y-32617D01*
X31827Y-32711D01*
X31907Y-32792D01*
X32012Y-32836D01*
X32126Y-32836D01*
X32231Y-32792D01*
X32312Y-32712D01*
X32356Y-32607D01*
X32356Y-32493D01*
X32312Y-32388D01*
X32232Y-32307D01*
X32127Y-32263D01*
X32032Y-32263D01*
X32021Y-32256D01*
X31950Y-32242D01*
X31872Y-32242D01*
X31881Y-32222D01*
X31881Y-32108D01*
X31837Y-32003D01*
X31757Y-31922D01*
X31757Y-31002D01*
X32288Y-30472D01*
X32332Y-30491D01*
X32446Y-30491D01*
X32551Y-30447D01*
X32632Y-30367D01*
X32676Y-30262D01*
X32676Y-30148D01*
X32676Y-32887D01*
X30181Y-32887D01*
X30181Y-27903D01*
X30137Y-27798D01*
X30057Y-27717D01*
X29952Y-27673D01*
X29838Y-27673D01*
X29733Y-27717D01*
X29652Y-27797D01*
X29608Y-27902D01*
X29608Y-27980D01*
X28663Y-28925D01*
X28562Y-28883D01*
X28448Y-28883D01*
X28343Y-28927D01*
X28262Y-29007D01*
X28218Y-29112D01*
X28218Y-29226D01*
X28262Y-29331D01*
X28342Y-29412D01*
X28447Y-29456D01*
X28561Y-29456D01*
X28666Y-29412D01*
X28731Y-29348D01*
X28756Y-29343D01*
X28817Y-29302D01*
X29874Y-28246D01*
X29951Y-28246D01*
X30056Y-28202D01*
X30137Y-28122D01*
X30181Y-28017D01*
X30181Y-27903D01*
X30181Y-32887D01*
X27437Y-32887D01*
X23176Y-28625D01*
X23176Y-23198D01*
X23132Y-23093D01*
X23052Y-23012D01*
X22947Y-22968D01*
X22833Y-22968D01*
X22728Y-23012D01*
X22672Y-23067D01*
X22396Y-23067D01*
X22337Y-23007D01*
X22232Y-22963D01*
X22118Y-22963D01*
X22013Y-23007D01*
X21932Y-23087D01*
X21888Y-23192D01*
X21888Y-23306D01*
X21932Y-23411D01*
X22012Y-23492D01*
X22117Y-23536D01*
X22231Y-23536D01*
X22336Y-23492D01*
X22386Y-23442D01*
X22673Y-23442D01*
X22727Y-23497D01*
X22832Y-23541D01*
X22946Y-23541D01*
X23051Y-23497D01*
X23132Y-23417D01*
X23176Y-23312D01*
X23176Y-23198D01*
X23176Y-28625D01*
X21397Y-26847D01*
X21336Y-26806D01*
X21265Y-26792D01*
X15051Y-26792D01*
X15010Y-26750D01*
X15010Y-20690D01*
X18918Y-16782D01*
X44664Y-16782D01*
X47194Y-19312D01*
X47194Y-24191D01*
X47194Y-24191D01*
G37*
G54D21*
X47194Y-24191D02*
X46493Y-24892D01*
X46493Y-20645D01*
X46444Y-20527D01*
X46353Y-20435D01*
X46234Y-20386D01*
X46105Y-20386D01*
X45987Y-20435D01*
X45959Y-20463D01*
X45560Y-20463D01*
X45465Y-20481D01*
X45385Y-20535D01*
X45016Y-20904D01*
X45016Y-20013D01*
X44972Y-19908D01*
X44892Y-19827D01*
X44787Y-19783D01*
X44673Y-19783D01*
X44625Y-19803D01*
X44636Y-19777D01*
X44636Y-19663D01*
X44592Y-19558D01*
X44512Y-19477D01*
X44407Y-19433D01*
X44293Y-19433D01*
X44286Y-19436D01*
X44286Y-19343D01*
X44242Y-19238D01*
X44162Y-19157D01*
X44057Y-19113D01*
X43943Y-19113D01*
X43891Y-19134D01*
X43891Y-18606D01*
X43819Y-18430D01*
X43684Y-18295D01*
X43508Y-18222D01*
X43318Y-18222D01*
X43142Y-18294D01*
X43008Y-18429D01*
X42935Y-18605D01*
X42934Y-18795D01*
X43007Y-18971D01*
X43142Y-19106D01*
X43317Y-19179D01*
X43508Y-19179D01*
X43684Y-19106D01*
X43818Y-18972D01*
X43891Y-18796D01*
X43891Y-18606D01*
X43891Y-19134D01*
X43838Y-19157D01*
X43788Y-19207D01*
X42891Y-19207D01*
X42891Y-18606D01*
X42819Y-18430D01*
X42684Y-18295D01*
X42508Y-18222D01*
X42318Y-18222D01*
X42142Y-18294D01*
X42008Y-18429D01*
X41935Y-18605D01*
X41934Y-18795D01*
X42007Y-18971D01*
X42142Y-19106D01*
X42317Y-19179D01*
X42508Y-19179D01*
X42684Y-19106D01*
X42818Y-18972D01*
X42891Y-18796D01*
X42891Y-18606D01*
X42891Y-19207D01*
X36311Y-19207D01*
X35983Y-18879D01*
X36017Y-18796D01*
X36017Y-18606D01*
X35945Y-18430D01*
X35813Y-18297D01*
X41328Y-18297D01*
X41402Y-18372D01*
X41507Y-18416D01*
X41621Y-18416D01*
X41726Y-18372D01*
X41807Y-18292D01*
X41851Y-18187D01*
X41851Y-18073D01*
X41807Y-17968D01*
X41787Y-17947D01*
X41827Y-17907D01*
X41871Y-17802D01*
X41871Y-17688D01*
X41859Y-17658D01*
X41907Y-17707D01*
X42012Y-17751D01*
X42126Y-17751D01*
X42231Y-17707D01*
X42312Y-17627D01*
X42356Y-17522D01*
X42356Y-17408D01*
X42312Y-17303D01*
X42232Y-17222D01*
X42127Y-17178D01*
X42013Y-17178D01*
X41908Y-17222D01*
X41852Y-17277D01*
X19935Y-17277D01*
X19863Y-17291D01*
X19802Y-17332D01*
X19802Y-17332D01*
X19802Y-17332D01*
X18904Y-18229D01*
X18886Y-18222D01*
X18696Y-18222D01*
X18520Y-18294D01*
X18385Y-18429D01*
X18312Y-18605D01*
X18312Y-18795D01*
X18385Y-18971D01*
X18519Y-19106D01*
X18695Y-19179D01*
X18886Y-19179D01*
X19061Y-19106D01*
X19196Y-18972D01*
X19269Y-18796D01*
X19269Y-18606D01*
X19208Y-18457D01*
X20012Y-17652D01*
X27447Y-17652D01*
X26843Y-18256D01*
X26760Y-18222D01*
X26570Y-18222D01*
X26394Y-18294D01*
X26260Y-18429D01*
X26187Y-18605D01*
X26186Y-18795D01*
X26259Y-18971D01*
X26393Y-19106D01*
X26569Y-19179D01*
X26760Y-19179D01*
X26936Y-19106D01*
X27070Y-18972D01*
X27143Y-18796D01*
X27143Y-18606D01*
X27109Y-18522D01*
X27683Y-17947D01*
X34931Y-17947D01*
X34887Y-17977D01*
X34887Y-17977D01*
X34887Y-17977D01*
X34639Y-18224D01*
X34634Y-18222D01*
X34444Y-18222D01*
X34268Y-18294D01*
X34134Y-18429D01*
X34061Y-18605D01*
X34060Y-18795D01*
X34133Y-18971D01*
X34268Y-19106D01*
X34443Y-19179D01*
X34634Y-19179D01*
X34810Y-19106D01*
X34944Y-18972D01*
X35017Y-18796D01*
X35017Y-18606D01*
X34951Y-18444D01*
X35097Y-18297D01*
X35265Y-18297D01*
X35134Y-18429D01*
X35061Y-18605D01*
X35060Y-18795D01*
X35133Y-18971D01*
X35268Y-19106D01*
X35443Y-19179D01*
X35634Y-19179D01*
X35717Y-19144D01*
X36100Y-19527D01*
X36100Y-19527D01*
X36122Y-19542D01*
X28772Y-19542D01*
X28109Y-18879D01*
X28143Y-18796D01*
X28143Y-18606D01*
X28071Y-18430D01*
X27936Y-18295D01*
X27760Y-18222D01*
X27570Y-18222D01*
X27394Y-18294D01*
X27260Y-18429D01*
X27187Y-18605D01*
X27186Y-18795D01*
X27259Y-18971D01*
X27393Y-19106D01*
X27569Y-19179D01*
X27760Y-19179D01*
X27843Y-19144D01*
X28561Y-19862D01*
X28622Y-19903D01*
X28666Y-19912D01*
X25412Y-19912D01*
X24068Y-18567D01*
X24007Y-18527D01*
X23935Y-18512D01*
X20231Y-18512D01*
X20197Y-18430D01*
X20062Y-18295D01*
X19886Y-18222D01*
X19696Y-18222D01*
X19520Y-18294D01*
X19385Y-18429D01*
X19312Y-18605D01*
X19312Y-18795D01*
X19385Y-18971D01*
X19519Y-19106D01*
X19695Y-19179D01*
X19886Y-19179D01*
X20061Y-19106D01*
X20196Y-18972D01*
X20231Y-18888D01*
X23858Y-18888D01*
X25202Y-20232D01*
X25263Y-20273D01*
X25335Y-20287D01*
X44542Y-20287D01*
X44567Y-20312D01*
X44672Y-20356D01*
X44786Y-20356D01*
X44891Y-20312D01*
X44972Y-20232D01*
X45016Y-20127D01*
X45016Y-20013D01*
X45016Y-20904D01*
X44812Y-21108D01*
X41480Y-21108D01*
X41453Y-21080D01*
X41334Y-21031D01*
X41205Y-21031D01*
X41087Y-21080D01*
X41059Y-21108D01*
X39075Y-21108D01*
X38980Y-21126D01*
X38900Y-21180D01*
X37109Y-22971D01*
X37103Y-22965D01*
X36984Y-22916D01*
X36855Y-22916D01*
X36737Y-22965D01*
X36709Y-22993D01*
X35610Y-22993D01*
X35515Y-23011D01*
X35435Y-23065D01*
X35435Y-23065D01*
X35435Y-23065D01*
X34434Y-24066D01*
X34395Y-24066D01*
X34277Y-24115D01*
X34185Y-24206D01*
X34136Y-24325D01*
X34136Y-24454D01*
X34185Y-24572D01*
X34204Y-24592D01*
X26200Y-24592D01*
X26128Y-24606D01*
X26067Y-24647D01*
X25421Y-25293D01*
X25421Y-23178D01*
X25377Y-23073D01*
X25297Y-22992D01*
X25192Y-22948D01*
X25114Y-22948D01*
X23152Y-20987D01*
X23152Y-20291D01*
X23207Y-20237D01*
X23246Y-20143D01*
X23277Y-20216D01*
X23332Y-20272D01*
X23332Y-20625D01*
X23346Y-20696D01*
X23387Y-20757D01*
X24838Y-22209D01*
X24838Y-22286D01*
X24882Y-22391D01*
X24962Y-22472D01*
X25067Y-22516D01*
X25181Y-22516D01*
X25286Y-22472D01*
X25367Y-22392D01*
X25411Y-22287D01*
X25411Y-22173D01*
X25367Y-22068D01*
X25287Y-21987D01*
X25182Y-21943D01*
X25104Y-21943D01*
X23707Y-20547D01*
X23707Y-20271D01*
X23762Y-20217D01*
X23806Y-20112D01*
X23806Y-19998D01*
X23762Y-19893D01*
X23682Y-19812D01*
X23577Y-19768D01*
X23463Y-19768D01*
X23358Y-19812D01*
X23277Y-19892D01*
X23238Y-19986D01*
X23207Y-19913D01*
X23127Y-19832D01*
X23022Y-19788D01*
X22908Y-19788D01*
X22803Y-19832D01*
X22722Y-19912D01*
X22678Y-20017D01*
X22678Y-20131D01*
X22722Y-20236D01*
X22777Y-20292D01*
X22777Y-21065D01*
X22791Y-21136D01*
X22832Y-21197D01*
X24848Y-23214D01*
X24848Y-23291D01*
X24892Y-23396D01*
X24972Y-23477D01*
X25077Y-23521D01*
X25191Y-23521D01*
X25296Y-23477D01*
X25377Y-23397D01*
X25421Y-23292D01*
X25421Y-23178D01*
X25421Y-25293D01*
X24910Y-25803D01*
X24833Y-25803D01*
X24728Y-25847D01*
X24686Y-25888D01*
X24686Y-25163D01*
X24642Y-25058D01*
X24587Y-25002D01*
X24587Y-24696D01*
X24642Y-24642D01*
X24686Y-24537D01*
X24686Y-24423D01*
X24642Y-24318D01*
X24562Y-24237D01*
X24457Y-24193D01*
X24343Y-24193D01*
X24238Y-24237D01*
X24157Y-24317D01*
X24113Y-24422D01*
X24113Y-24536D01*
X24157Y-24641D01*
X24212Y-24697D01*
X24212Y-25003D01*
X24157Y-25057D01*
X24113Y-25162D01*
X24113Y-25276D01*
X24157Y-25381D01*
X24237Y-25462D01*
X24342Y-25506D01*
X24456Y-25506D01*
X24561Y-25462D01*
X24642Y-25382D01*
X24686Y-25277D01*
X24686Y-25163D01*
X24686Y-25888D01*
X24647Y-25927D01*
X24603Y-26032D01*
X24603Y-26146D01*
X24647Y-26251D01*
X24727Y-26332D01*
X24832Y-26376D01*
X24946Y-26376D01*
X25051Y-26332D01*
X25132Y-26252D01*
X25176Y-26147D01*
X25176Y-26069D01*
X26277Y-24967D01*
X27990Y-24967D01*
X27966Y-25025D01*
X27966Y-25154D01*
X28015Y-25272D01*
X28106Y-25364D01*
X28225Y-25413D01*
X28354Y-25413D01*
X28472Y-25364D01*
X28495Y-25341D01*
X33849Y-25341D01*
X33876Y-25369D01*
X33995Y-25418D01*
X34034Y-25418D01*
X34173Y-25557D01*
X34173Y-26329D01*
X34145Y-26356D01*
X34096Y-26475D01*
X34096Y-26604D01*
X34145Y-26722D01*
X34236Y-26814D01*
X34355Y-26863D01*
X34484Y-26863D01*
X34602Y-26814D01*
X34694Y-26723D01*
X34743Y-26604D01*
X34743Y-26475D01*
X34694Y-26357D01*
X34666Y-26329D01*
X34666Y-25455D01*
X34666Y-25454D01*
X34648Y-25360D01*
X34648Y-25360D01*
X34594Y-25280D01*
X34594Y-25280D01*
X34383Y-25069D01*
X34383Y-25030D01*
X34357Y-24967D01*
X37815Y-24967D01*
X37886Y-24953D01*
X37947Y-24912D01*
X38884Y-23976D01*
X38961Y-23976D01*
X39066Y-23932D01*
X39147Y-23852D01*
X39191Y-23747D01*
X39191Y-23633D01*
X39147Y-23528D01*
X39067Y-23447D01*
X38962Y-23403D01*
X38848Y-23403D01*
X38743Y-23447D01*
X38662Y-23527D01*
X38618Y-23632D01*
X38618Y-23710D01*
X37737Y-24592D01*
X34715Y-24592D01*
X34734Y-24573D01*
X34783Y-24454D01*
X34783Y-24415D01*
X35712Y-23486D01*
X36709Y-23486D01*
X36736Y-23514D01*
X36855Y-23563D01*
X36984Y-23563D01*
X37102Y-23514D01*
X37130Y-23486D01*
X37190Y-23486D01*
X37284Y-23468D01*
X37284Y-23468D01*
X37364Y-23414D01*
X39177Y-21601D01*
X41059Y-21601D01*
X41086Y-21629D01*
X41205Y-21678D01*
X41334Y-21678D01*
X41452Y-21629D01*
X41480Y-21601D01*
X44915Y-21601D01*
X45009Y-21583D01*
X45009Y-21583D01*
X45089Y-21529D01*
X45662Y-20956D01*
X45959Y-20956D01*
X45986Y-20984D01*
X46105Y-21033D01*
X46234Y-21033D01*
X46352Y-20984D01*
X46444Y-20893D01*
X46493Y-20774D01*
X46493Y-20645D01*
X46493Y-24892D01*
X45657Y-25728D01*
X45687Y-25655D01*
X45687Y-25424D01*
X45599Y-25210D01*
X45436Y-25046D01*
X45222Y-24957D01*
X44991Y-24957D01*
X44777Y-25046D01*
X44613Y-25209D01*
X44524Y-25423D01*
X44524Y-25654D01*
X44613Y-25868D01*
X44776Y-26032D01*
X44990Y-26120D01*
X45221Y-26120D01*
X45295Y-26090D01*
X44044Y-27341D01*
X44044Y-27538D01*
X43298Y-26792D01*
X43298Y-26714D01*
X43254Y-26609D01*
X43174Y-26529D01*
X43068Y-26485D01*
X42955Y-26485D01*
X42849Y-26528D01*
X42769Y-26609D01*
X42725Y-26714D01*
X42725Y-26828D01*
X42769Y-26933D01*
X42849Y-27014D01*
X42954Y-27057D01*
X43032Y-27057D01*
X44044Y-28069D01*
X44044Y-28351D01*
X41755Y-28351D01*
X41684Y-28365D01*
X41623Y-28406D01*
X41623Y-28406D01*
X40788Y-29241D01*
X38110Y-29241D01*
X38036Y-29166D01*
X37931Y-29123D01*
X37817Y-29123D01*
X37712Y-29166D01*
X37631Y-29247D01*
X37587Y-29352D01*
X37587Y-29466D01*
X37631Y-29571D01*
X37711Y-29651D01*
X37816Y-29695D01*
X37930Y-29695D01*
X38035Y-29652D01*
X38071Y-29616D01*
X40866Y-29616D01*
X40938Y-29602D01*
X40998Y-29561D01*
X41833Y-28727D01*
X44044Y-28727D01*
X44044Y-29669D01*
X43092Y-30622D01*
X35290Y-30622D01*
X35218Y-30636D01*
X35157Y-30677D01*
X33746Y-32088D01*
X33746Y-26023D01*
X33702Y-25918D01*
X33622Y-25837D01*
X33517Y-25793D01*
X33439Y-25793D01*
X33202Y-25557D01*
X33141Y-25516D01*
X33070Y-25502D01*
X28981Y-25502D01*
X28932Y-25452D01*
X28827Y-25408D01*
X28713Y-25408D01*
X28608Y-25452D01*
X28527Y-25532D01*
X28483Y-25637D01*
X28483Y-25751D01*
X28527Y-25856D01*
X28607Y-25937D01*
X28712Y-25981D01*
X28826Y-25981D01*
X28931Y-25937D01*
X28992Y-25877D01*
X29328Y-25877D01*
X29288Y-25972D01*
X29288Y-26086D01*
X29332Y-26191D01*
X29412Y-26272D01*
X29517Y-26316D01*
X29631Y-26316D01*
X29736Y-26272D01*
X29792Y-26217D01*
X32295Y-26217D01*
X32307Y-26246D01*
X32387Y-26327D01*
X32492Y-26371D01*
X32606Y-26371D01*
X32711Y-26327D01*
X32792Y-26247D01*
X32836Y-26142D01*
X32836Y-26028D01*
X32792Y-25923D01*
X32747Y-25877D01*
X32992Y-25877D01*
X33173Y-26059D01*
X33173Y-26136D01*
X33217Y-26241D01*
X33297Y-26322D01*
X33402Y-26366D01*
X33516Y-26366D01*
X33621Y-26322D01*
X33702Y-26242D01*
X33746Y-26137D01*
X33746Y-26023D01*
X33746Y-32088D01*
X32947Y-32887D01*
X32676Y-32887D01*
X32676Y-30148D01*
X32632Y-30043D01*
X32552Y-29962D01*
X32447Y-29918D01*
X32333Y-29918D01*
X32228Y-29962D01*
X32147Y-30042D01*
X32119Y-30109D01*
X31437Y-30792D01*
X31396Y-30853D01*
X31382Y-30925D01*
X31382Y-31973D01*
X31352Y-32002D01*
X31308Y-32107D01*
X31308Y-32221D01*
X31317Y-32242D01*
X31197Y-32242D01*
X30947Y-31992D01*
X30947Y-30422D01*
X31414Y-29956D01*
X31491Y-29956D01*
X31596Y-29912D01*
X31677Y-29832D01*
X31721Y-29727D01*
X31721Y-29613D01*
X31677Y-29508D01*
X31597Y-29427D01*
X31492Y-29383D01*
X31378Y-29383D01*
X31366Y-29388D01*
X31366Y-27273D01*
X31322Y-27168D01*
X31242Y-27087D01*
X31137Y-27043D01*
X31023Y-27043D01*
X30918Y-27087D01*
X30862Y-27142D01*
X29696Y-27142D01*
X29696Y-26753D01*
X29652Y-26648D01*
X29572Y-26567D01*
X29467Y-26523D01*
X29353Y-26523D01*
X29248Y-26567D01*
X29192Y-26622D01*
X24926Y-26622D01*
X24852Y-26547D01*
X24747Y-26503D01*
X24633Y-26503D01*
X24528Y-26547D01*
X24447Y-26627D01*
X24403Y-26732D01*
X24403Y-26846D01*
X24447Y-26951D01*
X24527Y-27032D01*
X24632Y-27076D01*
X24746Y-27076D01*
X24851Y-27032D01*
X24886Y-26997D01*
X29193Y-26997D01*
X29247Y-27052D01*
X29352Y-27096D01*
X29466Y-27096D01*
X29571Y-27052D01*
X29652Y-26972D01*
X29696Y-26867D01*
X29696Y-26753D01*
X29696Y-27142D01*
X26186Y-27142D01*
X26132Y-27087D01*
X26027Y-27043D01*
X25913Y-27043D01*
X25808Y-27087D01*
X25727Y-27167D01*
X25683Y-27272D01*
X25683Y-27386D01*
X25727Y-27491D01*
X25807Y-27572D01*
X25912Y-27616D01*
X26026Y-27616D01*
X26131Y-27572D01*
X26187Y-27517D01*
X30863Y-27517D01*
X30917Y-27572D01*
X31022Y-27616D01*
X31136Y-27616D01*
X31241Y-27572D01*
X31322Y-27492D01*
X31366Y-27387D01*
X31366Y-27273D01*
X31366Y-29388D01*
X31273Y-29427D01*
X31192Y-29507D01*
X31148Y-29612D01*
X31148Y-29690D01*
X30627Y-30212D01*
X30586Y-30273D01*
X30572Y-30345D01*
X30572Y-32070D01*
X30586Y-32141D01*
X30627Y-32202D01*
X30987Y-32562D01*
X30987Y-32562D01*
X31048Y-32603D01*
X31048Y-32603D01*
X31119Y-32617D01*
X31120Y-32617D01*
X31788Y-32617D01*
X31827Y-32711D01*
X31907Y-32792D01*
X32012Y-32836D01*
X32126Y-32836D01*
X32231Y-32792D01*
X32312Y-32712D01*
X32356Y-32607D01*
X32356Y-32493D01*
X32312Y-32388D01*
X32232Y-32307D01*
X32127Y-32263D01*
X32032Y-32263D01*
X32021Y-32256D01*
X31950Y-32242D01*
X31872Y-32242D01*
X31881Y-32222D01*
X31881Y-32108D01*
X31837Y-32003D01*
X31757Y-31922D01*
X31757Y-31002D01*
X32288Y-30472D01*
X32332Y-30491D01*
X32446Y-30491D01*
X32551Y-30447D01*
X32632Y-30367D01*
X32676Y-30262D01*
X32676Y-30148D01*
X32676Y-32887D01*
X30181Y-32887D01*
X30181Y-27903D01*
X30137Y-27798D01*
X30057Y-27717D01*
X29952Y-27673D01*
X29838Y-27673D01*
X29733Y-27717D01*
X29652Y-27797D01*
X29608Y-27902D01*
X29608Y-27980D01*
X28663Y-28925D01*
X28562Y-28883D01*
X28448Y-28883D01*
X28343Y-28927D01*
X28262Y-29007D01*
X28218Y-29112D01*
X28218Y-29226D01*
X28262Y-29331D01*
X28342Y-29412D01*
X28447Y-29456D01*
X28561Y-29456D01*
X28666Y-29412D01*
X28731Y-29348D01*
X28756Y-29343D01*
X28817Y-29302D01*
X29874Y-28246D01*
X29951Y-28246D01*
X30056Y-28202D01*
X30137Y-28122D01*
X30181Y-28017D01*
X30181Y-27903D01*
X30181Y-32887D01*
X27437Y-32887D01*
X23176Y-28625D01*
X23176Y-23198D01*
X23132Y-23093D01*
X23052Y-23012D01*
X22947Y-22968D01*
X22833Y-22968D01*
X22728Y-23012D01*
X22672Y-23067D01*
X22396Y-23067D01*
X22337Y-23007D01*
X22232Y-22963D01*
X22118Y-22963D01*
X22013Y-23007D01*
X21932Y-23087D01*
X21888Y-23192D01*
X21888Y-23306D01*
X21932Y-23411D01*
X22012Y-23492D01*
X22117Y-23536D01*
X22231Y-23536D01*
X22336Y-23492D01*
X22386Y-23442D01*
X22673Y-23442D01*
X22727Y-23497D01*
X22832Y-23541D01*
X22946Y-23541D01*
X23051Y-23497D01*
X23132Y-23417D01*
X23176Y-23312D01*
X23176Y-23198D01*
X23176Y-28625D01*
X21397Y-26847D01*
X21336Y-26806D01*
X21265Y-26792D01*
X15051Y-26792D01*
X15010Y-26750D01*
X15010Y-20690D01*
X18918Y-16782D01*
X44664Y-16782D01*
X47194Y-19312D01*
X47194Y-24191D01*
G54D10*
G36*
X48650Y-48257D02*
X48180Y-48257D01*
X48180Y-46193D01*
X48180Y-10760D01*
X47978Y-10271D01*
X47604Y-9897D01*
X47116Y-9694D01*
X46587Y-9693D01*
X46098Y-9895D01*
X45723Y-10269D01*
X45521Y-10758D01*
X45520Y-11286D01*
X45722Y-11775D01*
X46096Y-12150D01*
X46584Y-12352D01*
X47113Y-12353D01*
X47602Y-12151D01*
X47976Y-11777D01*
X48179Y-11289D01*
X48180Y-10760D01*
X48180Y-46193D01*
X47978Y-45704D01*
X47604Y-45330D01*
X47323Y-45213D01*
X47323Y-31068D01*
X47192Y-30749D01*
X46948Y-30505D01*
X46629Y-30373D01*
X46285Y-30373D01*
X46004Y-30488D01*
X46004Y-28845D01*
X46004Y-27238D01*
X45926Y-27036D01*
X45911Y-27015D01*
X45812Y-26992D01*
X45469Y-27334D01*
X45812Y-27677D01*
X45911Y-27654D01*
X45999Y-27455D01*
X46004Y-27238D01*
X46004Y-28845D01*
X45926Y-28642D01*
X45911Y-28621D01*
X45812Y-28598D01*
X45469Y-28940D01*
X45812Y-29283D01*
X45911Y-29260D01*
X45999Y-29061D01*
X46004Y-28845D01*
X46004Y-30488D01*
X45966Y-30504D01*
X45722Y-30748D01*
X45589Y-31066D01*
X45589Y-31411D01*
X45721Y-31730D01*
X45964Y-31974D01*
X46283Y-32106D01*
X46628Y-32107D01*
X46947Y-31975D01*
X47191Y-31731D01*
X47323Y-31413D01*
X47323Y-31068D01*
X47323Y-45213D01*
X47116Y-45127D01*
X46587Y-45126D01*
X46098Y-45328D01*
X45723Y-45702D01*
X45687Y-45789D01*
X45687Y-31825D01*
X45599Y-31611D01*
X45436Y-31448D01*
X45222Y-31359D01*
X44991Y-31359D01*
X44777Y-31447D01*
X44613Y-31611D01*
X44524Y-31824D01*
X44524Y-32056D01*
X44613Y-32269D01*
X44776Y-32433D01*
X44990Y-32522D01*
X45221Y-32522D01*
X45435Y-32434D01*
X45598Y-32270D01*
X45687Y-32057D01*
X45687Y-31825D01*
X45687Y-45789D01*
X45521Y-46191D01*
X45520Y-46719D01*
X45722Y-47208D01*
X46096Y-47583D01*
X46584Y-47785D01*
X47113Y-47786D01*
X47602Y-47584D01*
X47976Y-47210D01*
X48179Y-46722D01*
X48180Y-46193D01*
X48180Y-48257D01*
X44679Y-48257D01*
X44679Y-45968D01*
X44606Y-45792D01*
X44472Y-45657D01*
X44296Y-45584D01*
X44106Y-45584D01*
X43930Y-45657D01*
X43795Y-45791D01*
X43722Y-45967D01*
X43722Y-46157D01*
X43794Y-46333D01*
X43929Y-46468D01*
X44105Y-46541D01*
X44295Y-46541D01*
X44471Y-46468D01*
X44606Y-46334D01*
X44679Y-46158D01*
X44679Y-45968D01*
X44679Y-48257D01*
X43679Y-48257D01*
X43679Y-45968D01*
X43606Y-45792D01*
X43472Y-45657D01*
X43296Y-45584D01*
X43106Y-45584D01*
X42930Y-45657D01*
X42795Y-45791D01*
X42722Y-45967D01*
X42722Y-46157D01*
X42794Y-46333D01*
X42929Y-46468D01*
X43105Y-46541D01*
X43295Y-46541D01*
X43471Y-46468D01*
X43606Y-46334D01*
X43679Y-46158D01*
X43679Y-45968D01*
X43679Y-48257D01*
X41923Y-48257D01*
X41923Y-45968D01*
X41850Y-45792D01*
X41716Y-45657D01*
X41540Y-45584D01*
X41350Y-45584D01*
X41174Y-45657D01*
X41039Y-45791D01*
X40966Y-45967D01*
X40966Y-46157D01*
X41039Y-46333D01*
X41173Y-46468D01*
X41349Y-46541D01*
X41539Y-46541D01*
X41715Y-46468D01*
X41850Y-46334D01*
X41923Y-46158D01*
X41923Y-45968D01*
X41923Y-48257D01*
X40923Y-48257D01*
X40923Y-45968D01*
X40850Y-45792D01*
X40716Y-45657D01*
X40540Y-45584D01*
X40350Y-45584D01*
X40174Y-45657D01*
X40039Y-45791D01*
X39966Y-45967D01*
X39966Y-46157D01*
X40039Y-46333D01*
X40173Y-46468D01*
X40349Y-46541D01*
X40539Y-46541D01*
X40715Y-46468D01*
X40850Y-46334D01*
X40923Y-46158D01*
X40923Y-45968D01*
X40923Y-48257D01*
X39167Y-48257D01*
X39167Y-45968D01*
X39094Y-45792D01*
X38960Y-45657D01*
X38784Y-45584D01*
X38594Y-45584D01*
X38418Y-45657D01*
X38283Y-45791D01*
X38210Y-45967D01*
X38210Y-46157D01*
X38283Y-46333D01*
X38417Y-46468D01*
X38593Y-46541D01*
X38783Y-46541D01*
X38959Y-46468D01*
X39094Y-46334D01*
X39167Y-46158D01*
X39167Y-45968D01*
X39167Y-48257D01*
X38167Y-48257D01*
X38167Y-45968D01*
X38094Y-45792D01*
X37960Y-45657D01*
X37784Y-45584D01*
X37594Y-45584D01*
X37418Y-45657D01*
X37283Y-45791D01*
X37210Y-45967D01*
X37210Y-46157D01*
X37283Y-46333D01*
X37417Y-46468D01*
X37593Y-46541D01*
X37783Y-46541D01*
X37959Y-46468D01*
X38094Y-46334D01*
X38167Y-46158D01*
X38167Y-45968D01*
X38167Y-48257D01*
X36411Y-48257D01*
X36411Y-45968D01*
X36338Y-45792D01*
X36204Y-45657D01*
X36028Y-45584D01*
X35838Y-45584D01*
X35662Y-45657D01*
X35527Y-45791D01*
X35454Y-45967D01*
X35454Y-46157D01*
X35527Y-46333D01*
X35661Y-46468D01*
X35837Y-46541D01*
X36027Y-46541D01*
X36203Y-46468D01*
X36338Y-46334D01*
X36411Y-46158D01*
X36411Y-45968D01*
X36411Y-48257D01*
X35411Y-48257D01*
X35411Y-45968D01*
X35338Y-45792D01*
X35204Y-45657D01*
X35028Y-45584D01*
X34838Y-45584D01*
X34662Y-45657D01*
X34527Y-45791D01*
X34454Y-45967D01*
X34454Y-46157D01*
X34527Y-46333D01*
X34661Y-46468D01*
X34837Y-46541D01*
X35027Y-46541D01*
X35203Y-46468D01*
X35338Y-46334D01*
X35411Y-46158D01*
X35411Y-45968D01*
X35411Y-48257D01*
X32916Y-48257D01*
X32916Y-44597D01*
X32827Y-44383D01*
X32664Y-44219D01*
X32450Y-44131D01*
X32219Y-44131D01*
X32005Y-44219D01*
X31841Y-44382D01*
X31753Y-44596D01*
X31753Y-44827D01*
X31841Y-45041D01*
X32004Y-45205D01*
X32218Y-45293D01*
X32449Y-45294D01*
X32663Y-45205D01*
X32827Y-45042D01*
X32916Y-44828D01*
X32916Y-44597D01*
X32916Y-48257D01*
X32500Y-48257D01*
X32500Y-45891D01*
X32369Y-45572D01*
X32125Y-45328D01*
X31807Y-45196D01*
X31462Y-45195D01*
X31143Y-45327D01*
X31087Y-45383D01*
X31087Y-44967D01*
X31008Y-44764D01*
X30994Y-44743D01*
X30894Y-44720D01*
X30552Y-45062D01*
X30894Y-45405D01*
X30994Y-45382D01*
X31082Y-45184D01*
X31087Y-44967D01*
X31087Y-45383D01*
X30899Y-45571D01*
X30881Y-45613D01*
X30881Y-45418D01*
X30539Y-45075D01*
X30196Y-45418D01*
X30219Y-45518D01*
X30418Y-45605D01*
X30635Y-45610D01*
X30837Y-45532D01*
X30858Y-45518D01*
X30881Y-45418D01*
X30881Y-45613D01*
X30767Y-45889D01*
X30766Y-46234D01*
X30898Y-46553D01*
X31142Y-46797D01*
X31460Y-46929D01*
X31805Y-46930D01*
X32124Y-46798D01*
X32368Y-46554D01*
X32500Y-46236D01*
X32500Y-45891D01*
X32500Y-48257D01*
X29275Y-48257D01*
X29275Y-45418D01*
X28933Y-45075D01*
X28590Y-45418D01*
X28613Y-45518D01*
X28812Y-45605D01*
X29029Y-45610D01*
X29231Y-45532D01*
X29252Y-45518D01*
X29275Y-45418D01*
X29275Y-48257D01*
X27500Y-48257D01*
X27500Y-45891D01*
X27369Y-45572D01*
X27125Y-45328D01*
X26807Y-45196D01*
X26514Y-45195D01*
X26514Y-44597D01*
X26426Y-44383D01*
X26262Y-44219D01*
X26049Y-44131D01*
X25817Y-44131D01*
X25604Y-44219D01*
X25440Y-44382D01*
X25351Y-44596D01*
X25351Y-44827D01*
X25439Y-45041D01*
X25603Y-45205D01*
X25816Y-45293D01*
X26048Y-45294D01*
X26262Y-45205D01*
X26425Y-45042D01*
X26514Y-44828D01*
X26514Y-44597D01*
X26514Y-45195D01*
X26462Y-45195D01*
X26143Y-45327D01*
X25899Y-45571D01*
X25767Y-45889D01*
X25766Y-46234D01*
X25898Y-46553D01*
X26142Y-46797D01*
X26460Y-46929D01*
X26805Y-46930D01*
X27124Y-46798D01*
X27368Y-46554D01*
X27500Y-46236D01*
X27500Y-45891D01*
X27500Y-48257D01*
X13743Y-48257D01*
X13743Y-31825D01*
X13654Y-31611D01*
X13491Y-31448D01*
X13277Y-31359D01*
X13153Y-31359D01*
X13153Y-30501D01*
X12811Y-30158D01*
X12798Y-30171D01*
X12798Y-30145D01*
X12455Y-29803D01*
X12355Y-29826D01*
X12268Y-30024D01*
X12263Y-30241D01*
X12341Y-30443D01*
X12355Y-30465D01*
X12455Y-30488D01*
X12798Y-30145D01*
X12798Y-30171D01*
X12468Y-30501D01*
X12491Y-30600D01*
X12690Y-30688D01*
X12906Y-30693D01*
X13109Y-30615D01*
X13130Y-30600D01*
X13153Y-30501D01*
X13153Y-31359D01*
X13046Y-31359D01*
X12832Y-31447D01*
X12678Y-31601D01*
X12678Y-31068D01*
X12546Y-30749D01*
X12302Y-30505D01*
X11984Y-30373D01*
X11639Y-30373D01*
X11320Y-30504D01*
X11076Y-30748D01*
X10944Y-31066D01*
X10943Y-31411D01*
X11075Y-31730D01*
X11319Y-31974D01*
X11637Y-32106D01*
X11982Y-32107D01*
X12301Y-31975D01*
X12545Y-31731D01*
X12677Y-31413D01*
X12678Y-31068D01*
X12678Y-31601D01*
X12668Y-31611D01*
X12580Y-31824D01*
X12579Y-32056D01*
X12668Y-32269D01*
X12831Y-32433D01*
X13045Y-32522D01*
X13276Y-32522D01*
X13490Y-32434D01*
X13654Y-32270D01*
X13742Y-32057D01*
X13743Y-31825D01*
X13743Y-48257D01*
X12747Y-48257D01*
X12747Y-46193D01*
X12545Y-45704D01*
X12171Y-45330D01*
X11682Y-45127D01*
X11154Y-45126D01*
X10665Y-45328D01*
X10290Y-45702D01*
X10088Y-46191D01*
X10087Y-46719D01*
X10289Y-47208D01*
X10663Y-47583D01*
X11151Y-47785D01*
X11680Y-47786D01*
X12169Y-47584D01*
X12543Y-47210D01*
X12746Y-46722D01*
X12747Y-46193D01*
X12747Y-48257D01*
X9616Y-48257D01*
X9616Y-26821D01*
X11166Y-26821D01*
X11319Y-26974D01*
X11637Y-27106D01*
X11982Y-27107D01*
X12301Y-26975D01*
X12455Y-26821D01*
X14205Y-26821D01*
X14163Y-26922D01*
X14163Y-27036D01*
X14207Y-27141D01*
X14212Y-27146D01*
X13914Y-27146D01*
X13888Y-27083D01*
X13763Y-26958D01*
X13600Y-26890D01*
X13423Y-26890D01*
X13260Y-26958D01*
X13135Y-27082D01*
X13067Y-27245D01*
X13067Y-27365D01*
X13062Y-27360D01*
X12899Y-27292D01*
X12723Y-27292D01*
X12559Y-27359D01*
X12434Y-27484D01*
X12367Y-27647D01*
X12367Y-27824D01*
X12434Y-27987D01*
X12515Y-28068D01*
X12512Y-28069D01*
X12491Y-28084D01*
X12468Y-28183D01*
X12811Y-28526D01*
X12816Y-28520D01*
X12829Y-28533D01*
X12823Y-28539D01*
X12829Y-28544D01*
X12816Y-28557D01*
X12811Y-28552D01*
X12798Y-28564D01*
X12798Y-28539D01*
X12455Y-28196D01*
X12355Y-28219D01*
X12268Y-28418D01*
X12263Y-28635D01*
X12341Y-28837D01*
X12355Y-28858D01*
X12455Y-28881D01*
X12798Y-28539D01*
X12798Y-28564D01*
X12468Y-28894D01*
X12491Y-28994D01*
X12519Y-29006D01*
X12434Y-29090D01*
X12367Y-29253D01*
X12367Y-29430D01*
X12434Y-29593D01*
X12515Y-29675D01*
X12512Y-29676D01*
X12491Y-29690D01*
X12468Y-29790D01*
X12811Y-30132D01*
X12816Y-30127D01*
X12829Y-30140D01*
X12823Y-30145D01*
X13166Y-30488D01*
X13266Y-30465D01*
X13353Y-30266D01*
X13356Y-30160D01*
X13423Y-30187D01*
X13599Y-30188D01*
X13762Y-30120D01*
X13887Y-29995D01*
X13955Y-29832D01*
X13955Y-29656D01*
X13888Y-29492D01*
X13763Y-29367D01*
X13702Y-29342D01*
X13762Y-29317D01*
X13887Y-29192D01*
X13955Y-29029D01*
X13955Y-28853D01*
X13888Y-28689D01*
X13763Y-28564D01*
X13702Y-28539D01*
X13762Y-28514D01*
X13887Y-28389D01*
X13955Y-28226D01*
X13955Y-28049D01*
X13888Y-27886D01*
X13763Y-27761D01*
X13702Y-27736D01*
X13762Y-27711D01*
X13887Y-27586D01*
X13914Y-27522D01*
X15050Y-27522D01*
X21012Y-33485D01*
X21012Y-39784D01*
X24388Y-43160D01*
X27540Y-43160D01*
X27540Y-43959D01*
X27477Y-43985D01*
X27352Y-44110D01*
X27284Y-44273D01*
X27284Y-44450D01*
X27351Y-44613D01*
X27476Y-44738D01*
X27639Y-44806D01*
X27758Y-44806D01*
X27753Y-44811D01*
X27686Y-44974D01*
X27685Y-45150D01*
X27753Y-45314D01*
X27878Y-45439D01*
X28041Y-45506D01*
X28217Y-45506D01*
X28381Y-45439D01*
X28462Y-45358D01*
X28463Y-45361D01*
X28477Y-45382D01*
X28577Y-45405D01*
X28920Y-45062D01*
X28914Y-45057D01*
X28927Y-45044D01*
X28933Y-45050D01*
X28938Y-45044D01*
X28951Y-45057D01*
X28945Y-45062D01*
X29288Y-45405D01*
X29388Y-45382D01*
X29400Y-45354D01*
X29484Y-45439D01*
X29647Y-45506D01*
X29824Y-45506D01*
X29987Y-45439D01*
X30068Y-45358D01*
X30069Y-45361D01*
X30084Y-45382D01*
X30183Y-45405D01*
X30526Y-45062D01*
X30520Y-45057D01*
X30533Y-45044D01*
X30539Y-45050D01*
X30881Y-44707D01*
X30858Y-44607D01*
X30660Y-44520D01*
X30553Y-44517D01*
X30581Y-44450D01*
X30581Y-44274D01*
X30514Y-44111D01*
X30389Y-43986D01*
X30325Y-43959D01*
X30325Y-42579D01*
X33317Y-39587D01*
X33317Y-34666D01*
X36438Y-31546D01*
X42934Y-31546D01*
X42987Y-31492D01*
X43585Y-31492D01*
X43656Y-31478D01*
X43717Y-31437D01*
X44595Y-30559D01*
X44667Y-30589D01*
X44843Y-30589D01*
X45007Y-30522D01*
X45132Y-30397D01*
X45199Y-30234D01*
X45199Y-30115D01*
X45204Y-30120D01*
X45368Y-30187D01*
X45544Y-30188D01*
X45707Y-30120D01*
X45832Y-29995D01*
X45900Y-29832D01*
X45900Y-29656D01*
X45833Y-29492D01*
X45751Y-29411D01*
X45754Y-29410D01*
X45776Y-29396D01*
X45799Y-29296D01*
X45456Y-28953D01*
X45451Y-28959D01*
X45438Y-28946D01*
X45443Y-28940D01*
X45438Y-28935D01*
X45451Y-28922D01*
X45456Y-28928D01*
X45799Y-28585D01*
X45776Y-28485D01*
X45748Y-28473D01*
X45832Y-28389D01*
X45900Y-28226D01*
X45900Y-28049D01*
X45833Y-27886D01*
X45751Y-27805D01*
X45754Y-27804D01*
X45776Y-27789D01*
X45799Y-27690D01*
X45456Y-27347D01*
X45451Y-27353D01*
X45438Y-27340D01*
X45443Y-27334D01*
X45438Y-27329D01*
X45451Y-27316D01*
X45456Y-27321D01*
X45799Y-26979D01*
X45776Y-26879D01*
X45577Y-26791D01*
X45360Y-26786D01*
X45312Y-26805D01*
X45623Y-26494D01*
X45721Y-26730D01*
X45964Y-26974D01*
X46283Y-27106D01*
X46628Y-27107D01*
X46947Y-26975D01*
X47191Y-26731D01*
X47323Y-26413D01*
X47323Y-26068D01*
X47192Y-25749D01*
X46948Y-25505D01*
X46710Y-25407D01*
X47476Y-24641D01*
X47687Y-24430D01*
X47687Y-19270D01*
X45114Y-16696D01*
X44727Y-16310D01*
X44727Y-12652D01*
X44638Y-12438D01*
X44475Y-12275D01*
X44311Y-12207D01*
X44311Y-11245D01*
X44180Y-10926D01*
X43936Y-10682D01*
X43618Y-10550D01*
X43273Y-10550D01*
X42954Y-10681D01*
X42710Y-10925D01*
X42578Y-11244D01*
X42577Y-11589D01*
X42709Y-11907D01*
X42953Y-12151D01*
X43271Y-12284D01*
X43616Y-12284D01*
X43935Y-12152D01*
X44179Y-11909D01*
X44311Y-11590D01*
X44311Y-11245D01*
X44311Y-12207D01*
X44261Y-12186D01*
X44030Y-12186D01*
X43816Y-12274D01*
X43652Y-12437D01*
X43564Y-12651D01*
X43564Y-12882D01*
X43652Y-13096D01*
X43815Y-13260D01*
X44029Y-13349D01*
X44260Y-13349D01*
X44474Y-13260D01*
X44638Y-13097D01*
X44727Y-12883D01*
X44727Y-12652D01*
X44727Y-16310D01*
X44705Y-16288D01*
X42794Y-16288D01*
X42794Y-13030D01*
X42726Y-12866D01*
X42602Y-12741D01*
X42439Y-12674D01*
X42319Y-12674D01*
X42324Y-12669D01*
X42392Y-12506D01*
X42392Y-12329D01*
X42325Y-12166D01*
X42200Y-12041D01*
X42037Y-11973D01*
X41860Y-11973D01*
X41697Y-12040D01*
X41616Y-12122D01*
X41615Y-12119D01*
X41600Y-12097D01*
X41501Y-12074D01*
X41488Y-12087D01*
X41488Y-12061D01*
X41465Y-11962D01*
X41266Y-11874D01*
X41049Y-11869D01*
X40847Y-11947D01*
X40826Y-11962D01*
X40803Y-12061D01*
X41145Y-12404D01*
X41488Y-12061D01*
X41488Y-12087D01*
X41158Y-12417D01*
X41164Y-12422D01*
X41151Y-12435D01*
X41145Y-12430D01*
X41140Y-12435D01*
X41127Y-12422D01*
X41132Y-12417D01*
X40790Y-12074D01*
X40690Y-12097D01*
X40678Y-12125D01*
X40594Y-12041D01*
X40431Y-11973D01*
X40254Y-11973D01*
X40091Y-12040D01*
X40009Y-12122D01*
X40008Y-12119D01*
X39994Y-12097D01*
X39894Y-12074D01*
X39881Y-12087D01*
X39881Y-12061D01*
X39858Y-11962D01*
X39660Y-11874D01*
X39443Y-11869D01*
X39311Y-11920D01*
X39311Y-11245D01*
X39180Y-10926D01*
X38936Y-10682D01*
X38618Y-10550D01*
X38273Y-10550D01*
X37954Y-10681D01*
X37710Y-10925D01*
X37578Y-11244D01*
X37577Y-11589D01*
X37709Y-11907D01*
X37953Y-12151D01*
X38271Y-12284D01*
X38616Y-12284D01*
X38935Y-12152D01*
X39179Y-11909D01*
X39311Y-11590D01*
X39311Y-11245D01*
X39311Y-11920D01*
X39241Y-11947D01*
X39219Y-11962D01*
X39196Y-12061D01*
X39539Y-12404D01*
X39881Y-12061D01*
X39881Y-12087D01*
X39552Y-12417D01*
X39557Y-12422D01*
X39544Y-12435D01*
X39539Y-12430D01*
X39526Y-12442D01*
X39526Y-12417D01*
X39183Y-12074D01*
X39084Y-12097D01*
X38996Y-12296D01*
X38991Y-12513D01*
X39069Y-12715D01*
X39084Y-12736D01*
X39183Y-12759D01*
X39526Y-12417D01*
X39526Y-12442D01*
X39196Y-12772D01*
X39219Y-12872D01*
X39418Y-12960D01*
X39524Y-12962D01*
X39497Y-13029D01*
X39496Y-13206D01*
X39564Y-13369D01*
X39689Y-13494D01*
X39852Y-13561D01*
X40028Y-13562D01*
X40192Y-13494D01*
X40317Y-13369D01*
X40342Y-13308D01*
X40367Y-13369D01*
X40492Y-13494D01*
X40655Y-13561D01*
X40832Y-13562D01*
X40995Y-13494D01*
X41120Y-13369D01*
X41145Y-13308D01*
X41170Y-13369D01*
X41295Y-13494D01*
X41458Y-13561D01*
X41635Y-13562D01*
X41798Y-13494D01*
X41923Y-13369D01*
X41948Y-13308D01*
X41973Y-13369D01*
X42098Y-13494D01*
X42261Y-13561D01*
X42438Y-13562D01*
X42601Y-13494D01*
X42726Y-13369D01*
X42794Y-13206D01*
X42794Y-13030D01*
X42794Y-16288D01*
X38325Y-16288D01*
X38325Y-12652D01*
X38237Y-12438D01*
X38073Y-12275D01*
X37860Y-12186D01*
X37628Y-12186D01*
X37415Y-12274D01*
X37251Y-12437D01*
X37162Y-12651D01*
X37162Y-12882D01*
X37250Y-13096D01*
X37414Y-13260D01*
X37627Y-13349D01*
X37859Y-13349D01*
X38073Y-13260D01*
X38236Y-13097D01*
X38325Y-12883D01*
X38325Y-12652D01*
X38325Y-16288D01*
X36853Y-16288D01*
X36853Y-12652D01*
X36764Y-12438D01*
X36601Y-12275D01*
X36437Y-12207D01*
X36437Y-11245D01*
X36306Y-10926D01*
X36062Y-10682D01*
X35744Y-10550D01*
X35399Y-10550D01*
X35080Y-10681D01*
X34836Y-10925D01*
X34704Y-11244D01*
X34703Y-11589D01*
X34835Y-11907D01*
X35079Y-12151D01*
X35397Y-12284D01*
X35742Y-12284D01*
X36061Y-12152D01*
X36305Y-11909D01*
X36437Y-11590D01*
X36437Y-11245D01*
X36437Y-12207D01*
X36387Y-12186D01*
X36156Y-12186D01*
X35942Y-12274D01*
X35778Y-12437D01*
X35690Y-12651D01*
X35690Y-12882D01*
X35778Y-13096D01*
X35941Y-13260D01*
X36155Y-13349D01*
X36386Y-13349D01*
X36600Y-13260D01*
X36764Y-13097D01*
X36853Y-12883D01*
X36853Y-12652D01*
X36853Y-16288D01*
X34920Y-16288D01*
X34920Y-13030D01*
X34852Y-12866D01*
X34728Y-12741D01*
X34565Y-12674D01*
X34445Y-12674D01*
X34450Y-12669D01*
X34518Y-12506D01*
X34518Y-12329D01*
X34451Y-12166D01*
X34326Y-12041D01*
X34163Y-11973D01*
X33986Y-11973D01*
X33823Y-12040D01*
X33742Y-12122D01*
X33741Y-12119D01*
X33726Y-12097D01*
X33627Y-12074D01*
X33614Y-12087D01*
X33614Y-12061D01*
X33591Y-11962D01*
X33392Y-11874D01*
X33175Y-11869D01*
X32973Y-11947D01*
X32952Y-11962D01*
X32929Y-12061D01*
X33271Y-12404D01*
X33614Y-12061D01*
X33614Y-12087D01*
X33284Y-12417D01*
X33290Y-12422D01*
X33277Y-12435D01*
X33271Y-12430D01*
X33266Y-12435D01*
X33253Y-12422D01*
X33258Y-12417D01*
X32916Y-12074D01*
X32816Y-12097D01*
X32804Y-12125D01*
X32720Y-12041D01*
X32557Y-11973D01*
X32380Y-11973D01*
X32217Y-12040D01*
X32135Y-12122D01*
X32134Y-12119D01*
X32120Y-12097D01*
X32020Y-12074D01*
X32007Y-12087D01*
X32007Y-12061D01*
X31984Y-11962D01*
X31786Y-11874D01*
X31569Y-11869D01*
X31437Y-11920D01*
X31437Y-11245D01*
X31306Y-10926D01*
X31062Y-10682D01*
X30744Y-10550D01*
X30399Y-10550D01*
X30080Y-10681D01*
X29836Y-10925D01*
X29704Y-11244D01*
X29703Y-11589D01*
X29835Y-11907D01*
X30079Y-12151D01*
X30397Y-12284D01*
X30742Y-12284D01*
X31061Y-12152D01*
X31305Y-11909D01*
X31437Y-11590D01*
X31437Y-11245D01*
X31437Y-11920D01*
X31367Y-11947D01*
X31345Y-11962D01*
X31322Y-12061D01*
X31665Y-12404D01*
X32007Y-12061D01*
X32007Y-12087D01*
X31678Y-12417D01*
X31683Y-12422D01*
X31670Y-12435D01*
X31665Y-12430D01*
X31652Y-12442D01*
X31652Y-12417D01*
X31309Y-12074D01*
X31210Y-12097D01*
X31122Y-12296D01*
X31117Y-12513D01*
X31195Y-12715D01*
X31210Y-12736D01*
X31309Y-12759D01*
X31652Y-12417D01*
X31652Y-12442D01*
X31322Y-12772D01*
X31345Y-12872D01*
X31544Y-12960D01*
X31650Y-12962D01*
X31623Y-13029D01*
X31622Y-13206D01*
X31690Y-13369D01*
X31815Y-13494D01*
X31978Y-13561D01*
X32154Y-13562D01*
X32318Y-13494D01*
X32443Y-13369D01*
X32468Y-13308D01*
X32493Y-13369D01*
X32618Y-13494D01*
X32781Y-13561D01*
X32957Y-13562D01*
X33121Y-13494D01*
X33246Y-13369D01*
X33271Y-13308D01*
X33296Y-13369D01*
X33421Y-13494D01*
X33584Y-13561D01*
X33761Y-13562D01*
X33924Y-13494D01*
X34049Y-13369D01*
X34074Y-13308D01*
X34099Y-13369D01*
X34224Y-13494D01*
X34387Y-13561D01*
X34564Y-13562D01*
X34727Y-13494D01*
X34852Y-13369D01*
X34920Y-13206D01*
X34920Y-13030D01*
X34920Y-16288D01*
X30451Y-16288D01*
X30451Y-12652D01*
X30363Y-12438D01*
X30199Y-12275D01*
X29986Y-12186D01*
X29754Y-12186D01*
X29541Y-12274D01*
X29377Y-12437D01*
X29288Y-12651D01*
X29288Y-12882D01*
X29376Y-13096D01*
X29540Y-13260D01*
X29753Y-13349D01*
X29985Y-13349D01*
X30199Y-13260D01*
X30362Y-13097D01*
X30451Y-12883D01*
X30451Y-12652D01*
X30451Y-16288D01*
X28979Y-16288D01*
X28979Y-12652D01*
X28890Y-12438D01*
X28727Y-12275D01*
X28563Y-12207D01*
X28563Y-11245D01*
X28432Y-10926D01*
X28188Y-10682D01*
X27870Y-10550D01*
X27525Y-10550D01*
X27206Y-10681D01*
X26962Y-10925D01*
X26830Y-11244D01*
X26829Y-11589D01*
X26961Y-11907D01*
X27205Y-12151D01*
X27523Y-12284D01*
X27868Y-12284D01*
X28187Y-12152D01*
X28431Y-11909D01*
X28563Y-11590D01*
X28563Y-11245D01*
X28563Y-12207D01*
X28513Y-12186D01*
X28282Y-12186D01*
X28068Y-12274D01*
X27904Y-12437D01*
X27816Y-12651D01*
X27816Y-12882D01*
X27904Y-13096D01*
X28067Y-13260D01*
X28281Y-13349D01*
X28512Y-13349D01*
X28726Y-13260D01*
X28890Y-13097D01*
X28979Y-12883D01*
X28979Y-12652D01*
X28979Y-16288D01*
X27046Y-16288D01*
X27046Y-13030D01*
X26978Y-12866D01*
X26854Y-12741D01*
X26691Y-12674D01*
X26571Y-12674D01*
X26576Y-12669D01*
X26644Y-12506D01*
X26644Y-12329D01*
X26577Y-12166D01*
X26452Y-12041D01*
X26289Y-11973D01*
X26112Y-11973D01*
X25949Y-12040D01*
X25868Y-12122D01*
X25867Y-12119D01*
X25852Y-12097D01*
X25753Y-12074D01*
X25740Y-12087D01*
X25740Y-12061D01*
X25717Y-11962D01*
X25518Y-11874D01*
X25301Y-11869D01*
X25099Y-11947D01*
X25078Y-11962D01*
X25055Y-12061D01*
X25397Y-12404D01*
X25740Y-12061D01*
X25740Y-12087D01*
X25410Y-12417D01*
X25416Y-12422D01*
X25403Y-12435D01*
X25397Y-12430D01*
X25392Y-12435D01*
X25379Y-12422D01*
X25384Y-12417D01*
X25042Y-12074D01*
X24942Y-12097D01*
X24930Y-12125D01*
X24846Y-12041D01*
X24683Y-11973D01*
X24506Y-11973D01*
X24343Y-12040D01*
X24261Y-12122D01*
X24260Y-12119D01*
X24246Y-12097D01*
X24146Y-12074D01*
X24133Y-12087D01*
X24133Y-12061D01*
X24110Y-11962D01*
X23912Y-11874D01*
X23695Y-11869D01*
X23563Y-11920D01*
X23563Y-11245D01*
X23432Y-10926D01*
X23188Y-10682D01*
X22870Y-10550D01*
X22525Y-10550D01*
X22206Y-10681D01*
X21962Y-10925D01*
X21830Y-11244D01*
X21829Y-11589D01*
X21961Y-11907D01*
X22205Y-12151D01*
X22523Y-12284D01*
X22868Y-12284D01*
X23187Y-12152D01*
X23431Y-11909D01*
X23563Y-11590D01*
X23563Y-11245D01*
X23563Y-11920D01*
X23493Y-11947D01*
X23471Y-11962D01*
X23448Y-12061D01*
X23791Y-12404D01*
X24133Y-12061D01*
X24133Y-12087D01*
X23804Y-12417D01*
X23809Y-12422D01*
X23796Y-12435D01*
X23791Y-12430D01*
X23778Y-12442D01*
X23778Y-12417D01*
X23435Y-12074D01*
X23336Y-12097D01*
X23248Y-12296D01*
X23243Y-12513D01*
X23321Y-12715D01*
X23336Y-12736D01*
X23435Y-12759D01*
X23778Y-12417D01*
X23778Y-12442D01*
X23448Y-12772D01*
X23471Y-12872D01*
X23670Y-12960D01*
X23776Y-12962D01*
X23749Y-13029D01*
X23748Y-13206D01*
X23816Y-13369D01*
X23941Y-13494D01*
X24104Y-13561D01*
X24280Y-13562D01*
X24444Y-13494D01*
X24569Y-13369D01*
X24594Y-13308D01*
X24619Y-13369D01*
X24744Y-13494D01*
X24907Y-13561D01*
X25083Y-13562D01*
X25247Y-13494D01*
X25372Y-13369D01*
X25397Y-13308D01*
X25422Y-13369D01*
X25547Y-13494D01*
X25710Y-13561D01*
X25887Y-13562D01*
X26050Y-13494D01*
X26175Y-13369D01*
X26200Y-13308D01*
X26225Y-13369D01*
X26350Y-13494D01*
X26513Y-13561D01*
X26690Y-13562D01*
X26853Y-13494D01*
X26978Y-13369D01*
X27046Y-13206D01*
X27046Y-13030D01*
X27046Y-16288D01*
X22577Y-16288D01*
X22577Y-12652D01*
X22489Y-12438D01*
X22325Y-12275D01*
X22112Y-12186D01*
X21880Y-12186D01*
X21667Y-12274D01*
X21503Y-12437D01*
X21414Y-12651D01*
X21414Y-12882D01*
X21502Y-13096D01*
X21666Y-13260D01*
X21879Y-13349D01*
X22111Y-13349D01*
X22325Y-13260D01*
X22488Y-13097D01*
X22577Y-12883D01*
X22577Y-12652D01*
X22577Y-16288D01*
X21105Y-16288D01*
X21105Y-12652D01*
X21016Y-12438D01*
X20853Y-12275D01*
X20689Y-12207D01*
X20689Y-11245D01*
X20558Y-10926D01*
X20314Y-10682D01*
X19996Y-10550D01*
X19651Y-10550D01*
X19332Y-10681D01*
X19088Y-10925D01*
X18956Y-11244D01*
X18955Y-11589D01*
X19087Y-11907D01*
X19331Y-12151D01*
X19649Y-12284D01*
X19994Y-12284D01*
X20313Y-12152D01*
X20557Y-11909D01*
X20689Y-11590D01*
X20689Y-11245D01*
X20689Y-12207D01*
X20639Y-12186D01*
X20408Y-12186D01*
X20194Y-12274D01*
X20030Y-12437D01*
X19942Y-12651D01*
X19942Y-12882D01*
X20030Y-13096D01*
X20193Y-13260D01*
X20407Y-13349D01*
X20638Y-13349D01*
X20852Y-13260D01*
X21016Y-13097D01*
X21105Y-12883D01*
X21105Y-12652D01*
X21105Y-16288D01*
X19172Y-16288D01*
X19172Y-13030D01*
X19104Y-12866D01*
X18980Y-12741D01*
X18817Y-12674D01*
X18697Y-12674D01*
X18702Y-12669D01*
X18770Y-12506D01*
X18770Y-12329D01*
X18703Y-12166D01*
X18578Y-12041D01*
X18415Y-11973D01*
X18238Y-11973D01*
X18075Y-12040D01*
X17994Y-12122D01*
X17993Y-12119D01*
X17978Y-12097D01*
X17879Y-12074D01*
X17866Y-12087D01*
X17866Y-12061D01*
X17843Y-11962D01*
X17644Y-11874D01*
X17427Y-11869D01*
X17225Y-11947D01*
X17204Y-11962D01*
X17180Y-12061D01*
X17523Y-12404D01*
X17866Y-12061D01*
X17866Y-12087D01*
X17536Y-12417D01*
X17541Y-12422D01*
X17529Y-12435D01*
X17523Y-12430D01*
X17518Y-12435D01*
X17505Y-12422D01*
X17510Y-12417D01*
X17168Y-12074D01*
X17068Y-12097D01*
X17056Y-12125D01*
X16972Y-12041D01*
X16809Y-11973D01*
X16632Y-11973D01*
X16469Y-12040D01*
X16387Y-12122D01*
X16386Y-12119D01*
X16372Y-12097D01*
X16272Y-12074D01*
X16259Y-12087D01*
X16259Y-12061D01*
X16236Y-11962D01*
X16038Y-11874D01*
X15821Y-11869D01*
X15689Y-11920D01*
X15689Y-11245D01*
X15558Y-10926D01*
X15314Y-10682D01*
X14996Y-10550D01*
X14651Y-10550D01*
X14332Y-10681D01*
X14088Y-10925D01*
X13956Y-11244D01*
X13955Y-11589D01*
X14087Y-11907D01*
X14331Y-12151D01*
X14649Y-12284D01*
X14994Y-12284D01*
X15313Y-12152D01*
X15557Y-11909D01*
X15689Y-11590D01*
X15689Y-11245D01*
X15689Y-11920D01*
X15619Y-11947D01*
X15597Y-11962D01*
X15574Y-12061D01*
X15917Y-12404D01*
X16259Y-12061D01*
X16259Y-12087D01*
X15930Y-12417D01*
X15935Y-12422D01*
X15922Y-12435D01*
X15917Y-12430D01*
X15904Y-12442D01*
X15904Y-12417D01*
X15561Y-12074D01*
X15462Y-12097D01*
X15374Y-12296D01*
X15369Y-12513D01*
X15447Y-12715D01*
X15462Y-12736D01*
X15561Y-12759D01*
X15904Y-12417D01*
X15904Y-12442D01*
X15574Y-12772D01*
X15597Y-12872D01*
X15796Y-12960D01*
X15902Y-12962D01*
X15875Y-13029D01*
X15874Y-13206D01*
X15942Y-13369D01*
X16067Y-13494D01*
X16230Y-13561D01*
X16406Y-13562D01*
X16570Y-13494D01*
X16695Y-13369D01*
X16720Y-13308D01*
X16745Y-13369D01*
X16870Y-13494D01*
X17033Y-13561D01*
X17209Y-13562D01*
X17373Y-13494D01*
X17498Y-13369D01*
X17523Y-13308D01*
X17548Y-13369D01*
X17673Y-13494D01*
X17836Y-13561D01*
X18013Y-13562D01*
X18176Y-13494D01*
X18301Y-13369D01*
X18326Y-13308D01*
X18351Y-13369D01*
X18476Y-13494D01*
X18639Y-13561D01*
X18816Y-13562D01*
X18979Y-13494D01*
X19104Y-13369D01*
X19172Y-13206D01*
X19172Y-13030D01*
X19172Y-16288D01*
X18483Y-16288D01*
X14703Y-20068D01*
X14703Y-12652D01*
X14615Y-12438D01*
X14451Y-12275D01*
X14238Y-12186D01*
X14006Y-12186D01*
X13793Y-12274D01*
X13629Y-12437D01*
X13540Y-12651D01*
X13540Y-12882D01*
X13628Y-13096D01*
X13792Y-13260D01*
X14005Y-13349D01*
X14237Y-13349D01*
X14451Y-13260D01*
X14614Y-13097D01*
X14703Y-12883D01*
X14703Y-12652D01*
X14703Y-20068D01*
X14516Y-20254D01*
X14516Y-26524D01*
X13743Y-26524D01*
X13743Y-25424D01*
X13654Y-25210D01*
X13491Y-25046D01*
X13277Y-24957D01*
X13046Y-24957D01*
X12832Y-25046D01*
X12747Y-25131D01*
X12747Y-10760D01*
X12545Y-10271D01*
X12171Y-9897D01*
X11682Y-9694D01*
X11154Y-9693D01*
X10665Y-9895D01*
X10290Y-10269D01*
X10088Y-10758D01*
X10087Y-11286D01*
X10289Y-11775D01*
X10663Y-12150D01*
X11151Y-12352D01*
X11680Y-12353D01*
X12169Y-12151D01*
X12543Y-11777D01*
X12746Y-11289D01*
X12747Y-10760D01*
X12747Y-25131D01*
X12668Y-25209D01*
X12580Y-25423D01*
X12579Y-25654D01*
X12668Y-25868D01*
X12831Y-26032D01*
X13045Y-26120D01*
X13276Y-26120D01*
X13490Y-26032D01*
X13654Y-25869D01*
X13742Y-25655D01*
X13743Y-25424D01*
X13743Y-26524D01*
X12631Y-26524D01*
X12677Y-26413D01*
X12678Y-26068D01*
X12546Y-25749D01*
X12302Y-25505D01*
X11984Y-25373D01*
X11639Y-25373D01*
X11320Y-25504D01*
X11076Y-25748D01*
X10944Y-26066D01*
X10943Y-26411D01*
X10990Y-26524D01*
X9616Y-26524D01*
X9616Y-9223D01*
X48650Y-9223D01*
X48650Y-48257D01*
X48650Y-48257D01*
G37*
G54D21*
X48650Y-48257D02*
X48180Y-48257D01*
X48180Y-46193D01*
X48180Y-10760D01*
X47978Y-10271D01*
X47604Y-9897D01*
X47116Y-9694D01*
X46587Y-9693D01*
X46098Y-9895D01*
X45723Y-10269D01*
X45521Y-10758D01*
X45520Y-11286D01*
X45722Y-11775D01*
X46096Y-12150D01*
X46584Y-12352D01*
X47113Y-12353D01*
X47602Y-12151D01*
X47976Y-11777D01*
X48179Y-11289D01*
X48180Y-10760D01*
X48180Y-46193D01*
X47978Y-45704D01*
X47604Y-45330D01*
X47323Y-45213D01*
X47323Y-31068D01*
X47192Y-30749D01*
X46948Y-30505D01*
X46629Y-30373D01*
X46285Y-30373D01*
X46004Y-30488D01*
X46004Y-28845D01*
X46004Y-27238D01*
X45926Y-27036D01*
X45911Y-27015D01*
X45812Y-26992D01*
X45469Y-27334D01*
X45812Y-27677D01*
X45911Y-27654D01*
X45999Y-27455D01*
X46004Y-27238D01*
X46004Y-28845D01*
X45926Y-28642D01*
X45911Y-28621D01*
X45812Y-28598D01*
X45469Y-28940D01*
X45812Y-29283D01*
X45911Y-29260D01*
X45999Y-29061D01*
X46004Y-28845D01*
X46004Y-30488D01*
X45966Y-30504D01*
X45722Y-30748D01*
X45589Y-31066D01*
X45589Y-31411D01*
X45721Y-31730D01*
X45964Y-31974D01*
X46283Y-32106D01*
X46628Y-32107D01*
X46947Y-31975D01*
X47191Y-31731D01*
X47323Y-31413D01*
X47323Y-31068D01*
X47323Y-45213D01*
X47116Y-45127D01*
X46587Y-45126D01*
X46098Y-45328D01*
X45723Y-45702D01*
X45687Y-45789D01*
X45687Y-31825D01*
X45599Y-31611D01*
X45436Y-31448D01*
X45222Y-31359D01*
X44991Y-31359D01*
X44777Y-31447D01*
X44613Y-31611D01*
X44524Y-31824D01*
X44524Y-32056D01*
X44613Y-32269D01*
X44776Y-32433D01*
X44990Y-32522D01*
X45221Y-32522D01*
X45435Y-32434D01*
X45598Y-32270D01*
X45687Y-32057D01*
X45687Y-31825D01*
X45687Y-45789D01*
X45521Y-46191D01*
X45520Y-46719D01*
X45722Y-47208D01*
X46096Y-47583D01*
X46584Y-47785D01*
X47113Y-47786D01*
X47602Y-47584D01*
X47976Y-47210D01*
X48179Y-46722D01*
X48180Y-46193D01*
X48180Y-48257D01*
X44679Y-48257D01*
X44679Y-45968D01*
X44606Y-45792D01*
X44472Y-45657D01*
X44296Y-45584D01*
X44106Y-45584D01*
X43930Y-45657D01*
X43795Y-45791D01*
X43722Y-45967D01*
X43722Y-46157D01*
X43794Y-46333D01*
X43929Y-46468D01*
X44105Y-46541D01*
X44295Y-46541D01*
X44471Y-46468D01*
X44606Y-46334D01*
X44679Y-46158D01*
X44679Y-45968D01*
X44679Y-48257D01*
X43679Y-48257D01*
X43679Y-45968D01*
X43606Y-45792D01*
X43472Y-45657D01*
X43296Y-45584D01*
X43106Y-45584D01*
X42930Y-45657D01*
X42795Y-45791D01*
X42722Y-45967D01*
X42722Y-46157D01*
X42794Y-46333D01*
X42929Y-46468D01*
X43105Y-46541D01*
X43295Y-46541D01*
X43471Y-46468D01*
X43606Y-46334D01*
X43679Y-46158D01*
X43679Y-45968D01*
X43679Y-48257D01*
X41923Y-48257D01*
X41923Y-45968D01*
X41850Y-45792D01*
X41716Y-45657D01*
X41540Y-45584D01*
X41350Y-45584D01*
X41174Y-45657D01*
X41039Y-45791D01*
X40966Y-45967D01*
X40966Y-46157D01*
X41039Y-46333D01*
X41173Y-46468D01*
X41349Y-46541D01*
X41539Y-46541D01*
X41715Y-46468D01*
X41850Y-46334D01*
X41923Y-46158D01*
X41923Y-45968D01*
X41923Y-48257D01*
X40923Y-48257D01*
X40923Y-45968D01*
X40850Y-45792D01*
X40716Y-45657D01*
X40540Y-45584D01*
X40350Y-45584D01*
X40174Y-45657D01*
X40039Y-45791D01*
X39966Y-45967D01*
X39966Y-46157D01*
X40039Y-46333D01*
X40173Y-46468D01*
X40349Y-46541D01*
X40539Y-46541D01*
X40715Y-46468D01*
X40850Y-46334D01*
X40923Y-46158D01*
X40923Y-45968D01*
X40923Y-48257D01*
X39167Y-48257D01*
X39167Y-45968D01*
X39094Y-45792D01*
X38960Y-45657D01*
X38784Y-45584D01*
X38594Y-45584D01*
X38418Y-45657D01*
X38283Y-45791D01*
X38210Y-45967D01*
X38210Y-46157D01*
X38283Y-46333D01*
X38417Y-46468D01*
X38593Y-46541D01*
X38783Y-46541D01*
X38959Y-46468D01*
X39094Y-46334D01*
X39167Y-46158D01*
X39167Y-45968D01*
X39167Y-48257D01*
X38167Y-48257D01*
X38167Y-45968D01*
X38094Y-45792D01*
X37960Y-45657D01*
X37784Y-45584D01*
X37594Y-45584D01*
X37418Y-45657D01*
X37283Y-45791D01*
X37210Y-45967D01*
X37210Y-46157D01*
X37283Y-46333D01*
X37417Y-46468D01*
X37593Y-46541D01*
X37783Y-46541D01*
X37959Y-46468D01*
X38094Y-46334D01*
X38167Y-46158D01*
X38167Y-45968D01*
X38167Y-48257D01*
X36411Y-48257D01*
X36411Y-45968D01*
X36338Y-45792D01*
X36204Y-45657D01*
X36028Y-45584D01*
X35838Y-45584D01*
X35662Y-45657D01*
X35527Y-45791D01*
X35454Y-45967D01*
X35454Y-46157D01*
X35527Y-46333D01*
X35661Y-46468D01*
X35837Y-46541D01*
X36027Y-46541D01*
X36203Y-46468D01*
X36338Y-46334D01*
X36411Y-46158D01*
X36411Y-45968D01*
X36411Y-48257D01*
X35411Y-48257D01*
X35411Y-45968D01*
X35338Y-45792D01*
X35204Y-45657D01*
X35028Y-45584D01*
X34838Y-45584D01*
X34662Y-45657D01*
X34527Y-45791D01*
X34454Y-45967D01*
X34454Y-46157D01*
X34527Y-46333D01*
X34661Y-46468D01*
X34837Y-46541D01*
X35027Y-46541D01*
X35203Y-46468D01*
X35338Y-46334D01*
X35411Y-46158D01*
X35411Y-45968D01*
X35411Y-48257D01*
X32916Y-48257D01*
X32916Y-44597D01*
X32827Y-44383D01*
X32664Y-44219D01*
X32450Y-44131D01*
X32219Y-44131D01*
X32005Y-44219D01*
X31841Y-44382D01*
X31753Y-44596D01*
X31753Y-44827D01*
X31841Y-45041D01*
X32004Y-45205D01*
X32218Y-45293D01*
X32449Y-45294D01*
X32663Y-45205D01*
X32827Y-45042D01*
X32916Y-44828D01*
X32916Y-44597D01*
X32916Y-48257D01*
X32500Y-48257D01*
X32500Y-45891D01*
X32369Y-45572D01*
X32125Y-45328D01*
X31807Y-45196D01*
X31462Y-45195D01*
X31143Y-45327D01*
X31087Y-45383D01*
X31087Y-44967D01*
X31008Y-44764D01*
X30994Y-44743D01*
X30894Y-44720D01*
X30552Y-45062D01*
X30894Y-45405D01*
X30994Y-45382D01*
X31082Y-45184D01*
X31087Y-44967D01*
X31087Y-45383D01*
X30899Y-45571D01*
X30881Y-45613D01*
X30881Y-45418D01*
X30539Y-45075D01*
X30196Y-45418D01*
X30219Y-45518D01*
X30418Y-45605D01*
X30635Y-45610D01*
X30837Y-45532D01*
X30858Y-45518D01*
X30881Y-45418D01*
X30881Y-45613D01*
X30767Y-45889D01*
X30766Y-46234D01*
X30898Y-46553D01*
X31142Y-46797D01*
X31460Y-46929D01*
X31805Y-46930D01*
X32124Y-46798D01*
X32368Y-46554D01*
X32500Y-46236D01*
X32500Y-45891D01*
X32500Y-48257D01*
X29275Y-48257D01*
X29275Y-45418D01*
X28933Y-45075D01*
X28590Y-45418D01*
X28613Y-45518D01*
X28812Y-45605D01*
X29029Y-45610D01*
X29231Y-45532D01*
X29252Y-45518D01*
X29275Y-45418D01*
X29275Y-48257D01*
X27500Y-48257D01*
X27500Y-45891D01*
X27369Y-45572D01*
X27125Y-45328D01*
X26807Y-45196D01*
X26514Y-45195D01*
X26514Y-44597D01*
X26426Y-44383D01*
X26262Y-44219D01*
X26049Y-44131D01*
X25817Y-44131D01*
X25604Y-44219D01*
X25440Y-44382D01*
X25351Y-44596D01*
X25351Y-44827D01*
X25439Y-45041D01*
X25603Y-45205D01*
X25816Y-45293D01*
X26048Y-45294D01*
X26262Y-45205D01*
X26425Y-45042D01*
X26514Y-44828D01*
X26514Y-44597D01*
X26514Y-45195D01*
X26462Y-45195D01*
X26143Y-45327D01*
X25899Y-45571D01*
X25767Y-45889D01*
X25766Y-46234D01*
X25898Y-46553D01*
X26142Y-46797D01*
X26460Y-46929D01*
X26805Y-46930D01*
X27124Y-46798D01*
X27368Y-46554D01*
X27500Y-46236D01*
X27500Y-45891D01*
X27500Y-48257D01*
X13743Y-48257D01*
X13743Y-31825D01*
X13654Y-31611D01*
X13491Y-31448D01*
X13277Y-31359D01*
X13153Y-31359D01*
X13153Y-30501D01*
X12811Y-30158D01*
X12798Y-30171D01*
X12798Y-30145D01*
X12455Y-29803D01*
X12355Y-29826D01*
X12268Y-30024D01*
X12263Y-30241D01*
X12341Y-30443D01*
X12355Y-30465D01*
X12455Y-30488D01*
X12798Y-30145D01*
X12798Y-30171D01*
X12468Y-30501D01*
X12491Y-30600D01*
X12690Y-30688D01*
X12906Y-30693D01*
X13109Y-30615D01*
X13130Y-30600D01*
X13153Y-30501D01*
X13153Y-31359D01*
X13046Y-31359D01*
X12832Y-31447D01*
X12678Y-31601D01*
X12678Y-31068D01*
X12546Y-30749D01*
X12302Y-30505D01*
X11984Y-30373D01*
X11639Y-30373D01*
X11320Y-30504D01*
X11076Y-30748D01*
X10944Y-31066D01*
X10943Y-31411D01*
X11075Y-31730D01*
X11319Y-31974D01*
X11637Y-32106D01*
X11982Y-32107D01*
X12301Y-31975D01*
X12545Y-31731D01*
X12677Y-31413D01*
X12678Y-31068D01*
X12678Y-31601D01*
X12668Y-31611D01*
X12580Y-31824D01*
X12579Y-32056D01*
X12668Y-32269D01*
X12831Y-32433D01*
X13045Y-32522D01*
X13276Y-32522D01*
X13490Y-32434D01*
X13654Y-32270D01*
X13742Y-32057D01*
X13743Y-31825D01*
X13743Y-48257D01*
X12747Y-48257D01*
X12747Y-46193D01*
X12545Y-45704D01*
X12171Y-45330D01*
X11682Y-45127D01*
X11154Y-45126D01*
X10665Y-45328D01*
X10290Y-45702D01*
X10088Y-46191D01*
X10087Y-46719D01*
X10289Y-47208D01*
X10663Y-47583D01*
X11151Y-47785D01*
X11680Y-47786D01*
X12169Y-47584D01*
X12543Y-47210D01*
X12746Y-46722D01*
X12747Y-46193D01*
X12747Y-48257D01*
X9616Y-48257D01*
X9616Y-26821D01*
X11166Y-26821D01*
X11319Y-26974D01*
X11637Y-27106D01*
X11982Y-27107D01*
X12301Y-26975D01*
X12455Y-26821D01*
X14205Y-26821D01*
X14163Y-26922D01*
X14163Y-27036D01*
X14207Y-27141D01*
X14212Y-27146D01*
X13914Y-27146D01*
X13888Y-27083D01*
X13763Y-26958D01*
X13600Y-26890D01*
X13423Y-26890D01*
X13260Y-26958D01*
X13135Y-27082D01*
X13067Y-27245D01*
X13067Y-27365D01*
X13062Y-27360D01*
X12899Y-27292D01*
X12723Y-27292D01*
X12559Y-27359D01*
X12434Y-27484D01*
X12367Y-27647D01*
X12367Y-27824D01*
X12434Y-27987D01*
X12515Y-28068D01*
X12512Y-28069D01*
X12491Y-28084D01*
X12468Y-28183D01*
X12811Y-28526D01*
X12816Y-28520D01*
X12829Y-28533D01*
X12823Y-28539D01*
X12829Y-28544D01*
X12816Y-28557D01*
X12811Y-28552D01*
X12798Y-28564D01*
X12798Y-28539D01*
X12455Y-28196D01*
X12355Y-28219D01*
X12268Y-28418D01*
X12263Y-28635D01*
X12341Y-28837D01*
X12355Y-28858D01*
X12455Y-28881D01*
X12798Y-28539D01*
X12798Y-28564D01*
X12468Y-28894D01*
X12491Y-28994D01*
X12519Y-29006D01*
X12434Y-29090D01*
X12367Y-29253D01*
X12367Y-29430D01*
X12434Y-29593D01*
X12515Y-29675D01*
X12512Y-29676D01*
X12491Y-29690D01*
X12468Y-29790D01*
X12811Y-30132D01*
X12816Y-30127D01*
X12829Y-30140D01*
X12823Y-30145D01*
X13166Y-30488D01*
X13266Y-30465D01*
X13353Y-30266D01*
X13356Y-30160D01*
X13423Y-30187D01*
X13599Y-30188D01*
X13762Y-30120D01*
X13887Y-29995D01*
X13955Y-29832D01*
X13955Y-29656D01*
X13888Y-29492D01*
X13763Y-29367D01*
X13702Y-29342D01*
X13762Y-29317D01*
X13887Y-29192D01*
X13955Y-29029D01*
X13955Y-28853D01*
X13888Y-28689D01*
X13763Y-28564D01*
X13702Y-28539D01*
X13762Y-28514D01*
X13887Y-28389D01*
X13955Y-28226D01*
X13955Y-28049D01*
X13888Y-27886D01*
X13763Y-27761D01*
X13702Y-27736D01*
X13762Y-27711D01*
X13887Y-27586D01*
X13914Y-27522D01*
X15050Y-27522D01*
X21012Y-33485D01*
X21012Y-39784D01*
X24388Y-43160D01*
X27540Y-43160D01*
X27540Y-43959D01*
X27477Y-43985D01*
X27352Y-44110D01*
X27284Y-44273D01*
X27284Y-44450D01*
X27351Y-44613D01*
X27476Y-44738D01*
X27639Y-44806D01*
X27758Y-44806D01*
X27753Y-44811D01*
X27686Y-44974D01*
X27685Y-45150D01*
X27753Y-45314D01*
X27878Y-45439D01*
X28041Y-45506D01*
X28217Y-45506D01*
X28381Y-45439D01*
X28462Y-45358D01*
X28463Y-45361D01*
X28477Y-45382D01*
X28577Y-45405D01*
X28920Y-45062D01*
X28914Y-45057D01*
X28927Y-45044D01*
X28933Y-45050D01*
X28938Y-45044D01*
X28951Y-45057D01*
X28945Y-45062D01*
X29288Y-45405D01*
X29388Y-45382D01*
X29400Y-45354D01*
X29484Y-45439D01*
X29647Y-45506D01*
X29824Y-45506D01*
X29987Y-45439D01*
X30068Y-45358D01*
X30069Y-45361D01*
X30084Y-45382D01*
X30183Y-45405D01*
X30526Y-45062D01*
X30520Y-45057D01*
X30533Y-45044D01*
X30539Y-45050D01*
X30881Y-44707D01*
X30858Y-44607D01*
X30660Y-44520D01*
X30553Y-44517D01*
X30581Y-44450D01*
X30581Y-44274D01*
X30514Y-44111D01*
X30389Y-43986D01*
X30325Y-43959D01*
X30325Y-42579D01*
X33317Y-39587D01*
X33317Y-34666D01*
X36438Y-31546D01*
X42934Y-31546D01*
X42987Y-31492D01*
X43585Y-31492D01*
X43656Y-31478D01*
X43717Y-31437D01*
X44595Y-30559D01*
X44667Y-30589D01*
X44843Y-30589D01*
X45007Y-30522D01*
X45132Y-30397D01*
X45199Y-30234D01*
X45199Y-30115D01*
X45204Y-30120D01*
X45368Y-30187D01*
X45544Y-30188D01*
X45707Y-30120D01*
X45832Y-29995D01*
X45900Y-29832D01*
X45900Y-29656D01*
X45833Y-29492D01*
X45751Y-29411D01*
X45754Y-29410D01*
X45776Y-29396D01*
X45799Y-29296D01*
X45456Y-28953D01*
X45451Y-28959D01*
X45438Y-28946D01*
X45443Y-28940D01*
X45438Y-28935D01*
X45451Y-28922D01*
X45456Y-28928D01*
X45799Y-28585D01*
X45776Y-28485D01*
X45748Y-28473D01*
X45832Y-28389D01*
X45900Y-28226D01*
X45900Y-28049D01*
X45833Y-27886D01*
X45751Y-27805D01*
X45754Y-27804D01*
X45776Y-27789D01*
X45799Y-27690D01*
X45456Y-27347D01*
X45451Y-27353D01*
X45438Y-27340D01*
X45443Y-27334D01*
X45438Y-27329D01*
X45451Y-27316D01*
X45456Y-27321D01*
X45799Y-26979D01*
X45776Y-26879D01*
X45577Y-26791D01*
X45360Y-26786D01*
X45312Y-26805D01*
X45623Y-26494D01*
X45721Y-26730D01*
X45964Y-26974D01*
X46283Y-27106D01*
X46628Y-27107D01*
X46947Y-26975D01*
X47191Y-26731D01*
X47323Y-26413D01*
X47323Y-26068D01*
X47192Y-25749D01*
X46948Y-25505D01*
X46710Y-25407D01*
X47476Y-24641D01*
X47687Y-24430D01*
X47687Y-19270D01*
X45114Y-16696D01*
X44727Y-16310D01*
X44727Y-12652D01*
X44638Y-12438D01*
X44475Y-12275D01*
X44311Y-12207D01*
X44311Y-11245D01*
X44180Y-10926D01*
X43936Y-10682D01*
X43618Y-10550D01*
X43273Y-10550D01*
X42954Y-10681D01*
X42710Y-10925D01*
X42578Y-11244D01*
X42577Y-11589D01*
X42709Y-11907D01*
X42953Y-12151D01*
X43271Y-12284D01*
X43616Y-12284D01*
X43935Y-12152D01*
X44179Y-11909D01*
X44311Y-11590D01*
X44311Y-11245D01*
X44311Y-12207D01*
X44261Y-12186D01*
X44030Y-12186D01*
X43816Y-12274D01*
X43652Y-12437D01*
X43564Y-12651D01*
X43564Y-12882D01*
X43652Y-13096D01*
X43815Y-13260D01*
X44029Y-13349D01*
X44260Y-13349D01*
X44474Y-13260D01*
X44638Y-13097D01*
X44727Y-12883D01*
X44727Y-12652D01*
X44727Y-16310D01*
X44705Y-16288D01*
X42794Y-16288D01*
X42794Y-13030D01*
X42726Y-12866D01*
X42602Y-12741D01*
X42439Y-12674D01*
X42319Y-12674D01*
X42324Y-12669D01*
X42392Y-12506D01*
X42392Y-12329D01*
X42325Y-12166D01*
X42200Y-12041D01*
X42037Y-11973D01*
X41860Y-11973D01*
X41697Y-12040D01*
X41616Y-12122D01*
X41615Y-12119D01*
X41600Y-12097D01*
X41501Y-12074D01*
X41488Y-12087D01*
X41488Y-12061D01*
X41465Y-11962D01*
X41266Y-11874D01*
X41049Y-11869D01*
X40847Y-11947D01*
X40826Y-11962D01*
X40803Y-12061D01*
X41145Y-12404D01*
X41488Y-12061D01*
X41488Y-12087D01*
X41158Y-12417D01*
X41164Y-12422D01*
X41151Y-12435D01*
X41145Y-12430D01*
X41140Y-12435D01*
X41127Y-12422D01*
X41132Y-12417D01*
X40790Y-12074D01*
X40690Y-12097D01*
X40678Y-12125D01*
X40594Y-12041D01*
X40431Y-11973D01*
X40254Y-11973D01*
X40091Y-12040D01*
X40009Y-12122D01*
X40008Y-12119D01*
X39994Y-12097D01*
X39894Y-12074D01*
X39881Y-12087D01*
X39881Y-12061D01*
X39858Y-11962D01*
X39660Y-11874D01*
X39443Y-11869D01*
X39311Y-11920D01*
X39311Y-11245D01*
X39180Y-10926D01*
X38936Y-10682D01*
X38618Y-10550D01*
X38273Y-10550D01*
X37954Y-10681D01*
X37710Y-10925D01*
X37578Y-11244D01*
X37577Y-11589D01*
X37709Y-11907D01*
X37953Y-12151D01*
X38271Y-12284D01*
X38616Y-12284D01*
X38935Y-12152D01*
X39179Y-11909D01*
X39311Y-11590D01*
X39311Y-11245D01*
X39311Y-11920D01*
X39241Y-11947D01*
X39219Y-11962D01*
X39196Y-12061D01*
X39539Y-12404D01*
X39881Y-12061D01*
X39881Y-12087D01*
X39552Y-12417D01*
X39557Y-12422D01*
X39544Y-12435D01*
X39539Y-12430D01*
X39526Y-12442D01*
X39526Y-12417D01*
X39183Y-12074D01*
X39084Y-12097D01*
X38996Y-12296D01*
X38991Y-12513D01*
X39069Y-12715D01*
X39084Y-12736D01*
X39183Y-12759D01*
X39526Y-12417D01*
X39526Y-12442D01*
X39196Y-12772D01*
X39219Y-12872D01*
X39418Y-12960D01*
X39524Y-12962D01*
X39497Y-13029D01*
X39496Y-13206D01*
X39564Y-13369D01*
X39689Y-13494D01*
X39852Y-13561D01*
X40028Y-13562D01*
X40192Y-13494D01*
X40317Y-13369D01*
X40342Y-13308D01*
X40367Y-13369D01*
X40492Y-13494D01*
X40655Y-13561D01*
X40832Y-13562D01*
X40995Y-13494D01*
X41120Y-13369D01*
X41145Y-13308D01*
X41170Y-13369D01*
X41295Y-13494D01*
X41458Y-13561D01*
X41635Y-13562D01*
X41798Y-13494D01*
X41923Y-13369D01*
X41948Y-13308D01*
X41973Y-13369D01*
X42098Y-13494D01*
X42261Y-13561D01*
X42438Y-13562D01*
X42601Y-13494D01*
X42726Y-13369D01*
X42794Y-13206D01*
X42794Y-13030D01*
X42794Y-16288D01*
X38325Y-16288D01*
X38325Y-12652D01*
X38237Y-12438D01*
X38073Y-12275D01*
X37860Y-12186D01*
X37628Y-12186D01*
X37415Y-12274D01*
X37251Y-12437D01*
X37162Y-12651D01*
X37162Y-12882D01*
X37250Y-13096D01*
X37414Y-13260D01*
X37627Y-13349D01*
X37859Y-13349D01*
X38073Y-13260D01*
X38236Y-13097D01*
X38325Y-12883D01*
X38325Y-12652D01*
X38325Y-16288D01*
X36853Y-16288D01*
X36853Y-12652D01*
X36764Y-12438D01*
X36601Y-12275D01*
X36437Y-12207D01*
X36437Y-11245D01*
X36306Y-10926D01*
X36062Y-10682D01*
X35744Y-10550D01*
X35399Y-10550D01*
X35080Y-10681D01*
X34836Y-10925D01*
X34704Y-11244D01*
X34703Y-11589D01*
X34835Y-11907D01*
X35079Y-12151D01*
X35397Y-12284D01*
X35742Y-12284D01*
X36061Y-12152D01*
X36305Y-11909D01*
X36437Y-11590D01*
X36437Y-11245D01*
X36437Y-12207D01*
X36387Y-12186D01*
X36156Y-12186D01*
X35942Y-12274D01*
X35778Y-12437D01*
X35690Y-12651D01*
X35690Y-12882D01*
X35778Y-13096D01*
X35941Y-13260D01*
X36155Y-13349D01*
X36386Y-13349D01*
X36600Y-13260D01*
X36764Y-13097D01*
X36853Y-12883D01*
X36853Y-12652D01*
X36853Y-16288D01*
X34920Y-16288D01*
X34920Y-13030D01*
X34852Y-12866D01*
X34728Y-12741D01*
X34565Y-12674D01*
X34445Y-12674D01*
X34450Y-12669D01*
X34518Y-12506D01*
X34518Y-12329D01*
X34451Y-12166D01*
X34326Y-12041D01*
X34163Y-11973D01*
X33986Y-11973D01*
X33823Y-12040D01*
X33742Y-12122D01*
X33741Y-12119D01*
X33726Y-12097D01*
X33627Y-12074D01*
X33614Y-12087D01*
X33614Y-12061D01*
X33591Y-11962D01*
X33392Y-11874D01*
X33175Y-11869D01*
X32973Y-11947D01*
X32952Y-11962D01*
X32929Y-12061D01*
X33271Y-12404D01*
X33614Y-12061D01*
X33614Y-12087D01*
X33284Y-12417D01*
X33290Y-12422D01*
X33277Y-12435D01*
X33271Y-12430D01*
X33266Y-12435D01*
X33253Y-12422D01*
X33258Y-12417D01*
X32916Y-12074D01*
X32816Y-12097D01*
X32804Y-12125D01*
X32720Y-12041D01*
X32557Y-11973D01*
X32380Y-11973D01*
X32217Y-12040D01*
X32135Y-12122D01*
X32134Y-12119D01*
X32120Y-12097D01*
X32020Y-12074D01*
X32007Y-12087D01*
X32007Y-12061D01*
X31984Y-11962D01*
X31786Y-11874D01*
X31569Y-11869D01*
X31437Y-11920D01*
X31437Y-11245D01*
X31306Y-10926D01*
X31062Y-10682D01*
X30744Y-10550D01*
X30399Y-10550D01*
X30080Y-10681D01*
X29836Y-10925D01*
X29704Y-11244D01*
X29703Y-11589D01*
X29835Y-11907D01*
X30079Y-12151D01*
X30397Y-12284D01*
X30742Y-12284D01*
X31061Y-12152D01*
X31305Y-11909D01*
X31437Y-11590D01*
X31437Y-11245D01*
X31437Y-11920D01*
X31367Y-11947D01*
X31345Y-11962D01*
X31322Y-12061D01*
X31665Y-12404D01*
X32007Y-12061D01*
X32007Y-12087D01*
X31678Y-12417D01*
X31683Y-12422D01*
X31670Y-12435D01*
X31665Y-12430D01*
X31652Y-12442D01*
X31652Y-12417D01*
X31309Y-12074D01*
X31210Y-12097D01*
X31122Y-12296D01*
X31117Y-12513D01*
X31195Y-12715D01*
X31210Y-12736D01*
X31309Y-12759D01*
X31652Y-12417D01*
X31652Y-12442D01*
X31322Y-12772D01*
X31345Y-12872D01*
X31544Y-12960D01*
X31650Y-12962D01*
X31623Y-13029D01*
X31622Y-13206D01*
X31690Y-13369D01*
X31815Y-13494D01*
X31978Y-13561D01*
X32154Y-13562D01*
X32318Y-13494D01*
X32443Y-13369D01*
X32468Y-13308D01*
X32493Y-13369D01*
X32618Y-13494D01*
X32781Y-13561D01*
X32957Y-13562D01*
X33121Y-13494D01*
X33246Y-13369D01*
X33271Y-13308D01*
X33296Y-13369D01*
X33421Y-13494D01*
X33584Y-13561D01*
X33761Y-13562D01*
X33924Y-13494D01*
X34049Y-13369D01*
X34074Y-13308D01*
X34099Y-13369D01*
X34224Y-13494D01*
X34387Y-13561D01*
X34564Y-13562D01*
X34727Y-13494D01*
X34852Y-13369D01*
X34920Y-13206D01*
X34920Y-13030D01*
X34920Y-16288D01*
X30451Y-16288D01*
X30451Y-12652D01*
X30363Y-12438D01*
X30199Y-12275D01*
X29986Y-12186D01*
X29754Y-12186D01*
X29541Y-12274D01*
X29377Y-12437D01*
X29288Y-12651D01*
X29288Y-12882D01*
X29376Y-13096D01*
X29540Y-13260D01*
X29753Y-13349D01*
X29985Y-13349D01*
X30199Y-13260D01*
X30362Y-13097D01*
X30451Y-12883D01*
X30451Y-12652D01*
X30451Y-16288D01*
X28979Y-16288D01*
X28979Y-12652D01*
X28890Y-12438D01*
X28727Y-12275D01*
X28563Y-12207D01*
X28563Y-11245D01*
X28432Y-10926D01*
X28188Y-10682D01*
X27870Y-10550D01*
X27525Y-10550D01*
X27206Y-10681D01*
X26962Y-10925D01*
X26830Y-11244D01*
X26829Y-11589D01*
X26961Y-11907D01*
X27205Y-12151D01*
X27523Y-12284D01*
X27868Y-12284D01*
X28187Y-12152D01*
X28431Y-11909D01*
X28563Y-11590D01*
X28563Y-11245D01*
X28563Y-12207D01*
X28513Y-12186D01*
X28282Y-12186D01*
X28068Y-12274D01*
X27904Y-12437D01*
X27816Y-12651D01*
X27816Y-12882D01*
X27904Y-13096D01*
X28067Y-13260D01*
X28281Y-13349D01*
X28512Y-13349D01*
X28726Y-13260D01*
X28890Y-13097D01*
X28979Y-12883D01*
X28979Y-12652D01*
X28979Y-16288D01*
X27046Y-16288D01*
X27046Y-13030D01*
X26978Y-12866D01*
X26854Y-12741D01*
X26691Y-12674D01*
X26571Y-12674D01*
X26576Y-12669D01*
X26644Y-12506D01*
X26644Y-12329D01*
X26577Y-12166D01*
X26452Y-12041D01*
X26289Y-11973D01*
X26112Y-11973D01*
X25949Y-12040D01*
X25868Y-12122D01*
X25867Y-12119D01*
X25852Y-12097D01*
X25753Y-12074D01*
X25740Y-12087D01*
X25740Y-12061D01*
X25717Y-11962D01*
X25518Y-11874D01*
X25301Y-11869D01*
X25099Y-11947D01*
X25078Y-11962D01*
X25055Y-12061D01*
X25397Y-12404D01*
X25740Y-12061D01*
X25740Y-12087D01*
X25410Y-12417D01*
X25416Y-12422D01*
X25403Y-12435D01*
X25397Y-12430D01*
X25392Y-12435D01*
X25379Y-12422D01*
X25384Y-12417D01*
X25042Y-12074D01*
X24942Y-12097D01*
X24930Y-12125D01*
X24846Y-12041D01*
X24683Y-11973D01*
X24506Y-11973D01*
X24343Y-12040D01*
X24261Y-12122D01*
X24260Y-12119D01*
X24246Y-12097D01*
X24146Y-12074D01*
X24133Y-12087D01*
X24133Y-12061D01*
X24110Y-11962D01*
X23912Y-11874D01*
X23695Y-11869D01*
X23563Y-11920D01*
X23563Y-11245D01*
X23432Y-10926D01*
X23188Y-10682D01*
X22870Y-10550D01*
X22525Y-10550D01*
X22206Y-10681D01*
X21962Y-10925D01*
X21830Y-11244D01*
X21829Y-11589D01*
X21961Y-11907D01*
X22205Y-12151D01*
X22523Y-12284D01*
X22868Y-12284D01*
X23187Y-12152D01*
X23431Y-11909D01*
X23563Y-11590D01*
X23563Y-11245D01*
X23563Y-11920D01*
X23493Y-11947D01*
X23471Y-11962D01*
X23448Y-12061D01*
X23791Y-12404D01*
X24133Y-12061D01*
X24133Y-12087D01*
X23804Y-12417D01*
X23809Y-12422D01*
X23796Y-12435D01*
X23791Y-12430D01*
X23778Y-12442D01*
X23778Y-12417D01*
X23435Y-12074D01*
X23336Y-12097D01*
X23248Y-12296D01*
X23243Y-12513D01*
X23321Y-12715D01*
X23336Y-12736D01*
X23435Y-12759D01*
X23778Y-12417D01*
X23778Y-12442D01*
X23448Y-12772D01*
X23471Y-12872D01*
X23670Y-12960D01*
X23776Y-12962D01*
X23749Y-13029D01*
X23748Y-13206D01*
X23816Y-13369D01*
X23941Y-13494D01*
X24104Y-13561D01*
X24280Y-13562D01*
X24444Y-13494D01*
X24569Y-13369D01*
X24594Y-13308D01*
X24619Y-13369D01*
X24744Y-13494D01*
X24907Y-13561D01*
X25083Y-13562D01*
X25247Y-13494D01*
X25372Y-13369D01*
X25397Y-13308D01*
X25422Y-13369D01*
X25547Y-13494D01*
X25710Y-13561D01*
X25887Y-13562D01*
X26050Y-13494D01*
X26175Y-13369D01*
X26200Y-13308D01*
X26225Y-13369D01*
X26350Y-13494D01*
X26513Y-13561D01*
X26690Y-13562D01*
X26853Y-13494D01*
X26978Y-13369D01*
X27046Y-13206D01*
X27046Y-13030D01*
X27046Y-16288D01*
X22577Y-16288D01*
X22577Y-12652D01*
X22489Y-12438D01*
X22325Y-12275D01*
X22112Y-12186D01*
X21880Y-12186D01*
X21667Y-12274D01*
X21503Y-12437D01*
X21414Y-12651D01*
X21414Y-12882D01*
X21502Y-13096D01*
X21666Y-13260D01*
X21879Y-13349D01*
X22111Y-13349D01*
X22325Y-13260D01*
X22488Y-13097D01*
X22577Y-12883D01*
X22577Y-12652D01*
X22577Y-16288D01*
X21105Y-16288D01*
X21105Y-12652D01*
X21016Y-12438D01*
X20853Y-12275D01*
X20689Y-12207D01*
X20689Y-11245D01*
X20558Y-10926D01*
X20314Y-10682D01*
X19996Y-10550D01*
X19651Y-10550D01*
X19332Y-10681D01*
X19088Y-10925D01*
X18956Y-11244D01*
X18955Y-11589D01*
X19087Y-11907D01*
X19331Y-12151D01*
X19649Y-12284D01*
X19994Y-12284D01*
X20313Y-12152D01*
X20557Y-11909D01*
X20689Y-11590D01*
X20689Y-11245D01*
X20689Y-12207D01*
X20639Y-12186D01*
X20408Y-12186D01*
X20194Y-12274D01*
X20030Y-12437D01*
X19942Y-12651D01*
X19942Y-12882D01*
X20030Y-13096D01*
X20193Y-13260D01*
X20407Y-13349D01*
X20638Y-13349D01*
X20852Y-13260D01*
X21016Y-13097D01*
X21105Y-12883D01*
X21105Y-12652D01*
X21105Y-16288D01*
X19172Y-16288D01*
X19172Y-13030D01*
X19104Y-12866D01*
X18980Y-12741D01*
X18817Y-12674D01*
X18697Y-12674D01*
X18702Y-12669D01*
X18770Y-12506D01*
X18770Y-12329D01*
X18703Y-12166D01*
X18578Y-12041D01*
X18415Y-11973D01*
X18238Y-11973D01*
X18075Y-12040D01*
X17994Y-12122D01*
X17993Y-12119D01*
X17978Y-12097D01*
X17879Y-12074D01*
X17866Y-12087D01*
X17866Y-12061D01*
X17843Y-11962D01*
X17644Y-11874D01*
X17427Y-11869D01*
X17225Y-11947D01*
X17204Y-11962D01*
X17180Y-12061D01*
X17523Y-12404D01*
X17866Y-12061D01*
X17866Y-12087D01*
X17536Y-12417D01*
X17541Y-12422D01*
X17529Y-12435D01*
X17523Y-12430D01*
X17518Y-12435D01*
X17505Y-12422D01*
X17510Y-12417D01*
X17168Y-12074D01*
X17068Y-12097D01*
X17056Y-12125D01*
X16972Y-12041D01*
X16809Y-11973D01*
X16632Y-11973D01*
X16469Y-12040D01*
X16387Y-12122D01*
X16386Y-12119D01*
X16372Y-12097D01*
X16272Y-12074D01*
X16259Y-12087D01*
X16259Y-12061D01*
X16236Y-11962D01*
X16038Y-11874D01*
X15821Y-11869D01*
X15689Y-11920D01*
X15689Y-11245D01*
X15558Y-10926D01*
X15314Y-10682D01*
X14996Y-10550D01*
X14651Y-10550D01*
X14332Y-10681D01*
X14088Y-10925D01*
X13956Y-11244D01*
X13955Y-11589D01*
X14087Y-11907D01*
X14331Y-12151D01*
X14649Y-12284D01*
X14994Y-12284D01*
X15313Y-12152D01*
X15557Y-11909D01*
X15689Y-11590D01*
X15689Y-11245D01*
X15689Y-11920D01*
X15619Y-11947D01*
X15597Y-11962D01*
X15574Y-12061D01*
X15917Y-12404D01*
X16259Y-12061D01*
X16259Y-12087D01*
X15930Y-12417D01*
X15935Y-12422D01*
X15922Y-12435D01*
X15917Y-12430D01*
X15904Y-12442D01*
X15904Y-12417D01*
X15561Y-12074D01*
X15462Y-12097D01*
X15374Y-12296D01*
X15369Y-12513D01*
X15447Y-12715D01*
X15462Y-12736D01*
X15561Y-12759D01*
X15904Y-12417D01*
X15904Y-12442D01*
X15574Y-12772D01*
X15597Y-12872D01*
X15796Y-12960D01*
X15902Y-12962D01*
X15875Y-13029D01*
X15874Y-13206D01*
X15942Y-13369D01*
X16067Y-13494D01*
X16230Y-13561D01*
X16406Y-13562D01*
X16570Y-13494D01*
X16695Y-13369D01*
X16720Y-13308D01*
X16745Y-13369D01*
X16870Y-13494D01*
X17033Y-13561D01*
X17209Y-13562D01*
X17373Y-13494D01*
X17498Y-13369D01*
X17523Y-13308D01*
X17548Y-13369D01*
X17673Y-13494D01*
X17836Y-13561D01*
X18013Y-13562D01*
X18176Y-13494D01*
X18301Y-13369D01*
X18326Y-13308D01*
X18351Y-13369D01*
X18476Y-13494D01*
X18639Y-13561D01*
X18816Y-13562D01*
X18979Y-13494D01*
X19104Y-13369D01*
X19172Y-13206D01*
X19172Y-13030D01*
X19172Y-16288D01*
X18483Y-16288D01*
X14703Y-20068D01*
X14703Y-12652D01*
X14615Y-12438D01*
X14451Y-12275D01*
X14238Y-12186D01*
X14006Y-12186D01*
X13793Y-12274D01*
X13629Y-12437D01*
X13540Y-12651D01*
X13540Y-12882D01*
X13628Y-13096D01*
X13792Y-13260D01*
X14005Y-13349D01*
X14237Y-13349D01*
X14451Y-13260D01*
X14614Y-13097D01*
X14703Y-12883D01*
X14703Y-12652D01*
X14703Y-20068D01*
X14516Y-20254D01*
X14516Y-26524D01*
X13743Y-26524D01*
X13743Y-25424D01*
X13654Y-25210D01*
X13491Y-25046D01*
X13277Y-24957D01*
X13046Y-24957D01*
X12832Y-25046D01*
X12747Y-25131D01*
X12747Y-10760D01*
X12545Y-10271D01*
X12171Y-9897D01*
X11682Y-9694D01*
X11154Y-9693D01*
X10665Y-9895D01*
X10290Y-10269D01*
X10088Y-10758D01*
X10087Y-11286D01*
X10289Y-11775D01*
X10663Y-12150D01*
X11151Y-12352D01*
X11680Y-12353D01*
X12169Y-12151D01*
X12543Y-11777D01*
X12746Y-11289D01*
X12747Y-10760D01*
X12747Y-25131D01*
X12668Y-25209D01*
X12580Y-25423D01*
X12579Y-25654D01*
X12668Y-25868D01*
X12831Y-26032D01*
X13045Y-26120D01*
X13276Y-26120D01*
X13490Y-26032D01*
X13654Y-25869D01*
X13742Y-25655D01*
X13743Y-25424D01*
X13743Y-26524D01*
X12631Y-26524D01*
X12677Y-26413D01*
X12678Y-26068D01*
X12546Y-25749D01*
X12302Y-25505D01*
X11984Y-25373D01*
X11639Y-25373D01*
X11320Y-25504D01*
X11076Y-25748D01*
X10944Y-26066D01*
X10943Y-26411D01*
X10990Y-26524D01*
X9616Y-26524D01*
X9616Y-9223D01*
X48650Y-9223D01*
X48650Y-48257D01*
M02*
