G04 (created by PCBNEW (2013-07-07 BZR 4022)-stable) date 9/18/2013 14:01:54*
%MOIN*%
G04 Gerber Fmt 3.4, Leading zero omitted, Abs format*
%FSLAX34Y34*%
G01*
G70*
G90*
G04 APERTURE LIST*
%ADD10C,0.00590551*%
%ADD11C,0.011811*%
%ADD12R,0.05X0.025*%
%ADD13R,0.0118X0.0256*%
%ADD14C,0.23622*%
%ADD15R,0.0256X0.0118*%
%ADD16C,0.066*%
%ADD17R,0.025X0.05*%
%ADD18R,0.035X0.055*%
%ADD19C,0.1437*%
%ADD20C,0.0591*%
%ADD21C,0.0866142*%
%ADD22R,0.063X0.0276*%
%ADD23R,0.0827X0.0276*%
%ADD24R,0.1083X0.0787*%
%ADD25C,0.035*%
%ADD26C,0.0275591*%
%ADD27C,0.019685*%
%ADD28C,0.0393701*%
%ADD29C,0.00787402*%
%ADD30C,0.01*%
G04 APERTURE END LIST*
G54D10*
G54D11*
X50660Y-9457D02*
X50464Y-9457D01*
X50464Y-9766D02*
X50464Y-9176D01*
X50745Y-9176D01*
X50970Y-9710D02*
X50998Y-9738D01*
X50970Y-9766D01*
X50942Y-9738D01*
X50970Y-9710D01*
X50970Y-9766D01*
X51588Y-9710D02*
X51560Y-9738D01*
X51476Y-9766D01*
X51420Y-9766D01*
X51335Y-9738D01*
X51279Y-9682D01*
X51251Y-9625D01*
X51223Y-9513D01*
X51223Y-9429D01*
X51251Y-9316D01*
X51279Y-9260D01*
X51335Y-9204D01*
X51420Y-9176D01*
X51476Y-9176D01*
X51560Y-9204D01*
X51588Y-9232D01*
X52095Y-9372D02*
X52095Y-9766D01*
X51841Y-9372D02*
X51841Y-9682D01*
X51870Y-9738D01*
X51926Y-9766D01*
X52010Y-9766D01*
X52066Y-9738D01*
X52095Y-9710D01*
G54D12*
X32989Y-31671D03*
X32989Y-31171D03*
X32989Y-30671D03*
X32989Y-30171D03*
X32989Y-29671D03*
X32989Y-29171D03*
X32989Y-28671D03*
X32989Y-28171D03*
X30789Y-28171D03*
X30789Y-28671D03*
X30789Y-29171D03*
X30789Y-29671D03*
X30789Y-30171D03*
X30789Y-30671D03*
X30789Y-31171D03*
X30789Y-31671D03*
X27871Y-31671D03*
X27871Y-31171D03*
X27871Y-30671D03*
X27871Y-30171D03*
X27871Y-29671D03*
X27871Y-29171D03*
X27871Y-28671D03*
X27871Y-28171D03*
X25671Y-28171D03*
X25671Y-28671D03*
X25671Y-29171D03*
X25671Y-29671D03*
X25671Y-30171D03*
X25671Y-30671D03*
X25671Y-31171D03*
X25671Y-31671D03*
G54D13*
X24705Y-17157D03*
X24902Y-17157D03*
X25099Y-17157D03*
X25296Y-17157D03*
X25296Y-16704D03*
X25099Y-16704D03*
X24902Y-16704D03*
X24705Y-16704D03*
X17027Y-17157D03*
X17224Y-17157D03*
X17421Y-17157D03*
X17618Y-17157D03*
X17618Y-16704D03*
X17421Y-16704D03*
X17224Y-16704D03*
X17027Y-16704D03*
X32972Y-17157D03*
X33169Y-17157D03*
X33366Y-17157D03*
X33563Y-17157D03*
X33563Y-16704D03*
X33366Y-16704D03*
X33169Y-16704D03*
X32972Y-16704D03*
X40649Y-17157D03*
X40846Y-17157D03*
X41043Y-17157D03*
X41240Y-17157D03*
X41240Y-16704D03*
X41043Y-16704D03*
X40846Y-16704D03*
X40649Y-16704D03*
G54D14*
X11417Y-11023D03*
X46850Y-11023D03*
X46850Y-46456D03*
X11417Y-46456D03*
G54D15*
X46031Y-18405D03*
X46031Y-18602D03*
X46031Y-18799D03*
X46031Y-18996D03*
X46484Y-18996D03*
X46484Y-18799D03*
X46484Y-18602D03*
X46484Y-18405D03*
G54D12*
X25706Y-23744D03*
X25706Y-23244D03*
X25706Y-22744D03*
X25706Y-22244D03*
X25706Y-21744D03*
X25706Y-21244D03*
X25706Y-20744D03*
X23506Y-20744D03*
X23506Y-21244D03*
X23506Y-21744D03*
X23506Y-22244D03*
X23506Y-22744D03*
X23506Y-23244D03*
X23506Y-23744D03*
X32758Y-20744D03*
X32758Y-21244D03*
X32758Y-21744D03*
X32758Y-22244D03*
X32758Y-22744D03*
X32758Y-23244D03*
X32758Y-23744D03*
X34958Y-23744D03*
X34958Y-23244D03*
X34958Y-22744D03*
X34958Y-22244D03*
X34958Y-21744D03*
X34958Y-21244D03*
X34958Y-20744D03*
X39879Y-23744D03*
X39879Y-23244D03*
X39879Y-22744D03*
X39879Y-22244D03*
X39879Y-21744D03*
X39879Y-21244D03*
X39879Y-20744D03*
X37679Y-20744D03*
X37679Y-21244D03*
X37679Y-21744D03*
X37679Y-22244D03*
X37679Y-22744D03*
X37679Y-23244D03*
X37679Y-23744D03*
G54D16*
X18791Y-18700D03*
X19791Y-18700D03*
X34539Y-18700D03*
X35539Y-18700D03*
X26665Y-18700D03*
X27665Y-18700D03*
X42413Y-18700D03*
X43413Y-18700D03*
G54D17*
X30633Y-33939D03*
X30133Y-33939D03*
X29633Y-33939D03*
X29133Y-33939D03*
X28633Y-33939D03*
X28133Y-33939D03*
X27633Y-33939D03*
X27633Y-36139D03*
X28133Y-36139D03*
X28633Y-36139D03*
X29133Y-36139D03*
X29633Y-36139D03*
X30133Y-36139D03*
X30633Y-36139D03*
X45844Y-21340D03*
X45344Y-21340D03*
X44844Y-21340D03*
X44344Y-21340D03*
X43844Y-21340D03*
X43344Y-21340D03*
X42844Y-21340D03*
X42344Y-21340D03*
X42344Y-23540D03*
X42844Y-23540D03*
X43344Y-23540D03*
X43844Y-23540D03*
X44344Y-23540D03*
X44844Y-23540D03*
X45344Y-23540D03*
X45844Y-23540D03*
G54D15*
X23653Y-40255D03*
X23653Y-40058D03*
X23653Y-39861D03*
X23653Y-39664D03*
X23200Y-39664D03*
X23200Y-39861D03*
X23200Y-40058D03*
X23200Y-40255D03*
G54D18*
X14154Y-23425D03*
X13404Y-23425D03*
X14154Y-19094D03*
X13404Y-19094D03*
G54D13*
X37893Y-28751D03*
X38090Y-28751D03*
X38287Y-28751D03*
X38484Y-28751D03*
X38484Y-28298D03*
X38287Y-28298D03*
X38090Y-28298D03*
X37893Y-28298D03*
G54D19*
X11811Y-31240D03*
X11811Y-26240D03*
G54D20*
X12811Y-30145D03*
X13511Y-29744D03*
X12811Y-29342D03*
X13511Y-28940D03*
X12811Y-28539D03*
X13511Y-28137D03*
X12811Y-27736D03*
X13511Y-27334D03*
G54D21*
X13161Y-31940D03*
X13161Y-25539D03*
G54D19*
X46456Y-26240D03*
X46456Y-31240D03*
G54D20*
X45456Y-27334D03*
X44755Y-27736D03*
X45456Y-28137D03*
X44755Y-28539D03*
X45456Y-28940D03*
X44755Y-29342D03*
X45456Y-29744D03*
X44755Y-30145D03*
G54D21*
X45106Y-25539D03*
X45106Y-31940D03*
G54D19*
X38444Y-11417D03*
X43444Y-11417D03*
G54D20*
X39539Y-12417D03*
X39940Y-13118D03*
X40342Y-12417D03*
X40744Y-13118D03*
X41145Y-12417D03*
X41547Y-13118D03*
X41948Y-12417D03*
X42350Y-13118D03*
G54D21*
X37744Y-12767D03*
X44145Y-12767D03*
G54D19*
X30570Y-11417D03*
X35570Y-11417D03*
G54D20*
X31665Y-12417D03*
X32066Y-13118D03*
X32468Y-12417D03*
X32870Y-13118D03*
X33271Y-12417D03*
X33673Y-13118D03*
X34074Y-12417D03*
X34476Y-13118D03*
G54D21*
X29870Y-12767D03*
X36271Y-12767D03*
G54D19*
X22696Y-11417D03*
X27696Y-11417D03*
G54D20*
X23791Y-12417D03*
X24192Y-13118D03*
X24594Y-12417D03*
X24996Y-13118D03*
X25397Y-12417D03*
X25799Y-13118D03*
X26200Y-12417D03*
X26602Y-13118D03*
G54D21*
X21996Y-12767D03*
X28397Y-12767D03*
G54D19*
X14822Y-11417D03*
X19822Y-11417D03*
G54D20*
X15917Y-12417D03*
X16318Y-13118D03*
X16720Y-12417D03*
X17122Y-13118D03*
X17523Y-12417D03*
X17925Y-13118D03*
X18326Y-12417D03*
X18728Y-13118D03*
G54D21*
X14122Y-12767D03*
X20523Y-12767D03*
G54D19*
X31633Y-46062D03*
X26633Y-46062D03*
G54D20*
X30539Y-45062D03*
X30137Y-44362D03*
X29736Y-45062D03*
X29334Y-44362D03*
X28933Y-45062D03*
X28531Y-44362D03*
X28129Y-45062D03*
X27728Y-44362D03*
G54D21*
X32334Y-44712D03*
X25933Y-44712D03*
G54D13*
X39075Y-41960D03*
X39272Y-41960D03*
X39469Y-41960D03*
X39666Y-41960D03*
X39666Y-41507D03*
X39469Y-41507D03*
X39272Y-41507D03*
X39075Y-41507D03*
G54D16*
X34933Y-46062D03*
X35933Y-46062D03*
X37688Y-46062D03*
X38688Y-46062D03*
X40444Y-46062D03*
X41444Y-46062D03*
X43200Y-46062D03*
X44200Y-46062D03*
G54D22*
X13189Y-20668D03*
G54D23*
X13287Y-21259D03*
G54D22*
X13189Y-21850D03*
G54D24*
X14232Y-21259D03*
G54D25*
X13858Y-24606D03*
X13248Y-24606D03*
X14173Y-24212D03*
X34420Y-26540D03*
X34060Y-25095D03*
X46170Y-20710D03*
X41270Y-21355D03*
X34460Y-24390D03*
X36920Y-23240D03*
X28290Y-25090D03*
G54D26*
X30137Y-39665D03*
X30600Y-34530D03*
X29330Y-40039D03*
X29630Y-34555D03*
X28523Y-40433D03*
X28615Y-34545D03*
X27716Y-40905D03*
X27716Y-37165D03*
X14450Y-26980D03*
X44000Y-19400D03*
X42070Y-17465D03*
X43011Y-26771D03*
X37874Y-29409D03*
X41585Y-17745D03*
X41565Y-18130D03*
X44730Y-20070D03*
X44350Y-19720D03*
X32390Y-30205D03*
X31595Y-32165D03*
X31435Y-29670D03*
X32070Y-32550D03*
X24400Y-25220D03*
X24400Y-24480D03*
X29410Y-26810D03*
X24690Y-26790D03*
X22890Y-23255D03*
X22175Y-23250D03*
X29575Y-26030D03*
X32550Y-26085D03*
X28505Y-29170D03*
X29895Y-27960D03*
X25970Y-27330D03*
X31080Y-27330D03*
X33460Y-26080D03*
X28770Y-25695D03*
X38905Y-23690D03*
X24890Y-26090D03*
X29070Y-34585D03*
X20728Y-28976D03*
X21141Y-28858D03*
X29650Y-35495D03*
X22965Y-20075D03*
X25135Y-23235D03*
X23520Y-20055D03*
X25125Y-22230D03*
G54D25*
X16240Y-20807D03*
X20157Y-29133D03*
X22677Y-31653D03*
X15905Y-21141D03*
X16240Y-20196D03*
X46870Y-19670D03*
X38340Y-23735D03*
X46397Y-23543D03*
X30795Y-32670D03*
X36125Y-21840D03*
X34250Y-20770D03*
X23545Y-24280D03*
G54D27*
X14154Y-23425D02*
X14154Y-22973D01*
X14154Y-22973D02*
X13779Y-22598D01*
X13779Y-22598D02*
X13503Y-22598D01*
X13503Y-22598D02*
X13189Y-22283D01*
X13189Y-22283D02*
X13189Y-21850D01*
G54D28*
X13248Y-24488D02*
X13523Y-24212D01*
X14173Y-24212D02*
X13523Y-24212D01*
X13248Y-24606D02*
X13858Y-24606D01*
X14251Y-24212D02*
X13858Y-24606D01*
X13248Y-24606D02*
X13248Y-24488D01*
G54D27*
X14154Y-24193D02*
X14154Y-23425D01*
X14173Y-24212D02*
X14154Y-24193D01*
X30539Y-45062D02*
X30539Y-45060D01*
X12244Y-21259D02*
X11889Y-21614D01*
X11889Y-21614D02*
X11889Y-22716D01*
X11889Y-22716D02*
X12598Y-23425D01*
G54D28*
X14232Y-21259D02*
X14232Y-22224D01*
X14232Y-22224D02*
X14251Y-22244D01*
X14232Y-21259D02*
X14232Y-20295D01*
X14232Y-20295D02*
X14251Y-20275D01*
G54D27*
X13287Y-21259D02*
X12244Y-21259D01*
X12244Y-21259D02*
X11692Y-20708D01*
X11692Y-20708D02*
X11692Y-19724D01*
X11692Y-19724D02*
X12322Y-19094D01*
X12322Y-19094D02*
X13404Y-19094D01*
G54D28*
X14232Y-21259D02*
X15354Y-21259D01*
G54D27*
X31830Y-47854D02*
X31968Y-47992D01*
X44389Y-47854D02*
X45098Y-47145D01*
X45098Y-41062D02*
X45098Y-47145D01*
X31140Y-47163D02*
X31830Y-47854D01*
X29736Y-45756D02*
X29736Y-45062D01*
X29736Y-45756D02*
X31140Y-47160D01*
X31140Y-47160D02*
X31140Y-47163D01*
X44173Y-48070D02*
X44389Y-47854D01*
X32047Y-48070D02*
X44173Y-48070D01*
X31968Y-47992D02*
X32047Y-48070D01*
X46219Y-28504D02*
X46219Y-28981D01*
X46219Y-28981D02*
X45456Y-29744D01*
X47027Y-29744D02*
X45456Y-29744D01*
X47972Y-30688D02*
X47027Y-29744D01*
X47972Y-32736D02*
X47972Y-30688D01*
X32989Y-28171D02*
X35667Y-28171D01*
X35905Y-27933D02*
X37283Y-27933D01*
X35667Y-28171D02*
X35905Y-27933D01*
G54D29*
X37491Y-28298D02*
X37283Y-28090D01*
X37283Y-28090D02*
X37283Y-27933D01*
X37491Y-28298D02*
X37893Y-28298D01*
X37578Y-27539D02*
X38759Y-27539D01*
X37283Y-27933D02*
X37283Y-27775D01*
X37283Y-27775D02*
X37519Y-27539D01*
X37519Y-27539D02*
X37578Y-27539D01*
X38484Y-28298D02*
X38787Y-28298D01*
X38976Y-28110D02*
X38787Y-28298D01*
X38976Y-27755D02*
X38976Y-28110D01*
X38759Y-27539D02*
X38976Y-27755D01*
G54D27*
X34420Y-26540D02*
X34011Y-26540D01*
X32989Y-27561D02*
X32989Y-28171D01*
X34011Y-26540D02*
X32989Y-27561D01*
X34060Y-25095D02*
X33677Y-25095D01*
X32758Y-24175D02*
X32758Y-23744D01*
X33677Y-25095D02*
X32758Y-24175D01*
X13404Y-19094D02*
X13404Y-10808D01*
X16720Y-11208D02*
X16720Y-12417D01*
X15551Y-10039D02*
X16720Y-11208D01*
X14173Y-10039D02*
X15551Y-10039D01*
X13404Y-10808D02*
X14173Y-10039D01*
X12811Y-27736D02*
X11397Y-27736D01*
X12598Y-23425D02*
X13404Y-23425D01*
X10433Y-25590D02*
X12598Y-23425D01*
X10433Y-26771D02*
X10433Y-25590D01*
X11397Y-27736D02*
X10433Y-26771D01*
X46165Y-20705D02*
X46140Y-20705D01*
X46170Y-20710D02*
X46165Y-20705D01*
X41284Y-21340D02*
X42344Y-21340D01*
X41270Y-21355D02*
X41284Y-21340D01*
G54D29*
X39879Y-20744D02*
X40174Y-20744D01*
X40285Y-21744D02*
X39879Y-21744D01*
X40430Y-21600D02*
X40285Y-21744D01*
X40430Y-21000D02*
X40430Y-21600D01*
X40174Y-20744D02*
X40430Y-21000D01*
X37679Y-21244D02*
X38640Y-21244D01*
X39853Y-20770D02*
X39879Y-20744D01*
X39115Y-20770D02*
X39853Y-20770D01*
X38640Y-21244D02*
X39115Y-20770D01*
X37679Y-22244D02*
X37154Y-22244D01*
X37205Y-21244D02*
X37679Y-21244D01*
X36955Y-21495D02*
X37205Y-21244D01*
X36955Y-22045D02*
X36955Y-21495D01*
X37154Y-22244D02*
X36955Y-22045D01*
X37679Y-23244D02*
X38045Y-23244D01*
X38069Y-22244D02*
X37679Y-22244D01*
X38250Y-22425D02*
X38069Y-22244D01*
X38250Y-23040D02*
X38250Y-22425D01*
X38045Y-23244D02*
X38250Y-23040D01*
G54D27*
X32758Y-23744D02*
X33814Y-23744D01*
X33814Y-23744D02*
X34460Y-24390D01*
X36924Y-23244D02*
X37679Y-23244D01*
X36920Y-23240D02*
X36924Y-23244D01*
X27871Y-28171D02*
X27871Y-25508D01*
X27871Y-25508D02*
X28290Y-25090D01*
X32758Y-23744D02*
X32758Y-23793D01*
G54D29*
X45344Y-23540D02*
X45344Y-22405D01*
X45844Y-21905D02*
X45844Y-21340D01*
X45344Y-22405D02*
X45844Y-21905D01*
X44844Y-23540D02*
X45344Y-23540D01*
X44344Y-23540D02*
X44844Y-23540D01*
G54D27*
X25706Y-20744D02*
X25706Y-18138D01*
X26977Y-12417D02*
X26200Y-12417D01*
X27365Y-12805D02*
X26977Y-12417D01*
X27365Y-16480D02*
X27365Y-12805D01*
X25706Y-18138D02*
X27365Y-16480D01*
X22410Y-38535D02*
X22410Y-36370D01*
X24840Y-33939D02*
X27633Y-33939D01*
X22410Y-36370D02*
X24840Y-33939D01*
G54D29*
X23200Y-40255D02*
X23200Y-40564D01*
X23200Y-40564D02*
X22410Y-41355D01*
X23200Y-40058D02*
X23200Y-40255D01*
X23200Y-39861D02*
X23200Y-40058D01*
X23200Y-39664D02*
X23200Y-39861D01*
X22410Y-38535D02*
X22415Y-38535D01*
X23200Y-39320D02*
X23200Y-39664D01*
X22415Y-38535D02*
X23200Y-39320D01*
G54D27*
X12811Y-29342D02*
X11817Y-29342D01*
X27362Y-45062D02*
X28129Y-45062D01*
X22410Y-41355D02*
X22005Y-41760D01*
X22005Y-41760D02*
X22005Y-42630D01*
X22005Y-42630D02*
X22920Y-43545D01*
X22920Y-43545D02*
X25845Y-43545D01*
X25845Y-43545D02*
X27362Y-45062D01*
X22410Y-38535D02*
X22410Y-41355D01*
X20355Y-36480D02*
X22410Y-38535D01*
X15295Y-36480D02*
X20355Y-36480D01*
X10530Y-31715D02*
X15295Y-36480D01*
X10530Y-30630D02*
X10530Y-31715D01*
X11817Y-29342D02*
X10530Y-30630D01*
X45844Y-21340D02*
X45844Y-21000D01*
X45844Y-21000D02*
X46140Y-20705D01*
X46140Y-20705D02*
X46705Y-20705D01*
X42632Y-12417D02*
X41948Y-12417D01*
X44090Y-13875D02*
X42632Y-12417D01*
X44730Y-13875D02*
X44090Y-13875D01*
X47730Y-16875D02*
X44730Y-13875D01*
X47730Y-19680D02*
X47730Y-16875D01*
X46705Y-20705D02*
X47730Y-19680D01*
X45456Y-28137D02*
X45592Y-28137D01*
X45592Y-28137D02*
X46350Y-27380D01*
X46350Y-27380D02*
X47050Y-27380D01*
X47050Y-27380D02*
X47780Y-26650D01*
X47780Y-26650D02*
X47780Y-25580D01*
X47780Y-25580D02*
X46810Y-24610D01*
X46810Y-24610D02*
X46810Y-21790D01*
X46810Y-21790D02*
X46360Y-21340D01*
X46360Y-21340D02*
X45844Y-21340D01*
X45456Y-29744D02*
X45875Y-29744D01*
X46230Y-28515D02*
X46219Y-28504D01*
X46219Y-28504D02*
X45852Y-28137D01*
X45852Y-28137D02*
X45456Y-28137D01*
X28129Y-45062D02*
X28129Y-45334D01*
X29736Y-45378D02*
X29736Y-45062D01*
X29295Y-45820D02*
X29736Y-45378D01*
X28615Y-45820D02*
X29295Y-45820D01*
X28129Y-45334D02*
X28615Y-45820D01*
X40342Y-12417D02*
X40342Y-12322D01*
X40342Y-12322D02*
X40845Y-11820D01*
X40845Y-11820D02*
X41565Y-11820D01*
X41565Y-11820D02*
X41948Y-12203D01*
X41948Y-12203D02*
X41948Y-12417D01*
X34074Y-12417D02*
X34074Y-10865D01*
X40342Y-11707D02*
X40342Y-12417D01*
X38925Y-10290D02*
X40342Y-11707D01*
X34650Y-10290D02*
X38925Y-10290D01*
X34074Y-10865D02*
X34650Y-10290D01*
X32468Y-12417D02*
X32468Y-12291D01*
X34074Y-12339D02*
X34074Y-12417D01*
X33555Y-11820D02*
X34074Y-12339D01*
X32940Y-11820D02*
X33555Y-11820D01*
X32468Y-12291D02*
X32940Y-11820D01*
X26200Y-12417D02*
X26200Y-10989D01*
X32468Y-11633D02*
X32468Y-12417D01*
X31125Y-10290D02*
X32468Y-11633D01*
X26900Y-10290D02*
X31125Y-10290D01*
X26200Y-10989D02*
X26900Y-10290D01*
X24594Y-12417D02*
X24594Y-12275D01*
X26200Y-12280D02*
X26200Y-12417D01*
X25690Y-11770D02*
X26200Y-12280D01*
X25100Y-11770D02*
X25690Y-11770D01*
X24594Y-12275D02*
X25100Y-11770D01*
X18326Y-12417D02*
X18326Y-11233D01*
X24594Y-11564D02*
X24594Y-12417D01*
X23310Y-10280D02*
X24594Y-11564D01*
X19280Y-10280D02*
X23310Y-10280D01*
X18326Y-11233D02*
X19280Y-10280D01*
X16720Y-12417D02*
X16720Y-12209D01*
X16720Y-12209D02*
X17160Y-11770D01*
X17160Y-11770D02*
X17830Y-11770D01*
X17830Y-11770D02*
X18326Y-12266D01*
X18326Y-12266D02*
X18326Y-12417D01*
X12811Y-29342D02*
X12582Y-29342D01*
X12573Y-27736D02*
X12811Y-27736D01*
X12110Y-28200D02*
X12573Y-27736D01*
X12110Y-28870D02*
X12110Y-28200D01*
X12582Y-29342D02*
X12110Y-28870D01*
G54D29*
X39075Y-41507D02*
X38830Y-41507D01*
X38830Y-41507D02*
X38582Y-41259D01*
X39075Y-41507D02*
X39272Y-41507D01*
G54D27*
X40157Y-41062D02*
X45098Y-41062D01*
X45098Y-41062D02*
X45078Y-41062D01*
X45078Y-41062D02*
X45098Y-41062D01*
G54D29*
X39910Y-41507D02*
X39666Y-41507D01*
X40157Y-41259D02*
X39910Y-41507D01*
X40157Y-40905D02*
X40157Y-41062D01*
X40157Y-41062D02*
X40157Y-41259D01*
X40000Y-40748D02*
X40157Y-40905D01*
X38779Y-40748D02*
X40000Y-40748D01*
X38582Y-40944D02*
X38779Y-40748D01*
X38582Y-41259D02*
X38582Y-40944D01*
G54D27*
X45098Y-41062D02*
X45098Y-35610D01*
X45098Y-35610D02*
X47972Y-32736D01*
G54D29*
X39469Y-41507D02*
X39666Y-41507D01*
X39272Y-41507D02*
X39469Y-41507D01*
X32755Y-43976D02*
X33149Y-44370D01*
X30165Y-44362D02*
X30551Y-43976D01*
X30551Y-43976D02*
X32755Y-43976D01*
X30137Y-44362D02*
X30165Y-44362D01*
X41744Y-47519D02*
X43200Y-46062D01*
X34015Y-47519D02*
X41744Y-47519D01*
X33149Y-46653D02*
X34015Y-47519D01*
X33149Y-44370D02*
X33149Y-46653D01*
X25787Y-39664D02*
X30137Y-39664D01*
X30137Y-39664D02*
X30137Y-39665D01*
X30600Y-34530D02*
X30633Y-34496D01*
X30633Y-34496D02*
X30633Y-33939D01*
X25802Y-39664D02*
X25787Y-39664D01*
X25787Y-39664D02*
X23653Y-39664D01*
X32618Y-43405D02*
X32814Y-43405D01*
X29334Y-44362D02*
X30291Y-43405D01*
X30291Y-43405D02*
X32618Y-43405D01*
X39263Y-47244D02*
X40444Y-46062D01*
X34330Y-47244D02*
X39263Y-47244D01*
X33503Y-46417D02*
X34330Y-47244D01*
X33503Y-44094D02*
X33503Y-46417D01*
X32814Y-43405D02*
X33503Y-44094D01*
X25777Y-39861D02*
X27105Y-39861D01*
X23653Y-39861D02*
X25777Y-39861D01*
X27283Y-40039D02*
X29330Y-40039D01*
X27105Y-39861D02*
X27283Y-40039D01*
X29633Y-34551D02*
X29633Y-33939D01*
X29630Y-34555D02*
X29633Y-34551D01*
X29931Y-42962D02*
X33001Y-42962D01*
X36822Y-46929D02*
X37688Y-46062D01*
X34606Y-46929D02*
X36822Y-46929D01*
X33976Y-46299D02*
X34606Y-46929D01*
X33976Y-43937D02*
X33976Y-46299D01*
X33001Y-42962D02*
X33976Y-43937D01*
X29940Y-42952D02*
X29931Y-42962D01*
X29931Y-42962D02*
X28531Y-44362D01*
X25748Y-40058D02*
X26810Y-40058D01*
X27185Y-40433D02*
X28523Y-40433D01*
X26810Y-40058D02*
X27185Y-40433D01*
X28615Y-34545D02*
X28633Y-34526D01*
X28633Y-34526D02*
X28633Y-33939D01*
X25751Y-40058D02*
X25748Y-40058D01*
X25748Y-40058D02*
X23653Y-40058D01*
X27728Y-44362D02*
X27728Y-44358D01*
X34933Y-44066D02*
X34933Y-46062D01*
X33346Y-42480D02*
X34933Y-44066D01*
X29606Y-42480D02*
X33346Y-42480D01*
X27728Y-44358D02*
X29606Y-42480D01*
X34933Y-46062D02*
X34933Y-45937D01*
X25708Y-40255D02*
X26633Y-40255D01*
X27283Y-40905D02*
X27716Y-40905D01*
X26633Y-40255D02*
X27283Y-40905D01*
X27716Y-37165D02*
X27722Y-37159D01*
X27722Y-37159D02*
X27750Y-37159D01*
X28133Y-36776D02*
X28133Y-36139D01*
X27725Y-37185D02*
X27750Y-37159D01*
X27750Y-37159D02*
X28133Y-36776D01*
X25725Y-40255D02*
X25708Y-40255D01*
X25708Y-40255D02*
X23653Y-40255D01*
X17421Y-16704D02*
X17421Y-13621D01*
X17421Y-13621D02*
X17925Y-13118D01*
X13922Y-28137D02*
X13511Y-28137D01*
X14440Y-27620D02*
X13922Y-28137D01*
X14440Y-26990D02*
X14440Y-27620D01*
X14450Y-26980D02*
X14440Y-26990D01*
X35933Y-43437D02*
X35933Y-46062D01*
X39075Y-41960D02*
X37409Y-41960D01*
X37409Y-41960D02*
X35933Y-43437D01*
X39666Y-41960D02*
X41645Y-41960D01*
X41645Y-41960D02*
X44200Y-44515D01*
X44200Y-44515D02*
X44200Y-46062D01*
X41444Y-44515D02*
X41444Y-46062D01*
X39469Y-41960D02*
X39469Y-42539D01*
X39469Y-42539D02*
X41444Y-44515D01*
X39272Y-41960D02*
X39272Y-42499D01*
X39272Y-42499D02*
X38688Y-43082D01*
X38688Y-43082D02*
X38688Y-46062D01*
X40846Y-16704D02*
X40846Y-13220D01*
X40846Y-13220D02*
X40744Y-13118D01*
X24902Y-16704D02*
X24902Y-13212D01*
X24902Y-13212D02*
X24996Y-13118D01*
X25099Y-16704D02*
X25099Y-14861D01*
X25799Y-14160D02*
X25799Y-13118D01*
X25099Y-14861D02*
X25799Y-14160D01*
X33169Y-16704D02*
X33169Y-13989D01*
X32870Y-13690D02*
X32870Y-13118D01*
X33169Y-13989D02*
X32870Y-13690D01*
X33366Y-16704D02*
X33366Y-14053D01*
X33673Y-13746D02*
X33673Y-13118D01*
X33366Y-14053D02*
X33673Y-13746D01*
X17618Y-16704D02*
X17618Y-14721D01*
X18728Y-13611D02*
X18728Y-13118D01*
X17618Y-14721D02*
X18728Y-13611D01*
X41043Y-16704D02*
X41043Y-14416D01*
X41547Y-13912D02*
X41547Y-13118D01*
X41043Y-14416D02*
X41547Y-13912D01*
X41240Y-16704D02*
X41240Y-14809D01*
X42350Y-13699D02*
X42350Y-13118D01*
X41240Y-14809D02*
X42350Y-13699D01*
X40649Y-16704D02*
X40649Y-14349D01*
X39940Y-13640D02*
X39940Y-13118D01*
X40649Y-14349D02*
X39940Y-13640D01*
X33563Y-16704D02*
X33563Y-14676D01*
X34476Y-13763D02*
X34476Y-13118D01*
X33563Y-14676D02*
X34476Y-13763D01*
X32972Y-16704D02*
X32972Y-14452D01*
X32066Y-13546D02*
X32066Y-13118D01*
X32972Y-14452D02*
X32066Y-13546D01*
X25296Y-16704D02*
X25296Y-15084D01*
X26602Y-13777D02*
X26602Y-13118D01*
X25296Y-15084D02*
X26602Y-13777D01*
X24705Y-16704D02*
X24705Y-14790D01*
X24192Y-14277D02*
X24192Y-13118D01*
X24705Y-14790D02*
X24192Y-14277D01*
X43413Y-18700D02*
X43413Y-19831D01*
X42844Y-20400D02*
X42844Y-21340D01*
X43413Y-19831D02*
X42844Y-20400D01*
X43344Y-21340D02*
X43344Y-20585D01*
X44000Y-19930D02*
X44000Y-19400D01*
X43344Y-20585D02*
X44000Y-19930D01*
X44678Y-18405D02*
X46031Y-18405D01*
X43970Y-17697D02*
X44678Y-18405D01*
X42302Y-17697D02*
X43970Y-17697D01*
X42070Y-17465D02*
X42302Y-17697D01*
X44822Y-22297D02*
X42545Y-22297D01*
X41751Y-24732D02*
X44755Y-27736D01*
X41751Y-23090D02*
X41751Y-24732D01*
X42545Y-22297D02*
X41751Y-23090D01*
X38484Y-28751D02*
X38484Y-29270D01*
X35580Y-31171D02*
X32989Y-31171D01*
X36240Y-30511D02*
X35580Y-31171D01*
X37244Y-30511D02*
X36240Y-30511D01*
X38484Y-29270D02*
X37244Y-30511D01*
X45084Y-22297D02*
X45344Y-22037D01*
X45344Y-22037D02*
X45344Y-21755D01*
X45344Y-21340D02*
X45344Y-21755D01*
X44802Y-22297D02*
X44822Y-22297D01*
X44822Y-22297D02*
X45084Y-22297D01*
X44755Y-27736D02*
X41102Y-27736D01*
X41102Y-27736D02*
X40086Y-28751D01*
X40086Y-28751D02*
X38484Y-28751D01*
X25671Y-30671D02*
X19481Y-30671D01*
X18554Y-29744D02*
X13511Y-29744D01*
X19481Y-30671D02*
X18554Y-29744D01*
X27871Y-31171D02*
X27251Y-31171D01*
X26751Y-30671D02*
X25671Y-30671D01*
X27251Y-31171D02*
X26751Y-30671D01*
X27871Y-31171D02*
X29168Y-31171D01*
X29668Y-30671D02*
X30789Y-30671D01*
X29168Y-31171D02*
X29668Y-30671D01*
X30789Y-30671D02*
X31676Y-30671D01*
X31676Y-30671D02*
X32176Y-31171D01*
X32176Y-31171D02*
X32989Y-31171D01*
X44844Y-21340D02*
X44844Y-21769D01*
X41240Y-25000D02*
X43011Y-26771D01*
X41240Y-22992D02*
X41240Y-25000D01*
X42283Y-21948D02*
X41240Y-22992D01*
X44665Y-21948D02*
X42283Y-21948D01*
X44844Y-21769D02*
X44665Y-21948D01*
X37893Y-28751D02*
X37893Y-29389D01*
X37893Y-29389D02*
X37874Y-29409D01*
X35194Y-30671D02*
X37106Y-28759D01*
X32989Y-30671D02*
X35194Y-30671D01*
X37885Y-28759D02*
X37893Y-28751D01*
X37106Y-28759D02*
X37885Y-28759D01*
X13511Y-28940D02*
X18740Y-28940D01*
X19971Y-30171D02*
X25671Y-30171D01*
X18740Y-28940D02*
X19971Y-30171D01*
X25671Y-30171D02*
X26816Y-30171D01*
X27316Y-30671D02*
X27871Y-30671D01*
X26816Y-30171D02*
X27316Y-30671D01*
X27871Y-30671D02*
X29048Y-30671D01*
X29548Y-30171D02*
X30789Y-30171D01*
X29048Y-30671D02*
X29548Y-30171D01*
X32989Y-30671D02*
X32251Y-30671D01*
X31751Y-30171D02*
X30789Y-30171D01*
X32251Y-30671D02*
X31751Y-30171D01*
X46031Y-18602D02*
X44653Y-18602D01*
X41695Y-17855D02*
X41585Y-17745D01*
X43905Y-17855D02*
X41695Y-17855D01*
X44653Y-18602D02*
X43905Y-17855D01*
X44627Y-18799D02*
X46031Y-18799D01*
X43840Y-18012D02*
X44627Y-18799D01*
X41682Y-18012D02*
X43840Y-18012D01*
X41565Y-18130D02*
X41682Y-18012D01*
X42413Y-18700D02*
X42413Y-18461D01*
X44601Y-18996D02*
X46031Y-18996D01*
X43775Y-18170D02*
X44601Y-18996D01*
X42705Y-18170D02*
X43775Y-18170D01*
X42413Y-18461D02*
X42705Y-18170D01*
X44344Y-21340D02*
X44344Y-20455D01*
X44344Y-20455D02*
X44730Y-20070D01*
X43844Y-21340D02*
X43844Y-20505D01*
X44350Y-20000D02*
X44350Y-19720D01*
X43844Y-20505D02*
X44350Y-20000D01*
X17027Y-16704D02*
X17027Y-14507D01*
X16318Y-13798D02*
X16318Y-13118D01*
X17027Y-14507D02*
X16318Y-13798D01*
X17224Y-16704D02*
X17224Y-13220D01*
X17224Y-13220D02*
X17122Y-13118D01*
X30133Y-33939D02*
X30133Y-31676D01*
X32031Y-31671D02*
X32989Y-31671D01*
X31780Y-31420D02*
X32031Y-31671D01*
X30390Y-31420D02*
X31780Y-31420D01*
X30133Y-31676D02*
X30390Y-31420D01*
X29133Y-33939D02*
X29133Y-32151D01*
X30113Y-31171D02*
X30789Y-31171D01*
X29133Y-32151D02*
X30113Y-31171D01*
X27871Y-31671D02*
X27871Y-31876D01*
X28133Y-32138D02*
X28133Y-33939D01*
X27871Y-31876D02*
X28133Y-32138D01*
X25671Y-31171D02*
X26181Y-31171D01*
X27633Y-35086D02*
X27633Y-36139D01*
X27885Y-34835D02*
X27633Y-35086D01*
X27885Y-32875D02*
X27885Y-34835D01*
X26181Y-31171D02*
X27885Y-32875D01*
X31590Y-34045D02*
X31590Y-32170D01*
X29133Y-35256D02*
X29395Y-34995D01*
X29395Y-34995D02*
X30640Y-34995D01*
X30640Y-34995D02*
X31590Y-34045D01*
X32390Y-30205D02*
X32423Y-30171D01*
X32989Y-30171D02*
X32423Y-30171D01*
X29133Y-35256D02*
X29133Y-36139D01*
X31590Y-32170D02*
X31595Y-32165D01*
X30133Y-36139D02*
X30133Y-35723D01*
X31433Y-29671D02*
X30789Y-29671D01*
X31435Y-29670D02*
X31433Y-29671D01*
X31747Y-32872D02*
X32070Y-32550D01*
X31747Y-34110D02*
X31747Y-32872D01*
X30133Y-35723D02*
X31747Y-34110D01*
X25706Y-23744D02*
X25706Y-25646D01*
X28233Y-30171D02*
X27871Y-30171D01*
X28405Y-30000D02*
X28233Y-30171D01*
X28405Y-29645D02*
X28405Y-30000D01*
X28180Y-29420D02*
X28405Y-29645D01*
X27430Y-29420D02*
X28180Y-29420D01*
X26800Y-28790D02*
X27430Y-29420D01*
X26800Y-26740D02*
X26800Y-28790D01*
X25706Y-25646D02*
X26800Y-26740D01*
X25706Y-22744D02*
X25075Y-22744D01*
X26248Y-29671D02*
X25671Y-29671D01*
X26425Y-29495D02*
X26248Y-29671D01*
X26425Y-27245D02*
X26425Y-29495D01*
X24400Y-25220D02*
X26425Y-27245D01*
X24400Y-23420D02*
X24400Y-24480D01*
X25075Y-22744D02*
X24400Y-23420D01*
X32989Y-29671D02*
X31961Y-29671D01*
X26234Y-21744D02*
X25706Y-21744D01*
X29105Y-24615D02*
X26234Y-21744D01*
X29105Y-28255D02*
X29105Y-24615D01*
X30270Y-29420D02*
X29105Y-28255D01*
X31220Y-29420D02*
X30270Y-29420D01*
X31265Y-29375D02*
X31220Y-29420D01*
X31665Y-29375D02*
X31265Y-29375D01*
X31961Y-29671D02*
X31665Y-29375D01*
X23506Y-21244D02*
X22975Y-21244D01*
X30331Y-29171D02*
X30789Y-29171D01*
X29420Y-28260D02*
X30331Y-29171D01*
X29420Y-26820D02*
X29420Y-28260D01*
X29410Y-26810D02*
X29420Y-26820D01*
X21850Y-23950D02*
X24690Y-26790D01*
X21850Y-22370D02*
X21850Y-23950D01*
X22975Y-21244D02*
X21850Y-22370D01*
X27871Y-29671D02*
X27341Y-29671D01*
X22955Y-22244D02*
X23506Y-22244D01*
X22605Y-22595D02*
X22955Y-22244D01*
X22605Y-23960D02*
X22605Y-22595D01*
X23445Y-24800D02*
X22605Y-23960D01*
X24637Y-24800D02*
X23445Y-24800D01*
X26642Y-26805D02*
X24637Y-24800D01*
X26642Y-28972D02*
X26642Y-26805D01*
X27341Y-29671D02*
X26642Y-28972D01*
X25671Y-29171D02*
X25181Y-29171D01*
X22900Y-23244D02*
X23506Y-23244D01*
X22890Y-23255D02*
X22900Y-23244D01*
X22175Y-23752D02*
X22175Y-23250D01*
X24995Y-26572D02*
X22175Y-23752D01*
X24995Y-28985D02*
X24995Y-26572D01*
X25181Y-29171D02*
X24995Y-28985D01*
X32989Y-29171D02*
X32581Y-29171D01*
X32295Y-20744D02*
X32758Y-20744D01*
X32005Y-21035D02*
X32295Y-20744D01*
X32005Y-22782D02*
X32005Y-21035D01*
X29610Y-25177D02*
X32005Y-22782D01*
X29610Y-25995D02*
X29610Y-25177D01*
X29575Y-26030D02*
X29610Y-25995D01*
X32040Y-26595D02*
X32550Y-26085D01*
X32040Y-28630D02*
X32040Y-26595D01*
X32581Y-29171D02*
X32040Y-28630D01*
X30789Y-28671D02*
X30431Y-28671D01*
X32360Y-21744D02*
X32758Y-21744D01*
X32190Y-21915D02*
X32360Y-21744D01*
X32190Y-22340D02*
X32190Y-21915D01*
X32345Y-22495D02*
X32190Y-22340D01*
X33160Y-22495D02*
X32345Y-22495D01*
X33300Y-22635D02*
X33160Y-22495D01*
X33300Y-22765D02*
X33300Y-22635D01*
X33070Y-22995D02*
X33300Y-22765D01*
X32365Y-22995D02*
X33070Y-22995D01*
X32050Y-23310D02*
X32365Y-22995D01*
X32050Y-24965D02*
X32050Y-23310D01*
X30170Y-26845D02*
X32050Y-24965D01*
X30170Y-28410D02*
X30170Y-26845D01*
X30431Y-28671D02*
X30170Y-28410D01*
X32758Y-22744D02*
X32265Y-22744D01*
X28503Y-29171D02*
X27871Y-29171D01*
X28505Y-29170D02*
X28503Y-29171D01*
X29895Y-25115D02*
X29895Y-27960D01*
X32265Y-22744D02*
X29895Y-25115D01*
X34958Y-23244D02*
X35564Y-23244D01*
X26053Y-28671D02*
X25671Y-28671D01*
X26210Y-28515D02*
X26053Y-28671D01*
X26210Y-27570D02*
X26210Y-28515D01*
X25970Y-27330D02*
X26210Y-27570D01*
X31080Y-26802D02*
X31080Y-27330D01*
X32315Y-25567D02*
X31080Y-26802D01*
X34335Y-25567D02*
X32315Y-25567D01*
X35870Y-24032D02*
X34335Y-25567D01*
X35870Y-23550D02*
X35870Y-24032D01*
X35564Y-23244D02*
X35870Y-23550D01*
X34958Y-22244D02*
X35469Y-22244D01*
X32551Y-28671D02*
X32989Y-28671D01*
X32250Y-28370D02*
X32551Y-28671D01*
X32250Y-26860D02*
X32250Y-28370D01*
X33350Y-25760D02*
X32250Y-26860D01*
X34790Y-25760D02*
X33350Y-25760D01*
X36255Y-24295D02*
X34790Y-25760D01*
X36255Y-23030D02*
X36255Y-24295D01*
X35469Y-22244D02*
X36255Y-23030D01*
X30789Y-28171D02*
X30789Y-26870D01*
X34285Y-21244D02*
X34958Y-21244D01*
X33989Y-21540D02*
X34285Y-21244D01*
X33989Y-22899D02*
X33989Y-21540D01*
X34585Y-23495D02*
X33989Y-22899D01*
X35395Y-23495D02*
X34585Y-23495D01*
X35595Y-23695D02*
X35395Y-23495D01*
X35595Y-24085D02*
X35595Y-23695D01*
X34270Y-25410D02*
X35595Y-24085D01*
X32250Y-25410D02*
X34270Y-25410D01*
X30789Y-26870D02*
X32250Y-25410D01*
X27871Y-28671D02*
X28408Y-28671D01*
X39290Y-23744D02*
X39879Y-23744D01*
X38600Y-24435D02*
X39290Y-23744D01*
X36337Y-24435D02*
X38600Y-24435D01*
X34702Y-26070D02*
X36337Y-24435D01*
X33470Y-26070D02*
X34702Y-26070D01*
X33460Y-26080D02*
X33470Y-26070D01*
X28770Y-28310D02*
X28770Y-25695D01*
X28408Y-28671D02*
X28770Y-28310D01*
X25671Y-28171D02*
X25671Y-26871D01*
X39340Y-22744D02*
X39879Y-22744D01*
X38925Y-23160D02*
X39340Y-22744D01*
X38925Y-23670D02*
X38925Y-23160D01*
X38905Y-23690D02*
X38925Y-23670D01*
X25671Y-26871D02*
X24890Y-26090D01*
X28633Y-35021D02*
X29070Y-34585D01*
X28633Y-36139D02*
X28633Y-35021D01*
X17027Y-25275D02*
X17027Y-25039D01*
X20728Y-28976D02*
X17027Y-25275D01*
X17027Y-25039D02*
X17027Y-17157D01*
X17224Y-24941D02*
X17224Y-24822D01*
X21141Y-28858D02*
X17224Y-24941D01*
X17224Y-17157D02*
X17224Y-24822D01*
X29633Y-35511D02*
X29633Y-36139D01*
X29650Y-35495D02*
X29633Y-35511D01*
X25706Y-23244D02*
X25144Y-23244D01*
X17421Y-17421D02*
X17421Y-17157D01*
X17530Y-17530D02*
X17421Y-17421D01*
X20420Y-17530D02*
X17530Y-17530D01*
X22965Y-20075D02*
X20420Y-17530D01*
X25144Y-23244D02*
X25135Y-23235D01*
X25706Y-22244D02*
X25139Y-22244D01*
X20622Y-17157D02*
X17618Y-17157D01*
X23520Y-20055D02*
X20622Y-17157D01*
X25139Y-22244D02*
X25125Y-22230D01*
X25706Y-21244D02*
X25315Y-21244D01*
X24705Y-19340D02*
X24705Y-17157D01*
X23680Y-20365D02*
X24705Y-19340D01*
X23175Y-20365D02*
X23680Y-20365D01*
X23075Y-20465D02*
X23175Y-20365D01*
X23075Y-20885D02*
X23075Y-20465D01*
X23185Y-20995D02*
X23075Y-20885D01*
X23910Y-20995D02*
X23185Y-20995D01*
X24010Y-21095D02*
X23910Y-20995D01*
X24010Y-21330D02*
X24010Y-21095D01*
X23845Y-21495D02*
X24010Y-21330D01*
X23210Y-21495D02*
X23845Y-21495D01*
X23030Y-21675D02*
X23210Y-21495D01*
X23030Y-21875D02*
X23030Y-21675D01*
X23150Y-21995D02*
X23030Y-21875D01*
X23915Y-21995D02*
X23150Y-21995D01*
X23995Y-22075D02*
X23915Y-21995D01*
X23995Y-22335D02*
X23995Y-22075D01*
X23835Y-22495D02*
X23995Y-22335D01*
X23080Y-22495D02*
X23835Y-22495D01*
X23015Y-22560D02*
X23080Y-22495D01*
X23015Y-22900D02*
X23015Y-22560D01*
X23110Y-22995D02*
X23015Y-22900D01*
X24435Y-22995D02*
X23110Y-22995D01*
X24700Y-22730D02*
X24435Y-22995D01*
X24700Y-21860D02*
X24700Y-22730D01*
X25315Y-21244D02*
X24700Y-21860D01*
X24902Y-19365D02*
X23944Y-20322D01*
X24902Y-17157D02*
X24902Y-19365D01*
X23822Y-20744D02*
X23506Y-20744D01*
X23944Y-20622D02*
X23822Y-20744D01*
X23944Y-20322D02*
X23944Y-20622D01*
X23506Y-20744D02*
X23523Y-20744D01*
X23506Y-21744D02*
X23915Y-21744D01*
X25099Y-19391D02*
X25099Y-17157D01*
X24220Y-20270D02*
X25099Y-19391D01*
X24220Y-21440D02*
X24220Y-20270D01*
X23915Y-21744D02*
X24220Y-21440D01*
X23506Y-22744D02*
X23850Y-22744D01*
X25296Y-19417D02*
X25296Y-17157D01*
X24377Y-20335D02*
X25296Y-19417D01*
X24377Y-22217D02*
X24377Y-20335D01*
X23850Y-22744D02*
X24377Y-22217D01*
X32758Y-21244D02*
X33115Y-21244D01*
X32972Y-18982D02*
X32972Y-17157D01*
X33360Y-19370D02*
X32972Y-18982D01*
X33360Y-21000D02*
X33360Y-19370D01*
X33115Y-21244D02*
X33360Y-21000D01*
X32758Y-22244D02*
X33025Y-22244D01*
X33169Y-18957D02*
X33169Y-17157D01*
X33517Y-19304D02*
X33169Y-18957D01*
X33517Y-21752D02*
X33517Y-19304D01*
X33025Y-22244D02*
X33517Y-21752D01*
X32758Y-23244D02*
X33125Y-23244D01*
X33366Y-18931D02*
X33366Y-17157D01*
X33674Y-19239D02*
X33366Y-18931D01*
X33674Y-22695D02*
X33674Y-19239D01*
X33125Y-23244D02*
X33674Y-22695D01*
X34958Y-23744D02*
X34474Y-23744D01*
X33563Y-18905D02*
X33563Y-17157D01*
X33832Y-19174D02*
X33563Y-18905D01*
X33832Y-23102D02*
X33832Y-19174D01*
X34474Y-23744D02*
X33832Y-23102D01*
X34958Y-22744D02*
X34604Y-22744D01*
X39062Y-17157D02*
X40649Y-17157D01*
X36285Y-19935D02*
X39062Y-17157D01*
X36285Y-20835D02*
X36285Y-19935D01*
X35620Y-21500D02*
X36285Y-20835D01*
X34625Y-21500D02*
X35620Y-21500D01*
X34385Y-21740D02*
X34625Y-21500D01*
X34385Y-22525D02*
X34385Y-21740D01*
X34604Y-22744D02*
X34385Y-22525D01*
X34958Y-21744D02*
X35598Y-21744D01*
X40846Y-17408D02*
X40846Y-17157D01*
X40740Y-17515D02*
X40846Y-17408D01*
X38927Y-17515D02*
X40740Y-17515D01*
X36442Y-20000D02*
X38927Y-17515D01*
X36442Y-20900D02*
X36442Y-20000D01*
X35598Y-21744D02*
X36442Y-20900D01*
X39879Y-23244D02*
X40310Y-23244D01*
X41043Y-17588D02*
X41043Y-17157D01*
X40647Y-17984D02*
X41043Y-17588D01*
X40647Y-22907D02*
X40647Y-17984D01*
X40310Y-23244D02*
X40647Y-22907D01*
X40335Y-22440D02*
X40335Y-22382D01*
X40196Y-22244D02*
X39879Y-22244D01*
X40335Y-22382D02*
X40196Y-22244D01*
X41240Y-17614D02*
X41240Y-17157D01*
X40805Y-18050D02*
X41240Y-17614D01*
X40805Y-23115D02*
X40805Y-18050D01*
X40430Y-23490D02*
X40805Y-23115D01*
X39460Y-23490D02*
X40430Y-23490D01*
X39395Y-23425D02*
X39460Y-23490D01*
X39395Y-23160D02*
X39395Y-23425D01*
X39560Y-22995D02*
X39395Y-23160D01*
X40265Y-22995D02*
X39560Y-22995D01*
X40335Y-22925D02*
X40265Y-22995D01*
X40335Y-22440D02*
X40335Y-22925D01*
G54D27*
X13189Y-20668D02*
X13189Y-20118D01*
X13189Y-20118D02*
X13582Y-19724D01*
X13582Y-19724D02*
X14055Y-19724D01*
X14055Y-19724D02*
X14154Y-19625D01*
X14154Y-19625D02*
X14154Y-19094D01*
G54D28*
X14154Y-19094D02*
X15137Y-19094D01*
X15137Y-19094D02*
X15708Y-19665D01*
G54D27*
X16200Y-25177D02*
X15885Y-24862D01*
X19547Y-28523D02*
X17736Y-26712D01*
X17736Y-26712D02*
X16397Y-25374D01*
X16397Y-25374D02*
X16200Y-25177D01*
X25671Y-31671D02*
X22694Y-31671D01*
X22694Y-31671D02*
X22677Y-31653D01*
X20157Y-29133D02*
X19547Y-28523D01*
G54D28*
X15905Y-21141D02*
X16240Y-20807D01*
G54D27*
X15885Y-21161D02*
X15905Y-21141D01*
X15885Y-24862D02*
X15885Y-21161D01*
G54D28*
X15905Y-21141D02*
X15905Y-20531D01*
X16240Y-20807D02*
X16240Y-20196D01*
X15708Y-19665D02*
X16240Y-20196D01*
X15905Y-20531D02*
X16240Y-20196D01*
G54D29*
X46484Y-18996D02*
X46484Y-19284D01*
X46484Y-19284D02*
X46870Y-19670D01*
G54D27*
X37679Y-23744D02*
X38330Y-23744D01*
X38340Y-23735D02*
X38330Y-23744D01*
X46395Y-23540D02*
X45844Y-23540D01*
X46397Y-23543D02*
X46395Y-23540D01*
X31104Y-36139D02*
X30633Y-36139D01*
X32677Y-34566D02*
X31104Y-36139D01*
X32677Y-32519D02*
X32677Y-34566D01*
X32362Y-32204D02*
X32677Y-32519D01*
X32125Y-32204D02*
X32362Y-32204D01*
X31592Y-31671D02*
X32125Y-32204D01*
X30789Y-31671D02*
X31592Y-31671D01*
X30789Y-32664D02*
X30795Y-32670D01*
X30789Y-31671D02*
X30789Y-32664D01*
G54D29*
X23506Y-23744D02*
X23506Y-24241D01*
X23506Y-24241D02*
X23545Y-24280D01*
G54D27*
X37679Y-23744D02*
X36754Y-23744D01*
X36545Y-22260D02*
X36125Y-21840D01*
X36545Y-23535D02*
X36545Y-22260D01*
X36754Y-23744D02*
X36545Y-23535D01*
X34275Y-20744D02*
X34958Y-20744D01*
X34250Y-20770D02*
X34275Y-20744D01*
G54D29*
X46484Y-18799D02*
X46484Y-18996D01*
X46484Y-18602D02*
X46484Y-18799D01*
X46484Y-18405D02*
X46484Y-18602D01*
G54D10*
G36*
X28917Y-25446D02*
X28827Y-25408D01*
X28713Y-25408D01*
X28608Y-25452D01*
X28527Y-25532D01*
X28483Y-25637D01*
X28483Y-25751D01*
X28527Y-25856D01*
X28582Y-25912D01*
X28582Y-28232D01*
X28330Y-28483D01*
X28288Y-28483D01*
X28333Y-28437D01*
X28371Y-28345D01*
X28371Y-27996D01*
X28333Y-27904D01*
X28263Y-27834D01*
X28171Y-27796D01*
X28072Y-27796D01*
X27943Y-27796D01*
X27880Y-27858D01*
X27880Y-28162D01*
X28309Y-28162D01*
X28371Y-28099D01*
X28371Y-27996D01*
X28371Y-28345D01*
X28371Y-28242D01*
X28309Y-28180D01*
X27880Y-28180D01*
X27880Y-28188D01*
X27862Y-28188D01*
X27862Y-28180D01*
X27862Y-28162D01*
X27862Y-27858D01*
X27800Y-27796D01*
X27671Y-27796D01*
X27571Y-27796D01*
X27479Y-27834D01*
X27409Y-27904D01*
X27371Y-27996D01*
X27371Y-28099D01*
X27434Y-28162D01*
X27862Y-28162D01*
X27862Y-28180D01*
X27434Y-28180D01*
X27371Y-28242D01*
X27371Y-28345D01*
X27409Y-28437D01*
X27477Y-28505D01*
X27473Y-28516D01*
X27473Y-28575D01*
X27473Y-28825D01*
X27495Y-28880D01*
X27536Y-28921D01*
X27495Y-28962D01*
X27473Y-29016D01*
X27473Y-29075D01*
X27473Y-29197D01*
X26987Y-28712D01*
X26987Y-26740D01*
X26973Y-26668D01*
X26973Y-26668D01*
X26932Y-26607D01*
X25894Y-25568D01*
X25894Y-24017D01*
X25985Y-24017D01*
X26040Y-23994D01*
X26082Y-23953D01*
X26104Y-23898D01*
X26104Y-23839D01*
X26104Y-23589D01*
X26082Y-23535D01*
X26041Y-23494D01*
X26082Y-23453D01*
X26104Y-23398D01*
X26104Y-23339D01*
X26104Y-23089D01*
X26082Y-23035D01*
X26041Y-22994D01*
X26082Y-22953D01*
X26104Y-22898D01*
X26104Y-22839D01*
X26104Y-22589D01*
X26082Y-22535D01*
X26041Y-22494D01*
X26082Y-22453D01*
X26104Y-22398D01*
X26104Y-22339D01*
X26104Y-22089D01*
X26082Y-22035D01*
X26041Y-21994D01*
X26082Y-21953D01*
X26090Y-21931D01*
X26156Y-21931D01*
X28917Y-24692D01*
X28917Y-25446D01*
X28917Y-25446D01*
G37*
G54D30*
X28917Y-25446D02*
X28827Y-25408D01*
X28713Y-25408D01*
X28608Y-25452D01*
X28527Y-25532D01*
X28483Y-25637D01*
X28483Y-25751D01*
X28527Y-25856D01*
X28582Y-25912D01*
X28582Y-28232D01*
X28330Y-28483D01*
X28288Y-28483D01*
X28333Y-28437D01*
X28371Y-28345D01*
X28371Y-27996D01*
X28333Y-27904D01*
X28263Y-27834D01*
X28171Y-27796D01*
X28072Y-27796D01*
X27943Y-27796D01*
X27880Y-27858D01*
X27880Y-28162D01*
X28309Y-28162D01*
X28371Y-28099D01*
X28371Y-27996D01*
X28371Y-28345D01*
X28371Y-28242D01*
X28309Y-28180D01*
X27880Y-28180D01*
X27880Y-28188D01*
X27862Y-28188D01*
X27862Y-28180D01*
X27862Y-28162D01*
X27862Y-27858D01*
X27800Y-27796D01*
X27671Y-27796D01*
X27571Y-27796D01*
X27479Y-27834D01*
X27409Y-27904D01*
X27371Y-27996D01*
X27371Y-28099D01*
X27434Y-28162D01*
X27862Y-28162D01*
X27862Y-28180D01*
X27434Y-28180D01*
X27371Y-28242D01*
X27371Y-28345D01*
X27409Y-28437D01*
X27477Y-28505D01*
X27473Y-28516D01*
X27473Y-28575D01*
X27473Y-28825D01*
X27495Y-28880D01*
X27536Y-28921D01*
X27495Y-28962D01*
X27473Y-29016D01*
X27473Y-29075D01*
X27473Y-29197D01*
X26987Y-28712D01*
X26987Y-26740D01*
X26973Y-26668D01*
X26973Y-26668D01*
X26932Y-26607D01*
X25894Y-25568D01*
X25894Y-24017D01*
X25985Y-24017D01*
X26040Y-23994D01*
X26082Y-23953D01*
X26104Y-23898D01*
X26104Y-23839D01*
X26104Y-23589D01*
X26082Y-23535D01*
X26041Y-23494D01*
X26082Y-23453D01*
X26104Y-23398D01*
X26104Y-23339D01*
X26104Y-23089D01*
X26082Y-23035D01*
X26041Y-22994D01*
X26082Y-22953D01*
X26104Y-22898D01*
X26104Y-22839D01*
X26104Y-22589D01*
X26082Y-22535D01*
X26041Y-22494D01*
X26082Y-22453D01*
X26104Y-22398D01*
X26104Y-22339D01*
X26104Y-22089D01*
X26082Y-22035D01*
X26041Y-21994D01*
X26082Y-21953D01*
X26090Y-21931D01*
X26156Y-21931D01*
X28917Y-24692D01*
X28917Y-25446D01*
G54D10*
G36*
X35407Y-24007D02*
X34192Y-25222D01*
X33258Y-25222D01*
X33258Y-23918D01*
X33258Y-23815D01*
X33195Y-23753D01*
X32767Y-23753D01*
X32767Y-24056D01*
X32829Y-24119D01*
X32958Y-24119D01*
X33058Y-24119D01*
X33150Y-24080D01*
X33220Y-24010D01*
X33258Y-23918D01*
X33258Y-25222D01*
X32749Y-25222D01*
X32749Y-24056D01*
X32749Y-23753D01*
X32320Y-23753D01*
X32258Y-23815D01*
X32258Y-23918D01*
X32296Y-24010D01*
X32366Y-24080D01*
X32458Y-24119D01*
X32557Y-24119D01*
X32686Y-24119D01*
X32749Y-24056D01*
X32749Y-25222D01*
X32250Y-25222D01*
X32178Y-25236D01*
X32117Y-25277D01*
X30656Y-26737D01*
X30616Y-26798D01*
X30601Y-26870D01*
X30601Y-27897D01*
X30510Y-27897D01*
X30455Y-27920D01*
X30414Y-27962D01*
X30391Y-28016D01*
X30391Y-28075D01*
X30391Y-28325D01*
X30413Y-28380D01*
X30454Y-28421D01*
X30450Y-28425D01*
X30357Y-28332D01*
X30357Y-26922D01*
X32182Y-25097D01*
X32223Y-25036D01*
X32223Y-25036D01*
X32237Y-24965D01*
X32237Y-23387D01*
X32359Y-23265D01*
X32359Y-23398D01*
X32364Y-23409D01*
X32296Y-23477D01*
X32258Y-23569D01*
X32258Y-23672D01*
X32320Y-23735D01*
X32749Y-23735D01*
X32749Y-23727D01*
X32767Y-23727D01*
X32767Y-23735D01*
X33195Y-23735D01*
X33258Y-23672D01*
X33258Y-23569D01*
X33220Y-23477D01*
X33166Y-23423D01*
X33197Y-23417D01*
X33258Y-23376D01*
X33644Y-22990D01*
X33644Y-23102D01*
X33658Y-23174D01*
X33699Y-23235D01*
X34341Y-23876D01*
X34341Y-23876D01*
X34402Y-23917D01*
X34402Y-23917D01*
X34459Y-23929D01*
X34474Y-23931D01*
X34474Y-23931D01*
X34474Y-23931D01*
X34573Y-23931D01*
X34582Y-23953D01*
X34624Y-23994D01*
X34678Y-24017D01*
X34737Y-24017D01*
X35237Y-24017D01*
X35292Y-23994D01*
X35334Y-23953D01*
X35356Y-23898D01*
X35356Y-23839D01*
X35356Y-23722D01*
X35407Y-23772D01*
X35407Y-24007D01*
X35407Y-24007D01*
G37*
G54D30*
X35407Y-24007D02*
X34192Y-25222D01*
X33258Y-25222D01*
X33258Y-23918D01*
X33258Y-23815D01*
X33195Y-23753D01*
X32767Y-23753D01*
X32767Y-24056D01*
X32829Y-24119D01*
X32958Y-24119D01*
X33058Y-24119D01*
X33150Y-24080D01*
X33220Y-24010D01*
X33258Y-23918D01*
X33258Y-25222D01*
X32749Y-25222D01*
X32749Y-24056D01*
X32749Y-23753D01*
X32320Y-23753D01*
X32258Y-23815D01*
X32258Y-23918D01*
X32296Y-24010D01*
X32366Y-24080D01*
X32458Y-24119D01*
X32557Y-24119D01*
X32686Y-24119D01*
X32749Y-24056D01*
X32749Y-25222D01*
X32250Y-25222D01*
X32178Y-25236D01*
X32117Y-25277D01*
X30656Y-26737D01*
X30616Y-26798D01*
X30601Y-26870D01*
X30601Y-27897D01*
X30510Y-27897D01*
X30455Y-27920D01*
X30414Y-27962D01*
X30391Y-28016D01*
X30391Y-28075D01*
X30391Y-28325D01*
X30413Y-28380D01*
X30454Y-28421D01*
X30450Y-28425D01*
X30357Y-28332D01*
X30357Y-26922D01*
X32182Y-25097D01*
X32223Y-25036D01*
X32223Y-25036D01*
X32237Y-24965D01*
X32237Y-23387D01*
X32359Y-23265D01*
X32359Y-23398D01*
X32364Y-23409D01*
X32296Y-23477D01*
X32258Y-23569D01*
X32258Y-23672D01*
X32320Y-23735D01*
X32749Y-23735D01*
X32749Y-23727D01*
X32767Y-23727D01*
X32767Y-23735D01*
X33195Y-23735D01*
X33258Y-23672D01*
X33258Y-23569D01*
X33220Y-23477D01*
X33166Y-23423D01*
X33197Y-23417D01*
X33258Y-23376D01*
X33644Y-22990D01*
X33644Y-23102D01*
X33658Y-23174D01*
X33699Y-23235D01*
X34341Y-23876D01*
X34341Y-23876D01*
X34402Y-23917D01*
X34402Y-23917D01*
X34459Y-23929D01*
X34474Y-23931D01*
X34474Y-23931D01*
X34474Y-23931D01*
X34573Y-23931D01*
X34582Y-23953D01*
X34624Y-23994D01*
X34678Y-24017D01*
X34737Y-24017D01*
X35237Y-24017D01*
X35292Y-23994D01*
X35334Y-23953D01*
X35356Y-23898D01*
X35356Y-23839D01*
X35356Y-23722D01*
X35407Y-23772D01*
X35407Y-24007D01*
G54D10*
G36*
X40663Y-17702D02*
X40514Y-17851D01*
X40474Y-17912D01*
X40459Y-17984D01*
X40459Y-22241D01*
X40329Y-22111D01*
X40276Y-22075D01*
X40341Y-22010D01*
X40379Y-21918D01*
X40379Y-21569D01*
X40341Y-21477D01*
X40273Y-21409D01*
X40277Y-21398D01*
X40277Y-21339D01*
X40277Y-21089D01*
X40273Y-21078D01*
X40341Y-21010D01*
X40379Y-20918D01*
X40379Y-20569D01*
X40341Y-20477D01*
X40271Y-20407D01*
X40179Y-20369D01*
X40080Y-20369D01*
X39951Y-20369D01*
X39888Y-20431D01*
X39888Y-20735D01*
X40317Y-20735D01*
X40379Y-20672D01*
X40379Y-20569D01*
X40379Y-20918D01*
X40379Y-20815D01*
X40317Y-20753D01*
X39888Y-20753D01*
X39888Y-20761D01*
X39870Y-20761D01*
X39870Y-20753D01*
X39870Y-20735D01*
X39870Y-20431D01*
X39807Y-20369D01*
X39679Y-20369D01*
X39579Y-20369D01*
X39487Y-20407D01*
X39417Y-20477D01*
X39379Y-20569D01*
X39379Y-20672D01*
X39442Y-20735D01*
X39870Y-20735D01*
X39870Y-20753D01*
X39442Y-20753D01*
X39379Y-20815D01*
X39379Y-20918D01*
X39417Y-21010D01*
X39485Y-21078D01*
X39481Y-21089D01*
X39481Y-21148D01*
X39481Y-21398D01*
X39485Y-21409D01*
X39417Y-21477D01*
X39379Y-21569D01*
X39379Y-21672D01*
X39442Y-21735D01*
X39870Y-21735D01*
X39870Y-21727D01*
X39888Y-21727D01*
X39888Y-21735D01*
X40317Y-21735D01*
X40379Y-21672D01*
X40379Y-21569D01*
X40379Y-21918D01*
X40379Y-21815D01*
X40317Y-21753D01*
X39888Y-21753D01*
X39888Y-21761D01*
X39870Y-21761D01*
X39870Y-21753D01*
X39442Y-21753D01*
X39379Y-21815D01*
X39379Y-21918D01*
X39417Y-22010D01*
X39485Y-22078D01*
X39481Y-22089D01*
X39481Y-22148D01*
X39481Y-22398D01*
X39503Y-22453D01*
X39544Y-22494D01*
X39503Y-22534D01*
X39494Y-22556D01*
X39340Y-22556D01*
X39269Y-22570D01*
X39208Y-22611D01*
X38792Y-23027D01*
X38751Y-23088D01*
X38737Y-23160D01*
X38737Y-23453D01*
X38662Y-23527D01*
X38633Y-23597D01*
X38614Y-23552D01*
X38523Y-23460D01*
X38404Y-23411D01*
X38275Y-23411D01*
X38163Y-23458D01*
X38179Y-23418D01*
X38179Y-23069D01*
X38141Y-22977D01*
X38073Y-22909D01*
X38077Y-22898D01*
X38077Y-22839D01*
X38077Y-22589D01*
X38073Y-22578D01*
X38141Y-22510D01*
X38179Y-22418D01*
X38179Y-22069D01*
X38141Y-21977D01*
X38073Y-21909D01*
X38077Y-21898D01*
X38077Y-21839D01*
X38077Y-21589D01*
X38073Y-21578D01*
X38141Y-21510D01*
X38179Y-21418D01*
X38179Y-21069D01*
X38141Y-20977D01*
X38073Y-20909D01*
X38077Y-20898D01*
X38077Y-20839D01*
X38077Y-20589D01*
X38055Y-20535D01*
X38013Y-20493D01*
X37959Y-20470D01*
X37900Y-20470D01*
X37400Y-20470D01*
X37345Y-20493D01*
X37303Y-20534D01*
X37281Y-20589D01*
X37281Y-20648D01*
X37281Y-20898D01*
X37285Y-20909D01*
X37217Y-20977D01*
X37179Y-21069D01*
X37179Y-21172D01*
X37242Y-21235D01*
X37670Y-21235D01*
X37670Y-21227D01*
X37688Y-21227D01*
X37688Y-21235D01*
X38117Y-21235D01*
X38179Y-21172D01*
X38179Y-21069D01*
X38179Y-21418D01*
X38179Y-21315D01*
X38117Y-21253D01*
X37688Y-21253D01*
X37688Y-21261D01*
X37670Y-21261D01*
X37670Y-21253D01*
X37242Y-21253D01*
X37179Y-21315D01*
X37179Y-21418D01*
X37217Y-21510D01*
X37285Y-21578D01*
X37281Y-21589D01*
X37281Y-21648D01*
X37281Y-21898D01*
X37285Y-21909D01*
X37217Y-21977D01*
X37179Y-22069D01*
X37179Y-22172D01*
X37242Y-22235D01*
X37670Y-22235D01*
X37670Y-22227D01*
X37688Y-22227D01*
X37688Y-22235D01*
X38117Y-22235D01*
X38179Y-22172D01*
X38179Y-22069D01*
X38179Y-22418D01*
X38179Y-22315D01*
X38117Y-22253D01*
X37688Y-22253D01*
X37688Y-22261D01*
X37670Y-22261D01*
X37670Y-22253D01*
X37242Y-22253D01*
X37179Y-22315D01*
X37179Y-22418D01*
X37217Y-22510D01*
X37285Y-22578D01*
X37281Y-22589D01*
X37281Y-22648D01*
X37281Y-22898D01*
X37285Y-22909D01*
X37217Y-22977D01*
X37179Y-23069D01*
X37179Y-23172D01*
X37242Y-23235D01*
X37670Y-23235D01*
X37670Y-23227D01*
X37688Y-23227D01*
X37688Y-23235D01*
X38117Y-23235D01*
X38179Y-23172D01*
X38179Y-23069D01*
X38179Y-23418D01*
X38179Y-23315D01*
X38117Y-23253D01*
X37688Y-23253D01*
X37688Y-23261D01*
X37670Y-23261D01*
X37670Y-23253D01*
X37242Y-23253D01*
X37179Y-23315D01*
X37179Y-23418D01*
X37211Y-23497D01*
X36856Y-23497D01*
X36791Y-23432D01*
X36791Y-22260D01*
X36773Y-22165D01*
X36773Y-22165D01*
X36719Y-22085D01*
X36448Y-21814D01*
X36448Y-21775D01*
X36399Y-21657D01*
X36308Y-21565D01*
X36189Y-21516D01*
X36091Y-21516D01*
X36575Y-21033D01*
X36615Y-20972D01*
X36630Y-20900D01*
X36630Y-20078D01*
X39005Y-17702D01*
X40663Y-17702D01*
X40663Y-17702D01*
G37*
G54D30*
X40663Y-17702D02*
X40514Y-17851D01*
X40474Y-17912D01*
X40459Y-17984D01*
X40459Y-22241D01*
X40329Y-22111D01*
X40276Y-22075D01*
X40341Y-22010D01*
X40379Y-21918D01*
X40379Y-21569D01*
X40341Y-21477D01*
X40273Y-21409D01*
X40277Y-21398D01*
X40277Y-21339D01*
X40277Y-21089D01*
X40273Y-21078D01*
X40341Y-21010D01*
X40379Y-20918D01*
X40379Y-20569D01*
X40341Y-20477D01*
X40271Y-20407D01*
X40179Y-20369D01*
X40080Y-20369D01*
X39951Y-20369D01*
X39888Y-20431D01*
X39888Y-20735D01*
X40317Y-20735D01*
X40379Y-20672D01*
X40379Y-20569D01*
X40379Y-20918D01*
X40379Y-20815D01*
X40317Y-20753D01*
X39888Y-20753D01*
X39888Y-20761D01*
X39870Y-20761D01*
X39870Y-20753D01*
X39870Y-20735D01*
X39870Y-20431D01*
X39807Y-20369D01*
X39679Y-20369D01*
X39579Y-20369D01*
X39487Y-20407D01*
X39417Y-20477D01*
X39379Y-20569D01*
X39379Y-20672D01*
X39442Y-20735D01*
X39870Y-20735D01*
X39870Y-20753D01*
X39442Y-20753D01*
X39379Y-20815D01*
X39379Y-20918D01*
X39417Y-21010D01*
X39485Y-21078D01*
X39481Y-21089D01*
X39481Y-21148D01*
X39481Y-21398D01*
X39485Y-21409D01*
X39417Y-21477D01*
X39379Y-21569D01*
X39379Y-21672D01*
X39442Y-21735D01*
X39870Y-21735D01*
X39870Y-21727D01*
X39888Y-21727D01*
X39888Y-21735D01*
X40317Y-21735D01*
X40379Y-21672D01*
X40379Y-21569D01*
X40379Y-21918D01*
X40379Y-21815D01*
X40317Y-21753D01*
X39888Y-21753D01*
X39888Y-21761D01*
X39870Y-21761D01*
X39870Y-21753D01*
X39442Y-21753D01*
X39379Y-21815D01*
X39379Y-21918D01*
X39417Y-22010D01*
X39485Y-22078D01*
X39481Y-22089D01*
X39481Y-22148D01*
X39481Y-22398D01*
X39503Y-22453D01*
X39544Y-22494D01*
X39503Y-22534D01*
X39494Y-22556D01*
X39340Y-22556D01*
X39269Y-22570D01*
X39208Y-22611D01*
X38792Y-23027D01*
X38751Y-23088D01*
X38737Y-23160D01*
X38737Y-23453D01*
X38662Y-23527D01*
X38633Y-23597D01*
X38614Y-23552D01*
X38523Y-23460D01*
X38404Y-23411D01*
X38275Y-23411D01*
X38163Y-23458D01*
X38179Y-23418D01*
X38179Y-23069D01*
X38141Y-22977D01*
X38073Y-22909D01*
X38077Y-22898D01*
X38077Y-22839D01*
X38077Y-22589D01*
X38073Y-22578D01*
X38141Y-22510D01*
X38179Y-22418D01*
X38179Y-22069D01*
X38141Y-21977D01*
X38073Y-21909D01*
X38077Y-21898D01*
X38077Y-21839D01*
X38077Y-21589D01*
X38073Y-21578D01*
X38141Y-21510D01*
X38179Y-21418D01*
X38179Y-21069D01*
X38141Y-20977D01*
X38073Y-20909D01*
X38077Y-20898D01*
X38077Y-20839D01*
X38077Y-20589D01*
X38055Y-20535D01*
X38013Y-20493D01*
X37959Y-20470D01*
X37900Y-20470D01*
X37400Y-20470D01*
X37345Y-20493D01*
X37303Y-20534D01*
X37281Y-20589D01*
X37281Y-20648D01*
X37281Y-20898D01*
X37285Y-20909D01*
X37217Y-20977D01*
X37179Y-21069D01*
X37179Y-21172D01*
X37242Y-21235D01*
X37670Y-21235D01*
X37670Y-21227D01*
X37688Y-21227D01*
X37688Y-21235D01*
X38117Y-21235D01*
X38179Y-21172D01*
X38179Y-21069D01*
X38179Y-21418D01*
X38179Y-21315D01*
X38117Y-21253D01*
X37688Y-21253D01*
X37688Y-21261D01*
X37670Y-21261D01*
X37670Y-21253D01*
X37242Y-21253D01*
X37179Y-21315D01*
X37179Y-21418D01*
X37217Y-21510D01*
X37285Y-21578D01*
X37281Y-21589D01*
X37281Y-21648D01*
X37281Y-21898D01*
X37285Y-21909D01*
X37217Y-21977D01*
X37179Y-22069D01*
X37179Y-22172D01*
X37242Y-22235D01*
X37670Y-22235D01*
X37670Y-22227D01*
X37688Y-22227D01*
X37688Y-22235D01*
X38117Y-22235D01*
X38179Y-22172D01*
X38179Y-22069D01*
X38179Y-22418D01*
X38179Y-22315D01*
X38117Y-22253D01*
X37688Y-22253D01*
X37688Y-22261D01*
X37670Y-22261D01*
X37670Y-22253D01*
X37242Y-22253D01*
X37179Y-22315D01*
X37179Y-22418D01*
X37217Y-22510D01*
X37285Y-22578D01*
X37281Y-22589D01*
X37281Y-22648D01*
X37281Y-22898D01*
X37285Y-22909D01*
X37217Y-22977D01*
X37179Y-23069D01*
X37179Y-23172D01*
X37242Y-23235D01*
X37670Y-23235D01*
X37670Y-23227D01*
X37688Y-23227D01*
X37688Y-23235D01*
X38117Y-23235D01*
X38179Y-23172D01*
X38179Y-23069D01*
X38179Y-23418D01*
X38179Y-23315D01*
X38117Y-23253D01*
X37688Y-23253D01*
X37688Y-23261D01*
X37670Y-23261D01*
X37670Y-23253D01*
X37242Y-23253D01*
X37179Y-23315D01*
X37179Y-23418D01*
X37211Y-23497D01*
X36856Y-23497D01*
X36791Y-23432D01*
X36791Y-22260D01*
X36773Y-22165D01*
X36773Y-22165D01*
X36719Y-22085D01*
X36448Y-21814D01*
X36448Y-21775D01*
X36399Y-21657D01*
X36308Y-21565D01*
X36189Y-21516D01*
X36091Y-21516D01*
X36575Y-21033D01*
X36615Y-20972D01*
X36630Y-20900D01*
X36630Y-20078D01*
X39005Y-17702D01*
X40663Y-17702D01*
G54D10*
G36*
X44302Y-27548D02*
X41102Y-27548D01*
X41030Y-27562D01*
X40969Y-27603D01*
X40009Y-28563D01*
X38757Y-28563D01*
X38793Y-28476D01*
X38794Y-28377D01*
X38793Y-28370D01*
X38731Y-28307D01*
X38495Y-28307D01*
X38495Y-28289D01*
X38731Y-28289D01*
X38793Y-28227D01*
X38794Y-28220D01*
X38793Y-28120D01*
X38755Y-28028D01*
X38685Y-27958D01*
X38593Y-27920D01*
X38556Y-27920D01*
X38494Y-27983D01*
X38494Y-28137D01*
X38475Y-28094D01*
X38475Y-27983D01*
X38413Y-27920D01*
X38376Y-27920D01*
X38284Y-27958D01*
X38220Y-28022D01*
X38199Y-28022D01*
X38189Y-28026D01*
X38179Y-28022D01*
X38158Y-28022D01*
X38094Y-27958D01*
X38002Y-27920D01*
X37965Y-27920D01*
X37903Y-27983D01*
X37903Y-28094D01*
X37884Y-28137D01*
X37884Y-27983D01*
X37822Y-27920D01*
X37785Y-27920D01*
X37693Y-27958D01*
X37623Y-28028D01*
X37585Y-28120D01*
X37584Y-28220D01*
X37584Y-28227D01*
X37647Y-28289D01*
X37883Y-28289D01*
X37883Y-28307D01*
X37647Y-28307D01*
X37584Y-28370D01*
X37584Y-28377D01*
X37585Y-28476D01*
X37623Y-28568D01*
X37626Y-28572D01*
X37106Y-28572D01*
X37034Y-28586D01*
X36973Y-28627D01*
X36973Y-28627D01*
X36973Y-28627D01*
X35117Y-30483D01*
X33374Y-30483D01*
X33365Y-30462D01*
X33324Y-30421D01*
X33365Y-30380D01*
X33388Y-30325D01*
X33388Y-30266D01*
X33388Y-30016D01*
X33365Y-29962D01*
X33324Y-29921D01*
X33365Y-29880D01*
X33388Y-29825D01*
X33388Y-29766D01*
X33388Y-29516D01*
X33365Y-29462D01*
X33324Y-29421D01*
X33365Y-29380D01*
X33388Y-29325D01*
X33388Y-29266D01*
X33388Y-29016D01*
X33365Y-28962D01*
X33324Y-28921D01*
X33365Y-28880D01*
X33388Y-28825D01*
X33388Y-28766D01*
X33388Y-28516D01*
X33383Y-28505D01*
X33451Y-28437D01*
X33489Y-28345D01*
X33489Y-27996D01*
X33451Y-27904D01*
X33381Y-27834D01*
X33289Y-27796D01*
X33190Y-27796D01*
X33061Y-27796D01*
X32998Y-27858D01*
X32998Y-28162D01*
X33427Y-28162D01*
X33489Y-28099D01*
X33489Y-27996D01*
X33489Y-28345D01*
X33489Y-28242D01*
X33427Y-28180D01*
X32998Y-28180D01*
X32998Y-28188D01*
X32980Y-28188D01*
X32980Y-28180D01*
X32980Y-28162D01*
X32980Y-27858D01*
X32918Y-27796D01*
X32789Y-27796D01*
X32689Y-27796D01*
X32597Y-27834D01*
X32527Y-27904D01*
X32489Y-27996D01*
X32489Y-28099D01*
X32552Y-28162D01*
X32980Y-28162D01*
X32980Y-28180D01*
X32552Y-28180D01*
X32489Y-28242D01*
X32489Y-28344D01*
X32437Y-28292D01*
X32437Y-26937D01*
X33192Y-26182D01*
X33217Y-26241D01*
X33297Y-26322D01*
X33402Y-26366D01*
X33516Y-26366D01*
X33621Y-26322D01*
X33687Y-26257D01*
X34702Y-26257D01*
X34774Y-26243D01*
X34835Y-26202D01*
X36415Y-24622D01*
X38600Y-24622D01*
X38671Y-24608D01*
X38732Y-24567D01*
X39368Y-23931D01*
X39494Y-23931D01*
X39503Y-23953D01*
X39545Y-23994D01*
X39599Y-24017D01*
X39658Y-24017D01*
X40158Y-24017D01*
X40213Y-23994D01*
X40255Y-23953D01*
X40277Y-23898D01*
X40277Y-23839D01*
X40277Y-23677D01*
X40430Y-23677D01*
X40501Y-23663D01*
X40562Y-23622D01*
X40937Y-23247D01*
X40978Y-23186D01*
X40978Y-23186D01*
X40992Y-23115D01*
X40992Y-18127D01*
X41304Y-17815D01*
X41342Y-17906D01*
X41362Y-17927D01*
X41322Y-17967D01*
X41278Y-18072D01*
X41278Y-18186D01*
X41322Y-18291D01*
X41402Y-18372D01*
X41507Y-18416D01*
X41621Y-18416D01*
X41726Y-18372D01*
X41807Y-18292D01*
X41845Y-18200D01*
X42409Y-18200D01*
X42387Y-18222D01*
X42318Y-18222D01*
X42142Y-18294D01*
X42008Y-18429D01*
X41935Y-18605D01*
X41934Y-18795D01*
X42007Y-18971D01*
X42142Y-19106D01*
X42317Y-19179D01*
X42508Y-19179D01*
X42684Y-19106D01*
X42818Y-18972D01*
X42891Y-18796D01*
X42891Y-18606D01*
X42819Y-18430D01*
X42764Y-18375D01*
X42782Y-18357D01*
X43079Y-18357D01*
X43008Y-18429D01*
X42935Y-18605D01*
X42934Y-18795D01*
X43007Y-18971D01*
X43142Y-19106D01*
X43225Y-19140D01*
X43225Y-19753D01*
X42711Y-20267D01*
X42670Y-20328D01*
X42656Y-20400D01*
X42656Y-20924D01*
X42610Y-20878D01*
X42518Y-20840D01*
X42416Y-20840D01*
X42353Y-20903D01*
X42353Y-21331D01*
X42361Y-21331D01*
X42361Y-21350D01*
X42353Y-21350D01*
X42353Y-21357D01*
X42335Y-21357D01*
X42335Y-21350D01*
X42335Y-21331D01*
X42335Y-20903D01*
X42272Y-20840D01*
X42169Y-20840D01*
X42078Y-20878D01*
X42007Y-20949D01*
X41969Y-21040D01*
X41969Y-21140D01*
X41969Y-21269D01*
X42031Y-21331D01*
X42335Y-21331D01*
X42335Y-21350D01*
X42031Y-21350D01*
X41969Y-21412D01*
X41969Y-21541D01*
X41969Y-21640D01*
X42007Y-21732D01*
X42078Y-21803D01*
X42138Y-21828D01*
X41107Y-22859D01*
X41066Y-22920D01*
X41052Y-22992D01*
X41052Y-25000D01*
X41066Y-25071D01*
X41107Y-25132D01*
X42725Y-26751D01*
X42725Y-26828D01*
X42769Y-26933D01*
X42849Y-27014D01*
X42954Y-27057D01*
X43068Y-27057D01*
X43173Y-27014D01*
X43254Y-26933D01*
X43297Y-26828D01*
X43298Y-26714D01*
X43254Y-26609D01*
X43174Y-26529D01*
X43068Y-26485D01*
X42991Y-26485D01*
X41427Y-24922D01*
X41427Y-23069D01*
X42361Y-22136D01*
X42454Y-22136D01*
X42412Y-22164D01*
X42412Y-22164D01*
X42412Y-22164D01*
X41619Y-22957D01*
X41578Y-23018D01*
X41564Y-23090D01*
X41564Y-24732D01*
X41578Y-24804D01*
X41619Y-24865D01*
X44302Y-27548D01*
X44302Y-27548D01*
G37*
G54D30*
X44302Y-27548D02*
X41102Y-27548D01*
X41030Y-27562D01*
X40969Y-27603D01*
X40009Y-28563D01*
X38757Y-28563D01*
X38793Y-28476D01*
X38794Y-28377D01*
X38793Y-28370D01*
X38731Y-28307D01*
X38495Y-28307D01*
X38495Y-28289D01*
X38731Y-28289D01*
X38793Y-28227D01*
X38794Y-28220D01*
X38793Y-28120D01*
X38755Y-28028D01*
X38685Y-27958D01*
X38593Y-27920D01*
X38556Y-27920D01*
X38494Y-27983D01*
X38494Y-28137D01*
X38475Y-28094D01*
X38475Y-27983D01*
X38413Y-27920D01*
X38376Y-27920D01*
X38284Y-27958D01*
X38220Y-28022D01*
X38199Y-28022D01*
X38189Y-28026D01*
X38179Y-28022D01*
X38158Y-28022D01*
X38094Y-27958D01*
X38002Y-27920D01*
X37965Y-27920D01*
X37903Y-27983D01*
X37903Y-28094D01*
X37884Y-28137D01*
X37884Y-27983D01*
X37822Y-27920D01*
X37785Y-27920D01*
X37693Y-27958D01*
X37623Y-28028D01*
X37585Y-28120D01*
X37584Y-28220D01*
X37584Y-28227D01*
X37647Y-28289D01*
X37883Y-28289D01*
X37883Y-28307D01*
X37647Y-28307D01*
X37584Y-28370D01*
X37584Y-28377D01*
X37585Y-28476D01*
X37623Y-28568D01*
X37626Y-28572D01*
X37106Y-28572D01*
X37034Y-28586D01*
X36973Y-28627D01*
X36973Y-28627D01*
X36973Y-28627D01*
X35117Y-30483D01*
X33374Y-30483D01*
X33365Y-30462D01*
X33324Y-30421D01*
X33365Y-30380D01*
X33388Y-30325D01*
X33388Y-30266D01*
X33388Y-30016D01*
X33365Y-29962D01*
X33324Y-29921D01*
X33365Y-29880D01*
X33388Y-29825D01*
X33388Y-29766D01*
X33388Y-29516D01*
X33365Y-29462D01*
X33324Y-29421D01*
X33365Y-29380D01*
X33388Y-29325D01*
X33388Y-29266D01*
X33388Y-29016D01*
X33365Y-28962D01*
X33324Y-28921D01*
X33365Y-28880D01*
X33388Y-28825D01*
X33388Y-28766D01*
X33388Y-28516D01*
X33383Y-28505D01*
X33451Y-28437D01*
X33489Y-28345D01*
X33489Y-27996D01*
X33451Y-27904D01*
X33381Y-27834D01*
X33289Y-27796D01*
X33190Y-27796D01*
X33061Y-27796D01*
X32998Y-27858D01*
X32998Y-28162D01*
X33427Y-28162D01*
X33489Y-28099D01*
X33489Y-27996D01*
X33489Y-28345D01*
X33489Y-28242D01*
X33427Y-28180D01*
X32998Y-28180D01*
X32998Y-28188D01*
X32980Y-28188D01*
X32980Y-28180D01*
X32980Y-28162D01*
X32980Y-27858D01*
X32918Y-27796D01*
X32789Y-27796D01*
X32689Y-27796D01*
X32597Y-27834D01*
X32527Y-27904D01*
X32489Y-27996D01*
X32489Y-28099D01*
X32552Y-28162D01*
X32980Y-28162D01*
X32980Y-28180D01*
X32552Y-28180D01*
X32489Y-28242D01*
X32489Y-28344D01*
X32437Y-28292D01*
X32437Y-26937D01*
X33192Y-26182D01*
X33217Y-26241D01*
X33297Y-26322D01*
X33402Y-26366D01*
X33516Y-26366D01*
X33621Y-26322D01*
X33687Y-26257D01*
X34702Y-26257D01*
X34774Y-26243D01*
X34835Y-26202D01*
X36415Y-24622D01*
X38600Y-24622D01*
X38671Y-24608D01*
X38732Y-24567D01*
X39368Y-23931D01*
X39494Y-23931D01*
X39503Y-23953D01*
X39545Y-23994D01*
X39599Y-24017D01*
X39658Y-24017D01*
X40158Y-24017D01*
X40213Y-23994D01*
X40255Y-23953D01*
X40277Y-23898D01*
X40277Y-23839D01*
X40277Y-23677D01*
X40430Y-23677D01*
X40501Y-23663D01*
X40562Y-23622D01*
X40937Y-23247D01*
X40978Y-23186D01*
X40978Y-23186D01*
X40992Y-23115D01*
X40992Y-18127D01*
X41304Y-17815D01*
X41342Y-17906D01*
X41362Y-17927D01*
X41322Y-17967D01*
X41278Y-18072D01*
X41278Y-18186D01*
X41322Y-18291D01*
X41402Y-18372D01*
X41507Y-18416D01*
X41621Y-18416D01*
X41726Y-18372D01*
X41807Y-18292D01*
X41845Y-18200D01*
X42409Y-18200D01*
X42387Y-18222D01*
X42318Y-18222D01*
X42142Y-18294D01*
X42008Y-18429D01*
X41935Y-18605D01*
X41934Y-18795D01*
X42007Y-18971D01*
X42142Y-19106D01*
X42317Y-19179D01*
X42508Y-19179D01*
X42684Y-19106D01*
X42818Y-18972D01*
X42891Y-18796D01*
X42891Y-18606D01*
X42819Y-18430D01*
X42764Y-18375D01*
X42782Y-18357D01*
X43079Y-18357D01*
X43008Y-18429D01*
X42935Y-18605D01*
X42934Y-18795D01*
X43007Y-18971D01*
X43142Y-19106D01*
X43225Y-19140D01*
X43225Y-19753D01*
X42711Y-20267D01*
X42670Y-20328D01*
X42656Y-20400D01*
X42656Y-20924D01*
X42610Y-20878D01*
X42518Y-20840D01*
X42416Y-20840D01*
X42353Y-20903D01*
X42353Y-21331D01*
X42361Y-21331D01*
X42361Y-21350D01*
X42353Y-21350D01*
X42353Y-21357D01*
X42335Y-21357D01*
X42335Y-21350D01*
X42335Y-21331D01*
X42335Y-20903D01*
X42272Y-20840D01*
X42169Y-20840D01*
X42078Y-20878D01*
X42007Y-20949D01*
X41969Y-21040D01*
X41969Y-21140D01*
X41969Y-21269D01*
X42031Y-21331D01*
X42335Y-21331D01*
X42335Y-21350D01*
X42031Y-21350D01*
X41969Y-21412D01*
X41969Y-21541D01*
X41969Y-21640D01*
X42007Y-21732D01*
X42078Y-21803D01*
X42138Y-21828D01*
X41107Y-22859D01*
X41066Y-22920D01*
X41052Y-22992D01*
X41052Y-25000D01*
X41066Y-25071D01*
X41107Y-25132D01*
X42725Y-26751D01*
X42725Y-26828D01*
X42769Y-26933D01*
X42849Y-27014D01*
X42954Y-27057D01*
X43068Y-27057D01*
X43173Y-27014D01*
X43254Y-26933D01*
X43297Y-26828D01*
X43298Y-26714D01*
X43254Y-26609D01*
X43174Y-26529D01*
X43068Y-26485D01*
X42991Y-26485D01*
X41427Y-24922D01*
X41427Y-23069D01*
X42361Y-22136D01*
X42454Y-22136D01*
X42412Y-22164D01*
X42412Y-22164D01*
X42412Y-22164D01*
X41619Y-22957D01*
X41578Y-23018D01*
X41564Y-23090D01*
X41564Y-24732D01*
X41578Y-24804D01*
X41619Y-24865D01*
X44302Y-27548D01*
G54D10*
G36*
X48650Y-48257D02*
X48180Y-48257D01*
X48180Y-46193D01*
X48180Y-10760D01*
X47978Y-10271D01*
X47604Y-9897D01*
X47116Y-9694D01*
X46587Y-9693D01*
X46098Y-9895D01*
X45723Y-10269D01*
X45521Y-10758D01*
X45520Y-11286D01*
X45722Y-11775D01*
X46096Y-12150D01*
X46584Y-12352D01*
X47113Y-12353D01*
X47602Y-12151D01*
X47976Y-11777D01*
X48179Y-11289D01*
X48180Y-10760D01*
X48180Y-46193D01*
X47978Y-45704D01*
X47604Y-45330D01*
X47323Y-45213D01*
X47323Y-31068D01*
X47323Y-26068D01*
X47193Y-25753D01*
X47193Y-19605D01*
X47144Y-19487D01*
X47053Y-19395D01*
X46934Y-19346D01*
X46812Y-19346D01*
X46672Y-19207D01*
X46672Y-19191D01*
X46696Y-19181D01*
X46738Y-19139D01*
X46761Y-19085D01*
X46761Y-19026D01*
X46761Y-18908D01*
X46757Y-18898D01*
X46761Y-18888D01*
X46761Y-18829D01*
X46761Y-18711D01*
X46757Y-18701D01*
X46761Y-18691D01*
X46761Y-18632D01*
X46761Y-18514D01*
X46757Y-18504D01*
X46761Y-18494D01*
X46761Y-18435D01*
X46761Y-18317D01*
X46738Y-18262D01*
X46697Y-18221D01*
X46642Y-18198D01*
X46583Y-18198D01*
X46327Y-18198D01*
X46272Y-18220D01*
X46258Y-18235D01*
X46244Y-18221D01*
X46189Y-18198D01*
X46130Y-18198D01*
X45874Y-18198D01*
X45826Y-18217D01*
X44832Y-18217D01*
X44832Y-12649D01*
X44734Y-12396D01*
X44714Y-12365D01*
X44600Y-12325D01*
X44587Y-12338D01*
X44587Y-12313D01*
X44547Y-12198D01*
X44299Y-12088D01*
X44027Y-12081D01*
X43993Y-12094D01*
X44179Y-11909D01*
X44311Y-11590D01*
X44311Y-11245D01*
X44180Y-10926D01*
X43936Y-10682D01*
X43618Y-10550D01*
X43273Y-10550D01*
X42954Y-10681D01*
X42710Y-10925D01*
X42578Y-11244D01*
X42577Y-11589D01*
X42709Y-11907D01*
X42953Y-12151D01*
X43271Y-12284D01*
X43616Y-12284D01*
X43730Y-12237D01*
X43703Y-12313D01*
X44145Y-12754D01*
X44587Y-12313D01*
X44587Y-12338D01*
X44158Y-12767D01*
X44600Y-13209D01*
X44714Y-13169D01*
X44824Y-12921D01*
X44832Y-12649D01*
X44832Y-18217D01*
X44756Y-18217D01*
X44587Y-18048D01*
X44587Y-13222D01*
X44145Y-12780D01*
X44132Y-12793D01*
X44132Y-12767D01*
X43691Y-12325D01*
X43576Y-12365D01*
X43466Y-12613D01*
X43459Y-12885D01*
X43556Y-13139D01*
X43576Y-13169D01*
X43691Y-13209D01*
X44132Y-12767D01*
X44132Y-12793D01*
X43703Y-13222D01*
X43743Y-13336D01*
X43991Y-13446D01*
X44263Y-13454D01*
X44517Y-13356D01*
X44547Y-13336D01*
X44587Y-13222D01*
X44587Y-18048D01*
X44103Y-17564D01*
X44042Y-17524D01*
X43970Y-17509D01*
X42380Y-17509D01*
X42356Y-17485D01*
X42356Y-17408D01*
X42312Y-17303D01*
X42232Y-17222D01*
X42127Y-17178D01*
X42013Y-17178D01*
X41908Y-17222D01*
X41827Y-17302D01*
X41783Y-17407D01*
X41783Y-17521D01*
X41795Y-17551D01*
X41747Y-17502D01*
X41642Y-17458D01*
X41528Y-17458D01*
X41428Y-17499D01*
X41428Y-17361D01*
X41448Y-17314D01*
X41448Y-17255D01*
X41448Y-16999D01*
X41425Y-16945D01*
X41411Y-16930D01*
X41425Y-16916D01*
X41448Y-16861D01*
X41448Y-16802D01*
X41448Y-16546D01*
X41428Y-16499D01*
X41428Y-14886D01*
X42483Y-13832D01*
X42523Y-13771D01*
X42538Y-13699D01*
X42538Y-13520D01*
X42601Y-13494D01*
X42726Y-13369D01*
X42794Y-13206D01*
X42794Y-13030D01*
X42726Y-12866D01*
X42602Y-12741D01*
X42439Y-12674D01*
X42431Y-12674D01*
X42491Y-12538D01*
X42496Y-12321D01*
X42418Y-12119D01*
X42404Y-12097D01*
X42304Y-12074D01*
X42291Y-12087D01*
X42291Y-12061D01*
X42268Y-11962D01*
X42069Y-11874D01*
X41852Y-11869D01*
X41650Y-11947D01*
X41629Y-11962D01*
X41606Y-12061D01*
X41948Y-12404D01*
X42291Y-12061D01*
X42291Y-12087D01*
X41961Y-12417D01*
X41967Y-12422D01*
X41954Y-12435D01*
X41948Y-12430D01*
X41943Y-12435D01*
X41930Y-12422D01*
X41936Y-12417D01*
X41593Y-12074D01*
X41493Y-12097D01*
X41481Y-12125D01*
X41397Y-12041D01*
X41234Y-11973D01*
X41057Y-11973D01*
X40894Y-12040D01*
X40813Y-12122D01*
X40811Y-12119D01*
X40797Y-12097D01*
X40697Y-12074D01*
X40685Y-12087D01*
X40685Y-12061D01*
X40662Y-11962D01*
X40463Y-11874D01*
X40246Y-11869D01*
X40044Y-11947D01*
X40022Y-11962D01*
X39999Y-12061D01*
X40342Y-12404D01*
X40685Y-12061D01*
X40685Y-12087D01*
X40355Y-12417D01*
X40360Y-12422D01*
X40348Y-12435D01*
X40342Y-12430D01*
X40336Y-12435D01*
X40324Y-12422D01*
X40329Y-12417D01*
X39987Y-12074D01*
X39887Y-12097D01*
X39875Y-12125D01*
X39791Y-12041D01*
X39628Y-11973D01*
X39451Y-11973D01*
X39311Y-12030D01*
X39311Y-11245D01*
X39180Y-10926D01*
X38936Y-10682D01*
X38618Y-10550D01*
X38273Y-10550D01*
X37954Y-10681D01*
X37710Y-10925D01*
X37578Y-11244D01*
X37577Y-11589D01*
X37709Y-11907D01*
X37889Y-12088D01*
X37626Y-12081D01*
X37372Y-12178D01*
X37342Y-12198D01*
X37302Y-12313D01*
X37744Y-12754D01*
X38185Y-12313D01*
X38159Y-12237D01*
X38271Y-12284D01*
X38616Y-12284D01*
X38935Y-12152D01*
X39179Y-11909D01*
X39311Y-11590D01*
X39311Y-11245D01*
X39311Y-12030D01*
X39288Y-12040D01*
X39163Y-12165D01*
X39095Y-12328D01*
X39095Y-12505D01*
X39162Y-12668D01*
X39287Y-12793D01*
X39450Y-12861D01*
X39569Y-12861D01*
X39564Y-12866D01*
X39497Y-13029D01*
X39496Y-13206D01*
X39564Y-13369D01*
X39689Y-13494D01*
X39753Y-13520D01*
X39753Y-13640D01*
X39767Y-13712D01*
X39808Y-13773D01*
X40462Y-14427D01*
X40462Y-16499D01*
X40442Y-16546D01*
X40442Y-16605D01*
X40442Y-16861D01*
X40464Y-16916D01*
X40479Y-16930D01*
X40465Y-16944D01*
X40454Y-16969D01*
X39062Y-16969D01*
X39062Y-16969D01*
X39048Y-16972D01*
X38991Y-16983D01*
X38930Y-17024D01*
X38930Y-17024D01*
X38430Y-17523D01*
X38430Y-12649D01*
X38333Y-12396D01*
X38312Y-12365D01*
X38198Y-12325D01*
X37756Y-12767D01*
X38198Y-13209D01*
X38312Y-13169D01*
X38423Y-12921D01*
X38430Y-12649D01*
X38430Y-17523D01*
X38185Y-17768D01*
X38185Y-13222D01*
X37744Y-12780D01*
X37731Y-12793D01*
X37731Y-12767D01*
X37289Y-12325D01*
X37175Y-12365D01*
X37064Y-12613D01*
X37057Y-12885D01*
X37155Y-13139D01*
X37175Y-13169D01*
X37289Y-13209D01*
X37731Y-12767D01*
X37731Y-12793D01*
X37302Y-13222D01*
X37342Y-13336D01*
X37590Y-13446D01*
X37861Y-13454D01*
X38115Y-13356D01*
X38146Y-13336D01*
X38185Y-13222D01*
X38185Y-17768D01*
X36958Y-18996D01*
X36958Y-12649D01*
X36860Y-12396D01*
X36840Y-12365D01*
X36726Y-12325D01*
X36713Y-12338D01*
X36713Y-12313D01*
X36673Y-12198D01*
X36425Y-12088D01*
X36153Y-12081D01*
X36119Y-12094D01*
X36305Y-11909D01*
X36437Y-11590D01*
X36437Y-11245D01*
X36306Y-10926D01*
X36062Y-10682D01*
X35744Y-10550D01*
X35399Y-10550D01*
X35080Y-10681D01*
X34836Y-10925D01*
X34704Y-11244D01*
X34703Y-11589D01*
X34835Y-11907D01*
X35079Y-12151D01*
X35397Y-12284D01*
X35742Y-12284D01*
X35856Y-12237D01*
X35829Y-12313D01*
X36271Y-12754D01*
X36713Y-12313D01*
X36713Y-12338D01*
X36284Y-12767D01*
X36726Y-13209D01*
X36840Y-13169D01*
X36950Y-12921D01*
X36958Y-12649D01*
X36958Y-18996D01*
X36713Y-19240D01*
X36713Y-13222D01*
X36271Y-12780D01*
X36258Y-12793D01*
X36258Y-12767D01*
X35817Y-12325D01*
X35702Y-12365D01*
X35592Y-12613D01*
X35585Y-12885D01*
X35682Y-13139D01*
X35702Y-13169D01*
X35817Y-13209D01*
X36258Y-12767D01*
X36258Y-12793D01*
X35829Y-13222D01*
X35869Y-13336D01*
X36117Y-13446D01*
X36389Y-13454D01*
X36643Y-13356D01*
X36673Y-13336D01*
X36713Y-13222D01*
X36713Y-19240D01*
X36152Y-19802D01*
X36111Y-19863D01*
X36097Y-19935D01*
X36097Y-20757D01*
X36017Y-20836D01*
X36017Y-18606D01*
X35945Y-18430D01*
X35810Y-18295D01*
X35634Y-18222D01*
X35444Y-18222D01*
X35268Y-18294D01*
X35134Y-18429D01*
X35061Y-18605D01*
X35060Y-18795D01*
X35133Y-18971D01*
X35268Y-19106D01*
X35443Y-19179D01*
X35634Y-19179D01*
X35810Y-19106D01*
X35944Y-18972D01*
X36017Y-18796D01*
X36017Y-18606D01*
X36017Y-20836D01*
X35542Y-21312D01*
X35356Y-21312D01*
X35356Y-21089D01*
X35334Y-21035D01*
X35293Y-20994D01*
X35334Y-20953D01*
X35356Y-20898D01*
X35356Y-20839D01*
X35356Y-20589D01*
X35334Y-20535D01*
X35292Y-20493D01*
X35237Y-20470D01*
X35178Y-20470D01*
X35017Y-20470D01*
X35017Y-18606D01*
X34945Y-18430D01*
X34810Y-18295D01*
X34634Y-18222D01*
X34444Y-18222D01*
X34268Y-18294D01*
X34134Y-18429D01*
X34061Y-18605D01*
X34060Y-18795D01*
X34133Y-18971D01*
X34268Y-19106D01*
X34443Y-19179D01*
X34634Y-19179D01*
X34810Y-19106D01*
X34944Y-18972D01*
X35017Y-18796D01*
X35017Y-18606D01*
X35017Y-20470D01*
X34678Y-20470D01*
X34624Y-20493D01*
X34620Y-20497D01*
X34434Y-20497D01*
X34433Y-20495D01*
X34314Y-20446D01*
X34185Y-20446D01*
X34067Y-20495D01*
X34020Y-20542D01*
X34020Y-19174D01*
X34005Y-19102D01*
X33965Y-19041D01*
X33751Y-18827D01*
X33751Y-17361D01*
X33771Y-17314D01*
X33771Y-17255D01*
X33771Y-16999D01*
X33748Y-16945D01*
X33734Y-16930D01*
X33748Y-16916D01*
X33771Y-16861D01*
X33771Y-16802D01*
X33771Y-16546D01*
X33751Y-16499D01*
X33751Y-14754D01*
X34609Y-13896D01*
X34649Y-13835D01*
X34649Y-13835D01*
X34664Y-13763D01*
X34664Y-13520D01*
X34727Y-13494D01*
X34852Y-13369D01*
X34920Y-13206D01*
X34920Y-13030D01*
X34852Y-12866D01*
X34728Y-12741D01*
X34565Y-12674D01*
X34557Y-12674D01*
X34617Y-12538D01*
X34622Y-12321D01*
X34544Y-12119D01*
X34530Y-12097D01*
X34430Y-12074D01*
X34417Y-12087D01*
X34417Y-12061D01*
X34394Y-11962D01*
X34195Y-11874D01*
X33978Y-11869D01*
X33776Y-11947D01*
X33755Y-11962D01*
X33732Y-12061D01*
X34074Y-12404D01*
X34417Y-12061D01*
X34417Y-12087D01*
X34087Y-12417D01*
X34093Y-12422D01*
X34080Y-12435D01*
X34074Y-12430D01*
X34069Y-12435D01*
X34056Y-12422D01*
X34061Y-12417D01*
X33719Y-12074D01*
X33619Y-12097D01*
X33607Y-12125D01*
X33523Y-12041D01*
X33360Y-11973D01*
X33183Y-11973D01*
X33020Y-12040D01*
X32939Y-12122D01*
X32937Y-12119D01*
X32923Y-12097D01*
X32823Y-12074D01*
X32811Y-12087D01*
X32811Y-12061D01*
X32788Y-11962D01*
X32589Y-11874D01*
X32372Y-11869D01*
X32170Y-11947D01*
X32148Y-11962D01*
X32125Y-12061D01*
X32468Y-12404D01*
X32811Y-12061D01*
X32811Y-12087D01*
X32481Y-12417D01*
X32486Y-12422D01*
X32474Y-12435D01*
X32468Y-12430D01*
X32462Y-12435D01*
X32450Y-12422D01*
X32455Y-12417D01*
X32113Y-12074D01*
X32013Y-12097D01*
X32001Y-12125D01*
X31917Y-12041D01*
X31754Y-11973D01*
X31577Y-11973D01*
X31437Y-12030D01*
X31437Y-11245D01*
X31306Y-10926D01*
X31062Y-10682D01*
X30744Y-10550D01*
X30399Y-10550D01*
X30080Y-10681D01*
X29836Y-10925D01*
X29704Y-11244D01*
X29703Y-11589D01*
X29835Y-11907D01*
X30015Y-12088D01*
X29752Y-12081D01*
X29498Y-12178D01*
X29468Y-12198D01*
X29428Y-12313D01*
X29870Y-12754D01*
X30311Y-12313D01*
X30285Y-12237D01*
X30397Y-12284D01*
X30742Y-12284D01*
X31061Y-12152D01*
X31305Y-11909D01*
X31437Y-11590D01*
X31437Y-11245D01*
X31437Y-12030D01*
X31414Y-12040D01*
X31289Y-12165D01*
X31221Y-12328D01*
X31221Y-12505D01*
X31288Y-12668D01*
X31413Y-12793D01*
X31576Y-12861D01*
X31695Y-12861D01*
X31690Y-12866D01*
X31623Y-13029D01*
X31622Y-13206D01*
X31690Y-13369D01*
X31815Y-13494D01*
X31879Y-13520D01*
X31879Y-13546D01*
X31893Y-13618D01*
X31934Y-13679D01*
X32784Y-14530D01*
X32784Y-16499D01*
X32765Y-16546D01*
X32765Y-16605D01*
X32765Y-16861D01*
X32787Y-16916D01*
X32802Y-16930D01*
X32787Y-16944D01*
X32765Y-16999D01*
X32765Y-17058D01*
X32765Y-17314D01*
X32784Y-17362D01*
X32784Y-18982D01*
X32799Y-19054D01*
X32839Y-19115D01*
X33172Y-19447D01*
X33172Y-20922D01*
X33096Y-20997D01*
X33093Y-20994D01*
X33134Y-20953D01*
X33156Y-20898D01*
X33156Y-20839D01*
X33156Y-20589D01*
X33134Y-20535D01*
X33092Y-20493D01*
X33037Y-20470D01*
X32978Y-20470D01*
X32478Y-20470D01*
X32424Y-20493D01*
X32382Y-20534D01*
X32373Y-20556D01*
X32295Y-20556D01*
X32224Y-20570D01*
X32163Y-20611D01*
X31872Y-20902D01*
X31831Y-20963D01*
X31817Y-21035D01*
X31817Y-22704D01*
X30556Y-23965D01*
X30556Y-12649D01*
X30459Y-12396D01*
X30438Y-12365D01*
X30324Y-12325D01*
X29882Y-12767D01*
X30324Y-13209D01*
X30438Y-13169D01*
X30549Y-12921D01*
X30556Y-12649D01*
X30556Y-23965D01*
X30311Y-24209D01*
X30311Y-13222D01*
X29870Y-12780D01*
X29857Y-12793D01*
X29857Y-12767D01*
X29415Y-12325D01*
X29301Y-12365D01*
X29190Y-12613D01*
X29183Y-12885D01*
X29281Y-13139D01*
X29301Y-13169D01*
X29415Y-13209D01*
X29857Y-12767D01*
X29857Y-12793D01*
X29428Y-13222D01*
X29468Y-13336D01*
X29716Y-13446D01*
X29987Y-13454D01*
X30241Y-13356D01*
X30272Y-13336D01*
X30311Y-13222D01*
X30311Y-24209D01*
X29477Y-25044D01*
X29436Y-25105D01*
X29422Y-25177D01*
X29422Y-25783D01*
X29413Y-25787D01*
X29332Y-25867D01*
X29292Y-25963D01*
X29292Y-24615D01*
X29292Y-24614D01*
X29292Y-24614D01*
X29289Y-24600D01*
X29278Y-24543D01*
X29278Y-24543D01*
X29237Y-24482D01*
X29237Y-24482D01*
X29084Y-24328D01*
X29084Y-12649D01*
X28986Y-12396D01*
X28966Y-12365D01*
X28852Y-12325D01*
X28839Y-12338D01*
X28839Y-12313D01*
X28799Y-12198D01*
X28551Y-12088D01*
X28279Y-12081D01*
X28245Y-12094D01*
X28431Y-11909D01*
X28563Y-11590D01*
X28563Y-11245D01*
X28432Y-10926D01*
X28188Y-10682D01*
X27870Y-10550D01*
X27525Y-10550D01*
X27206Y-10681D01*
X26962Y-10925D01*
X26830Y-11244D01*
X26829Y-11589D01*
X26961Y-11907D01*
X27205Y-12151D01*
X27523Y-12284D01*
X27868Y-12284D01*
X27982Y-12237D01*
X27955Y-12313D01*
X28397Y-12754D01*
X28839Y-12313D01*
X28839Y-12338D01*
X28410Y-12767D01*
X28852Y-13209D01*
X28966Y-13169D01*
X29076Y-12921D01*
X29084Y-12649D01*
X29084Y-24328D01*
X28839Y-24083D01*
X28839Y-13222D01*
X28397Y-12780D01*
X28384Y-12793D01*
X28384Y-12767D01*
X27943Y-12325D01*
X27828Y-12365D01*
X27718Y-12613D01*
X27711Y-12885D01*
X27808Y-13139D01*
X27828Y-13169D01*
X27943Y-13209D01*
X28384Y-12767D01*
X28384Y-12793D01*
X27955Y-13222D01*
X27995Y-13336D01*
X28243Y-13446D01*
X28515Y-13454D01*
X28769Y-13356D01*
X28799Y-13336D01*
X28839Y-13222D01*
X28839Y-24083D01*
X28143Y-23388D01*
X28143Y-18606D01*
X28071Y-18430D01*
X27936Y-18295D01*
X27760Y-18222D01*
X27570Y-18222D01*
X27394Y-18294D01*
X27260Y-18429D01*
X27187Y-18605D01*
X27186Y-18795D01*
X27259Y-18971D01*
X27393Y-19106D01*
X27569Y-19179D01*
X27760Y-19179D01*
X27936Y-19106D01*
X28070Y-18972D01*
X28143Y-18796D01*
X28143Y-18606D01*
X28143Y-23388D01*
X27143Y-22388D01*
X27143Y-18606D01*
X27071Y-18430D01*
X26936Y-18295D01*
X26760Y-18222D01*
X26570Y-18222D01*
X26394Y-18294D01*
X26260Y-18429D01*
X26187Y-18605D01*
X26186Y-18795D01*
X26259Y-18971D01*
X26393Y-19106D01*
X26569Y-19179D01*
X26760Y-19179D01*
X26936Y-19106D01*
X27070Y-18972D01*
X27143Y-18796D01*
X27143Y-18606D01*
X27143Y-22388D01*
X26366Y-21611D01*
X26305Y-21570D01*
X26234Y-21556D01*
X26090Y-21556D01*
X26082Y-21535D01*
X26041Y-21494D01*
X26082Y-21453D01*
X26104Y-21398D01*
X26104Y-21339D01*
X26104Y-21089D01*
X26100Y-21078D01*
X26168Y-21010D01*
X26206Y-20918D01*
X26206Y-20569D01*
X26168Y-20477D01*
X26098Y-20407D01*
X26006Y-20369D01*
X25906Y-20369D01*
X25777Y-20369D01*
X25715Y-20431D01*
X25715Y-20735D01*
X26143Y-20735D01*
X26206Y-20672D01*
X26206Y-20569D01*
X26206Y-20918D01*
X26206Y-20815D01*
X26143Y-20753D01*
X25715Y-20753D01*
X25715Y-20761D01*
X25697Y-20761D01*
X25697Y-20753D01*
X25697Y-20735D01*
X25697Y-20431D01*
X25634Y-20369D01*
X25505Y-20369D01*
X25406Y-20369D01*
X25314Y-20407D01*
X25244Y-20477D01*
X25206Y-20569D01*
X25206Y-20672D01*
X25268Y-20735D01*
X25697Y-20735D01*
X25697Y-20753D01*
X25268Y-20753D01*
X25206Y-20815D01*
X25206Y-20918D01*
X25244Y-21010D01*
X25294Y-21060D01*
X25244Y-21070D01*
X25183Y-21111D01*
X25183Y-21111D01*
X24567Y-21727D01*
X24565Y-21730D01*
X24565Y-20413D01*
X25428Y-19549D01*
X25428Y-19549D01*
X25428Y-19549D01*
X25469Y-19489D01*
X25469Y-19489D01*
X25483Y-19417D01*
X25483Y-19417D01*
X25483Y-17361D01*
X25503Y-17314D01*
X25503Y-17255D01*
X25503Y-16999D01*
X25480Y-16945D01*
X25466Y-16930D01*
X25480Y-16916D01*
X25503Y-16861D01*
X25503Y-16802D01*
X25503Y-16546D01*
X25483Y-16499D01*
X25483Y-15161D01*
X26735Y-13910D01*
X26735Y-13910D01*
X26735Y-13910D01*
X26775Y-13849D01*
X26775Y-13849D01*
X26790Y-13777D01*
X26790Y-13777D01*
X26790Y-13520D01*
X26853Y-13494D01*
X26978Y-13369D01*
X27046Y-13206D01*
X27046Y-13030D01*
X26978Y-12866D01*
X26854Y-12741D01*
X26691Y-12674D01*
X26683Y-12674D01*
X26743Y-12538D01*
X26748Y-12321D01*
X26670Y-12119D01*
X26656Y-12097D01*
X26556Y-12074D01*
X26543Y-12087D01*
X26543Y-12061D01*
X26520Y-11962D01*
X26321Y-11874D01*
X26104Y-11869D01*
X25902Y-11947D01*
X25881Y-11962D01*
X25858Y-12061D01*
X26200Y-12404D01*
X26543Y-12061D01*
X26543Y-12087D01*
X26213Y-12417D01*
X26219Y-12422D01*
X26206Y-12435D01*
X26200Y-12430D01*
X26195Y-12435D01*
X26182Y-12422D01*
X26187Y-12417D01*
X25845Y-12074D01*
X25745Y-12097D01*
X25733Y-12125D01*
X25649Y-12041D01*
X25486Y-11973D01*
X25309Y-11973D01*
X25146Y-12040D01*
X25065Y-12122D01*
X25063Y-12119D01*
X25049Y-12097D01*
X24949Y-12074D01*
X24937Y-12087D01*
X24937Y-12061D01*
X24914Y-11962D01*
X24715Y-11874D01*
X24498Y-11869D01*
X24296Y-11947D01*
X24274Y-11962D01*
X24251Y-12061D01*
X24594Y-12404D01*
X24937Y-12061D01*
X24937Y-12087D01*
X24607Y-12417D01*
X24612Y-12422D01*
X24600Y-12435D01*
X24594Y-12430D01*
X24588Y-12435D01*
X24576Y-12422D01*
X24581Y-12417D01*
X24239Y-12074D01*
X24139Y-12097D01*
X24127Y-12125D01*
X24043Y-12041D01*
X23880Y-11973D01*
X23703Y-11973D01*
X23563Y-12030D01*
X23563Y-11245D01*
X23432Y-10926D01*
X23188Y-10682D01*
X22870Y-10550D01*
X22525Y-10550D01*
X22206Y-10681D01*
X21962Y-10925D01*
X21830Y-11244D01*
X21829Y-11589D01*
X21961Y-11907D01*
X22141Y-12088D01*
X21878Y-12081D01*
X21624Y-12178D01*
X21594Y-12198D01*
X21554Y-12313D01*
X21996Y-12754D01*
X22437Y-12313D01*
X22411Y-12237D01*
X22523Y-12284D01*
X22868Y-12284D01*
X23187Y-12152D01*
X23431Y-11909D01*
X23563Y-11590D01*
X23563Y-11245D01*
X23563Y-12030D01*
X23540Y-12040D01*
X23415Y-12165D01*
X23347Y-12328D01*
X23347Y-12505D01*
X23414Y-12668D01*
X23539Y-12793D01*
X23702Y-12861D01*
X23821Y-12861D01*
X23816Y-12866D01*
X23749Y-13029D01*
X23748Y-13206D01*
X23816Y-13369D01*
X23941Y-13494D01*
X24005Y-13520D01*
X24005Y-14277D01*
X24019Y-14349D01*
X24060Y-14410D01*
X24517Y-14867D01*
X24517Y-16499D01*
X24497Y-16546D01*
X24497Y-16605D01*
X24497Y-16861D01*
X24520Y-16916D01*
X24534Y-16930D01*
X24520Y-16944D01*
X24497Y-16999D01*
X24497Y-17058D01*
X24497Y-17314D01*
X24517Y-17362D01*
X24517Y-19262D01*
X23798Y-19980D01*
X23762Y-19893D01*
X23682Y-19812D01*
X23577Y-19768D01*
X23499Y-19768D01*
X22682Y-18951D01*
X22682Y-12649D01*
X22585Y-12396D01*
X22564Y-12365D01*
X22450Y-12325D01*
X22008Y-12767D01*
X22450Y-13209D01*
X22564Y-13169D01*
X22675Y-12921D01*
X22682Y-12649D01*
X22682Y-18951D01*
X22437Y-18707D01*
X22437Y-13222D01*
X21996Y-12780D01*
X21983Y-12793D01*
X21983Y-12767D01*
X21541Y-12325D01*
X21427Y-12365D01*
X21316Y-12613D01*
X21309Y-12885D01*
X21407Y-13139D01*
X21427Y-13169D01*
X21541Y-13209D01*
X21983Y-12767D01*
X21983Y-12793D01*
X21554Y-13222D01*
X21594Y-13336D01*
X21842Y-13446D01*
X22113Y-13454D01*
X22367Y-13356D01*
X22398Y-13336D01*
X22437Y-13222D01*
X22437Y-18707D01*
X21210Y-17479D01*
X21210Y-12649D01*
X21112Y-12396D01*
X21092Y-12365D01*
X20978Y-12325D01*
X20965Y-12338D01*
X20965Y-12313D01*
X20925Y-12198D01*
X20677Y-12088D01*
X20405Y-12081D01*
X20371Y-12094D01*
X20557Y-11909D01*
X20689Y-11590D01*
X20689Y-11245D01*
X20558Y-10926D01*
X20314Y-10682D01*
X19996Y-10550D01*
X19651Y-10550D01*
X19332Y-10681D01*
X19088Y-10925D01*
X18956Y-11244D01*
X18955Y-11589D01*
X19087Y-11907D01*
X19331Y-12151D01*
X19649Y-12284D01*
X19994Y-12284D01*
X20108Y-12237D01*
X20081Y-12313D01*
X20523Y-12754D01*
X20965Y-12313D01*
X20965Y-12338D01*
X20536Y-12767D01*
X20978Y-13209D01*
X21092Y-13169D01*
X21202Y-12921D01*
X21210Y-12649D01*
X21210Y-17479D01*
X20965Y-17234D01*
X20965Y-13222D01*
X20523Y-12780D01*
X20510Y-12793D01*
X20510Y-12767D01*
X20068Y-12325D01*
X19954Y-12365D01*
X19844Y-12613D01*
X19837Y-12885D01*
X19934Y-13139D01*
X19954Y-13169D01*
X20068Y-13209D01*
X20510Y-12767D01*
X20510Y-12793D01*
X20081Y-13222D01*
X20121Y-13336D01*
X20369Y-13446D01*
X20641Y-13454D01*
X20895Y-13356D01*
X20925Y-13336D01*
X20965Y-13222D01*
X20965Y-17234D01*
X20754Y-17024D01*
X20694Y-16983D01*
X20622Y-16969D01*
X17813Y-16969D01*
X17803Y-16945D01*
X17789Y-16930D01*
X17803Y-16916D01*
X17826Y-16861D01*
X17826Y-16802D01*
X17826Y-16546D01*
X17806Y-16499D01*
X17806Y-14798D01*
X18861Y-13744D01*
X18901Y-13683D01*
X18916Y-13611D01*
X18916Y-13520D01*
X18979Y-13494D01*
X19104Y-13369D01*
X19172Y-13206D01*
X19172Y-13030D01*
X19104Y-12866D01*
X18980Y-12741D01*
X18817Y-12674D01*
X18809Y-12674D01*
X18869Y-12538D01*
X18874Y-12321D01*
X18796Y-12119D01*
X18781Y-12097D01*
X18682Y-12074D01*
X18669Y-12087D01*
X18669Y-12061D01*
X18646Y-11962D01*
X18447Y-11874D01*
X18230Y-11869D01*
X18028Y-11947D01*
X18007Y-11962D01*
X17984Y-12061D01*
X18326Y-12404D01*
X18669Y-12061D01*
X18669Y-12087D01*
X18339Y-12417D01*
X18345Y-12422D01*
X18332Y-12435D01*
X18326Y-12430D01*
X18321Y-12435D01*
X18308Y-12422D01*
X18313Y-12417D01*
X17971Y-12074D01*
X17871Y-12097D01*
X17859Y-12125D01*
X17775Y-12041D01*
X17612Y-11973D01*
X17435Y-11973D01*
X17272Y-12040D01*
X17191Y-12122D01*
X17189Y-12119D01*
X17175Y-12097D01*
X17075Y-12074D01*
X17063Y-12087D01*
X17063Y-12061D01*
X17040Y-11962D01*
X16841Y-11874D01*
X16624Y-11869D01*
X16422Y-11947D01*
X16400Y-11962D01*
X16377Y-12061D01*
X16720Y-12404D01*
X17063Y-12061D01*
X17063Y-12087D01*
X16733Y-12417D01*
X16738Y-12422D01*
X16726Y-12435D01*
X16720Y-12430D01*
X16714Y-12435D01*
X16702Y-12422D01*
X16707Y-12417D01*
X16365Y-12074D01*
X16265Y-12097D01*
X16253Y-12125D01*
X16169Y-12041D01*
X16006Y-11973D01*
X15829Y-11973D01*
X15689Y-12030D01*
X15689Y-11245D01*
X15558Y-10926D01*
X15314Y-10682D01*
X14996Y-10550D01*
X14651Y-10550D01*
X14332Y-10681D01*
X14088Y-10925D01*
X13956Y-11244D01*
X13955Y-11589D01*
X14087Y-11907D01*
X14267Y-12088D01*
X14004Y-12081D01*
X13750Y-12178D01*
X13720Y-12198D01*
X13680Y-12313D01*
X14122Y-12754D01*
X14563Y-12313D01*
X14537Y-12237D01*
X14649Y-12284D01*
X14994Y-12284D01*
X15313Y-12152D01*
X15557Y-11909D01*
X15689Y-11590D01*
X15689Y-11245D01*
X15689Y-12030D01*
X15666Y-12040D01*
X15541Y-12165D01*
X15473Y-12328D01*
X15473Y-12505D01*
X15540Y-12668D01*
X15665Y-12793D01*
X15828Y-12861D01*
X15947Y-12861D01*
X15942Y-12866D01*
X15875Y-13029D01*
X15874Y-13206D01*
X15942Y-13369D01*
X16067Y-13494D01*
X16131Y-13520D01*
X16131Y-13798D01*
X16145Y-13870D01*
X16186Y-13931D01*
X16840Y-14585D01*
X16840Y-16499D01*
X16820Y-16546D01*
X16820Y-16605D01*
X16820Y-16861D01*
X16842Y-16916D01*
X16857Y-16930D01*
X16843Y-16944D01*
X16820Y-16999D01*
X16820Y-17058D01*
X16820Y-17314D01*
X16840Y-17362D01*
X16840Y-25039D01*
X16840Y-25275D01*
X16854Y-25347D01*
X16895Y-25408D01*
X20442Y-28955D01*
X20442Y-28975D01*
X20431Y-28950D01*
X20340Y-28859D01*
X20222Y-28810D01*
X20183Y-28810D01*
X19721Y-28349D01*
X17910Y-26538D01*
X16572Y-25199D01*
X16572Y-25199D01*
X16375Y-25002D01*
X16375Y-25002D01*
X16132Y-24759D01*
X16132Y-21397D01*
X16149Y-21385D01*
X16484Y-21051D01*
X16484Y-21051D01*
X16484Y-21051D01*
X16559Y-20939D01*
X16559Y-20939D01*
X16585Y-20807D01*
X16585Y-20196D01*
X16559Y-20064D01*
X16559Y-20064D01*
X16529Y-20019D01*
X16484Y-19952D01*
X16484Y-19952D01*
X15952Y-19421D01*
X15952Y-19421D01*
X15381Y-18850D01*
X15269Y-18775D01*
X15137Y-18749D01*
X14808Y-18749D01*
X14808Y-12649D01*
X14711Y-12396D01*
X14690Y-12365D01*
X14576Y-12325D01*
X14134Y-12767D01*
X14576Y-13209D01*
X14690Y-13169D01*
X14801Y-12921D01*
X14808Y-12649D01*
X14808Y-18749D01*
X14563Y-18749D01*
X14563Y-13222D01*
X14122Y-12780D01*
X14109Y-12793D01*
X14109Y-12767D01*
X13667Y-12325D01*
X13553Y-12365D01*
X13442Y-12613D01*
X13435Y-12885D01*
X13533Y-13139D01*
X13553Y-13169D01*
X13667Y-13209D01*
X14109Y-12767D01*
X14109Y-12793D01*
X13680Y-13222D01*
X13720Y-13336D01*
X13968Y-13446D01*
X14239Y-13454D01*
X14493Y-13356D01*
X14524Y-13336D01*
X14563Y-13222D01*
X14563Y-18749D01*
X14461Y-18749D01*
X14455Y-18735D01*
X14413Y-18693D01*
X14359Y-18671D01*
X14300Y-18671D01*
X13950Y-18671D01*
X13895Y-18693D01*
X13853Y-18735D01*
X13831Y-18789D01*
X13831Y-18848D01*
X13831Y-18984D01*
X13829Y-18992D01*
X13829Y-18868D01*
X13829Y-18769D01*
X13791Y-18677D01*
X13720Y-18607D01*
X13629Y-18569D01*
X13476Y-18569D01*
X13413Y-18631D01*
X13413Y-19085D01*
X13421Y-19085D01*
X13421Y-19103D01*
X13413Y-19103D01*
X13413Y-19111D01*
X13395Y-19111D01*
X13395Y-19103D01*
X13395Y-19085D01*
X13395Y-18631D01*
X13332Y-18569D01*
X13180Y-18569D01*
X13088Y-18607D01*
X13017Y-18677D01*
X12979Y-18769D01*
X12979Y-18868D01*
X12979Y-19022D01*
X13042Y-19085D01*
X13395Y-19085D01*
X13395Y-19103D01*
X13042Y-19103D01*
X12979Y-19166D01*
X12979Y-19319D01*
X12979Y-19419D01*
X13017Y-19511D01*
X13088Y-19581D01*
X13180Y-19619D01*
X13332Y-19619D01*
X13395Y-19556D01*
X13395Y-19562D01*
X13014Y-19943D01*
X12960Y-20023D01*
X12942Y-20118D01*
X12942Y-20382D01*
X12844Y-20382D01*
X12790Y-20404D01*
X12748Y-20446D01*
X12747Y-20449D01*
X12747Y-10760D01*
X12545Y-10271D01*
X12171Y-9897D01*
X11682Y-9694D01*
X11154Y-9693D01*
X10665Y-9895D01*
X10290Y-10269D01*
X10088Y-10758D01*
X10087Y-11286D01*
X10289Y-11775D01*
X10663Y-12150D01*
X11151Y-12352D01*
X11680Y-12353D01*
X12169Y-12151D01*
X12543Y-11777D01*
X12746Y-11289D01*
X12747Y-10760D01*
X12747Y-20449D01*
X12725Y-20501D01*
X12725Y-20560D01*
X12725Y-20836D01*
X12748Y-20890D01*
X12756Y-20899D01*
X12731Y-20910D01*
X12661Y-20980D01*
X12623Y-21072D01*
X12623Y-21188D01*
X12686Y-21250D01*
X13277Y-21250D01*
X13277Y-21242D01*
X13296Y-21242D01*
X13296Y-21250D01*
X13503Y-21250D01*
X13888Y-21250D01*
X14222Y-21250D01*
X14222Y-20678D01*
X14160Y-20616D01*
X13740Y-20616D01*
X13652Y-20616D01*
X13652Y-20501D01*
X13629Y-20446D01*
X13588Y-20405D01*
X13533Y-20382D01*
X13474Y-20382D01*
X13435Y-20382D01*
X13435Y-20220D01*
X13684Y-19971D01*
X14055Y-19971D01*
X14149Y-19952D01*
X14149Y-19952D01*
X14229Y-19898D01*
X14329Y-19799D01*
X14329Y-19799D01*
X14329Y-19799D01*
X14382Y-19719D01*
X14382Y-19719D01*
X14401Y-19625D01*
X14401Y-19625D01*
X14401Y-19500D01*
X14413Y-19495D01*
X14455Y-19453D01*
X14461Y-19439D01*
X14994Y-19439D01*
X15464Y-19909D01*
X15464Y-19909D01*
X15751Y-20196D01*
X15661Y-20287D01*
X15586Y-20399D01*
X15560Y-20531D01*
X15560Y-21141D01*
X15586Y-21273D01*
X15638Y-21352D01*
X15638Y-24862D01*
X15657Y-24956D01*
X15711Y-25036D01*
X16026Y-25351D01*
X16026Y-25351D01*
X16223Y-25548D01*
X16223Y-25548D01*
X17561Y-26887D01*
X19372Y-28698D01*
X19834Y-29159D01*
X19833Y-29197D01*
X19883Y-29316D01*
X19974Y-29407D01*
X20092Y-29457D01*
X20221Y-29457D01*
X20340Y-29408D01*
X20431Y-29317D01*
X20480Y-29198D01*
X20480Y-29127D01*
X20485Y-29138D01*
X20566Y-29218D01*
X20671Y-29262D01*
X20785Y-29262D01*
X20890Y-29219D01*
X20970Y-29138D01*
X20985Y-29103D01*
X21084Y-29144D01*
X21198Y-29144D01*
X21303Y-29101D01*
X21384Y-29020D01*
X21427Y-28915D01*
X21428Y-28801D01*
X21384Y-28696D01*
X21304Y-28615D01*
X21198Y-28572D01*
X21121Y-28572D01*
X20269Y-27720D01*
X20269Y-18606D01*
X20197Y-18430D01*
X20062Y-18295D01*
X19886Y-18222D01*
X19696Y-18222D01*
X19520Y-18294D01*
X19385Y-18429D01*
X19312Y-18605D01*
X19312Y-18795D01*
X19385Y-18971D01*
X19519Y-19106D01*
X19695Y-19179D01*
X19886Y-19179D01*
X20061Y-19106D01*
X20196Y-18972D01*
X20269Y-18796D01*
X20269Y-18606D01*
X20269Y-27720D01*
X19269Y-26720D01*
X19269Y-18606D01*
X19197Y-18430D01*
X19062Y-18295D01*
X18886Y-18222D01*
X18696Y-18222D01*
X18520Y-18294D01*
X18385Y-18429D01*
X18312Y-18605D01*
X18312Y-18795D01*
X18385Y-18971D01*
X18519Y-19106D01*
X18695Y-19179D01*
X18886Y-19179D01*
X19061Y-19106D01*
X19196Y-18972D01*
X19269Y-18796D01*
X19269Y-18606D01*
X19269Y-26720D01*
X17412Y-24863D01*
X17412Y-24822D01*
X17412Y-17673D01*
X17458Y-17703D01*
X17530Y-17717D01*
X20342Y-17717D01*
X22678Y-20054D01*
X22678Y-20131D01*
X22722Y-20236D01*
X22802Y-20317D01*
X22907Y-20361D01*
X22922Y-20361D01*
X22901Y-20393D01*
X22887Y-20465D01*
X22887Y-20885D01*
X22901Y-20956D01*
X22942Y-21017D01*
X22980Y-21056D01*
X22975Y-21056D01*
X22904Y-21070D01*
X22843Y-21111D01*
X22843Y-21111D01*
X22843Y-21111D01*
X21717Y-22237D01*
X21676Y-22298D01*
X21662Y-22370D01*
X21662Y-23950D01*
X21676Y-24021D01*
X21717Y-24082D01*
X24403Y-26769D01*
X24403Y-26846D01*
X24447Y-26951D01*
X24527Y-27032D01*
X24632Y-27076D01*
X24746Y-27076D01*
X24807Y-27051D01*
X24807Y-28985D01*
X24821Y-29056D01*
X24862Y-29117D01*
X25048Y-29304D01*
X25109Y-29344D01*
X25109Y-29344D01*
X25181Y-29359D01*
X25287Y-29359D01*
X25295Y-29380D01*
X25336Y-29421D01*
X25295Y-29462D01*
X25273Y-29516D01*
X25273Y-29575D01*
X25273Y-29825D01*
X25295Y-29880D01*
X25336Y-29921D01*
X25295Y-29962D01*
X25287Y-29983D01*
X20049Y-29983D01*
X18873Y-28808D01*
X18812Y-28767D01*
X18740Y-28753D01*
X15023Y-28753D01*
X15023Y-21702D01*
X15023Y-20816D01*
X14985Y-20724D01*
X14915Y-20654D01*
X14823Y-20616D01*
X14723Y-20616D01*
X14303Y-20616D01*
X14241Y-20678D01*
X14241Y-21250D01*
X14961Y-21250D01*
X15023Y-21188D01*
X15023Y-20816D01*
X15023Y-21702D01*
X15023Y-21331D01*
X14961Y-21268D01*
X14241Y-21268D01*
X14241Y-21840D01*
X14303Y-21903D01*
X14723Y-21903D01*
X14823Y-21903D01*
X14915Y-21865D01*
X14985Y-21794D01*
X15023Y-21702D01*
X15023Y-28753D01*
X13914Y-28753D01*
X13888Y-28689D01*
X13763Y-28564D01*
X13702Y-28539D01*
X13762Y-28514D01*
X13887Y-28389D01*
X13914Y-28325D01*
X13922Y-28325D01*
X13994Y-28311D01*
X14054Y-28270D01*
X14572Y-27752D01*
X14572Y-27752D01*
X14572Y-27752D01*
X14613Y-27691D01*
X14613Y-27691D01*
X14627Y-27620D01*
X14627Y-27206D01*
X14692Y-27142D01*
X14736Y-27037D01*
X14736Y-26923D01*
X14692Y-26818D01*
X14612Y-26737D01*
X14597Y-26731D01*
X14597Y-24212D01*
X14570Y-24080D01*
X14496Y-23968D01*
X14401Y-23905D01*
X14401Y-23831D01*
X14413Y-23826D01*
X14455Y-23784D01*
X14477Y-23729D01*
X14477Y-23670D01*
X14477Y-23120D01*
X14455Y-23066D01*
X14413Y-23024D01*
X14401Y-23019D01*
X14401Y-22973D01*
X14382Y-22878D01*
X14382Y-22878D01*
X14329Y-22798D01*
X13954Y-22423D01*
X13873Y-22370D01*
X13779Y-22351D01*
X13606Y-22351D01*
X13435Y-22181D01*
X13435Y-22137D01*
X13533Y-22137D01*
X13587Y-22114D01*
X13629Y-22073D01*
X13652Y-22018D01*
X13652Y-21959D01*
X13652Y-21903D01*
X13740Y-21903D01*
X14160Y-21903D01*
X14222Y-21840D01*
X14222Y-21268D01*
X13888Y-21268D01*
X13503Y-21268D01*
X13296Y-21268D01*
X13296Y-21276D01*
X13277Y-21276D01*
X13277Y-21268D01*
X12686Y-21268D01*
X12623Y-21331D01*
X12623Y-21447D01*
X12661Y-21539D01*
X12731Y-21609D01*
X12756Y-21620D01*
X12748Y-21628D01*
X12725Y-21683D01*
X12725Y-21742D01*
X12725Y-22018D01*
X12748Y-22072D01*
X12789Y-22114D01*
X12844Y-22137D01*
X12903Y-22137D01*
X12942Y-22137D01*
X12942Y-22283D01*
X12960Y-22377D01*
X13014Y-22458D01*
X13329Y-22772D01*
X13329Y-22772D01*
X13409Y-22826D01*
X13409Y-22826D01*
X13456Y-22835D01*
X13503Y-22845D01*
X13503Y-22845D01*
X13503Y-22845D01*
X13677Y-22845D01*
X13875Y-23043D01*
X13853Y-23066D01*
X13831Y-23120D01*
X13831Y-23179D01*
X13831Y-23729D01*
X13853Y-23784D01*
X13895Y-23825D01*
X13907Y-23831D01*
X13907Y-23867D01*
X13765Y-23867D01*
X13791Y-23841D01*
X13829Y-23750D01*
X13829Y-23650D01*
X13829Y-23199D01*
X13829Y-23100D01*
X13791Y-23008D01*
X13720Y-22938D01*
X13629Y-22900D01*
X13476Y-22900D01*
X13413Y-22962D01*
X13413Y-23416D01*
X13767Y-23416D01*
X13829Y-23353D01*
X13829Y-23199D01*
X13829Y-23650D01*
X13829Y-23496D01*
X13767Y-23434D01*
X13413Y-23434D01*
X13413Y-23442D01*
X13395Y-23442D01*
X13395Y-23434D01*
X13395Y-23416D01*
X13395Y-22962D01*
X13332Y-22900D01*
X13180Y-22900D01*
X13088Y-22938D01*
X13017Y-23008D01*
X12979Y-23100D01*
X12979Y-23199D01*
X12979Y-23353D01*
X13042Y-23416D01*
X13395Y-23416D01*
X13395Y-23434D01*
X13042Y-23434D01*
X12979Y-23496D01*
X12979Y-23650D01*
X12979Y-23750D01*
X13017Y-23841D01*
X13088Y-23912D01*
X13180Y-23950D01*
X13306Y-23950D01*
X13279Y-23968D01*
X13279Y-23968D01*
X13003Y-24244D01*
X12929Y-24356D01*
X12902Y-24488D01*
X12902Y-24606D01*
X12929Y-24738D01*
X13003Y-24850D01*
X13020Y-24861D01*
X12789Y-24950D01*
X12759Y-24970D01*
X12719Y-25084D01*
X13161Y-25526D01*
X13603Y-25084D01*
X13563Y-24970D01*
X13520Y-24951D01*
X13858Y-24951D01*
X13990Y-24925D01*
X14102Y-24850D01*
X14496Y-24456D01*
X14570Y-24344D01*
X14597Y-24212D01*
X14597Y-26731D01*
X14507Y-26693D01*
X14393Y-26693D01*
X14288Y-26737D01*
X14207Y-26817D01*
X14163Y-26922D01*
X14163Y-27036D01*
X14207Y-27141D01*
X14252Y-27186D01*
X14252Y-27542D01*
X13894Y-27900D01*
X13888Y-27886D01*
X13763Y-27761D01*
X13702Y-27736D01*
X13762Y-27711D01*
X13887Y-27586D01*
X13955Y-27423D01*
X13955Y-27246D01*
X13888Y-27083D01*
X13847Y-27042D01*
X13847Y-25421D01*
X13750Y-25167D01*
X13730Y-25137D01*
X13616Y-25097D01*
X13174Y-25539D01*
X13616Y-25981D01*
X13730Y-25941D01*
X13840Y-25693D01*
X13847Y-25421D01*
X13847Y-27042D01*
X13763Y-26958D01*
X13603Y-26891D01*
X13603Y-25993D01*
X13161Y-25552D01*
X13148Y-25564D01*
X13148Y-25539D01*
X12706Y-25097D01*
X12592Y-25137D01*
X12482Y-25385D01*
X12475Y-25657D01*
X12488Y-25691D01*
X12302Y-25505D01*
X11984Y-25373D01*
X11639Y-25373D01*
X11320Y-25504D01*
X11076Y-25748D01*
X10944Y-26066D01*
X10943Y-26411D01*
X11075Y-26730D01*
X11319Y-26974D01*
X11637Y-27106D01*
X11982Y-27107D01*
X12301Y-26975D01*
X12545Y-26731D01*
X12677Y-26413D01*
X12678Y-26068D01*
X12631Y-25954D01*
X12706Y-25981D01*
X13148Y-25539D01*
X13148Y-25564D01*
X12719Y-25993D01*
X12759Y-26108D01*
X13007Y-26218D01*
X13279Y-26225D01*
X13533Y-26128D01*
X13563Y-26108D01*
X13603Y-25993D01*
X13603Y-26891D01*
X13600Y-26890D01*
X13423Y-26890D01*
X13260Y-26958D01*
X13135Y-27082D01*
X13067Y-27245D01*
X13067Y-27253D01*
X12932Y-27193D01*
X12715Y-27188D01*
X12512Y-27266D01*
X12491Y-27280D01*
X12468Y-27380D01*
X12811Y-27723D01*
X12816Y-27717D01*
X12829Y-27730D01*
X12823Y-27736D01*
X12829Y-27741D01*
X12816Y-27754D01*
X12811Y-27749D01*
X12798Y-27761D01*
X12798Y-27736D01*
X12455Y-27393D01*
X12355Y-27416D01*
X12268Y-27615D01*
X12263Y-27832D01*
X12341Y-28034D01*
X12355Y-28055D01*
X12455Y-28078D01*
X12798Y-27736D01*
X12798Y-27761D01*
X12468Y-28091D01*
X12491Y-28191D01*
X12519Y-28203D01*
X12434Y-28287D01*
X12367Y-28450D01*
X12367Y-28627D01*
X12434Y-28790D01*
X12515Y-28871D01*
X12512Y-28873D01*
X12491Y-28887D01*
X12468Y-28987D01*
X12811Y-29329D01*
X12816Y-29324D01*
X12829Y-29336D01*
X12823Y-29342D01*
X12829Y-29348D01*
X12816Y-29360D01*
X12811Y-29355D01*
X12798Y-29368D01*
X12798Y-29342D01*
X12455Y-28999D01*
X12355Y-29022D01*
X12268Y-29221D01*
X12263Y-29438D01*
X12341Y-29640D01*
X12355Y-29662D01*
X12455Y-29685D01*
X12798Y-29342D01*
X12798Y-29368D01*
X12468Y-29697D01*
X12491Y-29797D01*
X12519Y-29809D01*
X12434Y-29893D01*
X12367Y-30056D01*
X12367Y-30233D01*
X12434Y-30396D01*
X12559Y-30521D01*
X12722Y-30589D01*
X12898Y-30589D01*
X13062Y-30522D01*
X13187Y-30397D01*
X13254Y-30234D01*
X13254Y-30115D01*
X13260Y-30120D01*
X13423Y-30187D01*
X13599Y-30188D01*
X13762Y-30120D01*
X13887Y-29995D01*
X13914Y-29931D01*
X18476Y-29931D01*
X19348Y-30804D01*
X19348Y-30804D01*
X19409Y-30844D01*
X19409Y-30844D01*
X19481Y-30859D01*
X19481Y-30859D01*
X25287Y-30859D01*
X25295Y-30880D01*
X25336Y-30921D01*
X25295Y-30962D01*
X25273Y-31016D01*
X25273Y-31075D01*
X25273Y-31325D01*
X25295Y-31380D01*
X25336Y-31421D01*
X25333Y-31424D01*
X22905Y-31424D01*
X22860Y-31379D01*
X22741Y-31330D01*
X22613Y-31330D01*
X22494Y-31379D01*
X22403Y-31470D01*
X22353Y-31588D01*
X22353Y-31717D01*
X22402Y-31836D01*
X22493Y-31927D01*
X22612Y-31976D01*
X22741Y-31977D01*
X22860Y-31927D01*
X22869Y-31918D01*
X25333Y-31918D01*
X25337Y-31922D01*
X25392Y-31944D01*
X25451Y-31944D01*
X25951Y-31944D01*
X26005Y-31922D01*
X26047Y-31880D01*
X26070Y-31825D01*
X26070Y-31766D01*
X26070Y-31516D01*
X26047Y-31462D01*
X26006Y-31421D01*
X26047Y-31380D01*
X26056Y-31359D01*
X26103Y-31359D01*
X27697Y-32952D01*
X27697Y-33447D01*
X27642Y-33501D01*
X27642Y-33930D01*
X27650Y-33930D01*
X27650Y-33948D01*
X27642Y-33948D01*
X27642Y-34376D01*
X27697Y-34431D01*
X27697Y-34757D01*
X27624Y-34829D01*
X27624Y-34376D01*
X27624Y-33948D01*
X27624Y-33930D01*
X27624Y-33501D01*
X27562Y-33439D01*
X27459Y-33439D01*
X27367Y-33477D01*
X27297Y-33547D01*
X27258Y-33639D01*
X27258Y-33738D01*
X27258Y-33867D01*
X27321Y-33930D01*
X27624Y-33930D01*
X27624Y-33948D01*
X27321Y-33948D01*
X27258Y-34010D01*
X27258Y-34139D01*
X27258Y-34239D01*
X27297Y-34331D01*
X27367Y-34401D01*
X27459Y-34439D01*
X27562Y-34439D01*
X27624Y-34376D01*
X27624Y-34829D01*
X27501Y-34953D01*
X27460Y-35014D01*
X27446Y-35086D01*
X27446Y-35754D01*
X27424Y-35763D01*
X27383Y-35805D01*
X27360Y-35859D01*
X27360Y-35918D01*
X27360Y-36418D01*
X27382Y-36473D01*
X27424Y-36515D01*
X27479Y-36537D01*
X27538Y-36537D01*
X27788Y-36537D01*
X27842Y-36515D01*
X27883Y-36474D01*
X27924Y-36515D01*
X27946Y-36524D01*
X27946Y-36698D01*
X27765Y-36879D01*
X27659Y-36879D01*
X27554Y-36922D01*
X27474Y-37003D01*
X27430Y-37108D01*
X27430Y-37222D01*
X27473Y-37327D01*
X27554Y-37407D01*
X27659Y-37451D01*
X27773Y-37451D01*
X27878Y-37408D01*
X27959Y-37327D01*
X28002Y-37222D01*
X28002Y-37172D01*
X28266Y-36908D01*
X28307Y-36848D01*
X28307Y-36848D01*
X28321Y-36776D01*
X28321Y-36524D01*
X28342Y-36515D01*
X28383Y-36474D01*
X28424Y-36515D01*
X28479Y-36537D01*
X28538Y-36537D01*
X28788Y-36537D01*
X28842Y-36515D01*
X28883Y-36474D01*
X28924Y-36515D01*
X28979Y-36537D01*
X29038Y-36537D01*
X29288Y-36537D01*
X29342Y-36515D01*
X29383Y-36474D01*
X29424Y-36515D01*
X29479Y-36537D01*
X29538Y-36537D01*
X29788Y-36537D01*
X29842Y-36515D01*
X29883Y-36474D01*
X29924Y-36515D01*
X29979Y-36537D01*
X30038Y-36537D01*
X30288Y-36537D01*
X30342Y-36515D01*
X30383Y-36474D01*
X30424Y-36515D01*
X30479Y-36537D01*
X30538Y-36537D01*
X30788Y-36537D01*
X30842Y-36515D01*
X30884Y-36473D01*
X30907Y-36419D01*
X30907Y-36386D01*
X31104Y-36386D01*
X31199Y-36367D01*
X31199Y-36367D01*
X31279Y-36313D01*
X32851Y-34741D01*
X32851Y-34741D01*
X32851Y-34741D01*
X32905Y-34661D01*
X32924Y-34566D01*
X32924Y-34566D01*
X32924Y-32519D01*
X32924Y-32519D01*
X32905Y-32425D01*
X32905Y-32425D01*
X32851Y-32345D01*
X32851Y-32345D01*
X32536Y-32030D01*
X32456Y-31976D01*
X32362Y-31957D01*
X32228Y-31957D01*
X32129Y-31859D01*
X32605Y-31859D01*
X32613Y-31880D01*
X32655Y-31922D01*
X32710Y-31944D01*
X32769Y-31944D01*
X33269Y-31944D01*
X33323Y-31922D01*
X33365Y-31880D01*
X33388Y-31825D01*
X33388Y-31766D01*
X33388Y-31516D01*
X33365Y-31462D01*
X33324Y-31421D01*
X33365Y-31380D01*
X33374Y-31359D01*
X35580Y-31359D01*
X35652Y-31344D01*
X35713Y-31304D01*
X36317Y-30699D01*
X37244Y-30699D01*
X37315Y-30685D01*
X37376Y-30644D01*
X38617Y-29403D01*
X38617Y-29403D01*
X38617Y-29403D01*
X38658Y-29342D01*
X38658Y-29342D01*
X38672Y-29270D01*
X38672Y-29270D01*
X38672Y-28956D01*
X38679Y-28939D01*
X40086Y-28939D01*
X40158Y-28925D01*
X40219Y-28884D01*
X41180Y-27924D01*
X44353Y-27924D01*
X44379Y-27987D01*
X44504Y-28112D01*
X44565Y-28137D01*
X44504Y-28162D01*
X44379Y-28287D01*
X44312Y-28450D01*
X44311Y-28627D01*
X44379Y-28790D01*
X44504Y-28915D01*
X44565Y-28940D01*
X44504Y-28965D01*
X44379Y-29090D01*
X44312Y-29253D01*
X44311Y-29430D01*
X44379Y-29593D01*
X44504Y-29718D01*
X44565Y-29744D01*
X44504Y-29769D01*
X44379Y-29893D01*
X44312Y-30056D01*
X44311Y-30233D01*
X44379Y-30396D01*
X44504Y-30521D01*
X44667Y-30589D01*
X44843Y-30589D01*
X45007Y-30522D01*
X45132Y-30397D01*
X45199Y-30234D01*
X45199Y-30226D01*
X45335Y-30286D01*
X45552Y-30291D01*
X45754Y-30213D01*
X45776Y-30199D01*
X45799Y-30099D01*
X45456Y-29756D01*
X45451Y-29762D01*
X45438Y-29749D01*
X45443Y-29744D01*
X45438Y-29738D01*
X45451Y-29725D01*
X45456Y-29731D01*
X45799Y-29388D01*
X45776Y-29288D01*
X45748Y-29276D01*
X45832Y-29192D01*
X45900Y-29029D01*
X45900Y-28853D01*
X45833Y-28689D01*
X45751Y-28608D01*
X45754Y-28607D01*
X45776Y-28593D01*
X45799Y-28493D01*
X45456Y-28150D01*
X45451Y-28156D01*
X45438Y-28143D01*
X45443Y-28137D01*
X45438Y-28132D01*
X45451Y-28119D01*
X45456Y-28124D01*
X45799Y-27782D01*
X45776Y-27682D01*
X45748Y-27670D01*
X45832Y-27586D01*
X45900Y-27423D01*
X45900Y-27246D01*
X45833Y-27083D01*
X45708Y-26958D01*
X45548Y-26891D01*
X45548Y-25993D01*
X45106Y-25552D01*
X45093Y-25564D01*
X45093Y-25539D01*
X44651Y-25097D01*
X44537Y-25137D01*
X44427Y-25385D01*
X44419Y-25657D01*
X44517Y-25910D01*
X44537Y-25941D01*
X44651Y-25981D01*
X45093Y-25539D01*
X45093Y-25564D01*
X44664Y-25993D01*
X44704Y-26108D01*
X44952Y-26218D01*
X45224Y-26225D01*
X45477Y-26128D01*
X45508Y-26108D01*
X45548Y-25993D01*
X45548Y-26891D01*
X45545Y-26890D01*
X45368Y-26890D01*
X45205Y-26958D01*
X45080Y-27082D01*
X45012Y-27245D01*
X45012Y-27365D01*
X45007Y-27360D01*
X44844Y-27292D01*
X44667Y-27292D01*
X44603Y-27318D01*
X44335Y-27050D01*
X44335Y-23978D01*
X44335Y-23550D01*
X44327Y-23550D01*
X44327Y-23531D01*
X44335Y-23531D01*
X44335Y-23103D01*
X44272Y-23040D01*
X44169Y-23040D01*
X44078Y-23078D01*
X44009Y-23146D01*
X43999Y-23142D01*
X43940Y-23142D01*
X43690Y-23142D01*
X43635Y-23165D01*
X43594Y-23206D01*
X43553Y-23165D01*
X43499Y-23142D01*
X43440Y-23142D01*
X43190Y-23142D01*
X43135Y-23165D01*
X43094Y-23206D01*
X43053Y-23165D01*
X42999Y-23142D01*
X42940Y-23142D01*
X42690Y-23142D01*
X42635Y-23165D01*
X42594Y-23206D01*
X42553Y-23165D01*
X42499Y-23142D01*
X42440Y-23142D01*
X42190Y-23142D01*
X42135Y-23165D01*
X42093Y-23206D01*
X42071Y-23261D01*
X42071Y-23320D01*
X42071Y-23820D01*
X42093Y-23874D01*
X42135Y-23916D01*
X42189Y-23939D01*
X42248Y-23939D01*
X42498Y-23939D01*
X42553Y-23916D01*
X42594Y-23875D01*
X42635Y-23916D01*
X42689Y-23939D01*
X42748Y-23939D01*
X42998Y-23939D01*
X43053Y-23916D01*
X43094Y-23875D01*
X43135Y-23916D01*
X43189Y-23939D01*
X43248Y-23939D01*
X43498Y-23939D01*
X43553Y-23916D01*
X43594Y-23875D01*
X43635Y-23916D01*
X43689Y-23939D01*
X43748Y-23939D01*
X43998Y-23939D01*
X44009Y-23934D01*
X44078Y-24003D01*
X44169Y-24040D01*
X44272Y-24040D01*
X44335Y-23978D01*
X44335Y-27050D01*
X41939Y-24654D01*
X41939Y-23168D01*
X42622Y-22485D01*
X44802Y-22485D01*
X44822Y-22485D01*
X45084Y-22485D01*
X45156Y-22470D01*
X45217Y-22430D01*
X45477Y-22170D01*
X45517Y-22109D01*
X45517Y-22109D01*
X45532Y-22037D01*
X45532Y-21757D01*
X45578Y-21803D01*
X45669Y-21840D01*
X45772Y-21840D01*
X45835Y-21778D01*
X45835Y-21350D01*
X45827Y-21350D01*
X45827Y-21331D01*
X45835Y-21331D01*
X45835Y-20903D01*
X45772Y-20840D01*
X45669Y-20840D01*
X45578Y-20878D01*
X45509Y-20946D01*
X45499Y-20942D01*
X45440Y-20942D01*
X45190Y-20942D01*
X45135Y-20965D01*
X45094Y-21006D01*
X45053Y-20965D01*
X44999Y-20942D01*
X44940Y-20942D01*
X44690Y-20942D01*
X44635Y-20965D01*
X44594Y-21006D01*
X44553Y-20965D01*
X44532Y-20956D01*
X44532Y-20533D01*
X44709Y-20356D01*
X44786Y-20356D01*
X44891Y-20312D01*
X44972Y-20232D01*
X45016Y-20127D01*
X45016Y-20013D01*
X44972Y-19908D01*
X44892Y-19827D01*
X44787Y-19783D01*
X44673Y-19783D01*
X44625Y-19803D01*
X44636Y-19777D01*
X44636Y-19663D01*
X44592Y-19558D01*
X44512Y-19477D01*
X44407Y-19433D01*
X44293Y-19433D01*
X44286Y-19436D01*
X44286Y-19343D01*
X44242Y-19238D01*
X44162Y-19157D01*
X44057Y-19113D01*
X43943Y-19113D01*
X43838Y-19157D01*
X43757Y-19237D01*
X43713Y-19342D01*
X43713Y-19456D01*
X43757Y-19561D01*
X43812Y-19617D01*
X43812Y-19852D01*
X43211Y-20452D01*
X43170Y-20513D01*
X43156Y-20585D01*
X43156Y-20956D01*
X43135Y-20965D01*
X43094Y-21006D01*
X43053Y-20965D01*
X43032Y-20956D01*
X43032Y-20478D01*
X43546Y-19964D01*
X43586Y-19903D01*
X43586Y-19903D01*
X43601Y-19831D01*
X43601Y-19140D01*
X43684Y-19106D01*
X43818Y-18972D01*
X43891Y-18796D01*
X43891Y-18606D01*
X43854Y-18514D01*
X44468Y-19129D01*
X44529Y-19170D01*
X44601Y-19184D01*
X45826Y-19184D01*
X45874Y-19204D01*
X45933Y-19204D01*
X46189Y-19204D01*
X46243Y-19181D01*
X46258Y-19167D01*
X46272Y-19181D01*
X46297Y-19191D01*
X46297Y-19284D01*
X46311Y-19356D01*
X46352Y-19417D01*
X46546Y-19612D01*
X46546Y-19734D01*
X46595Y-19852D01*
X46686Y-19944D01*
X46805Y-19993D01*
X46934Y-19993D01*
X47052Y-19944D01*
X47144Y-19853D01*
X47193Y-19734D01*
X47193Y-19605D01*
X47193Y-25753D01*
X47192Y-25749D01*
X46948Y-25505D01*
X46721Y-25411D01*
X46721Y-23479D01*
X46671Y-23360D01*
X46581Y-23269D01*
X46462Y-23219D01*
X46333Y-23219D01*
X46219Y-23266D01*
X46219Y-21541D01*
X46219Y-21140D01*
X46219Y-21040D01*
X46181Y-20949D01*
X46110Y-20878D01*
X46018Y-20840D01*
X45916Y-20840D01*
X45853Y-20903D01*
X45853Y-21331D01*
X46156Y-21331D01*
X46219Y-21269D01*
X46219Y-21140D01*
X46219Y-21541D01*
X46219Y-21412D01*
X46156Y-21350D01*
X45853Y-21350D01*
X45853Y-21778D01*
X45916Y-21840D01*
X46018Y-21840D01*
X46110Y-21803D01*
X46181Y-21732D01*
X46219Y-21640D01*
X46219Y-21541D01*
X46219Y-23266D01*
X46214Y-23268D01*
X46189Y-23294D01*
X46117Y-23294D01*
X46117Y-23261D01*
X46095Y-23206D01*
X46053Y-23165D01*
X45999Y-23142D01*
X45940Y-23142D01*
X45690Y-23142D01*
X45679Y-23147D01*
X45610Y-23078D01*
X45518Y-23040D01*
X45416Y-23040D01*
X45353Y-23103D01*
X45353Y-23531D01*
X45361Y-23531D01*
X45361Y-23550D01*
X45353Y-23550D01*
X45353Y-23978D01*
X45416Y-24040D01*
X45518Y-24040D01*
X45610Y-24003D01*
X45679Y-23934D01*
X45689Y-23939D01*
X45748Y-23939D01*
X45998Y-23939D01*
X46053Y-23916D01*
X46095Y-23875D01*
X46117Y-23820D01*
X46117Y-23787D01*
X46184Y-23787D01*
X46214Y-23817D01*
X46333Y-23866D01*
X46461Y-23866D01*
X46580Y-23817D01*
X46671Y-23726D01*
X46721Y-23607D01*
X46721Y-23479D01*
X46721Y-25411D01*
X46629Y-25373D01*
X46285Y-25373D01*
X45966Y-25504D01*
X45785Y-25684D01*
X45792Y-25421D01*
X45695Y-25167D01*
X45675Y-25137D01*
X45560Y-25097D01*
X45548Y-25110D01*
X45548Y-25084D01*
X45508Y-24970D01*
X45335Y-24893D01*
X45335Y-23978D01*
X45335Y-23550D01*
X45335Y-23531D01*
X45335Y-23103D01*
X45272Y-23040D01*
X45169Y-23040D01*
X45094Y-23072D01*
X45018Y-23040D01*
X44916Y-23040D01*
X44853Y-23103D01*
X44853Y-23531D01*
X45031Y-23531D01*
X45156Y-23531D01*
X45335Y-23531D01*
X45335Y-23550D01*
X45156Y-23550D01*
X45031Y-23550D01*
X44853Y-23550D01*
X44853Y-23978D01*
X44916Y-24040D01*
X45018Y-24040D01*
X45094Y-24009D01*
X45169Y-24040D01*
X45272Y-24040D01*
X45335Y-23978D01*
X45335Y-24893D01*
X45260Y-24860D01*
X44988Y-24852D01*
X44835Y-24911D01*
X44835Y-23978D01*
X44835Y-23550D01*
X44835Y-23531D01*
X44835Y-23103D01*
X44772Y-23040D01*
X44669Y-23040D01*
X44594Y-23072D01*
X44518Y-23040D01*
X44416Y-23040D01*
X44353Y-23103D01*
X44353Y-23531D01*
X44531Y-23531D01*
X44656Y-23531D01*
X44835Y-23531D01*
X44835Y-23550D01*
X44656Y-23550D01*
X44531Y-23550D01*
X44353Y-23550D01*
X44353Y-23978D01*
X44416Y-24040D01*
X44518Y-24040D01*
X44594Y-24009D01*
X44669Y-24040D01*
X44772Y-24040D01*
X44835Y-23978D01*
X44835Y-24911D01*
X44734Y-24950D01*
X44704Y-24970D01*
X44664Y-25084D01*
X45106Y-25526D01*
X45548Y-25084D01*
X45548Y-25110D01*
X45119Y-25539D01*
X45560Y-25981D01*
X45636Y-25954D01*
X45589Y-26066D01*
X45589Y-26411D01*
X45721Y-26730D01*
X45964Y-26974D01*
X46283Y-27106D01*
X46628Y-27107D01*
X46947Y-26975D01*
X47191Y-26731D01*
X47323Y-26413D01*
X47323Y-26068D01*
X47323Y-31068D01*
X47192Y-30749D01*
X46948Y-30505D01*
X46629Y-30373D01*
X46285Y-30373D01*
X46004Y-30488D01*
X46004Y-29648D01*
X46004Y-28041D01*
X45926Y-27839D01*
X45911Y-27818D01*
X45812Y-27795D01*
X45469Y-28137D01*
X45812Y-28480D01*
X45911Y-28457D01*
X45999Y-28258D01*
X46004Y-28041D01*
X46004Y-29648D01*
X45926Y-29445D01*
X45911Y-29424D01*
X45812Y-29401D01*
X45469Y-29744D01*
X45812Y-30086D01*
X45911Y-30063D01*
X45999Y-29865D01*
X46004Y-29648D01*
X46004Y-30488D01*
X45966Y-30504D01*
X45722Y-30748D01*
X45589Y-31066D01*
X45589Y-31411D01*
X45636Y-31525D01*
X45560Y-31499D01*
X45548Y-31511D01*
X45548Y-31486D01*
X45508Y-31372D01*
X45260Y-31261D01*
X44988Y-31254D01*
X44734Y-31351D01*
X44704Y-31372D01*
X44664Y-31486D01*
X45106Y-31928D01*
X45548Y-31486D01*
X45548Y-31511D01*
X45119Y-31940D01*
X45560Y-32382D01*
X45675Y-32342D01*
X45785Y-32094D01*
X45792Y-31823D01*
X45779Y-31789D01*
X45964Y-31974D01*
X46283Y-32106D01*
X46628Y-32107D01*
X46947Y-31975D01*
X47191Y-31731D01*
X47323Y-31413D01*
X47323Y-31068D01*
X47323Y-45213D01*
X47116Y-45127D01*
X46587Y-45126D01*
X46098Y-45328D01*
X45723Y-45702D01*
X45548Y-46125D01*
X45548Y-32395D01*
X45106Y-31953D01*
X45093Y-31966D01*
X45093Y-31940D01*
X44651Y-31499D01*
X44537Y-31538D01*
X44427Y-31787D01*
X44419Y-32058D01*
X44517Y-32312D01*
X44537Y-32342D01*
X44651Y-32382D01*
X45093Y-31940D01*
X45093Y-31966D01*
X44664Y-32395D01*
X44704Y-32509D01*
X44952Y-32620D01*
X45224Y-32627D01*
X45477Y-32529D01*
X45508Y-32509D01*
X45548Y-32395D01*
X45548Y-46125D01*
X45521Y-46191D01*
X45520Y-46719D01*
X45722Y-47208D01*
X46096Y-47583D01*
X46584Y-47785D01*
X47113Y-47786D01*
X47602Y-47584D01*
X47976Y-47210D01*
X48179Y-46722D01*
X48180Y-46193D01*
X48180Y-48257D01*
X44679Y-48257D01*
X44679Y-45968D01*
X44606Y-45792D01*
X44472Y-45657D01*
X44388Y-45622D01*
X44388Y-44515D01*
X44374Y-44443D01*
X44374Y-44443D01*
X44333Y-44382D01*
X41778Y-41827D01*
X41717Y-41786D01*
X41645Y-41772D01*
X39938Y-41772D01*
X39975Y-41685D01*
X39975Y-41585D01*
X39975Y-41428D01*
X39975Y-41329D01*
X39936Y-41237D01*
X39866Y-41167D01*
X39774Y-41129D01*
X39737Y-41129D01*
X39684Y-41182D01*
X39669Y-41167D01*
X39606Y-41141D01*
X39594Y-41129D01*
X39577Y-41129D01*
X39577Y-41129D01*
X39567Y-41129D01*
X39557Y-41129D01*
X39557Y-41129D01*
X39540Y-41129D01*
X39528Y-41141D01*
X39469Y-41165D01*
X39409Y-41141D01*
X39397Y-41129D01*
X39380Y-41129D01*
X39380Y-41129D01*
X39370Y-41129D01*
X39360Y-41129D01*
X39360Y-41129D01*
X39343Y-41129D01*
X39331Y-41141D01*
X39272Y-41165D01*
X39212Y-41141D01*
X39200Y-41129D01*
X39183Y-41129D01*
X39183Y-41129D01*
X39173Y-41129D01*
X39163Y-41129D01*
X39163Y-41129D01*
X39146Y-41129D01*
X39134Y-41141D01*
X39071Y-41167D01*
X39056Y-41182D01*
X39003Y-41129D01*
X38966Y-41129D01*
X38874Y-41167D01*
X38804Y-41237D01*
X38766Y-41329D01*
X38766Y-41428D01*
X38766Y-41435D01*
X38828Y-41498D01*
X39025Y-41498D01*
X39066Y-41498D01*
X39084Y-41498D01*
X39222Y-41498D01*
X39263Y-41498D01*
X39281Y-41498D01*
X39321Y-41498D01*
X39419Y-41498D01*
X39460Y-41498D01*
X39478Y-41498D01*
X39518Y-41498D01*
X39657Y-41498D01*
X39675Y-41498D01*
X39715Y-41498D01*
X39912Y-41498D01*
X39975Y-41435D01*
X39975Y-41428D01*
X39975Y-41585D01*
X39975Y-41578D01*
X39912Y-41516D01*
X39715Y-41516D01*
X39675Y-41516D01*
X39657Y-41516D01*
X39518Y-41516D01*
X39478Y-41516D01*
X39460Y-41516D01*
X39419Y-41516D01*
X39321Y-41516D01*
X39281Y-41516D01*
X39263Y-41516D01*
X39222Y-41516D01*
X39084Y-41516D01*
X39066Y-41516D01*
X39025Y-41516D01*
X38828Y-41516D01*
X38766Y-41578D01*
X38766Y-41585D01*
X38766Y-41685D01*
X38802Y-41772D01*
X37409Y-41772D01*
X37337Y-41786D01*
X37277Y-41827D01*
X35800Y-43304D01*
X35759Y-43365D01*
X35745Y-43437D01*
X35745Y-45622D01*
X35662Y-45657D01*
X35527Y-45791D01*
X35454Y-45967D01*
X35454Y-46157D01*
X35527Y-46333D01*
X35661Y-46468D01*
X35837Y-46541D01*
X36027Y-46541D01*
X36203Y-46468D01*
X36338Y-46334D01*
X36411Y-46158D01*
X36411Y-45968D01*
X36338Y-45792D01*
X36204Y-45657D01*
X36120Y-45622D01*
X36120Y-43514D01*
X37487Y-42148D01*
X38880Y-42148D01*
X38890Y-42172D01*
X38931Y-42214D01*
X38986Y-42236D01*
X39045Y-42236D01*
X39084Y-42236D01*
X39084Y-42421D01*
X38556Y-42949D01*
X38515Y-43010D01*
X38501Y-43082D01*
X38501Y-45622D01*
X38418Y-45657D01*
X38283Y-45791D01*
X38210Y-45967D01*
X38210Y-46157D01*
X38283Y-46333D01*
X38417Y-46468D01*
X38593Y-46541D01*
X38783Y-46541D01*
X38959Y-46468D01*
X39094Y-46334D01*
X39167Y-46158D01*
X39167Y-45968D01*
X39094Y-45792D01*
X38960Y-45657D01*
X38876Y-45622D01*
X38876Y-43160D01*
X39350Y-42686D01*
X41257Y-44593D01*
X41257Y-45622D01*
X41174Y-45657D01*
X41039Y-45791D01*
X40966Y-45967D01*
X40966Y-46157D01*
X41039Y-46333D01*
X41173Y-46468D01*
X41349Y-46541D01*
X41539Y-46541D01*
X41715Y-46468D01*
X41850Y-46334D01*
X41923Y-46158D01*
X41923Y-45968D01*
X41850Y-45792D01*
X41716Y-45657D01*
X41632Y-45622D01*
X41632Y-44515D01*
X41618Y-44443D01*
X41618Y-44443D01*
X41577Y-44382D01*
X39656Y-42462D01*
X39656Y-42236D01*
X39754Y-42236D01*
X39809Y-42214D01*
X39850Y-42172D01*
X39860Y-42148D01*
X41567Y-42148D01*
X44012Y-44593D01*
X44012Y-45622D01*
X43930Y-45657D01*
X43795Y-45791D01*
X43722Y-45967D01*
X43722Y-46157D01*
X43794Y-46333D01*
X43929Y-46468D01*
X44105Y-46541D01*
X44295Y-46541D01*
X44471Y-46468D01*
X44606Y-46334D01*
X44679Y-46158D01*
X44679Y-45968D01*
X44679Y-48257D01*
X43679Y-48257D01*
X43679Y-45968D01*
X43606Y-45792D01*
X43472Y-45657D01*
X43296Y-45584D01*
X43106Y-45584D01*
X42930Y-45657D01*
X42795Y-45791D01*
X42722Y-45967D01*
X42722Y-46157D01*
X42756Y-46241D01*
X41666Y-47331D01*
X39441Y-47331D01*
X40266Y-46506D01*
X40349Y-46541D01*
X40539Y-46541D01*
X40715Y-46468D01*
X40850Y-46334D01*
X40923Y-46158D01*
X40923Y-45968D01*
X40850Y-45792D01*
X40716Y-45657D01*
X40540Y-45584D01*
X40350Y-45584D01*
X40174Y-45657D01*
X40039Y-45791D01*
X39966Y-45967D01*
X39966Y-46157D01*
X40000Y-46241D01*
X39185Y-47056D01*
X36961Y-47056D01*
X37510Y-46506D01*
X37593Y-46541D01*
X37783Y-46541D01*
X37959Y-46468D01*
X38094Y-46334D01*
X38167Y-46158D01*
X38167Y-45968D01*
X38094Y-45792D01*
X37960Y-45657D01*
X37784Y-45584D01*
X37594Y-45584D01*
X37418Y-45657D01*
X37283Y-45791D01*
X37210Y-45967D01*
X37210Y-46157D01*
X37245Y-46241D01*
X36745Y-46741D01*
X34684Y-46741D01*
X34164Y-46221D01*
X34164Y-43937D01*
X34149Y-43865D01*
X34149Y-43865D01*
X34109Y-43804D01*
X33134Y-42829D01*
X33073Y-42789D01*
X33001Y-42774D01*
X29990Y-42774D01*
X29940Y-42764D01*
X29869Y-42779D01*
X29808Y-42819D01*
X29798Y-42829D01*
X28683Y-43944D01*
X28620Y-43918D01*
X28443Y-43918D01*
X28427Y-43924D01*
X29684Y-42668D01*
X33268Y-42668D01*
X34745Y-44144D01*
X34745Y-45622D01*
X34662Y-45657D01*
X34527Y-45791D01*
X34454Y-45967D01*
X34454Y-46157D01*
X34527Y-46333D01*
X34661Y-46468D01*
X34837Y-46541D01*
X35027Y-46541D01*
X35203Y-46468D01*
X35338Y-46334D01*
X35411Y-46158D01*
X35411Y-45968D01*
X35338Y-45792D01*
X35204Y-45657D01*
X35120Y-45622D01*
X35120Y-44066D01*
X35106Y-43995D01*
X35106Y-43995D01*
X35065Y-43934D01*
X35065Y-43934D01*
X33479Y-42347D01*
X33418Y-42306D01*
X33346Y-42292D01*
X30424Y-42292D01*
X30424Y-39608D01*
X30380Y-39503D01*
X30300Y-39422D01*
X30194Y-39379D01*
X30081Y-39379D01*
X29975Y-39422D01*
X29921Y-39476D01*
X25802Y-39476D01*
X25787Y-39476D01*
X23858Y-39476D01*
X23810Y-39457D01*
X23751Y-39457D01*
X23533Y-39457D01*
X23469Y-39393D01*
X23378Y-39355D01*
X23278Y-39355D01*
X23271Y-39355D01*
X23209Y-39418D01*
X23209Y-39615D01*
X23209Y-39655D01*
X23209Y-39673D01*
X23209Y-39812D01*
X23209Y-39852D01*
X23209Y-39870D01*
X23209Y-39911D01*
X23209Y-40009D01*
X23209Y-40049D01*
X23209Y-40067D01*
X23209Y-40108D01*
X23209Y-40246D01*
X23209Y-40264D01*
X23209Y-40305D01*
X23209Y-40502D01*
X23271Y-40564D01*
X23278Y-40564D01*
X23378Y-40564D01*
X23469Y-40526D01*
X23533Y-40463D01*
X23554Y-40463D01*
X23810Y-40463D01*
X23858Y-40443D01*
X25708Y-40443D01*
X25725Y-40443D01*
X26555Y-40443D01*
X27150Y-41038D01*
X27211Y-41079D01*
X27211Y-41079D01*
X27283Y-41093D01*
X27499Y-41093D01*
X27554Y-41148D01*
X27659Y-41191D01*
X27773Y-41191D01*
X27878Y-41148D01*
X27959Y-41067D01*
X28002Y-40962D01*
X28002Y-40848D01*
X27959Y-40743D01*
X27878Y-40663D01*
X27777Y-40620D01*
X28306Y-40620D01*
X28361Y-40675D01*
X28466Y-40719D01*
X28580Y-40719D01*
X28685Y-40675D01*
X28766Y-40595D01*
X28809Y-40490D01*
X28809Y-40376D01*
X28766Y-40271D01*
X28722Y-40227D01*
X29113Y-40227D01*
X29168Y-40281D01*
X29273Y-40325D01*
X29387Y-40325D01*
X29492Y-40282D01*
X29573Y-40201D01*
X29616Y-40096D01*
X29616Y-39982D01*
X29573Y-39877D01*
X29548Y-39852D01*
X29920Y-39852D01*
X29975Y-39907D01*
X30080Y-39951D01*
X30194Y-39951D01*
X30299Y-39908D01*
X30380Y-39827D01*
X30423Y-39722D01*
X30424Y-39608D01*
X30424Y-42292D01*
X29606Y-42292D01*
X29534Y-42306D01*
X29473Y-42347D01*
X29473Y-42347D01*
X27877Y-43943D01*
X27817Y-43918D01*
X27640Y-43918D01*
X27477Y-43985D01*
X27352Y-44110D01*
X27284Y-44273D01*
X27284Y-44450D01*
X27351Y-44613D01*
X27476Y-44738D01*
X27639Y-44806D01*
X27647Y-44806D01*
X27587Y-44941D01*
X27582Y-45158D01*
X27660Y-45361D01*
X27674Y-45382D01*
X27774Y-45405D01*
X28117Y-45062D01*
X28111Y-45057D01*
X28124Y-45044D01*
X28129Y-45050D01*
X28135Y-45044D01*
X28148Y-45057D01*
X28142Y-45062D01*
X28485Y-45405D01*
X28585Y-45382D01*
X28597Y-45354D01*
X28681Y-45439D01*
X28844Y-45506D01*
X29020Y-45506D01*
X29184Y-45439D01*
X29265Y-45358D01*
X29266Y-45361D01*
X29280Y-45382D01*
X29380Y-45405D01*
X29723Y-45062D01*
X29717Y-45057D01*
X29730Y-45044D01*
X29736Y-45050D01*
X29741Y-45044D01*
X29754Y-45057D01*
X29749Y-45062D01*
X30091Y-45405D01*
X30191Y-45382D01*
X30203Y-45354D01*
X30287Y-45439D01*
X30450Y-45506D01*
X30627Y-45506D01*
X30790Y-45439D01*
X30915Y-45314D01*
X30983Y-45151D01*
X30983Y-44975D01*
X30915Y-44811D01*
X30791Y-44686D01*
X30628Y-44619D01*
X30508Y-44619D01*
X30513Y-44613D01*
X30581Y-44450D01*
X30581Y-44274D01*
X30563Y-44229D01*
X30628Y-44164D01*
X31925Y-44164D01*
X31892Y-44257D01*
X32334Y-44699D01*
X32340Y-44694D01*
X32353Y-44707D01*
X32347Y-44712D01*
X32789Y-45154D01*
X32903Y-45114D01*
X32961Y-44983D01*
X32961Y-46653D01*
X32976Y-46725D01*
X33016Y-46786D01*
X33882Y-47652D01*
X33882Y-47652D01*
X33943Y-47693D01*
X33943Y-47693D01*
X34001Y-47704D01*
X34015Y-47707D01*
X34015Y-47707D01*
X34015Y-47707D01*
X41744Y-47707D01*
X41815Y-47693D01*
X41876Y-47652D01*
X43022Y-46506D01*
X43105Y-46541D01*
X43295Y-46541D01*
X43471Y-46468D01*
X43606Y-46334D01*
X43679Y-46158D01*
X43679Y-45968D01*
X43679Y-48257D01*
X32776Y-48257D01*
X32776Y-45167D01*
X32334Y-44725D01*
X32321Y-44738D01*
X32321Y-44712D01*
X31880Y-44270D01*
X31765Y-44310D01*
X31655Y-44558D01*
X31648Y-44830D01*
X31745Y-45084D01*
X31765Y-45114D01*
X31880Y-45154D01*
X32321Y-44712D01*
X32321Y-44738D01*
X31892Y-45167D01*
X31919Y-45242D01*
X31807Y-45196D01*
X31462Y-45195D01*
X31143Y-45327D01*
X30899Y-45571D01*
X30767Y-45889D01*
X30766Y-46234D01*
X30898Y-46553D01*
X31142Y-46797D01*
X31460Y-46929D01*
X31805Y-46930D01*
X32124Y-46798D01*
X32368Y-46554D01*
X32500Y-46236D01*
X32500Y-45891D01*
X32369Y-45572D01*
X32189Y-45392D01*
X32452Y-45399D01*
X32706Y-45301D01*
X32736Y-45281D01*
X32776Y-45167D01*
X32776Y-48257D01*
X30078Y-48257D01*
X30078Y-45418D01*
X29736Y-45075D01*
X29393Y-45418D01*
X29416Y-45518D01*
X29615Y-45605D01*
X29832Y-45610D01*
X30034Y-45532D01*
X30055Y-45518D01*
X30078Y-45418D01*
X30078Y-48257D01*
X28472Y-48257D01*
X28472Y-45418D01*
X28129Y-45075D01*
X27787Y-45418D01*
X27810Y-45518D01*
X28008Y-45605D01*
X28225Y-45610D01*
X28428Y-45532D01*
X28449Y-45518D01*
X28472Y-45418D01*
X28472Y-48257D01*
X27500Y-48257D01*
X27500Y-45891D01*
X27369Y-45572D01*
X27125Y-45328D01*
X26807Y-45196D01*
X26619Y-45196D01*
X26619Y-44594D01*
X26522Y-44341D01*
X26501Y-44310D01*
X26387Y-44270D01*
X26374Y-44283D01*
X26374Y-44257D01*
X26335Y-44143D01*
X26086Y-44033D01*
X25815Y-44026D01*
X25561Y-44123D01*
X25531Y-44143D01*
X25491Y-44257D01*
X25933Y-44699D01*
X26374Y-44257D01*
X26374Y-44283D01*
X25945Y-44712D01*
X26387Y-45154D01*
X26501Y-45114D01*
X26612Y-44866D01*
X26619Y-44594D01*
X26619Y-45196D01*
X26462Y-45195D01*
X26348Y-45242D01*
X26374Y-45167D01*
X25933Y-44725D01*
X25920Y-44738D01*
X25920Y-44712D01*
X25478Y-44270D01*
X25364Y-44310D01*
X25253Y-44558D01*
X25246Y-44830D01*
X25344Y-45084D01*
X25364Y-45114D01*
X25478Y-45154D01*
X25920Y-44712D01*
X25920Y-44738D01*
X25491Y-45167D01*
X25531Y-45281D01*
X25779Y-45391D01*
X26050Y-45399D01*
X26085Y-45385D01*
X25899Y-45571D01*
X25767Y-45889D01*
X25766Y-46234D01*
X25898Y-46553D01*
X26142Y-46797D01*
X26460Y-46929D01*
X26805Y-46930D01*
X27124Y-46798D01*
X27368Y-46554D01*
X27500Y-46236D01*
X27500Y-45891D01*
X27500Y-48257D01*
X23191Y-48257D01*
X23191Y-40502D01*
X23191Y-40305D01*
X23191Y-40264D01*
X23191Y-40246D01*
X23191Y-40108D01*
X23191Y-40067D01*
X23191Y-40049D01*
X23191Y-40009D01*
X23191Y-39911D01*
X23191Y-39870D01*
X23191Y-39852D01*
X23191Y-39812D01*
X23191Y-39673D01*
X23191Y-39655D01*
X23191Y-39615D01*
X23191Y-39418D01*
X23128Y-39355D01*
X23121Y-39355D01*
X23022Y-39355D01*
X22930Y-39393D01*
X22860Y-39464D01*
X22822Y-39556D01*
X22822Y-39593D01*
X22875Y-39646D01*
X22860Y-39661D01*
X22834Y-39724D01*
X22822Y-39736D01*
X22822Y-39753D01*
X22822Y-39753D01*
X22822Y-39763D01*
X22822Y-39773D01*
X22822Y-39773D01*
X22822Y-39790D01*
X22834Y-39801D01*
X22858Y-39861D01*
X22834Y-39921D01*
X22822Y-39933D01*
X22822Y-39950D01*
X22822Y-39950D01*
X22822Y-39960D01*
X22822Y-39970D01*
X22822Y-39970D01*
X22822Y-39987D01*
X22834Y-39998D01*
X22858Y-40058D01*
X22834Y-40118D01*
X22822Y-40130D01*
X22822Y-40147D01*
X22822Y-40147D01*
X22822Y-40157D01*
X22822Y-40167D01*
X22822Y-40167D01*
X22822Y-40184D01*
X22834Y-40195D01*
X22860Y-40259D01*
X22875Y-40274D01*
X22822Y-40327D01*
X22822Y-40364D01*
X22860Y-40456D01*
X22930Y-40526D01*
X23022Y-40564D01*
X23121Y-40564D01*
X23128Y-40564D01*
X23191Y-40502D01*
X23191Y-48257D01*
X13847Y-48257D01*
X13847Y-31823D01*
X13750Y-31569D01*
X13730Y-31538D01*
X13616Y-31499D01*
X13603Y-31511D01*
X13603Y-31486D01*
X13563Y-31372D01*
X13315Y-31261D01*
X13043Y-31254D01*
X12789Y-31351D01*
X12759Y-31372D01*
X12719Y-31486D01*
X13161Y-31928D01*
X13603Y-31486D01*
X13603Y-31511D01*
X13174Y-31940D01*
X13616Y-32382D01*
X13730Y-32342D01*
X13840Y-32094D01*
X13847Y-31823D01*
X13847Y-48257D01*
X13603Y-48257D01*
X13603Y-32395D01*
X13161Y-31953D01*
X13148Y-31966D01*
X13148Y-31940D01*
X12706Y-31499D01*
X12631Y-31525D01*
X12677Y-31413D01*
X12678Y-31068D01*
X12546Y-30749D01*
X12302Y-30505D01*
X11984Y-30373D01*
X11639Y-30373D01*
X11320Y-30504D01*
X11076Y-30748D01*
X10944Y-31066D01*
X10943Y-31411D01*
X11075Y-31730D01*
X11319Y-31974D01*
X11637Y-32106D01*
X11982Y-32107D01*
X12301Y-31975D01*
X12481Y-31795D01*
X12475Y-32058D01*
X12572Y-32312D01*
X12592Y-32342D01*
X12706Y-32382D01*
X13148Y-31940D01*
X13148Y-31966D01*
X12719Y-32395D01*
X12759Y-32509D01*
X13007Y-32620D01*
X13279Y-32627D01*
X13533Y-32529D01*
X13563Y-32509D01*
X13603Y-32395D01*
X13603Y-48257D01*
X12747Y-48257D01*
X12747Y-46193D01*
X12545Y-45704D01*
X12171Y-45330D01*
X11682Y-45127D01*
X11154Y-45126D01*
X10665Y-45328D01*
X10290Y-45702D01*
X10088Y-46191D01*
X10087Y-46719D01*
X10289Y-47208D01*
X10663Y-47583D01*
X11151Y-47785D01*
X11680Y-47786D01*
X12169Y-47584D01*
X12543Y-47210D01*
X12746Y-46722D01*
X12747Y-46193D01*
X12747Y-48257D01*
X9616Y-48257D01*
X9616Y-9223D01*
X48650Y-9223D01*
X48650Y-48257D01*
X48650Y-48257D01*
G37*
G54D30*
X48650Y-48257D02*
X48180Y-48257D01*
X48180Y-46193D01*
X48180Y-10760D01*
X47978Y-10271D01*
X47604Y-9897D01*
X47116Y-9694D01*
X46587Y-9693D01*
X46098Y-9895D01*
X45723Y-10269D01*
X45521Y-10758D01*
X45520Y-11286D01*
X45722Y-11775D01*
X46096Y-12150D01*
X46584Y-12352D01*
X47113Y-12353D01*
X47602Y-12151D01*
X47976Y-11777D01*
X48179Y-11289D01*
X48180Y-10760D01*
X48180Y-46193D01*
X47978Y-45704D01*
X47604Y-45330D01*
X47323Y-45213D01*
X47323Y-31068D01*
X47323Y-26068D01*
X47193Y-25753D01*
X47193Y-19605D01*
X47144Y-19487D01*
X47053Y-19395D01*
X46934Y-19346D01*
X46812Y-19346D01*
X46672Y-19207D01*
X46672Y-19191D01*
X46696Y-19181D01*
X46738Y-19139D01*
X46761Y-19085D01*
X46761Y-19026D01*
X46761Y-18908D01*
X46757Y-18898D01*
X46761Y-18888D01*
X46761Y-18829D01*
X46761Y-18711D01*
X46757Y-18701D01*
X46761Y-18691D01*
X46761Y-18632D01*
X46761Y-18514D01*
X46757Y-18504D01*
X46761Y-18494D01*
X46761Y-18435D01*
X46761Y-18317D01*
X46738Y-18262D01*
X46697Y-18221D01*
X46642Y-18198D01*
X46583Y-18198D01*
X46327Y-18198D01*
X46272Y-18220D01*
X46258Y-18235D01*
X46244Y-18221D01*
X46189Y-18198D01*
X46130Y-18198D01*
X45874Y-18198D01*
X45826Y-18217D01*
X44832Y-18217D01*
X44832Y-12649D01*
X44734Y-12396D01*
X44714Y-12365D01*
X44600Y-12325D01*
X44587Y-12338D01*
X44587Y-12313D01*
X44547Y-12198D01*
X44299Y-12088D01*
X44027Y-12081D01*
X43993Y-12094D01*
X44179Y-11909D01*
X44311Y-11590D01*
X44311Y-11245D01*
X44180Y-10926D01*
X43936Y-10682D01*
X43618Y-10550D01*
X43273Y-10550D01*
X42954Y-10681D01*
X42710Y-10925D01*
X42578Y-11244D01*
X42577Y-11589D01*
X42709Y-11907D01*
X42953Y-12151D01*
X43271Y-12284D01*
X43616Y-12284D01*
X43730Y-12237D01*
X43703Y-12313D01*
X44145Y-12754D01*
X44587Y-12313D01*
X44587Y-12338D01*
X44158Y-12767D01*
X44600Y-13209D01*
X44714Y-13169D01*
X44824Y-12921D01*
X44832Y-12649D01*
X44832Y-18217D01*
X44756Y-18217D01*
X44587Y-18048D01*
X44587Y-13222D01*
X44145Y-12780D01*
X44132Y-12793D01*
X44132Y-12767D01*
X43691Y-12325D01*
X43576Y-12365D01*
X43466Y-12613D01*
X43459Y-12885D01*
X43556Y-13139D01*
X43576Y-13169D01*
X43691Y-13209D01*
X44132Y-12767D01*
X44132Y-12793D01*
X43703Y-13222D01*
X43743Y-13336D01*
X43991Y-13446D01*
X44263Y-13454D01*
X44517Y-13356D01*
X44547Y-13336D01*
X44587Y-13222D01*
X44587Y-18048D01*
X44103Y-17564D01*
X44042Y-17524D01*
X43970Y-17509D01*
X42380Y-17509D01*
X42356Y-17485D01*
X42356Y-17408D01*
X42312Y-17303D01*
X42232Y-17222D01*
X42127Y-17178D01*
X42013Y-17178D01*
X41908Y-17222D01*
X41827Y-17302D01*
X41783Y-17407D01*
X41783Y-17521D01*
X41795Y-17551D01*
X41747Y-17502D01*
X41642Y-17458D01*
X41528Y-17458D01*
X41428Y-17499D01*
X41428Y-17361D01*
X41448Y-17314D01*
X41448Y-17255D01*
X41448Y-16999D01*
X41425Y-16945D01*
X41411Y-16930D01*
X41425Y-16916D01*
X41448Y-16861D01*
X41448Y-16802D01*
X41448Y-16546D01*
X41428Y-16499D01*
X41428Y-14886D01*
X42483Y-13832D01*
X42523Y-13771D01*
X42538Y-13699D01*
X42538Y-13520D01*
X42601Y-13494D01*
X42726Y-13369D01*
X42794Y-13206D01*
X42794Y-13030D01*
X42726Y-12866D01*
X42602Y-12741D01*
X42439Y-12674D01*
X42431Y-12674D01*
X42491Y-12538D01*
X42496Y-12321D01*
X42418Y-12119D01*
X42404Y-12097D01*
X42304Y-12074D01*
X42291Y-12087D01*
X42291Y-12061D01*
X42268Y-11962D01*
X42069Y-11874D01*
X41852Y-11869D01*
X41650Y-11947D01*
X41629Y-11962D01*
X41606Y-12061D01*
X41948Y-12404D01*
X42291Y-12061D01*
X42291Y-12087D01*
X41961Y-12417D01*
X41967Y-12422D01*
X41954Y-12435D01*
X41948Y-12430D01*
X41943Y-12435D01*
X41930Y-12422D01*
X41936Y-12417D01*
X41593Y-12074D01*
X41493Y-12097D01*
X41481Y-12125D01*
X41397Y-12041D01*
X41234Y-11973D01*
X41057Y-11973D01*
X40894Y-12040D01*
X40813Y-12122D01*
X40811Y-12119D01*
X40797Y-12097D01*
X40697Y-12074D01*
X40685Y-12087D01*
X40685Y-12061D01*
X40662Y-11962D01*
X40463Y-11874D01*
X40246Y-11869D01*
X40044Y-11947D01*
X40022Y-11962D01*
X39999Y-12061D01*
X40342Y-12404D01*
X40685Y-12061D01*
X40685Y-12087D01*
X40355Y-12417D01*
X40360Y-12422D01*
X40348Y-12435D01*
X40342Y-12430D01*
X40336Y-12435D01*
X40324Y-12422D01*
X40329Y-12417D01*
X39987Y-12074D01*
X39887Y-12097D01*
X39875Y-12125D01*
X39791Y-12041D01*
X39628Y-11973D01*
X39451Y-11973D01*
X39311Y-12030D01*
X39311Y-11245D01*
X39180Y-10926D01*
X38936Y-10682D01*
X38618Y-10550D01*
X38273Y-10550D01*
X37954Y-10681D01*
X37710Y-10925D01*
X37578Y-11244D01*
X37577Y-11589D01*
X37709Y-11907D01*
X37889Y-12088D01*
X37626Y-12081D01*
X37372Y-12178D01*
X37342Y-12198D01*
X37302Y-12313D01*
X37744Y-12754D01*
X38185Y-12313D01*
X38159Y-12237D01*
X38271Y-12284D01*
X38616Y-12284D01*
X38935Y-12152D01*
X39179Y-11909D01*
X39311Y-11590D01*
X39311Y-11245D01*
X39311Y-12030D01*
X39288Y-12040D01*
X39163Y-12165D01*
X39095Y-12328D01*
X39095Y-12505D01*
X39162Y-12668D01*
X39287Y-12793D01*
X39450Y-12861D01*
X39569Y-12861D01*
X39564Y-12866D01*
X39497Y-13029D01*
X39496Y-13206D01*
X39564Y-13369D01*
X39689Y-13494D01*
X39753Y-13520D01*
X39753Y-13640D01*
X39767Y-13712D01*
X39808Y-13773D01*
X40462Y-14427D01*
X40462Y-16499D01*
X40442Y-16546D01*
X40442Y-16605D01*
X40442Y-16861D01*
X40464Y-16916D01*
X40479Y-16930D01*
X40465Y-16944D01*
X40454Y-16969D01*
X39062Y-16969D01*
X39062Y-16969D01*
X39048Y-16972D01*
X38991Y-16983D01*
X38930Y-17024D01*
X38930Y-17024D01*
X38430Y-17523D01*
X38430Y-12649D01*
X38333Y-12396D01*
X38312Y-12365D01*
X38198Y-12325D01*
X37756Y-12767D01*
X38198Y-13209D01*
X38312Y-13169D01*
X38423Y-12921D01*
X38430Y-12649D01*
X38430Y-17523D01*
X38185Y-17768D01*
X38185Y-13222D01*
X37744Y-12780D01*
X37731Y-12793D01*
X37731Y-12767D01*
X37289Y-12325D01*
X37175Y-12365D01*
X37064Y-12613D01*
X37057Y-12885D01*
X37155Y-13139D01*
X37175Y-13169D01*
X37289Y-13209D01*
X37731Y-12767D01*
X37731Y-12793D01*
X37302Y-13222D01*
X37342Y-13336D01*
X37590Y-13446D01*
X37861Y-13454D01*
X38115Y-13356D01*
X38146Y-13336D01*
X38185Y-13222D01*
X38185Y-17768D01*
X36958Y-18996D01*
X36958Y-12649D01*
X36860Y-12396D01*
X36840Y-12365D01*
X36726Y-12325D01*
X36713Y-12338D01*
X36713Y-12313D01*
X36673Y-12198D01*
X36425Y-12088D01*
X36153Y-12081D01*
X36119Y-12094D01*
X36305Y-11909D01*
X36437Y-11590D01*
X36437Y-11245D01*
X36306Y-10926D01*
X36062Y-10682D01*
X35744Y-10550D01*
X35399Y-10550D01*
X35080Y-10681D01*
X34836Y-10925D01*
X34704Y-11244D01*
X34703Y-11589D01*
X34835Y-11907D01*
X35079Y-12151D01*
X35397Y-12284D01*
X35742Y-12284D01*
X35856Y-12237D01*
X35829Y-12313D01*
X36271Y-12754D01*
X36713Y-12313D01*
X36713Y-12338D01*
X36284Y-12767D01*
X36726Y-13209D01*
X36840Y-13169D01*
X36950Y-12921D01*
X36958Y-12649D01*
X36958Y-18996D01*
X36713Y-19240D01*
X36713Y-13222D01*
X36271Y-12780D01*
X36258Y-12793D01*
X36258Y-12767D01*
X35817Y-12325D01*
X35702Y-12365D01*
X35592Y-12613D01*
X35585Y-12885D01*
X35682Y-13139D01*
X35702Y-13169D01*
X35817Y-13209D01*
X36258Y-12767D01*
X36258Y-12793D01*
X35829Y-13222D01*
X35869Y-13336D01*
X36117Y-13446D01*
X36389Y-13454D01*
X36643Y-13356D01*
X36673Y-13336D01*
X36713Y-13222D01*
X36713Y-19240D01*
X36152Y-19802D01*
X36111Y-19863D01*
X36097Y-19935D01*
X36097Y-20757D01*
X36017Y-20836D01*
X36017Y-18606D01*
X35945Y-18430D01*
X35810Y-18295D01*
X35634Y-18222D01*
X35444Y-18222D01*
X35268Y-18294D01*
X35134Y-18429D01*
X35061Y-18605D01*
X35060Y-18795D01*
X35133Y-18971D01*
X35268Y-19106D01*
X35443Y-19179D01*
X35634Y-19179D01*
X35810Y-19106D01*
X35944Y-18972D01*
X36017Y-18796D01*
X36017Y-18606D01*
X36017Y-20836D01*
X35542Y-21312D01*
X35356Y-21312D01*
X35356Y-21089D01*
X35334Y-21035D01*
X35293Y-20994D01*
X35334Y-20953D01*
X35356Y-20898D01*
X35356Y-20839D01*
X35356Y-20589D01*
X35334Y-20535D01*
X35292Y-20493D01*
X35237Y-20470D01*
X35178Y-20470D01*
X35017Y-20470D01*
X35017Y-18606D01*
X34945Y-18430D01*
X34810Y-18295D01*
X34634Y-18222D01*
X34444Y-18222D01*
X34268Y-18294D01*
X34134Y-18429D01*
X34061Y-18605D01*
X34060Y-18795D01*
X34133Y-18971D01*
X34268Y-19106D01*
X34443Y-19179D01*
X34634Y-19179D01*
X34810Y-19106D01*
X34944Y-18972D01*
X35017Y-18796D01*
X35017Y-18606D01*
X35017Y-20470D01*
X34678Y-20470D01*
X34624Y-20493D01*
X34620Y-20497D01*
X34434Y-20497D01*
X34433Y-20495D01*
X34314Y-20446D01*
X34185Y-20446D01*
X34067Y-20495D01*
X34020Y-20542D01*
X34020Y-19174D01*
X34005Y-19102D01*
X33965Y-19041D01*
X33751Y-18827D01*
X33751Y-17361D01*
X33771Y-17314D01*
X33771Y-17255D01*
X33771Y-16999D01*
X33748Y-16945D01*
X33734Y-16930D01*
X33748Y-16916D01*
X33771Y-16861D01*
X33771Y-16802D01*
X33771Y-16546D01*
X33751Y-16499D01*
X33751Y-14754D01*
X34609Y-13896D01*
X34649Y-13835D01*
X34649Y-13835D01*
X34664Y-13763D01*
X34664Y-13520D01*
X34727Y-13494D01*
X34852Y-13369D01*
X34920Y-13206D01*
X34920Y-13030D01*
X34852Y-12866D01*
X34728Y-12741D01*
X34565Y-12674D01*
X34557Y-12674D01*
X34617Y-12538D01*
X34622Y-12321D01*
X34544Y-12119D01*
X34530Y-12097D01*
X34430Y-12074D01*
X34417Y-12087D01*
X34417Y-12061D01*
X34394Y-11962D01*
X34195Y-11874D01*
X33978Y-11869D01*
X33776Y-11947D01*
X33755Y-11962D01*
X33732Y-12061D01*
X34074Y-12404D01*
X34417Y-12061D01*
X34417Y-12087D01*
X34087Y-12417D01*
X34093Y-12422D01*
X34080Y-12435D01*
X34074Y-12430D01*
X34069Y-12435D01*
X34056Y-12422D01*
X34061Y-12417D01*
X33719Y-12074D01*
X33619Y-12097D01*
X33607Y-12125D01*
X33523Y-12041D01*
X33360Y-11973D01*
X33183Y-11973D01*
X33020Y-12040D01*
X32939Y-12122D01*
X32937Y-12119D01*
X32923Y-12097D01*
X32823Y-12074D01*
X32811Y-12087D01*
X32811Y-12061D01*
X32788Y-11962D01*
X32589Y-11874D01*
X32372Y-11869D01*
X32170Y-11947D01*
X32148Y-11962D01*
X32125Y-12061D01*
X32468Y-12404D01*
X32811Y-12061D01*
X32811Y-12087D01*
X32481Y-12417D01*
X32486Y-12422D01*
X32474Y-12435D01*
X32468Y-12430D01*
X32462Y-12435D01*
X32450Y-12422D01*
X32455Y-12417D01*
X32113Y-12074D01*
X32013Y-12097D01*
X32001Y-12125D01*
X31917Y-12041D01*
X31754Y-11973D01*
X31577Y-11973D01*
X31437Y-12030D01*
X31437Y-11245D01*
X31306Y-10926D01*
X31062Y-10682D01*
X30744Y-10550D01*
X30399Y-10550D01*
X30080Y-10681D01*
X29836Y-10925D01*
X29704Y-11244D01*
X29703Y-11589D01*
X29835Y-11907D01*
X30015Y-12088D01*
X29752Y-12081D01*
X29498Y-12178D01*
X29468Y-12198D01*
X29428Y-12313D01*
X29870Y-12754D01*
X30311Y-12313D01*
X30285Y-12237D01*
X30397Y-12284D01*
X30742Y-12284D01*
X31061Y-12152D01*
X31305Y-11909D01*
X31437Y-11590D01*
X31437Y-11245D01*
X31437Y-12030D01*
X31414Y-12040D01*
X31289Y-12165D01*
X31221Y-12328D01*
X31221Y-12505D01*
X31288Y-12668D01*
X31413Y-12793D01*
X31576Y-12861D01*
X31695Y-12861D01*
X31690Y-12866D01*
X31623Y-13029D01*
X31622Y-13206D01*
X31690Y-13369D01*
X31815Y-13494D01*
X31879Y-13520D01*
X31879Y-13546D01*
X31893Y-13618D01*
X31934Y-13679D01*
X32784Y-14530D01*
X32784Y-16499D01*
X32765Y-16546D01*
X32765Y-16605D01*
X32765Y-16861D01*
X32787Y-16916D01*
X32802Y-16930D01*
X32787Y-16944D01*
X32765Y-16999D01*
X32765Y-17058D01*
X32765Y-17314D01*
X32784Y-17362D01*
X32784Y-18982D01*
X32799Y-19054D01*
X32839Y-19115D01*
X33172Y-19447D01*
X33172Y-20922D01*
X33096Y-20997D01*
X33093Y-20994D01*
X33134Y-20953D01*
X33156Y-20898D01*
X33156Y-20839D01*
X33156Y-20589D01*
X33134Y-20535D01*
X33092Y-20493D01*
X33037Y-20470D01*
X32978Y-20470D01*
X32478Y-20470D01*
X32424Y-20493D01*
X32382Y-20534D01*
X32373Y-20556D01*
X32295Y-20556D01*
X32224Y-20570D01*
X32163Y-20611D01*
X31872Y-20902D01*
X31831Y-20963D01*
X31817Y-21035D01*
X31817Y-22704D01*
X30556Y-23965D01*
X30556Y-12649D01*
X30459Y-12396D01*
X30438Y-12365D01*
X30324Y-12325D01*
X29882Y-12767D01*
X30324Y-13209D01*
X30438Y-13169D01*
X30549Y-12921D01*
X30556Y-12649D01*
X30556Y-23965D01*
X30311Y-24209D01*
X30311Y-13222D01*
X29870Y-12780D01*
X29857Y-12793D01*
X29857Y-12767D01*
X29415Y-12325D01*
X29301Y-12365D01*
X29190Y-12613D01*
X29183Y-12885D01*
X29281Y-13139D01*
X29301Y-13169D01*
X29415Y-13209D01*
X29857Y-12767D01*
X29857Y-12793D01*
X29428Y-13222D01*
X29468Y-13336D01*
X29716Y-13446D01*
X29987Y-13454D01*
X30241Y-13356D01*
X30272Y-13336D01*
X30311Y-13222D01*
X30311Y-24209D01*
X29477Y-25044D01*
X29436Y-25105D01*
X29422Y-25177D01*
X29422Y-25783D01*
X29413Y-25787D01*
X29332Y-25867D01*
X29292Y-25963D01*
X29292Y-24615D01*
X29292Y-24614D01*
X29292Y-24614D01*
X29289Y-24600D01*
X29278Y-24543D01*
X29278Y-24543D01*
X29237Y-24482D01*
X29237Y-24482D01*
X29084Y-24328D01*
X29084Y-12649D01*
X28986Y-12396D01*
X28966Y-12365D01*
X28852Y-12325D01*
X28839Y-12338D01*
X28839Y-12313D01*
X28799Y-12198D01*
X28551Y-12088D01*
X28279Y-12081D01*
X28245Y-12094D01*
X28431Y-11909D01*
X28563Y-11590D01*
X28563Y-11245D01*
X28432Y-10926D01*
X28188Y-10682D01*
X27870Y-10550D01*
X27525Y-10550D01*
X27206Y-10681D01*
X26962Y-10925D01*
X26830Y-11244D01*
X26829Y-11589D01*
X26961Y-11907D01*
X27205Y-12151D01*
X27523Y-12284D01*
X27868Y-12284D01*
X27982Y-12237D01*
X27955Y-12313D01*
X28397Y-12754D01*
X28839Y-12313D01*
X28839Y-12338D01*
X28410Y-12767D01*
X28852Y-13209D01*
X28966Y-13169D01*
X29076Y-12921D01*
X29084Y-12649D01*
X29084Y-24328D01*
X28839Y-24083D01*
X28839Y-13222D01*
X28397Y-12780D01*
X28384Y-12793D01*
X28384Y-12767D01*
X27943Y-12325D01*
X27828Y-12365D01*
X27718Y-12613D01*
X27711Y-12885D01*
X27808Y-13139D01*
X27828Y-13169D01*
X27943Y-13209D01*
X28384Y-12767D01*
X28384Y-12793D01*
X27955Y-13222D01*
X27995Y-13336D01*
X28243Y-13446D01*
X28515Y-13454D01*
X28769Y-13356D01*
X28799Y-13336D01*
X28839Y-13222D01*
X28839Y-24083D01*
X28143Y-23388D01*
X28143Y-18606D01*
X28071Y-18430D01*
X27936Y-18295D01*
X27760Y-18222D01*
X27570Y-18222D01*
X27394Y-18294D01*
X27260Y-18429D01*
X27187Y-18605D01*
X27186Y-18795D01*
X27259Y-18971D01*
X27393Y-19106D01*
X27569Y-19179D01*
X27760Y-19179D01*
X27936Y-19106D01*
X28070Y-18972D01*
X28143Y-18796D01*
X28143Y-18606D01*
X28143Y-23388D01*
X27143Y-22388D01*
X27143Y-18606D01*
X27071Y-18430D01*
X26936Y-18295D01*
X26760Y-18222D01*
X26570Y-18222D01*
X26394Y-18294D01*
X26260Y-18429D01*
X26187Y-18605D01*
X26186Y-18795D01*
X26259Y-18971D01*
X26393Y-19106D01*
X26569Y-19179D01*
X26760Y-19179D01*
X26936Y-19106D01*
X27070Y-18972D01*
X27143Y-18796D01*
X27143Y-18606D01*
X27143Y-22388D01*
X26366Y-21611D01*
X26305Y-21570D01*
X26234Y-21556D01*
X26090Y-21556D01*
X26082Y-21535D01*
X26041Y-21494D01*
X26082Y-21453D01*
X26104Y-21398D01*
X26104Y-21339D01*
X26104Y-21089D01*
X26100Y-21078D01*
X26168Y-21010D01*
X26206Y-20918D01*
X26206Y-20569D01*
X26168Y-20477D01*
X26098Y-20407D01*
X26006Y-20369D01*
X25906Y-20369D01*
X25777Y-20369D01*
X25715Y-20431D01*
X25715Y-20735D01*
X26143Y-20735D01*
X26206Y-20672D01*
X26206Y-20569D01*
X26206Y-20918D01*
X26206Y-20815D01*
X26143Y-20753D01*
X25715Y-20753D01*
X25715Y-20761D01*
X25697Y-20761D01*
X25697Y-20753D01*
X25697Y-20735D01*
X25697Y-20431D01*
X25634Y-20369D01*
X25505Y-20369D01*
X25406Y-20369D01*
X25314Y-20407D01*
X25244Y-20477D01*
X25206Y-20569D01*
X25206Y-20672D01*
X25268Y-20735D01*
X25697Y-20735D01*
X25697Y-20753D01*
X25268Y-20753D01*
X25206Y-20815D01*
X25206Y-20918D01*
X25244Y-21010D01*
X25294Y-21060D01*
X25244Y-21070D01*
X25183Y-21111D01*
X25183Y-21111D01*
X24567Y-21727D01*
X24565Y-21730D01*
X24565Y-20413D01*
X25428Y-19549D01*
X25428Y-19549D01*
X25428Y-19549D01*
X25469Y-19489D01*
X25469Y-19489D01*
X25483Y-19417D01*
X25483Y-19417D01*
X25483Y-17361D01*
X25503Y-17314D01*
X25503Y-17255D01*
X25503Y-16999D01*
X25480Y-16945D01*
X25466Y-16930D01*
X25480Y-16916D01*
X25503Y-16861D01*
X25503Y-16802D01*
X25503Y-16546D01*
X25483Y-16499D01*
X25483Y-15161D01*
X26735Y-13910D01*
X26735Y-13910D01*
X26735Y-13910D01*
X26775Y-13849D01*
X26775Y-13849D01*
X26790Y-13777D01*
X26790Y-13777D01*
X26790Y-13520D01*
X26853Y-13494D01*
X26978Y-13369D01*
X27046Y-13206D01*
X27046Y-13030D01*
X26978Y-12866D01*
X26854Y-12741D01*
X26691Y-12674D01*
X26683Y-12674D01*
X26743Y-12538D01*
X26748Y-12321D01*
X26670Y-12119D01*
X26656Y-12097D01*
X26556Y-12074D01*
X26543Y-12087D01*
X26543Y-12061D01*
X26520Y-11962D01*
X26321Y-11874D01*
X26104Y-11869D01*
X25902Y-11947D01*
X25881Y-11962D01*
X25858Y-12061D01*
X26200Y-12404D01*
X26543Y-12061D01*
X26543Y-12087D01*
X26213Y-12417D01*
X26219Y-12422D01*
X26206Y-12435D01*
X26200Y-12430D01*
X26195Y-12435D01*
X26182Y-12422D01*
X26187Y-12417D01*
X25845Y-12074D01*
X25745Y-12097D01*
X25733Y-12125D01*
X25649Y-12041D01*
X25486Y-11973D01*
X25309Y-11973D01*
X25146Y-12040D01*
X25065Y-12122D01*
X25063Y-12119D01*
X25049Y-12097D01*
X24949Y-12074D01*
X24937Y-12087D01*
X24937Y-12061D01*
X24914Y-11962D01*
X24715Y-11874D01*
X24498Y-11869D01*
X24296Y-11947D01*
X24274Y-11962D01*
X24251Y-12061D01*
X24594Y-12404D01*
X24937Y-12061D01*
X24937Y-12087D01*
X24607Y-12417D01*
X24612Y-12422D01*
X24600Y-12435D01*
X24594Y-12430D01*
X24588Y-12435D01*
X24576Y-12422D01*
X24581Y-12417D01*
X24239Y-12074D01*
X24139Y-12097D01*
X24127Y-12125D01*
X24043Y-12041D01*
X23880Y-11973D01*
X23703Y-11973D01*
X23563Y-12030D01*
X23563Y-11245D01*
X23432Y-10926D01*
X23188Y-10682D01*
X22870Y-10550D01*
X22525Y-10550D01*
X22206Y-10681D01*
X21962Y-10925D01*
X21830Y-11244D01*
X21829Y-11589D01*
X21961Y-11907D01*
X22141Y-12088D01*
X21878Y-12081D01*
X21624Y-12178D01*
X21594Y-12198D01*
X21554Y-12313D01*
X21996Y-12754D01*
X22437Y-12313D01*
X22411Y-12237D01*
X22523Y-12284D01*
X22868Y-12284D01*
X23187Y-12152D01*
X23431Y-11909D01*
X23563Y-11590D01*
X23563Y-11245D01*
X23563Y-12030D01*
X23540Y-12040D01*
X23415Y-12165D01*
X23347Y-12328D01*
X23347Y-12505D01*
X23414Y-12668D01*
X23539Y-12793D01*
X23702Y-12861D01*
X23821Y-12861D01*
X23816Y-12866D01*
X23749Y-13029D01*
X23748Y-13206D01*
X23816Y-13369D01*
X23941Y-13494D01*
X24005Y-13520D01*
X24005Y-14277D01*
X24019Y-14349D01*
X24060Y-14410D01*
X24517Y-14867D01*
X24517Y-16499D01*
X24497Y-16546D01*
X24497Y-16605D01*
X24497Y-16861D01*
X24520Y-16916D01*
X24534Y-16930D01*
X24520Y-16944D01*
X24497Y-16999D01*
X24497Y-17058D01*
X24497Y-17314D01*
X24517Y-17362D01*
X24517Y-19262D01*
X23798Y-19980D01*
X23762Y-19893D01*
X23682Y-19812D01*
X23577Y-19768D01*
X23499Y-19768D01*
X22682Y-18951D01*
X22682Y-12649D01*
X22585Y-12396D01*
X22564Y-12365D01*
X22450Y-12325D01*
X22008Y-12767D01*
X22450Y-13209D01*
X22564Y-13169D01*
X22675Y-12921D01*
X22682Y-12649D01*
X22682Y-18951D01*
X22437Y-18707D01*
X22437Y-13222D01*
X21996Y-12780D01*
X21983Y-12793D01*
X21983Y-12767D01*
X21541Y-12325D01*
X21427Y-12365D01*
X21316Y-12613D01*
X21309Y-12885D01*
X21407Y-13139D01*
X21427Y-13169D01*
X21541Y-13209D01*
X21983Y-12767D01*
X21983Y-12793D01*
X21554Y-13222D01*
X21594Y-13336D01*
X21842Y-13446D01*
X22113Y-13454D01*
X22367Y-13356D01*
X22398Y-13336D01*
X22437Y-13222D01*
X22437Y-18707D01*
X21210Y-17479D01*
X21210Y-12649D01*
X21112Y-12396D01*
X21092Y-12365D01*
X20978Y-12325D01*
X20965Y-12338D01*
X20965Y-12313D01*
X20925Y-12198D01*
X20677Y-12088D01*
X20405Y-12081D01*
X20371Y-12094D01*
X20557Y-11909D01*
X20689Y-11590D01*
X20689Y-11245D01*
X20558Y-10926D01*
X20314Y-10682D01*
X19996Y-10550D01*
X19651Y-10550D01*
X19332Y-10681D01*
X19088Y-10925D01*
X18956Y-11244D01*
X18955Y-11589D01*
X19087Y-11907D01*
X19331Y-12151D01*
X19649Y-12284D01*
X19994Y-12284D01*
X20108Y-12237D01*
X20081Y-12313D01*
X20523Y-12754D01*
X20965Y-12313D01*
X20965Y-12338D01*
X20536Y-12767D01*
X20978Y-13209D01*
X21092Y-13169D01*
X21202Y-12921D01*
X21210Y-12649D01*
X21210Y-17479D01*
X20965Y-17234D01*
X20965Y-13222D01*
X20523Y-12780D01*
X20510Y-12793D01*
X20510Y-12767D01*
X20068Y-12325D01*
X19954Y-12365D01*
X19844Y-12613D01*
X19837Y-12885D01*
X19934Y-13139D01*
X19954Y-13169D01*
X20068Y-13209D01*
X20510Y-12767D01*
X20510Y-12793D01*
X20081Y-13222D01*
X20121Y-13336D01*
X20369Y-13446D01*
X20641Y-13454D01*
X20895Y-13356D01*
X20925Y-13336D01*
X20965Y-13222D01*
X20965Y-17234D01*
X20754Y-17024D01*
X20694Y-16983D01*
X20622Y-16969D01*
X17813Y-16969D01*
X17803Y-16945D01*
X17789Y-16930D01*
X17803Y-16916D01*
X17826Y-16861D01*
X17826Y-16802D01*
X17826Y-16546D01*
X17806Y-16499D01*
X17806Y-14798D01*
X18861Y-13744D01*
X18901Y-13683D01*
X18916Y-13611D01*
X18916Y-13520D01*
X18979Y-13494D01*
X19104Y-13369D01*
X19172Y-13206D01*
X19172Y-13030D01*
X19104Y-12866D01*
X18980Y-12741D01*
X18817Y-12674D01*
X18809Y-12674D01*
X18869Y-12538D01*
X18874Y-12321D01*
X18796Y-12119D01*
X18781Y-12097D01*
X18682Y-12074D01*
X18669Y-12087D01*
X18669Y-12061D01*
X18646Y-11962D01*
X18447Y-11874D01*
X18230Y-11869D01*
X18028Y-11947D01*
X18007Y-11962D01*
X17984Y-12061D01*
X18326Y-12404D01*
X18669Y-12061D01*
X18669Y-12087D01*
X18339Y-12417D01*
X18345Y-12422D01*
X18332Y-12435D01*
X18326Y-12430D01*
X18321Y-12435D01*
X18308Y-12422D01*
X18313Y-12417D01*
X17971Y-12074D01*
X17871Y-12097D01*
X17859Y-12125D01*
X17775Y-12041D01*
X17612Y-11973D01*
X17435Y-11973D01*
X17272Y-12040D01*
X17191Y-12122D01*
X17189Y-12119D01*
X17175Y-12097D01*
X17075Y-12074D01*
X17063Y-12087D01*
X17063Y-12061D01*
X17040Y-11962D01*
X16841Y-11874D01*
X16624Y-11869D01*
X16422Y-11947D01*
X16400Y-11962D01*
X16377Y-12061D01*
X16720Y-12404D01*
X17063Y-12061D01*
X17063Y-12087D01*
X16733Y-12417D01*
X16738Y-12422D01*
X16726Y-12435D01*
X16720Y-12430D01*
X16714Y-12435D01*
X16702Y-12422D01*
X16707Y-12417D01*
X16365Y-12074D01*
X16265Y-12097D01*
X16253Y-12125D01*
X16169Y-12041D01*
X16006Y-11973D01*
X15829Y-11973D01*
X15689Y-12030D01*
X15689Y-11245D01*
X15558Y-10926D01*
X15314Y-10682D01*
X14996Y-10550D01*
X14651Y-10550D01*
X14332Y-10681D01*
X14088Y-10925D01*
X13956Y-11244D01*
X13955Y-11589D01*
X14087Y-11907D01*
X14267Y-12088D01*
X14004Y-12081D01*
X13750Y-12178D01*
X13720Y-12198D01*
X13680Y-12313D01*
X14122Y-12754D01*
X14563Y-12313D01*
X14537Y-12237D01*
X14649Y-12284D01*
X14994Y-12284D01*
X15313Y-12152D01*
X15557Y-11909D01*
X15689Y-11590D01*
X15689Y-11245D01*
X15689Y-12030D01*
X15666Y-12040D01*
X15541Y-12165D01*
X15473Y-12328D01*
X15473Y-12505D01*
X15540Y-12668D01*
X15665Y-12793D01*
X15828Y-12861D01*
X15947Y-12861D01*
X15942Y-12866D01*
X15875Y-13029D01*
X15874Y-13206D01*
X15942Y-13369D01*
X16067Y-13494D01*
X16131Y-13520D01*
X16131Y-13798D01*
X16145Y-13870D01*
X16186Y-13931D01*
X16840Y-14585D01*
X16840Y-16499D01*
X16820Y-16546D01*
X16820Y-16605D01*
X16820Y-16861D01*
X16842Y-16916D01*
X16857Y-16930D01*
X16843Y-16944D01*
X16820Y-16999D01*
X16820Y-17058D01*
X16820Y-17314D01*
X16840Y-17362D01*
X16840Y-25039D01*
X16840Y-25275D01*
X16854Y-25347D01*
X16895Y-25408D01*
X20442Y-28955D01*
X20442Y-28975D01*
X20431Y-28950D01*
X20340Y-28859D01*
X20222Y-28810D01*
X20183Y-28810D01*
X19721Y-28349D01*
X17910Y-26538D01*
X16572Y-25199D01*
X16572Y-25199D01*
X16375Y-25002D01*
X16375Y-25002D01*
X16132Y-24759D01*
X16132Y-21397D01*
X16149Y-21385D01*
X16484Y-21051D01*
X16484Y-21051D01*
X16484Y-21051D01*
X16559Y-20939D01*
X16559Y-20939D01*
X16585Y-20807D01*
X16585Y-20196D01*
X16559Y-20064D01*
X16559Y-20064D01*
X16529Y-20019D01*
X16484Y-19952D01*
X16484Y-19952D01*
X15952Y-19421D01*
X15952Y-19421D01*
X15381Y-18850D01*
X15269Y-18775D01*
X15137Y-18749D01*
X14808Y-18749D01*
X14808Y-12649D01*
X14711Y-12396D01*
X14690Y-12365D01*
X14576Y-12325D01*
X14134Y-12767D01*
X14576Y-13209D01*
X14690Y-13169D01*
X14801Y-12921D01*
X14808Y-12649D01*
X14808Y-18749D01*
X14563Y-18749D01*
X14563Y-13222D01*
X14122Y-12780D01*
X14109Y-12793D01*
X14109Y-12767D01*
X13667Y-12325D01*
X13553Y-12365D01*
X13442Y-12613D01*
X13435Y-12885D01*
X13533Y-13139D01*
X13553Y-13169D01*
X13667Y-13209D01*
X14109Y-12767D01*
X14109Y-12793D01*
X13680Y-13222D01*
X13720Y-13336D01*
X13968Y-13446D01*
X14239Y-13454D01*
X14493Y-13356D01*
X14524Y-13336D01*
X14563Y-13222D01*
X14563Y-18749D01*
X14461Y-18749D01*
X14455Y-18735D01*
X14413Y-18693D01*
X14359Y-18671D01*
X14300Y-18671D01*
X13950Y-18671D01*
X13895Y-18693D01*
X13853Y-18735D01*
X13831Y-18789D01*
X13831Y-18848D01*
X13831Y-18984D01*
X13829Y-18992D01*
X13829Y-18868D01*
X13829Y-18769D01*
X13791Y-18677D01*
X13720Y-18607D01*
X13629Y-18569D01*
X13476Y-18569D01*
X13413Y-18631D01*
X13413Y-19085D01*
X13421Y-19085D01*
X13421Y-19103D01*
X13413Y-19103D01*
X13413Y-19111D01*
X13395Y-19111D01*
X13395Y-19103D01*
X13395Y-19085D01*
X13395Y-18631D01*
X13332Y-18569D01*
X13180Y-18569D01*
X13088Y-18607D01*
X13017Y-18677D01*
X12979Y-18769D01*
X12979Y-18868D01*
X12979Y-19022D01*
X13042Y-19085D01*
X13395Y-19085D01*
X13395Y-19103D01*
X13042Y-19103D01*
X12979Y-19166D01*
X12979Y-19319D01*
X12979Y-19419D01*
X13017Y-19511D01*
X13088Y-19581D01*
X13180Y-19619D01*
X13332Y-19619D01*
X13395Y-19556D01*
X13395Y-19562D01*
X13014Y-19943D01*
X12960Y-20023D01*
X12942Y-20118D01*
X12942Y-20382D01*
X12844Y-20382D01*
X12790Y-20404D01*
X12748Y-20446D01*
X12747Y-20449D01*
X12747Y-10760D01*
X12545Y-10271D01*
X12171Y-9897D01*
X11682Y-9694D01*
X11154Y-9693D01*
X10665Y-9895D01*
X10290Y-10269D01*
X10088Y-10758D01*
X10087Y-11286D01*
X10289Y-11775D01*
X10663Y-12150D01*
X11151Y-12352D01*
X11680Y-12353D01*
X12169Y-12151D01*
X12543Y-11777D01*
X12746Y-11289D01*
X12747Y-10760D01*
X12747Y-20449D01*
X12725Y-20501D01*
X12725Y-20560D01*
X12725Y-20836D01*
X12748Y-20890D01*
X12756Y-20899D01*
X12731Y-20910D01*
X12661Y-20980D01*
X12623Y-21072D01*
X12623Y-21188D01*
X12686Y-21250D01*
X13277Y-21250D01*
X13277Y-21242D01*
X13296Y-21242D01*
X13296Y-21250D01*
X13503Y-21250D01*
X13888Y-21250D01*
X14222Y-21250D01*
X14222Y-20678D01*
X14160Y-20616D01*
X13740Y-20616D01*
X13652Y-20616D01*
X13652Y-20501D01*
X13629Y-20446D01*
X13588Y-20405D01*
X13533Y-20382D01*
X13474Y-20382D01*
X13435Y-20382D01*
X13435Y-20220D01*
X13684Y-19971D01*
X14055Y-19971D01*
X14149Y-19952D01*
X14149Y-19952D01*
X14229Y-19898D01*
X14329Y-19799D01*
X14329Y-19799D01*
X14329Y-19799D01*
X14382Y-19719D01*
X14382Y-19719D01*
X14401Y-19625D01*
X14401Y-19625D01*
X14401Y-19500D01*
X14413Y-19495D01*
X14455Y-19453D01*
X14461Y-19439D01*
X14994Y-19439D01*
X15464Y-19909D01*
X15464Y-19909D01*
X15751Y-20196D01*
X15661Y-20287D01*
X15586Y-20399D01*
X15560Y-20531D01*
X15560Y-21141D01*
X15586Y-21273D01*
X15638Y-21352D01*
X15638Y-24862D01*
X15657Y-24956D01*
X15711Y-25036D01*
X16026Y-25351D01*
X16026Y-25351D01*
X16223Y-25548D01*
X16223Y-25548D01*
X17561Y-26887D01*
X19372Y-28698D01*
X19834Y-29159D01*
X19833Y-29197D01*
X19883Y-29316D01*
X19974Y-29407D01*
X20092Y-29457D01*
X20221Y-29457D01*
X20340Y-29408D01*
X20431Y-29317D01*
X20480Y-29198D01*
X20480Y-29127D01*
X20485Y-29138D01*
X20566Y-29218D01*
X20671Y-29262D01*
X20785Y-29262D01*
X20890Y-29219D01*
X20970Y-29138D01*
X20985Y-29103D01*
X21084Y-29144D01*
X21198Y-29144D01*
X21303Y-29101D01*
X21384Y-29020D01*
X21427Y-28915D01*
X21428Y-28801D01*
X21384Y-28696D01*
X21304Y-28615D01*
X21198Y-28572D01*
X21121Y-28572D01*
X20269Y-27720D01*
X20269Y-18606D01*
X20197Y-18430D01*
X20062Y-18295D01*
X19886Y-18222D01*
X19696Y-18222D01*
X19520Y-18294D01*
X19385Y-18429D01*
X19312Y-18605D01*
X19312Y-18795D01*
X19385Y-18971D01*
X19519Y-19106D01*
X19695Y-19179D01*
X19886Y-19179D01*
X20061Y-19106D01*
X20196Y-18972D01*
X20269Y-18796D01*
X20269Y-18606D01*
X20269Y-27720D01*
X19269Y-26720D01*
X19269Y-18606D01*
X19197Y-18430D01*
X19062Y-18295D01*
X18886Y-18222D01*
X18696Y-18222D01*
X18520Y-18294D01*
X18385Y-18429D01*
X18312Y-18605D01*
X18312Y-18795D01*
X18385Y-18971D01*
X18519Y-19106D01*
X18695Y-19179D01*
X18886Y-19179D01*
X19061Y-19106D01*
X19196Y-18972D01*
X19269Y-18796D01*
X19269Y-18606D01*
X19269Y-26720D01*
X17412Y-24863D01*
X17412Y-24822D01*
X17412Y-17673D01*
X17458Y-17703D01*
X17530Y-17717D01*
X20342Y-17717D01*
X22678Y-20054D01*
X22678Y-20131D01*
X22722Y-20236D01*
X22802Y-20317D01*
X22907Y-20361D01*
X22922Y-20361D01*
X22901Y-20393D01*
X22887Y-20465D01*
X22887Y-20885D01*
X22901Y-20956D01*
X22942Y-21017D01*
X22980Y-21056D01*
X22975Y-21056D01*
X22904Y-21070D01*
X22843Y-21111D01*
X22843Y-21111D01*
X22843Y-21111D01*
X21717Y-22237D01*
X21676Y-22298D01*
X21662Y-22370D01*
X21662Y-23950D01*
X21676Y-24021D01*
X21717Y-24082D01*
X24403Y-26769D01*
X24403Y-26846D01*
X24447Y-26951D01*
X24527Y-27032D01*
X24632Y-27076D01*
X24746Y-27076D01*
X24807Y-27051D01*
X24807Y-28985D01*
X24821Y-29056D01*
X24862Y-29117D01*
X25048Y-29304D01*
X25109Y-29344D01*
X25109Y-29344D01*
X25181Y-29359D01*
X25287Y-29359D01*
X25295Y-29380D01*
X25336Y-29421D01*
X25295Y-29462D01*
X25273Y-29516D01*
X25273Y-29575D01*
X25273Y-29825D01*
X25295Y-29880D01*
X25336Y-29921D01*
X25295Y-29962D01*
X25287Y-29983D01*
X20049Y-29983D01*
X18873Y-28808D01*
X18812Y-28767D01*
X18740Y-28753D01*
X15023Y-28753D01*
X15023Y-21702D01*
X15023Y-20816D01*
X14985Y-20724D01*
X14915Y-20654D01*
X14823Y-20616D01*
X14723Y-20616D01*
X14303Y-20616D01*
X14241Y-20678D01*
X14241Y-21250D01*
X14961Y-21250D01*
X15023Y-21188D01*
X15023Y-20816D01*
X15023Y-21702D01*
X15023Y-21331D01*
X14961Y-21268D01*
X14241Y-21268D01*
X14241Y-21840D01*
X14303Y-21903D01*
X14723Y-21903D01*
X14823Y-21903D01*
X14915Y-21865D01*
X14985Y-21794D01*
X15023Y-21702D01*
X15023Y-28753D01*
X13914Y-28753D01*
X13888Y-28689D01*
X13763Y-28564D01*
X13702Y-28539D01*
X13762Y-28514D01*
X13887Y-28389D01*
X13914Y-28325D01*
X13922Y-28325D01*
X13994Y-28311D01*
X14054Y-28270D01*
X14572Y-27752D01*
X14572Y-27752D01*
X14572Y-27752D01*
X14613Y-27691D01*
X14613Y-27691D01*
X14627Y-27620D01*
X14627Y-27206D01*
X14692Y-27142D01*
X14736Y-27037D01*
X14736Y-26923D01*
X14692Y-26818D01*
X14612Y-26737D01*
X14597Y-26731D01*
X14597Y-24212D01*
X14570Y-24080D01*
X14496Y-23968D01*
X14401Y-23905D01*
X14401Y-23831D01*
X14413Y-23826D01*
X14455Y-23784D01*
X14477Y-23729D01*
X14477Y-23670D01*
X14477Y-23120D01*
X14455Y-23066D01*
X14413Y-23024D01*
X14401Y-23019D01*
X14401Y-22973D01*
X14382Y-22878D01*
X14382Y-22878D01*
X14329Y-22798D01*
X13954Y-22423D01*
X13873Y-22370D01*
X13779Y-22351D01*
X13606Y-22351D01*
X13435Y-22181D01*
X13435Y-22137D01*
X13533Y-22137D01*
X13587Y-22114D01*
X13629Y-22073D01*
X13652Y-22018D01*
X13652Y-21959D01*
X13652Y-21903D01*
X13740Y-21903D01*
X14160Y-21903D01*
X14222Y-21840D01*
X14222Y-21268D01*
X13888Y-21268D01*
X13503Y-21268D01*
X13296Y-21268D01*
X13296Y-21276D01*
X13277Y-21276D01*
X13277Y-21268D01*
X12686Y-21268D01*
X12623Y-21331D01*
X12623Y-21447D01*
X12661Y-21539D01*
X12731Y-21609D01*
X12756Y-21620D01*
X12748Y-21628D01*
X12725Y-21683D01*
X12725Y-21742D01*
X12725Y-22018D01*
X12748Y-22072D01*
X12789Y-22114D01*
X12844Y-22137D01*
X12903Y-22137D01*
X12942Y-22137D01*
X12942Y-22283D01*
X12960Y-22377D01*
X13014Y-22458D01*
X13329Y-22772D01*
X13329Y-22772D01*
X13409Y-22826D01*
X13409Y-22826D01*
X13456Y-22835D01*
X13503Y-22845D01*
X13503Y-22845D01*
X13503Y-22845D01*
X13677Y-22845D01*
X13875Y-23043D01*
X13853Y-23066D01*
X13831Y-23120D01*
X13831Y-23179D01*
X13831Y-23729D01*
X13853Y-23784D01*
X13895Y-23825D01*
X13907Y-23831D01*
X13907Y-23867D01*
X13765Y-23867D01*
X13791Y-23841D01*
X13829Y-23750D01*
X13829Y-23650D01*
X13829Y-23199D01*
X13829Y-23100D01*
X13791Y-23008D01*
X13720Y-22938D01*
X13629Y-22900D01*
X13476Y-22900D01*
X13413Y-22962D01*
X13413Y-23416D01*
X13767Y-23416D01*
X13829Y-23353D01*
X13829Y-23199D01*
X13829Y-23650D01*
X13829Y-23496D01*
X13767Y-23434D01*
X13413Y-23434D01*
X13413Y-23442D01*
X13395Y-23442D01*
X13395Y-23434D01*
X13395Y-23416D01*
X13395Y-22962D01*
X13332Y-22900D01*
X13180Y-22900D01*
X13088Y-22938D01*
X13017Y-23008D01*
X12979Y-23100D01*
X12979Y-23199D01*
X12979Y-23353D01*
X13042Y-23416D01*
X13395Y-23416D01*
X13395Y-23434D01*
X13042Y-23434D01*
X12979Y-23496D01*
X12979Y-23650D01*
X12979Y-23750D01*
X13017Y-23841D01*
X13088Y-23912D01*
X13180Y-23950D01*
X13306Y-23950D01*
X13279Y-23968D01*
X13279Y-23968D01*
X13003Y-24244D01*
X12929Y-24356D01*
X12902Y-24488D01*
X12902Y-24606D01*
X12929Y-24738D01*
X13003Y-24850D01*
X13020Y-24861D01*
X12789Y-24950D01*
X12759Y-24970D01*
X12719Y-25084D01*
X13161Y-25526D01*
X13603Y-25084D01*
X13563Y-24970D01*
X13520Y-24951D01*
X13858Y-24951D01*
X13990Y-24925D01*
X14102Y-24850D01*
X14496Y-24456D01*
X14570Y-24344D01*
X14597Y-24212D01*
X14597Y-26731D01*
X14507Y-26693D01*
X14393Y-26693D01*
X14288Y-26737D01*
X14207Y-26817D01*
X14163Y-26922D01*
X14163Y-27036D01*
X14207Y-27141D01*
X14252Y-27186D01*
X14252Y-27542D01*
X13894Y-27900D01*
X13888Y-27886D01*
X13763Y-27761D01*
X13702Y-27736D01*
X13762Y-27711D01*
X13887Y-27586D01*
X13955Y-27423D01*
X13955Y-27246D01*
X13888Y-27083D01*
X13847Y-27042D01*
X13847Y-25421D01*
X13750Y-25167D01*
X13730Y-25137D01*
X13616Y-25097D01*
X13174Y-25539D01*
X13616Y-25981D01*
X13730Y-25941D01*
X13840Y-25693D01*
X13847Y-25421D01*
X13847Y-27042D01*
X13763Y-26958D01*
X13603Y-26891D01*
X13603Y-25993D01*
X13161Y-25552D01*
X13148Y-25564D01*
X13148Y-25539D01*
X12706Y-25097D01*
X12592Y-25137D01*
X12482Y-25385D01*
X12475Y-25657D01*
X12488Y-25691D01*
X12302Y-25505D01*
X11984Y-25373D01*
X11639Y-25373D01*
X11320Y-25504D01*
X11076Y-25748D01*
X10944Y-26066D01*
X10943Y-26411D01*
X11075Y-26730D01*
X11319Y-26974D01*
X11637Y-27106D01*
X11982Y-27107D01*
X12301Y-26975D01*
X12545Y-26731D01*
X12677Y-26413D01*
X12678Y-26068D01*
X12631Y-25954D01*
X12706Y-25981D01*
X13148Y-25539D01*
X13148Y-25564D01*
X12719Y-25993D01*
X12759Y-26108D01*
X13007Y-26218D01*
X13279Y-26225D01*
X13533Y-26128D01*
X13563Y-26108D01*
X13603Y-25993D01*
X13603Y-26891D01*
X13600Y-26890D01*
X13423Y-26890D01*
X13260Y-26958D01*
X13135Y-27082D01*
X13067Y-27245D01*
X13067Y-27253D01*
X12932Y-27193D01*
X12715Y-27188D01*
X12512Y-27266D01*
X12491Y-27280D01*
X12468Y-27380D01*
X12811Y-27723D01*
X12816Y-27717D01*
X12829Y-27730D01*
X12823Y-27736D01*
X12829Y-27741D01*
X12816Y-27754D01*
X12811Y-27749D01*
X12798Y-27761D01*
X12798Y-27736D01*
X12455Y-27393D01*
X12355Y-27416D01*
X12268Y-27615D01*
X12263Y-27832D01*
X12341Y-28034D01*
X12355Y-28055D01*
X12455Y-28078D01*
X12798Y-27736D01*
X12798Y-27761D01*
X12468Y-28091D01*
X12491Y-28191D01*
X12519Y-28203D01*
X12434Y-28287D01*
X12367Y-28450D01*
X12367Y-28627D01*
X12434Y-28790D01*
X12515Y-28871D01*
X12512Y-28873D01*
X12491Y-28887D01*
X12468Y-28987D01*
X12811Y-29329D01*
X12816Y-29324D01*
X12829Y-29336D01*
X12823Y-29342D01*
X12829Y-29348D01*
X12816Y-29360D01*
X12811Y-29355D01*
X12798Y-29368D01*
X12798Y-29342D01*
X12455Y-28999D01*
X12355Y-29022D01*
X12268Y-29221D01*
X12263Y-29438D01*
X12341Y-29640D01*
X12355Y-29662D01*
X12455Y-29685D01*
X12798Y-29342D01*
X12798Y-29368D01*
X12468Y-29697D01*
X12491Y-29797D01*
X12519Y-29809D01*
X12434Y-29893D01*
X12367Y-30056D01*
X12367Y-30233D01*
X12434Y-30396D01*
X12559Y-30521D01*
X12722Y-30589D01*
X12898Y-30589D01*
X13062Y-30522D01*
X13187Y-30397D01*
X13254Y-30234D01*
X13254Y-30115D01*
X13260Y-30120D01*
X13423Y-30187D01*
X13599Y-30188D01*
X13762Y-30120D01*
X13887Y-29995D01*
X13914Y-29931D01*
X18476Y-29931D01*
X19348Y-30804D01*
X19348Y-30804D01*
X19409Y-30844D01*
X19409Y-30844D01*
X19481Y-30859D01*
X19481Y-30859D01*
X25287Y-30859D01*
X25295Y-30880D01*
X25336Y-30921D01*
X25295Y-30962D01*
X25273Y-31016D01*
X25273Y-31075D01*
X25273Y-31325D01*
X25295Y-31380D01*
X25336Y-31421D01*
X25333Y-31424D01*
X22905Y-31424D01*
X22860Y-31379D01*
X22741Y-31330D01*
X22613Y-31330D01*
X22494Y-31379D01*
X22403Y-31470D01*
X22353Y-31588D01*
X22353Y-31717D01*
X22402Y-31836D01*
X22493Y-31927D01*
X22612Y-31976D01*
X22741Y-31977D01*
X22860Y-31927D01*
X22869Y-31918D01*
X25333Y-31918D01*
X25337Y-31922D01*
X25392Y-31944D01*
X25451Y-31944D01*
X25951Y-31944D01*
X26005Y-31922D01*
X26047Y-31880D01*
X26070Y-31825D01*
X26070Y-31766D01*
X26070Y-31516D01*
X26047Y-31462D01*
X26006Y-31421D01*
X26047Y-31380D01*
X26056Y-31359D01*
X26103Y-31359D01*
X27697Y-32952D01*
X27697Y-33447D01*
X27642Y-33501D01*
X27642Y-33930D01*
X27650Y-33930D01*
X27650Y-33948D01*
X27642Y-33948D01*
X27642Y-34376D01*
X27697Y-34431D01*
X27697Y-34757D01*
X27624Y-34829D01*
X27624Y-34376D01*
X27624Y-33948D01*
X27624Y-33930D01*
X27624Y-33501D01*
X27562Y-33439D01*
X27459Y-33439D01*
X27367Y-33477D01*
X27297Y-33547D01*
X27258Y-33639D01*
X27258Y-33738D01*
X27258Y-33867D01*
X27321Y-33930D01*
X27624Y-33930D01*
X27624Y-33948D01*
X27321Y-33948D01*
X27258Y-34010D01*
X27258Y-34139D01*
X27258Y-34239D01*
X27297Y-34331D01*
X27367Y-34401D01*
X27459Y-34439D01*
X27562Y-34439D01*
X27624Y-34376D01*
X27624Y-34829D01*
X27501Y-34953D01*
X27460Y-35014D01*
X27446Y-35086D01*
X27446Y-35754D01*
X27424Y-35763D01*
X27383Y-35805D01*
X27360Y-35859D01*
X27360Y-35918D01*
X27360Y-36418D01*
X27382Y-36473D01*
X27424Y-36515D01*
X27479Y-36537D01*
X27538Y-36537D01*
X27788Y-36537D01*
X27842Y-36515D01*
X27883Y-36474D01*
X27924Y-36515D01*
X27946Y-36524D01*
X27946Y-36698D01*
X27765Y-36879D01*
X27659Y-36879D01*
X27554Y-36922D01*
X27474Y-37003D01*
X27430Y-37108D01*
X27430Y-37222D01*
X27473Y-37327D01*
X27554Y-37407D01*
X27659Y-37451D01*
X27773Y-37451D01*
X27878Y-37408D01*
X27959Y-37327D01*
X28002Y-37222D01*
X28002Y-37172D01*
X28266Y-36908D01*
X28307Y-36848D01*
X28307Y-36848D01*
X28321Y-36776D01*
X28321Y-36524D01*
X28342Y-36515D01*
X28383Y-36474D01*
X28424Y-36515D01*
X28479Y-36537D01*
X28538Y-36537D01*
X28788Y-36537D01*
X28842Y-36515D01*
X28883Y-36474D01*
X28924Y-36515D01*
X28979Y-36537D01*
X29038Y-36537D01*
X29288Y-36537D01*
X29342Y-36515D01*
X29383Y-36474D01*
X29424Y-36515D01*
X29479Y-36537D01*
X29538Y-36537D01*
X29788Y-36537D01*
X29842Y-36515D01*
X29883Y-36474D01*
X29924Y-36515D01*
X29979Y-36537D01*
X30038Y-36537D01*
X30288Y-36537D01*
X30342Y-36515D01*
X30383Y-36474D01*
X30424Y-36515D01*
X30479Y-36537D01*
X30538Y-36537D01*
X30788Y-36537D01*
X30842Y-36515D01*
X30884Y-36473D01*
X30907Y-36419D01*
X30907Y-36386D01*
X31104Y-36386D01*
X31199Y-36367D01*
X31199Y-36367D01*
X31279Y-36313D01*
X32851Y-34741D01*
X32851Y-34741D01*
X32851Y-34741D01*
X32905Y-34661D01*
X32924Y-34566D01*
X32924Y-34566D01*
X32924Y-32519D01*
X32924Y-32519D01*
X32905Y-32425D01*
X32905Y-32425D01*
X32851Y-32345D01*
X32851Y-32345D01*
X32536Y-32030D01*
X32456Y-31976D01*
X32362Y-31957D01*
X32228Y-31957D01*
X32129Y-31859D01*
X32605Y-31859D01*
X32613Y-31880D01*
X32655Y-31922D01*
X32710Y-31944D01*
X32769Y-31944D01*
X33269Y-31944D01*
X33323Y-31922D01*
X33365Y-31880D01*
X33388Y-31825D01*
X33388Y-31766D01*
X33388Y-31516D01*
X33365Y-31462D01*
X33324Y-31421D01*
X33365Y-31380D01*
X33374Y-31359D01*
X35580Y-31359D01*
X35652Y-31344D01*
X35713Y-31304D01*
X36317Y-30699D01*
X37244Y-30699D01*
X37315Y-30685D01*
X37376Y-30644D01*
X38617Y-29403D01*
X38617Y-29403D01*
X38617Y-29403D01*
X38658Y-29342D01*
X38658Y-29342D01*
X38672Y-29270D01*
X38672Y-29270D01*
X38672Y-28956D01*
X38679Y-28939D01*
X40086Y-28939D01*
X40158Y-28925D01*
X40219Y-28884D01*
X41180Y-27924D01*
X44353Y-27924D01*
X44379Y-27987D01*
X44504Y-28112D01*
X44565Y-28137D01*
X44504Y-28162D01*
X44379Y-28287D01*
X44312Y-28450D01*
X44311Y-28627D01*
X44379Y-28790D01*
X44504Y-28915D01*
X44565Y-28940D01*
X44504Y-28965D01*
X44379Y-29090D01*
X44312Y-29253D01*
X44311Y-29430D01*
X44379Y-29593D01*
X44504Y-29718D01*
X44565Y-29744D01*
X44504Y-29769D01*
X44379Y-29893D01*
X44312Y-30056D01*
X44311Y-30233D01*
X44379Y-30396D01*
X44504Y-30521D01*
X44667Y-30589D01*
X44843Y-30589D01*
X45007Y-30522D01*
X45132Y-30397D01*
X45199Y-30234D01*
X45199Y-30226D01*
X45335Y-30286D01*
X45552Y-30291D01*
X45754Y-30213D01*
X45776Y-30199D01*
X45799Y-30099D01*
X45456Y-29756D01*
X45451Y-29762D01*
X45438Y-29749D01*
X45443Y-29744D01*
X45438Y-29738D01*
X45451Y-29725D01*
X45456Y-29731D01*
X45799Y-29388D01*
X45776Y-29288D01*
X45748Y-29276D01*
X45832Y-29192D01*
X45900Y-29029D01*
X45900Y-28853D01*
X45833Y-28689D01*
X45751Y-28608D01*
X45754Y-28607D01*
X45776Y-28593D01*
X45799Y-28493D01*
X45456Y-28150D01*
X45451Y-28156D01*
X45438Y-28143D01*
X45443Y-28137D01*
X45438Y-28132D01*
X45451Y-28119D01*
X45456Y-28124D01*
X45799Y-27782D01*
X45776Y-27682D01*
X45748Y-27670D01*
X45832Y-27586D01*
X45900Y-27423D01*
X45900Y-27246D01*
X45833Y-27083D01*
X45708Y-26958D01*
X45548Y-26891D01*
X45548Y-25993D01*
X45106Y-25552D01*
X45093Y-25564D01*
X45093Y-25539D01*
X44651Y-25097D01*
X44537Y-25137D01*
X44427Y-25385D01*
X44419Y-25657D01*
X44517Y-25910D01*
X44537Y-25941D01*
X44651Y-25981D01*
X45093Y-25539D01*
X45093Y-25564D01*
X44664Y-25993D01*
X44704Y-26108D01*
X44952Y-26218D01*
X45224Y-26225D01*
X45477Y-26128D01*
X45508Y-26108D01*
X45548Y-25993D01*
X45548Y-26891D01*
X45545Y-26890D01*
X45368Y-26890D01*
X45205Y-26958D01*
X45080Y-27082D01*
X45012Y-27245D01*
X45012Y-27365D01*
X45007Y-27360D01*
X44844Y-27292D01*
X44667Y-27292D01*
X44603Y-27318D01*
X44335Y-27050D01*
X44335Y-23978D01*
X44335Y-23550D01*
X44327Y-23550D01*
X44327Y-23531D01*
X44335Y-23531D01*
X44335Y-23103D01*
X44272Y-23040D01*
X44169Y-23040D01*
X44078Y-23078D01*
X44009Y-23146D01*
X43999Y-23142D01*
X43940Y-23142D01*
X43690Y-23142D01*
X43635Y-23165D01*
X43594Y-23206D01*
X43553Y-23165D01*
X43499Y-23142D01*
X43440Y-23142D01*
X43190Y-23142D01*
X43135Y-23165D01*
X43094Y-23206D01*
X43053Y-23165D01*
X42999Y-23142D01*
X42940Y-23142D01*
X42690Y-23142D01*
X42635Y-23165D01*
X42594Y-23206D01*
X42553Y-23165D01*
X42499Y-23142D01*
X42440Y-23142D01*
X42190Y-23142D01*
X42135Y-23165D01*
X42093Y-23206D01*
X42071Y-23261D01*
X42071Y-23320D01*
X42071Y-23820D01*
X42093Y-23874D01*
X42135Y-23916D01*
X42189Y-23939D01*
X42248Y-23939D01*
X42498Y-23939D01*
X42553Y-23916D01*
X42594Y-23875D01*
X42635Y-23916D01*
X42689Y-23939D01*
X42748Y-23939D01*
X42998Y-23939D01*
X43053Y-23916D01*
X43094Y-23875D01*
X43135Y-23916D01*
X43189Y-23939D01*
X43248Y-23939D01*
X43498Y-23939D01*
X43553Y-23916D01*
X43594Y-23875D01*
X43635Y-23916D01*
X43689Y-23939D01*
X43748Y-23939D01*
X43998Y-23939D01*
X44009Y-23934D01*
X44078Y-24003D01*
X44169Y-24040D01*
X44272Y-24040D01*
X44335Y-23978D01*
X44335Y-27050D01*
X41939Y-24654D01*
X41939Y-23168D01*
X42622Y-22485D01*
X44802Y-22485D01*
X44822Y-22485D01*
X45084Y-22485D01*
X45156Y-22470D01*
X45217Y-22430D01*
X45477Y-22170D01*
X45517Y-22109D01*
X45517Y-22109D01*
X45532Y-22037D01*
X45532Y-21757D01*
X45578Y-21803D01*
X45669Y-21840D01*
X45772Y-21840D01*
X45835Y-21778D01*
X45835Y-21350D01*
X45827Y-21350D01*
X45827Y-21331D01*
X45835Y-21331D01*
X45835Y-20903D01*
X45772Y-20840D01*
X45669Y-20840D01*
X45578Y-20878D01*
X45509Y-20946D01*
X45499Y-20942D01*
X45440Y-20942D01*
X45190Y-20942D01*
X45135Y-20965D01*
X45094Y-21006D01*
X45053Y-20965D01*
X44999Y-20942D01*
X44940Y-20942D01*
X44690Y-20942D01*
X44635Y-20965D01*
X44594Y-21006D01*
X44553Y-20965D01*
X44532Y-20956D01*
X44532Y-20533D01*
X44709Y-20356D01*
X44786Y-20356D01*
X44891Y-20312D01*
X44972Y-20232D01*
X45016Y-20127D01*
X45016Y-20013D01*
X44972Y-19908D01*
X44892Y-19827D01*
X44787Y-19783D01*
X44673Y-19783D01*
X44625Y-19803D01*
X44636Y-19777D01*
X44636Y-19663D01*
X44592Y-19558D01*
X44512Y-19477D01*
X44407Y-19433D01*
X44293Y-19433D01*
X44286Y-19436D01*
X44286Y-19343D01*
X44242Y-19238D01*
X44162Y-19157D01*
X44057Y-19113D01*
X43943Y-19113D01*
X43838Y-19157D01*
X43757Y-19237D01*
X43713Y-19342D01*
X43713Y-19456D01*
X43757Y-19561D01*
X43812Y-19617D01*
X43812Y-19852D01*
X43211Y-20452D01*
X43170Y-20513D01*
X43156Y-20585D01*
X43156Y-20956D01*
X43135Y-20965D01*
X43094Y-21006D01*
X43053Y-20965D01*
X43032Y-20956D01*
X43032Y-20478D01*
X43546Y-19964D01*
X43586Y-19903D01*
X43586Y-19903D01*
X43601Y-19831D01*
X43601Y-19140D01*
X43684Y-19106D01*
X43818Y-18972D01*
X43891Y-18796D01*
X43891Y-18606D01*
X43854Y-18514D01*
X44468Y-19129D01*
X44529Y-19170D01*
X44601Y-19184D01*
X45826Y-19184D01*
X45874Y-19204D01*
X45933Y-19204D01*
X46189Y-19204D01*
X46243Y-19181D01*
X46258Y-19167D01*
X46272Y-19181D01*
X46297Y-19191D01*
X46297Y-19284D01*
X46311Y-19356D01*
X46352Y-19417D01*
X46546Y-19612D01*
X46546Y-19734D01*
X46595Y-19852D01*
X46686Y-19944D01*
X46805Y-19993D01*
X46934Y-19993D01*
X47052Y-19944D01*
X47144Y-19853D01*
X47193Y-19734D01*
X47193Y-19605D01*
X47193Y-25753D01*
X47192Y-25749D01*
X46948Y-25505D01*
X46721Y-25411D01*
X46721Y-23479D01*
X46671Y-23360D01*
X46581Y-23269D01*
X46462Y-23219D01*
X46333Y-23219D01*
X46219Y-23266D01*
X46219Y-21541D01*
X46219Y-21140D01*
X46219Y-21040D01*
X46181Y-20949D01*
X46110Y-20878D01*
X46018Y-20840D01*
X45916Y-20840D01*
X45853Y-20903D01*
X45853Y-21331D01*
X46156Y-21331D01*
X46219Y-21269D01*
X46219Y-21140D01*
X46219Y-21541D01*
X46219Y-21412D01*
X46156Y-21350D01*
X45853Y-21350D01*
X45853Y-21778D01*
X45916Y-21840D01*
X46018Y-21840D01*
X46110Y-21803D01*
X46181Y-21732D01*
X46219Y-21640D01*
X46219Y-21541D01*
X46219Y-23266D01*
X46214Y-23268D01*
X46189Y-23294D01*
X46117Y-23294D01*
X46117Y-23261D01*
X46095Y-23206D01*
X46053Y-23165D01*
X45999Y-23142D01*
X45940Y-23142D01*
X45690Y-23142D01*
X45679Y-23147D01*
X45610Y-23078D01*
X45518Y-23040D01*
X45416Y-23040D01*
X45353Y-23103D01*
X45353Y-23531D01*
X45361Y-23531D01*
X45361Y-23550D01*
X45353Y-23550D01*
X45353Y-23978D01*
X45416Y-24040D01*
X45518Y-24040D01*
X45610Y-24003D01*
X45679Y-23934D01*
X45689Y-23939D01*
X45748Y-23939D01*
X45998Y-23939D01*
X46053Y-23916D01*
X46095Y-23875D01*
X46117Y-23820D01*
X46117Y-23787D01*
X46184Y-23787D01*
X46214Y-23817D01*
X46333Y-23866D01*
X46461Y-23866D01*
X46580Y-23817D01*
X46671Y-23726D01*
X46721Y-23607D01*
X46721Y-23479D01*
X46721Y-25411D01*
X46629Y-25373D01*
X46285Y-25373D01*
X45966Y-25504D01*
X45785Y-25684D01*
X45792Y-25421D01*
X45695Y-25167D01*
X45675Y-25137D01*
X45560Y-25097D01*
X45548Y-25110D01*
X45548Y-25084D01*
X45508Y-24970D01*
X45335Y-24893D01*
X45335Y-23978D01*
X45335Y-23550D01*
X45335Y-23531D01*
X45335Y-23103D01*
X45272Y-23040D01*
X45169Y-23040D01*
X45094Y-23072D01*
X45018Y-23040D01*
X44916Y-23040D01*
X44853Y-23103D01*
X44853Y-23531D01*
X45031Y-23531D01*
X45156Y-23531D01*
X45335Y-23531D01*
X45335Y-23550D01*
X45156Y-23550D01*
X45031Y-23550D01*
X44853Y-23550D01*
X44853Y-23978D01*
X44916Y-24040D01*
X45018Y-24040D01*
X45094Y-24009D01*
X45169Y-24040D01*
X45272Y-24040D01*
X45335Y-23978D01*
X45335Y-24893D01*
X45260Y-24860D01*
X44988Y-24852D01*
X44835Y-24911D01*
X44835Y-23978D01*
X44835Y-23550D01*
X44835Y-23531D01*
X44835Y-23103D01*
X44772Y-23040D01*
X44669Y-23040D01*
X44594Y-23072D01*
X44518Y-23040D01*
X44416Y-23040D01*
X44353Y-23103D01*
X44353Y-23531D01*
X44531Y-23531D01*
X44656Y-23531D01*
X44835Y-23531D01*
X44835Y-23550D01*
X44656Y-23550D01*
X44531Y-23550D01*
X44353Y-23550D01*
X44353Y-23978D01*
X44416Y-24040D01*
X44518Y-24040D01*
X44594Y-24009D01*
X44669Y-24040D01*
X44772Y-24040D01*
X44835Y-23978D01*
X44835Y-24911D01*
X44734Y-24950D01*
X44704Y-24970D01*
X44664Y-25084D01*
X45106Y-25526D01*
X45548Y-25084D01*
X45548Y-25110D01*
X45119Y-25539D01*
X45560Y-25981D01*
X45636Y-25954D01*
X45589Y-26066D01*
X45589Y-26411D01*
X45721Y-26730D01*
X45964Y-26974D01*
X46283Y-27106D01*
X46628Y-27107D01*
X46947Y-26975D01*
X47191Y-26731D01*
X47323Y-26413D01*
X47323Y-26068D01*
X47323Y-31068D01*
X47192Y-30749D01*
X46948Y-30505D01*
X46629Y-30373D01*
X46285Y-30373D01*
X46004Y-30488D01*
X46004Y-29648D01*
X46004Y-28041D01*
X45926Y-27839D01*
X45911Y-27818D01*
X45812Y-27795D01*
X45469Y-28137D01*
X45812Y-28480D01*
X45911Y-28457D01*
X45999Y-28258D01*
X46004Y-28041D01*
X46004Y-29648D01*
X45926Y-29445D01*
X45911Y-29424D01*
X45812Y-29401D01*
X45469Y-29744D01*
X45812Y-30086D01*
X45911Y-30063D01*
X45999Y-29865D01*
X46004Y-29648D01*
X46004Y-30488D01*
X45966Y-30504D01*
X45722Y-30748D01*
X45589Y-31066D01*
X45589Y-31411D01*
X45636Y-31525D01*
X45560Y-31499D01*
X45548Y-31511D01*
X45548Y-31486D01*
X45508Y-31372D01*
X45260Y-31261D01*
X44988Y-31254D01*
X44734Y-31351D01*
X44704Y-31372D01*
X44664Y-31486D01*
X45106Y-31928D01*
X45548Y-31486D01*
X45548Y-31511D01*
X45119Y-31940D01*
X45560Y-32382D01*
X45675Y-32342D01*
X45785Y-32094D01*
X45792Y-31823D01*
X45779Y-31789D01*
X45964Y-31974D01*
X46283Y-32106D01*
X46628Y-32107D01*
X46947Y-31975D01*
X47191Y-31731D01*
X47323Y-31413D01*
X47323Y-31068D01*
X47323Y-45213D01*
X47116Y-45127D01*
X46587Y-45126D01*
X46098Y-45328D01*
X45723Y-45702D01*
X45548Y-46125D01*
X45548Y-32395D01*
X45106Y-31953D01*
X45093Y-31966D01*
X45093Y-31940D01*
X44651Y-31499D01*
X44537Y-31538D01*
X44427Y-31787D01*
X44419Y-32058D01*
X44517Y-32312D01*
X44537Y-32342D01*
X44651Y-32382D01*
X45093Y-31940D01*
X45093Y-31966D01*
X44664Y-32395D01*
X44704Y-32509D01*
X44952Y-32620D01*
X45224Y-32627D01*
X45477Y-32529D01*
X45508Y-32509D01*
X45548Y-32395D01*
X45548Y-46125D01*
X45521Y-46191D01*
X45520Y-46719D01*
X45722Y-47208D01*
X46096Y-47583D01*
X46584Y-47785D01*
X47113Y-47786D01*
X47602Y-47584D01*
X47976Y-47210D01*
X48179Y-46722D01*
X48180Y-46193D01*
X48180Y-48257D01*
X44679Y-48257D01*
X44679Y-45968D01*
X44606Y-45792D01*
X44472Y-45657D01*
X44388Y-45622D01*
X44388Y-44515D01*
X44374Y-44443D01*
X44374Y-44443D01*
X44333Y-44382D01*
X41778Y-41827D01*
X41717Y-41786D01*
X41645Y-41772D01*
X39938Y-41772D01*
X39975Y-41685D01*
X39975Y-41585D01*
X39975Y-41428D01*
X39975Y-41329D01*
X39936Y-41237D01*
X39866Y-41167D01*
X39774Y-41129D01*
X39737Y-41129D01*
X39684Y-41182D01*
X39669Y-41167D01*
X39606Y-41141D01*
X39594Y-41129D01*
X39577Y-41129D01*
X39577Y-41129D01*
X39567Y-41129D01*
X39557Y-41129D01*
X39557Y-41129D01*
X39540Y-41129D01*
X39528Y-41141D01*
X39469Y-41165D01*
X39409Y-41141D01*
X39397Y-41129D01*
X39380Y-41129D01*
X39380Y-41129D01*
X39370Y-41129D01*
X39360Y-41129D01*
X39360Y-41129D01*
X39343Y-41129D01*
X39331Y-41141D01*
X39272Y-41165D01*
X39212Y-41141D01*
X39200Y-41129D01*
X39183Y-41129D01*
X39183Y-41129D01*
X39173Y-41129D01*
X39163Y-41129D01*
X39163Y-41129D01*
X39146Y-41129D01*
X39134Y-41141D01*
X39071Y-41167D01*
X39056Y-41182D01*
X39003Y-41129D01*
X38966Y-41129D01*
X38874Y-41167D01*
X38804Y-41237D01*
X38766Y-41329D01*
X38766Y-41428D01*
X38766Y-41435D01*
X38828Y-41498D01*
X39025Y-41498D01*
X39066Y-41498D01*
X39084Y-41498D01*
X39222Y-41498D01*
X39263Y-41498D01*
X39281Y-41498D01*
X39321Y-41498D01*
X39419Y-41498D01*
X39460Y-41498D01*
X39478Y-41498D01*
X39518Y-41498D01*
X39657Y-41498D01*
X39675Y-41498D01*
X39715Y-41498D01*
X39912Y-41498D01*
X39975Y-41435D01*
X39975Y-41428D01*
X39975Y-41585D01*
X39975Y-41578D01*
X39912Y-41516D01*
X39715Y-41516D01*
X39675Y-41516D01*
X39657Y-41516D01*
X39518Y-41516D01*
X39478Y-41516D01*
X39460Y-41516D01*
X39419Y-41516D01*
X39321Y-41516D01*
X39281Y-41516D01*
X39263Y-41516D01*
X39222Y-41516D01*
X39084Y-41516D01*
X39066Y-41516D01*
X39025Y-41516D01*
X38828Y-41516D01*
X38766Y-41578D01*
X38766Y-41585D01*
X38766Y-41685D01*
X38802Y-41772D01*
X37409Y-41772D01*
X37337Y-41786D01*
X37277Y-41827D01*
X35800Y-43304D01*
X35759Y-43365D01*
X35745Y-43437D01*
X35745Y-45622D01*
X35662Y-45657D01*
X35527Y-45791D01*
X35454Y-45967D01*
X35454Y-46157D01*
X35527Y-46333D01*
X35661Y-46468D01*
X35837Y-46541D01*
X36027Y-46541D01*
X36203Y-46468D01*
X36338Y-46334D01*
X36411Y-46158D01*
X36411Y-45968D01*
X36338Y-45792D01*
X36204Y-45657D01*
X36120Y-45622D01*
X36120Y-43514D01*
X37487Y-42148D01*
X38880Y-42148D01*
X38890Y-42172D01*
X38931Y-42214D01*
X38986Y-42236D01*
X39045Y-42236D01*
X39084Y-42236D01*
X39084Y-42421D01*
X38556Y-42949D01*
X38515Y-43010D01*
X38501Y-43082D01*
X38501Y-45622D01*
X38418Y-45657D01*
X38283Y-45791D01*
X38210Y-45967D01*
X38210Y-46157D01*
X38283Y-46333D01*
X38417Y-46468D01*
X38593Y-46541D01*
X38783Y-46541D01*
X38959Y-46468D01*
X39094Y-46334D01*
X39167Y-46158D01*
X39167Y-45968D01*
X39094Y-45792D01*
X38960Y-45657D01*
X38876Y-45622D01*
X38876Y-43160D01*
X39350Y-42686D01*
X41257Y-44593D01*
X41257Y-45622D01*
X41174Y-45657D01*
X41039Y-45791D01*
X40966Y-45967D01*
X40966Y-46157D01*
X41039Y-46333D01*
X41173Y-46468D01*
X41349Y-46541D01*
X41539Y-46541D01*
X41715Y-46468D01*
X41850Y-46334D01*
X41923Y-46158D01*
X41923Y-45968D01*
X41850Y-45792D01*
X41716Y-45657D01*
X41632Y-45622D01*
X41632Y-44515D01*
X41618Y-44443D01*
X41618Y-44443D01*
X41577Y-44382D01*
X39656Y-42462D01*
X39656Y-42236D01*
X39754Y-42236D01*
X39809Y-42214D01*
X39850Y-42172D01*
X39860Y-42148D01*
X41567Y-42148D01*
X44012Y-44593D01*
X44012Y-45622D01*
X43930Y-45657D01*
X43795Y-45791D01*
X43722Y-45967D01*
X43722Y-46157D01*
X43794Y-46333D01*
X43929Y-46468D01*
X44105Y-46541D01*
X44295Y-46541D01*
X44471Y-46468D01*
X44606Y-46334D01*
X44679Y-46158D01*
X44679Y-45968D01*
X44679Y-48257D01*
X43679Y-48257D01*
X43679Y-45968D01*
X43606Y-45792D01*
X43472Y-45657D01*
X43296Y-45584D01*
X43106Y-45584D01*
X42930Y-45657D01*
X42795Y-45791D01*
X42722Y-45967D01*
X42722Y-46157D01*
X42756Y-46241D01*
X41666Y-47331D01*
X39441Y-47331D01*
X40266Y-46506D01*
X40349Y-46541D01*
X40539Y-46541D01*
X40715Y-46468D01*
X40850Y-46334D01*
X40923Y-46158D01*
X40923Y-45968D01*
X40850Y-45792D01*
X40716Y-45657D01*
X40540Y-45584D01*
X40350Y-45584D01*
X40174Y-45657D01*
X40039Y-45791D01*
X39966Y-45967D01*
X39966Y-46157D01*
X40000Y-46241D01*
X39185Y-47056D01*
X36961Y-47056D01*
X37510Y-46506D01*
X37593Y-46541D01*
X37783Y-46541D01*
X37959Y-46468D01*
X38094Y-46334D01*
X38167Y-46158D01*
X38167Y-45968D01*
X38094Y-45792D01*
X37960Y-45657D01*
X37784Y-45584D01*
X37594Y-45584D01*
X37418Y-45657D01*
X37283Y-45791D01*
X37210Y-45967D01*
X37210Y-46157D01*
X37245Y-46241D01*
X36745Y-46741D01*
X34684Y-46741D01*
X34164Y-46221D01*
X34164Y-43937D01*
X34149Y-43865D01*
X34149Y-43865D01*
X34109Y-43804D01*
X33134Y-42829D01*
X33073Y-42789D01*
X33001Y-42774D01*
X29990Y-42774D01*
X29940Y-42764D01*
X29869Y-42779D01*
X29808Y-42819D01*
X29798Y-42829D01*
X28683Y-43944D01*
X28620Y-43918D01*
X28443Y-43918D01*
X28427Y-43924D01*
X29684Y-42668D01*
X33268Y-42668D01*
X34745Y-44144D01*
X34745Y-45622D01*
X34662Y-45657D01*
X34527Y-45791D01*
X34454Y-45967D01*
X34454Y-46157D01*
X34527Y-46333D01*
X34661Y-46468D01*
X34837Y-46541D01*
X35027Y-46541D01*
X35203Y-46468D01*
X35338Y-46334D01*
X35411Y-46158D01*
X35411Y-45968D01*
X35338Y-45792D01*
X35204Y-45657D01*
X35120Y-45622D01*
X35120Y-44066D01*
X35106Y-43995D01*
X35106Y-43995D01*
X35065Y-43934D01*
X35065Y-43934D01*
X33479Y-42347D01*
X33418Y-42306D01*
X33346Y-42292D01*
X30424Y-42292D01*
X30424Y-39608D01*
X30380Y-39503D01*
X30300Y-39422D01*
X30194Y-39379D01*
X30081Y-39379D01*
X29975Y-39422D01*
X29921Y-39476D01*
X25802Y-39476D01*
X25787Y-39476D01*
X23858Y-39476D01*
X23810Y-39457D01*
X23751Y-39457D01*
X23533Y-39457D01*
X23469Y-39393D01*
X23378Y-39355D01*
X23278Y-39355D01*
X23271Y-39355D01*
X23209Y-39418D01*
X23209Y-39615D01*
X23209Y-39655D01*
X23209Y-39673D01*
X23209Y-39812D01*
X23209Y-39852D01*
X23209Y-39870D01*
X23209Y-39911D01*
X23209Y-40009D01*
X23209Y-40049D01*
X23209Y-40067D01*
X23209Y-40108D01*
X23209Y-40246D01*
X23209Y-40264D01*
X23209Y-40305D01*
X23209Y-40502D01*
X23271Y-40564D01*
X23278Y-40564D01*
X23378Y-40564D01*
X23469Y-40526D01*
X23533Y-40463D01*
X23554Y-40463D01*
X23810Y-40463D01*
X23858Y-40443D01*
X25708Y-40443D01*
X25725Y-40443D01*
X26555Y-40443D01*
X27150Y-41038D01*
X27211Y-41079D01*
X27211Y-41079D01*
X27283Y-41093D01*
X27499Y-41093D01*
X27554Y-41148D01*
X27659Y-41191D01*
X27773Y-41191D01*
X27878Y-41148D01*
X27959Y-41067D01*
X28002Y-40962D01*
X28002Y-40848D01*
X27959Y-40743D01*
X27878Y-40663D01*
X27777Y-40620D01*
X28306Y-40620D01*
X28361Y-40675D01*
X28466Y-40719D01*
X28580Y-40719D01*
X28685Y-40675D01*
X28766Y-40595D01*
X28809Y-40490D01*
X28809Y-40376D01*
X28766Y-40271D01*
X28722Y-40227D01*
X29113Y-40227D01*
X29168Y-40281D01*
X29273Y-40325D01*
X29387Y-40325D01*
X29492Y-40282D01*
X29573Y-40201D01*
X29616Y-40096D01*
X29616Y-39982D01*
X29573Y-39877D01*
X29548Y-39852D01*
X29920Y-39852D01*
X29975Y-39907D01*
X30080Y-39951D01*
X30194Y-39951D01*
X30299Y-39908D01*
X30380Y-39827D01*
X30423Y-39722D01*
X30424Y-39608D01*
X30424Y-42292D01*
X29606Y-42292D01*
X29534Y-42306D01*
X29473Y-42347D01*
X29473Y-42347D01*
X27877Y-43943D01*
X27817Y-43918D01*
X27640Y-43918D01*
X27477Y-43985D01*
X27352Y-44110D01*
X27284Y-44273D01*
X27284Y-44450D01*
X27351Y-44613D01*
X27476Y-44738D01*
X27639Y-44806D01*
X27647Y-44806D01*
X27587Y-44941D01*
X27582Y-45158D01*
X27660Y-45361D01*
X27674Y-45382D01*
X27774Y-45405D01*
X28117Y-45062D01*
X28111Y-45057D01*
X28124Y-45044D01*
X28129Y-45050D01*
X28135Y-45044D01*
X28148Y-45057D01*
X28142Y-45062D01*
X28485Y-45405D01*
X28585Y-45382D01*
X28597Y-45354D01*
X28681Y-45439D01*
X28844Y-45506D01*
X29020Y-45506D01*
X29184Y-45439D01*
X29265Y-45358D01*
X29266Y-45361D01*
X29280Y-45382D01*
X29380Y-45405D01*
X29723Y-45062D01*
X29717Y-45057D01*
X29730Y-45044D01*
X29736Y-45050D01*
X29741Y-45044D01*
X29754Y-45057D01*
X29749Y-45062D01*
X30091Y-45405D01*
X30191Y-45382D01*
X30203Y-45354D01*
X30287Y-45439D01*
X30450Y-45506D01*
X30627Y-45506D01*
X30790Y-45439D01*
X30915Y-45314D01*
X30983Y-45151D01*
X30983Y-44975D01*
X30915Y-44811D01*
X30791Y-44686D01*
X30628Y-44619D01*
X30508Y-44619D01*
X30513Y-44613D01*
X30581Y-44450D01*
X30581Y-44274D01*
X30563Y-44229D01*
X30628Y-44164D01*
X31925Y-44164D01*
X31892Y-44257D01*
X32334Y-44699D01*
X32340Y-44694D01*
X32353Y-44707D01*
X32347Y-44712D01*
X32789Y-45154D01*
X32903Y-45114D01*
X32961Y-44983D01*
X32961Y-46653D01*
X32976Y-46725D01*
X33016Y-46786D01*
X33882Y-47652D01*
X33882Y-47652D01*
X33943Y-47693D01*
X33943Y-47693D01*
X34001Y-47704D01*
X34015Y-47707D01*
X34015Y-47707D01*
X34015Y-47707D01*
X41744Y-47707D01*
X41815Y-47693D01*
X41876Y-47652D01*
X43022Y-46506D01*
X43105Y-46541D01*
X43295Y-46541D01*
X43471Y-46468D01*
X43606Y-46334D01*
X43679Y-46158D01*
X43679Y-45968D01*
X43679Y-48257D01*
X32776Y-48257D01*
X32776Y-45167D01*
X32334Y-44725D01*
X32321Y-44738D01*
X32321Y-44712D01*
X31880Y-44270D01*
X31765Y-44310D01*
X31655Y-44558D01*
X31648Y-44830D01*
X31745Y-45084D01*
X31765Y-45114D01*
X31880Y-45154D01*
X32321Y-44712D01*
X32321Y-44738D01*
X31892Y-45167D01*
X31919Y-45242D01*
X31807Y-45196D01*
X31462Y-45195D01*
X31143Y-45327D01*
X30899Y-45571D01*
X30767Y-45889D01*
X30766Y-46234D01*
X30898Y-46553D01*
X31142Y-46797D01*
X31460Y-46929D01*
X31805Y-46930D01*
X32124Y-46798D01*
X32368Y-46554D01*
X32500Y-46236D01*
X32500Y-45891D01*
X32369Y-45572D01*
X32189Y-45392D01*
X32452Y-45399D01*
X32706Y-45301D01*
X32736Y-45281D01*
X32776Y-45167D01*
X32776Y-48257D01*
X30078Y-48257D01*
X30078Y-45418D01*
X29736Y-45075D01*
X29393Y-45418D01*
X29416Y-45518D01*
X29615Y-45605D01*
X29832Y-45610D01*
X30034Y-45532D01*
X30055Y-45518D01*
X30078Y-45418D01*
X30078Y-48257D01*
X28472Y-48257D01*
X28472Y-45418D01*
X28129Y-45075D01*
X27787Y-45418D01*
X27810Y-45518D01*
X28008Y-45605D01*
X28225Y-45610D01*
X28428Y-45532D01*
X28449Y-45518D01*
X28472Y-45418D01*
X28472Y-48257D01*
X27500Y-48257D01*
X27500Y-45891D01*
X27369Y-45572D01*
X27125Y-45328D01*
X26807Y-45196D01*
X26619Y-45196D01*
X26619Y-44594D01*
X26522Y-44341D01*
X26501Y-44310D01*
X26387Y-44270D01*
X26374Y-44283D01*
X26374Y-44257D01*
X26335Y-44143D01*
X26086Y-44033D01*
X25815Y-44026D01*
X25561Y-44123D01*
X25531Y-44143D01*
X25491Y-44257D01*
X25933Y-44699D01*
X26374Y-44257D01*
X26374Y-44283D01*
X25945Y-44712D01*
X26387Y-45154D01*
X26501Y-45114D01*
X26612Y-44866D01*
X26619Y-44594D01*
X26619Y-45196D01*
X26462Y-45195D01*
X26348Y-45242D01*
X26374Y-45167D01*
X25933Y-44725D01*
X25920Y-44738D01*
X25920Y-44712D01*
X25478Y-44270D01*
X25364Y-44310D01*
X25253Y-44558D01*
X25246Y-44830D01*
X25344Y-45084D01*
X25364Y-45114D01*
X25478Y-45154D01*
X25920Y-44712D01*
X25920Y-44738D01*
X25491Y-45167D01*
X25531Y-45281D01*
X25779Y-45391D01*
X26050Y-45399D01*
X26085Y-45385D01*
X25899Y-45571D01*
X25767Y-45889D01*
X25766Y-46234D01*
X25898Y-46553D01*
X26142Y-46797D01*
X26460Y-46929D01*
X26805Y-46930D01*
X27124Y-46798D01*
X27368Y-46554D01*
X27500Y-46236D01*
X27500Y-45891D01*
X27500Y-48257D01*
X23191Y-48257D01*
X23191Y-40502D01*
X23191Y-40305D01*
X23191Y-40264D01*
X23191Y-40246D01*
X23191Y-40108D01*
X23191Y-40067D01*
X23191Y-40049D01*
X23191Y-40009D01*
X23191Y-39911D01*
X23191Y-39870D01*
X23191Y-39852D01*
X23191Y-39812D01*
X23191Y-39673D01*
X23191Y-39655D01*
X23191Y-39615D01*
X23191Y-39418D01*
X23128Y-39355D01*
X23121Y-39355D01*
X23022Y-39355D01*
X22930Y-39393D01*
X22860Y-39464D01*
X22822Y-39556D01*
X22822Y-39593D01*
X22875Y-39646D01*
X22860Y-39661D01*
X22834Y-39724D01*
X22822Y-39736D01*
X22822Y-39753D01*
X22822Y-39753D01*
X22822Y-39763D01*
X22822Y-39773D01*
X22822Y-39773D01*
X22822Y-39790D01*
X22834Y-39801D01*
X22858Y-39861D01*
X22834Y-39921D01*
X22822Y-39933D01*
X22822Y-39950D01*
X22822Y-39950D01*
X22822Y-39960D01*
X22822Y-39970D01*
X22822Y-39970D01*
X22822Y-39987D01*
X22834Y-39998D01*
X22858Y-40058D01*
X22834Y-40118D01*
X22822Y-40130D01*
X22822Y-40147D01*
X22822Y-40147D01*
X22822Y-40157D01*
X22822Y-40167D01*
X22822Y-40167D01*
X22822Y-40184D01*
X22834Y-40195D01*
X22860Y-40259D01*
X22875Y-40274D01*
X22822Y-40327D01*
X22822Y-40364D01*
X22860Y-40456D01*
X22930Y-40526D01*
X23022Y-40564D01*
X23121Y-40564D01*
X23128Y-40564D01*
X23191Y-40502D01*
X23191Y-48257D01*
X13847Y-48257D01*
X13847Y-31823D01*
X13750Y-31569D01*
X13730Y-31538D01*
X13616Y-31499D01*
X13603Y-31511D01*
X13603Y-31486D01*
X13563Y-31372D01*
X13315Y-31261D01*
X13043Y-31254D01*
X12789Y-31351D01*
X12759Y-31372D01*
X12719Y-31486D01*
X13161Y-31928D01*
X13603Y-31486D01*
X13603Y-31511D01*
X13174Y-31940D01*
X13616Y-32382D01*
X13730Y-32342D01*
X13840Y-32094D01*
X13847Y-31823D01*
X13847Y-48257D01*
X13603Y-48257D01*
X13603Y-32395D01*
X13161Y-31953D01*
X13148Y-31966D01*
X13148Y-31940D01*
X12706Y-31499D01*
X12631Y-31525D01*
X12677Y-31413D01*
X12678Y-31068D01*
X12546Y-30749D01*
X12302Y-30505D01*
X11984Y-30373D01*
X11639Y-30373D01*
X11320Y-30504D01*
X11076Y-30748D01*
X10944Y-31066D01*
X10943Y-31411D01*
X11075Y-31730D01*
X11319Y-31974D01*
X11637Y-32106D01*
X11982Y-32107D01*
X12301Y-31975D01*
X12481Y-31795D01*
X12475Y-32058D01*
X12572Y-32312D01*
X12592Y-32342D01*
X12706Y-32382D01*
X13148Y-31940D01*
X13148Y-31966D01*
X12719Y-32395D01*
X12759Y-32509D01*
X13007Y-32620D01*
X13279Y-32627D01*
X13533Y-32529D01*
X13563Y-32509D01*
X13603Y-32395D01*
X13603Y-48257D01*
X12747Y-48257D01*
X12747Y-46193D01*
X12545Y-45704D01*
X12171Y-45330D01*
X11682Y-45127D01*
X11154Y-45126D01*
X10665Y-45328D01*
X10290Y-45702D01*
X10088Y-46191D01*
X10087Y-46719D01*
X10289Y-47208D01*
X10663Y-47583D01*
X11151Y-47785D01*
X11680Y-47786D01*
X12169Y-47584D01*
X12543Y-47210D01*
X12746Y-46722D01*
X12747Y-46193D01*
X12747Y-48257D01*
X9616Y-48257D01*
X9616Y-9223D01*
X48650Y-9223D01*
X48650Y-48257D01*
M02*
