M48
;DRILL file {Pcbnew (2013-07-07 BZR 4022)-stable} date 9/18/2013 14:10:51
;FORMAT={-:-/ absolute / metric / decimal}
FMAT,2
METRIC,TZ
T1C3.000
T2C3.251
%
G90
G05
M71
T1
X35.Y-31.
X35.Y-121.
X125.Y-31.
X125.Y-121.
T2
X36.Y-69.65
X36.Y-82.35
X43.65Y-32.
X43.65Y-120.
X56.35Y-32.
X56.35Y-120.
X63.65Y-32.
X63.65Y-120.
X76.35Y-32.
X76.35Y-120.
X83.65Y-32.
X83.65Y-120.
X96.35Y-32.
X96.35Y-120.
X103.65Y-32.
X103.65Y-120.
X116.35Y-32.
X116.35Y-120.
X124.Y-69.65
X124.Y-82.35
T0
M30
