M48
;DRILL file {Pcbnew (2013-07-07 BZR 4022)-stable} date 9/18/2013 14:10:51
;FORMAT={-:-/ absolute / metric / decimal}
FMAT,2
METRIC,TZ
T1C0.500
T2C0.635
T3C0.813
T4C0.899
T5C1.600
%
G90
G05
M71
T1
X76.327Y-67.615
X78.486Y-71.044
X78.969Y-69.418
X79.451Y-75.844
X81.14Y-76.657
X82.182Y-81.572
X85.623Y-72.326
X86.271Y-75.882
X87.376Y-70.51
T2
X76.Y-71.
X86.36Y-78.054
X89.954Y-78.092
X90.Y-86.
X92.9Y-82.3
X92.9Y-84.
X94.6Y-84.
X102.9Y-84.
X104.Y-82.9
X105.2Y-84.1
X107.5Y-86.
T3
X36.73Y-60.
X39.27Y-60.
T4
X38.54Y-73.45
X38.54Y-75.49
X38.54Y-77.53
X38.54Y-79.57
X40.32Y-72.43
X40.32Y-74.47
X40.32Y-76.51
X40.32Y-78.55
X46.43Y-34.54
X46.43Y-115.68
X47.45Y-36.32
X47.45Y-117.46
X48.47Y-34.54
X48.47Y-115.68
X49.49Y-36.32
X49.49Y-117.46
X50.51Y-34.54
X50.51Y-115.68
X51.53Y-36.32
X51.53Y-117.46
X52.55Y-34.54
X52.55Y-115.68
X53.57Y-36.32
X53.57Y-117.46
X66.43Y-34.54
X66.43Y-115.68
X67.45Y-36.32
X67.45Y-117.46
X68.47Y-34.54
X68.47Y-115.68
X69.49Y-36.32
X69.49Y-117.46
X70.51Y-34.54
X70.51Y-115.68
X71.53Y-36.32
X71.53Y-117.46
X72.55Y-34.54
X72.55Y-115.68
X73.57Y-36.32
X73.57Y-117.46
X86.43Y-34.54
X86.43Y-115.68
X87.45Y-36.32
X87.45Y-117.46
X88.47Y-34.54
X88.47Y-115.68
X89.49Y-36.32
X89.49Y-117.46
X90.51Y-34.54
X90.51Y-115.68
X91.53Y-36.32
X91.53Y-117.46
X92.55Y-34.54
X92.55Y-115.68
X93.57Y-36.32
X93.57Y-117.46
X106.43Y-34.54
X106.43Y-115.68
X107.45Y-36.32
X107.45Y-117.46
X108.47Y-34.54
X108.47Y-115.68
X109.49Y-36.32
X109.49Y-117.46
X110.51Y-34.54
X110.51Y-115.68
X111.53Y-36.32
X111.53Y-117.46
X112.55Y-34.54
X112.55Y-115.68
X113.57Y-36.32
X113.57Y-117.46
X119.68Y-73.45
X119.68Y-75.49
X119.68Y-77.53
X119.68Y-79.57
X121.46Y-72.43
X121.46Y-74.47
X121.46Y-76.51
X121.46Y-78.55
T5
X39.43Y-67.87
X39.43Y-84.13
X41.87Y-35.43
X41.87Y-116.57
X58.13Y-35.43
X58.13Y-116.57
X61.87Y-35.43
X61.87Y-116.57
X78.13Y-35.43
X78.13Y-116.57
X81.87Y-35.43
X81.87Y-116.57
X98.13Y-35.43
X98.13Y-116.57
X101.87Y-35.43
X101.87Y-116.57
X118.13Y-35.43
X118.13Y-116.57
X120.57Y-67.87
X120.57Y-84.13
T0
M30
