G04 (created by PCBNEW (2013-mar-13)-testing) date Tue 15 Oct 2013 19:00:41 BST*
%MOIN*%
G04 Gerber Fmt 3.4, Leading zero omitted, Abs format*
%FSLAX34Y34*%
G01*
G70*
G90*
G04 APERTURE LIST*
%ADD10C,0.005906*%
%ADD11O,0.165354X0.129921*%
%ADD12C,0.078740*%
%ADD13R,0.011800X0.025600*%
%ADD14C,0.059055*%
%ADD15R,0.050000X0.025000*%
%ADD16R,0.025000X0.050000*%
%ADD17C,0.066000*%
%ADD18R,0.055000X0.035000*%
%ADD19R,0.035000X0.055000*%
%ADD20C,0.143700*%
%ADD21C,0.059100*%
%ADD22C,0.086614*%
%ADD23R,0.027600X0.063000*%
%ADD24R,0.027600X0.082700*%
%ADD25R,0.078700X0.108300*%
%ADD26R,0.078740X0.118110*%
%ADD27C,0.137795*%
%ADD28R,0.055100X0.086600*%
%ADD29R,0.055100X0.035400*%
%ADD30R,0.060000X0.060000*%
%ADD31C,0.060000*%
%ADD32C,0.051181*%
%ADD33C,0.035000*%
%ADD34C,0.039370*%
%ADD35C,0.019685*%
%ADD36C,0.007874*%
G04 APERTURE END LIST*
G54D10*
G54D11*
X14074Y-7874D03*
G54D12*
X11181Y-6574D03*
X12165Y-6574D03*
X10196Y-6574D03*
X13149Y-6574D03*
G54D11*
X9271Y-7874D03*
G54D13*
X23917Y-22212D03*
X23720Y-22212D03*
X23523Y-22212D03*
X23326Y-22212D03*
X23326Y-22665D03*
X23523Y-22665D03*
X23720Y-22665D03*
X23917Y-22665D03*
X23129Y-9220D03*
X22932Y-9220D03*
X22735Y-9220D03*
X22538Y-9220D03*
X22538Y-9673D03*
X22735Y-9673D03*
X22932Y-9673D03*
X23129Y-9673D03*
X35098Y-9457D03*
X34901Y-9457D03*
X34704Y-9457D03*
X34507Y-9457D03*
X34507Y-9910D03*
X34704Y-9910D03*
X34901Y-9910D03*
X35098Y-9910D03*
G54D14*
X24803Y-6929D03*
X26377Y-6929D03*
G54D12*
X23976Y-6929D03*
X27204Y-6929D03*
G54D14*
X25590Y-6929D03*
X19291Y-6929D03*
X20866Y-6929D03*
G54D12*
X18464Y-6929D03*
X21692Y-6929D03*
G54D14*
X20078Y-6929D03*
G54D15*
X10942Y-12167D03*
X10942Y-11667D03*
X10942Y-11167D03*
X10942Y-10667D03*
X8742Y-10667D03*
X8742Y-11167D03*
X8742Y-11667D03*
X8742Y-12167D03*
X30627Y-12773D03*
X30627Y-12273D03*
X30627Y-11773D03*
X30627Y-11273D03*
X30627Y-10773D03*
X30627Y-10273D03*
X30627Y-9773D03*
X30627Y-9273D03*
X28427Y-9273D03*
X28427Y-9773D03*
X28427Y-10273D03*
X28427Y-10773D03*
X28427Y-11273D03*
X28427Y-11773D03*
X28427Y-12273D03*
X28427Y-12773D03*
X29446Y-19072D03*
X29446Y-18572D03*
X29446Y-18072D03*
X29446Y-17572D03*
X29446Y-17072D03*
X29446Y-16572D03*
X29446Y-16072D03*
X29446Y-15572D03*
X27246Y-15572D03*
X27246Y-16072D03*
X27246Y-16572D03*
X27246Y-17072D03*
X27246Y-17572D03*
X27246Y-18072D03*
X27246Y-18572D03*
X27246Y-19072D03*
X34958Y-17104D03*
X34958Y-16604D03*
X34958Y-16104D03*
X34958Y-15604D03*
X34958Y-15104D03*
X34958Y-14604D03*
X34958Y-14104D03*
X34958Y-13604D03*
X32758Y-13604D03*
X32758Y-14104D03*
X32758Y-14604D03*
X32758Y-15104D03*
X32758Y-15604D03*
X32758Y-16104D03*
X32758Y-16604D03*
X32758Y-17104D03*
X14096Y-13210D03*
X14096Y-13710D03*
X14096Y-14210D03*
X14096Y-14710D03*
X14096Y-15210D03*
X14096Y-15710D03*
X14096Y-16210D03*
X14096Y-16710D03*
X16296Y-16710D03*
X16296Y-16210D03*
X16296Y-15710D03*
X16296Y-15210D03*
X16296Y-14710D03*
X16296Y-14210D03*
X16296Y-13710D03*
X16296Y-13210D03*
G54D16*
X23153Y-16616D03*
X22653Y-16616D03*
X22153Y-16616D03*
X21653Y-16616D03*
X21153Y-16616D03*
X20653Y-16616D03*
X20153Y-16616D03*
X20153Y-18816D03*
X20653Y-18816D03*
X21153Y-18816D03*
X21653Y-18816D03*
X22153Y-18816D03*
X22653Y-18816D03*
X23153Y-18816D03*
G54D17*
X31129Y-22440D03*
X30129Y-22440D03*
X17610Y-22440D03*
X18610Y-22440D03*
G54D18*
X36771Y-13327D03*
X36771Y-12577D03*
G54D19*
X40099Y-15196D03*
X39349Y-15196D03*
X7067Y-12204D03*
X6317Y-12204D03*
G54D18*
X13385Y-12225D03*
X13385Y-11475D03*
G54D20*
X39035Y-21968D03*
X34035Y-21968D03*
G54D21*
X37940Y-20968D03*
X37539Y-20267D03*
X37137Y-20968D03*
X36736Y-20267D03*
X36334Y-20968D03*
X35933Y-20267D03*
X35531Y-20968D03*
X35129Y-20267D03*
G54D22*
X39736Y-20618D03*
X33334Y-20618D03*
G54D20*
X14704Y-22047D03*
X9704Y-22047D03*
G54D21*
X13610Y-21047D03*
X13208Y-20346D03*
X12807Y-21047D03*
X12405Y-20346D03*
X12003Y-21047D03*
X11602Y-20346D03*
X11200Y-21047D03*
X10799Y-20346D03*
G54D22*
X15405Y-20696D03*
X9003Y-20696D03*
G54D23*
X40944Y-16614D03*
G54D24*
X41535Y-16516D03*
G54D23*
X42126Y-16614D03*
G54D25*
X41535Y-15571D03*
G54D26*
X41889Y-9409D03*
X41889Y-13740D03*
X39527Y-13740D03*
X39527Y-9409D03*
G54D27*
X41850Y-11574D03*
X40118Y-11574D03*
G54D28*
X43267Y-15590D03*
G54D29*
X43267Y-14586D03*
G54D30*
X42958Y-17883D03*
G54D31*
X41958Y-17883D03*
X40958Y-17883D03*
G54D32*
X31505Y-8307D03*
X31505Y-6181D03*
X30521Y-8307D03*
X32490Y-8307D03*
X30521Y-6181D03*
X32490Y-6181D03*
X37007Y-8307D03*
X37007Y-6181D03*
X36023Y-8307D03*
X37992Y-8307D03*
X36023Y-6181D03*
X37992Y-6181D03*
G54D33*
X36771Y-15000D03*
X33641Y-23779D03*
X34409Y-23759D03*
X13169Y-21909D03*
X35196Y-23740D03*
X14232Y-11929D03*
X21555Y-10826D03*
X34173Y-13582D03*
X31771Y-14330D03*
X14035Y-17578D03*
X16259Y-18779D03*
X19625Y-16614D03*
X24940Y-15275D03*
X21988Y-12342D03*
X17559Y-12755D03*
X9881Y-17854D03*
X11574Y-13228D03*
X32559Y-9251D03*
X31259Y-9251D03*
X15767Y-14212D03*
X15944Y-17775D03*
X13543Y-14251D03*
X14527Y-17401D03*
X16377Y-17401D03*
X17283Y-17204D03*
X14704Y-15728D03*
X22834Y-17381D03*
X23759Y-14862D03*
X24311Y-14311D03*
X21811Y-13307D03*
X23346Y-14488D03*
X21929Y-15236D03*
X18740Y-11751D03*
X16968Y-10669D03*
X23051Y-10885D03*
X20787Y-10826D03*
X21141Y-11811D03*
X18562Y-12755D03*
X23897Y-23267D03*
X28740Y-17047D03*
X29094Y-9291D03*
X26456Y-11889D03*
X25866Y-12795D03*
X30039Y-17559D03*
X30590Y-13425D03*
X12401Y-19448D03*
X14803Y-19448D03*
X17106Y-20610D03*
X19192Y-21732D03*
X19763Y-23031D03*
X24625Y-21594D03*
X27185Y-23188D03*
X15590Y-14940D03*
X15590Y-15846D03*
X22657Y-19350D03*
X20177Y-19370D03*
X18759Y-19980D03*
X15374Y-19114D03*
X11043Y-18267D03*
X23877Y-16043D03*
X30314Y-16574D03*
X18405Y-14350D03*
X14980Y-12401D03*
X16712Y-12401D03*
X25944Y-18110D03*
X27244Y-15078D03*
X21377Y-13818D03*
X20354Y-13818D03*
X15275Y-13267D03*
X26633Y-19547D03*
X26614Y-21456D03*
X27854Y-17933D03*
X30000Y-10787D03*
X28523Y-17952D03*
X28523Y-18759D03*
X28799Y-19055D03*
X27795Y-12795D03*
X24409Y-19625D03*
X16279Y-9527D03*
X23149Y-19625D03*
X12834Y-10669D03*
X16299Y-10669D03*
X10078Y-10669D03*
X9606Y-11574D03*
X20354Y-8425D03*
X20354Y-9094D03*
X18070Y-10590D03*
X24311Y-12795D03*
X21161Y-10472D03*
X21594Y-9370D03*
X24488Y-9822D03*
X32086Y-11771D03*
X35383Y-11771D03*
X31496Y-11259D03*
X25551Y-11889D03*
X18622Y-10649D03*
X24881Y-11279D03*
X18070Y-17952D03*
X19055Y-9468D03*
X16732Y-19212D03*
X17539Y-15216D03*
X24468Y-17303D03*
X24763Y-18248D03*
X25433Y-20059D03*
X25433Y-20984D03*
X26161Y-20826D03*
X26161Y-20137D03*
X25688Y-17421D03*
X25177Y-16909D03*
X17145Y-13700D03*
X10236Y-23700D03*
X7913Y-17224D03*
X9074Y-9350D03*
X15334Y-10078D03*
X15354Y-11535D03*
X19055Y-10610D03*
X20000Y-10964D03*
X33307Y-16102D03*
X32736Y-18602D03*
X30314Y-18622D03*
X21141Y-18267D03*
X27440Y-10787D03*
X27519Y-10275D03*
X27598Y-11771D03*
X20944Y-8385D03*
X20944Y-9212D03*
X27283Y-12244D03*
G54D34*
X42958Y-17883D02*
X43248Y-17883D01*
X43248Y-17883D02*
X43267Y-17903D01*
G54D35*
X36771Y-13327D02*
X36771Y-15000D01*
G54D34*
X42716Y-16614D02*
X42755Y-16614D01*
X42755Y-16614D02*
X43267Y-17125D01*
X42126Y-16614D02*
X42716Y-16614D01*
X42716Y-16614D02*
X43149Y-16614D01*
X43149Y-16614D02*
X43267Y-16496D01*
X39696Y-19212D02*
X42480Y-19212D01*
X42480Y-19212D02*
X43267Y-18425D01*
X43267Y-18425D02*
X43267Y-17903D01*
X43267Y-17903D02*
X43267Y-17125D01*
X37940Y-20968D02*
X39696Y-19212D01*
X43267Y-16496D02*
X43267Y-15590D01*
X43267Y-17125D02*
X43267Y-16496D01*
X35501Y-23435D02*
X33986Y-23435D01*
X33661Y-23759D02*
X33641Y-23779D01*
X34429Y-23740D02*
X35196Y-23740D01*
X34429Y-23740D02*
X34409Y-23759D01*
X34409Y-23759D02*
X33661Y-23759D01*
X33986Y-23435D02*
X33641Y-23779D01*
X37940Y-20968D02*
X37940Y-20996D01*
X37940Y-20996D02*
X35501Y-23435D01*
G54D35*
X35196Y-23740D02*
X37940Y-20996D01*
X12003Y-21047D02*
X12007Y-21051D01*
X13582Y-21074D02*
X13610Y-21047D01*
X13582Y-21496D02*
X13582Y-21074D01*
X13169Y-21909D02*
X13582Y-21496D01*
X12322Y-21909D02*
X13169Y-21909D01*
X12007Y-21594D02*
X12322Y-21909D01*
X12007Y-21051D02*
X12007Y-21594D01*
X41535Y-16516D02*
X41535Y-17460D01*
X41535Y-17460D02*
X41958Y-17883D01*
X13936Y-12225D02*
X13385Y-12225D01*
X14232Y-11929D02*
X13936Y-12225D01*
G54D34*
X39527Y-9409D02*
X41889Y-9409D01*
G54D35*
X39527Y-9409D02*
X38622Y-9409D01*
X36771Y-11259D02*
X36771Y-12577D01*
X38622Y-9409D02*
X36771Y-11259D01*
X27246Y-17572D02*
X27781Y-17572D01*
X28031Y-16377D02*
X28836Y-15572D01*
X29446Y-15572D02*
X28836Y-15572D01*
X28031Y-17322D02*
X28031Y-16377D01*
X27781Y-17572D02*
X28031Y-17322D01*
G54D36*
X23129Y-9673D02*
X23129Y-10138D01*
X22440Y-10826D02*
X21555Y-10826D01*
X23129Y-10138D02*
X22440Y-10826D01*
X22538Y-9673D02*
X22334Y-9673D01*
X22334Y-9673D02*
X21555Y-10452D01*
X21555Y-10452D02*
X21555Y-10826D01*
X34055Y-11102D02*
X34291Y-10866D01*
X35098Y-9910D02*
X35098Y-10334D01*
X34724Y-10708D02*
X33661Y-10708D01*
X35098Y-10334D02*
X34724Y-10708D01*
X34507Y-9910D02*
X33807Y-9910D01*
X33149Y-9251D02*
X32559Y-9251D01*
X33807Y-9910D02*
X33149Y-9251D01*
G54D35*
X29446Y-15572D02*
X30529Y-15572D01*
X34194Y-13604D02*
X34958Y-13604D01*
X34173Y-13582D02*
X34194Y-13604D01*
X30529Y-15572D02*
X31771Y-14330D01*
X20153Y-16616D02*
X20151Y-16614D01*
X14468Y-18011D02*
X14035Y-17578D01*
X15492Y-18011D02*
X14468Y-18011D01*
X16259Y-18779D02*
X15492Y-18011D01*
X20151Y-16614D02*
X19625Y-16614D01*
X27246Y-17572D02*
X27232Y-17559D01*
X27232Y-17559D02*
X26338Y-17559D01*
X26338Y-17559D02*
X24940Y-16161D01*
X24940Y-16161D02*
X24940Y-15275D01*
X20944Y-13385D02*
X21988Y-12342D01*
X18188Y-13385D02*
X20944Y-13385D01*
X17559Y-12755D02*
X18188Y-13385D01*
X14096Y-16710D02*
X14094Y-16712D01*
X13759Y-17854D02*
X9881Y-17854D01*
X14094Y-17519D02*
X13759Y-17854D01*
X14094Y-16712D02*
X14094Y-17519D01*
X11574Y-13228D02*
X12677Y-13228D01*
X35531Y-20968D02*
X35511Y-20988D01*
X36413Y-21692D02*
X37137Y-20968D01*
X35866Y-21692D02*
X36413Y-21692D01*
X35511Y-21338D02*
X35866Y-21692D01*
X35511Y-20988D02*
X35511Y-21338D01*
X6392Y-12204D02*
X6377Y-12219D01*
X10944Y-12169D02*
X10942Y-12167D01*
X10944Y-12598D02*
X10944Y-12169D01*
X10472Y-13070D02*
X10944Y-12598D01*
X6653Y-13070D02*
X10472Y-13070D01*
X6377Y-12795D02*
X6653Y-13070D01*
X6377Y-12219D02*
X6377Y-12795D01*
X10942Y-12167D02*
X10959Y-12150D01*
X10959Y-12150D02*
X13385Y-12150D01*
X6392Y-10629D02*
X6392Y-12204D01*
G54D36*
X22932Y-9673D02*
X23129Y-9673D01*
X22538Y-9673D02*
X22735Y-9673D01*
X22735Y-9673D02*
X22932Y-9673D01*
G54D35*
X32559Y-9251D02*
X32559Y-9606D01*
X32559Y-9606D02*
X33661Y-10708D01*
X34921Y-11968D02*
X34921Y-13567D01*
X33661Y-10708D02*
X34055Y-11102D01*
X34055Y-11102D02*
X34921Y-11968D01*
X34921Y-13567D02*
X34958Y-13604D01*
X30649Y-9251D02*
X31259Y-9251D01*
X30627Y-9273D02*
X30649Y-9251D01*
G54D36*
X34704Y-9910D02*
X34901Y-9910D01*
X34901Y-9910D02*
X35098Y-9910D01*
X34507Y-9910D02*
X34704Y-9910D01*
G54D35*
X13400Y-12165D02*
X13385Y-12150D01*
X13385Y-12519D02*
X13385Y-12150D01*
G54D36*
X23326Y-22212D02*
X23317Y-22204D01*
X16294Y-14212D02*
X16296Y-14210D01*
X15767Y-14212D02*
X16294Y-14212D01*
X20374Y-22204D02*
X15944Y-17775D01*
X23317Y-22204D02*
X20374Y-22204D01*
X22653Y-16616D02*
X22653Y-17031D01*
X13584Y-14210D02*
X14096Y-14210D01*
X13543Y-14251D02*
X13584Y-14210D01*
X16377Y-17401D02*
X14527Y-17401D01*
X18858Y-17204D02*
X17283Y-17204D01*
X18937Y-17283D02*
X18858Y-17204D01*
X22401Y-17283D02*
X18937Y-17283D01*
X22653Y-17031D02*
X22401Y-17283D01*
X14687Y-15710D02*
X14096Y-15710D01*
X14704Y-15728D02*
X14687Y-15710D01*
X14079Y-15728D02*
X14096Y-15710D01*
X22834Y-17381D02*
X23149Y-17066D01*
X23149Y-17066D02*
X23149Y-16620D01*
X23153Y-16616D02*
X23149Y-16620D01*
X23917Y-22212D02*
X23937Y-22192D01*
X23155Y-16614D02*
X23153Y-16616D01*
X23543Y-16614D02*
X23155Y-16614D01*
X23937Y-17007D02*
X23543Y-16614D01*
X23937Y-22192D02*
X23937Y-17007D01*
X16296Y-15710D02*
X18269Y-15710D01*
X21653Y-16968D02*
X21653Y-16616D01*
X21535Y-17086D02*
X21653Y-16968D01*
X19645Y-17086D02*
X21535Y-17086D01*
X18269Y-15710D02*
X19645Y-17086D01*
X23759Y-14862D02*
X24311Y-14311D01*
X20653Y-16616D02*
X20653Y-15173D01*
X21811Y-14015D02*
X21811Y-13307D01*
X20653Y-15173D02*
X21811Y-14015D01*
X22153Y-16114D02*
X22153Y-16616D01*
X23307Y-14960D02*
X22153Y-16114D01*
X23307Y-14527D02*
X23307Y-14960D01*
X23346Y-14488D02*
X23307Y-14527D01*
X21153Y-16011D02*
X21153Y-16616D01*
X21929Y-15236D02*
X21153Y-16011D01*
X18051Y-11751D02*
X18740Y-11751D01*
X16968Y-10669D02*
X18051Y-11751D01*
X14096Y-13710D02*
X14087Y-13700D01*
X14083Y-15196D02*
X14096Y-15210D01*
X13543Y-15196D02*
X14083Y-15196D01*
X13228Y-14881D02*
X13543Y-15196D01*
X13228Y-14055D02*
X13228Y-14881D01*
X13582Y-13700D02*
X13228Y-14055D01*
X14087Y-13700D02*
X13582Y-13700D01*
X30129Y-22440D02*
X28791Y-23779D01*
X23307Y-22684D02*
X23326Y-22665D01*
X23307Y-23110D02*
X23307Y-22684D01*
X23976Y-23779D02*
X23307Y-23110D01*
X28791Y-23779D02*
X23976Y-23779D01*
X22814Y-11122D02*
X23051Y-10885D01*
X21318Y-11122D02*
X22814Y-11122D01*
X21023Y-10826D02*
X21318Y-11122D01*
X20787Y-10826D02*
X21023Y-10826D01*
X21141Y-12559D02*
X21141Y-11811D01*
X20649Y-13051D02*
X21141Y-12559D01*
X18858Y-13051D02*
X20649Y-13051D01*
X18562Y-12755D02*
X18858Y-13051D01*
X23897Y-23267D02*
X23897Y-22685D01*
X23897Y-22685D02*
X23917Y-22665D01*
G54D34*
X41889Y-13740D02*
X42992Y-13740D01*
X43267Y-14015D02*
X43267Y-14586D01*
X42992Y-13740D02*
X43267Y-14015D01*
X41889Y-13740D02*
X39527Y-13740D01*
G54D35*
X39467Y-13800D02*
X39527Y-13740D01*
X39526Y-13741D02*
X39527Y-13740D01*
G54D36*
X12165Y-6574D02*
X12165Y-9202D01*
X13385Y-10423D02*
X13385Y-11475D01*
X12165Y-9202D02*
X13385Y-10423D01*
X13385Y-11475D02*
X12422Y-11475D01*
X10956Y-11653D02*
X12244Y-11653D01*
X10956Y-11653D02*
X10942Y-11667D01*
X12244Y-11653D02*
X12362Y-11535D01*
X12422Y-11475D02*
X12362Y-11535D01*
X13370Y-11535D02*
X13385Y-11550D01*
X8742Y-11167D02*
X8756Y-11181D01*
X10889Y-11614D02*
X10942Y-11667D01*
X10118Y-11614D02*
X10889Y-11614D01*
X9685Y-11181D02*
X10118Y-11614D01*
X8756Y-11181D02*
X9685Y-11181D01*
X28427Y-9273D02*
X29076Y-9273D01*
X28765Y-17072D02*
X29446Y-17072D01*
X28740Y-17047D02*
X28765Y-17072D01*
X29076Y-9273D02*
X29094Y-9291D01*
X27246Y-17072D02*
X26954Y-17072D01*
X26801Y-9773D02*
X28427Y-9773D01*
X26456Y-10118D02*
X26801Y-9773D01*
X26456Y-11889D02*
X26456Y-10118D01*
X25866Y-15984D02*
X25866Y-12795D01*
X26954Y-17072D02*
X25866Y-15984D01*
X29446Y-17572D02*
X30025Y-17572D01*
X30039Y-17559D02*
X30025Y-17572D01*
X30627Y-13388D02*
X30590Y-13425D01*
X30627Y-13388D02*
X30627Y-12773D01*
X14803Y-19448D02*
X12401Y-19448D01*
X18070Y-20610D02*
X17106Y-20610D01*
X19192Y-21732D02*
X18070Y-20610D01*
X13535Y-20019D02*
X13208Y-20346D01*
X16043Y-20019D02*
X13535Y-20019D01*
X16535Y-20511D02*
X16043Y-20019D01*
X16535Y-22854D02*
X16535Y-20511D01*
X16988Y-23307D02*
X16535Y-22854D01*
X19488Y-23307D02*
X16988Y-23307D01*
X19763Y-23031D02*
X19488Y-23307D01*
X24625Y-22027D02*
X24625Y-21594D01*
X25787Y-23188D02*
X24625Y-22027D01*
X27185Y-23188D02*
X25787Y-23188D01*
X16296Y-16210D02*
X16287Y-16220D01*
X16283Y-14724D02*
X16296Y-14710D01*
X15807Y-14724D02*
X16283Y-14724D01*
X15590Y-14940D02*
X15807Y-14724D01*
X15964Y-16220D02*
X15590Y-15846D01*
X16287Y-16220D02*
X15964Y-16220D01*
X20153Y-18816D02*
X20177Y-18840D01*
X22657Y-18820D02*
X22653Y-18816D01*
X22657Y-19350D02*
X22657Y-18820D01*
X20177Y-18840D02*
X20177Y-19370D01*
X13622Y-19114D02*
X15374Y-19114D01*
X22125Y-18844D02*
X22153Y-18816D01*
X21692Y-19980D02*
X18759Y-19980D01*
X22125Y-19547D02*
X21692Y-19980D01*
X22125Y-18844D02*
X22125Y-19547D01*
X13622Y-19114D02*
X11889Y-19114D01*
X11889Y-19114D02*
X11043Y-18267D01*
X23877Y-16043D02*
X25944Y-18110D01*
X30314Y-16574D02*
X30312Y-16572D01*
X29446Y-16572D02*
X30312Y-16572D01*
X17086Y-12775D02*
X17086Y-13031D01*
X14096Y-12812D02*
X14096Y-13210D01*
X14507Y-12401D02*
X14980Y-12401D01*
X14096Y-12812D02*
X14507Y-12401D01*
X17086Y-12775D02*
X16712Y-12401D01*
X17086Y-13031D02*
X18405Y-14350D01*
X27244Y-14133D02*
X27480Y-13897D01*
X32758Y-14104D02*
X32253Y-14104D01*
X27244Y-14133D02*
X27244Y-15078D01*
X32047Y-13897D02*
X32253Y-14104D01*
X27480Y-13897D02*
X32047Y-13897D01*
X27246Y-15572D02*
X27246Y-15081D01*
X27246Y-15081D02*
X27244Y-15078D01*
X14096Y-14710D02*
X14423Y-14710D01*
X20354Y-13818D02*
X21377Y-13818D01*
X15275Y-13858D02*
X15275Y-13267D01*
X14423Y-14710D02*
X15275Y-13858D01*
X28307Y-16653D02*
X28307Y-17440D01*
X28307Y-16653D02*
X28887Y-16072D01*
X29446Y-16072D02*
X28887Y-16072D01*
X26614Y-19566D02*
X26633Y-19547D01*
X26614Y-21456D02*
X26614Y-19566D01*
X27854Y-17893D02*
X27854Y-17933D01*
X28307Y-17440D02*
X27854Y-17893D01*
X29446Y-16072D02*
X30541Y-16072D01*
X32009Y-14604D02*
X32758Y-14604D01*
X30541Y-16072D02*
X32009Y-14604D01*
G54D35*
X40944Y-16614D02*
X40944Y-17869D01*
X40944Y-17869D02*
X40958Y-17883D01*
X40078Y-16259D02*
X40118Y-16259D01*
X40118Y-16259D02*
X40472Y-16614D01*
X40099Y-16259D02*
X40078Y-16259D01*
X40078Y-16259D02*
X39724Y-16614D01*
X40099Y-15196D02*
X40099Y-16259D01*
X40099Y-16259D02*
X40099Y-16516D01*
X40099Y-16516D02*
X40196Y-16614D01*
G54D34*
X34448Y-17952D02*
X38149Y-17952D01*
X39488Y-16614D02*
X39724Y-16614D01*
X39724Y-16614D02*
X40196Y-16614D01*
X40196Y-16614D02*
X40472Y-16614D01*
X40472Y-16614D02*
X40944Y-16614D01*
X38149Y-17952D02*
X39488Y-16614D01*
X32362Y-17952D02*
X29921Y-20393D01*
X34448Y-17952D02*
X32362Y-17952D01*
G54D35*
X31771Y-18543D02*
X32362Y-17952D01*
X32362Y-17952D02*
X32775Y-17539D01*
X31240Y-19074D02*
X31771Y-18543D01*
G54D34*
X29921Y-20393D02*
X29311Y-20393D01*
X29311Y-20393D02*
X28799Y-19881D01*
G54D35*
X34448Y-17952D02*
X33600Y-17104D01*
G54D34*
X28523Y-17952D02*
X28779Y-18208D01*
X28799Y-19035D02*
X28523Y-18759D01*
X28799Y-19035D02*
X28799Y-19055D01*
X28523Y-17952D02*
X28523Y-18759D01*
X28779Y-19035D02*
X28799Y-19055D01*
X28779Y-18208D02*
X28779Y-19035D01*
X28799Y-19881D02*
X28799Y-19055D01*
G54D35*
X28781Y-19037D02*
X28816Y-19072D01*
X28799Y-19055D02*
X28781Y-19072D01*
X28781Y-19072D02*
X28781Y-19037D01*
X28070Y-19072D02*
X28816Y-19072D01*
X27816Y-12773D02*
X27795Y-12795D01*
X28427Y-12773D02*
X27816Y-12773D01*
X24409Y-19625D02*
X24409Y-19606D01*
X24942Y-19072D02*
X27246Y-19072D01*
X24409Y-19606D02*
X24942Y-19072D01*
X33600Y-17104D02*
X32758Y-17104D01*
X32775Y-17121D02*
X32758Y-17104D01*
X32775Y-17539D02*
X32775Y-17121D01*
X16279Y-9527D02*
X16269Y-9537D01*
X29446Y-19072D02*
X29448Y-19074D01*
X29448Y-19074D02*
X31240Y-19074D01*
X27246Y-19072D02*
X28070Y-19072D01*
X28816Y-19072D02*
X29446Y-19072D01*
X31129Y-22440D02*
X31082Y-22393D01*
X29468Y-19094D02*
X29446Y-19072D01*
X29468Y-19940D02*
X29468Y-19094D01*
X31082Y-21555D02*
X29468Y-19940D01*
X31082Y-22393D02*
X31082Y-21555D01*
X23149Y-18820D02*
X23153Y-18816D01*
X23149Y-19625D02*
X23149Y-18820D01*
G54D36*
X16299Y-13208D02*
X16296Y-13210D01*
G54D35*
X16299Y-10669D02*
X16299Y-13208D01*
X10942Y-10667D02*
X10944Y-10669D01*
X16299Y-9566D02*
X16299Y-10669D01*
G54D36*
X16269Y-9537D02*
X16299Y-9566D01*
G54D35*
X10944Y-10669D02*
X12834Y-10669D01*
X8742Y-12167D02*
X8744Y-12165D01*
X10940Y-10669D02*
X10942Y-10667D01*
X10078Y-10669D02*
X10940Y-10669D01*
X9606Y-11889D02*
X9606Y-11574D01*
X9330Y-12165D02*
X9606Y-11889D01*
X8744Y-12165D02*
X9330Y-12165D01*
X20354Y-9094D02*
X20354Y-8425D01*
X6992Y-12204D02*
X7030Y-12167D01*
X7030Y-12167D02*
X8742Y-12167D01*
X30000Y-10787D02*
X30613Y-10787D01*
X30613Y-10787D02*
X30627Y-10773D01*
X28427Y-12773D02*
X28445Y-12755D01*
X28445Y-12755D02*
X29055Y-12755D01*
X29055Y-12755D02*
X29566Y-12244D01*
X29566Y-12244D02*
X29566Y-11220D01*
X29566Y-11220D02*
X30000Y-10787D01*
G54D36*
X14970Y-5826D02*
X11929Y-5826D01*
X18070Y-10590D02*
X18070Y-8927D01*
X14970Y-5826D02*
X18070Y-8927D01*
X11929Y-5826D02*
X11181Y-6574D01*
X10942Y-11167D02*
X10005Y-11167D01*
X9478Y-10639D02*
X9478Y-10147D01*
X9478Y-10639D02*
X10005Y-11167D01*
X11181Y-8444D02*
X11181Y-6574D01*
X9478Y-10147D02*
X11181Y-8444D01*
X18976Y-11496D02*
X18070Y-10590D01*
X24311Y-12795D02*
X23681Y-12165D01*
X23681Y-12165D02*
X23681Y-11889D01*
X23681Y-11889D02*
X23287Y-11496D01*
X23287Y-11496D02*
X18976Y-11496D01*
X10956Y-11181D02*
X10942Y-11167D01*
X25610Y-10944D02*
X25610Y-11476D01*
X21161Y-10472D02*
X21161Y-9803D01*
X21161Y-9803D02*
X21594Y-9370D01*
X24488Y-9822D02*
X25610Y-10944D01*
X26988Y-13366D02*
X28996Y-13366D01*
X28996Y-13366D02*
X30059Y-12303D01*
X30059Y-12303D02*
X30598Y-12303D01*
X30627Y-12273D02*
X30598Y-12303D01*
X26535Y-12913D02*
X26988Y-13366D01*
X26535Y-12401D02*
X26535Y-12913D01*
X25610Y-11476D02*
X26535Y-12401D01*
X36023Y-8307D02*
X36023Y-11131D01*
X30629Y-11771D02*
X32086Y-11771D01*
X30629Y-11771D02*
X30627Y-11773D01*
X36023Y-11131D02*
X35383Y-11771D01*
X35098Y-9457D02*
X35098Y-8809D01*
X35600Y-8307D02*
X36023Y-8307D01*
X35098Y-8809D02*
X35600Y-8307D01*
X30641Y-11259D02*
X31496Y-11259D01*
X30627Y-11273D02*
X30641Y-11259D01*
X34901Y-9457D02*
X34901Y-8779D01*
X37342Y-7657D02*
X37992Y-8307D01*
X36023Y-7657D02*
X37342Y-7657D01*
X34901Y-8779D02*
X36023Y-7657D01*
X27246Y-16072D02*
X26820Y-16072D01*
X26220Y-12559D02*
X25551Y-11889D01*
X26220Y-15472D02*
X26220Y-12559D01*
X26820Y-16072D02*
X26220Y-15472D01*
X19251Y-11279D02*
X18622Y-10649D01*
X24881Y-11279D02*
X19251Y-11279D01*
X16296Y-16710D02*
X19330Y-19744D01*
X21653Y-19330D02*
X21653Y-18816D01*
X21240Y-19744D02*
X21653Y-19330D01*
X19330Y-19744D02*
X21240Y-19744D01*
X15059Y-5472D02*
X16220Y-5472D01*
X20653Y-18816D02*
X20669Y-18800D01*
X20236Y-17952D02*
X18070Y-17952D01*
X20669Y-18385D02*
X20236Y-17952D01*
X20669Y-18800D02*
X20669Y-18385D01*
X17677Y-6929D02*
X17677Y-7657D01*
X17677Y-7657D02*
X19055Y-9035D01*
X19055Y-9035D02*
X19055Y-9468D01*
X9232Y-19783D02*
X16082Y-19783D01*
X7342Y-17696D02*
X9232Y-19783D01*
X7342Y-15295D02*
X7342Y-17696D01*
X5354Y-13307D02*
X7342Y-15295D01*
X5354Y-9921D02*
X5354Y-13307D01*
X6574Y-8700D02*
X5354Y-9921D01*
X7244Y-8700D02*
X6574Y-8700D01*
X16732Y-19212D02*
X16653Y-19212D01*
X16082Y-19783D02*
X16653Y-19212D01*
X10039Y-5472D02*
X15059Y-5472D01*
X7952Y-7559D02*
X10039Y-5472D01*
X7952Y-7992D02*
X7952Y-7559D01*
X7244Y-8700D02*
X7952Y-7992D01*
X16220Y-5472D02*
X17677Y-6929D01*
X20649Y-18812D02*
X20653Y-18816D01*
X17533Y-15210D02*
X16296Y-15210D01*
X17539Y-15216D02*
X17533Y-15210D01*
X24468Y-17952D02*
X24468Y-17303D01*
X24763Y-18248D02*
X24468Y-17952D01*
X25433Y-20984D02*
X25433Y-20059D01*
X14096Y-16210D02*
X14106Y-16220D01*
X16290Y-15216D02*
X16296Y-15210D01*
X15728Y-15216D02*
X16290Y-15216D01*
X14724Y-16220D02*
X15728Y-15216D01*
X14106Y-16220D02*
X14724Y-16220D01*
X14096Y-16210D02*
X14087Y-16220D01*
X26161Y-20826D02*
X26161Y-20137D01*
X25688Y-17421D02*
X25177Y-16909D01*
X17135Y-13710D02*
X16296Y-13710D01*
X17145Y-13700D02*
X17135Y-13710D01*
X34704Y-9457D02*
X34704Y-8532D01*
X31259Y-7568D02*
X30521Y-8307D01*
X33740Y-7568D02*
X31259Y-7568D01*
X34704Y-8532D02*
X33740Y-7568D01*
X30627Y-9773D02*
X30167Y-9773D01*
X30059Y-8769D02*
X30521Y-8307D01*
X30059Y-9665D02*
X30059Y-8769D01*
X30167Y-9773D02*
X30059Y-9665D01*
X30637Y-9763D02*
X30627Y-9773D01*
X30627Y-10273D02*
X31330Y-10273D01*
X32037Y-8759D02*
X32490Y-8307D01*
X32037Y-9566D02*
X32037Y-8759D01*
X31330Y-10273D02*
X32037Y-9566D01*
X34507Y-9457D02*
X34507Y-8739D01*
X34074Y-8307D02*
X32490Y-8307D01*
X34507Y-8739D02*
X34074Y-8307D01*
X32224Y-19114D02*
X32224Y-22618D01*
X30767Y-24074D02*
X32224Y-22618D01*
X23385Y-24074D02*
X30767Y-24074D01*
X23011Y-23700D02*
X23385Y-24074D01*
X10236Y-23700D02*
X23011Y-23700D01*
X7913Y-15157D02*
X7913Y-17224D01*
X5826Y-13070D02*
X7913Y-15157D01*
X5826Y-10157D02*
X5826Y-13070D01*
X6633Y-9350D02*
X5826Y-10157D01*
X9074Y-9350D02*
X6633Y-9350D01*
X15354Y-10098D02*
X15334Y-10078D01*
X15354Y-11535D02*
X15354Y-10098D01*
X19409Y-10964D02*
X19055Y-10610D01*
X20000Y-10964D02*
X19409Y-10964D01*
X32760Y-16102D02*
X32758Y-16104D01*
X33307Y-16102D02*
X32760Y-16102D01*
X32736Y-18602D02*
X32224Y-19114D01*
X30265Y-18572D02*
X29446Y-18572D01*
X30314Y-18622D02*
X30265Y-18572D01*
X29446Y-18572D02*
X29416Y-18602D01*
X21141Y-18804D02*
X21153Y-18816D01*
X21141Y-18267D02*
X21141Y-18804D01*
X28427Y-10773D02*
X28413Y-10787D01*
X28413Y-10787D02*
X27440Y-10787D01*
X24803Y-6929D02*
X24803Y-7440D01*
X22913Y-9201D02*
X22932Y-9220D01*
X22913Y-8543D02*
X22913Y-9201D01*
X23622Y-7834D02*
X22913Y-8543D01*
X24409Y-7834D02*
X23622Y-7834D01*
X24803Y-7440D02*
X24409Y-7834D01*
X28427Y-10273D02*
X28425Y-10275D01*
X28425Y-10275D02*
X27519Y-10275D01*
X26377Y-6929D02*
X26377Y-7440D01*
X23149Y-9200D02*
X23129Y-9220D01*
X23149Y-8700D02*
X23149Y-9200D01*
X23582Y-8267D02*
X23149Y-8700D01*
X25551Y-8267D02*
X23582Y-8267D01*
X26377Y-7440D02*
X25551Y-8267D01*
X28427Y-11773D02*
X28425Y-11771D01*
X28425Y-11771D02*
X27598Y-11771D01*
X19291Y-6929D02*
X19291Y-7322D01*
X22519Y-9201D02*
X22538Y-9220D01*
X22519Y-8779D02*
X22519Y-9201D01*
X21732Y-7992D02*
X22519Y-8779D01*
X19960Y-7992D02*
X21732Y-7992D01*
X19291Y-7322D02*
X19960Y-7992D01*
X28427Y-12273D02*
X28417Y-12283D01*
X20944Y-9212D02*
X20944Y-8385D01*
X27322Y-12283D02*
X27283Y-12244D01*
X28417Y-12283D02*
X27322Y-12283D01*
X20866Y-6929D02*
X20866Y-7480D01*
X22716Y-9201D02*
X22735Y-9220D01*
X22716Y-8464D02*
X22716Y-9201D01*
X21968Y-7716D02*
X22716Y-8464D01*
X21102Y-7716D02*
X21968Y-7716D01*
X20866Y-7480D02*
X21102Y-7716D01*
G54D10*
G36*
X13346Y-21398D02*
X13148Y-21596D01*
X13107Y-21596D01*
X13061Y-21615D01*
X13061Y-21384D01*
X12807Y-21130D01*
X12553Y-21384D01*
X12585Y-21452D01*
X12757Y-21506D01*
X12937Y-21490D01*
X13028Y-21452D01*
X13061Y-21384D01*
X13061Y-21615D01*
X12992Y-21644D01*
X12963Y-21673D01*
X12420Y-21673D01*
X12244Y-21496D01*
X12244Y-21416D01*
X12249Y-21414D01*
X12371Y-21293D01*
X12391Y-21243D01*
X12401Y-21268D01*
X12469Y-21301D01*
X12723Y-21047D01*
X12718Y-21041D01*
X12801Y-20958D01*
X12807Y-20963D01*
X12812Y-20958D01*
X12896Y-21041D01*
X12890Y-21047D01*
X13144Y-21301D01*
X13212Y-21268D01*
X13221Y-21240D01*
X13242Y-21292D01*
X13346Y-21396D01*
X13346Y-21398D01*
X13346Y-21398D01*
G37*
G54D36*
X13346Y-21398D02*
X13148Y-21596D01*
X13107Y-21596D01*
X13061Y-21615D01*
X13061Y-21384D01*
X12807Y-21130D01*
X12553Y-21384D01*
X12585Y-21452D01*
X12757Y-21506D01*
X12937Y-21490D01*
X13028Y-21452D01*
X13061Y-21384D01*
X13061Y-21615D01*
X12992Y-21644D01*
X12963Y-21673D01*
X12420Y-21673D01*
X12244Y-21496D01*
X12244Y-21416D01*
X12249Y-21414D01*
X12371Y-21293D01*
X12391Y-21243D01*
X12401Y-21268D01*
X12469Y-21301D01*
X12723Y-21047D01*
X12718Y-21041D01*
X12801Y-20958D01*
X12807Y-20963D01*
X12812Y-20958D01*
X12896Y-21041D01*
X12890Y-21047D01*
X13144Y-21301D01*
X13212Y-21268D01*
X13221Y-21240D01*
X13242Y-21292D01*
X13346Y-21396D01*
X13346Y-21398D01*
G54D10*
G36*
X34050Y-8129D02*
X32842Y-8129D01*
X32824Y-8084D01*
X32713Y-7973D01*
X32568Y-7913D01*
X32412Y-7913D01*
X32267Y-7973D01*
X32156Y-8083D01*
X32096Y-8228D01*
X32096Y-8385D01*
X32115Y-8431D01*
X31912Y-8634D01*
X31899Y-8653D01*
X31899Y-8229D01*
X31839Y-8084D01*
X31729Y-7973D01*
X31584Y-7913D01*
X31427Y-7913D01*
X31283Y-7973D01*
X31172Y-8083D01*
X31112Y-8228D01*
X31112Y-8385D01*
X31171Y-8529D01*
X31282Y-8640D01*
X31427Y-8700D01*
X31583Y-8700D01*
X31728Y-8641D01*
X31839Y-8530D01*
X31899Y-8385D01*
X31899Y-8229D01*
X31899Y-8653D01*
X31873Y-8692D01*
X31860Y-8759D01*
X31860Y-9493D01*
X31257Y-10096D01*
X31005Y-10096D01*
X30994Y-10070D01*
X30955Y-10031D01*
X30935Y-10023D01*
X30955Y-10015D01*
X30994Y-9976D01*
X31015Y-9926D01*
X31015Y-9871D01*
X31015Y-9621D01*
X30994Y-9570D01*
X30959Y-9535D01*
X30966Y-9532D01*
X31011Y-9487D01*
X31035Y-9429D01*
X31035Y-9372D01*
X31035Y-9175D01*
X31035Y-9117D01*
X31011Y-9059D01*
X30966Y-9015D01*
X30908Y-8991D01*
X30846Y-8991D01*
X30725Y-8991D01*
X30686Y-9030D01*
X30686Y-9214D01*
X30995Y-9214D01*
X31035Y-9175D01*
X31035Y-9372D01*
X30995Y-9332D01*
X30686Y-9332D01*
X30686Y-9340D01*
X30568Y-9340D01*
X30568Y-9332D01*
X30560Y-9332D01*
X30560Y-9214D01*
X30568Y-9214D01*
X30568Y-9030D01*
X30529Y-8991D01*
X30408Y-8991D01*
X30346Y-8991D01*
X30288Y-9015D01*
X30244Y-9059D01*
X30236Y-9078D01*
X30236Y-8843D01*
X30397Y-8681D01*
X30442Y-8700D01*
X30599Y-8700D01*
X30744Y-8641D01*
X30855Y-8530D01*
X30915Y-8385D01*
X30915Y-8229D01*
X30896Y-8182D01*
X31333Y-7746D01*
X33666Y-7746D01*
X34050Y-8129D01*
X34050Y-8129D01*
G37*
G54D36*
X34050Y-8129D02*
X32842Y-8129D01*
X32824Y-8084D01*
X32713Y-7973D01*
X32568Y-7913D01*
X32412Y-7913D01*
X32267Y-7973D01*
X32156Y-8083D01*
X32096Y-8228D01*
X32096Y-8385D01*
X32115Y-8431D01*
X31912Y-8634D01*
X31899Y-8653D01*
X31899Y-8229D01*
X31839Y-8084D01*
X31729Y-7973D01*
X31584Y-7913D01*
X31427Y-7913D01*
X31283Y-7973D01*
X31172Y-8083D01*
X31112Y-8228D01*
X31112Y-8385D01*
X31171Y-8529D01*
X31282Y-8640D01*
X31427Y-8700D01*
X31583Y-8700D01*
X31728Y-8641D01*
X31839Y-8530D01*
X31899Y-8385D01*
X31899Y-8229D01*
X31899Y-8653D01*
X31873Y-8692D01*
X31860Y-8759D01*
X31860Y-9493D01*
X31257Y-10096D01*
X31005Y-10096D01*
X30994Y-10070D01*
X30955Y-10031D01*
X30935Y-10023D01*
X30955Y-10015D01*
X30994Y-9976D01*
X31015Y-9926D01*
X31015Y-9871D01*
X31015Y-9621D01*
X30994Y-9570D01*
X30959Y-9535D01*
X30966Y-9532D01*
X31011Y-9487D01*
X31035Y-9429D01*
X31035Y-9372D01*
X31035Y-9175D01*
X31035Y-9117D01*
X31011Y-9059D01*
X30966Y-9015D01*
X30908Y-8991D01*
X30846Y-8991D01*
X30725Y-8991D01*
X30686Y-9030D01*
X30686Y-9214D01*
X30995Y-9214D01*
X31035Y-9175D01*
X31035Y-9372D01*
X30995Y-9332D01*
X30686Y-9332D01*
X30686Y-9340D01*
X30568Y-9340D01*
X30568Y-9332D01*
X30560Y-9332D01*
X30560Y-9214D01*
X30568Y-9214D01*
X30568Y-9030D01*
X30529Y-8991D01*
X30408Y-8991D01*
X30346Y-8991D01*
X30288Y-9015D01*
X30244Y-9059D01*
X30236Y-9078D01*
X30236Y-8843D01*
X30397Y-8681D01*
X30442Y-8700D01*
X30599Y-8700D01*
X30744Y-8641D01*
X30855Y-8530D01*
X30915Y-8385D01*
X30915Y-8229D01*
X30896Y-8182D01*
X31333Y-7746D01*
X33666Y-7746D01*
X34050Y-8129D01*
G54D10*
G36*
X43937Y-24251D02*
X43680Y-24251D01*
X43680Y-16050D01*
X43680Y-15996D01*
X43680Y-15130D01*
X43680Y-14790D01*
X43680Y-14736D01*
X43680Y-14382D01*
X43659Y-14331D01*
X43620Y-14292D01*
X43601Y-14284D01*
X43601Y-14015D01*
X43601Y-14015D01*
X43601Y-14015D01*
X43576Y-13887D01*
X43503Y-13778D01*
X43228Y-13503D01*
X43120Y-13430D01*
X42992Y-13405D01*
X42677Y-13405D01*
X42677Y-11411D01*
X42551Y-11107D01*
X42440Y-10996D01*
X42440Y-10031D01*
X42440Y-9968D01*
X42440Y-9507D01*
X42440Y-9311D01*
X42440Y-8850D01*
X42440Y-8787D01*
X42416Y-8729D01*
X42372Y-8685D01*
X42314Y-8661D01*
X41988Y-8661D01*
X41948Y-8700D01*
X41948Y-9350D01*
X42401Y-9350D01*
X42440Y-9311D01*
X42440Y-9507D01*
X42401Y-9468D01*
X41948Y-9468D01*
X41948Y-10118D01*
X41988Y-10157D01*
X42314Y-10157D01*
X42372Y-10133D01*
X42416Y-10089D01*
X42440Y-10031D01*
X42440Y-10996D01*
X42319Y-10874D01*
X42015Y-10748D01*
X41830Y-10748D01*
X41830Y-10118D01*
X41830Y-9468D01*
X41830Y-9350D01*
X41830Y-8700D01*
X41791Y-8661D01*
X41464Y-8661D01*
X41406Y-8685D01*
X41362Y-8729D01*
X41338Y-8787D01*
X41338Y-8850D01*
X41338Y-9311D01*
X41377Y-9350D01*
X41830Y-9350D01*
X41830Y-9468D01*
X41377Y-9468D01*
X41338Y-9507D01*
X41338Y-9968D01*
X41338Y-10031D01*
X41362Y-10089D01*
X41406Y-10133D01*
X41464Y-10157D01*
X41791Y-10157D01*
X41830Y-10118D01*
X41830Y-10748D01*
X41686Y-10747D01*
X41382Y-10873D01*
X41149Y-11105D01*
X41023Y-11409D01*
X41023Y-11738D01*
X41149Y-12042D01*
X41381Y-12275D01*
X41685Y-12401D01*
X42014Y-12401D01*
X42318Y-12276D01*
X42550Y-12043D01*
X42677Y-11739D01*
X42677Y-11411D01*
X42677Y-13405D01*
X42421Y-13405D01*
X42421Y-13122D01*
X42400Y-13071D01*
X42361Y-13032D01*
X42310Y-13011D01*
X42256Y-13011D01*
X41468Y-13011D01*
X41418Y-13032D01*
X41379Y-13071D01*
X41358Y-13122D01*
X41358Y-13177D01*
X41358Y-13405D01*
X40945Y-13405D01*
X40945Y-11411D01*
X40819Y-11107D01*
X40587Y-10874D01*
X40283Y-10748D01*
X40078Y-10747D01*
X40078Y-10031D01*
X40078Y-9968D01*
X40078Y-9507D01*
X40078Y-9311D01*
X40078Y-8850D01*
X40078Y-8787D01*
X40054Y-8729D01*
X40010Y-8685D01*
X39952Y-8661D01*
X39625Y-8661D01*
X39586Y-8700D01*
X39586Y-9350D01*
X40039Y-9350D01*
X40078Y-9311D01*
X40078Y-9507D01*
X40039Y-9468D01*
X39586Y-9468D01*
X39586Y-10118D01*
X39625Y-10157D01*
X39952Y-10157D01*
X40010Y-10133D01*
X40054Y-10089D01*
X40078Y-10031D01*
X40078Y-10747D01*
X39954Y-10747D01*
X39650Y-10873D01*
X39468Y-11055D01*
X39468Y-10118D01*
X39468Y-9468D01*
X39468Y-9350D01*
X39468Y-8700D01*
X39429Y-8661D01*
X39102Y-8661D01*
X39044Y-8685D01*
X39000Y-8729D01*
X38976Y-8787D01*
X38976Y-8850D01*
X38976Y-9311D01*
X39015Y-9350D01*
X39468Y-9350D01*
X39468Y-9468D01*
X39015Y-9468D01*
X38976Y-9507D01*
X38976Y-9968D01*
X38976Y-10031D01*
X39000Y-10089D01*
X39044Y-10133D01*
X39102Y-10157D01*
X39429Y-10157D01*
X39468Y-10118D01*
X39468Y-11055D01*
X39417Y-11105D01*
X39291Y-11409D01*
X39291Y-11738D01*
X39416Y-12042D01*
X39649Y-12275D01*
X39952Y-12401D01*
X40281Y-12401D01*
X40585Y-12276D01*
X40818Y-12043D01*
X40944Y-11739D01*
X40945Y-11411D01*
X40945Y-13405D01*
X40059Y-13405D01*
X40059Y-13122D01*
X40038Y-13071D01*
X39999Y-13032D01*
X39948Y-13011D01*
X39893Y-13011D01*
X39106Y-13011D01*
X39055Y-13032D01*
X39017Y-13071D01*
X38996Y-13122D01*
X38996Y-13177D01*
X38996Y-14358D01*
X39017Y-14408D01*
X39055Y-14447D01*
X39106Y-14468D01*
X39161Y-14468D01*
X39948Y-14468D01*
X39999Y-14447D01*
X40038Y-14408D01*
X40059Y-14358D01*
X40059Y-14303D01*
X40059Y-14074D01*
X41358Y-14074D01*
X41358Y-14358D01*
X41379Y-14408D01*
X41418Y-14447D01*
X41468Y-14468D01*
X41523Y-14468D01*
X42310Y-14468D01*
X42361Y-14447D01*
X42400Y-14408D01*
X42421Y-14358D01*
X42421Y-14303D01*
X42421Y-14074D01*
X42853Y-14074D01*
X42932Y-14153D01*
X42932Y-14284D01*
X42913Y-14292D01*
X42874Y-14331D01*
X42854Y-14382D01*
X42854Y-14436D01*
X42854Y-14790D01*
X42874Y-14841D01*
X42913Y-14880D01*
X42964Y-14901D01*
X43019Y-14901D01*
X43167Y-14901D01*
X43267Y-14921D01*
X43367Y-14901D01*
X43570Y-14901D01*
X43620Y-14880D01*
X43659Y-14841D01*
X43680Y-14790D01*
X43680Y-15130D01*
X43659Y-15079D01*
X43620Y-15040D01*
X43570Y-15019D01*
X43515Y-15019D01*
X42964Y-15019D01*
X42913Y-15040D01*
X42874Y-15079D01*
X42854Y-15130D01*
X42854Y-15184D01*
X42854Y-16050D01*
X42874Y-16101D01*
X42913Y-16140D01*
X42932Y-16148D01*
X42932Y-16279D01*
X42755Y-16279D01*
X42716Y-16279D01*
X42402Y-16279D01*
X42402Y-16271D01*
X42381Y-16221D01*
X42342Y-16182D01*
X42291Y-16161D01*
X42237Y-16161D01*
X42079Y-16161D01*
X42086Y-16143D01*
X42086Y-16081D01*
X42086Y-15669D01*
X42086Y-15472D01*
X42086Y-15060D01*
X42086Y-14998D01*
X42062Y-14940D01*
X42018Y-14896D01*
X41960Y-14872D01*
X41633Y-14872D01*
X41594Y-14911D01*
X41594Y-15512D01*
X42047Y-15512D01*
X42086Y-15472D01*
X42086Y-15669D01*
X42047Y-15630D01*
X41594Y-15630D01*
X41594Y-15984D01*
X41594Y-16230D01*
X41594Y-16457D01*
X41602Y-16457D01*
X41602Y-16575D01*
X41594Y-16575D01*
X41594Y-17047D01*
X41633Y-17087D01*
X41704Y-17087D01*
X41762Y-17063D01*
X41806Y-17018D01*
X41830Y-16960D01*
X41830Y-16898D01*
X41830Y-16762D01*
X41850Y-16792D01*
X41850Y-16956D01*
X41871Y-17007D01*
X41910Y-17045D01*
X41961Y-17066D01*
X42015Y-17066D01*
X42291Y-17066D01*
X42342Y-17045D01*
X42381Y-17007D01*
X42402Y-16956D01*
X42402Y-16948D01*
X42617Y-16948D01*
X42932Y-17264D01*
X42932Y-17446D01*
X42631Y-17446D01*
X42580Y-17467D01*
X42541Y-17505D01*
X42520Y-17556D01*
X42520Y-17611D01*
X42520Y-18211D01*
X42541Y-18261D01*
X42580Y-18300D01*
X42631Y-18321D01*
X42686Y-18321D01*
X42897Y-18321D01*
X42422Y-18797D01*
X42422Y-17934D01*
X42406Y-17753D01*
X42367Y-17659D01*
X42299Y-17626D01*
X42215Y-17710D01*
X42215Y-17543D01*
X42182Y-17474D01*
X42009Y-17420D01*
X41827Y-17436D01*
X41734Y-17474D01*
X41701Y-17543D01*
X41958Y-17800D01*
X42215Y-17543D01*
X42215Y-17710D01*
X42042Y-17883D01*
X42299Y-18141D01*
X42367Y-18108D01*
X42422Y-17934D01*
X42422Y-18797D01*
X42341Y-18877D01*
X42215Y-18877D01*
X42215Y-18224D01*
X41958Y-17967D01*
X41875Y-18050D01*
X41875Y-17883D01*
X41617Y-17626D01*
X41549Y-17659D01*
X41494Y-17833D01*
X41510Y-18014D01*
X41549Y-18108D01*
X41617Y-18141D01*
X41875Y-17883D01*
X41875Y-18050D01*
X41701Y-18224D01*
X41734Y-18292D01*
X41908Y-18347D01*
X42089Y-18331D01*
X42182Y-18292D01*
X42215Y-18224D01*
X42215Y-18877D01*
X39696Y-18877D01*
X39568Y-18903D01*
X39460Y-18975D01*
X39460Y-18975D01*
X37901Y-20535D01*
X37884Y-20535D01*
X37906Y-20513D01*
X37972Y-20354D01*
X37972Y-20181D01*
X37906Y-20022D01*
X37785Y-19900D01*
X37625Y-19834D01*
X37453Y-19834D01*
X37294Y-19900D01*
X37172Y-20021D01*
X37137Y-20104D01*
X37103Y-20022D01*
X36981Y-19900D01*
X36822Y-19834D01*
X36650Y-19834D01*
X36491Y-19900D01*
X36369Y-20021D01*
X36334Y-20104D01*
X36300Y-20022D01*
X36178Y-19900D01*
X36019Y-19834D01*
X35847Y-19834D01*
X35687Y-19900D01*
X35565Y-20021D01*
X35531Y-20104D01*
X35497Y-20022D01*
X35375Y-19900D01*
X35216Y-19834D01*
X35044Y-19834D01*
X34884Y-19900D01*
X34762Y-20021D01*
X34696Y-20181D01*
X34696Y-20353D01*
X34762Y-20512D01*
X34884Y-20634D01*
X35043Y-20700D01*
X35180Y-20701D01*
X35193Y-20714D01*
X35126Y-20747D01*
X35072Y-20918D01*
X35088Y-21098D01*
X35126Y-21189D01*
X35193Y-21222D01*
X35447Y-20968D01*
X35442Y-20962D01*
X35525Y-20879D01*
X35531Y-20884D01*
X35537Y-20879D01*
X35620Y-20962D01*
X35615Y-20968D01*
X35869Y-21222D01*
X35936Y-21189D01*
X35945Y-21161D01*
X35967Y-21213D01*
X36088Y-21335D01*
X36248Y-21401D01*
X36420Y-21401D01*
X36579Y-21336D01*
X36701Y-21214D01*
X36722Y-21165D01*
X36732Y-21189D01*
X36800Y-21222D01*
X37054Y-20968D01*
X37048Y-20962D01*
X37132Y-20879D01*
X37137Y-20884D01*
X37143Y-20879D01*
X37226Y-20962D01*
X37221Y-20968D01*
X37226Y-20974D01*
X37143Y-21057D01*
X37137Y-21052D01*
X36883Y-21306D01*
X36916Y-21373D01*
X37048Y-21415D01*
X35785Y-22678D01*
X35785Y-21306D01*
X35531Y-21052D01*
X35447Y-21135D01*
X35277Y-21306D01*
X35310Y-21373D01*
X35481Y-21427D01*
X35661Y-21411D01*
X35752Y-21373D01*
X35785Y-21306D01*
X35785Y-22678D01*
X35363Y-23100D01*
X34891Y-23100D01*
X34891Y-21798D01*
X34761Y-21484D01*
X34521Y-21242D01*
X34206Y-21112D01*
X33931Y-21112D01*
X33931Y-20700D01*
X33917Y-20466D01*
X33854Y-20313D01*
X33772Y-20264D01*
X33688Y-20347D01*
X33688Y-20180D01*
X33639Y-20098D01*
X33417Y-20021D01*
X33182Y-20035D01*
X33030Y-20098D01*
X32980Y-20180D01*
X33334Y-20534D01*
X33688Y-20180D01*
X33688Y-20347D01*
X33418Y-20618D01*
X33772Y-20972D01*
X33854Y-20922D01*
X33931Y-20700D01*
X33931Y-21112D01*
X33865Y-21112D01*
X33688Y-21185D01*
X33688Y-21055D01*
X33334Y-20701D01*
X33251Y-20785D01*
X33251Y-20618D01*
X32897Y-20264D01*
X32815Y-20313D01*
X32738Y-20535D01*
X32752Y-20770D01*
X32815Y-20922D01*
X32897Y-20972D01*
X33251Y-20618D01*
X33251Y-20785D01*
X32980Y-21055D01*
X33030Y-21137D01*
X33252Y-21214D01*
X33486Y-21200D01*
X33639Y-21137D01*
X33688Y-21055D01*
X33688Y-21185D01*
X33551Y-21242D01*
X33309Y-21482D01*
X33179Y-21797D01*
X33178Y-22138D01*
X33309Y-22452D01*
X33549Y-22694D01*
X33864Y-22824D01*
X34205Y-22824D01*
X34519Y-22694D01*
X34760Y-22454D01*
X34891Y-22139D01*
X34891Y-21798D01*
X34891Y-23100D01*
X33986Y-23100D01*
X33858Y-23125D01*
X33749Y-23198D01*
X33424Y-23523D01*
X33405Y-23542D01*
X33332Y-23651D01*
X33307Y-23779D01*
X33332Y-23907D01*
X33405Y-24016D01*
X33513Y-24088D01*
X33641Y-24114D01*
X33740Y-24094D01*
X34409Y-24094D01*
X34508Y-24074D01*
X35196Y-24074D01*
X35324Y-24049D01*
X35433Y-23976D01*
X35506Y-23868D01*
X35526Y-23764D01*
X35630Y-23744D01*
X35738Y-23671D01*
X38008Y-21401D01*
X38026Y-21401D01*
X38186Y-21336D01*
X38308Y-21214D01*
X38374Y-21055D01*
X38374Y-21008D01*
X39835Y-19547D01*
X42480Y-19547D01*
X42608Y-19521D01*
X42716Y-19449D01*
X43503Y-18662D01*
X43576Y-18553D01*
X43601Y-18425D01*
X43601Y-17903D01*
X43601Y-17125D01*
X43601Y-16496D01*
X43601Y-16148D01*
X43620Y-16140D01*
X43659Y-16101D01*
X43680Y-16050D01*
X43680Y-24251D01*
X40332Y-24251D01*
X40332Y-20700D01*
X40318Y-20466D01*
X40255Y-20313D01*
X40173Y-20264D01*
X40090Y-20347D01*
X40090Y-20180D01*
X40040Y-20098D01*
X39818Y-20021D01*
X39584Y-20035D01*
X39431Y-20098D01*
X39382Y-20180D01*
X39736Y-20534D01*
X40090Y-20180D01*
X40090Y-20347D01*
X39819Y-20618D01*
X40173Y-20972D01*
X40255Y-20922D01*
X40332Y-20700D01*
X40332Y-24251D01*
X40090Y-24251D01*
X40090Y-21055D01*
X39736Y-20701D01*
X39652Y-20785D01*
X39652Y-20618D01*
X39298Y-20264D01*
X39216Y-20313D01*
X39139Y-20535D01*
X39153Y-20770D01*
X39216Y-20922D01*
X39298Y-20972D01*
X39652Y-20618D01*
X39652Y-20785D01*
X39382Y-21055D01*
X39431Y-21137D01*
X39653Y-21214D01*
X39888Y-21200D01*
X40040Y-21137D01*
X40090Y-21055D01*
X40090Y-24251D01*
X39891Y-24251D01*
X39891Y-21798D01*
X39761Y-21484D01*
X39521Y-21242D01*
X39206Y-21112D01*
X38865Y-21112D01*
X38551Y-21242D01*
X38309Y-21482D01*
X38179Y-21797D01*
X38178Y-22138D01*
X38309Y-22452D01*
X38549Y-22694D01*
X38864Y-22824D01*
X39205Y-22824D01*
X39519Y-22694D01*
X39760Y-22454D01*
X39891Y-22139D01*
X39891Y-21798D01*
X39891Y-24251D01*
X30767Y-24251D01*
X30835Y-24238D01*
X30835Y-24238D01*
X30892Y-24200D01*
X32349Y-22743D01*
X32388Y-22685D01*
X32388Y-22685D01*
X32401Y-22618D01*
X32401Y-19187D01*
X32674Y-18915D01*
X32798Y-18915D01*
X32913Y-18867D01*
X33001Y-18779D01*
X33048Y-18664D01*
X33049Y-18540D01*
X33001Y-18425D01*
X32913Y-18337D01*
X32798Y-18289D01*
X32674Y-18289D01*
X32559Y-18337D01*
X32471Y-18424D01*
X32423Y-18539D01*
X32423Y-18664D01*
X32423Y-18664D01*
X32099Y-18988D01*
X32060Y-19046D01*
X32047Y-19114D01*
X32047Y-22544D01*
X30694Y-23897D01*
X28923Y-23897D01*
X29949Y-22872D01*
X30036Y-22908D01*
X30222Y-22908D01*
X30394Y-22837D01*
X30526Y-22706D01*
X30597Y-22534D01*
X30597Y-22348D01*
X30526Y-22176D01*
X30395Y-22044D01*
X30223Y-21973D01*
X30037Y-21973D01*
X29865Y-22044D01*
X29733Y-22175D01*
X29662Y-22347D01*
X29662Y-22533D01*
X29698Y-22621D01*
X28717Y-23602D01*
X27497Y-23602D01*
X27497Y-23127D01*
X27450Y-23012D01*
X27362Y-22923D01*
X27247Y-22876D01*
X27123Y-22876D01*
X27008Y-22923D01*
X26920Y-23011D01*
X26919Y-23011D01*
X25860Y-23011D01*
X25745Y-22896D01*
X25745Y-20922D01*
X25698Y-20807D01*
X25610Y-20719D01*
X25610Y-20719D01*
X25610Y-20324D01*
X25698Y-20236D01*
X25745Y-20121D01*
X25745Y-19997D01*
X25698Y-19882D01*
X25610Y-19794D01*
X25495Y-19746D01*
X25371Y-19746D01*
X25256Y-19793D01*
X25168Y-19881D01*
X25120Y-19996D01*
X25120Y-20121D01*
X25167Y-20236D01*
X25255Y-20324D01*
X25255Y-20324D01*
X25255Y-20719D01*
X25168Y-20806D01*
X25120Y-20921D01*
X25120Y-21046D01*
X25167Y-21161D01*
X25255Y-21249D01*
X25370Y-21296D01*
X25495Y-21297D01*
X25610Y-21249D01*
X25698Y-21161D01*
X25745Y-21046D01*
X25745Y-20922D01*
X25745Y-22896D01*
X24803Y-21954D01*
X24803Y-21859D01*
X24891Y-21771D01*
X24938Y-21656D01*
X24938Y-21532D01*
X24891Y-21417D01*
X24803Y-21329D01*
X24688Y-21281D01*
X24564Y-21281D01*
X24449Y-21329D01*
X24360Y-21417D01*
X24313Y-21531D01*
X24313Y-21656D01*
X24360Y-21771D01*
X24448Y-21859D01*
X24448Y-21859D01*
X24448Y-22027D01*
X24462Y-22095D01*
X24500Y-22152D01*
X25662Y-23314D01*
X25719Y-23352D01*
X25719Y-23352D01*
X25787Y-23366D01*
X26919Y-23366D01*
X27007Y-23453D01*
X27122Y-23501D01*
X27246Y-23501D01*
X27361Y-23454D01*
X27450Y-23366D01*
X27497Y-23251D01*
X27497Y-23127D01*
X27497Y-23602D01*
X24049Y-23602D01*
X24007Y-23560D01*
X24074Y-23533D01*
X24162Y-23445D01*
X24210Y-23330D01*
X24210Y-23205D01*
X24162Y-23090D01*
X24075Y-23002D01*
X24074Y-23002D01*
X24074Y-22890D01*
X24092Y-22871D01*
X24113Y-22821D01*
X24113Y-22766D01*
X24113Y-22510D01*
X24092Y-22459D01*
X24072Y-22439D01*
X24092Y-22418D01*
X24113Y-22368D01*
X24113Y-22313D01*
X24113Y-22194D01*
X24114Y-22192D01*
X24114Y-19730D01*
X24144Y-19802D01*
X24232Y-19891D01*
X24346Y-19938D01*
X24471Y-19938D01*
X24586Y-19891D01*
X24674Y-19803D01*
X24722Y-19688D01*
X24722Y-19627D01*
X25040Y-19309D01*
X26429Y-19309D01*
X26368Y-19369D01*
X26321Y-19484D01*
X26321Y-19609D01*
X26368Y-19724D01*
X26437Y-19792D01*
X26437Y-19985D01*
X26426Y-19960D01*
X26338Y-19872D01*
X26223Y-19825D01*
X26099Y-19824D01*
X25984Y-19872D01*
X25896Y-19960D01*
X25848Y-20075D01*
X25848Y-20199D01*
X25896Y-20314D01*
X25984Y-20402D01*
X25984Y-20402D01*
X25984Y-20561D01*
X25896Y-20649D01*
X25848Y-20764D01*
X25848Y-20888D01*
X25896Y-21003D01*
X25984Y-21091D01*
X26098Y-21139D01*
X26223Y-21139D01*
X26338Y-21092D01*
X26426Y-21004D01*
X26437Y-20978D01*
X26437Y-21191D01*
X26349Y-21279D01*
X26301Y-21394D01*
X26301Y-21518D01*
X26348Y-21633D01*
X26436Y-21721D01*
X26551Y-21769D01*
X26676Y-21769D01*
X26791Y-21722D01*
X26879Y-21634D01*
X26926Y-21519D01*
X26927Y-21394D01*
X26879Y-21279D01*
X26791Y-21191D01*
X26791Y-21191D01*
X26791Y-19820D01*
X26810Y-19812D01*
X26898Y-19724D01*
X26946Y-19609D01*
X26946Y-19485D01*
X26899Y-19370D01*
X26838Y-19309D01*
X26912Y-19309D01*
X26918Y-19314D01*
X26969Y-19335D01*
X27023Y-19335D01*
X27523Y-19335D01*
X27574Y-19314D01*
X27580Y-19309D01*
X28070Y-19309D01*
X28464Y-19309D01*
X28464Y-19881D01*
X28490Y-20009D01*
X28562Y-20118D01*
X29074Y-20630D01*
X29182Y-20702D01*
X29311Y-20728D01*
X29311Y-20728D01*
X29311Y-20728D01*
X29921Y-20728D01*
X29921Y-20728D01*
X30846Y-21652D01*
X30846Y-22062D01*
X30733Y-22175D01*
X30662Y-22347D01*
X30662Y-22533D01*
X30733Y-22705D01*
X30864Y-22837D01*
X31036Y-22908D01*
X31222Y-22908D01*
X31394Y-22837D01*
X31526Y-22706D01*
X31597Y-22534D01*
X31597Y-22348D01*
X31526Y-22176D01*
X31395Y-22044D01*
X31318Y-22012D01*
X31318Y-21555D01*
X31300Y-21464D01*
X31249Y-21388D01*
X30324Y-20463D01*
X32500Y-18287D01*
X34448Y-18287D01*
X38149Y-18287D01*
X38277Y-18261D01*
X38386Y-18189D01*
X39626Y-16948D01*
X39724Y-16948D01*
X40196Y-16948D01*
X40472Y-16948D01*
X40668Y-16948D01*
X40668Y-16956D01*
X40689Y-17007D01*
X40708Y-17025D01*
X40708Y-17515D01*
X40587Y-17635D01*
X40520Y-17796D01*
X40520Y-17970D01*
X40587Y-18131D01*
X40710Y-18254D01*
X40871Y-18321D01*
X41045Y-18321D01*
X41206Y-18255D01*
X41329Y-18132D01*
X41396Y-17971D01*
X41396Y-17797D01*
X41330Y-17636D01*
X41206Y-17512D01*
X41180Y-17501D01*
X41180Y-17025D01*
X41199Y-17007D01*
X41220Y-16956D01*
X41220Y-16901D01*
X41220Y-16792D01*
X41239Y-16762D01*
X41239Y-16898D01*
X41239Y-16960D01*
X41263Y-17018D01*
X41308Y-17063D01*
X41366Y-17087D01*
X41437Y-17087D01*
X41476Y-17047D01*
X41476Y-16575D01*
X41468Y-16575D01*
X41468Y-16457D01*
X41476Y-16457D01*
X41476Y-16230D01*
X41476Y-15984D01*
X41476Y-15630D01*
X41476Y-15512D01*
X41476Y-14911D01*
X41437Y-14872D01*
X41110Y-14872D01*
X41052Y-14896D01*
X41008Y-14940D01*
X40984Y-14998D01*
X40984Y-15060D01*
X40984Y-15472D01*
X41023Y-15512D01*
X41476Y-15512D01*
X41476Y-15630D01*
X41023Y-15630D01*
X40984Y-15669D01*
X40984Y-16081D01*
X40984Y-16143D01*
X40991Y-16161D01*
X40779Y-16161D01*
X40728Y-16182D01*
X40689Y-16221D01*
X40668Y-16271D01*
X40668Y-16279D01*
X40472Y-16279D01*
X40471Y-16279D01*
X40335Y-16143D01*
X40335Y-15595D01*
X40352Y-15588D01*
X40391Y-15549D01*
X40412Y-15499D01*
X40412Y-15444D01*
X40412Y-14894D01*
X40391Y-14843D01*
X40352Y-14805D01*
X40301Y-14784D01*
X40247Y-14784D01*
X39897Y-14784D01*
X39846Y-14805D01*
X39807Y-14843D01*
X39786Y-14894D01*
X39786Y-14949D01*
X39786Y-15499D01*
X39807Y-15549D01*
X39846Y-15588D01*
X39863Y-15595D01*
X39863Y-16141D01*
X39725Y-16279D01*
X39724Y-16279D01*
X39681Y-16279D01*
X39681Y-15503D01*
X39681Y-15440D01*
X39681Y-15295D01*
X39681Y-15098D01*
X39681Y-14953D01*
X39681Y-14890D01*
X39657Y-14832D01*
X39613Y-14788D01*
X39555Y-14764D01*
X39447Y-14764D01*
X39408Y-14803D01*
X39408Y-15137D01*
X39642Y-15137D01*
X39681Y-15098D01*
X39681Y-15295D01*
X39642Y-15255D01*
X39408Y-15255D01*
X39408Y-15589D01*
X39447Y-15629D01*
X39555Y-15629D01*
X39613Y-15605D01*
X39657Y-15561D01*
X39681Y-15503D01*
X39681Y-16279D01*
X39488Y-16279D01*
X39360Y-16304D01*
X39290Y-16351D01*
X39290Y-15589D01*
X39290Y-15255D01*
X39290Y-15137D01*
X39290Y-14803D01*
X39250Y-14764D01*
X39143Y-14764D01*
X39085Y-14788D01*
X39040Y-14832D01*
X39016Y-14890D01*
X39016Y-14953D01*
X39016Y-15098D01*
X39056Y-15137D01*
X39290Y-15137D01*
X39290Y-15255D01*
X39056Y-15255D01*
X39016Y-15295D01*
X39016Y-15440D01*
X39016Y-15503D01*
X39040Y-15561D01*
X39085Y-15605D01*
X39143Y-15629D01*
X39250Y-15629D01*
X39290Y-15589D01*
X39290Y-16351D01*
X39251Y-16377D01*
X38010Y-17618D01*
X37401Y-17618D01*
X37401Y-8229D01*
X37341Y-8084D01*
X37231Y-7973D01*
X37086Y-7913D01*
X36929Y-7913D01*
X36785Y-7973D01*
X36674Y-8083D01*
X36614Y-8228D01*
X36614Y-8385D01*
X36673Y-8529D01*
X36784Y-8640D01*
X36929Y-8700D01*
X37085Y-8700D01*
X37230Y-8641D01*
X37341Y-8530D01*
X37401Y-8385D01*
X37401Y-8229D01*
X37401Y-17618D01*
X37204Y-17618D01*
X37204Y-12784D01*
X37204Y-12676D01*
X37204Y-12479D01*
X37204Y-12371D01*
X37180Y-12313D01*
X37135Y-12269D01*
X37077Y-12245D01*
X37015Y-12245D01*
X36870Y-12245D01*
X36830Y-12284D01*
X36830Y-12518D01*
X37164Y-12518D01*
X37204Y-12479D01*
X37204Y-12676D01*
X37164Y-12636D01*
X36830Y-12636D01*
X36830Y-12870D01*
X36870Y-12910D01*
X37015Y-12910D01*
X37077Y-12910D01*
X37135Y-12886D01*
X37180Y-12841D01*
X37204Y-12784D01*
X37204Y-17618D01*
X37184Y-17618D01*
X37184Y-13530D01*
X37184Y-13475D01*
X37184Y-13125D01*
X37163Y-13074D01*
X37124Y-13035D01*
X37074Y-13014D01*
X37019Y-13014D01*
X36712Y-13014D01*
X36712Y-12870D01*
X36712Y-12636D01*
X36712Y-12518D01*
X36712Y-12284D01*
X36673Y-12245D01*
X36527Y-12245D01*
X36465Y-12245D01*
X36407Y-12269D01*
X36363Y-12313D01*
X36339Y-12371D01*
X36339Y-12479D01*
X36378Y-12518D01*
X36712Y-12518D01*
X36712Y-12636D01*
X36378Y-12636D01*
X36339Y-12676D01*
X36339Y-12784D01*
X36363Y-12841D01*
X36407Y-12886D01*
X36465Y-12910D01*
X36527Y-12910D01*
X36673Y-12910D01*
X36712Y-12870D01*
X36712Y-13014D01*
X36469Y-13014D01*
X36418Y-13035D01*
X36379Y-13074D01*
X36358Y-13125D01*
X36358Y-13180D01*
X36358Y-13530D01*
X36379Y-13580D01*
X36418Y-13619D01*
X36469Y-13640D01*
X36524Y-13640D01*
X36535Y-13640D01*
X36535Y-14793D01*
X36506Y-14822D01*
X36458Y-14937D01*
X36458Y-15061D01*
X36506Y-15176D01*
X36594Y-15265D01*
X36709Y-15312D01*
X36833Y-15312D01*
X36948Y-15265D01*
X37036Y-15177D01*
X37084Y-15062D01*
X37084Y-14938D01*
X37036Y-14823D01*
X37007Y-14793D01*
X37007Y-13640D01*
X37074Y-13640D01*
X37124Y-13619D01*
X37163Y-13580D01*
X37184Y-13530D01*
X37184Y-17618D01*
X35365Y-17618D01*
X35365Y-13760D01*
X35365Y-13702D01*
X35365Y-13505D01*
X35365Y-13448D01*
X35341Y-13390D01*
X35297Y-13345D01*
X35239Y-13321D01*
X35176Y-13321D01*
X35056Y-13321D01*
X35017Y-13361D01*
X35017Y-13545D01*
X35326Y-13545D01*
X35365Y-13505D01*
X35365Y-13702D01*
X35326Y-13663D01*
X35017Y-13663D01*
X35017Y-13671D01*
X34899Y-13671D01*
X34899Y-13663D01*
X34899Y-13545D01*
X34899Y-13361D01*
X34859Y-13321D01*
X34739Y-13321D01*
X34676Y-13321D01*
X34619Y-13345D01*
X34574Y-13390D01*
X34550Y-13448D01*
X34550Y-13505D01*
X34590Y-13545D01*
X34899Y-13545D01*
X34899Y-13663D01*
X34590Y-13663D01*
X34550Y-13702D01*
X34550Y-13760D01*
X34574Y-13818D01*
X34619Y-13862D01*
X34626Y-13866D01*
X34591Y-13901D01*
X34570Y-13951D01*
X34570Y-14006D01*
X34570Y-14256D01*
X34591Y-14307D01*
X34630Y-14346D01*
X34649Y-14354D01*
X34630Y-14362D01*
X34591Y-14401D01*
X34570Y-14451D01*
X34570Y-14506D01*
X34570Y-14756D01*
X34591Y-14807D01*
X34630Y-14846D01*
X34649Y-14854D01*
X34630Y-14862D01*
X34591Y-14901D01*
X34570Y-14951D01*
X34570Y-15006D01*
X34570Y-15256D01*
X34591Y-15307D01*
X34630Y-15346D01*
X34649Y-15354D01*
X34630Y-15362D01*
X34591Y-15401D01*
X34570Y-15451D01*
X34570Y-15506D01*
X34570Y-15756D01*
X34591Y-15807D01*
X34630Y-15846D01*
X34649Y-15854D01*
X34630Y-15862D01*
X34591Y-15901D01*
X34570Y-15951D01*
X34570Y-16006D01*
X34570Y-16256D01*
X34591Y-16307D01*
X34630Y-16346D01*
X34649Y-16354D01*
X34630Y-16362D01*
X34591Y-16401D01*
X34570Y-16451D01*
X34570Y-16506D01*
X34570Y-16756D01*
X34591Y-16807D01*
X34630Y-16846D01*
X34649Y-16854D01*
X34630Y-16862D01*
X34591Y-16901D01*
X34570Y-16951D01*
X34570Y-17006D01*
X34570Y-17256D01*
X34591Y-17307D01*
X34630Y-17346D01*
X34680Y-17367D01*
X34735Y-17367D01*
X35235Y-17367D01*
X35286Y-17346D01*
X35325Y-17307D01*
X35346Y-17256D01*
X35346Y-17201D01*
X35346Y-16951D01*
X35325Y-16901D01*
X35286Y-16862D01*
X35266Y-16854D01*
X35286Y-16846D01*
X35325Y-16807D01*
X35346Y-16756D01*
X35346Y-16701D01*
X35346Y-16451D01*
X35325Y-16401D01*
X35286Y-16362D01*
X35266Y-16354D01*
X35286Y-16346D01*
X35325Y-16307D01*
X35346Y-16256D01*
X35346Y-16201D01*
X35346Y-15951D01*
X35325Y-15901D01*
X35286Y-15862D01*
X35266Y-15854D01*
X35286Y-15846D01*
X35325Y-15807D01*
X35346Y-15756D01*
X35346Y-15701D01*
X35346Y-15451D01*
X35325Y-15401D01*
X35286Y-15362D01*
X35266Y-15354D01*
X35286Y-15346D01*
X35325Y-15307D01*
X35346Y-15256D01*
X35346Y-15201D01*
X35346Y-14951D01*
X35325Y-14901D01*
X35286Y-14862D01*
X35266Y-14854D01*
X35286Y-14846D01*
X35325Y-14807D01*
X35346Y-14756D01*
X35346Y-14701D01*
X35346Y-14451D01*
X35325Y-14401D01*
X35286Y-14362D01*
X35266Y-14354D01*
X35286Y-14346D01*
X35325Y-14307D01*
X35346Y-14256D01*
X35346Y-14201D01*
X35346Y-13951D01*
X35325Y-13901D01*
X35289Y-13866D01*
X35297Y-13862D01*
X35341Y-13818D01*
X35365Y-13760D01*
X35365Y-17618D01*
X34477Y-17618D01*
X34477Y-10156D01*
X34477Y-9969D01*
X34330Y-9969D01*
X34290Y-10008D01*
X34290Y-10069D01*
X34314Y-10127D01*
X34358Y-10171D01*
X34416Y-10195D01*
X34438Y-10195D01*
X34477Y-10156D01*
X34477Y-17618D01*
X34448Y-17618D01*
X34448Y-17618D01*
X33767Y-16937D01*
X33690Y-16886D01*
X33600Y-16868D01*
X33091Y-16868D01*
X33086Y-16862D01*
X33066Y-16854D01*
X33086Y-16846D01*
X33125Y-16807D01*
X33146Y-16756D01*
X33146Y-16701D01*
X33146Y-16451D01*
X33125Y-16401D01*
X33086Y-16362D01*
X33066Y-16354D01*
X33086Y-16346D01*
X33097Y-16335D01*
X33129Y-16367D01*
X33244Y-16415D01*
X33369Y-16415D01*
X33484Y-16367D01*
X33572Y-16279D01*
X33619Y-16164D01*
X33619Y-16040D01*
X33572Y-15925D01*
X33484Y-15837D01*
X33369Y-15789D01*
X33245Y-15789D01*
X33130Y-15837D01*
X33095Y-15871D01*
X33086Y-15862D01*
X33066Y-15854D01*
X33086Y-15846D01*
X33125Y-15807D01*
X33146Y-15756D01*
X33146Y-15701D01*
X33146Y-15451D01*
X33125Y-15401D01*
X33086Y-15362D01*
X33066Y-15354D01*
X33086Y-15346D01*
X33125Y-15307D01*
X33146Y-15256D01*
X33146Y-15201D01*
X33146Y-14951D01*
X33125Y-14901D01*
X33086Y-14862D01*
X33066Y-14854D01*
X33086Y-14846D01*
X33125Y-14807D01*
X33146Y-14756D01*
X33146Y-14701D01*
X33146Y-14451D01*
X33125Y-14401D01*
X33086Y-14362D01*
X33066Y-14354D01*
X33086Y-14346D01*
X33125Y-14307D01*
X33146Y-14256D01*
X33146Y-14201D01*
X33146Y-13951D01*
X33125Y-13901D01*
X33086Y-13862D01*
X33066Y-13854D01*
X33086Y-13846D01*
X33125Y-13807D01*
X33146Y-13756D01*
X33146Y-13701D01*
X33146Y-13451D01*
X33125Y-13401D01*
X33086Y-13362D01*
X33035Y-13341D01*
X32980Y-13341D01*
X32480Y-13341D01*
X32430Y-13362D01*
X32391Y-13401D01*
X32370Y-13451D01*
X32370Y-13506D01*
X32370Y-13756D01*
X32391Y-13807D01*
X32430Y-13846D01*
X32449Y-13854D01*
X32430Y-13862D01*
X32391Y-13901D01*
X32380Y-13927D01*
X32327Y-13927D01*
X32172Y-13772D01*
X32115Y-13733D01*
X32047Y-13720D01*
X30695Y-13720D01*
X30767Y-13690D01*
X30855Y-13602D01*
X30903Y-13487D01*
X30903Y-13363D01*
X30855Y-13248D01*
X30804Y-13196D01*
X30804Y-13036D01*
X30904Y-13036D01*
X30955Y-13015D01*
X30994Y-12976D01*
X31015Y-12926D01*
X31015Y-12871D01*
X31015Y-12621D01*
X30994Y-12570D01*
X30955Y-12531D01*
X30935Y-12523D01*
X30955Y-12515D01*
X30994Y-12476D01*
X31015Y-12426D01*
X31015Y-12371D01*
X31015Y-12121D01*
X30994Y-12070D01*
X30955Y-12031D01*
X30935Y-12023D01*
X30955Y-12015D01*
X30994Y-11976D01*
X31005Y-11948D01*
X31821Y-11948D01*
X31909Y-12036D01*
X32024Y-12084D01*
X32148Y-12084D01*
X32263Y-12036D01*
X32351Y-11949D01*
X32399Y-11834D01*
X32399Y-11709D01*
X32351Y-11594D01*
X32264Y-11506D01*
X32149Y-11458D01*
X32024Y-11458D01*
X31909Y-11506D01*
X31821Y-11594D01*
X31821Y-11594D01*
X31004Y-11594D01*
X30994Y-11570D01*
X30955Y-11531D01*
X30935Y-11523D01*
X30955Y-11515D01*
X30994Y-11476D01*
X31010Y-11437D01*
X31230Y-11437D01*
X31318Y-11524D01*
X31433Y-11572D01*
X31558Y-11572D01*
X31673Y-11525D01*
X31761Y-11437D01*
X31808Y-11322D01*
X31808Y-11197D01*
X31761Y-11082D01*
X31673Y-10994D01*
X31558Y-10947D01*
X31434Y-10946D01*
X31319Y-10994D01*
X31231Y-11082D01*
X31230Y-11082D01*
X30999Y-11082D01*
X30994Y-11070D01*
X30955Y-11031D01*
X30935Y-11023D01*
X30955Y-11015D01*
X30994Y-10976D01*
X31015Y-10926D01*
X31015Y-10871D01*
X31015Y-10621D01*
X30994Y-10570D01*
X30955Y-10531D01*
X30935Y-10523D01*
X30955Y-10515D01*
X30994Y-10476D01*
X31005Y-10450D01*
X31330Y-10450D01*
X31398Y-10437D01*
X31398Y-10437D01*
X31455Y-10398D01*
X32162Y-9692D01*
X32201Y-9634D01*
X32214Y-9566D01*
X32214Y-8833D01*
X32365Y-8681D01*
X32411Y-8700D01*
X32568Y-8700D01*
X32712Y-8641D01*
X32823Y-8530D01*
X32842Y-8484D01*
X34001Y-8484D01*
X34329Y-8812D01*
X34329Y-9254D01*
X34310Y-9301D01*
X34310Y-9356D01*
X34310Y-9612D01*
X34331Y-9663D01*
X34337Y-9669D01*
X34314Y-9692D01*
X34290Y-9750D01*
X34290Y-9811D01*
X34330Y-9850D01*
X34477Y-9850D01*
X34477Y-9843D01*
X34519Y-9843D01*
X34527Y-9850D01*
X34536Y-9850D01*
X34674Y-9850D01*
X34684Y-9850D01*
X34692Y-9843D01*
X34716Y-9843D01*
X34724Y-9850D01*
X34733Y-9850D01*
X34871Y-9850D01*
X34881Y-9850D01*
X34889Y-9843D01*
X34913Y-9843D01*
X34921Y-9850D01*
X34930Y-9850D01*
X35068Y-9850D01*
X35078Y-9850D01*
X35086Y-9843D01*
X35127Y-9843D01*
X35127Y-9850D01*
X35275Y-9850D01*
X35314Y-9811D01*
X35314Y-9750D01*
X35290Y-9692D01*
X35267Y-9669D01*
X35273Y-9663D01*
X35294Y-9612D01*
X35294Y-9557D01*
X35294Y-9301D01*
X35275Y-9254D01*
X35275Y-8882D01*
X35671Y-8486D01*
X35689Y-8529D01*
X35800Y-8640D01*
X35846Y-8659D01*
X35846Y-11058D01*
X35446Y-11458D01*
X35321Y-11458D01*
X35314Y-11461D01*
X35314Y-10069D01*
X35314Y-10008D01*
X35275Y-9969D01*
X35127Y-9969D01*
X35127Y-10156D01*
X35167Y-10195D01*
X35188Y-10195D01*
X35246Y-10171D01*
X35290Y-10127D01*
X35314Y-10069D01*
X35314Y-11461D01*
X35206Y-11506D01*
X35118Y-11594D01*
X35117Y-11597D01*
X35117Y-10069D01*
X35117Y-10008D01*
X35078Y-9969D01*
X35068Y-9969D01*
X34930Y-9969D01*
X34921Y-9969D01*
X34901Y-9988D01*
X34881Y-9969D01*
X34871Y-9969D01*
X34733Y-9969D01*
X34724Y-9969D01*
X34704Y-9988D01*
X34684Y-9969D01*
X34674Y-9969D01*
X34536Y-9969D01*
X34527Y-9969D01*
X34487Y-10008D01*
X34487Y-10069D01*
X34511Y-10127D01*
X34536Y-10152D01*
X34536Y-10156D01*
X34576Y-10195D01*
X34597Y-10195D01*
X34605Y-10192D01*
X34613Y-10195D01*
X34635Y-10195D01*
X34674Y-10156D01*
X34674Y-10152D01*
X34699Y-10127D01*
X34704Y-10116D01*
X34708Y-10127D01*
X34733Y-10152D01*
X34733Y-10156D01*
X34773Y-10195D01*
X34794Y-10195D01*
X34802Y-10192D01*
X34810Y-10195D01*
X34832Y-10195D01*
X34871Y-10156D01*
X34871Y-10152D01*
X34896Y-10127D01*
X34901Y-10116D01*
X34905Y-10127D01*
X34930Y-10152D01*
X34930Y-10156D01*
X34970Y-10195D01*
X34991Y-10195D01*
X34999Y-10192D01*
X35007Y-10195D01*
X35029Y-10195D01*
X35068Y-10156D01*
X35068Y-10152D01*
X35093Y-10127D01*
X35117Y-10069D01*
X35117Y-11597D01*
X35071Y-11709D01*
X35071Y-11833D01*
X35118Y-11948D01*
X35206Y-12036D01*
X35321Y-12084D01*
X35445Y-12084D01*
X35560Y-12036D01*
X35648Y-11949D01*
X35696Y-11834D01*
X35696Y-11709D01*
X35696Y-11709D01*
X36148Y-11257D01*
X36187Y-11199D01*
X36187Y-11199D01*
X36200Y-11131D01*
X36200Y-8659D01*
X36246Y-8641D01*
X36357Y-8530D01*
X36417Y-8385D01*
X36417Y-8229D01*
X36357Y-8084D01*
X36246Y-7973D01*
X36102Y-7913D01*
X36018Y-7913D01*
X36097Y-7834D01*
X37269Y-7834D01*
X37617Y-8182D01*
X37598Y-8228D01*
X37598Y-8385D01*
X37658Y-8529D01*
X37768Y-8640D01*
X37913Y-8700D01*
X38070Y-8700D01*
X38214Y-8641D01*
X38325Y-8530D01*
X38385Y-8385D01*
X38385Y-8229D01*
X38385Y-6103D01*
X38326Y-5958D01*
X38215Y-5847D01*
X38070Y-5787D01*
X37914Y-5787D01*
X37769Y-5847D01*
X37658Y-5957D01*
X37598Y-6102D01*
X37598Y-6259D01*
X37658Y-6403D01*
X37768Y-6514D01*
X37913Y-6574D01*
X38070Y-6574D01*
X38214Y-6515D01*
X38325Y-6404D01*
X38385Y-6259D01*
X38385Y-6103D01*
X38385Y-8229D01*
X38326Y-8084D01*
X38215Y-7973D01*
X38070Y-7913D01*
X37914Y-7913D01*
X37867Y-7932D01*
X37467Y-7532D01*
X37410Y-7493D01*
X37401Y-7492D01*
X37401Y-6103D01*
X37341Y-5958D01*
X37231Y-5847D01*
X37086Y-5787D01*
X36929Y-5787D01*
X36785Y-5847D01*
X36674Y-5957D01*
X36614Y-6102D01*
X36614Y-6259D01*
X36673Y-6403D01*
X36784Y-6514D01*
X36929Y-6574D01*
X37085Y-6574D01*
X37230Y-6515D01*
X37341Y-6404D01*
X37401Y-6259D01*
X37401Y-6103D01*
X37401Y-7492D01*
X37342Y-7480D01*
X36417Y-7480D01*
X36417Y-6103D01*
X36357Y-5958D01*
X36246Y-5847D01*
X36102Y-5787D01*
X35945Y-5787D01*
X35800Y-5847D01*
X35690Y-5957D01*
X35629Y-6102D01*
X35629Y-6259D01*
X35689Y-6403D01*
X35800Y-6514D01*
X35944Y-6574D01*
X36101Y-6574D01*
X36246Y-6515D01*
X36357Y-6404D01*
X36417Y-6259D01*
X36417Y-6103D01*
X36417Y-7480D01*
X36023Y-7480D01*
X35955Y-7493D01*
X35898Y-7532D01*
X34881Y-8549D01*
X34881Y-8532D01*
X34867Y-8465D01*
X34829Y-8407D01*
X33865Y-7443D01*
X33807Y-7405D01*
X33740Y-7391D01*
X32883Y-7391D01*
X32883Y-6103D01*
X32824Y-5958D01*
X32713Y-5847D01*
X32568Y-5787D01*
X32412Y-5787D01*
X32267Y-5847D01*
X32156Y-5957D01*
X32096Y-6102D01*
X32096Y-6259D01*
X32156Y-6403D01*
X32266Y-6514D01*
X32411Y-6574D01*
X32568Y-6574D01*
X32712Y-6515D01*
X32823Y-6404D01*
X32883Y-6259D01*
X32883Y-6103D01*
X32883Y-7391D01*
X31899Y-7391D01*
X31899Y-6103D01*
X31839Y-5958D01*
X31729Y-5847D01*
X31584Y-5787D01*
X31427Y-5787D01*
X31283Y-5847D01*
X31172Y-5957D01*
X31112Y-6102D01*
X31112Y-6259D01*
X31171Y-6403D01*
X31282Y-6514D01*
X31427Y-6574D01*
X31583Y-6574D01*
X31728Y-6515D01*
X31839Y-6404D01*
X31899Y-6259D01*
X31899Y-6103D01*
X31899Y-7391D01*
X31259Y-7391D01*
X31192Y-7405D01*
X31134Y-7443D01*
X30915Y-7662D01*
X30915Y-6103D01*
X30855Y-5958D01*
X30744Y-5847D01*
X30600Y-5787D01*
X30443Y-5787D01*
X30298Y-5847D01*
X30188Y-5957D01*
X30128Y-6102D01*
X30127Y-6259D01*
X30187Y-6403D01*
X30298Y-6514D01*
X30442Y-6574D01*
X30599Y-6574D01*
X30744Y-6515D01*
X30855Y-6404D01*
X30915Y-6259D01*
X30915Y-6103D01*
X30915Y-7662D01*
X30645Y-7932D01*
X30600Y-7913D01*
X30443Y-7913D01*
X30298Y-7973D01*
X30188Y-8083D01*
X30128Y-8228D01*
X30127Y-8385D01*
X30146Y-8431D01*
X29933Y-8644D01*
X29895Y-8701D01*
X29881Y-8769D01*
X29881Y-9665D01*
X29895Y-9733D01*
X29933Y-9790D01*
X30042Y-9898D01*
X30099Y-9937D01*
X30099Y-9937D01*
X30167Y-9950D01*
X30250Y-9950D01*
X30260Y-9976D01*
X30299Y-10015D01*
X30319Y-10023D01*
X30299Y-10031D01*
X30260Y-10070D01*
X30239Y-10121D01*
X30239Y-10176D01*
X30239Y-10426D01*
X30260Y-10476D01*
X30299Y-10515D01*
X30319Y-10523D01*
X30299Y-10531D01*
X30280Y-10551D01*
X30206Y-10551D01*
X30177Y-10522D01*
X30062Y-10474D01*
X29938Y-10474D01*
X29823Y-10522D01*
X29734Y-10609D01*
X29687Y-10724D01*
X29687Y-10766D01*
X29399Y-11053D01*
X29348Y-11130D01*
X29330Y-11220D01*
X29330Y-12146D01*
X28957Y-12519D01*
X28745Y-12519D01*
X28755Y-12515D01*
X28794Y-12476D01*
X28815Y-12426D01*
X28815Y-12371D01*
X28815Y-12121D01*
X28794Y-12070D01*
X28755Y-12031D01*
X28735Y-12023D01*
X28755Y-12015D01*
X28794Y-11976D01*
X28815Y-11926D01*
X28815Y-11871D01*
X28815Y-11621D01*
X28794Y-11570D01*
X28755Y-11531D01*
X28735Y-11523D01*
X28755Y-11515D01*
X28794Y-11476D01*
X28815Y-11426D01*
X28815Y-11371D01*
X28815Y-11121D01*
X28794Y-11070D01*
X28755Y-11031D01*
X28735Y-11023D01*
X28755Y-11015D01*
X28794Y-10976D01*
X28815Y-10926D01*
X28815Y-10871D01*
X28815Y-10621D01*
X28794Y-10570D01*
X28755Y-10531D01*
X28735Y-10523D01*
X28755Y-10515D01*
X28794Y-10476D01*
X28815Y-10426D01*
X28815Y-10371D01*
X28815Y-10121D01*
X28794Y-10070D01*
X28755Y-10031D01*
X28735Y-10023D01*
X28755Y-10015D01*
X28794Y-9976D01*
X28815Y-9926D01*
X28815Y-9871D01*
X28815Y-9621D01*
X28794Y-9570D01*
X28755Y-9531D01*
X28735Y-9523D01*
X28755Y-9515D01*
X28794Y-9476D01*
X28805Y-9450D01*
X28821Y-9450D01*
X28829Y-9468D01*
X28917Y-9556D01*
X29031Y-9604D01*
X29156Y-9604D01*
X29271Y-9556D01*
X29359Y-9468D01*
X29407Y-9353D01*
X29407Y-9229D01*
X29359Y-9114D01*
X29271Y-9026D01*
X29156Y-8978D01*
X29032Y-8978D01*
X28917Y-9026D01*
X28846Y-9096D01*
X28805Y-9096D01*
X28794Y-9070D01*
X28755Y-9031D01*
X28704Y-9010D01*
X28650Y-9010D01*
X28150Y-9010D01*
X28099Y-9031D01*
X28060Y-9070D01*
X28039Y-9121D01*
X28039Y-9176D01*
X28039Y-9426D01*
X28060Y-9476D01*
X28099Y-9515D01*
X28119Y-9523D01*
X28099Y-9531D01*
X28060Y-9570D01*
X28050Y-9596D01*
X27736Y-9596D01*
X27736Y-6823D01*
X27655Y-6628D01*
X27506Y-6478D01*
X27310Y-6397D01*
X27099Y-6397D01*
X26904Y-6478D01*
X26754Y-6627D01*
X26735Y-6673D01*
X26623Y-6562D01*
X26464Y-6496D01*
X26292Y-6495D01*
X26132Y-6561D01*
X26011Y-6683D01*
X25984Y-6747D01*
X25957Y-6684D01*
X25836Y-6562D01*
X25677Y-6496D01*
X25504Y-6495D01*
X25345Y-6561D01*
X25223Y-6683D01*
X25196Y-6747D01*
X25170Y-6684D01*
X25048Y-6562D01*
X24889Y-6496D01*
X24717Y-6495D01*
X24558Y-6561D01*
X24445Y-6673D01*
X24427Y-6628D01*
X24277Y-6478D01*
X24082Y-6397D01*
X23871Y-6397D01*
X23675Y-6478D01*
X23526Y-6627D01*
X23444Y-6822D01*
X23444Y-7034D01*
X23525Y-7229D01*
X23674Y-7379D01*
X23870Y-7460D01*
X24081Y-7460D01*
X24277Y-7379D01*
X24426Y-7230D01*
X24445Y-7184D01*
X24557Y-7296D01*
X24625Y-7324D01*
X24625Y-7367D01*
X24336Y-7657D01*
X23622Y-7657D01*
X23554Y-7670D01*
X23496Y-7709D01*
X22851Y-8354D01*
X22841Y-8339D01*
X22093Y-7591D01*
X22036Y-7552D01*
X21968Y-7539D01*
X21175Y-7539D01*
X21043Y-7406D01*
X21043Y-7324D01*
X21111Y-7296D01*
X21223Y-7184D01*
X21242Y-7229D01*
X21391Y-7379D01*
X21586Y-7460D01*
X21798Y-7460D01*
X21993Y-7379D01*
X22143Y-7230D01*
X22224Y-7035D01*
X22224Y-6823D01*
X22143Y-6628D01*
X21994Y-6478D01*
X21799Y-6397D01*
X21587Y-6397D01*
X21392Y-6478D01*
X21242Y-6627D01*
X21223Y-6673D01*
X21111Y-6562D01*
X20952Y-6496D01*
X20780Y-6495D01*
X20621Y-6561D01*
X20499Y-6683D01*
X20472Y-6747D01*
X20446Y-6684D01*
X20324Y-6562D01*
X20165Y-6496D01*
X19992Y-6495D01*
X19833Y-6561D01*
X19711Y-6683D01*
X19685Y-6747D01*
X19658Y-6684D01*
X19536Y-6562D01*
X19377Y-6496D01*
X19205Y-6495D01*
X19046Y-6561D01*
X18934Y-6673D01*
X18915Y-6628D01*
X18766Y-6478D01*
X18570Y-6397D01*
X18359Y-6397D01*
X18163Y-6478D01*
X18014Y-6627D01*
X17933Y-6822D01*
X17932Y-7034D01*
X18013Y-7229D01*
X18163Y-7379D01*
X18358Y-7460D01*
X18569Y-7460D01*
X18765Y-7379D01*
X18914Y-7230D01*
X18934Y-7184D01*
X19045Y-7296D01*
X19114Y-7324D01*
X19127Y-7390D01*
X19166Y-7448D01*
X19835Y-8117D01*
X19892Y-8155D01*
X19892Y-8155D01*
X19960Y-8169D01*
X20167Y-8169D01*
X20089Y-8247D01*
X20041Y-8362D01*
X20041Y-8487D01*
X20089Y-8602D01*
X20118Y-8631D01*
X20118Y-8888D01*
X20089Y-8917D01*
X20041Y-9031D01*
X20041Y-9156D01*
X20089Y-9271D01*
X20176Y-9359D01*
X20291Y-9407D01*
X20416Y-9407D01*
X20531Y-9359D01*
X20619Y-9271D01*
X20632Y-9241D01*
X20632Y-9274D01*
X20679Y-9389D01*
X20767Y-9477D01*
X20882Y-9525D01*
X21006Y-9525D01*
X21121Y-9477D01*
X21209Y-9390D01*
X21257Y-9275D01*
X21257Y-9150D01*
X21210Y-9035D01*
X21122Y-8947D01*
X21122Y-8947D01*
X21122Y-8650D01*
X21209Y-8563D01*
X21257Y-8448D01*
X21257Y-8323D01*
X21210Y-8208D01*
X21170Y-8169D01*
X21658Y-8169D01*
X22342Y-8852D01*
X22342Y-9063D01*
X22341Y-9065D01*
X22341Y-9120D01*
X22341Y-9376D01*
X22362Y-9426D01*
X22369Y-9433D01*
X22346Y-9456D01*
X22322Y-9514D01*
X22322Y-9575D01*
X22361Y-9614D01*
X22509Y-9614D01*
X22509Y-9606D01*
X22550Y-9606D01*
X22558Y-9614D01*
X22568Y-9614D01*
X22706Y-9614D01*
X22715Y-9614D01*
X22723Y-9606D01*
X22747Y-9606D01*
X22755Y-9614D01*
X22765Y-9614D01*
X22903Y-9614D01*
X22912Y-9614D01*
X22920Y-9606D01*
X22944Y-9606D01*
X22952Y-9614D01*
X22962Y-9614D01*
X23100Y-9614D01*
X23109Y-9614D01*
X23117Y-9606D01*
X23159Y-9606D01*
X23159Y-9614D01*
X23306Y-9614D01*
X23346Y-9575D01*
X23346Y-9514D01*
X23322Y-9456D01*
X23298Y-9433D01*
X23305Y-9426D01*
X23326Y-9376D01*
X23326Y-9321D01*
X23326Y-9202D01*
X23326Y-9200D01*
X23326Y-8774D01*
X23656Y-8444D01*
X25551Y-8444D01*
X25618Y-8431D01*
X25618Y-8431D01*
X25676Y-8392D01*
X26503Y-7566D01*
X26541Y-7508D01*
X26555Y-7440D01*
X26555Y-7324D01*
X26622Y-7296D01*
X26735Y-7184D01*
X26753Y-7229D01*
X26903Y-7379D01*
X27098Y-7460D01*
X27309Y-7460D01*
X27505Y-7379D01*
X27655Y-7230D01*
X27736Y-7035D01*
X27736Y-6823D01*
X27736Y-9596D01*
X26801Y-9596D01*
X26733Y-9609D01*
X26675Y-9648D01*
X26331Y-9992D01*
X26293Y-10050D01*
X26279Y-10118D01*
X26279Y-11624D01*
X26191Y-11712D01*
X26163Y-11779D01*
X25787Y-11402D01*
X25787Y-10944D01*
X25773Y-10877D01*
X25773Y-10877D01*
X25735Y-10819D01*
X24800Y-9885D01*
X24801Y-9760D01*
X24753Y-9645D01*
X24665Y-9557D01*
X24550Y-9510D01*
X24426Y-9509D01*
X24311Y-9557D01*
X24223Y-9645D01*
X24175Y-9760D01*
X24175Y-9884D01*
X24222Y-9999D01*
X24310Y-10087D01*
X24425Y-10135D01*
X24550Y-10135D01*
X24550Y-10135D01*
X25433Y-11018D01*
X25433Y-11476D01*
X25446Y-11544D01*
X25472Y-11583D01*
X25374Y-11624D01*
X25286Y-11712D01*
X25238Y-11827D01*
X25238Y-11951D01*
X25285Y-12066D01*
X25373Y-12154D01*
X25488Y-12202D01*
X25613Y-12202D01*
X25613Y-12202D01*
X25893Y-12482D01*
X25804Y-12482D01*
X25689Y-12529D01*
X25601Y-12617D01*
X25553Y-12732D01*
X25553Y-12857D01*
X25600Y-12972D01*
X25688Y-13060D01*
X25688Y-13060D01*
X25688Y-15984D01*
X25702Y-16052D01*
X25740Y-16109D01*
X26829Y-17198D01*
X26858Y-17217D01*
X26858Y-17225D01*
X26879Y-17275D01*
X26914Y-17311D01*
X26907Y-17314D01*
X26862Y-17358D01*
X26838Y-17416D01*
X26838Y-17474D01*
X26878Y-17513D01*
X27187Y-17513D01*
X27187Y-17505D01*
X27305Y-17505D01*
X27305Y-17513D01*
X27614Y-17513D01*
X27653Y-17474D01*
X27653Y-17416D01*
X27629Y-17358D01*
X27585Y-17314D01*
X27578Y-17311D01*
X27613Y-17275D01*
X27634Y-17225D01*
X27634Y-17170D01*
X27634Y-16920D01*
X27613Y-16869D01*
X27574Y-16831D01*
X27554Y-16822D01*
X27574Y-16814D01*
X27613Y-16775D01*
X27634Y-16725D01*
X27634Y-16670D01*
X27634Y-16420D01*
X27613Y-16369D01*
X27574Y-16331D01*
X27554Y-16322D01*
X27574Y-16314D01*
X27613Y-16275D01*
X27634Y-16225D01*
X27634Y-16170D01*
X27634Y-15920D01*
X27613Y-15869D01*
X27574Y-15831D01*
X27554Y-15822D01*
X27574Y-15814D01*
X27613Y-15775D01*
X27634Y-15725D01*
X27634Y-15670D01*
X27634Y-15420D01*
X27613Y-15369D01*
X27574Y-15331D01*
X27523Y-15310D01*
X27469Y-15310D01*
X27455Y-15310D01*
X27509Y-15256D01*
X27556Y-15141D01*
X27556Y-15016D01*
X27509Y-14901D01*
X27421Y-14813D01*
X27421Y-14813D01*
X27421Y-14207D01*
X27553Y-14074D01*
X31973Y-14074D01*
X32128Y-14229D01*
X32186Y-14268D01*
X32186Y-14268D01*
X32253Y-14281D01*
X32380Y-14281D01*
X32391Y-14307D01*
X32430Y-14346D01*
X32449Y-14354D01*
X32430Y-14362D01*
X32391Y-14401D01*
X32380Y-14427D01*
X32009Y-14427D01*
X31942Y-14440D01*
X31884Y-14479D01*
X30467Y-15895D01*
X29823Y-15895D01*
X29813Y-15869D01*
X29778Y-15834D01*
X29785Y-15831D01*
X29829Y-15787D01*
X29853Y-15729D01*
X29853Y-15671D01*
X29853Y-15474D01*
X29853Y-15416D01*
X29829Y-15358D01*
X29785Y-15314D01*
X29727Y-15290D01*
X29665Y-15290D01*
X29544Y-15290D01*
X29505Y-15329D01*
X29505Y-15513D01*
X29814Y-15513D01*
X29853Y-15474D01*
X29853Y-15671D01*
X29814Y-15631D01*
X29505Y-15631D01*
X29505Y-15639D01*
X29387Y-15639D01*
X29387Y-15631D01*
X29387Y-15513D01*
X29387Y-15329D01*
X29348Y-15290D01*
X29227Y-15290D01*
X29165Y-15290D01*
X29107Y-15314D01*
X29062Y-15358D01*
X29038Y-15416D01*
X29038Y-15474D01*
X29078Y-15513D01*
X29387Y-15513D01*
X29387Y-15631D01*
X29078Y-15631D01*
X29038Y-15671D01*
X29038Y-15729D01*
X29062Y-15787D01*
X29107Y-15831D01*
X29114Y-15834D01*
X29079Y-15869D01*
X29068Y-15895D01*
X28887Y-15895D01*
X28819Y-15909D01*
X28762Y-15947D01*
X28181Y-16528D01*
X28143Y-16585D01*
X28129Y-16653D01*
X28129Y-17367D01*
X27877Y-17620D01*
X27792Y-17620D01*
X27677Y-17667D01*
X27653Y-17691D01*
X27653Y-17671D01*
X27614Y-17631D01*
X27305Y-17631D01*
X27305Y-17639D01*
X27187Y-17639D01*
X27187Y-17631D01*
X26878Y-17631D01*
X26838Y-17671D01*
X26838Y-17729D01*
X26862Y-17787D01*
X26907Y-17831D01*
X26914Y-17834D01*
X26879Y-17869D01*
X26858Y-17920D01*
X26858Y-17975D01*
X26858Y-18225D01*
X26879Y-18275D01*
X26918Y-18314D01*
X26938Y-18322D01*
X26918Y-18331D01*
X26879Y-18369D01*
X26858Y-18420D01*
X26858Y-18475D01*
X26858Y-18725D01*
X26879Y-18775D01*
X26918Y-18814D01*
X26938Y-18822D01*
X26918Y-18831D01*
X26912Y-18836D01*
X26257Y-18836D01*
X26257Y-18048D01*
X26210Y-17933D01*
X26122Y-17845D01*
X26007Y-17797D01*
X25882Y-17797D01*
X25882Y-17797D01*
X25799Y-17714D01*
X25865Y-17686D01*
X25953Y-17598D01*
X26001Y-17483D01*
X26001Y-17359D01*
X25954Y-17244D01*
X25866Y-17156D01*
X25751Y-17108D01*
X25627Y-17108D01*
X25626Y-17108D01*
X25489Y-16971D01*
X25490Y-16847D01*
X25442Y-16732D01*
X25354Y-16644D01*
X25239Y-16596D01*
X25115Y-16596D01*
X25000Y-16644D01*
X24912Y-16732D01*
X24884Y-16799D01*
X24190Y-16105D01*
X24190Y-15981D01*
X24143Y-15866D01*
X24055Y-15778D01*
X23940Y-15730D01*
X23816Y-15730D01*
X23701Y-15777D01*
X23612Y-15865D01*
X23565Y-15980D01*
X23565Y-16105D01*
X23612Y-16220D01*
X23700Y-16308D01*
X23815Y-16356D01*
X23939Y-16356D01*
X23940Y-16356D01*
X24605Y-17021D01*
X24530Y-16990D01*
X24406Y-16990D01*
X24291Y-17037D01*
X24203Y-17125D01*
X24155Y-17240D01*
X24155Y-17365D01*
X24203Y-17480D01*
X24291Y-17568D01*
X24291Y-17568D01*
X24291Y-17952D01*
X24304Y-18020D01*
X24343Y-18078D01*
X24451Y-18185D01*
X24450Y-18309D01*
X24498Y-18424D01*
X24586Y-18513D01*
X24701Y-18560D01*
X24825Y-18560D01*
X24940Y-18513D01*
X25028Y-18425D01*
X25076Y-18310D01*
X25076Y-18186D01*
X25029Y-18071D01*
X24941Y-17983D01*
X24826Y-17935D01*
X24701Y-17935D01*
X24701Y-17935D01*
X24645Y-17879D01*
X24645Y-17568D01*
X24733Y-17480D01*
X24781Y-17365D01*
X24781Y-17241D01*
X24750Y-17166D01*
X25632Y-18048D01*
X25632Y-18172D01*
X25679Y-18287D01*
X25767Y-18375D01*
X25882Y-18422D01*
X26006Y-18423D01*
X26121Y-18375D01*
X26209Y-18287D01*
X26257Y-18172D01*
X26257Y-18048D01*
X26257Y-18836D01*
X24942Y-18836D01*
X24852Y-18854D01*
X24775Y-18905D01*
X24368Y-19313D01*
X24347Y-19313D01*
X24232Y-19360D01*
X24144Y-19448D01*
X24114Y-19521D01*
X24114Y-17007D01*
X24100Y-16940D01*
X24100Y-16940D01*
X24062Y-16882D01*
X23668Y-16488D01*
X23611Y-16450D01*
X23543Y-16437D01*
X23416Y-16437D01*
X23416Y-16339D01*
X23395Y-16288D01*
X23356Y-16249D01*
X23305Y-16228D01*
X23251Y-16228D01*
X23001Y-16228D01*
X22950Y-16249D01*
X22911Y-16288D01*
X22903Y-16308D01*
X22895Y-16288D01*
X22856Y-16249D01*
X22805Y-16228D01*
X22751Y-16228D01*
X22501Y-16228D01*
X22450Y-16249D01*
X22411Y-16288D01*
X22403Y-16308D01*
X22395Y-16288D01*
X22356Y-16249D01*
X22330Y-16238D01*
X22330Y-16187D01*
X23432Y-15085D01*
X23470Y-15028D01*
X23470Y-15028D01*
X23477Y-14996D01*
X23494Y-15039D01*
X23582Y-15127D01*
X23697Y-15174D01*
X23821Y-15175D01*
X23936Y-15127D01*
X24024Y-15039D01*
X24072Y-14924D01*
X24072Y-14800D01*
X24072Y-14800D01*
X24248Y-14623D01*
X24372Y-14623D01*
X24487Y-14576D01*
X24576Y-14488D01*
X24623Y-14373D01*
X24623Y-14249D01*
X24576Y-14134D01*
X24488Y-14046D01*
X24373Y-13998D01*
X24249Y-13998D01*
X24134Y-14045D01*
X24046Y-14133D01*
X23998Y-14248D01*
X23998Y-14372D01*
X23998Y-14373D01*
X23822Y-14549D01*
X23697Y-14549D01*
X23651Y-14568D01*
X23659Y-14550D01*
X23659Y-14426D01*
X23611Y-14311D01*
X23523Y-14223D01*
X23408Y-14175D01*
X23284Y-14175D01*
X23169Y-14222D01*
X23081Y-14310D01*
X23033Y-14425D01*
X23033Y-14550D01*
X23081Y-14665D01*
X23129Y-14714D01*
X23129Y-14887D01*
X22028Y-15988D01*
X21989Y-16046D01*
X21976Y-16114D01*
X21976Y-16238D01*
X21950Y-16249D01*
X21911Y-16288D01*
X21903Y-16308D01*
X21895Y-16288D01*
X21856Y-16249D01*
X21805Y-16228D01*
X21751Y-16228D01*
X21501Y-16228D01*
X21450Y-16249D01*
X21411Y-16288D01*
X21403Y-16308D01*
X21395Y-16288D01*
X21356Y-16249D01*
X21330Y-16238D01*
X21330Y-16085D01*
X21866Y-15548D01*
X21991Y-15549D01*
X22106Y-15501D01*
X22194Y-15413D01*
X22241Y-15298D01*
X22241Y-15174D01*
X22194Y-15059D01*
X22106Y-14971D01*
X21991Y-14923D01*
X21867Y-14923D01*
X21752Y-14970D01*
X21664Y-15058D01*
X21616Y-15173D01*
X21616Y-15298D01*
X21616Y-15298D01*
X21028Y-15886D01*
X20989Y-15944D01*
X20976Y-16011D01*
X20976Y-16238D01*
X20950Y-16249D01*
X20911Y-16288D01*
X20903Y-16308D01*
X20895Y-16288D01*
X20856Y-16249D01*
X20830Y-16238D01*
X20830Y-15246D01*
X21936Y-14141D01*
X21974Y-14083D01*
X21974Y-14083D01*
X21988Y-14015D01*
X21988Y-13572D01*
X22076Y-13484D01*
X22123Y-13369D01*
X22123Y-13245D01*
X22076Y-13130D01*
X21988Y-13042D01*
X21873Y-12994D01*
X21749Y-12994D01*
X21634Y-13041D01*
X21546Y-13129D01*
X21498Y-13244D01*
X21498Y-13369D01*
X21545Y-13484D01*
X21633Y-13572D01*
X21633Y-13572D01*
X21633Y-13632D01*
X21555Y-13553D01*
X21440Y-13506D01*
X21316Y-13506D01*
X21201Y-13553D01*
X21112Y-13641D01*
X21112Y-13641D01*
X20619Y-13641D01*
X20531Y-13553D01*
X20416Y-13506D01*
X20292Y-13506D01*
X20177Y-13553D01*
X20089Y-13641D01*
X20041Y-13756D01*
X20041Y-13880D01*
X20089Y-13995D01*
X20176Y-14083D01*
X20291Y-14131D01*
X20416Y-14131D01*
X20531Y-14084D01*
X20619Y-13996D01*
X20619Y-13996D01*
X21112Y-13996D01*
X21200Y-14083D01*
X21315Y-14131D01*
X21439Y-14131D01*
X21447Y-14128D01*
X20528Y-15047D01*
X20489Y-15105D01*
X20476Y-15173D01*
X20476Y-16238D01*
X20450Y-16249D01*
X20415Y-16284D01*
X20412Y-16277D01*
X20367Y-16233D01*
X20309Y-16209D01*
X20251Y-16209D01*
X20212Y-16248D01*
X20212Y-16557D01*
X20220Y-16557D01*
X20220Y-16675D01*
X20212Y-16675D01*
X20212Y-16683D01*
X20094Y-16683D01*
X20094Y-16675D01*
X20094Y-16557D01*
X20094Y-16248D01*
X20055Y-16209D01*
X19997Y-16209D01*
X19939Y-16233D01*
X19895Y-16277D01*
X19871Y-16335D01*
X19871Y-16397D01*
X19871Y-16518D01*
X19910Y-16557D01*
X20094Y-16557D01*
X20094Y-16675D01*
X19910Y-16675D01*
X19871Y-16714D01*
X19871Y-16835D01*
X19871Y-16897D01*
X19875Y-16909D01*
X19719Y-16909D01*
X18394Y-15585D01*
X18337Y-15546D01*
X18269Y-15533D01*
X16674Y-15533D01*
X16663Y-15507D01*
X16624Y-15468D01*
X16605Y-15460D01*
X16624Y-15452D01*
X16663Y-15413D01*
X16674Y-15387D01*
X17271Y-15387D01*
X17274Y-15393D01*
X17361Y-15481D01*
X17476Y-15529D01*
X17601Y-15529D01*
X17716Y-15481D01*
X17804Y-15393D01*
X17852Y-15279D01*
X17852Y-15154D01*
X17804Y-15039D01*
X17716Y-14951D01*
X17601Y-14903D01*
X17477Y-14903D01*
X17362Y-14951D01*
X17280Y-15033D01*
X16674Y-15033D01*
X16663Y-15007D01*
X16624Y-14968D01*
X16605Y-14960D01*
X16624Y-14952D01*
X16663Y-14913D01*
X16684Y-14863D01*
X16684Y-14808D01*
X16684Y-14558D01*
X16663Y-14507D01*
X16624Y-14468D01*
X16605Y-14460D01*
X16624Y-14452D01*
X16663Y-14413D01*
X16684Y-14363D01*
X16684Y-14308D01*
X16684Y-14058D01*
X16663Y-14007D01*
X16624Y-13968D01*
X16605Y-13960D01*
X16624Y-13952D01*
X16663Y-13913D01*
X16674Y-13887D01*
X16890Y-13887D01*
X16968Y-13965D01*
X17083Y-14013D01*
X17207Y-14013D01*
X17322Y-13966D01*
X17410Y-13878D01*
X17458Y-13763D01*
X17458Y-13653D01*
X18092Y-14288D01*
X18092Y-14412D01*
X18140Y-14527D01*
X18228Y-14615D01*
X18343Y-14663D01*
X18467Y-14663D01*
X18582Y-14615D01*
X18670Y-14527D01*
X18718Y-14412D01*
X18718Y-14288D01*
X18670Y-14173D01*
X18582Y-14085D01*
X18468Y-14037D01*
X18343Y-14037D01*
X18343Y-14037D01*
X17263Y-12958D01*
X17263Y-12775D01*
X17250Y-12707D01*
X17250Y-12707D01*
X17211Y-12650D01*
X17025Y-12463D01*
X17025Y-12339D01*
X16977Y-12224D01*
X16890Y-12136D01*
X16775Y-12088D01*
X16650Y-12088D01*
X16535Y-12136D01*
X16535Y-12136D01*
X16535Y-10875D01*
X16564Y-10846D01*
X16611Y-10731D01*
X16612Y-10607D01*
X16564Y-10492D01*
X16535Y-10463D01*
X16535Y-9714D01*
X16544Y-9704D01*
X16592Y-9590D01*
X16592Y-9465D01*
X16544Y-9350D01*
X16456Y-9262D01*
X16342Y-9214D01*
X16217Y-9214D01*
X16102Y-9262D01*
X16014Y-9350D01*
X15966Y-9465D01*
X15966Y-9589D01*
X16014Y-9704D01*
X16062Y-9753D01*
X16062Y-10463D01*
X16034Y-10491D01*
X15986Y-10606D01*
X15986Y-10731D01*
X16033Y-10846D01*
X16062Y-10875D01*
X16062Y-12947D01*
X16019Y-12947D01*
X15968Y-12968D01*
X15930Y-13007D01*
X15909Y-13058D01*
X15909Y-13113D01*
X15909Y-13363D01*
X15930Y-13413D01*
X15968Y-13452D01*
X15988Y-13460D01*
X15968Y-13468D01*
X15930Y-13507D01*
X15909Y-13558D01*
X15909Y-13613D01*
X15909Y-13863D01*
X15930Y-13913D01*
X15968Y-13952D01*
X15988Y-13960D01*
X15968Y-13968D01*
X15967Y-13970D01*
X15945Y-13947D01*
X15830Y-13899D01*
X15705Y-13899D01*
X15667Y-13915D01*
X15667Y-11473D01*
X15619Y-11358D01*
X15531Y-11270D01*
X15531Y-11270D01*
X15531Y-10324D01*
X15599Y-10256D01*
X15647Y-10141D01*
X15647Y-10016D01*
X15599Y-9901D01*
X15512Y-9813D01*
X15397Y-9765D01*
X15272Y-9765D01*
X15157Y-9813D01*
X15069Y-9901D01*
X15058Y-9928D01*
X15058Y-7874D01*
X14998Y-7572D01*
X14827Y-7317D01*
X14572Y-7146D01*
X14270Y-7086D01*
X13878Y-7086D01*
X13577Y-7146D01*
X13321Y-7317D01*
X13151Y-7572D01*
X13091Y-7874D01*
X13151Y-8175D01*
X13321Y-8430D01*
X13577Y-8601D01*
X13878Y-8661D01*
X14270Y-8661D01*
X14572Y-8601D01*
X14827Y-8430D01*
X14998Y-8175D01*
X15058Y-7874D01*
X15058Y-9928D01*
X15021Y-10016D01*
X15021Y-10140D01*
X15069Y-10255D01*
X15157Y-10343D01*
X15177Y-10352D01*
X15177Y-11270D01*
X15089Y-11358D01*
X15041Y-11472D01*
X15041Y-11597D01*
X15089Y-11712D01*
X15176Y-11800D01*
X15291Y-11848D01*
X15416Y-11848D01*
X15531Y-11800D01*
X15619Y-11712D01*
X15667Y-11597D01*
X15667Y-11473D01*
X15667Y-13915D01*
X15590Y-13947D01*
X15502Y-14035D01*
X15454Y-14150D01*
X15454Y-14274D01*
X15502Y-14389D01*
X15590Y-14477D01*
X15705Y-14525D01*
X15829Y-14525D01*
X15944Y-14477D01*
X15969Y-14452D01*
X15988Y-14460D01*
X15968Y-14468D01*
X15930Y-14507D01*
X15913Y-14547D01*
X15807Y-14547D01*
X15739Y-14560D01*
X15681Y-14599D01*
X15652Y-14628D01*
X15528Y-14628D01*
X15413Y-14675D01*
X15325Y-14763D01*
X15277Y-14878D01*
X15277Y-15002D01*
X15325Y-15117D01*
X15413Y-15205D01*
X15466Y-15228D01*
X15017Y-15676D01*
X15017Y-15666D01*
X14970Y-15551D01*
X14882Y-15463D01*
X14767Y-15415D01*
X14642Y-15415D01*
X14527Y-15463D01*
X14469Y-15521D01*
X14463Y-15507D01*
X14424Y-15468D01*
X14405Y-15460D01*
X14424Y-15452D01*
X14463Y-15413D01*
X14484Y-15363D01*
X14484Y-15308D01*
X14484Y-15058D01*
X14463Y-15007D01*
X14424Y-14968D01*
X14405Y-14960D01*
X14424Y-14952D01*
X14463Y-14913D01*
X14478Y-14876D01*
X14491Y-14874D01*
X14491Y-14874D01*
X14548Y-14835D01*
X15400Y-13983D01*
X15439Y-13926D01*
X15452Y-13858D01*
X15452Y-13532D01*
X15540Y-13445D01*
X15588Y-13330D01*
X15588Y-13205D01*
X15540Y-13090D01*
X15453Y-13002D01*
X15338Y-12954D01*
X15213Y-12954D01*
X15098Y-13002D01*
X15010Y-13090D01*
X14962Y-13205D01*
X14962Y-13329D01*
X15010Y-13444D01*
X15098Y-13532D01*
X15098Y-13532D01*
X15098Y-13784D01*
X14417Y-14465D01*
X14405Y-14460D01*
X14424Y-14452D01*
X14463Y-14413D01*
X14484Y-14363D01*
X14484Y-14308D01*
X14484Y-14058D01*
X14463Y-14007D01*
X14424Y-13968D01*
X14405Y-13960D01*
X14424Y-13952D01*
X14463Y-13913D01*
X14484Y-13863D01*
X14484Y-13808D01*
X14484Y-13558D01*
X14463Y-13507D01*
X14424Y-13468D01*
X14405Y-13460D01*
X14424Y-13452D01*
X14463Y-13413D01*
X14484Y-13363D01*
X14484Y-13308D01*
X14484Y-13058D01*
X14463Y-13007D01*
X14424Y-12968D01*
X14374Y-12947D01*
X14319Y-12947D01*
X14274Y-12947D01*
X14274Y-12885D01*
X14581Y-12578D01*
X14715Y-12578D01*
X14802Y-12666D01*
X14917Y-12714D01*
X15042Y-12714D01*
X15157Y-12666D01*
X15245Y-12578D01*
X15293Y-12464D01*
X15293Y-12339D01*
X15245Y-12224D01*
X15157Y-12136D01*
X15042Y-12088D01*
X14918Y-12088D01*
X14803Y-12136D01*
X14715Y-12224D01*
X14715Y-12224D01*
X14507Y-12224D01*
X14440Y-12237D01*
X14382Y-12276D01*
X13971Y-12687D01*
X13933Y-12744D01*
X13919Y-12812D01*
X13919Y-12947D01*
X13819Y-12947D01*
X13818Y-12948D01*
X13818Y-12431D01*
X13818Y-12323D01*
X13818Y-12126D01*
X13818Y-12019D01*
X13794Y-11961D01*
X13750Y-11916D01*
X13692Y-11892D01*
X13629Y-11892D01*
X13484Y-11892D01*
X13444Y-11932D01*
X13444Y-12166D01*
X13778Y-12166D01*
X13818Y-12126D01*
X13818Y-12323D01*
X13778Y-12284D01*
X13444Y-12284D01*
X13444Y-12518D01*
X13484Y-12557D01*
X13629Y-12557D01*
X13692Y-12557D01*
X13750Y-12533D01*
X13794Y-12489D01*
X13818Y-12431D01*
X13818Y-12948D01*
X13768Y-12968D01*
X13730Y-13007D01*
X13709Y-13058D01*
X13709Y-13113D01*
X13709Y-13363D01*
X13730Y-13413D01*
X13768Y-13452D01*
X13788Y-13460D01*
X13768Y-13468D01*
X13730Y-13507D01*
X13723Y-13523D01*
X13582Y-13523D01*
X13514Y-13537D01*
X13457Y-13575D01*
X13326Y-13706D01*
X13326Y-12518D01*
X13326Y-12284D01*
X13326Y-12166D01*
X13326Y-11932D01*
X13287Y-11892D01*
X13142Y-11892D01*
X13079Y-11892D01*
X13021Y-11916D01*
X12977Y-11961D01*
X12953Y-12019D01*
X12953Y-12126D01*
X12992Y-12166D01*
X13326Y-12166D01*
X13326Y-12284D01*
X12992Y-12284D01*
X12953Y-12323D01*
X12953Y-12431D01*
X12977Y-12489D01*
X13021Y-12533D01*
X13079Y-12557D01*
X13142Y-12557D01*
X13287Y-12557D01*
X13326Y-12518D01*
X13326Y-13706D01*
X13103Y-13929D01*
X13064Y-13987D01*
X13051Y-14055D01*
X13051Y-14881D01*
X13064Y-14949D01*
X13103Y-15007D01*
X13418Y-15322D01*
X13475Y-15360D01*
X13475Y-15360D01*
X13543Y-15374D01*
X13713Y-15374D01*
X13730Y-15413D01*
X13768Y-15452D01*
X13788Y-15460D01*
X13768Y-15468D01*
X13730Y-15507D01*
X13709Y-15558D01*
X13709Y-15613D01*
X13709Y-15863D01*
X13730Y-15913D01*
X13768Y-15952D01*
X13788Y-15960D01*
X13768Y-15968D01*
X13730Y-16007D01*
X13709Y-16058D01*
X13709Y-16113D01*
X13709Y-16363D01*
X13730Y-16413D01*
X13765Y-16448D01*
X13757Y-16452D01*
X13713Y-16496D01*
X13689Y-16554D01*
X13689Y-16612D01*
X13728Y-16651D01*
X14037Y-16651D01*
X14037Y-16643D01*
X14155Y-16643D01*
X14155Y-16651D01*
X14464Y-16651D01*
X14504Y-16612D01*
X14504Y-16554D01*
X14480Y-16496D01*
X14436Y-16452D01*
X14428Y-16448D01*
X14463Y-16413D01*
X14470Y-16397D01*
X14724Y-16397D01*
X14792Y-16384D01*
X14792Y-16384D01*
X14849Y-16345D01*
X15280Y-15915D01*
X15325Y-16023D01*
X15413Y-16111D01*
X15528Y-16159D01*
X15652Y-16159D01*
X15652Y-16159D01*
X15839Y-16345D01*
X15896Y-16384D01*
X15896Y-16384D01*
X15919Y-16388D01*
X15919Y-16388D01*
X15930Y-16413D01*
X15968Y-16452D01*
X15988Y-16460D01*
X15968Y-16468D01*
X15930Y-16507D01*
X15909Y-16558D01*
X15909Y-16613D01*
X15909Y-16863D01*
X15930Y-16913D01*
X15968Y-16952D01*
X16019Y-16973D01*
X16074Y-16973D01*
X16309Y-16973D01*
X16424Y-17088D01*
X16316Y-17088D01*
X16201Y-17136D01*
X16112Y-17224D01*
X16112Y-17224D01*
X14792Y-17224D01*
X14704Y-17136D01*
X14590Y-17088D01*
X14504Y-17088D01*
X14504Y-16866D01*
X14504Y-16809D01*
X14464Y-16769D01*
X14155Y-16769D01*
X14155Y-16953D01*
X14195Y-16993D01*
X14315Y-16993D01*
X14378Y-16993D01*
X14436Y-16969D01*
X14480Y-16924D01*
X14504Y-16866D01*
X14504Y-17088D01*
X14465Y-17088D01*
X14350Y-17136D01*
X14262Y-17224D01*
X14214Y-17339D01*
X14214Y-17463D01*
X14262Y-17578D01*
X14350Y-17666D01*
X14465Y-17714D01*
X14589Y-17714D01*
X14704Y-17666D01*
X14792Y-17578D01*
X14792Y-17578D01*
X15699Y-17578D01*
X15679Y-17598D01*
X15632Y-17713D01*
X15632Y-17837D01*
X15679Y-17952D01*
X15767Y-18040D01*
X15882Y-18088D01*
X16006Y-18088D01*
X16007Y-18088D01*
X16835Y-18916D01*
X16794Y-18899D01*
X16670Y-18899D01*
X16555Y-18947D01*
X16467Y-19035D01*
X16419Y-19150D01*
X16419Y-19196D01*
X16009Y-19606D01*
X15076Y-19606D01*
X15115Y-19511D01*
X15115Y-19386D01*
X15076Y-19291D01*
X15108Y-19291D01*
X15196Y-19379D01*
X15311Y-19426D01*
X15435Y-19427D01*
X15550Y-19379D01*
X15639Y-19291D01*
X15686Y-19176D01*
X15686Y-19052D01*
X15639Y-18937D01*
X15551Y-18849D01*
X15436Y-18801D01*
X15312Y-18801D01*
X15197Y-18848D01*
X15108Y-18936D01*
X15108Y-18937D01*
X14037Y-18937D01*
X14037Y-16953D01*
X14037Y-16769D01*
X13728Y-16769D01*
X13689Y-16809D01*
X13689Y-16866D01*
X13713Y-16924D01*
X13757Y-16969D01*
X13815Y-16993D01*
X13878Y-16993D01*
X13998Y-16993D01*
X14037Y-16953D01*
X14037Y-18937D01*
X13622Y-18937D01*
X11963Y-18937D01*
X11356Y-18329D01*
X11356Y-18205D01*
X11350Y-18190D01*
X11350Y-12323D01*
X11350Y-12265D01*
X11310Y-12226D01*
X11001Y-12226D01*
X11001Y-12410D01*
X11040Y-12449D01*
X11161Y-12449D01*
X11223Y-12449D01*
X11281Y-12425D01*
X11326Y-12381D01*
X11350Y-12323D01*
X11350Y-18190D01*
X11308Y-18090D01*
X11220Y-18002D01*
X11105Y-17954D01*
X10981Y-17954D01*
X10883Y-17995D01*
X10883Y-12410D01*
X10883Y-12226D01*
X10574Y-12226D01*
X10535Y-12265D01*
X10535Y-12323D01*
X10559Y-12381D01*
X10603Y-12425D01*
X10661Y-12449D01*
X10723Y-12449D01*
X10844Y-12449D01*
X10883Y-12410D01*
X10883Y-17995D01*
X10866Y-18002D01*
X10778Y-18090D01*
X10730Y-18205D01*
X10730Y-18329D01*
X10777Y-18444D01*
X10865Y-18532D01*
X10980Y-18580D01*
X11105Y-18580D01*
X11105Y-18580D01*
X11764Y-19239D01*
X11821Y-19277D01*
X11821Y-19277D01*
X11889Y-19291D01*
X12128Y-19291D01*
X12088Y-19386D01*
X12088Y-19510D01*
X12128Y-19606D01*
X9310Y-19606D01*
X7519Y-17628D01*
X7519Y-15295D01*
X7506Y-15227D01*
X7467Y-15170D01*
X5531Y-13233D01*
X5531Y-9994D01*
X6648Y-8877D01*
X7244Y-8877D01*
X7311Y-8864D01*
X7311Y-8864D01*
X7369Y-8826D01*
X8078Y-8117D01*
X8116Y-8059D01*
X8129Y-7992D01*
X8129Y-7632D01*
X10112Y-5649D01*
X11929Y-5649D01*
X11861Y-5663D01*
X11803Y-5701D01*
X11410Y-6094D01*
X11287Y-6043D01*
X11075Y-6043D01*
X10880Y-6123D01*
X10730Y-6273D01*
X10688Y-6374D01*
X10647Y-6274D01*
X10498Y-6124D01*
X10303Y-6043D01*
X10091Y-6043D01*
X9896Y-6123D01*
X9746Y-6273D01*
X9665Y-6468D01*
X9665Y-6680D01*
X9746Y-6875D01*
X9895Y-7025D01*
X10090Y-7106D01*
X10302Y-7106D01*
X10497Y-7025D01*
X10647Y-6876D01*
X10688Y-6775D01*
X10730Y-6875D01*
X10879Y-7025D01*
X11003Y-7076D01*
X11003Y-8371D01*
X10255Y-9120D01*
X10255Y-7874D01*
X10195Y-7572D01*
X10024Y-7317D01*
X9769Y-7146D01*
X9467Y-7086D01*
X9075Y-7086D01*
X8774Y-7146D01*
X8518Y-7317D01*
X8348Y-7572D01*
X8288Y-7874D01*
X8348Y-8175D01*
X8518Y-8430D01*
X8774Y-8601D01*
X9075Y-8661D01*
X9467Y-8661D01*
X9769Y-8601D01*
X10024Y-8430D01*
X10195Y-8175D01*
X10255Y-7874D01*
X10255Y-9120D01*
X9387Y-9987D01*
X9387Y-9288D01*
X9340Y-9173D01*
X9252Y-9085D01*
X9137Y-9037D01*
X9012Y-9037D01*
X8897Y-9085D01*
X8809Y-9172D01*
X8809Y-9173D01*
X6633Y-9173D01*
X6566Y-9186D01*
X6508Y-9225D01*
X5701Y-10032D01*
X5663Y-10089D01*
X5649Y-10157D01*
X5649Y-13070D01*
X5663Y-13138D01*
X5701Y-13196D01*
X7736Y-15230D01*
X7736Y-16959D01*
X7648Y-17046D01*
X7600Y-17161D01*
X7600Y-17286D01*
X7648Y-17401D01*
X7735Y-17489D01*
X7850Y-17537D01*
X7975Y-17537D01*
X8090Y-17489D01*
X8178Y-17401D01*
X8226Y-17286D01*
X8226Y-17162D01*
X8178Y-17047D01*
X8090Y-16959D01*
X8090Y-16959D01*
X8090Y-15157D01*
X8077Y-15089D01*
X8077Y-15089D01*
X8038Y-15032D01*
X6650Y-13643D01*
X6650Y-12511D01*
X6650Y-12448D01*
X6650Y-12303D01*
X6650Y-12106D01*
X6650Y-11961D01*
X6650Y-11898D01*
X6626Y-11840D01*
X6582Y-11796D01*
X6524Y-11772D01*
X6416Y-11772D01*
X6376Y-11811D01*
X6376Y-12145D01*
X6611Y-12145D01*
X6650Y-12106D01*
X6650Y-12303D01*
X6611Y-12263D01*
X6376Y-12263D01*
X6376Y-12597D01*
X6416Y-12637D01*
X6524Y-12637D01*
X6582Y-12613D01*
X6626Y-12568D01*
X6650Y-12511D01*
X6650Y-13643D01*
X6003Y-12997D01*
X6003Y-12555D01*
X6009Y-12568D01*
X6053Y-12613D01*
X6111Y-12637D01*
X6219Y-12637D01*
X6258Y-12597D01*
X6258Y-12263D01*
X6250Y-12263D01*
X6250Y-12145D01*
X6258Y-12145D01*
X6258Y-11811D01*
X6219Y-11772D01*
X6111Y-11772D01*
X6053Y-11796D01*
X6009Y-11840D01*
X6003Y-11853D01*
X6003Y-10230D01*
X6707Y-9527D01*
X8809Y-9527D01*
X8897Y-9615D01*
X9012Y-9663D01*
X9136Y-9663D01*
X9251Y-9615D01*
X9339Y-9527D01*
X9387Y-9412D01*
X9387Y-9288D01*
X9387Y-9987D01*
X9353Y-10022D01*
X9314Y-10079D01*
X9301Y-10147D01*
X9301Y-10639D01*
X9314Y-10707D01*
X9353Y-10765D01*
X9591Y-11003D01*
X9125Y-11003D01*
X9109Y-10964D01*
X9070Y-10925D01*
X9050Y-10917D01*
X9070Y-10909D01*
X9109Y-10870D01*
X9130Y-10819D01*
X9130Y-10764D01*
X9130Y-10514D01*
X9109Y-10464D01*
X9070Y-10425D01*
X9019Y-10404D01*
X8965Y-10404D01*
X8465Y-10404D01*
X8414Y-10425D01*
X8375Y-10464D01*
X8354Y-10514D01*
X8354Y-10569D01*
X8354Y-10819D01*
X8375Y-10870D01*
X8414Y-10909D01*
X8434Y-10917D01*
X8414Y-10925D01*
X8375Y-10964D01*
X8354Y-11014D01*
X8354Y-11069D01*
X8354Y-11319D01*
X8375Y-11370D01*
X8414Y-11409D01*
X8434Y-11417D01*
X8414Y-11425D01*
X8375Y-11464D01*
X8354Y-11514D01*
X8354Y-11569D01*
X8354Y-11819D01*
X8375Y-11870D01*
X8414Y-11909D01*
X8434Y-11917D01*
X8414Y-11925D01*
X8408Y-11931D01*
X7380Y-11931D01*
X7380Y-11902D01*
X7359Y-11851D01*
X7320Y-11812D01*
X7270Y-11791D01*
X7215Y-11791D01*
X6865Y-11791D01*
X6814Y-11812D01*
X6776Y-11851D01*
X6755Y-11902D01*
X6755Y-11957D01*
X6755Y-12507D01*
X6776Y-12557D01*
X6814Y-12596D01*
X6865Y-12617D01*
X6920Y-12617D01*
X7270Y-12617D01*
X7320Y-12596D01*
X7359Y-12557D01*
X7380Y-12507D01*
X7380Y-12452D01*
X7380Y-12403D01*
X8408Y-12403D01*
X8414Y-12409D01*
X8465Y-12430D01*
X8519Y-12430D01*
X9019Y-12430D01*
X9070Y-12409D01*
X9078Y-12401D01*
X9330Y-12401D01*
X9421Y-12383D01*
X9497Y-12332D01*
X9773Y-12056D01*
X9824Y-11980D01*
X9824Y-11980D01*
X9842Y-11889D01*
X9842Y-11780D01*
X9871Y-11752D01*
X9910Y-11657D01*
X9992Y-11739D01*
X10050Y-11777D01*
X10050Y-11777D01*
X10118Y-11791D01*
X10554Y-11791D01*
X10554Y-11819D01*
X10575Y-11870D01*
X10610Y-11905D01*
X10603Y-11908D01*
X10559Y-11953D01*
X10535Y-12010D01*
X10535Y-12068D01*
X10574Y-12108D01*
X10883Y-12108D01*
X10883Y-12100D01*
X11001Y-12100D01*
X11001Y-12108D01*
X11310Y-12108D01*
X11350Y-12068D01*
X11350Y-12010D01*
X11326Y-11953D01*
X11281Y-11908D01*
X11274Y-11905D01*
X11309Y-11870D01*
X11325Y-11830D01*
X12244Y-11830D01*
X12311Y-11817D01*
X12311Y-11817D01*
X12369Y-11778D01*
X12487Y-11660D01*
X12495Y-11652D01*
X12973Y-11652D01*
X12973Y-11677D01*
X12994Y-11728D01*
X13032Y-11767D01*
X13083Y-11788D01*
X13138Y-11788D01*
X13688Y-11788D01*
X13738Y-11767D01*
X13777Y-11728D01*
X13798Y-11677D01*
X13798Y-11622D01*
X13798Y-11272D01*
X13777Y-11222D01*
X13738Y-11183D01*
X13688Y-11162D01*
X13633Y-11162D01*
X13562Y-11162D01*
X13562Y-10423D01*
X13549Y-10355D01*
X13549Y-10355D01*
X13511Y-10297D01*
X12342Y-9129D01*
X12342Y-7076D01*
X12466Y-7025D01*
X12615Y-6876D01*
X12657Y-6775D01*
X12698Y-6875D01*
X12848Y-7025D01*
X13043Y-7106D01*
X13254Y-7106D01*
X13450Y-7025D01*
X13599Y-6876D01*
X13681Y-6680D01*
X13681Y-6469D01*
X13600Y-6274D01*
X13451Y-6124D01*
X13255Y-6043D01*
X13044Y-6043D01*
X12848Y-6123D01*
X12699Y-6273D01*
X12657Y-6374D01*
X12616Y-6274D01*
X12466Y-6124D01*
X12271Y-6043D01*
X12060Y-6043D01*
X11895Y-6111D01*
X12002Y-6003D01*
X14897Y-6003D01*
X17893Y-9000D01*
X17893Y-10325D01*
X17805Y-10413D01*
X17758Y-10528D01*
X17758Y-10652D01*
X17805Y-10767D01*
X17893Y-10855D01*
X18008Y-10903D01*
X18132Y-10903D01*
X18133Y-10903D01*
X18671Y-11441D01*
X18563Y-11486D01*
X18475Y-11574D01*
X18475Y-11574D01*
X18124Y-11574D01*
X17281Y-10731D01*
X17281Y-10607D01*
X17233Y-10492D01*
X17145Y-10404D01*
X17030Y-10356D01*
X16906Y-10356D01*
X16791Y-10403D01*
X16703Y-10491D01*
X16655Y-10606D01*
X16655Y-10731D01*
X16703Y-10846D01*
X16791Y-10934D01*
X16906Y-10982D01*
X17030Y-10982D01*
X17030Y-10982D01*
X17925Y-11877D01*
X17983Y-11915D01*
X18051Y-11929D01*
X18475Y-11929D01*
X18562Y-12016D01*
X18677Y-12064D01*
X18802Y-12064D01*
X18917Y-12017D01*
X19005Y-11929D01*
X19052Y-11814D01*
X19053Y-11690D01*
X19046Y-11673D01*
X20860Y-11673D01*
X20828Y-11748D01*
X20828Y-11872D01*
X20876Y-11987D01*
X20964Y-12076D01*
X20964Y-12076D01*
X20964Y-12485D01*
X20576Y-12874D01*
X18931Y-12874D01*
X18875Y-12818D01*
X18875Y-12693D01*
X18828Y-12578D01*
X18740Y-12490D01*
X18625Y-12443D01*
X18501Y-12443D01*
X18386Y-12490D01*
X18297Y-12578D01*
X18250Y-12693D01*
X18250Y-12817D01*
X18297Y-12932D01*
X18385Y-13020D01*
X18500Y-13068D01*
X18624Y-13068D01*
X18625Y-13068D01*
X18732Y-13176D01*
X18790Y-13214D01*
X18790Y-13214D01*
X18858Y-13228D01*
X20649Y-13228D01*
X20717Y-13214D01*
X20717Y-13214D01*
X20774Y-13176D01*
X21267Y-12684D01*
X21305Y-12626D01*
X21305Y-12626D01*
X21318Y-12559D01*
X21318Y-12076D01*
X21406Y-11988D01*
X21454Y-11873D01*
X21454Y-11749D01*
X21423Y-11673D01*
X23214Y-11673D01*
X23503Y-11963D01*
X23503Y-12165D01*
X23517Y-12233D01*
X23555Y-12290D01*
X23998Y-12733D01*
X23998Y-12857D01*
X24045Y-12972D01*
X24133Y-13060D01*
X24248Y-13108D01*
X24372Y-13108D01*
X24487Y-13060D01*
X24576Y-12972D01*
X24623Y-12857D01*
X24623Y-12733D01*
X24576Y-12618D01*
X24488Y-12530D01*
X24373Y-12482D01*
X24249Y-12482D01*
X24248Y-12482D01*
X23858Y-12091D01*
X23858Y-11889D01*
X23844Y-11821D01*
X23844Y-11821D01*
X23806Y-11764D01*
X23498Y-11456D01*
X24616Y-11456D01*
X24704Y-11544D01*
X24819Y-11592D01*
X24943Y-11592D01*
X25058Y-11544D01*
X25146Y-11456D01*
X25194Y-11342D01*
X25194Y-11217D01*
X25147Y-11102D01*
X25059Y-11014D01*
X24944Y-10966D01*
X24819Y-10966D01*
X24704Y-11014D01*
X24616Y-11102D01*
X24616Y-11102D01*
X23277Y-11102D01*
X23316Y-11063D01*
X23363Y-10948D01*
X23364Y-10823D01*
X23346Y-10780D01*
X23346Y-9833D01*
X23346Y-9772D01*
X23306Y-9732D01*
X23159Y-9732D01*
X23159Y-9919D01*
X23198Y-9959D01*
X23219Y-9959D01*
X23277Y-9935D01*
X23322Y-9891D01*
X23346Y-9833D01*
X23346Y-10780D01*
X23316Y-10708D01*
X23228Y-10620D01*
X23149Y-10587D01*
X23149Y-9833D01*
X23149Y-9772D01*
X23109Y-9732D01*
X23100Y-9732D01*
X22962Y-9732D01*
X22952Y-9732D01*
X22932Y-9752D01*
X22912Y-9732D01*
X22903Y-9732D01*
X22765Y-9732D01*
X22755Y-9732D01*
X22735Y-9752D01*
X22715Y-9732D01*
X22706Y-9732D01*
X22568Y-9732D01*
X22558Y-9732D01*
X22519Y-9772D01*
X22519Y-9833D01*
X22543Y-9891D01*
X22568Y-9916D01*
X22568Y-9919D01*
X22607Y-9959D01*
X22628Y-9959D01*
X22637Y-9955D01*
X22645Y-9959D01*
X22666Y-9959D01*
X22706Y-9919D01*
X22706Y-9916D01*
X22731Y-9891D01*
X22735Y-9880D01*
X22740Y-9891D01*
X22765Y-9916D01*
X22765Y-9919D01*
X22804Y-9959D01*
X22825Y-9959D01*
X22834Y-9955D01*
X22842Y-9959D01*
X22863Y-9959D01*
X22903Y-9919D01*
X22903Y-9916D01*
X22928Y-9891D01*
X22932Y-9880D01*
X22937Y-9891D01*
X22962Y-9916D01*
X22962Y-9919D01*
X23001Y-9959D01*
X23022Y-9959D01*
X23031Y-9955D01*
X23039Y-9959D01*
X23060Y-9959D01*
X23100Y-9919D01*
X23100Y-9916D01*
X23125Y-9891D01*
X23149Y-9833D01*
X23149Y-10587D01*
X23113Y-10573D01*
X22989Y-10572D01*
X22874Y-10620D01*
X22786Y-10708D01*
X22738Y-10823D01*
X22738Y-10944D01*
X22509Y-10944D01*
X22509Y-9919D01*
X22509Y-9732D01*
X22361Y-9732D01*
X22322Y-9772D01*
X22322Y-9833D01*
X22346Y-9891D01*
X22390Y-9935D01*
X22448Y-9959D01*
X22469Y-9959D01*
X22509Y-9919D01*
X22509Y-10944D01*
X21392Y-10944D01*
X21229Y-10782D01*
X21338Y-10737D01*
X21426Y-10649D01*
X21474Y-10534D01*
X21474Y-10410D01*
X21426Y-10295D01*
X21338Y-10207D01*
X21338Y-10207D01*
X21338Y-9876D01*
X21532Y-9682D01*
X21656Y-9682D01*
X21771Y-9635D01*
X21859Y-9547D01*
X21907Y-9432D01*
X21907Y-9308D01*
X21859Y-9193D01*
X21771Y-9105D01*
X21656Y-9057D01*
X21532Y-9057D01*
X21417Y-9104D01*
X21329Y-9192D01*
X21281Y-9307D01*
X21281Y-9432D01*
X21281Y-9432D01*
X21036Y-9677D01*
X20997Y-9735D01*
X20984Y-9803D01*
X20984Y-10207D01*
X20896Y-10295D01*
X20848Y-10409D01*
X20848Y-10514D01*
X20725Y-10513D01*
X20610Y-10561D01*
X20522Y-10649D01*
X20474Y-10764D01*
X20474Y-10888D01*
X20522Y-11003D01*
X20609Y-11091D01*
X20635Y-11102D01*
X20281Y-11102D01*
X20312Y-11027D01*
X20312Y-10902D01*
X20265Y-10787D01*
X20177Y-10699D01*
X20062Y-10651D01*
X19938Y-10651D01*
X19823Y-10699D01*
X19734Y-10787D01*
X19734Y-10787D01*
X19482Y-10787D01*
X19367Y-10672D01*
X19367Y-10548D01*
X19320Y-10433D01*
X19232Y-10345D01*
X19117Y-10297D01*
X18993Y-10297D01*
X18878Y-10344D01*
X18818Y-10404D01*
X18799Y-10384D01*
X18684Y-10336D01*
X18560Y-10336D01*
X18445Y-10384D01*
X18359Y-10469D01*
X18336Y-10413D01*
X18248Y-10325D01*
X18248Y-10325D01*
X18248Y-8927D01*
X18234Y-8859D01*
X18234Y-8859D01*
X18196Y-8801D01*
X15095Y-5701D01*
X15038Y-5663D01*
X14970Y-5649D01*
X15059Y-5649D01*
X16147Y-5649D01*
X17500Y-7002D01*
X17500Y-7657D01*
X17513Y-7725D01*
X17551Y-7782D01*
X18877Y-9108D01*
X18877Y-9203D01*
X18790Y-9291D01*
X18742Y-9406D01*
X18742Y-9530D01*
X18789Y-9645D01*
X18877Y-9733D01*
X18992Y-9781D01*
X19117Y-9781D01*
X19232Y-9733D01*
X19320Y-9645D01*
X19367Y-9530D01*
X19367Y-9406D01*
X19320Y-9291D01*
X19232Y-9203D01*
X19232Y-9203D01*
X19232Y-9035D01*
X19218Y-8967D01*
X19180Y-8910D01*
X17854Y-7584D01*
X17854Y-6929D01*
X17840Y-6861D01*
X17840Y-6861D01*
X17802Y-6803D01*
X16345Y-5347D01*
X16288Y-5308D01*
X16220Y-5295D01*
X15059Y-5295D01*
X10039Y-5295D01*
X9971Y-5308D01*
X9914Y-5347D01*
X7827Y-7433D01*
X7789Y-7491D01*
X7775Y-7559D01*
X7775Y-7918D01*
X7170Y-8523D01*
X6574Y-8523D01*
X6507Y-8537D01*
X6449Y-8575D01*
X5229Y-9795D01*
X5190Y-9853D01*
X5177Y-9921D01*
X5177Y-13307D01*
X5190Y-13374D01*
X5229Y-13432D01*
X7165Y-15368D01*
X7165Y-17696D01*
X7171Y-17726D01*
X7175Y-17756D01*
X7177Y-17760D01*
X7178Y-17764D01*
X7195Y-17789D01*
X7211Y-17815D01*
X9100Y-19902D01*
X9104Y-19905D01*
X9107Y-19908D01*
X9132Y-19925D01*
X9156Y-19943D01*
X9160Y-19944D01*
X9164Y-19947D01*
X9194Y-19953D01*
X9223Y-19960D01*
X9227Y-19959D01*
X9232Y-19960D01*
X10598Y-19960D01*
X10554Y-19978D01*
X10432Y-20100D01*
X10365Y-20259D01*
X10365Y-20432D01*
X10431Y-20591D01*
X10553Y-20713D01*
X10712Y-20779D01*
X10849Y-20779D01*
X10863Y-20793D01*
X10795Y-20825D01*
X10741Y-20997D01*
X10757Y-21177D01*
X10795Y-21268D01*
X10863Y-21301D01*
X11117Y-21047D01*
X11111Y-21041D01*
X11195Y-20958D01*
X11200Y-20963D01*
X11206Y-20958D01*
X11289Y-21041D01*
X11284Y-21047D01*
X11538Y-21301D01*
X11606Y-21268D01*
X11614Y-21240D01*
X11636Y-21292D01*
X11758Y-21414D01*
X11771Y-21419D01*
X11771Y-21594D01*
X11789Y-21684D01*
X11840Y-21761D01*
X12155Y-22076D01*
X12232Y-22127D01*
X12322Y-22145D01*
X12963Y-22145D01*
X12991Y-22174D01*
X13106Y-22222D01*
X13231Y-22222D01*
X13346Y-22174D01*
X13434Y-22086D01*
X13482Y-21971D01*
X13482Y-21930D01*
X13749Y-21663D01*
X13800Y-21586D01*
X13818Y-21496D01*
X13818Y-21429D01*
X13855Y-21414D01*
X13977Y-21293D01*
X14043Y-21133D01*
X14043Y-20961D01*
X13977Y-20802D01*
X13855Y-20680D01*
X13696Y-20614D01*
X13554Y-20613D01*
X13575Y-20592D01*
X13641Y-20433D01*
X13642Y-20260D01*
X13615Y-20196D01*
X15089Y-20196D01*
X15051Y-20259D01*
X15405Y-20613D01*
X15759Y-20259D01*
X15721Y-20196D01*
X15969Y-20196D01*
X16358Y-20585D01*
X16358Y-22854D01*
X16371Y-22922D01*
X16410Y-22979D01*
X16862Y-23432D01*
X16920Y-23470D01*
X16920Y-23470D01*
X16988Y-23484D01*
X19488Y-23484D01*
X19555Y-23470D01*
X19555Y-23470D01*
X19613Y-23432D01*
X19701Y-23344D01*
X19825Y-23344D01*
X19940Y-23296D01*
X20028Y-23208D01*
X20076Y-23093D01*
X20076Y-22969D01*
X20029Y-22854D01*
X19941Y-22766D01*
X19826Y-22718D01*
X19701Y-22718D01*
X19586Y-22766D01*
X19505Y-22847D01*
X19505Y-21670D01*
X19458Y-21555D01*
X19370Y-21467D01*
X19255Y-21419D01*
X19130Y-21419D01*
X19130Y-21419D01*
X18196Y-20484D01*
X18138Y-20446D01*
X18070Y-20433D01*
X17371Y-20433D01*
X17283Y-20345D01*
X17168Y-20297D01*
X17044Y-20297D01*
X16929Y-20344D01*
X16841Y-20432D01*
X16793Y-20547D01*
X16793Y-20672D01*
X16840Y-20787D01*
X16928Y-20875D01*
X17043Y-20922D01*
X17168Y-20923D01*
X17283Y-20875D01*
X17371Y-20787D01*
X17371Y-20787D01*
X17997Y-20787D01*
X18880Y-21670D01*
X18880Y-21794D01*
X18927Y-21909D01*
X19015Y-21997D01*
X19130Y-22045D01*
X19254Y-22045D01*
X19369Y-21997D01*
X19457Y-21909D01*
X19505Y-21794D01*
X19505Y-21670D01*
X19505Y-22847D01*
X19498Y-22854D01*
X19451Y-22969D01*
X19450Y-23093D01*
X19451Y-23093D01*
X19414Y-23129D01*
X19078Y-23129D01*
X19078Y-22348D01*
X19007Y-22176D01*
X18875Y-22044D01*
X18703Y-21973D01*
X18517Y-21973D01*
X18345Y-22044D01*
X18213Y-22175D01*
X18142Y-22347D01*
X18142Y-22533D01*
X18213Y-22705D01*
X18344Y-22837D01*
X18516Y-22908D01*
X18702Y-22908D01*
X18874Y-22837D01*
X19006Y-22706D01*
X19077Y-22534D01*
X19078Y-22348D01*
X19078Y-23129D01*
X18078Y-23129D01*
X18078Y-22348D01*
X18007Y-22176D01*
X17875Y-22044D01*
X17703Y-21973D01*
X17517Y-21973D01*
X17345Y-22044D01*
X17213Y-22175D01*
X17142Y-22347D01*
X17142Y-22533D01*
X17213Y-22705D01*
X17344Y-22837D01*
X17516Y-22908D01*
X17702Y-22908D01*
X17874Y-22837D01*
X18006Y-22706D01*
X18077Y-22534D01*
X18078Y-22348D01*
X18078Y-23129D01*
X17061Y-23129D01*
X16712Y-22780D01*
X16712Y-20511D01*
X16699Y-20444D01*
X16699Y-20444D01*
X16660Y-20386D01*
X16192Y-19918D01*
X16207Y-19908D01*
X16614Y-19502D01*
X16669Y-19525D01*
X16794Y-19525D01*
X16909Y-19477D01*
X16997Y-19390D01*
X17045Y-19275D01*
X17045Y-19150D01*
X17028Y-19109D01*
X20248Y-22329D01*
X20306Y-22368D01*
X20306Y-22368D01*
X20374Y-22381D01*
X23134Y-22381D01*
X23150Y-22418D01*
X23170Y-22439D01*
X23150Y-22459D01*
X23129Y-22510D01*
X23129Y-22565D01*
X23129Y-22821D01*
X23129Y-22822D01*
X23129Y-23110D01*
X23143Y-23178D01*
X23181Y-23235D01*
X23843Y-23897D01*
X23459Y-23897D01*
X23137Y-23575D01*
X23079Y-23537D01*
X23011Y-23523D01*
X16001Y-23523D01*
X16001Y-20779D01*
X15988Y-20544D01*
X15925Y-20392D01*
X15842Y-20342D01*
X15489Y-20696D01*
X15842Y-21050D01*
X15925Y-21001D01*
X16001Y-20779D01*
X16001Y-23523D01*
X15759Y-23523D01*
X15759Y-21134D01*
X15405Y-20780D01*
X15321Y-20863D01*
X15321Y-20696D01*
X14968Y-20342D01*
X14886Y-20392D01*
X14809Y-20614D01*
X14822Y-20848D01*
X14886Y-21001D01*
X14968Y-21050D01*
X15321Y-20696D01*
X15321Y-20863D01*
X15051Y-21134D01*
X15101Y-21216D01*
X15323Y-21293D01*
X15557Y-21279D01*
X15709Y-21216D01*
X15759Y-21134D01*
X15759Y-23523D01*
X15561Y-23523D01*
X15561Y-21877D01*
X15431Y-21562D01*
X15190Y-21321D01*
X14875Y-21191D01*
X14535Y-21190D01*
X14220Y-21320D01*
X13979Y-21561D01*
X13848Y-21876D01*
X13848Y-22216D01*
X13978Y-22531D01*
X14219Y-22772D01*
X14533Y-22903D01*
X14874Y-22903D01*
X15189Y-22773D01*
X15430Y-22532D01*
X15560Y-22218D01*
X15561Y-21877D01*
X15561Y-23523D01*
X11454Y-23523D01*
X11454Y-21384D01*
X11200Y-21130D01*
X11117Y-21214D01*
X10946Y-21384D01*
X10979Y-21452D01*
X11151Y-21506D01*
X11330Y-21490D01*
X11422Y-21452D01*
X11454Y-21384D01*
X11454Y-23523D01*
X10561Y-23523D01*
X10561Y-21877D01*
X10431Y-21562D01*
X10190Y-21321D01*
X9875Y-21191D01*
X9600Y-21190D01*
X9600Y-20779D01*
X9586Y-20544D01*
X9523Y-20392D01*
X9441Y-20342D01*
X9357Y-20426D01*
X9357Y-20259D01*
X9308Y-20177D01*
X9086Y-20100D01*
X8851Y-20114D01*
X8699Y-20177D01*
X8649Y-20259D01*
X9003Y-20613D01*
X9357Y-20259D01*
X9357Y-20426D01*
X9087Y-20696D01*
X9441Y-21050D01*
X9523Y-21001D01*
X9600Y-20779D01*
X9600Y-21190D01*
X9535Y-21190D01*
X9357Y-21264D01*
X9357Y-21134D01*
X9003Y-20780D01*
X8920Y-20863D01*
X8920Y-20696D01*
X8566Y-20342D01*
X8484Y-20392D01*
X8407Y-20614D01*
X8421Y-20848D01*
X8484Y-21001D01*
X8566Y-21050D01*
X8920Y-20696D01*
X8920Y-20863D01*
X8649Y-21134D01*
X8699Y-21216D01*
X8921Y-21293D01*
X9156Y-21279D01*
X9308Y-21216D01*
X9357Y-21134D01*
X9357Y-21264D01*
X9220Y-21320D01*
X8979Y-21561D01*
X8848Y-21876D01*
X8848Y-22216D01*
X8978Y-22531D01*
X9219Y-22772D01*
X9533Y-22903D01*
X9874Y-22903D01*
X10189Y-22773D01*
X10430Y-22532D01*
X10560Y-22218D01*
X10561Y-21877D01*
X10561Y-23523D01*
X10501Y-23523D01*
X10413Y-23435D01*
X10298Y-23388D01*
X10174Y-23387D01*
X10059Y-23435D01*
X9971Y-23523D01*
X9923Y-23638D01*
X9923Y-23762D01*
X9970Y-23877D01*
X10058Y-23965D01*
X10173Y-24013D01*
X10298Y-24013D01*
X10413Y-23966D01*
X10501Y-23878D01*
X10501Y-23877D01*
X22938Y-23877D01*
X23260Y-24200D01*
X23318Y-24238D01*
X23318Y-24238D01*
X23385Y-24251D01*
X4881Y-24251D01*
X4881Y-4881D01*
X43937Y-4881D01*
X43937Y-24251D01*
X43937Y-24251D01*
G37*
G54D36*
X43937Y-24251D02*
X43680Y-24251D01*
X43680Y-16050D01*
X43680Y-15996D01*
X43680Y-15130D01*
X43680Y-14790D01*
X43680Y-14736D01*
X43680Y-14382D01*
X43659Y-14331D01*
X43620Y-14292D01*
X43601Y-14284D01*
X43601Y-14015D01*
X43601Y-14015D01*
X43601Y-14015D01*
X43576Y-13887D01*
X43503Y-13778D01*
X43228Y-13503D01*
X43120Y-13430D01*
X42992Y-13405D01*
X42677Y-13405D01*
X42677Y-11411D01*
X42551Y-11107D01*
X42440Y-10996D01*
X42440Y-10031D01*
X42440Y-9968D01*
X42440Y-9507D01*
X42440Y-9311D01*
X42440Y-8850D01*
X42440Y-8787D01*
X42416Y-8729D01*
X42372Y-8685D01*
X42314Y-8661D01*
X41988Y-8661D01*
X41948Y-8700D01*
X41948Y-9350D01*
X42401Y-9350D01*
X42440Y-9311D01*
X42440Y-9507D01*
X42401Y-9468D01*
X41948Y-9468D01*
X41948Y-10118D01*
X41988Y-10157D01*
X42314Y-10157D01*
X42372Y-10133D01*
X42416Y-10089D01*
X42440Y-10031D01*
X42440Y-10996D01*
X42319Y-10874D01*
X42015Y-10748D01*
X41830Y-10748D01*
X41830Y-10118D01*
X41830Y-9468D01*
X41830Y-9350D01*
X41830Y-8700D01*
X41791Y-8661D01*
X41464Y-8661D01*
X41406Y-8685D01*
X41362Y-8729D01*
X41338Y-8787D01*
X41338Y-8850D01*
X41338Y-9311D01*
X41377Y-9350D01*
X41830Y-9350D01*
X41830Y-9468D01*
X41377Y-9468D01*
X41338Y-9507D01*
X41338Y-9968D01*
X41338Y-10031D01*
X41362Y-10089D01*
X41406Y-10133D01*
X41464Y-10157D01*
X41791Y-10157D01*
X41830Y-10118D01*
X41830Y-10748D01*
X41686Y-10747D01*
X41382Y-10873D01*
X41149Y-11105D01*
X41023Y-11409D01*
X41023Y-11738D01*
X41149Y-12042D01*
X41381Y-12275D01*
X41685Y-12401D01*
X42014Y-12401D01*
X42318Y-12276D01*
X42550Y-12043D01*
X42677Y-11739D01*
X42677Y-11411D01*
X42677Y-13405D01*
X42421Y-13405D01*
X42421Y-13122D01*
X42400Y-13071D01*
X42361Y-13032D01*
X42310Y-13011D01*
X42256Y-13011D01*
X41468Y-13011D01*
X41418Y-13032D01*
X41379Y-13071D01*
X41358Y-13122D01*
X41358Y-13177D01*
X41358Y-13405D01*
X40945Y-13405D01*
X40945Y-11411D01*
X40819Y-11107D01*
X40587Y-10874D01*
X40283Y-10748D01*
X40078Y-10747D01*
X40078Y-10031D01*
X40078Y-9968D01*
X40078Y-9507D01*
X40078Y-9311D01*
X40078Y-8850D01*
X40078Y-8787D01*
X40054Y-8729D01*
X40010Y-8685D01*
X39952Y-8661D01*
X39625Y-8661D01*
X39586Y-8700D01*
X39586Y-9350D01*
X40039Y-9350D01*
X40078Y-9311D01*
X40078Y-9507D01*
X40039Y-9468D01*
X39586Y-9468D01*
X39586Y-10118D01*
X39625Y-10157D01*
X39952Y-10157D01*
X40010Y-10133D01*
X40054Y-10089D01*
X40078Y-10031D01*
X40078Y-10747D01*
X39954Y-10747D01*
X39650Y-10873D01*
X39468Y-11055D01*
X39468Y-10118D01*
X39468Y-9468D01*
X39468Y-9350D01*
X39468Y-8700D01*
X39429Y-8661D01*
X39102Y-8661D01*
X39044Y-8685D01*
X39000Y-8729D01*
X38976Y-8787D01*
X38976Y-8850D01*
X38976Y-9311D01*
X39015Y-9350D01*
X39468Y-9350D01*
X39468Y-9468D01*
X39015Y-9468D01*
X38976Y-9507D01*
X38976Y-9968D01*
X38976Y-10031D01*
X39000Y-10089D01*
X39044Y-10133D01*
X39102Y-10157D01*
X39429Y-10157D01*
X39468Y-10118D01*
X39468Y-11055D01*
X39417Y-11105D01*
X39291Y-11409D01*
X39291Y-11738D01*
X39416Y-12042D01*
X39649Y-12275D01*
X39952Y-12401D01*
X40281Y-12401D01*
X40585Y-12276D01*
X40818Y-12043D01*
X40944Y-11739D01*
X40945Y-11411D01*
X40945Y-13405D01*
X40059Y-13405D01*
X40059Y-13122D01*
X40038Y-13071D01*
X39999Y-13032D01*
X39948Y-13011D01*
X39893Y-13011D01*
X39106Y-13011D01*
X39055Y-13032D01*
X39017Y-13071D01*
X38996Y-13122D01*
X38996Y-13177D01*
X38996Y-14358D01*
X39017Y-14408D01*
X39055Y-14447D01*
X39106Y-14468D01*
X39161Y-14468D01*
X39948Y-14468D01*
X39999Y-14447D01*
X40038Y-14408D01*
X40059Y-14358D01*
X40059Y-14303D01*
X40059Y-14074D01*
X41358Y-14074D01*
X41358Y-14358D01*
X41379Y-14408D01*
X41418Y-14447D01*
X41468Y-14468D01*
X41523Y-14468D01*
X42310Y-14468D01*
X42361Y-14447D01*
X42400Y-14408D01*
X42421Y-14358D01*
X42421Y-14303D01*
X42421Y-14074D01*
X42853Y-14074D01*
X42932Y-14153D01*
X42932Y-14284D01*
X42913Y-14292D01*
X42874Y-14331D01*
X42854Y-14382D01*
X42854Y-14436D01*
X42854Y-14790D01*
X42874Y-14841D01*
X42913Y-14880D01*
X42964Y-14901D01*
X43019Y-14901D01*
X43167Y-14901D01*
X43267Y-14921D01*
X43367Y-14901D01*
X43570Y-14901D01*
X43620Y-14880D01*
X43659Y-14841D01*
X43680Y-14790D01*
X43680Y-15130D01*
X43659Y-15079D01*
X43620Y-15040D01*
X43570Y-15019D01*
X43515Y-15019D01*
X42964Y-15019D01*
X42913Y-15040D01*
X42874Y-15079D01*
X42854Y-15130D01*
X42854Y-15184D01*
X42854Y-16050D01*
X42874Y-16101D01*
X42913Y-16140D01*
X42932Y-16148D01*
X42932Y-16279D01*
X42755Y-16279D01*
X42716Y-16279D01*
X42402Y-16279D01*
X42402Y-16271D01*
X42381Y-16221D01*
X42342Y-16182D01*
X42291Y-16161D01*
X42237Y-16161D01*
X42079Y-16161D01*
X42086Y-16143D01*
X42086Y-16081D01*
X42086Y-15669D01*
X42086Y-15472D01*
X42086Y-15060D01*
X42086Y-14998D01*
X42062Y-14940D01*
X42018Y-14896D01*
X41960Y-14872D01*
X41633Y-14872D01*
X41594Y-14911D01*
X41594Y-15512D01*
X42047Y-15512D01*
X42086Y-15472D01*
X42086Y-15669D01*
X42047Y-15630D01*
X41594Y-15630D01*
X41594Y-15984D01*
X41594Y-16230D01*
X41594Y-16457D01*
X41602Y-16457D01*
X41602Y-16575D01*
X41594Y-16575D01*
X41594Y-17047D01*
X41633Y-17087D01*
X41704Y-17087D01*
X41762Y-17063D01*
X41806Y-17018D01*
X41830Y-16960D01*
X41830Y-16898D01*
X41830Y-16762D01*
X41850Y-16792D01*
X41850Y-16956D01*
X41871Y-17007D01*
X41910Y-17045D01*
X41961Y-17066D01*
X42015Y-17066D01*
X42291Y-17066D01*
X42342Y-17045D01*
X42381Y-17007D01*
X42402Y-16956D01*
X42402Y-16948D01*
X42617Y-16948D01*
X42932Y-17264D01*
X42932Y-17446D01*
X42631Y-17446D01*
X42580Y-17467D01*
X42541Y-17505D01*
X42520Y-17556D01*
X42520Y-17611D01*
X42520Y-18211D01*
X42541Y-18261D01*
X42580Y-18300D01*
X42631Y-18321D01*
X42686Y-18321D01*
X42897Y-18321D01*
X42422Y-18797D01*
X42422Y-17934D01*
X42406Y-17753D01*
X42367Y-17659D01*
X42299Y-17626D01*
X42215Y-17710D01*
X42215Y-17543D01*
X42182Y-17474D01*
X42009Y-17420D01*
X41827Y-17436D01*
X41734Y-17474D01*
X41701Y-17543D01*
X41958Y-17800D01*
X42215Y-17543D01*
X42215Y-17710D01*
X42042Y-17883D01*
X42299Y-18141D01*
X42367Y-18108D01*
X42422Y-17934D01*
X42422Y-18797D01*
X42341Y-18877D01*
X42215Y-18877D01*
X42215Y-18224D01*
X41958Y-17967D01*
X41875Y-18050D01*
X41875Y-17883D01*
X41617Y-17626D01*
X41549Y-17659D01*
X41494Y-17833D01*
X41510Y-18014D01*
X41549Y-18108D01*
X41617Y-18141D01*
X41875Y-17883D01*
X41875Y-18050D01*
X41701Y-18224D01*
X41734Y-18292D01*
X41908Y-18347D01*
X42089Y-18331D01*
X42182Y-18292D01*
X42215Y-18224D01*
X42215Y-18877D01*
X39696Y-18877D01*
X39568Y-18903D01*
X39460Y-18975D01*
X39460Y-18975D01*
X37901Y-20535D01*
X37884Y-20535D01*
X37906Y-20513D01*
X37972Y-20354D01*
X37972Y-20181D01*
X37906Y-20022D01*
X37785Y-19900D01*
X37625Y-19834D01*
X37453Y-19834D01*
X37294Y-19900D01*
X37172Y-20021D01*
X37137Y-20104D01*
X37103Y-20022D01*
X36981Y-19900D01*
X36822Y-19834D01*
X36650Y-19834D01*
X36491Y-19900D01*
X36369Y-20021D01*
X36334Y-20104D01*
X36300Y-20022D01*
X36178Y-19900D01*
X36019Y-19834D01*
X35847Y-19834D01*
X35687Y-19900D01*
X35565Y-20021D01*
X35531Y-20104D01*
X35497Y-20022D01*
X35375Y-19900D01*
X35216Y-19834D01*
X35044Y-19834D01*
X34884Y-19900D01*
X34762Y-20021D01*
X34696Y-20181D01*
X34696Y-20353D01*
X34762Y-20512D01*
X34884Y-20634D01*
X35043Y-20700D01*
X35180Y-20701D01*
X35193Y-20714D01*
X35126Y-20747D01*
X35072Y-20918D01*
X35088Y-21098D01*
X35126Y-21189D01*
X35193Y-21222D01*
X35447Y-20968D01*
X35442Y-20962D01*
X35525Y-20879D01*
X35531Y-20884D01*
X35537Y-20879D01*
X35620Y-20962D01*
X35615Y-20968D01*
X35869Y-21222D01*
X35936Y-21189D01*
X35945Y-21161D01*
X35967Y-21213D01*
X36088Y-21335D01*
X36248Y-21401D01*
X36420Y-21401D01*
X36579Y-21336D01*
X36701Y-21214D01*
X36722Y-21165D01*
X36732Y-21189D01*
X36800Y-21222D01*
X37054Y-20968D01*
X37048Y-20962D01*
X37132Y-20879D01*
X37137Y-20884D01*
X37143Y-20879D01*
X37226Y-20962D01*
X37221Y-20968D01*
X37226Y-20974D01*
X37143Y-21057D01*
X37137Y-21052D01*
X36883Y-21306D01*
X36916Y-21373D01*
X37048Y-21415D01*
X35785Y-22678D01*
X35785Y-21306D01*
X35531Y-21052D01*
X35447Y-21135D01*
X35277Y-21306D01*
X35310Y-21373D01*
X35481Y-21427D01*
X35661Y-21411D01*
X35752Y-21373D01*
X35785Y-21306D01*
X35785Y-22678D01*
X35363Y-23100D01*
X34891Y-23100D01*
X34891Y-21798D01*
X34761Y-21484D01*
X34521Y-21242D01*
X34206Y-21112D01*
X33931Y-21112D01*
X33931Y-20700D01*
X33917Y-20466D01*
X33854Y-20313D01*
X33772Y-20264D01*
X33688Y-20347D01*
X33688Y-20180D01*
X33639Y-20098D01*
X33417Y-20021D01*
X33182Y-20035D01*
X33030Y-20098D01*
X32980Y-20180D01*
X33334Y-20534D01*
X33688Y-20180D01*
X33688Y-20347D01*
X33418Y-20618D01*
X33772Y-20972D01*
X33854Y-20922D01*
X33931Y-20700D01*
X33931Y-21112D01*
X33865Y-21112D01*
X33688Y-21185D01*
X33688Y-21055D01*
X33334Y-20701D01*
X33251Y-20785D01*
X33251Y-20618D01*
X32897Y-20264D01*
X32815Y-20313D01*
X32738Y-20535D01*
X32752Y-20770D01*
X32815Y-20922D01*
X32897Y-20972D01*
X33251Y-20618D01*
X33251Y-20785D01*
X32980Y-21055D01*
X33030Y-21137D01*
X33252Y-21214D01*
X33486Y-21200D01*
X33639Y-21137D01*
X33688Y-21055D01*
X33688Y-21185D01*
X33551Y-21242D01*
X33309Y-21482D01*
X33179Y-21797D01*
X33178Y-22138D01*
X33309Y-22452D01*
X33549Y-22694D01*
X33864Y-22824D01*
X34205Y-22824D01*
X34519Y-22694D01*
X34760Y-22454D01*
X34891Y-22139D01*
X34891Y-21798D01*
X34891Y-23100D01*
X33986Y-23100D01*
X33858Y-23125D01*
X33749Y-23198D01*
X33424Y-23523D01*
X33405Y-23542D01*
X33332Y-23651D01*
X33307Y-23779D01*
X33332Y-23907D01*
X33405Y-24016D01*
X33513Y-24088D01*
X33641Y-24114D01*
X33740Y-24094D01*
X34409Y-24094D01*
X34508Y-24074D01*
X35196Y-24074D01*
X35324Y-24049D01*
X35433Y-23976D01*
X35506Y-23868D01*
X35526Y-23764D01*
X35630Y-23744D01*
X35738Y-23671D01*
X38008Y-21401D01*
X38026Y-21401D01*
X38186Y-21336D01*
X38308Y-21214D01*
X38374Y-21055D01*
X38374Y-21008D01*
X39835Y-19547D01*
X42480Y-19547D01*
X42608Y-19521D01*
X42716Y-19449D01*
X43503Y-18662D01*
X43576Y-18553D01*
X43601Y-18425D01*
X43601Y-17903D01*
X43601Y-17125D01*
X43601Y-16496D01*
X43601Y-16148D01*
X43620Y-16140D01*
X43659Y-16101D01*
X43680Y-16050D01*
X43680Y-24251D01*
X40332Y-24251D01*
X40332Y-20700D01*
X40318Y-20466D01*
X40255Y-20313D01*
X40173Y-20264D01*
X40090Y-20347D01*
X40090Y-20180D01*
X40040Y-20098D01*
X39818Y-20021D01*
X39584Y-20035D01*
X39431Y-20098D01*
X39382Y-20180D01*
X39736Y-20534D01*
X40090Y-20180D01*
X40090Y-20347D01*
X39819Y-20618D01*
X40173Y-20972D01*
X40255Y-20922D01*
X40332Y-20700D01*
X40332Y-24251D01*
X40090Y-24251D01*
X40090Y-21055D01*
X39736Y-20701D01*
X39652Y-20785D01*
X39652Y-20618D01*
X39298Y-20264D01*
X39216Y-20313D01*
X39139Y-20535D01*
X39153Y-20770D01*
X39216Y-20922D01*
X39298Y-20972D01*
X39652Y-20618D01*
X39652Y-20785D01*
X39382Y-21055D01*
X39431Y-21137D01*
X39653Y-21214D01*
X39888Y-21200D01*
X40040Y-21137D01*
X40090Y-21055D01*
X40090Y-24251D01*
X39891Y-24251D01*
X39891Y-21798D01*
X39761Y-21484D01*
X39521Y-21242D01*
X39206Y-21112D01*
X38865Y-21112D01*
X38551Y-21242D01*
X38309Y-21482D01*
X38179Y-21797D01*
X38178Y-22138D01*
X38309Y-22452D01*
X38549Y-22694D01*
X38864Y-22824D01*
X39205Y-22824D01*
X39519Y-22694D01*
X39760Y-22454D01*
X39891Y-22139D01*
X39891Y-21798D01*
X39891Y-24251D01*
X30767Y-24251D01*
X30835Y-24238D01*
X30835Y-24238D01*
X30892Y-24200D01*
X32349Y-22743D01*
X32388Y-22685D01*
X32388Y-22685D01*
X32401Y-22618D01*
X32401Y-19187D01*
X32674Y-18915D01*
X32798Y-18915D01*
X32913Y-18867D01*
X33001Y-18779D01*
X33048Y-18664D01*
X33049Y-18540D01*
X33001Y-18425D01*
X32913Y-18337D01*
X32798Y-18289D01*
X32674Y-18289D01*
X32559Y-18337D01*
X32471Y-18424D01*
X32423Y-18539D01*
X32423Y-18664D01*
X32423Y-18664D01*
X32099Y-18988D01*
X32060Y-19046D01*
X32047Y-19114D01*
X32047Y-22544D01*
X30694Y-23897D01*
X28923Y-23897D01*
X29949Y-22872D01*
X30036Y-22908D01*
X30222Y-22908D01*
X30394Y-22837D01*
X30526Y-22706D01*
X30597Y-22534D01*
X30597Y-22348D01*
X30526Y-22176D01*
X30395Y-22044D01*
X30223Y-21973D01*
X30037Y-21973D01*
X29865Y-22044D01*
X29733Y-22175D01*
X29662Y-22347D01*
X29662Y-22533D01*
X29698Y-22621D01*
X28717Y-23602D01*
X27497Y-23602D01*
X27497Y-23127D01*
X27450Y-23012D01*
X27362Y-22923D01*
X27247Y-22876D01*
X27123Y-22876D01*
X27008Y-22923D01*
X26920Y-23011D01*
X26919Y-23011D01*
X25860Y-23011D01*
X25745Y-22896D01*
X25745Y-20922D01*
X25698Y-20807D01*
X25610Y-20719D01*
X25610Y-20719D01*
X25610Y-20324D01*
X25698Y-20236D01*
X25745Y-20121D01*
X25745Y-19997D01*
X25698Y-19882D01*
X25610Y-19794D01*
X25495Y-19746D01*
X25371Y-19746D01*
X25256Y-19793D01*
X25168Y-19881D01*
X25120Y-19996D01*
X25120Y-20121D01*
X25167Y-20236D01*
X25255Y-20324D01*
X25255Y-20324D01*
X25255Y-20719D01*
X25168Y-20806D01*
X25120Y-20921D01*
X25120Y-21046D01*
X25167Y-21161D01*
X25255Y-21249D01*
X25370Y-21296D01*
X25495Y-21297D01*
X25610Y-21249D01*
X25698Y-21161D01*
X25745Y-21046D01*
X25745Y-20922D01*
X25745Y-22896D01*
X24803Y-21954D01*
X24803Y-21859D01*
X24891Y-21771D01*
X24938Y-21656D01*
X24938Y-21532D01*
X24891Y-21417D01*
X24803Y-21329D01*
X24688Y-21281D01*
X24564Y-21281D01*
X24449Y-21329D01*
X24360Y-21417D01*
X24313Y-21531D01*
X24313Y-21656D01*
X24360Y-21771D01*
X24448Y-21859D01*
X24448Y-21859D01*
X24448Y-22027D01*
X24462Y-22095D01*
X24500Y-22152D01*
X25662Y-23314D01*
X25719Y-23352D01*
X25719Y-23352D01*
X25787Y-23366D01*
X26919Y-23366D01*
X27007Y-23453D01*
X27122Y-23501D01*
X27246Y-23501D01*
X27361Y-23454D01*
X27450Y-23366D01*
X27497Y-23251D01*
X27497Y-23127D01*
X27497Y-23602D01*
X24049Y-23602D01*
X24007Y-23560D01*
X24074Y-23533D01*
X24162Y-23445D01*
X24210Y-23330D01*
X24210Y-23205D01*
X24162Y-23090D01*
X24075Y-23002D01*
X24074Y-23002D01*
X24074Y-22890D01*
X24092Y-22871D01*
X24113Y-22821D01*
X24113Y-22766D01*
X24113Y-22510D01*
X24092Y-22459D01*
X24072Y-22439D01*
X24092Y-22418D01*
X24113Y-22368D01*
X24113Y-22313D01*
X24113Y-22194D01*
X24114Y-22192D01*
X24114Y-19730D01*
X24144Y-19802D01*
X24232Y-19891D01*
X24346Y-19938D01*
X24471Y-19938D01*
X24586Y-19891D01*
X24674Y-19803D01*
X24722Y-19688D01*
X24722Y-19627D01*
X25040Y-19309D01*
X26429Y-19309D01*
X26368Y-19369D01*
X26321Y-19484D01*
X26321Y-19609D01*
X26368Y-19724D01*
X26437Y-19792D01*
X26437Y-19985D01*
X26426Y-19960D01*
X26338Y-19872D01*
X26223Y-19825D01*
X26099Y-19824D01*
X25984Y-19872D01*
X25896Y-19960D01*
X25848Y-20075D01*
X25848Y-20199D01*
X25896Y-20314D01*
X25984Y-20402D01*
X25984Y-20402D01*
X25984Y-20561D01*
X25896Y-20649D01*
X25848Y-20764D01*
X25848Y-20888D01*
X25896Y-21003D01*
X25984Y-21091D01*
X26098Y-21139D01*
X26223Y-21139D01*
X26338Y-21092D01*
X26426Y-21004D01*
X26437Y-20978D01*
X26437Y-21191D01*
X26349Y-21279D01*
X26301Y-21394D01*
X26301Y-21518D01*
X26348Y-21633D01*
X26436Y-21721D01*
X26551Y-21769D01*
X26676Y-21769D01*
X26791Y-21722D01*
X26879Y-21634D01*
X26926Y-21519D01*
X26927Y-21394D01*
X26879Y-21279D01*
X26791Y-21191D01*
X26791Y-21191D01*
X26791Y-19820D01*
X26810Y-19812D01*
X26898Y-19724D01*
X26946Y-19609D01*
X26946Y-19485D01*
X26899Y-19370D01*
X26838Y-19309D01*
X26912Y-19309D01*
X26918Y-19314D01*
X26969Y-19335D01*
X27023Y-19335D01*
X27523Y-19335D01*
X27574Y-19314D01*
X27580Y-19309D01*
X28070Y-19309D01*
X28464Y-19309D01*
X28464Y-19881D01*
X28490Y-20009D01*
X28562Y-20118D01*
X29074Y-20630D01*
X29182Y-20702D01*
X29311Y-20728D01*
X29311Y-20728D01*
X29311Y-20728D01*
X29921Y-20728D01*
X29921Y-20728D01*
X30846Y-21652D01*
X30846Y-22062D01*
X30733Y-22175D01*
X30662Y-22347D01*
X30662Y-22533D01*
X30733Y-22705D01*
X30864Y-22837D01*
X31036Y-22908D01*
X31222Y-22908D01*
X31394Y-22837D01*
X31526Y-22706D01*
X31597Y-22534D01*
X31597Y-22348D01*
X31526Y-22176D01*
X31395Y-22044D01*
X31318Y-22012D01*
X31318Y-21555D01*
X31300Y-21464D01*
X31249Y-21388D01*
X30324Y-20463D01*
X32500Y-18287D01*
X34448Y-18287D01*
X38149Y-18287D01*
X38277Y-18261D01*
X38386Y-18189D01*
X39626Y-16948D01*
X39724Y-16948D01*
X40196Y-16948D01*
X40472Y-16948D01*
X40668Y-16948D01*
X40668Y-16956D01*
X40689Y-17007D01*
X40708Y-17025D01*
X40708Y-17515D01*
X40587Y-17635D01*
X40520Y-17796D01*
X40520Y-17970D01*
X40587Y-18131D01*
X40710Y-18254D01*
X40871Y-18321D01*
X41045Y-18321D01*
X41206Y-18255D01*
X41329Y-18132D01*
X41396Y-17971D01*
X41396Y-17797D01*
X41330Y-17636D01*
X41206Y-17512D01*
X41180Y-17501D01*
X41180Y-17025D01*
X41199Y-17007D01*
X41220Y-16956D01*
X41220Y-16901D01*
X41220Y-16792D01*
X41239Y-16762D01*
X41239Y-16898D01*
X41239Y-16960D01*
X41263Y-17018D01*
X41308Y-17063D01*
X41366Y-17087D01*
X41437Y-17087D01*
X41476Y-17047D01*
X41476Y-16575D01*
X41468Y-16575D01*
X41468Y-16457D01*
X41476Y-16457D01*
X41476Y-16230D01*
X41476Y-15984D01*
X41476Y-15630D01*
X41476Y-15512D01*
X41476Y-14911D01*
X41437Y-14872D01*
X41110Y-14872D01*
X41052Y-14896D01*
X41008Y-14940D01*
X40984Y-14998D01*
X40984Y-15060D01*
X40984Y-15472D01*
X41023Y-15512D01*
X41476Y-15512D01*
X41476Y-15630D01*
X41023Y-15630D01*
X40984Y-15669D01*
X40984Y-16081D01*
X40984Y-16143D01*
X40991Y-16161D01*
X40779Y-16161D01*
X40728Y-16182D01*
X40689Y-16221D01*
X40668Y-16271D01*
X40668Y-16279D01*
X40472Y-16279D01*
X40471Y-16279D01*
X40335Y-16143D01*
X40335Y-15595D01*
X40352Y-15588D01*
X40391Y-15549D01*
X40412Y-15499D01*
X40412Y-15444D01*
X40412Y-14894D01*
X40391Y-14843D01*
X40352Y-14805D01*
X40301Y-14784D01*
X40247Y-14784D01*
X39897Y-14784D01*
X39846Y-14805D01*
X39807Y-14843D01*
X39786Y-14894D01*
X39786Y-14949D01*
X39786Y-15499D01*
X39807Y-15549D01*
X39846Y-15588D01*
X39863Y-15595D01*
X39863Y-16141D01*
X39725Y-16279D01*
X39724Y-16279D01*
X39681Y-16279D01*
X39681Y-15503D01*
X39681Y-15440D01*
X39681Y-15295D01*
X39681Y-15098D01*
X39681Y-14953D01*
X39681Y-14890D01*
X39657Y-14832D01*
X39613Y-14788D01*
X39555Y-14764D01*
X39447Y-14764D01*
X39408Y-14803D01*
X39408Y-15137D01*
X39642Y-15137D01*
X39681Y-15098D01*
X39681Y-15295D01*
X39642Y-15255D01*
X39408Y-15255D01*
X39408Y-15589D01*
X39447Y-15629D01*
X39555Y-15629D01*
X39613Y-15605D01*
X39657Y-15561D01*
X39681Y-15503D01*
X39681Y-16279D01*
X39488Y-16279D01*
X39360Y-16304D01*
X39290Y-16351D01*
X39290Y-15589D01*
X39290Y-15255D01*
X39290Y-15137D01*
X39290Y-14803D01*
X39250Y-14764D01*
X39143Y-14764D01*
X39085Y-14788D01*
X39040Y-14832D01*
X39016Y-14890D01*
X39016Y-14953D01*
X39016Y-15098D01*
X39056Y-15137D01*
X39290Y-15137D01*
X39290Y-15255D01*
X39056Y-15255D01*
X39016Y-15295D01*
X39016Y-15440D01*
X39016Y-15503D01*
X39040Y-15561D01*
X39085Y-15605D01*
X39143Y-15629D01*
X39250Y-15629D01*
X39290Y-15589D01*
X39290Y-16351D01*
X39251Y-16377D01*
X38010Y-17618D01*
X37401Y-17618D01*
X37401Y-8229D01*
X37341Y-8084D01*
X37231Y-7973D01*
X37086Y-7913D01*
X36929Y-7913D01*
X36785Y-7973D01*
X36674Y-8083D01*
X36614Y-8228D01*
X36614Y-8385D01*
X36673Y-8529D01*
X36784Y-8640D01*
X36929Y-8700D01*
X37085Y-8700D01*
X37230Y-8641D01*
X37341Y-8530D01*
X37401Y-8385D01*
X37401Y-8229D01*
X37401Y-17618D01*
X37204Y-17618D01*
X37204Y-12784D01*
X37204Y-12676D01*
X37204Y-12479D01*
X37204Y-12371D01*
X37180Y-12313D01*
X37135Y-12269D01*
X37077Y-12245D01*
X37015Y-12245D01*
X36870Y-12245D01*
X36830Y-12284D01*
X36830Y-12518D01*
X37164Y-12518D01*
X37204Y-12479D01*
X37204Y-12676D01*
X37164Y-12636D01*
X36830Y-12636D01*
X36830Y-12870D01*
X36870Y-12910D01*
X37015Y-12910D01*
X37077Y-12910D01*
X37135Y-12886D01*
X37180Y-12841D01*
X37204Y-12784D01*
X37204Y-17618D01*
X37184Y-17618D01*
X37184Y-13530D01*
X37184Y-13475D01*
X37184Y-13125D01*
X37163Y-13074D01*
X37124Y-13035D01*
X37074Y-13014D01*
X37019Y-13014D01*
X36712Y-13014D01*
X36712Y-12870D01*
X36712Y-12636D01*
X36712Y-12518D01*
X36712Y-12284D01*
X36673Y-12245D01*
X36527Y-12245D01*
X36465Y-12245D01*
X36407Y-12269D01*
X36363Y-12313D01*
X36339Y-12371D01*
X36339Y-12479D01*
X36378Y-12518D01*
X36712Y-12518D01*
X36712Y-12636D01*
X36378Y-12636D01*
X36339Y-12676D01*
X36339Y-12784D01*
X36363Y-12841D01*
X36407Y-12886D01*
X36465Y-12910D01*
X36527Y-12910D01*
X36673Y-12910D01*
X36712Y-12870D01*
X36712Y-13014D01*
X36469Y-13014D01*
X36418Y-13035D01*
X36379Y-13074D01*
X36358Y-13125D01*
X36358Y-13180D01*
X36358Y-13530D01*
X36379Y-13580D01*
X36418Y-13619D01*
X36469Y-13640D01*
X36524Y-13640D01*
X36535Y-13640D01*
X36535Y-14793D01*
X36506Y-14822D01*
X36458Y-14937D01*
X36458Y-15061D01*
X36506Y-15176D01*
X36594Y-15265D01*
X36709Y-15312D01*
X36833Y-15312D01*
X36948Y-15265D01*
X37036Y-15177D01*
X37084Y-15062D01*
X37084Y-14938D01*
X37036Y-14823D01*
X37007Y-14793D01*
X37007Y-13640D01*
X37074Y-13640D01*
X37124Y-13619D01*
X37163Y-13580D01*
X37184Y-13530D01*
X37184Y-17618D01*
X35365Y-17618D01*
X35365Y-13760D01*
X35365Y-13702D01*
X35365Y-13505D01*
X35365Y-13448D01*
X35341Y-13390D01*
X35297Y-13345D01*
X35239Y-13321D01*
X35176Y-13321D01*
X35056Y-13321D01*
X35017Y-13361D01*
X35017Y-13545D01*
X35326Y-13545D01*
X35365Y-13505D01*
X35365Y-13702D01*
X35326Y-13663D01*
X35017Y-13663D01*
X35017Y-13671D01*
X34899Y-13671D01*
X34899Y-13663D01*
X34899Y-13545D01*
X34899Y-13361D01*
X34859Y-13321D01*
X34739Y-13321D01*
X34676Y-13321D01*
X34619Y-13345D01*
X34574Y-13390D01*
X34550Y-13448D01*
X34550Y-13505D01*
X34590Y-13545D01*
X34899Y-13545D01*
X34899Y-13663D01*
X34590Y-13663D01*
X34550Y-13702D01*
X34550Y-13760D01*
X34574Y-13818D01*
X34619Y-13862D01*
X34626Y-13866D01*
X34591Y-13901D01*
X34570Y-13951D01*
X34570Y-14006D01*
X34570Y-14256D01*
X34591Y-14307D01*
X34630Y-14346D01*
X34649Y-14354D01*
X34630Y-14362D01*
X34591Y-14401D01*
X34570Y-14451D01*
X34570Y-14506D01*
X34570Y-14756D01*
X34591Y-14807D01*
X34630Y-14846D01*
X34649Y-14854D01*
X34630Y-14862D01*
X34591Y-14901D01*
X34570Y-14951D01*
X34570Y-15006D01*
X34570Y-15256D01*
X34591Y-15307D01*
X34630Y-15346D01*
X34649Y-15354D01*
X34630Y-15362D01*
X34591Y-15401D01*
X34570Y-15451D01*
X34570Y-15506D01*
X34570Y-15756D01*
X34591Y-15807D01*
X34630Y-15846D01*
X34649Y-15854D01*
X34630Y-15862D01*
X34591Y-15901D01*
X34570Y-15951D01*
X34570Y-16006D01*
X34570Y-16256D01*
X34591Y-16307D01*
X34630Y-16346D01*
X34649Y-16354D01*
X34630Y-16362D01*
X34591Y-16401D01*
X34570Y-16451D01*
X34570Y-16506D01*
X34570Y-16756D01*
X34591Y-16807D01*
X34630Y-16846D01*
X34649Y-16854D01*
X34630Y-16862D01*
X34591Y-16901D01*
X34570Y-16951D01*
X34570Y-17006D01*
X34570Y-17256D01*
X34591Y-17307D01*
X34630Y-17346D01*
X34680Y-17367D01*
X34735Y-17367D01*
X35235Y-17367D01*
X35286Y-17346D01*
X35325Y-17307D01*
X35346Y-17256D01*
X35346Y-17201D01*
X35346Y-16951D01*
X35325Y-16901D01*
X35286Y-16862D01*
X35266Y-16854D01*
X35286Y-16846D01*
X35325Y-16807D01*
X35346Y-16756D01*
X35346Y-16701D01*
X35346Y-16451D01*
X35325Y-16401D01*
X35286Y-16362D01*
X35266Y-16354D01*
X35286Y-16346D01*
X35325Y-16307D01*
X35346Y-16256D01*
X35346Y-16201D01*
X35346Y-15951D01*
X35325Y-15901D01*
X35286Y-15862D01*
X35266Y-15854D01*
X35286Y-15846D01*
X35325Y-15807D01*
X35346Y-15756D01*
X35346Y-15701D01*
X35346Y-15451D01*
X35325Y-15401D01*
X35286Y-15362D01*
X35266Y-15354D01*
X35286Y-15346D01*
X35325Y-15307D01*
X35346Y-15256D01*
X35346Y-15201D01*
X35346Y-14951D01*
X35325Y-14901D01*
X35286Y-14862D01*
X35266Y-14854D01*
X35286Y-14846D01*
X35325Y-14807D01*
X35346Y-14756D01*
X35346Y-14701D01*
X35346Y-14451D01*
X35325Y-14401D01*
X35286Y-14362D01*
X35266Y-14354D01*
X35286Y-14346D01*
X35325Y-14307D01*
X35346Y-14256D01*
X35346Y-14201D01*
X35346Y-13951D01*
X35325Y-13901D01*
X35289Y-13866D01*
X35297Y-13862D01*
X35341Y-13818D01*
X35365Y-13760D01*
X35365Y-17618D01*
X34477Y-17618D01*
X34477Y-10156D01*
X34477Y-9969D01*
X34330Y-9969D01*
X34290Y-10008D01*
X34290Y-10069D01*
X34314Y-10127D01*
X34358Y-10171D01*
X34416Y-10195D01*
X34438Y-10195D01*
X34477Y-10156D01*
X34477Y-17618D01*
X34448Y-17618D01*
X34448Y-17618D01*
X33767Y-16937D01*
X33690Y-16886D01*
X33600Y-16868D01*
X33091Y-16868D01*
X33086Y-16862D01*
X33066Y-16854D01*
X33086Y-16846D01*
X33125Y-16807D01*
X33146Y-16756D01*
X33146Y-16701D01*
X33146Y-16451D01*
X33125Y-16401D01*
X33086Y-16362D01*
X33066Y-16354D01*
X33086Y-16346D01*
X33097Y-16335D01*
X33129Y-16367D01*
X33244Y-16415D01*
X33369Y-16415D01*
X33484Y-16367D01*
X33572Y-16279D01*
X33619Y-16164D01*
X33619Y-16040D01*
X33572Y-15925D01*
X33484Y-15837D01*
X33369Y-15789D01*
X33245Y-15789D01*
X33130Y-15837D01*
X33095Y-15871D01*
X33086Y-15862D01*
X33066Y-15854D01*
X33086Y-15846D01*
X33125Y-15807D01*
X33146Y-15756D01*
X33146Y-15701D01*
X33146Y-15451D01*
X33125Y-15401D01*
X33086Y-15362D01*
X33066Y-15354D01*
X33086Y-15346D01*
X33125Y-15307D01*
X33146Y-15256D01*
X33146Y-15201D01*
X33146Y-14951D01*
X33125Y-14901D01*
X33086Y-14862D01*
X33066Y-14854D01*
X33086Y-14846D01*
X33125Y-14807D01*
X33146Y-14756D01*
X33146Y-14701D01*
X33146Y-14451D01*
X33125Y-14401D01*
X33086Y-14362D01*
X33066Y-14354D01*
X33086Y-14346D01*
X33125Y-14307D01*
X33146Y-14256D01*
X33146Y-14201D01*
X33146Y-13951D01*
X33125Y-13901D01*
X33086Y-13862D01*
X33066Y-13854D01*
X33086Y-13846D01*
X33125Y-13807D01*
X33146Y-13756D01*
X33146Y-13701D01*
X33146Y-13451D01*
X33125Y-13401D01*
X33086Y-13362D01*
X33035Y-13341D01*
X32980Y-13341D01*
X32480Y-13341D01*
X32430Y-13362D01*
X32391Y-13401D01*
X32370Y-13451D01*
X32370Y-13506D01*
X32370Y-13756D01*
X32391Y-13807D01*
X32430Y-13846D01*
X32449Y-13854D01*
X32430Y-13862D01*
X32391Y-13901D01*
X32380Y-13927D01*
X32327Y-13927D01*
X32172Y-13772D01*
X32115Y-13733D01*
X32047Y-13720D01*
X30695Y-13720D01*
X30767Y-13690D01*
X30855Y-13602D01*
X30903Y-13487D01*
X30903Y-13363D01*
X30855Y-13248D01*
X30804Y-13196D01*
X30804Y-13036D01*
X30904Y-13036D01*
X30955Y-13015D01*
X30994Y-12976D01*
X31015Y-12926D01*
X31015Y-12871D01*
X31015Y-12621D01*
X30994Y-12570D01*
X30955Y-12531D01*
X30935Y-12523D01*
X30955Y-12515D01*
X30994Y-12476D01*
X31015Y-12426D01*
X31015Y-12371D01*
X31015Y-12121D01*
X30994Y-12070D01*
X30955Y-12031D01*
X30935Y-12023D01*
X30955Y-12015D01*
X30994Y-11976D01*
X31005Y-11948D01*
X31821Y-11948D01*
X31909Y-12036D01*
X32024Y-12084D01*
X32148Y-12084D01*
X32263Y-12036D01*
X32351Y-11949D01*
X32399Y-11834D01*
X32399Y-11709D01*
X32351Y-11594D01*
X32264Y-11506D01*
X32149Y-11458D01*
X32024Y-11458D01*
X31909Y-11506D01*
X31821Y-11594D01*
X31821Y-11594D01*
X31004Y-11594D01*
X30994Y-11570D01*
X30955Y-11531D01*
X30935Y-11523D01*
X30955Y-11515D01*
X30994Y-11476D01*
X31010Y-11437D01*
X31230Y-11437D01*
X31318Y-11524D01*
X31433Y-11572D01*
X31558Y-11572D01*
X31673Y-11525D01*
X31761Y-11437D01*
X31808Y-11322D01*
X31808Y-11197D01*
X31761Y-11082D01*
X31673Y-10994D01*
X31558Y-10947D01*
X31434Y-10946D01*
X31319Y-10994D01*
X31231Y-11082D01*
X31230Y-11082D01*
X30999Y-11082D01*
X30994Y-11070D01*
X30955Y-11031D01*
X30935Y-11023D01*
X30955Y-11015D01*
X30994Y-10976D01*
X31015Y-10926D01*
X31015Y-10871D01*
X31015Y-10621D01*
X30994Y-10570D01*
X30955Y-10531D01*
X30935Y-10523D01*
X30955Y-10515D01*
X30994Y-10476D01*
X31005Y-10450D01*
X31330Y-10450D01*
X31398Y-10437D01*
X31398Y-10437D01*
X31455Y-10398D01*
X32162Y-9692D01*
X32201Y-9634D01*
X32214Y-9566D01*
X32214Y-8833D01*
X32365Y-8681D01*
X32411Y-8700D01*
X32568Y-8700D01*
X32712Y-8641D01*
X32823Y-8530D01*
X32842Y-8484D01*
X34001Y-8484D01*
X34329Y-8812D01*
X34329Y-9254D01*
X34310Y-9301D01*
X34310Y-9356D01*
X34310Y-9612D01*
X34331Y-9663D01*
X34337Y-9669D01*
X34314Y-9692D01*
X34290Y-9750D01*
X34290Y-9811D01*
X34330Y-9850D01*
X34477Y-9850D01*
X34477Y-9843D01*
X34519Y-9843D01*
X34527Y-9850D01*
X34536Y-9850D01*
X34674Y-9850D01*
X34684Y-9850D01*
X34692Y-9843D01*
X34716Y-9843D01*
X34724Y-9850D01*
X34733Y-9850D01*
X34871Y-9850D01*
X34881Y-9850D01*
X34889Y-9843D01*
X34913Y-9843D01*
X34921Y-9850D01*
X34930Y-9850D01*
X35068Y-9850D01*
X35078Y-9850D01*
X35086Y-9843D01*
X35127Y-9843D01*
X35127Y-9850D01*
X35275Y-9850D01*
X35314Y-9811D01*
X35314Y-9750D01*
X35290Y-9692D01*
X35267Y-9669D01*
X35273Y-9663D01*
X35294Y-9612D01*
X35294Y-9557D01*
X35294Y-9301D01*
X35275Y-9254D01*
X35275Y-8882D01*
X35671Y-8486D01*
X35689Y-8529D01*
X35800Y-8640D01*
X35846Y-8659D01*
X35846Y-11058D01*
X35446Y-11458D01*
X35321Y-11458D01*
X35314Y-11461D01*
X35314Y-10069D01*
X35314Y-10008D01*
X35275Y-9969D01*
X35127Y-9969D01*
X35127Y-10156D01*
X35167Y-10195D01*
X35188Y-10195D01*
X35246Y-10171D01*
X35290Y-10127D01*
X35314Y-10069D01*
X35314Y-11461D01*
X35206Y-11506D01*
X35118Y-11594D01*
X35117Y-11597D01*
X35117Y-10069D01*
X35117Y-10008D01*
X35078Y-9969D01*
X35068Y-9969D01*
X34930Y-9969D01*
X34921Y-9969D01*
X34901Y-9988D01*
X34881Y-9969D01*
X34871Y-9969D01*
X34733Y-9969D01*
X34724Y-9969D01*
X34704Y-9988D01*
X34684Y-9969D01*
X34674Y-9969D01*
X34536Y-9969D01*
X34527Y-9969D01*
X34487Y-10008D01*
X34487Y-10069D01*
X34511Y-10127D01*
X34536Y-10152D01*
X34536Y-10156D01*
X34576Y-10195D01*
X34597Y-10195D01*
X34605Y-10192D01*
X34613Y-10195D01*
X34635Y-10195D01*
X34674Y-10156D01*
X34674Y-10152D01*
X34699Y-10127D01*
X34704Y-10116D01*
X34708Y-10127D01*
X34733Y-10152D01*
X34733Y-10156D01*
X34773Y-10195D01*
X34794Y-10195D01*
X34802Y-10192D01*
X34810Y-10195D01*
X34832Y-10195D01*
X34871Y-10156D01*
X34871Y-10152D01*
X34896Y-10127D01*
X34901Y-10116D01*
X34905Y-10127D01*
X34930Y-10152D01*
X34930Y-10156D01*
X34970Y-10195D01*
X34991Y-10195D01*
X34999Y-10192D01*
X35007Y-10195D01*
X35029Y-10195D01*
X35068Y-10156D01*
X35068Y-10152D01*
X35093Y-10127D01*
X35117Y-10069D01*
X35117Y-11597D01*
X35071Y-11709D01*
X35071Y-11833D01*
X35118Y-11948D01*
X35206Y-12036D01*
X35321Y-12084D01*
X35445Y-12084D01*
X35560Y-12036D01*
X35648Y-11949D01*
X35696Y-11834D01*
X35696Y-11709D01*
X35696Y-11709D01*
X36148Y-11257D01*
X36187Y-11199D01*
X36187Y-11199D01*
X36200Y-11131D01*
X36200Y-8659D01*
X36246Y-8641D01*
X36357Y-8530D01*
X36417Y-8385D01*
X36417Y-8229D01*
X36357Y-8084D01*
X36246Y-7973D01*
X36102Y-7913D01*
X36018Y-7913D01*
X36097Y-7834D01*
X37269Y-7834D01*
X37617Y-8182D01*
X37598Y-8228D01*
X37598Y-8385D01*
X37658Y-8529D01*
X37768Y-8640D01*
X37913Y-8700D01*
X38070Y-8700D01*
X38214Y-8641D01*
X38325Y-8530D01*
X38385Y-8385D01*
X38385Y-8229D01*
X38385Y-6103D01*
X38326Y-5958D01*
X38215Y-5847D01*
X38070Y-5787D01*
X37914Y-5787D01*
X37769Y-5847D01*
X37658Y-5957D01*
X37598Y-6102D01*
X37598Y-6259D01*
X37658Y-6403D01*
X37768Y-6514D01*
X37913Y-6574D01*
X38070Y-6574D01*
X38214Y-6515D01*
X38325Y-6404D01*
X38385Y-6259D01*
X38385Y-6103D01*
X38385Y-8229D01*
X38326Y-8084D01*
X38215Y-7973D01*
X38070Y-7913D01*
X37914Y-7913D01*
X37867Y-7932D01*
X37467Y-7532D01*
X37410Y-7493D01*
X37401Y-7492D01*
X37401Y-6103D01*
X37341Y-5958D01*
X37231Y-5847D01*
X37086Y-5787D01*
X36929Y-5787D01*
X36785Y-5847D01*
X36674Y-5957D01*
X36614Y-6102D01*
X36614Y-6259D01*
X36673Y-6403D01*
X36784Y-6514D01*
X36929Y-6574D01*
X37085Y-6574D01*
X37230Y-6515D01*
X37341Y-6404D01*
X37401Y-6259D01*
X37401Y-6103D01*
X37401Y-7492D01*
X37342Y-7480D01*
X36417Y-7480D01*
X36417Y-6103D01*
X36357Y-5958D01*
X36246Y-5847D01*
X36102Y-5787D01*
X35945Y-5787D01*
X35800Y-5847D01*
X35690Y-5957D01*
X35629Y-6102D01*
X35629Y-6259D01*
X35689Y-6403D01*
X35800Y-6514D01*
X35944Y-6574D01*
X36101Y-6574D01*
X36246Y-6515D01*
X36357Y-6404D01*
X36417Y-6259D01*
X36417Y-6103D01*
X36417Y-7480D01*
X36023Y-7480D01*
X35955Y-7493D01*
X35898Y-7532D01*
X34881Y-8549D01*
X34881Y-8532D01*
X34867Y-8465D01*
X34829Y-8407D01*
X33865Y-7443D01*
X33807Y-7405D01*
X33740Y-7391D01*
X32883Y-7391D01*
X32883Y-6103D01*
X32824Y-5958D01*
X32713Y-5847D01*
X32568Y-5787D01*
X32412Y-5787D01*
X32267Y-5847D01*
X32156Y-5957D01*
X32096Y-6102D01*
X32096Y-6259D01*
X32156Y-6403D01*
X32266Y-6514D01*
X32411Y-6574D01*
X32568Y-6574D01*
X32712Y-6515D01*
X32823Y-6404D01*
X32883Y-6259D01*
X32883Y-6103D01*
X32883Y-7391D01*
X31899Y-7391D01*
X31899Y-6103D01*
X31839Y-5958D01*
X31729Y-5847D01*
X31584Y-5787D01*
X31427Y-5787D01*
X31283Y-5847D01*
X31172Y-5957D01*
X31112Y-6102D01*
X31112Y-6259D01*
X31171Y-6403D01*
X31282Y-6514D01*
X31427Y-6574D01*
X31583Y-6574D01*
X31728Y-6515D01*
X31839Y-6404D01*
X31899Y-6259D01*
X31899Y-6103D01*
X31899Y-7391D01*
X31259Y-7391D01*
X31192Y-7405D01*
X31134Y-7443D01*
X30915Y-7662D01*
X30915Y-6103D01*
X30855Y-5958D01*
X30744Y-5847D01*
X30600Y-5787D01*
X30443Y-5787D01*
X30298Y-5847D01*
X30188Y-5957D01*
X30128Y-6102D01*
X30127Y-6259D01*
X30187Y-6403D01*
X30298Y-6514D01*
X30442Y-6574D01*
X30599Y-6574D01*
X30744Y-6515D01*
X30855Y-6404D01*
X30915Y-6259D01*
X30915Y-6103D01*
X30915Y-7662D01*
X30645Y-7932D01*
X30600Y-7913D01*
X30443Y-7913D01*
X30298Y-7973D01*
X30188Y-8083D01*
X30128Y-8228D01*
X30127Y-8385D01*
X30146Y-8431D01*
X29933Y-8644D01*
X29895Y-8701D01*
X29881Y-8769D01*
X29881Y-9665D01*
X29895Y-9733D01*
X29933Y-9790D01*
X30042Y-9898D01*
X30099Y-9937D01*
X30099Y-9937D01*
X30167Y-9950D01*
X30250Y-9950D01*
X30260Y-9976D01*
X30299Y-10015D01*
X30319Y-10023D01*
X30299Y-10031D01*
X30260Y-10070D01*
X30239Y-10121D01*
X30239Y-10176D01*
X30239Y-10426D01*
X30260Y-10476D01*
X30299Y-10515D01*
X30319Y-10523D01*
X30299Y-10531D01*
X30280Y-10551D01*
X30206Y-10551D01*
X30177Y-10522D01*
X30062Y-10474D01*
X29938Y-10474D01*
X29823Y-10522D01*
X29734Y-10609D01*
X29687Y-10724D01*
X29687Y-10766D01*
X29399Y-11053D01*
X29348Y-11130D01*
X29330Y-11220D01*
X29330Y-12146D01*
X28957Y-12519D01*
X28745Y-12519D01*
X28755Y-12515D01*
X28794Y-12476D01*
X28815Y-12426D01*
X28815Y-12371D01*
X28815Y-12121D01*
X28794Y-12070D01*
X28755Y-12031D01*
X28735Y-12023D01*
X28755Y-12015D01*
X28794Y-11976D01*
X28815Y-11926D01*
X28815Y-11871D01*
X28815Y-11621D01*
X28794Y-11570D01*
X28755Y-11531D01*
X28735Y-11523D01*
X28755Y-11515D01*
X28794Y-11476D01*
X28815Y-11426D01*
X28815Y-11371D01*
X28815Y-11121D01*
X28794Y-11070D01*
X28755Y-11031D01*
X28735Y-11023D01*
X28755Y-11015D01*
X28794Y-10976D01*
X28815Y-10926D01*
X28815Y-10871D01*
X28815Y-10621D01*
X28794Y-10570D01*
X28755Y-10531D01*
X28735Y-10523D01*
X28755Y-10515D01*
X28794Y-10476D01*
X28815Y-10426D01*
X28815Y-10371D01*
X28815Y-10121D01*
X28794Y-10070D01*
X28755Y-10031D01*
X28735Y-10023D01*
X28755Y-10015D01*
X28794Y-9976D01*
X28815Y-9926D01*
X28815Y-9871D01*
X28815Y-9621D01*
X28794Y-9570D01*
X28755Y-9531D01*
X28735Y-9523D01*
X28755Y-9515D01*
X28794Y-9476D01*
X28805Y-9450D01*
X28821Y-9450D01*
X28829Y-9468D01*
X28917Y-9556D01*
X29031Y-9604D01*
X29156Y-9604D01*
X29271Y-9556D01*
X29359Y-9468D01*
X29407Y-9353D01*
X29407Y-9229D01*
X29359Y-9114D01*
X29271Y-9026D01*
X29156Y-8978D01*
X29032Y-8978D01*
X28917Y-9026D01*
X28846Y-9096D01*
X28805Y-9096D01*
X28794Y-9070D01*
X28755Y-9031D01*
X28704Y-9010D01*
X28650Y-9010D01*
X28150Y-9010D01*
X28099Y-9031D01*
X28060Y-9070D01*
X28039Y-9121D01*
X28039Y-9176D01*
X28039Y-9426D01*
X28060Y-9476D01*
X28099Y-9515D01*
X28119Y-9523D01*
X28099Y-9531D01*
X28060Y-9570D01*
X28050Y-9596D01*
X27736Y-9596D01*
X27736Y-6823D01*
X27655Y-6628D01*
X27506Y-6478D01*
X27310Y-6397D01*
X27099Y-6397D01*
X26904Y-6478D01*
X26754Y-6627D01*
X26735Y-6673D01*
X26623Y-6562D01*
X26464Y-6496D01*
X26292Y-6495D01*
X26132Y-6561D01*
X26011Y-6683D01*
X25984Y-6747D01*
X25957Y-6684D01*
X25836Y-6562D01*
X25677Y-6496D01*
X25504Y-6495D01*
X25345Y-6561D01*
X25223Y-6683D01*
X25196Y-6747D01*
X25170Y-6684D01*
X25048Y-6562D01*
X24889Y-6496D01*
X24717Y-6495D01*
X24558Y-6561D01*
X24445Y-6673D01*
X24427Y-6628D01*
X24277Y-6478D01*
X24082Y-6397D01*
X23871Y-6397D01*
X23675Y-6478D01*
X23526Y-6627D01*
X23444Y-6822D01*
X23444Y-7034D01*
X23525Y-7229D01*
X23674Y-7379D01*
X23870Y-7460D01*
X24081Y-7460D01*
X24277Y-7379D01*
X24426Y-7230D01*
X24445Y-7184D01*
X24557Y-7296D01*
X24625Y-7324D01*
X24625Y-7367D01*
X24336Y-7657D01*
X23622Y-7657D01*
X23554Y-7670D01*
X23496Y-7709D01*
X22851Y-8354D01*
X22841Y-8339D01*
X22093Y-7591D01*
X22036Y-7552D01*
X21968Y-7539D01*
X21175Y-7539D01*
X21043Y-7406D01*
X21043Y-7324D01*
X21111Y-7296D01*
X21223Y-7184D01*
X21242Y-7229D01*
X21391Y-7379D01*
X21586Y-7460D01*
X21798Y-7460D01*
X21993Y-7379D01*
X22143Y-7230D01*
X22224Y-7035D01*
X22224Y-6823D01*
X22143Y-6628D01*
X21994Y-6478D01*
X21799Y-6397D01*
X21587Y-6397D01*
X21392Y-6478D01*
X21242Y-6627D01*
X21223Y-6673D01*
X21111Y-6562D01*
X20952Y-6496D01*
X20780Y-6495D01*
X20621Y-6561D01*
X20499Y-6683D01*
X20472Y-6747D01*
X20446Y-6684D01*
X20324Y-6562D01*
X20165Y-6496D01*
X19992Y-6495D01*
X19833Y-6561D01*
X19711Y-6683D01*
X19685Y-6747D01*
X19658Y-6684D01*
X19536Y-6562D01*
X19377Y-6496D01*
X19205Y-6495D01*
X19046Y-6561D01*
X18934Y-6673D01*
X18915Y-6628D01*
X18766Y-6478D01*
X18570Y-6397D01*
X18359Y-6397D01*
X18163Y-6478D01*
X18014Y-6627D01*
X17933Y-6822D01*
X17932Y-7034D01*
X18013Y-7229D01*
X18163Y-7379D01*
X18358Y-7460D01*
X18569Y-7460D01*
X18765Y-7379D01*
X18914Y-7230D01*
X18934Y-7184D01*
X19045Y-7296D01*
X19114Y-7324D01*
X19127Y-7390D01*
X19166Y-7448D01*
X19835Y-8117D01*
X19892Y-8155D01*
X19892Y-8155D01*
X19960Y-8169D01*
X20167Y-8169D01*
X20089Y-8247D01*
X20041Y-8362D01*
X20041Y-8487D01*
X20089Y-8602D01*
X20118Y-8631D01*
X20118Y-8888D01*
X20089Y-8917D01*
X20041Y-9031D01*
X20041Y-9156D01*
X20089Y-9271D01*
X20176Y-9359D01*
X20291Y-9407D01*
X20416Y-9407D01*
X20531Y-9359D01*
X20619Y-9271D01*
X20632Y-9241D01*
X20632Y-9274D01*
X20679Y-9389D01*
X20767Y-9477D01*
X20882Y-9525D01*
X21006Y-9525D01*
X21121Y-9477D01*
X21209Y-9390D01*
X21257Y-9275D01*
X21257Y-9150D01*
X21210Y-9035D01*
X21122Y-8947D01*
X21122Y-8947D01*
X21122Y-8650D01*
X21209Y-8563D01*
X21257Y-8448D01*
X21257Y-8323D01*
X21210Y-8208D01*
X21170Y-8169D01*
X21658Y-8169D01*
X22342Y-8852D01*
X22342Y-9063D01*
X22341Y-9065D01*
X22341Y-9120D01*
X22341Y-9376D01*
X22362Y-9426D01*
X22369Y-9433D01*
X22346Y-9456D01*
X22322Y-9514D01*
X22322Y-9575D01*
X22361Y-9614D01*
X22509Y-9614D01*
X22509Y-9606D01*
X22550Y-9606D01*
X22558Y-9614D01*
X22568Y-9614D01*
X22706Y-9614D01*
X22715Y-9614D01*
X22723Y-9606D01*
X22747Y-9606D01*
X22755Y-9614D01*
X22765Y-9614D01*
X22903Y-9614D01*
X22912Y-9614D01*
X22920Y-9606D01*
X22944Y-9606D01*
X22952Y-9614D01*
X22962Y-9614D01*
X23100Y-9614D01*
X23109Y-9614D01*
X23117Y-9606D01*
X23159Y-9606D01*
X23159Y-9614D01*
X23306Y-9614D01*
X23346Y-9575D01*
X23346Y-9514D01*
X23322Y-9456D01*
X23298Y-9433D01*
X23305Y-9426D01*
X23326Y-9376D01*
X23326Y-9321D01*
X23326Y-9202D01*
X23326Y-9200D01*
X23326Y-8774D01*
X23656Y-8444D01*
X25551Y-8444D01*
X25618Y-8431D01*
X25618Y-8431D01*
X25676Y-8392D01*
X26503Y-7566D01*
X26541Y-7508D01*
X26555Y-7440D01*
X26555Y-7324D01*
X26622Y-7296D01*
X26735Y-7184D01*
X26753Y-7229D01*
X26903Y-7379D01*
X27098Y-7460D01*
X27309Y-7460D01*
X27505Y-7379D01*
X27655Y-7230D01*
X27736Y-7035D01*
X27736Y-6823D01*
X27736Y-9596D01*
X26801Y-9596D01*
X26733Y-9609D01*
X26675Y-9648D01*
X26331Y-9992D01*
X26293Y-10050D01*
X26279Y-10118D01*
X26279Y-11624D01*
X26191Y-11712D01*
X26163Y-11779D01*
X25787Y-11402D01*
X25787Y-10944D01*
X25773Y-10877D01*
X25773Y-10877D01*
X25735Y-10819D01*
X24800Y-9885D01*
X24801Y-9760D01*
X24753Y-9645D01*
X24665Y-9557D01*
X24550Y-9510D01*
X24426Y-9509D01*
X24311Y-9557D01*
X24223Y-9645D01*
X24175Y-9760D01*
X24175Y-9884D01*
X24222Y-9999D01*
X24310Y-10087D01*
X24425Y-10135D01*
X24550Y-10135D01*
X24550Y-10135D01*
X25433Y-11018D01*
X25433Y-11476D01*
X25446Y-11544D01*
X25472Y-11583D01*
X25374Y-11624D01*
X25286Y-11712D01*
X25238Y-11827D01*
X25238Y-11951D01*
X25285Y-12066D01*
X25373Y-12154D01*
X25488Y-12202D01*
X25613Y-12202D01*
X25613Y-12202D01*
X25893Y-12482D01*
X25804Y-12482D01*
X25689Y-12529D01*
X25601Y-12617D01*
X25553Y-12732D01*
X25553Y-12857D01*
X25600Y-12972D01*
X25688Y-13060D01*
X25688Y-13060D01*
X25688Y-15984D01*
X25702Y-16052D01*
X25740Y-16109D01*
X26829Y-17198D01*
X26858Y-17217D01*
X26858Y-17225D01*
X26879Y-17275D01*
X26914Y-17311D01*
X26907Y-17314D01*
X26862Y-17358D01*
X26838Y-17416D01*
X26838Y-17474D01*
X26878Y-17513D01*
X27187Y-17513D01*
X27187Y-17505D01*
X27305Y-17505D01*
X27305Y-17513D01*
X27614Y-17513D01*
X27653Y-17474D01*
X27653Y-17416D01*
X27629Y-17358D01*
X27585Y-17314D01*
X27578Y-17311D01*
X27613Y-17275D01*
X27634Y-17225D01*
X27634Y-17170D01*
X27634Y-16920D01*
X27613Y-16869D01*
X27574Y-16831D01*
X27554Y-16822D01*
X27574Y-16814D01*
X27613Y-16775D01*
X27634Y-16725D01*
X27634Y-16670D01*
X27634Y-16420D01*
X27613Y-16369D01*
X27574Y-16331D01*
X27554Y-16322D01*
X27574Y-16314D01*
X27613Y-16275D01*
X27634Y-16225D01*
X27634Y-16170D01*
X27634Y-15920D01*
X27613Y-15869D01*
X27574Y-15831D01*
X27554Y-15822D01*
X27574Y-15814D01*
X27613Y-15775D01*
X27634Y-15725D01*
X27634Y-15670D01*
X27634Y-15420D01*
X27613Y-15369D01*
X27574Y-15331D01*
X27523Y-15310D01*
X27469Y-15310D01*
X27455Y-15310D01*
X27509Y-15256D01*
X27556Y-15141D01*
X27556Y-15016D01*
X27509Y-14901D01*
X27421Y-14813D01*
X27421Y-14813D01*
X27421Y-14207D01*
X27553Y-14074D01*
X31973Y-14074D01*
X32128Y-14229D01*
X32186Y-14268D01*
X32186Y-14268D01*
X32253Y-14281D01*
X32380Y-14281D01*
X32391Y-14307D01*
X32430Y-14346D01*
X32449Y-14354D01*
X32430Y-14362D01*
X32391Y-14401D01*
X32380Y-14427D01*
X32009Y-14427D01*
X31942Y-14440D01*
X31884Y-14479D01*
X30467Y-15895D01*
X29823Y-15895D01*
X29813Y-15869D01*
X29778Y-15834D01*
X29785Y-15831D01*
X29829Y-15787D01*
X29853Y-15729D01*
X29853Y-15671D01*
X29853Y-15474D01*
X29853Y-15416D01*
X29829Y-15358D01*
X29785Y-15314D01*
X29727Y-15290D01*
X29665Y-15290D01*
X29544Y-15290D01*
X29505Y-15329D01*
X29505Y-15513D01*
X29814Y-15513D01*
X29853Y-15474D01*
X29853Y-15671D01*
X29814Y-15631D01*
X29505Y-15631D01*
X29505Y-15639D01*
X29387Y-15639D01*
X29387Y-15631D01*
X29387Y-15513D01*
X29387Y-15329D01*
X29348Y-15290D01*
X29227Y-15290D01*
X29165Y-15290D01*
X29107Y-15314D01*
X29062Y-15358D01*
X29038Y-15416D01*
X29038Y-15474D01*
X29078Y-15513D01*
X29387Y-15513D01*
X29387Y-15631D01*
X29078Y-15631D01*
X29038Y-15671D01*
X29038Y-15729D01*
X29062Y-15787D01*
X29107Y-15831D01*
X29114Y-15834D01*
X29079Y-15869D01*
X29068Y-15895D01*
X28887Y-15895D01*
X28819Y-15909D01*
X28762Y-15947D01*
X28181Y-16528D01*
X28143Y-16585D01*
X28129Y-16653D01*
X28129Y-17367D01*
X27877Y-17620D01*
X27792Y-17620D01*
X27677Y-17667D01*
X27653Y-17691D01*
X27653Y-17671D01*
X27614Y-17631D01*
X27305Y-17631D01*
X27305Y-17639D01*
X27187Y-17639D01*
X27187Y-17631D01*
X26878Y-17631D01*
X26838Y-17671D01*
X26838Y-17729D01*
X26862Y-17787D01*
X26907Y-17831D01*
X26914Y-17834D01*
X26879Y-17869D01*
X26858Y-17920D01*
X26858Y-17975D01*
X26858Y-18225D01*
X26879Y-18275D01*
X26918Y-18314D01*
X26938Y-18322D01*
X26918Y-18331D01*
X26879Y-18369D01*
X26858Y-18420D01*
X26858Y-18475D01*
X26858Y-18725D01*
X26879Y-18775D01*
X26918Y-18814D01*
X26938Y-18822D01*
X26918Y-18831D01*
X26912Y-18836D01*
X26257Y-18836D01*
X26257Y-18048D01*
X26210Y-17933D01*
X26122Y-17845D01*
X26007Y-17797D01*
X25882Y-17797D01*
X25882Y-17797D01*
X25799Y-17714D01*
X25865Y-17686D01*
X25953Y-17598D01*
X26001Y-17483D01*
X26001Y-17359D01*
X25954Y-17244D01*
X25866Y-17156D01*
X25751Y-17108D01*
X25627Y-17108D01*
X25626Y-17108D01*
X25489Y-16971D01*
X25490Y-16847D01*
X25442Y-16732D01*
X25354Y-16644D01*
X25239Y-16596D01*
X25115Y-16596D01*
X25000Y-16644D01*
X24912Y-16732D01*
X24884Y-16799D01*
X24190Y-16105D01*
X24190Y-15981D01*
X24143Y-15866D01*
X24055Y-15778D01*
X23940Y-15730D01*
X23816Y-15730D01*
X23701Y-15777D01*
X23612Y-15865D01*
X23565Y-15980D01*
X23565Y-16105D01*
X23612Y-16220D01*
X23700Y-16308D01*
X23815Y-16356D01*
X23939Y-16356D01*
X23940Y-16356D01*
X24605Y-17021D01*
X24530Y-16990D01*
X24406Y-16990D01*
X24291Y-17037D01*
X24203Y-17125D01*
X24155Y-17240D01*
X24155Y-17365D01*
X24203Y-17480D01*
X24291Y-17568D01*
X24291Y-17568D01*
X24291Y-17952D01*
X24304Y-18020D01*
X24343Y-18078D01*
X24451Y-18185D01*
X24450Y-18309D01*
X24498Y-18424D01*
X24586Y-18513D01*
X24701Y-18560D01*
X24825Y-18560D01*
X24940Y-18513D01*
X25028Y-18425D01*
X25076Y-18310D01*
X25076Y-18186D01*
X25029Y-18071D01*
X24941Y-17983D01*
X24826Y-17935D01*
X24701Y-17935D01*
X24701Y-17935D01*
X24645Y-17879D01*
X24645Y-17568D01*
X24733Y-17480D01*
X24781Y-17365D01*
X24781Y-17241D01*
X24750Y-17166D01*
X25632Y-18048D01*
X25632Y-18172D01*
X25679Y-18287D01*
X25767Y-18375D01*
X25882Y-18422D01*
X26006Y-18423D01*
X26121Y-18375D01*
X26209Y-18287D01*
X26257Y-18172D01*
X26257Y-18048D01*
X26257Y-18836D01*
X24942Y-18836D01*
X24852Y-18854D01*
X24775Y-18905D01*
X24368Y-19313D01*
X24347Y-19313D01*
X24232Y-19360D01*
X24144Y-19448D01*
X24114Y-19521D01*
X24114Y-17007D01*
X24100Y-16940D01*
X24100Y-16940D01*
X24062Y-16882D01*
X23668Y-16488D01*
X23611Y-16450D01*
X23543Y-16437D01*
X23416Y-16437D01*
X23416Y-16339D01*
X23395Y-16288D01*
X23356Y-16249D01*
X23305Y-16228D01*
X23251Y-16228D01*
X23001Y-16228D01*
X22950Y-16249D01*
X22911Y-16288D01*
X22903Y-16308D01*
X22895Y-16288D01*
X22856Y-16249D01*
X22805Y-16228D01*
X22751Y-16228D01*
X22501Y-16228D01*
X22450Y-16249D01*
X22411Y-16288D01*
X22403Y-16308D01*
X22395Y-16288D01*
X22356Y-16249D01*
X22330Y-16238D01*
X22330Y-16187D01*
X23432Y-15085D01*
X23470Y-15028D01*
X23470Y-15028D01*
X23477Y-14996D01*
X23494Y-15039D01*
X23582Y-15127D01*
X23697Y-15174D01*
X23821Y-15175D01*
X23936Y-15127D01*
X24024Y-15039D01*
X24072Y-14924D01*
X24072Y-14800D01*
X24072Y-14800D01*
X24248Y-14623D01*
X24372Y-14623D01*
X24487Y-14576D01*
X24576Y-14488D01*
X24623Y-14373D01*
X24623Y-14249D01*
X24576Y-14134D01*
X24488Y-14046D01*
X24373Y-13998D01*
X24249Y-13998D01*
X24134Y-14045D01*
X24046Y-14133D01*
X23998Y-14248D01*
X23998Y-14372D01*
X23998Y-14373D01*
X23822Y-14549D01*
X23697Y-14549D01*
X23651Y-14568D01*
X23659Y-14550D01*
X23659Y-14426D01*
X23611Y-14311D01*
X23523Y-14223D01*
X23408Y-14175D01*
X23284Y-14175D01*
X23169Y-14222D01*
X23081Y-14310D01*
X23033Y-14425D01*
X23033Y-14550D01*
X23081Y-14665D01*
X23129Y-14714D01*
X23129Y-14887D01*
X22028Y-15988D01*
X21989Y-16046D01*
X21976Y-16114D01*
X21976Y-16238D01*
X21950Y-16249D01*
X21911Y-16288D01*
X21903Y-16308D01*
X21895Y-16288D01*
X21856Y-16249D01*
X21805Y-16228D01*
X21751Y-16228D01*
X21501Y-16228D01*
X21450Y-16249D01*
X21411Y-16288D01*
X21403Y-16308D01*
X21395Y-16288D01*
X21356Y-16249D01*
X21330Y-16238D01*
X21330Y-16085D01*
X21866Y-15548D01*
X21991Y-15549D01*
X22106Y-15501D01*
X22194Y-15413D01*
X22241Y-15298D01*
X22241Y-15174D01*
X22194Y-15059D01*
X22106Y-14971D01*
X21991Y-14923D01*
X21867Y-14923D01*
X21752Y-14970D01*
X21664Y-15058D01*
X21616Y-15173D01*
X21616Y-15298D01*
X21616Y-15298D01*
X21028Y-15886D01*
X20989Y-15944D01*
X20976Y-16011D01*
X20976Y-16238D01*
X20950Y-16249D01*
X20911Y-16288D01*
X20903Y-16308D01*
X20895Y-16288D01*
X20856Y-16249D01*
X20830Y-16238D01*
X20830Y-15246D01*
X21936Y-14141D01*
X21974Y-14083D01*
X21974Y-14083D01*
X21988Y-14015D01*
X21988Y-13572D01*
X22076Y-13484D01*
X22123Y-13369D01*
X22123Y-13245D01*
X22076Y-13130D01*
X21988Y-13042D01*
X21873Y-12994D01*
X21749Y-12994D01*
X21634Y-13041D01*
X21546Y-13129D01*
X21498Y-13244D01*
X21498Y-13369D01*
X21545Y-13484D01*
X21633Y-13572D01*
X21633Y-13572D01*
X21633Y-13632D01*
X21555Y-13553D01*
X21440Y-13506D01*
X21316Y-13506D01*
X21201Y-13553D01*
X21112Y-13641D01*
X21112Y-13641D01*
X20619Y-13641D01*
X20531Y-13553D01*
X20416Y-13506D01*
X20292Y-13506D01*
X20177Y-13553D01*
X20089Y-13641D01*
X20041Y-13756D01*
X20041Y-13880D01*
X20089Y-13995D01*
X20176Y-14083D01*
X20291Y-14131D01*
X20416Y-14131D01*
X20531Y-14084D01*
X20619Y-13996D01*
X20619Y-13996D01*
X21112Y-13996D01*
X21200Y-14083D01*
X21315Y-14131D01*
X21439Y-14131D01*
X21447Y-14128D01*
X20528Y-15047D01*
X20489Y-15105D01*
X20476Y-15173D01*
X20476Y-16238D01*
X20450Y-16249D01*
X20415Y-16284D01*
X20412Y-16277D01*
X20367Y-16233D01*
X20309Y-16209D01*
X20251Y-16209D01*
X20212Y-16248D01*
X20212Y-16557D01*
X20220Y-16557D01*
X20220Y-16675D01*
X20212Y-16675D01*
X20212Y-16683D01*
X20094Y-16683D01*
X20094Y-16675D01*
X20094Y-16557D01*
X20094Y-16248D01*
X20055Y-16209D01*
X19997Y-16209D01*
X19939Y-16233D01*
X19895Y-16277D01*
X19871Y-16335D01*
X19871Y-16397D01*
X19871Y-16518D01*
X19910Y-16557D01*
X20094Y-16557D01*
X20094Y-16675D01*
X19910Y-16675D01*
X19871Y-16714D01*
X19871Y-16835D01*
X19871Y-16897D01*
X19875Y-16909D01*
X19719Y-16909D01*
X18394Y-15585D01*
X18337Y-15546D01*
X18269Y-15533D01*
X16674Y-15533D01*
X16663Y-15507D01*
X16624Y-15468D01*
X16605Y-15460D01*
X16624Y-15452D01*
X16663Y-15413D01*
X16674Y-15387D01*
X17271Y-15387D01*
X17274Y-15393D01*
X17361Y-15481D01*
X17476Y-15529D01*
X17601Y-15529D01*
X17716Y-15481D01*
X17804Y-15393D01*
X17852Y-15279D01*
X17852Y-15154D01*
X17804Y-15039D01*
X17716Y-14951D01*
X17601Y-14903D01*
X17477Y-14903D01*
X17362Y-14951D01*
X17280Y-15033D01*
X16674Y-15033D01*
X16663Y-15007D01*
X16624Y-14968D01*
X16605Y-14960D01*
X16624Y-14952D01*
X16663Y-14913D01*
X16684Y-14863D01*
X16684Y-14808D01*
X16684Y-14558D01*
X16663Y-14507D01*
X16624Y-14468D01*
X16605Y-14460D01*
X16624Y-14452D01*
X16663Y-14413D01*
X16684Y-14363D01*
X16684Y-14308D01*
X16684Y-14058D01*
X16663Y-14007D01*
X16624Y-13968D01*
X16605Y-13960D01*
X16624Y-13952D01*
X16663Y-13913D01*
X16674Y-13887D01*
X16890Y-13887D01*
X16968Y-13965D01*
X17083Y-14013D01*
X17207Y-14013D01*
X17322Y-13966D01*
X17410Y-13878D01*
X17458Y-13763D01*
X17458Y-13653D01*
X18092Y-14288D01*
X18092Y-14412D01*
X18140Y-14527D01*
X18228Y-14615D01*
X18343Y-14663D01*
X18467Y-14663D01*
X18582Y-14615D01*
X18670Y-14527D01*
X18718Y-14412D01*
X18718Y-14288D01*
X18670Y-14173D01*
X18582Y-14085D01*
X18468Y-14037D01*
X18343Y-14037D01*
X18343Y-14037D01*
X17263Y-12958D01*
X17263Y-12775D01*
X17250Y-12707D01*
X17250Y-12707D01*
X17211Y-12650D01*
X17025Y-12463D01*
X17025Y-12339D01*
X16977Y-12224D01*
X16890Y-12136D01*
X16775Y-12088D01*
X16650Y-12088D01*
X16535Y-12136D01*
X16535Y-12136D01*
X16535Y-10875D01*
X16564Y-10846D01*
X16611Y-10731D01*
X16612Y-10607D01*
X16564Y-10492D01*
X16535Y-10463D01*
X16535Y-9714D01*
X16544Y-9704D01*
X16592Y-9590D01*
X16592Y-9465D01*
X16544Y-9350D01*
X16456Y-9262D01*
X16342Y-9214D01*
X16217Y-9214D01*
X16102Y-9262D01*
X16014Y-9350D01*
X15966Y-9465D01*
X15966Y-9589D01*
X16014Y-9704D01*
X16062Y-9753D01*
X16062Y-10463D01*
X16034Y-10491D01*
X15986Y-10606D01*
X15986Y-10731D01*
X16033Y-10846D01*
X16062Y-10875D01*
X16062Y-12947D01*
X16019Y-12947D01*
X15968Y-12968D01*
X15930Y-13007D01*
X15909Y-13058D01*
X15909Y-13113D01*
X15909Y-13363D01*
X15930Y-13413D01*
X15968Y-13452D01*
X15988Y-13460D01*
X15968Y-13468D01*
X15930Y-13507D01*
X15909Y-13558D01*
X15909Y-13613D01*
X15909Y-13863D01*
X15930Y-13913D01*
X15968Y-13952D01*
X15988Y-13960D01*
X15968Y-13968D01*
X15967Y-13970D01*
X15945Y-13947D01*
X15830Y-13899D01*
X15705Y-13899D01*
X15667Y-13915D01*
X15667Y-11473D01*
X15619Y-11358D01*
X15531Y-11270D01*
X15531Y-11270D01*
X15531Y-10324D01*
X15599Y-10256D01*
X15647Y-10141D01*
X15647Y-10016D01*
X15599Y-9901D01*
X15512Y-9813D01*
X15397Y-9765D01*
X15272Y-9765D01*
X15157Y-9813D01*
X15069Y-9901D01*
X15058Y-9928D01*
X15058Y-7874D01*
X14998Y-7572D01*
X14827Y-7317D01*
X14572Y-7146D01*
X14270Y-7086D01*
X13878Y-7086D01*
X13577Y-7146D01*
X13321Y-7317D01*
X13151Y-7572D01*
X13091Y-7874D01*
X13151Y-8175D01*
X13321Y-8430D01*
X13577Y-8601D01*
X13878Y-8661D01*
X14270Y-8661D01*
X14572Y-8601D01*
X14827Y-8430D01*
X14998Y-8175D01*
X15058Y-7874D01*
X15058Y-9928D01*
X15021Y-10016D01*
X15021Y-10140D01*
X15069Y-10255D01*
X15157Y-10343D01*
X15177Y-10352D01*
X15177Y-11270D01*
X15089Y-11358D01*
X15041Y-11472D01*
X15041Y-11597D01*
X15089Y-11712D01*
X15176Y-11800D01*
X15291Y-11848D01*
X15416Y-11848D01*
X15531Y-11800D01*
X15619Y-11712D01*
X15667Y-11597D01*
X15667Y-11473D01*
X15667Y-13915D01*
X15590Y-13947D01*
X15502Y-14035D01*
X15454Y-14150D01*
X15454Y-14274D01*
X15502Y-14389D01*
X15590Y-14477D01*
X15705Y-14525D01*
X15829Y-14525D01*
X15944Y-14477D01*
X15969Y-14452D01*
X15988Y-14460D01*
X15968Y-14468D01*
X15930Y-14507D01*
X15913Y-14547D01*
X15807Y-14547D01*
X15739Y-14560D01*
X15681Y-14599D01*
X15652Y-14628D01*
X15528Y-14628D01*
X15413Y-14675D01*
X15325Y-14763D01*
X15277Y-14878D01*
X15277Y-15002D01*
X15325Y-15117D01*
X15413Y-15205D01*
X15466Y-15228D01*
X15017Y-15676D01*
X15017Y-15666D01*
X14970Y-15551D01*
X14882Y-15463D01*
X14767Y-15415D01*
X14642Y-15415D01*
X14527Y-15463D01*
X14469Y-15521D01*
X14463Y-15507D01*
X14424Y-15468D01*
X14405Y-15460D01*
X14424Y-15452D01*
X14463Y-15413D01*
X14484Y-15363D01*
X14484Y-15308D01*
X14484Y-15058D01*
X14463Y-15007D01*
X14424Y-14968D01*
X14405Y-14960D01*
X14424Y-14952D01*
X14463Y-14913D01*
X14478Y-14876D01*
X14491Y-14874D01*
X14491Y-14874D01*
X14548Y-14835D01*
X15400Y-13983D01*
X15439Y-13926D01*
X15452Y-13858D01*
X15452Y-13532D01*
X15540Y-13445D01*
X15588Y-13330D01*
X15588Y-13205D01*
X15540Y-13090D01*
X15453Y-13002D01*
X15338Y-12954D01*
X15213Y-12954D01*
X15098Y-13002D01*
X15010Y-13090D01*
X14962Y-13205D01*
X14962Y-13329D01*
X15010Y-13444D01*
X15098Y-13532D01*
X15098Y-13532D01*
X15098Y-13784D01*
X14417Y-14465D01*
X14405Y-14460D01*
X14424Y-14452D01*
X14463Y-14413D01*
X14484Y-14363D01*
X14484Y-14308D01*
X14484Y-14058D01*
X14463Y-14007D01*
X14424Y-13968D01*
X14405Y-13960D01*
X14424Y-13952D01*
X14463Y-13913D01*
X14484Y-13863D01*
X14484Y-13808D01*
X14484Y-13558D01*
X14463Y-13507D01*
X14424Y-13468D01*
X14405Y-13460D01*
X14424Y-13452D01*
X14463Y-13413D01*
X14484Y-13363D01*
X14484Y-13308D01*
X14484Y-13058D01*
X14463Y-13007D01*
X14424Y-12968D01*
X14374Y-12947D01*
X14319Y-12947D01*
X14274Y-12947D01*
X14274Y-12885D01*
X14581Y-12578D01*
X14715Y-12578D01*
X14802Y-12666D01*
X14917Y-12714D01*
X15042Y-12714D01*
X15157Y-12666D01*
X15245Y-12578D01*
X15293Y-12464D01*
X15293Y-12339D01*
X15245Y-12224D01*
X15157Y-12136D01*
X15042Y-12088D01*
X14918Y-12088D01*
X14803Y-12136D01*
X14715Y-12224D01*
X14715Y-12224D01*
X14507Y-12224D01*
X14440Y-12237D01*
X14382Y-12276D01*
X13971Y-12687D01*
X13933Y-12744D01*
X13919Y-12812D01*
X13919Y-12947D01*
X13819Y-12947D01*
X13818Y-12948D01*
X13818Y-12431D01*
X13818Y-12323D01*
X13818Y-12126D01*
X13818Y-12019D01*
X13794Y-11961D01*
X13750Y-11916D01*
X13692Y-11892D01*
X13629Y-11892D01*
X13484Y-11892D01*
X13444Y-11932D01*
X13444Y-12166D01*
X13778Y-12166D01*
X13818Y-12126D01*
X13818Y-12323D01*
X13778Y-12284D01*
X13444Y-12284D01*
X13444Y-12518D01*
X13484Y-12557D01*
X13629Y-12557D01*
X13692Y-12557D01*
X13750Y-12533D01*
X13794Y-12489D01*
X13818Y-12431D01*
X13818Y-12948D01*
X13768Y-12968D01*
X13730Y-13007D01*
X13709Y-13058D01*
X13709Y-13113D01*
X13709Y-13363D01*
X13730Y-13413D01*
X13768Y-13452D01*
X13788Y-13460D01*
X13768Y-13468D01*
X13730Y-13507D01*
X13723Y-13523D01*
X13582Y-13523D01*
X13514Y-13537D01*
X13457Y-13575D01*
X13326Y-13706D01*
X13326Y-12518D01*
X13326Y-12284D01*
X13326Y-12166D01*
X13326Y-11932D01*
X13287Y-11892D01*
X13142Y-11892D01*
X13079Y-11892D01*
X13021Y-11916D01*
X12977Y-11961D01*
X12953Y-12019D01*
X12953Y-12126D01*
X12992Y-12166D01*
X13326Y-12166D01*
X13326Y-12284D01*
X12992Y-12284D01*
X12953Y-12323D01*
X12953Y-12431D01*
X12977Y-12489D01*
X13021Y-12533D01*
X13079Y-12557D01*
X13142Y-12557D01*
X13287Y-12557D01*
X13326Y-12518D01*
X13326Y-13706D01*
X13103Y-13929D01*
X13064Y-13987D01*
X13051Y-14055D01*
X13051Y-14881D01*
X13064Y-14949D01*
X13103Y-15007D01*
X13418Y-15322D01*
X13475Y-15360D01*
X13475Y-15360D01*
X13543Y-15374D01*
X13713Y-15374D01*
X13730Y-15413D01*
X13768Y-15452D01*
X13788Y-15460D01*
X13768Y-15468D01*
X13730Y-15507D01*
X13709Y-15558D01*
X13709Y-15613D01*
X13709Y-15863D01*
X13730Y-15913D01*
X13768Y-15952D01*
X13788Y-15960D01*
X13768Y-15968D01*
X13730Y-16007D01*
X13709Y-16058D01*
X13709Y-16113D01*
X13709Y-16363D01*
X13730Y-16413D01*
X13765Y-16448D01*
X13757Y-16452D01*
X13713Y-16496D01*
X13689Y-16554D01*
X13689Y-16612D01*
X13728Y-16651D01*
X14037Y-16651D01*
X14037Y-16643D01*
X14155Y-16643D01*
X14155Y-16651D01*
X14464Y-16651D01*
X14504Y-16612D01*
X14504Y-16554D01*
X14480Y-16496D01*
X14436Y-16452D01*
X14428Y-16448D01*
X14463Y-16413D01*
X14470Y-16397D01*
X14724Y-16397D01*
X14792Y-16384D01*
X14792Y-16384D01*
X14849Y-16345D01*
X15280Y-15915D01*
X15325Y-16023D01*
X15413Y-16111D01*
X15528Y-16159D01*
X15652Y-16159D01*
X15652Y-16159D01*
X15839Y-16345D01*
X15896Y-16384D01*
X15896Y-16384D01*
X15919Y-16388D01*
X15919Y-16388D01*
X15930Y-16413D01*
X15968Y-16452D01*
X15988Y-16460D01*
X15968Y-16468D01*
X15930Y-16507D01*
X15909Y-16558D01*
X15909Y-16613D01*
X15909Y-16863D01*
X15930Y-16913D01*
X15968Y-16952D01*
X16019Y-16973D01*
X16074Y-16973D01*
X16309Y-16973D01*
X16424Y-17088D01*
X16316Y-17088D01*
X16201Y-17136D01*
X16112Y-17224D01*
X16112Y-17224D01*
X14792Y-17224D01*
X14704Y-17136D01*
X14590Y-17088D01*
X14504Y-17088D01*
X14504Y-16866D01*
X14504Y-16809D01*
X14464Y-16769D01*
X14155Y-16769D01*
X14155Y-16953D01*
X14195Y-16993D01*
X14315Y-16993D01*
X14378Y-16993D01*
X14436Y-16969D01*
X14480Y-16924D01*
X14504Y-16866D01*
X14504Y-17088D01*
X14465Y-17088D01*
X14350Y-17136D01*
X14262Y-17224D01*
X14214Y-17339D01*
X14214Y-17463D01*
X14262Y-17578D01*
X14350Y-17666D01*
X14465Y-17714D01*
X14589Y-17714D01*
X14704Y-17666D01*
X14792Y-17578D01*
X14792Y-17578D01*
X15699Y-17578D01*
X15679Y-17598D01*
X15632Y-17713D01*
X15632Y-17837D01*
X15679Y-17952D01*
X15767Y-18040D01*
X15882Y-18088D01*
X16006Y-18088D01*
X16007Y-18088D01*
X16835Y-18916D01*
X16794Y-18899D01*
X16670Y-18899D01*
X16555Y-18947D01*
X16467Y-19035D01*
X16419Y-19150D01*
X16419Y-19196D01*
X16009Y-19606D01*
X15076Y-19606D01*
X15115Y-19511D01*
X15115Y-19386D01*
X15076Y-19291D01*
X15108Y-19291D01*
X15196Y-19379D01*
X15311Y-19426D01*
X15435Y-19427D01*
X15550Y-19379D01*
X15639Y-19291D01*
X15686Y-19176D01*
X15686Y-19052D01*
X15639Y-18937D01*
X15551Y-18849D01*
X15436Y-18801D01*
X15312Y-18801D01*
X15197Y-18848D01*
X15108Y-18936D01*
X15108Y-18937D01*
X14037Y-18937D01*
X14037Y-16953D01*
X14037Y-16769D01*
X13728Y-16769D01*
X13689Y-16809D01*
X13689Y-16866D01*
X13713Y-16924D01*
X13757Y-16969D01*
X13815Y-16993D01*
X13878Y-16993D01*
X13998Y-16993D01*
X14037Y-16953D01*
X14037Y-18937D01*
X13622Y-18937D01*
X11963Y-18937D01*
X11356Y-18329D01*
X11356Y-18205D01*
X11350Y-18190D01*
X11350Y-12323D01*
X11350Y-12265D01*
X11310Y-12226D01*
X11001Y-12226D01*
X11001Y-12410D01*
X11040Y-12449D01*
X11161Y-12449D01*
X11223Y-12449D01*
X11281Y-12425D01*
X11326Y-12381D01*
X11350Y-12323D01*
X11350Y-18190D01*
X11308Y-18090D01*
X11220Y-18002D01*
X11105Y-17954D01*
X10981Y-17954D01*
X10883Y-17995D01*
X10883Y-12410D01*
X10883Y-12226D01*
X10574Y-12226D01*
X10535Y-12265D01*
X10535Y-12323D01*
X10559Y-12381D01*
X10603Y-12425D01*
X10661Y-12449D01*
X10723Y-12449D01*
X10844Y-12449D01*
X10883Y-12410D01*
X10883Y-17995D01*
X10866Y-18002D01*
X10778Y-18090D01*
X10730Y-18205D01*
X10730Y-18329D01*
X10777Y-18444D01*
X10865Y-18532D01*
X10980Y-18580D01*
X11105Y-18580D01*
X11105Y-18580D01*
X11764Y-19239D01*
X11821Y-19277D01*
X11821Y-19277D01*
X11889Y-19291D01*
X12128Y-19291D01*
X12088Y-19386D01*
X12088Y-19510D01*
X12128Y-19606D01*
X9310Y-19606D01*
X7519Y-17628D01*
X7519Y-15295D01*
X7506Y-15227D01*
X7467Y-15170D01*
X5531Y-13233D01*
X5531Y-9994D01*
X6648Y-8877D01*
X7244Y-8877D01*
X7311Y-8864D01*
X7311Y-8864D01*
X7369Y-8826D01*
X8078Y-8117D01*
X8116Y-8059D01*
X8129Y-7992D01*
X8129Y-7632D01*
X10112Y-5649D01*
X11929Y-5649D01*
X11861Y-5663D01*
X11803Y-5701D01*
X11410Y-6094D01*
X11287Y-6043D01*
X11075Y-6043D01*
X10880Y-6123D01*
X10730Y-6273D01*
X10688Y-6374D01*
X10647Y-6274D01*
X10498Y-6124D01*
X10303Y-6043D01*
X10091Y-6043D01*
X9896Y-6123D01*
X9746Y-6273D01*
X9665Y-6468D01*
X9665Y-6680D01*
X9746Y-6875D01*
X9895Y-7025D01*
X10090Y-7106D01*
X10302Y-7106D01*
X10497Y-7025D01*
X10647Y-6876D01*
X10688Y-6775D01*
X10730Y-6875D01*
X10879Y-7025D01*
X11003Y-7076D01*
X11003Y-8371D01*
X10255Y-9120D01*
X10255Y-7874D01*
X10195Y-7572D01*
X10024Y-7317D01*
X9769Y-7146D01*
X9467Y-7086D01*
X9075Y-7086D01*
X8774Y-7146D01*
X8518Y-7317D01*
X8348Y-7572D01*
X8288Y-7874D01*
X8348Y-8175D01*
X8518Y-8430D01*
X8774Y-8601D01*
X9075Y-8661D01*
X9467Y-8661D01*
X9769Y-8601D01*
X10024Y-8430D01*
X10195Y-8175D01*
X10255Y-7874D01*
X10255Y-9120D01*
X9387Y-9987D01*
X9387Y-9288D01*
X9340Y-9173D01*
X9252Y-9085D01*
X9137Y-9037D01*
X9012Y-9037D01*
X8897Y-9085D01*
X8809Y-9172D01*
X8809Y-9173D01*
X6633Y-9173D01*
X6566Y-9186D01*
X6508Y-9225D01*
X5701Y-10032D01*
X5663Y-10089D01*
X5649Y-10157D01*
X5649Y-13070D01*
X5663Y-13138D01*
X5701Y-13196D01*
X7736Y-15230D01*
X7736Y-16959D01*
X7648Y-17046D01*
X7600Y-17161D01*
X7600Y-17286D01*
X7648Y-17401D01*
X7735Y-17489D01*
X7850Y-17537D01*
X7975Y-17537D01*
X8090Y-17489D01*
X8178Y-17401D01*
X8226Y-17286D01*
X8226Y-17162D01*
X8178Y-17047D01*
X8090Y-16959D01*
X8090Y-16959D01*
X8090Y-15157D01*
X8077Y-15089D01*
X8077Y-15089D01*
X8038Y-15032D01*
X6650Y-13643D01*
X6650Y-12511D01*
X6650Y-12448D01*
X6650Y-12303D01*
X6650Y-12106D01*
X6650Y-11961D01*
X6650Y-11898D01*
X6626Y-11840D01*
X6582Y-11796D01*
X6524Y-11772D01*
X6416Y-11772D01*
X6376Y-11811D01*
X6376Y-12145D01*
X6611Y-12145D01*
X6650Y-12106D01*
X6650Y-12303D01*
X6611Y-12263D01*
X6376Y-12263D01*
X6376Y-12597D01*
X6416Y-12637D01*
X6524Y-12637D01*
X6582Y-12613D01*
X6626Y-12568D01*
X6650Y-12511D01*
X6650Y-13643D01*
X6003Y-12997D01*
X6003Y-12555D01*
X6009Y-12568D01*
X6053Y-12613D01*
X6111Y-12637D01*
X6219Y-12637D01*
X6258Y-12597D01*
X6258Y-12263D01*
X6250Y-12263D01*
X6250Y-12145D01*
X6258Y-12145D01*
X6258Y-11811D01*
X6219Y-11772D01*
X6111Y-11772D01*
X6053Y-11796D01*
X6009Y-11840D01*
X6003Y-11853D01*
X6003Y-10230D01*
X6707Y-9527D01*
X8809Y-9527D01*
X8897Y-9615D01*
X9012Y-9663D01*
X9136Y-9663D01*
X9251Y-9615D01*
X9339Y-9527D01*
X9387Y-9412D01*
X9387Y-9288D01*
X9387Y-9987D01*
X9353Y-10022D01*
X9314Y-10079D01*
X9301Y-10147D01*
X9301Y-10639D01*
X9314Y-10707D01*
X9353Y-10765D01*
X9591Y-11003D01*
X9125Y-11003D01*
X9109Y-10964D01*
X9070Y-10925D01*
X9050Y-10917D01*
X9070Y-10909D01*
X9109Y-10870D01*
X9130Y-10819D01*
X9130Y-10764D01*
X9130Y-10514D01*
X9109Y-10464D01*
X9070Y-10425D01*
X9019Y-10404D01*
X8965Y-10404D01*
X8465Y-10404D01*
X8414Y-10425D01*
X8375Y-10464D01*
X8354Y-10514D01*
X8354Y-10569D01*
X8354Y-10819D01*
X8375Y-10870D01*
X8414Y-10909D01*
X8434Y-10917D01*
X8414Y-10925D01*
X8375Y-10964D01*
X8354Y-11014D01*
X8354Y-11069D01*
X8354Y-11319D01*
X8375Y-11370D01*
X8414Y-11409D01*
X8434Y-11417D01*
X8414Y-11425D01*
X8375Y-11464D01*
X8354Y-11514D01*
X8354Y-11569D01*
X8354Y-11819D01*
X8375Y-11870D01*
X8414Y-11909D01*
X8434Y-11917D01*
X8414Y-11925D01*
X8408Y-11931D01*
X7380Y-11931D01*
X7380Y-11902D01*
X7359Y-11851D01*
X7320Y-11812D01*
X7270Y-11791D01*
X7215Y-11791D01*
X6865Y-11791D01*
X6814Y-11812D01*
X6776Y-11851D01*
X6755Y-11902D01*
X6755Y-11957D01*
X6755Y-12507D01*
X6776Y-12557D01*
X6814Y-12596D01*
X6865Y-12617D01*
X6920Y-12617D01*
X7270Y-12617D01*
X7320Y-12596D01*
X7359Y-12557D01*
X7380Y-12507D01*
X7380Y-12452D01*
X7380Y-12403D01*
X8408Y-12403D01*
X8414Y-12409D01*
X8465Y-12430D01*
X8519Y-12430D01*
X9019Y-12430D01*
X9070Y-12409D01*
X9078Y-12401D01*
X9330Y-12401D01*
X9421Y-12383D01*
X9497Y-12332D01*
X9773Y-12056D01*
X9824Y-11980D01*
X9824Y-11980D01*
X9842Y-11889D01*
X9842Y-11780D01*
X9871Y-11752D01*
X9910Y-11657D01*
X9992Y-11739D01*
X10050Y-11777D01*
X10050Y-11777D01*
X10118Y-11791D01*
X10554Y-11791D01*
X10554Y-11819D01*
X10575Y-11870D01*
X10610Y-11905D01*
X10603Y-11908D01*
X10559Y-11953D01*
X10535Y-12010D01*
X10535Y-12068D01*
X10574Y-12108D01*
X10883Y-12108D01*
X10883Y-12100D01*
X11001Y-12100D01*
X11001Y-12108D01*
X11310Y-12108D01*
X11350Y-12068D01*
X11350Y-12010D01*
X11326Y-11953D01*
X11281Y-11908D01*
X11274Y-11905D01*
X11309Y-11870D01*
X11325Y-11830D01*
X12244Y-11830D01*
X12311Y-11817D01*
X12311Y-11817D01*
X12369Y-11778D01*
X12487Y-11660D01*
X12495Y-11652D01*
X12973Y-11652D01*
X12973Y-11677D01*
X12994Y-11728D01*
X13032Y-11767D01*
X13083Y-11788D01*
X13138Y-11788D01*
X13688Y-11788D01*
X13738Y-11767D01*
X13777Y-11728D01*
X13798Y-11677D01*
X13798Y-11622D01*
X13798Y-11272D01*
X13777Y-11222D01*
X13738Y-11183D01*
X13688Y-11162D01*
X13633Y-11162D01*
X13562Y-11162D01*
X13562Y-10423D01*
X13549Y-10355D01*
X13549Y-10355D01*
X13511Y-10297D01*
X12342Y-9129D01*
X12342Y-7076D01*
X12466Y-7025D01*
X12615Y-6876D01*
X12657Y-6775D01*
X12698Y-6875D01*
X12848Y-7025D01*
X13043Y-7106D01*
X13254Y-7106D01*
X13450Y-7025D01*
X13599Y-6876D01*
X13681Y-6680D01*
X13681Y-6469D01*
X13600Y-6274D01*
X13451Y-6124D01*
X13255Y-6043D01*
X13044Y-6043D01*
X12848Y-6123D01*
X12699Y-6273D01*
X12657Y-6374D01*
X12616Y-6274D01*
X12466Y-6124D01*
X12271Y-6043D01*
X12060Y-6043D01*
X11895Y-6111D01*
X12002Y-6003D01*
X14897Y-6003D01*
X17893Y-9000D01*
X17893Y-10325D01*
X17805Y-10413D01*
X17758Y-10528D01*
X17758Y-10652D01*
X17805Y-10767D01*
X17893Y-10855D01*
X18008Y-10903D01*
X18132Y-10903D01*
X18133Y-10903D01*
X18671Y-11441D01*
X18563Y-11486D01*
X18475Y-11574D01*
X18475Y-11574D01*
X18124Y-11574D01*
X17281Y-10731D01*
X17281Y-10607D01*
X17233Y-10492D01*
X17145Y-10404D01*
X17030Y-10356D01*
X16906Y-10356D01*
X16791Y-10403D01*
X16703Y-10491D01*
X16655Y-10606D01*
X16655Y-10731D01*
X16703Y-10846D01*
X16791Y-10934D01*
X16906Y-10982D01*
X17030Y-10982D01*
X17030Y-10982D01*
X17925Y-11877D01*
X17983Y-11915D01*
X18051Y-11929D01*
X18475Y-11929D01*
X18562Y-12016D01*
X18677Y-12064D01*
X18802Y-12064D01*
X18917Y-12017D01*
X19005Y-11929D01*
X19052Y-11814D01*
X19053Y-11690D01*
X19046Y-11673D01*
X20860Y-11673D01*
X20828Y-11748D01*
X20828Y-11872D01*
X20876Y-11987D01*
X20964Y-12076D01*
X20964Y-12076D01*
X20964Y-12485D01*
X20576Y-12874D01*
X18931Y-12874D01*
X18875Y-12818D01*
X18875Y-12693D01*
X18828Y-12578D01*
X18740Y-12490D01*
X18625Y-12443D01*
X18501Y-12443D01*
X18386Y-12490D01*
X18297Y-12578D01*
X18250Y-12693D01*
X18250Y-12817D01*
X18297Y-12932D01*
X18385Y-13020D01*
X18500Y-13068D01*
X18624Y-13068D01*
X18625Y-13068D01*
X18732Y-13176D01*
X18790Y-13214D01*
X18790Y-13214D01*
X18858Y-13228D01*
X20649Y-13228D01*
X20717Y-13214D01*
X20717Y-13214D01*
X20774Y-13176D01*
X21267Y-12684D01*
X21305Y-12626D01*
X21305Y-12626D01*
X21318Y-12559D01*
X21318Y-12076D01*
X21406Y-11988D01*
X21454Y-11873D01*
X21454Y-11749D01*
X21423Y-11673D01*
X23214Y-11673D01*
X23503Y-11963D01*
X23503Y-12165D01*
X23517Y-12233D01*
X23555Y-12290D01*
X23998Y-12733D01*
X23998Y-12857D01*
X24045Y-12972D01*
X24133Y-13060D01*
X24248Y-13108D01*
X24372Y-13108D01*
X24487Y-13060D01*
X24576Y-12972D01*
X24623Y-12857D01*
X24623Y-12733D01*
X24576Y-12618D01*
X24488Y-12530D01*
X24373Y-12482D01*
X24249Y-12482D01*
X24248Y-12482D01*
X23858Y-12091D01*
X23858Y-11889D01*
X23844Y-11821D01*
X23844Y-11821D01*
X23806Y-11764D01*
X23498Y-11456D01*
X24616Y-11456D01*
X24704Y-11544D01*
X24819Y-11592D01*
X24943Y-11592D01*
X25058Y-11544D01*
X25146Y-11456D01*
X25194Y-11342D01*
X25194Y-11217D01*
X25147Y-11102D01*
X25059Y-11014D01*
X24944Y-10966D01*
X24819Y-10966D01*
X24704Y-11014D01*
X24616Y-11102D01*
X24616Y-11102D01*
X23277Y-11102D01*
X23316Y-11063D01*
X23363Y-10948D01*
X23364Y-10823D01*
X23346Y-10780D01*
X23346Y-9833D01*
X23346Y-9772D01*
X23306Y-9732D01*
X23159Y-9732D01*
X23159Y-9919D01*
X23198Y-9959D01*
X23219Y-9959D01*
X23277Y-9935D01*
X23322Y-9891D01*
X23346Y-9833D01*
X23346Y-10780D01*
X23316Y-10708D01*
X23228Y-10620D01*
X23149Y-10587D01*
X23149Y-9833D01*
X23149Y-9772D01*
X23109Y-9732D01*
X23100Y-9732D01*
X22962Y-9732D01*
X22952Y-9732D01*
X22932Y-9752D01*
X22912Y-9732D01*
X22903Y-9732D01*
X22765Y-9732D01*
X22755Y-9732D01*
X22735Y-9752D01*
X22715Y-9732D01*
X22706Y-9732D01*
X22568Y-9732D01*
X22558Y-9732D01*
X22519Y-9772D01*
X22519Y-9833D01*
X22543Y-9891D01*
X22568Y-9916D01*
X22568Y-9919D01*
X22607Y-9959D01*
X22628Y-9959D01*
X22637Y-9955D01*
X22645Y-9959D01*
X22666Y-9959D01*
X22706Y-9919D01*
X22706Y-9916D01*
X22731Y-9891D01*
X22735Y-9880D01*
X22740Y-9891D01*
X22765Y-9916D01*
X22765Y-9919D01*
X22804Y-9959D01*
X22825Y-9959D01*
X22834Y-9955D01*
X22842Y-9959D01*
X22863Y-9959D01*
X22903Y-9919D01*
X22903Y-9916D01*
X22928Y-9891D01*
X22932Y-9880D01*
X22937Y-9891D01*
X22962Y-9916D01*
X22962Y-9919D01*
X23001Y-9959D01*
X23022Y-9959D01*
X23031Y-9955D01*
X23039Y-9959D01*
X23060Y-9959D01*
X23100Y-9919D01*
X23100Y-9916D01*
X23125Y-9891D01*
X23149Y-9833D01*
X23149Y-10587D01*
X23113Y-10573D01*
X22989Y-10572D01*
X22874Y-10620D01*
X22786Y-10708D01*
X22738Y-10823D01*
X22738Y-10944D01*
X22509Y-10944D01*
X22509Y-9919D01*
X22509Y-9732D01*
X22361Y-9732D01*
X22322Y-9772D01*
X22322Y-9833D01*
X22346Y-9891D01*
X22390Y-9935D01*
X22448Y-9959D01*
X22469Y-9959D01*
X22509Y-9919D01*
X22509Y-10944D01*
X21392Y-10944D01*
X21229Y-10782D01*
X21338Y-10737D01*
X21426Y-10649D01*
X21474Y-10534D01*
X21474Y-10410D01*
X21426Y-10295D01*
X21338Y-10207D01*
X21338Y-10207D01*
X21338Y-9876D01*
X21532Y-9682D01*
X21656Y-9682D01*
X21771Y-9635D01*
X21859Y-9547D01*
X21907Y-9432D01*
X21907Y-9308D01*
X21859Y-9193D01*
X21771Y-9105D01*
X21656Y-9057D01*
X21532Y-9057D01*
X21417Y-9104D01*
X21329Y-9192D01*
X21281Y-9307D01*
X21281Y-9432D01*
X21281Y-9432D01*
X21036Y-9677D01*
X20997Y-9735D01*
X20984Y-9803D01*
X20984Y-10207D01*
X20896Y-10295D01*
X20848Y-10409D01*
X20848Y-10514D01*
X20725Y-10513D01*
X20610Y-10561D01*
X20522Y-10649D01*
X20474Y-10764D01*
X20474Y-10888D01*
X20522Y-11003D01*
X20609Y-11091D01*
X20635Y-11102D01*
X20281Y-11102D01*
X20312Y-11027D01*
X20312Y-10902D01*
X20265Y-10787D01*
X20177Y-10699D01*
X20062Y-10651D01*
X19938Y-10651D01*
X19823Y-10699D01*
X19734Y-10787D01*
X19734Y-10787D01*
X19482Y-10787D01*
X19367Y-10672D01*
X19367Y-10548D01*
X19320Y-10433D01*
X19232Y-10345D01*
X19117Y-10297D01*
X18993Y-10297D01*
X18878Y-10344D01*
X18818Y-10404D01*
X18799Y-10384D01*
X18684Y-10336D01*
X18560Y-10336D01*
X18445Y-10384D01*
X18359Y-10469D01*
X18336Y-10413D01*
X18248Y-10325D01*
X18248Y-10325D01*
X18248Y-8927D01*
X18234Y-8859D01*
X18234Y-8859D01*
X18196Y-8801D01*
X15095Y-5701D01*
X15038Y-5663D01*
X14970Y-5649D01*
X15059Y-5649D01*
X16147Y-5649D01*
X17500Y-7002D01*
X17500Y-7657D01*
X17513Y-7725D01*
X17551Y-7782D01*
X18877Y-9108D01*
X18877Y-9203D01*
X18790Y-9291D01*
X18742Y-9406D01*
X18742Y-9530D01*
X18789Y-9645D01*
X18877Y-9733D01*
X18992Y-9781D01*
X19117Y-9781D01*
X19232Y-9733D01*
X19320Y-9645D01*
X19367Y-9530D01*
X19367Y-9406D01*
X19320Y-9291D01*
X19232Y-9203D01*
X19232Y-9203D01*
X19232Y-9035D01*
X19218Y-8967D01*
X19180Y-8910D01*
X17854Y-7584D01*
X17854Y-6929D01*
X17840Y-6861D01*
X17840Y-6861D01*
X17802Y-6803D01*
X16345Y-5347D01*
X16288Y-5308D01*
X16220Y-5295D01*
X15059Y-5295D01*
X10039Y-5295D01*
X9971Y-5308D01*
X9914Y-5347D01*
X7827Y-7433D01*
X7789Y-7491D01*
X7775Y-7559D01*
X7775Y-7918D01*
X7170Y-8523D01*
X6574Y-8523D01*
X6507Y-8537D01*
X6449Y-8575D01*
X5229Y-9795D01*
X5190Y-9853D01*
X5177Y-9921D01*
X5177Y-13307D01*
X5190Y-13374D01*
X5229Y-13432D01*
X7165Y-15368D01*
X7165Y-17696D01*
X7171Y-17726D01*
X7175Y-17756D01*
X7177Y-17760D01*
X7178Y-17764D01*
X7195Y-17789D01*
X7211Y-17815D01*
X9100Y-19902D01*
X9104Y-19905D01*
X9107Y-19908D01*
X9132Y-19925D01*
X9156Y-19943D01*
X9160Y-19944D01*
X9164Y-19947D01*
X9194Y-19953D01*
X9223Y-19960D01*
X9227Y-19959D01*
X9232Y-19960D01*
X10598Y-19960D01*
X10554Y-19978D01*
X10432Y-20100D01*
X10365Y-20259D01*
X10365Y-20432D01*
X10431Y-20591D01*
X10553Y-20713D01*
X10712Y-20779D01*
X10849Y-20779D01*
X10863Y-20793D01*
X10795Y-20825D01*
X10741Y-20997D01*
X10757Y-21177D01*
X10795Y-21268D01*
X10863Y-21301D01*
X11117Y-21047D01*
X11111Y-21041D01*
X11195Y-20958D01*
X11200Y-20963D01*
X11206Y-20958D01*
X11289Y-21041D01*
X11284Y-21047D01*
X11538Y-21301D01*
X11606Y-21268D01*
X11614Y-21240D01*
X11636Y-21292D01*
X11758Y-21414D01*
X11771Y-21419D01*
X11771Y-21594D01*
X11789Y-21684D01*
X11840Y-21761D01*
X12155Y-22076D01*
X12232Y-22127D01*
X12322Y-22145D01*
X12963Y-22145D01*
X12991Y-22174D01*
X13106Y-22222D01*
X13231Y-22222D01*
X13346Y-22174D01*
X13434Y-22086D01*
X13482Y-21971D01*
X13482Y-21930D01*
X13749Y-21663D01*
X13800Y-21586D01*
X13818Y-21496D01*
X13818Y-21429D01*
X13855Y-21414D01*
X13977Y-21293D01*
X14043Y-21133D01*
X14043Y-20961D01*
X13977Y-20802D01*
X13855Y-20680D01*
X13696Y-20614D01*
X13554Y-20613D01*
X13575Y-20592D01*
X13641Y-20433D01*
X13642Y-20260D01*
X13615Y-20196D01*
X15089Y-20196D01*
X15051Y-20259D01*
X15405Y-20613D01*
X15759Y-20259D01*
X15721Y-20196D01*
X15969Y-20196D01*
X16358Y-20585D01*
X16358Y-22854D01*
X16371Y-22922D01*
X16410Y-22979D01*
X16862Y-23432D01*
X16920Y-23470D01*
X16920Y-23470D01*
X16988Y-23484D01*
X19488Y-23484D01*
X19555Y-23470D01*
X19555Y-23470D01*
X19613Y-23432D01*
X19701Y-23344D01*
X19825Y-23344D01*
X19940Y-23296D01*
X20028Y-23208D01*
X20076Y-23093D01*
X20076Y-22969D01*
X20029Y-22854D01*
X19941Y-22766D01*
X19826Y-22718D01*
X19701Y-22718D01*
X19586Y-22766D01*
X19505Y-22847D01*
X19505Y-21670D01*
X19458Y-21555D01*
X19370Y-21467D01*
X19255Y-21419D01*
X19130Y-21419D01*
X19130Y-21419D01*
X18196Y-20484D01*
X18138Y-20446D01*
X18070Y-20433D01*
X17371Y-20433D01*
X17283Y-20345D01*
X17168Y-20297D01*
X17044Y-20297D01*
X16929Y-20344D01*
X16841Y-20432D01*
X16793Y-20547D01*
X16793Y-20672D01*
X16840Y-20787D01*
X16928Y-20875D01*
X17043Y-20922D01*
X17168Y-20923D01*
X17283Y-20875D01*
X17371Y-20787D01*
X17371Y-20787D01*
X17997Y-20787D01*
X18880Y-21670D01*
X18880Y-21794D01*
X18927Y-21909D01*
X19015Y-21997D01*
X19130Y-22045D01*
X19254Y-22045D01*
X19369Y-21997D01*
X19457Y-21909D01*
X19505Y-21794D01*
X19505Y-21670D01*
X19505Y-22847D01*
X19498Y-22854D01*
X19451Y-22969D01*
X19450Y-23093D01*
X19451Y-23093D01*
X19414Y-23129D01*
X19078Y-23129D01*
X19078Y-22348D01*
X19007Y-22176D01*
X18875Y-22044D01*
X18703Y-21973D01*
X18517Y-21973D01*
X18345Y-22044D01*
X18213Y-22175D01*
X18142Y-22347D01*
X18142Y-22533D01*
X18213Y-22705D01*
X18344Y-22837D01*
X18516Y-22908D01*
X18702Y-22908D01*
X18874Y-22837D01*
X19006Y-22706D01*
X19077Y-22534D01*
X19078Y-22348D01*
X19078Y-23129D01*
X18078Y-23129D01*
X18078Y-22348D01*
X18007Y-22176D01*
X17875Y-22044D01*
X17703Y-21973D01*
X17517Y-21973D01*
X17345Y-22044D01*
X17213Y-22175D01*
X17142Y-22347D01*
X17142Y-22533D01*
X17213Y-22705D01*
X17344Y-22837D01*
X17516Y-22908D01*
X17702Y-22908D01*
X17874Y-22837D01*
X18006Y-22706D01*
X18077Y-22534D01*
X18078Y-22348D01*
X18078Y-23129D01*
X17061Y-23129D01*
X16712Y-22780D01*
X16712Y-20511D01*
X16699Y-20444D01*
X16699Y-20444D01*
X16660Y-20386D01*
X16192Y-19918D01*
X16207Y-19908D01*
X16614Y-19502D01*
X16669Y-19525D01*
X16794Y-19525D01*
X16909Y-19477D01*
X16997Y-19390D01*
X17045Y-19275D01*
X17045Y-19150D01*
X17028Y-19109D01*
X20248Y-22329D01*
X20306Y-22368D01*
X20306Y-22368D01*
X20374Y-22381D01*
X23134Y-22381D01*
X23150Y-22418D01*
X23170Y-22439D01*
X23150Y-22459D01*
X23129Y-22510D01*
X23129Y-22565D01*
X23129Y-22821D01*
X23129Y-22822D01*
X23129Y-23110D01*
X23143Y-23178D01*
X23181Y-23235D01*
X23843Y-23897D01*
X23459Y-23897D01*
X23137Y-23575D01*
X23079Y-23537D01*
X23011Y-23523D01*
X16001Y-23523D01*
X16001Y-20779D01*
X15988Y-20544D01*
X15925Y-20392D01*
X15842Y-20342D01*
X15489Y-20696D01*
X15842Y-21050D01*
X15925Y-21001D01*
X16001Y-20779D01*
X16001Y-23523D01*
X15759Y-23523D01*
X15759Y-21134D01*
X15405Y-20780D01*
X15321Y-20863D01*
X15321Y-20696D01*
X14968Y-20342D01*
X14886Y-20392D01*
X14809Y-20614D01*
X14822Y-20848D01*
X14886Y-21001D01*
X14968Y-21050D01*
X15321Y-20696D01*
X15321Y-20863D01*
X15051Y-21134D01*
X15101Y-21216D01*
X15323Y-21293D01*
X15557Y-21279D01*
X15709Y-21216D01*
X15759Y-21134D01*
X15759Y-23523D01*
X15561Y-23523D01*
X15561Y-21877D01*
X15431Y-21562D01*
X15190Y-21321D01*
X14875Y-21191D01*
X14535Y-21190D01*
X14220Y-21320D01*
X13979Y-21561D01*
X13848Y-21876D01*
X13848Y-22216D01*
X13978Y-22531D01*
X14219Y-22772D01*
X14533Y-22903D01*
X14874Y-22903D01*
X15189Y-22773D01*
X15430Y-22532D01*
X15560Y-22218D01*
X15561Y-21877D01*
X15561Y-23523D01*
X11454Y-23523D01*
X11454Y-21384D01*
X11200Y-21130D01*
X11117Y-21214D01*
X10946Y-21384D01*
X10979Y-21452D01*
X11151Y-21506D01*
X11330Y-21490D01*
X11422Y-21452D01*
X11454Y-21384D01*
X11454Y-23523D01*
X10561Y-23523D01*
X10561Y-21877D01*
X10431Y-21562D01*
X10190Y-21321D01*
X9875Y-21191D01*
X9600Y-21190D01*
X9600Y-20779D01*
X9586Y-20544D01*
X9523Y-20392D01*
X9441Y-20342D01*
X9357Y-20426D01*
X9357Y-20259D01*
X9308Y-20177D01*
X9086Y-20100D01*
X8851Y-20114D01*
X8699Y-20177D01*
X8649Y-20259D01*
X9003Y-20613D01*
X9357Y-20259D01*
X9357Y-20426D01*
X9087Y-20696D01*
X9441Y-21050D01*
X9523Y-21001D01*
X9600Y-20779D01*
X9600Y-21190D01*
X9535Y-21190D01*
X9357Y-21264D01*
X9357Y-21134D01*
X9003Y-20780D01*
X8920Y-20863D01*
X8920Y-20696D01*
X8566Y-20342D01*
X8484Y-20392D01*
X8407Y-20614D01*
X8421Y-20848D01*
X8484Y-21001D01*
X8566Y-21050D01*
X8920Y-20696D01*
X8920Y-20863D01*
X8649Y-21134D01*
X8699Y-21216D01*
X8921Y-21293D01*
X9156Y-21279D01*
X9308Y-21216D01*
X9357Y-21134D01*
X9357Y-21264D01*
X9220Y-21320D01*
X8979Y-21561D01*
X8848Y-21876D01*
X8848Y-22216D01*
X8978Y-22531D01*
X9219Y-22772D01*
X9533Y-22903D01*
X9874Y-22903D01*
X10189Y-22773D01*
X10430Y-22532D01*
X10560Y-22218D01*
X10561Y-21877D01*
X10561Y-23523D01*
X10501Y-23523D01*
X10413Y-23435D01*
X10298Y-23388D01*
X10174Y-23387D01*
X10059Y-23435D01*
X9971Y-23523D01*
X9923Y-23638D01*
X9923Y-23762D01*
X9970Y-23877D01*
X10058Y-23965D01*
X10173Y-24013D01*
X10298Y-24013D01*
X10413Y-23966D01*
X10501Y-23878D01*
X10501Y-23877D01*
X22938Y-23877D01*
X23260Y-24200D01*
X23318Y-24238D01*
X23318Y-24238D01*
X23385Y-24251D01*
X4881Y-24251D01*
X4881Y-4881D01*
X43937Y-4881D01*
X43937Y-24251D01*
M02*
