G04 (created by PCBNEW (2013-mar-13)-testing) date Tue 15 Oct 2013 19:00:41 BST*
%MOIN*%
G04 Gerber Fmt 3.4, Leading zero omitted, Abs format*
%FSLAX34Y34*%
G01*
G70*
G90*
G04 APERTURE LIST*
%ADD10C,0.005906*%
%ADD11C,0.005000*%
%ADD12C,0.009800*%
%ADD13C,0.011811*%
%ADD14C,0.012000*%
%ADD15O,0.175197X0.139764*%
%ADD16C,0.088583*%
%ADD17C,0.068898*%
%ADD18R,0.059843X0.034843*%
%ADD19R,0.034843X0.059843*%
%ADD20C,0.075843*%
%ADD21R,0.021643X0.035443*%
%ADD22C,0.153543*%
%ADD23C,0.068943*%
%ADD24C,0.096457*%
%ADD25C,0.147638*%
%ADD26R,0.069843X0.069843*%
%ADD27C,0.069843*%
%ADD28C,0.061024*%
G04 APERTURE END LIST*
G54D10*
G54D11*
X22999Y-11607D02*
X24559Y-11607D01*
X24559Y-11607D02*
X24559Y-15007D01*
X24559Y-15007D02*
X22999Y-15007D01*
X22999Y-15007D02*
X22999Y-11607D01*
X22999Y-12307D02*
X22569Y-12307D01*
X22999Y-12807D02*
X22569Y-12807D01*
X22999Y-13307D02*
X22569Y-13307D01*
X22999Y-11807D02*
X22569Y-11807D01*
X22569Y-13807D02*
X22999Y-13807D01*
X22569Y-14307D02*
X22999Y-14307D01*
X22569Y-14807D02*
X22999Y-14807D01*
X24559Y-14807D02*
X24989Y-14807D01*
X24559Y-14307D02*
X24989Y-14307D01*
X24559Y-11807D02*
X24989Y-11807D01*
X24989Y-12307D02*
X24559Y-12307D01*
X24989Y-13807D02*
X24559Y-13807D01*
X24989Y-13307D02*
X24559Y-13307D01*
X24989Y-12807D02*
X24559Y-12807D01*
X24455Y-11897D02*
G75*
G03X24455Y-11897I-186J0D01*
G74*
G01*
X20755Y-10401D02*
X20755Y-11961D01*
X20755Y-11961D02*
X17355Y-11961D01*
X17355Y-11961D02*
X17355Y-10401D01*
X17355Y-10401D02*
X20755Y-10401D01*
X20055Y-10401D02*
X20055Y-9971D01*
X19555Y-10401D02*
X19555Y-9971D01*
X19055Y-10401D02*
X19055Y-9971D01*
X20555Y-10401D02*
X20555Y-9971D01*
X18555Y-9971D02*
X18555Y-10401D01*
X18055Y-9971D02*
X18055Y-10401D01*
X17555Y-9971D02*
X17555Y-10401D01*
X17555Y-11961D02*
X17555Y-12391D01*
X18055Y-11961D02*
X18055Y-12391D01*
X20555Y-11961D02*
X20555Y-12391D01*
X20055Y-12391D02*
X20055Y-11961D01*
X18555Y-12391D02*
X18555Y-11961D01*
X19055Y-12391D02*
X19055Y-11961D01*
X19555Y-12391D02*
X19555Y-11961D01*
X20651Y-11671D02*
G75*
G03X20651Y-11671I-186J0D01*
G74*
G01*
G54D12*
X26374Y-22807D02*
X26374Y-21772D01*
X26374Y-21772D02*
X27429Y-21772D01*
X27429Y-21772D02*
X27429Y-22799D01*
X27425Y-22815D02*
X26374Y-22815D01*
G54D13*
X24229Y-15188D02*
X24229Y-15666D01*
X24201Y-15722D01*
X24173Y-15750D01*
X24116Y-15778D01*
X24004Y-15778D01*
X23948Y-15750D01*
X23920Y-15722D01*
X23892Y-15666D01*
X23892Y-15188D01*
X23357Y-15385D02*
X23357Y-15778D01*
X23498Y-15160D02*
X23638Y-15582D01*
X23273Y-15582D01*
X16566Y-10449D02*
X17044Y-10449D01*
X17100Y-10478D01*
X17128Y-10506D01*
X17156Y-10562D01*
X17156Y-10674D01*
X17128Y-10731D01*
X17100Y-10759D01*
X17044Y-10787D01*
X16566Y-10787D01*
X17156Y-11377D02*
X17156Y-11040D01*
X17156Y-11209D02*
X16566Y-11209D01*
X16650Y-11152D01*
X16706Y-11096D01*
X16735Y-11040D01*
X17156Y-11940D02*
X17156Y-11602D01*
X17156Y-11771D02*
X16566Y-11771D01*
X16650Y-11715D01*
X16706Y-11659D01*
X16735Y-11602D01*
G54D14*
X27632Y-23135D02*
X27632Y-23621D01*
X27603Y-23678D01*
X27575Y-23707D01*
X27518Y-23735D01*
X27403Y-23735D01*
X27346Y-23707D01*
X27318Y-23678D01*
X27289Y-23621D01*
X27289Y-23135D01*
X26689Y-23735D02*
X27032Y-23735D01*
X26860Y-23735D02*
X26860Y-23135D01*
X26918Y-23221D01*
X26975Y-23278D01*
X27032Y-23307D01*
X26175Y-23335D02*
X26175Y-23735D01*
X26318Y-23107D02*
X26460Y-23535D01*
X26089Y-23535D01*
%LPC*%
G54D15*
X14074Y-7874D03*
G54D16*
X11181Y-6574D03*
X12165Y-6574D03*
X10196Y-6574D03*
X13149Y-6574D03*
G54D15*
X9271Y-7874D03*
G54D17*
X24803Y-6929D03*
X26377Y-6929D03*
G54D16*
X23976Y-6929D03*
X27204Y-6929D03*
G54D17*
X25590Y-6929D03*
X19291Y-6929D03*
X20866Y-6929D03*
G54D16*
X18464Y-6929D03*
X21692Y-6929D03*
G54D17*
X20078Y-6929D03*
G54D18*
X24879Y-11807D03*
X24879Y-12307D03*
X24879Y-12807D03*
X24879Y-13307D03*
X24879Y-13807D03*
X24879Y-14307D03*
X24879Y-14807D03*
X22679Y-14807D03*
X22679Y-14307D03*
X22679Y-13807D03*
X22679Y-13307D03*
X22679Y-12807D03*
X22679Y-12307D03*
X22679Y-11807D03*
G54D19*
X20555Y-12281D03*
X20055Y-12281D03*
X19555Y-12281D03*
X19055Y-12281D03*
X18555Y-12281D03*
X18055Y-12281D03*
X17555Y-12281D03*
X17555Y-10081D03*
X18055Y-10081D03*
X18555Y-10081D03*
X19055Y-10081D03*
X19555Y-10081D03*
X20055Y-10081D03*
X20555Y-10081D03*
G54D20*
X31129Y-22440D03*
X30129Y-22440D03*
X17610Y-22440D03*
X18610Y-22440D03*
G54D21*
X26614Y-22075D03*
X26811Y-22075D03*
X27008Y-22075D03*
X27205Y-22075D03*
X27205Y-22528D03*
X27008Y-22528D03*
X26811Y-22528D03*
X26614Y-22528D03*
G54D22*
X39035Y-21968D03*
X34035Y-21968D03*
G54D23*
X37940Y-20968D03*
X37539Y-20267D03*
X37137Y-20968D03*
X36736Y-20267D03*
X36334Y-20968D03*
X35933Y-20267D03*
X35531Y-20968D03*
X35129Y-20267D03*
G54D24*
X39736Y-20618D03*
X33334Y-20618D03*
G54D22*
X14704Y-22047D03*
X9704Y-22047D03*
G54D23*
X13610Y-21047D03*
X13208Y-20346D03*
X12807Y-21047D03*
X12405Y-20346D03*
X12003Y-21047D03*
X11602Y-20346D03*
X11200Y-21047D03*
X10799Y-20346D03*
G54D24*
X15405Y-20696D03*
X9003Y-20696D03*
G54D25*
X41850Y-11574D03*
X40118Y-11574D03*
G54D26*
X42958Y-17883D03*
G54D27*
X41958Y-17883D03*
X40958Y-17883D03*
G54D28*
X31505Y-8307D03*
X31505Y-6181D03*
X30521Y-8307D03*
X32490Y-8307D03*
X30521Y-6181D03*
X32490Y-6181D03*
X37007Y-8307D03*
X37007Y-6181D03*
X36023Y-8307D03*
X37992Y-8307D03*
X36023Y-6181D03*
X37992Y-6181D03*
M02*
