G04 (created by PCBNEW (2013-mar-13)-testing) date Tue 15 Oct 2013 18:59:54 BST*
%MOIN*%
G04 Gerber Fmt 3.4, Leading zero omitted, Abs format*
%FSLAX34Y34*%
G01*
G70*
G90*
G04 APERTURE LIST*
%ADD10C,0.005000*%
%ADD11C,0.003937*%
%ADD12C,0.007874*%
%ADD13C,0.011811*%
G04 APERTURE END LIST*
G54D10*
G54D11*
X4724Y-24409D02*
X44094Y-24409D01*
X4724Y-4724D02*
X4724Y-24409D01*
X44094Y-4724D02*
X44094Y-24409D01*
X4724Y-4724D02*
X44094Y-4724D01*
G54D12*
X18187Y-6651D02*
X18742Y-7206D01*
X18742Y-6651D02*
X18187Y-7206D01*
X21415Y-6651D02*
X21970Y-7206D01*
X21970Y-6651D02*
X21415Y-7206D01*
X23698Y-6651D02*
X24253Y-7206D01*
X24253Y-6651D02*
X23698Y-7206D01*
X26927Y-6651D02*
X27482Y-7206D01*
X27482Y-6651D02*
X26927Y-7206D01*
X42145Y-11574D02*
G75*
G03X42145Y-11574I-295J0D01*
G74*
G01*
X42106Y-11673D02*
X42106Y-11476D01*
X41594Y-11673D02*
X41594Y-11476D01*
X42106Y-11476D02*
G75*
G03X41594Y-11476I-255J0D01*
G74*
G01*
X41594Y-11673D02*
G75*
G03X42106Y-11673I255J0D01*
G74*
G01*
X40118Y-11181D02*
X40118Y-11968D01*
X39724Y-11574D02*
X40511Y-11574D01*
X9570Y-8173D02*
X9570Y-7574D01*
X8972Y-7574D01*
X8972Y-8173D01*
X9570Y-8173D01*
X9572Y-7490D02*
X8970Y-7490D01*
X9572Y-8257D02*
X8970Y-8257D01*
X8970Y-7490D02*
G75*
G03X8970Y-8257I0J-383D01*
G74*
G01*
X9572Y-8257D02*
G75*
G03X9572Y-7490I0J383D01*
G74*
G01*
X14374Y-8173D02*
X14374Y-7574D01*
X13775Y-7574D01*
X13775Y-8173D01*
X14374Y-8173D01*
X14375Y-7490D02*
X13773Y-7490D01*
X14375Y-8257D02*
X13773Y-8257D01*
X13773Y-7490D02*
G75*
G03X13773Y-8257I0J-383D01*
G74*
G01*
X14375Y-8257D02*
G75*
G03X14375Y-7490I0J383D01*
G74*
G01*
X9704Y-22687D02*
X10344Y-22047D01*
X9704Y-21407D01*
X9064Y-22047D01*
X9704Y-22687D01*
X14704Y-22687D02*
X15344Y-22047D01*
X14704Y-21407D01*
X14064Y-22047D01*
X14704Y-22687D01*
X34035Y-22608D02*
X34675Y-21968D01*
X34035Y-21328D01*
X33395Y-21968D01*
X34035Y-22608D01*
X39035Y-22608D02*
X39675Y-21968D01*
X39035Y-21328D01*
X38395Y-21968D01*
X39035Y-22608D01*
G54D13*
X5773Y-26262D02*
X5773Y-25081D01*
X6054Y-25081D01*
X6223Y-25137D01*
X6335Y-25250D01*
X6392Y-25362D01*
X6448Y-25587D01*
X6448Y-25756D01*
X6392Y-25981D01*
X6335Y-26093D01*
X6223Y-26206D01*
X6054Y-26262D01*
X5773Y-26262D01*
X6954Y-26262D02*
X6954Y-25475D01*
X6954Y-25700D02*
X7010Y-25587D01*
X7066Y-25531D01*
X7179Y-25475D01*
X7291Y-25475D01*
X7685Y-26262D02*
X7685Y-25475D01*
X7685Y-25081D02*
X7629Y-25137D01*
X7685Y-25194D01*
X7741Y-25137D01*
X7685Y-25081D01*
X7685Y-25194D01*
X8416Y-26262D02*
X8304Y-26206D01*
X8248Y-26093D01*
X8248Y-25081D01*
X9035Y-26262D02*
X8922Y-26206D01*
X8866Y-26093D01*
X8866Y-25081D01*
X10385Y-26262D02*
X10385Y-25081D01*
X10778Y-25925D01*
X11172Y-25081D01*
X11172Y-26262D01*
X12241Y-26262D02*
X12241Y-25643D01*
X12185Y-25531D01*
X12072Y-25475D01*
X11847Y-25475D01*
X11735Y-25531D01*
X12241Y-26206D02*
X12128Y-26262D01*
X11847Y-26262D01*
X11735Y-26206D01*
X11678Y-26093D01*
X11678Y-25981D01*
X11735Y-25868D01*
X11847Y-25812D01*
X12128Y-25812D01*
X12241Y-25756D01*
X12803Y-25475D02*
X12803Y-26656D01*
X12803Y-25531D02*
X12916Y-25475D01*
X13141Y-25475D01*
X13253Y-25531D01*
X13309Y-25587D01*
X13366Y-25700D01*
X13366Y-26037D01*
X13309Y-26150D01*
X13253Y-26206D01*
X13141Y-26262D01*
X12916Y-26262D01*
X12803Y-26206D01*
X13872Y-26150D02*
X13928Y-26206D01*
X13872Y-26262D01*
X13816Y-26206D01*
X13872Y-26150D01*
X13872Y-26262D01*
X13872Y-25531D02*
X13928Y-25587D01*
X13872Y-25643D01*
X13816Y-25587D01*
X13872Y-25531D01*
X13872Y-25643D01*
X4149Y-27931D02*
X4704Y-28486D01*
X4704Y-27931D02*
X4149Y-28486D01*
X6392Y-28742D02*
X5717Y-28742D01*
X6054Y-28742D02*
X6054Y-27561D01*
X5942Y-27730D01*
X5829Y-27843D01*
X5717Y-27899D01*
X6898Y-28630D02*
X6954Y-28686D01*
X6898Y-28742D01*
X6841Y-28686D01*
X6898Y-28630D01*
X6898Y-28742D01*
X7966Y-27955D02*
X7966Y-28742D01*
X7685Y-27505D02*
X7404Y-28349D01*
X8135Y-28349D01*
X9204Y-28742D02*
X8529Y-28742D01*
X8866Y-28742D02*
X8866Y-27561D01*
X8754Y-27730D01*
X8641Y-27843D01*
X8529Y-27899D01*
X9710Y-28742D02*
X9710Y-27955D01*
X9710Y-28068D02*
X9766Y-28011D01*
X9879Y-27955D01*
X10047Y-27955D01*
X10160Y-28011D01*
X10216Y-28124D01*
X10216Y-28742D01*
X10216Y-28124D02*
X10272Y-28011D01*
X10385Y-27955D01*
X10553Y-27955D01*
X10666Y-28011D01*
X10722Y-28124D01*
X10722Y-28742D01*
X11285Y-28742D02*
X11285Y-27955D01*
X11285Y-28068D02*
X11341Y-28011D01*
X11453Y-27955D01*
X11622Y-27955D01*
X11735Y-28011D01*
X11791Y-28124D01*
X11791Y-28742D01*
X11791Y-28124D02*
X11847Y-28011D01*
X11960Y-27955D01*
X12128Y-27955D01*
X12241Y-28011D01*
X12297Y-28124D01*
X12297Y-28742D01*
X14603Y-27505D02*
X13591Y-29024D01*
X16122Y-27561D02*
X16234Y-27561D01*
X16347Y-27618D01*
X16403Y-27674D01*
X16459Y-27786D01*
X16515Y-28011D01*
X16515Y-28293D01*
X16459Y-28517D01*
X16403Y-28630D01*
X16347Y-28686D01*
X16234Y-28742D01*
X16122Y-28742D01*
X16009Y-28686D01*
X15953Y-28630D01*
X15897Y-28517D01*
X15840Y-28293D01*
X15840Y-28011D01*
X15897Y-27786D01*
X15953Y-27674D01*
X16009Y-27618D01*
X16122Y-27561D01*
X17021Y-28630D02*
X17078Y-28686D01*
X17021Y-28742D01*
X16965Y-28686D01*
X17021Y-28630D01*
X17021Y-28742D01*
X17809Y-27561D02*
X17921Y-27561D01*
X18034Y-27618D01*
X18090Y-27674D01*
X18146Y-27786D01*
X18203Y-28011D01*
X18203Y-28293D01*
X18146Y-28517D01*
X18090Y-28630D01*
X18034Y-28686D01*
X17921Y-28742D01*
X17809Y-28742D01*
X17696Y-28686D01*
X17640Y-28630D01*
X17584Y-28517D01*
X17528Y-28293D01*
X17528Y-28011D01*
X17584Y-27786D01*
X17640Y-27674D01*
X17696Y-27618D01*
X17809Y-27561D01*
X19271Y-27561D02*
X18709Y-27561D01*
X18652Y-28124D01*
X18709Y-28068D01*
X18821Y-28011D01*
X19102Y-28011D01*
X19215Y-28068D01*
X19271Y-28124D01*
X19327Y-28236D01*
X19327Y-28517D01*
X19271Y-28630D01*
X19215Y-28686D01*
X19102Y-28742D01*
X18821Y-28742D01*
X18709Y-28686D01*
X18652Y-28630D01*
X20340Y-27561D02*
X20115Y-27561D01*
X20002Y-27618D01*
X19946Y-27674D01*
X19834Y-27843D01*
X19777Y-28068D01*
X19777Y-28517D01*
X19834Y-28630D01*
X19890Y-28686D01*
X20002Y-28742D01*
X20227Y-28742D01*
X20340Y-28686D01*
X20396Y-28630D01*
X20452Y-28517D01*
X20452Y-28236D01*
X20396Y-28124D01*
X20340Y-28068D01*
X20227Y-28011D01*
X20002Y-28011D01*
X19890Y-28068D01*
X19834Y-28124D01*
X19777Y-28236D01*
X20902Y-27561D02*
X20902Y-27786D01*
X21352Y-27561D02*
X21352Y-27786D01*
X23096Y-29192D02*
X23039Y-29136D01*
X22927Y-28967D01*
X22871Y-28855D01*
X22814Y-28686D01*
X22758Y-28405D01*
X22758Y-28180D01*
X22814Y-27899D01*
X22871Y-27730D01*
X22927Y-27618D01*
X23039Y-27449D01*
X23096Y-27393D01*
X24052Y-27955D02*
X24052Y-28742D01*
X23771Y-27505D02*
X23489Y-28349D01*
X24221Y-28349D01*
X25570Y-28742D02*
X25570Y-27561D01*
X26077Y-28742D02*
X26077Y-28124D01*
X26020Y-28011D01*
X25908Y-27955D01*
X25739Y-27955D01*
X25627Y-28011D01*
X25570Y-28068D01*
X26808Y-28742D02*
X26695Y-28686D01*
X26639Y-28630D01*
X26583Y-28517D01*
X26583Y-28180D01*
X26639Y-28068D01*
X26695Y-28011D01*
X26808Y-27955D01*
X26976Y-27955D01*
X27089Y-28011D01*
X27145Y-28068D01*
X27201Y-28180D01*
X27201Y-28517D01*
X27145Y-28630D01*
X27089Y-28686D01*
X26976Y-28742D01*
X26808Y-28742D01*
X27876Y-28742D02*
X27764Y-28686D01*
X27708Y-28574D01*
X27708Y-27561D01*
X28776Y-28686D02*
X28664Y-28742D01*
X28439Y-28742D01*
X28326Y-28686D01*
X28270Y-28574D01*
X28270Y-28124D01*
X28326Y-28011D01*
X28439Y-27955D01*
X28664Y-27955D01*
X28776Y-28011D01*
X28832Y-28124D01*
X28832Y-28236D01*
X28270Y-28349D01*
X29282Y-28686D02*
X29395Y-28742D01*
X29620Y-28742D01*
X29732Y-28686D01*
X29789Y-28574D01*
X29789Y-28517D01*
X29732Y-28405D01*
X29620Y-28349D01*
X29451Y-28349D01*
X29339Y-28293D01*
X29282Y-28180D01*
X29282Y-28124D01*
X29339Y-28011D01*
X29451Y-27955D01*
X29620Y-27955D01*
X29732Y-28011D01*
X30182Y-29192D02*
X30239Y-29136D01*
X30351Y-28967D01*
X30407Y-28855D01*
X30464Y-28686D01*
X30520Y-28405D01*
X30520Y-28180D01*
X30464Y-27899D01*
X30407Y-27730D01*
X30351Y-27618D01*
X30239Y-27449D01*
X30182Y-27393D01*
G54D12*
X4704Y-29767D02*
G75*
G03X4704Y-29767I-295J0D01*
G74*
G01*
G54D13*
X6392Y-30302D02*
X5717Y-30302D01*
X6054Y-30302D02*
X6054Y-29120D01*
X5942Y-29289D01*
X5829Y-29402D01*
X5717Y-29458D01*
X6898Y-30189D02*
X6954Y-30245D01*
X6898Y-30302D01*
X6841Y-30245D01*
X6898Y-30189D01*
X6898Y-30302D01*
X8023Y-29120D02*
X7460Y-29120D01*
X7404Y-29683D01*
X7460Y-29627D01*
X7573Y-29570D01*
X7854Y-29570D01*
X7966Y-29627D01*
X8023Y-29683D01*
X8079Y-29795D01*
X8079Y-30077D01*
X8023Y-30189D01*
X7966Y-30245D01*
X7854Y-30302D01*
X7573Y-30302D01*
X7460Y-30245D01*
X7404Y-30189D01*
X8810Y-29120D02*
X8922Y-29120D01*
X9035Y-29177D01*
X9091Y-29233D01*
X9147Y-29345D01*
X9204Y-29570D01*
X9204Y-29852D01*
X9147Y-30077D01*
X9091Y-30189D01*
X9035Y-30245D01*
X8922Y-30302D01*
X8810Y-30302D01*
X8697Y-30245D01*
X8641Y-30189D01*
X8585Y-30077D01*
X8529Y-29852D01*
X8529Y-29570D01*
X8585Y-29345D01*
X8641Y-29233D01*
X8697Y-29177D01*
X8810Y-29120D01*
X9710Y-30302D02*
X9710Y-29514D01*
X9710Y-29627D02*
X9766Y-29570D01*
X9879Y-29514D01*
X10047Y-29514D01*
X10160Y-29570D01*
X10216Y-29683D01*
X10216Y-30302D01*
X10216Y-29683D02*
X10272Y-29570D01*
X10385Y-29514D01*
X10553Y-29514D01*
X10666Y-29570D01*
X10722Y-29683D01*
X10722Y-30302D01*
X11285Y-30302D02*
X11285Y-29514D01*
X11285Y-29627D02*
X11341Y-29570D01*
X11453Y-29514D01*
X11622Y-29514D01*
X11735Y-29570D01*
X11791Y-29683D01*
X11791Y-30302D01*
X11791Y-29683D02*
X11847Y-29570D01*
X11960Y-29514D01*
X12128Y-29514D01*
X12241Y-29570D01*
X12297Y-29683D01*
X12297Y-30302D01*
X14603Y-29064D02*
X13591Y-30583D01*
X16122Y-29120D02*
X16234Y-29120D01*
X16347Y-29177D01*
X16403Y-29233D01*
X16459Y-29345D01*
X16515Y-29570D01*
X16515Y-29852D01*
X16459Y-30077D01*
X16403Y-30189D01*
X16347Y-30245D01*
X16234Y-30302D01*
X16122Y-30302D01*
X16009Y-30245D01*
X15953Y-30189D01*
X15897Y-30077D01*
X15840Y-29852D01*
X15840Y-29570D01*
X15897Y-29345D01*
X15953Y-29233D01*
X16009Y-29177D01*
X16122Y-29120D01*
X17021Y-30189D02*
X17078Y-30245D01*
X17021Y-30302D01*
X16965Y-30245D01*
X17021Y-30189D01*
X17021Y-30302D01*
X17809Y-29120D02*
X17921Y-29120D01*
X18034Y-29177D01*
X18090Y-29233D01*
X18146Y-29345D01*
X18203Y-29570D01*
X18203Y-29852D01*
X18146Y-30077D01*
X18090Y-30189D01*
X18034Y-30245D01*
X17921Y-30302D01*
X17809Y-30302D01*
X17696Y-30245D01*
X17640Y-30189D01*
X17584Y-30077D01*
X17528Y-29852D01*
X17528Y-29570D01*
X17584Y-29345D01*
X17640Y-29233D01*
X17696Y-29177D01*
X17809Y-29120D01*
X19271Y-29120D02*
X18709Y-29120D01*
X18652Y-29683D01*
X18709Y-29627D01*
X18821Y-29570D01*
X19102Y-29570D01*
X19215Y-29627D01*
X19271Y-29683D01*
X19327Y-29795D01*
X19327Y-30077D01*
X19271Y-30189D01*
X19215Y-30245D01*
X19102Y-30302D01*
X18821Y-30302D01*
X18709Y-30245D01*
X18652Y-30189D01*
X19890Y-30302D02*
X20115Y-30302D01*
X20227Y-30245D01*
X20284Y-30189D01*
X20396Y-30020D01*
X20452Y-29795D01*
X20452Y-29345D01*
X20396Y-29233D01*
X20340Y-29177D01*
X20227Y-29120D01*
X20002Y-29120D01*
X19890Y-29177D01*
X19834Y-29233D01*
X19777Y-29345D01*
X19777Y-29627D01*
X19834Y-29739D01*
X19890Y-29795D01*
X20002Y-29852D01*
X20227Y-29852D01*
X20340Y-29795D01*
X20396Y-29739D01*
X20452Y-29627D01*
X20902Y-29120D02*
X20902Y-29345D01*
X21352Y-29120D02*
X21352Y-29345D01*
X23096Y-30751D02*
X23039Y-30695D01*
X22927Y-30526D01*
X22871Y-30414D01*
X22814Y-30245D01*
X22758Y-29964D01*
X22758Y-29739D01*
X22814Y-29458D01*
X22871Y-29289D01*
X22927Y-29177D01*
X23039Y-29008D01*
X23096Y-28952D01*
X24164Y-30302D02*
X23489Y-30302D01*
X23827Y-30302D02*
X23827Y-29120D01*
X23714Y-29289D01*
X23602Y-29402D01*
X23489Y-29458D01*
X25514Y-30245D02*
X25627Y-30302D01*
X25852Y-30302D01*
X25964Y-30245D01*
X26020Y-30133D01*
X26020Y-30077D01*
X25964Y-29964D01*
X25852Y-29908D01*
X25683Y-29908D01*
X25570Y-29852D01*
X25514Y-29739D01*
X25514Y-29683D01*
X25570Y-29570D01*
X25683Y-29514D01*
X25852Y-29514D01*
X25964Y-29570D01*
X26695Y-30302D02*
X26583Y-30245D01*
X26526Y-30133D01*
X26526Y-29120D01*
X27314Y-30302D02*
X27201Y-30245D01*
X27145Y-30189D01*
X27089Y-30077D01*
X27089Y-29739D01*
X27145Y-29627D01*
X27201Y-29570D01*
X27314Y-29514D01*
X27483Y-29514D01*
X27595Y-29570D01*
X27651Y-29627D01*
X27708Y-29739D01*
X27708Y-30077D01*
X27651Y-30189D01*
X27595Y-30245D01*
X27483Y-30302D01*
X27314Y-30302D01*
X28045Y-29514D02*
X28495Y-29514D01*
X28214Y-29120D02*
X28214Y-30133D01*
X28270Y-30245D01*
X28383Y-30302D01*
X28495Y-30302D01*
X28776Y-30751D02*
X28832Y-30695D01*
X28945Y-30526D01*
X29001Y-30414D01*
X29057Y-30245D01*
X29114Y-29964D01*
X29114Y-29739D01*
X29057Y-29458D01*
X29001Y-29289D01*
X28945Y-29177D01*
X28832Y-29008D01*
X28776Y-28952D01*
X4311Y-30933D02*
X4311Y-31720D01*
X3917Y-31326D02*
X4704Y-31326D01*
X5717Y-30792D02*
X5773Y-30736D01*
X5885Y-30679D01*
X6167Y-30679D01*
X6279Y-30736D01*
X6335Y-30792D01*
X6392Y-30904D01*
X6392Y-31017D01*
X6335Y-31186D01*
X5660Y-31861D01*
X6392Y-31861D01*
X6898Y-31748D02*
X6954Y-31804D01*
X6898Y-31861D01*
X6841Y-31804D01*
X6898Y-31748D01*
X6898Y-31861D01*
X7685Y-30679D02*
X7798Y-30679D01*
X7910Y-30736D01*
X7966Y-30792D01*
X8023Y-30904D01*
X8079Y-31129D01*
X8079Y-31411D01*
X8023Y-31636D01*
X7966Y-31748D01*
X7910Y-31804D01*
X7798Y-31861D01*
X7685Y-31861D01*
X7573Y-31804D01*
X7516Y-31748D01*
X7460Y-31636D01*
X7404Y-31411D01*
X7404Y-31129D01*
X7460Y-30904D01*
X7516Y-30792D01*
X7573Y-30736D01*
X7685Y-30679D01*
X8810Y-30679D02*
X8922Y-30679D01*
X9035Y-30736D01*
X9091Y-30792D01*
X9147Y-30904D01*
X9204Y-31129D01*
X9204Y-31411D01*
X9147Y-31636D01*
X9091Y-31748D01*
X9035Y-31804D01*
X8922Y-31861D01*
X8810Y-31861D01*
X8697Y-31804D01*
X8641Y-31748D01*
X8585Y-31636D01*
X8529Y-31411D01*
X8529Y-31129D01*
X8585Y-30904D01*
X8641Y-30792D01*
X8697Y-30736D01*
X8810Y-30679D01*
X9710Y-31861D02*
X9710Y-31073D01*
X9710Y-31186D02*
X9766Y-31129D01*
X9879Y-31073D01*
X10047Y-31073D01*
X10160Y-31129D01*
X10216Y-31242D01*
X10216Y-31861D01*
X10216Y-31242D02*
X10272Y-31129D01*
X10385Y-31073D01*
X10553Y-31073D01*
X10666Y-31129D01*
X10722Y-31242D01*
X10722Y-31861D01*
X11285Y-31861D02*
X11285Y-31073D01*
X11285Y-31186D02*
X11341Y-31129D01*
X11453Y-31073D01*
X11622Y-31073D01*
X11735Y-31129D01*
X11791Y-31242D01*
X11791Y-31861D01*
X11791Y-31242D02*
X11847Y-31129D01*
X11960Y-31073D01*
X12128Y-31073D01*
X12241Y-31129D01*
X12297Y-31242D01*
X12297Y-31861D01*
X14603Y-30623D02*
X13591Y-32142D01*
X16122Y-30679D02*
X16234Y-30679D01*
X16347Y-30736D01*
X16403Y-30792D01*
X16459Y-30904D01*
X16515Y-31129D01*
X16515Y-31411D01*
X16459Y-31636D01*
X16403Y-31748D01*
X16347Y-31804D01*
X16234Y-31861D01*
X16122Y-31861D01*
X16009Y-31804D01*
X15953Y-31748D01*
X15897Y-31636D01*
X15840Y-31411D01*
X15840Y-31129D01*
X15897Y-30904D01*
X15953Y-30792D01*
X16009Y-30736D01*
X16122Y-30679D01*
X17021Y-31748D02*
X17078Y-31804D01*
X17021Y-31861D01*
X16965Y-31804D01*
X17021Y-31748D01*
X17021Y-31861D01*
X17809Y-30679D02*
X17921Y-30679D01*
X18034Y-30736D01*
X18090Y-30792D01*
X18146Y-30904D01*
X18203Y-31129D01*
X18203Y-31411D01*
X18146Y-31636D01*
X18090Y-31748D01*
X18034Y-31804D01*
X17921Y-31861D01*
X17809Y-31861D01*
X17696Y-31804D01*
X17640Y-31748D01*
X17584Y-31636D01*
X17528Y-31411D01*
X17528Y-31129D01*
X17584Y-30904D01*
X17640Y-30792D01*
X17696Y-30736D01*
X17809Y-30679D01*
X18596Y-30679D02*
X19384Y-30679D01*
X18877Y-31861D01*
X19890Y-31861D02*
X20115Y-31861D01*
X20227Y-31804D01*
X20284Y-31748D01*
X20396Y-31579D01*
X20452Y-31354D01*
X20452Y-30904D01*
X20396Y-30792D01*
X20340Y-30736D01*
X20227Y-30679D01*
X20002Y-30679D01*
X19890Y-30736D01*
X19834Y-30792D01*
X19777Y-30904D01*
X19777Y-31186D01*
X19834Y-31298D01*
X19890Y-31354D01*
X20002Y-31411D01*
X20227Y-31411D01*
X20340Y-31354D01*
X20396Y-31298D01*
X20452Y-31186D01*
X20902Y-30679D02*
X20902Y-30904D01*
X21352Y-30679D02*
X21352Y-30904D01*
X23096Y-32311D02*
X23039Y-32254D01*
X22927Y-32086D01*
X22871Y-31973D01*
X22814Y-31804D01*
X22758Y-31523D01*
X22758Y-31298D01*
X22814Y-31017D01*
X22871Y-30848D01*
X22927Y-30736D01*
X23039Y-30567D01*
X23096Y-30511D01*
X24164Y-31861D02*
X23489Y-31861D01*
X23827Y-31861D02*
X23827Y-30679D01*
X23714Y-30848D01*
X23602Y-30961D01*
X23489Y-31017D01*
X25570Y-31861D02*
X25570Y-30679D01*
X26077Y-31861D02*
X26077Y-31242D01*
X26020Y-31129D01*
X25908Y-31073D01*
X25739Y-31073D01*
X25627Y-31129D01*
X25570Y-31186D01*
X26808Y-31861D02*
X26695Y-31804D01*
X26639Y-31748D01*
X26583Y-31636D01*
X26583Y-31298D01*
X26639Y-31186D01*
X26695Y-31129D01*
X26808Y-31073D01*
X26976Y-31073D01*
X27089Y-31129D01*
X27145Y-31186D01*
X27201Y-31298D01*
X27201Y-31636D01*
X27145Y-31748D01*
X27089Y-31804D01*
X26976Y-31861D01*
X26808Y-31861D01*
X27876Y-31861D02*
X27764Y-31804D01*
X27708Y-31692D01*
X27708Y-30679D01*
X28776Y-31804D02*
X28664Y-31861D01*
X28439Y-31861D01*
X28326Y-31804D01*
X28270Y-31692D01*
X28270Y-31242D01*
X28326Y-31129D01*
X28439Y-31073D01*
X28664Y-31073D01*
X28776Y-31129D01*
X28832Y-31242D01*
X28832Y-31354D01*
X28270Y-31467D01*
X29226Y-32311D02*
X29282Y-32254D01*
X29395Y-32086D01*
X29451Y-31973D01*
X29507Y-31804D01*
X29564Y-31523D01*
X29564Y-31298D01*
X29507Y-31017D01*
X29451Y-30848D01*
X29395Y-30736D01*
X29282Y-30567D01*
X29226Y-30511D01*
G54D12*
X4580Y-33185D02*
X4580Y-32586D01*
X3982Y-32586D01*
X3982Y-33185D01*
X4580Y-33185D01*
G54D13*
X5717Y-32351D02*
X5773Y-32295D01*
X5885Y-32239D01*
X6167Y-32239D01*
X6279Y-32295D01*
X6335Y-32351D01*
X6392Y-32464D01*
X6392Y-32576D01*
X6335Y-32745D01*
X5660Y-33420D01*
X6392Y-33420D01*
X6898Y-33307D02*
X6954Y-33363D01*
X6898Y-33420D01*
X6841Y-33363D01*
X6898Y-33307D01*
X6898Y-33420D01*
X8079Y-33420D02*
X7404Y-33420D01*
X7741Y-33420D02*
X7741Y-32239D01*
X7629Y-32407D01*
X7516Y-32520D01*
X7404Y-32576D01*
X9147Y-32239D02*
X8585Y-32239D01*
X8529Y-32801D01*
X8585Y-32745D01*
X8697Y-32688D01*
X8979Y-32688D01*
X9091Y-32745D01*
X9147Y-32801D01*
X9204Y-32913D01*
X9204Y-33195D01*
X9147Y-33307D01*
X9091Y-33363D01*
X8979Y-33420D01*
X8697Y-33420D01*
X8585Y-33363D01*
X8529Y-33307D01*
X9710Y-33420D02*
X9710Y-32632D01*
X9710Y-32745D02*
X9766Y-32688D01*
X9879Y-32632D01*
X10047Y-32632D01*
X10160Y-32688D01*
X10216Y-32801D01*
X10216Y-33420D01*
X10216Y-32801D02*
X10272Y-32688D01*
X10385Y-32632D01*
X10553Y-32632D01*
X10666Y-32688D01*
X10722Y-32801D01*
X10722Y-33420D01*
X11285Y-33420D02*
X11285Y-32632D01*
X11285Y-32745D02*
X11341Y-32688D01*
X11453Y-32632D01*
X11622Y-32632D01*
X11735Y-32688D01*
X11791Y-32801D01*
X11791Y-33420D01*
X11791Y-32801D02*
X11847Y-32688D01*
X11960Y-32632D01*
X12128Y-32632D01*
X12241Y-32688D01*
X12297Y-32801D01*
X12297Y-33420D01*
X14603Y-32182D02*
X13591Y-33701D01*
X16122Y-32239D02*
X16234Y-32239D01*
X16347Y-32295D01*
X16403Y-32351D01*
X16459Y-32464D01*
X16515Y-32688D01*
X16515Y-32970D01*
X16459Y-33195D01*
X16403Y-33307D01*
X16347Y-33363D01*
X16234Y-33420D01*
X16122Y-33420D01*
X16009Y-33363D01*
X15953Y-33307D01*
X15897Y-33195D01*
X15840Y-32970D01*
X15840Y-32688D01*
X15897Y-32464D01*
X15953Y-32351D01*
X16009Y-32295D01*
X16122Y-32239D01*
X17021Y-33307D02*
X17078Y-33363D01*
X17021Y-33420D01*
X16965Y-33363D01*
X17021Y-33307D01*
X17021Y-33420D01*
X17809Y-32239D02*
X17921Y-32239D01*
X18034Y-32295D01*
X18090Y-32351D01*
X18146Y-32464D01*
X18203Y-32688D01*
X18203Y-32970D01*
X18146Y-33195D01*
X18090Y-33307D01*
X18034Y-33363D01*
X17921Y-33420D01*
X17809Y-33420D01*
X17696Y-33363D01*
X17640Y-33307D01*
X17584Y-33195D01*
X17528Y-32970D01*
X17528Y-32688D01*
X17584Y-32464D01*
X17640Y-32351D01*
X17696Y-32295D01*
X17809Y-32239D01*
X18877Y-32745D02*
X18765Y-32688D01*
X18709Y-32632D01*
X18652Y-32520D01*
X18652Y-32464D01*
X18709Y-32351D01*
X18765Y-32295D01*
X18877Y-32239D01*
X19102Y-32239D01*
X19215Y-32295D01*
X19271Y-32351D01*
X19327Y-32464D01*
X19327Y-32520D01*
X19271Y-32632D01*
X19215Y-32688D01*
X19102Y-32745D01*
X18877Y-32745D01*
X18765Y-32801D01*
X18709Y-32857D01*
X18652Y-32970D01*
X18652Y-33195D01*
X18709Y-33307D01*
X18765Y-33363D01*
X18877Y-33420D01*
X19102Y-33420D01*
X19215Y-33363D01*
X19271Y-33307D01*
X19327Y-33195D01*
X19327Y-32970D01*
X19271Y-32857D01*
X19215Y-32801D01*
X19102Y-32745D01*
X20396Y-32239D02*
X19834Y-32239D01*
X19777Y-32801D01*
X19834Y-32745D01*
X19946Y-32688D01*
X20227Y-32688D01*
X20340Y-32745D01*
X20396Y-32801D01*
X20452Y-32913D01*
X20452Y-33195D01*
X20396Y-33307D01*
X20340Y-33363D01*
X20227Y-33420D01*
X19946Y-33420D01*
X19834Y-33363D01*
X19777Y-33307D01*
X20902Y-32239D02*
X20902Y-32464D01*
X21352Y-32239D02*
X21352Y-32464D01*
X23096Y-33870D02*
X23039Y-33813D01*
X22927Y-33645D01*
X22871Y-33532D01*
X22814Y-33363D01*
X22758Y-33082D01*
X22758Y-32857D01*
X22814Y-32576D01*
X22871Y-32407D01*
X22927Y-32295D01*
X23039Y-32126D01*
X23096Y-32070D01*
X23771Y-32239D02*
X23883Y-32239D01*
X23996Y-32295D01*
X24052Y-32351D01*
X24108Y-32464D01*
X24164Y-32688D01*
X24164Y-32970D01*
X24108Y-33195D01*
X24052Y-33307D01*
X23996Y-33363D01*
X23883Y-33420D01*
X23771Y-33420D01*
X23658Y-33363D01*
X23602Y-33307D01*
X23546Y-33195D01*
X23489Y-32970D01*
X23489Y-32688D01*
X23546Y-32464D01*
X23602Y-32351D01*
X23658Y-32295D01*
X23771Y-32239D01*
X25570Y-33420D02*
X25570Y-32239D01*
X26077Y-33420D02*
X26077Y-32801D01*
X26020Y-32688D01*
X25908Y-32632D01*
X25739Y-32632D01*
X25627Y-32688D01*
X25570Y-32745D01*
X26808Y-33420D02*
X26695Y-33363D01*
X26639Y-33307D01*
X26583Y-33195D01*
X26583Y-32857D01*
X26639Y-32745D01*
X26695Y-32688D01*
X26808Y-32632D01*
X26976Y-32632D01*
X27089Y-32688D01*
X27145Y-32745D01*
X27201Y-32857D01*
X27201Y-33195D01*
X27145Y-33307D01*
X27089Y-33363D01*
X26976Y-33420D01*
X26808Y-33420D01*
X27876Y-33420D02*
X27764Y-33363D01*
X27708Y-33251D01*
X27708Y-32239D01*
X28776Y-33363D02*
X28664Y-33420D01*
X28439Y-33420D01*
X28326Y-33363D01*
X28270Y-33251D01*
X28270Y-32801D01*
X28326Y-32688D01*
X28439Y-32632D01*
X28664Y-32632D01*
X28776Y-32688D01*
X28832Y-32801D01*
X28832Y-32913D01*
X28270Y-33026D01*
X29282Y-33363D02*
X29395Y-33420D01*
X29620Y-33420D01*
X29732Y-33363D01*
X29789Y-33251D01*
X29789Y-33195D01*
X29732Y-33082D01*
X29620Y-33026D01*
X29451Y-33026D01*
X29339Y-32970D01*
X29282Y-32857D01*
X29282Y-32801D01*
X29339Y-32688D01*
X29451Y-32632D01*
X29620Y-32632D01*
X29732Y-32688D01*
X31195Y-32970D02*
X32095Y-32970D01*
X31645Y-33420D02*
X31645Y-32520D01*
X33501Y-32351D02*
X33557Y-32295D01*
X33669Y-32239D01*
X33951Y-32239D01*
X34063Y-32295D01*
X34119Y-32351D01*
X34176Y-32464D01*
X34176Y-32576D01*
X34119Y-32745D01*
X33444Y-33420D01*
X34176Y-33420D01*
X35525Y-33363D02*
X35638Y-33420D01*
X35863Y-33420D01*
X35975Y-33363D01*
X36032Y-33251D01*
X36032Y-33195D01*
X35975Y-33082D01*
X35863Y-33026D01*
X35694Y-33026D01*
X35582Y-32970D01*
X35525Y-32857D01*
X35525Y-32801D01*
X35582Y-32688D01*
X35694Y-32632D01*
X35863Y-32632D01*
X35975Y-32688D01*
X36706Y-33420D02*
X36594Y-33363D01*
X36538Y-33251D01*
X36538Y-32239D01*
X37325Y-33420D02*
X37213Y-33363D01*
X37156Y-33307D01*
X37100Y-33195D01*
X37100Y-32857D01*
X37156Y-32745D01*
X37213Y-32688D01*
X37325Y-32632D01*
X37494Y-32632D01*
X37606Y-32688D01*
X37663Y-32745D01*
X37719Y-32857D01*
X37719Y-33195D01*
X37663Y-33307D01*
X37606Y-33363D01*
X37494Y-33420D01*
X37325Y-33420D01*
X38056Y-32632D02*
X38506Y-32632D01*
X38225Y-32239D02*
X38225Y-33251D01*
X38281Y-33363D01*
X38394Y-33420D01*
X38506Y-33420D01*
X38844Y-33363D02*
X38956Y-33420D01*
X39181Y-33420D01*
X39294Y-33363D01*
X39350Y-33251D01*
X39350Y-33195D01*
X39294Y-33082D01*
X39181Y-33026D01*
X39012Y-33026D01*
X38900Y-32970D01*
X38844Y-32857D01*
X38844Y-32801D01*
X38900Y-32688D01*
X39012Y-32632D01*
X39181Y-32632D01*
X39294Y-32688D01*
X39744Y-33870D02*
X39800Y-33813D01*
X39912Y-33645D01*
X39969Y-33532D01*
X40025Y-33363D01*
X40081Y-33082D01*
X40081Y-32857D01*
X40025Y-32576D01*
X39969Y-32407D01*
X39912Y-32295D01*
X39800Y-32126D01*
X39744Y-32070D01*
G54D12*
X4064Y-35084D02*
X4704Y-34444D01*
X4064Y-33804D01*
X3424Y-34444D01*
X4064Y-35084D01*
G54D13*
X5660Y-33798D02*
X6392Y-33798D01*
X5998Y-34248D01*
X6167Y-34248D01*
X6279Y-34304D01*
X6335Y-34360D01*
X6392Y-34473D01*
X6392Y-34754D01*
X6335Y-34866D01*
X6279Y-34922D01*
X6167Y-34979D01*
X5829Y-34979D01*
X5717Y-34922D01*
X5660Y-34866D01*
X6898Y-34866D02*
X6954Y-34922D01*
X6898Y-34979D01*
X6841Y-34922D01*
X6898Y-34866D01*
X6898Y-34979D01*
X7404Y-33910D02*
X7460Y-33854D01*
X7573Y-33798D01*
X7854Y-33798D01*
X7966Y-33854D01*
X8023Y-33910D01*
X8079Y-34023D01*
X8079Y-34135D01*
X8023Y-34304D01*
X7348Y-34979D01*
X8079Y-34979D01*
X9147Y-33798D02*
X8585Y-33798D01*
X8529Y-34360D01*
X8585Y-34304D01*
X8697Y-34248D01*
X8979Y-34248D01*
X9091Y-34304D01*
X9147Y-34360D01*
X9204Y-34473D01*
X9204Y-34754D01*
X9147Y-34866D01*
X9091Y-34922D01*
X8979Y-34979D01*
X8697Y-34979D01*
X8585Y-34922D01*
X8529Y-34866D01*
X9710Y-34979D02*
X9710Y-34191D01*
X9710Y-34304D02*
X9766Y-34248D01*
X9879Y-34191D01*
X10047Y-34191D01*
X10160Y-34248D01*
X10216Y-34360D01*
X10216Y-34979D01*
X10216Y-34360D02*
X10272Y-34248D01*
X10385Y-34191D01*
X10553Y-34191D01*
X10666Y-34248D01*
X10722Y-34360D01*
X10722Y-34979D01*
X11285Y-34979D02*
X11285Y-34191D01*
X11285Y-34304D02*
X11341Y-34248D01*
X11453Y-34191D01*
X11622Y-34191D01*
X11735Y-34248D01*
X11791Y-34360D01*
X11791Y-34979D01*
X11791Y-34360D02*
X11847Y-34248D01*
X11960Y-34191D01*
X12128Y-34191D01*
X12241Y-34248D01*
X12297Y-34360D01*
X12297Y-34979D01*
X14603Y-33741D02*
X13591Y-35260D01*
X16122Y-33798D02*
X16234Y-33798D01*
X16347Y-33854D01*
X16403Y-33910D01*
X16459Y-34023D01*
X16515Y-34248D01*
X16515Y-34529D01*
X16459Y-34754D01*
X16403Y-34866D01*
X16347Y-34922D01*
X16234Y-34979D01*
X16122Y-34979D01*
X16009Y-34922D01*
X15953Y-34866D01*
X15897Y-34754D01*
X15840Y-34529D01*
X15840Y-34248D01*
X15897Y-34023D01*
X15953Y-33910D01*
X16009Y-33854D01*
X16122Y-33798D01*
X17021Y-34866D02*
X17078Y-34922D01*
X17021Y-34979D01*
X16965Y-34922D01*
X17021Y-34866D01*
X17021Y-34979D01*
X18203Y-34979D02*
X17528Y-34979D01*
X17865Y-34979D02*
X17865Y-33798D01*
X17753Y-33966D01*
X17640Y-34079D01*
X17528Y-34135D01*
X18652Y-33910D02*
X18709Y-33854D01*
X18821Y-33798D01*
X19102Y-33798D01*
X19215Y-33854D01*
X19271Y-33910D01*
X19327Y-34023D01*
X19327Y-34135D01*
X19271Y-34304D01*
X18596Y-34979D01*
X19327Y-34979D01*
X20002Y-34304D02*
X19890Y-34248D01*
X19834Y-34191D01*
X19777Y-34079D01*
X19777Y-34023D01*
X19834Y-33910D01*
X19890Y-33854D01*
X20002Y-33798D01*
X20227Y-33798D01*
X20340Y-33854D01*
X20396Y-33910D01*
X20452Y-34023D01*
X20452Y-34079D01*
X20396Y-34191D01*
X20340Y-34248D01*
X20227Y-34304D01*
X20002Y-34304D01*
X19890Y-34360D01*
X19834Y-34416D01*
X19777Y-34529D01*
X19777Y-34754D01*
X19834Y-34866D01*
X19890Y-34922D01*
X20002Y-34979D01*
X20227Y-34979D01*
X20340Y-34922D01*
X20396Y-34866D01*
X20452Y-34754D01*
X20452Y-34529D01*
X20396Y-34416D01*
X20340Y-34360D01*
X20227Y-34304D01*
X20902Y-33798D02*
X20902Y-34023D01*
X21352Y-33798D02*
X21352Y-34023D01*
X23096Y-35429D02*
X23039Y-35372D01*
X22927Y-35204D01*
X22871Y-35091D01*
X22814Y-34922D01*
X22758Y-34641D01*
X22758Y-34416D01*
X22814Y-34135D01*
X22871Y-33966D01*
X22927Y-33854D01*
X23039Y-33685D01*
X23096Y-33629D01*
X24052Y-34191D02*
X24052Y-34979D01*
X23771Y-33741D02*
X23489Y-34585D01*
X24221Y-34585D01*
X25570Y-34979D02*
X25570Y-33798D01*
X26077Y-34979D02*
X26077Y-34360D01*
X26020Y-34248D01*
X25908Y-34191D01*
X25739Y-34191D01*
X25627Y-34248D01*
X25570Y-34304D01*
X26808Y-34979D02*
X26695Y-34922D01*
X26639Y-34866D01*
X26583Y-34754D01*
X26583Y-34416D01*
X26639Y-34304D01*
X26695Y-34248D01*
X26808Y-34191D01*
X26976Y-34191D01*
X27089Y-34248D01*
X27145Y-34304D01*
X27201Y-34416D01*
X27201Y-34754D01*
X27145Y-34866D01*
X27089Y-34922D01*
X26976Y-34979D01*
X26808Y-34979D01*
X27876Y-34979D02*
X27764Y-34922D01*
X27708Y-34810D01*
X27708Y-33798D01*
X28776Y-34922D02*
X28664Y-34979D01*
X28439Y-34979D01*
X28326Y-34922D01*
X28270Y-34810D01*
X28270Y-34360D01*
X28326Y-34248D01*
X28439Y-34191D01*
X28664Y-34191D01*
X28776Y-34248D01*
X28832Y-34360D01*
X28832Y-34473D01*
X28270Y-34585D01*
X29282Y-34922D02*
X29395Y-34979D01*
X29620Y-34979D01*
X29732Y-34922D01*
X29789Y-34810D01*
X29789Y-34754D01*
X29732Y-34641D01*
X29620Y-34585D01*
X29451Y-34585D01*
X29339Y-34529D01*
X29282Y-34416D01*
X29282Y-34360D01*
X29339Y-34248D01*
X29451Y-34191D01*
X29620Y-34191D01*
X29732Y-34248D01*
X30182Y-35429D02*
X30239Y-35372D01*
X30351Y-35204D01*
X30407Y-35091D01*
X30464Y-34922D01*
X30520Y-34641D01*
X30520Y-34416D01*
X30464Y-34135D01*
X30407Y-33966D01*
X30351Y-33854D01*
X30239Y-33685D01*
X30182Y-33629D01*
M02*
