G04 (created by PCBNEW (2013-mar-13)-testing) date Tue 15 Oct 2013 19:00:41 BST*
%MOIN*%
G04 Gerber Fmt 3.4, Leading zero omitted, Abs format*
%FSLAX34Y34*%
G01*
G70*
G90*
G04 APERTURE LIST*
%ADD10C,0.005906*%
%ADD11O,0.175197X0.139764*%
%ADD12C,0.088583*%
%ADD13R,0.021643X0.035443*%
%ADD14C,0.068898*%
%ADD15R,0.059843X0.034843*%
%ADD16R,0.034843X0.059843*%
%ADD17C,0.075843*%
%ADD18R,0.064843X0.044843*%
%ADD19R,0.044843X0.064843*%
%ADD20C,0.153543*%
%ADD21C,0.068943*%
%ADD22C,0.096457*%
%ADD23R,0.037443X0.072843*%
%ADD24R,0.037443X0.092543*%
%ADD25R,0.088543X0.118143*%
%ADD26R,0.088583X0.127953*%
%ADD27C,0.147638*%
%ADD28R,0.064943X0.096443*%
%ADD29R,0.064943X0.045243*%
%ADD30R,0.069843X0.069843*%
%ADD31C,0.069843*%
%ADD32C,0.061024*%
G04 APERTURE END LIST*
G54D10*
G54D11*
X14074Y-7874D03*
G54D12*
X11181Y-6574D03*
X12165Y-6574D03*
X10196Y-6574D03*
X13149Y-6574D03*
G54D11*
X9271Y-7874D03*
G54D13*
X23917Y-22212D03*
X23720Y-22212D03*
X23523Y-22212D03*
X23326Y-22212D03*
X23326Y-22665D03*
X23523Y-22665D03*
X23720Y-22665D03*
X23917Y-22665D03*
X23129Y-9220D03*
X22932Y-9220D03*
X22735Y-9220D03*
X22538Y-9220D03*
X22538Y-9673D03*
X22735Y-9673D03*
X22932Y-9673D03*
X23129Y-9673D03*
X35098Y-9457D03*
X34901Y-9457D03*
X34704Y-9457D03*
X34507Y-9457D03*
X34507Y-9910D03*
X34704Y-9910D03*
X34901Y-9910D03*
X35098Y-9910D03*
G54D14*
X24803Y-6929D03*
X26377Y-6929D03*
G54D12*
X23976Y-6929D03*
X27204Y-6929D03*
G54D14*
X25590Y-6929D03*
X19291Y-6929D03*
X20866Y-6929D03*
G54D12*
X18464Y-6929D03*
X21692Y-6929D03*
G54D14*
X20078Y-6929D03*
G54D15*
X10942Y-12167D03*
X10942Y-11667D03*
X10942Y-11167D03*
X10942Y-10667D03*
X8742Y-10667D03*
X8742Y-11167D03*
X8742Y-11667D03*
X8742Y-12167D03*
X30627Y-12773D03*
X30627Y-12273D03*
X30627Y-11773D03*
X30627Y-11273D03*
X30627Y-10773D03*
X30627Y-10273D03*
X30627Y-9773D03*
X30627Y-9273D03*
X28427Y-9273D03*
X28427Y-9773D03*
X28427Y-10273D03*
X28427Y-10773D03*
X28427Y-11273D03*
X28427Y-11773D03*
X28427Y-12273D03*
X28427Y-12773D03*
X29446Y-19072D03*
X29446Y-18572D03*
X29446Y-18072D03*
X29446Y-17572D03*
X29446Y-17072D03*
X29446Y-16572D03*
X29446Y-16072D03*
X29446Y-15572D03*
X27246Y-15572D03*
X27246Y-16072D03*
X27246Y-16572D03*
X27246Y-17072D03*
X27246Y-17572D03*
X27246Y-18072D03*
X27246Y-18572D03*
X27246Y-19072D03*
X34958Y-17104D03*
X34958Y-16604D03*
X34958Y-16104D03*
X34958Y-15604D03*
X34958Y-15104D03*
X34958Y-14604D03*
X34958Y-14104D03*
X34958Y-13604D03*
X32758Y-13604D03*
X32758Y-14104D03*
X32758Y-14604D03*
X32758Y-15104D03*
X32758Y-15604D03*
X32758Y-16104D03*
X32758Y-16604D03*
X32758Y-17104D03*
X14096Y-13210D03*
X14096Y-13710D03*
X14096Y-14210D03*
X14096Y-14710D03*
X14096Y-15210D03*
X14096Y-15710D03*
X14096Y-16210D03*
X14096Y-16710D03*
X16296Y-16710D03*
X16296Y-16210D03*
X16296Y-15710D03*
X16296Y-15210D03*
X16296Y-14710D03*
X16296Y-14210D03*
X16296Y-13710D03*
X16296Y-13210D03*
G54D16*
X23153Y-16616D03*
X22653Y-16616D03*
X22153Y-16616D03*
X21653Y-16616D03*
X21153Y-16616D03*
X20653Y-16616D03*
X20153Y-16616D03*
X20153Y-18816D03*
X20653Y-18816D03*
X21153Y-18816D03*
X21653Y-18816D03*
X22153Y-18816D03*
X22653Y-18816D03*
X23153Y-18816D03*
G54D17*
X31129Y-22440D03*
X30129Y-22440D03*
X17610Y-22440D03*
X18610Y-22440D03*
G54D18*
X36771Y-13327D03*
X36771Y-12577D03*
G54D19*
X40099Y-15196D03*
X39349Y-15196D03*
X7067Y-12204D03*
X6317Y-12204D03*
G54D18*
X13385Y-12225D03*
X13385Y-11475D03*
G54D20*
X39035Y-21968D03*
X34035Y-21968D03*
G54D21*
X37940Y-20968D03*
X37539Y-20267D03*
X37137Y-20968D03*
X36736Y-20267D03*
X36334Y-20968D03*
X35933Y-20267D03*
X35531Y-20968D03*
X35129Y-20267D03*
G54D22*
X39736Y-20618D03*
X33334Y-20618D03*
G54D20*
X14704Y-22047D03*
X9704Y-22047D03*
G54D21*
X13610Y-21047D03*
X13208Y-20346D03*
X12807Y-21047D03*
X12405Y-20346D03*
X12003Y-21047D03*
X11602Y-20346D03*
X11200Y-21047D03*
X10799Y-20346D03*
G54D22*
X15405Y-20696D03*
X9003Y-20696D03*
G54D23*
X40944Y-16614D03*
G54D24*
X41535Y-16516D03*
G54D23*
X42126Y-16614D03*
G54D25*
X41535Y-15571D03*
G54D26*
X41889Y-9409D03*
X41889Y-13740D03*
X39527Y-13740D03*
X39527Y-9409D03*
G54D27*
X41850Y-11574D03*
X40118Y-11574D03*
G54D28*
X43267Y-15590D03*
G54D29*
X43267Y-14586D03*
G54D30*
X42958Y-17883D03*
G54D31*
X41958Y-17883D03*
X40958Y-17883D03*
G54D32*
X31505Y-8307D03*
X31505Y-6181D03*
X30521Y-8307D03*
X32490Y-8307D03*
X30521Y-6181D03*
X32490Y-6181D03*
X37007Y-8307D03*
X37007Y-6181D03*
X36023Y-8307D03*
X37992Y-8307D03*
X36023Y-6181D03*
X37992Y-6181D03*
M02*
