G04 (created by PCBNEW (2013-mar-13)-testing) date Tue 15 Oct 2013 19:00:41 BST*
%MOIN*%
G04 Gerber Fmt 3.4, Leading zero omitted, Abs format*
%FSLAX34Y34*%
G01*
G70*
G90*
G04 APERTURE LIST*
%ADD10C,0.005906*%
%ADD11O,0.175197X0.139764*%
%ADD12C,0.088583*%
%ADD13C,0.068898*%
%ADD14R,0.059843X0.034843*%
%ADD15R,0.034843X0.059843*%
%ADD16C,0.075843*%
%ADD17R,0.021643X0.035443*%
%ADD18C,0.153543*%
%ADD19C,0.068943*%
%ADD20C,0.096457*%
%ADD21C,0.147638*%
%ADD22R,0.069843X0.069843*%
%ADD23C,0.069843*%
%ADD24C,0.061024*%
G04 APERTURE END LIST*
G54D10*
G54D11*
X14074Y-7874D03*
G54D12*
X11181Y-6574D03*
X12165Y-6574D03*
X10196Y-6574D03*
X13149Y-6574D03*
G54D11*
X9271Y-7874D03*
G54D13*
X24803Y-6929D03*
X26377Y-6929D03*
G54D12*
X23976Y-6929D03*
X27204Y-6929D03*
G54D13*
X25590Y-6929D03*
X19291Y-6929D03*
X20866Y-6929D03*
G54D12*
X18464Y-6929D03*
X21692Y-6929D03*
G54D13*
X20078Y-6929D03*
G54D14*
X24879Y-11807D03*
X24879Y-12307D03*
X24879Y-12807D03*
X24879Y-13307D03*
X24879Y-13807D03*
X24879Y-14307D03*
X24879Y-14807D03*
X22679Y-14807D03*
X22679Y-14307D03*
X22679Y-13807D03*
X22679Y-13307D03*
X22679Y-12807D03*
X22679Y-12307D03*
X22679Y-11807D03*
G54D15*
X20555Y-12281D03*
X20055Y-12281D03*
X19555Y-12281D03*
X19055Y-12281D03*
X18555Y-12281D03*
X18055Y-12281D03*
X17555Y-12281D03*
X17555Y-10081D03*
X18055Y-10081D03*
X18555Y-10081D03*
X19055Y-10081D03*
X19555Y-10081D03*
X20055Y-10081D03*
X20555Y-10081D03*
G54D16*
X31129Y-22440D03*
X30129Y-22440D03*
X17610Y-22440D03*
X18610Y-22440D03*
G54D17*
X26614Y-22075D03*
X26811Y-22075D03*
X27008Y-22075D03*
X27205Y-22075D03*
X27205Y-22528D03*
X27008Y-22528D03*
X26811Y-22528D03*
X26614Y-22528D03*
G54D18*
X39035Y-21968D03*
X34035Y-21968D03*
G54D19*
X37940Y-20968D03*
X37539Y-20267D03*
X37137Y-20968D03*
X36736Y-20267D03*
X36334Y-20968D03*
X35933Y-20267D03*
X35531Y-20968D03*
X35129Y-20267D03*
G54D20*
X39736Y-20618D03*
X33334Y-20618D03*
G54D18*
X14704Y-22047D03*
X9704Y-22047D03*
G54D19*
X13610Y-21047D03*
X13208Y-20346D03*
X12807Y-21047D03*
X12405Y-20346D03*
X12003Y-21047D03*
X11602Y-20346D03*
X11200Y-21047D03*
X10799Y-20346D03*
G54D20*
X15405Y-20696D03*
X9003Y-20696D03*
G54D21*
X41850Y-11574D03*
X40118Y-11574D03*
G54D22*
X42958Y-17883D03*
G54D23*
X41958Y-17883D03*
X40958Y-17883D03*
G54D24*
X31505Y-8307D03*
X31505Y-6181D03*
X30521Y-8307D03*
X32490Y-8307D03*
X30521Y-6181D03*
X32490Y-6181D03*
X37007Y-8307D03*
X37007Y-6181D03*
X36023Y-8307D03*
X37992Y-8307D03*
X36023Y-6181D03*
X37992Y-6181D03*
M02*
