G04 (created by PCBNEW (2013-mar-13)-testing) date Tue 15 Oct 2013 19:00:41 BST*
%MOIN*%
G04 Gerber Fmt 3.4, Leading zero omitted, Abs format*
%FSLAX34Y34*%
G01*
G70*
G90*
G04 APERTURE LIST*
%ADD10C,0.005906*%
%ADD11O,0.165354X0.129921*%
%ADD12C,0.078740*%
%ADD13C,0.059055*%
%ADD14R,0.050000X0.025000*%
%ADD15R,0.025000X0.050000*%
%ADD16C,0.066000*%
%ADD17R,0.011800X0.025600*%
%ADD18C,0.143700*%
%ADD19C,0.059100*%
%ADD20C,0.086614*%
%ADD21C,0.137795*%
%ADD22R,0.060000X0.060000*%
%ADD23C,0.060000*%
%ADD24C,0.051181*%
%ADD25C,0.035000*%
%ADD26C,0.019685*%
%ADD27C,0.007874*%
%ADD28C,0.039370*%
G04 APERTURE END LIST*
G54D10*
G54D11*
X14074Y-7874D03*
G54D12*
X11181Y-6574D03*
X12165Y-6574D03*
X10196Y-6574D03*
X13149Y-6574D03*
G54D11*
X9271Y-7874D03*
G54D13*
X24803Y-6929D03*
X26377Y-6929D03*
G54D12*
X23976Y-6929D03*
X27204Y-6929D03*
G54D13*
X25590Y-6929D03*
X19291Y-6929D03*
X20866Y-6929D03*
G54D12*
X18464Y-6929D03*
X21692Y-6929D03*
G54D13*
X20078Y-6929D03*
G54D14*
X24879Y-11807D03*
X24879Y-12307D03*
X24879Y-12807D03*
X24879Y-13307D03*
X24879Y-13807D03*
X24879Y-14307D03*
X24879Y-14807D03*
X22679Y-14807D03*
X22679Y-14307D03*
X22679Y-13807D03*
X22679Y-13307D03*
X22679Y-12807D03*
X22679Y-12307D03*
X22679Y-11807D03*
G54D15*
X20555Y-12281D03*
X20055Y-12281D03*
X19555Y-12281D03*
X19055Y-12281D03*
X18555Y-12281D03*
X18055Y-12281D03*
X17555Y-12281D03*
X17555Y-10081D03*
X18055Y-10081D03*
X18555Y-10081D03*
X19055Y-10081D03*
X19555Y-10081D03*
X20055Y-10081D03*
X20555Y-10081D03*
G54D16*
X31129Y-22440D03*
X30129Y-22440D03*
X17610Y-22440D03*
X18610Y-22440D03*
G54D17*
X26614Y-22075D03*
X26811Y-22075D03*
X27008Y-22075D03*
X27205Y-22075D03*
X27205Y-22528D03*
X27008Y-22528D03*
X26811Y-22528D03*
X26614Y-22528D03*
G54D18*
X39035Y-21968D03*
X34035Y-21968D03*
G54D19*
X37940Y-20968D03*
X37539Y-20267D03*
X37137Y-20968D03*
X36736Y-20267D03*
X36334Y-20968D03*
X35933Y-20267D03*
X35531Y-20968D03*
X35129Y-20267D03*
G54D20*
X39736Y-20618D03*
X33334Y-20618D03*
G54D18*
X14704Y-22047D03*
X9704Y-22047D03*
G54D19*
X13610Y-21047D03*
X13208Y-20346D03*
X12807Y-21047D03*
X12405Y-20346D03*
X12003Y-21047D03*
X11602Y-20346D03*
X11200Y-21047D03*
X10799Y-20346D03*
G54D20*
X15405Y-20696D03*
X9003Y-20696D03*
G54D21*
X41850Y-11574D03*
X40118Y-11574D03*
G54D22*
X42958Y-17883D03*
G54D23*
X41958Y-17883D03*
X40958Y-17883D03*
G54D24*
X31505Y-8307D03*
X31505Y-6181D03*
X30521Y-8307D03*
X32490Y-8307D03*
X30521Y-6181D03*
X32490Y-6181D03*
X37007Y-8307D03*
X37007Y-6181D03*
X36023Y-8307D03*
X37992Y-8307D03*
X36023Y-6181D03*
X37992Y-6181D03*
G54D25*
X36771Y-15000D03*
X33641Y-23779D03*
X34409Y-23759D03*
X13169Y-21909D03*
X35196Y-23740D03*
X14232Y-11929D03*
X21555Y-10826D03*
X34173Y-13582D03*
X31771Y-14330D03*
X14035Y-17578D03*
X16259Y-18779D03*
X19625Y-16614D03*
X24940Y-15275D03*
X21988Y-12342D03*
X17559Y-12755D03*
X9881Y-17854D03*
X11574Y-13228D03*
X32559Y-9251D03*
X31259Y-9251D03*
X15767Y-14212D03*
X15944Y-17775D03*
X13543Y-14251D03*
X14527Y-17401D03*
X16377Y-17401D03*
X17283Y-17204D03*
X14704Y-15728D03*
X22834Y-17381D03*
X23759Y-14862D03*
X24311Y-14311D03*
X21811Y-13307D03*
X23346Y-14488D03*
X21929Y-15236D03*
X18740Y-11751D03*
X16968Y-10669D03*
X23051Y-10885D03*
X20787Y-10826D03*
X21141Y-11811D03*
X18562Y-12755D03*
X23897Y-23267D03*
X28740Y-17047D03*
X29094Y-9291D03*
X26456Y-11889D03*
X25866Y-12795D03*
X30039Y-17559D03*
X30590Y-13425D03*
X12401Y-19448D03*
X14803Y-19448D03*
X17106Y-20610D03*
X19192Y-21732D03*
X19763Y-23031D03*
X24625Y-21594D03*
X27185Y-23188D03*
X15590Y-14940D03*
X15590Y-15846D03*
X22657Y-19350D03*
X20177Y-19370D03*
X18759Y-19980D03*
X15374Y-19114D03*
X11043Y-18267D03*
X23877Y-16043D03*
X30314Y-16574D03*
X18405Y-14350D03*
X14980Y-12401D03*
X16712Y-12401D03*
X25944Y-18110D03*
X27244Y-15078D03*
X21377Y-13818D03*
X20354Y-13818D03*
X15275Y-13267D03*
X26633Y-19547D03*
X26614Y-21456D03*
X27854Y-17933D03*
X30000Y-10787D03*
X28523Y-17952D03*
X28523Y-18759D03*
X28799Y-19055D03*
X27795Y-12795D03*
X24409Y-19625D03*
X16279Y-9527D03*
X23149Y-19625D03*
X12834Y-10669D03*
X16299Y-10669D03*
X10078Y-10669D03*
X9606Y-11574D03*
X20354Y-8425D03*
X20354Y-9094D03*
X18070Y-10590D03*
X24311Y-12795D03*
X21161Y-10472D03*
X21594Y-9370D03*
X24488Y-9822D03*
X32086Y-11771D03*
X35383Y-11771D03*
X31496Y-11259D03*
X25551Y-11889D03*
X18622Y-10649D03*
X24881Y-11279D03*
X18070Y-17952D03*
X19055Y-9468D03*
X16732Y-19212D03*
X17539Y-15216D03*
X24468Y-17303D03*
X24763Y-18248D03*
X25433Y-20059D03*
X25433Y-20984D03*
X26161Y-20826D03*
X26161Y-20137D03*
X25688Y-17421D03*
X25177Y-16909D03*
X17145Y-13700D03*
X10236Y-23700D03*
X7913Y-17224D03*
X9074Y-9350D03*
X15334Y-10078D03*
X15354Y-11535D03*
X19055Y-10610D03*
X20000Y-10964D03*
X33307Y-16102D03*
X32736Y-18602D03*
X30314Y-18622D03*
X21141Y-18267D03*
X27440Y-10787D03*
X27519Y-10275D03*
X27598Y-11771D03*
X20944Y-8385D03*
X20944Y-9212D03*
X27283Y-12244D03*
G54D26*
X38996Y-18366D02*
X38996Y-19913D01*
X36771Y-16141D02*
X38996Y-18366D01*
X36771Y-15000D02*
X36771Y-16141D01*
X38996Y-19913D02*
X37940Y-20968D01*
X36334Y-20968D02*
X36338Y-20972D01*
X37137Y-21771D02*
X37940Y-20968D01*
X36614Y-21771D02*
X37137Y-21771D01*
X36338Y-21496D02*
X36614Y-21771D01*
X36338Y-20972D02*
X36338Y-21496D01*
X14291Y-24055D02*
X34881Y-24055D01*
X13188Y-22952D02*
X14291Y-24055D01*
X13188Y-21929D02*
X13188Y-22952D01*
X13169Y-21909D02*
X13188Y-21929D01*
X34881Y-24055D02*
X35196Y-23740D01*
X40354Y-21496D02*
X40403Y-21496D01*
X36968Y-23464D02*
X39370Y-23464D01*
X39370Y-23464D02*
X40354Y-22480D01*
X35531Y-22027D02*
X36968Y-23464D01*
X35531Y-20968D02*
X35531Y-22027D01*
X40354Y-22480D02*
X40354Y-21496D01*
X41958Y-19940D02*
X41958Y-17883D01*
X40403Y-21496D02*
X41958Y-19940D01*
X14232Y-11929D02*
X16771Y-11929D01*
X17555Y-12281D02*
X17123Y-12281D01*
X16771Y-11929D02*
X17123Y-12281D01*
X21555Y-11909D02*
X21988Y-12342D01*
X21555Y-11909D02*
X21555Y-10826D01*
X17555Y-12281D02*
X17552Y-12283D01*
X33425Y-14330D02*
X34173Y-13582D01*
X31771Y-14330D02*
X33425Y-14330D01*
X18425Y-16614D02*
X16259Y-18779D01*
X19625Y-16614D02*
X18425Y-16614D01*
X24940Y-15275D02*
X24940Y-14868D01*
X24940Y-14868D02*
X24879Y-14807D01*
X17555Y-12281D02*
X17559Y-12285D01*
X17559Y-12285D02*
X17559Y-12755D01*
X22679Y-12307D02*
X22644Y-12342D01*
X22644Y-12342D02*
X21988Y-12342D01*
X11200Y-21047D02*
X11185Y-21062D01*
X9881Y-17854D02*
X9881Y-14921D01*
X9881Y-14921D02*
X11574Y-13228D01*
X9881Y-20531D02*
X9881Y-17854D01*
X10413Y-21062D02*
X9881Y-20531D01*
X11185Y-21062D02*
X10413Y-21062D01*
X11200Y-21047D02*
X11200Y-21692D01*
X12795Y-21059D02*
X12807Y-21047D01*
X12795Y-21653D02*
X12795Y-21059D01*
X12362Y-22086D02*
X12795Y-21653D01*
X11594Y-22086D02*
X12362Y-22086D01*
X11200Y-21692D02*
X11594Y-22086D01*
X24879Y-14807D02*
X24875Y-14803D01*
X24875Y-14803D02*
X24291Y-14803D01*
X24291Y-14803D02*
X23779Y-14291D01*
X23779Y-14291D02*
X23779Y-12795D01*
X23779Y-12795D02*
X23267Y-12283D01*
X23267Y-12283D02*
X22703Y-12283D01*
X22703Y-12283D02*
X22679Y-12307D01*
X31259Y-9251D02*
X32559Y-9251D01*
G54D27*
X15216Y-14763D02*
X15767Y-14212D01*
X15216Y-17047D02*
X15216Y-14763D01*
X15944Y-17775D02*
X15216Y-17047D01*
X13110Y-14685D02*
X13543Y-14251D01*
X13110Y-16692D02*
X13110Y-14685D01*
X13622Y-17204D02*
X13110Y-16692D01*
X14330Y-17204D02*
X13622Y-17204D01*
X14527Y-17401D02*
X14330Y-17204D01*
X17086Y-17401D02*
X16377Y-17401D01*
X17283Y-17204D02*
X17086Y-17401D01*
X14429Y-19488D02*
X14429Y-18622D01*
X14881Y-15905D02*
X14704Y-15728D01*
X14881Y-18169D02*
X14881Y-15905D01*
X14429Y-18622D02*
X14881Y-18169D01*
X20551Y-17519D02*
X22696Y-17519D01*
X14429Y-19488D02*
X14429Y-20964D01*
X14429Y-20964D02*
X13622Y-21771D01*
X13622Y-21771D02*
X13622Y-22539D01*
X13622Y-22539D02*
X14153Y-23070D01*
X14153Y-23070D02*
X15374Y-23070D01*
X15374Y-23070D02*
X17263Y-21181D01*
X17263Y-21181D02*
X18248Y-21181D01*
X18248Y-21181D02*
X18248Y-21161D01*
X18248Y-21161D02*
X19566Y-19842D01*
X19566Y-19842D02*
X19566Y-18503D01*
X19566Y-18503D02*
X20551Y-17519D01*
X22696Y-17519D02*
X22834Y-17381D01*
X23759Y-14862D02*
X22874Y-15748D01*
X20059Y-12285D02*
X20059Y-13011D01*
X24311Y-14311D02*
X24875Y-14311D01*
X24879Y-14307D02*
X24875Y-14311D01*
X20059Y-12285D02*
X20055Y-12281D01*
X21181Y-14133D02*
X20059Y-13011D01*
X21181Y-15078D02*
X21181Y-14133D01*
X21850Y-15748D02*
X21181Y-15078D01*
X22874Y-15748D02*
X21850Y-15748D01*
X21811Y-13307D02*
X22679Y-13307D01*
X22679Y-14307D02*
X23165Y-14307D01*
X23165Y-14307D02*
X23346Y-14488D01*
X22679Y-14807D02*
X22358Y-14807D01*
X22358Y-14807D02*
X21929Y-15236D01*
X17555Y-10081D02*
X16968Y-10667D01*
X20039Y-10096D02*
X20055Y-10081D01*
X20039Y-10452D02*
X20039Y-10096D01*
X18740Y-11751D02*
X20039Y-10452D01*
X16968Y-10667D02*
X16968Y-10669D01*
X18555Y-12281D02*
X18562Y-12288D01*
X24855Y-12283D02*
X24879Y-12307D01*
X24448Y-12283D02*
X24855Y-12283D01*
X23051Y-10885D02*
X24448Y-12283D01*
X20767Y-10846D02*
X20787Y-10826D01*
X20767Y-11456D02*
X20767Y-10846D01*
X21122Y-11811D02*
X20767Y-11456D01*
X21141Y-11811D02*
X21122Y-11811D01*
X18562Y-12288D02*
X18562Y-12755D01*
X18610Y-22440D02*
X18610Y-22744D01*
X23700Y-23464D02*
X23897Y-23267D01*
X19330Y-23464D02*
X23700Y-23464D01*
X18610Y-22744D02*
X19330Y-23464D01*
X28740Y-14173D02*
X28740Y-17047D01*
X29094Y-13818D02*
X28740Y-14173D01*
X29094Y-9291D02*
X29094Y-13818D01*
X26456Y-12204D02*
X26456Y-11889D01*
X25866Y-12795D02*
X26456Y-12204D01*
X30039Y-17559D02*
X30728Y-17559D01*
X31358Y-14192D02*
X30590Y-13425D01*
X31358Y-16929D02*
X31358Y-14192D01*
X30728Y-17559D02*
X31358Y-16929D01*
X27205Y-22528D02*
X27629Y-22528D01*
X36169Y-18897D02*
X37539Y-20267D01*
X32362Y-18897D02*
X36169Y-18897D01*
X30885Y-20374D02*
X32362Y-18897D01*
X29783Y-20374D02*
X30885Y-20374D01*
X27629Y-22528D02*
X29783Y-20374D01*
X26614Y-22528D02*
X26287Y-22528D01*
X12405Y-19452D02*
X12405Y-20346D01*
X12401Y-19448D02*
X12405Y-19452D01*
X15374Y-19448D02*
X14803Y-19448D01*
X16535Y-20610D02*
X15374Y-19448D01*
X17106Y-20610D02*
X16535Y-20610D01*
X21456Y-21732D02*
X19192Y-21732D01*
X22263Y-20925D02*
X21456Y-21732D01*
X24685Y-20925D02*
X22263Y-20925D01*
X26287Y-22528D02*
X24685Y-20925D01*
X26811Y-22528D02*
X26811Y-23307D01*
X35799Y-19330D02*
X36736Y-20267D01*
X33031Y-19330D02*
X35799Y-19330D01*
X31397Y-20964D02*
X33031Y-19330D01*
X30374Y-20964D02*
X31397Y-20964D01*
X27696Y-23641D02*
X30374Y-20964D01*
X27145Y-23641D02*
X27696Y-23641D01*
X26811Y-23307D02*
X27145Y-23641D01*
X27008Y-22528D02*
X27008Y-22835D01*
X21062Y-23031D02*
X19763Y-23031D01*
X22500Y-21594D02*
X21062Y-23031D01*
X24625Y-21594D02*
X22500Y-21594D01*
X27185Y-23011D02*
X27185Y-23188D01*
X27008Y-22835D02*
X27185Y-23011D01*
X15590Y-15846D02*
X15590Y-14940D01*
X22637Y-19370D02*
X22657Y-19350D01*
X20177Y-19370D02*
X22637Y-19370D01*
X16830Y-19980D02*
X15984Y-19133D01*
X18759Y-19980D02*
X16830Y-19980D01*
X15393Y-19133D02*
X15984Y-19133D01*
X15374Y-19114D02*
X15393Y-19133D01*
X11043Y-18267D02*
X11043Y-15393D01*
X11043Y-15393D02*
X13661Y-12775D01*
X13661Y-12775D02*
X17047Y-12775D01*
X17047Y-12775D02*
X17322Y-13051D01*
X17322Y-13051D02*
X19389Y-13051D01*
X19389Y-13051D02*
X19547Y-12893D01*
X19547Y-12893D02*
X19547Y-12288D01*
X19555Y-12281D02*
X19547Y-12288D01*
X18055Y-12281D02*
X18051Y-12277D01*
X19547Y-10088D02*
X19555Y-10081D01*
X19527Y-10570D02*
X19547Y-10088D01*
X18051Y-12007D02*
X19527Y-10570D01*
X18051Y-12277D02*
X18051Y-12007D01*
X25944Y-19389D02*
X25944Y-18110D01*
X26850Y-20295D02*
X28917Y-20295D01*
X28917Y-20295D02*
X29586Y-19625D01*
X29586Y-19625D02*
X29586Y-17303D01*
X21338Y-16043D02*
X19645Y-14350D01*
X25944Y-19389D02*
X26850Y-20295D01*
X29586Y-17303D02*
X29744Y-17145D01*
X30314Y-16948D02*
X30314Y-16574D01*
X30118Y-17145D02*
X30314Y-16948D01*
X29744Y-17145D02*
X30118Y-17145D01*
X21338Y-16043D02*
X23877Y-16043D01*
X14980Y-12401D02*
X16712Y-12401D01*
X19645Y-14350D02*
X18405Y-14350D01*
X25472Y-13307D02*
X24879Y-13307D01*
X27244Y-15078D02*
X25472Y-13307D01*
X21389Y-13807D02*
X22679Y-13807D01*
X21377Y-13818D02*
X21389Y-13807D01*
X20354Y-13779D02*
X20354Y-13818D01*
X19842Y-13267D02*
X20354Y-13779D01*
X15275Y-13267D02*
X19842Y-13267D01*
X26633Y-19547D02*
X26633Y-18444D01*
X26614Y-21456D02*
X26614Y-21456D01*
X26614Y-21456D02*
X26614Y-22075D01*
X27145Y-17933D02*
X26633Y-18444D01*
X27854Y-17933D02*
X27145Y-17933D01*
X26614Y-22075D02*
X26811Y-22075D01*
G54D26*
X30000Y-10787D02*
X30000Y-7883D01*
X30324Y-7559D02*
X32253Y-7559D01*
X30000Y-7883D02*
X30324Y-7559D01*
X37007Y-8307D02*
X37007Y-8021D01*
X37007Y-8021D02*
X36545Y-7559D01*
X36545Y-7559D02*
X32253Y-7559D01*
X32253Y-7559D02*
X31505Y-8307D01*
G54D28*
X28523Y-17952D02*
X28740Y-17952D01*
X28740Y-17952D02*
X28799Y-17893D01*
G54D26*
X27795Y-14685D02*
X28366Y-15255D01*
X27795Y-12795D02*
X27795Y-14685D01*
X28366Y-17460D02*
X28799Y-17893D01*
X28366Y-15255D02*
X28366Y-17460D01*
X28799Y-17893D02*
X28799Y-19055D01*
X23149Y-19625D02*
X24409Y-19625D01*
X20354Y-9094D02*
X18110Y-9094D01*
X17677Y-9527D02*
X16279Y-9527D01*
X18110Y-9094D02*
X17677Y-9527D01*
X17610Y-22440D02*
X19716Y-20334D01*
X19716Y-20334D02*
X22440Y-20334D01*
X22440Y-20334D02*
X23149Y-19625D01*
X20555Y-10081D02*
X20572Y-10098D01*
X22657Y-11785D02*
X22679Y-11807D01*
X22657Y-11417D02*
X22657Y-11785D01*
X21338Y-10098D02*
X22657Y-11417D01*
X20572Y-10098D02*
X21338Y-10098D01*
X12834Y-10669D02*
X16299Y-10669D01*
X9606Y-11141D02*
X10078Y-10669D01*
X9606Y-11574D02*
X9606Y-11141D01*
X20555Y-10081D02*
X20551Y-10077D01*
X20039Y-6968D02*
X20078Y-6929D01*
X20039Y-7519D02*
X20039Y-6968D01*
X20354Y-7834D02*
X20039Y-7519D01*
X20354Y-8425D02*
X20354Y-7834D01*
X20354Y-9291D02*
X20354Y-9094D01*
X20551Y-9488D02*
X20354Y-9291D01*
X20551Y-10077D02*
X20551Y-9488D01*
X25590Y-6929D02*
X26377Y-6141D01*
X20078Y-6929D02*
X20944Y-6062D01*
X24724Y-6062D02*
X25590Y-6929D01*
X20944Y-6062D02*
X24724Y-6062D01*
G54D27*
X24867Y-12795D02*
X24311Y-12795D01*
X24879Y-12807D02*
X24867Y-12795D01*
X18070Y-10590D02*
X17480Y-11181D01*
X18055Y-10081D02*
X18070Y-10096D01*
X18070Y-10096D02*
X18070Y-10590D01*
X20551Y-12277D02*
X20551Y-11377D01*
X20551Y-11377D02*
X20334Y-11023D01*
X20334Y-11023D02*
X20351Y-10703D01*
X20351Y-10703D02*
X20511Y-10511D01*
X20511Y-10511D02*
X21122Y-10511D01*
X21122Y-10511D02*
X21161Y-10472D01*
X21594Y-9370D02*
X21988Y-9763D01*
X21988Y-9763D02*
X21988Y-9940D01*
X21988Y-9940D02*
X22204Y-10157D01*
X22204Y-10157D02*
X24153Y-10157D01*
X24153Y-10157D02*
X24488Y-9822D01*
X20551Y-12277D02*
X20555Y-12281D01*
X32086Y-11771D02*
X35118Y-11771D01*
X35383Y-11771D02*
X35118Y-11771D01*
X34527Y-11259D02*
X35039Y-11259D01*
X31496Y-11259D02*
X34527Y-11259D01*
X35039Y-11259D02*
X37992Y-8307D01*
X25468Y-11807D02*
X24879Y-11807D01*
X25551Y-11889D02*
X25468Y-11807D01*
X24879Y-11807D02*
X24881Y-11804D01*
X18622Y-10148D02*
X18555Y-10081D01*
X18622Y-10649D02*
X18622Y-10148D01*
X24881Y-11804D02*
X24881Y-11279D01*
X17440Y-18582D02*
X17362Y-18582D01*
X17362Y-18582D02*
X16732Y-19212D01*
X18070Y-17952D02*
X17440Y-18582D01*
X19055Y-9468D02*
X19055Y-10081D01*
X27008Y-22075D02*
X27008Y-21260D01*
X19212Y-15216D02*
X17539Y-15216D01*
X20669Y-16673D02*
X19212Y-15216D01*
X23838Y-16673D02*
X20669Y-16673D01*
X24468Y-17303D02*
X23838Y-16673D01*
X25059Y-18543D02*
X24763Y-18248D01*
X25059Y-19685D02*
X25059Y-18543D01*
X25433Y-20059D02*
X25059Y-19685D01*
X25708Y-21259D02*
X25433Y-20984D01*
X26220Y-21259D02*
X25708Y-21259D01*
X26397Y-21082D02*
X26220Y-21259D01*
X26830Y-21082D02*
X26397Y-21082D01*
X27008Y-21260D02*
X26830Y-21082D01*
X21181Y-16358D02*
X19744Y-14921D01*
X27205Y-21004D02*
X27027Y-20826D01*
X27027Y-20826D02*
X26161Y-20826D01*
X26161Y-20137D02*
X25433Y-19409D01*
X25433Y-19409D02*
X25433Y-17677D01*
X25433Y-17677D02*
X25688Y-17421D01*
X25177Y-16909D02*
X24625Y-16358D01*
X24625Y-16358D02*
X21181Y-16358D01*
X27205Y-22075D02*
X27205Y-21004D01*
X18366Y-14921D02*
X17145Y-13700D01*
X19744Y-14921D02*
X18366Y-14921D01*
X13799Y-9350D02*
X14527Y-10078D01*
X14527Y-10078D02*
X15334Y-10078D01*
X19055Y-12281D02*
X19055Y-11909D01*
X10196Y-23661D02*
X10236Y-23700D01*
X9330Y-23661D02*
X10196Y-23661D01*
X8346Y-22677D02*
X9330Y-23661D01*
X8346Y-21437D02*
X8346Y-22677D01*
X7913Y-21003D02*
X8346Y-21437D01*
X7913Y-17224D02*
X7913Y-21003D01*
X13799Y-9350D02*
X9074Y-9350D01*
X15374Y-11515D02*
X15354Y-11535D01*
X18228Y-11515D02*
X15374Y-11515D01*
X18897Y-10846D02*
X18228Y-11515D01*
X18897Y-10767D02*
X18897Y-10846D01*
X19055Y-10610D02*
X18897Y-10767D01*
X19055Y-11909D02*
X20000Y-10964D01*
X33720Y-16515D02*
X33307Y-16102D01*
X33720Y-17618D02*
X33720Y-16515D01*
X32736Y-18602D02*
X33720Y-17618D01*
X21141Y-18267D02*
X23917Y-18267D01*
X30314Y-19330D02*
X30314Y-18622D01*
X29114Y-20531D02*
X30314Y-19330D01*
X25334Y-20531D02*
X29114Y-20531D01*
X24783Y-19980D02*
X25334Y-20531D01*
X24783Y-19133D02*
X24783Y-19980D01*
X23917Y-18267D02*
X24783Y-19133D01*
X21653Y-17755D02*
X24842Y-17755D01*
X24891Y-13818D02*
X25295Y-13818D01*
X25295Y-13818D02*
X25590Y-14114D01*
X25590Y-14114D02*
X25590Y-17007D01*
X21141Y-18267D02*
X21653Y-17755D01*
X24891Y-13818D02*
X24879Y-13807D01*
X24842Y-17755D02*
X25590Y-17007D01*
X24803Y-8149D02*
X24803Y-6929D01*
X27440Y-10787D02*
X24803Y-8149D01*
X26338Y-6968D02*
X26377Y-6929D01*
X26338Y-9094D02*
X26338Y-6968D01*
X27519Y-10275D02*
X26338Y-9094D01*
X19291Y-7952D02*
X19291Y-6929D01*
X20118Y-8779D02*
X19291Y-7952D01*
X24370Y-8779D02*
X20118Y-8779D01*
X27362Y-11771D02*
X24370Y-8779D01*
X27598Y-11771D02*
X27362Y-11771D01*
X20944Y-7007D02*
X20866Y-6929D01*
X20944Y-8385D02*
X20944Y-7007D01*
X22086Y-10354D02*
X20944Y-9212D01*
X25393Y-10354D02*
X22086Y-10354D01*
X27283Y-12244D02*
X25393Y-10354D01*
G54D10*
G36*
X12559Y-21555D02*
X12333Y-21781D01*
X12333Y-21404D01*
X12003Y-21075D01*
X11674Y-21404D01*
X11699Y-21499D01*
X11895Y-21581D01*
X12108Y-21582D01*
X12305Y-21501D01*
X12308Y-21499D01*
X12333Y-21404D01*
X12333Y-21781D01*
X12264Y-21850D01*
X11692Y-21850D01*
X11437Y-21595D01*
X11437Y-21418D01*
X11445Y-21414D01*
X11538Y-21322D01*
X11549Y-21348D01*
X11551Y-21351D01*
X11646Y-21376D01*
X11976Y-21047D01*
X11970Y-21041D01*
X11998Y-21013D01*
X12003Y-21019D01*
X12009Y-21013D01*
X12037Y-21041D01*
X12031Y-21047D01*
X12360Y-21376D01*
X12456Y-21351D01*
X12468Y-21321D01*
X12559Y-21412D01*
X12559Y-21555D01*
X12559Y-21555D01*
G37*
G54D27*
X12559Y-21555D02*
X12333Y-21781D01*
X12333Y-21404D01*
X12003Y-21075D01*
X11674Y-21404D01*
X11699Y-21499D01*
X11895Y-21581D01*
X12108Y-21582D01*
X12305Y-21501D01*
X12308Y-21499D01*
X12333Y-21404D01*
X12333Y-21781D01*
X12264Y-21850D01*
X11692Y-21850D01*
X11437Y-21595D01*
X11437Y-21418D01*
X11445Y-21414D01*
X11538Y-21322D01*
X11549Y-21348D01*
X11551Y-21351D01*
X11646Y-21376D01*
X11976Y-21047D01*
X11970Y-21041D01*
X11998Y-21013D01*
X12003Y-21019D01*
X12009Y-21013D01*
X12037Y-21041D01*
X12031Y-21047D01*
X12360Y-21376D01*
X12456Y-21351D01*
X12468Y-21321D01*
X12559Y-21412D01*
X12559Y-21555D01*
G54D10*
G36*
X43937Y-24251D02*
X43498Y-24251D01*
X43498Y-18231D01*
X43498Y-18136D01*
X43498Y-17963D01*
X43498Y-17804D01*
X43498Y-17631D01*
X43498Y-17536D01*
X43461Y-17448D01*
X43394Y-17380D01*
X43306Y-17344D01*
X43038Y-17344D01*
X42978Y-17404D01*
X42978Y-17864D01*
X43438Y-17864D01*
X43498Y-17804D01*
X43498Y-17963D01*
X43438Y-17903D01*
X42978Y-17903D01*
X42978Y-18363D01*
X43038Y-18423D01*
X43306Y-18423D01*
X43394Y-18386D01*
X43461Y-18319D01*
X43498Y-18231D01*
X43498Y-24251D01*
X42938Y-24251D01*
X42938Y-18363D01*
X42938Y-17903D01*
X42938Y-17864D01*
X42938Y-17404D01*
X42879Y-17344D01*
X42611Y-17344D01*
X42523Y-17380D01*
X42455Y-17448D01*
X42419Y-17536D01*
X42419Y-17631D01*
X42419Y-17804D01*
X42479Y-17864D01*
X42938Y-17864D01*
X42938Y-17903D01*
X42479Y-17903D01*
X42419Y-17963D01*
X42419Y-18136D01*
X42419Y-18231D01*
X42455Y-18319D01*
X42523Y-18386D01*
X42611Y-18423D01*
X42879Y-18423D01*
X42938Y-18363D01*
X42938Y-24251D01*
X34891Y-24251D01*
X34891Y-21798D01*
X34761Y-21484D01*
X34521Y-21242D01*
X34206Y-21112D01*
X33865Y-21112D01*
X33551Y-21242D01*
X33309Y-21482D01*
X33179Y-21797D01*
X33178Y-22138D01*
X33309Y-22452D01*
X33549Y-22694D01*
X33864Y-22824D01*
X34205Y-22824D01*
X34519Y-22694D01*
X34760Y-22454D01*
X34891Y-22139D01*
X34891Y-21798D01*
X34891Y-24251D01*
X10561Y-24251D01*
X10561Y-21877D01*
X10431Y-21562D01*
X10190Y-21321D01*
X9875Y-21191D01*
X9574Y-21190D01*
X9574Y-20583D01*
X9488Y-20373D01*
X9327Y-20213D01*
X9117Y-20126D01*
X8890Y-20125D01*
X8680Y-20212D01*
X8520Y-20373D01*
X8433Y-20582D01*
X8432Y-20809D01*
X8519Y-21019D01*
X8680Y-21180D01*
X8889Y-21267D01*
X9116Y-21267D01*
X9326Y-21181D01*
X9487Y-21020D01*
X9574Y-20810D01*
X9574Y-20583D01*
X9574Y-21190D01*
X9535Y-21190D01*
X9220Y-21320D01*
X8979Y-21561D01*
X8848Y-21876D01*
X8848Y-22216D01*
X8978Y-22531D01*
X9219Y-22772D01*
X9533Y-22903D01*
X9874Y-22903D01*
X10189Y-22773D01*
X10430Y-22532D01*
X10560Y-22218D01*
X10561Y-21877D01*
X10561Y-24251D01*
X10549Y-24251D01*
X10549Y-23638D01*
X10501Y-23523D01*
X10413Y-23435D01*
X10298Y-23388D01*
X10174Y-23387D01*
X10059Y-23435D01*
X10010Y-23484D01*
X9404Y-23484D01*
X8523Y-22603D01*
X8523Y-21437D01*
X8510Y-21369D01*
X8510Y-21369D01*
X8471Y-21311D01*
X8090Y-20930D01*
X8090Y-17489D01*
X8178Y-17401D01*
X8226Y-17286D01*
X8226Y-17162D01*
X8178Y-17047D01*
X8090Y-16959D01*
X7975Y-16911D01*
X7851Y-16911D01*
X7736Y-16959D01*
X7648Y-17046D01*
X7600Y-17161D01*
X7600Y-17286D01*
X7648Y-17401D01*
X7735Y-17489D01*
X7736Y-17489D01*
X7736Y-21003D01*
X7749Y-21071D01*
X7788Y-21129D01*
X8169Y-21510D01*
X8169Y-22677D01*
X8182Y-22744D01*
X8221Y-22802D01*
X9205Y-23786D01*
X9262Y-23825D01*
X9262Y-23825D01*
X9330Y-23838D01*
X9954Y-23838D01*
X9970Y-23877D01*
X10058Y-23965D01*
X10173Y-24013D01*
X10298Y-24013D01*
X10413Y-23966D01*
X10501Y-23878D01*
X10548Y-23763D01*
X10549Y-23638D01*
X10549Y-24251D01*
X4881Y-24251D01*
X4881Y-13425D01*
X11043Y-13425D01*
X9714Y-14754D01*
X9663Y-14830D01*
X9645Y-14921D01*
X9645Y-17648D01*
X9616Y-17676D01*
X9569Y-17791D01*
X9569Y-17916D01*
X9616Y-18031D01*
X9645Y-18060D01*
X9645Y-20531D01*
X9663Y-20621D01*
X9714Y-20698D01*
X10246Y-21230D01*
X10322Y-21281D01*
X10322Y-21281D01*
X10413Y-21299D01*
X10840Y-21299D01*
X10955Y-21414D01*
X10964Y-21418D01*
X10964Y-21692D01*
X10982Y-21783D01*
X11033Y-21859D01*
X11427Y-22253D01*
X11504Y-22304D01*
X11594Y-22322D01*
X12362Y-22322D01*
X12452Y-22304D01*
X12529Y-22253D01*
X12962Y-21820D01*
X13013Y-21743D01*
X13031Y-21653D01*
X13031Y-21423D01*
X13052Y-21414D01*
X13144Y-21322D01*
X13155Y-21348D01*
X13157Y-21351D01*
X13253Y-21376D01*
X13582Y-21047D01*
X13576Y-21041D01*
X13604Y-21013D01*
X13610Y-21019D01*
X13939Y-20690D01*
X13914Y-20594D01*
X13718Y-20512D01*
X13608Y-20512D01*
X13641Y-20433D01*
X13642Y-20260D01*
X13576Y-20101D01*
X13454Y-19979D01*
X13295Y-19913D01*
X13122Y-19913D01*
X12963Y-19978D01*
X12841Y-20100D01*
X12807Y-20183D01*
X12773Y-20101D01*
X12651Y-19979D01*
X12582Y-19950D01*
X12582Y-19710D01*
X12666Y-19626D01*
X12714Y-19511D01*
X12714Y-19386D01*
X12666Y-19271D01*
X12578Y-19183D01*
X12464Y-19136D01*
X12339Y-19135D01*
X12224Y-19183D01*
X12136Y-19271D01*
X12088Y-19386D01*
X12088Y-19510D01*
X12136Y-19625D01*
X12224Y-19713D01*
X12228Y-19715D01*
X12228Y-19950D01*
X12160Y-19978D01*
X12038Y-20100D01*
X12003Y-20183D01*
X11969Y-20101D01*
X11848Y-19979D01*
X11688Y-19913D01*
X11516Y-19913D01*
X11357Y-19978D01*
X11235Y-20100D01*
X11200Y-20183D01*
X11166Y-20101D01*
X11044Y-19979D01*
X10885Y-19913D01*
X10713Y-19913D01*
X10554Y-19978D01*
X10432Y-20100D01*
X10365Y-20259D01*
X10365Y-20432D01*
X10431Y-20591D01*
X10553Y-20713D01*
X10712Y-20779D01*
X10855Y-20779D01*
X10833Y-20801D01*
X10823Y-20826D01*
X10511Y-20826D01*
X10118Y-20433D01*
X10118Y-18060D01*
X10146Y-18031D01*
X10194Y-17916D01*
X10194Y-17792D01*
X10147Y-17677D01*
X10118Y-17648D01*
X10118Y-15019D01*
X11596Y-13541D01*
X11636Y-13541D01*
X11751Y-13493D01*
X11820Y-13425D01*
X12761Y-13425D01*
X10918Y-15268D01*
X10879Y-15325D01*
X10866Y-15393D01*
X10866Y-18002D01*
X10778Y-18090D01*
X10730Y-18205D01*
X10730Y-18329D01*
X10777Y-18444D01*
X10865Y-18532D01*
X10980Y-18580D01*
X11105Y-18580D01*
X11220Y-18533D01*
X11308Y-18445D01*
X11356Y-18330D01*
X11356Y-18205D01*
X11308Y-18090D01*
X11220Y-18002D01*
X11220Y-18002D01*
X11220Y-15467D01*
X13262Y-13425D01*
X15002Y-13425D01*
X15010Y-13444D01*
X15098Y-13532D01*
X15213Y-13580D01*
X15337Y-13580D01*
X15452Y-13533D01*
X15540Y-13445D01*
X15540Y-13444D01*
X15708Y-13444D01*
X15708Y-13899D01*
X15705Y-13899D01*
X15590Y-13947D01*
X15502Y-14035D01*
X15454Y-14150D01*
X15454Y-14274D01*
X15454Y-14274D01*
X15091Y-14638D01*
X15052Y-14695D01*
X15039Y-14763D01*
X15039Y-15828D01*
X15016Y-15793D01*
X15017Y-15790D01*
X15017Y-15666D01*
X14970Y-15551D01*
X14882Y-15463D01*
X14767Y-15415D01*
X14642Y-15415D01*
X14527Y-15463D01*
X14439Y-15550D01*
X14391Y-15665D01*
X14391Y-15790D01*
X14439Y-15905D01*
X14527Y-15993D01*
X14642Y-16041D01*
X14704Y-16041D01*
X14704Y-17136D01*
X14590Y-17088D01*
X14465Y-17088D01*
X14465Y-17088D01*
X14455Y-17079D01*
X14398Y-17041D01*
X14330Y-17027D01*
X13695Y-17027D01*
X13287Y-16619D01*
X13287Y-14758D01*
X13481Y-14564D01*
X13605Y-14564D01*
X13720Y-14517D01*
X13808Y-14429D01*
X13856Y-14314D01*
X13856Y-14190D01*
X13808Y-14075D01*
X13720Y-13986D01*
X13605Y-13939D01*
X13481Y-13939D01*
X13366Y-13986D01*
X13278Y-14074D01*
X13230Y-14189D01*
X13230Y-14313D01*
X13230Y-14314D01*
X12984Y-14559D01*
X12946Y-14617D01*
X12933Y-14685D01*
X12933Y-16692D01*
X12946Y-16760D01*
X12984Y-16818D01*
X13496Y-17329D01*
X13554Y-17368D01*
X13554Y-17368D01*
X13622Y-17381D01*
X13789Y-17381D01*
X13770Y-17401D01*
X13722Y-17516D01*
X13722Y-17640D01*
X13770Y-17755D01*
X13858Y-17843D01*
X13972Y-17891D01*
X14097Y-17891D01*
X14212Y-17844D01*
X14300Y-17756D01*
X14341Y-17657D01*
X14350Y-17666D01*
X14465Y-17714D01*
X14589Y-17714D01*
X14704Y-17666D01*
X14704Y-17666D01*
X14704Y-18095D01*
X14303Y-18496D01*
X14265Y-18554D01*
X14251Y-18622D01*
X14251Y-19488D01*
X14251Y-20891D01*
X14145Y-20997D01*
X14145Y-20942D01*
X14064Y-20745D01*
X14062Y-20742D01*
X13967Y-20718D01*
X13638Y-21047D01*
X13643Y-21052D01*
X13615Y-21080D01*
X13610Y-21075D01*
X13281Y-21404D01*
X13305Y-21499D01*
X13502Y-21581D01*
X13561Y-21581D01*
X13496Y-21646D01*
X13458Y-21703D01*
X13444Y-21771D01*
X13444Y-22539D01*
X13458Y-22607D01*
X13496Y-22664D01*
X14028Y-23196D01*
X14085Y-23234D01*
X14153Y-23248D01*
X15374Y-23248D01*
X15441Y-23234D01*
X15441Y-23234D01*
X15499Y-23196D01*
X15708Y-22986D01*
X15708Y-23228D01*
X15708Y-23661D01*
X21692Y-23661D01*
X21692Y-23641D01*
X23700Y-23641D01*
X23768Y-23628D01*
X23768Y-23628D01*
X23826Y-23589D01*
X23835Y-23580D01*
X23959Y-23580D01*
X24074Y-23533D01*
X24162Y-23445D01*
X24210Y-23330D01*
X24210Y-23205D01*
X24162Y-23090D01*
X24075Y-23002D01*
X23960Y-22954D01*
X23835Y-22954D01*
X23720Y-23002D01*
X23632Y-23090D01*
X23584Y-23205D01*
X23584Y-23287D01*
X21692Y-23287D01*
X21692Y-22874D01*
X26634Y-22874D01*
X26634Y-23307D01*
X26647Y-23375D01*
X26686Y-23432D01*
X27020Y-23767D01*
X27077Y-23805D01*
X27077Y-23805D01*
X27145Y-23818D01*
X27696Y-23818D01*
X27764Y-23805D01*
X27764Y-23805D01*
X27822Y-23767D01*
X29502Y-22086D01*
X29822Y-22086D01*
X29733Y-22175D01*
X29662Y-22347D01*
X29662Y-22533D01*
X29733Y-22705D01*
X29864Y-22837D01*
X30036Y-22908D01*
X30222Y-22908D01*
X30394Y-22837D01*
X30526Y-22706D01*
X30597Y-22534D01*
X30597Y-22348D01*
X30526Y-22176D01*
X30437Y-22086D01*
X30822Y-22086D01*
X30733Y-22175D01*
X30662Y-22347D01*
X30662Y-22533D01*
X30733Y-22705D01*
X30864Y-22837D01*
X31036Y-22908D01*
X31222Y-22908D01*
X31394Y-22837D01*
X31526Y-22706D01*
X31597Y-22534D01*
X31597Y-22348D01*
X31526Y-22176D01*
X31395Y-22044D01*
X31223Y-21973D01*
X31141Y-21973D01*
X31141Y-21141D01*
X31397Y-21141D01*
X31465Y-21128D01*
X31465Y-21128D01*
X31522Y-21089D01*
X31707Y-20905D01*
X32835Y-20905D01*
X32850Y-20941D01*
X33010Y-21101D01*
X33220Y-21188D01*
X33447Y-21189D01*
X33657Y-21102D01*
X33818Y-20941D01*
X33833Y-20905D01*
X34685Y-20905D01*
X34685Y-19507D01*
X35725Y-19507D01*
X36075Y-19857D01*
X36019Y-19834D01*
X35847Y-19834D01*
X35687Y-19900D01*
X35565Y-20021D01*
X35531Y-20104D01*
X35497Y-20022D01*
X35375Y-19900D01*
X35216Y-19834D01*
X35044Y-19834D01*
X34884Y-19900D01*
X34762Y-20021D01*
X34696Y-20181D01*
X34696Y-20353D01*
X34762Y-20512D01*
X34884Y-20634D01*
X35043Y-20700D01*
X35186Y-20701D01*
X35164Y-20722D01*
X35098Y-20881D01*
X35098Y-21054D01*
X35163Y-21213D01*
X35285Y-21335D01*
X35295Y-21339D01*
X35295Y-22027D01*
X35313Y-22117D01*
X35364Y-22194D01*
X36801Y-23631D01*
X36878Y-23682D01*
X36968Y-23700D01*
X39370Y-23700D01*
X39460Y-23682D01*
X39537Y-23631D01*
X40521Y-22647D01*
X40572Y-22570D01*
X40590Y-22480D01*
X40590Y-21643D01*
X42125Y-20107D01*
X42176Y-20031D01*
X42194Y-19940D01*
X42194Y-18259D01*
X42206Y-18255D01*
X42329Y-18132D01*
X42396Y-17971D01*
X42396Y-17797D01*
X42330Y-17636D01*
X42206Y-17512D01*
X42046Y-17446D01*
X41871Y-17445D01*
X41710Y-17512D01*
X41587Y-17635D01*
X41520Y-17796D01*
X41520Y-17970D01*
X41587Y-18131D01*
X41710Y-18254D01*
X41722Y-18259D01*
X41722Y-19843D01*
X41396Y-20169D01*
X41396Y-17797D01*
X41330Y-17636D01*
X41206Y-17512D01*
X41046Y-17446D01*
X40871Y-17445D01*
X40710Y-17512D01*
X40587Y-17635D01*
X40520Y-17796D01*
X40520Y-17970D01*
X40587Y-18131D01*
X40710Y-18254D01*
X40871Y-18321D01*
X41045Y-18321D01*
X41206Y-18255D01*
X41329Y-18132D01*
X41396Y-17971D01*
X41396Y-17797D01*
X41396Y-20169D01*
X40307Y-21258D01*
X40307Y-20505D01*
X40220Y-20295D01*
X40060Y-20134D01*
X39850Y-20047D01*
X39623Y-20047D01*
X39413Y-20133D01*
X39252Y-20294D01*
X39165Y-20504D01*
X39165Y-20731D01*
X39251Y-20941D01*
X39412Y-21101D01*
X39622Y-21188D01*
X39849Y-21189D01*
X40059Y-21102D01*
X40219Y-20941D01*
X40306Y-20732D01*
X40307Y-20505D01*
X40307Y-21258D01*
X40293Y-21271D01*
X40263Y-21277D01*
X40187Y-21329D01*
X40136Y-21405D01*
X40118Y-21496D01*
X40118Y-22382D01*
X39891Y-22608D01*
X39891Y-21798D01*
X39761Y-21484D01*
X39521Y-21242D01*
X39206Y-21112D01*
X38865Y-21112D01*
X38551Y-21242D01*
X38476Y-21316D01*
X38476Y-20863D01*
X38395Y-20666D01*
X38393Y-20664D01*
X38297Y-20639D01*
X37968Y-20968D01*
X38297Y-21297D01*
X38393Y-21272D01*
X38475Y-21076D01*
X38476Y-20863D01*
X38476Y-21316D01*
X38309Y-21482D01*
X38270Y-21578D01*
X38270Y-21325D01*
X37940Y-20996D01*
X37611Y-21325D01*
X37636Y-21420D01*
X37832Y-21503D01*
X38045Y-21503D01*
X38242Y-21422D01*
X38245Y-21420D01*
X38270Y-21325D01*
X38270Y-21578D01*
X38179Y-21797D01*
X38178Y-22138D01*
X38309Y-22452D01*
X38549Y-22694D01*
X38864Y-22824D01*
X39205Y-22824D01*
X39519Y-22694D01*
X39760Y-22454D01*
X39891Y-22139D01*
X39891Y-21798D01*
X39891Y-22608D01*
X39272Y-23228D01*
X37066Y-23228D01*
X36663Y-22825D01*
X36663Y-21325D01*
X36334Y-20996D01*
X36005Y-21325D01*
X36030Y-21420D01*
X36226Y-21503D01*
X36439Y-21503D01*
X36636Y-21422D01*
X36639Y-21420D01*
X36663Y-21325D01*
X36663Y-22825D01*
X35767Y-21929D01*
X35767Y-21339D01*
X35776Y-21336D01*
X35869Y-21243D01*
X35880Y-21270D01*
X35882Y-21272D01*
X35977Y-21297D01*
X36306Y-20968D01*
X36301Y-20962D01*
X36329Y-20935D01*
X36334Y-20940D01*
X36340Y-20935D01*
X36368Y-20962D01*
X36362Y-20968D01*
X36691Y-21297D01*
X36787Y-21272D01*
X36799Y-21243D01*
X36892Y-21335D01*
X37051Y-21401D01*
X37223Y-21401D01*
X37382Y-21336D01*
X37475Y-21243D01*
X37486Y-21270D01*
X37488Y-21272D01*
X37584Y-21297D01*
X37913Y-20968D01*
X37907Y-20962D01*
X37935Y-20935D01*
X37940Y-20940D01*
X38270Y-20611D01*
X38245Y-20516D01*
X38049Y-20433D01*
X37939Y-20433D01*
X37972Y-20354D01*
X37972Y-20181D01*
X37906Y-20022D01*
X37785Y-19900D01*
X37625Y-19834D01*
X37453Y-19834D01*
X37384Y-19862D01*
X36294Y-18772D01*
X36237Y-18733D01*
X36169Y-18720D01*
X34685Y-18720D01*
X34685Y-11948D01*
X35118Y-11948D01*
X35118Y-11948D01*
X35206Y-12036D01*
X35321Y-12084D01*
X35445Y-12084D01*
X35560Y-12036D01*
X35648Y-11949D01*
X35696Y-11834D01*
X35696Y-11709D01*
X35649Y-11594D01*
X35561Y-11506D01*
X35446Y-11458D01*
X35321Y-11458D01*
X35206Y-11506D01*
X35118Y-11594D01*
X35118Y-11594D01*
X35118Y-11594D01*
X34685Y-11594D01*
X34685Y-11437D01*
X35039Y-11437D01*
X35107Y-11423D01*
X35107Y-11423D01*
X35164Y-11385D01*
X35486Y-11062D01*
X39460Y-11062D01*
X39417Y-11105D01*
X39291Y-11409D01*
X39291Y-11738D01*
X39416Y-12042D01*
X39649Y-12275D01*
X39952Y-12401D01*
X40281Y-12401D01*
X40585Y-12276D01*
X40818Y-12043D01*
X40944Y-11739D01*
X40945Y-11411D01*
X40819Y-11107D01*
X40775Y-11062D01*
X41192Y-11062D01*
X41149Y-11105D01*
X41023Y-11409D01*
X41023Y-11738D01*
X41149Y-12042D01*
X41381Y-12275D01*
X41685Y-12401D01*
X42014Y-12401D01*
X42318Y-12276D01*
X42550Y-12043D01*
X42677Y-11739D01*
X42677Y-11411D01*
X42551Y-11107D01*
X42507Y-11062D01*
X43937Y-11062D01*
X43937Y-24251D01*
X43937Y-24251D01*
G37*
G54D27*
X43937Y-24251D02*
X43498Y-24251D01*
X43498Y-18231D01*
X43498Y-18136D01*
X43498Y-17963D01*
X43498Y-17804D01*
X43498Y-17631D01*
X43498Y-17536D01*
X43461Y-17448D01*
X43394Y-17380D01*
X43306Y-17344D01*
X43038Y-17344D01*
X42978Y-17404D01*
X42978Y-17864D01*
X43438Y-17864D01*
X43498Y-17804D01*
X43498Y-17963D01*
X43438Y-17903D01*
X42978Y-17903D01*
X42978Y-18363D01*
X43038Y-18423D01*
X43306Y-18423D01*
X43394Y-18386D01*
X43461Y-18319D01*
X43498Y-18231D01*
X43498Y-24251D01*
X42938Y-24251D01*
X42938Y-18363D01*
X42938Y-17903D01*
X42938Y-17864D01*
X42938Y-17404D01*
X42879Y-17344D01*
X42611Y-17344D01*
X42523Y-17380D01*
X42455Y-17448D01*
X42419Y-17536D01*
X42419Y-17631D01*
X42419Y-17804D01*
X42479Y-17864D01*
X42938Y-17864D01*
X42938Y-17903D01*
X42479Y-17903D01*
X42419Y-17963D01*
X42419Y-18136D01*
X42419Y-18231D01*
X42455Y-18319D01*
X42523Y-18386D01*
X42611Y-18423D01*
X42879Y-18423D01*
X42938Y-18363D01*
X42938Y-24251D01*
X34891Y-24251D01*
X34891Y-21798D01*
X34761Y-21484D01*
X34521Y-21242D01*
X34206Y-21112D01*
X33865Y-21112D01*
X33551Y-21242D01*
X33309Y-21482D01*
X33179Y-21797D01*
X33178Y-22138D01*
X33309Y-22452D01*
X33549Y-22694D01*
X33864Y-22824D01*
X34205Y-22824D01*
X34519Y-22694D01*
X34760Y-22454D01*
X34891Y-22139D01*
X34891Y-21798D01*
X34891Y-24251D01*
X10561Y-24251D01*
X10561Y-21877D01*
X10431Y-21562D01*
X10190Y-21321D01*
X9875Y-21191D01*
X9574Y-21190D01*
X9574Y-20583D01*
X9488Y-20373D01*
X9327Y-20213D01*
X9117Y-20126D01*
X8890Y-20125D01*
X8680Y-20212D01*
X8520Y-20373D01*
X8433Y-20582D01*
X8432Y-20809D01*
X8519Y-21019D01*
X8680Y-21180D01*
X8889Y-21267D01*
X9116Y-21267D01*
X9326Y-21181D01*
X9487Y-21020D01*
X9574Y-20810D01*
X9574Y-20583D01*
X9574Y-21190D01*
X9535Y-21190D01*
X9220Y-21320D01*
X8979Y-21561D01*
X8848Y-21876D01*
X8848Y-22216D01*
X8978Y-22531D01*
X9219Y-22772D01*
X9533Y-22903D01*
X9874Y-22903D01*
X10189Y-22773D01*
X10430Y-22532D01*
X10560Y-22218D01*
X10561Y-21877D01*
X10561Y-24251D01*
X10549Y-24251D01*
X10549Y-23638D01*
X10501Y-23523D01*
X10413Y-23435D01*
X10298Y-23388D01*
X10174Y-23387D01*
X10059Y-23435D01*
X10010Y-23484D01*
X9404Y-23484D01*
X8523Y-22603D01*
X8523Y-21437D01*
X8510Y-21369D01*
X8510Y-21369D01*
X8471Y-21311D01*
X8090Y-20930D01*
X8090Y-17489D01*
X8178Y-17401D01*
X8226Y-17286D01*
X8226Y-17162D01*
X8178Y-17047D01*
X8090Y-16959D01*
X7975Y-16911D01*
X7851Y-16911D01*
X7736Y-16959D01*
X7648Y-17046D01*
X7600Y-17161D01*
X7600Y-17286D01*
X7648Y-17401D01*
X7735Y-17489D01*
X7736Y-17489D01*
X7736Y-21003D01*
X7749Y-21071D01*
X7788Y-21129D01*
X8169Y-21510D01*
X8169Y-22677D01*
X8182Y-22744D01*
X8221Y-22802D01*
X9205Y-23786D01*
X9262Y-23825D01*
X9262Y-23825D01*
X9330Y-23838D01*
X9954Y-23838D01*
X9970Y-23877D01*
X10058Y-23965D01*
X10173Y-24013D01*
X10298Y-24013D01*
X10413Y-23966D01*
X10501Y-23878D01*
X10548Y-23763D01*
X10549Y-23638D01*
X10549Y-24251D01*
X4881Y-24251D01*
X4881Y-13425D01*
X11043Y-13425D01*
X9714Y-14754D01*
X9663Y-14830D01*
X9645Y-14921D01*
X9645Y-17648D01*
X9616Y-17676D01*
X9569Y-17791D01*
X9569Y-17916D01*
X9616Y-18031D01*
X9645Y-18060D01*
X9645Y-20531D01*
X9663Y-20621D01*
X9714Y-20698D01*
X10246Y-21230D01*
X10322Y-21281D01*
X10322Y-21281D01*
X10413Y-21299D01*
X10840Y-21299D01*
X10955Y-21414D01*
X10964Y-21418D01*
X10964Y-21692D01*
X10982Y-21783D01*
X11033Y-21859D01*
X11427Y-22253D01*
X11504Y-22304D01*
X11594Y-22322D01*
X12362Y-22322D01*
X12452Y-22304D01*
X12529Y-22253D01*
X12962Y-21820D01*
X13013Y-21743D01*
X13031Y-21653D01*
X13031Y-21423D01*
X13052Y-21414D01*
X13144Y-21322D01*
X13155Y-21348D01*
X13157Y-21351D01*
X13253Y-21376D01*
X13582Y-21047D01*
X13576Y-21041D01*
X13604Y-21013D01*
X13610Y-21019D01*
X13939Y-20690D01*
X13914Y-20594D01*
X13718Y-20512D01*
X13608Y-20512D01*
X13641Y-20433D01*
X13642Y-20260D01*
X13576Y-20101D01*
X13454Y-19979D01*
X13295Y-19913D01*
X13122Y-19913D01*
X12963Y-19978D01*
X12841Y-20100D01*
X12807Y-20183D01*
X12773Y-20101D01*
X12651Y-19979D01*
X12582Y-19950D01*
X12582Y-19710D01*
X12666Y-19626D01*
X12714Y-19511D01*
X12714Y-19386D01*
X12666Y-19271D01*
X12578Y-19183D01*
X12464Y-19136D01*
X12339Y-19135D01*
X12224Y-19183D01*
X12136Y-19271D01*
X12088Y-19386D01*
X12088Y-19510D01*
X12136Y-19625D01*
X12224Y-19713D01*
X12228Y-19715D01*
X12228Y-19950D01*
X12160Y-19978D01*
X12038Y-20100D01*
X12003Y-20183D01*
X11969Y-20101D01*
X11848Y-19979D01*
X11688Y-19913D01*
X11516Y-19913D01*
X11357Y-19978D01*
X11235Y-20100D01*
X11200Y-20183D01*
X11166Y-20101D01*
X11044Y-19979D01*
X10885Y-19913D01*
X10713Y-19913D01*
X10554Y-19978D01*
X10432Y-20100D01*
X10365Y-20259D01*
X10365Y-20432D01*
X10431Y-20591D01*
X10553Y-20713D01*
X10712Y-20779D01*
X10855Y-20779D01*
X10833Y-20801D01*
X10823Y-20826D01*
X10511Y-20826D01*
X10118Y-20433D01*
X10118Y-18060D01*
X10146Y-18031D01*
X10194Y-17916D01*
X10194Y-17792D01*
X10147Y-17677D01*
X10118Y-17648D01*
X10118Y-15019D01*
X11596Y-13541D01*
X11636Y-13541D01*
X11751Y-13493D01*
X11820Y-13425D01*
X12761Y-13425D01*
X10918Y-15268D01*
X10879Y-15325D01*
X10866Y-15393D01*
X10866Y-18002D01*
X10778Y-18090D01*
X10730Y-18205D01*
X10730Y-18329D01*
X10777Y-18444D01*
X10865Y-18532D01*
X10980Y-18580D01*
X11105Y-18580D01*
X11220Y-18533D01*
X11308Y-18445D01*
X11356Y-18330D01*
X11356Y-18205D01*
X11308Y-18090D01*
X11220Y-18002D01*
X11220Y-18002D01*
X11220Y-15467D01*
X13262Y-13425D01*
X15002Y-13425D01*
X15010Y-13444D01*
X15098Y-13532D01*
X15213Y-13580D01*
X15337Y-13580D01*
X15452Y-13533D01*
X15540Y-13445D01*
X15540Y-13444D01*
X15708Y-13444D01*
X15708Y-13899D01*
X15705Y-13899D01*
X15590Y-13947D01*
X15502Y-14035D01*
X15454Y-14150D01*
X15454Y-14274D01*
X15454Y-14274D01*
X15091Y-14638D01*
X15052Y-14695D01*
X15039Y-14763D01*
X15039Y-15828D01*
X15016Y-15793D01*
X15017Y-15790D01*
X15017Y-15666D01*
X14970Y-15551D01*
X14882Y-15463D01*
X14767Y-15415D01*
X14642Y-15415D01*
X14527Y-15463D01*
X14439Y-15550D01*
X14391Y-15665D01*
X14391Y-15790D01*
X14439Y-15905D01*
X14527Y-15993D01*
X14642Y-16041D01*
X14704Y-16041D01*
X14704Y-17136D01*
X14590Y-17088D01*
X14465Y-17088D01*
X14465Y-17088D01*
X14455Y-17079D01*
X14398Y-17041D01*
X14330Y-17027D01*
X13695Y-17027D01*
X13287Y-16619D01*
X13287Y-14758D01*
X13481Y-14564D01*
X13605Y-14564D01*
X13720Y-14517D01*
X13808Y-14429D01*
X13856Y-14314D01*
X13856Y-14190D01*
X13808Y-14075D01*
X13720Y-13986D01*
X13605Y-13939D01*
X13481Y-13939D01*
X13366Y-13986D01*
X13278Y-14074D01*
X13230Y-14189D01*
X13230Y-14313D01*
X13230Y-14314D01*
X12984Y-14559D01*
X12946Y-14617D01*
X12933Y-14685D01*
X12933Y-16692D01*
X12946Y-16760D01*
X12984Y-16818D01*
X13496Y-17329D01*
X13554Y-17368D01*
X13554Y-17368D01*
X13622Y-17381D01*
X13789Y-17381D01*
X13770Y-17401D01*
X13722Y-17516D01*
X13722Y-17640D01*
X13770Y-17755D01*
X13858Y-17843D01*
X13972Y-17891D01*
X14097Y-17891D01*
X14212Y-17844D01*
X14300Y-17756D01*
X14341Y-17657D01*
X14350Y-17666D01*
X14465Y-17714D01*
X14589Y-17714D01*
X14704Y-17666D01*
X14704Y-17666D01*
X14704Y-18095D01*
X14303Y-18496D01*
X14265Y-18554D01*
X14251Y-18622D01*
X14251Y-19488D01*
X14251Y-20891D01*
X14145Y-20997D01*
X14145Y-20942D01*
X14064Y-20745D01*
X14062Y-20742D01*
X13967Y-20718D01*
X13638Y-21047D01*
X13643Y-21052D01*
X13615Y-21080D01*
X13610Y-21075D01*
X13281Y-21404D01*
X13305Y-21499D01*
X13502Y-21581D01*
X13561Y-21581D01*
X13496Y-21646D01*
X13458Y-21703D01*
X13444Y-21771D01*
X13444Y-22539D01*
X13458Y-22607D01*
X13496Y-22664D01*
X14028Y-23196D01*
X14085Y-23234D01*
X14153Y-23248D01*
X15374Y-23248D01*
X15441Y-23234D01*
X15441Y-23234D01*
X15499Y-23196D01*
X15708Y-22986D01*
X15708Y-23228D01*
X15708Y-23661D01*
X21692Y-23661D01*
X21692Y-23641D01*
X23700Y-23641D01*
X23768Y-23628D01*
X23768Y-23628D01*
X23826Y-23589D01*
X23835Y-23580D01*
X23959Y-23580D01*
X24074Y-23533D01*
X24162Y-23445D01*
X24210Y-23330D01*
X24210Y-23205D01*
X24162Y-23090D01*
X24075Y-23002D01*
X23960Y-22954D01*
X23835Y-22954D01*
X23720Y-23002D01*
X23632Y-23090D01*
X23584Y-23205D01*
X23584Y-23287D01*
X21692Y-23287D01*
X21692Y-22874D01*
X26634Y-22874D01*
X26634Y-23307D01*
X26647Y-23375D01*
X26686Y-23432D01*
X27020Y-23767D01*
X27077Y-23805D01*
X27077Y-23805D01*
X27145Y-23818D01*
X27696Y-23818D01*
X27764Y-23805D01*
X27764Y-23805D01*
X27822Y-23767D01*
X29502Y-22086D01*
X29822Y-22086D01*
X29733Y-22175D01*
X29662Y-22347D01*
X29662Y-22533D01*
X29733Y-22705D01*
X29864Y-22837D01*
X30036Y-22908D01*
X30222Y-22908D01*
X30394Y-22837D01*
X30526Y-22706D01*
X30597Y-22534D01*
X30597Y-22348D01*
X30526Y-22176D01*
X30437Y-22086D01*
X30822Y-22086D01*
X30733Y-22175D01*
X30662Y-22347D01*
X30662Y-22533D01*
X30733Y-22705D01*
X30864Y-22837D01*
X31036Y-22908D01*
X31222Y-22908D01*
X31394Y-22837D01*
X31526Y-22706D01*
X31597Y-22534D01*
X31597Y-22348D01*
X31526Y-22176D01*
X31395Y-22044D01*
X31223Y-21973D01*
X31141Y-21973D01*
X31141Y-21141D01*
X31397Y-21141D01*
X31465Y-21128D01*
X31465Y-21128D01*
X31522Y-21089D01*
X31707Y-20905D01*
X32835Y-20905D01*
X32850Y-20941D01*
X33010Y-21101D01*
X33220Y-21188D01*
X33447Y-21189D01*
X33657Y-21102D01*
X33818Y-20941D01*
X33833Y-20905D01*
X34685Y-20905D01*
X34685Y-19507D01*
X35725Y-19507D01*
X36075Y-19857D01*
X36019Y-19834D01*
X35847Y-19834D01*
X35687Y-19900D01*
X35565Y-20021D01*
X35531Y-20104D01*
X35497Y-20022D01*
X35375Y-19900D01*
X35216Y-19834D01*
X35044Y-19834D01*
X34884Y-19900D01*
X34762Y-20021D01*
X34696Y-20181D01*
X34696Y-20353D01*
X34762Y-20512D01*
X34884Y-20634D01*
X35043Y-20700D01*
X35186Y-20701D01*
X35164Y-20722D01*
X35098Y-20881D01*
X35098Y-21054D01*
X35163Y-21213D01*
X35285Y-21335D01*
X35295Y-21339D01*
X35295Y-22027D01*
X35313Y-22117D01*
X35364Y-22194D01*
X36801Y-23631D01*
X36878Y-23682D01*
X36968Y-23700D01*
X39370Y-23700D01*
X39460Y-23682D01*
X39537Y-23631D01*
X40521Y-22647D01*
X40572Y-22570D01*
X40590Y-22480D01*
X40590Y-21643D01*
X42125Y-20107D01*
X42176Y-20031D01*
X42194Y-19940D01*
X42194Y-18259D01*
X42206Y-18255D01*
X42329Y-18132D01*
X42396Y-17971D01*
X42396Y-17797D01*
X42330Y-17636D01*
X42206Y-17512D01*
X42046Y-17446D01*
X41871Y-17445D01*
X41710Y-17512D01*
X41587Y-17635D01*
X41520Y-17796D01*
X41520Y-17970D01*
X41587Y-18131D01*
X41710Y-18254D01*
X41722Y-18259D01*
X41722Y-19843D01*
X41396Y-20169D01*
X41396Y-17797D01*
X41330Y-17636D01*
X41206Y-17512D01*
X41046Y-17446D01*
X40871Y-17445D01*
X40710Y-17512D01*
X40587Y-17635D01*
X40520Y-17796D01*
X40520Y-17970D01*
X40587Y-18131D01*
X40710Y-18254D01*
X40871Y-18321D01*
X41045Y-18321D01*
X41206Y-18255D01*
X41329Y-18132D01*
X41396Y-17971D01*
X41396Y-17797D01*
X41396Y-20169D01*
X40307Y-21258D01*
X40307Y-20505D01*
X40220Y-20295D01*
X40060Y-20134D01*
X39850Y-20047D01*
X39623Y-20047D01*
X39413Y-20133D01*
X39252Y-20294D01*
X39165Y-20504D01*
X39165Y-20731D01*
X39251Y-20941D01*
X39412Y-21101D01*
X39622Y-21188D01*
X39849Y-21189D01*
X40059Y-21102D01*
X40219Y-20941D01*
X40306Y-20732D01*
X40307Y-20505D01*
X40307Y-21258D01*
X40293Y-21271D01*
X40263Y-21277D01*
X40187Y-21329D01*
X40136Y-21405D01*
X40118Y-21496D01*
X40118Y-22382D01*
X39891Y-22608D01*
X39891Y-21798D01*
X39761Y-21484D01*
X39521Y-21242D01*
X39206Y-21112D01*
X38865Y-21112D01*
X38551Y-21242D01*
X38476Y-21316D01*
X38476Y-20863D01*
X38395Y-20666D01*
X38393Y-20664D01*
X38297Y-20639D01*
X37968Y-20968D01*
X38297Y-21297D01*
X38393Y-21272D01*
X38475Y-21076D01*
X38476Y-20863D01*
X38476Y-21316D01*
X38309Y-21482D01*
X38270Y-21578D01*
X38270Y-21325D01*
X37940Y-20996D01*
X37611Y-21325D01*
X37636Y-21420D01*
X37832Y-21503D01*
X38045Y-21503D01*
X38242Y-21422D01*
X38245Y-21420D01*
X38270Y-21325D01*
X38270Y-21578D01*
X38179Y-21797D01*
X38178Y-22138D01*
X38309Y-22452D01*
X38549Y-22694D01*
X38864Y-22824D01*
X39205Y-22824D01*
X39519Y-22694D01*
X39760Y-22454D01*
X39891Y-22139D01*
X39891Y-21798D01*
X39891Y-22608D01*
X39272Y-23228D01*
X37066Y-23228D01*
X36663Y-22825D01*
X36663Y-21325D01*
X36334Y-20996D01*
X36005Y-21325D01*
X36030Y-21420D01*
X36226Y-21503D01*
X36439Y-21503D01*
X36636Y-21422D01*
X36639Y-21420D01*
X36663Y-21325D01*
X36663Y-22825D01*
X35767Y-21929D01*
X35767Y-21339D01*
X35776Y-21336D01*
X35869Y-21243D01*
X35880Y-21270D01*
X35882Y-21272D01*
X35977Y-21297D01*
X36306Y-20968D01*
X36301Y-20962D01*
X36329Y-20935D01*
X36334Y-20940D01*
X36340Y-20935D01*
X36368Y-20962D01*
X36362Y-20968D01*
X36691Y-21297D01*
X36787Y-21272D01*
X36799Y-21243D01*
X36892Y-21335D01*
X37051Y-21401D01*
X37223Y-21401D01*
X37382Y-21336D01*
X37475Y-21243D01*
X37486Y-21270D01*
X37488Y-21272D01*
X37584Y-21297D01*
X37913Y-20968D01*
X37907Y-20962D01*
X37935Y-20935D01*
X37940Y-20940D01*
X38270Y-20611D01*
X38245Y-20516D01*
X38049Y-20433D01*
X37939Y-20433D01*
X37972Y-20354D01*
X37972Y-20181D01*
X37906Y-20022D01*
X37785Y-19900D01*
X37625Y-19834D01*
X37453Y-19834D01*
X37384Y-19862D01*
X36294Y-18772D01*
X36237Y-18733D01*
X36169Y-18720D01*
X34685Y-18720D01*
X34685Y-11948D01*
X35118Y-11948D01*
X35118Y-11948D01*
X35206Y-12036D01*
X35321Y-12084D01*
X35445Y-12084D01*
X35560Y-12036D01*
X35648Y-11949D01*
X35696Y-11834D01*
X35696Y-11709D01*
X35649Y-11594D01*
X35561Y-11506D01*
X35446Y-11458D01*
X35321Y-11458D01*
X35206Y-11506D01*
X35118Y-11594D01*
X35118Y-11594D01*
X35118Y-11594D01*
X34685Y-11594D01*
X34685Y-11437D01*
X35039Y-11437D01*
X35107Y-11423D01*
X35107Y-11423D01*
X35164Y-11385D01*
X35486Y-11062D01*
X39460Y-11062D01*
X39417Y-11105D01*
X39291Y-11409D01*
X39291Y-11738D01*
X39416Y-12042D01*
X39649Y-12275D01*
X39952Y-12401D01*
X40281Y-12401D01*
X40585Y-12276D01*
X40818Y-12043D01*
X40944Y-11739D01*
X40945Y-11411D01*
X40819Y-11107D01*
X40775Y-11062D01*
X41192Y-11062D01*
X41149Y-11105D01*
X41023Y-11409D01*
X41023Y-11738D01*
X41149Y-12042D01*
X41381Y-12275D01*
X41685Y-12401D01*
X42014Y-12401D01*
X42318Y-12276D01*
X42550Y-12043D01*
X42677Y-11739D01*
X42677Y-11411D01*
X42551Y-11107D01*
X42507Y-11062D01*
X43937Y-11062D01*
X43937Y-24251D01*
G54D10*
G36*
X25517Y-22007D02*
X22337Y-22007D01*
X22573Y-21771D01*
X24360Y-21771D01*
X24448Y-21859D01*
X24563Y-21907D01*
X24687Y-21907D01*
X24802Y-21859D01*
X24891Y-21771D01*
X24938Y-21656D01*
X24938Y-21532D01*
X24891Y-21417D01*
X24803Y-21329D01*
X24688Y-21281D01*
X24564Y-21281D01*
X24449Y-21329D01*
X24360Y-21417D01*
X24360Y-21417D01*
X22500Y-21417D01*
X22432Y-21430D01*
X22374Y-21469D01*
X21836Y-22007D01*
X20826Y-22007D01*
X20826Y-22854D01*
X20028Y-22854D01*
X19941Y-22766D01*
X19826Y-22718D01*
X19701Y-22718D01*
X19586Y-22766D01*
X19498Y-22854D01*
X19451Y-22969D01*
X19450Y-23093D01*
X19490Y-23188D01*
X19305Y-23188D01*
X18914Y-22798D01*
X19006Y-22706D01*
X19077Y-22534D01*
X19078Y-22348D01*
X19007Y-22176D01*
X18875Y-22044D01*
X18703Y-21973D01*
X18517Y-21973D01*
X18345Y-22044D01*
X18213Y-22175D01*
X18164Y-22293D01*
X18094Y-22121D01*
X18091Y-22115D01*
X17992Y-22086D01*
X17964Y-22114D01*
X17964Y-22059D01*
X17935Y-21959D01*
X17726Y-21872D01*
X17500Y-21870D01*
X17290Y-21956D01*
X17285Y-21959D01*
X17256Y-22059D01*
X17610Y-22413D01*
X17964Y-22059D01*
X17964Y-22114D01*
X17638Y-22440D01*
X17992Y-22794D01*
X18091Y-22766D01*
X18165Y-22589D01*
X18213Y-22705D01*
X18344Y-22837D01*
X18516Y-22908D01*
X18524Y-22908D01*
X18804Y-23188D01*
X17964Y-23188D01*
X17964Y-22822D01*
X17610Y-22468D01*
X17582Y-22496D01*
X17582Y-22440D01*
X17228Y-22086D01*
X17129Y-22115D01*
X17041Y-22324D01*
X17040Y-22551D01*
X17125Y-22760D01*
X17129Y-22766D01*
X17228Y-22794D01*
X17582Y-22440D01*
X17582Y-22496D01*
X17256Y-22822D01*
X17285Y-22921D01*
X17493Y-23009D01*
X17720Y-23010D01*
X17930Y-22925D01*
X17935Y-22921D01*
X17964Y-22822D01*
X17964Y-23188D01*
X16574Y-23188D01*
X16574Y-22120D01*
X17337Y-21358D01*
X18248Y-21358D01*
X18315Y-21344D01*
X18373Y-21306D01*
X18411Y-21248D01*
X18411Y-21248D01*
X19692Y-19967D01*
X19730Y-19910D01*
X19744Y-19842D01*
X19744Y-18577D01*
X20624Y-17696D01*
X21462Y-17696D01*
X21203Y-17954D01*
X21079Y-17954D01*
X20964Y-18002D01*
X20876Y-18090D01*
X20828Y-18205D01*
X20828Y-18329D01*
X20876Y-18444D01*
X20964Y-18532D01*
X21079Y-18580D01*
X21203Y-18580D01*
X21318Y-18533D01*
X21406Y-18445D01*
X21406Y-18444D01*
X23843Y-18444D01*
X24606Y-19207D01*
X24606Y-19980D01*
X24619Y-20048D01*
X24658Y-20105D01*
X25209Y-20656D01*
X25266Y-20695D01*
X25266Y-20695D01*
X25298Y-20701D01*
X25256Y-20718D01*
X25168Y-20806D01*
X25120Y-20921D01*
X25120Y-21046D01*
X25165Y-21154D01*
X24810Y-20799D01*
X24752Y-20761D01*
X24685Y-20748D01*
X22970Y-20748D01*
X22970Y-19288D01*
X22922Y-19173D01*
X22834Y-19085D01*
X22719Y-19037D01*
X22595Y-19037D01*
X22480Y-19085D01*
X22392Y-19172D01*
X22384Y-19192D01*
X20442Y-19192D01*
X20354Y-19105D01*
X20239Y-19057D01*
X20115Y-19057D01*
X20000Y-19104D01*
X19912Y-19192D01*
X19864Y-19307D01*
X19864Y-19432D01*
X19911Y-19547D01*
X19999Y-19635D01*
X20114Y-19682D01*
X20239Y-19682D01*
X20354Y-19635D01*
X20442Y-19547D01*
X20442Y-19547D01*
X22412Y-19547D01*
X22480Y-19615D01*
X22594Y-19663D01*
X22719Y-19663D01*
X22834Y-19615D01*
X22922Y-19527D01*
X22970Y-19412D01*
X22970Y-19288D01*
X22970Y-20748D01*
X22263Y-20748D01*
X22195Y-20761D01*
X22138Y-20799D01*
X21383Y-21555D01*
X19458Y-21555D01*
X19370Y-21467D01*
X19255Y-21419D01*
X19130Y-21419D01*
X19015Y-21466D01*
X18927Y-21554D01*
X18880Y-21669D01*
X18880Y-21794D01*
X18927Y-21909D01*
X19015Y-21997D01*
X19130Y-22045D01*
X19254Y-22045D01*
X19369Y-21997D01*
X19457Y-21909D01*
X19458Y-21909D01*
X21456Y-21909D01*
X21524Y-21895D01*
X21524Y-21895D01*
X21581Y-21857D01*
X22337Y-21102D01*
X24611Y-21102D01*
X25517Y-22007D01*
X25517Y-22007D01*
G37*
G54D27*
X25517Y-22007D02*
X22337Y-22007D01*
X22573Y-21771D01*
X24360Y-21771D01*
X24448Y-21859D01*
X24563Y-21907D01*
X24687Y-21907D01*
X24802Y-21859D01*
X24891Y-21771D01*
X24938Y-21656D01*
X24938Y-21532D01*
X24891Y-21417D01*
X24803Y-21329D01*
X24688Y-21281D01*
X24564Y-21281D01*
X24449Y-21329D01*
X24360Y-21417D01*
X24360Y-21417D01*
X22500Y-21417D01*
X22432Y-21430D01*
X22374Y-21469D01*
X21836Y-22007D01*
X20826Y-22007D01*
X20826Y-22854D01*
X20028Y-22854D01*
X19941Y-22766D01*
X19826Y-22718D01*
X19701Y-22718D01*
X19586Y-22766D01*
X19498Y-22854D01*
X19451Y-22969D01*
X19450Y-23093D01*
X19490Y-23188D01*
X19305Y-23188D01*
X18914Y-22798D01*
X19006Y-22706D01*
X19077Y-22534D01*
X19078Y-22348D01*
X19007Y-22176D01*
X18875Y-22044D01*
X18703Y-21973D01*
X18517Y-21973D01*
X18345Y-22044D01*
X18213Y-22175D01*
X18164Y-22293D01*
X18094Y-22121D01*
X18091Y-22115D01*
X17992Y-22086D01*
X17964Y-22114D01*
X17964Y-22059D01*
X17935Y-21959D01*
X17726Y-21872D01*
X17500Y-21870D01*
X17290Y-21956D01*
X17285Y-21959D01*
X17256Y-22059D01*
X17610Y-22413D01*
X17964Y-22059D01*
X17964Y-22114D01*
X17638Y-22440D01*
X17992Y-22794D01*
X18091Y-22766D01*
X18165Y-22589D01*
X18213Y-22705D01*
X18344Y-22837D01*
X18516Y-22908D01*
X18524Y-22908D01*
X18804Y-23188D01*
X17964Y-23188D01*
X17964Y-22822D01*
X17610Y-22468D01*
X17582Y-22496D01*
X17582Y-22440D01*
X17228Y-22086D01*
X17129Y-22115D01*
X17041Y-22324D01*
X17040Y-22551D01*
X17125Y-22760D01*
X17129Y-22766D01*
X17228Y-22794D01*
X17582Y-22440D01*
X17582Y-22496D01*
X17256Y-22822D01*
X17285Y-22921D01*
X17493Y-23009D01*
X17720Y-23010D01*
X17930Y-22925D01*
X17935Y-22921D01*
X17964Y-22822D01*
X17964Y-23188D01*
X16574Y-23188D01*
X16574Y-22120D01*
X17337Y-21358D01*
X18248Y-21358D01*
X18315Y-21344D01*
X18373Y-21306D01*
X18411Y-21248D01*
X18411Y-21248D01*
X19692Y-19967D01*
X19730Y-19910D01*
X19744Y-19842D01*
X19744Y-18577D01*
X20624Y-17696D01*
X21462Y-17696D01*
X21203Y-17954D01*
X21079Y-17954D01*
X20964Y-18002D01*
X20876Y-18090D01*
X20828Y-18205D01*
X20828Y-18329D01*
X20876Y-18444D01*
X20964Y-18532D01*
X21079Y-18580D01*
X21203Y-18580D01*
X21318Y-18533D01*
X21406Y-18445D01*
X21406Y-18444D01*
X23843Y-18444D01*
X24606Y-19207D01*
X24606Y-19980D01*
X24619Y-20048D01*
X24658Y-20105D01*
X25209Y-20656D01*
X25266Y-20695D01*
X25266Y-20695D01*
X25298Y-20701D01*
X25256Y-20718D01*
X25168Y-20806D01*
X25120Y-20921D01*
X25120Y-21046D01*
X25165Y-21154D01*
X24810Y-20799D01*
X24752Y-20761D01*
X24685Y-20748D01*
X22970Y-20748D01*
X22970Y-19288D01*
X22922Y-19173D01*
X22834Y-19085D01*
X22719Y-19037D01*
X22595Y-19037D01*
X22480Y-19085D01*
X22392Y-19172D01*
X22384Y-19192D01*
X20442Y-19192D01*
X20354Y-19105D01*
X20239Y-19057D01*
X20115Y-19057D01*
X20000Y-19104D01*
X19912Y-19192D01*
X19864Y-19307D01*
X19864Y-19432D01*
X19911Y-19547D01*
X19999Y-19635D01*
X20114Y-19682D01*
X20239Y-19682D01*
X20354Y-19635D01*
X20442Y-19547D01*
X20442Y-19547D01*
X22412Y-19547D01*
X22480Y-19615D01*
X22594Y-19663D01*
X22719Y-19663D01*
X22834Y-19615D01*
X22922Y-19527D01*
X22970Y-19412D01*
X22970Y-19288D01*
X22970Y-20748D01*
X22263Y-20748D01*
X22195Y-20761D01*
X22138Y-20799D01*
X21383Y-21555D01*
X19458Y-21555D01*
X19370Y-21467D01*
X19255Y-21419D01*
X19130Y-21419D01*
X19015Y-21466D01*
X18927Y-21554D01*
X18880Y-21669D01*
X18880Y-21794D01*
X18927Y-21909D01*
X19015Y-21997D01*
X19130Y-22045D01*
X19254Y-22045D01*
X19369Y-21997D01*
X19457Y-21909D01*
X19458Y-21909D01*
X21456Y-21909D01*
X21524Y-21895D01*
X21524Y-21895D01*
X21581Y-21857D01*
X22337Y-21102D01*
X24611Y-21102D01*
X25517Y-22007D01*
G54D10*
G36*
X43937Y-10196D02*
X36352Y-10196D01*
X37867Y-8681D01*
X37913Y-8700D01*
X38070Y-8700D01*
X38214Y-8641D01*
X38325Y-8530D01*
X38385Y-8385D01*
X38385Y-8229D01*
X38385Y-6103D01*
X38326Y-5958D01*
X38215Y-5847D01*
X38070Y-5787D01*
X37914Y-5787D01*
X37769Y-5847D01*
X37658Y-5957D01*
X37598Y-6102D01*
X37598Y-6259D01*
X37658Y-6403D01*
X37768Y-6514D01*
X37913Y-6574D01*
X38070Y-6574D01*
X38214Y-6515D01*
X38325Y-6404D01*
X38385Y-6259D01*
X38385Y-6103D01*
X38385Y-8229D01*
X38326Y-8084D01*
X38215Y-7973D01*
X38070Y-7913D01*
X37914Y-7913D01*
X37769Y-7973D01*
X37658Y-8083D01*
X37598Y-8228D01*
X37598Y-8385D01*
X37617Y-8431D01*
X37503Y-8545D01*
X37503Y-8208D01*
X37427Y-8026D01*
X37427Y-8026D01*
X37401Y-8020D01*
X37401Y-6103D01*
X37341Y-5958D01*
X37231Y-5847D01*
X37086Y-5787D01*
X36929Y-5787D01*
X36785Y-5847D01*
X36674Y-5957D01*
X36614Y-6102D01*
X36614Y-6259D01*
X36673Y-6403D01*
X36784Y-6514D01*
X36929Y-6574D01*
X37085Y-6574D01*
X37230Y-6515D01*
X37341Y-6404D01*
X37401Y-6259D01*
X37401Y-6103D01*
X37401Y-8020D01*
X37336Y-8006D01*
X37308Y-8034D01*
X37308Y-7978D01*
X37288Y-7887D01*
X37106Y-7811D01*
X36909Y-7811D01*
X36727Y-7887D01*
X36727Y-7887D01*
X36707Y-7978D01*
X37007Y-8279D01*
X37308Y-7978D01*
X37308Y-8034D01*
X37035Y-8307D01*
X37336Y-8607D01*
X37427Y-8587D01*
X37503Y-8405D01*
X37503Y-8208D01*
X37503Y-8545D01*
X37308Y-8740D01*
X37308Y-8635D01*
X37007Y-8334D01*
X36980Y-8362D01*
X36980Y-8307D01*
X36679Y-8006D01*
X36588Y-8026D01*
X36512Y-8208D01*
X36512Y-8405D01*
X36587Y-8587D01*
X36588Y-8587D01*
X36679Y-8607D01*
X36980Y-8307D01*
X36980Y-8362D01*
X36707Y-8635D01*
X36727Y-8726D01*
X36909Y-8802D01*
X37106Y-8802D01*
X37288Y-8727D01*
X37288Y-8726D01*
X37308Y-8635D01*
X37308Y-8740D01*
X36417Y-9631D01*
X36417Y-8229D01*
X36417Y-6103D01*
X36357Y-5958D01*
X36246Y-5847D01*
X36102Y-5787D01*
X35945Y-5787D01*
X35800Y-5847D01*
X35690Y-5957D01*
X35629Y-6102D01*
X35629Y-6259D01*
X35689Y-6403D01*
X35800Y-6514D01*
X35944Y-6574D01*
X36101Y-6574D01*
X36246Y-6515D01*
X36357Y-6404D01*
X36417Y-6259D01*
X36417Y-6103D01*
X36417Y-8229D01*
X36357Y-8084D01*
X36246Y-7973D01*
X36102Y-7913D01*
X35945Y-7913D01*
X35800Y-7973D01*
X35690Y-8083D01*
X35629Y-8228D01*
X35629Y-8385D01*
X35689Y-8529D01*
X35800Y-8640D01*
X35944Y-8700D01*
X36101Y-8700D01*
X36246Y-8641D01*
X36357Y-8530D01*
X36417Y-8385D01*
X36417Y-8229D01*
X36417Y-9631D01*
X35851Y-10196D01*
X33818Y-10196D01*
X33818Y-11082D01*
X32883Y-11082D01*
X32883Y-8229D01*
X32883Y-6103D01*
X32824Y-5958D01*
X32713Y-5847D01*
X32568Y-5787D01*
X32412Y-5787D01*
X32267Y-5847D01*
X32156Y-5957D01*
X32096Y-6102D01*
X32096Y-6259D01*
X32156Y-6403D01*
X32266Y-6514D01*
X32411Y-6574D01*
X32568Y-6574D01*
X32712Y-6515D01*
X32823Y-6404D01*
X32883Y-6259D01*
X32883Y-6103D01*
X32883Y-8229D01*
X32824Y-8084D01*
X32713Y-7973D01*
X32568Y-7913D01*
X32412Y-7913D01*
X32267Y-7973D01*
X32156Y-8083D01*
X32096Y-8228D01*
X32096Y-8385D01*
X32156Y-8529D01*
X32266Y-8640D01*
X32411Y-8700D01*
X32568Y-8700D01*
X32712Y-8641D01*
X32823Y-8530D01*
X32883Y-8385D01*
X32883Y-8229D01*
X32883Y-11082D01*
X32871Y-11082D01*
X32871Y-9190D01*
X32824Y-9075D01*
X32736Y-8986D01*
X32621Y-8939D01*
X32497Y-8939D01*
X32382Y-8986D01*
X32352Y-9015D01*
X32001Y-9015D01*
X32001Y-8208D01*
X31925Y-8026D01*
X31925Y-8026D01*
X31899Y-8020D01*
X31899Y-6103D01*
X31839Y-5958D01*
X31729Y-5847D01*
X31584Y-5787D01*
X31427Y-5787D01*
X31283Y-5847D01*
X31172Y-5957D01*
X31112Y-6102D01*
X31112Y-6259D01*
X31171Y-6403D01*
X31282Y-6514D01*
X31427Y-6574D01*
X31583Y-6574D01*
X31728Y-6515D01*
X31839Y-6404D01*
X31899Y-6259D01*
X31899Y-6103D01*
X31899Y-8020D01*
X31834Y-8006D01*
X31806Y-8034D01*
X31806Y-7978D01*
X31786Y-7887D01*
X31604Y-7811D01*
X31407Y-7811D01*
X31225Y-7887D01*
X31225Y-7887D01*
X31205Y-7978D01*
X31505Y-8279D01*
X31806Y-7978D01*
X31806Y-8034D01*
X31533Y-8307D01*
X31834Y-8607D01*
X31925Y-8587D01*
X32001Y-8405D01*
X32001Y-8208D01*
X32001Y-9015D01*
X31806Y-9015D01*
X31806Y-8635D01*
X31505Y-8334D01*
X31478Y-8362D01*
X31478Y-8307D01*
X31177Y-8006D01*
X31086Y-8026D01*
X31010Y-8208D01*
X31010Y-8405D01*
X31085Y-8587D01*
X31086Y-8587D01*
X31177Y-8607D01*
X31478Y-8307D01*
X31478Y-8362D01*
X31205Y-8635D01*
X31225Y-8726D01*
X31407Y-8802D01*
X31604Y-8802D01*
X31786Y-8727D01*
X31786Y-8726D01*
X31806Y-8635D01*
X31806Y-9015D01*
X31466Y-9015D01*
X31437Y-8986D01*
X31322Y-8939D01*
X31197Y-8939D01*
X31082Y-8986D01*
X30994Y-9074D01*
X30947Y-9189D01*
X30946Y-9313D01*
X30994Y-9428D01*
X31082Y-9516D01*
X31197Y-9564D01*
X31321Y-9564D01*
X31436Y-9517D01*
X31465Y-9488D01*
X32352Y-9488D01*
X32381Y-9516D01*
X32496Y-9564D01*
X32621Y-9564D01*
X32736Y-9517D01*
X32824Y-9429D01*
X32871Y-9314D01*
X32871Y-9190D01*
X32871Y-11082D01*
X31761Y-11082D01*
X31673Y-10994D01*
X31558Y-10947D01*
X31434Y-10946D01*
X31319Y-10994D01*
X31231Y-11082D01*
X31183Y-11197D01*
X31183Y-11321D01*
X31230Y-11436D01*
X31318Y-11524D01*
X31433Y-11572D01*
X31558Y-11572D01*
X31673Y-11525D01*
X31761Y-11437D01*
X31761Y-11437D01*
X33818Y-11437D01*
X33818Y-11594D01*
X32351Y-11594D01*
X32264Y-11506D01*
X32149Y-11458D01*
X32024Y-11458D01*
X31909Y-11506D01*
X31821Y-11594D01*
X31773Y-11709D01*
X31773Y-11833D01*
X31821Y-11948D01*
X31909Y-12036D01*
X32024Y-12084D01*
X32148Y-12084D01*
X32263Y-12036D01*
X32351Y-11949D01*
X32351Y-11948D01*
X33818Y-11948D01*
X33818Y-13602D01*
X33327Y-14094D01*
X31977Y-14094D01*
X31949Y-14065D01*
X31834Y-14017D01*
X31709Y-14017D01*
X31594Y-14065D01*
X31524Y-14135D01*
X31521Y-14125D01*
X31483Y-14067D01*
X30915Y-13499D01*
X30915Y-8229D01*
X30915Y-6103D01*
X30855Y-5958D01*
X30744Y-5847D01*
X30600Y-5787D01*
X30443Y-5787D01*
X30298Y-5847D01*
X30188Y-5957D01*
X30128Y-6102D01*
X30127Y-6259D01*
X30187Y-6403D01*
X30298Y-6514D01*
X30442Y-6574D01*
X30599Y-6574D01*
X30744Y-6515D01*
X30855Y-6404D01*
X30915Y-6259D01*
X30915Y-6103D01*
X30915Y-8229D01*
X30855Y-8084D01*
X30744Y-7973D01*
X30600Y-7913D01*
X30443Y-7913D01*
X30298Y-7973D01*
X30188Y-8083D01*
X30128Y-8228D01*
X30127Y-8385D01*
X30187Y-8529D01*
X30298Y-8640D01*
X30442Y-8700D01*
X30599Y-8700D01*
X30744Y-8641D01*
X30855Y-8530D01*
X30915Y-8385D01*
X30915Y-8229D01*
X30915Y-13499D01*
X30903Y-13487D01*
X30903Y-13363D01*
X30855Y-13248D01*
X30767Y-13160D01*
X30653Y-13112D01*
X30528Y-13112D01*
X30413Y-13159D01*
X30325Y-13247D01*
X30277Y-13362D01*
X30277Y-13487D01*
X30325Y-13602D01*
X30413Y-13690D01*
X30528Y-13737D01*
X30652Y-13738D01*
X30652Y-13737D01*
X31181Y-14266D01*
X31181Y-16855D01*
X30654Y-17381D01*
X30304Y-17381D01*
X30216Y-17294D01*
X30211Y-17291D01*
X30211Y-17291D01*
X30243Y-17270D01*
X30440Y-17074D01*
X30478Y-17016D01*
X30478Y-17016D01*
X30492Y-16948D01*
X30492Y-16839D01*
X30579Y-16752D01*
X30627Y-16637D01*
X30627Y-16512D01*
X30580Y-16397D01*
X30492Y-16309D01*
X30377Y-16262D01*
X30253Y-16261D01*
X30138Y-16309D01*
X30049Y-16397D01*
X30002Y-16512D01*
X30002Y-16636D01*
X30049Y-16751D01*
X30137Y-16839D01*
X30137Y-16839D01*
X30137Y-16875D01*
X30044Y-16968D01*
X29744Y-16968D01*
X29676Y-16981D01*
X29618Y-17020D01*
X29461Y-17177D01*
X29422Y-17235D01*
X29409Y-17303D01*
X29409Y-19552D01*
X29407Y-19554D01*
X29407Y-9229D01*
X29359Y-9114D01*
X29271Y-9026D01*
X29156Y-8978D01*
X29032Y-8978D01*
X28917Y-9026D01*
X28829Y-9113D01*
X28781Y-9228D01*
X28781Y-9353D01*
X28829Y-9468D01*
X28917Y-9556D01*
X28917Y-9556D01*
X28917Y-13745D01*
X28614Y-14047D01*
X28576Y-14105D01*
X28562Y-14173D01*
X28562Y-16782D01*
X28475Y-16869D01*
X28427Y-16984D01*
X28427Y-17109D01*
X28474Y-17224D01*
X28562Y-17312D01*
X28677Y-17359D01*
X28802Y-17360D01*
X28917Y-17312D01*
X29005Y-17224D01*
X29052Y-17109D01*
X29053Y-16985D01*
X29005Y-16870D01*
X28917Y-16782D01*
X28917Y-16782D01*
X28917Y-14246D01*
X29219Y-13944D01*
X29258Y-13886D01*
X29271Y-13818D01*
X29271Y-9556D01*
X29359Y-9468D01*
X29407Y-9353D01*
X29407Y-9229D01*
X29407Y-19554D01*
X28843Y-20118D01*
X26923Y-20118D01*
X26665Y-19860D01*
X26695Y-19860D01*
X26810Y-19812D01*
X26898Y-19724D01*
X26946Y-19609D01*
X26946Y-19485D01*
X26899Y-19370D01*
X26811Y-19282D01*
X26811Y-19282D01*
X26811Y-18518D01*
X27219Y-18110D01*
X27589Y-18110D01*
X27676Y-18198D01*
X27791Y-18245D01*
X27916Y-18245D01*
X28031Y-18198D01*
X28119Y-18110D01*
X28167Y-17995D01*
X28167Y-17871D01*
X28119Y-17756D01*
X28031Y-17668D01*
X27916Y-17620D01*
X27911Y-17620D01*
X27911Y-11709D01*
X27863Y-11594D01*
X27832Y-11563D01*
X27832Y-10213D01*
X27785Y-10098D01*
X27697Y-10010D01*
X27582Y-9962D01*
X27457Y-9962D01*
X27457Y-9962D01*
X26515Y-9021D01*
X26515Y-7340D01*
X26622Y-7296D01*
X26735Y-7184D01*
X26753Y-7229D01*
X26903Y-7379D01*
X27098Y-7460D01*
X27309Y-7460D01*
X27505Y-7379D01*
X27655Y-7230D01*
X27736Y-7035D01*
X27736Y-6823D01*
X27655Y-6628D01*
X27506Y-6478D01*
X27310Y-6397D01*
X27099Y-6397D01*
X26904Y-6478D01*
X26754Y-6627D01*
X26735Y-6673D01*
X26623Y-6562D01*
X26464Y-6496D01*
X26292Y-6495D01*
X26132Y-6561D01*
X26051Y-6643D01*
X26044Y-6627D01*
X26042Y-6624D01*
X25947Y-6600D01*
X25919Y-6628D01*
X25919Y-6572D01*
X25894Y-6476D01*
X25698Y-6394D01*
X25485Y-6394D01*
X25289Y-6474D01*
X25286Y-6476D01*
X25261Y-6572D01*
X25590Y-6901D01*
X25919Y-6572D01*
X25919Y-6628D01*
X25618Y-6929D01*
X25947Y-7258D01*
X26042Y-7233D01*
X26050Y-7214D01*
X26132Y-7296D01*
X26161Y-7308D01*
X26161Y-9094D01*
X26174Y-9162D01*
X26213Y-9219D01*
X27206Y-10213D01*
X27206Y-10302D01*
X25919Y-9015D01*
X25919Y-7285D01*
X25590Y-6956D01*
X25261Y-7285D01*
X25286Y-7381D01*
X25482Y-7463D01*
X25695Y-7464D01*
X25891Y-7383D01*
X25894Y-7381D01*
X25919Y-7285D01*
X25919Y-9015D01*
X24980Y-8076D01*
X24980Y-7324D01*
X25048Y-7296D01*
X25129Y-7214D01*
X25136Y-7230D01*
X25138Y-7233D01*
X25233Y-7258D01*
X25562Y-6929D01*
X25233Y-6600D01*
X25138Y-6624D01*
X25130Y-6643D01*
X25048Y-6562D01*
X24889Y-6496D01*
X24717Y-6495D01*
X24558Y-6561D01*
X24445Y-6673D01*
X24427Y-6628D01*
X24277Y-6478D01*
X24082Y-6397D01*
X23871Y-6397D01*
X23675Y-6478D01*
X23526Y-6627D01*
X23444Y-6822D01*
X23444Y-7034D01*
X23525Y-7229D01*
X23674Y-7379D01*
X23870Y-7460D01*
X24081Y-7460D01*
X24277Y-7379D01*
X24426Y-7230D01*
X24445Y-7184D01*
X24557Y-7296D01*
X24625Y-7324D01*
X24625Y-8149D01*
X24639Y-8217D01*
X24677Y-8274D01*
X27128Y-10725D01*
X27128Y-10849D01*
X27175Y-10964D01*
X27263Y-11052D01*
X27378Y-11100D01*
X27502Y-11100D01*
X27617Y-11052D01*
X27705Y-10964D01*
X27753Y-10849D01*
X27753Y-10725D01*
X27706Y-10610D01*
X27654Y-10558D01*
X27696Y-10540D01*
X27784Y-10453D01*
X27832Y-10338D01*
X27832Y-10213D01*
X27832Y-11563D01*
X27775Y-11506D01*
X27660Y-11458D01*
X27536Y-11458D01*
X27421Y-11506D01*
X27384Y-11543D01*
X24495Y-8654D01*
X24437Y-8615D01*
X24370Y-8602D01*
X21170Y-8602D01*
X21209Y-8563D01*
X21257Y-8448D01*
X21257Y-8323D01*
X21210Y-8208D01*
X21122Y-8120D01*
X21122Y-8120D01*
X21122Y-7285D01*
X21223Y-7184D01*
X21242Y-7229D01*
X21391Y-7379D01*
X21586Y-7460D01*
X21798Y-7460D01*
X21993Y-7379D01*
X22143Y-7230D01*
X22224Y-7035D01*
X22224Y-6823D01*
X22143Y-6628D01*
X21994Y-6478D01*
X21799Y-6397D01*
X21587Y-6397D01*
X21392Y-6478D01*
X21242Y-6627D01*
X21223Y-6673D01*
X21111Y-6562D01*
X20952Y-6496D01*
X20780Y-6495D01*
X20621Y-6561D01*
X20539Y-6643D01*
X20532Y-6627D01*
X20531Y-6624D01*
X20435Y-6600D01*
X20407Y-6628D01*
X20407Y-6572D01*
X20383Y-6476D01*
X20186Y-6394D01*
X19974Y-6394D01*
X19777Y-6474D01*
X19774Y-6476D01*
X19749Y-6572D01*
X20078Y-6901D01*
X20407Y-6572D01*
X20407Y-6628D01*
X20106Y-6929D01*
X20435Y-7258D01*
X20531Y-7233D01*
X20538Y-7214D01*
X20620Y-7296D01*
X20767Y-7357D01*
X20767Y-8120D01*
X20679Y-8208D01*
X20632Y-8323D01*
X20632Y-8447D01*
X20679Y-8562D01*
X20719Y-8602D01*
X20407Y-8602D01*
X20407Y-7285D01*
X20078Y-6956D01*
X19749Y-7285D01*
X19774Y-7381D01*
X19970Y-7463D01*
X20183Y-7464D01*
X20380Y-7383D01*
X20383Y-7381D01*
X20407Y-7285D01*
X20407Y-8602D01*
X20191Y-8602D01*
X19468Y-7879D01*
X19468Y-7324D01*
X19536Y-7296D01*
X19618Y-7214D01*
X19624Y-7230D01*
X19626Y-7233D01*
X19721Y-7258D01*
X20050Y-6929D01*
X19721Y-6600D01*
X19626Y-6624D01*
X19618Y-6643D01*
X19536Y-6562D01*
X19377Y-6496D01*
X19205Y-6495D01*
X19046Y-6561D01*
X18934Y-6673D01*
X18915Y-6628D01*
X18766Y-6478D01*
X18570Y-6397D01*
X18359Y-6397D01*
X18163Y-6478D01*
X18014Y-6627D01*
X17933Y-6822D01*
X17932Y-7034D01*
X18013Y-7229D01*
X18163Y-7379D01*
X18358Y-7460D01*
X18569Y-7460D01*
X18765Y-7379D01*
X18914Y-7230D01*
X18934Y-7184D01*
X19045Y-7296D01*
X19114Y-7324D01*
X19114Y-7952D01*
X19127Y-8020D01*
X19166Y-8078D01*
X19992Y-8904D01*
X20050Y-8943D01*
X20118Y-8956D01*
X20758Y-8956D01*
X20679Y-9035D01*
X20632Y-9150D01*
X20632Y-9274D01*
X20679Y-9389D01*
X20767Y-9477D01*
X20882Y-9525D01*
X21006Y-9525D01*
X21007Y-9525D01*
X21961Y-10479D01*
X22018Y-10518D01*
X22086Y-10531D01*
X25320Y-10531D01*
X26374Y-11585D01*
X26279Y-11624D01*
X26191Y-11712D01*
X26143Y-11827D01*
X26143Y-11951D01*
X26191Y-12066D01*
X26267Y-12143D01*
X25928Y-12482D01*
X25804Y-12482D01*
X25689Y-12529D01*
X25601Y-12617D01*
X25553Y-12732D01*
X25553Y-12857D01*
X25600Y-12972D01*
X25688Y-13060D01*
X25803Y-13108D01*
X25928Y-13108D01*
X26043Y-13060D01*
X26131Y-12972D01*
X26178Y-12857D01*
X26178Y-12733D01*
X26178Y-12733D01*
X26581Y-12329D01*
X26620Y-12272D01*
X26633Y-12204D01*
X26633Y-12154D01*
X26721Y-12067D01*
X26761Y-11972D01*
X26970Y-12181D01*
X26970Y-12306D01*
X27018Y-12421D01*
X27106Y-12509D01*
X27220Y-12556D01*
X27345Y-12556D01*
X27460Y-12509D01*
X27548Y-12421D01*
X27596Y-12306D01*
X27596Y-12182D01*
X27555Y-12084D01*
X27660Y-12084D01*
X27775Y-12036D01*
X27863Y-11949D01*
X27911Y-11834D01*
X27911Y-11709D01*
X27911Y-17620D01*
X27792Y-17620D01*
X27677Y-17667D01*
X27589Y-17755D01*
X27589Y-17755D01*
X27145Y-17755D01*
X27077Y-17769D01*
X27020Y-17807D01*
X26508Y-18319D01*
X26470Y-18377D01*
X26456Y-18444D01*
X26456Y-19282D01*
X26368Y-19369D01*
X26321Y-19484D01*
X26321Y-19515D01*
X26122Y-19316D01*
X26122Y-18375D01*
X26209Y-18287D01*
X26257Y-18172D01*
X26257Y-18048D01*
X26210Y-17933D01*
X26122Y-17845D01*
X26007Y-17797D01*
X25882Y-17797D01*
X25767Y-17844D01*
X25679Y-17932D01*
X25632Y-18047D01*
X25632Y-18172D01*
X25679Y-18287D01*
X25767Y-18375D01*
X25767Y-18375D01*
X25767Y-19389D01*
X25781Y-19457D01*
X25819Y-19515D01*
X26129Y-19824D01*
X26099Y-19824D01*
X26099Y-19825D01*
X25610Y-19336D01*
X25610Y-17750D01*
X25626Y-17734D01*
X25750Y-17734D01*
X25865Y-17686D01*
X25953Y-17598D01*
X26001Y-17483D01*
X26001Y-17359D01*
X25954Y-17244D01*
X25866Y-17156D01*
X25751Y-17108D01*
X25732Y-17108D01*
X25754Y-17075D01*
X25754Y-17075D01*
X25767Y-17007D01*
X25767Y-14114D01*
X25754Y-14046D01*
X25754Y-14046D01*
X25715Y-13988D01*
X25420Y-13693D01*
X25363Y-13655D01*
X25295Y-13641D01*
X25261Y-13641D01*
X25246Y-13604D01*
X25207Y-13565D01*
X25187Y-13557D01*
X25207Y-13548D01*
X25246Y-13510D01*
X25257Y-13484D01*
X25399Y-13484D01*
X26931Y-15016D01*
X26931Y-15140D01*
X26978Y-15255D01*
X27066Y-15343D01*
X27181Y-15391D01*
X27306Y-15391D01*
X27421Y-15344D01*
X27509Y-15256D01*
X27556Y-15141D01*
X27556Y-15016D01*
X27509Y-14901D01*
X27421Y-14813D01*
X27306Y-14765D01*
X27182Y-14765D01*
X27181Y-14765D01*
X25597Y-13181D01*
X25540Y-13143D01*
X25472Y-13129D01*
X25257Y-13129D01*
X25246Y-13104D01*
X25207Y-13065D01*
X25187Y-13057D01*
X25207Y-13048D01*
X25246Y-13010D01*
X25267Y-12959D01*
X25267Y-12904D01*
X25267Y-12654D01*
X25246Y-12604D01*
X25207Y-12565D01*
X25187Y-12557D01*
X25207Y-12548D01*
X25246Y-12510D01*
X25267Y-12459D01*
X25267Y-12404D01*
X25267Y-12154D01*
X25246Y-12104D01*
X25207Y-12065D01*
X25187Y-12057D01*
X25207Y-12048D01*
X25246Y-12010D01*
X25254Y-11990D01*
X25285Y-12066D01*
X25373Y-12154D01*
X25488Y-12202D01*
X25613Y-12202D01*
X25728Y-12155D01*
X25816Y-12067D01*
X25863Y-11952D01*
X25864Y-11827D01*
X25816Y-11712D01*
X25728Y-11624D01*
X25613Y-11577D01*
X25489Y-11576D01*
X25374Y-11624D01*
X25368Y-11629D01*
X25257Y-11629D01*
X25246Y-11604D01*
X25207Y-11565D01*
X25156Y-11544D01*
X25102Y-11544D01*
X25059Y-11544D01*
X25146Y-11456D01*
X25194Y-11342D01*
X25194Y-11217D01*
X25147Y-11102D01*
X25059Y-11014D01*
X24944Y-10966D01*
X24819Y-10966D01*
X24704Y-11014D01*
X24616Y-11102D01*
X24569Y-11217D01*
X24569Y-11341D01*
X24616Y-11456D01*
X24704Y-11544D01*
X24602Y-11544D01*
X24551Y-11565D01*
X24512Y-11604D01*
X24491Y-11654D01*
X24491Y-11709D01*
X24491Y-11959D01*
X24512Y-12010D01*
X24551Y-12048D01*
X24571Y-12057D01*
X24551Y-12065D01*
X24516Y-12100D01*
X23363Y-10948D01*
X23364Y-10823D01*
X23316Y-10708D01*
X23228Y-10620D01*
X23113Y-10573D01*
X22989Y-10572D01*
X22874Y-10620D01*
X22786Y-10708D01*
X22738Y-10823D01*
X22738Y-10947D01*
X22785Y-11062D01*
X22873Y-11150D01*
X22988Y-11198D01*
X23113Y-11198D01*
X23113Y-11198D01*
X24323Y-12408D01*
X24381Y-12447D01*
X24381Y-12447D01*
X24448Y-12460D01*
X24492Y-12460D01*
X24512Y-12510D01*
X24551Y-12548D01*
X24571Y-12557D01*
X24551Y-12565D01*
X24537Y-12579D01*
X24488Y-12530D01*
X24373Y-12482D01*
X24249Y-12482D01*
X24134Y-12529D01*
X24046Y-12617D01*
X24001Y-12724D01*
X23997Y-12704D01*
X23946Y-12628D01*
X23434Y-12116D01*
X23358Y-12065D01*
X23267Y-12047D01*
X23140Y-12047D01*
X23168Y-11979D01*
X23168Y-11886D01*
X23168Y-11727D01*
X23168Y-11634D01*
X23132Y-11546D01*
X23065Y-11479D01*
X22977Y-11442D01*
X22881Y-11442D01*
X22759Y-11442D01*
X22699Y-11502D01*
X22699Y-11787D01*
X23109Y-11787D01*
X23168Y-11727D01*
X23168Y-11886D01*
X23109Y-11826D01*
X22699Y-11826D01*
X22699Y-11834D01*
X22659Y-11834D01*
X22659Y-11826D01*
X22659Y-11787D01*
X22659Y-11502D01*
X22600Y-11442D01*
X22477Y-11442D01*
X22381Y-11442D01*
X22293Y-11479D01*
X22226Y-11546D01*
X22190Y-11634D01*
X22190Y-11727D01*
X22250Y-11787D01*
X22659Y-11787D01*
X22659Y-11826D01*
X22250Y-11826D01*
X22190Y-11886D01*
X22190Y-11979D01*
X22226Y-12067D01*
X22265Y-12106D01*
X22194Y-12106D01*
X22165Y-12077D01*
X22050Y-12029D01*
X22009Y-12029D01*
X21791Y-11811D01*
X21791Y-11032D01*
X21820Y-11004D01*
X21867Y-10889D01*
X21867Y-10764D01*
X21820Y-10649D01*
X21732Y-10561D01*
X21617Y-10514D01*
X21493Y-10513D01*
X21474Y-10521D01*
X21474Y-10410D01*
X21426Y-10295D01*
X21338Y-10207D01*
X21223Y-10159D01*
X21099Y-10159D01*
X20984Y-10207D01*
X20919Y-10271D01*
X20919Y-10160D01*
X20919Y-10001D01*
X20919Y-9878D01*
X20919Y-9783D01*
X20883Y-9695D01*
X20815Y-9628D01*
X20727Y-9591D01*
X20634Y-9591D01*
X20574Y-9651D01*
X20574Y-10061D01*
X20859Y-10061D01*
X20919Y-10001D01*
X20919Y-10160D01*
X20859Y-10100D01*
X20574Y-10100D01*
X20574Y-10108D01*
X20535Y-10108D01*
X20535Y-10100D01*
X20527Y-10100D01*
X20527Y-10061D01*
X20535Y-10061D01*
X20535Y-9651D01*
X20475Y-9591D01*
X20382Y-9591D01*
X20294Y-9628D01*
X20227Y-9695D01*
X20225Y-9700D01*
X20207Y-9693D01*
X20152Y-9693D01*
X19902Y-9693D01*
X19852Y-9714D01*
X19813Y-9753D01*
X19805Y-9772D01*
X19796Y-9753D01*
X19758Y-9714D01*
X19707Y-9693D01*
X19652Y-9693D01*
X19402Y-9693D01*
X19352Y-9714D01*
X19313Y-9753D01*
X19305Y-9772D01*
X19296Y-9753D01*
X19258Y-9714D01*
X19253Y-9712D01*
X19320Y-9645D01*
X19367Y-9530D01*
X19367Y-9406D01*
X19320Y-9291D01*
X19232Y-9203D01*
X19117Y-9155D01*
X18993Y-9155D01*
X18878Y-9203D01*
X18790Y-9291D01*
X18742Y-9406D01*
X18742Y-9530D01*
X18789Y-9645D01*
X18856Y-9712D01*
X18852Y-9714D01*
X18813Y-9753D01*
X18805Y-9772D01*
X18796Y-9753D01*
X18758Y-9714D01*
X18707Y-9693D01*
X18652Y-9693D01*
X18402Y-9693D01*
X18352Y-9714D01*
X18313Y-9753D01*
X18305Y-9772D01*
X18296Y-9753D01*
X18258Y-9714D01*
X18207Y-9693D01*
X18152Y-9693D01*
X17902Y-9693D01*
X17852Y-9714D01*
X17813Y-9753D01*
X17805Y-9772D01*
X17796Y-9753D01*
X17758Y-9714D01*
X17707Y-9693D01*
X17652Y-9693D01*
X17402Y-9693D01*
X17352Y-9714D01*
X17313Y-9753D01*
X17292Y-9803D01*
X17292Y-9858D01*
X17292Y-10093D01*
X17029Y-10356D01*
X16906Y-10356D01*
X16791Y-10403D01*
X16703Y-10491D01*
X16655Y-10606D01*
X16655Y-10731D01*
X16703Y-10846D01*
X16791Y-10934D01*
X16906Y-10982D01*
X17030Y-10982D01*
X17145Y-10934D01*
X17233Y-10846D01*
X17281Y-10731D01*
X17281Y-10607D01*
X17280Y-10605D01*
X17417Y-10468D01*
X17457Y-10468D01*
X17707Y-10468D01*
X17758Y-10447D01*
X17796Y-10409D01*
X17805Y-10389D01*
X17812Y-10406D01*
X17805Y-10413D01*
X17758Y-10528D01*
X17758Y-10652D01*
X17758Y-10652D01*
X17355Y-11055D01*
X17316Y-11113D01*
X17303Y-11181D01*
X17316Y-11248D01*
X17355Y-11306D01*
X17403Y-11338D01*
X15647Y-11338D01*
X15647Y-10016D01*
X15599Y-9901D01*
X15512Y-9813D01*
X15397Y-9765D01*
X15272Y-9765D01*
X15157Y-9813D01*
X15069Y-9901D01*
X15069Y-9901D01*
X15058Y-9901D01*
X15058Y-7874D01*
X14998Y-7572D01*
X14827Y-7317D01*
X14572Y-7146D01*
X14270Y-7086D01*
X13878Y-7086D01*
X13681Y-7125D01*
X13681Y-6469D01*
X13600Y-6274D01*
X13451Y-6124D01*
X13255Y-6043D01*
X13044Y-6043D01*
X12848Y-6123D01*
X12699Y-6273D01*
X12657Y-6374D01*
X12616Y-6274D01*
X12466Y-6124D01*
X12271Y-6043D01*
X12060Y-6043D01*
X11864Y-6123D01*
X11715Y-6273D01*
X11673Y-6374D01*
X11631Y-6274D01*
X11482Y-6124D01*
X11287Y-6043D01*
X11075Y-6043D01*
X10880Y-6123D01*
X10730Y-6273D01*
X10688Y-6374D01*
X10647Y-6274D01*
X10498Y-6124D01*
X10303Y-6043D01*
X10091Y-6043D01*
X9896Y-6123D01*
X9746Y-6273D01*
X9665Y-6468D01*
X9665Y-6680D01*
X9746Y-6875D01*
X9895Y-7025D01*
X10090Y-7106D01*
X10302Y-7106D01*
X10497Y-7025D01*
X10647Y-6876D01*
X10688Y-6775D01*
X10730Y-6875D01*
X10879Y-7025D01*
X11074Y-7106D01*
X11286Y-7106D01*
X11481Y-7025D01*
X11631Y-6876D01*
X11673Y-6775D01*
X11714Y-6875D01*
X11863Y-7025D01*
X12059Y-7106D01*
X12270Y-7106D01*
X12466Y-7025D01*
X12615Y-6876D01*
X12657Y-6775D01*
X12698Y-6875D01*
X12848Y-7025D01*
X13043Y-7106D01*
X13254Y-7106D01*
X13450Y-7025D01*
X13599Y-6876D01*
X13681Y-6680D01*
X13681Y-6469D01*
X13681Y-7125D01*
X13577Y-7146D01*
X13321Y-7317D01*
X13151Y-7572D01*
X13091Y-7874D01*
X13151Y-8175D01*
X13321Y-8430D01*
X13577Y-8601D01*
X13878Y-8661D01*
X14270Y-8661D01*
X14572Y-8601D01*
X14827Y-8430D01*
X14998Y-8175D01*
X15058Y-7874D01*
X15058Y-9901D01*
X14600Y-9901D01*
X13924Y-9225D01*
X13867Y-9186D01*
X13799Y-9173D01*
X10255Y-9173D01*
X10255Y-7874D01*
X10195Y-7572D01*
X10024Y-7317D01*
X9769Y-7146D01*
X9467Y-7086D01*
X9075Y-7086D01*
X8774Y-7146D01*
X8518Y-7317D01*
X8348Y-7572D01*
X8288Y-7874D01*
X8348Y-8175D01*
X8518Y-8430D01*
X8774Y-8601D01*
X9075Y-8661D01*
X9467Y-8661D01*
X9769Y-8601D01*
X10024Y-8430D01*
X10195Y-8175D01*
X10255Y-7874D01*
X10255Y-9173D01*
X9339Y-9173D01*
X9252Y-9085D01*
X9137Y-9037D01*
X9012Y-9037D01*
X8897Y-9085D01*
X8809Y-9172D01*
X8762Y-9287D01*
X8761Y-9412D01*
X8809Y-9527D01*
X8897Y-9615D01*
X9012Y-9663D01*
X9136Y-9663D01*
X9251Y-9615D01*
X9339Y-9527D01*
X9339Y-9527D01*
X13725Y-9527D01*
X14402Y-10204D01*
X14459Y-10242D01*
X14459Y-10242D01*
X14527Y-10255D01*
X15069Y-10255D01*
X15157Y-10343D01*
X15272Y-10391D01*
X15396Y-10391D01*
X15511Y-10344D01*
X15599Y-10256D01*
X15647Y-10141D01*
X15647Y-10016D01*
X15647Y-11338D01*
X15599Y-11338D01*
X15531Y-11270D01*
X15416Y-11222D01*
X15292Y-11222D01*
X15177Y-11270D01*
X15089Y-11358D01*
X15041Y-11472D01*
X15041Y-11597D01*
X15080Y-11692D01*
X14438Y-11692D01*
X14409Y-11664D01*
X14294Y-11616D01*
X14170Y-11616D01*
X14055Y-11663D01*
X13967Y-11751D01*
X13919Y-11866D01*
X13919Y-11991D01*
X13966Y-12106D01*
X14054Y-12194D01*
X14169Y-12241D01*
X14294Y-12241D01*
X14409Y-12194D01*
X14438Y-12165D01*
X14774Y-12165D01*
X14715Y-12224D01*
X14667Y-12339D01*
X14667Y-12463D01*
X14706Y-12559D01*
X4881Y-12559D01*
X4881Y-4881D01*
X43937Y-4881D01*
X43937Y-10196D01*
X43937Y-10196D01*
G37*
G54D27*
X43937Y-10196D02*
X36352Y-10196D01*
X37867Y-8681D01*
X37913Y-8700D01*
X38070Y-8700D01*
X38214Y-8641D01*
X38325Y-8530D01*
X38385Y-8385D01*
X38385Y-8229D01*
X38385Y-6103D01*
X38326Y-5958D01*
X38215Y-5847D01*
X38070Y-5787D01*
X37914Y-5787D01*
X37769Y-5847D01*
X37658Y-5957D01*
X37598Y-6102D01*
X37598Y-6259D01*
X37658Y-6403D01*
X37768Y-6514D01*
X37913Y-6574D01*
X38070Y-6574D01*
X38214Y-6515D01*
X38325Y-6404D01*
X38385Y-6259D01*
X38385Y-6103D01*
X38385Y-8229D01*
X38326Y-8084D01*
X38215Y-7973D01*
X38070Y-7913D01*
X37914Y-7913D01*
X37769Y-7973D01*
X37658Y-8083D01*
X37598Y-8228D01*
X37598Y-8385D01*
X37617Y-8431D01*
X37503Y-8545D01*
X37503Y-8208D01*
X37427Y-8026D01*
X37427Y-8026D01*
X37401Y-8020D01*
X37401Y-6103D01*
X37341Y-5958D01*
X37231Y-5847D01*
X37086Y-5787D01*
X36929Y-5787D01*
X36785Y-5847D01*
X36674Y-5957D01*
X36614Y-6102D01*
X36614Y-6259D01*
X36673Y-6403D01*
X36784Y-6514D01*
X36929Y-6574D01*
X37085Y-6574D01*
X37230Y-6515D01*
X37341Y-6404D01*
X37401Y-6259D01*
X37401Y-6103D01*
X37401Y-8020D01*
X37336Y-8006D01*
X37308Y-8034D01*
X37308Y-7978D01*
X37288Y-7887D01*
X37106Y-7811D01*
X36909Y-7811D01*
X36727Y-7887D01*
X36727Y-7887D01*
X36707Y-7978D01*
X37007Y-8279D01*
X37308Y-7978D01*
X37308Y-8034D01*
X37035Y-8307D01*
X37336Y-8607D01*
X37427Y-8587D01*
X37503Y-8405D01*
X37503Y-8208D01*
X37503Y-8545D01*
X37308Y-8740D01*
X37308Y-8635D01*
X37007Y-8334D01*
X36980Y-8362D01*
X36980Y-8307D01*
X36679Y-8006D01*
X36588Y-8026D01*
X36512Y-8208D01*
X36512Y-8405D01*
X36587Y-8587D01*
X36588Y-8587D01*
X36679Y-8607D01*
X36980Y-8307D01*
X36980Y-8362D01*
X36707Y-8635D01*
X36727Y-8726D01*
X36909Y-8802D01*
X37106Y-8802D01*
X37288Y-8727D01*
X37288Y-8726D01*
X37308Y-8635D01*
X37308Y-8740D01*
X36417Y-9631D01*
X36417Y-8229D01*
X36417Y-6103D01*
X36357Y-5958D01*
X36246Y-5847D01*
X36102Y-5787D01*
X35945Y-5787D01*
X35800Y-5847D01*
X35690Y-5957D01*
X35629Y-6102D01*
X35629Y-6259D01*
X35689Y-6403D01*
X35800Y-6514D01*
X35944Y-6574D01*
X36101Y-6574D01*
X36246Y-6515D01*
X36357Y-6404D01*
X36417Y-6259D01*
X36417Y-6103D01*
X36417Y-8229D01*
X36357Y-8084D01*
X36246Y-7973D01*
X36102Y-7913D01*
X35945Y-7913D01*
X35800Y-7973D01*
X35690Y-8083D01*
X35629Y-8228D01*
X35629Y-8385D01*
X35689Y-8529D01*
X35800Y-8640D01*
X35944Y-8700D01*
X36101Y-8700D01*
X36246Y-8641D01*
X36357Y-8530D01*
X36417Y-8385D01*
X36417Y-8229D01*
X36417Y-9631D01*
X35851Y-10196D01*
X33818Y-10196D01*
X33818Y-11082D01*
X32883Y-11082D01*
X32883Y-8229D01*
X32883Y-6103D01*
X32824Y-5958D01*
X32713Y-5847D01*
X32568Y-5787D01*
X32412Y-5787D01*
X32267Y-5847D01*
X32156Y-5957D01*
X32096Y-6102D01*
X32096Y-6259D01*
X32156Y-6403D01*
X32266Y-6514D01*
X32411Y-6574D01*
X32568Y-6574D01*
X32712Y-6515D01*
X32823Y-6404D01*
X32883Y-6259D01*
X32883Y-6103D01*
X32883Y-8229D01*
X32824Y-8084D01*
X32713Y-7973D01*
X32568Y-7913D01*
X32412Y-7913D01*
X32267Y-7973D01*
X32156Y-8083D01*
X32096Y-8228D01*
X32096Y-8385D01*
X32156Y-8529D01*
X32266Y-8640D01*
X32411Y-8700D01*
X32568Y-8700D01*
X32712Y-8641D01*
X32823Y-8530D01*
X32883Y-8385D01*
X32883Y-8229D01*
X32883Y-11082D01*
X32871Y-11082D01*
X32871Y-9190D01*
X32824Y-9075D01*
X32736Y-8986D01*
X32621Y-8939D01*
X32497Y-8939D01*
X32382Y-8986D01*
X32352Y-9015D01*
X32001Y-9015D01*
X32001Y-8208D01*
X31925Y-8026D01*
X31925Y-8026D01*
X31899Y-8020D01*
X31899Y-6103D01*
X31839Y-5958D01*
X31729Y-5847D01*
X31584Y-5787D01*
X31427Y-5787D01*
X31283Y-5847D01*
X31172Y-5957D01*
X31112Y-6102D01*
X31112Y-6259D01*
X31171Y-6403D01*
X31282Y-6514D01*
X31427Y-6574D01*
X31583Y-6574D01*
X31728Y-6515D01*
X31839Y-6404D01*
X31899Y-6259D01*
X31899Y-6103D01*
X31899Y-8020D01*
X31834Y-8006D01*
X31806Y-8034D01*
X31806Y-7978D01*
X31786Y-7887D01*
X31604Y-7811D01*
X31407Y-7811D01*
X31225Y-7887D01*
X31225Y-7887D01*
X31205Y-7978D01*
X31505Y-8279D01*
X31806Y-7978D01*
X31806Y-8034D01*
X31533Y-8307D01*
X31834Y-8607D01*
X31925Y-8587D01*
X32001Y-8405D01*
X32001Y-8208D01*
X32001Y-9015D01*
X31806Y-9015D01*
X31806Y-8635D01*
X31505Y-8334D01*
X31478Y-8362D01*
X31478Y-8307D01*
X31177Y-8006D01*
X31086Y-8026D01*
X31010Y-8208D01*
X31010Y-8405D01*
X31085Y-8587D01*
X31086Y-8587D01*
X31177Y-8607D01*
X31478Y-8307D01*
X31478Y-8362D01*
X31205Y-8635D01*
X31225Y-8726D01*
X31407Y-8802D01*
X31604Y-8802D01*
X31786Y-8727D01*
X31786Y-8726D01*
X31806Y-8635D01*
X31806Y-9015D01*
X31466Y-9015D01*
X31437Y-8986D01*
X31322Y-8939D01*
X31197Y-8939D01*
X31082Y-8986D01*
X30994Y-9074D01*
X30947Y-9189D01*
X30946Y-9313D01*
X30994Y-9428D01*
X31082Y-9516D01*
X31197Y-9564D01*
X31321Y-9564D01*
X31436Y-9517D01*
X31465Y-9488D01*
X32352Y-9488D01*
X32381Y-9516D01*
X32496Y-9564D01*
X32621Y-9564D01*
X32736Y-9517D01*
X32824Y-9429D01*
X32871Y-9314D01*
X32871Y-9190D01*
X32871Y-11082D01*
X31761Y-11082D01*
X31673Y-10994D01*
X31558Y-10947D01*
X31434Y-10946D01*
X31319Y-10994D01*
X31231Y-11082D01*
X31183Y-11197D01*
X31183Y-11321D01*
X31230Y-11436D01*
X31318Y-11524D01*
X31433Y-11572D01*
X31558Y-11572D01*
X31673Y-11525D01*
X31761Y-11437D01*
X31761Y-11437D01*
X33818Y-11437D01*
X33818Y-11594D01*
X32351Y-11594D01*
X32264Y-11506D01*
X32149Y-11458D01*
X32024Y-11458D01*
X31909Y-11506D01*
X31821Y-11594D01*
X31773Y-11709D01*
X31773Y-11833D01*
X31821Y-11948D01*
X31909Y-12036D01*
X32024Y-12084D01*
X32148Y-12084D01*
X32263Y-12036D01*
X32351Y-11949D01*
X32351Y-11948D01*
X33818Y-11948D01*
X33818Y-13602D01*
X33327Y-14094D01*
X31977Y-14094D01*
X31949Y-14065D01*
X31834Y-14017D01*
X31709Y-14017D01*
X31594Y-14065D01*
X31524Y-14135D01*
X31521Y-14125D01*
X31483Y-14067D01*
X30915Y-13499D01*
X30915Y-8229D01*
X30915Y-6103D01*
X30855Y-5958D01*
X30744Y-5847D01*
X30600Y-5787D01*
X30443Y-5787D01*
X30298Y-5847D01*
X30188Y-5957D01*
X30128Y-6102D01*
X30127Y-6259D01*
X30187Y-6403D01*
X30298Y-6514D01*
X30442Y-6574D01*
X30599Y-6574D01*
X30744Y-6515D01*
X30855Y-6404D01*
X30915Y-6259D01*
X30915Y-6103D01*
X30915Y-8229D01*
X30855Y-8084D01*
X30744Y-7973D01*
X30600Y-7913D01*
X30443Y-7913D01*
X30298Y-7973D01*
X30188Y-8083D01*
X30128Y-8228D01*
X30127Y-8385D01*
X30187Y-8529D01*
X30298Y-8640D01*
X30442Y-8700D01*
X30599Y-8700D01*
X30744Y-8641D01*
X30855Y-8530D01*
X30915Y-8385D01*
X30915Y-8229D01*
X30915Y-13499D01*
X30903Y-13487D01*
X30903Y-13363D01*
X30855Y-13248D01*
X30767Y-13160D01*
X30653Y-13112D01*
X30528Y-13112D01*
X30413Y-13159D01*
X30325Y-13247D01*
X30277Y-13362D01*
X30277Y-13487D01*
X30325Y-13602D01*
X30413Y-13690D01*
X30528Y-13737D01*
X30652Y-13738D01*
X30652Y-13737D01*
X31181Y-14266D01*
X31181Y-16855D01*
X30654Y-17381D01*
X30304Y-17381D01*
X30216Y-17294D01*
X30211Y-17291D01*
X30211Y-17291D01*
X30243Y-17270D01*
X30440Y-17074D01*
X30478Y-17016D01*
X30478Y-17016D01*
X30492Y-16948D01*
X30492Y-16839D01*
X30579Y-16752D01*
X30627Y-16637D01*
X30627Y-16512D01*
X30580Y-16397D01*
X30492Y-16309D01*
X30377Y-16262D01*
X30253Y-16261D01*
X30138Y-16309D01*
X30049Y-16397D01*
X30002Y-16512D01*
X30002Y-16636D01*
X30049Y-16751D01*
X30137Y-16839D01*
X30137Y-16839D01*
X30137Y-16875D01*
X30044Y-16968D01*
X29744Y-16968D01*
X29676Y-16981D01*
X29618Y-17020D01*
X29461Y-17177D01*
X29422Y-17235D01*
X29409Y-17303D01*
X29409Y-19552D01*
X29407Y-19554D01*
X29407Y-9229D01*
X29359Y-9114D01*
X29271Y-9026D01*
X29156Y-8978D01*
X29032Y-8978D01*
X28917Y-9026D01*
X28829Y-9113D01*
X28781Y-9228D01*
X28781Y-9353D01*
X28829Y-9468D01*
X28917Y-9556D01*
X28917Y-9556D01*
X28917Y-13745D01*
X28614Y-14047D01*
X28576Y-14105D01*
X28562Y-14173D01*
X28562Y-16782D01*
X28475Y-16869D01*
X28427Y-16984D01*
X28427Y-17109D01*
X28474Y-17224D01*
X28562Y-17312D01*
X28677Y-17359D01*
X28802Y-17360D01*
X28917Y-17312D01*
X29005Y-17224D01*
X29052Y-17109D01*
X29053Y-16985D01*
X29005Y-16870D01*
X28917Y-16782D01*
X28917Y-16782D01*
X28917Y-14246D01*
X29219Y-13944D01*
X29258Y-13886D01*
X29271Y-13818D01*
X29271Y-9556D01*
X29359Y-9468D01*
X29407Y-9353D01*
X29407Y-9229D01*
X29407Y-19554D01*
X28843Y-20118D01*
X26923Y-20118D01*
X26665Y-19860D01*
X26695Y-19860D01*
X26810Y-19812D01*
X26898Y-19724D01*
X26946Y-19609D01*
X26946Y-19485D01*
X26899Y-19370D01*
X26811Y-19282D01*
X26811Y-19282D01*
X26811Y-18518D01*
X27219Y-18110D01*
X27589Y-18110D01*
X27676Y-18198D01*
X27791Y-18245D01*
X27916Y-18245D01*
X28031Y-18198D01*
X28119Y-18110D01*
X28167Y-17995D01*
X28167Y-17871D01*
X28119Y-17756D01*
X28031Y-17668D01*
X27916Y-17620D01*
X27911Y-17620D01*
X27911Y-11709D01*
X27863Y-11594D01*
X27832Y-11563D01*
X27832Y-10213D01*
X27785Y-10098D01*
X27697Y-10010D01*
X27582Y-9962D01*
X27457Y-9962D01*
X27457Y-9962D01*
X26515Y-9021D01*
X26515Y-7340D01*
X26622Y-7296D01*
X26735Y-7184D01*
X26753Y-7229D01*
X26903Y-7379D01*
X27098Y-7460D01*
X27309Y-7460D01*
X27505Y-7379D01*
X27655Y-7230D01*
X27736Y-7035D01*
X27736Y-6823D01*
X27655Y-6628D01*
X27506Y-6478D01*
X27310Y-6397D01*
X27099Y-6397D01*
X26904Y-6478D01*
X26754Y-6627D01*
X26735Y-6673D01*
X26623Y-6562D01*
X26464Y-6496D01*
X26292Y-6495D01*
X26132Y-6561D01*
X26051Y-6643D01*
X26044Y-6627D01*
X26042Y-6624D01*
X25947Y-6600D01*
X25919Y-6628D01*
X25919Y-6572D01*
X25894Y-6476D01*
X25698Y-6394D01*
X25485Y-6394D01*
X25289Y-6474D01*
X25286Y-6476D01*
X25261Y-6572D01*
X25590Y-6901D01*
X25919Y-6572D01*
X25919Y-6628D01*
X25618Y-6929D01*
X25947Y-7258D01*
X26042Y-7233D01*
X26050Y-7214D01*
X26132Y-7296D01*
X26161Y-7308D01*
X26161Y-9094D01*
X26174Y-9162D01*
X26213Y-9219D01*
X27206Y-10213D01*
X27206Y-10302D01*
X25919Y-9015D01*
X25919Y-7285D01*
X25590Y-6956D01*
X25261Y-7285D01*
X25286Y-7381D01*
X25482Y-7463D01*
X25695Y-7464D01*
X25891Y-7383D01*
X25894Y-7381D01*
X25919Y-7285D01*
X25919Y-9015D01*
X24980Y-8076D01*
X24980Y-7324D01*
X25048Y-7296D01*
X25129Y-7214D01*
X25136Y-7230D01*
X25138Y-7233D01*
X25233Y-7258D01*
X25562Y-6929D01*
X25233Y-6600D01*
X25138Y-6624D01*
X25130Y-6643D01*
X25048Y-6562D01*
X24889Y-6496D01*
X24717Y-6495D01*
X24558Y-6561D01*
X24445Y-6673D01*
X24427Y-6628D01*
X24277Y-6478D01*
X24082Y-6397D01*
X23871Y-6397D01*
X23675Y-6478D01*
X23526Y-6627D01*
X23444Y-6822D01*
X23444Y-7034D01*
X23525Y-7229D01*
X23674Y-7379D01*
X23870Y-7460D01*
X24081Y-7460D01*
X24277Y-7379D01*
X24426Y-7230D01*
X24445Y-7184D01*
X24557Y-7296D01*
X24625Y-7324D01*
X24625Y-8149D01*
X24639Y-8217D01*
X24677Y-8274D01*
X27128Y-10725D01*
X27128Y-10849D01*
X27175Y-10964D01*
X27263Y-11052D01*
X27378Y-11100D01*
X27502Y-11100D01*
X27617Y-11052D01*
X27705Y-10964D01*
X27753Y-10849D01*
X27753Y-10725D01*
X27706Y-10610D01*
X27654Y-10558D01*
X27696Y-10540D01*
X27784Y-10453D01*
X27832Y-10338D01*
X27832Y-10213D01*
X27832Y-11563D01*
X27775Y-11506D01*
X27660Y-11458D01*
X27536Y-11458D01*
X27421Y-11506D01*
X27384Y-11543D01*
X24495Y-8654D01*
X24437Y-8615D01*
X24370Y-8602D01*
X21170Y-8602D01*
X21209Y-8563D01*
X21257Y-8448D01*
X21257Y-8323D01*
X21210Y-8208D01*
X21122Y-8120D01*
X21122Y-8120D01*
X21122Y-7285D01*
X21223Y-7184D01*
X21242Y-7229D01*
X21391Y-7379D01*
X21586Y-7460D01*
X21798Y-7460D01*
X21993Y-7379D01*
X22143Y-7230D01*
X22224Y-7035D01*
X22224Y-6823D01*
X22143Y-6628D01*
X21994Y-6478D01*
X21799Y-6397D01*
X21587Y-6397D01*
X21392Y-6478D01*
X21242Y-6627D01*
X21223Y-6673D01*
X21111Y-6562D01*
X20952Y-6496D01*
X20780Y-6495D01*
X20621Y-6561D01*
X20539Y-6643D01*
X20532Y-6627D01*
X20531Y-6624D01*
X20435Y-6600D01*
X20407Y-6628D01*
X20407Y-6572D01*
X20383Y-6476D01*
X20186Y-6394D01*
X19974Y-6394D01*
X19777Y-6474D01*
X19774Y-6476D01*
X19749Y-6572D01*
X20078Y-6901D01*
X20407Y-6572D01*
X20407Y-6628D01*
X20106Y-6929D01*
X20435Y-7258D01*
X20531Y-7233D01*
X20538Y-7214D01*
X20620Y-7296D01*
X20767Y-7357D01*
X20767Y-8120D01*
X20679Y-8208D01*
X20632Y-8323D01*
X20632Y-8447D01*
X20679Y-8562D01*
X20719Y-8602D01*
X20407Y-8602D01*
X20407Y-7285D01*
X20078Y-6956D01*
X19749Y-7285D01*
X19774Y-7381D01*
X19970Y-7463D01*
X20183Y-7464D01*
X20380Y-7383D01*
X20383Y-7381D01*
X20407Y-7285D01*
X20407Y-8602D01*
X20191Y-8602D01*
X19468Y-7879D01*
X19468Y-7324D01*
X19536Y-7296D01*
X19618Y-7214D01*
X19624Y-7230D01*
X19626Y-7233D01*
X19721Y-7258D01*
X20050Y-6929D01*
X19721Y-6600D01*
X19626Y-6624D01*
X19618Y-6643D01*
X19536Y-6562D01*
X19377Y-6496D01*
X19205Y-6495D01*
X19046Y-6561D01*
X18934Y-6673D01*
X18915Y-6628D01*
X18766Y-6478D01*
X18570Y-6397D01*
X18359Y-6397D01*
X18163Y-6478D01*
X18014Y-6627D01*
X17933Y-6822D01*
X17932Y-7034D01*
X18013Y-7229D01*
X18163Y-7379D01*
X18358Y-7460D01*
X18569Y-7460D01*
X18765Y-7379D01*
X18914Y-7230D01*
X18934Y-7184D01*
X19045Y-7296D01*
X19114Y-7324D01*
X19114Y-7952D01*
X19127Y-8020D01*
X19166Y-8078D01*
X19992Y-8904D01*
X20050Y-8943D01*
X20118Y-8956D01*
X20758Y-8956D01*
X20679Y-9035D01*
X20632Y-9150D01*
X20632Y-9274D01*
X20679Y-9389D01*
X20767Y-9477D01*
X20882Y-9525D01*
X21006Y-9525D01*
X21007Y-9525D01*
X21961Y-10479D01*
X22018Y-10518D01*
X22086Y-10531D01*
X25320Y-10531D01*
X26374Y-11585D01*
X26279Y-11624D01*
X26191Y-11712D01*
X26143Y-11827D01*
X26143Y-11951D01*
X26191Y-12066D01*
X26267Y-12143D01*
X25928Y-12482D01*
X25804Y-12482D01*
X25689Y-12529D01*
X25601Y-12617D01*
X25553Y-12732D01*
X25553Y-12857D01*
X25600Y-12972D01*
X25688Y-13060D01*
X25803Y-13108D01*
X25928Y-13108D01*
X26043Y-13060D01*
X26131Y-12972D01*
X26178Y-12857D01*
X26178Y-12733D01*
X26178Y-12733D01*
X26581Y-12329D01*
X26620Y-12272D01*
X26633Y-12204D01*
X26633Y-12154D01*
X26721Y-12067D01*
X26761Y-11972D01*
X26970Y-12181D01*
X26970Y-12306D01*
X27018Y-12421D01*
X27106Y-12509D01*
X27220Y-12556D01*
X27345Y-12556D01*
X27460Y-12509D01*
X27548Y-12421D01*
X27596Y-12306D01*
X27596Y-12182D01*
X27555Y-12084D01*
X27660Y-12084D01*
X27775Y-12036D01*
X27863Y-11949D01*
X27911Y-11834D01*
X27911Y-11709D01*
X27911Y-17620D01*
X27792Y-17620D01*
X27677Y-17667D01*
X27589Y-17755D01*
X27589Y-17755D01*
X27145Y-17755D01*
X27077Y-17769D01*
X27020Y-17807D01*
X26508Y-18319D01*
X26470Y-18377D01*
X26456Y-18444D01*
X26456Y-19282D01*
X26368Y-19369D01*
X26321Y-19484D01*
X26321Y-19515D01*
X26122Y-19316D01*
X26122Y-18375D01*
X26209Y-18287D01*
X26257Y-18172D01*
X26257Y-18048D01*
X26210Y-17933D01*
X26122Y-17845D01*
X26007Y-17797D01*
X25882Y-17797D01*
X25767Y-17844D01*
X25679Y-17932D01*
X25632Y-18047D01*
X25632Y-18172D01*
X25679Y-18287D01*
X25767Y-18375D01*
X25767Y-18375D01*
X25767Y-19389D01*
X25781Y-19457D01*
X25819Y-19515D01*
X26129Y-19824D01*
X26099Y-19824D01*
X26099Y-19825D01*
X25610Y-19336D01*
X25610Y-17750D01*
X25626Y-17734D01*
X25750Y-17734D01*
X25865Y-17686D01*
X25953Y-17598D01*
X26001Y-17483D01*
X26001Y-17359D01*
X25954Y-17244D01*
X25866Y-17156D01*
X25751Y-17108D01*
X25732Y-17108D01*
X25754Y-17075D01*
X25754Y-17075D01*
X25767Y-17007D01*
X25767Y-14114D01*
X25754Y-14046D01*
X25754Y-14046D01*
X25715Y-13988D01*
X25420Y-13693D01*
X25363Y-13655D01*
X25295Y-13641D01*
X25261Y-13641D01*
X25246Y-13604D01*
X25207Y-13565D01*
X25187Y-13557D01*
X25207Y-13548D01*
X25246Y-13510D01*
X25257Y-13484D01*
X25399Y-13484D01*
X26931Y-15016D01*
X26931Y-15140D01*
X26978Y-15255D01*
X27066Y-15343D01*
X27181Y-15391D01*
X27306Y-15391D01*
X27421Y-15344D01*
X27509Y-15256D01*
X27556Y-15141D01*
X27556Y-15016D01*
X27509Y-14901D01*
X27421Y-14813D01*
X27306Y-14765D01*
X27182Y-14765D01*
X27181Y-14765D01*
X25597Y-13181D01*
X25540Y-13143D01*
X25472Y-13129D01*
X25257Y-13129D01*
X25246Y-13104D01*
X25207Y-13065D01*
X25187Y-13057D01*
X25207Y-13048D01*
X25246Y-13010D01*
X25267Y-12959D01*
X25267Y-12904D01*
X25267Y-12654D01*
X25246Y-12604D01*
X25207Y-12565D01*
X25187Y-12557D01*
X25207Y-12548D01*
X25246Y-12510D01*
X25267Y-12459D01*
X25267Y-12404D01*
X25267Y-12154D01*
X25246Y-12104D01*
X25207Y-12065D01*
X25187Y-12057D01*
X25207Y-12048D01*
X25246Y-12010D01*
X25254Y-11990D01*
X25285Y-12066D01*
X25373Y-12154D01*
X25488Y-12202D01*
X25613Y-12202D01*
X25728Y-12155D01*
X25816Y-12067D01*
X25863Y-11952D01*
X25864Y-11827D01*
X25816Y-11712D01*
X25728Y-11624D01*
X25613Y-11577D01*
X25489Y-11576D01*
X25374Y-11624D01*
X25368Y-11629D01*
X25257Y-11629D01*
X25246Y-11604D01*
X25207Y-11565D01*
X25156Y-11544D01*
X25102Y-11544D01*
X25059Y-11544D01*
X25146Y-11456D01*
X25194Y-11342D01*
X25194Y-11217D01*
X25147Y-11102D01*
X25059Y-11014D01*
X24944Y-10966D01*
X24819Y-10966D01*
X24704Y-11014D01*
X24616Y-11102D01*
X24569Y-11217D01*
X24569Y-11341D01*
X24616Y-11456D01*
X24704Y-11544D01*
X24602Y-11544D01*
X24551Y-11565D01*
X24512Y-11604D01*
X24491Y-11654D01*
X24491Y-11709D01*
X24491Y-11959D01*
X24512Y-12010D01*
X24551Y-12048D01*
X24571Y-12057D01*
X24551Y-12065D01*
X24516Y-12100D01*
X23363Y-10948D01*
X23364Y-10823D01*
X23316Y-10708D01*
X23228Y-10620D01*
X23113Y-10573D01*
X22989Y-10572D01*
X22874Y-10620D01*
X22786Y-10708D01*
X22738Y-10823D01*
X22738Y-10947D01*
X22785Y-11062D01*
X22873Y-11150D01*
X22988Y-11198D01*
X23113Y-11198D01*
X23113Y-11198D01*
X24323Y-12408D01*
X24381Y-12447D01*
X24381Y-12447D01*
X24448Y-12460D01*
X24492Y-12460D01*
X24512Y-12510D01*
X24551Y-12548D01*
X24571Y-12557D01*
X24551Y-12565D01*
X24537Y-12579D01*
X24488Y-12530D01*
X24373Y-12482D01*
X24249Y-12482D01*
X24134Y-12529D01*
X24046Y-12617D01*
X24001Y-12724D01*
X23997Y-12704D01*
X23946Y-12628D01*
X23434Y-12116D01*
X23358Y-12065D01*
X23267Y-12047D01*
X23140Y-12047D01*
X23168Y-11979D01*
X23168Y-11886D01*
X23168Y-11727D01*
X23168Y-11634D01*
X23132Y-11546D01*
X23065Y-11479D01*
X22977Y-11442D01*
X22881Y-11442D01*
X22759Y-11442D01*
X22699Y-11502D01*
X22699Y-11787D01*
X23109Y-11787D01*
X23168Y-11727D01*
X23168Y-11886D01*
X23109Y-11826D01*
X22699Y-11826D01*
X22699Y-11834D01*
X22659Y-11834D01*
X22659Y-11826D01*
X22659Y-11787D01*
X22659Y-11502D01*
X22600Y-11442D01*
X22477Y-11442D01*
X22381Y-11442D01*
X22293Y-11479D01*
X22226Y-11546D01*
X22190Y-11634D01*
X22190Y-11727D01*
X22250Y-11787D01*
X22659Y-11787D01*
X22659Y-11826D01*
X22250Y-11826D01*
X22190Y-11886D01*
X22190Y-11979D01*
X22226Y-12067D01*
X22265Y-12106D01*
X22194Y-12106D01*
X22165Y-12077D01*
X22050Y-12029D01*
X22009Y-12029D01*
X21791Y-11811D01*
X21791Y-11032D01*
X21820Y-11004D01*
X21867Y-10889D01*
X21867Y-10764D01*
X21820Y-10649D01*
X21732Y-10561D01*
X21617Y-10514D01*
X21493Y-10513D01*
X21474Y-10521D01*
X21474Y-10410D01*
X21426Y-10295D01*
X21338Y-10207D01*
X21223Y-10159D01*
X21099Y-10159D01*
X20984Y-10207D01*
X20919Y-10271D01*
X20919Y-10160D01*
X20919Y-10001D01*
X20919Y-9878D01*
X20919Y-9783D01*
X20883Y-9695D01*
X20815Y-9628D01*
X20727Y-9591D01*
X20634Y-9591D01*
X20574Y-9651D01*
X20574Y-10061D01*
X20859Y-10061D01*
X20919Y-10001D01*
X20919Y-10160D01*
X20859Y-10100D01*
X20574Y-10100D01*
X20574Y-10108D01*
X20535Y-10108D01*
X20535Y-10100D01*
X20527Y-10100D01*
X20527Y-10061D01*
X20535Y-10061D01*
X20535Y-9651D01*
X20475Y-9591D01*
X20382Y-9591D01*
X20294Y-9628D01*
X20227Y-9695D01*
X20225Y-9700D01*
X20207Y-9693D01*
X20152Y-9693D01*
X19902Y-9693D01*
X19852Y-9714D01*
X19813Y-9753D01*
X19805Y-9772D01*
X19796Y-9753D01*
X19758Y-9714D01*
X19707Y-9693D01*
X19652Y-9693D01*
X19402Y-9693D01*
X19352Y-9714D01*
X19313Y-9753D01*
X19305Y-9772D01*
X19296Y-9753D01*
X19258Y-9714D01*
X19253Y-9712D01*
X19320Y-9645D01*
X19367Y-9530D01*
X19367Y-9406D01*
X19320Y-9291D01*
X19232Y-9203D01*
X19117Y-9155D01*
X18993Y-9155D01*
X18878Y-9203D01*
X18790Y-9291D01*
X18742Y-9406D01*
X18742Y-9530D01*
X18789Y-9645D01*
X18856Y-9712D01*
X18852Y-9714D01*
X18813Y-9753D01*
X18805Y-9772D01*
X18796Y-9753D01*
X18758Y-9714D01*
X18707Y-9693D01*
X18652Y-9693D01*
X18402Y-9693D01*
X18352Y-9714D01*
X18313Y-9753D01*
X18305Y-9772D01*
X18296Y-9753D01*
X18258Y-9714D01*
X18207Y-9693D01*
X18152Y-9693D01*
X17902Y-9693D01*
X17852Y-9714D01*
X17813Y-9753D01*
X17805Y-9772D01*
X17796Y-9753D01*
X17758Y-9714D01*
X17707Y-9693D01*
X17652Y-9693D01*
X17402Y-9693D01*
X17352Y-9714D01*
X17313Y-9753D01*
X17292Y-9803D01*
X17292Y-9858D01*
X17292Y-10093D01*
X17029Y-10356D01*
X16906Y-10356D01*
X16791Y-10403D01*
X16703Y-10491D01*
X16655Y-10606D01*
X16655Y-10731D01*
X16703Y-10846D01*
X16791Y-10934D01*
X16906Y-10982D01*
X17030Y-10982D01*
X17145Y-10934D01*
X17233Y-10846D01*
X17281Y-10731D01*
X17281Y-10607D01*
X17280Y-10605D01*
X17417Y-10468D01*
X17457Y-10468D01*
X17707Y-10468D01*
X17758Y-10447D01*
X17796Y-10409D01*
X17805Y-10389D01*
X17812Y-10406D01*
X17805Y-10413D01*
X17758Y-10528D01*
X17758Y-10652D01*
X17758Y-10652D01*
X17355Y-11055D01*
X17316Y-11113D01*
X17303Y-11181D01*
X17316Y-11248D01*
X17355Y-11306D01*
X17403Y-11338D01*
X15647Y-11338D01*
X15647Y-10016D01*
X15599Y-9901D01*
X15512Y-9813D01*
X15397Y-9765D01*
X15272Y-9765D01*
X15157Y-9813D01*
X15069Y-9901D01*
X15069Y-9901D01*
X15058Y-9901D01*
X15058Y-7874D01*
X14998Y-7572D01*
X14827Y-7317D01*
X14572Y-7146D01*
X14270Y-7086D01*
X13878Y-7086D01*
X13681Y-7125D01*
X13681Y-6469D01*
X13600Y-6274D01*
X13451Y-6124D01*
X13255Y-6043D01*
X13044Y-6043D01*
X12848Y-6123D01*
X12699Y-6273D01*
X12657Y-6374D01*
X12616Y-6274D01*
X12466Y-6124D01*
X12271Y-6043D01*
X12060Y-6043D01*
X11864Y-6123D01*
X11715Y-6273D01*
X11673Y-6374D01*
X11631Y-6274D01*
X11482Y-6124D01*
X11287Y-6043D01*
X11075Y-6043D01*
X10880Y-6123D01*
X10730Y-6273D01*
X10688Y-6374D01*
X10647Y-6274D01*
X10498Y-6124D01*
X10303Y-6043D01*
X10091Y-6043D01*
X9896Y-6123D01*
X9746Y-6273D01*
X9665Y-6468D01*
X9665Y-6680D01*
X9746Y-6875D01*
X9895Y-7025D01*
X10090Y-7106D01*
X10302Y-7106D01*
X10497Y-7025D01*
X10647Y-6876D01*
X10688Y-6775D01*
X10730Y-6875D01*
X10879Y-7025D01*
X11074Y-7106D01*
X11286Y-7106D01*
X11481Y-7025D01*
X11631Y-6876D01*
X11673Y-6775D01*
X11714Y-6875D01*
X11863Y-7025D01*
X12059Y-7106D01*
X12270Y-7106D01*
X12466Y-7025D01*
X12615Y-6876D01*
X12657Y-6775D01*
X12698Y-6875D01*
X12848Y-7025D01*
X13043Y-7106D01*
X13254Y-7106D01*
X13450Y-7025D01*
X13599Y-6876D01*
X13681Y-6680D01*
X13681Y-6469D01*
X13681Y-7125D01*
X13577Y-7146D01*
X13321Y-7317D01*
X13151Y-7572D01*
X13091Y-7874D01*
X13151Y-8175D01*
X13321Y-8430D01*
X13577Y-8601D01*
X13878Y-8661D01*
X14270Y-8661D01*
X14572Y-8601D01*
X14827Y-8430D01*
X14998Y-8175D01*
X15058Y-7874D01*
X15058Y-9901D01*
X14600Y-9901D01*
X13924Y-9225D01*
X13867Y-9186D01*
X13799Y-9173D01*
X10255Y-9173D01*
X10255Y-7874D01*
X10195Y-7572D01*
X10024Y-7317D01*
X9769Y-7146D01*
X9467Y-7086D01*
X9075Y-7086D01*
X8774Y-7146D01*
X8518Y-7317D01*
X8348Y-7572D01*
X8288Y-7874D01*
X8348Y-8175D01*
X8518Y-8430D01*
X8774Y-8601D01*
X9075Y-8661D01*
X9467Y-8661D01*
X9769Y-8601D01*
X10024Y-8430D01*
X10195Y-8175D01*
X10255Y-7874D01*
X10255Y-9173D01*
X9339Y-9173D01*
X9252Y-9085D01*
X9137Y-9037D01*
X9012Y-9037D01*
X8897Y-9085D01*
X8809Y-9172D01*
X8762Y-9287D01*
X8761Y-9412D01*
X8809Y-9527D01*
X8897Y-9615D01*
X9012Y-9663D01*
X9136Y-9663D01*
X9251Y-9615D01*
X9339Y-9527D01*
X9339Y-9527D01*
X13725Y-9527D01*
X14402Y-10204D01*
X14459Y-10242D01*
X14459Y-10242D01*
X14527Y-10255D01*
X15069Y-10255D01*
X15157Y-10343D01*
X15272Y-10391D01*
X15396Y-10391D01*
X15511Y-10344D01*
X15599Y-10256D01*
X15647Y-10141D01*
X15647Y-10016D01*
X15647Y-11338D01*
X15599Y-11338D01*
X15531Y-11270D01*
X15416Y-11222D01*
X15292Y-11222D01*
X15177Y-11270D01*
X15089Y-11358D01*
X15041Y-11472D01*
X15041Y-11597D01*
X15080Y-11692D01*
X14438Y-11692D01*
X14409Y-11664D01*
X14294Y-11616D01*
X14170Y-11616D01*
X14055Y-11663D01*
X13967Y-11751D01*
X13919Y-11866D01*
X13919Y-11991D01*
X13966Y-12106D01*
X14054Y-12194D01*
X14169Y-12241D01*
X14294Y-12241D01*
X14409Y-12194D01*
X14438Y-12165D01*
X14774Y-12165D01*
X14715Y-12224D01*
X14667Y-12339D01*
X14667Y-12463D01*
X14706Y-12559D01*
X4881Y-12559D01*
X4881Y-4881D01*
X43937Y-4881D01*
X43937Y-10196D01*
M02*
