G04 (created by PCBNEW (2013-mar-13)-testing) date Tue 15 Oct 2013 19:00:41 BST*
%MOIN*%
G04 Gerber Fmt 3.4, Leading zero omitted, Abs format*
%FSLAX34Y34*%
G01*
G70*
G90*
G04 APERTURE LIST*
%ADD10C,0.005906*%
%ADD11R,0.011800X0.025600*%
%ADD12R,0.050000X0.025000*%
%ADD13R,0.025000X0.050000*%
%ADD14R,0.055000X0.035000*%
%ADD15R,0.035000X0.055000*%
%ADD16R,0.027600X0.063000*%
%ADD17R,0.027600X0.082700*%
%ADD18R,0.078700X0.108300*%
%ADD19R,0.078740X0.118110*%
%ADD20R,0.055100X0.086600*%
%ADD21R,0.055100X0.035400*%
G04 APERTURE END LIST*
G54D10*
G54D11*
X23917Y-22212D03*
X23720Y-22212D03*
X23523Y-22212D03*
X23326Y-22212D03*
X23326Y-22665D03*
X23523Y-22665D03*
X23720Y-22665D03*
X23917Y-22665D03*
X23129Y-9220D03*
X22932Y-9220D03*
X22735Y-9220D03*
X22538Y-9220D03*
X22538Y-9673D03*
X22735Y-9673D03*
X22932Y-9673D03*
X23129Y-9673D03*
X35098Y-9457D03*
X34901Y-9457D03*
X34704Y-9457D03*
X34507Y-9457D03*
X34507Y-9910D03*
X34704Y-9910D03*
X34901Y-9910D03*
X35098Y-9910D03*
G54D12*
X10942Y-12167D03*
X10942Y-11667D03*
X10942Y-11167D03*
X10942Y-10667D03*
X8742Y-10667D03*
X8742Y-11167D03*
X8742Y-11667D03*
X8742Y-12167D03*
X30627Y-12773D03*
X30627Y-12273D03*
X30627Y-11773D03*
X30627Y-11273D03*
X30627Y-10773D03*
X30627Y-10273D03*
X30627Y-9773D03*
X30627Y-9273D03*
X28427Y-9273D03*
X28427Y-9773D03*
X28427Y-10273D03*
X28427Y-10773D03*
X28427Y-11273D03*
X28427Y-11773D03*
X28427Y-12273D03*
X28427Y-12773D03*
X29446Y-19072D03*
X29446Y-18572D03*
X29446Y-18072D03*
X29446Y-17572D03*
X29446Y-17072D03*
X29446Y-16572D03*
X29446Y-16072D03*
X29446Y-15572D03*
X27246Y-15572D03*
X27246Y-16072D03*
X27246Y-16572D03*
X27246Y-17072D03*
X27246Y-17572D03*
X27246Y-18072D03*
X27246Y-18572D03*
X27246Y-19072D03*
X34958Y-17104D03*
X34958Y-16604D03*
X34958Y-16104D03*
X34958Y-15604D03*
X34958Y-15104D03*
X34958Y-14604D03*
X34958Y-14104D03*
X34958Y-13604D03*
X32758Y-13604D03*
X32758Y-14104D03*
X32758Y-14604D03*
X32758Y-15104D03*
X32758Y-15604D03*
X32758Y-16104D03*
X32758Y-16604D03*
X32758Y-17104D03*
X14096Y-13210D03*
X14096Y-13710D03*
X14096Y-14210D03*
X14096Y-14710D03*
X14096Y-15210D03*
X14096Y-15710D03*
X14096Y-16210D03*
X14096Y-16710D03*
X16296Y-16710D03*
X16296Y-16210D03*
X16296Y-15710D03*
X16296Y-15210D03*
X16296Y-14710D03*
X16296Y-14210D03*
X16296Y-13710D03*
X16296Y-13210D03*
G54D13*
X23153Y-16616D03*
X22653Y-16616D03*
X22153Y-16616D03*
X21653Y-16616D03*
X21153Y-16616D03*
X20653Y-16616D03*
X20153Y-16616D03*
X20153Y-18816D03*
X20653Y-18816D03*
X21153Y-18816D03*
X21653Y-18816D03*
X22153Y-18816D03*
X22653Y-18816D03*
X23153Y-18816D03*
G54D14*
X36771Y-13327D03*
X36771Y-12577D03*
G54D15*
X40099Y-15196D03*
X39349Y-15196D03*
X7067Y-12204D03*
X6317Y-12204D03*
G54D14*
X13385Y-12225D03*
X13385Y-11475D03*
G54D16*
X40944Y-16614D03*
G54D17*
X41535Y-16516D03*
G54D16*
X42126Y-16614D03*
G54D18*
X41535Y-15571D03*
G54D19*
X41889Y-9409D03*
X41889Y-13740D03*
X39527Y-13740D03*
X39527Y-9409D03*
G54D20*
X43267Y-15590D03*
G54D21*
X43267Y-14586D03*
M02*
