G04 (created by PCBNEW (2013-mar-13)-testing) date Tue 15 Oct 2013 18:56:25 BST*
%MOIN*%
G04 Gerber Fmt 3.4, Leading zero omitted, Abs format*
%FSLAX34Y34*%
G01*
G70*
G90*
G04 APERTURE LIST*
%ADD10C,0.005906*%
%ADD11C,0.011811*%
%ADD12C,0.236220*%
%ADD13C,0.059055*%
%ADD14C,0.143700*%
%ADD15C,0.059100*%
%ADD16C,0.086614*%
%ADD17R,0.060000X0.060000*%
%ADD18C,0.060000*%
%ADD19C,0.031496*%
%ADD20C,0.025591*%
%ADD21C,0.019685*%
%ADD22C,0.007874*%
G04 APERTURE END LIST*
G54D10*
G54D11*
X45658Y-6709D02*
X45742Y-6737D01*
X45770Y-6766D01*
X45798Y-6822D01*
X45798Y-6906D01*
X45770Y-6962D01*
X45742Y-6991D01*
X45686Y-7019D01*
X45461Y-7019D01*
X45461Y-6428D01*
X45658Y-6428D01*
X45714Y-6456D01*
X45742Y-6484D01*
X45770Y-6541D01*
X45770Y-6597D01*
X45742Y-6653D01*
X45714Y-6681D01*
X45658Y-6709D01*
X45461Y-6709D01*
X46051Y-6962D02*
X46079Y-6991D01*
X46051Y-7019D01*
X46023Y-6991D01*
X46051Y-6962D01*
X46051Y-7019D01*
X46670Y-6962D02*
X46642Y-6991D01*
X46557Y-7019D01*
X46501Y-7019D01*
X46417Y-6991D01*
X46361Y-6934D01*
X46332Y-6878D01*
X46304Y-6766D01*
X46304Y-6681D01*
X46332Y-6569D01*
X46361Y-6512D01*
X46417Y-6456D01*
X46501Y-6428D01*
X46557Y-6428D01*
X46642Y-6456D01*
X46670Y-6484D01*
X47176Y-6625D02*
X47176Y-7019D01*
X46923Y-6625D02*
X46923Y-6934D01*
X46951Y-6991D01*
X47007Y-7019D01*
X47092Y-7019D01*
X47148Y-6991D01*
X47176Y-6962D01*
G54D12*
X6692Y-53937D03*
X42125Y-53937D03*
X42125Y-42125D03*
X6692Y-42125D03*
X6692Y-6692D03*
X42125Y-6692D03*
G54D13*
X39370Y-7192D03*
X39370Y-6192D03*
X37401Y-7192D03*
X37401Y-6192D03*
X35433Y-7192D03*
X35433Y-6192D03*
X33464Y-7192D03*
X33464Y-6192D03*
X15354Y-7192D03*
X15354Y-6192D03*
X13385Y-7192D03*
X13385Y-6192D03*
X11417Y-7192D03*
X11417Y-6192D03*
X9448Y-7192D03*
X9448Y-6192D03*
X36102Y-53437D03*
X36102Y-54437D03*
G54D14*
X41988Y-10098D03*
X41988Y-15098D03*
G54D15*
X40988Y-11192D03*
X40287Y-11594D03*
X40988Y-11996D03*
X40287Y-12397D03*
X40988Y-12799D03*
X40287Y-13200D03*
X40988Y-13602D03*
X40287Y-14003D03*
G54D16*
X40637Y-9397D03*
X40637Y-15799D03*
G54D14*
X41988Y-17972D03*
X41988Y-22972D03*
G54D15*
X40988Y-19066D03*
X40287Y-19468D03*
X40988Y-19870D03*
X40287Y-20271D03*
X40988Y-20673D03*
X40287Y-21074D03*
X40988Y-21476D03*
X40287Y-21877D03*
G54D16*
X40637Y-17271D03*
X40637Y-23673D03*
G54D14*
X41988Y-25846D03*
X41988Y-30846D03*
G54D15*
X40988Y-26940D03*
X40287Y-27342D03*
X40988Y-27744D03*
X40287Y-28145D03*
X40988Y-28547D03*
X40287Y-28948D03*
X40988Y-29350D03*
X40287Y-29751D03*
G54D16*
X40637Y-25145D03*
X40637Y-31547D03*
G54D14*
X41988Y-33720D03*
X41988Y-38720D03*
G54D15*
X40988Y-34814D03*
X40287Y-35216D03*
X40988Y-35618D03*
X40287Y-36019D03*
X40988Y-36421D03*
X40287Y-36822D03*
X40988Y-37224D03*
X40287Y-37625D03*
G54D16*
X40637Y-33019D03*
X40637Y-39421D03*
G54D14*
X41988Y-45531D03*
X41988Y-50531D03*
G54D15*
X40988Y-46625D03*
X40287Y-47027D03*
X40988Y-47429D03*
X40287Y-47830D03*
X40988Y-48232D03*
X40287Y-48633D03*
X40988Y-49035D03*
X40287Y-49437D03*
G54D16*
X40637Y-44830D03*
X40637Y-51232D03*
G54D14*
X6830Y-32814D03*
X6830Y-27814D03*
G54D15*
X7830Y-31720D03*
X8531Y-31318D03*
X7830Y-30917D03*
X8531Y-30515D03*
X7830Y-30114D03*
X8531Y-29712D03*
X7830Y-29311D03*
X8531Y-28909D03*
G54D16*
X8181Y-33515D03*
X8181Y-27114D03*
G54D14*
X30846Y-53799D03*
X25846Y-53799D03*
G54D15*
X29751Y-52799D03*
X29350Y-52098D03*
X28948Y-52799D03*
X28547Y-52098D03*
X28145Y-52799D03*
X27744Y-52098D03*
X27342Y-52799D03*
X26940Y-52098D03*
G54D16*
X31547Y-52448D03*
X25145Y-52448D03*
G54D14*
X22972Y-53799D03*
X17972Y-53799D03*
G54D15*
X21877Y-52799D03*
X21476Y-52098D03*
X21074Y-52799D03*
X20673Y-52098D03*
X20271Y-52799D03*
X19870Y-52098D03*
X19468Y-52799D03*
X19066Y-52098D03*
G54D16*
X23673Y-52448D03*
X17271Y-52448D03*
G54D14*
X25846Y-6830D03*
X30846Y-6830D03*
G54D15*
X26940Y-7830D03*
X27342Y-8531D03*
X27744Y-7830D03*
X28145Y-8531D03*
X28547Y-7830D03*
X28948Y-8531D03*
X29350Y-7830D03*
X29751Y-8531D03*
G54D16*
X25145Y-8181D03*
X31547Y-8181D03*
G54D14*
X17972Y-6830D03*
X22972Y-6830D03*
G54D15*
X19066Y-7830D03*
X19468Y-8531D03*
X19870Y-7830D03*
X20271Y-8531D03*
X20673Y-7830D03*
X21074Y-8531D03*
X21476Y-7830D03*
X21877Y-8531D03*
G54D16*
X17271Y-8181D03*
X23673Y-8181D03*
G54D17*
X32468Y-42391D03*
G54D18*
X31468Y-42391D03*
G54D17*
X20875Y-24956D03*
G54D18*
X20875Y-23956D03*
X20875Y-22956D03*
G54D19*
X12952Y-43937D03*
X13385Y-43503D03*
X12519Y-43503D03*
G54D20*
X38456Y-32625D03*
X36279Y-21328D03*
X36279Y-20767D03*
X29968Y-26956D03*
X29980Y-17539D03*
X36535Y-12175D03*
X25110Y-19830D03*
X25098Y-26488D03*
X36151Y-12224D03*
X30614Y-27464D03*
X30622Y-18326D03*
X31129Y-18598D03*
X31129Y-20220D03*
X35767Y-12234D03*
X37988Y-32358D03*
X37539Y-26334D03*
X37539Y-26696D03*
X37535Y-27070D03*
X35047Y-22732D03*
X35661Y-22338D03*
X33622Y-47834D03*
X15748Y-31417D03*
X20433Y-40275D03*
X12637Y-31811D03*
X26791Y-21958D03*
X15688Y-17244D03*
X26781Y-21456D03*
X15590Y-16250D03*
X15738Y-15246D03*
X26761Y-20925D03*
X15728Y-14261D03*
X21299Y-15019D03*
X25590Y-39173D03*
X25275Y-38149D03*
X25000Y-37165D03*
X24645Y-36141D03*
X24291Y-35157D03*
X23937Y-36181D03*
X23582Y-37165D03*
X23228Y-38149D03*
X35433Y-10078D03*
X21102Y-17696D03*
X22696Y-17716D03*
X35157Y-11053D03*
X35157Y-9881D03*
X22657Y-16781D03*
X21062Y-16781D03*
X34842Y-9724D03*
X21102Y-15748D03*
X22598Y-15748D03*
X34842Y-10738D03*
X34527Y-9566D03*
X34527Y-11417D03*
X13228Y-9724D03*
X14488Y-14763D03*
X12913Y-10000D03*
X14488Y-15748D03*
X12637Y-10275D03*
X14488Y-16732D03*
X12322Y-10433D03*
X14488Y-17755D03*
X33287Y-39350D03*
X34045Y-39350D03*
X28346Y-37401D03*
X9724Y-28503D03*
X20206Y-19212D03*
X15551Y-18257D03*
X31929Y-37401D03*
G54D19*
X21732Y-35236D03*
X19124Y-34625D03*
X30787Y-39763D03*
X31417Y-36417D03*
X36338Y-48188D03*
X32992Y-35118D03*
X29251Y-42007D03*
X28937Y-42322D03*
X29251Y-42637D03*
X28622Y-42007D03*
X28622Y-42637D03*
X29881Y-37755D03*
X29881Y-35118D03*
G54D21*
X19066Y-7830D02*
X19066Y-7822D01*
X20125Y-7283D02*
X20673Y-7830D01*
X19606Y-7283D02*
X20125Y-7283D01*
X19066Y-7822D02*
X19606Y-7283D01*
X7830Y-30114D02*
X7263Y-29547D01*
X17921Y-8976D02*
X19066Y-7830D01*
X11318Y-8976D02*
X17921Y-8976D01*
X9035Y-11259D02*
X11318Y-8976D01*
X9035Y-27244D02*
X9035Y-11259D01*
X7263Y-29015D02*
X9035Y-27244D01*
X7263Y-29547D02*
X7263Y-29015D01*
X7830Y-31720D02*
X7822Y-31720D01*
X7283Y-30661D02*
X7830Y-30114D01*
X7283Y-31181D02*
X7283Y-30661D01*
X7822Y-31720D02*
X7283Y-31181D01*
X12519Y-43503D02*
X10708Y-43503D01*
X9133Y-33023D02*
X7830Y-31720D01*
X9133Y-41929D02*
X9133Y-33023D01*
X10708Y-43503D02*
X9133Y-41929D01*
X20271Y-52799D02*
X19724Y-53346D01*
X12519Y-46732D02*
X12519Y-43503D01*
X19133Y-53346D02*
X12519Y-46732D01*
X19724Y-53346D02*
X19133Y-53346D01*
X21877Y-52799D02*
X21877Y-52807D01*
X20818Y-53346D02*
X20271Y-52799D01*
X21338Y-53346D02*
X20818Y-53346D01*
X21877Y-52807D02*
X21338Y-53346D01*
X28145Y-52799D02*
X27559Y-53385D01*
X22866Y-51811D02*
X21877Y-52799D01*
X25413Y-51811D02*
X22866Y-51811D01*
X26988Y-53385D02*
X25413Y-51811D01*
X27559Y-53385D02*
X26988Y-53385D01*
X29751Y-52799D02*
X29751Y-53023D01*
X28692Y-53346D02*
X28145Y-52799D01*
X29429Y-53346D02*
X28692Y-53346D01*
X29751Y-53023D02*
X29429Y-53346D01*
X40988Y-48232D02*
X41555Y-48799D01*
X30740Y-51811D02*
X29751Y-52799D01*
X39074Y-51811D02*
X30740Y-51811D01*
X41555Y-49330D02*
X39074Y-51811D01*
X41555Y-48799D02*
X41555Y-49330D01*
X40988Y-46625D02*
X40996Y-46625D01*
X41535Y-47685D02*
X40988Y-48232D01*
X41535Y-47165D02*
X41535Y-47685D01*
X40996Y-46625D02*
X41535Y-47165D01*
X40988Y-36421D02*
X41574Y-37007D01*
X40000Y-45637D02*
X40988Y-46625D01*
X40000Y-39074D02*
X40000Y-45637D01*
X41574Y-37500D02*
X40000Y-39074D01*
X41574Y-37007D02*
X41574Y-37500D01*
X40988Y-34814D02*
X40988Y-34826D01*
X41535Y-35874D02*
X40988Y-36421D01*
X41535Y-35374D02*
X41535Y-35874D01*
X40988Y-34826D02*
X41535Y-35374D01*
X40988Y-28547D02*
X41614Y-29173D01*
X40000Y-33826D02*
X40988Y-34814D01*
X40000Y-31240D02*
X40000Y-33826D01*
X41614Y-29625D02*
X40000Y-31240D01*
X41614Y-29173D02*
X41614Y-29625D01*
X40988Y-26940D02*
X40996Y-26940D01*
X41535Y-28000D02*
X40988Y-28547D01*
X41535Y-27480D02*
X41535Y-28000D01*
X40996Y-26940D02*
X41535Y-27480D01*
X40988Y-20673D02*
X41555Y-21240D01*
X40000Y-25952D02*
X40988Y-26940D01*
X40000Y-23385D02*
X40000Y-25952D01*
X41555Y-21830D02*
X40000Y-23385D01*
X41555Y-21240D02*
X41555Y-21830D01*
X40988Y-19066D02*
X40996Y-19066D01*
X41535Y-20125D02*
X40988Y-20673D01*
X41535Y-19606D02*
X41535Y-20125D01*
X40996Y-19066D02*
X41535Y-19606D01*
X40988Y-12799D02*
X41007Y-12799D01*
X40000Y-18078D02*
X40988Y-19066D01*
X40000Y-15433D02*
X40000Y-18078D01*
X41555Y-13877D02*
X40000Y-15433D01*
X41555Y-13346D02*
X41555Y-13877D01*
X41007Y-12799D02*
X41555Y-13346D01*
X40988Y-11192D02*
X40996Y-11192D01*
X40996Y-11192D02*
X41555Y-11751D01*
X41555Y-11751D02*
X41555Y-12232D01*
X41555Y-12232D02*
X40988Y-12799D01*
X28547Y-7830D02*
X28547Y-7791D01*
X38712Y-8897D02*
X41007Y-11192D01*
X31220Y-8897D02*
X38712Y-8897D01*
X29606Y-7283D02*
X31220Y-8897D01*
X29055Y-7283D02*
X29606Y-7283D01*
X28547Y-7791D02*
X29055Y-7283D01*
X28547Y-7830D02*
X28547Y-7759D01*
X27527Y-7244D02*
X26940Y-7830D01*
X28031Y-7244D02*
X27527Y-7244D01*
X28547Y-7759D02*
X28031Y-7244D01*
X20673Y-7830D02*
X20673Y-7811D01*
X20673Y-7811D02*
X21161Y-7322D01*
X21161Y-7322D02*
X21763Y-7322D01*
X21763Y-7322D02*
X23255Y-8814D01*
X23255Y-8814D02*
X25956Y-8814D01*
X25956Y-8814D02*
X26940Y-7830D01*
X41007Y-11192D02*
X40996Y-11192D01*
G54D22*
X40287Y-36019D02*
X38460Y-34192D01*
X38460Y-32629D02*
X38460Y-34192D01*
X38460Y-32629D02*
X38456Y-32625D01*
X36279Y-20767D02*
X36279Y-21328D01*
X29968Y-17551D02*
X29968Y-26956D01*
X29980Y-17539D02*
X29968Y-17551D01*
X40287Y-12397D02*
X36757Y-12397D01*
X36757Y-12397D02*
X36535Y-12175D01*
X25110Y-26476D02*
X25110Y-19830D01*
X25098Y-26488D02*
X25110Y-26476D01*
X40287Y-13200D02*
X37127Y-13200D01*
X37127Y-13200D02*
X36151Y-12224D01*
X30614Y-18334D02*
X30614Y-27464D01*
X30622Y-18326D02*
X30614Y-18334D01*
X31129Y-20220D02*
X31129Y-18598D01*
X40165Y-14003D02*
X39625Y-13464D01*
X39625Y-13464D02*
X36998Y-13464D01*
X36998Y-13464D02*
X35767Y-12234D01*
X40287Y-14003D02*
X40165Y-14003D01*
X39811Y-36822D02*
X40287Y-36822D01*
X37988Y-35000D02*
X39811Y-36822D01*
X37988Y-32358D02*
X37988Y-35000D01*
X40287Y-28145D02*
X40212Y-28145D01*
X38401Y-26334D02*
X37539Y-26334D01*
X40212Y-28145D02*
X38401Y-26334D01*
X38051Y-26712D02*
X40287Y-28948D01*
X37555Y-26712D02*
X38051Y-26712D01*
X37539Y-26696D02*
X37555Y-26712D01*
X40287Y-29751D02*
X40224Y-29751D01*
X37960Y-27070D02*
X37535Y-27070D01*
X39669Y-28779D02*
X37960Y-27070D01*
X39669Y-29196D02*
X39669Y-28779D01*
X40224Y-29751D02*
X39669Y-29196D01*
X40287Y-19468D02*
X36933Y-19468D01*
X35059Y-21342D02*
X36933Y-19468D01*
X35059Y-22720D02*
X35059Y-21342D01*
X35059Y-22720D02*
X35047Y-22732D01*
X37728Y-20271D02*
X40287Y-20271D01*
X35661Y-22338D02*
X37728Y-20271D01*
X31299Y-47834D02*
X33622Y-47834D01*
X26889Y-43425D02*
X26889Y-34685D01*
X31299Y-47834D02*
X26889Y-43425D01*
X8511Y-30515D02*
X9137Y-30515D01*
X23346Y-31141D02*
X26889Y-34685D01*
X9137Y-30515D02*
X9763Y-31141D01*
X9763Y-31141D02*
X23346Y-31141D01*
X40307Y-49437D02*
X32665Y-49437D01*
X26692Y-43464D02*
X26692Y-34803D01*
X32665Y-49437D02*
X26692Y-43464D01*
X23307Y-31417D02*
X15748Y-31417D01*
X26692Y-34803D02*
X23307Y-31417D01*
X20433Y-36496D02*
X15255Y-31318D01*
X20433Y-40275D02*
X20433Y-36496D01*
X13129Y-31318D02*
X15255Y-31318D01*
X12637Y-31811D02*
X13129Y-31318D01*
X19360Y-17244D02*
X15688Y-17244D01*
X26791Y-21958D02*
X26318Y-21958D01*
X21584Y-19468D02*
X19360Y-17244D01*
X25177Y-19468D02*
X21584Y-19468D01*
X25472Y-19763D02*
X25177Y-19468D01*
X25472Y-21112D02*
X25472Y-19763D01*
X26318Y-21958D02*
X25472Y-21112D01*
X19370Y-16771D02*
X16112Y-16771D01*
X26781Y-21456D02*
X26259Y-21456D01*
X21771Y-19173D02*
X19370Y-16771D01*
X25275Y-19173D02*
X21771Y-19173D01*
X25728Y-19625D02*
X25275Y-19173D01*
X25728Y-20925D02*
X25728Y-19625D01*
X26259Y-21456D02*
X25728Y-20925D01*
X16112Y-16771D02*
X15590Y-16250D01*
X18246Y-15255D02*
X15748Y-15255D01*
X24694Y-18868D02*
X21858Y-18868D01*
X18246Y-15255D02*
X21858Y-18868D01*
X15748Y-15255D02*
X15738Y-15246D01*
X24694Y-18868D02*
X25561Y-18868D01*
X26761Y-20068D02*
X26761Y-20925D01*
X25561Y-18868D02*
X26761Y-20068D01*
X16161Y-14261D02*
X15728Y-14261D01*
X16919Y-15019D02*
X16161Y-14261D01*
X21299Y-15019D02*
X16919Y-15019D01*
X29350Y-51003D02*
X29350Y-52118D01*
X25590Y-47244D02*
X29350Y-51003D01*
X25590Y-39173D02*
X25590Y-47244D01*
X28547Y-50633D02*
X28547Y-52118D01*
X25275Y-47362D02*
X28547Y-50633D01*
X25275Y-38149D02*
X25275Y-47362D01*
X27744Y-50421D02*
X27744Y-52118D01*
X24960Y-47637D02*
X27744Y-50421D01*
X24960Y-37204D02*
X24960Y-47637D01*
X25000Y-37165D02*
X24960Y-37204D01*
X26940Y-50090D02*
X26940Y-52118D01*
X24645Y-47795D02*
X26940Y-50090D01*
X24645Y-36141D02*
X24645Y-47795D01*
X21476Y-50374D02*
X21476Y-52118D01*
X24291Y-47559D02*
X21476Y-50374D01*
X24291Y-35157D02*
X24291Y-47559D01*
X20673Y-50704D02*
X20673Y-52118D01*
X23937Y-47440D02*
X20673Y-50704D01*
X23937Y-36181D02*
X23937Y-47440D01*
X19870Y-51074D02*
X19870Y-52118D01*
X23582Y-47362D02*
X19870Y-51074D01*
X23582Y-37165D02*
X23582Y-47362D01*
X19066Y-51405D02*
X19066Y-52118D01*
X23228Y-47244D02*
X19066Y-51405D01*
X23228Y-38149D02*
X23228Y-47244D01*
X21102Y-17696D02*
X21122Y-17716D01*
X21122Y-17716D02*
X22696Y-17716D01*
X35157Y-11053D02*
X35157Y-9881D01*
X21062Y-16781D02*
X22657Y-16781D01*
X34842Y-9724D02*
X34842Y-10738D01*
X21102Y-15748D02*
X22598Y-15748D01*
X34527Y-11417D02*
X34527Y-9566D01*
X13228Y-9724D02*
X13228Y-13503D01*
X13228Y-13503D02*
X14488Y-14763D01*
X12913Y-10000D02*
X12913Y-14173D01*
X12913Y-14173D02*
X14488Y-15748D01*
X12637Y-10275D02*
X12637Y-14881D01*
X12637Y-14881D02*
X14488Y-16732D01*
X12322Y-10433D02*
X12322Y-15590D01*
X12322Y-15590D02*
X14488Y-17755D01*
X33287Y-39350D02*
X34045Y-39350D01*
X28346Y-37401D02*
X28346Y-35866D01*
X9803Y-30944D02*
X23425Y-30944D01*
X23425Y-30944D02*
X28346Y-35866D01*
X9724Y-28503D02*
X8515Y-29712D01*
X8515Y-29712D02*
X8511Y-29712D01*
X8570Y-29712D02*
X9803Y-30944D01*
X8511Y-29712D02*
X8570Y-29712D01*
X16505Y-19212D02*
X20206Y-19212D01*
X15551Y-18257D02*
X16505Y-19212D01*
X40307Y-48633D02*
X36311Y-48633D01*
X31929Y-38425D02*
X34448Y-40944D01*
X31929Y-37401D02*
X31929Y-38425D01*
X36311Y-48633D02*
X34448Y-46771D01*
X34448Y-46771D02*
X34448Y-40944D01*
G54D11*
X21732Y-35236D02*
X19734Y-35236D01*
X19734Y-35236D02*
X19124Y-34625D01*
G54D21*
X31417Y-39133D02*
X30787Y-39763D01*
X31417Y-36417D02*
X31417Y-39133D01*
X34724Y-36850D02*
X32992Y-35118D01*
X34724Y-46574D02*
X34724Y-36850D01*
X36338Y-48188D02*
X34724Y-46574D01*
X29881Y-37755D02*
X29881Y-35118D01*
G54D10*
G36*
X39724Y-29845D02*
X39688Y-29881D01*
X37050Y-29881D01*
X36968Y-29964D01*
X36968Y-46011D01*
X37016Y-46127D01*
X37720Y-46830D01*
X37755Y-46917D01*
X37755Y-48456D01*
X36384Y-48456D01*
X34625Y-46698D01*
X34625Y-40944D01*
X34612Y-40877D01*
X34612Y-40877D01*
X34574Y-40819D01*
X33361Y-39607D01*
X33437Y-39575D01*
X33486Y-39527D01*
X33846Y-39527D01*
X33894Y-39575D01*
X33992Y-39616D01*
X34097Y-39616D01*
X34195Y-39575D01*
X34270Y-39501D01*
X34310Y-39403D01*
X34311Y-39297D01*
X34270Y-39200D01*
X34196Y-39125D01*
X34098Y-39084D01*
X33992Y-39084D01*
X33894Y-39124D01*
X33846Y-39173D01*
X33486Y-39173D01*
X33438Y-39125D01*
X33340Y-39084D01*
X33234Y-39084D01*
X33137Y-39124D01*
X33062Y-39199D01*
X33030Y-39276D01*
X32106Y-38351D01*
X32106Y-37600D01*
X32154Y-37552D01*
X32194Y-37454D01*
X32194Y-37348D01*
X32154Y-37251D01*
X32079Y-37176D01*
X31982Y-37135D01*
X31876Y-37135D01*
X31778Y-37176D01*
X31712Y-37242D01*
X31712Y-36358D01*
X31667Y-36250D01*
X31584Y-36167D01*
X31476Y-36122D01*
X31395Y-36122D01*
X31395Y-20167D01*
X31355Y-20070D01*
X31307Y-20021D01*
X31307Y-18797D01*
X31355Y-18749D01*
X31395Y-18651D01*
X31395Y-18545D01*
X31355Y-18448D01*
X31280Y-18373D01*
X31183Y-18332D01*
X31077Y-18332D01*
X30979Y-18373D01*
X30904Y-18447D01*
X30887Y-18488D01*
X30887Y-18274D01*
X30847Y-18176D01*
X30772Y-18101D01*
X30675Y-18061D01*
X30569Y-18060D01*
X30471Y-18101D01*
X30396Y-18176D01*
X30356Y-18273D01*
X30356Y-18379D01*
X30396Y-18477D01*
X30437Y-18517D01*
X30437Y-27265D01*
X30389Y-27313D01*
X30348Y-27411D01*
X30348Y-27517D01*
X30388Y-27614D01*
X30463Y-27689D01*
X30561Y-27730D01*
X30666Y-27730D01*
X30764Y-27689D01*
X30839Y-27615D01*
X30879Y-27517D01*
X30879Y-27411D01*
X30839Y-27314D01*
X30791Y-27265D01*
X30791Y-18533D01*
X30847Y-18477D01*
X30887Y-18379D01*
X30887Y-18274D01*
X30887Y-18488D01*
X30864Y-18545D01*
X30864Y-18651D01*
X30904Y-18748D01*
X30952Y-18797D01*
X30952Y-20021D01*
X30904Y-20069D01*
X30864Y-20167D01*
X30864Y-20273D01*
X30904Y-20370D01*
X30979Y-20445D01*
X31076Y-20486D01*
X31182Y-20486D01*
X31280Y-20445D01*
X31355Y-20371D01*
X31395Y-20273D01*
X31395Y-20167D01*
X31395Y-36122D01*
X31358Y-36121D01*
X31250Y-36166D01*
X31167Y-36249D01*
X31122Y-36358D01*
X31121Y-36475D01*
X31166Y-36584D01*
X31181Y-36598D01*
X31181Y-39036D01*
X30748Y-39468D01*
X30728Y-39468D01*
X30620Y-39513D01*
X30537Y-39596D01*
X30492Y-39704D01*
X30492Y-39822D01*
X30536Y-39930D01*
X30619Y-40013D01*
X30728Y-40059D01*
X30845Y-40059D01*
X30954Y-40014D01*
X31037Y-39931D01*
X31082Y-39822D01*
X31082Y-39802D01*
X31584Y-39300D01*
X31635Y-39224D01*
X31653Y-39133D01*
X31653Y-36598D01*
X31667Y-36584D01*
X31712Y-36476D01*
X31712Y-36358D01*
X31712Y-37242D01*
X31703Y-37250D01*
X31663Y-37348D01*
X31663Y-37454D01*
X31703Y-37551D01*
X31751Y-37600D01*
X31751Y-38425D01*
X31765Y-38492D01*
X31803Y-38550D01*
X34271Y-41018D01*
X34271Y-46771D01*
X34285Y-46839D01*
X34323Y-46896D01*
X36185Y-48759D01*
X36243Y-48797D01*
X36243Y-48797D01*
X36311Y-48811D01*
X37755Y-48811D01*
X37755Y-49137D01*
X37719Y-49173D01*
X33137Y-49173D01*
X33051Y-49137D01*
X31925Y-48011D01*
X33423Y-48011D01*
X33471Y-48059D01*
X33568Y-48100D01*
X33674Y-48100D01*
X33772Y-48060D01*
X33847Y-47985D01*
X33887Y-47887D01*
X33887Y-47782D01*
X33847Y-47684D01*
X33772Y-47609D01*
X33675Y-47568D01*
X33569Y-47568D01*
X33471Y-47609D01*
X33423Y-47657D01*
X32906Y-47657D01*
X32906Y-42719D01*
X32906Y-42664D01*
X32906Y-42064D01*
X32885Y-42013D01*
X32846Y-41974D01*
X32795Y-41953D01*
X32741Y-41953D01*
X32141Y-41953D01*
X32090Y-41974D01*
X32051Y-42013D01*
X32030Y-42064D01*
X32030Y-42119D01*
X32030Y-42719D01*
X32051Y-42769D01*
X32090Y-42808D01*
X32141Y-42829D01*
X32195Y-42829D01*
X32795Y-42829D01*
X32846Y-42808D01*
X32885Y-42769D01*
X32906Y-42719D01*
X32906Y-47657D01*
X31906Y-47657D01*
X31906Y-42305D01*
X31839Y-42144D01*
X31716Y-42020D01*
X31555Y-41954D01*
X31381Y-41953D01*
X31220Y-42020D01*
X31097Y-42143D01*
X31030Y-42304D01*
X31030Y-42478D01*
X31097Y-42639D01*
X31220Y-42762D01*
X31381Y-42829D01*
X31555Y-42829D01*
X31716Y-42763D01*
X31839Y-42640D01*
X31906Y-42479D01*
X31906Y-42305D01*
X31906Y-47657D01*
X31571Y-47657D01*
X30246Y-46332D01*
X30246Y-17486D01*
X30205Y-17389D01*
X30131Y-17314D01*
X30033Y-17273D01*
X29927Y-17273D01*
X29829Y-17313D01*
X29755Y-17388D01*
X29714Y-17486D01*
X29714Y-17591D01*
X29754Y-17689D01*
X29791Y-17726D01*
X29791Y-26758D01*
X29743Y-26805D01*
X29702Y-26903D01*
X29702Y-27009D01*
X29743Y-27107D01*
X29817Y-27181D01*
X29915Y-27222D01*
X30021Y-27222D01*
X30118Y-27182D01*
X30193Y-27107D01*
X30234Y-27009D01*
X30234Y-26904D01*
X30193Y-26806D01*
X30145Y-26758D01*
X30145Y-17749D01*
X30205Y-17690D01*
X30246Y-17592D01*
X30246Y-17486D01*
X30246Y-46332D01*
X27240Y-43326D01*
X27204Y-43240D01*
X27204Y-34974D01*
X28169Y-35939D01*
X28169Y-37202D01*
X28121Y-37250D01*
X28080Y-37348D01*
X28080Y-37454D01*
X28121Y-37551D01*
X28195Y-37626D01*
X28293Y-37667D01*
X28399Y-37667D01*
X28496Y-37626D01*
X28571Y-37552D01*
X28612Y-37454D01*
X28612Y-37348D01*
X28571Y-37251D01*
X28523Y-37202D01*
X28523Y-35866D01*
X28510Y-35798D01*
X28510Y-35798D01*
X28471Y-35740D01*
X27204Y-34473D01*
X27204Y-34303D01*
X27156Y-34187D01*
X24079Y-31110D01*
X23964Y-31062D01*
X23793Y-31062D01*
X23550Y-30819D01*
X23492Y-30781D01*
X23425Y-30767D01*
X21415Y-30767D01*
X21415Y-25304D01*
X21415Y-25036D01*
X21415Y-24877D01*
X21415Y-24609D01*
X21378Y-24521D01*
X21313Y-24456D01*
X21313Y-23869D01*
X21313Y-22869D01*
X21247Y-22709D01*
X21124Y-22585D01*
X20963Y-22518D01*
X20789Y-22518D01*
X20628Y-22585D01*
X20505Y-22708D01*
X20438Y-22869D01*
X20438Y-23043D01*
X20504Y-23204D01*
X20627Y-23327D01*
X20788Y-23394D01*
X20962Y-23394D01*
X21123Y-23328D01*
X21246Y-23205D01*
X21313Y-23044D01*
X21313Y-22869D01*
X21313Y-23869D01*
X21247Y-23709D01*
X21124Y-23585D01*
X20963Y-23518D01*
X20789Y-23518D01*
X20628Y-23585D01*
X20505Y-23708D01*
X20438Y-23869D01*
X20438Y-24043D01*
X20504Y-24204D01*
X20627Y-24327D01*
X20788Y-24394D01*
X20962Y-24394D01*
X21123Y-24328D01*
X21246Y-24205D01*
X21313Y-24044D01*
X21313Y-23869D01*
X21313Y-24456D01*
X21311Y-24453D01*
X21223Y-24417D01*
X21128Y-24417D01*
X20955Y-24417D01*
X20895Y-24477D01*
X20895Y-24937D01*
X21355Y-24937D01*
X21415Y-24877D01*
X21415Y-25036D01*
X21355Y-24976D01*
X20895Y-24976D01*
X20895Y-25436D01*
X20955Y-25496D01*
X21128Y-25496D01*
X21223Y-25496D01*
X21311Y-25459D01*
X21378Y-25392D01*
X21415Y-25304D01*
X21415Y-30767D01*
X20856Y-30767D01*
X20856Y-25436D01*
X20856Y-24976D01*
X20856Y-24937D01*
X20856Y-24477D01*
X20796Y-24417D01*
X20623Y-24417D01*
X20528Y-24417D01*
X20440Y-24453D01*
X20373Y-24521D01*
X20336Y-24609D01*
X20336Y-24877D01*
X20396Y-24937D01*
X20856Y-24937D01*
X20856Y-24976D01*
X20396Y-24976D01*
X20336Y-25036D01*
X20336Y-25304D01*
X20373Y-25392D01*
X20440Y-25459D01*
X20528Y-25496D01*
X20623Y-25496D01*
X20796Y-25496D01*
X20856Y-25436D01*
X20856Y-30767D01*
X15787Y-30767D01*
X15787Y-18744D01*
X16380Y-19337D01*
X16438Y-19376D01*
X16438Y-19376D01*
X16505Y-19389D01*
X20008Y-19389D01*
X20055Y-19437D01*
X20153Y-19478D01*
X20259Y-19478D01*
X20357Y-19438D01*
X20431Y-19363D01*
X20472Y-19265D01*
X20472Y-19159D01*
X20432Y-19062D01*
X20357Y-18987D01*
X20259Y-18946D01*
X20154Y-18946D01*
X20056Y-18987D01*
X20008Y-19035D01*
X16579Y-19035D01*
X15816Y-18273D01*
X15816Y-18205D01*
X15787Y-18133D01*
X15787Y-17490D01*
X15839Y-17469D01*
X15887Y-17421D01*
X19286Y-17421D01*
X21459Y-19593D01*
X21516Y-19632D01*
X21516Y-19632D01*
X21584Y-19645D01*
X24919Y-19645D01*
X24885Y-19679D01*
X24844Y-19777D01*
X24844Y-19883D01*
X24884Y-19981D01*
X24933Y-20029D01*
X24933Y-26277D01*
X24873Y-26337D01*
X24832Y-26435D01*
X24832Y-26540D01*
X24873Y-26638D01*
X24947Y-26713D01*
X25045Y-26753D01*
X25151Y-26753D01*
X25248Y-26713D01*
X25323Y-26638D01*
X25364Y-26541D01*
X25364Y-26435D01*
X25323Y-26337D01*
X25287Y-26301D01*
X25287Y-20029D01*
X25295Y-20021D01*
X25295Y-21112D01*
X25308Y-21180D01*
X25347Y-21237D01*
X26193Y-22083D01*
X26251Y-22122D01*
X26251Y-22122D01*
X26318Y-22135D01*
X26592Y-22135D01*
X26640Y-22183D01*
X26738Y-22224D01*
X26843Y-22224D01*
X26941Y-22184D01*
X27016Y-22109D01*
X27057Y-22011D01*
X27057Y-21906D01*
X27016Y-21808D01*
X26942Y-21733D01*
X26874Y-21705D01*
X26931Y-21682D01*
X27006Y-21607D01*
X27047Y-21509D01*
X27047Y-21404D01*
X27006Y-21306D01*
X26932Y-21231D01*
X26834Y-21190D01*
X26814Y-21190D01*
X26912Y-21150D01*
X26986Y-21075D01*
X27027Y-20978D01*
X27027Y-20872D01*
X26987Y-20774D01*
X26938Y-20726D01*
X26938Y-20068D01*
X26925Y-20001D01*
X26887Y-19943D01*
X25686Y-18742D01*
X25628Y-18704D01*
X25561Y-18690D01*
X24694Y-18690D01*
X21931Y-18690D01*
X21189Y-17948D01*
X21252Y-17922D01*
X21281Y-17893D01*
X22498Y-17893D01*
X22546Y-17941D01*
X22643Y-17982D01*
X22749Y-17982D01*
X22847Y-17941D01*
X22922Y-17867D01*
X22962Y-17769D01*
X22962Y-17663D01*
X22923Y-17568D01*
X22923Y-16728D01*
X22882Y-16631D01*
X22864Y-16612D01*
X22864Y-15695D01*
X22823Y-15597D01*
X22749Y-15522D01*
X22651Y-15482D01*
X22545Y-15482D01*
X22448Y-15522D01*
X22399Y-15570D01*
X21301Y-15570D01*
X21253Y-15522D01*
X21155Y-15482D01*
X21049Y-15482D01*
X20952Y-15522D01*
X20877Y-15597D01*
X20836Y-15694D01*
X20836Y-15800D01*
X20876Y-15898D01*
X20951Y-15973D01*
X21049Y-16013D01*
X21154Y-16013D01*
X21252Y-15973D01*
X21301Y-15925D01*
X22399Y-15925D01*
X22447Y-15973D01*
X22545Y-16013D01*
X22651Y-16013D01*
X22748Y-15973D01*
X22823Y-15898D01*
X22864Y-15801D01*
X22864Y-15695D01*
X22864Y-16612D01*
X22808Y-16556D01*
X22710Y-16515D01*
X22604Y-16515D01*
X22507Y-16556D01*
X22458Y-16604D01*
X21261Y-16604D01*
X21213Y-16556D01*
X21116Y-16515D01*
X21010Y-16515D01*
X20912Y-16556D01*
X20837Y-16630D01*
X20797Y-16728D01*
X20797Y-16834D01*
X20837Y-16931D01*
X20912Y-17006D01*
X21009Y-17047D01*
X21115Y-17047D01*
X21213Y-17006D01*
X21261Y-16958D01*
X22458Y-16958D01*
X22506Y-17006D01*
X22604Y-17047D01*
X22710Y-17047D01*
X22807Y-17006D01*
X22882Y-16932D01*
X22923Y-16834D01*
X22923Y-16728D01*
X22923Y-17568D01*
X22922Y-17566D01*
X22847Y-17491D01*
X22749Y-17450D01*
X22644Y-17450D01*
X22546Y-17491D01*
X22498Y-17539D01*
X21320Y-17539D01*
X21253Y-17471D01*
X21155Y-17431D01*
X21049Y-17431D01*
X20952Y-17471D01*
X20877Y-17546D01*
X20850Y-17609D01*
X18437Y-15196D01*
X21100Y-15196D01*
X21148Y-15244D01*
X21246Y-15285D01*
X21351Y-15285D01*
X21449Y-15245D01*
X21524Y-15170D01*
X21564Y-15072D01*
X21565Y-14967D01*
X21524Y-14869D01*
X21449Y-14794D01*
X21352Y-14753D01*
X21246Y-14753D01*
X21148Y-14794D01*
X21100Y-14842D01*
X16992Y-14842D01*
X16286Y-14136D01*
X16255Y-14115D01*
X16515Y-13854D01*
X16602Y-13818D01*
X35366Y-13818D01*
X35452Y-13854D01*
X36145Y-14547D01*
X36181Y-14633D01*
X36181Y-16074D01*
X36145Y-16161D01*
X33866Y-18439D01*
X33818Y-18555D01*
X33818Y-23177D01*
X33866Y-23292D01*
X37273Y-26699D01*
X37273Y-26749D01*
X37313Y-26847D01*
X37348Y-26881D01*
X37310Y-26920D01*
X37269Y-27017D01*
X37269Y-27123D01*
X37310Y-27221D01*
X37384Y-27296D01*
X37482Y-27336D01*
X37588Y-27336D01*
X37685Y-27296D01*
X37734Y-27248D01*
X37822Y-27248D01*
X39492Y-28917D01*
X39492Y-29196D01*
X39505Y-29264D01*
X39544Y-29322D01*
X39724Y-29502D01*
X39724Y-29845D01*
X39724Y-29845D01*
G37*
G54D22*
X39724Y-29845D02*
X39688Y-29881D01*
X37050Y-29881D01*
X36968Y-29964D01*
X36968Y-46011D01*
X37016Y-46127D01*
X37720Y-46830D01*
X37755Y-46917D01*
X37755Y-48456D01*
X36384Y-48456D01*
X34625Y-46698D01*
X34625Y-40944D01*
X34612Y-40877D01*
X34612Y-40877D01*
X34574Y-40819D01*
X33361Y-39607D01*
X33437Y-39575D01*
X33486Y-39527D01*
X33846Y-39527D01*
X33894Y-39575D01*
X33992Y-39616D01*
X34097Y-39616D01*
X34195Y-39575D01*
X34270Y-39501D01*
X34310Y-39403D01*
X34311Y-39297D01*
X34270Y-39200D01*
X34196Y-39125D01*
X34098Y-39084D01*
X33992Y-39084D01*
X33894Y-39124D01*
X33846Y-39173D01*
X33486Y-39173D01*
X33438Y-39125D01*
X33340Y-39084D01*
X33234Y-39084D01*
X33137Y-39124D01*
X33062Y-39199D01*
X33030Y-39276D01*
X32106Y-38351D01*
X32106Y-37600D01*
X32154Y-37552D01*
X32194Y-37454D01*
X32194Y-37348D01*
X32154Y-37251D01*
X32079Y-37176D01*
X31982Y-37135D01*
X31876Y-37135D01*
X31778Y-37176D01*
X31712Y-37242D01*
X31712Y-36358D01*
X31667Y-36250D01*
X31584Y-36167D01*
X31476Y-36122D01*
X31395Y-36122D01*
X31395Y-20167D01*
X31355Y-20070D01*
X31307Y-20021D01*
X31307Y-18797D01*
X31355Y-18749D01*
X31395Y-18651D01*
X31395Y-18545D01*
X31355Y-18448D01*
X31280Y-18373D01*
X31183Y-18332D01*
X31077Y-18332D01*
X30979Y-18373D01*
X30904Y-18447D01*
X30887Y-18488D01*
X30887Y-18274D01*
X30847Y-18176D01*
X30772Y-18101D01*
X30675Y-18061D01*
X30569Y-18060D01*
X30471Y-18101D01*
X30396Y-18176D01*
X30356Y-18273D01*
X30356Y-18379D01*
X30396Y-18477D01*
X30437Y-18517D01*
X30437Y-27265D01*
X30389Y-27313D01*
X30348Y-27411D01*
X30348Y-27517D01*
X30388Y-27614D01*
X30463Y-27689D01*
X30561Y-27730D01*
X30666Y-27730D01*
X30764Y-27689D01*
X30839Y-27615D01*
X30879Y-27517D01*
X30879Y-27411D01*
X30839Y-27314D01*
X30791Y-27265D01*
X30791Y-18533D01*
X30847Y-18477D01*
X30887Y-18379D01*
X30887Y-18274D01*
X30887Y-18488D01*
X30864Y-18545D01*
X30864Y-18651D01*
X30904Y-18748D01*
X30952Y-18797D01*
X30952Y-20021D01*
X30904Y-20069D01*
X30864Y-20167D01*
X30864Y-20273D01*
X30904Y-20370D01*
X30979Y-20445D01*
X31076Y-20486D01*
X31182Y-20486D01*
X31280Y-20445D01*
X31355Y-20371D01*
X31395Y-20273D01*
X31395Y-20167D01*
X31395Y-36122D01*
X31358Y-36121D01*
X31250Y-36166D01*
X31167Y-36249D01*
X31122Y-36358D01*
X31121Y-36475D01*
X31166Y-36584D01*
X31181Y-36598D01*
X31181Y-39036D01*
X30748Y-39468D01*
X30728Y-39468D01*
X30620Y-39513D01*
X30537Y-39596D01*
X30492Y-39704D01*
X30492Y-39822D01*
X30536Y-39930D01*
X30619Y-40013D01*
X30728Y-40059D01*
X30845Y-40059D01*
X30954Y-40014D01*
X31037Y-39931D01*
X31082Y-39822D01*
X31082Y-39802D01*
X31584Y-39300D01*
X31635Y-39224D01*
X31653Y-39133D01*
X31653Y-36598D01*
X31667Y-36584D01*
X31712Y-36476D01*
X31712Y-36358D01*
X31712Y-37242D01*
X31703Y-37250D01*
X31663Y-37348D01*
X31663Y-37454D01*
X31703Y-37551D01*
X31751Y-37600D01*
X31751Y-38425D01*
X31765Y-38492D01*
X31803Y-38550D01*
X34271Y-41018D01*
X34271Y-46771D01*
X34285Y-46839D01*
X34323Y-46896D01*
X36185Y-48759D01*
X36243Y-48797D01*
X36243Y-48797D01*
X36311Y-48811D01*
X37755Y-48811D01*
X37755Y-49137D01*
X37719Y-49173D01*
X33137Y-49173D01*
X33051Y-49137D01*
X31925Y-48011D01*
X33423Y-48011D01*
X33471Y-48059D01*
X33568Y-48100D01*
X33674Y-48100D01*
X33772Y-48060D01*
X33847Y-47985D01*
X33887Y-47887D01*
X33887Y-47782D01*
X33847Y-47684D01*
X33772Y-47609D01*
X33675Y-47568D01*
X33569Y-47568D01*
X33471Y-47609D01*
X33423Y-47657D01*
X32906Y-47657D01*
X32906Y-42719D01*
X32906Y-42664D01*
X32906Y-42064D01*
X32885Y-42013D01*
X32846Y-41974D01*
X32795Y-41953D01*
X32741Y-41953D01*
X32141Y-41953D01*
X32090Y-41974D01*
X32051Y-42013D01*
X32030Y-42064D01*
X32030Y-42119D01*
X32030Y-42719D01*
X32051Y-42769D01*
X32090Y-42808D01*
X32141Y-42829D01*
X32195Y-42829D01*
X32795Y-42829D01*
X32846Y-42808D01*
X32885Y-42769D01*
X32906Y-42719D01*
X32906Y-47657D01*
X31906Y-47657D01*
X31906Y-42305D01*
X31839Y-42144D01*
X31716Y-42020D01*
X31555Y-41954D01*
X31381Y-41953D01*
X31220Y-42020D01*
X31097Y-42143D01*
X31030Y-42304D01*
X31030Y-42478D01*
X31097Y-42639D01*
X31220Y-42762D01*
X31381Y-42829D01*
X31555Y-42829D01*
X31716Y-42763D01*
X31839Y-42640D01*
X31906Y-42479D01*
X31906Y-42305D01*
X31906Y-47657D01*
X31571Y-47657D01*
X30246Y-46332D01*
X30246Y-17486D01*
X30205Y-17389D01*
X30131Y-17314D01*
X30033Y-17273D01*
X29927Y-17273D01*
X29829Y-17313D01*
X29755Y-17388D01*
X29714Y-17486D01*
X29714Y-17591D01*
X29754Y-17689D01*
X29791Y-17726D01*
X29791Y-26758D01*
X29743Y-26805D01*
X29702Y-26903D01*
X29702Y-27009D01*
X29743Y-27107D01*
X29817Y-27181D01*
X29915Y-27222D01*
X30021Y-27222D01*
X30118Y-27182D01*
X30193Y-27107D01*
X30234Y-27009D01*
X30234Y-26904D01*
X30193Y-26806D01*
X30145Y-26758D01*
X30145Y-17749D01*
X30205Y-17690D01*
X30246Y-17592D01*
X30246Y-17486D01*
X30246Y-46332D01*
X27240Y-43326D01*
X27204Y-43240D01*
X27204Y-34974D01*
X28169Y-35939D01*
X28169Y-37202D01*
X28121Y-37250D01*
X28080Y-37348D01*
X28080Y-37454D01*
X28121Y-37551D01*
X28195Y-37626D01*
X28293Y-37667D01*
X28399Y-37667D01*
X28496Y-37626D01*
X28571Y-37552D01*
X28612Y-37454D01*
X28612Y-37348D01*
X28571Y-37251D01*
X28523Y-37202D01*
X28523Y-35866D01*
X28510Y-35798D01*
X28510Y-35798D01*
X28471Y-35740D01*
X27204Y-34473D01*
X27204Y-34303D01*
X27156Y-34187D01*
X24079Y-31110D01*
X23964Y-31062D01*
X23793Y-31062D01*
X23550Y-30819D01*
X23492Y-30781D01*
X23425Y-30767D01*
X21415Y-30767D01*
X21415Y-25304D01*
X21415Y-25036D01*
X21415Y-24877D01*
X21415Y-24609D01*
X21378Y-24521D01*
X21313Y-24456D01*
X21313Y-23869D01*
X21313Y-22869D01*
X21247Y-22709D01*
X21124Y-22585D01*
X20963Y-22518D01*
X20789Y-22518D01*
X20628Y-22585D01*
X20505Y-22708D01*
X20438Y-22869D01*
X20438Y-23043D01*
X20504Y-23204D01*
X20627Y-23327D01*
X20788Y-23394D01*
X20962Y-23394D01*
X21123Y-23328D01*
X21246Y-23205D01*
X21313Y-23044D01*
X21313Y-22869D01*
X21313Y-23869D01*
X21247Y-23709D01*
X21124Y-23585D01*
X20963Y-23518D01*
X20789Y-23518D01*
X20628Y-23585D01*
X20505Y-23708D01*
X20438Y-23869D01*
X20438Y-24043D01*
X20504Y-24204D01*
X20627Y-24327D01*
X20788Y-24394D01*
X20962Y-24394D01*
X21123Y-24328D01*
X21246Y-24205D01*
X21313Y-24044D01*
X21313Y-23869D01*
X21313Y-24456D01*
X21311Y-24453D01*
X21223Y-24417D01*
X21128Y-24417D01*
X20955Y-24417D01*
X20895Y-24477D01*
X20895Y-24937D01*
X21355Y-24937D01*
X21415Y-24877D01*
X21415Y-25036D01*
X21355Y-24976D01*
X20895Y-24976D01*
X20895Y-25436D01*
X20955Y-25496D01*
X21128Y-25496D01*
X21223Y-25496D01*
X21311Y-25459D01*
X21378Y-25392D01*
X21415Y-25304D01*
X21415Y-30767D01*
X20856Y-30767D01*
X20856Y-25436D01*
X20856Y-24976D01*
X20856Y-24937D01*
X20856Y-24477D01*
X20796Y-24417D01*
X20623Y-24417D01*
X20528Y-24417D01*
X20440Y-24453D01*
X20373Y-24521D01*
X20336Y-24609D01*
X20336Y-24877D01*
X20396Y-24937D01*
X20856Y-24937D01*
X20856Y-24976D01*
X20396Y-24976D01*
X20336Y-25036D01*
X20336Y-25304D01*
X20373Y-25392D01*
X20440Y-25459D01*
X20528Y-25496D01*
X20623Y-25496D01*
X20796Y-25496D01*
X20856Y-25436D01*
X20856Y-30767D01*
X15787Y-30767D01*
X15787Y-18744D01*
X16380Y-19337D01*
X16438Y-19376D01*
X16438Y-19376D01*
X16505Y-19389D01*
X20008Y-19389D01*
X20055Y-19437D01*
X20153Y-19478D01*
X20259Y-19478D01*
X20357Y-19438D01*
X20431Y-19363D01*
X20472Y-19265D01*
X20472Y-19159D01*
X20432Y-19062D01*
X20357Y-18987D01*
X20259Y-18946D01*
X20154Y-18946D01*
X20056Y-18987D01*
X20008Y-19035D01*
X16579Y-19035D01*
X15816Y-18273D01*
X15816Y-18205D01*
X15787Y-18133D01*
X15787Y-17490D01*
X15839Y-17469D01*
X15887Y-17421D01*
X19286Y-17421D01*
X21459Y-19593D01*
X21516Y-19632D01*
X21516Y-19632D01*
X21584Y-19645D01*
X24919Y-19645D01*
X24885Y-19679D01*
X24844Y-19777D01*
X24844Y-19883D01*
X24884Y-19981D01*
X24933Y-20029D01*
X24933Y-26277D01*
X24873Y-26337D01*
X24832Y-26435D01*
X24832Y-26540D01*
X24873Y-26638D01*
X24947Y-26713D01*
X25045Y-26753D01*
X25151Y-26753D01*
X25248Y-26713D01*
X25323Y-26638D01*
X25364Y-26541D01*
X25364Y-26435D01*
X25323Y-26337D01*
X25287Y-26301D01*
X25287Y-20029D01*
X25295Y-20021D01*
X25295Y-21112D01*
X25308Y-21180D01*
X25347Y-21237D01*
X26193Y-22083D01*
X26251Y-22122D01*
X26251Y-22122D01*
X26318Y-22135D01*
X26592Y-22135D01*
X26640Y-22183D01*
X26738Y-22224D01*
X26843Y-22224D01*
X26941Y-22184D01*
X27016Y-22109D01*
X27057Y-22011D01*
X27057Y-21906D01*
X27016Y-21808D01*
X26942Y-21733D01*
X26874Y-21705D01*
X26931Y-21682D01*
X27006Y-21607D01*
X27047Y-21509D01*
X27047Y-21404D01*
X27006Y-21306D01*
X26932Y-21231D01*
X26834Y-21190D01*
X26814Y-21190D01*
X26912Y-21150D01*
X26986Y-21075D01*
X27027Y-20978D01*
X27027Y-20872D01*
X26987Y-20774D01*
X26938Y-20726D01*
X26938Y-20068D01*
X26925Y-20001D01*
X26887Y-19943D01*
X25686Y-18742D01*
X25628Y-18704D01*
X25561Y-18690D01*
X24694Y-18690D01*
X21931Y-18690D01*
X21189Y-17948D01*
X21252Y-17922D01*
X21281Y-17893D01*
X22498Y-17893D01*
X22546Y-17941D01*
X22643Y-17982D01*
X22749Y-17982D01*
X22847Y-17941D01*
X22922Y-17867D01*
X22962Y-17769D01*
X22962Y-17663D01*
X22923Y-17568D01*
X22923Y-16728D01*
X22882Y-16631D01*
X22864Y-16612D01*
X22864Y-15695D01*
X22823Y-15597D01*
X22749Y-15522D01*
X22651Y-15482D01*
X22545Y-15482D01*
X22448Y-15522D01*
X22399Y-15570D01*
X21301Y-15570D01*
X21253Y-15522D01*
X21155Y-15482D01*
X21049Y-15482D01*
X20952Y-15522D01*
X20877Y-15597D01*
X20836Y-15694D01*
X20836Y-15800D01*
X20876Y-15898D01*
X20951Y-15973D01*
X21049Y-16013D01*
X21154Y-16013D01*
X21252Y-15973D01*
X21301Y-15925D01*
X22399Y-15925D01*
X22447Y-15973D01*
X22545Y-16013D01*
X22651Y-16013D01*
X22748Y-15973D01*
X22823Y-15898D01*
X22864Y-15801D01*
X22864Y-15695D01*
X22864Y-16612D01*
X22808Y-16556D01*
X22710Y-16515D01*
X22604Y-16515D01*
X22507Y-16556D01*
X22458Y-16604D01*
X21261Y-16604D01*
X21213Y-16556D01*
X21116Y-16515D01*
X21010Y-16515D01*
X20912Y-16556D01*
X20837Y-16630D01*
X20797Y-16728D01*
X20797Y-16834D01*
X20837Y-16931D01*
X20912Y-17006D01*
X21009Y-17047D01*
X21115Y-17047D01*
X21213Y-17006D01*
X21261Y-16958D01*
X22458Y-16958D01*
X22506Y-17006D01*
X22604Y-17047D01*
X22710Y-17047D01*
X22807Y-17006D01*
X22882Y-16932D01*
X22923Y-16834D01*
X22923Y-16728D01*
X22923Y-17568D01*
X22922Y-17566D01*
X22847Y-17491D01*
X22749Y-17450D01*
X22644Y-17450D01*
X22546Y-17491D01*
X22498Y-17539D01*
X21320Y-17539D01*
X21253Y-17471D01*
X21155Y-17431D01*
X21049Y-17431D01*
X20952Y-17471D01*
X20877Y-17546D01*
X20850Y-17609D01*
X18437Y-15196D01*
X21100Y-15196D01*
X21148Y-15244D01*
X21246Y-15285D01*
X21351Y-15285D01*
X21449Y-15245D01*
X21524Y-15170D01*
X21564Y-15072D01*
X21565Y-14967D01*
X21524Y-14869D01*
X21449Y-14794D01*
X21352Y-14753D01*
X21246Y-14753D01*
X21148Y-14794D01*
X21100Y-14842D01*
X16992Y-14842D01*
X16286Y-14136D01*
X16255Y-14115D01*
X16515Y-13854D01*
X16602Y-13818D01*
X35366Y-13818D01*
X35452Y-13854D01*
X36145Y-14547D01*
X36181Y-14633D01*
X36181Y-16074D01*
X36145Y-16161D01*
X33866Y-18439D01*
X33818Y-18555D01*
X33818Y-23177D01*
X33866Y-23292D01*
X37273Y-26699D01*
X37273Y-26749D01*
X37313Y-26847D01*
X37348Y-26881D01*
X37310Y-26920D01*
X37269Y-27017D01*
X37269Y-27123D01*
X37310Y-27221D01*
X37384Y-27296D01*
X37482Y-27336D01*
X37588Y-27336D01*
X37685Y-27296D01*
X37734Y-27248D01*
X37822Y-27248D01*
X39492Y-28917D01*
X39492Y-29196D01*
X39505Y-29264D01*
X39544Y-29322D01*
X39724Y-29502D01*
X39724Y-29845D01*
G54D10*
G36*
X43937Y-55748D02*
X43445Y-55748D01*
X43445Y-53675D01*
X43445Y-41864D01*
X43445Y-6431D01*
X43244Y-5946D01*
X42874Y-5575D01*
X42389Y-5374D01*
X41864Y-5373D01*
X41379Y-5574D01*
X41008Y-5944D01*
X40807Y-6429D01*
X40806Y-6954D01*
X41007Y-7439D01*
X41377Y-7810D01*
X41862Y-8011D01*
X42387Y-8012D01*
X42872Y-7811D01*
X43243Y-7440D01*
X43444Y-6956D01*
X43445Y-6431D01*
X43445Y-41864D01*
X43244Y-41379D01*
X42874Y-41008D01*
X42844Y-40996D01*
X42844Y-38550D01*
X42844Y-33550D01*
X42844Y-30676D01*
X42844Y-25676D01*
X42844Y-22802D01*
X42844Y-17802D01*
X42844Y-14928D01*
X42844Y-9928D01*
X42714Y-9614D01*
X42473Y-9372D01*
X42159Y-9242D01*
X41818Y-9241D01*
X41503Y-9372D01*
X41262Y-9612D01*
X41208Y-9742D01*
X41208Y-9284D01*
X41122Y-9074D01*
X40961Y-8913D01*
X40751Y-8826D01*
X40524Y-8826D01*
X40314Y-8913D01*
X40154Y-9073D01*
X40067Y-9283D01*
X40066Y-9510D01*
X40153Y-9720D01*
X40314Y-9881D01*
X40523Y-9968D01*
X40750Y-9968D01*
X40960Y-9881D01*
X41121Y-9721D01*
X41208Y-9511D01*
X41208Y-9284D01*
X41208Y-9742D01*
X41132Y-9927D01*
X41131Y-10268D01*
X41261Y-10582D01*
X41502Y-10823D01*
X41817Y-10954D01*
X42157Y-10954D01*
X42472Y-10824D01*
X42713Y-10584D01*
X42844Y-10269D01*
X42844Y-9928D01*
X42844Y-14928D01*
X42714Y-14614D01*
X42473Y-14372D01*
X42159Y-14242D01*
X41818Y-14241D01*
X41523Y-14363D01*
X41523Y-12694D01*
X41523Y-11088D01*
X41442Y-10891D01*
X41440Y-10888D01*
X41345Y-10863D01*
X41317Y-10891D01*
X41317Y-10835D01*
X41292Y-10740D01*
X41096Y-10658D01*
X40883Y-10657D01*
X40686Y-10738D01*
X40683Y-10740D01*
X40659Y-10835D01*
X40988Y-11165D01*
X41317Y-10835D01*
X41317Y-10891D01*
X41016Y-11192D01*
X41345Y-11522D01*
X41440Y-11497D01*
X41522Y-11300D01*
X41523Y-11088D01*
X41523Y-12694D01*
X41442Y-12497D01*
X41440Y-12494D01*
X41345Y-12470D01*
X41016Y-12799D01*
X41345Y-13128D01*
X41440Y-13103D01*
X41522Y-12907D01*
X41523Y-12694D01*
X41523Y-14363D01*
X41503Y-14372D01*
X41421Y-14454D01*
X41421Y-13516D01*
X41355Y-13357D01*
X41263Y-13264D01*
X41289Y-13253D01*
X41292Y-13251D01*
X41317Y-13156D01*
X40988Y-12827D01*
X40982Y-12832D01*
X40954Y-12804D01*
X40960Y-12799D01*
X40954Y-12793D01*
X40982Y-12765D01*
X40988Y-12771D01*
X41317Y-12442D01*
X41292Y-12346D01*
X41262Y-12334D01*
X41355Y-12241D01*
X41421Y-12082D01*
X41421Y-11910D01*
X41355Y-11750D01*
X41263Y-11658D01*
X41289Y-11647D01*
X41292Y-11645D01*
X41317Y-11549D01*
X40988Y-11220D01*
X40982Y-11226D01*
X40954Y-11198D01*
X40960Y-11192D01*
X40631Y-10863D01*
X40535Y-10888D01*
X40453Y-11084D01*
X40453Y-11194D01*
X40373Y-11161D01*
X40201Y-11161D01*
X40042Y-11226D01*
X39920Y-11348D01*
X39854Y-11507D01*
X39854Y-11680D01*
X39919Y-11839D01*
X40041Y-11961D01*
X40124Y-11996D01*
X40042Y-12030D01*
X39920Y-12151D01*
X39891Y-12220D01*
X39803Y-12220D01*
X39803Y-7107D01*
X39803Y-6107D01*
X39737Y-5947D01*
X39615Y-5825D01*
X39456Y-5759D01*
X39284Y-5759D01*
X39125Y-5825D01*
X39003Y-5947D01*
X38937Y-6106D01*
X38936Y-6278D01*
X39002Y-6437D01*
X39124Y-6559D01*
X39283Y-6625D01*
X39455Y-6626D01*
X39615Y-6560D01*
X39737Y-6438D01*
X39803Y-6279D01*
X39803Y-6107D01*
X39803Y-7107D01*
X39737Y-6947D01*
X39615Y-6825D01*
X39456Y-6759D01*
X39284Y-6759D01*
X39125Y-6825D01*
X39003Y-6947D01*
X38937Y-7106D01*
X38936Y-7278D01*
X39002Y-7437D01*
X39124Y-7559D01*
X39283Y-7625D01*
X39455Y-7626D01*
X39615Y-7560D01*
X39737Y-7438D01*
X39803Y-7279D01*
X39803Y-7107D01*
X39803Y-12220D01*
X37834Y-12220D01*
X37834Y-7107D01*
X37834Y-6107D01*
X37768Y-5947D01*
X37647Y-5825D01*
X37488Y-5759D01*
X37315Y-5759D01*
X37156Y-5825D01*
X37034Y-5947D01*
X36968Y-6106D01*
X36968Y-6278D01*
X37034Y-6437D01*
X37155Y-6559D01*
X37315Y-6625D01*
X37487Y-6626D01*
X37646Y-6560D01*
X37768Y-6438D01*
X37834Y-6279D01*
X37834Y-6107D01*
X37834Y-7107D01*
X37768Y-6947D01*
X37647Y-6825D01*
X37488Y-6759D01*
X37315Y-6759D01*
X37156Y-6825D01*
X37034Y-6947D01*
X36968Y-7106D01*
X36968Y-7278D01*
X37034Y-7437D01*
X37155Y-7559D01*
X37315Y-7625D01*
X37487Y-7626D01*
X37646Y-7560D01*
X37768Y-7438D01*
X37834Y-7279D01*
X37834Y-7107D01*
X37834Y-12220D01*
X36831Y-12220D01*
X36801Y-12190D01*
X36801Y-12122D01*
X36760Y-12024D01*
X36686Y-11950D01*
X36588Y-11909D01*
X36482Y-11909D01*
X36385Y-11949D01*
X36318Y-12015D01*
X36302Y-11999D01*
X36204Y-11958D01*
X36098Y-11958D01*
X36001Y-11998D01*
X35954Y-12045D01*
X35918Y-12009D01*
X35866Y-11987D01*
X35866Y-7107D01*
X35866Y-6107D01*
X35800Y-5947D01*
X35678Y-5825D01*
X35519Y-5759D01*
X35347Y-5759D01*
X35188Y-5825D01*
X35066Y-5947D01*
X35000Y-6106D01*
X34999Y-6278D01*
X35065Y-6437D01*
X35187Y-6559D01*
X35346Y-6625D01*
X35518Y-6626D01*
X35678Y-6560D01*
X35799Y-6438D01*
X35866Y-6279D01*
X35866Y-6107D01*
X35866Y-7107D01*
X35800Y-6947D01*
X35678Y-6825D01*
X35519Y-6759D01*
X35347Y-6759D01*
X35188Y-6825D01*
X35066Y-6947D01*
X35000Y-7106D01*
X34999Y-7278D01*
X35065Y-7437D01*
X35187Y-7559D01*
X35346Y-7625D01*
X35518Y-7626D01*
X35678Y-7560D01*
X35799Y-7438D01*
X35866Y-7279D01*
X35866Y-7107D01*
X35866Y-11987D01*
X35820Y-11968D01*
X35715Y-11968D01*
X35698Y-11975D01*
X35698Y-10026D01*
X35658Y-9928D01*
X35583Y-9853D01*
X35486Y-9813D01*
X35416Y-9812D01*
X35382Y-9731D01*
X35308Y-9656D01*
X35210Y-9616D01*
X35104Y-9616D01*
X35088Y-9622D01*
X35067Y-9574D01*
X34993Y-9499D01*
X34895Y-9458D01*
X34789Y-9458D01*
X34773Y-9465D01*
X34752Y-9416D01*
X34678Y-9341D01*
X34580Y-9301D01*
X34474Y-9301D01*
X34377Y-9341D01*
X34302Y-9416D01*
X34261Y-9513D01*
X34261Y-9619D01*
X34302Y-9717D01*
X34350Y-9765D01*
X34350Y-11218D01*
X34302Y-11266D01*
X34261Y-11364D01*
X34261Y-11469D01*
X34302Y-11567D01*
X34376Y-11642D01*
X34474Y-11683D01*
X34580Y-11683D01*
X34677Y-11642D01*
X34752Y-11568D01*
X34793Y-11470D01*
X34793Y-11364D01*
X34752Y-11266D01*
X34704Y-11218D01*
X34704Y-10968D01*
X34789Y-11003D01*
X34891Y-11003D01*
X34891Y-11105D01*
X34932Y-11203D01*
X35006Y-11278D01*
X35104Y-11318D01*
X35210Y-11318D01*
X35307Y-11278D01*
X35382Y-11203D01*
X35423Y-11106D01*
X35423Y-11000D01*
X35382Y-10902D01*
X35334Y-10854D01*
X35334Y-10325D01*
X35379Y-10344D01*
X35485Y-10344D01*
X35583Y-10304D01*
X35658Y-10229D01*
X35698Y-10131D01*
X35698Y-10026D01*
X35698Y-11975D01*
X35617Y-12008D01*
X35542Y-12083D01*
X35502Y-12181D01*
X35501Y-12286D01*
X35542Y-12384D01*
X35616Y-12459D01*
X35714Y-12499D01*
X35782Y-12500D01*
X36872Y-13589D01*
X36930Y-13628D01*
X36998Y-13641D01*
X39552Y-13641D01*
X39854Y-13943D01*
X39854Y-14089D01*
X39919Y-14249D01*
X40041Y-14371D01*
X40200Y-14437D01*
X40373Y-14437D01*
X40532Y-14371D01*
X40654Y-14249D01*
X40720Y-14090D01*
X40720Y-13947D01*
X40742Y-13969D01*
X40901Y-14035D01*
X41073Y-14035D01*
X41233Y-13969D01*
X41355Y-13848D01*
X41421Y-13688D01*
X41421Y-13516D01*
X41421Y-14454D01*
X41262Y-14612D01*
X41132Y-14927D01*
X41131Y-15268D01*
X41261Y-15582D01*
X41502Y-15823D01*
X41817Y-15954D01*
X42157Y-15954D01*
X42472Y-15824D01*
X42713Y-15584D01*
X42844Y-15269D01*
X42844Y-14928D01*
X42844Y-17802D01*
X42714Y-17488D01*
X42473Y-17246D01*
X42159Y-17116D01*
X41818Y-17115D01*
X41503Y-17246D01*
X41262Y-17486D01*
X41208Y-17616D01*
X41208Y-17158D01*
X41208Y-15686D01*
X41122Y-15476D01*
X40961Y-15315D01*
X40751Y-15228D01*
X40524Y-15228D01*
X40314Y-15314D01*
X40154Y-15475D01*
X40067Y-15685D01*
X40066Y-15912D01*
X40153Y-16122D01*
X40314Y-16282D01*
X40523Y-16369D01*
X40750Y-16370D01*
X40960Y-16283D01*
X41121Y-16123D01*
X41208Y-15913D01*
X41208Y-15686D01*
X41208Y-17158D01*
X41122Y-16948D01*
X40961Y-16787D01*
X40751Y-16700D01*
X40524Y-16700D01*
X40314Y-16787D01*
X40154Y-16947D01*
X40067Y-17157D01*
X40066Y-17384D01*
X40153Y-17594D01*
X40314Y-17755D01*
X40523Y-17842D01*
X40750Y-17842D01*
X40960Y-17755D01*
X41121Y-17595D01*
X41208Y-17385D01*
X41208Y-17158D01*
X41208Y-17616D01*
X41132Y-17801D01*
X41131Y-18142D01*
X41261Y-18456D01*
X41502Y-18697D01*
X41817Y-18828D01*
X42157Y-18828D01*
X42472Y-18698D01*
X42713Y-18458D01*
X42844Y-18143D01*
X42844Y-17802D01*
X42844Y-22802D01*
X42714Y-22488D01*
X42473Y-22246D01*
X42159Y-22116D01*
X41818Y-22115D01*
X41523Y-22237D01*
X41523Y-20568D01*
X41523Y-18962D01*
X41442Y-18765D01*
X41440Y-18762D01*
X41345Y-18737D01*
X41317Y-18765D01*
X41317Y-18709D01*
X41292Y-18614D01*
X41096Y-18532D01*
X40883Y-18531D01*
X40686Y-18612D01*
X40683Y-18614D01*
X40659Y-18709D01*
X40988Y-19039D01*
X41317Y-18709D01*
X41317Y-18765D01*
X41016Y-19066D01*
X41345Y-19396D01*
X41440Y-19371D01*
X41522Y-19175D01*
X41523Y-18962D01*
X41523Y-20568D01*
X41442Y-20371D01*
X41440Y-20368D01*
X41345Y-20344D01*
X41016Y-20673D01*
X41345Y-21002D01*
X41440Y-20977D01*
X41522Y-20781D01*
X41523Y-20568D01*
X41523Y-22237D01*
X41503Y-22246D01*
X41421Y-22328D01*
X41421Y-21390D01*
X41355Y-21231D01*
X41263Y-21138D01*
X41289Y-21127D01*
X41292Y-21125D01*
X41317Y-21030D01*
X40988Y-20701D01*
X40982Y-20706D01*
X40954Y-20678D01*
X40960Y-20673D01*
X40954Y-20667D01*
X40982Y-20639D01*
X40988Y-20645D01*
X41317Y-20316D01*
X41292Y-20220D01*
X41262Y-20208D01*
X41355Y-20115D01*
X41421Y-19956D01*
X41421Y-19784D01*
X41355Y-19624D01*
X41263Y-19532D01*
X41289Y-19521D01*
X41292Y-19519D01*
X41317Y-19423D01*
X40988Y-19094D01*
X40982Y-19100D01*
X40954Y-19072D01*
X40960Y-19066D01*
X40631Y-18737D01*
X40535Y-18762D01*
X40453Y-18958D01*
X40453Y-19068D01*
X40373Y-19035D01*
X40201Y-19035D01*
X40042Y-19100D01*
X39920Y-19222D01*
X39891Y-19291D01*
X36933Y-19291D01*
X36865Y-19304D01*
X36807Y-19343D01*
X34933Y-21217D01*
X34895Y-21274D01*
X34881Y-21342D01*
X34881Y-22521D01*
X34822Y-22581D01*
X34781Y-22679D01*
X34781Y-22784D01*
X34821Y-22882D01*
X34896Y-22957D01*
X34994Y-22997D01*
X35099Y-22998D01*
X35197Y-22957D01*
X35272Y-22883D01*
X35312Y-22785D01*
X35313Y-22679D01*
X35272Y-22581D01*
X35236Y-22545D01*
X35236Y-21415D01*
X37006Y-19645D01*
X39891Y-19645D01*
X39919Y-19713D01*
X40041Y-19835D01*
X40124Y-19870D01*
X40042Y-19904D01*
X39920Y-20025D01*
X39891Y-20094D01*
X37728Y-20094D01*
X37660Y-20107D01*
X37603Y-20146D01*
X36524Y-21225D01*
X36504Y-21178D01*
X36456Y-21130D01*
X36456Y-20966D01*
X36504Y-20918D01*
X36545Y-20820D01*
X36545Y-20715D01*
X36504Y-20617D01*
X36430Y-20542D01*
X36332Y-20502D01*
X36226Y-20501D01*
X36129Y-20542D01*
X36054Y-20616D01*
X36013Y-20714D01*
X36013Y-20820D01*
X36054Y-20918D01*
X36102Y-20966D01*
X36102Y-21130D01*
X36054Y-21178D01*
X36013Y-21275D01*
X36013Y-21381D01*
X36054Y-21479D01*
X36128Y-21553D01*
X36175Y-21573D01*
X35676Y-22072D01*
X35608Y-22072D01*
X35511Y-22113D01*
X35436Y-22187D01*
X35395Y-22285D01*
X35395Y-22391D01*
X35435Y-22488D01*
X35510Y-22563D01*
X35608Y-22604D01*
X35714Y-22604D01*
X35811Y-22564D01*
X35886Y-22489D01*
X35927Y-22391D01*
X35927Y-22323D01*
X37801Y-20448D01*
X39891Y-20448D01*
X39919Y-20516D01*
X40041Y-20638D01*
X40124Y-20673D01*
X40042Y-20707D01*
X39920Y-20829D01*
X39854Y-20988D01*
X39854Y-21160D01*
X39919Y-21319D01*
X40041Y-21441D01*
X40124Y-21476D01*
X40042Y-21510D01*
X39920Y-21632D01*
X39854Y-21791D01*
X39854Y-21963D01*
X39919Y-22123D01*
X40041Y-22245D01*
X40200Y-22311D01*
X40373Y-22311D01*
X40532Y-22245D01*
X40654Y-22123D01*
X40720Y-21964D01*
X40720Y-21821D01*
X40742Y-21843D01*
X40901Y-21909D01*
X41073Y-21909D01*
X41233Y-21843D01*
X41355Y-21722D01*
X41421Y-21562D01*
X41421Y-21390D01*
X41421Y-22328D01*
X41262Y-22486D01*
X41132Y-22801D01*
X41131Y-23142D01*
X41261Y-23456D01*
X41502Y-23697D01*
X41817Y-23828D01*
X42157Y-23828D01*
X42472Y-23698D01*
X42713Y-23458D01*
X42844Y-23143D01*
X42844Y-22802D01*
X42844Y-25676D01*
X42714Y-25362D01*
X42473Y-25120D01*
X42159Y-24990D01*
X41818Y-24990D01*
X41503Y-25120D01*
X41262Y-25360D01*
X41208Y-25490D01*
X41208Y-25032D01*
X41208Y-23560D01*
X41122Y-23350D01*
X40961Y-23189D01*
X40751Y-23102D01*
X40524Y-23102D01*
X40314Y-23188D01*
X40154Y-23349D01*
X40067Y-23559D01*
X40066Y-23786D01*
X40153Y-23996D01*
X40314Y-24156D01*
X40523Y-24243D01*
X40750Y-24244D01*
X40960Y-24157D01*
X41121Y-23997D01*
X41208Y-23787D01*
X41208Y-23560D01*
X41208Y-25032D01*
X41122Y-24822D01*
X40961Y-24661D01*
X40751Y-24574D01*
X40524Y-24574D01*
X40314Y-24661D01*
X40154Y-24821D01*
X40067Y-25031D01*
X40066Y-25258D01*
X40153Y-25468D01*
X40314Y-25629D01*
X40523Y-25716D01*
X40750Y-25716D01*
X40960Y-25629D01*
X41121Y-25469D01*
X41208Y-25259D01*
X41208Y-25032D01*
X41208Y-25490D01*
X41132Y-25675D01*
X41131Y-26016D01*
X41261Y-26330D01*
X41502Y-26571D01*
X41817Y-26702D01*
X42157Y-26702D01*
X42472Y-26572D01*
X42713Y-26332D01*
X42844Y-26017D01*
X42844Y-25676D01*
X42844Y-30676D01*
X42714Y-30362D01*
X42473Y-30120D01*
X42159Y-29990D01*
X41818Y-29990D01*
X41523Y-30111D01*
X41523Y-28442D01*
X41523Y-26836D01*
X41442Y-26639D01*
X41440Y-26636D01*
X41345Y-26611D01*
X41317Y-26639D01*
X41317Y-26584D01*
X41292Y-26488D01*
X41096Y-26406D01*
X40883Y-26405D01*
X40686Y-26486D01*
X40683Y-26488D01*
X40659Y-26584D01*
X40988Y-26913D01*
X41317Y-26584D01*
X41317Y-26639D01*
X41016Y-26940D01*
X41345Y-27270D01*
X41440Y-27245D01*
X41522Y-27049D01*
X41523Y-26836D01*
X41523Y-28442D01*
X41442Y-28245D01*
X41440Y-28242D01*
X41345Y-28218D01*
X41016Y-28547D01*
X41345Y-28876D01*
X41440Y-28851D01*
X41522Y-28655D01*
X41523Y-28442D01*
X41523Y-30111D01*
X41503Y-30120D01*
X41262Y-30360D01*
X41132Y-30675D01*
X41131Y-31016D01*
X41261Y-31330D01*
X41502Y-31571D01*
X41817Y-31702D01*
X42157Y-31702D01*
X42472Y-31572D01*
X42713Y-31332D01*
X42844Y-31017D01*
X42844Y-30676D01*
X42844Y-33550D01*
X42714Y-33236D01*
X42473Y-32994D01*
X42159Y-32864D01*
X41818Y-32864D01*
X41503Y-32994D01*
X41262Y-33234D01*
X41208Y-33364D01*
X41208Y-32906D01*
X41208Y-31434D01*
X41122Y-31224D01*
X40961Y-31063D01*
X40751Y-30976D01*
X40524Y-30976D01*
X40314Y-31063D01*
X40196Y-31180D01*
X40154Y-31223D01*
X40067Y-31433D01*
X40066Y-31660D01*
X40153Y-31870D01*
X40196Y-31913D01*
X40314Y-32030D01*
X40523Y-32118D01*
X40750Y-32118D01*
X40960Y-32031D01*
X41121Y-31871D01*
X41208Y-31661D01*
X41208Y-31434D01*
X41208Y-32906D01*
X41122Y-32696D01*
X40961Y-32536D01*
X40751Y-32448D01*
X40524Y-32448D01*
X40314Y-32535D01*
X40196Y-32653D01*
X40154Y-32695D01*
X40067Y-32905D01*
X40066Y-33132D01*
X40153Y-33342D01*
X40196Y-33386D01*
X40314Y-33503D01*
X40523Y-33590D01*
X40750Y-33590D01*
X40960Y-33503D01*
X41121Y-33343D01*
X41208Y-33133D01*
X41208Y-32906D01*
X41208Y-33364D01*
X41132Y-33549D01*
X41131Y-33890D01*
X41261Y-34204D01*
X41502Y-34445D01*
X41817Y-34576D01*
X42157Y-34576D01*
X42472Y-34446D01*
X42713Y-34206D01*
X42844Y-33891D01*
X42844Y-33550D01*
X42844Y-38550D01*
X42714Y-38236D01*
X42473Y-37994D01*
X42159Y-37864D01*
X41818Y-37864D01*
X41523Y-37986D01*
X41523Y-36316D01*
X41523Y-34710D01*
X41442Y-34513D01*
X41440Y-34510D01*
X41345Y-34485D01*
X41317Y-34513D01*
X41317Y-34458D01*
X41292Y-34362D01*
X41096Y-34280D01*
X40883Y-34279D01*
X40686Y-34360D01*
X40683Y-34362D01*
X40659Y-34458D01*
X40988Y-34787D01*
X41317Y-34458D01*
X41317Y-34513D01*
X41016Y-34814D01*
X41345Y-35144D01*
X41440Y-35119D01*
X41522Y-34923D01*
X41523Y-34710D01*
X41523Y-36316D01*
X41442Y-36119D01*
X41440Y-36116D01*
X41345Y-36092D01*
X41016Y-36421D01*
X41345Y-36750D01*
X41440Y-36725D01*
X41522Y-36529D01*
X41523Y-36316D01*
X41523Y-37986D01*
X41503Y-37994D01*
X41421Y-38076D01*
X41421Y-37138D01*
X41355Y-36979D01*
X41263Y-36886D01*
X41289Y-36875D01*
X41292Y-36873D01*
X41317Y-36778D01*
X40988Y-36449D01*
X40982Y-36454D01*
X40954Y-36426D01*
X40960Y-36421D01*
X40954Y-36415D01*
X40982Y-36387D01*
X40988Y-36393D01*
X41317Y-36064D01*
X41292Y-35968D01*
X41262Y-35956D01*
X41355Y-35863D01*
X41421Y-35704D01*
X41421Y-35532D01*
X41355Y-35372D01*
X41263Y-35280D01*
X41289Y-35269D01*
X41292Y-35267D01*
X41317Y-35171D01*
X40988Y-34842D01*
X40982Y-34848D01*
X40954Y-34820D01*
X40960Y-34814D01*
X40631Y-34485D01*
X40535Y-34510D01*
X40453Y-34706D01*
X40453Y-34816D01*
X40373Y-34783D01*
X40201Y-34783D01*
X40196Y-34785D01*
X40042Y-34848D01*
X39920Y-34970D01*
X39854Y-35129D01*
X39854Y-35302D01*
X39877Y-35359D01*
X38637Y-34119D01*
X38637Y-32820D01*
X38681Y-32776D01*
X38722Y-32679D01*
X38722Y-32573D01*
X38682Y-32475D01*
X38607Y-32400D01*
X38509Y-32360D01*
X38404Y-32360D01*
X38306Y-32400D01*
X38231Y-32475D01*
X38190Y-32572D01*
X38190Y-32678D01*
X38231Y-32776D01*
X38283Y-32828D01*
X38283Y-34192D01*
X38296Y-34260D01*
X38335Y-34318D01*
X39882Y-35865D01*
X39854Y-35933D01*
X39854Y-36105D01*
X39919Y-36264D01*
X40041Y-36386D01*
X40124Y-36421D01*
X40042Y-36455D01*
X39920Y-36577D01*
X39891Y-36645D01*
X39884Y-36645D01*
X38165Y-34926D01*
X38165Y-32556D01*
X38213Y-32508D01*
X38253Y-32411D01*
X38253Y-32305D01*
X38213Y-32207D01*
X38138Y-32133D01*
X38041Y-32092D01*
X37935Y-32092D01*
X37837Y-32132D01*
X37763Y-32207D01*
X37722Y-32305D01*
X37722Y-32410D01*
X37762Y-32508D01*
X37811Y-32556D01*
X37811Y-35000D01*
X37824Y-35067D01*
X37862Y-35125D01*
X39685Y-36948D01*
X39743Y-36986D01*
X39743Y-36986D01*
X39811Y-37000D01*
X39891Y-37000D01*
X39919Y-37067D01*
X40041Y-37189D01*
X40124Y-37224D01*
X40042Y-37258D01*
X39920Y-37380D01*
X39854Y-37539D01*
X39854Y-37711D01*
X39919Y-37871D01*
X40041Y-37993D01*
X40196Y-38057D01*
X40200Y-38059D01*
X40373Y-38059D01*
X40532Y-37993D01*
X40654Y-37871D01*
X40720Y-37712D01*
X40720Y-37569D01*
X40742Y-37591D01*
X40901Y-37657D01*
X41073Y-37657D01*
X41233Y-37591D01*
X41355Y-37470D01*
X41421Y-37310D01*
X41421Y-37138D01*
X41421Y-38076D01*
X41262Y-38234D01*
X41132Y-38549D01*
X41131Y-38890D01*
X41261Y-39204D01*
X41502Y-39445D01*
X41817Y-39576D01*
X42157Y-39576D01*
X42472Y-39446D01*
X42713Y-39206D01*
X42844Y-38891D01*
X42844Y-38550D01*
X42844Y-40996D01*
X42389Y-40807D01*
X41864Y-40806D01*
X41379Y-41007D01*
X41208Y-41178D01*
X41208Y-39308D01*
X41122Y-39098D01*
X40961Y-38937D01*
X40751Y-38850D01*
X40524Y-38850D01*
X40314Y-38937D01*
X40196Y-39054D01*
X40154Y-39097D01*
X40067Y-39307D01*
X40066Y-39534D01*
X40153Y-39744D01*
X40196Y-39787D01*
X40314Y-39904D01*
X40523Y-39992D01*
X40750Y-39992D01*
X40960Y-39905D01*
X41121Y-39745D01*
X41208Y-39535D01*
X41208Y-39308D01*
X41208Y-41178D01*
X41008Y-41377D01*
X40807Y-41862D01*
X40806Y-42387D01*
X41007Y-42872D01*
X41377Y-43243D01*
X41862Y-43444D01*
X42387Y-43445D01*
X42872Y-43244D01*
X43243Y-42874D01*
X43444Y-42389D01*
X43445Y-41864D01*
X43445Y-53675D01*
X43244Y-53190D01*
X42874Y-52819D01*
X42844Y-52807D01*
X42844Y-50361D01*
X42844Y-45361D01*
X42714Y-45047D01*
X42473Y-44805D01*
X42159Y-44675D01*
X41818Y-44675D01*
X41503Y-44805D01*
X41262Y-45045D01*
X41208Y-45175D01*
X41208Y-44717D01*
X41122Y-44507D01*
X40961Y-44347D01*
X40751Y-44259D01*
X40524Y-44259D01*
X40314Y-44346D01*
X40196Y-44464D01*
X40154Y-44506D01*
X40067Y-44716D01*
X40066Y-44943D01*
X40153Y-45153D01*
X40196Y-45197D01*
X40314Y-45314D01*
X40523Y-45401D01*
X40750Y-45401D01*
X40960Y-45314D01*
X41121Y-45154D01*
X41208Y-44944D01*
X41208Y-44717D01*
X41208Y-45175D01*
X41132Y-45360D01*
X41131Y-45701D01*
X41261Y-46015D01*
X41502Y-46257D01*
X41817Y-46387D01*
X42157Y-46387D01*
X42472Y-46257D01*
X42713Y-46017D01*
X42844Y-45702D01*
X42844Y-45361D01*
X42844Y-50361D01*
X42714Y-50047D01*
X42473Y-49805D01*
X42159Y-49675D01*
X41818Y-49675D01*
X41523Y-49797D01*
X41523Y-48127D01*
X41523Y-46521D01*
X41442Y-46324D01*
X41440Y-46321D01*
X41345Y-46296D01*
X41317Y-46324D01*
X41317Y-46269D01*
X41292Y-46173D01*
X41096Y-46091D01*
X40883Y-46090D01*
X40686Y-46171D01*
X40683Y-46173D01*
X40659Y-46269D01*
X40988Y-46598D01*
X41317Y-46269D01*
X41317Y-46324D01*
X41016Y-46625D01*
X41345Y-46955D01*
X41440Y-46930D01*
X41522Y-46734D01*
X41523Y-46521D01*
X41523Y-48127D01*
X41442Y-47930D01*
X41440Y-47927D01*
X41345Y-47903D01*
X41016Y-48232D01*
X41345Y-48561D01*
X41440Y-48536D01*
X41522Y-48340D01*
X41523Y-48127D01*
X41523Y-49797D01*
X41503Y-49805D01*
X41421Y-49887D01*
X41421Y-48949D01*
X41355Y-48790D01*
X41263Y-48697D01*
X41289Y-48686D01*
X41292Y-48684D01*
X41317Y-48589D01*
X40988Y-48260D01*
X40982Y-48265D01*
X40954Y-48237D01*
X40960Y-48232D01*
X40954Y-48226D01*
X40982Y-48198D01*
X40988Y-48204D01*
X41317Y-47875D01*
X41292Y-47779D01*
X41262Y-47767D01*
X41355Y-47674D01*
X41421Y-47515D01*
X41421Y-47343D01*
X41355Y-47184D01*
X41263Y-47091D01*
X41289Y-47080D01*
X41292Y-47078D01*
X41317Y-46982D01*
X40988Y-46653D01*
X40982Y-46659D01*
X40954Y-46631D01*
X40960Y-46625D01*
X40631Y-46296D01*
X40535Y-46321D01*
X40453Y-46517D01*
X40453Y-46627D01*
X40373Y-46594D01*
X40201Y-46594D01*
X40196Y-46596D01*
X40042Y-46660D01*
X39920Y-46781D01*
X39854Y-46940D01*
X39854Y-47113D01*
X39919Y-47272D01*
X40041Y-47394D01*
X40124Y-47429D01*
X40042Y-47463D01*
X39920Y-47584D01*
X39854Y-47744D01*
X39854Y-47916D01*
X39919Y-48075D01*
X40041Y-48197D01*
X40124Y-48232D01*
X40042Y-48266D01*
X39920Y-48388D01*
X39891Y-48456D01*
X38228Y-48456D01*
X38228Y-46507D01*
X38180Y-46392D01*
X37476Y-45688D01*
X37440Y-45602D01*
X37440Y-30390D01*
X37476Y-30354D01*
X40114Y-30354D01*
X40196Y-30272D01*
X40196Y-30183D01*
X40200Y-30185D01*
X40373Y-30185D01*
X40532Y-30119D01*
X40654Y-29997D01*
X40720Y-29838D01*
X40720Y-29695D01*
X40742Y-29717D01*
X40901Y-29783D01*
X41073Y-29783D01*
X41233Y-29717D01*
X41355Y-29596D01*
X41421Y-29436D01*
X41421Y-29264D01*
X41355Y-29105D01*
X41263Y-29012D01*
X41289Y-29001D01*
X41292Y-28999D01*
X41317Y-28904D01*
X40988Y-28575D01*
X40982Y-28580D01*
X40954Y-28552D01*
X40960Y-28547D01*
X40954Y-28541D01*
X40982Y-28513D01*
X40988Y-28519D01*
X41317Y-28190D01*
X41292Y-28094D01*
X41262Y-28082D01*
X41355Y-27989D01*
X41421Y-27830D01*
X41421Y-27658D01*
X41355Y-27498D01*
X41263Y-27406D01*
X41289Y-27395D01*
X41292Y-27393D01*
X41317Y-27297D01*
X40988Y-26968D01*
X40982Y-26974D01*
X40954Y-26946D01*
X40960Y-26940D01*
X40631Y-26611D01*
X40535Y-26636D01*
X40453Y-26832D01*
X40453Y-26942D01*
X40373Y-26909D01*
X40201Y-26909D01*
X40042Y-26974D01*
X39920Y-27096D01*
X39854Y-27255D01*
X39854Y-27428D01*
X39919Y-27587D01*
X40041Y-27709D01*
X40124Y-27744D01*
X40080Y-27762D01*
X38526Y-26209D01*
X38469Y-26170D01*
X38401Y-26157D01*
X37738Y-26157D01*
X37690Y-26109D01*
X37592Y-26068D01*
X37541Y-26068D01*
X34327Y-22854D01*
X34291Y-22767D01*
X34291Y-18964D01*
X34327Y-18878D01*
X36605Y-16599D01*
X36653Y-16484D01*
X36653Y-14224D01*
X36605Y-14109D01*
X35890Y-13394D01*
X35775Y-13346D01*
X33897Y-13346D01*
X33897Y-7107D01*
X33897Y-6107D01*
X33831Y-5947D01*
X33710Y-5825D01*
X33551Y-5759D01*
X33378Y-5759D01*
X33219Y-5825D01*
X33097Y-5947D01*
X33031Y-6106D01*
X33031Y-6278D01*
X33097Y-6437D01*
X33218Y-6559D01*
X33378Y-6625D01*
X33550Y-6626D01*
X33709Y-6560D01*
X33831Y-6438D01*
X33897Y-6279D01*
X33897Y-6107D01*
X33897Y-7107D01*
X33831Y-6947D01*
X33710Y-6825D01*
X33551Y-6759D01*
X33378Y-6759D01*
X33219Y-6825D01*
X33097Y-6947D01*
X33031Y-7106D01*
X33031Y-7278D01*
X33097Y-7437D01*
X33218Y-7559D01*
X33378Y-7625D01*
X33550Y-7626D01*
X33709Y-7560D01*
X33831Y-7438D01*
X33897Y-7279D01*
X33897Y-7107D01*
X33897Y-13346D01*
X32118Y-13346D01*
X32118Y-8068D01*
X32031Y-7858D01*
X31871Y-7697D01*
X31702Y-7627D01*
X31702Y-6661D01*
X31572Y-6346D01*
X31332Y-6105D01*
X31017Y-5974D01*
X30676Y-5974D01*
X30362Y-6104D01*
X30120Y-6345D01*
X29990Y-6659D01*
X29990Y-7000D01*
X30120Y-7315D01*
X30360Y-7556D01*
X30675Y-7686D01*
X31016Y-7687D01*
X31330Y-7557D01*
X31571Y-7316D01*
X31702Y-7001D01*
X31702Y-6661D01*
X31702Y-7627D01*
X31661Y-7610D01*
X31434Y-7610D01*
X31224Y-7696D01*
X31063Y-7857D01*
X30976Y-8067D01*
X30976Y-8294D01*
X31063Y-8504D01*
X31223Y-8664D01*
X31433Y-8751D01*
X31660Y-8752D01*
X31870Y-8665D01*
X32030Y-8504D01*
X32118Y-8295D01*
X32118Y-8068D01*
X32118Y-13346D01*
X30185Y-13346D01*
X30185Y-8445D01*
X30119Y-8286D01*
X29997Y-8164D01*
X29838Y-8098D01*
X29695Y-8098D01*
X29717Y-8076D01*
X29783Y-7917D01*
X29783Y-7744D01*
X29717Y-7585D01*
X29596Y-7463D01*
X29436Y-7397D01*
X29264Y-7397D01*
X29105Y-7463D01*
X29012Y-7555D01*
X29001Y-7529D01*
X28999Y-7526D01*
X28904Y-7501D01*
X28876Y-7529D01*
X28876Y-7473D01*
X28851Y-7378D01*
X28655Y-7296D01*
X28442Y-7295D01*
X28245Y-7376D01*
X28242Y-7378D01*
X28218Y-7473D01*
X28547Y-7802D01*
X28876Y-7473D01*
X28876Y-7529D01*
X28575Y-7830D01*
X28580Y-7836D01*
X28552Y-7864D01*
X28547Y-7858D01*
X28541Y-7864D01*
X28513Y-7836D01*
X28519Y-7830D01*
X28190Y-7501D01*
X28094Y-7526D01*
X28082Y-7556D01*
X27989Y-7463D01*
X27830Y-7397D01*
X27658Y-7397D01*
X27498Y-7463D01*
X27406Y-7555D01*
X27395Y-7529D01*
X27393Y-7526D01*
X27297Y-7501D01*
X27270Y-7529D01*
X27270Y-7473D01*
X27245Y-7378D01*
X27049Y-7296D01*
X26836Y-7295D01*
X26702Y-7350D01*
X26702Y-6661D01*
X26572Y-6346D01*
X26332Y-6105D01*
X26017Y-5974D01*
X25676Y-5974D01*
X25362Y-6104D01*
X25120Y-6345D01*
X24990Y-6659D01*
X24990Y-7000D01*
X25120Y-7315D01*
X25360Y-7556D01*
X25675Y-7686D01*
X26016Y-7687D01*
X26330Y-7557D01*
X26571Y-7316D01*
X26702Y-7001D01*
X26702Y-6661D01*
X26702Y-7350D01*
X26639Y-7376D01*
X26636Y-7378D01*
X26611Y-7473D01*
X26940Y-7802D01*
X27270Y-7473D01*
X27270Y-7529D01*
X26968Y-7830D01*
X26974Y-7836D01*
X26946Y-7864D01*
X26940Y-7858D01*
X26913Y-7886D01*
X26913Y-7830D01*
X26584Y-7501D01*
X26488Y-7526D01*
X26406Y-7722D01*
X26405Y-7935D01*
X26486Y-8132D01*
X26488Y-8135D01*
X26584Y-8159D01*
X26913Y-7830D01*
X26913Y-7886D01*
X26611Y-8187D01*
X26636Y-8283D01*
X26832Y-8365D01*
X26942Y-8365D01*
X26909Y-8444D01*
X26909Y-8617D01*
X26974Y-8776D01*
X27096Y-8898D01*
X27255Y-8964D01*
X27428Y-8964D01*
X27587Y-8899D01*
X27709Y-8777D01*
X27744Y-8694D01*
X27778Y-8776D01*
X27899Y-8898D01*
X28059Y-8964D01*
X28231Y-8964D01*
X28390Y-8899D01*
X28512Y-8777D01*
X28547Y-8694D01*
X28581Y-8776D01*
X28703Y-8898D01*
X28862Y-8964D01*
X29034Y-8964D01*
X29193Y-8899D01*
X29315Y-8777D01*
X29350Y-8694D01*
X29384Y-8776D01*
X29506Y-8898D01*
X29665Y-8964D01*
X29837Y-8964D01*
X29997Y-8899D01*
X30119Y-8777D01*
X30185Y-8618D01*
X30185Y-8445D01*
X30185Y-13346D01*
X25716Y-13346D01*
X25716Y-8068D01*
X25629Y-7858D01*
X25469Y-7697D01*
X25259Y-7610D01*
X25032Y-7610D01*
X24822Y-7696D01*
X24661Y-7857D01*
X24574Y-8067D01*
X24574Y-8294D01*
X24661Y-8504D01*
X24821Y-8664D01*
X25031Y-8751D01*
X25258Y-8752D01*
X25468Y-8665D01*
X25629Y-8504D01*
X25716Y-8295D01*
X25716Y-8068D01*
X25716Y-13346D01*
X24244Y-13346D01*
X24244Y-8068D01*
X24157Y-7858D01*
X23997Y-7697D01*
X23828Y-7627D01*
X23828Y-6661D01*
X23698Y-6346D01*
X23458Y-6105D01*
X23143Y-5974D01*
X22802Y-5974D01*
X22488Y-6104D01*
X22246Y-6345D01*
X22116Y-6659D01*
X22115Y-7000D01*
X22246Y-7315D01*
X22486Y-7556D01*
X22801Y-7686D01*
X23142Y-7687D01*
X23456Y-7557D01*
X23697Y-7316D01*
X23828Y-7001D01*
X23828Y-6661D01*
X23828Y-7627D01*
X23787Y-7610D01*
X23560Y-7610D01*
X23350Y-7696D01*
X23189Y-7857D01*
X23102Y-8067D01*
X23102Y-8294D01*
X23188Y-8504D01*
X23349Y-8664D01*
X23559Y-8751D01*
X23786Y-8752D01*
X23996Y-8665D01*
X24156Y-8504D01*
X24243Y-8295D01*
X24244Y-8068D01*
X24244Y-13346D01*
X22311Y-13346D01*
X22311Y-8445D01*
X22245Y-8286D01*
X22123Y-8164D01*
X21964Y-8098D01*
X21821Y-8098D01*
X21843Y-8076D01*
X21909Y-7917D01*
X21909Y-7744D01*
X21843Y-7585D01*
X21722Y-7463D01*
X21562Y-7397D01*
X21390Y-7397D01*
X21231Y-7463D01*
X21138Y-7555D01*
X21127Y-7529D01*
X21125Y-7526D01*
X21030Y-7501D01*
X21002Y-7529D01*
X21002Y-7473D01*
X20977Y-7378D01*
X20781Y-7296D01*
X20568Y-7295D01*
X20371Y-7376D01*
X20368Y-7378D01*
X20344Y-7473D01*
X20673Y-7802D01*
X21002Y-7473D01*
X21002Y-7529D01*
X20701Y-7830D01*
X20706Y-7836D01*
X20678Y-7864D01*
X20673Y-7858D01*
X20667Y-7864D01*
X20639Y-7836D01*
X20645Y-7830D01*
X20316Y-7501D01*
X20220Y-7526D01*
X20208Y-7556D01*
X20115Y-7463D01*
X19956Y-7397D01*
X19784Y-7397D01*
X19624Y-7463D01*
X19532Y-7555D01*
X19521Y-7529D01*
X19519Y-7526D01*
X19423Y-7501D01*
X19396Y-7529D01*
X19396Y-7473D01*
X19371Y-7378D01*
X19175Y-7296D01*
X18962Y-7295D01*
X18828Y-7350D01*
X18828Y-6661D01*
X18698Y-6346D01*
X18458Y-6105D01*
X18143Y-5974D01*
X17802Y-5974D01*
X17488Y-6104D01*
X17246Y-6345D01*
X17116Y-6659D01*
X17115Y-7000D01*
X17246Y-7315D01*
X17486Y-7556D01*
X17801Y-7686D01*
X18142Y-7687D01*
X18456Y-7557D01*
X18697Y-7316D01*
X18828Y-7001D01*
X18828Y-6661D01*
X18828Y-7350D01*
X18765Y-7376D01*
X18762Y-7378D01*
X18737Y-7473D01*
X19066Y-7802D01*
X19396Y-7473D01*
X19396Y-7529D01*
X19094Y-7830D01*
X19100Y-7836D01*
X19072Y-7864D01*
X19066Y-7858D01*
X19039Y-7886D01*
X19039Y-7830D01*
X18709Y-7501D01*
X18614Y-7526D01*
X18532Y-7722D01*
X18531Y-7935D01*
X18612Y-8132D01*
X18614Y-8135D01*
X18709Y-8159D01*
X19039Y-7830D01*
X19039Y-7886D01*
X18737Y-8187D01*
X18762Y-8283D01*
X18958Y-8365D01*
X19068Y-8365D01*
X19035Y-8444D01*
X19035Y-8617D01*
X19100Y-8776D01*
X19222Y-8898D01*
X19381Y-8964D01*
X19554Y-8964D01*
X19713Y-8899D01*
X19835Y-8777D01*
X19870Y-8694D01*
X19904Y-8776D01*
X20025Y-8898D01*
X20185Y-8964D01*
X20357Y-8964D01*
X20516Y-8899D01*
X20638Y-8777D01*
X20673Y-8694D01*
X20707Y-8776D01*
X20829Y-8898D01*
X20988Y-8964D01*
X21160Y-8964D01*
X21319Y-8899D01*
X21441Y-8777D01*
X21476Y-8694D01*
X21510Y-8776D01*
X21632Y-8898D01*
X21791Y-8964D01*
X21963Y-8964D01*
X22123Y-8899D01*
X22245Y-8777D01*
X22311Y-8618D01*
X22311Y-8445D01*
X22311Y-13346D01*
X17842Y-13346D01*
X17842Y-8068D01*
X17755Y-7858D01*
X17595Y-7697D01*
X17385Y-7610D01*
X17158Y-7610D01*
X16948Y-7696D01*
X16787Y-7857D01*
X16700Y-8067D01*
X16700Y-8294D01*
X16787Y-8504D01*
X16947Y-8664D01*
X17157Y-8751D01*
X17384Y-8752D01*
X17594Y-8665D01*
X17755Y-8504D01*
X17842Y-8295D01*
X17842Y-8068D01*
X17842Y-13346D01*
X16192Y-13346D01*
X16077Y-13394D01*
X15787Y-13684D01*
X15787Y-7107D01*
X15787Y-6107D01*
X15721Y-5947D01*
X15599Y-5825D01*
X15440Y-5759D01*
X15268Y-5759D01*
X15109Y-5825D01*
X14987Y-5947D01*
X14921Y-6106D01*
X14921Y-6278D01*
X14986Y-6437D01*
X15108Y-6559D01*
X15267Y-6625D01*
X15440Y-6626D01*
X15599Y-6560D01*
X15721Y-6438D01*
X15787Y-6279D01*
X15787Y-6107D01*
X15787Y-7107D01*
X15721Y-6947D01*
X15599Y-6825D01*
X15440Y-6759D01*
X15268Y-6759D01*
X15109Y-6825D01*
X14987Y-6947D01*
X14921Y-7106D01*
X14921Y-7278D01*
X14986Y-7437D01*
X15108Y-7559D01*
X15267Y-7625D01*
X15440Y-7626D01*
X15599Y-7560D01*
X15721Y-7438D01*
X15787Y-7279D01*
X15787Y-7107D01*
X15787Y-13684D01*
X15362Y-14109D01*
X15314Y-14224D01*
X15314Y-18133D01*
X15285Y-18204D01*
X15285Y-18310D01*
X15314Y-18382D01*
X15314Y-30767D01*
X14753Y-30767D01*
X14753Y-17703D01*
X14713Y-17605D01*
X14638Y-17530D01*
X14541Y-17490D01*
X14472Y-17490D01*
X12500Y-15517D01*
X12500Y-14988D01*
X12512Y-15007D01*
X14222Y-16717D01*
X14222Y-16784D01*
X14262Y-16882D01*
X14337Y-16957D01*
X14435Y-16997D01*
X14540Y-16998D01*
X14638Y-16957D01*
X14713Y-16883D01*
X14753Y-16785D01*
X14753Y-16679D01*
X14713Y-16581D01*
X14638Y-16507D01*
X14541Y-16466D01*
X14472Y-16466D01*
X12814Y-14808D01*
X12814Y-14325D01*
X14222Y-15732D01*
X14222Y-15800D01*
X14262Y-15898D01*
X14337Y-15973D01*
X14435Y-16013D01*
X14540Y-16013D01*
X14638Y-15973D01*
X14713Y-15898D01*
X14753Y-15801D01*
X14753Y-15695D01*
X14713Y-15597D01*
X14638Y-15522D01*
X14541Y-15482D01*
X14472Y-15482D01*
X13090Y-14099D01*
X13090Y-13610D01*
X13103Y-13629D01*
X14222Y-14748D01*
X14222Y-14816D01*
X14262Y-14914D01*
X14337Y-14988D01*
X14435Y-15029D01*
X14540Y-15029D01*
X14638Y-14989D01*
X14713Y-14914D01*
X14753Y-14816D01*
X14753Y-14711D01*
X14713Y-14613D01*
X14638Y-14538D01*
X14541Y-14498D01*
X14472Y-14498D01*
X13818Y-13844D01*
X13818Y-7107D01*
X13818Y-6107D01*
X13753Y-5947D01*
X13631Y-5825D01*
X13472Y-5759D01*
X13300Y-5759D01*
X13140Y-5825D01*
X13018Y-5947D01*
X12952Y-6106D01*
X12952Y-6278D01*
X13018Y-6437D01*
X13140Y-6559D01*
X13299Y-6625D01*
X13471Y-6626D01*
X13630Y-6560D01*
X13752Y-6438D01*
X13818Y-6279D01*
X13818Y-6107D01*
X13818Y-7107D01*
X13753Y-6947D01*
X13631Y-6825D01*
X13472Y-6759D01*
X13300Y-6759D01*
X13140Y-6825D01*
X13018Y-6947D01*
X12952Y-7106D01*
X12952Y-7278D01*
X13018Y-7437D01*
X13140Y-7559D01*
X13299Y-7625D01*
X13471Y-7626D01*
X13630Y-7560D01*
X13752Y-7438D01*
X13818Y-7279D01*
X13818Y-7107D01*
X13818Y-13844D01*
X13405Y-13430D01*
X13405Y-9923D01*
X13453Y-9875D01*
X13494Y-9777D01*
X13494Y-9671D01*
X13453Y-9574D01*
X13379Y-9499D01*
X13281Y-9458D01*
X13175Y-9458D01*
X13078Y-9498D01*
X13003Y-9573D01*
X12962Y-9671D01*
X12962Y-9734D01*
X12860Y-9734D01*
X12763Y-9774D01*
X12688Y-9849D01*
X12647Y-9946D01*
X12647Y-10009D01*
X12585Y-10009D01*
X12487Y-10050D01*
X12412Y-10124D01*
X12392Y-10174D01*
X12375Y-10167D01*
X12270Y-10167D01*
X12172Y-10207D01*
X12097Y-10282D01*
X12057Y-10379D01*
X12057Y-10485D01*
X12097Y-10583D01*
X12145Y-10631D01*
X12145Y-15590D01*
X12159Y-15658D01*
X12197Y-15715D01*
X14222Y-17740D01*
X14222Y-17808D01*
X14262Y-17906D01*
X14337Y-17981D01*
X14435Y-18021D01*
X14540Y-18021D01*
X14638Y-17981D01*
X14713Y-17906D01*
X14753Y-17808D01*
X14753Y-17703D01*
X14753Y-30767D01*
X11850Y-30767D01*
X11850Y-7107D01*
X11850Y-6107D01*
X11784Y-5947D01*
X11662Y-5825D01*
X11503Y-5759D01*
X11331Y-5759D01*
X11172Y-5825D01*
X11050Y-5947D01*
X10984Y-6106D01*
X10984Y-6278D01*
X11049Y-6437D01*
X11171Y-6559D01*
X11330Y-6625D01*
X11503Y-6626D01*
X11662Y-6560D01*
X11784Y-6438D01*
X11850Y-6279D01*
X11850Y-6107D01*
X11850Y-7107D01*
X11784Y-6947D01*
X11662Y-6825D01*
X11503Y-6759D01*
X11331Y-6759D01*
X11172Y-6825D01*
X11050Y-6947D01*
X10984Y-7106D01*
X10984Y-7278D01*
X11049Y-7437D01*
X11171Y-7559D01*
X11330Y-7625D01*
X11503Y-7626D01*
X11662Y-7560D01*
X11784Y-7438D01*
X11850Y-7279D01*
X11850Y-7107D01*
X11850Y-30767D01*
X9876Y-30767D01*
X8948Y-29839D01*
X8964Y-29799D01*
X8964Y-29626D01*
X8931Y-29546D01*
X9709Y-28769D01*
X9777Y-28769D01*
X9874Y-28729D01*
X9949Y-28654D01*
X9990Y-28557D01*
X9990Y-28451D01*
X9949Y-28353D01*
X9881Y-28285D01*
X9881Y-7107D01*
X9881Y-6107D01*
X9816Y-5947D01*
X9694Y-5825D01*
X9535Y-5759D01*
X9363Y-5759D01*
X9203Y-5825D01*
X9081Y-5947D01*
X9015Y-6106D01*
X9015Y-6278D01*
X9081Y-6437D01*
X9203Y-6559D01*
X9362Y-6625D01*
X9534Y-6626D01*
X9693Y-6560D01*
X9815Y-6438D01*
X9881Y-6279D01*
X9881Y-6107D01*
X9881Y-7107D01*
X9816Y-6947D01*
X9694Y-6825D01*
X9535Y-6759D01*
X9363Y-6759D01*
X9203Y-6825D01*
X9081Y-6947D01*
X9015Y-7106D01*
X9015Y-7278D01*
X9081Y-7437D01*
X9203Y-7559D01*
X9362Y-7625D01*
X9534Y-7626D01*
X9693Y-7560D01*
X9815Y-7438D01*
X9881Y-7279D01*
X9881Y-7107D01*
X9881Y-28285D01*
X9875Y-28278D01*
X9777Y-28238D01*
X9671Y-28238D01*
X9574Y-28278D01*
X9499Y-28353D01*
X9458Y-28450D01*
X9458Y-28519D01*
X8952Y-29025D01*
X8964Y-28996D01*
X8964Y-28823D01*
X8899Y-28664D01*
X8777Y-28542D01*
X8752Y-28531D01*
X8752Y-27001D01*
X8665Y-26791D01*
X8504Y-26630D01*
X8295Y-26543D01*
X8068Y-26543D01*
X8012Y-26566D01*
X8012Y-6431D01*
X7811Y-5946D01*
X7440Y-5575D01*
X6956Y-5374D01*
X6431Y-5373D01*
X5946Y-5574D01*
X5575Y-5944D01*
X5374Y-6429D01*
X5373Y-6954D01*
X5574Y-7439D01*
X5944Y-7810D01*
X6429Y-8011D01*
X6954Y-8012D01*
X7439Y-7811D01*
X7810Y-7440D01*
X8011Y-6956D01*
X8012Y-6431D01*
X8012Y-26566D01*
X7858Y-26629D01*
X7697Y-26790D01*
X7610Y-27000D01*
X7610Y-27227D01*
X7696Y-27437D01*
X7857Y-27597D01*
X8067Y-27684D01*
X8294Y-27685D01*
X8504Y-27598D01*
X8664Y-27437D01*
X8751Y-27228D01*
X8752Y-27001D01*
X8752Y-28531D01*
X8618Y-28476D01*
X8445Y-28476D01*
X8286Y-28541D01*
X8164Y-28663D01*
X8098Y-28822D01*
X8098Y-28965D01*
X8076Y-28943D01*
X7917Y-28877D01*
X7744Y-28877D01*
X7687Y-28901D01*
X7687Y-27645D01*
X7557Y-27330D01*
X7316Y-27089D01*
X7001Y-26958D01*
X6661Y-26958D01*
X6346Y-27088D01*
X6105Y-27329D01*
X5974Y-27643D01*
X5974Y-27984D01*
X6104Y-28299D01*
X6345Y-28540D01*
X6659Y-28671D01*
X7000Y-28671D01*
X7315Y-28541D01*
X7556Y-28300D01*
X7686Y-27986D01*
X7687Y-27645D01*
X7687Y-28901D01*
X7585Y-28943D01*
X7463Y-29065D01*
X7397Y-29224D01*
X7397Y-29396D01*
X7463Y-29556D01*
X7555Y-29648D01*
X7529Y-29659D01*
X7526Y-29661D01*
X7501Y-29757D01*
X7830Y-30086D01*
X7836Y-30080D01*
X7864Y-30108D01*
X7858Y-30114D01*
X7864Y-30119D01*
X7836Y-30147D01*
X7830Y-30142D01*
X7802Y-30169D01*
X7802Y-30114D01*
X7473Y-29785D01*
X7378Y-29809D01*
X7296Y-30006D01*
X7295Y-30218D01*
X7376Y-30415D01*
X7378Y-30418D01*
X7473Y-30443D01*
X7802Y-30114D01*
X7802Y-30169D01*
X7501Y-30471D01*
X7526Y-30566D01*
X7556Y-30579D01*
X7463Y-30671D01*
X7397Y-30830D01*
X7397Y-31003D01*
X7463Y-31162D01*
X7555Y-31255D01*
X7529Y-31266D01*
X7526Y-31267D01*
X7501Y-31363D01*
X7830Y-31692D01*
X7836Y-31687D01*
X7864Y-31714D01*
X7858Y-31720D01*
X8187Y-32049D01*
X8283Y-32024D01*
X8365Y-31828D01*
X8365Y-31719D01*
X8444Y-31752D01*
X8617Y-31752D01*
X8776Y-31686D01*
X8898Y-31564D01*
X8964Y-31405D01*
X8964Y-31233D01*
X8899Y-31073D01*
X8777Y-30951D01*
X8694Y-30917D01*
X8776Y-30883D01*
X8898Y-30761D01*
X8927Y-30692D01*
X9064Y-30692D01*
X9638Y-31267D01*
X9695Y-31305D01*
X9695Y-31305D01*
X9763Y-31318D01*
X12879Y-31318D01*
X12652Y-31545D01*
X12585Y-31545D01*
X12487Y-31585D01*
X12412Y-31660D01*
X12372Y-31757D01*
X12372Y-31863D01*
X12412Y-31961D01*
X12487Y-32036D01*
X12584Y-32076D01*
X12690Y-32076D01*
X12788Y-32036D01*
X12862Y-31961D01*
X12903Y-31864D01*
X12903Y-31795D01*
X13203Y-31496D01*
X15182Y-31496D01*
X20255Y-36569D01*
X20255Y-40076D01*
X20207Y-40124D01*
X20167Y-40222D01*
X20167Y-40328D01*
X20207Y-40425D01*
X20282Y-40500D01*
X20379Y-40541D01*
X20485Y-40541D01*
X20583Y-40501D01*
X20658Y-40426D01*
X20698Y-40328D01*
X20698Y-40222D01*
X20658Y-40125D01*
X20610Y-40076D01*
X20610Y-36496D01*
X20596Y-36428D01*
X20558Y-36370D01*
X19108Y-34921D01*
X19140Y-34921D01*
X19595Y-35375D01*
X19658Y-35418D01*
X19734Y-35433D01*
X21511Y-35433D01*
X21564Y-35486D01*
X21673Y-35531D01*
X21790Y-35531D01*
X21899Y-35486D01*
X21982Y-35403D01*
X22027Y-35295D01*
X22027Y-35177D01*
X21982Y-35069D01*
X21899Y-34986D01*
X21791Y-34940D01*
X21673Y-34940D01*
X21565Y-34985D01*
X21511Y-35039D01*
X19815Y-35039D01*
X19419Y-34642D01*
X19419Y-34567D01*
X19374Y-34458D01*
X19291Y-34375D01*
X19183Y-34330D01*
X19065Y-34330D01*
X18956Y-34375D01*
X18873Y-34458D01*
X18828Y-34566D01*
X18828Y-34641D01*
X15850Y-31662D01*
X15898Y-31642D01*
X15946Y-31594D01*
X23233Y-31594D01*
X26515Y-34876D01*
X26515Y-43464D01*
X26529Y-43532D01*
X26567Y-43589D01*
X32540Y-49562D01*
X32597Y-49600D01*
X32597Y-49600D01*
X32640Y-49609D01*
X32728Y-49645D01*
X38146Y-49645D01*
X38177Y-49614D01*
X39891Y-49614D01*
X39919Y-49682D01*
X40041Y-49804D01*
X40196Y-49868D01*
X40200Y-49870D01*
X40373Y-49870D01*
X40532Y-49804D01*
X40654Y-49682D01*
X40720Y-49523D01*
X40720Y-49380D01*
X40742Y-49402D01*
X40901Y-49468D01*
X41073Y-49468D01*
X41233Y-49402D01*
X41355Y-49281D01*
X41421Y-49121D01*
X41421Y-48949D01*
X41421Y-49887D01*
X41262Y-50045D01*
X41132Y-50360D01*
X41131Y-50701D01*
X41261Y-51015D01*
X41502Y-51257D01*
X41817Y-51387D01*
X42157Y-51387D01*
X42472Y-51257D01*
X42713Y-51017D01*
X42844Y-50702D01*
X42844Y-50361D01*
X42844Y-52807D01*
X42389Y-52618D01*
X41864Y-52617D01*
X41379Y-52818D01*
X41208Y-52989D01*
X41208Y-51119D01*
X41122Y-50909D01*
X40961Y-50748D01*
X40751Y-50661D01*
X40524Y-50661D01*
X40314Y-50748D01*
X40196Y-50865D01*
X40154Y-50908D01*
X40067Y-51118D01*
X40066Y-51345D01*
X40153Y-51555D01*
X40196Y-51598D01*
X40314Y-51715D01*
X40523Y-51803D01*
X40750Y-51803D01*
X40960Y-51716D01*
X41121Y-51556D01*
X41208Y-51346D01*
X41208Y-51119D01*
X41208Y-52989D01*
X41008Y-53188D01*
X40807Y-53673D01*
X40806Y-54198D01*
X41007Y-54683D01*
X41377Y-55054D01*
X41862Y-55255D01*
X42387Y-55256D01*
X42872Y-55055D01*
X43243Y-54685D01*
X43444Y-54200D01*
X43445Y-53675D01*
X43445Y-55748D01*
X40196Y-55748D01*
X36535Y-55748D01*
X36535Y-54351D01*
X36535Y-53351D01*
X36469Y-53192D01*
X36347Y-53070D01*
X36188Y-53004D01*
X36016Y-53003D01*
X35857Y-53069D01*
X35735Y-53191D01*
X35669Y-53350D01*
X35669Y-53522D01*
X35735Y-53682D01*
X35856Y-53803D01*
X36015Y-53870D01*
X36188Y-53870D01*
X36347Y-53804D01*
X36469Y-53682D01*
X36535Y-53523D01*
X36535Y-53351D01*
X36535Y-54351D01*
X36469Y-54192D01*
X36347Y-54070D01*
X36188Y-54004D01*
X36016Y-54003D01*
X35857Y-54069D01*
X35735Y-54191D01*
X35669Y-54350D01*
X35669Y-54522D01*
X35735Y-54682D01*
X35856Y-54803D01*
X36015Y-54870D01*
X36188Y-54870D01*
X36347Y-54804D01*
X36469Y-54682D01*
X36535Y-54523D01*
X36535Y-54351D01*
X36535Y-55748D01*
X32118Y-55748D01*
X32118Y-52335D01*
X32031Y-52125D01*
X31871Y-51965D01*
X31661Y-51878D01*
X31434Y-51877D01*
X31224Y-51964D01*
X31063Y-52125D01*
X30976Y-52334D01*
X30976Y-52561D01*
X31063Y-52771D01*
X31223Y-52932D01*
X31433Y-53019D01*
X31660Y-53019D01*
X31870Y-52933D01*
X32030Y-52772D01*
X32118Y-52562D01*
X32118Y-52335D01*
X32118Y-55748D01*
X31702Y-55748D01*
X31702Y-53629D01*
X31572Y-53314D01*
X31332Y-53073D01*
X31017Y-52943D01*
X30676Y-52942D01*
X30362Y-53072D01*
X30287Y-53147D01*
X30287Y-52694D01*
X30206Y-52497D01*
X30204Y-52494D01*
X30108Y-52470D01*
X30081Y-52497D01*
X30081Y-52442D01*
X30056Y-52346D01*
X29860Y-52264D01*
X29750Y-52264D01*
X29783Y-52184D01*
X29783Y-52012D01*
X29717Y-51853D01*
X29596Y-51731D01*
X29527Y-51702D01*
X29527Y-51003D01*
X29514Y-50936D01*
X29514Y-50936D01*
X29475Y-50878D01*
X25767Y-47170D01*
X25767Y-39371D01*
X25815Y-39323D01*
X25856Y-39226D01*
X25856Y-39120D01*
X25815Y-39022D01*
X25741Y-38948D01*
X25643Y-38907D01*
X25537Y-38907D01*
X25452Y-38942D01*
X25452Y-38348D01*
X25500Y-38300D01*
X25541Y-38202D01*
X25541Y-38096D01*
X25501Y-37999D01*
X25426Y-37924D01*
X25328Y-37883D01*
X25222Y-37883D01*
X25137Y-37919D01*
X25137Y-37395D01*
X25150Y-37390D01*
X25225Y-37316D01*
X25265Y-37218D01*
X25265Y-37112D01*
X25225Y-37015D01*
X25150Y-36940D01*
X25053Y-36899D01*
X24947Y-36899D01*
X24849Y-36939D01*
X24822Y-36966D01*
X24822Y-36340D01*
X24870Y-36292D01*
X24911Y-36194D01*
X24911Y-36089D01*
X24871Y-35991D01*
X24796Y-35916D01*
X24698Y-35876D01*
X24593Y-35875D01*
X24495Y-35916D01*
X24468Y-35943D01*
X24468Y-35356D01*
X24516Y-35308D01*
X24557Y-35210D01*
X24557Y-35104D01*
X24516Y-35007D01*
X24442Y-34932D01*
X24344Y-34891D01*
X24238Y-34891D01*
X24141Y-34932D01*
X24066Y-35006D01*
X24025Y-35104D01*
X24025Y-35210D01*
X24065Y-35307D01*
X24114Y-35356D01*
X24114Y-35982D01*
X24087Y-35955D01*
X23990Y-35915D01*
X23884Y-35915D01*
X23786Y-35955D01*
X23711Y-36030D01*
X23671Y-36128D01*
X23671Y-36233D01*
X23711Y-36331D01*
X23759Y-36379D01*
X23759Y-36966D01*
X23733Y-36940D01*
X23635Y-36899D01*
X23530Y-36899D01*
X23432Y-36939D01*
X23357Y-37014D01*
X23316Y-37112D01*
X23316Y-37217D01*
X23357Y-37315D01*
X23405Y-37364D01*
X23405Y-37950D01*
X23379Y-37924D01*
X23281Y-37883D01*
X23175Y-37883D01*
X23078Y-37924D01*
X23003Y-37998D01*
X22962Y-38096D01*
X22962Y-38202D01*
X23002Y-38299D01*
X23051Y-38348D01*
X23051Y-47170D01*
X18941Y-51280D01*
X18903Y-51337D01*
X18889Y-51405D01*
X18889Y-51702D01*
X18821Y-51730D01*
X18699Y-51852D01*
X18633Y-52011D01*
X18633Y-52184D01*
X18699Y-52343D01*
X18821Y-52465D01*
X18980Y-52531D01*
X19123Y-52531D01*
X19101Y-52553D01*
X19035Y-52712D01*
X19035Y-52885D01*
X19100Y-53044D01*
X19222Y-53166D01*
X19381Y-53232D01*
X19554Y-53232D01*
X19713Y-53166D01*
X19806Y-53074D01*
X19817Y-53100D01*
X19819Y-53103D01*
X19914Y-53128D01*
X20243Y-52799D01*
X20238Y-52793D01*
X20266Y-52765D01*
X20271Y-52771D01*
X20277Y-52765D01*
X20305Y-52793D01*
X20299Y-52799D01*
X20628Y-53128D01*
X20724Y-53103D01*
X20736Y-53073D01*
X20829Y-53166D01*
X20988Y-53232D01*
X21160Y-53232D01*
X21319Y-53166D01*
X21412Y-53074D01*
X21423Y-53100D01*
X21425Y-53103D01*
X21521Y-53128D01*
X21850Y-52799D01*
X21844Y-52793D01*
X21872Y-52765D01*
X21877Y-52771D01*
X22207Y-52442D01*
X22182Y-52346D01*
X21986Y-52264D01*
X21876Y-52264D01*
X21909Y-52184D01*
X21909Y-52012D01*
X21843Y-51853D01*
X21722Y-51731D01*
X21653Y-51702D01*
X21653Y-50447D01*
X24416Y-47684D01*
X24455Y-47626D01*
X24455Y-47626D01*
X24468Y-47559D01*
X24468Y-47795D01*
X24481Y-47863D01*
X24520Y-47920D01*
X26763Y-50163D01*
X26763Y-51702D01*
X26695Y-51730D01*
X26573Y-51852D01*
X26507Y-52011D01*
X26507Y-52184D01*
X26573Y-52343D01*
X26695Y-52465D01*
X26854Y-52531D01*
X26997Y-52531D01*
X26975Y-52553D01*
X26909Y-52712D01*
X26909Y-52885D01*
X26974Y-53044D01*
X27096Y-53166D01*
X27255Y-53232D01*
X27428Y-53232D01*
X27587Y-53166D01*
X27680Y-53074D01*
X27691Y-53100D01*
X27693Y-53103D01*
X27788Y-53128D01*
X28117Y-52799D01*
X28112Y-52793D01*
X28140Y-52765D01*
X28145Y-52771D01*
X28151Y-52765D01*
X28179Y-52793D01*
X28173Y-52799D01*
X28502Y-53128D01*
X28598Y-53103D01*
X28610Y-53073D01*
X28703Y-53166D01*
X28862Y-53232D01*
X29034Y-53232D01*
X29193Y-53166D01*
X29286Y-53074D01*
X29297Y-53100D01*
X29299Y-53103D01*
X29395Y-53128D01*
X29724Y-52799D01*
X29718Y-52793D01*
X29746Y-52765D01*
X29751Y-52771D01*
X30081Y-52442D01*
X30081Y-52497D01*
X29779Y-52799D01*
X30108Y-53128D01*
X30204Y-53103D01*
X30286Y-52907D01*
X30287Y-52694D01*
X30287Y-53147D01*
X30120Y-53313D01*
X30081Y-53409D01*
X30081Y-53156D01*
X29751Y-52827D01*
X29422Y-53156D01*
X29447Y-53251D01*
X29643Y-53333D01*
X29856Y-53334D01*
X30053Y-53253D01*
X30056Y-53251D01*
X30081Y-53156D01*
X30081Y-53409D01*
X29990Y-53628D01*
X29990Y-53968D01*
X30120Y-54283D01*
X30360Y-54524D01*
X30675Y-54655D01*
X31016Y-54655D01*
X31330Y-54525D01*
X31571Y-54284D01*
X31702Y-53970D01*
X31702Y-53629D01*
X31702Y-55748D01*
X28474Y-55748D01*
X28474Y-53156D01*
X28145Y-52827D01*
X27816Y-53156D01*
X27841Y-53251D01*
X28037Y-53333D01*
X28250Y-53334D01*
X28447Y-53253D01*
X28450Y-53251D01*
X28474Y-53156D01*
X28474Y-55748D01*
X26702Y-55748D01*
X26702Y-53629D01*
X26572Y-53314D01*
X26332Y-53073D01*
X26017Y-52943D01*
X25716Y-52942D01*
X25716Y-52335D01*
X25629Y-52125D01*
X25469Y-51965D01*
X25259Y-51878D01*
X25032Y-51877D01*
X24822Y-51964D01*
X24661Y-52125D01*
X24574Y-52334D01*
X24574Y-52561D01*
X24661Y-52771D01*
X24821Y-52932D01*
X25031Y-53019D01*
X25258Y-53019D01*
X25468Y-52933D01*
X25629Y-52772D01*
X25716Y-52562D01*
X25716Y-52335D01*
X25716Y-52942D01*
X25676Y-52942D01*
X25362Y-53072D01*
X25120Y-53313D01*
X24990Y-53628D01*
X24990Y-53968D01*
X25120Y-54283D01*
X25360Y-54524D01*
X25675Y-54655D01*
X26016Y-54655D01*
X26330Y-54525D01*
X26571Y-54284D01*
X26702Y-53970D01*
X26702Y-53629D01*
X26702Y-55748D01*
X24244Y-55748D01*
X24244Y-52335D01*
X24157Y-52125D01*
X23997Y-51965D01*
X23787Y-51878D01*
X23560Y-51877D01*
X23350Y-51964D01*
X23189Y-52125D01*
X23102Y-52334D01*
X23102Y-52561D01*
X23188Y-52771D01*
X23349Y-52932D01*
X23559Y-53019D01*
X23786Y-53019D01*
X23996Y-52933D01*
X24156Y-52772D01*
X24243Y-52562D01*
X24244Y-52335D01*
X24244Y-55748D01*
X23828Y-55748D01*
X23828Y-53629D01*
X23698Y-53314D01*
X23458Y-53073D01*
X23143Y-52943D01*
X22802Y-52942D01*
X22488Y-53072D01*
X22413Y-53147D01*
X22413Y-52694D01*
X22332Y-52497D01*
X22330Y-52494D01*
X22234Y-52470D01*
X21905Y-52799D01*
X22234Y-53128D01*
X22330Y-53103D01*
X22412Y-52907D01*
X22413Y-52694D01*
X22413Y-53147D01*
X22246Y-53313D01*
X22207Y-53409D01*
X22207Y-53156D01*
X21877Y-52827D01*
X21548Y-53156D01*
X21573Y-53251D01*
X21769Y-53333D01*
X21982Y-53334D01*
X22179Y-53253D01*
X22182Y-53251D01*
X22207Y-53156D01*
X22207Y-53409D01*
X22116Y-53628D01*
X22115Y-53968D01*
X22246Y-54283D01*
X22486Y-54524D01*
X22801Y-54655D01*
X23142Y-54655D01*
X23456Y-54525D01*
X23697Y-54284D01*
X23828Y-53970D01*
X23828Y-53629D01*
X23828Y-55748D01*
X20600Y-55748D01*
X20600Y-53156D01*
X20271Y-52827D01*
X19942Y-53156D01*
X19967Y-53251D01*
X20163Y-53333D01*
X20376Y-53334D01*
X20573Y-53253D01*
X20576Y-53251D01*
X20600Y-53156D01*
X20600Y-55748D01*
X18828Y-55748D01*
X18828Y-53629D01*
X18698Y-53314D01*
X18458Y-53073D01*
X18143Y-52943D01*
X17842Y-52942D01*
X17842Y-52335D01*
X17755Y-52125D01*
X17595Y-51965D01*
X17385Y-51878D01*
X17158Y-51877D01*
X16948Y-51964D01*
X16787Y-52125D01*
X16700Y-52334D01*
X16700Y-52561D01*
X16787Y-52771D01*
X16947Y-52932D01*
X17157Y-53019D01*
X17384Y-53019D01*
X17594Y-52933D01*
X17755Y-52772D01*
X17842Y-52562D01*
X17842Y-52335D01*
X17842Y-52942D01*
X17802Y-52942D01*
X17488Y-53072D01*
X17246Y-53313D01*
X17116Y-53628D01*
X17115Y-53968D01*
X17246Y-54283D01*
X17486Y-54524D01*
X17801Y-54655D01*
X18142Y-54655D01*
X18456Y-54525D01*
X18697Y-54284D01*
X18828Y-53970D01*
X18828Y-53629D01*
X18828Y-55748D01*
X8752Y-55748D01*
X8752Y-33402D01*
X8665Y-33192D01*
X8504Y-33032D01*
X8295Y-32944D01*
X8159Y-32944D01*
X8159Y-32077D01*
X7830Y-31748D01*
X7802Y-31776D01*
X7802Y-31720D01*
X7473Y-31391D01*
X7378Y-31416D01*
X7296Y-31612D01*
X7295Y-31825D01*
X7376Y-32022D01*
X7378Y-32024D01*
X7473Y-32049D01*
X7802Y-31720D01*
X7802Y-31776D01*
X7501Y-32077D01*
X7526Y-32172D01*
X7722Y-32255D01*
X7935Y-32255D01*
X8132Y-32174D01*
X8135Y-32172D01*
X8159Y-32077D01*
X8159Y-32944D01*
X8068Y-32944D01*
X7858Y-33031D01*
X7697Y-33191D01*
X7687Y-33216D01*
X7687Y-32645D01*
X7557Y-32330D01*
X7316Y-32089D01*
X7001Y-31958D01*
X6661Y-31958D01*
X6346Y-32088D01*
X6105Y-32329D01*
X5974Y-32643D01*
X5974Y-32984D01*
X6104Y-33299D01*
X6345Y-33540D01*
X6659Y-33671D01*
X7000Y-33671D01*
X7315Y-33541D01*
X7556Y-33300D01*
X7686Y-32986D01*
X7687Y-32645D01*
X7687Y-33216D01*
X7610Y-33401D01*
X7610Y-33628D01*
X7696Y-33838D01*
X7857Y-33999D01*
X8067Y-34086D01*
X8294Y-34086D01*
X8504Y-33999D01*
X8664Y-33839D01*
X8751Y-33629D01*
X8752Y-33402D01*
X8752Y-55748D01*
X8012Y-55748D01*
X8012Y-53675D01*
X8012Y-41864D01*
X7811Y-41379D01*
X7440Y-41008D01*
X6956Y-40807D01*
X6431Y-40806D01*
X5946Y-41007D01*
X5575Y-41377D01*
X5374Y-41862D01*
X5373Y-42387D01*
X5574Y-42872D01*
X5944Y-43243D01*
X6429Y-43444D01*
X6954Y-43445D01*
X7439Y-43244D01*
X7810Y-42874D01*
X8011Y-42389D01*
X8012Y-41864D01*
X8012Y-53675D01*
X7811Y-53190D01*
X7440Y-52819D01*
X6956Y-52618D01*
X6431Y-52617D01*
X5946Y-52818D01*
X5575Y-53188D01*
X5374Y-53673D01*
X5373Y-54198D01*
X5574Y-54683D01*
X5944Y-55054D01*
X6429Y-55255D01*
X6954Y-55256D01*
X7439Y-55055D01*
X7810Y-54685D01*
X8011Y-54200D01*
X8012Y-53675D01*
X8012Y-55748D01*
X4881Y-55748D01*
X4881Y-44094D01*
X4881Y-4881D01*
X43937Y-4881D01*
X43937Y-44094D01*
X43937Y-55748D01*
X43937Y-55748D01*
G37*
G54D22*
X43937Y-55748D02*
X43445Y-55748D01*
X43445Y-53675D01*
X43445Y-41864D01*
X43445Y-6431D01*
X43244Y-5946D01*
X42874Y-5575D01*
X42389Y-5374D01*
X41864Y-5373D01*
X41379Y-5574D01*
X41008Y-5944D01*
X40807Y-6429D01*
X40806Y-6954D01*
X41007Y-7439D01*
X41377Y-7810D01*
X41862Y-8011D01*
X42387Y-8012D01*
X42872Y-7811D01*
X43243Y-7440D01*
X43444Y-6956D01*
X43445Y-6431D01*
X43445Y-41864D01*
X43244Y-41379D01*
X42874Y-41008D01*
X42844Y-40996D01*
X42844Y-38550D01*
X42844Y-33550D01*
X42844Y-30676D01*
X42844Y-25676D01*
X42844Y-22802D01*
X42844Y-17802D01*
X42844Y-14928D01*
X42844Y-9928D01*
X42714Y-9614D01*
X42473Y-9372D01*
X42159Y-9242D01*
X41818Y-9241D01*
X41503Y-9372D01*
X41262Y-9612D01*
X41208Y-9742D01*
X41208Y-9284D01*
X41122Y-9074D01*
X40961Y-8913D01*
X40751Y-8826D01*
X40524Y-8826D01*
X40314Y-8913D01*
X40154Y-9073D01*
X40067Y-9283D01*
X40066Y-9510D01*
X40153Y-9720D01*
X40314Y-9881D01*
X40523Y-9968D01*
X40750Y-9968D01*
X40960Y-9881D01*
X41121Y-9721D01*
X41208Y-9511D01*
X41208Y-9284D01*
X41208Y-9742D01*
X41132Y-9927D01*
X41131Y-10268D01*
X41261Y-10582D01*
X41502Y-10823D01*
X41817Y-10954D01*
X42157Y-10954D01*
X42472Y-10824D01*
X42713Y-10584D01*
X42844Y-10269D01*
X42844Y-9928D01*
X42844Y-14928D01*
X42714Y-14614D01*
X42473Y-14372D01*
X42159Y-14242D01*
X41818Y-14241D01*
X41523Y-14363D01*
X41523Y-12694D01*
X41523Y-11088D01*
X41442Y-10891D01*
X41440Y-10888D01*
X41345Y-10863D01*
X41317Y-10891D01*
X41317Y-10835D01*
X41292Y-10740D01*
X41096Y-10658D01*
X40883Y-10657D01*
X40686Y-10738D01*
X40683Y-10740D01*
X40659Y-10835D01*
X40988Y-11165D01*
X41317Y-10835D01*
X41317Y-10891D01*
X41016Y-11192D01*
X41345Y-11522D01*
X41440Y-11497D01*
X41522Y-11300D01*
X41523Y-11088D01*
X41523Y-12694D01*
X41442Y-12497D01*
X41440Y-12494D01*
X41345Y-12470D01*
X41016Y-12799D01*
X41345Y-13128D01*
X41440Y-13103D01*
X41522Y-12907D01*
X41523Y-12694D01*
X41523Y-14363D01*
X41503Y-14372D01*
X41421Y-14454D01*
X41421Y-13516D01*
X41355Y-13357D01*
X41263Y-13264D01*
X41289Y-13253D01*
X41292Y-13251D01*
X41317Y-13156D01*
X40988Y-12827D01*
X40982Y-12832D01*
X40954Y-12804D01*
X40960Y-12799D01*
X40954Y-12793D01*
X40982Y-12765D01*
X40988Y-12771D01*
X41317Y-12442D01*
X41292Y-12346D01*
X41262Y-12334D01*
X41355Y-12241D01*
X41421Y-12082D01*
X41421Y-11910D01*
X41355Y-11750D01*
X41263Y-11658D01*
X41289Y-11647D01*
X41292Y-11645D01*
X41317Y-11549D01*
X40988Y-11220D01*
X40982Y-11226D01*
X40954Y-11198D01*
X40960Y-11192D01*
X40631Y-10863D01*
X40535Y-10888D01*
X40453Y-11084D01*
X40453Y-11194D01*
X40373Y-11161D01*
X40201Y-11161D01*
X40042Y-11226D01*
X39920Y-11348D01*
X39854Y-11507D01*
X39854Y-11680D01*
X39919Y-11839D01*
X40041Y-11961D01*
X40124Y-11996D01*
X40042Y-12030D01*
X39920Y-12151D01*
X39891Y-12220D01*
X39803Y-12220D01*
X39803Y-7107D01*
X39803Y-6107D01*
X39737Y-5947D01*
X39615Y-5825D01*
X39456Y-5759D01*
X39284Y-5759D01*
X39125Y-5825D01*
X39003Y-5947D01*
X38937Y-6106D01*
X38936Y-6278D01*
X39002Y-6437D01*
X39124Y-6559D01*
X39283Y-6625D01*
X39455Y-6626D01*
X39615Y-6560D01*
X39737Y-6438D01*
X39803Y-6279D01*
X39803Y-6107D01*
X39803Y-7107D01*
X39737Y-6947D01*
X39615Y-6825D01*
X39456Y-6759D01*
X39284Y-6759D01*
X39125Y-6825D01*
X39003Y-6947D01*
X38937Y-7106D01*
X38936Y-7278D01*
X39002Y-7437D01*
X39124Y-7559D01*
X39283Y-7625D01*
X39455Y-7626D01*
X39615Y-7560D01*
X39737Y-7438D01*
X39803Y-7279D01*
X39803Y-7107D01*
X39803Y-12220D01*
X37834Y-12220D01*
X37834Y-7107D01*
X37834Y-6107D01*
X37768Y-5947D01*
X37647Y-5825D01*
X37488Y-5759D01*
X37315Y-5759D01*
X37156Y-5825D01*
X37034Y-5947D01*
X36968Y-6106D01*
X36968Y-6278D01*
X37034Y-6437D01*
X37155Y-6559D01*
X37315Y-6625D01*
X37487Y-6626D01*
X37646Y-6560D01*
X37768Y-6438D01*
X37834Y-6279D01*
X37834Y-6107D01*
X37834Y-7107D01*
X37768Y-6947D01*
X37647Y-6825D01*
X37488Y-6759D01*
X37315Y-6759D01*
X37156Y-6825D01*
X37034Y-6947D01*
X36968Y-7106D01*
X36968Y-7278D01*
X37034Y-7437D01*
X37155Y-7559D01*
X37315Y-7625D01*
X37487Y-7626D01*
X37646Y-7560D01*
X37768Y-7438D01*
X37834Y-7279D01*
X37834Y-7107D01*
X37834Y-12220D01*
X36831Y-12220D01*
X36801Y-12190D01*
X36801Y-12122D01*
X36760Y-12024D01*
X36686Y-11950D01*
X36588Y-11909D01*
X36482Y-11909D01*
X36385Y-11949D01*
X36318Y-12015D01*
X36302Y-11999D01*
X36204Y-11958D01*
X36098Y-11958D01*
X36001Y-11998D01*
X35954Y-12045D01*
X35918Y-12009D01*
X35866Y-11987D01*
X35866Y-7107D01*
X35866Y-6107D01*
X35800Y-5947D01*
X35678Y-5825D01*
X35519Y-5759D01*
X35347Y-5759D01*
X35188Y-5825D01*
X35066Y-5947D01*
X35000Y-6106D01*
X34999Y-6278D01*
X35065Y-6437D01*
X35187Y-6559D01*
X35346Y-6625D01*
X35518Y-6626D01*
X35678Y-6560D01*
X35799Y-6438D01*
X35866Y-6279D01*
X35866Y-6107D01*
X35866Y-7107D01*
X35800Y-6947D01*
X35678Y-6825D01*
X35519Y-6759D01*
X35347Y-6759D01*
X35188Y-6825D01*
X35066Y-6947D01*
X35000Y-7106D01*
X34999Y-7278D01*
X35065Y-7437D01*
X35187Y-7559D01*
X35346Y-7625D01*
X35518Y-7626D01*
X35678Y-7560D01*
X35799Y-7438D01*
X35866Y-7279D01*
X35866Y-7107D01*
X35866Y-11987D01*
X35820Y-11968D01*
X35715Y-11968D01*
X35698Y-11975D01*
X35698Y-10026D01*
X35658Y-9928D01*
X35583Y-9853D01*
X35486Y-9813D01*
X35416Y-9812D01*
X35382Y-9731D01*
X35308Y-9656D01*
X35210Y-9616D01*
X35104Y-9616D01*
X35088Y-9622D01*
X35067Y-9574D01*
X34993Y-9499D01*
X34895Y-9458D01*
X34789Y-9458D01*
X34773Y-9465D01*
X34752Y-9416D01*
X34678Y-9341D01*
X34580Y-9301D01*
X34474Y-9301D01*
X34377Y-9341D01*
X34302Y-9416D01*
X34261Y-9513D01*
X34261Y-9619D01*
X34302Y-9717D01*
X34350Y-9765D01*
X34350Y-11218D01*
X34302Y-11266D01*
X34261Y-11364D01*
X34261Y-11469D01*
X34302Y-11567D01*
X34376Y-11642D01*
X34474Y-11683D01*
X34580Y-11683D01*
X34677Y-11642D01*
X34752Y-11568D01*
X34793Y-11470D01*
X34793Y-11364D01*
X34752Y-11266D01*
X34704Y-11218D01*
X34704Y-10968D01*
X34789Y-11003D01*
X34891Y-11003D01*
X34891Y-11105D01*
X34932Y-11203D01*
X35006Y-11278D01*
X35104Y-11318D01*
X35210Y-11318D01*
X35307Y-11278D01*
X35382Y-11203D01*
X35423Y-11106D01*
X35423Y-11000D01*
X35382Y-10902D01*
X35334Y-10854D01*
X35334Y-10325D01*
X35379Y-10344D01*
X35485Y-10344D01*
X35583Y-10304D01*
X35658Y-10229D01*
X35698Y-10131D01*
X35698Y-10026D01*
X35698Y-11975D01*
X35617Y-12008D01*
X35542Y-12083D01*
X35502Y-12181D01*
X35501Y-12286D01*
X35542Y-12384D01*
X35616Y-12459D01*
X35714Y-12499D01*
X35782Y-12500D01*
X36872Y-13589D01*
X36930Y-13628D01*
X36998Y-13641D01*
X39552Y-13641D01*
X39854Y-13943D01*
X39854Y-14089D01*
X39919Y-14249D01*
X40041Y-14371D01*
X40200Y-14437D01*
X40373Y-14437D01*
X40532Y-14371D01*
X40654Y-14249D01*
X40720Y-14090D01*
X40720Y-13947D01*
X40742Y-13969D01*
X40901Y-14035D01*
X41073Y-14035D01*
X41233Y-13969D01*
X41355Y-13848D01*
X41421Y-13688D01*
X41421Y-13516D01*
X41421Y-14454D01*
X41262Y-14612D01*
X41132Y-14927D01*
X41131Y-15268D01*
X41261Y-15582D01*
X41502Y-15823D01*
X41817Y-15954D01*
X42157Y-15954D01*
X42472Y-15824D01*
X42713Y-15584D01*
X42844Y-15269D01*
X42844Y-14928D01*
X42844Y-17802D01*
X42714Y-17488D01*
X42473Y-17246D01*
X42159Y-17116D01*
X41818Y-17115D01*
X41503Y-17246D01*
X41262Y-17486D01*
X41208Y-17616D01*
X41208Y-17158D01*
X41208Y-15686D01*
X41122Y-15476D01*
X40961Y-15315D01*
X40751Y-15228D01*
X40524Y-15228D01*
X40314Y-15314D01*
X40154Y-15475D01*
X40067Y-15685D01*
X40066Y-15912D01*
X40153Y-16122D01*
X40314Y-16282D01*
X40523Y-16369D01*
X40750Y-16370D01*
X40960Y-16283D01*
X41121Y-16123D01*
X41208Y-15913D01*
X41208Y-15686D01*
X41208Y-17158D01*
X41122Y-16948D01*
X40961Y-16787D01*
X40751Y-16700D01*
X40524Y-16700D01*
X40314Y-16787D01*
X40154Y-16947D01*
X40067Y-17157D01*
X40066Y-17384D01*
X40153Y-17594D01*
X40314Y-17755D01*
X40523Y-17842D01*
X40750Y-17842D01*
X40960Y-17755D01*
X41121Y-17595D01*
X41208Y-17385D01*
X41208Y-17158D01*
X41208Y-17616D01*
X41132Y-17801D01*
X41131Y-18142D01*
X41261Y-18456D01*
X41502Y-18697D01*
X41817Y-18828D01*
X42157Y-18828D01*
X42472Y-18698D01*
X42713Y-18458D01*
X42844Y-18143D01*
X42844Y-17802D01*
X42844Y-22802D01*
X42714Y-22488D01*
X42473Y-22246D01*
X42159Y-22116D01*
X41818Y-22115D01*
X41523Y-22237D01*
X41523Y-20568D01*
X41523Y-18962D01*
X41442Y-18765D01*
X41440Y-18762D01*
X41345Y-18737D01*
X41317Y-18765D01*
X41317Y-18709D01*
X41292Y-18614D01*
X41096Y-18532D01*
X40883Y-18531D01*
X40686Y-18612D01*
X40683Y-18614D01*
X40659Y-18709D01*
X40988Y-19039D01*
X41317Y-18709D01*
X41317Y-18765D01*
X41016Y-19066D01*
X41345Y-19396D01*
X41440Y-19371D01*
X41522Y-19175D01*
X41523Y-18962D01*
X41523Y-20568D01*
X41442Y-20371D01*
X41440Y-20368D01*
X41345Y-20344D01*
X41016Y-20673D01*
X41345Y-21002D01*
X41440Y-20977D01*
X41522Y-20781D01*
X41523Y-20568D01*
X41523Y-22237D01*
X41503Y-22246D01*
X41421Y-22328D01*
X41421Y-21390D01*
X41355Y-21231D01*
X41263Y-21138D01*
X41289Y-21127D01*
X41292Y-21125D01*
X41317Y-21030D01*
X40988Y-20701D01*
X40982Y-20706D01*
X40954Y-20678D01*
X40960Y-20673D01*
X40954Y-20667D01*
X40982Y-20639D01*
X40988Y-20645D01*
X41317Y-20316D01*
X41292Y-20220D01*
X41262Y-20208D01*
X41355Y-20115D01*
X41421Y-19956D01*
X41421Y-19784D01*
X41355Y-19624D01*
X41263Y-19532D01*
X41289Y-19521D01*
X41292Y-19519D01*
X41317Y-19423D01*
X40988Y-19094D01*
X40982Y-19100D01*
X40954Y-19072D01*
X40960Y-19066D01*
X40631Y-18737D01*
X40535Y-18762D01*
X40453Y-18958D01*
X40453Y-19068D01*
X40373Y-19035D01*
X40201Y-19035D01*
X40042Y-19100D01*
X39920Y-19222D01*
X39891Y-19291D01*
X36933Y-19291D01*
X36865Y-19304D01*
X36807Y-19343D01*
X34933Y-21217D01*
X34895Y-21274D01*
X34881Y-21342D01*
X34881Y-22521D01*
X34822Y-22581D01*
X34781Y-22679D01*
X34781Y-22784D01*
X34821Y-22882D01*
X34896Y-22957D01*
X34994Y-22997D01*
X35099Y-22998D01*
X35197Y-22957D01*
X35272Y-22883D01*
X35312Y-22785D01*
X35313Y-22679D01*
X35272Y-22581D01*
X35236Y-22545D01*
X35236Y-21415D01*
X37006Y-19645D01*
X39891Y-19645D01*
X39919Y-19713D01*
X40041Y-19835D01*
X40124Y-19870D01*
X40042Y-19904D01*
X39920Y-20025D01*
X39891Y-20094D01*
X37728Y-20094D01*
X37660Y-20107D01*
X37603Y-20146D01*
X36524Y-21225D01*
X36504Y-21178D01*
X36456Y-21130D01*
X36456Y-20966D01*
X36504Y-20918D01*
X36545Y-20820D01*
X36545Y-20715D01*
X36504Y-20617D01*
X36430Y-20542D01*
X36332Y-20502D01*
X36226Y-20501D01*
X36129Y-20542D01*
X36054Y-20616D01*
X36013Y-20714D01*
X36013Y-20820D01*
X36054Y-20918D01*
X36102Y-20966D01*
X36102Y-21130D01*
X36054Y-21178D01*
X36013Y-21275D01*
X36013Y-21381D01*
X36054Y-21479D01*
X36128Y-21553D01*
X36175Y-21573D01*
X35676Y-22072D01*
X35608Y-22072D01*
X35511Y-22113D01*
X35436Y-22187D01*
X35395Y-22285D01*
X35395Y-22391D01*
X35435Y-22488D01*
X35510Y-22563D01*
X35608Y-22604D01*
X35714Y-22604D01*
X35811Y-22564D01*
X35886Y-22489D01*
X35927Y-22391D01*
X35927Y-22323D01*
X37801Y-20448D01*
X39891Y-20448D01*
X39919Y-20516D01*
X40041Y-20638D01*
X40124Y-20673D01*
X40042Y-20707D01*
X39920Y-20829D01*
X39854Y-20988D01*
X39854Y-21160D01*
X39919Y-21319D01*
X40041Y-21441D01*
X40124Y-21476D01*
X40042Y-21510D01*
X39920Y-21632D01*
X39854Y-21791D01*
X39854Y-21963D01*
X39919Y-22123D01*
X40041Y-22245D01*
X40200Y-22311D01*
X40373Y-22311D01*
X40532Y-22245D01*
X40654Y-22123D01*
X40720Y-21964D01*
X40720Y-21821D01*
X40742Y-21843D01*
X40901Y-21909D01*
X41073Y-21909D01*
X41233Y-21843D01*
X41355Y-21722D01*
X41421Y-21562D01*
X41421Y-21390D01*
X41421Y-22328D01*
X41262Y-22486D01*
X41132Y-22801D01*
X41131Y-23142D01*
X41261Y-23456D01*
X41502Y-23697D01*
X41817Y-23828D01*
X42157Y-23828D01*
X42472Y-23698D01*
X42713Y-23458D01*
X42844Y-23143D01*
X42844Y-22802D01*
X42844Y-25676D01*
X42714Y-25362D01*
X42473Y-25120D01*
X42159Y-24990D01*
X41818Y-24990D01*
X41503Y-25120D01*
X41262Y-25360D01*
X41208Y-25490D01*
X41208Y-25032D01*
X41208Y-23560D01*
X41122Y-23350D01*
X40961Y-23189D01*
X40751Y-23102D01*
X40524Y-23102D01*
X40314Y-23188D01*
X40154Y-23349D01*
X40067Y-23559D01*
X40066Y-23786D01*
X40153Y-23996D01*
X40314Y-24156D01*
X40523Y-24243D01*
X40750Y-24244D01*
X40960Y-24157D01*
X41121Y-23997D01*
X41208Y-23787D01*
X41208Y-23560D01*
X41208Y-25032D01*
X41122Y-24822D01*
X40961Y-24661D01*
X40751Y-24574D01*
X40524Y-24574D01*
X40314Y-24661D01*
X40154Y-24821D01*
X40067Y-25031D01*
X40066Y-25258D01*
X40153Y-25468D01*
X40314Y-25629D01*
X40523Y-25716D01*
X40750Y-25716D01*
X40960Y-25629D01*
X41121Y-25469D01*
X41208Y-25259D01*
X41208Y-25032D01*
X41208Y-25490D01*
X41132Y-25675D01*
X41131Y-26016D01*
X41261Y-26330D01*
X41502Y-26571D01*
X41817Y-26702D01*
X42157Y-26702D01*
X42472Y-26572D01*
X42713Y-26332D01*
X42844Y-26017D01*
X42844Y-25676D01*
X42844Y-30676D01*
X42714Y-30362D01*
X42473Y-30120D01*
X42159Y-29990D01*
X41818Y-29990D01*
X41523Y-30111D01*
X41523Y-28442D01*
X41523Y-26836D01*
X41442Y-26639D01*
X41440Y-26636D01*
X41345Y-26611D01*
X41317Y-26639D01*
X41317Y-26584D01*
X41292Y-26488D01*
X41096Y-26406D01*
X40883Y-26405D01*
X40686Y-26486D01*
X40683Y-26488D01*
X40659Y-26584D01*
X40988Y-26913D01*
X41317Y-26584D01*
X41317Y-26639D01*
X41016Y-26940D01*
X41345Y-27270D01*
X41440Y-27245D01*
X41522Y-27049D01*
X41523Y-26836D01*
X41523Y-28442D01*
X41442Y-28245D01*
X41440Y-28242D01*
X41345Y-28218D01*
X41016Y-28547D01*
X41345Y-28876D01*
X41440Y-28851D01*
X41522Y-28655D01*
X41523Y-28442D01*
X41523Y-30111D01*
X41503Y-30120D01*
X41262Y-30360D01*
X41132Y-30675D01*
X41131Y-31016D01*
X41261Y-31330D01*
X41502Y-31571D01*
X41817Y-31702D01*
X42157Y-31702D01*
X42472Y-31572D01*
X42713Y-31332D01*
X42844Y-31017D01*
X42844Y-30676D01*
X42844Y-33550D01*
X42714Y-33236D01*
X42473Y-32994D01*
X42159Y-32864D01*
X41818Y-32864D01*
X41503Y-32994D01*
X41262Y-33234D01*
X41208Y-33364D01*
X41208Y-32906D01*
X41208Y-31434D01*
X41122Y-31224D01*
X40961Y-31063D01*
X40751Y-30976D01*
X40524Y-30976D01*
X40314Y-31063D01*
X40196Y-31180D01*
X40154Y-31223D01*
X40067Y-31433D01*
X40066Y-31660D01*
X40153Y-31870D01*
X40196Y-31913D01*
X40314Y-32030D01*
X40523Y-32118D01*
X40750Y-32118D01*
X40960Y-32031D01*
X41121Y-31871D01*
X41208Y-31661D01*
X41208Y-31434D01*
X41208Y-32906D01*
X41122Y-32696D01*
X40961Y-32536D01*
X40751Y-32448D01*
X40524Y-32448D01*
X40314Y-32535D01*
X40196Y-32653D01*
X40154Y-32695D01*
X40067Y-32905D01*
X40066Y-33132D01*
X40153Y-33342D01*
X40196Y-33386D01*
X40314Y-33503D01*
X40523Y-33590D01*
X40750Y-33590D01*
X40960Y-33503D01*
X41121Y-33343D01*
X41208Y-33133D01*
X41208Y-32906D01*
X41208Y-33364D01*
X41132Y-33549D01*
X41131Y-33890D01*
X41261Y-34204D01*
X41502Y-34445D01*
X41817Y-34576D01*
X42157Y-34576D01*
X42472Y-34446D01*
X42713Y-34206D01*
X42844Y-33891D01*
X42844Y-33550D01*
X42844Y-38550D01*
X42714Y-38236D01*
X42473Y-37994D01*
X42159Y-37864D01*
X41818Y-37864D01*
X41523Y-37986D01*
X41523Y-36316D01*
X41523Y-34710D01*
X41442Y-34513D01*
X41440Y-34510D01*
X41345Y-34485D01*
X41317Y-34513D01*
X41317Y-34458D01*
X41292Y-34362D01*
X41096Y-34280D01*
X40883Y-34279D01*
X40686Y-34360D01*
X40683Y-34362D01*
X40659Y-34458D01*
X40988Y-34787D01*
X41317Y-34458D01*
X41317Y-34513D01*
X41016Y-34814D01*
X41345Y-35144D01*
X41440Y-35119D01*
X41522Y-34923D01*
X41523Y-34710D01*
X41523Y-36316D01*
X41442Y-36119D01*
X41440Y-36116D01*
X41345Y-36092D01*
X41016Y-36421D01*
X41345Y-36750D01*
X41440Y-36725D01*
X41522Y-36529D01*
X41523Y-36316D01*
X41523Y-37986D01*
X41503Y-37994D01*
X41421Y-38076D01*
X41421Y-37138D01*
X41355Y-36979D01*
X41263Y-36886D01*
X41289Y-36875D01*
X41292Y-36873D01*
X41317Y-36778D01*
X40988Y-36449D01*
X40982Y-36454D01*
X40954Y-36426D01*
X40960Y-36421D01*
X40954Y-36415D01*
X40982Y-36387D01*
X40988Y-36393D01*
X41317Y-36064D01*
X41292Y-35968D01*
X41262Y-35956D01*
X41355Y-35863D01*
X41421Y-35704D01*
X41421Y-35532D01*
X41355Y-35372D01*
X41263Y-35280D01*
X41289Y-35269D01*
X41292Y-35267D01*
X41317Y-35171D01*
X40988Y-34842D01*
X40982Y-34848D01*
X40954Y-34820D01*
X40960Y-34814D01*
X40631Y-34485D01*
X40535Y-34510D01*
X40453Y-34706D01*
X40453Y-34816D01*
X40373Y-34783D01*
X40201Y-34783D01*
X40196Y-34785D01*
X40042Y-34848D01*
X39920Y-34970D01*
X39854Y-35129D01*
X39854Y-35302D01*
X39877Y-35359D01*
X38637Y-34119D01*
X38637Y-32820D01*
X38681Y-32776D01*
X38722Y-32679D01*
X38722Y-32573D01*
X38682Y-32475D01*
X38607Y-32400D01*
X38509Y-32360D01*
X38404Y-32360D01*
X38306Y-32400D01*
X38231Y-32475D01*
X38190Y-32572D01*
X38190Y-32678D01*
X38231Y-32776D01*
X38283Y-32828D01*
X38283Y-34192D01*
X38296Y-34260D01*
X38335Y-34318D01*
X39882Y-35865D01*
X39854Y-35933D01*
X39854Y-36105D01*
X39919Y-36264D01*
X40041Y-36386D01*
X40124Y-36421D01*
X40042Y-36455D01*
X39920Y-36577D01*
X39891Y-36645D01*
X39884Y-36645D01*
X38165Y-34926D01*
X38165Y-32556D01*
X38213Y-32508D01*
X38253Y-32411D01*
X38253Y-32305D01*
X38213Y-32207D01*
X38138Y-32133D01*
X38041Y-32092D01*
X37935Y-32092D01*
X37837Y-32132D01*
X37763Y-32207D01*
X37722Y-32305D01*
X37722Y-32410D01*
X37762Y-32508D01*
X37811Y-32556D01*
X37811Y-35000D01*
X37824Y-35067D01*
X37862Y-35125D01*
X39685Y-36948D01*
X39743Y-36986D01*
X39743Y-36986D01*
X39811Y-37000D01*
X39891Y-37000D01*
X39919Y-37067D01*
X40041Y-37189D01*
X40124Y-37224D01*
X40042Y-37258D01*
X39920Y-37380D01*
X39854Y-37539D01*
X39854Y-37711D01*
X39919Y-37871D01*
X40041Y-37993D01*
X40196Y-38057D01*
X40200Y-38059D01*
X40373Y-38059D01*
X40532Y-37993D01*
X40654Y-37871D01*
X40720Y-37712D01*
X40720Y-37569D01*
X40742Y-37591D01*
X40901Y-37657D01*
X41073Y-37657D01*
X41233Y-37591D01*
X41355Y-37470D01*
X41421Y-37310D01*
X41421Y-37138D01*
X41421Y-38076D01*
X41262Y-38234D01*
X41132Y-38549D01*
X41131Y-38890D01*
X41261Y-39204D01*
X41502Y-39445D01*
X41817Y-39576D01*
X42157Y-39576D01*
X42472Y-39446D01*
X42713Y-39206D01*
X42844Y-38891D01*
X42844Y-38550D01*
X42844Y-40996D01*
X42389Y-40807D01*
X41864Y-40806D01*
X41379Y-41007D01*
X41208Y-41178D01*
X41208Y-39308D01*
X41122Y-39098D01*
X40961Y-38937D01*
X40751Y-38850D01*
X40524Y-38850D01*
X40314Y-38937D01*
X40196Y-39054D01*
X40154Y-39097D01*
X40067Y-39307D01*
X40066Y-39534D01*
X40153Y-39744D01*
X40196Y-39787D01*
X40314Y-39904D01*
X40523Y-39992D01*
X40750Y-39992D01*
X40960Y-39905D01*
X41121Y-39745D01*
X41208Y-39535D01*
X41208Y-39308D01*
X41208Y-41178D01*
X41008Y-41377D01*
X40807Y-41862D01*
X40806Y-42387D01*
X41007Y-42872D01*
X41377Y-43243D01*
X41862Y-43444D01*
X42387Y-43445D01*
X42872Y-43244D01*
X43243Y-42874D01*
X43444Y-42389D01*
X43445Y-41864D01*
X43445Y-53675D01*
X43244Y-53190D01*
X42874Y-52819D01*
X42844Y-52807D01*
X42844Y-50361D01*
X42844Y-45361D01*
X42714Y-45047D01*
X42473Y-44805D01*
X42159Y-44675D01*
X41818Y-44675D01*
X41503Y-44805D01*
X41262Y-45045D01*
X41208Y-45175D01*
X41208Y-44717D01*
X41122Y-44507D01*
X40961Y-44347D01*
X40751Y-44259D01*
X40524Y-44259D01*
X40314Y-44346D01*
X40196Y-44464D01*
X40154Y-44506D01*
X40067Y-44716D01*
X40066Y-44943D01*
X40153Y-45153D01*
X40196Y-45197D01*
X40314Y-45314D01*
X40523Y-45401D01*
X40750Y-45401D01*
X40960Y-45314D01*
X41121Y-45154D01*
X41208Y-44944D01*
X41208Y-44717D01*
X41208Y-45175D01*
X41132Y-45360D01*
X41131Y-45701D01*
X41261Y-46015D01*
X41502Y-46257D01*
X41817Y-46387D01*
X42157Y-46387D01*
X42472Y-46257D01*
X42713Y-46017D01*
X42844Y-45702D01*
X42844Y-45361D01*
X42844Y-50361D01*
X42714Y-50047D01*
X42473Y-49805D01*
X42159Y-49675D01*
X41818Y-49675D01*
X41523Y-49797D01*
X41523Y-48127D01*
X41523Y-46521D01*
X41442Y-46324D01*
X41440Y-46321D01*
X41345Y-46296D01*
X41317Y-46324D01*
X41317Y-46269D01*
X41292Y-46173D01*
X41096Y-46091D01*
X40883Y-46090D01*
X40686Y-46171D01*
X40683Y-46173D01*
X40659Y-46269D01*
X40988Y-46598D01*
X41317Y-46269D01*
X41317Y-46324D01*
X41016Y-46625D01*
X41345Y-46955D01*
X41440Y-46930D01*
X41522Y-46734D01*
X41523Y-46521D01*
X41523Y-48127D01*
X41442Y-47930D01*
X41440Y-47927D01*
X41345Y-47903D01*
X41016Y-48232D01*
X41345Y-48561D01*
X41440Y-48536D01*
X41522Y-48340D01*
X41523Y-48127D01*
X41523Y-49797D01*
X41503Y-49805D01*
X41421Y-49887D01*
X41421Y-48949D01*
X41355Y-48790D01*
X41263Y-48697D01*
X41289Y-48686D01*
X41292Y-48684D01*
X41317Y-48589D01*
X40988Y-48260D01*
X40982Y-48265D01*
X40954Y-48237D01*
X40960Y-48232D01*
X40954Y-48226D01*
X40982Y-48198D01*
X40988Y-48204D01*
X41317Y-47875D01*
X41292Y-47779D01*
X41262Y-47767D01*
X41355Y-47674D01*
X41421Y-47515D01*
X41421Y-47343D01*
X41355Y-47184D01*
X41263Y-47091D01*
X41289Y-47080D01*
X41292Y-47078D01*
X41317Y-46982D01*
X40988Y-46653D01*
X40982Y-46659D01*
X40954Y-46631D01*
X40960Y-46625D01*
X40631Y-46296D01*
X40535Y-46321D01*
X40453Y-46517D01*
X40453Y-46627D01*
X40373Y-46594D01*
X40201Y-46594D01*
X40196Y-46596D01*
X40042Y-46660D01*
X39920Y-46781D01*
X39854Y-46940D01*
X39854Y-47113D01*
X39919Y-47272D01*
X40041Y-47394D01*
X40124Y-47429D01*
X40042Y-47463D01*
X39920Y-47584D01*
X39854Y-47744D01*
X39854Y-47916D01*
X39919Y-48075D01*
X40041Y-48197D01*
X40124Y-48232D01*
X40042Y-48266D01*
X39920Y-48388D01*
X39891Y-48456D01*
X38228Y-48456D01*
X38228Y-46507D01*
X38180Y-46392D01*
X37476Y-45688D01*
X37440Y-45602D01*
X37440Y-30390D01*
X37476Y-30354D01*
X40114Y-30354D01*
X40196Y-30272D01*
X40196Y-30183D01*
X40200Y-30185D01*
X40373Y-30185D01*
X40532Y-30119D01*
X40654Y-29997D01*
X40720Y-29838D01*
X40720Y-29695D01*
X40742Y-29717D01*
X40901Y-29783D01*
X41073Y-29783D01*
X41233Y-29717D01*
X41355Y-29596D01*
X41421Y-29436D01*
X41421Y-29264D01*
X41355Y-29105D01*
X41263Y-29012D01*
X41289Y-29001D01*
X41292Y-28999D01*
X41317Y-28904D01*
X40988Y-28575D01*
X40982Y-28580D01*
X40954Y-28552D01*
X40960Y-28547D01*
X40954Y-28541D01*
X40982Y-28513D01*
X40988Y-28519D01*
X41317Y-28190D01*
X41292Y-28094D01*
X41262Y-28082D01*
X41355Y-27989D01*
X41421Y-27830D01*
X41421Y-27658D01*
X41355Y-27498D01*
X41263Y-27406D01*
X41289Y-27395D01*
X41292Y-27393D01*
X41317Y-27297D01*
X40988Y-26968D01*
X40982Y-26974D01*
X40954Y-26946D01*
X40960Y-26940D01*
X40631Y-26611D01*
X40535Y-26636D01*
X40453Y-26832D01*
X40453Y-26942D01*
X40373Y-26909D01*
X40201Y-26909D01*
X40042Y-26974D01*
X39920Y-27096D01*
X39854Y-27255D01*
X39854Y-27428D01*
X39919Y-27587D01*
X40041Y-27709D01*
X40124Y-27744D01*
X40080Y-27762D01*
X38526Y-26209D01*
X38469Y-26170D01*
X38401Y-26157D01*
X37738Y-26157D01*
X37690Y-26109D01*
X37592Y-26068D01*
X37541Y-26068D01*
X34327Y-22854D01*
X34291Y-22767D01*
X34291Y-18964D01*
X34327Y-18878D01*
X36605Y-16599D01*
X36653Y-16484D01*
X36653Y-14224D01*
X36605Y-14109D01*
X35890Y-13394D01*
X35775Y-13346D01*
X33897Y-13346D01*
X33897Y-7107D01*
X33897Y-6107D01*
X33831Y-5947D01*
X33710Y-5825D01*
X33551Y-5759D01*
X33378Y-5759D01*
X33219Y-5825D01*
X33097Y-5947D01*
X33031Y-6106D01*
X33031Y-6278D01*
X33097Y-6437D01*
X33218Y-6559D01*
X33378Y-6625D01*
X33550Y-6626D01*
X33709Y-6560D01*
X33831Y-6438D01*
X33897Y-6279D01*
X33897Y-6107D01*
X33897Y-7107D01*
X33831Y-6947D01*
X33710Y-6825D01*
X33551Y-6759D01*
X33378Y-6759D01*
X33219Y-6825D01*
X33097Y-6947D01*
X33031Y-7106D01*
X33031Y-7278D01*
X33097Y-7437D01*
X33218Y-7559D01*
X33378Y-7625D01*
X33550Y-7626D01*
X33709Y-7560D01*
X33831Y-7438D01*
X33897Y-7279D01*
X33897Y-7107D01*
X33897Y-13346D01*
X32118Y-13346D01*
X32118Y-8068D01*
X32031Y-7858D01*
X31871Y-7697D01*
X31702Y-7627D01*
X31702Y-6661D01*
X31572Y-6346D01*
X31332Y-6105D01*
X31017Y-5974D01*
X30676Y-5974D01*
X30362Y-6104D01*
X30120Y-6345D01*
X29990Y-6659D01*
X29990Y-7000D01*
X30120Y-7315D01*
X30360Y-7556D01*
X30675Y-7686D01*
X31016Y-7687D01*
X31330Y-7557D01*
X31571Y-7316D01*
X31702Y-7001D01*
X31702Y-6661D01*
X31702Y-7627D01*
X31661Y-7610D01*
X31434Y-7610D01*
X31224Y-7696D01*
X31063Y-7857D01*
X30976Y-8067D01*
X30976Y-8294D01*
X31063Y-8504D01*
X31223Y-8664D01*
X31433Y-8751D01*
X31660Y-8752D01*
X31870Y-8665D01*
X32030Y-8504D01*
X32118Y-8295D01*
X32118Y-8068D01*
X32118Y-13346D01*
X30185Y-13346D01*
X30185Y-8445D01*
X30119Y-8286D01*
X29997Y-8164D01*
X29838Y-8098D01*
X29695Y-8098D01*
X29717Y-8076D01*
X29783Y-7917D01*
X29783Y-7744D01*
X29717Y-7585D01*
X29596Y-7463D01*
X29436Y-7397D01*
X29264Y-7397D01*
X29105Y-7463D01*
X29012Y-7555D01*
X29001Y-7529D01*
X28999Y-7526D01*
X28904Y-7501D01*
X28876Y-7529D01*
X28876Y-7473D01*
X28851Y-7378D01*
X28655Y-7296D01*
X28442Y-7295D01*
X28245Y-7376D01*
X28242Y-7378D01*
X28218Y-7473D01*
X28547Y-7802D01*
X28876Y-7473D01*
X28876Y-7529D01*
X28575Y-7830D01*
X28580Y-7836D01*
X28552Y-7864D01*
X28547Y-7858D01*
X28541Y-7864D01*
X28513Y-7836D01*
X28519Y-7830D01*
X28190Y-7501D01*
X28094Y-7526D01*
X28082Y-7556D01*
X27989Y-7463D01*
X27830Y-7397D01*
X27658Y-7397D01*
X27498Y-7463D01*
X27406Y-7555D01*
X27395Y-7529D01*
X27393Y-7526D01*
X27297Y-7501D01*
X27270Y-7529D01*
X27270Y-7473D01*
X27245Y-7378D01*
X27049Y-7296D01*
X26836Y-7295D01*
X26702Y-7350D01*
X26702Y-6661D01*
X26572Y-6346D01*
X26332Y-6105D01*
X26017Y-5974D01*
X25676Y-5974D01*
X25362Y-6104D01*
X25120Y-6345D01*
X24990Y-6659D01*
X24990Y-7000D01*
X25120Y-7315D01*
X25360Y-7556D01*
X25675Y-7686D01*
X26016Y-7687D01*
X26330Y-7557D01*
X26571Y-7316D01*
X26702Y-7001D01*
X26702Y-6661D01*
X26702Y-7350D01*
X26639Y-7376D01*
X26636Y-7378D01*
X26611Y-7473D01*
X26940Y-7802D01*
X27270Y-7473D01*
X27270Y-7529D01*
X26968Y-7830D01*
X26974Y-7836D01*
X26946Y-7864D01*
X26940Y-7858D01*
X26913Y-7886D01*
X26913Y-7830D01*
X26584Y-7501D01*
X26488Y-7526D01*
X26406Y-7722D01*
X26405Y-7935D01*
X26486Y-8132D01*
X26488Y-8135D01*
X26584Y-8159D01*
X26913Y-7830D01*
X26913Y-7886D01*
X26611Y-8187D01*
X26636Y-8283D01*
X26832Y-8365D01*
X26942Y-8365D01*
X26909Y-8444D01*
X26909Y-8617D01*
X26974Y-8776D01*
X27096Y-8898D01*
X27255Y-8964D01*
X27428Y-8964D01*
X27587Y-8899D01*
X27709Y-8777D01*
X27744Y-8694D01*
X27778Y-8776D01*
X27899Y-8898D01*
X28059Y-8964D01*
X28231Y-8964D01*
X28390Y-8899D01*
X28512Y-8777D01*
X28547Y-8694D01*
X28581Y-8776D01*
X28703Y-8898D01*
X28862Y-8964D01*
X29034Y-8964D01*
X29193Y-8899D01*
X29315Y-8777D01*
X29350Y-8694D01*
X29384Y-8776D01*
X29506Y-8898D01*
X29665Y-8964D01*
X29837Y-8964D01*
X29997Y-8899D01*
X30119Y-8777D01*
X30185Y-8618D01*
X30185Y-8445D01*
X30185Y-13346D01*
X25716Y-13346D01*
X25716Y-8068D01*
X25629Y-7858D01*
X25469Y-7697D01*
X25259Y-7610D01*
X25032Y-7610D01*
X24822Y-7696D01*
X24661Y-7857D01*
X24574Y-8067D01*
X24574Y-8294D01*
X24661Y-8504D01*
X24821Y-8664D01*
X25031Y-8751D01*
X25258Y-8752D01*
X25468Y-8665D01*
X25629Y-8504D01*
X25716Y-8295D01*
X25716Y-8068D01*
X25716Y-13346D01*
X24244Y-13346D01*
X24244Y-8068D01*
X24157Y-7858D01*
X23997Y-7697D01*
X23828Y-7627D01*
X23828Y-6661D01*
X23698Y-6346D01*
X23458Y-6105D01*
X23143Y-5974D01*
X22802Y-5974D01*
X22488Y-6104D01*
X22246Y-6345D01*
X22116Y-6659D01*
X22115Y-7000D01*
X22246Y-7315D01*
X22486Y-7556D01*
X22801Y-7686D01*
X23142Y-7687D01*
X23456Y-7557D01*
X23697Y-7316D01*
X23828Y-7001D01*
X23828Y-6661D01*
X23828Y-7627D01*
X23787Y-7610D01*
X23560Y-7610D01*
X23350Y-7696D01*
X23189Y-7857D01*
X23102Y-8067D01*
X23102Y-8294D01*
X23188Y-8504D01*
X23349Y-8664D01*
X23559Y-8751D01*
X23786Y-8752D01*
X23996Y-8665D01*
X24156Y-8504D01*
X24243Y-8295D01*
X24244Y-8068D01*
X24244Y-13346D01*
X22311Y-13346D01*
X22311Y-8445D01*
X22245Y-8286D01*
X22123Y-8164D01*
X21964Y-8098D01*
X21821Y-8098D01*
X21843Y-8076D01*
X21909Y-7917D01*
X21909Y-7744D01*
X21843Y-7585D01*
X21722Y-7463D01*
X21562Y-7397D01*
X21390Y-7397D01*
X21231Y-7463D01*
X21138Y-7555D01*
X21127Y-7529D01*
X21125Y-7526D01*
X21030Y-7501D01*
X21002Y-7529D01*
X21002Y-7473D01*
X20977Y-7378D01*
X20781Y-7296D01*
X20568Y-7295D01*
X20371Y-7376D01*
X20368Y-7378D01*
X20344Y-7473D01*
X20673Y-7802D01*
X21002Y-7473D01*
X21002Y-7529D01*
X20701Y-7830D01*
X20706Y-7836D01*
X20678Y-7864D01*
X20673Y-7858D01*
X20667Y-7864D01*
X20639Y-7836D01*
X20645Y-7830D01*
X20316Y-7501D01*
X20220Y-7526D01*
X20208Y-7556D01*
X20115Y-7463D01*
X19956Y-7397D01*
X19784Y-7397D01*
X19624Y-7463D01*
X19532Y-7555D01*
X19521Y-7529D01*
X19519Y-7526D01*
X19423Y-7501D01*
X19396Y-7529D01*
X19396Y-7473D01*
X19371Y-7378D01*
X19175Y-7296D01*
X18962Y-7295D01*
X18828Y-7350D01*
X18828Y-6661D01*
X18698Y-6346D01*
X18458Y-6105D01*
X18143Y-5974D01*
X17802Y-5974D01*
X17488Y-6104D01*
X17246Y-6345D01*
X17116Y-6659D01*
X17115Y-7000D01*
X17246Y-7315D01*
X17486Y-7556D01*
X17801Y-7686D01*
X18142Y-7687D01*
X18456Y-7557D01*
X18697Y-7316D01*
X18828Y-7001D01*
X18828Y-6661D01*
X18828Y-7350D01*
X18765Y-7376D01*
X18762Y-7378D01*
X18737Y-7473D01*
X19066Y-7802D01*
X19396Y-7473D01*
X19396Y-7529D01*
X19094Y-7830D01*
X19100Y-7836D01*
X19072Y-7864D01*
X19066Y-7858D01*
X19039Y-7886D01*
X19039Y-7830D01*
X18709Y-7501D01*
X18614Y-7526D01*
X18532Y-7722D01*
X18531Y-7935D01*
X18612Y-8132D01*
X18614Y-8135D01*
X18709Y-8159D01*
X19039Y-7830D01*
X19039Y-7886D01*
X18737Y-8187D01*
X18762Y-8283D01*
X18958Y-8365D01*
X19068Y-8365D01*
X19035Y-8444D01*
X19035Y-8617D01*
X19100Y-8776D01*
X19222Y-8898D01*
X19381Y-8964D01*
X19554Y-8964D01*
X19713Y-8899D01*
X19835Y-8777D01*
X19870Y-8694D01*
X19904Y-8776D01*
X20025Y-8898D01*
X20185Y-8964D01*
X20357Y-8964D01*
X20516Y-8899D01*
X20638Y-8777D01*
X20673Y-8694D01*
X20707Y-8776D01*
X20829Y-8898D01*
X20988Y-8964D01*
X21160Y-8964D01*
X21319Y-8899D01*
X21441Y-8777D01*
X21476Y-8694D01*
X21510Y-8776D01*
X21632Y-8898D01*
X21791Y-8964D01*
X21963Y-8964D01*
X22123Y-8899D01*
X22245Y-8777D01*
X22311Y-8618D01*
X22311Y-8445D01*
X22311Y-13346D01*
X17842Y-13346D01*
X17842Y-8068D01*
X17755Y-7858D01*
X17595Y-7697D01*
X17385Y-7610D01*
X17158Y-7610D01*
X16948Y-7696D01*
X16787Y-7857D01*
X16700Y-8067D01*
X16700Y-8294D01*
X16787Y-8504D01*
X16947Y-8664D01*
X17157Y-8751D01*
X17384Y-8752D01*
X17594Y-8665D01*
X17755Y-8504D01*
X17842Y-8295D01*
X17842Y-8068D01*
X17842Y-13346D01*
X16192Y-13346D01*
X16077Y-13394D01*
X15787Y-13684D01*
X15787Y-7107D01*
X15787Y-6107D01*
X15721Y-5947D01*
X15599Y-5825D01*
X15440Y-5759D01*
X15268Y-5759D01*
X15109Y-5825D01*
X14987Y-5947D01*
X14921Y-6106D01*
X14921Y-6278D01*
X14986Y-6437D01*
X15108Y-6559D01*
X15267Y-6625D01*
X15440Y-6626D01*
X15599Y-6560D01*
X15721Y-6438D01*
X15787Y-6279D01*
X15787Y-6107D01*
X15787Y-7107D01*
X15721Y-6947D01*
X15599Y-6825D01*
X15440Y-6759D01*
X15268Y-6759D01*
X15109Y-6825D01*
X14987Y-6947D01*
X14921Y-7106D01*
X14921Y-7278D01*
X14986Y-7437D01*
X15108Y-7559D01*
X15267Y-7625D01*
X15440Y-7626D01*
X15599Y-7560D01*
X15721Y-7438D01*
X15787Y-7279D01*
X15787Y-7107D01*
X15787Y-13684D01*
X15362Y-14109D01*
X15314Y-14224D01*
X15314Y-18133D01*
X15285Y-18204D01*
X15285Y-18310D01*
X15314Y-18382D01*
X15314Y-30767D01*
X14753Y-30767D01*
X14753Y-17703D01*
X14713Y-17605D01*
X14638Y-17530D01*
X14541Y-17490D01*
X14472Y-17490D01*
X12500Y-15517D01*
X12500Y-14988D01*
X12512Y-15007D01*
X14222Y-16717D01*
X14222Y-16784D01*
X14262Y-16882D01*
X14337Y-16957D01*
X14435Y-16997D01*
X14540Y-16998D01*
X14638Y-16957D01*
X14713Y-16883D01*
X14753Y-16785D01*
X14753Y-16679D01*
X14713Y-16581D01*
X14638Y-16507D01*
X14541Y-16466D01*
X14472Y-16466D01*
X12814Y-14808D01*
X12814Y-14325D01*
X14222Y-15732D01*
X14222Y-15800D01*
X14262Y-15898D01*
X14337Y-15973D01*
X14435Y-16013D01*
X14540Y-16013D01*
X14638Y-15973D01*
X14713Y-15898D01*
X14753Y-15801D01*
X14753Y-15695D01*
X14713Y-15597D01*
X14638Y-15522D01*
X14541Y-15482D01*
X14472Y-15482D01*
X13090Y-14099D01*
X13090Y-13610D01*
X13103Y-13629D01*
X14222Y-14748D01*
X14222Y-14816D01*
X14262Y-14914D01*
X14337Y-14988D01*
X14435Y-15029D01*
X14540Y-15029D01*
X14638Y-14989D01*
X14713Y-14914D01*
X14753Y-14816D01*
X14753Y-14711D01*
X14713Y-14613D01*
X14638Y-14538D01*
X14541Y-14498D01*
X14472Y-14498D01*
X13818Y-13844D01*
X13818Y-7107D01*
X13818Y-6107D01*
X13753Y-5947D01*
X13631Y-5825D01*
X13472Y-5759D01*
X13300Y-5759D01*
X13140Y-5825D01*
X13018Y-5947D01*
X12952Y-6106D01*
X12952Y-6278D01*
X13018Y-6437D01*
X13140Y-6559D01*
X13299Y-6625D01*
X13471Y-6626D01*
X13630Y-6560D01*
X13752Y-6438D01*
X13818Y-6279D01*
X13818Y-6107D01*
X13818Y-7107D01*
X13753Y-6947D01*
X13631Y-6825D01*
X13472Y-6759D01*
X13300Y-6759D01*
X13140Y-6825D01*
X13018Y-6947D01*
X12952Y-7106D01*
X12952Y-7278D01*
X13018Y-7437D01*
X13140Y-7559D01*
X13299Y-7625D01*
X13471Y-7626D01*
X13630Y-7560D01*
X13752Y-7438D01*
X13818Y-7279D01*
X13818Y-7107D01*
X13818Y-13844D01*
X13405Y-13430D01*
X13405Y-9923D01*
X13453Y-9875D01*
X13494Y-9777D01*
X13494Y-9671D01*
X13453Y-9574D01*
X13379Y-9499D01*
X13281Y-9458D01*
X13175Y-9458D01*
X13078Y-9498D01*
X13003Y-9573D01*
X12962Y-9671D01*
X12962Y-9734D01*
X12860Y-9734D01*
X12763Y-9774D01*
X12688Y-9849D01*
X12647Y-9946D01*
X12647Y-10009D01*
X12585Y-10009D01*
X12487Y-10050D01*
X12412Y-10124D01*
X12392Y-10174D01*
X12375Y-10167D01*
X12270Y-10167D01*
X12172Y-10207D01*
X12097Y-10282D01*
X12057Y-10379D01*
X12057Y-10485D01*
X12097Y-10583D01*
X12145Y-10631D01*
X12145Y-15590D01*
X12159Y-15658D01*
X12197Y-15715D01*
X14222Y-17740D01*
X14222Y-17808D01*
X14262Y-17906D01*
X14337Y-17981D01*
X14435Y-18021D01*
X14540Y-18021D01*
X14638Y-17981D01*
X14713Y-17906D01*
X14753Y-17808D01*
X14753Y-17703D01*
X14753Y-30767D01*
X11850Y-30767D01*
X11850Y-7107D01*
X11850Y-6107D01*
X11784Y-5947D01*
X11662Y-5825D01*
X11503Y-5759D01*
X11331Y-5759D01*
X11172Y-5825D01*
X11050Y-5947D01*
X10984Y-6106D01*
X10984Y-6278D01*
X11049Y-6437D01*
X11171Y-6559D01*
X11330Y-6625D01*
X11503Y-6626D01*
X11662Y-6560D01*
X11784Y-6438D01*
X11850Y-6279D01*
X11850Y-6107D01*
X11850Y-7107D01*
X11784Y-6947D01*
X11662Y-6825D01*
X11503Y-6759D01*
X11331Y-6759D01*
X11172Y-6825D01*
X11050Y-6947D01*
X10984Y-7106D01*
X10984Y-7278D01*
X11049Y-7437D01*
X11171Y-7559D01*
X11330Y-7625D01*
X11503Y-7626D01*
X11662Y-7560D01*
X11784Y-7438D01*
X11850Y-7279D01*
X11850Y-7107D01*
X11850Y-30767D01*
X9876Y-30767D01*
X8948Y-29839D01*
X8964Y-29799D01*
X8964Y-29626D01*
X8931Y-29546D01*
X9709Y-28769D01*
X9777Y-28769D01*
X9874Y-28729D01*
X9949Y-28654D01*
X9990Y-28557D01*
X9990Y-28451D01*
X9949Y-28353D01*
X9881Y-28285D01*
X9881Y-7107D01*
X9881Y-6107D01*
X9816Y-5947D01*
X9694Y-5825D01*
X9535Y-5759D01*
X9363Y-5759D01*
X9203Y-5825D01*
X9081Y-5947D01*
X9015Y-6106D01*
X9015Y-6278D01*
X9081Y-6437D01*
X9203Y-6559D01*
X9362Y-6625D01*
X9534Y-6626D01*
X9693Y-6560D01*
X9815Y-6438D01*
X9881Y-6279D01*
X9881Y-6107D01*
X9881Y-7107D01*
X9816Y-6947D01*
X9694Y-6825D01*
X9535Y-6759D01*
X9363Y-6759D01*
X9203Y-6825D01*
X9081Y-6947D01*
X9015Y-7106D01*
X9015Y-7278D01*
X9081Y-7437D01*
X9203Y-7559D01*
X9362Y-7625D01*
X9534Y-7626D01*
X9693Y-7560D01*
X9815Y-7438D01*
X9881Y-7279D01*
X9881Y-7107D01*
X9881Y-28285D01*
X9875Y-28278D01*
X9777Y-28238D01*
X9671Y-28238D01*
X9574Y-28278D01*
X9499Y-28353D01*
X9458Y-28450D01*
X9458Y-28519D01*
X8952Y-29025D01*
X8964Y-28996D01*
X8964Y-28823D01*
X8899Y-28664D01*
X8777Y-28542D01*
X8752Y-28531D01*
X8752Y-27001D01*
X8665Y-26791D01*
X8504Y-26630D01*
X8295Y-26543D01*
X8068Y-26543D01*
X8012Y-26566D01*
X8012Y-6431D01*
X7811Y-5946D01*
X7440Y-5575D01*
X6956Y-5374D01*
X6431Y-5373D01*
X5946Y-5574D01*
X5575Y-5944D01*
X5374Y-6429D01*
X5373Y-6954D01*
X5574Y-7439D01*
X5944Y-7810D01*
X6429Y-8011D01*
X6954Y-8012D01*
X7439Y-7811D01*
X7810Y-7440D01*
X8011Y-6956D01*
X8012Y-6431D01*
X8012Y-26566D01*
X7858Y-26629D01*
X7697Y-26790D01*
X7610Y-27000D01*
X7610Y-27227D01*
X7696Y-27437D01*
X7857Y-27597D01*
X8067Y-27684D01*
X8294Y-27685D01*
X8504Y-27598D01*
X8664Y-27437D01*
X8751Y-27228D01*
X8752Y-27001D01*
X8752Y-28531D01*
X8618Y-28476D01*
X8445Y-28476D01*
X8286Y-28541D01*
X8164Y-28663D01*
X8098Y-28822D01*
X8098Y-28965D01*
X8076Y-28943D01*
X7917Y-28877D01*
X7744Y-28877D01*
X7687Y-28901D01*
X7687Y-27645D01*
X7557Y-27330D01*
X7316Y-27089D01*
X7001Y-26958D01*
X6661Y-26958D01*
X6346Y-27088D01*
X6105Y-27329D01*
X5974Y-27643D01*
X5974Y-27984D01*
X6104Y-28299D01*
X6345Y-28540D01*
X6659Y-28671D01*
X7000Y-28671D01*
X7315Y-28541D01*
X7556Y-28300D01*
X7686Y-27986D01*
X7687Y-27645D01*
X7687Y-28901D01*
X7585Y-28943D01*
X7463Y-29065D01*
X7397Y-29224D01*
X7397Y-29396D01*
X7463Y-29556D01*
X7555Y-29648D01*
X7529Y-29659D01*
X7526Y-29661D01*
X7501Y-29757D01*
X7830Y-30086D01*
X7836Y-30080D01*
X7864Y-30108D01*
X7858Y-30114D01*
X7864Y-30119D01*
X7836Y-30147D01*
X7830Y-30142D01*
X7802Y-30169D01*
X7802Y-30114D01*
X7473Y-29785D01*
X7378Y-29809D01*
X7296Y-30006D01*
X7295Y-30218D01*
X7376Y-30415D01*
X7378Y-30418D01*
X7473Y-30443D01*
X7802Y-30114D01*
X7802Y-30169D01*
X7501Y-30471D01*
X7526Y-30566D01*
X7556Y-30579D01*
X7463Y-30671D01*
X7397Y-30830D01*
X7397Y-31003D01*
X7463Y-31162D01*
X7555Y-31255D01*
X7529Y-31266D01*
X7526Y-31267D01*
X7501Y-31363D01*
X7830Y-31692D01*
X7836Y-31687D01*
X7864Y-31714D01*
X7858Y-31720D01*
X8187Y-32049D01*
X8283Y-32024D01*
X8365Y-31828D01*
X8365Y-31719D01*
X8444Y-31752D01*
X8617Y-31752D01*
X8776Y-31686D01*
X8898Y-31564D01*
X8964Y-31405D01*
X8964Y-31233D01*
X8899Y-31073D01*
X8777Y-30951D01*
X8694Y-30917D01*
X8776Y-30883D01*
X8898Y-30761D01*
X8927Y-30692D01*
X9064Y-30692D01*
X9638Y-31267D01*
X9695Y-31305D01*
X9695Y-31305D01*
X9763Y-31318D01*
X12879Y-31318D01*
X12652Y-31545D01*
X12585Y-31545D01*
X12487Y-31585D01*
X12412Y-31660D01*
X12372Y-31757D01*
X12372Y-31863D01*
X12412Y-31961D01*
X12487Y-32036D01*
X12584Y-32076D01*
X12690Y-32076D01*
X12788Y-32036D01*
X12862Y-31961D01*
X12903Y-31864D01*
X12903Y-31795D01*
X13203Y-31496D01*
X15182Y-31496D01*
X20255Y-36569D01*
X20255Y-40076D01*
X20207Y-40124D01*
X20167Y-40222D01*
X20167Y-40328D01*
X20207Y-40425D01*
X20282Y-40500D01*
X20379Y-40541D01*
X20485Y-40541D01*
X20583Y-40501D01*
X20658Y-40426D01*
X20698Y-40328D01*
X20698Y-40222D01*
X20658Y-40125D01*
X20610Y-40076D01*
X20610Y-36496D01*
X20596Y-36428D01*
X20558Y-36370D01*
X19108Y-34921D01*
X19140Y-34921D01*
X19595Y-35375D01*
X19658Y-35418D01*
X19734Y-35433D01*
X21511Y-35433D01*
X21564Y-35486D01*
X21673Y-35531D01*
X21790Y-35531D01*
X21899Y-35486D01*
X21982Y-35403D01*
X22027Y-35295D01*
X22027Y-35177D01*
X21982Y-35069D01*
X21899Y-34986D01*
X21791Y-34940D01*
X21673Y-34940D01*
X21565Y-34985D01*
X21511Y-35039D01*
X19815Y-35039D01*
X19419Y-34642D01*
X19419Y-34567D01*
X19374Y-34458D01*
X19291Y-34375D01*
X19183Y-34330D01*
X19065Y-34330D01*
X18956Y-34375D01*
X18873Y-34458D01*
X18828Y-34566D01*
X18828Y-34641D01*
X15850Y-31662D01*
X15898Y-31642D01*
X15946Y-31594D01*
X23233Y-31594D01*
X26515Y-34876D01*
X26515Y-43464D01*
X26529Y-43532D01*
X26567Y-43589D01*
X32540Y-49562D01*
X32597Y-49600D01*
X32597Y-49600D01*
X32640Y-49609D01*
X32728Y-49645D01*
X38146Y-49645D01*
X38177Y-49614D01*
X39891Y-49614D01*
X39919Y-49682D01*
X40041Y-49804D01*
X40196Y-49868D01*
X40200Y-49870D01*
X40373Y-49870D01*
X40532Y-49804D01*
X40654Y-49682D01*
X40720Y-49523D01*
X40720Y-49380D01*
X40742Y-49402D01*
X40901Y-49468D01*
X41073Y-49468D01*
X41233Y-49402D01*
X41355Y-49281D01*
X41421Y-49121D01*
X41421Y-48949D01*
X41421Y-49887D01*
X41262Y-50045D01*
X41132Y-50360D01*
X41131Y-50701D01*
X41261Y-51015D01*
X41502Y-51257D01*
X41817Y-51387D01*
X42157Y-51387D01*
X42472Y-51257D01*
X42713Y-51017D01*
X42844Y-50702D01*
X42844Y-50361D01*
X42844Y-52807D01*
X42389Y-52618D01*
X41864Y-52617D01*
X41379Y-52818D01*
X41208Y-52989D01*
X41208Y-51119D01*
X41122Y-50909D01*
X40961Y-50748D01*
X40751Y-50661D01*
X40524Y-50661D01*
X40314Y-50748D01*
X40196Y-50865D01*
X40154Y-50908D01*
X40067Y-51118D01*
X40066Y-51345D01*
X40153Y-51555D01*
X40196Y-51598D01*
X40314Y-51715D01*
X40523Y-51803D01*
X40750Y-51803D01*
X40960Y-51716D01*
X41121Y-51556D01*
X41208Y-51346D01*
X41208Y-51119D01*
X41208Y-52989D01*
X41008Y-53188D01*
X40807Y-53673D01*
X40806Y-54198D01*
X41007Y-54683D01*
X41377Y-55054D01*
X41862Y-55255D01*
X42387Y-55256D01*
X42872Y-55055D01*
X43243Y-54685D01*
X43444Y-54200D01*
X43445Y-53675D01*
X43445Y-55748D01*
X40196Y-55748D01*
X36535Y-55748D01*
X36535Y-54351D01*
X36535Y-53351D01*
X36469Y-53192D01*
X36347Y-53070D01*
X36188Y-53004D01*
X36016Y-53003D01*
X35857Y-53069D01*
X35735Y-53191D01*
X35669Y-53350D01*
X35669Y-53522D01*
X35735Y-53682D01*
X35856Y-53803D01*
X36015Y-53870D01*
X36188Y-53870D01*
X36347Y-53804D01*
X36469Y-53682D01*
X36535Y-53523D01*
X36535Y-53351D01*
X36535Y-54351D01*
X36469Y-54192D01*
X36347Y-54070D01*
X36188Y-54004D01*
X36016Y-54003D01*
X35857Y-54069D01*
X35735Y-54191D01*
X35669Y-54350D01*
X35669Y-54522D01*
X35735Y-54682D01*
X35856Y-54803D01*
X36015Y-54870D01*
X36188Y-54870D01*
X36347Y-54804D01*
X36469Y-54682D01*
X36535Y-54523D01*
X36535Y-54351D01*
X36535Y-55748D01*
X32118Y-55748D01*
X32118Y-52335D01*
X32031Y-52125D01*
X31871Y-51965D01*
X31661Y-51878D01*
X31434Y-51877D01*
X31224Y-51964D01*
X31063Y-52125D01*
X30976Y-52334D01*
X30976Y-52561D01*
X31063Y-52771D01*
X31223Y-52932D01*
X31433Y-53019D01*
X31660Y-53019D01*
X31870Y-52933D01*
X32030Y-52772D01*
X32118Y-52562D01*
X32118Y-52335D01*
X32118Y-55748D01*
X31702Y-55748D01*
X31702Y-53629D01*
X31572Y-53314D01*
X31332Y-53073D01*
X31017Y-52943D01*
X30676Y-52942D01*
X30362Y-53072D01*
X30287Y-53147D01*
X30287Y-52694D01*
X30206Y-52497D01*
X30204Y-52494D01*
X30108Y-52470D01*
X30081Y-52497D01*
X30081Y-52442D01*
X30056Y-52346D01*
X29860Y-52264D01*
X29750Y-52264D01*
X29783Y-52184D01*
X29783Y-52012D01*
X29717Y-51853D01*
X29596Y-51731D01*
X29527Y-51702D01*
X29527Y-51003D01*
X29514Y-50936D01*
X29514Y-50936D01*
X29475Y-50878D01*
X25767Y-47170D01*
X25767Y-39371D01*
X25815Y-39323D01*
X25856Y-39226D01*
X25856Y-39120D01*
X25815Y-39022D01*
X25741Y-38948D01*
X25643Y-38907D01*
X25537Y-38907D01*
X25452Y-38942D01*
X25452Y-38348D01*
X25500Y-38300D01*
X25541Y-38202D01*
X25541Y-38096D01*
X25501Y-37999D01*
X25426Y-37924D01*
X25328Y-37883D01*
X25222Y-37883D01*
X25137Y-37919D01*
X25137Y-37395D01*
X25150Y-37390D01*
X25225Y-37316D01*
X25265Y-37218D01*
X25265Y-37112D01*
X25225Y-37015D01*
X25150Y-36940D01*
X25053Y-36899D01*
X24947Y-36899D01*
X24849Y-36939D01*
X24822Y-36966D01*
X24822Y-36340D01*
X24870Y-36292D01*
X24911Y-36194D01*
X24911Y-36089D01*
X24871Y-35991D01*
X24796Y-35916D01*
X24698Y-35876D01*
X24593Y-35875D01*
X24495Y-35916D01*
X24468Y-35943D01*
X24468Y-35356D01*
X24516Y-35308D01*
X24557Y-35210D01*
X24557Y-35104D01*
X24516Y-35007D01*
X24442Y-34932D01*
X24344Y-34891D01*
X24238Y-34891D01*
X24141Y-34932D01*
X24066Y-35006D01*
X24025Y-35104D01*
X24025Y-35210D01*
X24065Y-35307D01*
X24114Y-35356D01*
X24114Y-35982D01*
X24087Y-35955D01*
X23990Y-35915D01*
X23884Y-35915D01*
X23786Y-35955D01*
X23711Y-36030D01*
X23671Y-36128D01*
X23671Y-36233D01*
X23711Y-36331D01*
X23759Y-36379D01*
X23759Y-36966D01*
X23733Y-36940D01*
X23635Y-36899D01*
X23530Y-36899D01*
X23432Y-36939D01*
X23357Y-37014D01*
X23316Y-37112D01*
X23316Y-37217D01*
X23357Y-37315D01*
X23405Y-37364D01*
X23405Y-37950D01*
X23379Y-37924D01*
X23281Y-37883D01*
X23175Y-37883D01*
X23078Y-37924D01*
X23003Y-37998D01*
X22962Y-38096D01*
X22962Y-38202D01*
X23002Y-38299D01*
X23051Y-38348D01*
X23051Y-47170D01*
X18941Y-51280D01*
X18903Y-51337D01*
X18889Y-51405D01*
X18889Y-51702D01*
X18821Y-51730D01*
X18699Y-51852D01*
X18633Y-52011D01*
X18633Y-52184D01*
X18699Y-52343D01*
X18821Y-52465D01*
X18980Y-52531D01*
X19123Y-52531D01*
X19101Y-52553D01*
X19035Y-52712D01*
X19035Y-52885D01*
X19100Y-53044D01*
X19222Y-53166D01*
X19381Y-53232D01*
X19554Y-53232D01*
X19713Y-53166D01*
X19806Y-53074D01*
X19817Y-53100D01*
X19819Y-53103D01*
X19914Y-53128D01*
X20243Y-52799D01*
X20238Y-52793D01*
X20266Y-52765D01*
X20271Y-52771D01*
X20277Y-52765D01*
X20305Y-52793D01*
X20299Y-52799D01*
X20628Y-53128D01*
X20724Y-53103D01*
X20736Y-53073D01*
X20829Y-53166D01*
X20988Y-53232D01*
X21160Y-53232D01*
X21319Y-53166D01*
X21412Y-53074D01*
X21423Y-53100D01*
X21425Y-53103D01*
X21521Y-53128D01*
X21850Y-52799D01*
X21844Y-52793D01*
X21872Y-52765D01*
X21877Y-52771D01*
X22207Y-52442D01*
X22182Y-52346D01*
X21986Y-52264D01*
X21876Y-52264D01*
X21909Y-52184D01*
X21909Y-52012D01*
X21843Y-51853D01*
X21722Y-51731D01*
X21653Y-51702D01*
X21653Y-50447D01*
X24416Y-47684D01*
X24455Y-47626D01*
X24455Y-47626D01*
X24468Y-47559D01*
X24468Y-47795D01*
X24481Y-47863D01*
X24520Y-47920D01*
X26763Y-50163D01*
X26763Y-51702D01*
X26695Y-51730D01*
X26573Y-51852D01*
X26507Y-52011D01*
X26507Y-52184D01*
X26573Y-52343D01*
X26695Y-52465D01*
X26854Y-52531D01*
X26997Y-52531D01*
X26975Y-52553D01*
X26909Y-52712D01*
X26909Y-52885D01*
X26974Y-53044D01*
X27096Y-53166D01*
X27255Y-53232D01*
X27428Y-53232D01*
X27587Y-53166D01*
X27680Y-53074D01*
X27691Y-53100D01*
X27693Y-53103D01*
X27788Y-53128D01*
X28117Y-52799D01*
X28112Y-52793D01*
X28140Y-52765D01*
X28145Y-52771D01*
X28151Y-52765D01*
X28179Y-52793D01*
X28173Y-52799D01*
X28502Y-53128D01*
X28598Y-53103D01*
X28610Y-53073D01*
X28703Y-53166D01*
X28862Y-53232D01*
X29034Y-53232D01*
X29193Y-53166D01*
X29286Y-53074D01*
X29297Y-53100D01*
X29299Y-53103D01*
X29395Y-53128D01*
X29724Y-52799D01*
X29718Y-52793D01*
X29746Y-52765D01*
X29751Y-52771D01*
X30081Y-52442D01*
X30081Y-52497D01*
X29779Y-52799D01*
X30108Y-53128D01*
X30204Y-53103D01*
X30286Y-52907D01*
X30287Y-52694D01*
X30287Y-53147D01*
X30120Y-53313D01*
X30081Y-53409D01*
X30081Y-53156D01*
X29751Y-52827D01*
X29422Y-53156D01*
X29447Y-53251D01*
X29643Y-53333D01*
X29856Y-53334D01*
X30053Y-53253D01*
X30056Y-53251D01*
X30081Y-53156D01*
X30081Y-53409D01*
X29990Y-53628D01*
X29990Y-53968D01*
X30120Y-54283D01*
X30360Y-54524D01*
X30675Y-54655D01*
X31016Y-54655D01*
X31330Y-54525D01*
X31571Y-54284D01*
X31702Y-53970D01*
X31702Y-53629D01*
X31702Y-55748D01*
X28474Y-55748D01*
X28474Y-53156D01*
X28145Y-52827D01*
X27816Y-53156D01*
X27841Y-53251D01*
X28037Y-53333D01*
X28250Y-53334D01*
X28447Y-53253D01*
X28450Y-53251D01*
X28474Y-53156D01*
X28474Y-55748D01*
X26702Y-55748D01*
X26702Y-53629D01*
X26572Y-53314D01*
X26332Y-53073D01*
X26017Y-52943D01*
X25716Y-52942D01*
X25716Y-52335D01*
X25629Y-52125D01*
X25469Y-51965D01*
X25259Y-51878D01*
X25032Y-51877D01*
X24822Y-51964D01*
X24661Y-52125D01*
X24574Y-52334D01*
X24574Y-52561D01*
X24661Y-52771D01*
X24821Y-52932D01*
X25031Y-53019D01*
X25258Y-53019D01*
X25468Y-52933D01*
X25629Y-52772D01*
X25716Y-52562D01*
X25716Y-52335D01*
X25716Y-52942D01*
X25676Y-52942D01*
X25362Y-53072D01*
X25120Y-53313D01*
X24990Y-53628D01*
X24990Y-53968D01*
X25120Y-54283D01*
X25360Y-54524D01*
X25675Y-54655D01*
X26016Y-54655D01*
X26330Y-54525D01*
X26571Y-54284D01*
X26702Y-53970D01*
X26702Y-53629D01*
X26702Y-55748D01*
X24244Y-55748D01*
X24244Y-52335D01*
X24157Y-52125D01*
X23997Y-51965D01*
X23787Y-51878D01*
X23560Y-51877D01*
X23350Y-51964D01*
X23189Y-52125D01*
X23102Y-52334D01*
X23102Y-52561D01*
X23188Y-52771D01*
X23349Y-52932D01*
X23559Y-53019D01*
X23786Y-53019D01*
X23996Y-52933D01*
X24156Y-52772D01*
X24243Y-52562D01*
X24244Y-52335D01*
X24244Y-55748D01*
X23828Y-55748D01*
X23828Y-53629D01*
X23698Y-53314D01*
X23458Y-53073D01*
X23143Y-52943D01*
X22802Y-52942D01*
X22488Y-53072D01*
X22413Y-53147D01*
X22413Y-52694D01*
X22332Y-52497D01*
X22330Y-52494D01*
X22234Y-52470D01*
X21905Y-52799D01*
X22234Y-53128D01*
X22330Y-53103D01*
X22412Y-52907D01*
X22413Y-52694D01*
X22413Y-53147D01*
X22246Y-53313D01*
X22207Y-53409D01*
X22207Y-53156D01*
X21877Y-52827D01*
X21548Y-53156D01*
X21573Y-53251D01*
X21769Y-53333D01*
X21982Y-53334D01*
X22179Y-53253D01*
X22182Y-53251D01*
X22207Y-53156D01*
X22207Y-53409D01*
X22116Y-53628D01*
X22115Y-53968D01*
X22246Y-54283D01*
X22486Y-54524D01*
X22801Y-54655D01*
X23142Y-54655D01*
X23456Y-54525D01*
X23697Y-54284D01*
X23828Y-53970D01*
X23828Y-53629D01*
X23828Y-55748D01*
X20600Y-55748D01*
X20600Y-53156D01*
X20271Y-52827D01*
X19942Y-53156D01*
X19967Y-53251D01*
X20163Y-53333D01*
X20376Y-53334D01*
X20573Y-53253D01*
X20576Y-53251D01*
X20600Y-53156D01*
X20600Y-55748D01*
X18828Y-55748D01*
X18828Y-53629D01*
X18698Y-53314D01*
X18458Y-53073D01*
X18143Y-52943D01*
X17842Y-52942D01*
X17842Y-52335D01*
X17755Y-52125D01*
X17595Y-51965D01*
X17385Y-51878D01*
X17158Y-51877D01*
X16948Y-51964D01*
X16787Y-52125D01*
X16700Y-52334D01*
X16700Y-52561D01*
X16787Y-52771D01*
X16947Y-52932D01*
X17157Y-53019D01*
X17384Y-53019D01*
X17594Y-52933D01*
X17755Y-52772D01*
X17842Y-52562D01*
X17842Y-52335D01*
X17842Y-52942D01*
X17802Y-52942D01*
X17488Y-53072D01*
X17246Y-53313D01*
X17116Y-53628D01*
X17115Y-53968D01*
X17246Y-54283D01*
X17486Y-54524D01*
X17801Y-54655D01*
X18142Y-54655D01*
X18456Y-54525D01*
X18697Y-54284D01*
X18828Y-53970D01*
X18828Y-53629D01*
X18828Y-55748D01*
X8752Y-55748D01*
X8752Y-33402D01*
X8665Y-33192D01*
X8504Y-33032D01*
X8295Y-32944D01*
X8159Y-32944D01*
X8159Y-32077D01*
X7830Y-31748D01*
X7802Y-31776D01*
X7802Y-31720D01*
X7473Y-31391D01*
X7378Y-31416D01*
X7296Y-31612D01*
X7295Y-31825D01*
X7376Y-32022D01*
X7378Y-32024D01*
X7473Y-32049D01*
X7802Y-31720D01*
X7802Y-31776D01*
X7501Y-32077D01*
X7526Y-32172D01*
X7722Y-32255D01*
X7935Y-32255D01*
X8132Y-32174D01*
X8135Y-32172D01*
X8159Y-32077D01*
X8159Y-32944D01*
X8068Y-32944D01*
X7858Y-33031D01*
X7697Y-33191D01*
X7687Y-33216D01*
X7687Y-32645D01*
X7557Y-32330D01*
X7316Y-32089D01*
X7001Y-31958D01*
X6661Y-31958D01*
X6346Y-32088D01*
X6105Y-32329D01*
X5974Y-32643D01*
X5974Y-32984D01*
X6104Y-33299D01*
X6345Y-33540D01*
X6659Y-33671D01*
X7000Y-33671D01*
X7315Y-33541D01*
X7556Y-33300D01*
X7686Y-32986D01*
X7687Y-32645D01*
X7687Y-33216D01*
X7610Y-33401D01*
X7610Y-33628D01*
X7696Y-33838D01*
X7857Y-33999D01*
X8067Y-34086D01*
X8294Y-34086D01*
X8504Y-33999D01*
X8664Y-33839D01*
X8751Y-33629D01*
X8752Y-33402D01*
X8752Y-55748D01*
X8012Y-55748D01*
X8012Y-53675D01*
X8012Y-41864D01*
X7811Y-41379D01*
X7440Y-41008D01*
X6956Y-40807D01*
X6431Y-40806D01*
X5946Y-41007D01*
X5575Y-41377D01*
X5374Y-41862D01*
X5373Y-42387D01*
X5574Y-42872D01*
X5944Y-43243D01*
X6429Y-43444D01*
X6954Y-43445D01*
X7439Y-43244D01*
X7810Y-42874D01*
X8011Y-42389D01*
X8012Y-41864D01*
X8012Y-53675D01*
X7811Y-53190D01*
X7440Y-52819D01*
X6956Y-52618D01*
X6431Y-52617D01*
X5946Y-52818D01*
X5575Y-53188D01*
X5374Y-53673D01*
X5373Y-54198D01*
X5574Y-54683D01*
X5944Y-55054D01*
X6429Y-55255D01*
X6954Y-55256D01*
X7439Y-55055D01*
X7810Y-54685D01*
X8011Y-54200D01*
X8012Y-53675D01*
X8012Y-55748D01*
X4881Y-55748D01*
X4881Y-44094D01*
X4881Y-4881D01*
X43937Y-4881D01*
X43937Y-44094D01*
X43937Y-55748D01*
M02*
