G04 (created by PCBNEW (2013-mar-13)-testing) date Tue 15 Oct 2013 18:56:25 BST*
%MOIN*%
G04 Gerber Fmt 3.4, Leading zero omitted, Abs format*
%FSLAX34Y34*%
G01*
G70*
G90*
G04 APERTURE LIST*
%ADD10C,0.005906*%
%ADD11C,0.011811*%
%ADD12R,0.025600X0.011800*%
%ADD13R,0.011800X0.025600*%
%ADD14R,0.050000X0.025000*%
%ADD15R,0.078740X0.023622*%
%ADD16R,0.055000X0.035000*%
%ADD17R,0.027600X0.063000*%
%ADD18R,0.027600X0.082700*%
%ADD19R,0.078700X0.108300*%
%ADD20R,0.035000X0.055000*%
%ADD21R,0.131890X0.096457*%
%ADD22R,0.070984X0.021988*%
G04 APERTURE END LIST*
G54D10*
G54D11*
X45649Y-7851D02*
X45452Y-7851D01*
X45452Y-8160D02*
X45452Y-7570D01*
X45733Y-7570D01*
X45958Y-8104D02*
X45987Y-8132D01*
X45958Y-8160D01*
X45930Y-8132D01*
X45958Y-8104D01*
X45958Y-8160D01*
X46240Y-8160D02*
X46240Y-7570D01*
X46465Y-7570D01*
X46521Y-7598D01*
X46549Y-7626D01*
X46577Y-7682D01*
X46577Y-7767D01*
X46549Y-7823D01*
X46521Y-7851D01*
X46465Y-7879D01*
X46240Y-7879D01*
X47083Y-8160D02*
X47083Y-7851D01*
X47055Y-7795D01*
X46999Y-7767D01*
X46886Y-7767D01*
X46830Y-7795D01*
X47083Y-8132D02*
X47027Y-8160D01*
X46886Y-8160D01*
X46830Y-8132D01*
X46802Y-8076D01*
X46802Y-8020D01*
X46830Y-7964D01*
X46886Y-7935D01*
X47027Y-7935D01*
X47083Y-7907D01*
X47336Y-8132D02*
X47393Y-8160D01*
X47505Y-8160D01*
X47561Y-8132D01*
X47589Y-8076D01*
X47589Y-8048D01*
X47561Y-7992D01*
X47505Y-7964D01*
X47421Y-7964D01*
X47365Y-7935D01*
X47336Y-7879D01*
X47336Y-7851D01*
X47365Y-7795D01*
X47421Y-7767D01*
X47505Y-7767D01*
X47561Y-7795D01*
X47758Y-7767D02*
X47983Y-7767D01*
X47843Y-7570D02*
X47843Y-8076D01*
X47871Y-8132D01*
X47927Y-8160D01*
X47983Y-8160D01*
X48405Y-8132D02*
X48349Y-8160D01*
X48236Y-8160D01*
X48180Y-8132D01*
X48152Y-8076D01*
X48152Y-7851D01*
X48180Y-7795D01*
X48236Y-7767D01*
X48349Y-7767D01*
X48405Y-7795D01*
X48433Y-7851D01*
X48433Y-7907D01*
X48152Y-7964D01*
G54D12*
X36386Y-50098D03*
X36386Y-50295D03*
X36386Y-50492D03*
X36386Y-50689D03*
X36839Y-50689D03*
X36839Y-50492D03*
X36839Y-50295D03*
X36839Y-50098D03*
X13220Y-51082D03*
X13220Y-50885D03*
X13220Y-50688D03*
X13220Y-50491D03*
X12767Y-50491D03*
X12767Y-50688D03*
X12767Y-50885D03*
X12767Y-51082D03*
X13220Y-49507D03*
X13220Y-49310D03*
X13220Y-49113D03*
X13220Y-48916D03*
X12767Y-48916D03*
X12767Y-49113D03*
X12767Y-49310D03*
X12767Y-49507D03*
G54D13*
X38877Y-40323D03*
X38680Y-40323D03*
X38483Y-40323D03*
X38286Y-40323D03*
X38286Y-40776D03*
X38483Y-40776D03*
X38680Y-40776D03*
X38877Y-40776D03*
X36173Y-25826D03*
X36370Y-25826D03*
X36567Y-25826D03*
X36764Y-25826D03*
X36764Y-25373D03*
X36567Y-25373D03*
X36370Y-25373D03*
X36173Y-25373D03*
X36122Y-16920D03*
X36319Y-16920D03*
X36516Y-16920D03*
X36713Y-16920D03*
X36713Y-16467D03*
X36516Y-16467D03*
X36319Y-16467D03*
X36122Y-16467D03*
X36122Y-11605D03*
X36319Y-11605D03*
X36516Y-11605D03*
X36713Y-11605D03*
X36713Y-11152D03*
X36516Y-11152D03*
X36319Y-11152D03*
X36122Y-11152D03*
G54D12*
X33275Y-9862D03*
X33275Y-10059D03*
X33275Y-10256D03*
X33275Y-10453D03*
X33728Y-10453D03*
X33728Y-10256D03*
X33728Y-10059D03*
X33728Y-9862D03*
X15542Y-10649D03*
X15542Y-10452D03*
X15542Y-10255D03*
X15542Y-10058D03*
X15089Y-10058D03*
X15089Y-10255D03*
X15089Y-10452D03*
X15089Y-10649D03*
G54D14*
X30789Y-35901D03*
X30789Y-36401D03*
X30789Y-36901D03*
X30789Y-37401D03*
X30789Y-37901D03*
X30789Y-38401D03*
X30789Y-38901D03*
X32989Y-38901D03*
X32989Y-38401D03*
X32989Y-37901D03*
X32989Y-37401D03*
X32989Y-36901D03*
X32989Y-36401D03*
X32989Y-35901D03*
G54D15*
X22559Y-35151D03*
X22559Y-35651D03*
X22559Y-36151D03*
X22559Y-36651D03*
X22559Y-37151D03*
X22559Y-37651D03*
X22559Y-38151D03*
X22559Y-38651D03*
X22559Y-39151D03*
X22559Y-39651D03*
X26259Y-39651D03*
X26259Y-39151D03*
X26259Y-38651D03*
X26259Y-38151D03*
X26259Y-37651D03*
X26259Y-37151D03*
X26259Y-36651D03*
X26259Y-36151D03*
X26259Y-35651D03*
X26259Y-35151D03*
G54D13*
X12106Y-9283D03*
X12303Y-9283D03*
X12500Y-9283D03*
X12697Y-9283D03*
X12697Y-8830D03*
X12500Y-8830D03*
X12303Y-8830D03*
X12106Y-8830D03*
X36122Y-9086D03*
X36319Y-9086D03*
X36516Y-9086D03*
X36713Y-9086D03*
X36713Y-8633D03*
X36516Y-8633D03*
X36319Y-8633D03*
X36122Y-8633D03*
G54D15*
X16496Y-14246D03*
X16496Y-14746D03*
X16496Y-15246D03*
X16496Y-15746D03*
X16496Y-16246D03*
X16496Y-16746D03*
X16496Y-17246D03*
X16496Y-17746D03*
X16496Y-18246D03*
X16496Y-18746D03*
X20196Y-18746D03*
X20196Y-18246D03*
X20196Y-17746D03*
X20196Y-17246D03*
X20196Y-16746D03*
X20196Y-16246D03*
X20196Y-15746D03*
X20196Y-15246D03*
X20196Y-14746D03*
X20196Y-14246D03*
G54D16*
X12519Y-42776D03*
X12519Y-42026D03*
X17244Y-42776D03*
X17244Y-42026D03*
G54D12*
X12173Y-32342D03*
X12173Y-32539D03*
X12173Y-32736D03*
X12173Y-32933D03*
X12626Y-32933D03*
X12626Y-32736D03*
X12626Y-32539D03*
X12626Y-32342D03*
G54D13*
X20689Y-33574D03*
X20886Y-33574D03*
X21083Y-33574D03*
X21280Y-33574D03*
X21280Y-33121D03*
X21083Y-33121D03*
X20886Y-33121D03*
X20689Y-33121D03*
X28011Y-33118D03*
X27814Y-33118D03*
X27617Y-33118D03*
X27420Y-33118D03*
X27420Y-33571D03*
X27617Y-33571D03*
X27814Y-33571D03*
X28011Y-33571D03*
G54D17*
X15669Y-43700D03*
G54D18*
X15078Y-43798D03*
G54D17*
X14487Y-43700D03*
G54D19*
X15078Y-44743D03*
G54D20*
X24851Y-29143D03*
X25601Y-29143D03*
G54D21*
X30866Y-29340D03*
X32913Y-29340D03*
G54D20*
X33125Y-51000D03*
X33875Y-51000D03*
X33199Y-48572D03*
X32449Y-48572D03*
G54D22*
X24228Y-20460D03*
X24228Y-20960D03*
X24228Y-21460D03*
X24228Y-21960D03*
X24228Y-22460D03*
X24228Y-22960D03*
X24228Y-23460D03*
X24228Y-23960D03*
X24228Y-24460D03*
X24228Y-24960D03*
X24228Y-25460D03*
X24228Y-25960D03*
X24228Y-26460D03*
X24228Y-26960D03*
X24228Y-27460D03*
X24228Y-27960D03*
X28027Y-27960D03*
X28027Y-27460D03*
X28027Y-26960D03*
X28027Y-26460D03*
X28027Y-25960D03*
X28027Y-25460D03*
X28027Y-24960D03*
X28027Y-24460D03*
X28027Y-23960D03*
X28027Y-23460D03*
X28027Y-22960D03*
X28027Y-22460D03*
X28027Y-21960D03*
X28027Y-21460D03*
X28027Y-20960D03*
X28027Y-20460D03*
M02*
