G04 (created by PCBNEW (2013-mar-13)-testing) date Tue 15 Oct 2013 18:56:25 BST*
%MOIN*%
G04 Gerber Fmt 3.4, Leading zero omitted, Abs format*
%FSLAX34Y34*%
G01*
G70*
G90*
G04 APERTURE LIST*
%ADD10C,0.005906*%
%ADD11C,0.011811*%
G04 APERTURE END LIST*
G54D10*
G54D11*
X45627Y-9071D02*
X45711Y-9100D01*
X45739Y-9128D01*
X45767Y-9184D01*
X45767Y-9268D01*
X45739Y-9325D01*
X45711Y-9353D01*
X45655Y-9381D01*
X45430Y-9381D01*
X45430Y-8790D01*
X45627Y-8790D01*
X45683Y-8818D01*
X45711Y-8847D01*
X45739Y-8903D01*
X45739Y-8959D01*
X45711Y-9015D01*
X45683Y-9043D01*
X45627Y-9071D01*
X45430Y-9071D01*
X46020Y-9325D02*
X46048Y-9353D01*
X46020Y-9381D01*
X45992Y-9353D01*
X46020Y-9325D01*
X46020Y-9381D01*
X46302Y-9381D02*
X46302Y-8790D01*
X46526Y-8790D01*
X46583Y-8818D01*
X46611Y-8847D01*
X46639Y-8903D01*
X46639Y-8987D01*
X46611Y-9043D01*
X46583Y-9071D01*
X46526Y-9100D01*
X46302Y-9100D01*
X47145Y-9381D02*
X47145Y-9071D01*
X47117Y-9015D01*
X47061Y-8987D01*
X46948Y-8987D01*
X46892Y-9015D01*
X47145Y-9353D02*
X47089Y-9381D01*
X46948Y-9381D01*
X46892Y-9353D01*
X46864Y-9296D01*
X46864Y-9240D01*
X46892Y-9184D01*
X46948Y-9156D01*
X47089Y-9156D01*
X47145Y-9128D01*
X47398Y-9353D02*
X47455Y-9381D01*
X47567Y-9381D01*
X47623Y-9353D01*
X47651Y-9296D01*
X47651Y-9268D01*
X47623Y-9212D01*
X47567Y-9184D01*
X47483Y-9184D01*
X47426Y-9156D01*
X47398Y-9100D01*
X47398Y-9071D01*
X47426Y-9015D01*
X47483Y-8987D01*
X47567Y-8987D01*
X47623Y-9015D01*
X47820Y-8987D02*
X48045Y-8987D01*
X47904Y-8790D02*
X47904Y-9296D01*
X47933Y-9353D01*
X47989Y-9381D01*
X48045Y-9381D01*
X48467Y-9353D02*
X48411Y-9381D01*
X48298Y-9381D01*
X48242Y-9353D01*
X48214Y-9296D01*
X48214Y-9071D01*
X48242Y-9015D01*
X48298Y-8987D01*
X48411Y-8987D01*
X48467Y-9015D01*
X48495Y-9071D01*
X48495Y-9128D01*
X48214Y-9184D01*
M02*
