G04 (created by PCBNEW (2013-mar-13)-testing) date Tue 15 Oct 2013 18:52:10 BST*
%MOIN*%
G04 Gerber Fmt 3.4, Leading zero omitted, Abs format*
%FSLAX34Y34*%
G01*
G70*
G90*
G04 APERTURE LIST*
%ADD10C,0.005000*%
%ADD11C,0.011811*%
%ADD12C,0.003937*%
%ADD13C,0.007874*%
G04 APERTURE END LIST*
G54D10*
G54D11*
X45435Y-15410D02*
X45632Y-15410D01*
X45717Y-15719D02*
X45435Y-15719D01*
X45435Y-15129D01*
X45717Y-15129D01*
X46223Y-15719D02*
X46223Y-15129D01*
X46223Y-15691D02*
X46167Y-15719D01*
X46054Y-15719D01*
X45998Y-15691D01*
X45970Y-15663D01*
X45942Y-15607D01*
X45942Y-15438D01*
X45970Y-15382D01*
X45998Y-15354D01*
X46054Y-15326D01*
X46167Y-15326D01*
X46223Y-15354D01*
X46757Y-15326D02*
X46757Y-15804D01*
X46729Y-15860D01*
X46701Y-15888D01*
X46645Y-15916D01*
X46560Y-15916D01*
X46504Y-15888D01*
X46757Y-15691D02*
X46701Y-15719D01*
X46588Y-15719D01*
X46532Y-15691D01*
X46504Y-15663D01*
X46476Y-15607D01*
X46476Y-15438D01*
X46504Y-15382D01*
X46532Y-15354D01*
X46588Y-15326D01*
X46701Y-15326D01*
X46757Y-15354D01*
X47263Y-15691D02*
X47207Y-15719D01*
X47095Y-15719D01*
X47038Y-15691D01*
X47010Y-15635D01*
X47010Y-15410D01*
X47038Y-15354D01*
X47095Y-15326D01*
X47207Y-15326D01*
X47263Y-15354D01*
X47291Y-15410D01*
X47291Y-15466D01*
X47010Y-15523D01*
X47544Y-15663D02*
X47573Y-15691D01*
X47544Y-15719D01*
X47516Y-15691D01*
X47544Y-15663D01*
X47544Y-15719D01*
X48163Y-15663D02*
X48135Y-15691D01*
X48051Y-15719D01*
X47994Y-15719D01*
X47910Y-15691D01*
X47854Y-15635D01*
X47826Y-15579D01*
X47798Y-15466D01*
X47798Y-15382D01*
X47826Y-15269D01*
X47854Y-15213D01*
X47910Y-15157D01*
X47994Y-15129D01*
X48051Y-15129D01*
X48135Y-15157D01*
X48163Y-15185D01*
X48669Y-15326D02*
X48669Y-15719D01*
X48416Y-15326D02*
X48416Y-15635D01*
X48444Y-15691D01*
X48501Y-15719D01*
X48585Y-15719D01*
X48641Y-15691D01*
X48669Y-15663D01*
X48866Y-15326D02*
X49091Y-15326D01*
X48951Y-15129D02*
X48951Y-15635D01*
X48979Y-15691D01*
X49035Y-15719D01*
X49091Y-15719D01*
X49260Y-15691D02*
X49316Y-15719D01*
X49429Y-15719D01*
X49485Y-15691D01*
X49513Y-15635D01*
X49513Y-15607D01*
X49485Y-15551D01*
X49429Y-15523D01*
X49344Y-15523D01*
X49288Y-15494D01*
X49260Y-15438D01*
X49260Y-15410D01*
X49288Y-15354D01*
X49344Y-15326D01*
X49429Y-15326D01*
X49485Y-15354D01*
G54D12*
X44094Y-44094D02*
X44094Y-55905D01*
X4724Y-44094D02*
X4724Y-55905D01*
X44094Y-55905D02*
X4724Y-55905D01*
X4724Y-44094D02*
X4724Y-4724D01*
X44094Y-4724D02*
X44094Y-44094D01*
X4724Y-4724D02*
X44094Y-4724D01*
G54D13*
X6102Y-6102D02*
X7283Y-7283D01*
X7283Y-6102D02*
X6102Y-7283D01*
X6102Y-41535D02*
X7283Y-42716D01*
X7283Y-41535D02*
X6102Y-42716D01*
X6102Y-53346D02*
X7283Y-54527D01*
X7283Y-53346D02*
X6102Y-54527D01*
X41535Y-6102D02*
X42716Y-7283D01*
X42716Y-6102D02*
X41535Y-7283D01*
X41535Y-41535D02*
X42716Y-42716D01*
X42716Y-41535D02*
X41535Y-42716D01*
X41535Y-53346D02*
X42716Y-54527D01*
X42716Y-53346D02*
X41535Y-54527D01*
X7470Y-27814D02*
G75*
G03X7470Y-27814I-640J0D01*
G74*
G01*
X7470Y-32814D02*
G75*
G03X7470Y-32814I-640J0D01*
G74*
G01*
X18612Y-6830D02*
G75*
G03X18612Y-6830I-640J0D01*
G74*
G01*
X18612Y-53799D02*
G75*
G03X18612Y-53799I-640J0D01*
G74*
G01*
X23612Y-6830D02*
G75*
G03X23612Y-6830I-640J0D01*
G74*
G01*
X23612Y-53799D02*
G75*
G03X23612Y-53799I-640J0D01*
G74*
G01*
X26486Y-6830D02*
G75*
G03X26486Y-6830I-640J0D01*
G74*
G01*
X26486Y-53799D02*
G75*
G03X26486Y-53799I-640J0D01*
G74*
G01*
X31486Y-6830D02*
G75*
G03X31486Y-6830I-640J0D01*
G74*
G01*
X31486Y-53799D02*
G75*
G03X31486Y-53799I-640J0D01*
G74*
G01*
X42628Y-10098D02*
G75*
G03X42628Y-10098I-640J0D01*
G74*
G01*
X42628Y-15098D02*
G75*
G03X42628Y-15098I-640J0D01*
G74*
G01*
X42628Y-17972D02*
G75*
G03X42628Y-17972I-640J0D01*
G74*
G01*
X42628Y-22972D02*
G75*
G03X42628Y-22972I-640J0D01*
G74*
G01*
X42628Y-25846D02*
G75*
G03X42628Y-25846I-640J0D01*
G74*
G01*
X42628Y-30846D02*
G75*
G03X42628Y-30846I-640J0D01*
G74*
G01*
X42628Y-33720D02*
G75*
G03X42628Y-33720I-640J0D01*
G74*
G01*
X42628Y-38720D02*
G75*
G03X42628Y-38720I-640J0D01*
G74*
G01*
X42628Y-45531D02*
G75*
G03X42628Y-45531I-640J0D01*
G74*
G01*
X42628Y-50531D02*
G75*
G03X42628Y-50531I-640J0D01*
G74*
G01*
G54D11*
X5773Y-57758D02*
X5773Y-56577D01*
X6054Y-56577D01*
X6223Y-56633D01*
X6335Y-56746D01*
X6392Y-56858D01*
X6448Y-57083D01*
X6448Y-57252D01*
X6392Y-57477D01*
X6335Y-57589D01*
X6223Y-57702D01*
X6054Y-57758D01*
X5773Y-57758D01*
X6954Y-57758D02*
X6954Y-56971D01*
X6954Y-57196D02*
X7010Y-57083D01*
X7066Y-57027D01*
X7179Y-56971D01*
X7291Y-56971D01*
X7685Y-57758D02*
X7685Y-56971D01*
X7685Y-56577D02*
X7629Y-56633D01*
X7685Y-56690D01*
X7741Y-56633D01*
X7685Y-56577D01*
X7685Y-56690D01*
X8416Y-57758D02*
X8304Y-57702D01*
X8248Y-57589D01*
X8248Y-56577D01*
X9035Y-57758D02*
X8922Y-57702D01*
X8866Y-57589D01*
X8866Y-56577D01*
X10385Y-57758D02*
X10385Y-56577D01*
X10778Y-57421D01*
X11172Y-56577D01*
X11172Y-57758D01*
X12241Y-57758D02*
X12241Y-57140D01*
X12185Y-57027D01*
X12072Y-56971D01*
X11847Y-56971D01*
X11735Y-57027D01*
X12241Y-57702D02*
X12128Y-57758D01*
X11847Y-57758D01*
X11735Y-57702D01*
X11678Y-57589D01*
X11678Y-57477D01*
X11735Y-57365D01*
X11847Y-57308D01*
X12128Y-57308D01*
X12241Y-57252D01*
X12803Y-56971D02*
X12803Y-58152D01*
X12803Y-57027D02*
X12916Y-56971D01*
X13141Y-56971D01*
X13253Y-57027D01*
X13309Y-57083D01*
X13366Y-57196D01*
X13366Y-57533D01*
X13309Y-57646D01*
X13253Y-57702D01*
X13141Y-57758D01*
X12916Y-57758D01*
X12803Y-57702D01*
X13872Y-57646D02*
X13928Y-57702D01*
X13872Y-57758D01*
X13816Y-57702D01*
X13872Y-57646D01*
X13872Y-57758D01*
X13872Y-57027D02*
X13928Y-57083D01*
X13872Y-57140D01*
X13816Y-57083D01*
X13872Y-57027D01*
X13872Y-57140D01*
X3523Y-59114D02*
X4704Y-60295D01*
X4704Y-59114D02*
X3523Y-60295D01*
X5660Y-59057D02*
X6392Y-59057D01*
X5998Y-59507D01*
X6167Y-59507D01*
X6279Y-59564D01*
X6335Y-59620D01*
X6392Y-59732D01*
X6392Y-60014D01*
X6335Y-60126D01*
X6279Y-60182D01*
X6167Y-60239D01*
X5829Y-60239D01*
X5717Y-60182D01*
X5660Y-60126D01*
X6898Y-60126D02*
X6954Y-60182D01*
X6898Y-60239D01*
X6841Y-60182D01*
X6898Y-60126D01*
X6898Y-60239D01*
X7685Y-59057D02*
X7798Y-59057D01*
X7910Y-59114D01*
X7966Y-59170D01*
X8023Y-59282D01*
X8079Y-59507D01*
X8079Y-59789D01*
X8023Y-60014D01*
X7966Y-60126D01*
X7910Y-60182D01*
X7798Y-60239D01*
X7685Y-60239D01*
X7573Y-60182D01*
X7516Y-60126D01*
X7460Y-60014D01*
X7404Y-59789D01*
X7404Y-59507D01*
X7460Y-59282D01*
X7516Y-59170D01*
X7573Y-59114D01*
X7685Y-59057D01*
X8810Y-59057D02*
X8922Y-59057D01*
X9035Y-59114D01*
X9091Y-59170D01*
X9147Y-59282D01*
X9204Y-59507D01*
X9204Y-59789D01*
X9147Y-60014D01*
X9091Y-60126D01*
X9035Y-60182D01*
X8922Y-60239D01*
X8810Y-60239D01*
X8697Y-60182D01*
X8641Y-60126D01*
X8585Y-60014D01*
X8529Y-59789D01*
X8529Y-59507D01*
X8585Y-59282D01*
X8641Y-59170D01*
X8697Y-59114D01*
X8810Y-59057D01*
X9710Y-60239D02*
X9710Y-59451D01*
X9710Y-59564D02*
X9766Y-59507D01*
X9879Y-59451D01*
X10047Y-59451D01*
X10160Y-59507D01*
X10216Y-59620D01*
X10216Y-60239D01*
X10216Y-59620D02*
X10272Y-59507D01*
X10385Y-59451D01*
X10553Y-59451D01*
X10666Y-59507D01*
X10722Y-59620D01*
X10722Y-60239D01*
X11285Y-60239D02*
X11285Y-59451D01*
X11285Y-59564D02*
X11341Y-59507D01*
X11453Y-59451D01*
X11622Y-59451D01*
X11735Y-59507D01*
X11791Y-59620D01*
X11791Y-60239D01*
X11791Y-59620D02*
X11847Y-59507D01*
X11960Y-59451D01*
X12128Y-59451D01*
X12241Y-59507D01*
X12297Y-59620D01*
X12297Y-60239D01*
X14603Y-59001D02*
X13591Y-60520D01*
X16122Y-59057D02*
X16234Y-59057D01*
X16347Y-59114D01*
X16403Y-59170D01*
X16459Y-59282D01*
X16515Y-59507D01*
X16515Y-59789D01*
X16459Y-60014D01*
X16403Y-60126D01*
X16347Y-60182D01*
X16234Y-60239D01*
X16122Y-60239D01*
X16009Y-60182D01*
X15953Y-60126D01*
X15897Y-60014D01*
X15840Y-59789D01*
X15840Y-59507D01*
X15897Y-59282D01*
X15953Y-59170D01*
X16009Y-59114D01*
X16122Y-59057D01*
X17021Y-60126D02*
X17078Y-60182D01*
X17021Y-60239D01*
X16965Y-60182D01*
X17021Y-60126D01*
X17021Y-60239D01*
X18203Y-60239D02*
X17528Y-60239D01*
X17865Y-60239D02*
X17865Y-59057D01*
X17753Y-59226D01*
X17640Y-59339D01*
X17528Y-59395D01*
X19327Y-60239D02*
X18652Y-60239D01*
X18990Y-60239D02*
X18990Y-59057D01*
X18877Y-59226D01*
X18765Y-59339D01*
X18652Y-59395D01*
X20002Y-59564D02*
X19890Y-59507D01*
X19834Y-59451D01*
X19777Y-59339D01*
X19777Y-59282D01*
X19834Y-59170D01*
X19890Y-59114D01*
X20002Y-59057D01*
X20227Y-59057D01*
X20340Y-59114D01*
X20396Y-59170D01*
X20452Y-59282D01*
X20452Y-59339D01*
X20396Y-59451D01*
X20340Y-59507D01*
X20227Y-59564D01*
X20002Y-59564D01*
X19890Y-59620D01*
X19834Y-59676D01*
X19777Y-59789D01*
X19777Y-60014D01*
X19834Y-60126D01*
X19890Y-60182D01*
X20002Y-60239D01*
X20227Y-60239D01*
X20340Y-60182D01*
X20396Y-60126D01*
X20452Y-60014D01*
X20452Y-59789D01*
X20396Y-59676D01*
X20340Y-59620D01*
X20227Y-59564D01*
X20902Y-59057D02*
X20902Y-59282D01*
X21352Y-59057D02*
X21352Y-59282D01*
X23096Y-60688D02*
X23039Y-60632D01*
X22927Y-60464D01*
X22871Y-60351D01*
X22814Y-60182D01*
X22758Y-59901D01*
X22758Y-59676D01*
X22814Y-59395D01*
X22871Y-59226D01*
X22927Y-59114D01*
X23039Y-58945D01*
X23096Y-58889D01*
X24052Y-59057D02*
X23827Y-59057D01*
X23714Y-59114D01*
X23658Y-59170D01*
X23546Y-59339D01*
X23489Y-59564D01*
X23489Y-60014D01*
X23546Y-60126D01*
X23602Y-60182D01*
X23714Y-60239D01*
X23939Y-60239D01*
X24052Y-60182D01*
X24108Y-60126D01*
X24164Y-60014D01*
X24164Y-59732D01*
X24108Y-59620D01*
X24052Y-59564D01*
X23939Y-59507D01*
X23714Y-59507D01*
X23602Y-59564D01*
X23546Y-59620D01*
X23489Y-59732D01*
X25570Y-60239D02*
X25570Y-59057D01*
X26077Y-60239D02*
X26077Y-59620D01*
X26020Y-59507D01*
X25908Y-59451D01*
X25739Y-59451D01*
X25627Y-59507D01*
X25570Y-59564D01*
X26808Y-60239D02*
X26695Y-60182D01*
X26639Y-60126D01*
X26583Y-60014D01*
X26583Y-59676D01*
X26639Y-59564D01*
X26695Y-59507D01*
X26808Y-59451D01*
X26976Y-59451D01*
X27089Y-59507D01*
X27145Y-59564D01*
X27201Y-59676D01*
X27201Y-60014D01*
X27145Y-60126D01*
X27089Y-60182D01*
X26976Y-60239D01*
X26808Y-60239D01*
X27876Y-60239D02*
X27764Y-60182D01*
X27708Y-60070D01*
X27708Y-59057D01*
X28776Y-60182D02*
X28664Y-60239D01*
X28439Y-60239D01*
X28326Y-60182D01*
X28270Y-60070D01*
X28270Y-59620D01*
X28326Y-59507D01*
X28439Y-59451D01*
X28664Y-59451D01*
X28776Y-59507D01*
X28832Y-59620D01*
X28832Y-59732D01*
X28270Y-59845D01*
X29282Y-60182D02*
X29395Y-60239D01*
X29620Y-60239D01*
X29732Y-60182D01*
X29789Y-60070D01*
X29789Y-60014D01*
X29732Y-59901D01*
X29620Y-59845D01*
X29451Y-59845D01*
X29339Y-59789D01*
X29282Y-59676D01*
X29282Y-59620D01*
X29339Y-59507D01*
X29451Y-59451D01*
X29620Y-59451D01*
X29732Y-59507D01*
X30182Y-60688D02*
X30239Y-60632D01*
X30351Y-60464D01*
X30407Y-60351D01*
X30464Y-60182D01*
X30520Y-59901D01*
X30520Y-59676D01*
X30464Y-59395D01*
X30407Y-59226D01*
X30351Y-59114D01*
X30239Y-58945D01*
X30182Y-58889D01*
G54D13*
X4704Y-61397D02*
G75*
G03X4704Y-61397I-639J0D01*
G74*
G01*
G54D11*
X5660Y-60750D02*
X6392Y-60750D01*
X5998Y-61200D01*
X6167Y-61200D01*
X6279Y-61257D01*
X6335Y-61313D01*
X6392Y-61425D01*
X6392Y-61706D01*
X6335Y-61819D01*
X6279Y-61875D01*
X6167Y-61931D01*
X5829Y-61931D01*
X5717Y-61875D01*
X5660Y-61819D01*
X6898Y-61819D02*
X6954Y-61875D01*
X6898Y-61931D01*
X6841Y-61875D01*
X6898Y-61819D01*
X6898Y-61931D01*
X7404Y-60863D02*
X7460Y-60807D01*
X7573Y-60750D01*
X7854Y-60750D01*
X7966Y-60807D01*
X8023Y-60863D01*
X8079Y-60975D01*
X8079Y-61088D01*
X8023Y-61257D01*
X7348Y-61931D01*
X8079Y-61931D01*
X9147Y-60750D02*
X8585Y-60750D01*
X8529Y-61313D01*
X8585Y-61257D01*
X8697Y-61200D01*
X8979Y-61200D01*
X9091Y-61257D01*
X9147Y-61313D01*
X9204Y-61425D01*
X9204Y-61706D01*
X9147Y-61819D01*
X9091Y-61875D01*
X8979Y-61931D01*
X8697Y-61931D01*
X8585Y-61875D01*
X8529Y-61819D01*
X9710Y-61931D02*
X9710Y-61144D01*
X9710Y-61257D02*
X9766Y-61200D01*
X9879Y-61144D01*
X10047Y-61144D01*
X10160Y-61200D01*
X10216Y-61313D01*
X10216Y-61931D01*
X10216Y-61313D02*
X10272Y-61200D01*
X10385Y-61144D01*
X10553Y-61144D01*
X10666Y-61200D01*
X10722Y-61313D01*
X10722Y-61931D01*
X11285Y-61931D02*
X11285Y-61144D01*
X11285Y-61257D02*
X11341Y-61200D01*
X11453Y-61144D01*
X11622Y-61144D01*
X11735Y-61200D01*
X11791Y-61313D01*
X11791Y-61931D01*
X11791Y-61313D02*
X11847Y-61200D01*
X11960Y-61144D01*
X12128Y-61144D01*
X12241Y-61200D01*
X12297Y-61313D01*
X12297Y-61931D01*
X14603Y-60694D02*
X13591Y-62213D01*
X16122Y-60750D02*
X16234Y-60750D01*
X16347Y-60807D01*
X16403Y-60863D01*
X16459Y-60975D01*
X16515Y-61200D01*
X16515Y-61482D01*
X16459Y-61706D01*
X16403Y-61819D01*
X16347Y-61875D01*
X16234Y-61931D01*
X16122Y-61931D01*
X16009Y-61875D01*
X15953Y-61819D01*
X15897Y-61706D01*
X15840Y-61482D01*
X15840Y-61200D01*
X15897Y-60975D01*
X15953Y-60863D01*
X16009Y-60807D01*
X16122Y-60750D01*
X17021Y-61819D02*
X17078Y-61875D01*
X17021Y-61931D01*
X16965Y-61875D01*
X17021Y-61819D01*
X17021Y-61931D01*
X18203Y-61931D02*
X17528Y-61931D01*
X17865Y-61931D02*
X17865Y-60750D01*
X17753Y-60919D01*
X17640Y-61032D01*
X17528Y-61088D01*
X18652Y-60863D02*
X18709Y-60807D01*
X18821Y-60750D01*
X19102Y-60750D01*
X19215Y-60807D01*
X19271Y-60863D01*
X19327Y-60975D01*
X19327Y-61088D01*
X19271Y-61257D01*
X18596Y-61931D01*
X19327Y-61931D01*
X20002Y-61257D02*
X19890Y-61200D01*
X19834Y-61144D01*
X19777Y-61032D01*
X19777Y-60975D01*
X19834Y-60863D01*
X19890Y-60807D01*
X20002Y-60750D01*
X20227Y-60750D01*
X20340Y-60807D01*
X20396Y-60863D01*
X20452Y-60975D01*
X20452Y-61032D01*
X20396Y-61144D01*
X20340Y-61200D01*
X20227Y-61257D01*
X20002Y-61257D01*
X19890Y-61313D01*
X19834Y-61369D01*
X19777Y-61482D01*
X19777Y-61706D01*
X19834Y-61819D01*
X19890Y-61875D01*
X20002Y-61931D01*
X20227Y-61931D01*
X20340Y-61875D01*
X20396Y-61819D01*
X20452Y-61706D01*
X20452Y-61482D01*
X20396Y-61369D01*
X20340Y-61313D01*
X20227Y-61257D01*
X20902Y-60750D02*
X20902Y-60975D01*
X21352Y-60750D02*
X21352Y-60975D01*
X23096Y-62381D02*
X23039Y-62325D01*
X22927Y-62156D01*
X22871Y-62044D01*
X22814Y-61875D01*
X22758Y-61594D01*
X22758Y-61369D01*
X22814Y-61088D01*
X22871Y-60919D01*
X22927Y-60807D01*
X23039Y-60638D01*
X23096Y-60582D01*
X23489Y-60863D02*
X23546Y-60807D01*
X23658Y-60750D01*
X23939Y-60750D01*
X24052Y-60807D01*
X24108Y-60863D01*
X24164Y-60975D01*
X24164Y-61088D01*
X24108Y-61257D01*
X23433Y-61931D01*
X24164Y-61931D01*
X24895Y-60750D02*
X25008Y-60750D01*
X25120Y-60807D01*
X25177Y-60863D01*
X25233Y-60975D01*
X25289Y-61200D01*
X25289Y-61482D01*
X25233Y-61706D01*
X25177Y-61819D01*
X25120Y-61875D01*
X25008Y-61931D01*
X24895Y-61931D01*
X24783Y-61875D01*
X24727Y-61819D01*
X24670Y-61706D01*
X24614Y-61482D01*
X24614Y-61200D01*
X24670Y-60975D01*
X24727Y-60863D01*
X24783Y-60807D01*
X24895Y-60750D01*
X26695Y-61931D02*
X26695Y-60750D01*
X27201Y-61931D02*
X27201Y-61313D01*
X27145Y-61200D01*
X27033Y-61144D01*
X26864Y-61144D01*
X26751Y-61200D01*
X26695Y-61257D01*
X27933Y-61931D02*
X27820Y-61875D01*
X27764Y-61819D01*
X27708Y-61706D01*
X27708Y-61369D01*
X27764Y-61257D01*
X27820Y-61200D01*
X27933Y-61144D01*
X28101Y-61144D01*
X28214Y-61200D01*
X28270Y-61257D01*
X28326Y-61369D01*
X28326Y-61706D01*
X28270Y-61819D01*
X28214Y-61875D01*
X28101Y-61931D01*
X27933Y-61931D01*
X29001Y-61931D02*
X28889Y-61875D01*
X28832Y-61763D01*
X28832Y-60750D01*
X29901Y-61875D02*
X29789Y-61931D01*
X29564Y-61931D01*
X29451Y-61875D01*
X29395Y-61763D01*
X29395Y-61313D01*
X29451Y-61200D01*
X29564Y-61144D01*
X29789Y-61144D01*
X29901Y-61200D01*
X29957Y-61313D01*
X29957Y-61425D01*
X29395Y-61538D01*
X30407Y-61875D02*
X30520Y-61931D01*
X30745Y-61931D01*
X30857Y-61875D01*
X30913Y-61763D01*
X30913Y-61706D01*
X30857Y-61594D01*
X30745Y-61538D01*
X30576Y-61538D01*
X30464Y-61482D01*
X30407Y-61369D01*
X30407Y-61313D01*
X30464Y-61200D01*
X30576Y-61144D01*
X30745Y-61144D01*
X30857Y-61200D01*
X31307Y-62381D02*
X31363Y-62325D01*
X31476Y-62156D01*
X31532Y-62044D01*
X31588Y-61875D01*
X31645Y-61594D01*
X31645Y-61369D01*
X31588Y-61088D01*
X31532Y-60919D01*
X31476Y-60807D01*
X31363Y-60638D01*
X31307Y-60582D01*
M02*
