G04 (created by PCBNEW (2013-mar-13)-testing) date Tue 15 Oct 2013 18:56:25 BST*
%MOIN*%
G04 Gerber Fmt 3.4, Leading zero omitted, Abs format*
%FSLAX34Y34*%
G01*
G70*
G90*
G04 APERTURE LIST*
%ADD10C,0.005906*%
%ADD11C,0.011811*%
%ADD12C,0.003937*%
G04 APERTURE END LIST*
G54D10*
G54D11*
X45435Y-15410D02*
X45632Y-15410D01*
X45717Y-15719D02*
X45435Y-15719D01*
X45435Y-15129D01*
X45717Y-15129D01*
X46223Y-15719D02*
X46223Y-15129D01*
X46223Y-15691D02*
X46167Y-15719D01*
X46054Y-15719D01*
X45998Y-15691D01*
X45970Y-15663D01*
X45942Y-15607D01*
X45942Y-15438D01*
X45970Y-15382D01*
X45998Y-15354D01*
X46054Y-15326D01*
X46167Y-15326D01*
X46223Y-15354D01*
X46757Y-15326D02*
X46757Y-15804D01*
X46729Y-15860D01*
X46701Y-15888D01*
X46645Y-15916D01*
X46560Y-15916D01*
X46504Y-15888D01*
X46757Y-15691D02*
X46701Y-15719D01*
X46588Y-15719D01*
X46532Y-15691D01*
X46504Y-15663D01*
X46476Y-15607D01*
X46476Y-15438D01*
X46504Y-15382D01*
X46532Y-15354D01*
X46588Y-15326D01*
X46701Y-15326D01*
X46757Y-15354D01*
X47263Y-15691D02*
X47207Y-15719D01*
X47095Y-15719D01*
X47038Y-15691D01*
X47010Y-15635D01*
X47010Y-15410D01*
X47038Y-15354D01*
X47095Y-15326D01*
X47207Y-15326D01*
X47263Y-15354D01*
X47291Y-15410D01*
X47291Y-15466D01*
X47010Y-15523D01*
X47544Y-15663D02*
X47573Y-15691D01*
X47544Y-15719D01*
X47516Y-15691D01*
X47544Y-15663D01*
X47544Y-15719D01*
X48163Y-15663D02*
X48135Y-15691D01*
X48051Y-15719D01*
X47994Y-15719D01*
X47910Y-15691D01*
X47854Y-15635D01*
X47826Y-15579D01*
X47798Y-15466D01*
X47798Y-15382D01*
X47826Y-15269D01*
X47854Y-15213D01*
X47910Y-15157D01*
X47994Y-15129D01*
X48051Y-15129D01*
X48135Y-15157D01*
X48163Y-15185D01*
X48669Y-15326D02*
X48669Y-15719D01*
X48416Y-15326D02*
X48416Y-15635D01*
X48444Y-15691D01*
X48501Y-15719D01*
X48585Y-15719D01*
X48641Y-15691D01*
X48669Y-15663D01*
X48866Y-15326D02*
X49091Y-15326D01*
X48951Y-15129D02*
X48951Y-15635D01*
X48979Y-15691D01*
X49035Y-15719D01*
X49091Y-15719D01*
X49260Y-15691D02*
X49316Y-15719D01*
X49429Y-15719D01*
X49485Y-15691D01*
X49513Y-15635D01*
X49513Y-15607D01*
X49485Y-15551D01*
X49429Y-15523D01*
X49344Y-15523D01*
X49288Y-15494D01*
X49260Y-15438D01*
X49260Y-15410D01*
X49288Y-15354D01*
X49344Y-15326D01*
X49429Y-15326D01*
X49485Y-15354D01*
G54D12*
X44094Y-44094D02*
X44094Y-55905D01*
X4724Y-44094D02*
X4724Y-55905D01*
X44094Y-55905D02*
X4724Y-55905D01*
X4724Y-44094D02*
X4724Y-4724D01*
X44094Y-4724D02*
X44094Y-44094D01*
X4724Y-4724D02*
X44094Y-4724D01*
M02*
