G04 (created by PCBNEW (2013-07-07 BZR 4022)-stable) date 9/18/2013 14:10:45*
%MOIN*%
G04 Gerber Fmt 3.4, Leading zero omitted, Abs format*
%FSLAX34Y34*%
G01*
G70*
G90*
G04 APERTURE LIST*
%ADD10C,0.005*%
%ADD11C,0.011811*%
%ADD12C,0.00393701*%
%ADD13C,0.00787402*%
G04 APERTURE END LIST*
G54D10*
G54D11*
X53388Y-20461D02*
X53585Y-20461D01*
X53669Y-20770D02*
X53388Y-20770D01*
X53388Y-20179D01*
X53669Y-20179D01*
X54176Y-20770D02*
X54176Y-20179D01*
X54176Y-20742D02*
X54119Y-20770D01*
X54007Y-20770D01*
X53951Y-20742D01*
X53922Y-20714D01*
X53894Y-20658D01*
X53894Y-20489D01*
X53922Y-20433D01*
X53951Y-20404D01*
X54007Y-20376D01*
X54119Y-20376D01*
X54176Y-20404D01*
X54710Y-20376D02*
X54710Y-20854D01*
X54682Y-20911D01*
X54654Y-20939D01*
X54597Y-20967D01*
X54513Y-20967D01*
X54457Y-20939D01*
X54710Y-20742D02*
X54654Y-20770D01*
X54541Y-20770D01*
X54485Y-20742D01*
X54457Y-20714D01*
X54429Y-20658D01*
X54429Y-20489D01*
X54457Y-20433D01*
X54485Y-20404D01*
X54541Y-20376D01*
X54654Y-20376D01*
X54710Y-20404D01*
X55216Y-20742D02*
X55160Y-20770D01*
X55047Y-20770D01*
X54991Y-20742D01*
X54963Y-20686D01*
X54963Y-20461D01*
X54991Y-20404D01*
X55047Y-20376D01*
X55160Y-20376D01*
X55216Y-20404D01*
X55244Y-20461D01*
X55244Y-20517D01*
X54963Y-20573D01*
X55497Y-20714D02*
X55525Y-20742D01*
X55497Y-20770D01*
X55469Y-20742D01*
X55497Y-20714D01*
X55497Y-20770D01*
X56116Y-20714D02*
X56088Y-20742D01*
X56003Y-20770D01*
X55947Y-20770D01*
X55863Y-20742D01*
X55807Y-20686D01*
X55778Y-20629D01*
X55750Y-20517D01*
X55750Y-20433D01*
X55778Y-20320D01*
X55807Y-20264D01*
X55863Y-20208D01*
X55947Y-20179D01*
X56003Y-20179D01*
X56088Y-20208D01*
X56116Y-20236D01*
X56622Y-20376D02*
X56622Y-20770D01*
X56369Y-20376D02*
X56369Y-20686D01*
X56397Y-20742D01*
X56453Y-20770D01*
X56538Y-20770D01*
X56594Y-20742D01*
X56622Y-20714D01*
X56819Y-20376D02*
X57044Y-20376D01*
X56903Y-20179D02*
X56903Y-20686D01*
X56931Y-20742D01*
X56988Y-20770D01*
X57044Y-20770D01*
X57213Y-20742D02*
X57269Y-20770D01*
X57381Y-20770D01*
X57438Y-20742D01*
X57466Y-20686D01*
X57466Y-20658D01*
X57438Y-20601D01*
X57381Y-20573D01*
X57297Y-20573D01*
X57241Y-20545D01*
X57213Y-20489D01*
X57213Y-20461D01*
X57241Y-20404D01*
X57297Y-20376D01*
X57381Y-20376D01*
X57438Y-20404D01*
G54D12*
X11811Y-49606D02*
X11811Y-10236D01*
X51181Y-49606D02*
X11811Y-49606D01*
X51181Y-10236D02*
X51181Y-49606D01*
X11811Y-10236D02*
X51181Y-10236D01*
G54D13*
X13188Y-11614D02*
X14370Y-12795D01*
X14370Y-11614D02*
X13188Y-12795D01*
X13188Y-47047D02*
X14370Y-48228D01*
X14370Y-47047D02*
X13188Y-48228D01*
X48622Y-11614D02*
X49803Y-12795D01*
X49803Y-11614D02*
X48622Y-12795D01*
X48622Y-47047D02*
X49803Y-48228D01*
X49803Y-47047D02*
X48622Y-48228D01*
X14813Y-27421D02*
G75*
G03X14813Y-27421I-640J0D01*
G74*
G01*
X14813Y-32421D02*
G75*
G03X14813Y-32421I-640J0D01*
G74*
G01*
X17825Y-12598D02*
G75*
G03X17825Y-12598I-640J0D01*
G74*
G01*
X17825Y-47244D02*
G75*
G03X17825Y-47244I-640J0D01*
G74*
G01*
X22825Y-12598D02*
G75*
G03X22825Y-12598I-640J0D01*
G74*
G01*
X22825Y-47244D02*
G75*
G03X22825Y-47244I-640J0D01*
G74*
G01*
X25699Y-12598D02*
G75*
G03X25699Y-12598I-640J0D01*
G74*
G01*
X25699Y-47244D02*
G75*
G03X25699Y-47244I-640J0D01*
G74*
G01*
X30699Y-12598D02*
G75*
G03X30699Y-12598I-640J0D01*
G74*
G01*
X30699Y-47244D02*
G75*
G03X30699Y-47244I-640J0D01*
G74*
G01*
X33573Y-12598D02*
G75*
G03X33573Y-12598I-640J0D01*
G74*
G01*
X33573Y-47244D02*
G75*
G03X33573Y-47244I-640J0D01*
G74*
G01*
X38573Y-12598D02*
G75*
G03X38573Y-12598I-640J0D01*
G74*
G01*
X38573Y-47244D02*
G75*
G03X38573Y-47244I-640J0D01*
G74*
G01*
X41447Y-12598D02*
G75*
G03X41447Y-12598I-640J0D01*
G74*
G01*
X41447Y-47244D02*
G75*
G03X41447Y-47244I-640J0D01*
G74*
G01*
X46447Y-12598D02*
G75*
G03X46447Y-12598I-640J0D01*
G74*
G01*
X46447Y-47244D02*
G75*
G03X46447Y-47244I-640J0D01*
G74*
G01*
X49458Y-27421D02*
G75*
G03X49458Y-27421I-640J0D01*
G74*
G01*
X49458Y-32421D02*
G75*
G03X49458Y-32421I-640J0D01*
G74*
G01*
G54D11*
X12859Y-51403D02*
X12859Y-50222D01*
X13141Y-50222D01*
X13309Y-50278D01*
X13422Y-50390D01*
X13478Y-50503D01*
X13534Y-50728D01*
X13534Y-50897D01*
X13478Y-51122D01*
X13422Y-51234D01*
X13309Y-51347D01*
X13141Y-51403D01*
X12859Y-51403D01*
X14041Y-51403D02*
X14041Y-50615D01*
X14041Y-50840D02*
X14097Y-50728D01*
X14153Y-50672D01*
X14266Y-50615D01*
X14378Y-50615D01*
X14772Y-51403D02*
X14772Y-50615D01*
X14772Y-50222D02*
X14715Y-50278D01*
X14772Y-50334D01*
X14828Y-50278D01*
X14772Y-50222D01*
X14772Y-50334D01*
X15503Y-51403D02*
X15390Y-51347D01*
X15334Y-51234D01*
X15334Y-50222D01*
X16122Y-51403D02*
X16009Y-51347D01*
X15953Y-51234D01*
X15953Y-50222D01*
X17471Y-51403D02*
X17471Y-50222D01*
X17865Y-51065D01*
X18259Y-50222D01*
X18259Y-51403D01*
X19327Y-51403D02*
X19327Y-50784D01*
X19271Y-50672D01*
X19159Y-50615D01*
X18934Y-50615D01*
X18821Y-50672D01*
X19327Y-51347D02*
X19215Y-51403D01*
X18934Y-51403D01*
X18821Y-51347D01*
X18765Y-51234D01*
X18765Y-51122D01*
X18821Y-51009D01*
X18934Y-50953D01*
X19215Y-50953D01*
X19327Y-50897D01*
X19890Y-50615D02*
X19890Y-51796D01*
X19890Y-50672D02*
X20002Y-50615D01*
X20227Y-50615D01*
X20340Y-50672D01*
X20396Y-50728D01*
X20452Y-50840D01*
X20452Y-51178D01*
X20396Y-51290D01*
X20340Y-51347D01*
X20227Y-51403D01*
X20002Y-51403D01*
X19890Y-51347D01*
X20958Y-51290D02*
X21015Y-51347D01*
X20958Y-51403D01*
X20902Y-51347D01*
X20958Y-51290D01*
X20958Y-51403D01*
X20958Y-50672D02*
X21015Y-50728D01*
X20958Y-50784D01*
X20902Y-50728D01*
X20958Y-50672D01*
X20958Y-50784D01*
X10610Y-52814D02*
X11791Y-53996D01*
X11791Y-52814D02*
X10610Y-53996D01*
X12747Y-52702D02*
X13478Y-52702D01*
X13084Y-53152D01*
X13253Y-53152D01*
X13366Y-53208D01*
X13422Y-53264D01*
X13478Y-53377D01*
X13478Y-53658D01*
X13422Y-53771D01*
X13366Y-53827D01*
X13253Y-53883D01*
X12916Y-53883D01*
X12803Y-53827D01*
X12747Y-53771D01*
X13984Y-53771D02*
X14041Y-53827D01*
X13984Y-53883D01*
X13928Y-53827D01*
X13984Y-53771D01*
X13984Y-53883D01*
X14772Y-52702D02*
X14884Y-52702D01*
X14997Y-52758D01*
X15053Y-52814D01*
X15109Y-52927D01*
X15165Y-53152D01*
X15165Y-53433D01*
X15109Y-53658D01*
X15053Y-53771D01*
X14997Y-53827D01*
X14884Y-53883D01*
X14772Y-53883D01*
X14659Y-53827D01*
X14603Y-53771D01*
X14547Y-53658D01*
X14491Y-53433D01*
X14491Y-53152D01*
X14547Y-52927D01*
X14603Y-52814D01*
X14659Y-52758D01*
X14772Y-52702D01*
X15897Y-52702D02*
X16009Y-52702D01*
X16122Y-52758D01*
X16178Y-52814D01*
X16234Y-52927D01*
X16290Y-53152D01*
X16290Y-53433D01*
X16234Y-53658D01*
X16178Y-53771D01*
X16122Y-53827D01*
X16009Y-53883D01*
X15897Y-53883D01*
X15784Y-53827D01*
X15728Y-53771D01*
X15672Y-53658D01*
X15615Y-53433D01*
X15615Y-53152D01*
X15672Y-52927D01*
X15728Y-52814D01*
X15784Y-52758D01*
X15897Y-52702D01*
X16796Y-53883D02*
X16796Y-53096D01*
X16796Y-53208D02*
X16853Y-53152D01*
X16965Y-53096D01*
X17134Y-53096D01*
X17246Y-53152D01*
X17303Y-53264D01*
X17303Y-53883D01*
X17303Y-53264D02*
X17359Y-53152D01*
X17471Y-53096D01*
X17640Y-53096D01*
X17753Y-53152D01*
X17809Y-53264D01*
X17809Y-53883D01*
X18371Y-53883D02*
X18371Y-53096D01*
X18371Y-53208D02*
X18428Y-53152D01*
X18540Y-53096D01*
X18709Y-53096D01*
X18821Y-53152D01*
X18877Y-53264D01*
X18877Y-53883D01*
X18877Y-53264D02*
X18934Y-53152D01*
X19046Y-53096D01*
X19215Y-53096D01*
X19327Y-53152D01*
X19384Y-53264D01*
X19384Y-53883D01*
X21690Y-52646D02*
X20677Y-54164D01*
X23208Y-52702D02*
X23321Y-52702D01*
X23433Y-52758D01*
X23489Y-52814D01*
X23546Y-52927D01*
X23602Y-53152D01*
X23602Y-53433D01*
X23546Y-53658D01*
X23489Y-53771D01*
X23433Y-53827D01*
X23321Y-53883D01*
X23208Y-53883D01*
X23096Y-53827D01*
X23039Y-53771D01*
X22983Y-53658D01*
X22927Y-53433D01*
X22927Y-53152D01*
X22983Y-52927D01*
X23039Y-52814D01*
X23096Y-52758D01*
X23208Y-52702D01*
X24108Y-53771D02*
X24164Y-53827D01*
X24108Y-53883D01*
X24052Y-53827D01*
X24108Y-53771D01*
X24108Y-53883D01*
X25289Y-53883D02*
X24614Y-53883D01*
X24952Y-53883D02*
X24952Y-52702D01*
X24839Y-52871D01*
X24727Y-52983D01*
X24614Y-53039D01*
X26414Y-53883D02*
X25739Y-53883D01*
X26077Y-53883D02*
X26077Y-52702D01*
X25964Y-52871D01*
X25852Y-52983D01*
X25739Y-53039D01*
X27089Y-53208D02*
X26976Y-53152D01*
X26920Y-53096D01*
X26864Y-52983D01*
X26864Y-52927D01*
X26920Y-52814D01*
X26976Y-52758D01*
X27089Y-52702D01*
X27314Y-52702D01*
X27426Y-52758D01*
X27483Y-52814D01*
X27539Y-52927D01*
X27539Y-52983D01*
X27483Y-53096D01*
X27426Y-53152D01*
X27314Y-53208D01*
X27089Y-53208D01*
X26976Y-53264D01*
X26920Y-53321D01*
X26864Y-53433D01*
X26864Y-53658D01*
X26920Y-53771D01*
X26976Y-53827D01*
X27089Y-53883D01*
X27314Y-53883D01*
X27426Y-53827D01*
X27483Y-53771D01*
X27539Y-53658D01*
X27539Y-53433D01*
X27483Y-53321D01*
X27426Y-53264D01*
X27314Y-53208D01*
X27989Y-52702D02*
X27989Y-52927D01*
X28439Y-52702D02*
X28439Y-52927D01*
X30182Y-54333D02*
X30126Y-54277D01*
X30014Y-54108D01*
X29957Y-53996D01*
X29901Y-53827D01*
X29845Y-53546D01*
X29845Y-53321D01*
X29901Y-53039D01*
X29957Y-52871D01*
X30014Y-52758D01*
X30126Y-52589D01*
X30182Y-52533D01*
X31138Y-53096D02*
X31138Y-53883D01*
X30857Y-52646D02*
X30576Y-53489D01*
X31307Y-53489D01*
X32657Y-53883D02*
X32657Y-52702D01*
X33163Y-53883D02*
X33163Y-53264D01*
X33107Y-53152D01*
X32994Y-53096D01*
X32826Y-53096D01*
X32713Y-53152D01*
X32657Y-53208D01*
X33894Y-53883D02*
X33782Y-53827D01*
X33726Y-53771D01*
X33669Y-53658D01*
X33669Y-53321D01*
X33726Y-53208D01*
X33782Y-53152D01*
X33894Y-53096D01*
X34063Y-53096D01*
X34176Y-53152D01*
X34232Y-53208D01*
X34288Y-53321D01*
X34288Y-53658D01*
X34232Y-53771D01*
X34176Y-53827D01*
X34063Y-53883D01*
X33894Y-53883D01*
X34963Y-53883D02*
X34850Y-53827D01*
X34794Y-53714D01*
X34794Y-52702D01*
X35863Y-53827D02*
X35750Y-53883D01*
X35525Y-53883D01*
X35413Y-53827D01*
X35357Y-53714D01*
X35357Y-53264D01*
X35413Y-53152D01*
X35525Y-53096D01*
X35750Y-53096D01*
X35863Y-53152D01*
X35919Y-53264D01*
X35919Y-53377D01*
X35357Y-53489D01*
X36369Y-53827D02*
X36482Y-53883D01*
X36706Y-53883D01*
X36819Y-53827D01*
X36875Y-53714D01*
X36875Y-53658D01*
X36819Y-53546D01*
X36706Y-53489D01*
X36538Y-53489D01*
X36425Y-53433D01*
X36369Y-53321D01*
X36369Y-53264D01*
X36425Y-53152D01*
X36538Y-53096D01*
X36706Y-53096D01*
X36819Y-53152D01*
X37269Y-54333D02*
X37325Y-54277D01*
X37438Y-54108D01*
X37494Y-53996D01*
X37550Y-53827D01*
X37606Y-53546D01*
X37606Y-53321D01*
X37550Y-53039D01*
X37494Y-52871D01*
X37438Y-52758D01*
X37325Y-52589D01*
X37269Y-52533D01*
G54D13*
X11791Y-55098D02*
G75*
G03X11791Y-55098I-640J0D01*
G74*
G01*
G54D11*
X12747Y-54395D02*
X13478Y-54395D01*
X13084Y-54845D01*
X13253Y-54845D01*
X13366Y-54901D01*
X13422Y-54957D01*
X13478Y-55070D01*
X13478Y-55351D01*
X13422Y-55464D01*
X13366Y-55520D01*
X13253Y-55576D01*
X12916Y-55576D01*
X12803Y-55520D01*
X12747Y-55464D01*
X13984Y-55464D02*
X14041Y-55520D01*
X13984Y-55576D01*
X13928Y-55520D01*
X13984Y-55464D01*
X13984Y-55576D01*
X14491Y-54507D02*
X14547Y-54451D01*
X14659Y-54395D01*
X14940Y-54395D01*
X15053Y-54451D01*
X15109Y-54507D01*
X15165Y-54620D01*
X15165Y-54732D01*
X15109Y-54901D01*
X14434Y-55576D01*
X15165Y-55576D01*
X16234Y-54395D02*
X15672Y-54395D01*
X15615Y-54957D01*
X15672Y-54901D01*
X15784Y-54845D01*
X16065Y-54845D01*
X16178Y-54901D01*
X16234Y-54957D01*
X16290Y-55070D01*
X16290Y-55351D01*
X16234Y-55464D01*
X16178Y-55520D01*
X16065Y-55576D01*
X15784Y-55576D01*
X15672Y-55520D01*
X15615Y-55464D01*
X16796Y-55576D02*
X16796Y-54789D01*
X16796Y-54901D02*
X16853Y-54845D01*
X16965Y-54789D01*
X17134Y-54789D01*
X17246Y-54845D01*
X17303Y-54957D01*
X17303Y-55576D01*
X17303Y-54957D02*
X17359Y-54845D01*
X17471Y-54789D01*
X17640Y-54789D01*
X17753Y-54845D01*
X17809Y-54957D01*
X17809Y-55576D01*
X18371Y-55576D02*
X18371Y-54789D01*
X18371Y-54901D02*
X18428Y-54845D01*
X18540Y-54789D01*
X18709Y-54789D01*
X18821Y-54845D01*
X18877Y-54957D01*
X18877Y-55576D01*
X18877Y-54957D02*
X18934Y-54845D01*
X19046Y-54789D01*
X19215Y-54789D01*
X19327Y-54845D01*
X19384Y-54957D01*
X19384Y-55576D01*
X21690Y-54339D02*
X20677Y-55857D01*
X23208Y-54395D02*
X23321Y-54395D01*
X23433Y-54451D01*
X23489Y-54507D01*
X23546Y-54620D01*
X23602Y-54845D01*
X23602Y-55126D01*
X23546Y-55351D01*
X23489Y-55464D01*
X23433Y-55520D01*
X23321Y-55576D01*
X23208Y-55576D01*
X23096Y-55520D01*
X23039Y-55464D01*
X22983Y-55351D01*
X22927Y-55126D01*
X22927Y-54845D01*
X22983Y-54620D01*
X23039Y-54507D01*
X23096Y-54451D01*
X23208Y-54395D01*
X24108Y-55464D02*
X24164Y-55520D01*
X24108Y-55576D01*
X24052Y-55520D01*
X24108Y-55464D01*
X24108Y-55576D01*
X25289Y-55576D02*
X24614Y-55576D01*
X24952Y-55576D02*
X24952Y-54395D01*
X24839Y-54564D01*
X24727Y-54676D01*
X24614Y-54732D01*
X25739Y-54507D02*
X25795Y-54451D01*
X25908Y-54395D01*
X26189Y-54395D01*
X26302Y-54451D01*
X26358Y-54507D01*
X26414Y-54620D01*
X26414Y-54732D01*
X26358Y-54901D01*
X25683Y-55576D01*
X26414Y-55576D01*
X27089Y-54901D02*
X26976Y-54845D01*
X26920Y-54789D01*
X26864Y-54676D01*
X26864Y-54620D01*
X26920Y-54507D01*
X26976Y-54451D01*
X27089Y-54395D01*
X27314Y-54395D01*
X27426Y-54451D01*
X27483Y-54507D01*
X27539Y-54620D01*
X27539Y-54676D01*
X27483Y-54789D01*
X27426Y-54845D01*
X27314Y-54901D01*
X27089Y-54901D01*
X26976Y-54957D01*
X26920Y-55014D01*
X26864Y-55126D01*
X26864Y-55351D01*
X26920Y-55464D01*
X26976Y-55520D01*
X27089Y-55576D01*
X27314Y-55576D01*
X27426Y-55520D01*
X27483Y-55464D01*
X27539Y-55351D01*
X27539Y-55126D01*
X27483Y-55014D01*
X27426Y-54957D01*
X27314Y-54901D01*
X27989Y-54395D02*
X27989Y-54620D01*
X28439Y-54395D02*
X28439Y-54620D01*
X30182Y-56026D02*
X30126Y-55970D01*
X30014Y-55801D01*
X29957Y-55688D01*
X29901Y-55520D01*
X29845Y-55239D01*
X29845Y-55014D01*
X29901Y-54732D01*
X29957Y-54564D01*
X30014Y-54451D01*
X30126Y-54282D01*
X30182Y-54226D01*
X30576Y-54507D02*
X30632Y-54451D01*
X30745Y-54395D01*
X31026Y-54395D01*
X31138Y-54451D01*
X31195Y-54507D01*
X31251Y-54620D01*
X31251Y-54732D01*
X31195Y-54901D01*
X30520Y-55576D01*
X31251Y-55576D01*
X31982Y-54395D02*
X32095Y-54395D01*
X32207Y-54451D01*
X32263Y-54507D01*
X32320Y-54620D01*
X32376Y-54845D01*
X32376Y-55126D01*
X32320Y-55351D01*
X32263Y-55464D01*
X32207Y-55520D01*
X32095Y-55576D01*
X31982Y-55576D01*
X31870Y-55520D01*
X31813Y-55464D01*
X31757Y-55351D01*
X31701Y-55126D01*
X31701Y-54845D01*
X31757Y-54620D01*
X31813Y-54507D01*
X31870Y-54451D01*
X31982Y-54395D01*
X33782Y-55576D02*
X33782Y-54395D01*
X34288Y-55576D02*
X34288Y-54957D01*
X34232Y-54845D01*
X34119Y-54789D01*
X33951Y-54789D01*
X33838Y-54845D01*
X33782Y-54901D01*
X35019Y-55576D02*
X34907Y-55520D01*
X34850Y-55464D01*
X34794Y-55351D01*
X34794Y-55014D01*
X34850Y-54901D01*
X34907Y-54845D01*
X35019Y-54789D01*
X35188Y-54789D01*
X35300Y-54845D01*
X35357Y-54901D01*
X35413Y-55014D01*
X35413Y-55351D01*
X35357Y-55464D01*
X35300Y-55520D01*
X35188Y-55576D01*
X35019Y-55576D01*
X36088Y-55576D02*
X35975Y-55520D01*
X35919Y-55407D01*
X35919Y-54395D01*
X36988Y-55520D02*
X36875Y-55576D01*
X36650Y-55576D01*
X36538Y-55520D01*
X36482Y-55407D01*
X36482Y-54957D01*
X36538Y-54845D01*
X36650Y-54789D01*
X36875Y-54789D01*
X36988Y-54845D01*
X37044Y-54957D01*
X37044Y-55070D01*
X36482Y-55182D01*
X37494Y-55520D02*
X37606Y-55576D01*
X37831Y-55576D01*
X37944Y-55520D01*
X38000Y-55407D01*
X38000Y-55351D01*
X37944Y-55239D01*
X37831Y-55182D01*
X37663Y-55182D01*
X37550Y-55126D01*
X37494Y-55014D01*
X37494Y-54957D01*
X37550Y-54845D01*
X37663Y-54789D01*
X37831Y-54789D01*
X37944Y-54845D01*
X38394Y-56026D02*
X38450Y-55970D01*
X38562Y-55801D01*
X38619Y-55688D01*
X38675Y-55520D01*
X38731Y-55239D01*
X38731Y-55014D01*
X38675Y-54732D01*
X38619Y-54564D01*
X38562Y-54451D01*
X38450Y-54282D01*
X38394Y-54226D01*
M02*
