G04 (created by PCBNEW (2013-07-07 BZR 4022)-stable) date 9/18/2013 14:10:45*
%MOIN*%
G04 Gerber Fmt 3.4, Leading zero omitted, Abs format*
%FSLAX34Y34*%
G01*
G70*
G90*
G04 APERTURE LIST*
%ADD10C,0.005*%
%ADD11C,0.011811*%
%ADD12C,0.00393701*%
%ADD13C,0.00787402*%
G04 APERTURE END LIST*
G54D10*
G54D11*
X53388Y-20461D02*
X53585Y-20461D01*
X53669Y-20770D02*
X53388Y-20770D01*
X53388Y-20179D01*
X53669Y-20179D01*
X54176Y-20770D02*
X54176Y-20179D01*
X54176Y-20742D02*
X54119Y-20770D01*
X54007Y-20770D01*
X53951Y-20742D01*
X53922Y-20714D01*
X53894Y-20658D01*
X53894Y-20489D01*
X53922Y-20433D01*
X53951Y-20404D01*
X54007Y-20376D01*
X54119Y-20376D01*
X54176Y-20404D01*
X54710Y-20376D02*
X54710Y-20854D01*
X54682Y-20911D01*
X54654Y-20939D01*
X54597Y-20967D01*
X54513Y-20967D01*
X54457Y-20939D01*
X54710Y-20742D02*
X54654Y-20770D01*
X54541Y-20770D01*
X54485Y-20742D01*
X54457Y-20714D01*
X54429Y-20658D01*
X54429Y-20489D01*
X54457Y-20433D01*
X54485Y-20404D01*
X54541Y-20376D01*
X54654Y-20376D01*
X54710Y-20404D01*
X55216Y-20742D02*
X55160Y-20770D01*
X55047Y-20770D01*
X54991Y-20742D01*
X54963Y-20686D01*
X54963Y-20461D01*
X54991Y-20404D01*
X55047Y-20376D01*
X55160Y-20376D01*
X55216Y-20404D01*
X55244Y-20461D01*
X55244Y-20517D01*
X54963Y-20573D01*
X55497Y-20714D02*
X55525Y-20742D01*
X55497Y-20770D01*
X55469Y-20742D01*
X55497Y-20714D01*
X55497Y-20770D01*
X56116Y-20714D02*
X56088Y-20742D01*
X56003Y-20770D01*
X55947Y-20770D01*
X55863Y-20742D01*
X55807Y-20686D01*
X55778Y-20629D01*
X55750Y-20517D01*
X55750Y-20433D01*
X55778Y-20320D01*
X55807Y-20264D01*
X55863Y-20208D01*
X55947Y-20179D01*
X56003Y-20179D01*
X56088Y-20208D01*
X56116Y-20236D01*
X56622Y-20376D02*
X56622Y-20770D01*
X56369Y-20376D02*
X56369Y-20686D01*
X56397Y-20742D01*
X56453Y-20770D01*
X56538Y-20770D01*
X56594Y-20742D01*
X56622Y-20714D01*
X56819Y-20376D02*
X57044Y-20376D01*
X56903Y-20179D02*
X56903Y-20686D01*
X56931Y-20742D01*
X56988Y-20770D01*
X57044Y-20770D01*
X57213Y-20742D02*
X57269Y-20770D01*
X57381Y-20770D01*
X57438Y-20742D01*
X57466Y-20686D01*
X57466Y-20658D01*
X57438Y-20601D01*
X57381Y-20573D01*
X57297Y-20573D01*
X57241Y-20545D01*
X57213Y-20489D01*
X57213Y-20461D01*
X57241Y-20404D01*
X57297Y-20376D01*
X57381Y-20376D01*
X57438Y-20404D01*
G54D12*
X11811Y-49606D02*
X11811Y-10236D01*
X51181Y-49606D02*
X11811Y-49606D01*
X51181Y-10236D02*
X51181Y-49606D01*
X11811Y-10236D02*
X51181Y-10236D01*
G54D13*
X29951Y-26521D02*
X30148Y-26718D01*
X30148Y-26521D02*
X29951Y-26718D01*
X30801Y-27871D02*
X30998Y-28068D01*
X30998Y-27871D02*
X30801Y-28068D01*
X30991Y-27231D02*
X31188Y-27428D01*
X31188Y-27231D02*
X30991Y-27428D01*
X31181Y-29761D02*
X31378Y-29958D01*
X31378Y-29761D02*
X31181Y-29958D01*
X31846Y-30081D02*
X32043Y-30278D01*
X32043Y-30081D02*
X31846Y-30278D01*
X32256Y-32016D02*
X32453Y-32213D01*
X32453Y-32016D02*
X32256Y-32213D01*
X33611Y-28376D02*
X33808Y-28573D01*
X33808Y-28376D02*
X33611Y-28573D01*
X33866Y-29776D02*
X34063Y-29973D01*
X34063Y-29776D02*
X33866Y-29973D01*
X34301Y-27661D02*
X34498Y-27858D01*
X34498Y-27661D02*
X34301Y-27858D01*
X30046Y-27952D02*
G75*
G03X30046Y-27952I-125J0D01*
G74*
G01*
X34125Y-30730D02*
G75*
G03X34125Y-30730I-125J0D01*
G74*
G01*
X35540Y-30745D02*
G75*
G03X35540Y-30745I-125J0D01*
G74*
G01*
X35558Y-33858D02*
G75*
G03X35558Y-33858I-125J0D01*
G74*
G01*
X36699Y-32401D02*
G75*
G03X36699Y-32401I-125J0D01*
G74*
G01*
X36699Y-33070D02*
G75*
G03X36699Y-33070I-125J0D01*
G74*
G01*
X37369Y-33070D02*
G75*
G03X37369Y-33070I-125J0D01*
G74*
G01*
X40636Y-33070D02*
G75*
G03X40636Y-33070I-125J0D01*
G74*
G01*
X41069Y-32637D02*
G75*
G03X41069Y-32637I-125J0D01*
G74*
G01*
X41542Y-33110D02*
G75*
G03X41542Y-33110I-125J0D01*
G74*
G01*
X42447Y-33858D02*
G75*
G03X42447Y-33858I-125J0D01*
G74*
G01*
X14460Y-23462D02*
X14460Y-23782D01*
X14300Y-23622D02*
X14620Y-23622D01*
X15460Y-23462D02*
X15460Y-23782D01*
X15300Y-23622D02*
X15620Y-23622D01*
X15298Y-29042D02*
X15298Y-28792D01*
X15048Y-28792D01*
X15048Y-29042D01*
X15298Y-29042D01*
X15298Y-29845D02*
X15298Y-29595D01*
X15048Y-29595D01*
X15048Y-29845D01*
X15298Y-29845D01*
X15298Y-30648D02*
X15298Y-30398D01*
X15048Y-30398D01*
X15048Y-30648D01*
X15298Y-30648D01*
X15298Y-31451D02*
X15298Y-31201D01*
X15048Y-31201D01*
X15048Y-31451D01*
X15298Y-31451D01*
X15999Y-28640D02*
X15999Y-28390D01*
X15748Y-28390D01*
X15748Y-28640D01*
X15999Y-28640D01*
X15999Y-29444D02*
X15999Y-29193D01*
X15748Y-29193D01*
X15748Y-29444D01*
X15999Y-29444D01*
X15999Y-30247D02*
X15999Y-29996D01*
X15748Y-29996D01*
X15748Y-30247D01*
X15999Y-30247D01*
X15999Y-31050D02*
X15999Y-30800D01*
X15748Y-30800D01*
X15748Y-31050D01*
X15999Y-31050D01*
X18404Y-13723D02*
X18404Y-13473D01*
X18154Y-13473D01*
X18154Y-13723D01*
X18404Y-13723D01*
X18404Y-45668D02*
X18404Y-45418D01*
X18154Y-45418D01*
X18154Y-45668D01*
X18404Y-45668D01*
X18806Y-14424D02*
X18806Y-14174D01*
X18555Y-14174D01*
X18555Y-14424D01*
X18806Y-14424D01*
X18806Y-46369D02*
X18806Y-46118D01*
X18555Y-46118D01*
X18555Y-46369D01*
X18806Y-46369D01*
X19207Y-13723D02*
X19207Y-13473D01*
X18957Y-13473D01*
X18957Y-13723D01*
X19207Y-13723D01*
X19207Y-45668D02*
X19207Y-45418D01*
X18957Y-45418D01*
X18957Y-45668D01*
X19207Y-45668D01*
X19609Y-14424D02*
X19609Y-14174D01*
X19359Y-14174D01*
X19359Y-14424D01*
X19609Y-14424D01*
X19609Y-46369D02*
X19609Y-46118D01*
X19359Y-46118D01*
X19359Y-46369D01*
X19609Y-46369D01*
X20010Y-13723D02*
X20010Y-13473D01*
X19760Y-13473D01*
X19760Y-13723D01*
X20010Y-13723D01*
X20010Y-45668D02*
X20010Y-45418D01*
X19760Y-45418D01*
X19760Y-45668D01*
X20010Y-45668D01*
X20412Y-14424D02*
X20412Y-14174D01*
X20162Y-14174D01*
X20162Y-14424D01*
X20412Y-14424D01*
X20412Y-46369D02*
X20412Y-46118D01*
X20162Y-46118D01*
X20162Y-46369D01*
X20412Y-46369D01*
X20814Y-13723D02*
X20814Y-13473D01*
X20563Y-13473D01*
X20563Y-13723D01*
X20814Y-13723D01*
X20814Y-45668D02*
X20814Y-45418D01*
X20563Y-45418D01*
X20563Y-45668D01*
X20814Y-45668D01*
X21215Y-14424D02*
X21215Y-14174D01*
X20965Y-14174D01*
X20965Y-14424D01*
X21215Y-14424D01*
X21215Y-46369D02*
X21215Y-46118D01*
X20965Y-46118D01*
X20965Y-46369D01*
X21215Y-46369D01*
X26278Y-13723D02*
X26278Y-13473D01*
X26028Y-13473D01*
X26028Y-13723D01*
X26278Y-13723D01*
X26278Y-45668D02*
X26278Y-45418D01*
X26028Y-45418D01*
X26028Y-45668D01*
X26278Y-45668D01*
X26680Y-14424D02*
X26680Y-14174D01*
X26429Y-14174D01*
X26429Y-14424D01*
X26680Y-14424D01*
X26680Y-46369D02*
X26680Y-46118D01*
X26429Y-46118D01*
X26429Y-46369D01*
X26680Y-46369D01*
X27081Y-13723D02*
X27081Y-13473D01*
X26831Y-13473D01*
X26831Y-13723D01*
X27081Y-13723D01*
X27081Y-45668D02*
X27081Y-45418D01*
X26831Y-45418D01*
X26831Y-45668D01*
X27081Y-45668D01*
X27483Y-14424D02*
X27483Y-14174D01*
X27233Y-14174D01*
X27233Y-14424D01*
X27483Y-14424D01*
X27483Y-46369D02*
X27483Y-46118D01*
X27233Y-46118D01*
X27233Y-46369D01*
X27483Y-46369D01*
X27885Y-13723D02*
X27885Y-13473D01*
X27634Y-13473D01*
X27634Y-13723D01*
X27885Y-13723D01*
X27885Y-45668D02*
X27885Y-45418D01*
X27634Y-45418D01*
X27634Y-45668D01*
X27885Y-45668D01*
X28286Y-14424D02*
X28286Y-14174D01*
X28036Y-14174D01*
X28036Y-14424D01*
X28286Y-14424D01*
X28286Y-46369D02*
X28286Y-46118D01*
X28036Y-46118D01*
X28036Y-46369D01*
X28286Y-46369D01*
X28688Y-13723D02*
X28688Y-13473D01*
X28437Y-13473D01*
X28437Y-13723D01*
X28688Y-13723D01*
X28688Y-45668D02*
X28688Y-45418D01*
X28437Y-45418D01*
X28437Y-45668D01*
X28688Y-45668D01*
X29089Y-14424D02*
X29089Y-14174D01*
X28839Y-14174D01*
X28839Y-14424D01*
X29089Y-14424D01*
X29089Y-46369D02*
X29089Y-46118D01*
X28839Y-46118D01*
X28839Y-46369D01*
X29089Y-46369D01*
X34152Y-13723D02*
X34152Y-13473D01*
X33902Y-13473D01*
X33902Y-13723D01*
X34152Y-13723D01*
X34152Y-45668D02*
X34152Y-45418D01*
X33902Y-45418D01*
X33902Y-45668D01*
X34152Y-45668D01*
X34554Y-14424D02*
X34554Y-14174D01*
X34303Y-14174D01*
X34303Y-14424D01*
X34554Y-14424D01*
X34554Y-46369D02*
X34554Y-46118D01*
X34303Y-46118D01*
X34303Y-46369D01*
X34554Y-46369D01*
X34955Y-13723D02*
X34955Y-13473D01*
X34705Y-13473D01*
X34705Y-13723D01*
X34955Y-13723D01*
X34955Y-45668D02*
X34955Y-45418D01*
X34705Y-45418D01*
X34705Y-45668D01*
X34955Y-45668D01*
X35357Y-14424D02*
X35357Y-14174D01*
X35107Y-14174D01*
X35107Y-14424D01*
X35357Y-14424D01*
X35357Y-46369D02*
X35357Y-46118D01*
X35107Y-46118D01*
X35107Y-46369D01*
X35357Y-46369D01*
X35759Y-13723D02*
X35759Y-13473D01*
X35508Y-13473D01*
X35508Y-13723D01*
X35759Y-13723D01*
X35759Y-45668D02*
X35759Y-45418D01*
X35508Y-45418D01*
X35508Y-45668D01*
X35759Y-45668D01*
X36160Y-14424D02*
X36160Y-14174D01*
X35910Y-14174D01*
X35910Y-14424D01*
X36160Y-14424D01*
X36160Y-46369D02*
X36160Y-46118D01*
X35910Y-46118D01*
X35910Y-46369D01*
X36160Y-46369D01*
X36562Y-13723D02*
X36562Y-13473D01*
X36311Y-13473D01*
X36311Y-13723D01*
X36562Y-13723D01*
X36562Y-45668D02*
X36562Y-45418D01*
X36311Y-45418D01*
X36311Y-45668D01*
X36562Y-45668D01*
X36963Y-14424D02*
X36963Y-14174D01*
X36713Y-14174D01*
X36713Y-14424D01*
X36963Y-14424D01*
X36963Y-46369D02*
X36963Y-46118D01*
X36713Y-46118D01*
X36713Y-46369D01*
X36963Y-46369D01*
X42026Y-13723D02*
X42026Y-13473D01*
X41776Y-13473D01*
X41776Y-13723D01*
X42026Y-13723D01*
X42026Y-45668D02*
X42026Y-45418D01*
X41776Y-45418D01*
X41776Y-45668D01*
X42026Y-45668D01*
X42428Y-14424D02*
X42428Y-14174D01*
X42177Y-14174D01*
X42177Y-14424D01*
X42428Y-14424D01*
X42428Y-46369D02*
X42428Y-46118D01*
X42177Y-46118D01*
X42177Y-46369D01*
X42428Y-46369D01*
X42829Y-13723D02*
X42829Y-13473D01*
X42579Y-13473D01*
X42579Y-13723D01*
X42829Y-13723D01*
X42829Y-45668D02*
X42829Y-45418D01*
X42579Y-45418D01*
X42579Y-45668D01*
X42829Y-45668D01*
X43231Y-14424D02*
X43231Y-14174D01*
X42981Y-14174D01*
X42981Y-14424D01*
X43231Y-14424D01*
X43231Y-46369D02*
X43231Y-46118D01*
X42981Y-46118D01*
X42981Y-46369D01*
X43231Y-46369D01*
X43633Y-13723D02*
X43633Y-13473D01*
X43382Y-13473D01*
X43382Y-13723D01*
X43633Y-13723D01*
X43633Y-45668D02*
X43633Y-45418D01*
X43382Y-45418D01*
X43382Y-45668D01*
X43633Y-45668D01*
X44034Y-14424D02*
X44034Y-14174D01*
X43784Y-14174D01*
X43784Y-14424D01*
X44034Y-14424D01*
X44034Y-46369D02*
X44034Y-46118D01*
X43784Y-46118D01*
X43784Y-46369D01*
X44034Y-46369D01*
X44436Y-13723D02*
X44436Y-13473D01*
X44185Y-13473D01*
X44185Y-13723D01*
X44436Y-13723D01*
X44436Y-45668D02*
X44436Y-45418D01*
X44185Y-45418D01*
X44185Y-45668D01*
X44436Y-45668D01*
X44837Y-14424D02*
X44837Y-14174D01*
X44587Y-14174D01*
X44587Y-14424D01*
X44837Y-14424D01*
X44837Y-46369D02*
X44837Y-46118D01*
X44587Y-46118D01*
X44587Y-46369D01*
X44837Y-46369D01*
X47243Y-29042D02*
X47243Y-28792D01*
X46992Y-28792D01*
X46992Y-29042D01*
X47243Y-29042D01*
X47243Y-29845D02*
X47243Y-29595D01*
X46992Y-29595D01*
X46992Y-29845D01*
X47243Y-29845D01*
X47243Y-30648D02*
X47243Y-30398D01*
X46992Y-30398D01*
X46992Y-30648D01*
X47243Y-30648D01*
X47243Y-31451D02*
X47243Y-31201D01*
X46992Y-31201D01*
X46992Y-31451D01*
X47243Y-31451D01*
X47944Y-28640D02*
X47944Y-28390D01*
X47693Y-28390D01*
X47693Y-28640D01*
X47944Y-28640D01*
X47944Y-29444D02*
X47944Y-29193D01*
X47693Y-29193D01*
X47693Y-29444D01*
X47944Y-29444D01*
X47944Y-30247D02*
X47944Y-29996D01*
X47693Y-29996D01*
X47693Y-30247D01*
X47944Y-30247D01*
X47944Y-31050D02*
X47944Y-30800D01*
X47693Y-30800D01*
X47693Y-31050D01*
X47944Y-31050D01*
X15523Y-27035D02*
X15838Y-26720D01*
X15523Y-26405D01*
X15208Y-26720D01*
X15523Y-27035D01*
X15523Y-33437D02*
X15838Y-33122D01*
X15523Y-32807D01*
X15208Y-33122D01*
X15523Y-33437D01*
X16484Y-14263D02*
X16799Y-13948D01*
X16484Y-13633D01*
X16169Y-13948D01*
X16484Y-14263D01*
X16484Y-46208D02*
X16799Y-45893D01*
X16484Y-45578D01*
X16169Y-45893D01*
X16484Y-46208D01*
X22885Y-14263D02*
X23200Y-13948D01*
X22885Y-13633D01*
X22570Y-13948D01*
X22885Y-14263D01*
X22885Y-46208D02*
X23200Y-45893D01*
X22885Y-45578D01*
X22570Y-45893D01*
X22885Y-46208D01*
X24358Y-14263D02*
X24673Y-13948D01*
X24358Y-13633D01*
X24043Y-13948D01*
X24358Y-14263D01*
X24358Y-46208D02*
X24673Y-45893D01*
X24358Y-45578D01*
X24043Y-45893D01*
X24358Y-46208D01*
X30759Y-14263D02*
X31074Y-13948D01*
X30759Y-13633D01*
X30444Y-13948D01*
X30759Y-14263D01*
X30759Y-46208D02*
X31074Y-45893D01*
X30759Y-45578D01*
X30444Y-45893D01*
X30759Y-46208D01*
X32232Y-14263D02*
X32547Y-13948D01*
X32232Y-13633D01*
X31917Y-13948D01*
X32232Y-14263D01*
X32232Y-46208D02*
X32547Y-45893D01*
X32232Y-45578D01*
X31917Y-45893D01*
X32232Y-46208D01*
X38633Y-14263D02*
X38948Y-13948D01*
X38633Y-13633D01*
X38318Y-13948D01*
X38633Y-14263D01*
X38633Y-46208D02*
X38948Y-45893D01*
X38633Y-45578D01*
X38318Y-45893D01*
X38633Y-46208D01*
X40106Y-14263D02*
X40421Y-13948D01*
X40106Y-13633D01*
X39791Y-13948D01*
X40106Y-14263D01*
X40106Y-46208D02*
X40421Y-45893D01*
X40106Y-45578D01*
X39791Y-45893D01*
X40106Y-46208D01*
X46507Y-14263D02*
X46822Y-13948D01*
X46507Y-13633D01*
X46192Y-13948D01*
X46507Y-14263D01*
X46507Y-46208D02*
X46822Y-45893D01*
X46507Y-45578D01*
X46192Y-45893D01*
X46507Y-46208D01*
X47468Y-27035D02*
X47783Y-26720D01*
X47468Y-26405D01*
X47153Y-26720D01*
X47468Y-27035D01*
X47468Y-33437D02*
X47783Y-33122D01*
X47468Y-32807D01*
X47153Y-33122D01*
X47468Y-33437D01*
G54D11*
X12859Y-51403D02*
X12859Y-50222D01*
X13141Y-50222D01*
X13309Y-50278D01*
X13422Y-50390D01*
X13478Y-50503D01*
X13534Y-50728D01*
X13534Y-50897D01*
X13478Y-51122D01*
X13422Y-51234D01*
X13309Y-51347D01*
X13141Y-51403D01*
X12859Y-51403D01*
X14041Y-51403D02*
X14041Y-50615D01*
X14041Y-50840D02*
X14097Y-50728D01*
X14153Y-50672D01*
X14266Y-50615D01*
X14378Y-50615D01*
X14772Y-51403D02*
X14772Y-50615D01*
X14772Y-50222D02*
X14715Y-50278D01*
X14772Y-50334D01*
X14828Y-50278D01*
X14772Y-50222D01*
X14772Y-50334D01*
X15503Y-51403D02*
X15390Y-51347D01*
X15334Y-51234D01*
X15334Y-50222D01*
X16122Y-51403D02*
X16009Y-51347D01*
X15953Y-51234D01*
X15953Y-50222D01*
X17471Y-51403D02*
X17471Y-50222D01*
X17865Y-51065D01*
X18259Y-50222D01*
X18259Y-51403D01*
X19327Y-51403D02*
X19327Y-50784D01*
X19271Y-50672D01*
X19159Y-50615D01*
X18934Y-50615D01*
X18821Y-50672D01*
X19327Y-51347D02*
X19215Y-51403D01*
X18934Y-51403D01*
X18821Y-51347D01*
X18765Y-51234D01*
X18765Y-51122D01*
X18821Y-51009D01*
X18934Y-50953D01*
X19215Y-50953D01*
X19327Y-50897D01*
X19890Y-50615D02*
X19890Y-51796D01*
X19890Y-50672D02*
X20002Y-50615D01*
X20227Y-50615D01*
X20340Y-50672D01*
X20396Y-50728D01*
X20452Y-50840D01*
X20452Y-51178D01*
X20396Y-51290D01*
X20340Y-51347D01*
X20227Y-51403D01*
X20002Y-51403D01*
X19890Y-51347D01*
X20958Y-51290D02*
X21015Y-51347D01*
X20958Y-51403D01*
X20902Y-51347D01*
X20958Y-51290D01*
X20958Y-51403D01*
X20958Y-50672D02*
X21015Y-50728D01*
X20958Y-50784D01*
X20902Y-50728D01*
X20958Y-50672D01*
X20958Y-50784D01*
X11594Y-53307D02*
X11791Y-53503D01*
X11791Y-53307D02*
X11594Y-53503D01*
X13084Y-52702D02*
X13197Y-52702D01*
X13309Y-52758D01*
X13366Y-52814D01*
X13422Y-52927D01*
X13478Y-53152D01*
X13478Y-53433D01*
X13422Y-53658D01*
X13366Y-53771D01*
X13309Y-53827D01*
X13197Y-53883D01*
X13084Y-53883D01*
X12972Y-53827D01*
X12916Y-53771D01*
X12859Y-53658D01*
X12803Y-53433D01*
X12803Y-53152D01*
X12859Y-52927D01*
X12916Y-52814D01*
X12972Y-52758D01*
X13084Y-52702D01*
X13984Y-53771D02*
X14041Y-53827D01*
X13984Y-53883D01*
X13928Y-53827D01*
X13984Y-53771D01*
X13984Y-53883D01*
X15109Y-52702D02*
X14547Y-52702D01*
X14491Y-53264D01*
X14547Y-53208D01*
X14659Y-53152D01*
X14940Y-53152D01*
X15053Y-53208D01*
X15109Y-53264D01*
X15165Y-53377D01*
X15165Y-53658D01*
X15109Y-53771D01*
X15053Y-53827D01*
X14940Y-53883D01*
X14659Y-53883D01*
X14547Y-53827D01*
X14491Y-53771D01*
X15897Y-52702D02*
X16009Y-52702D01*
X16122Y-52758D01*
X16178Y-52814D01*
X16234Y-52927D01*
X16290Y-53152D01*
X16290Y-53433D01*
X16234Y-53658D01*
X16178Y-53771D01*
X16122Y-53827D01*
X16009Y-53883D01*
X15897Y-53883D01*
X15784Y-53827D01*
X15728Y-53771D01*
X15672Y-53658D01*
X15615Y-53433D01*
X15615Y-53152D01*
X15672Y-52927D01*
X15728Y-52814D01*
X15784Y-52758D01*
X15897Y-52702D01*
X16796Y-53883D02*
X16796Y-53096D01*
X16796Y-53208D02*
X16853Y-53152D01*
X16965Y-53096D01*
X17134Y-53096D01*
X17246Y-53152D01*
X17303Y-53264D01*
X17303Y-53883D01*
X17303Y-53264D02*
X17359Y-53152D01*
X17471Y-53096D01*
X17640Y-53096D01*
X17753Y-53152D01*
X17809Y-53264D01*
X17809Y-53883D01*
X18371Y-53883D02*
X18371Y-53096D01*
X18371Y-53208D02*
X18428Y-53152D01*
X18540Y-53096D01*
X18709Y-53096D01*
X18821Y-53152D01*
X18877Y-53264D01*
X18877Y-53883D01*
X18877Y-53264D02*
X18934Y-53152D01*
X19046Y-53096D01*
X19215Y-53096D01*
X19327Y-53152D01*
X19384Y-53264D01*
X19384Y-53883D01*
X21690Y-52646D02*
X20677Y-54164D01*
X23208Y-52702D02*
X23321Y-52702D01*
X23433Y-52758D01*
X23489Y-52814D01*
X23546Y-52927D01*
X23602Y-53152D01*
X23602Y-53433D01*
X23546Y-53658D01*
X23489Y-53771D01*
X23433Y-53827D01*
X23321Y-53883D01*
X23208Y-53883D01*
X23096Y-53827D01*
X23039Y-53771D01*
X22983Y-53658D01*
X22927Y-53433D01*
X22927Y-53152D01*
X22983Y-52927D01*
X23039Y-52814D01*
X23096Y-52758D01*
X23208Y-52702D01*
X24108Y-53771D02*
X24164Y-53827D01*
X24108Y-53883D01*
X24052Y-53827D01*
X24108Y-53771D01*
X24108Y-53883D01*
X24895Y-52702D02*
X25008Y-52702D01*
X25120Y-52758D01*
X25177Y-52814D01*
X25233Y-52927D01*
X25289Y-53152D01*
X25289Y-53433D01*
X25233Y-53658D01*
X25177Y-53771D01*
X25120Y-53827D01*
X25008Y-53883D01*
X24895Y-53883D01*
X24783Y-53827D01*
X24727Y-53771D01*
X24670Y-53658D01*
X24614Y-53433D01*
X24614Y-53152D01*
X24670Y-52927D01*
X24727Y-52814D01*
X24783Y-52758D01*
X24895Y-52702D01*
X25739Y-52814D02*
X25795Y-52758D01*
X25908Y-52702D01*
X26189Y-52702D01*
X26302Y-52758D01*
X26358Y-52814D01*
X26414Y-52927D01*
X26414Y-53039D01*
X26358Y-53208D01*
X25683Y-53883D01*
X26414Y-53883D01*
X27145Y-52702D02*
X27258Y-52702D01*
X27370Y-52758D01*
X27426Y-52814D01*
X27483Y-52927D01*
X27539Y-53152D01*
X27539Y-53433D01*
X27483Y-53658D01*
X27426Y-53771D01*
X27370Y-53827D01*
X27258Y-53883D01*
X27145Y-53883D01*
X27033Y-53827D01*
X26976Y-53771D01*
X26920Y-53658D01*
X26864Y-53433D01*
X26864Y-53152D01*
X26920Y-52927D01*
X26976Y-52814D01*
X27033Y-52758D01*
X27145Y-52702D01*
X27989Y-52702D02*
X27989Y-52927D01*
X28439Y-52702D02*
X28439Y-52927D01*
X30182Y-54333D02*
X30126Y-54277D01*
X30014Y-54108D01*
X29957Y-53996D01*
X29901Y-53827D01*
X29845Y-53546D01*
X29845Y-53321D01*
X29901Y-53039D01*
X29957Y-52871D01*
X30014Y-52758D01*
X30126Y-52589D01*
X30182Y-52533D01*
X30688Y-53883D02*
X30913Y-53883D01*
X31026Y-53827D01*
X31082Y-53771D01*
X31195Y-53602D01*
X31251Y-53377D01*
X31251Y-52927D01*
X31195Y-52814D01*
X31138Y-52758D01*
X31026Y-52702D01*
X30801Y-52702D01*
X30688Y-52758D01*
X30632Y-52814D01*
X30576Y-52927D01*
X30576Y-53208D01*
X30632Y-53321D01*
X30688Y-53377D01*
X30801Y-53433D01*
X31026Y-53433D01*
X31138Y-53377D01*
X31195Y-53321D01*
X31251Y-53208D01*
X32657Y-53883D02*
X32657Y-52702D01*
X33163Y-53883D02*
X33163Y-53264D01*
X33107Y-53152D01*
X32994Y-53096D01*
X32826Y-53096D01*
X32713Y-53152D01*
X32657Y-53208D01*
X33894Y-53883D02*
X33782Y-53827D01*
X33726Y-53771D01*
X33669Y-53658D01*
X33669Y-53321D01*
X33726Y-53208D01*
X33782Y-53152D01*
X33894Y-53096D01*
X34063Y-53096D01*
X34176Y-53152D01*
X34232Y-53208D01*
X34288Y-53321D01*
X34288Y-53658D01*
X34232Y-53771D01*
X34176Y-53827D01*
X34063Y-53883D01*
X33894Y-53883D01*
X34963Y-53883D02*
X34850Y-53827D01*
X34794Y-53714D01*
X34794Y-52702D01*
X35863Y-53827D02*
X35750Y-53883D01*
X35525Y-53883D01*
X35413Y-53827D01*
X35357Y-53714D01*
X35357Y-53264D01*
X35413Y-53152D01*
X35525Y-53096D01*
X35750Y-53096D01*
X35863Y-53152D01*
X35919Y-53264D01*
X35919Y-53377D01*
X35357Y-53489D01*
X36369Y-53827D02*
X36482Y-53883D01*
X36706Y-53883D01*
X36819Y-53827D01*
X36875Y-53714D01*
X36875Y-53658D01*
X36819Y-53546D01*
X36706Y-53489D01*
X36538Y-53489D01*
X36425Y-53433D01*
X36369Y-53321D01*
X36369Y-53264D01*
X36425Y-53152D01*
X36538Y-53096D01*
X36706Y-53096D01*
X36819Y-53152D01*
X37269Y-54333D02*
X37325Y-54277D01*
X37438Y-54108D01*
X37494Y-53996D01*
X37550Y-53827D01*
X37606Y-53546D01*
X37606Y-53321D01*
X37550Y-53039D01*
X37494Y-52871D01*
X37438Y-52758D01*
X37325Y-52589D01*
X37269Y-52533D01*
G54D13*
X11791Y-54964D02*
G75*
G03X11791Y-54964I-125J0D01*
G74*
G01*
G54D11*
X13084Y-54261D02*
X13197Y-54261D01*
X13309Y-54317D01*
X13366Y-54374D01*
X13422Y-54486D01*
X13478Y-54711D01*
X13478Y-54992D01*
X13422Y-55217D01*
X13366Y-55330D01*
X13309Y-55386D01*
X13197Y-55442D01*
X13084Y-55442D01*
X12972Y-55386D01*
X12916Y-55330D01*
X12859Y-55217D01*
X12803Y-54992D01*
X12803Y-54711D01*
X12859Y-54486D01*
X12916Y-54374D01*
X12972Y-54317D01*
X13084Y-54261D01*
X13984Y-55330D02*
X14041Y-55386D01*
X13984Y-55442D01*
X13928Y-55386D01*
X13984Y-55330D01*
X13984Y-55442D01*
X15053Y-54261D02*
X14828Y-54261D01*
X14715Y-54317D01*
X14659Y-54374D01*
X14547Y-54542D01*
X14491Y-54767D01*
X14491Y-55217D01*
X14547Y-55330D01*
X14603Y-55386D01*
X14715Y-55442D01*
X14940Y-55442D01*
X15053Y-55386D01*
X15109Y-55330D01*
X15165Y-55217D01*
X15165Y-54936D01*
X15109Y-54823D01*
X15053Y-54767D01*
X14940Y-54711D01*
X14715Y-54711D01*
X14603Y-54767D01*
X14547Y-54823D01*
X14491Y-54936D01*
X16178Y-54655D02*
X16178Y-55442D01*
X15897Y-54205D02*
X15615Y-55048D01*
X16347Y-55048D01*
X16796Y-55442D02*
X16796Y-54655D01*
X16796Y-54767D02*
X16853Y-54711D01*
X16965Y-54655D01*
X17134Y-54655D01*
X17246Y-54711D01*
X17303Y-54823D01*
X17303Y-55442D01*
X17303Y-54823D02*
X17359Y-54711D01*
X17471Y-54655D01*
X17640Y-54655D01*
X17753Y-54711D01*
X17809Y-54823D01*
X17809Y-55442D01*
X18371Y-55442D02*
X18371Y-54655D01*
X18371Y-54767D02*
X18428Y-54711D01*
X18540Y-54655D01*
X18709Y-54655D01*
X18821Y-54711D01*
X18877Y-54823D01*
X18877Y-55442D01*
X18877Y-54823D02*
X18934Y-54711D01*
X19046Y-54655D01*
X19215Y-54655D01*
X19327Y-54711D01*
X19384Y-54823D01*
X19384Y-55442D01*
X21690Y-54205D02*
X20677Y-55723D01*
X23208Y-54261D02*
X23321Y-54261D01*
X23433Y-54317D01*
X23489Y-54374D01*
X23546Y-54486D01*
X23602Y-54711D01*
X23602Y-54992D01*
X23546Y-55217D01*
X23489Y-55330D01*
X23433Y-55386D01*
X23321Y-55442D01*
X23208Y-55442D01*
X23096Y-55386D01*
X23039Y-55330D01*
X22983Y-55217D01*
X22927Y-54992D01*
X22927Y-54711D01*
X22983Y-54486D01*
X23039Y-54374D01*
X23096Y-54317D01*
X23208Y-54261D01*
X24108Y-55330D02*
X24164Y-55386D01*
X24108Y-55442D01*
X24052Y-55386D01*
X24108Y-55330D01*
X24108Y-55442D01*
X24895Y-54261D02*
X25008Y-54261D01*
X25120Y-54317D01*
X25177Y-54374D01*
X25233Y-54486D01*
X25289Y-54711D01*
X25289Y-54992D01*
X25233Y-55217D01*
X25177Y-55330D01*
X25120Y-55386D01*
X25008Y-55442D01*
X24895Y-55442D01*
X24783Y-55386D01*
X24727Y-55330D01*
X24670Y-55217D01*
X24614Y-54992D01*
X24614Y-54711D01*
X24670Y-54486D01*
X24727Y-54374D01*
X24783Y-54317D01*
X24895Y-54261D01*
X25739Y-54374D02*
X25795Y-54317D01*
X25908Y-54261D01*
X26189Y-54261D01*
X26302Y-54317D01*
X26358Y-54374D01*
X26414Y-54486D01*
X26414Y-54598D01*
X26358Y-54767D01*
X25683Y-55442D01*
X26414Y-55442D01*
X27483Y-54261D02*
X26920Y-54261D01*
X26864Y-54823D01*
X26920Y-54767D01*
X27033Y-54711D01*
X27314Y-54711D01*
X27426Y-54767D01*
X27483Y-54823D01*
X27539Y-54936D01*
X27539Y-55217D01*
X27483Y-55330D01*
X27426Y-55386D01*
X27314Y-55442D01*
X27033Y-55442D01*
X26920Y-55386D01*
X26864Y-55330D01*
X27989Y-54261D02*
X27989Y-54486D01*
X28439Y-54261D02*
X28439Y-54486D01*
X30182Y-55892D02*
X30126Y-55836D01*
X30014Y-55667D01*
X29957Y-55555D01*
X29901Y-55386D01*
X29845Y-55105D01*
X29845Y-54880D01*
X29901Y-54598D01*
X29957Y-54430D01*
X30014Y-54317D01*
X30126Y-54149D01*
X30182Y-54092D01*
X31251Y-55442D02*
X30576Y-55442D01*
X30913Y-55442D02*
X30913Y-54261D01*
X30801Y-54430D01*
X30688Y-54542D01*
X30576Y-54598D01*
X32376Y-55442D02*
X31701Y-55442D01*
X32038Y-55442D02*
X32038Y-54261D01*
X31926Y-54430D01*
X31813Y-54542D01*
X31701Y-54598D01*
X33782Y-55442D02*
X33782Y-54261D01*
X34288Y-55442D02*
X34288Y-54823D01*
X34232Y-54711D01*
X34119Y-54655D01*
X33951Y-54655D01*
X33838Y-54711D01*
X33782Y-54767D01*
X35019Y-55442D02*
X34907Y-55386D01*
X34850Y-55330D01*
X34794Y-55217D01*
X34794Y-54880D01*
X34850Y-54767D01*
X34907Y-54711D01*
X35019Y-54655D01*
X35188Y-54655D01*
X35300Y-54711D01*
X35357Y-54767D01*
X35413Y-54880D01*
X35413Y-55217D01*
X35357Y-55330D01*
X35300Y-55386D01*
X35188Y-55442D01*
X35019Y-55442D01*
X36088Y-55442D02*
X35975Y-55386D01*
X35919Y-55273D01*
X35919Y-54261D01*
X36988Y-55386D02*
X36875Y-55442D01*
X36650Y-55442D01*
X36538Y-55386D01*
X36482Y-55273D01*
X36482Y-54823D01*
X36538Y-54711D01*
X36650Y-54655D01*
X36875Y-54655D01*
X36988Y-54711D01*
X37044Y-54823D01*
X37044Y-54936D01*
X36482Y-55048D01*
X37494Y-55386D02*
X37606Y-55442D01*
X37831Y-55442D01*
X37944Y-55386D01*
X38000Y-55273D01*
X38000Y-55217D01*
X37944Y-55105D01*
X37831Y-55048D01*
X37663Y-55048D01*
X37550Y-54992D01*
X37494Y-54880D01*
X37494Y-54823D01*
X37550Y-54711D01*
X37663Y-54655D01*
X37831Y-54655D01*
X37944Y-54711D01*
X38394Y-55892D02*
X38450Y-55836D01*
X38562Y-55667D01*
X38619Y-55555D01*
X38675Y-55386D01*
X38731Y-55105D01*
X38731Y-54880D01*
X38675Y-54598D01*
X38619Y-54430D01*
X38562Y-54317D01*
X38450Y-54149D01*
X38394Y-54092D01*
X11631Y-56363D02*
X11631Y-56683D01*
X11471Y-56523D02*
X11791Y-56523D01*
X13084Y-55820D02*
X13197Y-55820D01*
X13309Y-55876D01*
X13366Y-55933D01*
X13422Y-56045D01*
X13478Y-56270D01*
X13478Y-56551D01*
X13422Y-56776D01*
X13366Y-56889D01*
X13309Y-56945D01*
X13197Y-57001D01*
X13084Y-57001D01*
X12972Y-56945D01*
X12916Y-56889D01*
X12859Y-56776D01*
X12803Y-56551D01*
X12803Y-56270D01*
X12859Y-56045D01*
X12916Y-55933D01*
X12972Y-55876D01*
X13084Y-55820D01*
X13984Y-56889D02*
X14041Y-56945D01*
X13984Y-57001D01*
X13928Y-56945D01*
X13984Y-56889D01*
X13984Y-57001D01*
X14715Y-56326D02*
X14603Y-56270D01*
X14547Y-56214D01*
X14491Y-56101D01*
X14491Y-56045D01*
X14547Y-55933D01*
X14603Y-55876D01*
X14715Y-55820D01*
X14940Y-55820D01*
X15053Y-55876D01*
X15109Y-55933D01*
X15165Y-56045D01*
X15165Y-56101D01*
X15109Y-56214D01*
X15053Y-56270D01*
X14940Y-56326D01*
X14715Y-56326D01*
X14603Y-56383D01*
X14547Y-56439D01*
X14491Y-56551D01*
X14491Y-56776D01*
X14547Y-56889D01*
X14603Y-56945D01*
X14715Y-57001D01*
X14940Y-57001D01*
X15053Y-56945D01*
X15109Y-56889D01*
X15165Y-56776D01*
X15165Y-56551D01*
X15109Y-56439D01*
X15053Y-56383D01*
X14940Y-56326D01*
X16290Y-57001D02*
X15615Y-57001D01*
X15953Y-57001D02*
X15953Y-55820D01*
X15840Y-55989D01*
X15728Y-56101D01*
X15615Y-56158D01*
X16796Y-57001D02*
X16796Y-56214D01*
X16796Y-56326D02*
X16853Y-56270D01*
X16965Y-56214D01*
X17134Y-56214D01*
X17246Y-56270D01*
X17303Y-56383D01*
X17303Y-57001D01*
X17303Y-56383D02*
X17359Y-56270D01*
X17471Y-56214D01*
X17640Y-56214D01*
X17753Y-56270D01*
X17809Y-56383D01*
X17809Y-57001D01*
X18371Y-57001D02*
X18371Y-56214D01*
X18371Y-56326D02*
X18428Y-56270D01*
X18540Y-56214D01*
X18709Y-56214D01*
X18821Y-56270D01*
X18877Y-56383D01*
X18877Y-57001D01*
X18877Y-56383D02*
X18934Y-56270D01*
X19046Y-56214D01*
X19215Y-56214D01*
X19327Y-56270D01*
X19384Y-56383D01*
X19384Y-57001D01*
X21690Y-55764D02*
X20677Y-57282D01*
X23208Y-55820D02*
X23321Y-55820D01*
X23433Y-55876D01*
X23489Y-55933D01*
X23546Y-56045D01*
X23602Y-56270D01*
X23602Y-56551D01*
X23546Y-56776D01*
X23489Y-56889D01*
X23433Y-56945D01*
X23321Y-57001D01*
X23208Y-57001D01*
X23096Y-56945D01*
X23039Y-56889D01*
X22983Y-56776D01*
X22927Y-56551D01*
X22927Y-56270D01*
X22983Y-56045D01*
X23039Y-55933D01*
X23096Y-55876D01*
X23208Y-55820D01*
X24108Y-56889D02*
X24164Y-56945D01*
X24108Y-57001D01*
X24052Y-56945D01*
X24108Y-56889D01*
X24108Y-57001D01*
X24895Y-55820D02*
X25008Y-55820D01*
X25120Y-55876D01*
X25177Y-55933D01*
X25233Y-56045D01*
X25289Y-56270D01*
X25289Y-56551D01*
X25233Y-56776D01*
X25177Y-56889D01*
X25120Y-56945D01*
X25008Y-57001D01*
X24895Y-57001D01*
X24783Y-56945D01*
X24727Y-56889D01*
X24670Y-56776D01*
X24614Y-56551D01*
X24614Y-56270D01*
X24670Y-56045D01*
X24727Y-55933D01*
X24783Y-55876D01*
X24895Y-55820D01*
X25683Y-55820D02*
X26414Y-55820D01*
X26020Y-56270D01*
X26189Y-56270D01*
X26302Y-56326D01*
X26358Y-56383D01*
X26414Y-56495D01*
X26414Y-56776D01*
X26358Y-56889D01*
X26302Y-56945D01*
X26189Y-57001D01*
X25852Y-57001D01*
X25739Y-56945D01*
X25683Y-56889D01*
X26864Y-55933D02*
X26920Y-55876D01*
X27033Y-55820D01*
X27314Y-55820D01*
X27426Y-55876D01*
X27483Y-55933D01*
X27539Y-56045D01*
X27539Y-56158D01*
X27483Y-56326D01*
X26808Y-57001D01*
X27539Y-57001D01*
X27989Y-55820D02*
X27989Y-56045D01*
X28439Y-55820D02*
X28439Y-56045D01*
X30182Y-57451D02*
X30126Y-57395D01*
X30014Y-57226D01*
X29957Y-57114D01*
X29901Y-56945D01*
X29845Y-56664D01*
X29845Y-56439D01*
X29901Y-56158D01*
X29957Y-55989D01*
X30014Y-55876D01*
X30126Y-55708D01*
X30182Y-55651D01*
X30576Y-55933D02*
X30632Y-55876D01*
X30745Y-55820D01*
X31026Y-55820D01*
X31138Y-55876D01*
X31195Y-55933D01*
X31251Y-56045D01*
X31251Y-56158D01*
X31195Y-56326D01*
X30520Y-57001D01*
X31251Y-57001D01*
X32657Y-57001D02*
X32657Y-55820D01*
X33163Y-57001D02*
X33163Y-56383D01*
X33107Y-56270D01*
X32994Y-56214D01*
X32826Y-56214D01*
X32713Y-56270D01*
X32657Y-56326D01*
X33894Y-57001D02*
X33782Y-56945D01*
X33726Y-56889D01*
X33669Y-56776D01*
X33669Y-56439D01*
X33726Y-56326D01*
X33782Y-56270D01*
X33894Y-56214D01*
X34063Y-56214D01*
X34176Y-56270D01*
X34232Y-56326D01*
X34288Y-56439D01*
X34288Y-56776D01*
X34232Y-56889D01*
X34176Y-56945D01*
X34063Y-57001D01*
X33894Y-57001D01*
X34963Y-57001D02*
X34850Y-56945D01*
X34794Y-56832D01*
X34794Y-55820D01*
X35863Y-56945D02*
X35750Y-57001D01*
X35525Y-57001D01*
X35413Y-56945D01*
X35357Y-56832D01*
X35357Y-56383D01*
X35413Y-56270D01*
X35525Y-56214D01*
X35750Y-56214D01*
X35863Y-56270D01*
X35919Y-56383D01*
X35919Y-56495D01*
X35357Y-56607D01*
X36369Y-56945D02*
X36482Y-57001D01*
X36706Y-57001D01*
X36819Y-56945D01*
X36875Y-56832D01*
X36875Y-56776D01*
X36819Y-56664D01*
X36706Y-56607D01*
X36538Y-56607D01*
X36425Y-56551D01*
X36369Y-56439D01*
X36369Y-56383D01*
X36425Y-56270D01*
X36538Y-56214D01*
X36706Y-56214D01*
X36819Y-56270D01*
X37269Y-57451D02*
X37325Y-57395D01*
X37438Y-57226D01*
X37494Y-57114D01*
X37550Y-56945D01*
X37606Y-56664D01*
X37606Y-56439D01*
X37550Y-56158D01*
X37494Y-55989D01*
X37438Y-55876D01*
X37325Y-55708D01*
X37269Y-55651D01*
G54D13*
X11739Y-58207D02*
X11739Y-57957D01*
X11489Y-57957D01*
X11489Y-58207D01*
X11739Y-58207D01*
G54D11*
X13084Y-57379D02*
X13197Y-57379D01*
X13309Y-57435D01*
X13366Y-57492D01*
X13422Y-57604D01*
X13478Y-57829D01*
X13478Y-58110D01*
X13422Y-58335D01*
X13366Y-58448D01*
X13309Y-58504D01*
X13197Y-58560D01*
X13084Y-58560D01*
X12972Y-58504D01*
X12916Y-58448D01*
X12859Y-58335D01*
X12803Y-58110D01*
X12803Y-57829D01*
X12859Y-57604D01*
X12916Y-57492D01*
X12972Y-57435D01*
X13084Y-57379D01*
X13984Y-58448D02*
X14041Y-58504D01*
X13984Y-58560D01*
X13928Y-58504D01*
X13984Y-58448D01*
X13984Y-58560D01*
X14603Y-58560D02*
X14828Y-58560D01*
X14940Y-58504D01*
X14997Y-58448D01*
X15109Y-58279D01*
X15165Y-58054D01*
X15165Y-57604D01*
X15109Y-57492D01*
X15053Y-57435D01*
X14940Y-57379D01*
X14715Y-57379D01*
X14603Y-57435D01*
X14547Y-57492D01*
X14491Y-57604D01*
X14491Y-57885D01*
X14547Y-57998D01*
X14603Y-58054D01*
X14715Y-58110D01*
X14940Y-58110D01*
X15053Y-58054D01*
X15109Y-57998D01*
X15165Y-57885D01*
X15897Y-57379D02*
X16009Y-57379D01*
X16122Y-57435D01*
X16178Y-57492D01*
X16234Y-57604D01*
X16290Y-57829D01*
X16290Y-58110D01*
X16234Y-58335D01*
X16178Y-58448D01*
X16122Y-58504D01*
X16009Y-58560D01*
X15897Y-58560D01*
X15784Y-58504D01*
X15728Y-58448D01*
X15672Y-58335D01*
X15615Y-58110D01*
X15615Y-57829D01*
X15672Y-57604D01*
X15728Y-57492D01*
X15784Y-57435D01*
X15897Y-57379D01*
X16796Y-58560D02*
X16796Y-57773D01*
X16796Y-57885D02*
X16853Y-57829D01*
X16965Y-57773D01*
X17134Y-57773D01*
X17246Y-57829D01*
X17303Y-57942D01*
X17303Y-58560D01*
X17303Y-57942D02*
X17359Y-57829D01*
X17471Y-57773D01*
X17640Y-57773D01*
X17753Y-57829D01*
X17809Y-57942D01*
X17809Y-58560D01*
X18371Y-58560D02*
X18371Y-57773D01*
X18371Y-57885D02*
X18428Y-57829D01*
X18540Y-57773D01*
X18709Y-57773D01*
X18821Y-57829D01*
X18877Y-57942D01*
X18877Y-58560D01*
X18877Y-57942D02*
X18934Y-57829D01*
X19046Y-57773D01*
X19215Y-57773D01*
X19327Y-57829D01*
X19384Y-57942D01*
X19384Y-58560D01*
X21690Y-57323D02*
X20677Y-58841D01*
X23208Y-57379D02*
X23321Y-57379D01*
X23433Y-57435D01*
X23489Y-57492D01*
X23546Y-57604D01*
X23602Y-57829D01*
X23602Y-58110D01*
X23546Y-58335D01*
X23489Y-58448D01*
X23433Y-58504D01*
X23321Y-58560D01*
X23208Y-58560D01*
X23096Y-58504D01*
X23039Y-58448D01*
X22983Y-58335D01*
X22927Y-58110D01*
X22927Y-57829D01*
X22983Y-57604D01*
X23039Y-57492D01*
X23096Y-57435D01*
X23208Y-57379D01*
X24108Y-58448D02*
X24164Y-58504D01*
X24108Y-58560D01*
X24052Y-58504D01*
X24108Y-58448D01*
X24108Y-58560D01*
X24895Y-57379D02*
X25008Y-57379D01*
X25120Y-57435D01*
X25177Y-57492D01*
X25233Y-57604D01*
X25289Y-57829D01*
X25289Y-58110D01*
X25233Y-58335D01*
X25177Y-58448D01*
X25120Y-58504D01*
X25008Y-58560D01*
X24895Y-58560D01*
X24783Y-58504D01*
X24727Y-58448D01*
X24670Y-58335D01*
X24614Y-58110D01*
X24614Y-57829D01*
X24670Y-57604D01*
X24727Y-57492D01*
X24783Y-57435D01*
X24895Y-57379D01*
X25683Y-57379D02*
X26414Y-57379D01*
X26020Y-57829D01*
X26189Y-57829D01*
X26302Y-57885D01*
X26358Y-57942D01*
X26414Y-58054D01*
X26414Y-58335D01*
X26358Y-58448D01*
X26302Y-58504D01*
X26189Y-58560D01*
X25852Y-58560D01*
X25739Y-58504D01*
X25683Y-58448D01*
X27483Y-57379D02*
X26920Y-57379D01*
X26864Y-57942D01*
X26920Y-57885D01*
X27033Y-57829D01*
X27314Y-57829D01*
X27426Y-57885D01*
X27483Y-57942D01*
X27539Y-58054D01*
X27539Y-58335D01*
X27483Y-58448D01*
X27426Y-58504D01*
X27314Y-58560D01*
X27033Y-58560D01*
X26920Y-58504D01*
X26864Y-58448D01*
X27989Y-57379D02*
X27989Y-57604D01*
X28439Y-57379D02*
X28439Y-57604D01*
X30182Y-59010D02*
X30126Y-58954D01*
X30014Y-58785D01*
X29957Y-58673D01*
X29901Y-58504D01*
X29845Y-58223D01*
X29845Y-57998D01*
X29901Y-57717D01*
X29957Y-57548D01*
X30014Y-57435D01*
X30126Y-57267D01*
X30182Y-57210D01*
X30801Y-57885D02*
X30688Y-57829D01*
X30632Y-57773D01*
X30576Y-57660D01*
X30576Y-57604D01*
X30632Y-57492D01*
X30688Y-57435D01*
X30801Y-57379D01*
X31026Y-57379D01*
X31138Y-57435D01*
X31195Y-57492D01*
X31251Y-57604D01*
X31251Y-57660D01*
X31195Y-57773D01*
X31138Y-57829D01*
X31026Y-57885D01*
X30801Y-57885D01*
X30688Y-57942D01*
X30632Y-57998D01*
X30576Y-58110D01*
X30576Y-58335D01*
X30632Y-58448D01*
X30688Y-58504D01*
X30801Y-58560D01*
X31026Y-58560D01*
X31138Y-58504D01*
X31195Y-58448D01*
X31251Y-58335D01*
X31251Y-58110D01*
X31195Y-57998D01*
X31138Y-57942D01*
X31026Y-57885D01*
X31982Y-57379D02*
X32095Y-57379D01*
X32207Y-57435D01*
X32263Y-57492D01*
X32320Y-57604D01*
X32376Y-57829D01*
X32376Y-58110D01*
X32320Y-58335D01*
X32263Y-58448D01*
X32207Y-58504D01*
X32095Y-58560D01*
X31982Y-58560D01*
X31870Y-58504D01*
X31813Y-58448D01*
X31757Y-58335D01*
X31701Y-58110D01*
X31701Y-57829D01*
X31757Y-57604D01*
X31813Y-57492D01*
X31870Y-57435D01*
X31982Y-57379D01*
X33782Y-58560D02*
X33782Y-57379D01*
X34288Y-58560D02*
X34288Y-57942D01*
X34232Y-57829D01*
X34119Y-57773D01*
X33951Y-57773D01*
X33838Y-57829D01*
X33782Y-57885D01*
X35019Y-58560D02*
X34907Y-58504D01*
X34850Y-58448D01*
X34794Y-58335D01*
X34794Y-57998D01*
X34850Y-57885D01*
X34907Y-57829D01*
X35019Y-57773D01*
X35188Y-57773D01*
X35300Y-57829D01*
X35357Y-57885D01*
X35413Y-57998D01*
X35413Y-58335D01*
X35357Y-58448D01*
X35300Y-58504D01*
X35188Y-58560D01*
X35019Y-58560D01*
X36088Y-58560D02*
X35975Y-58504D01*
X35919Y-58392D01*
X35919Y-57379D01*
X36988Y-58504D02*
X36875Y-58560D01*
X36650Y-58560D01*
X36538Y-58504D01*
X36482Y-58392D01*
X36482Y-57942D01*
X36538Y-57829D01*
X36650Y-57773D01*
X36875Y-57773D01*
X36988Y-57829D01*
X37044Y-57942D01*
X37044Y-58054D01*
X36482Y-58167D01*
X37494Y-58504D02*
X37606Y-58560D01*
X37831Y-58560D01*
X37944Y-58504D01*
X38000Y-58392D01*
X38000Y-58335D01*
X37944Y-58223D01*
X37831Y-58167D01*
X37663Y-58167D01*
X37550Y-58110D01*
X37494Y-57998D01*
X37494Y-57942D01*
X37550Y-57829D01*
X37663Y-57773D01*
X37831Y-57773D01*
X37944Y-57829D01*
X38394Y-59010D02*
X38450Y-58954D01*
X38562Y-58785D01*
X38619Y-58673D01*
X38675Y-58504D01*
X38731Y-58223D01*
X38731Y-57998D01*
X38675Y-57717D01*
X38619Y-57548D01*
X38562Y-57435D01*
X38450Y-57267D01*
X38394Y-57210D01*
G54D13*
X11476Y-59956D02*
X11791Y-59641D01*
X11476Y-59326D01*
X11161Y-59641D01*
X11476Y-59956D01*
G54D11*
X13478Y-60119D02*
X12803Y-60119D01*
X13141Y-60119D02*
X13141Y-58938D01*
X13028Y-59107D01*
X12916Y-59219D01*
X12803Y-59276D01*
X13984Y-60007D02*
X14041Y-60063D01*
X13984Y-60119D01*
X13928Y-60063D01*
X13984Y-60007D01*
X13984Y-60119D01*
X15053Y-58938D02*
X14828Y-58938D01*
X14715Y-58994D01*
X14659Y-59051D01*
X14547Y-59219D01*
X14491Y-59444D01*
X14491Y-59894D01*
X14547Y-60007D01*
X14603Y-60063D01*
X14715Y-60119D01*
X14940Y-60119D01*
X15053Y-60063D01*
X15109Y-60007D01*
X15165Y-59894D01*
X15165Y-59613D01*
X15109Y-59501D01*
X15053Y-59444D01*
X14940Y-59388D01*
X14715Y-59388D01*
X14603Y-59444D01*
X14547Y-59501D01*
X14491Y-59613D01*
X15897Y-58938D02*
X16009Y-58938D01*
X16122Y-58994D01*
X16178Y-59051D01*
X16234Y-59163D01*
X16290Y-59388D01*
X16290Y-59669D01*
X16234Y-59894D01*
X16178Y-60007D01*
X16122Y-60063D01*
X16009Y-60119D01*
X15897Y-60119D01*
X15784Y-60063D01*
X15728Y-60007D01*
X15672Y-59894D01*
X15615Y-59669D01*
X15615Y-59388D01*
X15672Y-59163D01*
X15728Y-59051D01*
X15784Y-58994D01*
X15897Y-58938D01*
X16796Y-60119D02*
X16796Y-59332D01*
X16796Y-59444D02*
X16853Y-59388D01*
X16965Y-59332D01*
X17134Y-59332D01*
X17246Y-59388D01*
X17303Y-59501D01*
X17303Y-60119D01*
X17303Y-59501D02*
X17359Y-59388D01*
X17471Y-59332D01*
X17640Y-59332D01*
X17753Y-59388D01*
X17809Y-59501D01*
X17809Y-60119D01*
X18371Y-60119D02*
X18371Y-59332D01*
X18371Y-59444D02*
X18428Y-59388D01*
X18540Y-59332D01*
X18709Y-59332D01*
X18821Y-59388D01*
X18877Y-59501D01*
X18877Y-60119D01*
X18877Y-59501D02*
X18934Y-59388D01*
X19046Y-59332D01*
X19215Y-59332D01*
X19327Y-59388D01*
X19384Y-59501D01*
X19384Y-60119D01*
X21690Y-58882D02*
X20677Y-60401D01*
X23208Y-58938D02*
X23321Y-58938D01*
X23433Y-58994D01*
X23489Y-59051D01*
X23546Y-59163D01*
X23602Y-59388D01*
X23602Y-59669D01*
X23546Y-59894D01*
X23489Y-60007D01*
X23433Y-60063D01*
X23321Y-60119D01*
X23208Y-60119D01*
X23096Y-60063D01*
X23039Y-60007D01*
X22983Y-59894D01*
X22927Y-59669D01*
X22927Y-59388D01*
X22983Y-59163D01*
X23039Y-59051D01*
X23096Y-58994D01*
X23208Y-58938D01*
X24108Y-60007D02*
X24164Y-60063D01*
X24108Y-60119D01*
X24052Y-60063D01*
X24108Y-60007D01*
X24108Y-60119D01*
X24895Y-58938D02*
X25008Y-58938D01*
X25120Y-58994D01*
X25177Y-59051D01*
X25233Y-59163D01*
X25289Y-59388D01*
X25289Y-59669D01*
X25233Y-59894D01*
X25177Y-60007D01*
X25120Y-60063D01*
X25008Y-60119D01*
X24895Y-60119D01*
X24783Y-60063D01*
X24727Y-60007D01*
X24670Y-59894D01*
X24614Y-59669D01*
X24614Y-59388D01*
X24670Y-59163D01*
X24727Y-59051D01*
X24783Y-58994D01*
X24895Y-58938D01*
X26302Y-58938D02*
X26077Y-58938D01*
X25964Y-58994D01*
X25908Y-59051D01*
X25795Y-59219D01*
X25739Y-59444D01*
X25739Y-59894D01*
X25795Y-60007D01*
X25852Y-60063D01*
X25964Y-60119D01*
X26189Y-60119D01*
X26302Y-60063D01*
X26358Y-60007D01*
X26414Y-59894D01*
X26414Y-59613D01*
X26358Y-59501D01*
X26302Y-59444D01*
X26189Y-59388D01*
X25964Y-59388D01*
X25852Y-59444D01*
X25795Y-59501D01*
X25739Y-59613D01*
X26808Y-58938D02*
X27539Y-58938D01*
X27145Y-59388D01*
X27314Y-59388D01*
X27426Y-59444D01*
X27483Y-59501D01*
X27539Y-59613D01*
X27539Y-59894D01*
X27483Y-60007D01*
X27426Y-60063D01*
X27314Y-60119D01*
X26976Y-60119D01*
X26864Y-60063D01*
X26808Y-60007D01*
X27989Y-58938D02*
X27989Y-59163D01*
X28439Y-58938D02*
X28439Y-59163D01*
X30182Y-60569D02*
X30126Y-60513D01*
X30014Y-60344D01*
X29957Y-60232D01*
X29901Y-60063D01*
X29845Y-59782D01*
X29845Y-59557D01*
X29901Y-59276D01*
X29957Y-59107D01*
X30014Y-58994D01*
X30126Y-58826D01*
X30182Y-58769D01*
X30576Y-59051D02*
X30632Y-58994D01*
X30745Y-58938D01*
X31026Y-58938D01*
X31138Y-58994D01*
X31195Y-59051D01*
X31251Y-59163D01*
X31251Y-59276D01*
X31195Y-59444D01*
X30520Y-60119D01*
X31251Y-60119D01*
X31982Y-58938D02*
X32095Y-58938D01*
X32207Y-58994D01*
X32263Y-59051D01*
X32320Y-59163D01*
X32376Y-59388D01*
X32376Y-59669D01*
X32320Y-59894D01*
X32263Y-60007D01*
X32207Y-60063D01*
X32095Y-60119D01*
X31982Y-60119D01*
X31870Y-60063D01*
X31813Y-60007D01*
X31757Y-59894D01*
X31701Y-59669D01*
X31701Y-59388D01*
X31757Y-59163D01*
X31813Y-59051D01*
X31870Y-58994D01*
X31982Y-58938D01*
X33782Y-60119D02*
X33782Y-58938D01*
X34288Y-60119D02*
X34288Y-59501D01*
X34232Y-59388D01*
X34119Y-59332D01*
X33951Y-59332D01*
X33838Y-59388D01*
X33782Y-59444D01*
X35019Y-60119D02*
X34907Y-60063D01*
X34850Y-60007D01*
X34794Y-59894D01*
X34794Y-59557D01*
X34850Y-59444D01*
X34907Y-59388D01*
X35019Y-59332D01*
X35188Y-59332D01*
X35300Y-59388D01*
X35357Y-59444D01*
X35413Y-59557D01*
X35413Y-59894D01*
X35357Y-60007D01*
X35300Y-60063D01*
X35188Y-60119D01*
X35019Y-60119D01*
X36088Y-60119D02*
X35975Y-60063D01*
X35919Y-59951D01*
X35919Y-58938D01*
X36988Y-60063D02*
X36875Y-60119D01*
X36650Y-60119D01*
X36538Y-60063D01*
X36482Y-59951D01*
X36482Y-59501D01*
X36538Y-59388D01*
X36650Y-59332D01*
X36875Y-59332D01*
X36988Y-59388D01*
X37044Y-59501D01*
X37044Y-59613D01*
X36482Y-59726D01*
X37494Y-60063D02*
X37606Y-60119D01*
X37831Y-60119D01*
X37944Y-60063D01*
X38000Y-59951D01*
X38000Y-59894D01*
X37944Y-59782D01*
X37831Y-59726D01*
X37663Y-59726D01*
X37550Y-59669D01*
X37494Y-59557D01*
X37494Y-59501D01*
X37550Y-59388D01*
X37663Y-59332D01*
X37831Y-59332D01*
X37944Y-59388D01*
X38394Y-60569D02*
X38450Y-60513D01*
X38562Y-60344D01*
X38619Y-60232D01*
X38675Y-60063D01*
X38731Y-59782D01*
X38731Y-59557D01*
X38675Y-59276D01*
X38619Y-59107D01*
X38562Y-58994D01*
X38450Y-58826D01*
X38394Y-58769D01*
M02*
