G04 (created by PCBNEW (2013-07-07 BZR 4022)-stable) date 9/18/2013 14:10:39*
%MOIN*%
G04 Gerber Fmt 3.4, Leading zero omitted, Abs format*
%FSLAX34Y34*%
G01*
G70*
G90*
G04 APERTURE LIST*
%ADD10C,0.00590551*%
%ADD11C,0.011811*%
%ADD12R,0.0276X0.063*%
%ADD13R,0.0276X0.0827*%
%ADD14R,0.0787X0.1083*%
%ADD15R,0.0256X0.0118*%
%ADD16R,0.025X0.05*%
%ADD17R,0.025X0.045*%
%ADD18R,0.045X0.025*%
%ADD19C,0.066*%
%ADD20C,0.23622*%
%ADD21R,0.055X0.035*%
%ADD22C,0.1437*%
%ADD23C,0.0591*%
%ADD24C,0.0866142*%
%ADD25C,0.035*%
%ADD26C,0.0275591*%
%ADD27C,0.0393701*%
%ADD28C,0.019685*%
%ADD29C,0.00787402*%
%ADD30C,0.01*%
G04 APERTURE END LIST*
G54D10*
G54D11*
X53692Y-10894D02*
X53495Y-10894D01*
X53495Y-11203D02*
X53495Y-10613D01*
X53776Y-10613D01*
X54001Y-11147D02*
X54029Y-11175D01*
X54001Y-11203D01*
X53973Y-11175D01*
X54001Y-11147D01*
X54001Y-11203D01*
X54620Y-11147D02*
X54592Y-11175D01*
X54507Y-11203D01*
X54451Y-11203D01*
X54367Y-11175D01*
X54311Y-11119D01*
X54282Y-11062D01*
X54254Y-10950D01*
X54254Y-10866D01*
X54282Y-10753D01*
X54311Y-10697D01*
X54367Y-10641D01*
X54451Y-10613D01*
X54507Y-10613D01*
X54592Y-10641D01*
X54620Y-10669D01*
X55126Y-10809D02*
X55126Y-11203D01*
X54873Y-10809D02*
X54873Y-11119D01*
X54901Y-11175D01*
X54957Y-11203D01*
X55042Y-11203D01*
X55098Y-11175D01*
X55126Y-11147D01*
G54D12*
X37991Y-33346D03*
G54D13*
X38582Y-33248D03*
G54D12*
X39173Y-33346D03*
G54D14*
X38582Y-32303D03*
G54D15*
X35661Y-30216D03*
X35661Y-30019D03*
X35661Y-29822D03*
X35661Y-29625D03*
X35208Y-29625D03*
X35208Y-29822D03*
X35208Y-30019D03*
X35208Y-30216D03*
G54D16*
X29996Y-31021D03*
X30496Y-31021D03*
X30996Y-31021D03*
X31496Y-31021D03*
X31996Y-31021D03*
X32496Y-31021D03*
X32996Y-31021D03*
X32996Y-28821D03*
X32496Y-28821D03*
X31996Y-28821D03*
X31496Y-28821D03*
X30996Y-28821D03*
X30496Y-28821D03*
X29996Y-28821D03*
G54D17*
X15260Y-20866D03*
X14660Y-20866D03*
X19985Y-29921D03*
X19385Y-29921D03*
G54D18*
X40944Y-28243D03*
X40944Y-28843D03*
G54D19*
X14460Y-23622D03*
X15460Y-23622D03*
G54D20*
X13779Y-47637D03*
X49212Y-47637D03*
X49212Y-12204D03*
X13779Y-12204D03*
G54D21*
X41043Y-33975D03*
X41043Y-34725D03*
X36122Y-33975D03*
X36122Y-34725D03*
G54D22*
X40807Y-12598D03*
X45807Y-12598D03*
G54D23*
X41901Y-13598D03*
X42303Y-14299D03*
X42704Y-13598D03*
X43106Y-14299D03*
X43507Y-13598D03*
X43909Y-14299D03*
X44311Y-13598D03*
X44712Y-14299D03*
G54D24*
X40106Y-13948D03*
X46507Y-13948D03*
G54D22*
X32933Y-12598D03*
X37933Y-12598D03*
G54D23*
X34027Y-13598D03*
X34429Y-14299D03*
X34830Y-13598D03*
X35232Y-14299D03*
X35633Y-13598D03*
X36035Y-14299D03*
X36437Y-13598D03*
X36838Y-14299D03*
G54D24*
X32232Y-13948D03*
X38633Y-13948D03*
G54D22*
X25059Y-12598D03*
X30059Y-12598D03*
G54D23*
X26153Y-13598D03*
X26555Y-14299D03*
X26956Y-13598D03*
X27358Y-14299D03*
X27759Y-13598D03*
X28161Y-14299D03*
X28562Y-13598D03*
X28964Y-14299D03*
G54D24*
X24358Y-13948D03*
X30759Y-13948D03*
G54D22*
X17185Y-12598D03*
X22185Y-12598D03*
G54D23*
X18279Y-13598D03*
X18681Y-14299D03*
X19082Y-13598D03*
X19484Y-14299D03*
X19885Y-13598D03*
X20287Y-14299D03*
X20688Y-13598D03*
X21090Y-14299D03*
G54D24*
X16484Y-13948D03*
X22885Y-13948D03*
G54D22*
X48818Y-27421D03*
X48818Y-32421D03*
G54D23*
X47818Y-28515D03*
X47118Y-28917D03*
X47818Y-29318D03*
X47118Y-29720D03*
X47818Y-30122D03*
X47118Y-30523D03*
X47818Y-30925D03*
X47118Y-31326D03*
G54D24*
X47468Y-26720D03*
X47468Y-33122D03*
G54D22*
X14173Y-32421D03*
X14173Y-27421D03*
G54D23*
X15173Y-31326D03*
X15874Y-30925D03*
X15173Y-30523D03*
X15874Y-30122D03*
X15173Y-29720D03*
X15874Y-29318D03*
X15173Y-28917D03*
X15874Y-28515D03*
G54D24*
X15523Y-33122D03*
X15523Y-26720D03*
G54D22*
X45807Y-47244D03*
X40807Y-47244D03*
G54D23*
X44712Y-46244D03*
X44311Y-45543D03*
X43909Y-46244D03*
X43507Y-45543D03*
X43106Y-46244D03*
X42704Y-45543D03*
X42303Y-46244D03*
X41901Y-45543D03*
G54D24*
X46507Y-45893D03*
X40106Y-45893D03*
G54D22*
X37933Y-47244D03*
X32933Y-47244D03*
G54D23*
X36838Y-46244D03*
X36437Y-45543D03*
X36035Y-46244D03*
X35633Y-45543D03*
X35232Y-46244D03*
X34830Y-45543D03*
X34429Y-46244D03*
X34027Y-45543D03*
G54D24*
X38633Y-45893D03*
X32232Y-45893D03*
G54D22*
X30059Y-47244D03*
X25059Y-47244D03*
G54D23*
X28964Y-46244D03*
X28562Y-45543D03*
X28161Y-46244D03*
X27759Y-45543D03*
X27358Y-46244D03*
X26956Y-45543D03*
X26555Y-46244D03*
X26153Y-45543D03*
G54D24*
X30759Y-45893D03*
X24358Y-45893D03*
G54D22*
X22185Y-47244D03*
X17185Y-47244D03*
G54D23*
X21090Y-46244D03*
X20688Y-45543D03*
X20287Y-46244D03*
X19885Y-45543D03*
X19484Y-46244D03*
X19082Y-45543D03*
X18681Y-46244D03*
X18279Y-45543D03*
G54D24*
X22885Y-45893D03*
X16484Y-45893D03*
G54D25*
X41417Y-33110D03*
X40511Y-33070D03*
X40944Y-32637D03*
X42322Y-33858D03*
X34000Y-30730D03*
X35415Y-30745D03*
G54D26*
X31945Y-30180D03*
X31090Y-27330D03*
X30900Y-27970D03*
X33965Y-29875D03*
X31280Y-29860D03*
X30050Y-26620D03*
X33710Y-28475D03*
X34400Y-27760D03*
X32355Y-32115D03*
G54D25*
X37244Y-33070D03*
X36574Y-33070D03*
X36574Y-32401D03*
X29921Y-27952D03*
X35433Y-33858D03*
G54D27*
X41417Y-33110D02*
X40551Y-33110D01*
X40944Y-32637D02*
X40511Y-33070D01*
X40511Y-33070D02*
X40236Y-33346D01*
X40236Y-33346D02*
X39173Y-33346D01*
X40944Y-32637D02*
X41043Y-32736D01*
X41043Y-32736D02*
X41043Y-33975D01*
X41417Y-33110D02*
X40944Y-32637D01*
X40551Y-33110D02*
X40511Y-33070D01*
G54D28*
X42322Y-33858D02*
X42205Y-33975D01*
X42205Y-33975D02*
X41043Y-33975D01*
X41043Y-34725D02*
X39095Y-34725D01*
X39095Y-34725D02*
X38582Y-34212D01*
X36122Y-34725D02*
X38069Y-34725D01*
X38582Y-34212D02*
X38582Y-33248D01*
X38069Y-34725D02*
X38582Y-34212D01*
G54D27*
X38582Y-32303D02*
X37539Y-32303D01*
X37539Y-32303D02*
X37519Y-32283D01*
X38582Y-32303D02*
X39704Y-32303D01*
X39704Y-32303D02*
X39724Y-32283D01*
X38582Y-32303D02*
X38582Y-30787D01*
G54D28*
X37291Y-28850D02*
X40938Y-28850D01*
X36811Y-29330D02*
X37291Y-28850D01*
X40938Y-28850D02*
X40944Y-28843D01*
X43970Y-28850D02*
X40951Y-28850D01*
X40951Y-28850D02*
X40944Y-28843D01*
X47818Y-31791D02*
X47430Y-32180D01*
X47430Y-32180D02*
X46430Y-32180D01*
X46430Y-32180D02*
X44310Y-30060D01*
X44310Y-30060D02*
X44310Y-29190D01*
X44310Y-29190D02*
X43970Y-28850D01*
X47818Y-30925D02*
X47818Y-31791D01*
G54D29*
X35661Y-29625D02*
X35661Y-29496D01*
X35826Y-29330D02*
X36811Y-29330D01*
X35661Y-29496D02*
X35826Y-29330D01*
X35661Y-29921D02*
X35661Y-29625D01*
X35661Y-30019D02*
X35661Y-29921D01*
X35661Y-29921D02*
X35661Y-29822D01*
X35661Y-30216D02*
X35661Y-30019D01*
X35661Y-30216D02*
X35661Y-30498D01*
X35661Y-30498D02*
X35415Y-30745D01*
G54D28*
X35415Y-30745D02*
X36380Y-30745D01*
X36380Y-30745D02*
X36811Y-30314D01*
X36811Y-30314D02*
X36811Y-29330D01*
X36122Y-34725D02*
X35315Y-34725D01*
X35415Y-31907D02*
X35415Y-30745D01*
X34645Y-32677D02*
X35415Y-31907D01*
X34645Y-34055D02*
X34645Y-32677D01*
X35315Y-34725D02*
X34645Y-34055D01*
X47818Y-29318D02*
X47971Y-29318D01*
X45168Y-13598D02*
X44311Y-13598D01*
X50020Y-18450D02*
X45168Y-13598D01*
X50020Y-27900D02*
X50020Y-18450D01*
X49430Y-28490D02*
X50020Y-27900D01*
X48800Y-28490D02*
X49430Y-28490D01*
X47971Y-29318D02*
X48800Y-28490D01*
X18681Y-46244D02*
X17924Y-46244D01*
X14066Y-30523D02*
X15173Y-30523D01*
X12850Y-31740D02*
X14066Y-30523D01*
X12850Y-41170D02*
X12850Y-31740D01*
X17924Y-46244D02*
X12850Y-41170D01*
X42303Y-46244D02*
X42303Y-46473D01*
X43909Y-46480D02*
X43909Y-46244D01*
X43470Y-46920D02*
X43909Y-46480D01*
X42750Y-46920D02*
X43470Y-46920D01*
X42303Y-46473D02*
X42750Y-46920D01*
X36035Y-46244D02*
X36035Y-46940D01*
X42303Y-47816D02*
X42303Y-46244D01*
X41730Y-48390D02*
X42303Y-47816D01*
X37485Y-48390D02*
X41730Y-48390D01*
X36035Y-46940D02*
X37485Y-48390D01*
X34429Y-46244D02*
X34429Y-46429D01*
X36035Y-46414D02*
X36035Y-46244D01*
X35510Y-46940D02*
X36035Y-46414D01*
X34940Y-46940D02*
X35510Y-46940D01*
X34429Y-46429D02*
X34940Y-46940D01*
X28161Y-46244D02*
X28161Y-47061D01*
X34429Y-47575D02*
X34429Y-46244D01*
X33630Y-48375D02*
X34429Y-47575D01*
X29475Y-48375D02*
X33630Y-48375D01*
X28161Y-47061D02*
X29475Y-48375D01*
X26555Y-46244D02*
X26555Y-46355D01*
X28161Y-46358D02*
X28161Y-46244D01*
X27555Y-46965D02*
X28161Y-46358D01*
X27165Y-46965D02*
X27555Y-46965D01*
X26555Y-46355D02*
X27165Y-46965D01*
X20287Y-46244D02*
X20287Y-47242D01*
X26555Y-47604D02*
X26555Y-46244D01*
X25800Y-48360D02*
X26555Y-47604D01*
X21405Y-48360D02*
X25800Y-48360D01*
X20287Y-47242D02*
X21405Y-48360D01*
X18681Y-46244D02*
X18681Y-46461D01*
X20287Y-46492D02*
X20287Y-46244D01*
X19800Y-46980D02*
X20287Y-46492D01*
X19200Y-46980D02*
X19800Y-46980D01*
X18681Y-46461D02*
X19200Y-46980D01*
X47818Y-29318D02*
X48103Y-29318D01*
X48049Y-30925D02*
X47818Y-30925D01*
X48630Y-30345D02*
X48049Y-30925D01*
X48630Y-29845D02*
X48630Y-30345D01*
X48103Y-29318D02*
X48630Y-29845D01*
X42704Y-13598D02*
X42704Y-13350D01*
X42704Y-13350D02*
X43215Y-12840D01*
X43215Y-12840D02*
X43815Y-12840D01*
X43815Y-12840D02*
X44311Y-13336D01*
X44311Y-13336D02*
X44311Y-13598D01*
X36437Y-13598D02*
X36437Y-12327D01*
X42704Y-12629D02*
X42704Y-13598D01*
X41445Y-11370D02*
X42704Y-12629D01*
X37395Y-11370D02*
X41445Y-11370D01*
X36437Y-12327D02*
X37395Y-11370D01*
X34830Y-13598D02*
X34830Y-13484D01*
X36437Y-13437D02*
X36437Y-13598D01*
X35930Y-12930D02*
X36437Y-13437D01*
X35385Y-12930D02*
X35930Y-12930D01*
X34830Y-13484D02*
X35385Y-12930D01*
X28562Y-13598D02*
X28562Y-12492D01*
X34830Y-12630D02*
X34830Y-13598D01*
X33615Y-11415D02*
X34830Y-12630D01*
X29640Y-11415D02*
X33615Y-11415D01*
X28562Y-12492D02*
X29640Y-11415D01*
X26956Y-13598D02*
X26956Y-13413D01*
X28562Y-13472D02*
X28562Y-13598D01*
X27960Y-12870D02*
X28562Y-13472D01*
X27500Y-12870D02*
X27960Y-12870D01*
X26956Y-13413D02*
X27500Y-12870D01*
X20688Y-13598D02*
X20688Y-12376D01*
X26956Y-12726D02*
X26956Y-13598D01*
X25625Y-11395D02*
X26956Y-12726D01*
X21670Y-11395D02*
X25625Y-11395D01*
X20688Y-12376D02*
X21670Y-11395D01*
X19082Y-13598D02*
X19082Y-13482D01*
X20050Y-12960D02*
X20688Y-13598D01*
X19605Y-12960D02*
X20050Y-12960D01*
X19082Y-13482D02*
X19605Y-12960D01*
X15460Y-23622D02*
X15460Y-23769D01*
X19082Y-12692D02*
X19082Y-13598D01*
X17715Y-11325D02*
X19082Y-12692D01*
X16590Y-11325D02*
X17715Y-11325D01*
X15705Y-12210D02*
X16590Y-11325D01*
X15705Y-13170D02*
X15705Y-12210D01*
X13370Y-15505D02*
X15705Y-13170D01*
X13370Y-23790D02*
X13370Y-15505D01*
X14130Y-24550D02*
X13370Y-23790D01*
X14680Y-24550D02*
X14130Y-24550D01*
X15460Y-23769D02*
X14680Y-24550D01*
X15460Y-23622D02*
X15460Y-25249D01*
X12960Y-26430D02*
X12960Y-27915D01*
X12960Y-27915D02*
X13962Y-28917D01*
X13962Y-28917D02*
X15173Y-28917D01*
X13660Y-25730D02*
X12960Y-26430D01*
X14980Y-25730D02*
X13660Y-25730D01*
X15460Y-25249D02*
X14980Y-25730D01*
X15173Y-28917D02*
X15062Y-28917D01*
X15028Y-30523D02*
X15173Y-30523D01*
X14490Y-29985D02*
X15028Y-30523D01*
X14490Y-29490D02*
X14490Y-29985D01*
X15062Y-28917D02*
X14490Y-29490D01*
X15460Y-23622D02*
X15460Y-23929D01*
X32996Y-31021D02*
X33708Y-31021D01*
X33708Y-31021D02*
X34000Y-30730D01*
G54D29*
X32496Y-31021D02*
X32496Y-29926D01*
X31996Y-29426D02*
X31996Y-28821D01*
X32496Y-29926D02*
X31996Y-29426D01*
X31496Y-31021D02*
X31496Y-30628D01*
X31496Y-30628D02*
X31945Y-30180D01*
X32245Y-30708D02*
X32245Y-30480D01*
X32245Y-30480D02*
X31945Y-30180D01*
X34429Y-14299D02*
X34429Y-17546D01*
X30811Y-27051D02*
X31090Y-27330D01*
X30811Y-21165D02*
X30811Y-27051D01*
X34429Y-17546D02*
X30811Y-21165D01*
X31940Y-30175D02*
X31705Y-30175D01*
X31945Y-30180D02*
X31940Y-30175D01*
X31496Y-31021D02*
X31496Y-30773D01*
X34945Y-30019D02*
X35208Y-30019D01*
X34725Y-30240D02*
X34945Y-30019D01*
X34725Y-30672D02*
X34725Y-30240D01*
X33804Y-31592D02*
X34725Y-30672D01*
X32497Y-31592D02*
X33804Y-31592D01*
X32245Y-31340D02*
X32497Y-31592D01*
X32245Y-30685D02*
X32245Y-30708D01*
X32245Y-30708D02*
X32245Y-31340D01*
X36437Y-45543D02*
X36437Y-40314D01*
X31496Y-31541D02*
X31496Y-31021D01*
X31838Y-31883D02*
X31496Y-31541D01*
X31838Y-35716D02*
X31838Y-31883D01*
X36437Y-40314D02*
X31838Y-35716D01*
X26555Y-14299D02*
X26555Y-16917D01*
X30653Y-27723D02*
X30900Y-27970D01*
X30653Y-21015D02*
X30653Y-27723D01*
X26555Y-16917D02*
X30653Y-21015D01*
X30496Y-31021D02*
X30496Y-30643D01*
X34017Y-29822D02*
X35208Y-29822D01*
X33965Y-29875D02*
X34017Y-29822D01*
X30496Y-30643D02*
X31280Y-29860D01*
X28562Y-45543D02*
X28562Y-39009D01*
X30496Y-31473D02*
X30496Y-31021D01*
X29517Y-32452D02*
X30496Y-31473D01*
X29517Y-38055D02*
X29517Y-32452D01*
X28562Y-39009D02*
X29517Y-38055D01*
X33149Y-29594D02*
X34476Y-29594D01*
X34507Y-29625D02*
X35208Y-29625D01*
X34476Y-29594D02*
X34507Y-29625D01*
X30496Y-28821D02*
X30496Y-28971D01*
X30496Y-28971D02*
X30770Y-29245D01*
X30770Y-29245D02*
X31130Y-29245D01*
X31130Y-29245D02*
X31250Y-29125D01*
X31250Y-29125D02*
X31250Y-28500D01*
X31250Y-28500D02*
X31532Y-28217D01*
X31532Y-28217D02*
X32517Y-28217D01*
X32517Y-28217D02*
X32745Y-28445D01*
X32745Y-28445D02*
X32745Y-29190D01*
X32745Y-29190D02*
X33149Y-29594D01*
X33149Y-29594D02*
X33135Y-29580D01*
X18681Y-14299D02*
X18681Y-16656D01*
X30496Y-21081D02*
X30496Y-28821D01*
X27475Y-18060D02*
X30496Y-21081D01*
X20085Y-18060D02*
X27475Y-18060D01*
X18681Y-16656D02*
X20085Y-18060D01*
X20688Y-45543D02*
X20688Y-42626D01*
X30496Y-29713D02*
X30496Y-28821D01*
X29360Y-30850D02*
X30496Y-29713D01*
X29360Y-37990D02*
X29360Y-30850D01*
X26190Y-41160D02*
X29360Y-37990D01*
X22155Y-41160D02*
X26190Y-41160D01*
X20688Y-42626D02*
X22155Y-41160D01*
X29996Y-31021D02*
X29996Y-30753D01*
X31496Y-29253D02*
X31496Y-28821D01*
X29996Y-30753D02*
X31496Y-29253D01*
X15874Y-30925D02*
X17134Y-30925D01*
X18138Y-29921D02*
X19385Y-29921D01*
X17134Y-30925D02*
X18138Y-29921D01*
X14660Y-20866D02*
X14393Y-20866D01*
X13880Y-23041D02*
X14460Y-23622D01*
X13880Y-21380D02*
X13880Y-23041D01*
X14393Y-20866D02*
X13880Y-21380D01*
X19985Y-29921D02*
X26748Y-29921D01*
X26748Y-29921D02*
X30050Y-26620D01*
X32996Y-28821D02*
X33363Y-28821D01*
X24296Y-20866D02*
X15260Y-20866D01*
X30050Y-26620D02*
X24296Y-20866D01*
X33363Y-28821D02*
X33710Y-28475D01*
X30996Y-31021D02*
X30996Y-30508D01*
X32496Y-28501D02*
X32496Y-28821D01*
X32370Y-28375D02*
X32496Y-28501D01*
X31865Y-28375D02*
X32370Y-28375D01*
X31745Y-28495D02*
X31865Y-28375D01*
X31745Y-29760D02*
X31745Y-28495D01*
X30996Y-30508D02*
X31745Y-29760D01*
X40944Y-28243D02*
X34143Y-28243D01*
X30996Y-28531D02*
X31467Y-28060D01*
X30996Y-28531D02*
X30996Y-28821D01*
X31677Y-27850D02*
X31467Y-28060D01*
X33750Y-27850D02*
X31677Y-27850D01*
X34143Y-28243D02*
X33750Y-27850D01*
X43330Y-28250D02*
X40951Y-28250D01*
X47118Y-28917D02*
X46450Y-28250D01*
X43330Y-28250D02*
X46450Y-28250D01*
X40951Y-28250D02*
X40944Y-28243D01*
X32045Y-35700D02*
X32045Y-32425D01*
X44311Y-42666D02*
X42795Y-41150D01*
X42795Y-41150D02*
X37495Y-41150D01*
X37495Y-41150D02*
X32045Y-35700D01*
X44311Y-45543D02*
X44311Y-42666D01*
X32045Y-32425D02*
X32355Y-32115D01*
X32355Y-32115D02*
X33505Y-32115D01*
X33870Y-31750D02*
X35208Y-30411D01*
X35208Y-30411D02*
X35208Y-30216D01*
X33505Y-32115D02*
X33870Y-31750D01*
X31996Y-31021D02*
X31996Y-31083D01*
X31996Y-31021D02*
X31996Y-31581D01*
X42303Y-17266D02*
X41223Y-18346D01*
X41223Y-18346D02*
X35763Y-18346D01*
X35763Y-18346D02*
X34400Y-19710D01*
X34400Y-19710D02*
X34400Y-27760D01*
X42303Y-17266D02*
X42303Y-14299D01*
X32355Y-31940D02*
X32355Y-32115D01*
X31996Y-31581D02*
X32355Y-31940D01*
X31996Y-31021D02*
X31996Y-31341D01*
G54D27*
X37244Y-33070D02*
X36574Y-33070D01*
X37244Y-33070D02*
X37519Y-33346D01*
X37519Y-33346D02*
X37991Y-33346D01*
X36574Y-32401D02*
X36574Y-33070D01*
X36574Y-33070D02*
X36122Y-33523D01*
X36122Y-33523D02*
X36122Y-33975D01*
X37244Y-33070D02*
X36574Y-32401D01*
G54D28*
X29921Y-27952D02*
X29996Y-28027D01*
X29996Y-28821D02*
X29996Y-28027D01*
X35550Y-33975D02*
X36122Y-33975D01*
X35433Y-33858D02*
X35550Y-33975D01*
G54D10*
G36*
X34689Y-30010D02*
X34592Y-30107D01*
X34551Y-30168D01*
X34537Y-30240D01*
X34537Y-30594D01*
X33726Y-31404D01*
X33336Y-31404D01*
X33371Y-31321D01*
X33371Y-31221D01*
X33371Y-30820D01*
X33371Y-30721D01*
X33332Y-30629D01*
X33262Y-30559D01*
X33170Y-30521D01*
X33067Y-30521D01*
X33005Y-30583D01*
X33005Y-31012D01*
X33308Y-31012D01*
X33371Y-30949D01*
X33371Y-30820D01*
X33371Y-31221D01*
X33371Y-31092D01*
X33308Y-31030D01*
X33005Y-31030D01*
X33005Y-31038D01*
X32987Y-31038D01*
X32987Y-31030D01*
X32979Y-31030D01*
X32979Y-31012D01*
X32987Y-31012D01*
X32987Y-30583D01*
X32924Y-30521D01*
X32821Y-30521D01*
X32729Y-30559D01*
X32683Y-30604D01*
X32683Y-29926D01*
X32669Y-29854D01*
X32628Y-29793D01*
X32183Y-29348D01*
X32183Y-29205D01*
X32205Y-29197D01*
X32246Y-29156D01*
X32286Y-29197D01*
X32341Y-29219D01*
X32400Y-29219D01*
X32563Y-29219D01*
X32571Y-29261D01*
X32612Y-29322D01*
X33002Y-29712D01*
X33016Y-29727D01*
X33077Y-29768D01*
X33077Y-29768D01*
X33149Y-29782D01*
X33693Y-29782D01*
X33678Y-29817D01*
X33678Y-29931D01*
X33722Y-30036D01*
X33802Y-30117D01*
X33907Y-30161D01*
X34021Y-30161D01*
X34126Y-30117D01*
X34207Y-30037D01*
X34218Y-30010D01*
X34689Y-30010D01*
X34689Y-30010D01*
G37*
G54D30*
X34689Y-30010D02*
X34592Y-30107D01*
X34551Y-30168D01*
X34537Y-30240D01*
X34537Y-30594D01*
X33726Y-31404D01*
X33336Y-31404D01*
X33371Y-31321D01*
X33371Y-31221D01*
X33371Y-30820D01*
X33371Y-30721D01*
X33332Y-30629D01*
X33262Y-30559D01*
X33170Y-30521D01*
X33067Y-30521D01*
X33005Y-30583D01*
X33005Y-31012D01*
X33308Y-31012D01*
X33371Y-30949D01*
X33371Y-30820D01*
X33371Y-31221D01*
X33371Y-31092D01*
X33308Y-31030D01*
X33005Y-31030D01*
X33005Y-31038D01*
X32987Y-31038D01*
X32987Y-31030D01*
X32979Y-31030D01*
X32979Y-31012D01*
X32987Y-31012D01*
X32987Y-30583D01*
X32924Y-30521D01*
X32821Y-30521D01*
X32729Y-30559D01*
X32683Y-30604D01*
X32683Y-29926D01*
X32669Y-29854D01*
X32628Y-29793D01*
X32183Y-29348D01*
X32183Y-29205D01*
X32205Y-29197D01*
X32246Y-29156D01*
X32286Y-29197D01*
X32341Y-29219D01*
X32400Y-29219D01*
X32563Y-29219D01*
X32571Y-29261D01*
X32612Y-29322D01*
X33002Y-29712D01*
X33016Y-29727D01*
X33077Y-29768D01*
X33077Y-29768D01*
X33149Y-29782D01*
X33693Y-29782D01*
X33678Y-29817D01*
X33678Y-29931D01*
X33722Y-30036D01*
X33802Y-30117D01*
X33907Y-30161D01*
X34021Y-30161D01*
X34126Y-30117D01*
X34207Y-30037D01*
X34218Y-30010D01*
X34689Y-30010D01*
G54D10*
G36*
X51012Y-49438D02*
X50542Y-49438D01*
X50542Y-47374D01*
X50542Y-11941D01*
X50340Y-11452D01*
X49966Y-11078D01*
X49478Y-10875D01*
X48949Y-10874D01*
X48460Y-11076D01*
X48086Y-11450D01*
X47883Y-11939D01*
X47882Y-12468D01*
X48084Y-12956D01*
X48458Y-13331D01*
X48946Y-13534D01*
X49475Y-13534D01*
X49964Y-13332D01*
X50339Y-12958D01*
X50541Y-12470D01*
X50542Y-11941D01*
X50542Y-47374D01*
X50340Y-46885D01*
X49966Y-46511D01*
X49685Y-46394D01*
X49685Y-32249D01*
X49685Y-27249D01*
X49554Y-26930D01*
X49310Y-26686D01*
X48992Y-26554D01*
X48647Y-26554D01*
X48328Y-26685D01*
X48147Y-26866D01*
X48154Y-26602D01*
X48057Y-26348D01*
X48037Y-26318D01*
X47923Y-26278D01*
X47910Y-26291D01*
X47910Y-26265D01*
X47870Y-26151D01*
X47622Y-26041D01*
X47350Y-26034D01*
X47194Y-26094D01*
X47194Y-13830D01*
X47096Y-13577D01*
X47076Y-13546D01*
X46962Y-13506D01*
X46949Y-13519D01*
X46949Y-13494D01*
X46909Y-13380D01*
X46661Y-13269D01*
X46389Y-13262D01*
X46355Y-13275D01*
X46541Y-13090D01*
X46673Y-12771D01*
X46674Y-12426D01*
X46542Y-12107D01*
X46298Y-11863D01*
X45980Y-11731D01*
X45635Y-11731D01*
X45316Y-11863D01*
X45072Y-12106D01*
X44940Y-12425D01*
X44940Y-12770D01*
X45071Y-13088D01*
X45315Y-13332D01*
X45633Y-13465D01*
X45978Y-13465D01*
X46092Y-13418D01*
X46066Y-13494D01*
X46507Y-13936D01*
X46949Y-13494D01*
X46949Y-13519D01*
X46520Y-13948D01*
X46962Y-14390D01*
X47076Y-14350D01*
X47187Y-14102D01*
X47194Y-13830D01*
X47194Y-26094D01*
X47096Y-26131D01*
X47066Y-26151D01*
X47026Y-26265D01*
X47468Y-26707D01*
X47910Y-26265D01*
X47910Y-26291D01*
X47481Y-26720D01*
X47923Y-27162D01*
X47998Y-27135D01*
X47952Y-27248D01*
X47951Y-27592D01*
X48083Y-27911D01*
X48327Y-28155D01*
X48645Y-28288D01*
X48990Y-28288D01*
X49309Y-28156D01*
X49553Y-27912D01*
X49685Y-27594D01*
X49685Y-27249D01*
X49685Y-32249D01*
X49554Y-31930D01*
X49310Y-31686D01*
X48992Y-31554D01*
X48647Y-31554D01*
X48366Y-31670D01*
X48366Y-30829D01*
X48366Y-29222D01*
X48288Y-29020D01*
X48274Y-28999D01*
X48174Y-28976D01*
X47831Y-29318D01*
X48174Y-29661D01*
X48274Y-29638D01*
X48361Y-29439D01*
X48366Y-29222D01*
X48366Y-30829D01*
X48288Y-30626D01*
X48274Y-30605D01*
X48262Y-30603D01*
X48262Y-30034D01*
X48195Y-29870D01*
X48114Y-29789D01*
X48117Y-29788D01*
X48138Y-29774D01*
X48161Y-29674D01*
X47818Y-29331D01*
X47813Y-29337D01*
X47800Y-29324D01*
X47806Y-29318D01*
X47800Y-29313D01*
X47813Y-29300D01*
X47818Y-29306D01*
X48161Y-28963D01*
X48138Y-28863D01*
X48110Y-28851D01*
X48195Y-28767D01*
X48262Y-28604D01*
X48262Y-28427D01*
X48195Y-28264D01*
X48070Y-28139D01*
X47910Y-28073D01*
X47910Y-27175D01*
X47468Y-26733D01*
X47455Y-26746D01*
X47455Y-26720D01*
X47013Y-26278D01*
X46949Y-26301D01*
X46949Y-14403D01*
X46507Y-13961D01*
X46495Y-13974D01*
X46495Y-13948D01*
X46053Y-13506D01*
X45939Y-13546D01*
X45828Y-13795D01*
X45821Y-14066D01*
X45918Y-14320D01*
X45939Y-14350D01*
X46053Y-14390D01*
X46495Y-13948D01*
X46495Y-13974D01*
X46066Y-14403D01*
X46105Y-14517D01*
X46354Y-14628D01*
X46625Y-14635D01*
X46879Y-14537D01*
X46909Y-14517D01*
X46949Y-14403D01*
X46949Y-26301D01*
X46899Y-26318D01*
X46789Y-26566D01*
X46782Y-26838D01*
X46879Y-27092D01*
X46899Y-27122D01*
X47013Y-27162D01*
X47455Y-26720D01*
X47455Y-26746D01*
X47026Y-27175D01*
X47066Y-27289D01*
X47314Y-27399D01*
X47586Y-27406D01*
X47840Y-27309D01*
X47870Y-27289D01*
X47910Y-27175D01*
X47910Y-28073D01*
X47907Y-28071D01*
X47730Y-28071D01*
X47567Y-28139D01*
X47442Y-28263D01*
X47375Y-28427D01*
X47374Y-28546D01*
X47369Y-28541D01*
X47206Y-28473D01*
X47030Y-28473D01*
X46966Y-28499D01*
X46583Y-28117D01*
X46522Y-28076D01*
X46450Y-28062D01*
X45156Y-28062D01*
X45156Y-14211D01*
X45089Y-14048D01*
X44964Y-13923D01*
X44801Y-13855D01*
X44793Y-13855D01*
X44853Y-13719D01*
X44858Y-13502D01*
X44780Y-13300D01*
X44766Y-13278D01*
X44666Y-13255D01*
X44653Y-13268D01*
X44653Y-13242D01*
X44630Y-13143D01*
X44432Y-13055D01*
X44215Y-13050D01*
X44012Y-13128D01*
X43991Y-13143D01*
X43968Y-13242D01*
X44311Y-13585D01*
X44653Y-13242D01*
X44653Y-13268D01*
X44323Y-13598D01*
X44329Y-13603D01*
X44316Y-13616D01*
X44311Y-13611D01*
X44305Y-13616D01*
X44292Y-13603D01*
X44298Y-13598D01*
X43955Y-13255D01*
X43855Y-13278D01*
X43843Y-13306D01*
X43759Y-13222D01*
X43596Y-13154D01*
X43419Y-13154D01*
X43256Y-13221D01*
X43175Y-13303D01*
X43174Y-13300D01*
X43159Y-13278D01*
X43060Y-13255D01*
X43047Y-13268D01*
X43047Y-13242D01*
X43024Y-13143D01*
X42825Y-13055D01*
X42608Y-13050D01*
X42406Y-13128D01*
X42385Y-13143D01*
X42362Y-13242D01*
X42704Y-13585D01*
X43047Y-13242D01*
X43047Y-13268D01*
X42717Y-13598D01*
X42723Y-13603D01*
X42710Y-13616D01*
X42704Y-13611D01*
X42699Y-13616D01*
X42686Y-13603D01*
X42691Y-13598D01*
X42349Y-13255D01*
X42249Y-13278D01*
X42237Y-13306D01*
X42153Y-13222D01*
X41990Y-13154D01*
X41813Y-13154D01*
X41674Y-13212D01*
X41674Y-12426D01*
X41542Y-12107D01*
X41298Y-11863D01*
X40980Y-11731D01*
X40635Y-11731D01*
X40316Y-11863D01*
X40072Y-12106D01*
X39940Y-12425D01*
X39940Y-12770D01*
X40071Y-13088D01*
X40251Y-13269D01*
X39988Y-13262D01*
X39734Y-13359D01*
X39704Y-13380D01*
X39664Y-13494D01*
X40106Y-13936D01*
X40548Y-13494D01*
X40521Y-13418D01*
X40633Y-13465D01*
X40978Y-13465D01*
X41297Y-13333D01*
X41541Y-13090D01*
X41673Y-12771D01*
X41674Y-12426D01*
X41674Y-13212D01*
X41650Y-13221D01*
X41525Y-13346D01*
X41457Y-13509D01*
X41457Y-13686D01*
X41525Y-13849D01*
X41649Y-13974D01*
X41812Y-14042D01*
X41932Y-14042D01*
X41927Y-14047D01*
X41859Y-14210D01*
X41859Y-14387D01*
X41926Y-14550D01*
X42051Y-14675D01*
X42115Y-14701D01*
X42115Y-17189D01*
X41145Y-18159D01*
X40792Y-18159D01*
X40792Y-13830D01*
X40695Y-13577D01*
X40675Y-13546D01*
X40560Y-13506D01*
X40119Y-13948D01*
X40560Y-14390D01*
X40675Y-14350D01*
X40785Y-14102D01*
X40792Y-13830D01*
X40792Y-18159D01*
X40548Y-18159D01*
X40548Y-14403D01*
X40106Y-13961D01*
X40093Y-13974D01*
X40093Y-13948D01*
X39651Y-13506D01*
X39537Y-13546D01*
X39427Y-13795D01*
X39419Y-14066D01*
X39517Y-14320D01*
X39537Y-14350D01*
X39651Y-14390D01*
X40093Y-13948D01*
X40093Y-13974D01*
X39664Y-14403D01*
X39704Y-14517D01*
X39952Y-14628D01*
X40224Y-14635D01*
X40477Y-14537D01*
X40508Y-14517D01*
X40548Y-14403D01*
X40548Y-18159D01*
X39320Y-18159D01*
X39320Y-13830D01*
X39222Y-13577D01*
X39202Y-13546D01*
X39088Y-13506D01*
X39075Y-13519D01*
X39075Y-13494D01*
X39035Y-13380D01*
X38787Y-13269D01*
X38515Y-13262D01*
X38481Y-13275D01*
X38667Y-13090D01*
X38799Y-12771D01*
X38800Y-12426D01*
X38668Y-12107D01*
X38424Y-11863D01*
X38106Y-11731D01*
X37761Y-11731D01*
X37442Y-11863D01*
X37198Y-12106D01*
X37066Y-12425D01*
X37065Y-12770D01*
X37197Y-13088D01*
X37441Y-13332D01*
X37759Y-13465D01*
X38104Y-13465D01*
X38218Y-13418D01*
X38192Y-13494D01*
X38633Y-13936D01*
X39075Y-13494D01*
X39075Y-13519D01*
X38646Y-13948D01*
X39088Y-14390D01*
X39202Y-14350D01*
X39313Y-14102D01*
X39320Y-13830D01*
X39320Y-18159D01*
X39075Y-18159D01*
X39075Y-14403D01*
X38633Y-13961D01*
X38621Y-13974D01*
X38621Y-13948D01*
X38179Y-13506D01*
X38065Y-13546D01*
X37954Y-13795D01*
X37947Y-14066D01*
X38044Y-14320D01*
X38065Y-14350D01*
X38179Y-14390D01*
X38621Y-13948D01*
X38621Y-13974D01*
X38192Y-14403D01*
X38231Y-14517D01*
X38480Y-14628D01*
X38751Y-14635D01*
X39005Y-14537D01*
X39035Y-14517D01*
X39075Y-14403D01*
X39075Y-18159D01*
X35763Y-18159D01*
X35691Y-18173D01*
X35630Y-18214D01*
X35630Y-18214D01*
X35630Y-18214D01*
X34267Y-19577D01*
X34226Y-19638D01*
X34212Y-19710D01*
X34212Y-27543D01*
X34157Y-27597D01*
X34113Y-27702D01*
X34113Y-27816D01*
X34157Y-27921D01*
X34237Y-28002D01*
X34342Y-28046D01*
X34456Y-28046D01*
X34561Y-28002D01*
X34642Y-27922D01*
X34686Y-27817D01*
X34686Y-27703D01*
X34642Y-27598D01*
X34587Y-27542D01*
X34587Y-19787D01*
X35840Y-18534D01*
X41223Y-18534D01*
X41294Y-18520D01*
X41355Y-18479D01*
X42435Y-17399D01*
X42435Y-17399D01*
X42435Y-17399D01*
X42476Y-17338D01*
X42476Y-17338D01*
X42490Y-17266D01*
X42490Y-14701D01*
X42554Y-14675D01*
X42679Y-14551D01*
X42704Y-14489D01*
X42729Y-14550D01*
X42854Y-14675D01*
X43017Y-14743D01*
X43194Y-14743D01*
X43357Y-14675D01*
X43482Y-14551D01*
X43507Y-14489D01*
X43532Y-14550D01*
X43657Y-14675D01*
X43820Y-14743D01*
X43997Y-14743D01*
X44160Y-14675D01*
X44285Y-14551D01*
X44311Y-14489D01*
X44336Y-14550D01*
X44460Y-14675D01*
X44623Y-14743D01*
X44800Y-14743D01*
X44963Y-14675D01*
X45088Y-14551D01*
X45156Y-14387D01*
X45156Y-14211D01*
X45156Y-28062D01*
X43330Y-28062D01*
X41307Y-28062D01*
X41295Y-28034D01*
X41254Y-27992D01*
X41199Y-27969D01*
X41140Y-27969D01*
X40690Y-27969D01*
X40635Y-27992D01*
X40594Y-28034D01*
X40585Y-28055D01*
X34221Y-28055D01*
X33882Y-27717D01*
X33821Y-27676D01*
X33750Y-27662D01*
X31677Y-27662D01*
X31605Y-27676D01*
X31544Y-27717D01*
X31334Y-27927D01*
X31151Y-28109D01*
X31186Y-28027D01*
X31186Y-27913D01*
X31142Y-27808D01*
X31062Y-27727D01*
X30957Y-27683D01*
X30879Y-27683D01*
X30841Y-27645D01*
X30841Y-27477D01*
X30847Y-27491D01*
X30927Y-27572D01*
X31032Y-27616D01*
X31146Y-27616D01*
X31251Y-27572D01*
X31332Y-27492D01*
X31376Y-27387D01*
X31376Y-27273D01*
X31332Y-27168D01*
X31252Y-27087D01*
X31147Y-27043D01*
X31069Y-27043D01*
X30998Y-26973D01*
X30998Y-21242D01*
X34561Y-17679D01*
X34561Y-17679D01*
X34561Y-17679D01*
X34602Y-17618D01*
X34602Y-17618D01*
X34616Y-17546D01*
X34616Y-17546D01*
X34616Y-14701D01*
X34680Y-14675D01*
X34805Y-14551D01*
X34830Y-14489D01*
X34855Y-14550D01*
X34980Y-14675D01*
X35143Y-14743D01*
X35320Y-14743D01*
X35483Y-14675D01*
X35608Y-14551D01*
X35633Y-14489D01*
X35658Y-14550D01*
X35783Y-14675D01*
X35946Y-14743D01*
X36123Y-14743D01*
X36286Y-14675D01*
X36411Y-14551D01*
X36436Y-14489D01*
X36462Y-14550D01*
X36586Y-14675D01*
X36749Y-14743D01*
X36926Y-14743D01*
X37089Y-14675D01*
X37214Y-14551D01*
X37282Y-14387D01*
X37282Y-14211D01*
X37215Y-14048D01*
X37090Y-13923D01*
X36927Y-13855D01*
X36919Y-13855D01*
X36979Y-13719D01*
X36984Y-13502D01*
X36906Y-13300D01*
X36892Y-13278D01*
X36792Y-13255D01*
X36779Y-13268D01*
X36779Y-13242D01*
X36756Y-13143D01*
X36558Y-13055D01*
X36341Y-13050D01*
X36138Y-13128D01*
X36117Y-13143D01*
X36094Y-13242D01*
X36437Y-13585D01*
X36779Y-13242D01*
X36779Y-13268D01*
X36449Y-13598D01*
X36455Y-13603D01*
X36442Y-13616D01*
X36437Y-13611D01*
X36431Y-13616D01*
X36418Y-13603D01*
X36424Y-13598D01*
X36081Y-13255D01*
X35981Y-13278D01*
X35969Y-13306D01*
X35885Y-13222D01*
X35722Y-13154D01*
X35545Y-13154D01*
X35382Y-13221D01*
X35301Y-13303D01*
X35300Y-13300D01*
X35285Y-13278D01*
X35186Y-13255D01*
X35173Y-13268D01*
X35173Y-13242D01*
X35150Y-13143D01*
X34951Y-13055D01*
X34734Y-13050D01*
X34532Y-13128D01*
X34511Y-13143D01*
X34488Y-13242D01*
X34830Y-13585D01*
X35173Y-13242D01*
X35173Y-13268D01*
X34843Y-13598D01*
X34849Y-13603D01*
X34836Y-13616D01*
X34830Y-13611D01*
X34825Y-13616D01*
X34812Y-13603D01*
X34817Y-13598D01*
X34475Y-13255D01*
X34375Y-13278D01*
X34363Y-13306D01*
X34279Y-13222D01*
X34116Y-13154D01*
X33939Y-13154D01*
X33800Y-13212D01*
X33800Y-12426D01*
X33668Y-12107D01*
X33424Y-11863D01*
X33106Y-11731D01*
X32761Y-11731D01*
X32442Y-11863D01*
X32198Y-12106D01*
X32066Y-12425D01*
X32065Y-12770D01*
X32197Y-13088D01*
X32377Y-13269D01*
X32114Y-13262D01*
X31860Y-13359D01*
X31830Y-13380D01*
X31790Y-13494D01*
X32232Y-13936D01*
X32674Y-13494D01*
X32647Y-13418D01*
X32759Y-13465D01*
X33104Y-13465D01*
X33423Y-13333D01*
X33667Y-13090D01*
X33799Y-12771D01*
X33800Y-12426D01*
X33800Y-13212D01*
X33776Y-13221D01*
X33651Y-13346D01*
X33583Y-13509D01*
X33583Y-13686D01*
X33650Y-13849D01*
X33775Y-13974D01*
X33938Y-14042D01*
X34058Y-14042D01*
X34053Y-14047D01*
X33985Y-14210D01*
X33985Y-14387D01*
X34052Y-14550D01*
X34177Y-14675D01*
X34241Y-14701D01*
X34241Y-17469D01*
X32918Y-18791D01*
X32918Y-13830D01*
X32821Y-13577D01*
X32801Y-13546D01*
X32686Y-13506D01*
X32245Y-13948D01*
X32686Y-14390D01*
X32801Y-14350D01*
X32911Y-14102D01*
X32918Y-13830D01*
X32918Y-18791D01*
X32674Y-19036D01*
X32674Y-14403D01*
X32232Y-13961D01*
X32219Y-13974D01*
X32219Y-13948D01*
X31777Y-13506D01*
X31663Y-13546D01*
X31553Y-13795D01*
X31545Y-14066D01*
X31643Y-14320D01*
X31663Y-14350D01*
X31777Y-14390D01*
X32219Y-13948D01*
X32219Y-13974D01*
X31790Y-14403D01*
X31830Y-14517D01*
X32078Y-14628D01*
X32350Y-14635D01*
X32603Y-14537D01*
X32634Y-14517D01*
X32674Y-14403D01*
X32674Y-19036D01*
X31446Y-20264D01*
X31446Y-13830D01*
X31348Y-13577D01*
X31328Y-13546D01*
X31214Y-13506D01*
X31201Y-13519D01*
X31201Y-13494D01*
X31161Y-13380D01*
X30913Y-13269D01*
X30641Y-13262D01*
X30607Y-13275D01*
X30793Y-13090D01*
X30925Y-12771D01*
X30926Y-12426D01*
X30794Y-12107D01*
X30550Y-11863D01*
X30232Y-11731D01*
X29887Y-11731D01*
X29568Y-11863D01*
X29324Y-12106D01*
X29192Y-12425D01*
X29191Y-12770D01*
X29323Y-13088D01*
X29567Y-13332D01*
X29885Y-13465D01*
X30230Y-13465D01*
X30344Y-13418D01*
X30318Y-13494D01*
X30759Y-13936D01*
X31201Y-13494D01*
X31201Y-13519D01*
X30772Y-13948D01*
X31214Y-14390D01*
X31328Y-14350D01*
X31439Y-14102D01*
X31446Y-13830D01*
X31446Y-20264D01*
X31201Y-20508D01*
X31201Y-14403D01*
X30759Y-13961D01*
X30747Y-13974D01*
X30747Y-13948D01*
X30305Y-13506D01*
X30191Y-13546D01*
X30080Y-13795D01*
X30073Y-14066D01*
X30170Y-14320D01*
X30191Y-14350D01*
X30305Y-14390D01*
X30747Y-13948D01*
X30747Y-13974D01*
X30318Y-14403D01*
X30357Y-14517D01*
X30606Y-14628D01*
X30877Y-14635D01*
X31131Y-14537D01*
X31161Y-14517D01*
X31201Y-14403D01*
X31201Y-20508D01*
X30802Y-20907D01*
X30786Y-20883D01*
X26742Y-16839D01*
X26742Y-14701D01*
X26806Y-14675D01*
X26931Y-14551D01*
X26956Y-14489D01*
X26981Y-14550D01*
X27106Y-14675D01*
X27269Y-14743D01*
X27446Y-14743D01*
X27609Y-14675D01*
X27734Y-14551D01*
X27759Y-14489D01*
X27784Y-14550D01*
X27909Y-14675D01*
X28072Y-14743D01*
X28249Y-14743D01*
X28412Y-14675D01*
X28537Y-14551D01*
X28562Y-14489D01*
X28588Y-14550D01*
X28712Y-14675D01*
X28875Y-14743D01*
X29052Y-14743D01*
X29215Y-14675D01*
X29340Y-14551D01*
X29408Y-14387D01*
X29408Y-14211D01*
X29341Y-14048D01*
X29216Y-13923D01*
X29053Y-13855D01*
X29045Y-13855D01*
X29105Y-13719D01*
X29110Y-13502D01*
X29032Y-13300D01*
X29018Y-13278D01*
X28918Y-13255D01*
X28905Y-13268D01*
X28905Y-13242D01*
X28882Y-13143D01*
X28684Y-13055D01*
X28467Y-13050D01*
X28264Y-13128D01*
X28243Y-13143D01*
X28220Y-13242D01*
X28562Y-13585D01*
X28905Y-13242D01*
X28905Y-13268D01*
X28575Y-13598D01*
X28581Y-13603D01*
X28568Y-13616D01*
X28562Y-13611D01*
X28557Y-13616D01*
X28544Y-13603D01*
X28550Y-13598D01*
X28207Y-13255D01*
X28107Y-13278D01*
X28095Y-13306D01*
X28011Y-13222D01*
X27848Y-13154D01*
X27671Y-13154D01*
X27508Y-13221D01*
X27427Y-13303D01*
X27426Y-13300D01*
X27411Y-13278D01*
X27312Y-13255D01*
X27299Y-13268D01*
X27299Y-13242D01*
X27276Y-13143D01*
X27077Y-13055D01*
X26860Y-13050D01*
X26658Y-13128D01*
X26637Y-13143D01*
X26614Y-13242D01*
X26956Y-13585D01*
X27299Y-13242D01*
X27299Y-13268D01*
X26969Y-13598D01*
X26975Y-13603D01*
X26962Y-13616D01*
X26956Y-13611D01*
X26951Y-13616D01*
X26938Y-13603D01*
X26943Y-13598D01*
X26601Y-13255D01*
X26501Y-13278D01*
X26489Y-13306D01*
X26405Y-13222D01*
X26242Y-13154D01*
X26065Y-13154D01*
X25926Y-13212D01*
X25926Y-12426D01*
X25794Y-12107D01*
X25550Y-11863D01*
X25232Y-11731D01*
X24887Y-11731D01*
X24568Y-11863D01*
X24324Y-12106D01*
X24192Y-12425D01*
X24191Y-12770D01*
X24323Y-13088D01*
X24503Y-13269D01*
X24240Y-13262D01*
X23986Y-13359D01*
X23956Y-13380D01*
X23916Y-13494D01*
X24358Y-13936D01*
X24800Y-13494D01*
X24773Y-13418D01*
X24885Y-13465D01*
X25230Y-13465D01*
X25549Y-13333D01*
X25793Y-13090D01*
X25925Y-12771D01*
X25926Y-12426D01*
X25926Y-13212D01*
X25902Y-13221D01*
X25777Y-13346D01*
X25709Y-13509D01*
X25709Y-13686D01*
X25776Y-13849D01*
X25901Y-13974D01*
X26064Y-14042D01*
X26184Y-14042D01*
X26178Y-14047D01*
X26111Y-14210D01*
X26111Y-14387D01*
X26178Y-14550D01*
X26303Y-14675D01*
X26367Y-14701D01*
X26367Y-16917D01*
X26381Y-16989D01*
X26422Y-17050D01*
X27244Y-17872D01*
X25044Y-17872D01*
X25044Y-13830D01*
X24947Y-13577D01*
X24926Y-13546D01*
X24812Y-13506D01*
X24371Y-13948D01*
X24812Y-14390D01*
X24926Y-14350D01*
X25037Y-14102D01*
X25044Y-13830D01*
X25044Y-17872D01*
X24800Y-17872D01*
X24800Y-14403D01*
X24358Y-13961D01*
X24345Y-13974D01*
X24345Y-13948D01*
X23903Y-13506D01*
X23789Y-13546D01*
X23679Y-13795D01*
X23671Y-14066D01*
X23769Y-14320D01*
X23789Y-14350D01*
X23903Y-14390D01*
X24345Y-13948D01*
X24345Y-13974D01*
X23916Y-14403D01*
X23956Y-14517D01*
X24204Y-14628D01*
X24476Y-14635D01*
X24729Y-14537D01*
X24760Y-14517D01*
X24800Y-14403D01*
X24800Y-17872D01*
X23572Y-17872D01*
X23572Y-13830D01*
X23474Y-13577D01*
X23454Y-13546D01*
X23340Y-13506D01*
X23327Y-13519D01*
X23327Y-13494D01*
X23287Y-13380D01*
X23039Y-13269D01*
X22767Y-13262D01*
X22733Y-13275D01*
X22919Y-13090D01*
X23051Y-12771D01*
X23052Y-12426D01*
X22920Y-12107D01*
X22676Y-11863D01*
X22358Y-11731D01*
X22013Y-11731D01*
X21694Y-11863D01*
X21450Y-12106D01*
X21318Y-12425D01*
X21317Y-12770D01*
X21449Y-13088D01*
X21693Y-13332D01*
X22011Y-13465D01*
X22356Y-13465D01*
X22470Y-13418D01*
X22444Y-13494D01*
X22885Y-13936D01*
X23327Y-13494D01*
X23327Y-13519D01*
X22898Y-13948D01*
X23340Y-14390D01*
X23454Y-14350D01*
X23565Y-14102D01*
X23572Y-13830D01*
X23572Y-17872D01*
X23327Y-17872D01*
X23327Y-14403D01*
X22885Y-13961D01*
X22873Y-13974D01*
X22873Y-13948D01*
X22431Y-13506D01*
X22317Y-13546D01*
X22206Y-13795D01*
X22199Y-14066D01*
X22296Y-14320D01*
X22317Y-14350D01*
X22431Y-14390D01*
X22873Y-13948D01*
X22873Y-13974D01*
X22444Y-14403D01*
X22483Y-14517D01*
X22732Y-14628D01*
X23003Y-14635D01*
X23257Y-14537D01*
X23287Y-14517D01*
X23327Y-14403D01*
X23327Y-17872D01*
X20162Y-17872D01*
X18868Y-16578D01*
X18868Y-14701D01*
X18932Y-14675D01*
X19057Y-14551D01*
X19082Y-14489D01*
X19107Y-14550D01*
X19232Y-14675D01*
X19395Y-14743D01*
X19572Y-14743D01*
X19735Y-14675D01*
X19860Y-14551D01*
X19885Y-14489D01*
X19910Y-14550D01*
X20035Y-14675D01*
X20198Y-14743D01*
X20375Y-14743D01*
X20538Y-14675D01*
X20663Y-14551D01*
X20688Y-14489D01*
X20713Y-14550D01*
X20838Y-14675D01*
X21001Y-14743D01*
X21178Y-14743D01*
X21341Y-14675D01*
X21466Y-14551D01*
X21534Y-14387D01*
X21534Y-14211D01*
X21467Y-14048D01*
X21342Y-13923D01*
X21179Y-13855D01*
X21171Y-13855D01*
X21231Y-13719D01*
X21236Y-13502D01*
X21158Y-13300D01*
X21144Y-13278D01*
X21044Y-13255D01*
X21031Y-13268D01*
X21031Y-13242D01*
X21008Y-13143D01*
X20809Y-13055D01*
X20593Y-13050D01*
X20390Y-13128D01*
X20369Y-13143D01*
X20346Y-13242D01*
X20688Y-13585D01*
X21031Y-13242D01*
X21031Y-13268D01*
X20701Y-13598D01*
X20707Y-13603D01*
X20694Y-13616D01*
X20688Y-13611D01*
X20683Y-13616D01*
X20670Y-13603D01*
X20676Y-13598D01*
X20333Y-13255D01*
X20233Y-13278D01*
X20221Y-13306D01*
X20137Y-13222D01*
X19974Y-13154D01*
X19797Y-13154D01*
X19634Y-13221D01*
X19553Y-13303D01*
X19552Y-13300D01*
X19537Y-13278D01*
X19438Y-13255D01*
X19425Y-13268D01*
X19425Y-13242D01*
X19402Y-13143D01*
X19203Y-13055D01*
X18986Y-13050D01*
X18784Y-13128D01*
X18763Y-13143D01*
X18740Y-13242D01*
X19082Y-13585D01*
X19425Y-13242D01*
X19425Y-13268D01*
X19095Y-13598D01*
X19101Y-13603D01*
X19088Y-13616D01*
X19082Y-13611D01*
X19077Y-13616D01*
X19064Y-13603D01*
X19069Y-13598D01*
X18727Y-13255D01*
X18627Y-13278D01*
X18615Y-13306D01*
X18531Y-13222D01*
X18368Y-13154D01*
X18191Y-13154D01*
X18052Y-13212D01*
X18052Y-12426D01*
X17920Y-12107D01*
X17676Y-11863D01*
X17358Y-11731D01*
X17013Y-11731D01*
X16694Y-11863D01*
X16450Y-12106D01*
X16318Y-12425D01*
X16317Y-12770D01*
X16449Y-13088D01*
X16629Y-13269D01*
X16366Y-13262D01*
X16112Y-13359D01*
X16082Y-13380D01*
X16042Y-13494D01*
X16484Y-13936D01*
X16926Y-13494D01*
X16899Y-13418D01*
X17011Y-13465D01*
X17356Y-13465D01*
X17675Y-13333D01*
X17919Y-13090D01*
X18051Y-12771D01*
X18052Y-12426D01*
X18052Y-13212D01*
X18028Y-13221D01*
X17903Y-13346D01*
X17835Y-13509D01*
X17835Y-13686D01*
X17902Y-13849D01*
X18027Y-13974D01*
X18190Y-14042D01*
X18310Y-14042D01*
X18304Y-14047D01*
X18237Y-14210D01*
X18237Y-14387D01*
X18304Y-14550D01*
X18429Y-14675D01*
X18493Y-14701D01*
X18493Y-16656D01*
X18507Y-16727D01*
X18548Y-16788D01*
X19952Y-18192D01*
X20013Y-18233D01*
X20085Y-18247D01*
X27397Y-18247D01*
X30308Y-21158D01*
X30308Y-26495D01*
X30292Y-26458D01*
X30212Y-26377D01*
X30107Y-26333D01*
X30029Y-26333D01*
X24428Y-20733D01*
X24368Y-20692D01*
X24296Y-20678D01*
X17170Y-20678D01*
X17170Y-13830D01*
X17073Y-13577D01*
X17052Y-13546D01*
X16938Y-13506D01*
X16497Y-13948D01*
X16938Y-14390D01*
X17052Y-14350D01*
X17163Y-14102D01*
X17170Y-13830D01*
X17170Y-20678D01*
X16926Y-20678D01*
X16926Y-14403D01*
X16484Y-13961D01*
X16471Y-13974D01*
X16471Y-13948D01*
X16029Y-13506D01*
X15915Y-13546D01*
X15804Y-13795D01*
X15797Y-14066D01*
X15895Y-14320D01*
X15915Y-14350D01*
X16029Y-14390D01*
X16471Y-13948D01*
X16471Y-13974D01*
X16042Y-14403D01*
X16082Y-14517D01*
X16330Y-14628D01*
X16602Y-14635D01*
X16855Y-14537D01*
X16886Y-14517D01*
X16926Y-14403D01*
X16926Y-20678D01*
X15534Y-20678D01*
X15534Y-20611D01*
X15511Y-20557D01*
X15469Y-20515D01*
X15415Y-20492D01*
X15356Y-20492D01*
X15109Y-20492D01*
X15109Y-11941D01*
X14907Y-11452D01*
X14533Y-11078D01*
X14045Y-10875D01*
X13516Y-10874D01*
X13027Y-11076D01*
X12653Y-11450D01*
X12450Y-11939D01*
X12449Y-12468D01*
X12651Y-12956D01*
X13025Y-13331D01*
X13513Y-13534D01*
X14042Y-13534D01*
X14531Y-13332D01*
X14905Y-12958D01*
X15108Y-12470D01*
X15109Y-11941D01*
X15109Y-20492D01*
X15106Y-20492D01*
X15051Y-20515D01*
X15009Y-20556D01*
X14987Y-20611D01*
X14987Y-20670D01*
X14987Y-21120D01*
X15009Y-21175D01*
X15051Y-21216D01*
X15105Y-21239D01*
X15165Y-21239D01*
X15415Y-21239D01*
X15469Y-21217D01*
X15511Y-21175D01*
X15534Y-21120D01*
X15534Y-21061D01*
X15534Y-21053D01*
X24218Y-21053D01*
X29763Y-26599D01*
X29763Y-26640D01*
X26670Y-29733D01*
X20258Y-29733D01*
X20258Y-29666D01*
X20235Y-29612D01*
X20194Y-29570D01*
X20139Y-29547D01*
X20080Y-29547D01*
X19830Y-29547D01*
X19776Y-29570D01*
X19734Y-29612D01*
X19711Y-29666D01*
X19711Y-29725D01*
X19711Y-30175D01*
X19734Y-30230D01*
X19775Y-30272D01*
X19830Y-30294D01*
X19889Y-30294D01*
X20139Y-30294D01*
X20194Y-30272D01*
X20235Y-30230D01*
X20258Y-30175D01*
X20258Y-30116D01*
X20258Y-30109D01*
X26748Y-30109D01*
X26820Y-30094D01*
X26881Y-30054D01*
X30029Y-26906D01*
X30106Y-26906D01*
X30211Y-26862D01*
X30292Y-26782D01*
X30308Y-26744D01*
X30308Y-28436D01*
X30287Y-28445D01*
X30246Y-28486D01*
X30242Y-28483D01*
X30242Y-28027D01*
X30242Y-28023D01*
X30244Y-28017D01*
X30244Y-27888D01*
X30195Y-27769D01*
X30104Y-27678D01*
X29985Y-27629D01*
X29857Y-27629D01*
X29738Y-27678D01*
X29647Y-27769D01*
X29597Y-27888D01*
X29597Y-28016D01*
X29646Y-28135D01*
X29737Y-28226D01*
X29749Y-28231D01*
X29749Y-28483D01*
X29745Y-28487D01*
X29722Y-28541D01*
X29722Y-28600D01*
X29722Y-29100D01*
X29745Y-29155D01*
X29786Y-29197D01*
X29841Y-29219D01*
X29900Y-29219D01*
X30150Y-29219D01*
X30205Y-29197D01*
X30246Y-29156D01*
X30286Y-29197D01*
X30308Y-29205D01*
X30308Y-29636D01*
X29227Y-30717D01*
X29186Y-30778D01*
X29172Y-30850D01*
X29172Y-37912D01*
X26112Y-40972D01*
X22155Y-40972D01*
X22083Y-40986D01*
X22022Y-41027D01*
X20556Y-42493D01*
X20515Y-42554D01*
X20501Y-42626D01*
X20501Y-45140D01*
X20437Y-45166D01*
X20312Y-45291D01*
X20287Y-45352D01*
X20262Y-45292D01*
X20137Y-45167D01*
X19974Y-45099D01*
X19797Y-45099D01*
X19658Y-45156D01*
X19658Y-30116D01*
X19658Y-29666D01*
X19635Y-29612D01*
X19594Y-29570D01*
X19539Y-29547D01*
X19480Y-29547D01*
X19230Y-29547D01*
X19176Y-29570D01*
X19134Y-29612D01*
X19111Y-29666D01*
X19111Y-29725D01*
X19111Y-29733D01*
X18138Y-29733D01*
X18066Y-29747D01*
X18005Y-29788D01*
X17057Y-30737D01*
X16276Y-30737D01*
X16250Y-30674D01*
X16125Y-30549D01*
X16064Y-30523D01*
X16125Y-30498D01*
X16250Y-30373D01*
X16317Y-30210D01*
X16318Y-30034D01*
X16250Y-29870D01*
X16125Y-29745D01*
X16064Y-29720D01*
X16125Y-29695D01*
X16250Y-29570D01*
X16317Y-29407D01*
X16318Y-29230D01*
X16250Y-29067D01*
X16125Y-28942D01*
X16064Y-28917D01*
X16125Y-28892D01*
X16250Y-28767D01*
X16317Y-28604D01*
X16318Y-28427D01*
X16250Y-28264D01*
X16210Y-28223D01*
X16210Y-26602D01*
X16112Y-26348D01*
X16092Y-26318D01*
X16043Y-26301D01*
X16043Y-23520D01*
X15960Y-23305D01*
X15944Y-23281D01*
X15840Y-23254D01*
X15828Y-23267D01*
X15828Y-23241D01*
X15800Y-23138D01*
X15589Y-23044D01*
X15359Y-23039D01*
X15143Y-23122D01*
X15120Y-23138D01*
X15093Y-23241D01*
X15460Y-23609D01*
X15828Y-23241D01*
X15828Y-23267D01*
X15473Y-23622D01*
X15840Y-23989D01*
X15944Y-23962D01*
X16037Y-23751D01*
X16043Y-23520D01*
X16043Y-26301D01*
X15978Y-26278D01*
X15965Y-26291D01*
X15965Y-26265D01*
X15925Y-26151D01*
X15828Y-26108D01*
X15828Y-24002D01*
X15460Y-23634D01*
X15447Y-23647D01*
X15447Y-23622D01*
X15080Y-23254D01*
X14976Y-23281D01*
X14904Y-23444D01*
X14866Y-23351D01*
X14731Y-23216D01*
X14556Y-23143D01*
X14365Y-23143D01*
X14282Y-23178D01*
X14067Y-22963D01*
X14067Y-21457D01*
X14392Y-21133D01*
X14409Y-21175D01*
X14451Y-21216D01*
X14505Y-21239D01*
X14565Y-21239D01*
X14815Y-21239D01*
X14869Y-21217D01*
X14911Y-21175D01*
X14934Y-21120D01*
X14934Y-21061D01*
X14934Y-20611D01*
X14911Y-20557D01*
X14869Y-20515D01*
X14815Y-20492D01*
X14756Y-20492D01*
X14506Y-20492D01*
X14451Y-20515D01*
X14409Y-20556D01*
X14387Y-20611D01*
X14387Y-20670D01*
X14387Y-20679D01*
X14321Y-20692D01*
X14261Y-20733D01*
X13747Y-21247D01*
X13706Y-21308D01*
X13692Y-21380D01*
X13692Y-23041D01*
X13706Y-23113D01*
X13747Y-23174D01*
X14016Y-23443D01*
X13982Y-23526D01*
X13982Y-23716D01*
X14054Y-23892D01*
X14189Y-24027D01*
X14365Y-24100D01*
X14555Y-24100D01*
X14731Y-24027D01*
X14865Y-23893D01*
X14906Y-23796D01*
X14961Y-23938D01*
X14976Y-23962D01*
X15080Y-23989D01*
X15447Y-23622D01*
X15447Y-23647D01*
X15093Y-24002D01*
X15120Y-24105D01*
X15331Y-24199D01*
X15562Y-24204D01*
X15777Y-24121D01*
X15800Y-24105D01*
X15828Y-24002D01*
X15828Y-26108D01*
X15677Y-26041D01*
X15405Y-26034D01*
X15152Y-26131D01*
X15121Y-26151D01*
X15081Y-26265D01*
X15523Y-26707D01*
X15965Y-26265D01*
X15965Y-26291D01*
X15536Y-26720D01*
X15978Y-27162D01*
X16092Y-27122D01*
X16202Y-26874D01*
X16210Y-26602D01*
X16210Y-28223D01*
X16125Y-28139D01*
X15965Y-28073D01*
X15965Y-27175D01*
X15523Y-26733D01*
X15510Y-26746D01*
X15510Y-26720D01*
X15068Y-26278D01*
X14954Y-26318D01*
X14844Y-26566D01*
X14837Y-26838D01*
X14850Y-26872D01*
X14664Y-26686D01*
X14346Y-26554D01*
X14001Y-26554D01*
X13682Y-26685D01*
X13438Y-26929D01*
X13306Y-27248D01*
X13306Y-27592D01*
X13437Y-27911D01*
X13681Y-28155D01*
X14000Y-28288D01*
X14344Y-28288D01*
X14663Y-28156D01*
X14907Y-27912D01*
X15040Y-27594D01*
X15040Y-27249D01*
X14993Y-27135D01*
X15068Y-27162D01*
X15510Y-26720D01*
X15510Y-26746D01*
X15081Y-27175D01*
X15121Y-27289D01*
X15369Y-27399D01*
X15641Y-27406D01*
X15895Y-27309D01*
X15925Y-27289D01*
X15965Y-27175D01*
X15965Y-28073D01*
X15962Y-28071D01*
X15786Y-28071D01*
X15622Y-28139D01*
X15497Y-28263D01*
X15430Y-28427D01*
X15430Y-28434D01*
X15294Y-28374D01*
X15077Y-28369D01*
X14874Y-28447D01*
X14853Y-28462D01*
X14830Y-28561D01*
X15173Y-28904D01*
X15178Y-28898D01*
X15191Y-28911D01*
X15186Y-28917D01*
X15191Y-28922D01*
X15178Y-28935D01*
X15173Y-28930D01*
X15160Y-28942D01*
X15160Y-28917D01*
X14817Y-28574D01*
X14718Y-28597D01*
X14630Y-28796D01*
X14625Y-29013D01*
X14703Y-29215D01*
X14718Y-29236D01*
X14817Y-29259D01*
X15160Y-28917D01*
X15160Y-28942D01*
X14830Y-29272D01*
X14853Y-29372D01*
X14881Y-29384D01*
X14797Y-29468D01*
X14729Y-29631D01*
X14729Y-29808D01*
X14796Y-29971D01*
X14877Y-30053D01*
X14874Y-30054D01*
X14853Y-30068D01*
X14830Y-30168D01*
X15173Y-30510D01*
X15178Y-30505D01*
X15191Y-30518D01*
X15186Y-30523D01*
X15191Y-30529D01*
X15178Y-30541D01*
X15173Y-30536D01*
X15160Y-30549D01*
X15160Y-30523D01*
X14817Y-30180D01*
X14718Y-30204D01*
X14630Y-30402D01*
X14625Y-30619D01*
X14703Y-30821D01*
X14718Y-30843D01*
X14817Y-30866D01*
X15160Y-30523D01*
X15160Y-30549D01*
X14830Y-30879D01*
X14853Y-30978D01*
X14881Y-30991D01*
X14797Y-31074D01*
X14729Y-31238D01*
X14729Y-31414D01*
X14796Y-31577D01*
X14921Y-31702D01*
X15084Y-31770D01*
X15261Y-31770D01*
X15424Y-31703D01*
X15549Y-31578D01*
X15617Y-31415D01*
X15617Y-31296D01*
X15622Y-31301D01*
X15785Y-31369D01*
X15961Y-31369D01*
X16125Y-31301D01*
X16250Y-31176D01*
X16276Y-31112D01*
X17134Y-31112D01*
X17206Y-31098D01*
X17267Y-31057D01*
X18216Y-30109D01*
X19111Y-30109D01*
X19111Y-30175D01*
X19134Y-30230D01*
X19175Y-30272D01*
X19230Y-30294D01*
X19289Y-30294D01*
X19539Y-30294D01*
X19594Y-30272D01*
X19635Y-30230D01*
X19658Y-30175D01*
X19658Y-30116D01*
X19658Y-45156D01*
X19634Y-45166D01*
X19509Y-45291D01*
X19484Y-45352D01*
X19459Y-45292D01*
X19334Y-45167D01*
X19171Y-45099D01*
X18994Y-45099D01*
X18831Y-45166D01*
X18706Y-45291D01*
X18681Y-45352D01*
X18656Y-45292D01*
X18531Y-45167D01*
X18368Y-45099D01*
X18191Y-45099D01*
X18028Y-45166D01*
X17903Y-45291D01*
X17835Y-45454D01*
X17835Y-45631D01*
X17902Y-45794D01*
X18027Y-45919D01*
X18190Y-45987D01*
X18198Y-45987D01*
X18138Y-46123D01*
X18133Y-46340D01*
X18211Y-46542D01*
X18225Y-46563D01*
X18325Y-46586D01*
X18668Y-46244D01*
X18662Y-46238D01*
X18675Y-46225D01*
X18681Y-46231D01*
X18686Y-46225D01*
X18699Y-46238D01*
X18693Y-46244D01*
X19036Y-46586D01*
X19136Y-46563D01*
X19148Y-46536D01*
X19232Y-46620D01*
X19395Y-46687D01*
X19572Y-46688D01*
X19735Y-46620D01*
X19816Y-46539D01*
X19817Y-46542D01*
X19832Y-46563D01*
X19931Y-46586D01*
X20274Y-46244D01*
X20269Y-46238D01*
X20281Y-46225D01*
X20287Y-46231D01*
X20292Y-46225D01*
X20305Y-46238D01*
X20300Y-46244D01*
X20642Y-46586D01*
X20742Y-46563D01*
X20754Y-46536D01*
X20838Y-46620D01*
X21001Y-46687D01*
X21178Y-46688D01*
X21341Y-46620D01*
X21466Y-46495D01*
X21534Y-46332D01*
X21534Y-46156D01*
X21467Y-45992D01*
X21342Y-45867D01*
X21179Y-45800D01*
X21060Y-45800D01*
X21065Y-45795D01*
X21132Y-45631D01*
X21132Y-45455D01*
X21065Y-45292D01*
X20940Y-45167D01*
X20876Y-45140D01*
X20876Y-42703D01*
X22232Y-41347D01*
X26190Y-41347D01*
X26261Y-41333D01*
X26322Y-41292D01*
X28375Y-39240D01*
X28375Y-45140D01*
X28311Y-45166D01*
X28186Y-45291D01*
X28161Y-45352D01*
X28136Y-45292D01*
X28011Y-45167D01*
X27848Y-45099D01*
X27671Y-45099D01*
X27508Y-45166D01*
X27383Y-45291D01*
X27358Y-45352D01*
X27333Y-45292D01*
X27208Y-45167D01*
X27045Y-45099D01*
X26868Y-45099D01*
X26705Y-45166D01*
X26580Y-45291D01*
X26555Y-45352D01*
X26530Y-45292D01*
X26405Y-45167D01*
X26242Y-45099D01*
X26065Y-45099D01*
X25902Y-45166D01*
X25777Y-45291D01*
X25709Y-45454D01*
X25709Y-45631D01*
X25776Y-45794D01*
X25901Y-45919D01*
X26064Y-45987D01*
X26072Y-45987D01*
X26012Y-46123D01*
X26007Y-46340D01*
X26085Y-46542D01*
X26099Y-46563D01*
X26199Y-46586D01*
X26542Y-46244D01*
X26536Y-46238D01*
X26549Y-46225D01*
X26555Y-46231D01*
X26560Y-46225D01*
X26573Y-46238D01*
X26567Y-46244D01*
X26910Y-46586D01*
X27010Y-46563D01*
X27022Y-46536D01*
X27106Y-46620D01*
X27269Y-46687D01*
X27446Y-46688D01*
X27609Y-46620D01*
X27690Y-46539D01*
X27691Y-46542D01*
X27706Y-46563D01*
X27805Y-46586D01*
X28148Y-46244D01*
X28143Y-46238D01*
X28155Y-46225D01*
X28161Y-46231D01*
X28166Y-46225D01*
X28179Y-46238D01*
X28174Y-46244D01*
X28516Y-46586D01*
X28616Y-46563D01*
X28628Y-46536D01*
X28712Y-46620D01*
X28875Y-46687D01*
X29052Y-46688D01*
X29215Y-46620D01*
X29340Y-46495D01*
X29408Y-46332D01*
X29408Y-46156D01*
X29341Y-45992D01*
X29216Y-45867D01*
X29053Y-45800D01*
X28934Y-45800D01*
X28939Y-45795D01*
X29006Y-45631D01*
X29006Y-45455D01*
X28939Y-45292D01*
X28814Y-45167D01*
X28750Y-45140D01*
X28750Y-39087D01*
X29650Y-38188D01*
X29690Y-38127D01*
X29705Y-38055D01*
X29705Y-32530D01*
X30628Y-31606D01*
X30669Y-31545D01*
X30669Y-31545D01*
X30683Y-31473D01*
X30683Y-31405D01*
X30705Y-31397D01*
X30746Y-31356D01*
X30786Y-31397D01*
X30841Y-31419D01*
X30900Y-31419D01*
X31150Y-31419D01*
X31205Y-31397D01*
X31246Y-31356D01*
X31286Y-31397D01*
X31308Y-31405D01*
X31308Y-31541D01*
X31322Y-31612D01*
X31363Y-31673D01*
X31650Y-31961D01*
X31650Y-35716D01*
X31665Y-35788D01*
X31705Y-35849D01*
X36249Y-40392D01*
X36249Y-45140D01*
X36185Y-45166D01*
X36060Y-45291D01*
X36035Y-45352D01*
X36010Y-45292D01*
X35885Y-45167D01*
X35722Y-45099D01*
X35545Y-45099D01*
X35382Y-45166D01*
X35257Y-45291D01*
X35232Y-45352D01*
X35207Y-45292D01*
X35082Y-45167D01*
X34919Y-45099D01*
X34742Y-45099D01*
X34579Y-45166D01*
X34454Y-45291D01*
X34429Y-45352D01*
X34404Y-45292D01*
X34279Y-45167D01*
X34116Y-45099D01*
X33939Y-45099D01*
X33776Y-45166D01*
X33651Y-45291D01*
X33583Y-45454D01*
X33583Y-45631D01*
X33650Y-45794D01*
X33775Y-45919D01*
X33938Y-45987D01*
X33946Y-45987D01*
X33886Y-46123D01*
X33881Y-46340D01*
X33959Y-46542D01*
X33973Y-46563D01*
X34073Y-46586D01*
X34416Y-46244D01*
X34410Y-46238D01*
X34423Y-46225D01*
X34429Y-46231D01*
X34434Y-46225D01*
X34447Y-46238D01*
X34441Y-46244D01*
X34784Y-46586D01*
X34884Y-46563D01*
X34896Y-46536D01*
X34980Y-46620D01*
X35143Y-46687D01*
X35320Y-46688D01*
X35483Y-46620D01*
X35564Y-46539D01*
X35566Y-46542D01*
X35580Y-46563D01*
X35679Y-46586D01*
X36022Y-46244D01*
X36017Y-46238D01*
X36029Y-46225D01*
X36035Y-46231D01*
X36041Y-46225D01*
X36053Y-46238D01*
X36048Y-46244D01*
X36390Y-46586D01*
X36490Y-46563D01*
X36502Y-46536D01*
X36586Y-46620D01*
X36749Y-46687D01*
X36926Y-46688D01*
X37089Y-46620D01*
X37214Y-46495D01*
X37282Y-46332D01*
X37282Y-46156D01*
X37215Y-45992D01*
X37090Y-45867D01*
X36927Y-45800D01*
X36808Y-45800D01*
X36813Y-45795D01*
X36880Y-45631D01*
X36881Y-45455D01*
X36813Y-45292D01*
X36688Y-45167D01*
X36624Y-45140D01*
X36624Y-40545D01*
X37362Y-41282D01*
X37423Y-41323D01*
X37423Y-41323D01*
X37495Y-41337D01*
X42717Y-41337D01*
X44123Y-42743D01*
X44123Y-45140D01*
X44059Y-45166D01*
X43934Y-45291D01*
X43909Y-45352D01*
X43884Y-45292D01*
X43759Y-45167D01*
X43596Y-45099D01*
X43419Y-45099D01*
X43256Y-45166D01*
X43131Y-45291D01*
X43106Y-45352D01*
X43081Y-45292D01*
X42956Y-45167D01*
X42793Y-45099D01*
X42616Y-45099D01*
X42453Y-45166D01*
X42328Y-45291D01*
X42303Y-45352D01*
X42278Y-45292D01*
X42153Y-45167D01*
X41990Y-45099D01*
X41813Y-45099D01*
X41650Y-45166D01*
X41525Y-45291D01*
X41457Y-45454D01*
X41457Y-45631D01*
X41525Y-45794D01*
X41649Y-45919D01*
X41812Y-45987D01*
X41820Y-45987D01*
X41760Y-46123D01*
X41755Y-46340D01*
X41833Y-46542D01*
X41847Y-46563D01*
X41947Y-46586D01*
X42290Y-46244D01*
X42284Y-46238D01*
X42297Y-46225D01*
X42303Y-46231D01*
X42308Y-46225D01*
X42321Y-46238D01*
X42315Y-46244D01*
X42658Y-46586D01*
X42758Y-46563D01*
X42770Y-46536D01*
X42854Y-46620D01*
X43017Y-46687D01*
X43194Y-46688D01*
X43357Y-46620D01*
X43438Y-46539D01*
X43440Y-46542D01*
X43454Y-46563D01*
X43554Y-46586D01*
X43896Y-46244D01*
X43891Y-46238D01*
X43903Y-46225D01*
X43909Y-46231D01*
X43915Y-46225D01*
X43927Y-46238D01*
X43922Y-46244D01*
X44264Y-46586D01*
X44364Y-46563D01*
X44376Y-46536D01*
X44460Y-46620D01*
X44623Y-46687D01*
X44800Y-46688D01*
X44963Y-46620D01*
X45088Y-46495D01*
X45156Y-46332D01*
X45156Y-46156D01*
X45089Y-45992D01*
X44964Y-45867D01*
X44801Y-45800D01*
X44682Y-45800D01*
X44687Y-45795D01*
X44754Y-45631D01*
X44755Y-45455D01*
X44687Y-45292D01*
X44562Y-45167D01*
X44498Y-45140D01*
X44498Y-42666D01*
X44484Y-42594D01*
X44443Y-42533D01*
X42927Y-41017D01*
X42866Y-40976D01*
X42795Y-40962D01*
X42646Y-40962D01*
X42646Y-33794D01*
X42597Y-33675D01*
X42506Y-33584D01*
X42387Y-33534D01*
X42258Y-33534D01*
X42139Y-33583D01*
X42048Y-33674D01*
X42026Y-33728D01*
X41449Y-33728D01*
X41444Y-33716D01*
X41402Y-33674D01*
X41388Y-33668D01*
X41388Y-33455D01*
X41417Y-33455D01*
X41549Y-33429D01*
X41661Y-33354D01*
X41736Y-33242D01*
X41762Y-33110D01*
X41736Y-32978D01*
X41736Y-32978D01*
X41706Y-32933D01*
X41661Y-32866D01*
X41661Y-32866D01*
X41419Y-32624D01*
X41419Y-29017D01*
X41419Y-28914D01*
X41357Y-28852D01*
X40953Y-28852D01*
X40953Y-29155D01*
X41016Y-29218D01*
X41120Y-29218D01*
X41219Y-29218D01*
X41311Y-29180D01*
X41381Y-29109D01*
X41419Y-29017D01*
X41419Y-32624D01*
X41287Y-32492D01*
X41287Y-32492D01*
X41287Y-32492D01*
X41189Y-32393D01*
X41077Y-32318D01*
X40944Y-32292D01*
X40944Y-32292D01*
X40935Y-32294D01*
X40935Y-29155D01*
X40935Y-28852D01*
X40532Y-28852D01*
X40469Y-28914D01*
X40469Y-29017D01*
X40507Y-29109D01*
X40578Y-29180D01*
X40669Y-29218D01*
X40769Y-29218D01*
X40873Y-29218D01*
X40935Y-29155D01*
X40935Y-32294D01*
X40918Y-32297D01*
X40812Y-32318D01*
X40700Y-32393D01*
X40700Y-32393D01*
X40267Y-32826D01*
X40267Y-32826D01*
X40093Y-33001D01*
X39459Y-33001D01*
X39437Y-32947D01*
X39395Y-32905D01*
X39341Y-32883D01*
X39282Y-32882D01*
X39226Y-32882D01*
X39226Y-32795D01*
X39226Y-31811D01*
X39226Y-31711D01*
X39187Y-31620D01*
X39117Y-31549D01*
X39025Y-31511D01*
X38654Y-31511D01*
X38591Y-31574D01*
X38591Y-32294D01*
X39163Y-32294D01*
X39226Y-32231D01*
X39226Y-31811D01*
X39226Y-32795D01*
X39226Y-32374D01*
X39163Y-32312D01*
X38591Y-32312D01*
X38591Y-32647D01*
X38591Y-33032D01*
X38591Y-33239D01*
X38599Y-33239D01*
X38599Y-33257D01*
X38591Y-33257D01*
X38591Y-33849D01*
X38654Y-33911D01*
X38770Y-33911D01*
X38862Y-33873D01*
X38932Y-33803D01*
X38942Y-33778D01*
X38951Y-33787D01*
X39006Y-33809D01*
X39065Y-33809D01*
X39341Y-33809D01*
X39395Y-33787D01*
X39437Y-33745D01*
X39459Y-33691D01*
X40236Y-33691D01*
X40368Y-33665D01*
X40480Y-33590D01*
X40615Y-33455D01*
X40698Y-33455D01*
X40698Y-33668D01*
X40684Y-33674D01*
X40642Y-33716D01*
X40619Y-33770D01*
X40619Y-33829D01*
X40619Y-34179D01*
X40642Y-34234D01*
X40684Y-34276D01*
X40738Y-34298D01*
X40797Y-34298D01*
X40933Y-34298D01*
X40941Y-34300D01*
X40817Y-34300D01*
X40718Y-34300D01*
X40626Y-34338D01*
X40556Y-34408D01*
X40518Y-34500D01*
X40518Y-34653D01*
X40580Y-34716D01*
X41034Y-34716D01*
X41034Y-34708D01*
X41052Y-34708D01*
X41052Y-34716D01*
X41505Y-34716D01*
X41568Y-34653D01*
X41568Y-34500D01*
X41530Y-34408D01*
X41460Y-34338D01*
X41368Y-34300D01*
X41268Y-34300D01*
X41145Y-34300D01*
X41153Y-34298D01*
X41347Y-34298D01*
X41402Y-34276D01*
X41444Y-34234D01*
X41449Y-34222D01*
X42205Y-34222D01*
X42300Y-34203D01*
X42300Y-34203D01*
X42332Y-34181D01*
X42332Y-34181D01*
X42386Y-34181D01*
X42505Y-34132D01*
X42596Y-34041D01*
X42646Y-33922D01*
X42646Y-33794D01*
X42646Y-40962D01*
X41568Y-40962D01*
X41568Y-34949D01*
X41568Y-34796D01*
X41505Y-34734D01*
X41052Y-34734D01*
X41052Y-35087D01*
X41114Y-35150D01*
X41268Y-35150D01*
X41368Y-35150D01*
X41460Y-35112D01*
X41530Y-35041D01*
X41568Y-34949D01*
X41568Y-40962D01*
X41034Y-40962D01*
X41034Y-35087D01*
X41034Y-34734D01*
X40580Y-34734D01*
X40518Y-34796D01*
X40518Y-34949D01*
X40556Y-35041D01*
X40626Y-35112D01*
X40718Y-35150D01*
X40817Y-35150D01*
X40971Y-35150D01*
X41034Y-35087D01*
X41034Y-40962D01*
X38573Y-40962D01*
X38573Y-33849D01*
X38573Y-33257D01*
X38565Y-33257D01*
X38565Y-33239D01*
X38573Y-33239D01*
X38573Y-33032D01*
X38573Y-32647D01*
X38573Y-32312D01*
X38573Y-32294D01*
X38573Y-31574D01*
X38511Y-31511D01*
X38139Y-31511D01*
X38047Y-31549D01*
X37977Y-31620D01*
X37939Y-31711D01*
X37939Y-31811D01*
X37939Y-32231D01*
X38001Y-32294D01*
X38573Y-32294D01*
X38573Y-32312D01*
X38001Y-32312D01*
X37939Y-32374D01*
X37939Y-32795D01*
X37939Y-32882D01*
X37824Y-32882D01*
X37769Y-32905D01*
X37727Y-32947D01*
X37705Y-33001D01*
X37662Y-33001D01*
X37488Y-32826D01*
X36818Y-32157D01*
X36706Y-32082D01*
X36574Y-32056D01*
X36442Y-32082D01*
X36330Y-32157D01*
X36255Y-32269D01*
X36229Y-32401D01*
X36229Y-32927D01*
X36039Y-33118D01*
X36039Y-30324D01*
X36039Y-30287D01*
X35986Y-30234D01*
X36001Y-30219D01*
X36027Y-30156D01*
X36039Y-30144D01*
X36039Y-30127D01*
X36039Y-30127D01*
X36039Y-30117D01*
X36039Y-30107D01*
X36039Y-30107D01*
X36039Y-30090D01*
X36027Y-30078D01*
X36002Y-30019D01*
X36027Y-29959D01*
X36039Y-29947D01*
X36039Y-29930D01*
X36039Y-29930D01*
X36039Y-29920D01*
X36039Y-29910D01*
X36039Y-29910D01*
X36039Y-29893D01*
X36027Y-29881D01*
X36002Y-29822D01*
X36027Y-29762D01*
X36039Y-29750D01*
X36039Y-29733D01*
X36039Y-29733D01*
X36039Y-29723D01*
X36039Y-29713D01*
X36039Y-29713D01*
X36039Y-29696D01*
X36027Y-29684D01*
X36001Y-29621D01*
X35986Y-29606D01*
X36039Y-29553D01*
X36039Y-29516D01*
X36001Y-29424D01*
X35930Y-29354D01*
X35839Y-29316D01*
X35739Y-29316D01*
X35732Y-29316D01*
X35670Y-29378D01*
X35670Y-29575D01*
X35670Y-29616D01*
X35670Y-29634D01*
X35670Y-29772D01*
X35670Y-29813D01*
X35670Y-29831D01*
X35670Y-29871D01*
X35670Y-29969D01*
X35670Y-30010D01*
X35670Y-30028D01*
X35670Y-30068D01*
X35670Y-30207D01*
X35670Y-30225D01*
X35670Y-30265D01*
X35670Y-30462D01*
X35732Y-30525D01*
X35739Y-30525D01*
X35839Y-30525D01*
X35930Y-30487D01*
X36001Y-30416D01*
X36039Y-30324D01*
X36039Y-33118D01*
X35877Y-33279D01*
X35803Y-33391D01*
X35776Y-33523D01*
X35776Y-33668D01*
X35763Y-33674D01*
X35723Y-33714D01*
X35707Y-33675D01*
X35616Y-33584D01*
X35497Y-33534D01*
X35369Y-33534D01*
X35250Y-33583D01*
X35159Y-33674D01*
X35109Y-33793D01*
X35109Y-33922D01*
X35158Y-34041D01*
X35249Y-34132D01*
X35368Y-34181D01*
X35423Y-34181D01*
X35423Y-34181D01*
X35455Y-34203D01*
X35455Y-34203D01*
X35550Y-34222D01*
X35716Y-34222D01*
X35721Y-34234D01*
X35762Y-34276D01*
X35817Y-34298D01*
X35876Y-34298D01*
X36012Y-34298D01*
X36020Y-34300D01*
X35896Y-34300D01*
X35797Y-34300D01*
X35705Y-34338D01*
X35634Y-34408D01*
X35597Y-34500D01*
X35597Y-34653D01*
X35659Y-34716D01*
X36112Y-34716D01*
X36112Y-34708D01*
X36131Y-34708D01*
X36131Y-34716D01*
X36584Y-34716D01*
X36647Y-34653D01*
X36647Y-34500D01*
X36609Y-34408D01*
X36538Y-34338D01*
X36446Y-34300D01*
X36347Y-34300D01*
X36224Y-34300D01*
X36231Y-34298D01*
X36426Y-34298D01*
X36481Y-34276D01*
X36522Y-34234D01*
X36545Y-34180D01*
X36545Y-34120D01*
X36545Y-33770D01*
X36522Y-33716D01*
X36481Y-33674D01*
X36467Y-33668D01*
X36467Y-33666D01*
X36717Y-33416D01*
X37101Y-33416D01*
X37275Y-33590D01*
X37275Y-33590D01*
X37342Y-33635D01*
X37387Y-33665D01*
X37387Y-33665D01*
X37519Y-33691D01*
X37705Y-33691D01*
X37727Y-33745D01*
X37769Y-33787D01*
X37824Y-33809D01*
X37883Y-33809D01*
X38159Y-33809D01*
X38213Y-33787D01*
X38222Y-33778D01*
X38232Y-33803D01*
X38303Y-33873D01*
X38395Y-33911D01*
X38511Y-33911D01*
X38573Y-33849D01*
X38573Y-40962D01*
X37572Y-40962D01*
X36647Y-40036D01*
X36647Y-34949D01*
X36647Y-34796D01*
X36584Y-34734D01*
X36131Y-34734D01*
X36131Y-35087D01*
X36193Y-35150D01*
X36347Y-35150D01*
X36446Y-35150D01*
X36538Y-35112D01*
X36609Y-35041D01*
X36647Y-34949D01*
X36647Y-40036D01*
X36112Y-39502D01*
X36112Y-35087D01*
X36112Y-34734D01*
X35659Y-34734D01*
X35597Y-34796D01*
X35597Y-34949D01*
X35634Y-35041D01*
X35705Y-35112D01*
X35797Y-35150D01*
X35896Y-35150D01*
X36050Y-35150D01*
X36112Y-35087D01*
X36112Y-39502D01*
X32232Y-35622D01*
X32232Y-32502D01*
X32334Y-32401D01*
X32411Y-32401D01*
X32516Y-32357D01*
X32572Y-32302D01*
X33505Y-32302D01*
X33576Y-32288D01*
X33637Y-32247D01*
X34002Y-31882D01*
X35340Y-30544D01*
X35340Y-30544D01*
X35340Y-30544D01*
X35381Y-30483D01*
X35381Y-30483D01*
X35382Y-30478D01*
X35391Y-30487D01*
X35483Y-30525D01*
X35582Y-30525D01*
X35589Y-30525D01*
X35652Y-30462D01*
X35652Y-30265D01*
X35652Y-30225D01*
X35652Y-30207D01*
X35652Y-30068D01*
X35652Y-30028D01*
X35652Y-30010D01*
X35652Y-29969D01*
X35652Y-29871D01*
X35652Y-29831D01*
X35652Y-29813D01*
X35652Y-29772D01*
X35652Y-29634D01*
X35652Y-29616D01*
X35652Y-29575D01*
X35652Y-29378D01*
X35589Y-29316D01*
X35582Y-29316D01*
X35483Y-29316D01*
X35391Y-29354D01*
X35327Y-29417D01*
X35306Y-29417D01*
X35050Y-29417D01*
X35003Y-29437D01*
X34572Y-29437D01*
X34548Y-29421D01*
X34476Y-29406D01*
X33227Y-29406D01*
X33040Y-29219D01*
X33150Y-29219D01*
X33205Y-29197D01*
X33246Y-29155D01*
X33269Y-29100D01*
X33269Y-29041D01*
X33269Y-29009D01*
X33363Y-29009D01*
X33435Y-28994D01*
X33496Y-28954D01*
X33689Y-28761D01*
X33766Y-28761D01*
X33871Y-28717D01*
X33952Y-28637D01*
X33996Y-28532D01*
X33996Y-28418D01*
X33956Y-28322D01*
X34010Y-28376D01*
X34071Y-28416D01*
X34071Y-28416D01*
X34143Y-28431D01*
X40585Y-28431D01*
X40593Y-28452D01*
X40627Y-28485D01*
X40578Y-28506D01*
X40507Y-28576D01*
X40469Y-28668D01*
X40469Y-28771D01*
X40532Y-28834D01*
X40935Y-28834D01*
X40935Y-28826D01*
X40953Y-28826D01*
X40953Y-28834D01*
X41357Y-28834D01*
X41419Y-28771D01*
X41419Y-28668D01*
X41381Y-28576D01*
X41311Y-28506D01*
X41262Y-28485D01*
X41295Y-28452D01*
X41301Y-28437D01*
X43330Y-28437D01*
X46372Y-28437D01*
X46700Y-28765D01*
X46674Y-28828D01*
X46674Y-29005D01*
X46741Y-29168D01*
X46866Y-29293D01*
X46927Y-29318D01*
X46866Y-29343D01*
X46741Y-29468D01*
X46674Y-29631D01*
X46674Y-29808D01*
X46741Y-29971D01*
X46866Y-30096D01*
X46927Y-30122D01*
X46866Y-30147D01*
X46741Y-30271D01*
X46674Y-30434D01*
X46674Y-30611D01*
X46741Y-30774D01*
X46866Y-30899D01*
X46927Y-30925D01*
X46866Y-30950D01*
X46741Y-31074D01*
X46674Y-31238D01*
X46674Y-31414D01*
X46741Y-31577D01*
X46866Y-31702D01*
X47029Y-31770D01*
X47206Y-31770D01*
X47369Y-31703D01*
X47494Y-31578D01*
X47561Y-31415D01*
X47561Y-31408D01*
X47697Y-31468D01*
X47914Y-31473D01*
X48117Y-31394D01*
X48138Y-31380D01*
X48161Y-31280D01*
X47818Y-30938D01*
X47813Y-30943D01*
X47800Y-30930D01*
X47806Y-30925D01*
X47800Y-30919D01*
X47813Y-30906D01*
X47818Y-30912D01*
X48161Y-30569D01*
X48138Y-30469D01*
X48110Y-30457D01*
X48195Y-30373D01*
X48262Y-30210D01*
X48262Y-30034D01*
X48262Y-30603D01*
X48174Y-30582D01*
X47831Y-30925D01*
X48174Y-31267D01*
X48274Y-31244D01*
X48361Y-31046D01*
X48366Y-30829D01*
X48366Y-31670D01*
X48328Y-31685D01*
X48084Y-31929D01*
X47952Y-32248D01*
X47951Y-32592D01*
X47998Y-32706D01*
X47923Y-32680D01*
X47910Y-32693D01*
X47910Y-32667D01*
X47870Y-32553D01*
X47622Y-32442D01*
X47350Y-32435D01*
X47096Y-32533D01*
X47066Y-32553D01*
X47026Y-32667D01*
X47468Y-33109D01*
X47910Y-32667D01*
X47910Y-32693D01*
X47481Y-33122D01*
X47923Y-33563D01*
X48037Y-33524D01*
X48147Y-33275D01*
X48154Y-33004D01*
X48141Y-32970D01*
X48327Y-33155D01*
X48645Y-33288D01*
X48990Y-33288D01*
X49309Y-33156D01*
X49553Y-32912D01*
X49685Y-32594D01*
X49685Y-32249D01*
X49685Y-46394D01*
X49478Y-46308D01*
X48949Y-46308D01*
X48460Y-46510D01*
X48086Y-46883D01*
X47910Y-47307D01*
X47910Y-33576D01*
X47468Y-33134D01*
X47455Y-33147D01*
X47455Y-33122D01*
X47013Y-32680D01*
X46899Y-32720D01*
X46789Y-32968D01*
X46782Y-33239D01*
X46879Y-33493D01*
X46899Y-33524D01*
X47013Y-33563D01*
X47455Y-33122D01*
X47455Y-33147D01*
X47026Y-33576D01*
X47066Y-33690D01*
X47314Y-33801D01*
X47586Y-33808D01*
X47840Y-33711D01*
X47870Y-33690D01*
X47910Y-33576D01*
X47910Y-47307D01*
X47883Y-47372D01*
X47882Y-47901D01*
X48084Y-48389D01*
X48458Y-48764D01*
X48946Y-48967D01*
X49475Y-48967D01*
X49964Y-48765D01*
X50339Y-48391D01*
X50541Y-47903D01*
X50542Y-47374D01*
X50542Y-49438D01*
X47194Y-49438D01*
X47194Y-45775D01*
X47096Y-45522D01*
X47076Y-45491D01*
X46962Y-45451D01*
X46949Y-45464D01*
X46949Y-45439D01*
X46909Y-45324D01*
X46661Y-45214D01*
X46389Y-45207D01*
X46136Y-45304D01*
X46105Y-45324D01*
X46066Y-45439D01*
X46507Y-45880D01*
X46949Y-45439D01*
X46949Y-45464D01*
X46520Y-45893D01*
X46962Y-46335D01*
X47076Y-46295D01*
X47187Y-46047D01*
X47194Y-45775D01*
X47194Y-49438D01*
X46949Y-49438D01*
X46949Y-46348D01*
X46507Y-45906D01*
X46495Y-45919D01*
X46495Y-45893D01*
X46053Y-45451D01*
X45939Y-45491D01*
X45828Y-45739D01*
X45821Y-46011D01*
X45918Y-46265D01*
X45939Y-46295D01*
X46053Y-46335D01*
X46495Y-45893D01*
X46495Y-45919D01*
X46066Y-46348D01*
X46092Y-46423D01*
X45980Y-46377D01*
X45635Y-46377D01*
X45316Y-46508D01*
X45072Y-46752D01*
X44940Y-47070D01*
X44940Y-47415D01*
X45071Y-47734D01*
X45315Y-47978D01*
X45633Y-48110D01*
X45978Y-48111D01*
X46297Y-47979D01*
X46541Y-47735D01*
X46673Y-47417D01*
X46674Y-47072D01*
X46542Y-46753D01*
X46362Y-46573D01*
X46625Y-46580D01*
X46879Y-46482D01*
X46909Y-46462D01*
X46949Y-46348D01*
X46949Y-49438D01*
X44252Y-49438D01*
X44252Y-46599D01*
X43909Y-46256D01*
X43566Y-46599D01*
X43589Y-46699D01*
X43788Y-46786D01*
X44005Y-46791D01*
X44207Y-46713D01*
X44228Y-46699D01*
X44252Y-46599D01*
X44252Y-49438D01*
X42645Y-49438D01*
X42645Y-46599D01*
X42303Y-46256D01*
X41960Y-46599D01*
X41983Y-46699D01*
X42182Y-46786D01*
X42399Y-46791D01*
X42601Y-46713D01*
X42622Y-46699D01*
X42645Y-46599D01*
X42645Y-49438D01*
X41674Y-49438D01*
X41674Y-47072D01*
X41542Y-46753D01*
X41298Y-46509D01*
X40980Y-46377D01*
X40792Y-46377D01*
X40792Y-45775D01*
X40695Y-45522D01*
X40675Y-45491D01*
X40560Y-45451D01*
X40548Y-45464D01*
X40548Y-45439D01*
X40508Y-45324D01*
X40260Y-45214D01*
X39988Y-45207D01*
X39734Y-45304D01*
X39704Y-45324D01*
X39664Y-45439D01*
X40106Y-45880D01*
X40548Y-45439D01*
X40548Y-45464D01*
X40119Y-45893D01*
X40560Y-46335D01*
X40675Y-46295D01*
X40785Y-46047D01*
X40792Y-45775D01*
X40792Y-46377D01*
X40635Y-46377D01*
X40521Y-46423D01*
X40548Y-46348D01*
X40106Y-45906D01*
X40093Y-45919D01*
X40093Y-45893D01*
X39651Y-45451D01*
X39537Y-45491D01*
X39427Y-45739D01*
X39419Y-46011D01*
X39517Y-46265D01*
X39537Y-46295D01*
X39651Y-46335D01*
X40093Y-45893D01*
X40093Y-45919D01*
X39664Y-46348D01*
X39704Y-46462D01*
X39952Y-46572D01*
X40224Y-46580D01*
X40258Y-46567D01*
X40072Y-46752D01*
X39940Y-47070D01*
X39940Y-47415D01*
X40071Y-47734D01*
X40315Y-47978D01*
X40633Y-48110D01*
X40978Y-48111D01*
X41297Y-47979D01*
X41541Y-47735D01*
X41673Y-47417D01*
X41674Y-47072D01*
X41674Y-49438D01*
X39320Y-49438D01*
X39320Y-45775D01*
X39222Y-45522D01*
X39202Y-45491D01*
X39088Y-45451D01*
X39075Y-45464D01*
X39075Y-45439D01*
X39035Y-45324D01*
X38787Y-45214D01*
X38515Y-45207D01*
X38262Y-45304D01*
X38231Y-45324D01*
X38192Y-45439D01*
X38633Y-45880D01*
X39075Y-45439D01*
X39075Y-45464D01*
X38646Y-45893D01*
X39088Y-46335D01*
X39202Y-46295D01*
X39313Y-46047D01*
X39320Y-45775D01*
X39320Y-49438D01*
X39075Y-49438D01*
X39075Y-46348D01*
X38633Y-45906D01*
X38621Y-45919D01*
X38621Y-45893D01*
X38179Y-45451D01*
X38065Y-45491D01*
X37954Y-45739D01*
X37947Y-46011D01*
X38044Y-46265D01*
X38065Y-46295D01*
X38179Y-46335D01*
X38621Y-45893D01*
X38621Y-45919D01*
X38192Y-46348D01*
X38218Y-46423D01*
X38106Y-46377D01*
X37761Y-46377D01*
X37442Y-46508D01*
X37198Y-46752D01*
X37066Y-47070D01*
X37065Y-47415D01*
X37197Y-47734D01*
X37441Y-47978D01*
X37759Y-48110D01*
X38104Y-48111D01*
X38423Y-47979D01*
X38667Y-47735D01*
X38799Y-47417D01*
X38800Y-47072D01*
X38668Y-46753D01*
X38488Y-46573D01*
X38751Y-46580D01*
X39005Y-46482D01*
X39035Y-46462D01*
X39075Y-46348D01*
X39075Y-49438D01*
X36378Y-49438D01*
X36378Y-46599D01*
X36035Y-46256D01*
X35692Y-46599D01*
X35715Y-46699D01*
X35914Y-46786D01*
X36131Y-46791D01*
X36333Y-46713D01*
X36354Y-46699D01*
X36378Y-46599D01*
X36378Y-49438D01*
X34771Y-49438D01*
X34771Y-46599D01*
X34429Y-46256D01*
X34086Y-46599D01*
X34109Y-46699D01*
X34308Y-46786D01*
X34525Y-46791D01*
X34727Y-46713D01*
X34748Y-46699D01*
X34771Y-46599D01*
X34771Y-49438D01*
X33800Y-49438D01*
X33800Y-47072D01*
X33668Y-46753D01*
X33424Y-46509D01*
X33106Y-46377D01*
X32918Y-46377D01*
X32918Y-45775D01*
X32821Y-45522D01*
X32801Y-45491D01*
X32686Y-45451D01*
X32674Y-45464D01*
X32674Y-45439D01*
X32634Y-45324D01*
X32386Y-45214D01*
X32114Y-45207D01*
X31860Y-45304D01*
X31830Y-45324D01*
X31790Y-45439D01*
X32232Y-45880D01*
X32674Y-45439D01*
X32674Y-45464D01*
X32245Y-45893D01*
X32686Y-46335D01*
X32801Y-46295D01*
X32911Y-46047D01*
X32918Y-45775D01*
X32918Y-46377D01*
X32761Y-46377D01*
X32647Y-46423D01*
X32674Y-46348D01*
X32232Y-45906D01*
X32219Y-45919D01*
X32219Y-45893D01*
X31777Y-45451D01*
X31663Y-45491D01*
X31553Y-45739D01*
X31545Y-46011D01*
X31643Y-46265D01*
X31663Y-46295D01*
X31777Y-46335D01*
X32219Y-45893D01*
X32219Y-45919D01*
X31790Y-46348D01*
X31830Y-46462D01*
X32078Y-46572D01*
X32350Y-46580D01*
X32384Y-46567D01*
X32198Y-46752D01*
X32066Y-47070D01*
X32065Y-47415D01*
X32197Y-47734D01*
X32441Y-47978D01*
X32759Y-48110D01*
X33104Y-48111D01*
X33423Y-47979D01*
X33667Y-47735D01*
X33799Y-47417D01*
X33800Y-47072D01*
X33800Y-49438D01*
X31446Y-49438D01*
X31446Y-45775D01*
X31348Y-45522D01*
X31328Y-45491D01*
X31214Y-45451D01*
X31201Y-45464D01*
X31201Y-45439D01*
X31161Y-45324D01*
X30913Y-45214D01*
X30641Y-45207D01*
X30388Y-45304D01*
X30357Y-45324D01*
X30318Y-45439D01*
X30759Y-45880D01*
X31201Y-45439D01*
X31201Y-45464D01*
X30772Y-45893D01*
X31214Y-46335D01*
X31328Y-46295D01*
X31439Y-46047D01*
X31446Y-45775D01*
X31446Y-49438D01*
X31201Y-49438D01*
X31201Y-46348D01*
X30759Y-45906D01*
X30747Y-45919D01*
X30747Y-45893D01*
X30305Y-45451D01*
X30191Y-45491D01*
X30080Y-45739D01*
X30073Y-46011D01*
X30170Y-46265D01*
X30191Y-46295D01*
X30305Y-46335D01*
X30747Y-45893D01*
X30747Y-45919D01*
X30318Y-46348D01*
X30344Y-46423D01*
X30232Y-46377D01*
X29887Y-46377D01*
X29568Y-46508D01*
X29324Y-46752D01*
X29192Y-47070D01*
X29191Y-47415D01*
X29323Y-47734D01*
X29567Y-47978D01*
X29885Y-48110D01*
X30230Y-48111D01*
X30549Y-47979D01*
X30793Y-47735D01*
X30925Y-47417D01*
X30926Y-47072D01*
X30794Y-46753D01*
X30614Y-46573D01*
X30877Y-46580D01*
X31131Y-46482D01*
X31161Y-46462D01*
X31201Y-46348D01*
X31201Y-49438D01*
X28504Y-49438D01*
X28504Y-46599D01*
X28161Y-46256D01*
X27818Y-46599D01*
X27841Y-46699D01*
X28040Y-46786D01*
X28257Y-46791D01*
X28459Y-46713D01*
X28480Y-46699D01*
X28504Y-46599D01*
X28504Y-49438D01*
X26897Y-49438D01*
X26897Y-46599D01*
X26555Y-46256D01*
X26212Y-46599D01*
X26235Y-46699D01*
X26434Y-46786D01*
X26651Y-46791D01*
X26853Y-46713D01*
X26874Y-46699D01*
X26897Y-46599D01*
X26897Y-49438D01*
X25926Y-49438D01*
X25926Y-47072D01*
X25794Y-46753D01*
X25550Y-46509D01*
X25232Y-46377D01*
X25044Y-46377D01*
X25044Y-45775D01*
X24947Y-45522D01*
X24926Y-45491D01*
X24812Y-45451D01*
X24800Y-45464D01*
X24800Y-45439D01*
X24760Y-45324D01*
X24512Y-45214D01*
X24240Y-45207D01*
X23986Y-45304D01*
X23956Y-45324D01*
X23916Y-45439D01*
X24358Y-45880D01*
X24800Y-45439D01*
X24800Y-45464D01*
X24371Y-45893D01*
X24812Y-46335D01*
X24926Y-46295D01*
X25037Y-46047D01*
X25044Y-45775D01*
X25044Y-46377D01*
X24887Y-46377D01*
X24773Y-46423D01*
X24800Y-46348D01*
X24358Y-45906D01*
X24345Y-45919D01*
X24345Y-45893D01*
X23903Y-45451D01*
X23789Y-45491D01*
X23679Y-45739D01*
X23671Y-46011D01*
X23769Y-46265D01*
X23789Y-46295D01*
X23903Y-46335D01*
X24345Y-45893D01*
X24345Y-45919D01*
X23916Y-46348D01*
X23956Y-46462D01*
X24204Y-46572D01*
X24476Y-46580D01*
X24510Y-46567D01*
X24324Y-46752D01*
X24192Y-47070D01*
X24191Y-47415D01*
X24323Y-47734D01*
X24567Y-47978D01*
X24885Y-48110D01*
X25230Y-48111D01*
X25549Y-47979D01*
X25793Y-47735D01*
X25925Y-47417D01*
X25926Y-47072D01*
X25926Y-49438D01*
X23572Y-49438D01*
X23572Y-45775D01*
X23474Y-45522D01*
X23454Y-45491D01*
X23340Y-45451D01*
X23327Y-45464D01*
X23327Y-45439D01*
X23287Y-45324D01*
X23039Y-45214D01*
X22767Y-45207D01*
X22514Y-45304D01*
X22483Y-45324D01*
X22444Y-45439D01*
X22885Y-45880D01*
X23327Y-45439D01*
X23327Y-45464D01*
X22898Y-45893D01*
X23340Y-46335D01*
X23454Y-46295D01*
X23565Y-46047D01*
X23572Y-45775D01*
X23572Y-49438D01*
X23327Y-49438D01*
X23327Y-46348D01*
X22885Y-45906D01*
X22873Y-45919D01*
X22873Y-45893D01*
X22431Y-45451D01*
X22317Y-45491D01*
X22206Y-45739D01*
X22199Y-46011D01*
X22296Y-46265D01*
X22317Y-46295D01*
X22431Y-46335D01*
X22873Y-45893D01*
X22873Y-45919D01*
X22444Y-46348D01*
X22470Y-46423D01*
X22358Y-46377D01*
X22013Y-46377D01*
X21694Y-46508D01*
X21450Y-46752D01*
X21318Y-47070D01*
X21317Y-47415D01*
X21449Y-47734D01*
X21693Y-47978D01*
X22011Y-48110D01*
X22356Y-48111D01*
X22675Y-47979D01*
X22919Y-47735D01*
X23051Y-47417D01*
X23052Y-47072D01*
X22920Y-46753D01*
X22740Y-46573D01*
X23003Y-46580D01*
X23257Y-46482D01*
X23287Y-46462D01*
X23327Y-46348D01*
X23327Y-49438D01*
X20630Y-49438D01*
X20630Y-46599D01*
X20287Y-46256D01*
X19944Y-46599D01*
X19967Y-46699D01*
X20166Y-46786D01*
X20383Y-46791D01*
X20585Y-46713D01*
X20606Y-46699D01*
X20630Y-46599D01*
X20630Y-49438D01*
X19023Y-49438D01*
X19023Y-46599D01*
X18681Y-46256D01*
X18338Y-46599D01*
X18361Y-46699D01*
X18560Y-46786D01*
X18777Y-46791D01*
X18979Y-46713D01*
X19000Y-46699D01*
X19023Y-46599D01*
X19023Y-49438D01*
X18052Y-49438D01*
X18052Y-47072D01*
X17920Y-46753D01*
X17676Y-46509D01*
X17358Y-46377D01*
X17170Y-46377D01*
X17170Y-45775D01*
X17073Y-45522D01*
X17052Y-45491D01*
X16938Y-45451D01*
X16926Y-45464D01*
X16926Y-45439D01*
X16886Y-45324D01*
X16638Y-45214D01*
X16366Y-45207D01*
X16210Y-45267D01*
X16210Y-33004D01*
X16112Y-32750D01*
X16092Y-32720D01*
X15978Y-32680D01*
X15965Y-32693D01*
X15965Y-32667D01*
X15925Y-32553D01*
X15677Y-32442D01*
X15405Y-32435D01*
X15152Y-32533D01*
X15121Y-32553D01*
X15081Y-32667D01*
X15523Y-33109D01*
X15965Y-32667D01*
X15965Y-32693D01*
X15536Y-33122D01*
X15978Y-33563D01*
X16092Y-33524D01*
X16202Y-33275D01*
X16210Y-33004D01*
X16210Y-45267D01*
X16112Y-45304D01*
X16082Y-45324D01*
X16042Y-45439D01*
X16484Y-45880D01*
X16926Y-45439D01*
X16926Y-45464D01*
X16497Y-45893D01*
X16938Y-46335D01*
X17052Y-46295D01*
X17163Y-46047D01*
X17170Y-45775D01*
X17170Y-46377D01*
X17013Y-46377D01*
X16899Y-46423D01*
X16926Y-46348D01*
X16484Y-45906D01*
X16471Y-45919D01*
X16471Y-45893D01*
X16029Y-45451D01*
X15965Y-45474D01*
X15965Y-33576D01*
X15523Y-33134D01*
X15510Y-33147D01*
X15510Y-33122D01*
X15068Y-32680D01*
X14993Y-32706D01*
X15040Y-32594D01*
X15040Y-32249D01*
X14908Y-31930D01*
X14664Y-31686D01*
X14346Y-31554D01*
X14001Y-31554D01*
X13682Y-31685D01*
X13438Y-31929D01*
X13306Y-32248D01*
X13306Y-32592D01*
X13437Y-32911D01*
X13681Y-33155D01*
X14000Y-33288D01*
X14344Y-33288D01*
X14663Y-33156D01*
X14844Y-32976D01*
X14837Y-33239D01*
X14934Y-33493D01*
X14954Y-33524D01*
X15068Y-33563D01*
X15510Y-33122D01*
X15510Y-33147D01*
X15081Y-33576D01*
X15121Y-33690D01*
X15369Y-33801D01*
X15641Y-33808D01*
X15895Y-33711D01*
X15925Y-33690D01*
X15965Y-33576D01*
X15965Y-45474D01*
X15915Y-45491D01*
X15804Y-45739D01*
X15797Y-46011D01*
X15895Y-46265D01*
X15915Y-46295D01*
X16029Y-46335D01*
X16471Y-45893D01*
X16471Y-45919D01*
X16042Y-46348D01*
X16082Y-46462D01*
X16330Y-46572D01*
X16602Y-46580D01*
X16636Y-46567D01*
X16450Y-46752D01*
X16318Y-47070D01*
X16317Y-47415D01*
X16449Y-47734D01*
X16693Y-47978D01*
X17011Y-48110D01*
X17356Y-48111D01*
X17675Y-47979D01*
X17919Y-47735D01*
X18051Y-47417D01*
X18052Y-47072D01*
X18052Y-49438D01*
X15109Y-49438D01*
X15109Y-47374D01*
X14907Y-46885D01*
X14533Y-46511D01*
X14045Y-46308D01*
X13516Y-46308D01*
X13027Y-46510D01*
X12653Y-46883D01*
X12450Y-47372D01*
X12449Y-47901D01*
X12651Y-48389D01*
X13025Y-48764D01*
X13513Y-48967D01*
X14042Y-48967D01*
X14531Y-48765D01*
X14905Y-48391D01*
X15108Y-47903D01*
X15109Y-47374D01*
X15109Y-49438D01*
X11979Y-49438D01*
X11979Y-10404D01*
X51012Y-10404D01*
X51012Y-49438D01*
X51012Y-49438D01*
G37*
G54D30*
X51012Y-49438D02*
X50542Y-49438D01*
X50542Y-47374D01*
X50542Y-11941D01*
X50340Y-11452D01*
X49966Y-11078D01*
X49478Y-10875D01*
X48949Y-10874D01*
X48460Y-11076D01*
X48086Y-11450D01*
X47883Y-11939D01*
X47882Y-12468D01*
X48084Y-12956D01*
X48458Y-13331D01*
X48946Y-13534D01*
X49475Y-13534D01*
X49964Y-13332D01*
X50339Y-12958D01*
X50541Y-12470D01*
X50542Y-11941D01*
X50542Y-47374D01*
X50340Y-46885D01*
X49966Y-46511D01*
X49685Y-46394D01*
X49685Y-32249D01*
X49685Y-27249D01*
X49554Y-26930D01*
X49310Y-26686D01*
X48992Y-26554D01*
X48647Y-26554D01*
X48328Y-26685D01*
X48147Y-26866D01*
X48154Y-26602D01*
X48057Y-26348D01*
X48037Y-26318D01*
X47923Y-26278D01*
X47910Y-26291D01*
X47910Y-26265D01*
X47870Y-26151D01*
X47622Y-26041D01*
X47350Y-26034D01*
X47194Y-26094D01*
X47194Y-13830D01*
X47096Y-13577D01*
X47076Y-13546D01*
X46962Y-13506D01*
X46949Y-13519D01*
X46949Y-13494D01*
X46909Y-13380D01*
X46661Y-13269D01*
X46389Y-13262D01*
X46355Y-13275D01*
X46541Y-13090D01*
X46673Y-12771D01*
X46674Y-12426D01*
X46542Y-12107D01*
X46298Y-11863D01*
X45980Y-11731D01*
X45635Y-11731D01*
X45316Y-11863D01*
X45072Y-12106D01*
X44940Y-12425D01*
X44940Y-12770D01*
X45071Y-13088D01*
X45315Y-13332D01*
X45633Y-13465D01*
X45978Y-13465D01*
X46092Y-13418D01*
X46066Y-13494D01*
X46507Y-13936D01*
X46949Y-13494D01*
X46949Y-13519D01*
X46520Y-13948D01*
X46962Y-14390D01*
X47076Y-14350D01*
X47187Y-14102D01*
X47194Y-13830D01*
X47194Y-26094D01*
X47096Y-26131D01*
X47066Y-26151D01*
X47026Y-26265D01*
X47468Y-26707D01*
X47910Y-26265D01*
X47910Y-26291D01*
X47481Y-26720D01*
X47923Y-27162D01*
X47998Y-27135D01*
X47952Y-27248D01*
X47951Y-27592D01*
X48083Y-27911D01*
X48327Y-28155D01*
X48645Y-28288D01*
X48990Y-28288D01*
X49309Y-28156D01*
X49553Y-27912D01*
X49685Y-27594D01*
X49685Y-27249D01*
X49685Y-32249D01*
X49554Y-31930D01*
X49310Y-31686D01*
X48992Y-31554D01*
X48647Y-31554D01*
X48366Y-31670D01*
X48366Y-30829D01*
X48366Y-29222D01*
X48288Y-29020D01*
X48274Y-28999D01*
X48174Y-28976D01*
X47831Y-29318D01*
X48174Y-29661D01*
X48274Y-29638D01*
X48361Y-29439D01*
X48366Y-29222D01*
X48366Y-30829D01*
X48288Y-30626D01*
X48274Y-30605D01*
X48262Y-30603D01*
X48262Y-30034D01*
X48195Y-29870D01*
X48114Y-29789D01*
X48117Y-29788D01*
X48138Y-29774D01*
X48161Y-29674D01*
X47818Y-29331D01*
X47813Y-29337D01*
X47800Y-29324D01*
X47806Y-29318D01*
X47800Y-29313D01*
X47813Y-29300D01*
X47818Y-29306D01*
X48161Y-28963D01*
X48138Y-28863D01*
X48110Y-28851D01*
X48195Y-28767D01*
X48262Y-28604D01*
X48262Y-28427D01*
X48195Y-28264D01*
X48070Y-28139D01*
X47910Y-28073D01*
X47910Y-27175D01*
X47468Y-26733D01*
X47455Y-26746D01*
X47455Y-26720D01*
X47013Y-26278D01*
X46949Y-26301D01*
X46949Y-14403D01*
X46507Y-13961D01*
X46495Y-13974D01*
X46495Y-13948D01*
X46053Y-13506D01*
X45939Y-13546D01*
X45828Y-13795D01*
X45821Y-14066D01*
X45918Y-14320D01*
X45939Y-14350D01*
X46053Y-14390D01*
X46495Y-13948D01*
X46495Y-13974D01*
X46066Y-14403D01*
X46105Y-14517D01*
X46354Y-14628D01*
X46625Y-14635D01*
X46879Y-14537D01*
X46909Y-14517D01*
X46949Y-14403D01*
X46949Y-26301D01*
X46899Y-26318D01*
X46789Y-26566D01*
X46782Y-26838D01*
X46879Y-27092D01*
X46899Y-27122D01*
X47013Y-27162D01*
X47455Y-26720D01*
X47455Y-26746D01*
X47026Y-27175D01*
X47066Y-27289D01*
X47314Y-27399D01*
X47586Y-27406D01*
X47840Y-27309D01*
X47870Y-27289D01*
X47910Y-27175D01*
X47910Y-28073D01*
X47907Y-28071D01*
X47730Y-28071D01*
X47567Y-28139D01*
X47442Y-28263D01*
X47375Y-28427D01*
X47374Y-28546D01*
X47369Y-28541D01*
X47206Y-28473D01*
X47030Y-28473D01*
X46966Y-28499D01*
X46583Y-28117D01*
X46522Y-28076D01*
X46450Y-28062D01*
X45156Y-28062D01*
X45156Y-14211D01*
X45089Y-14048D01*
X44964Y-13923D01*
X44801Y-13855D01*
X44793Y-13855D01*
X44853Y-13719D01*
X44858Y-13502D01*
X44780Y-13300D01*
X44766Y-13278D01*
X44666Y-13255D01*
X44653Y-13268D01*
X44653Y-13242D01*
X44630Y-13143D01*
X44432Y-13055D01*
X44215Y-13050D01*
X44012Y-13128D01*
X43991Y-13143D01*
X43968Y-13242D01*
X44311Y-13585D01*
X44653Y-13242D01*
X44653Y-13268D01*
X44323Y-13598D01*
X44329Y-13603D01*
X44316Y-13616D01*
X44311Y-13611D01*
X44305Y-13616D01*
X44292Y-13603D01*
X44298Y-13598D01*
X43955Y-13255D01*
X43855Y-13278D01*
X43843Y-13306D01*
X43759Y-13222D01*
X43596Y-13154D01*
X43419Y-13154D01*
X43256Y-13221D01*
X43175Y-13303D01*
X43174Y-13300D01*
X43159Y-13278D01*
X43060Y-13255D01*
X43047Y-13268D01*
X43047Y-13242D01*
X43024Y-13143D01*
X42825Y-13055D01*
X42608Y-13050D01*
X42406Y-13128D01*
X42385Y-13143D01*
X42362Y-13242D01*
X42704Y-13585D01*
X43047Y-13242D01*
X43047Y-13268D01*
X42717Y-13598D01*
X42723Y-13603D01*
X42710Y-13616D01*
X42704Y-13611D01*
X42699Y-13616D01*
X42686Y-13603D01*
X42691Y-13598D01*
X42349Y-13255D01*
X42249Y-13278D01*
X42237Y-13306D01*
X42153Y-13222D01*
X41990Y-13154D01*
X41813Y-13154D01*
X41674Y-13212D01*
X41674Y-12426D01*
X41542Y-12107D01*
X41298Y-11863D01*
X40980Y-11731D01*
X40635Y-11731D01*
X40316Y-11863D01*
X40072Y-12106D01*
X39940Y-12425D01*
X39940Y-12770D01*
X40071Y-13088D01*
X40251Y-13269D01*
X39988Y-13262D01*
X39734Y-13359D01*
X39704Y-13380D01*
X39664Y-13494D01*
X40106Y-13936D01*
X40548Y-13494D01*
X40521Y-13418D01*
X40633Y-13465D01*
X40978Y-13465D01*
X41297Y-13333D01*
X41541Y-13090D01*
X41673Y-12771D01*
X41674Y-12426D01*
X41674Y-13212D01*
X41650Y-13221D01*
X41525Y-13346D01*
X41457Y-13509D01*
X41457Y-13686D01*
X41525Y-13849D01*
X41649Y-13974D01*
X41812Y-14042D01*
X41932Y-14042D01*
X41927Y-14047D01*
X41859Y-14210D01*
X41859Y-14387D01*
X41926Y-14550D01*
X42051Y-14675D01*
X42115Y-14701D01*
X42115Y-17189D01*
X41145Y-18159D01*
X40792Y-18159D01*
X40792Y-13830D01*
X40695Y-13577D01*
X40675Y-13546D01*
X40560Y-13506D01*
X40119Y-13948D01*
X40560Y-14390D01*
X40675Y-14350D01*
X40785Y-14102D01*
X40792Y-13830D01*
X40792Y-18159D01*
X40548Y-18159D01*
X40548Y-14403D01*
X40106Y-13961D01*
X40093Y-13974D01*
X40093Y-13948D01*
X39651Y-13506D01*
X39537Y-13546D01*
X39427Y-13795D01*
X39419Y-14066D01*
X39517Y-14320D01*
X39537Y-14350D01*
X39651Y-14390D01*
X40093Y-13948D01*
X40093Y-13974D01*
X39664Y-14403D01*
X39704Y-14517D01*
X39952Y-14628D01*
X40224Y-14635D01*
X40477Y-14537D01*
X40508Y-14517D01*
X40548Y-14403D01*
X40548Y-18159D01*
X39320Y-18159D01*
X39320Y-13830D01*
X39222Y-13577D01*
X39202Y-13546D01*
X39088Y-13506D01*
X39075Y-13519D01*
X39075Y-13494D01*
X39035Y-13380D01*
X38787Y-13269D01*
X38515Y-13262D01*
X38481Y-13275D01*
X38667Y-13090D01*
X38799Y-12771D01*
X38800Y-12426D01*
X38668Y-12107D01*
X38424Y-11863D01*
X38106Y-11731D01*
X37761Y-11731D01*
X37442Y-11863D01*
X37198Y-12106D01*
X37066Y-12425D01*
X37065Y-12770D01*
X37197Y-13088D01*
X37441Y-13332D01*
X37759Y-13465D01*
X38104Y-13465D01*
X38218Y-13418D01*
X38192Y-13494D01*
X38633Y-13936D01*
X39075Y-13494D01*
X39075Y-13519D01*
X38646Y-13948D01*
X39088Y-14390D01*
X39202Y-14350D01*
X39313Y-14102D01*
X39320Y-13830D01*
X39320Y-18159D01*
X39075Y-18159D01*
X39075Y-14403D01*
X38633Y-13961D01*
X38621Y-13974D01*
X38621Y-13948D01*
X38179Y-13506D01*
X38065Y-13546D01*
X37954Y-13795D01*
X37947Y-14066D01*
X38044Y-14320D01*
X38065Y-14350D01*
X38179Y-14390D01*
X38621Y-13948D01*
X38621Y-13974D01*
X38192Y-14403D01*
X38231Y-14517D01*
X38480Y-14628D01*
X38751Y-14635D01*
X39005Y-14537D01*
X39035Y-14517D01*
X39075Y-14403D01*
X39075Y-18159D01*
X35763Y-18159D01*
X35691Y-18173D01*
X35630Y-18214D01*
X35630Y-18214D01*
X35630Y-18214D01*
X34267Y-19577D01*
X34226Y-19638D01*
X34212Y-19710D01*
X34212Y-27543D01*
X34157Y-27597D01*
X34113Y-27702D01*
X34113Y-27816D01*
X34157Y-27921D01*
X34237Y-28002D01*
X34342Y-28046D01*
X34456Y-28046D01*
X34561Y-28002D01*
X34642Y-27922D01*
X34686Y-27817D01*
X34686Y-27703D01*
X34642Y-27598D01*
X34587Y-27542D01*
X34587Y-19787D01*
X35840Y-18534D01*
X41223Y-18534D01*
X41294Y-18520D01*
X41355Y-18479D01*
X42435Y-17399D01*
X42435Y-17399D01*
X42435Y-17399D01*
X42476Y-17338D01*
X42476Y-17338D01*
X42490Y-17266D01*
X42490Y-14701D01*
X42554Y-14675D01*
X42679Y-14551D01*
X42704Y-14489D01*
X42729Y-14550D01*
X42854Y-14675D01*
X43017Y-14743D01*
X43194Y-14743D01*
X43357Y-14675D01*
X43482Y-14551D01*
X43507Y-14489D01*
X43532Y-14550D01*
X43657Y-14675D01*
X43820Y-14743D01*
X43997Y-14743D01*
X44160Y-14675D01*
X44285Y-14551D01*
X44311Y-14489D01*
X44336Y-14550D01*
X44460Y-14675D01*
X44623Y-14743D01*
X44800Y-14743D01*
X44963Y-14675D01*
X45088Y-14551D01*
X45156Y-14387D01*
X45156Y-14211D01*
X45156Y-28062D01*
X43330Y-28062D01*
X41307Y-28062D01*
X41295Y-28034D01*
X41254Y-27992D01*
X41199Y-27969D01*
X41140Y-27969D01*
X40690Y-27969D01*
X40635Y-27992D01*
X40594Y-28034D01*
X40585Y-28055D01*
X34221Y-28055D01*
X33882Y-27717D01*
X33821Y-27676D01*
X33750Y-27662D01*
X31677Y-27662D01*
X31605Y-27676D01*
X31544Y-27717D01*
X31334Y-27927D01*
X31151Y-28109D01*
X31186Y-28027D01*
X31186Y-27913D01*
X31142Y-27808D01*
X31062Y-27727D01*
X30957Y-27683D01*
X30879Y-27683D01*
X30841Y-27645D01*
X30841Y-27477D01*
X30847Y-27491D01*
X30927Y-27572D01*
X31032Y-27616D01*
X31146Y-27616D01*
X31251Y-27572D01*
X31332Y-27492D01*
X31376Y-27387D01*
X31376Y-27273D01*
X31332Y-27168D01*
X31252Y-27087D01*
X31147Y-27043D01*
X31069Y-27043D01*
X30998Y-26973D01*
X30998Y-21242D01*
X34561Y-17679D01*
X34561Y-17679D01*
X34561Y-17679D01*
X34602Y-17618D01*
X34602Y-17618D01*
X34616Y-17546D01*
X34616Y-17546D01*
X34616Y-14701D01*
X34680Y-14675D01*
X34805Y-14551D01*
X34830Y-14489D01*
X34855Y-14550D01*
X34980Y-14675D01*
X35143Y-14743D01*
X35320Y-14743D01*
X35483Y-14675D01*
X35608Y-14551D01*
X35633Y-14489D01*
X35658Y-14550D01*
X35783Y-14675D01*
X35946Y-14743D01*
X36123Y-14743D01*
X36286Y-14675D01*
X36411Y-14551D01*
X36436Y-14489D01*
X36462Y-14550D01*
X36586Y-14675D01*
X36749Y-14743D01*
X36926Y-14743D01*
X37089Y-14675D01*
X37214Y-14551D01*
X37282Y-14387D01*
X37282Y-14211D01*
X37215Y-14048D01*
X37090Y-13923D01*
X36927Y-13855D01*
X36919Y-13855D01*
X36979Y-13719D01*
X36984Y-13502D01*
X36906Y-13300D01*
X36892Y-13278D01*
X36792Y-13255D01*
X36779Y-13268D01*
X36779Y-13242D01*
X36756Y-13143D01*
X36558Y-13055D01*
X36341Y-13050D01*
X36138Y-13128D01*
X36117Y-13143D01*
X36094Y-13242D01*
X36437Y-13585D01*
X36779Y-13242D01*
X36779Y-13268D01*
X36449Y-13598D01*
X36455Y-13603D01*
X36442Y-13616D01*
X36437Y-13611D01*
X36431Y-13616D01*
X36418Y-13603D01*
X36424Y-13598D01*
X36081Y-13255D01*
X35981Y-13278D01*
X35969Y-13306D01*
X35885Y-13222D01*
X35722Y-13154D01*
X35545Y-13154D01*
X35382Y-13221D01*
X35301Y-13303D01*
X35300Y-13300D01*
X35285Y-13278D01*
X35186Y-13255D01*
X35173Y-13268D01*
X35173Y-13242D01*
X35150Y-13143D01*
X34951Y-13055D01*
X34734Y-13050D01*
X34532Y-13128D01*
X34511Y-13143D01*
X34488Y-13242D01*
X34830Y-13585D01*
X35173Y-13242D01*
X35173Y-13268D01*
X34843Y-13598D01*
X34849Y-13603D01*
X34836Y-13616D01*
X34830Y-13611D01*
X34825Y-13616D01*
X34812Y-13603D01*
X34817Y-13598D01*
X34475Y-13255D01*
X34375Y-13278D01*
X34363Y-13306D01*
X34279Y-13222D01*
X34116Y-13154D01*
X33939Y-13154D01*
X33800Y-13212D01*
X33800Y-12426D01*
X33668Y-12107D01*
X33424Y-11863D01*
X33106Y-11731D01*
X32761Y-11731D01*
X32442Y-11863D01*
X32198Y-12106D01*
X32066Y-12425D01*
X32065Y-12770D01*
X32197Y-13088D01*
X32377Y-13269D01*
X32114Y-13262D01*
X31860Y-13359D01*
X31830Y-13380D01*
X31790Y-13494D01*
X32232Y-13936D01*
X32674Y-13494D01*
X32647Y-13418D01*
X32759Y-13465D01*
X33104Y-13465D01*
X33423Y-13333D01*
X33667Y-13090D01*
X33799Y-12771D01*
X33800Y-12426D01*
X33800Y-13212D01*
X33776Y-13221D01*
X33651Y-13346D01*
X33583Y-13509D01*
X33583Y-13686D01*
X33650Y-13849D01*
X33775Y-13974D01*
X33938Y-14042D01*
X34058Y-14042D01*
X34053Y-14047D01*
X33985Y-14210D01*
X33985Y-14387D01*
X34052Y-14550D01*
X34177Y-14675D01*
X34241Y-14701D01*
X34241Y-17469D01*
X32918Y-18791D01*
X32918Y-13830D01*
X32821Y-13577D01*
X32801Y-13546D01*
X32686Y-13506D01*
X32245Y-13948D01*
X32686Y-14390D01*
X32801Y-14350D01*
X32911Y-14102D01*
X32918Y-13830D01*
X32918Y-18791D01*
X32674Y-19036D01*
X32674Y-14403D01*
X32232Y-13961D01*
X32219Y-13974D01*
X32219Y-13948D01*
X31777Y-13506D01*
X31663Y-13546D01*
X31553Y-13795D01*
X31545Y-14066D01*
X31643Y-14320D01*
X31663Y-14350D01*
X31777Y-14390D01*
X32219Y-13948D01*
X32219Y-13974D01*
X31790Y-14403D01*
X31830Y-14517D01*
X32078Y-14628D01*
X32350Y-14635D01*
X32603Y-14537D01*
X32634Y-14517D01*
X32674Y-14403D01*
X32674Y-19036D01*
X31446Y-20264D01*
X31446Y-13830D01*
X31348Y-13577D01*
X31328Y-13546D01*
X31214Y-13506D01*
X31201Y-13519D01*
X31201Y-13494D01*
X31161Y-13380D01*
X30913Y-13269D01*
X30641Y-13262D01*
X30607Y-13275D01*
X30793Y-13090D01*
X30925Y-12771D01*
X30926Y-12426D01*
X30794Y-12107D01*
X30550Y-11863D01*
X30232Y-11731D01*
X29887Y-11731D01*
X29568Y-11863D01*
X29324Y-12106D01*
X29192Y-12425D01*
X29191Y-12770D01*
X29323Y-13088D01*
X29567Y-13332D01*
X29885Y-13465D01*
X30230Y-13465D01*
X30344Y-13418D01*
X30318Y-13494D01*
X30759Y-13936D01*
X31201Y-13494D01*
X31201Y-13519D01*
X30772Y-13948D01*
X31214Y-14390D01*
X31328Y-14350D01*
X31439Y-14102D01*
X31446Y-13830D01*
X31446Y-20264D01*
X31201Y-20508D01*
X31201Y-14403D01*
X30759Y-13961D01*
X30747Y-13974D01*
X30747Y-13948D01*
X30305Y-13506D01*
X30191Y-13546D01*
X30080Y-13795D01*
X30073Y-14066D01*
X30170Y-14320D01*
X30191Y-14350D01*
X30305Y-14390D01*
X30747Y-13948D01*
X30747Y-13974D01*
X30318Y-14403D01*
X30357Y-14517D01*
X30606Y-14628D01*
X30877Y-14635D01*
X31131Y-14537D01*
X31161Y-14517D01*
X31201Y-14403D01*
X31201Y-20508D01*
X30802Y-20907D01*
X30786Y-20883D01*
X26742Y-16839D01*
X26742Y-14701D01*
X26806Y-14675D01*
X26931Y-14551D01*
X26956Y-14489D01*
X26981Y-14550D01*
X27106Y-14675D01*
X27269Y-14743D01*
X27446Y-14743D01*
X27609Y-14675D01*
X27734Y-14551D01*
X27759Y-14489D01*
X27784Y-14550D01*
X27909Y-14675D01*
X28072Y-14743D01*
X28249Y-14743D01*
X28412Y-14675D01*
X28537Y-14551D01*
X28562Y-14489D01*
X28588Y-14550D01*
X28712Y-14675D01*
X28875Y-14743D01*
X29052Y-14743D01*
X29215Y-14675D01*
X29340Y-14551D01*
X29408Y-14387D01*
X29408Y-14211D01*
X29341Y-14048D01*
X29216Y-13923D01*
X29053Y-13855D01*
X29045Y-13855D01*
X29105Y-13719D01*
X29110Y-13502D01*
X29032Y-13300D01*
X29018Y-13278D01*
X28918Y-13255D01*
X28905Y-13268D01*
X28905Y-13242D01*
X28882Y-13143D01*
X28684Y-13055D01*
X28467Y-13050D01*
X28264Y-13128D01*
X28243Y-13143D01*
X28220Y-13242D01*
X28562Y-13585D01*
X28905Y-13242D01*
X28905Y-13268D01*
X28575Y-13598D01*
X28581Y-13603D01*
X28568Y-13616D01*
X28562Y-13611D01*
X28557Y-13616D01*
X28544Y-13603D01*
X28550Y-13598D01*
X28207Y-13255D01*
X28107Y-13278D01*
X28095Y-13306D01*
X28011Y-13222D01*
X27848Y-13154D01*
X27671Y-13154D01*
X27508Y-13221D01*
X27427Y-13303D01*
X27426Y-13300D01*
X27411Y-13278D01*
X27312Y-13255D01*
X27299Y-13268D01*
X27299Y-13242D01*
X27276Y-13143D01*
X27077Y-13055D01*
X26860Y-13050D01*
X26658Y-13128D01*
X26637Y-13143D01*
X26614Y-13242D01*
X26956Y-13585D01*
X27299Y-13242D01*
X27299Y-13268D01*
X26969Y-13598D01*
X26975Y-13603D01*
X26962Y-13616D01*
X26956Y-13611D01*
X26951Y-13616D01*
X26938Y-13603D01*
X26943Y-13598D01*
X26601Y-13255D01*
X26501Y-13278D01*
X26489Y-13306D01*
X26405Y-13222D01*
X26242Y-13154D01*
X26065Y-13154D01*
X25926Y-13212D01*
X25926Y-12426D01*
X25794Y-12107D01*
X25550Y-11863D01*
X25232Y-11731D01*
X24887Y-11731D01*
X24568Y-11863D01*
X24324Y-12106D01*
X24192Y-12425D01*
X24191Y-12770D01*
X24323Y-13088D01*
X24503Y-13269D01*
X24240Y-13262D01*
X23986Y-13359D01*
X23956Y-13380D01*
X23916Y-13494D01*
X24358Y-13936D01*
X24800Y-13494D01*
X24773Y-13418D01*
X24885Y-13465D01*
X25230Y-13465D01*
X25549Y-13333D01*
X25793Y-13090D01*
X25925Y-12771D01*
X25926Y-12426D01*
X25926Y-13212D01*
X25902Y-13221D01*
X25777Y-13346D01*
X25709Y-13509D01*
X25709Y-13686D01*
X25776Y-13849D01*
X25901Y-13974D01*
X26064Y-14042D01*
X26184Y-14042D01*
X26178Y-14047D01*
X26111Y-14210D01*
X26111Y-14387D01*
X26178Y-14550D01*
X26303Y-14675D01*
X26367Y-14701D01*
X26367Y-16917D01*
X26381Y-16989D01*
X26422Y-17050D01*
X27244Y-17872D01*
X25044Y-17872D01*
X25044Y-13830D01*
X24947Y-13577D01*
X24926Y-13546D01*
X24812Y-13506D01*
X24371Y-13948D01*
X24812Y-14390D01*
X24926Y-14350D01*
X25037Y-14102D01*
X25044Y-13830D01*
X25044Y-17872D01*
X24800Y-17872D01*
X24800Y-14403D01*
X24358Y-13961D01*
X24345Y-13974D01*
X24345Y-13948D01*
X23903Y-13506D01*
X23789Y-13546D01*
X23679Y-13795D01*
X23671Y-14066D01*
X23769Y-14320D01*
X23789Y-14350D01*
X23903Y-14390D01*
X24345Y-13948D01*
X24345Y-13974D01*
X23916Y-14403D01*
X23956Y-14517D01*
X24204Y-14628D01*
X24476Y-14635D01*
X24729Y-14537D01*
X24760Y-14517D01*
X24800Y-14403D01*
X24800Y-17872D01*
X23572Y-17872D01*
X23572Y-13830D01*
X23474Y-13577D01*
X23454Y-13546D01*
X23340Y-13506D01*
X23327Y-13519D01*
X23327Y-13494D01*
X23287Y-13380D01*
X23039Y-13269D01*
X22767Y-13262D01*
X22733Y-13275D01*
X22919Y-13090D01*
X23051Y-12771D01*
X23052Y-12426D01*
X22920Y-12107D01*
X22676Y-11863D01*
X22358Y-11731D01*
X22013Y-11731D01*
X21694Y-11863D01*
X21450Y-12106D01*
X21318Y-12425D01*
X21317Y-12770D01*
X21449Y-13088D01*
X21693Y-13332D01*
X22011Y-13465D01*
X22356Y-13465D01*
X22470Y-13418D01*
X22444Y-13494D01*
X22885Y-13936D01*
X23327Y-13494D01*
X23327Y-13519D01*
X22898Y-13948D01*
X23340Y-14390D01*
X23454Y-14350D01*
X23565Y-14102D01*
X23572Y-13830D01*
X23572Y-17872D01*
X23327Y-17872D01*
X23327Y-14403D01*
X22885Y-13961D01*
X22873Y-13974D01*
X22873Y-13948D01*
X22431Y-13506D01*
X22317Y-13546D01*
X22206Y-13795D01*
X22199Y-14066D01*
X22296Y-14320D01*
X22317Y-14350D01*
X22431Y-14390D01*
X22873Y-13948D01*
X22873Y-13974D01*
X22444Y-14403D01*
X22483Y-14517D01*
X22732Y-14628D01*
X23003Y-14635D01*
X23257Y-14537D01*
X23287Y-14517D01*
X23327Y-14403D01*
X23327Y-17872D01*
X20162Y-17872D01*
X18868Y-16578D01*
X18868Y-14701D01*
X18932Y-14675D01*
X19057Y-14551D01*
X19082Y-14489D01*
X19107Y-14550D01*
X19232Y-14675D01*
X19395Y-14743D01*
X19572Y-14743D01*
X19735Y-14675D01*
X19860Y-14551D01*
X19885Y-14489D01*
X19910Y-14550D01*
X20035Y-14675D01*
X20198Y-14743D01*
X20375Y-14743D01*
X20538Y-14675D01*
X20663Y-14551D01*
X20688Y-14489D01*
X20713Y-14550D01*
X20838Y-14675D01*
X21001Y-14743D01*
X21178Y-14743D01*
X21341Y-14675D01*
X21466Y-14551D01*
X21534Y-14387D01*
X21534Y-14211D01*
X21467Y-14048D01*
X21342Y-13923D01*
X21179Y-13855D01*
X21171Y-13855D01*
X21231Y-13719D01*
X21236Y-13502D01*
X21158Y-13300D01*
X21144Y-13278D01*
X21044Y-13255D01*
X21031Y-13268D01*
X21031Y-13242D01*
X21008Y-13143D01*
X20809Y-13055D01*
X20593Y-13050D01*
X20390Y-13128D01*
X20369Y-13143D01*
X20346Y-13242D01*
X20688Y-13585D01*
X21031Y-13242D01*
X21031Y-13268D01*
X20701Y-13598D01*
X20707Y-13603D01*
X20694Y-13616D01*
X20688Y-13611D01*
X20683Y-13616D01*
X20670Y-13603D01*
X20676Y-13598D01*
X20333Y-13255D01*
X20233Y-13278D01*
X20221Y-13306D01*
X20137Y-13222D01*
X19974Y-13154D01*
X19797Y-13154D01*
X19634Y-13221D01*
X19553Y-13303D01*
X19552Y-13300D01*
X19537Y-13278D01*
X19438Y-13255D01*
X19425Y-13268D01*
X19425Y-13242D01*
X19402Y-13143D01*
X19203Y-13055D01*
X18986Y-13050D01*
X18784Y-13128D01*
X18763Y-13143D01*
X18740Y-13242D01*
X19082Y-13585D01*
X19425Y-13242D01*
X19425Y-13268D01*
X19095Y-13598D01*
X19101Y-13603D01*
X19088Y-13616D01*
X19082Y-13611D01*
X19077Y-13616D01*
X19064Y-13603D01*
X19069Y-13598D01*
X18727Y-13255D01*
X18627Y-13278D01*
X18615Y-13306D01*
X18531Y-13222D01*
X18368Y-13154D01*
X18191Y-13154D01*
X18052Y-13212D01*
X18052Y-12426D01*
X17920Y-12107D01*
X17676Y-11863D01*
X17358Y-11731D01*
X17013Y-11731D01*
X16694Y-11863D01*
X16450Y-12106D01*
X16318Y-12425D01*
X16317Y-12770D01*
X16449Y-13088D01*
X16629Y-13269D01*
X16366Y-13262D01*
X16112Y-13359D01*
X16082Y-13380D01*
X16042Y-13494D01*
X16484Y-13936D01*
X16926Y-13494D01*
X16899Y-13418D01*
X17011Y-13465D01*
X17356Y-13465D01*
X17675Y-13333D01*
X17919Y-13090D01*
X18051Y-12771D01*
X18052Y-12426D01*
X18052Y-13212D01*
X18028Y-13221D01*
X17903Y-13346D01*
X17835Y-13509D01*
X17835Y-13686D01*
X17902Y-13849D01*
X18027Y-13974D01*
X18190Y-14042D01*
X18310Y-14042D01*
X18304Y-14047D01*
X18237Y-14210D01*
X18237Y-14387D01*
X18304Y-14550D01*
X18429Y-14675D01*
X18493Y-14701D01*
X18493Y-16656D01*
X18507Y-16727D01*
X18548Y-16788D01*
X19952Y-18192D01*
X20013Y-18233D01*
X20085Y-18247D01*
X27397Y-18247D01*
X30308Y-21158D01*
X30308Y-26495D01*
X30292Y-26458D01*
X30212Y-26377D01*
X30107Y-26333D01*
X30029Y-26333D01*
X24428Y-20733D01*
X24368Y-20692D01*
X24296Y-20678D01*
X17170Y-20678D01*
X17170Y-13830D01*
X17073Y-13577D01*
X17052Y-13546D01*
X16938Y-13506D01*
X16497Y-13948D01*
X16938Y-14390D01*
X17052Y-14350D01*
X17163Y-14102D01*
X17170Y-13830D01*
X17170Y-20678D01*
X16926Y-20678D01*
X16926Y-14403D01*
X16484Y-13961D01*
X16471Y-13974D01*
X16471Y-13948D01*
X16029Y-13506D01*
X15915Y-13546D01*
X15804Y-13795D01*
X15797Y-14066D01*
X15895Y-14320D01*
X15915Y-14350D01*
X16029Y-14390D01*
X16471Y-13948D01*
X16471Y-13974D01*
X16042Y-14403D01*
X16082Y-14517D01*
X16330Y-14628D01*
X16602Y-14635D01*
X16855Y-14537D01*
X16886Y-14517D01*
X16926Y-14403D01*
X16926Y-20678D01*
X15534Y-20678D01*
X15534Y-20611D01*
X15511Y-20557D01*
X15469Y-20515D01*
X15415Y-20492D01*
X15356Y-20492D01*
X15109Y-20492D01*
X15109Y-11941D01*
X14907Y-11452D01*
X14533Y-11078D01*
X14045Y-10875D01*
X13516Y-10874D01*
X13027Y-11076D01*
X12653Y-11450D01*
X12450Y-11939D01*
X12449Y-12468D01*
X12651Y-12956D01*
X13025Y-13331D01*
X13513Y-13534D01*
X14042Y-13534D01*
X14531Y-13332D01*
X14905Y-12958D01*
X15108Y-12470D01*
X15109Y-11941D01*
X15109Y-20492D01*
X15106Y-20492D01*
X15051Y-20515D01*
X15009Y-20556D01*
X14987Y-20611D01*
X14987Y-20670D01*
X14987Y-21120D01*
X15009Y-21175D01*
X15051Y-21216D01*
X15105Y-21239D01*
X15165Y-21239D01*
X15415Y-21239D01*
X15469Y-21217D01*
X15511Y-21175D01*
X15534Y-21120D01*
X15534Y-21061D01*
X15534Y-21053D01*
X24218Y-21053D01*
X29763Y-26599D01*
X29763Y-26640D01*
X26670Y-29733D01*
X20258Y-29733D01*
X20258Y-29666D01*
X20235Y-29612D01*
X20194Y-29570D01*
X20139Y-29547D01*
X20080Y-29547D01*
X19830Y-29547D01*
X19776Y-29570D01*
X19734Y-29612D01*
X19711Y-29666D01*
X19711Y-29725D01*
X19711Y-30175D01*
X19734Y-30230D01*
X19775Y-30272D01*
X19830Y-30294D01*
X19889Y-30294D01*
X20139Y-30294D01*
X20194Y-30272D01*
X20235Y-30230D01*
X20258Y-30175D01*
X20258Y-30116D01*
X20258Y-30109D01*
X26748Y-30109D01*
X26820Y-30094D01*
X26881Y-30054D01*
X30029Y-26906D01*
X30106Y-26906D01*
X30211Y-26862D01*
X30292Y-26782D01*
X30308Y-26744D01*
X30308Y-28436D01*
X30287Y-28445D01*
X30246Y-28486D01*
X30242Y-28483D01*
X30242Y-28027D01*
X30242Y-28023D01*
X30244Y-28017D01*
X30244Y-27888D01*
X30195Y-27769D01*
X30104Y-27678D01*
X29985Y-27629D01*
X29857Y-27629D01*
X29738Y-27678D01*
X29647Y-27769D01*
X29597Y-27888D01*
X29597Y-28016D01*
X29646Y-28135D01*
X29737Y-28226D01*
X29749Y-28231D01*
X29749Y-28483D01*
X29745Y-28487D01*
X29722Y-28541D01*
X29722Y-28600D01*
X29722Y-29100D01*
X29745Y-29155D01*
X29786Y-29197D01*
X29841Y-29219D01*
X29900Y-29219D01*
X30150Y-29219D01*
X30205Y-29197D01*
X30246Y-29156D01*
X30286Y-29197D01*
X30308Y-29205D01*
X30308Y-29636D01*
X29227Y-30717D01*
X29186Y-30778D01*
X29172Y-30850D01*
X29172Y-37912D01*
X26112Y-40972D01*
X22155Y-40972D01*
X22083Y-40986D01*
X22022Y-41027D01*
X20556Y-42493D01*
X20515Y-42554D01*
X20501Y-42626D01*
X20501Y-45140D01*
X20437Y-45166D01*
X20312Y-45291D01*
X20287Y-45352D01*
X20262Y-45292D01*
X20137Y-45167D01*
X19974Y-45099D01*
X19797Y-45099D01*
X19658Y-45156D01*
X19658Y-30116D01*
X19658Y-29666D01*
X19635Y-29612D01*
X19594Y-29570D01*
X19539Y-29547D01*
X19480Y-29547D01*
X19230Y-29547D01*
X19176Y-29570D01*
X19134Y-29612D01*
X19111Y-29666D01*
X19111Y-29725D01*
X19111Y-29733D01*
X18138Y-29733D01*
X18066Y-29747D01*
X18005Y-29788D01*
X17057Y-30737D01*
X16276Y-30737D01*
X16250Y-30674D01*
X16125Y-30549D01*
X16064Y-30523D01*
X16125Y-30498D01*
X16250Y-30373D01*
X16317Y-30210D01*
X16318Y-30034D01*
X16250Y-29870D01*
X16125Y-29745D01*
X16064Y-29720D01*
X16125Y-29695D01*
X16250Y-29570D01*
X16317Y-29407D01*
X16318Y-29230D01*
X16250Y-29067D01*
X16125Y-28942D01*
X16064Y-28917D01*
X16125Y-28892D01*
X16250Y-28767D01*
X16317Y-28604D01*
X16318Y-28427D01*
X16250Y-28264D01*
X16210Y-28223D01*
X16210Y-26602D01*
X16112Y-26348D01*
X16092Y-26318D01*
X16043Y-26301D01*
X16043Y-23520D01*
X15960Y-23305D01*
X15944Y-23281D01*
X15840Y-23254D01*
X15828Y-23267D01*
X15828Y-23241D01*
X15800Y-23138D01*
X15589Y-23044D01*
X15359Y-23039D01*
X15143Y-23122D01*
X15120Y-23138D01*
X15093Y-23241D01*
X15460Y-23609D01*
X15828Y-23241D01*
X15828Y-23267D01*
X15473Y-23622D01*
X15840Y-23989D01*
X15944Y-23962D01*
X16037Y-23751D01*
X16043Y-23520D01*
X16043Y-26301D01*
X15978Y-26278D01*
X15965Y-26291D01*
X15965Y-26265D01*
X15925Y-26151D01*
X15828Y-26108D01*
X15828Y-24002D01*
X15460Y-23634D01*
X15447Y-23647D01*
X15447Y-23622D01*
X15080Y-23254D01*
X14976Y-23281D01*
X14904Y-23444D01*
X14866Y-23351D01*
X14731Y-23216D01*
X14556Y-23143D01*
X14365Y-23143D01*
X14282Y-23178D01*
X14067Y-22963D01*
X14067Y-21457D01*
X14392Y-21133D01*
X14409Y-21175D01*
X14451Y-21216D01*
X14505Y-21239D01*
X14565Y-21239D01*
X14815Y-21239D01*
X14869Y-21217D01*
X14911Y-21175D01*
X14934Y-21120D01*
X14934Y-21061D01*
X14934Y-20611D01*
X14911Y-20557D01*
X14869Y-20515D01*
X14815Y-20492D01*
X14756Y-20492D01*
X14506Y-20492D01*
X14451Y-20515D01*
X14409Y-20556D01*
X14387Y-20611D01*
X14387Y-20670D01*
X14387Y-20679D01*
X14321Y-20692D01*
X14261Y-20733D01*
X13747Y-21247D01*
X13706Y-21308D01*
X13692Y-21380D01*
X13692Y-23041D01*
X13706Y-23113D01*
X13747Y-23174D01*
X14016Y-23443D01*
X13982Y-23526D01*
X13982Y-23716D01*
X14054Y-23892D01*
X14189Y-24027D01*
X14365Y-24100D01*
X14555Y-24100D01*
X14731Y-24027D01*
X14865Y-23893D01*
X14906Y-23796D01*
X14961Y-23938D01*
X14976Y-23962D01*
X15080Y-23989D01*
X15447Y-23622D01*
X15447Y-23647D01*
X15093Y-24002D01*
X15120Y-24105D01*
X15331Y-24199D01*
X15562Y-24204D01*
X15777Y-24121D01*
X15800Y-24105D01*
X15828Y-24002D01*
X15828Y-26108D01*
X15677Y-26041D01*
X15405Y-26034D01*
X15152Y-26131D01*
X15121Y-26151D01*
X15081Y-26265D01*
X15523Y-26707D01*
X15965Y-26265D01*
X15965Y-26291D01*
X15536Y-26720D01*
X15978Y-27162D01*
X16092Y-27122D01*
X16202Y-26874D01*
X16210Y-26602D01*
X16210Y-28223D01*
X16125Y-28139D01*
X15965Y-28073D01*
X15965Y-27175D01*
X15523Y-26733D01*
X15510Y-26746D01*
X15510Y-26720D01*
X15068Y-26278D01*
X14954Y-26318D01*
X14844Y-26566D01*
X14837Y-26838D01*
X14850Y-26872D01*
X14664Y-26686D01*
X14346Y-26554D01*
X14001Y-26554D01*
X13682Y-26685D01*
X13438Y-26929D01*
X13306Y-27248D01*
X13306Y-27592D01*
X13437Y-27911D01*
X13681Y-28155D01*
X14000Y-28288D01*
X14344Y-28288D01*
X14663Y-28156D01*
X14907Y-27912D01*
X15040Y-27594D01*
X15040Y-27249D01*
X14993Y-27135D01*
X15068Y-27162D01*
X15510Y-26720D01*
X15510Y-26746D01*
X15081Y-27175D01*
X15121Y-27289D01*
X15369Y-27399D01*
X15641Y-27406D01*
X15895Y-27309D01*
X15925Y-27289D01*
X15965Y-27175D01*
X15965Y-28073D01*
X15962Y-28071D01*
X15786Y-28071D01*
X15622Y-28139D01*
X15497Y-28263D01*
X15430Y-28427D01*
X15430Y-28434D01*
X15294Y-28374D01*
X15077Y-28369D01*
X14874Y-28447D01*
X14853Y-28462D01*
X14830Y-28561D01*
X15173Y-28904D01*
X15178Y-28898D01*
X15191Y-28911D01*
X15186Y-28917D01*
X15191Y-28922D01*
X15178Y-28935D01*
X15173Y-28930D01*
X15160Y-28942D01*
X15160Y-28917D01*
X14817Y-28574D01*
X14718Y-28597D01*
X14630Y-28796D01*
X14625Y-29013D01*
X14703Y-29215D01*
X14718Y-29236D01*
X14817Y-29259D01*
X15160Y-28917D01*
X15160Y-28942D01*
X14830Y-29272D01*
X14853Y-29372D01*
X14881Y-29384D01*
X14797Y-29468D01*
X14729Y-29631D01*
X14729Y-29808D01*
X14796Y-29971D01*
X14877Y-30053D01*
X14874Y-30054D01*
X14853Y-30068D01*
X14830Y-30168D01*
X15173Y-30510D01*
X15178Y-30505D01*
X15191Y-30518D01*
X15186Y-30523D01*
X15191Y-30529D01*
X15178Y-30541D01*
X15173Y-30536D01*
X15160Y-30549D01*
X15160Y-30523D01*
X14817Y-30180D01*
X14718Y-30204D01*
X14630Y-30402D01*
X14625Y-30619D01*
X14703Y-30821D01*
X14718Y-30843D01*
X14817Y-30866D01*
X15160Y-30523D01*
X15160Y-30549D01*
X14830Y-30879D01*
X14853Y-30978D01*
X14881Y-30991D01*
X14797Y-31074D01*
X14729Y-31238D01*
X14729Y-31414D01*
X14796Y-31577D01*
X14921Y-31702D01*
X15084Y-31770D01*
X15261Y-31770D01*
X15424Y-31703D01*
X15549Y-31578D01*
X15617Y-31415D01*
X15617Y-31296D01*
X15622Y-31301D01*
X15785Y-31369D01*
X15961Y-31369D01*
X16125Y-31301D01*
X16250Y-31176D01*
X16276Y-31112D01*
X17134Y-31112D01*
X17206Y-31098D01*
X17267Y-31057D01*
X18216Y-30109D01*
X19111Y-30109D01*
X19111Y-30175D01*
X19134Y-30230D01*
X19175Y-30272D01*
X19230Y-30294D01*
X19289Y-30294D01*
X19539Y-30294D01*
X19594Y-30272D01*
X19635Y-30230D01*
X19658Y-30175D01*
X19658Y-30116D01*
X19658Y-45156D01*
X19634Y-45166D01*
X19509Y-45291D01*
X19484Y-45352D01*
X19459Y-45292D01*
X19334Y-45167D01*
X19171Y-45099D01*
X18994Y-45099D01*
X18831Y-45166D01*
X18706Y-45291D01*
X18681Y-45352D01*
X18656Y-45292D01*
X18531Y-45167D01*
X18368Y-45099D01*
X18191Y-45099D01*
X18028Y-45166D01*
X17903Y-45291D01*
X17835Y-45454D01*
X17835Y-45631D01*
X17902Y-45794D01*
X18027Y-45919D01*
X18190Y-45987D01*
X18198Y-45987D01*
X18138Y-46123D01*
X18133Y-46340D01*
X18211Y-46542D01*
X18225Y-46563D01*
X18325Y-46586D01*
X18668Y-46244D01*
X18662Y-46238D01*
X18675Y-46225D01*
X18681Y-46231D01*
X18686Y-46225D01*
X18699Y-46238D01*
X18693Y-46244D01*
X19036Y-46586D01*
X19136Y-46563D01*
X19148Y-46536D01*
X19232Y-46620D01*
X19395Y-46687D01*
X19572Y-46688D01*
X19735Y-46620D01*
X19816Y-46539D01*
X19817Y-46542D01*
X19832Y-46563D01*
X19931Y-46586D01*
X20274Y-46244D01*
X20269Y-46238D01*
X20281Y-46225D01*
X20287Y-46231D01*
X20292Y-46225D01*
X20305Y-46238D01*
X20300Y-46244D01*
X20642Y-46586D01*
X20742Y-46563D01*
X20754Y-46536D01*
X20838Y-46620D01*
X21001Y-46687D01*
X21178Y-46688D01*
X21341Y-46620D01*
X21466Y-46495D01*
X21534Y-46332D01*
X21534Y-46156D01*
X21467Y-45992D01*
X21342Y-45867D01*
X21179Y-45800D01*
X21060Y-45800D01*
X21065Y-45795D01*
X21132Y-45631D01*
X21132Y-45455D01*
X21065Y-45292D01*
X20940Y-45167D01*
X20876Y-45140D01*
X20876Y-42703D01*
X22232Y-41347D01*
X26190Y-41347D01*
X26261Y-41333D01*
X26322Y-41292D01*
X28375Y-39240D01*
X28375Y-45140D01*
X28311Y-45166D01*
X28186Y-45291D01*
X28161Y-45352D01*
X28136Y-45292D01*
X28011Y-45167D01*
X27848Y-45099D01*
X27671Y-45099D01*
X27508Y-45166D01*
X27383Y-45291D01*
X27358Y-45352D01*
X27333Y-45292D01*
X27208Y-45167D01*
X27045Y-45099D01*
X26868Y-45099D01*
X26705Y-45166D01*
X26580Y-45291D01*
X26555Y-45352D01*
X26530Y-45292D01*
X26405Y-45167D01*
X26242Y-45099D01*
X26065Y-45099D01*
X25902Y-45166D01*
X25777Y-45291D01*
X25709Y-45454D01*
X25709Y-45631D01*
X25776Y-45794D01*
X25901Y-45919D01*
X26064Y-45987D01*
X26072Y-45987D01*
X26012Y-46123D01*
X26007Y-46340D01*
X26085Y-46542D01*
X26099Y-46563D01*
X26199Y-46586D01*
X26542Y-46244D01*
X26536Y-46238D01*
X26549Y-46225D01*
X26555Y-46231D01*
X26560Y-46225D01*
X26573Y-46238D01*
X26567Y-46244D01*
X26910Y-46586D01*
X27010Y-46563D01*
X27022Y-46536D01*
X27106Y-46620D01*
X27269Y-46687D01*
X27446Y-46688D01*
X27609Y-46620D01*
X27690Y-46539D01*
X27691Y-46542D01*
X27706Y-46563D01*
X27805Y-46586D01*
X28148Y-46244D01*
X28143Y-46238D01*
X28155Y-46225D01*
X28161Y-46231D01*
X28166Y-46225D01*
X28179Y-46238D01*
X28174Y-46244D01*
X28516Y-46586D01*
X28616Y-46563D01*
X28628Y-46536D01*
X28712Y-46620D01*
X28875Y-46687D01*
X29052Y-46688D01*
X29215Y-46620D01*
X29340Y-46495D01*
X29408Y-46332D01*
X29408Y-46156D01*
X29341Y-45992D01*
X29216Y-45867D01*
X29053Y-45800D01*
X28934Y-45800D01*
X28939Y-45795D01*
X29006Y-45631D01*
X29006Y-45455D01*
X28939Y-45292D01*
X28814Y-45167D01*
X28750Y-45140D01*
X28750Y-39087D01*
X29650Y-38188D01*
X29690Y-38127D01*
X29705Y-38055D01*
X29705Y-32530D01*
X30628Y-31606D01*
X30669Y-31545D01*
X30669Y-31545D01*
X30683Y-31473D01*
X30683Y-31405D01*
X30705Y-31397D01*
X30746Y-31356D01*
X30786Y-31397D01*
X30841Y-31419D01*
X30900Y-31419D01*
X31150Y-31419D01*
X31205Y-31397D01*
X31246Y-31356D01*
X31286Y-31397D01*
X31308Y-31405D01*
X31308Y-31541D01*
X31322Y-31612D01*
X31363Y-31673D01*
X31650Y-31961D01*
X31650Y-35716D01*
X31665Y-35788D01*
X31705Y-35849D01*
X36249Y-40392D01*
X36249Y-45140D01*
X36185Y-45166D01*
X36060Y-45291D01*
X36035Y-45352D01*
X36010Y-45292D01*
X35885Y-45167D01*
X35722Y-45099D01*
X35545Y-45099D01*
X35382Y-45166D01*
X35257Y-45291D01*
X35232Y-45352D01*
X35207Y-45292D01*
X35082Y-45167D01*
X34919Y-45099D01*
X34742Y-45099D01*
X34579Y-45166D01*
X34454Y-45291D01*
X34429Y-45352D01*
X34404Y-45292D01*
X34279Y-45167D01*
X34116Y-45099D01*
X33939Y-45099D01*
X33776Y-45166D01*
X33651Y-45291D01*
X33583Y-45454D01*
X33583Y-45631D01*
X33650Y-45794D01*
X33775Y-45919D01*
X33938Y-45987D01*
X33946Y-45987D01*
X33886Y-46123D01*
X33881Y-46340D01*
X33959Y-46542D01*
X33973Y-46563D01*
X34073Y-46586D01*
X34416Y-46244D01*
X34410Y-46238D01*
X34423Y-46225D01*
X34429Y-46231D01*
X34434Y-46225D01*
X34447Y-46238D01*
X34441Y-46244D01*
X34784Y-46586D01*
X34884Y-46563D01*
X34896Y-46536D01*
X34980Y-46620D01*
X35143Y-46687D01*
X35320Y-46688D01*
X35483Y-46620D01*
X35564Y-46539D01*
X35566Y-46542D01*
X35580Y-46563D01*
X35679Y-46586D01*
X36022Y-46244D01*
X36017Y-46238D01*
X36029Y-46225D01*
X36035Y-46231D01*
X36041Y-46225D01*
X36053Y-46238D01*
X36048Y-46244D01*
X36390Y-46586D01*
X36490Y-46563D01*
X36502Y-46536D01*
X36586Y-46620D01*
X36749Y-46687D01*
X36926Y-46688D01*
X37089Y-46620D01*
X37214Y-46495D01*
X37282Y-46332D01*
X37282Y-46156D01*
X37215Y-45992D01*
X37090Y-45867D01*
X36927Y-45800D01*
X36808Y-45800D01*
X36813Y-45795D01*
X36880Y-45631D01*
X36881Y-45455D01*
X36813Y-45292D01*
X36688Y-45167D01*
X36624Y-45140D01*
X36624Y-40545D01*
X37362Y-41282D01*
X37423Y-41323D01*
X37423Y-41323D01*
X37495Y-41337D01*
X42717Y-41337D01*
X44123Y-42743D01*
X44123Y-45140D01*
X44059Y-45166D01*
X43934Y-45291D01*
X43909Y-45352D01*
X43884Y-45292D01*
X43759Y-45167D01*
X43596Y-45099D01*
X43419Y-45099D01*
X43256Y-45166D01*
X43131Y-45291D01*
X43106Y-45352D01*
X43081Y-45292D01*
X42956Y-45167D01*
X42793Y-45099D01*
X42616Y-45099D01*
X42453Y-45166D01*
X42328Y-45291D01*
X42303Y-45352D01*
X42278Y-45292D01*
X42153Y-45167D01*
X41990Y-45099D01*
X41813Y-45099D01*
X41650Y-45166D01*
X41525Y-45291D01*
X41457Y-45454D01*
X41457Y-45631D01*
X41525Y-45794D01*
X41649Y-45919D01*
X41812Y-45987D01*
X41820Y-45987D01*
X41760Y-46123D01*
X41755Y-46340D01*
X41833Y-46542D01*
X41847Y-46563D01*
X41947Y-46586D01*
X42290Y-46244D01*
X42284Y-46238D01*
X42297Y-46225D01*
X42303Y-46231D01*
X42308Y-46225D01*
X42321Y-46238D01*
X42315Y-46244D01*
X42658Y-46586D01*
X42758Y-46563D01*
X42770Y-46536D01*
X42854Y-46620D01*
X43017Y-46687D01*
X43194Y-46688D01*
X43357Y-46620D01*
X43438Y-46539D01*
X43440Y-46542D01*
X43454Y-46563D01*
X43554Y-46586D01*
X43896Y-46244D01*
X43891Y-46238D01*
X43903Y-46225D01*
X43909Y-46231D01*
X43915Y-46225D01*
X43927Y-46238D01*
X43922Y-46244D01*
X44264Y-46586D01*
X44364Y-46563D01*
X44376Y-46536D01*
X44460Y-46620D01*
X44623Y-46687D01*
X44800Y-46688D01*
X44963Y-46620D01*
X45088Y-46495D01*
X45156Y-46332D01*
X45156Y-46156D01*
X45089Y-45992D01*
X44964Y-45867D01*
X44801Y-45800D01*
X44682Y-45800D01*
X44687Y-45795D01*
X44754Y-45631D01*
X44755Y-45455D01*
X44687Y-45292D01*
X44562Y-45167D01*
X44498Y-45140D01*
X44498Y-42666D01*
X44484Y-42594D01*
X44443Y-42533D01*
X42927Y-41017D01*
X42866Y-40976D01*
X42795Y-40962D01*
X42646Y-40962D01*
X42646Y-33794D01*
X42597Y-33675D01*
X42506Y-33584D01*
X42387Y-33534D01*
X42258Y-33534D01*
X42139Y-33583D01*
X42048Y-33674D01*
X42026Y-33728D01*
X41449Y-33728D01*
X41444Y-33716D01*
X41402Y-33674D01*
X41388Y-33668D01*
X41388Y-33455D01*
X41417Y-33455D01*
X41549Y-33429D01*
X41661Y-33354D01*
X41736Y-33242D01*
X41762Y-33110D01*
X41736Y-32978D01*
X41736Y-32978D01*
X41706Y-32933D01*
X41661Y-32866D01*
X41661Y-32866D01*
X41419Y-32624D01*
X41419Y-29017D01*
X41419Y-28914D01*
X41357Y-28852D01*
X40953Y-28852D01*
X40953Y-29155D01*
X41016Y-29218D01*
X41120Y-29218D01*
X41219Y-29218D01*
X41311Y-29180D01*
X41381Y-29109D01*
X41419Y-29017D01*
X41419Y-32624D01*
X41287Y-32492D01*
X41287Y-32492D01*
X41287Y-32492D01*
X41189Y-32393D01*
X41077Y-32318D01*
X40944Y-32292D01*
X40944Y-32292D01*
X40935Y-32294D01*
X40935Y-29155D01*
X40935Y-28852D01*
X40532Y-28852D01*
X40469Y-28914D01*
X40469Y-29017D01*
X40507Y-29109D01*
X40578Y-29180D01*
X40669Y-29218D01*
X40769Y-29218D01*
X40873Y-29218D01*
X40935Y-29155D01*
X40935Y-32294D01*
X40918Y-32297D01*
X40812Y-32318D01*
X40700Y-32393D01*
X40700Y-32393D01*
X40267Y-32826D01*
X40267Y-32826D01*
X40093Y-33001D01*
X39459Y-33001D01*
X39437Y-32947D01*
X39395Y-32905D01*
X39341Y-32883D01*
X39282Y-32882D01*
X39226Y-32882D01*
X39226Y-32795D01*
X39226Y-31811D01*
X39226Y-31711D01*
X39187Y-31620D01*
X39117Y-31549D01*
X39025Y-31511D01*
X38654Y-31511D01*
X38591Y-31574D01*
X38591Y-32294D01*
X39163Y-32294D01*
X39226Y-32231D01*
X39226Y-31811D01*
X39226Y-32795D01*
X39226Y-32374D01*
X39163Y-32312D01*
X38591Y-32312D01*
X38591Y-32647D01*
X38591Y-33032D01*
X38591Y-33239D01*
X38599Y-33239D01*
X38599Y-33257D01*
X38591Y-33257D01*
X38591Y-33849D01*
X38654Y-33911D01*
X38770Y-33911D01*
X38862Y-33873D01*
X38932Y-33803D01*
X38942Y-33778D01*
X38951Y-33787D01*
X39006Y-33809D01*
X39065Y-33809D01*
X39341Y-33809D01*
X39395Y-33787D01*
X39437Y-33745D01*
X39459Y-33691D01*
X40236Y-33691D01*
X40368Y-33665D01*
X40480Y-33590D01*
X40615Y-33455D01*
X40698Y-33455D01*
X40698Y-33668D01*
X40684Y-33674D01*
X40642Y-33716D01*
X40619Y-33770D01*
X40619Y-33829D01*
X40619Y-34179D01*
X40642Y-34234D01*
X40684Y-34276D01*
X40738Y-34298D01*
X40797Y-34298D01*
X40933Y-34298D01*
X40941Y-34300D01*
X40817Y-34300D01*
X40718Y-34300D01*
X40626Y-34338D01*
X40556Y-34408D01*
X40518Y-34500D01*
X40518Y-34653D01*
X40580Y-34716D01*
X41034Y-34716D01*
X41034Y-34708D01*
X41052Y-34708D01*
X41052Y-34716D01*
X41505Y-34716D01*
X41568Y-34653D01*
X41568Y-34500D01*
X41530Y-34408D01*
X41460Y-34338D01*
X41368Y-34300D01*
X41268Y-34300D01*
X41145Y-34300D01*
X41153Y-34298D01*
X41347Y-34298D01*
X41402Y-34276D01*
X41444Y-34234D01*
X41449Y-34222D01*
X42205Y-34222D01*
X42300Y-34203D01*
X42300Y-34203D01*
X42332Y-34181D01*
X42332Y-34181D01*
X42386Y-34181D01*
X42505Y-34132D01*
X42596Y-34041D01*
X42646Y-33922D01*
X42646Y-33794D01*
X42646Y-40962D01*
X41568Y-40962D01*
X41568Y-34949D01*
X41568Y-34796D01*
X41505Y-34734D01*
X41052Y-34734D01*
X41052Y-35087D01*
X41114Y-35150D01*
X41268Y-35150D01*
X41368Y-35150D01*
X41460Y-35112D01*
X41530Y-35041D01*
X41568Y-34949D01*
X41568Y-40962D01*
X41034Y-40962D01*
X41034Y-35087D01*
X41034Y-34734D01*
X40580Y-34734D01*
X40518Y-34796D01*
X40518Y-34949D01*
X40556Y-35041D01*
X40626Y-35112D01*
X40718Y-35150D01*
X40817Y-35150D01*
X40971Y-35150D01*
X41034Y-35087D01*
X41034Y-40962D01*
X38573Y-40962D01*
X38573Y-33849D01*
X38573Y-33257D01*
X38565Y-33257D01*
X38565Y-33239D01*
X38573Y-33239D01*
X38573Y-33032D01*
X38573Y-32647D01*
X38573Y-32312D01*
X38573Y-32294D01*
X38573Y-31574D01*
X38511Y-31511D01*
X38139Y-31511D01*
X38047Y-31549D01*
X37977Y-31620D01*
X37939Y-31711D01*
X37939Y-31811D01*
X37939Y-32231D01*
X38001Y-32294D01*
X38573Y-32294D01*
X38573Y-32312D01*
X38001Y-32312D01*
X37939Y-32374D01*
X37939Y-32795D01*
X37939Y-32882D01*
X37824Y-32882D01*
X37769Y-32905D01*
X37727Y-32947D01*
X37705Y-33001D01*
X37662Y-33001D01*
X37488Y-32826D01*
X36818Y-32157D01*
X36706Y-32082D01*
X36574Y-32056D01*
X36442Y-32082D01*
X36330Y-32157D01*
X36255Y-32269D01*
X36229Y-32401D01*
X36229Y-32927D01*
X36039Y-33118D01*
X36039Y-30324D01*
X36039Y-30287D01*
X35986Y-30234D01*
X36001Y-30219D01*
X36027Y-30156D01*
X36039Y-30144D01*
X36039Y-30127D01*
X36039Y-30127D01*
X36039Y-30117D01*
X36039Y-30107D01*
X36039Y-30107D01*
X36039Y-30090D01*
X36027Y-30078D01*
X36002Y-30019D01*
X36027Y-29959D01*
X36039Y-29947D01*
X36039Y-29930D01*
X36039Y-29930D01*
X36039Y-29920D01*
X36039Y-29910D01*
X36039Y-29910D01*
X36039Y-29893D01*
X36027Y-29881D01*
X36002Y-29822D01*
X36027Y-29762D01*
X36039Y-29750D01*
X36039Y-29733D01*
X36039Y-29733D01*
X36039Y-29723D01*
X36039Y-29713D01*
X36039Y-29713D01*
X36039Y-29696D01*
X36027Y-29684D01*
X36001Y-29621D01*
X35986Y-29606D01*
X36039Y-29553D01*
X36039Y-29516D01*
X36001Y-29424D01*
X35930Y-29354D01*
X35839Y-29316D01*
X35739Y-29316D01*
X35732Y-29316D01*
X35670Y-29378D01*
X35670Y-29575D01*
X35670Y-29616D01*
X35670Y-29634D01*
X35670Y-29772D01*
X35670Y-29813D01*
X35670Y-29831D01*
X35670Y-29871D01*
X35670Y-29969D01*
X35670Y-30010D01*
X35670Y-30028D01*
X35670Y-30068D01*
X35670Y-30207D01*
X35670Y-30225D01*
X35670Y-30265D01*
X35670Y-30462D01*
X35732Y-30525D01*
X35739Y-30525D01*
X35839Y-30525D01*
X35930Y-30487D01*
X36001Y-30416D01*
X36039Y-30324D01*
X36039Y-33118D01*
X35877Y-33279D01*
X35803Y-33391D01*
X35776Y-33523D01*
X35776Y-33668D01*
X35763Y-33674D01*
X35723Y-33714D01*
X35707Y-33675D01*
X35616Y-33584D01*
X35497Y-33534D01*
X35369Y-33534D01*
X35250Y-33583D01*
X35159Y-33674D01*
X35109Y-33793D01*
X35109Y-33922D01*
X35158Y-34041D01*
X35249Y-34132D01*
X35368Y-34181D01*
X35423Y-34181D01*
X35423Y-34181D01*
X35455Y-34203D01*
X35455Y-34203D01*
X35550Y-34222D01*
X35716Y-34222D01*
X35721Y-34234D01*
X35762Y-34276D01*
X35817Y-34298D01*
X35876Y-34298D01*
X36012Y-34298D01*
X36020Y-34300D01*
X35896Y-34300D01*
X35797Y-34300D01*
X35705Y-34338D01*
X35634Y-34408D01*
X35597Y-34500D01*
X35597Y-34653D01*
X35659Y-34716D01*
X36112Y-34716D01*
X36112Y-34708D01*
X36131Y-34708D01*
X36131Y-34716D01*
X36584Y-34716D01*
X36647Y-34653D01*
X36647Y-34500D01*
X36609Y-34408D01*
X36538Y-34338D01*
X36446Y-34300D01*
X36347Y-34300D01*
X36224Y-34300D01*
X36231Y-34298D01*
X36426Y-34298D01*
X36481Y-34276D01*
X36522Y-34234D01*
X36545Y-34180D01*
X36545Y-34120D01*
X36545Y-33770D01*
X36522Y-33716D01*
X36481Y-33674D01*
X36467Y-33668D01*
X36467Y-33666D01*
X36717Y-33416D01*
X37101Y-33416D01*
X37275Y-33590D01*
X37275Y-33590D01*
X37342Y-33635D01*
X37387Y-33665D01*
X37387Y-33665D01*
X37519Y-33691D01*
X37705Y-33691D01*
X37727Y-33745D01*
X37769Y-33787D01*
X37824Y-33809D01*
X37883Y-33809D01*
X38159Y-33809D01*
X38213Y-33787D01*
X38222Y-33778D01*
X38232Y-33803D01*
X38303Y-33873D01*
X38395Y-33911D01*
X38511Y-33911D01*
X38573Y-33849D01*
X38573Y-40962D01*
X37572Y-40962D01*
X36647Y-40036D01*
X36647Y-34949D01*
X36647Y-34796D01*
X36584Y-34734D01*
X36131Y-34734D01*
X36131Y-35087D01*
X36193Y-35150D01*
X36347Y-35150D01*
X36446Y-35150D01*
X36538Y-35112D01*
X36609Y-35041D01*
X36647Y-34949D01*
X36647Y-40036D01*
X36112Y-39502D01*
X36112Y-35087D01*
X36112Y-34734D01*
X35659Y-34734D01*
X35597Y-34796D01*
X35597Y-34949D01*
X35634Y-35041D01*
X35705Y-35112D01*
X35797Y-35150D01*
X35896Y-35150D01*
X36050Y-35150D01*
X36112Y-35087D01*
X36112Y-39502D01*
X32232Y-35622D01*
X32232Y-32502D01*
X32334Y-32401D01*
X32411Y-32401D01*
X32516Y-32357D01*
X32572Y-32302D01*
X33505Y-32302D01*
X33576Y-32288D01*
X33637Y-32247D01*
X34002Y-31882D01*
X35340Y-30544D01*
X35340Y-30544D01*
X35340Y-30544D01*
X35381Y-30483D01*
X35381Y-30483D01*
X35382Y-30478D01*
X35391Y-30487D01*
X35483Y-30525D01*
X35582Y-30525D01*
X35589Y-30525D01*
X35652Y-30462D01*
X35652Y-30265D01*
X35652Y-30225D01*
X35652Y-30207D01*
X35652Y-30068D01*
X35652Y-30028D01*
X35652Y-30010D01*
X35652Y-29969D01*
X35652Y-29871D01*
X35652Y-29831D01*
X35652Y-29813D01*
X35652Y-29772D01*
X35652Y-29634D01*
X35652Y-29616D01*
X35652Y-29575D01*
X35652Y-29378D01*
X35589Y-29316D01*
X35582Y-29316D01*
X35483Y-29316D01*
X35391Y-29354D01*
X35327Y-29417D01*
X35306Y-29417D01*
X35050Y-29417D01*
X35003Y-29437D01*
X34572Y-29437D01*
X34548Y-29421D01*
X34476Y-29406D01*
X33227Y-29406D01*
X33040Y-29219D01*
X33150Y-29219D01*
X33205Y-29197D01*
X33246Y-29155D01*
X33269Y-29100D01*
X33269Y-29041D01*
X33269Y-29009D01*
X33363Y-29009D01*
X33435Y-28994D01*
X33496Y-28954D01*
X33689Y-28761D01*
X33766Y-28761D01*
X33871Y-28717D01*
X33952Y-28637D01*
X33996Y-28532D01*
X33996Y-28418D01*
X33956Y-28322D01*
X34010Y-28376D01*
X34071Y-28416D01*
X34071Y-28416D01*
X34143Y-28431D01*
X40585Y-28431D01*
X40593Y-28452D01*
X40627Y-28485D01*
X40578Y-28506D01*
X40507Y-28576D01*
X40469Y-28668D01*
X40469Y-28771D01*
X40532Y-28834D01*
X40935Y-28834D01*
X40935Y-28826D01*
X40953Y-28826D01*
X40953Y-28834D01*
X41357Y-28834D01*
X41419Y-28771D01*
X41419Y-28668D01*
X41381Y-28576D01*
X41311Y-28506D01*
X41262Y-28485D01*
X41295Y-28452D01*
X41301Y-28437D01*
X43330Y-28437D01*
X46372Y-28437D01*
X46700Y-28765D01*
X46674Y-28828D01*
X46674Y-29005D01*
X46741Y-29168D01*
X46866Y-29293D01*
X46927Y-29318D01*
X46866Y-29343D01*
X46741Y-29468D01*
X46674Y-29631D01*
X46674Y-29808D01*
X46741Y-29971D01*
X46866Y-30096D01*
X46927Y-30122D01*
X46866Y-30147D01*
X46741Y-30271D01*
X46674Y-30434D01*
X46674Y-30611D01*
X46741Y-30774D01*
X46866Y-30899D01*
X46927Y-30925D01*
X46866Y-30950D01*
X46741Y-31074D01*
X46674Y-31238D01*
X46674Y-31414D01*
X46741Y-31577D01*
X46866Y-31702D01*
X47029Y-31770D01*
X47206Y-31770D01*
X47369Y-31703D01*
X47494Y-31578D01*
X47561Y-31415D01*
X47561Y-31408D01*
X47697Y-31468D01*
X47914Y-31473D01*
X48117Y-31394D01*
X48138Y-31380D01*
X48161Y-31280D01*
X47818Y-30938D01*
X47813Y-30943D01*
X47800Y-30930D01*
X47806Y-30925D01*
X47800Y-30919D01*
X47813Y-30906D01*
X47818Y-30912D01*
X48161Y-30569D01*
X48138Y-30469D01*
X48110Y-30457D01*
X48195Y-30373D01*
X48262Y-30210D01*
X48262Y-30034D01*
X48262Y-30603D01*
X48174Y-30582D01*
X47831Y-30925D01*
X48174Y-31267D01*
X48274Y-31244D01*
X48361Y-31046D01*
X48366Y-30829D01*
X48366Y-31670D01*
X48328Y-31685D01*
X48084Y-31929D01*
X47952Y-32248D01*
X47951Y-32592D01*
X47998Y-32706D01*
X47923Y-32680D01*
X47910Y-32693D01*
X47910Y-32667D01*
X47870Y-32553D01*
X47622Y-32442D01*
X47350Y-32435D01*
X47096Y-32533D01*
X47066Y-32553D01*
X47026Y-32667D01*
X47468Y-33109D01*
X47910Y-32667D01*
X47910Y-32693D01*
X47481Y-33122D01*
X47923Y-33563D01*
X48037Y-33524D01*
X48147Y-33275D01*
X48154Y-33004D01*
X48141Y-32970D01*
X48327Y-33155D01*
X48645Y-33288D01*
X48990Y-33288D01*
X49309Y-33156D01*
X49553Y-32912D01*
X49685Y-32594D01*
X49685Y-32249D01*
X49685Y-46394D01*
X49478Y-46308D01*
X48949Y-46308D01*
X48460Y-46510D01*
X48086Y-46883D01*
X47910Y-47307D01*
X47910Y-33576D01*
X47468Y-33134D01*
X47455Y-33147D01*
X47455Y-33122D01*
X47013Y-32680D01*
X46899Y-32720D01*
X46789Y-32968D01*
X46782Y-33239D01*
X46879Y-33493D01*
X46899Y-33524D01*
X47013Y-33563D01*
X47455Y-33122D01*
X47455Y-33147D01*
X47026Y-33576D01*
X47066Y-33690D01*
X47314Y-33801D01*
X47586Y-33808D01*
X47840Y-33711D01*
X47870Y-33690D01*
X47910Y-33576D01*
X47910Y-47307D01*
X47883Y-47372D01*
X47882Y-47901D01*
X48084Y-48389D01*
X48458Y-48764D01*
X48946Y-48967D01*
X49475Y-48967D01*
X49964Y-48765D01*
X50339Y-48391D01*
X50541Y-47903D01*
X50542Y-47374D01*
X50542Y-49438D01*
X47194Y-49438D01*
X47194Y-45775D01*
X47096Y-45522D01*
X47076Y-45491D01*
X46962Y-45451D01*
X46949Y-45464D01*
X46949Y-45439D01*
X46909Y-45324D01*
X46661Y-45214D01*
X46389Y-45207D01*
X46136Y-45304D01*
X46105Y-45324D01*
X46066Y-45439D01*
X46507Y-45880D01*
X46949Y-45439D01*
X46949Y-45464D01*
X46520Y-45893D01*
X46962Y-46335D01*
X47076Y-46295D01*
X47187Y-46047D01*
X47194Y-45775D01*
X47194Y-49438D01*
X46949Y-49438D01*
X46949Y-46348D01*
X46507Y-45906D01*
X46495Y-45919D01*
X46495Y-45893D01*
X46053Y-45451D01*
X45939Y-45491D01*
X45828Y-45739D01*
X45821Y-46011D01*
X45918Y-46265D01*
X45939Y-46295D01*
X46053Y-46335D01*
X46495Y-45893D01*
X46495Y-45919D01*
X46066Y-46348D01*
X46092Y-46423D01*
X45980Y-46377D01*
X45635Y-46377D01*
X45316Y-46508D01*
X45072Y-46752D01*
X44940Y-47070D01*
X44940Y-47415D01*
X45071Y-47734D01*
X45315Y-47978D01*
X45633Y-48110D01*
X45978Y-48111D01*
X46297Y-47979D01*
X46541Y-47735D01*
X46673Y-47417D01*
X46674Y-47072D01*
X46542Y-46753D01*
X46362Y-46573D01*
X46625Y-46580D01*
X46879Y-46482D01*
X46909Y-46462D01*
X46949Y-46348D01*
X46949Y-49438D01*
X44252Y-49438D01*
X44252Y-46599D01*
X43909Y-46256D01*
X43566Y-46599D01*
X43589Y-46699D01*
X43788Y-46786D01*
X44005Y-46791D01*
X44207Y-46713D01*
X44228Y-46699D01*
X44252Y-46599D01*
X44252Y-49438D01*
X42645Y-49438D01*
X42645Y-46599D01*
X42303Y-46256D01*
X41960Y-46599D01*
X41983Y-46699D01*
X42182Y-46786D01*
X42399Y-46791D01*
X42601Y-46713D01*
X42622Y-46699D01*
X42645Y-46599D01*
X42645Y-49438D01*
X41674Y-49438D01*
X41674Y-47072D01*
X41542Y-46753D01*
X41298Y-46509D01*
X40980Y-46377D01*
X40792Y-46377D01*
X40792Y-45775D01*
X40695Y-45522D01*
X40675Y-45491D01*
X40560Y-45451D01*
X40548Y-45464D01*
X40548Y-45439D01*
X40508Y-45324D01*
X40260Y-45214D01*
X39988Y-45207D01*
X39734Y-45304D01*
X39704Y-45324D01*
X39664Y-45439D01*
X40106Y-45880D01*
X40548Y-45439D01*
X40548Y-45464D01*
X40119Y-45893D01*
X40560Y-46335D01*
X40675Y-46295D01*
X40785Y-46047D01*
X40792Y-45775D01*
X40792Y-46377D01*
X40635Y-46377D01*
X40521Y-46423D01*
X40548Y-46348D01*
X40106Y-45906D01*
X40093Y-45919D01*
X40093Y-45893D01*
X39651Y-45451D01*
X39537Y-45491D01*
X39427Y-45739D01*
X39419Y-46011D01*
X39517Y-46265D01*
X39537Y-46295D01*
X39651Y-46335D01*
X40093Y-45893D01*
X40093Y-45919D01*
X39664Y-46348D01*
X39704Y-46462D01*
X39952Y-46572D01*
X40224Y-46580D01*
X40258Y-46567D01*
X40072Y-46752D01*
X39940Y-47070D01*
X39940Y-47415D01*
X40071Y-47734D01*
X40315Y-47978D01*
X40633Y-48110D01*
X40978Y-48111D01*
X41297Y-47979D01*
X41541Y-47735D01*
X41673Y-47417D01*
X41674Y-47072D01*
X41674Y-49438D01*
X39320Y-49438D01*
X39320Y-45775D01*
X39222Y-45522D01*
X39202Y-45491D01*
X39088Y-45451D01*
X39075Y-45464D01*
X39075Y-45439D01*
X39035Y-45324D01*
X38787Y-45214D01*
X38515Y-45207D01*
X38262Y-45304D01*
X38231Y-45324D01*
X38192Y-45439D01*
X38633Y-45880D01*
X39075Y-45439D01*
X39075Y-45464D01*
X38646Y-45893D01*
X39088Y-46335D01*
X39202Y-46295D01*
X39313Y-46047D01*
X39320Y-45775D01*
X39320Y-49438D01*
X39075Y-49438D01*
X39075Y-46348D01*
X38633Y-45906D01*
X38621Y-45919D01*
X38621Y-45893D01*
X38179Y-45451D01*
X38065Y-45491D01*
X37954Y-45739D01*
X37947Y-46011D01*
X38044Y-46265D01*
X38065Y-46295D01*
X38179Y-46335D01*
X38621Y-45893D01*
X38621Y-45919D01*
X38192Y-46348D01*
X38218Y-46423D01*
X38106Y-46377D01*
X37761Y-46377D01*
X37442Y-46508D01*
X37198Y-46752D01*
X37066Y-47070D01*
X37065Y-47415D01*
X37197Y-47734D01*
X37441Y-47978D01*
X37759Y-48110D01*
X38104Y-48111D01*
X38423Y-47979D01*
X38667Y-47735D01*
X38799Y-47417D01*
X38800Y-47072D01*
X38668Y-46753D01*
X38488Y-46573D01*
X38751Y-46580D01*
X39005Y-46482D01*
X39035Y-46462D01*
X39075Y-46348D01*
X39075Y-49438D01*
X36378Y-49438D01*
X36378Y-46599D01*
X36035Y-46256D01*
X35692Y-46599D01*
X35715Y-46699D01*
X35914Y-46786D01*
X36131Y-46791D01*
X36333Y-46713D01*
X36354Y-46699D01*
X36378Y-46599D01*
X36378Y-49438D01*
X34771Y-49438D01*
X34771Y-46599D01*
X34429Y-46256D01*
X34086Y-46599D01*
X34109Y-46699D01*
X34308Y-46786D01*
X34525Y-46791D01*
X34727Y-46713D01*
X34748Y-46699D01*
X34771Y-46599D01*
X34771Y-49438D01*
X33800Y-49438D01*
X33800Y-47072D01*
X33668Y-46753D01*
X33424Y-46509D01*
X33106Y-46377D01*
X32918Y-46377D01*
X32918Y-45775D01*
X32821Y-45522D01*
X32801Y-45491D01*
X32686Y-45451D01*
X32674Y-45464D01*
X32674Y-45439D01*
X32634Y-45324D01*
X32386Y-45214D01*
X32114Y-45207D01*
X31860Y-45304D01*
X31830Y-45324D01*
X31790Y-45439D01*
X32232Y-45880D01*
X32674Y-45439D01*
X32674Y-45464D01*
X32245Y-45893D01*
X32686Y-46335D01*
X32801Y-46295D01*
X32911Y-46047D01*
X32918Y-45775D01*
X32918Y-46377D01*
X32761Y-46377D01*
X32647Y-46423D01*
X32674Y-46348D01*
X32232Y-45906D01*
X32219Y-45919D01*
X32219Y-45893D01*
X31777Y-45451D01*
X31663Y-45491D01*
X31553Y-45739D01*
X31545Y-46011D01*
X31643Y-46265D01*
X31663Y-46295D01*
X31777Y-46335D01*
X32219Y-45893D01*
X32219Y-45919D01*
X31790Y-46348D01*
X31830Y-46462D01*
X32078Y-46572D01*
X32350Y-46580D01*
X32384Y-46567D01*
X32198Y-46752D01*
X32066Y-47070D01*
X32065Y-47415D01*
X32197Y-47734D01*
X32441Y-47978D01*
X32759Y-48110D01*
X33104Y-48111D01*
X33423Y-47979D01*
X33667Y-47735D01*
X33799Y-47417D01*
X33800Y-47072D01*
X33800Y-49438D01*
X31446Y-49438D01*
X31446Y-45775D01*
X31348Y-45522D01*
X31328Y-45491D01*
X31214Y-45451D01*
X31201Y-45464D01*
X31201Y-45439D01*
X31161Y-45324D01*
X30913Y-45214D01*
X30641Y-45207D01*
X30388Y-45304D01*
X30357Y-45324D01*
X30318Y-45439D01*
X30759Y-45880D01*
X31201Y-45439D01*
X31201Y-45464D01*
X30772Y-45893D01*
X31214Y-46335D01*
X31328Y-46295D01*
X31439Y-46047D01*
X31446Y-45775D01*
X31446Y-49438D01*
X31201Y-49438D01*
X31201Y-46348D01*
X30759Y-45906D01*
X30747Y-45919D01*
X30747Y-45893D01*
X30305Y-45451D01*
X30191Y-45491D01*
X30080Y-45739D01*
X30073Y-46011D01*
X30170Y-46265D01*
X30191Y-46295D01*
X30305Y-46335D01*
X30747Y-45893D01*
X30747Y-45919D01*
X30318Y-46348D01*
X30344Y-46423D01*
X30232Y-46377D01*
X29887Y-46377D01*
X29568Y-46508D01*
X29324Y-46752D01*
X29192Y-47070D01*
X29191Y-47415D01*
X29323Y-47734D01*
X29567Y-47978D01*
X29885Y-48110D01*
X30230Y-48111D01*
X30549Y-47979D01*
X30793Y-47735D01*
X30925Y-47417D01*
X30926Y-47072D01*
X30794Y-46753D01*
X30614Y-46573D01*
X30877Y-46580D01*
X31131Y-46482D01*
X31161Y-46462D01*
X31201Y-46348D01*
X31201Y-49438D01*
X28504Y-49438D01*
X28504Y-46599D01*
X28161Y-46256D01*
X27818Y-46599D01*
X27841Y-46699D01*
X28040Y-46786D01*
X28257Y-46791D01*
X28459Y-46713D01*
X28480Y-46699D01*
X28504Y-46599D01*
X28504Y-49438D01*
X26897Y-49438D01*
X26897Y-46599D01*
X26555Y-46256D01*
X26212Y-46599D01*
X26235Y-46699D01*
X26434Y-46786D01*
X26651Y-46791D01*
X26853Y-46713D01*
X26874Y-46699D01*
X26897Y-46599D01*
X26897Y-49438D01*
X25926Y-49438D01*
X25926Y-47072D01*
X25794Y-46753D01*
X25550Y-46509D01*
X25232Y-46377D01*
X25044Y-46377D01*
X25044Y-45775D01*
X24947Y-45522D01*
X24926Y-45491D01*
X24812Y-45451D01*
X24800Y-45464D01*
X24800Y-45439D01*
X24760Y-45324D01*
X24512Y-45214D01*
X24240Y-45207D01*
X23986Y-45304D01*
X23956Y-45324D01*
X23916Y-45439D01*
X24358Y-45880D01*
X24800Y-45439D01*
X24800Y-45464D01*
X24371Y-45893D01*
X24812Y-46335D01*
X24926Y-46295D01*
X25037Y-46047D01*
X25044Y-45775D01*
X25044Y-46377D01*
X24887Y-46377D01*
X24773Y-46423D01*
X24800Y-46348D01*
X24358Y-45906D01*
X24345Y-45919D01*
X24345Y-45893D01*
X23903Y-45451D01*
X23789Y-45491D01*
X23679Y-45739D01*
X23671Y-46011D01*
X23769Y-46265D01*
X23789Y-46295D01*
X23903Y-46335D01*
X24345Y-45893D01*
X24345Y-45919D01*
X23916Y-46348D01*
X23956Y-46462D01*
X24204Y-46572D01*
X24476Y-46580D01*
X24510Y-46567D01*
X24324Y-46752D01*
X24192Y-47070D01*
X24191Y-47415D01*
X24323Y-47734D01*
X24567Y-47978D01*
X24885Y-48110D01*
X25230Y-48111D01*
X25549Y-47979D01*
X25793Y-47735D01*
X25925Y-47417D01*
X25926Y-47072D01*
X25926Y-49438D01*
X23572Y-49438D01*
X23572Y-45775D01*
X23474Y-45522D01*
X23454Y-45491D01*
X23340Y-45451D01*
X23327Y-45464D01*
X23327Y-45439D01*
X23287Y-45324D01*
X23039Y-45214D01*
X22767Y-45207D01*
X22514Y-45304D01*
X22483Y-45324D01*
X22444Y-45439D01*
X22885Y-45880D01*
X23327Y-45439D01*
X23327Y-45464D01*
X22898Y-45893D01*
X23340Y-46335D01*
X23454Y-46295D01*
X23565Y-46047D01*
X23572Y-45775D01*
X23572Y-49438D01*
X23327Y-49438D01*
X23327Y-46348D01*
X22885Y-45906D01*
X22873Y-45919D01*
X22873Y-45893D01*
X22431Y-45451D01*
X22317Y-45491D01*
X22206Y-45739D01*
X22199Y-46011D01*
X22296Y-46265D01*
X22317Y-46295D01*
X22431Y-46335D01*
X22873Y-45893D01*
X22873Y-45919D01*
X22444Y-46348D01*
X22470Y-46423D01*
X22358Y-46377D01*
X22013Y-46377D01*
X21694Y-46508D01*
X21450Y-46752D01*
X21318Y-47070D01*
X21317Y-47415D01*
X21449Y-47734D01*
X21693Y-47978D01*
X22011Y-48110D01*
X22356Y-48111D01*
X22675Y-47979D01*
X22919Y-47735D01*
X23051Y-47417D01*
X23052Y-47072D01*
X22920Y-46753D01*
X22740Y-46573D01*
X23003Y-46580D01*
X23257Y-46482D01*
X23287Y-46462D01*
X23327Y-46348D01*
X23327Y-49438D01*
X20630Y-49438D01*
X20630Y-46599D01*
X20287Y-46256D01*
X19944Y-46599D01*
X19967Y-46699D01*
X20166Y-46786D01*
X20383Y-46791D01*
X20585Y-46713D01*
X20606Y-46699D01*
X20630Y-46599D01*
X20630Y-49438D01*
X19023Y-49438D01*
X19023Y-46599D01*
X18681Y-46256D01*
X18338Y-46599D01*
X18361Y-46699D01*
X18560Y-46786D01*
X18777Y-46791D01*
X18979Y-46713D01*
X19000Y-46699D01*
X19023Y-46599D01*
X19023Y-49438D01*
X18052Y-49438D01*
X18052Y-47072D01*
X17920Y-46753D01*
X17676Y-46509D01*
X17358Y-46377D01*
X17170Y-46377D01*
X17170Y-45775D01*
X17073Y-45522D01*
X17052Y-45491D01*
X16938Y-45451D01*
X16926Y-45464D01*
X16926Y-45439D01*
X16886Y-45324D01*
X16638Y-45214D01*
X16366Y-45207D01*
X16210Y-45267D01*
X16210Y-33004D01*
X16112Y-32750D01*
X16092Y-32720D01*
X15978Y-32680D01*
X15965Y-32693D01*
X15965Y-32667D01*
X15925Y-32553D01*
X15677Y-32442D01*
X15405Y-32435D01*
X15152Y-32533D01*
X15121Y-32553D01*
X15081Y-32667D01*
X15523Y-33109D01*
X15965Y-32667D01*
X15965Y-32693D01*
X15536Y-33122D01*
X15978Y-33563D01*
X16092Y-33524D01*
X16202Y-33275D01*
X16210Y-33004D01*
X16210Y-45267D01*
X16112Y-45304D01*
X16082Y-45324D01*
X16042Y-45439D01*
X16484Y-45880D01*
X16926Y-45439D01*
X16926Y-45464D01*
X16497Y-45893D01*
X16938Y-46335D01*
X17052Y-46295D01*
X17163Y-46047D01*
X17170Y-45775D01*
X17170Y-46377D01*
X17013Y-46377D01*
X16899Y-46423D01*
X16926Y-46348D01*
X16484Y-45906D01*
X16471Y-45919D01*
X16471Y-45893D01*
X16029Y-45451D01*
X15965Y-45474D01*
X15965Y-33576D01*
X15523Y-33134D01*
X15510Y-33147D01*
X15510Y-33122D01*
X15068Y-32680D01*
X14993Y-32706D01*
X15040Y-32594D01*
X15040Y-32249D01*
X14908Y-31930D01*
X14664Y-31686D01*
X14346Y-31554D01*
X14001Y-31554D01*
X13682Y-31685D01*
X13438Y-31929D01*
X13306Y-32248D01*
X13306Y-32592D01*
X13437Y-32911D01*
X13681Y-33155D01*
X14000Y-33288D01*
X14344Y-33288D01*
X14663Y-33156D01*
X14844Y-32976D01*
X14837Y-33239D01*
X14934Y-33493D01*
X14954Y-33524D01*
X15068Y-33563D01*
X15510Y-33122D01*
X15510Y-33147D01*
X15081Y-33576D01*
X15121Y-33690D01*
X15369Y-33801D01*
X15641Y-33808D01*
X15895Y-33711D01*
X15925Y-33690D01*
X15965Y-33576D01*
X15965Y-45474D01*
X15915Y-45491D01*
X15804Y-45739D01*
X15797Y-46011D01*
X15895Y-46265D01*
X15915Y-46295D01*
X16029Y-46335D01*
X16471Y-45893D01*
X16471Y-45919D01*
X16042Y-46348D01*
X16082Y-46462D01*
X16330Y-46572D01*
X16602Y-46580D01*
X16636Y-46567D01*
X16450Y-46752D01*
X16318Y-47070D01*
X16317Y-47415D01*
X16449Y-47734D01*
X16693Y-47978D01*
X17011Y-48110D01*
X17356Y-48111D01*
X17675Y-47979D01*
X17919Y-47735D01*
X18051Y-47417D01*
X18052Y-47072D01*
X18052Y-49438D01*
X15109Y-49438D01*
X15109Y-47374D01*
X14907Y-46885D01*
X14533Y-46511D01*
X14045Y-46308D01*
X13516Y-46308D01*
X13027Y-46510D01*
X12653Y-46883D01*
X12450Y-47372D01*
X12449Y-47901D01*
X12651Y-48389D01*
X13025Y-48764D01*
X13513Y-48967D01*
X14042Y-48967D01*
X14531Y-48765D01*
X14905Y-48391D01*
X15108Y-47903D01*
X15109Y-47374D01*
X15109Y-49438D01*
X11979Y-49438D01*
X11979Y-10404D01*
X51012Y-10404D01*
X51012Y-49438D01*
M02*
