G04 (created by PCBNEW (2013-07-07 BZR 4022)-stable) date 9/18/2013 14:10:39*
%MOIN*%
G04 Gerber Fmt 3.4, Leading zero omitted, Abs format*
%FSLAX34Y34*%
G01*
G70*
G90*
G04 APERTURE LIST*
%ADD10C,0.00590551*%
%ADD11C,0.011811*%
%ADD12C,0.066*%
%ADD13C,0.23622*%
%ADD14C,0.1437*%
%ADD15C,0.0591*%
%ADD16C,0.0866142*%
%ADD17C,0.035*%
%ADD18C,0.0275591*%
%ADD19C,0.019685*%
%ADD20C,0.00787402*%
%ADD21C,0.01*%
G04 APERTURE END LIST*
G54D10*
G54D11*
X53650Y-11957D02*
X53734Y-11985D01*
X53762Y-12013D01*
X53790Y-12069D01*
X53790Y-12154D01*
X53762Y-12210D01*
X53734Y-12238D01*
X53678Y-12266D01*
X53453Y-12266D01*
X53453Y-11676D01*
X53650Y-11676D01*
X53706Y-11704D01*
X53734Y-11732D01*
X53762Y-11788D01*
X53762Y-11844D01*
X53734Y-11901D01*
X53706Y-11929D01*
X53650Y-11957D01*
X53453Y-11957D01*
X54043Y-12210D02*
X54071Y-12238D01*
X54043Y-12266D01*
X54015Y-12238D01*
X54043Y-12210D01*
X54043Y-12266D01*
X54662Y-12210D02*
X54634Y-12238D01*
X54550Y-12266D01*
X54493Y-12266D01*
X54409Y-12238D01*
X54353Y-12182D01*
X54325Y-12125D01*
X54296Y-12013D01*
X54296Y-11929D01*
X54325Y-11816D01*
X54353Y-11760D01*
X54409Y-11704D01*
X54493Y-11676D01*
X54550Y-11676D01*
X54634Y-11704D01*
X54662Y-11732D01*
X55168Y-11872D02*
X55168Y-12266D01*
X54915Y-11872D02*
X54915Y-12182D01*
X54943Y-12238D01*
X55000Y-12266D01*
X55084Y-12266D01*
X55140Y-12238D01*
X55168Y-12210D01*
G54D12*
X14460Y-23622D03*
X15460Y-23622D03*
G54D13*
X13779Y-47637D03*
X49212Y-47637D03*
X49212Y-12204D03*
X13779Y-12204D03*
G54D14*
X40807Y-12598D03*
X45807Y-12598D03*
G54D15*
X41901Y-13598D03*
X42303Y-14299D03*
X42704Y-13598D03*
X43106Y-14299D03*
X43507Y-13598D03*
X43909Y-14299D03*
X44311Y-13598D03*
X44712Y-14299D03*
G54D16*
X40106Y-13948D03*
X46507Y-13948D03*
G54D14*
X32933Y-12598D03*
X37933Y-12598D03*
G54D15*
X34027Y-13598D03*
X34429Y-14299D03*
X34830Y-13598D03*
X35232Y-14299D03*
X35633Y-13598D03*
X36035Y-14299D03*
X36437Y-13598D03*
X36838Y-14299D03*
G54D16*
X32232Y-13948D03*
X38633Y-13948D03*
G54D14*
X25059Y-12598D03*
X30059Y-12598D03*
G54D15*
X26153Y-13598D03*
X26555Y-14299D03*
X26956Y-13598D03*
X27358Y-14299D03*
X27759Y-13598D03*
X28161Y-14299D03*
X28562Y-13598D03*
X28964Y-14299D03*
G54D16*
X24358Y-13948D03*
X30759Y-13948D03*
G54D14*
X17185Y-12598D03*
X22185Y-12598D03*
G54D15*
X18279Y-13598D03*
X18681Y-14299D03*
X19082Y-13598D03*
X19484Y-14299D03*
X19885Y-13598D03*
X20287Y-14299D03*
X20688Y-13598D03*
X21090Y-14299D03*
G54D16*
X16484Y-13948D03*
X22885Y-13948D03*
G54D14*
X48818Y-27421D03*
X48818Y-32421D03*
G54D15*
X47818Y-28515D03*
X47118Y-28917D03*
X47818Y-29318D03*
X47118Y-29720D03*
X47818Y-30122D03*
X47118Y-30523D03*
X47818Y-30925D03*
X47118Y-31326D03*
G54D16*
X47468Y-26720D03*
X47468Y-33122D03*
G54D14*
X14173Y-32421D03*
X14173Y-27421D03*
G54D15*
X15173Y-31326D03*
X15874Y-30925D03*
X15173Y-30523D03*
X15874Y-30122D03*
X15173Y-29720D03*
X15874Y-29318D03*
X15173Y-28917D03*
X15874Y-28515D03*
G54D16*
X15523Y-33122D03*
X15523Y-26720D03*
G54D14*
X45807Y-47244D03*
X40807Y-47244D03*
G54D15*
X44712Y-46244D03*
X44311Y-45543D03*
X43909Y-46244D03*
X43507Y-45543D03*
X43106Y-46244D03*
X42704Y-45543D03*
X42303Y-46244D03*
X41901Y-45543D03*
G54D16*
X46507Y-45893D03*
X40106Y-45893D03*
G54D14*
X37933Y-47244D03*
X32933Y-47244D03*
G54D15*
X36838Y-46244D03*
X36437Y-45543D03*
X36035Y-46244D03*
X35633Y-45543D03*
X35232Y-46244D03*
X34830Y-45543D03*
X34429Y-46244D03*
X34027Y-45543D03*
G54D16*
X38633Y-45893D03*
X32232Y-45893D03*
G54D14*
X30059Y-47244D03*
X25059Y-47244D03*
G54D15*
X28964Y-46244D03*
X28562Y-45543D03*
X28161Y-46244D03*
X27759Y-45543D03*
X27358Y-46244D03*
X26956Y-45543D03*
X26555Y-46244D03*
X26153Y-45543D03*
G54D16*
X30759Y-45893D03*
X24358Y-45893D03*
G54D14*
X22185Y-47244D03*
X17185Y-47244D03*
G54D15*
X21090Y-46244D03*
X20688Y-45543D03*
X20287Y-46244D03*
X19885Y-45543D03*
X19484Y-46244D03*
X19082Y-45543D03*
X18681Y-46244D03*
X18279Y-45543D03*
G54D16*
X22885Y-45893D03*
X16484Y-45893D03*
G54D17*
X41417Y-33110D03*
X40511Y-33070D03*
X40944Y-32637D03*
X42322Y-33858D03*
X34000Y-30730D03*
X35415Y-30745D03*
G54D18*
X31945Y-30180D03*
X31090Y-27330D03*
X30900Y-27970D03*
X33965Y-29875D03*
X31280Y-29860D03*
X30050Y-26620D03*
X33710Y-28475D03*
X34400Y-27760D03*
X32355Y-32115D03*
G54D17*
X37244Y-33070D03*
X36574Y-33070D03*
X36574Y-32401D03*
X29921Y-27952D03*
X35433Y-33858D03*
G54D19*
X47818Y-30122D02*
X48822Y-30122D01*
X48822Y-30122D02*
X50000Y-31299D01*
X50000Y-31299D02*
X50000Y-33070D01*
X50000Y-33070D02*
X49212Y-33858D01*
X49212Y-33858D02*
X42322Y-33858D01*
X18279Y-13598D02*
X18126Y-13598D01*
X18126Y-13598D02*
X12975Y-18750D01*
X19885Y-13598D02*
X19885Y-13495D01*
X18279Y-13400D02*
X18279Y-13598D01*
X18840Y-12840D02*
X18279Y-13400D01*
X19230Y-12840D02*
X18840Y-12840D01*
X19885Y-13495D02*
X19230Y-12840D01*
X26153Y-13598D02*
X26153Y-11843D01*
X19885Y-13069D02*
X19885Y-13598D01*
X21600Y-11355D02*
X19885Y-13069D01*
X25665Y-11355D02*
X21600Y-11355D01*
X26153Y-11843D02*
X25665Y-11355D01*
X27759Y-13598D02*
X27759Y-13299D01*
X26153Y-13206D02*
X26153Y-13598D01*
X26550Y-12810D02*
X26153Y-13206D01*
X27270Y-12810D02*
X26550Y-12810D01*
X27759Y-13299D02*
X27270Y-12810D01*
X34027Y-13598D02*
X34027Y-12037D01*
X27759Y-12750D02*
X27759Y-13598D01*
X29080Y-11430D02*
X27759Y-12750D01*
X33420Y-11430D02*
X29080Y-11430D01*
X34027Y-12037D02*
X33420Y-11430D01*
X35633Y-13598D02*
X35633Y-13373D01*
X34027Y-13312D02*
X34027Y-13598D01*
X34515Y-12825D02*
X34027Y-13312D01*
X35085Y-12825D02*
X34515Y-12825D01*
X35633Y-13373D02*
X35085Y-12825D01*
X41901Y-13598D02*
X41901Y-11558D01*
X35633Y-12936D02*
X35633Y-13598D01*
X37320Y-11250D02*
X35633Y-12936D01*
X41593Y-11250D02*
X37320Y-11250D01*
X41901Y-11558D02*
X41593Y-11250D01*
X43507Y-13598D02*
X43507Y-13432D01*
X41901Y-13448D02*
X41901Y-13598D01*
X42465Y-12885D02*
X41901Y-13448D01*
X42960Y-12885D02*
X42465Y-12885D01*
X43507Y-13432D02*
X42960Y-12885D01*
X47818Y-28515D02*
X47818Y-28468D01*
X43507Y-12847D02*
X43507Y-13598D01*
X44865Y-11490D02*
X43507Y-12847D01*
X46440Y-11490D02*
X44865Y-11490D01*
X47385Y-12435D02*
X46440Y-11490D01*
X47385Y-15060D02*
X47385Y-12435D01*
X46680Y-15765D02*
X47385Y-15060D01*
X46680Y-27330D02*
X46680Y-15765D01*
X47818Y-28468D02*
X46680Y-27330D01*
X47818Y-28515D02*
X47940Y-28515D01*
X48087Y-30122D02*
X47818Y-30122D01*
X48525Y-29685D02*
X48087Y-30122D01*
X48525Y-29100D02*
X48525Y-29685D01*
X47940Y-28515D02*
X48525Y-29100D01*
X19484Y-46955D02*
X19484Y-46244D01*
X17975Y-48465D02*
X19484Y-46955D01*
X16435Y-48465D02*
X17975Y-48465D01*
X15820Y-47850D02*
X16435Y-48465D01*
X15820Y-46815D02*
X15820Y-47850D01*
X12835Y-43830D02*
X15820Y-46815D01*
X12835Y-32105D02*
X12835Y-43830D01*
X44150Y-46950D02*
X44355Y-46950D01*
X43106Y-46476D02*
X43580Y-46950D01*
X43580Y-46950D02*
X44150Y-46950D01*
X43106Y-46244D02*
X43106Y-46476D01*
X44712Y-46592D02*
X44712Y-46244D01*
X44355Y-46950D02*
X44712Y-46592D01*
X36838Y-46244D02*
X36838Y-47738D01*
X43106Y-46903D02*
X43106Y-46244D01*
X41650Y-48360D02*
X43106Y-46903D01*
X37460Y-48360D02*
X41650Y-48360D01*
X36838Y-47738D02*
X37460Y-48360D01*
X35232Y-46244D02*
X35232Y-46317D01*
X36838Y-46381D02*
X36838Y-46244D01*
X36270Y-46950D02*
X36838Y-46381D01*
X35865Y-46950D02*
X36270Y-46950D01*
X35232Y-46317D02*
X35865Y-46950D01*
X28964Y-46244D02*
X28964Y-47884D01*
X35232Y-46892D02*
X35232Y-46244D01*
X33825Y-48300D02*
X35232Y-46892D01*
X29380Y-48300D02*
X33825Y-48300D01*
X28964Y-47884D02*
X29380Y-48300D01*
X27358Y-46244D02*
X27358Y-46303D01*
X28964Y-46415D02*
X28964Y-46244D01*
X28510Y-46870D02*
X28964Y-46415D01*
X27925Y-46870D02*
X28510Y-46870D01*
X27358Y-46303D02*
X27925Y-46870D01*
X21090Y-46244D02*
X21090Y-47850D01*
X27358Y-47101D02*
X27358Y-46244D01*
X26115Y-48345D02*
X27358Y-47101D01*
X21585Y-48345D02*
X26115Y-48345D01*
X21090Y-47850D02*
X21585Y-48345D01*
X19484Y-46244D02*
X19484Y-46514D01*
X19484Y-46514D02*
X19940Y-46970D01*
X19940Y-46970D02*
X20500Y-46970D01*
X20500Y-46970D02*
X21090Y-46379D01*
X21090Y-46379D02*
X21090Y-46244D01*
X12975Y-18750D02*
X12975Y-28455D01*
X13613Y-31326D02*
X12835Y-32105D01*
X12975Y-28455D02*
X14240Y-29720D01*
X14240Y-29720D02*
X15173Y-29720D01*
X15173Y-31326D02*
X13613Y-31326D01*
X15173Y-31326D02*
X14806Y-31326D01*
X14806Y-31326D02*
X14470Y-30990D01*
X14470Y-30990D02*
X14470Y-30050D01*
X14470Y-30050D02*
X14799Y-29720D01*
X14799Y-29720D02*
X15173Y-29720D01*
X34000Y-30730D02*
X34015Y-30745D01*
X34015Y-30745D02*
X35415Y-30745D01*
G54D20*
X30875Y-30180D02*
X31945Y-30180D01*
X30570Y-29875D02*
X30875Y-30180D01*
X30570Y-27850D02*
X30570Y-29875D01*
X31090Y-27330D02*
X30570Y-27850D01*
X31280Y-28350D02*
X31280Y-29860D01*
X30900Y-27970D02*
X31280Y-28350D01*
X31295Y-29875D02*
X33965Y-29875D01*
X31280Y-29860D02*
X31295Y-29875D01*
X31855Y-26620D02*
X30050Y-26620D01*
X33710Y-28475D02*
X31855Y-26620D01*
X34400Y-27760D02*
X34420Y-27780D01*
X34420Y-27780D02*
X34420Y-29960D01*
X34420Y-29960D02*
X34180Y-30200D01*
X34180Y-30200D02*
X33290Y-30200D01*
X33290Y-30200D02*
X32375Y-31115D01*
X32375Y-31115D02*
X32375Y-32095D01*
X32375Y-32095D02*
X32355Y-32115D01*
G54D19*
X32480Y-32874D02*
X34448Y-32874D01*
X32480Y-32874D02*
X30511Y-32874D01*
X30511Y-32874D02*
X29921Y-32283D01*
X29921Y-32283D02*
X29921Y-27952D01*
X34448Y-32874D02*
X35433Y-33858D01*
G54D10*
G36*
X45028Y-30068D02*
X41908Y-30068D01*
X38335Y-33640D01*
X38335Y-35806D01*
X36199Y-37942D01*
X36023Y-37942D01*
X35738Y-37942D01*
X35738Y-30680D01*
X35689Y-30562D01*
X35598Y-30470D01*
X35479Y-30421D01*
X35350Y-30421D01*
X35232Y-30470D01*
X35204Y-30498D01*
X34686Y-30498D01*
X34686Y-27703D01*
X34642Y-27598D01*
X34562Y-27517D01*
X34457Y-27473D01*
X34343Y-27473D01*
X34238Y-27517D01*
X34157Y-27597D01*
X34113Y-27702D01*
X34113Y-27816D01*
X34157Y-27921D01*
X34232Y-27997D01*
X34232Y-29772D01*
X34207Y-29713D01*
X34127Y-29632D01*
X34022Y-29588D01*
X33996Y-29588D01*
X33996Y-28418D01*
X33952Y-28313D01*
X33872Y-28232D01*
X33767Y-28188D01*
X33689Y-28188D01*
X31987Y-26487D01*
X31926Y-26446D01*
X31855Y-26432D01*
X30266Y-26432D01*
X30212Y-26377D01*
X30107Y-26333D01*
X29993Y-26333D01*
X29888Y-26377D01*
X29807Y-26457D01*
X29763Y-26562D01*
X29763Y-26676D01*
X29807Y-26781D01*
X29887Y-26862D01*
X29992Y-26906D01*
X30106Y-26906D01*
X30211Y-26862D01*
X30267Y-26807D01*
X31777Y-26807D01*
X33423Y-28454D01*
X33423Y-28531D01*
X33467Y-28636D01*
X33547Y-28717D01*
X33652Y-28761D01*
X33766Y-28761D01*
X33871Y-28717D01*
X33952Y-28637D01*
X33996Y-28532D01*
X33996Y-28418D01*
X33996Y-29588D01*
X33908Y-29588D01*
X33803Y-29632D01*
X33747Y-29687D01*
X31511Y-29687D01*
X31467Y-29642D01*
X31467Y-28350D01*
X31467Y-28349D01*
X31453Y-28278D01*
X31453Y-28278D01*
X31412Y-28217D01*
X31412Y-28217D01*
X31186Y-27990D01*
X31186Y-27913D01*
X31142Y-27808D01*
X31062Y-27727D01*
X30988Y-27696D01*
X31069Y-27616D01*
X31146Y-27616D01*
X31251Y-27572D01*
X31332Y-27492D01*
X31376Y-27387D01*
X31376Y-27273D01*
X31332Y-27168D01*
X31252Y-27087D01*
X31147Y-27043D01*
X31033Y-27043D01*
X30928Y-27087D01*
X30847Y-27167D01*
X30803Y-27272D01*
X30803Y-27350D01*
X30437Y-27717D01*
X30396Y-27778D01*
X30382Y-27850D01*
X30382Y-29875D01*
X30396Y-29946D01*
X30437Y-30007D01*
X30742Y-30312D01*
X30803Y-30353D01*
X30875Y-30367D01*
X31728Y-30367D01*
X31782Y-30422D01*
X31887Y-30466D01*
X32001Y-30466D01*
X32106Y-30422D01*
X32187Y-30342D01*
X32231Y-30237D01*
X32231Y-30123D01*
X32206Y-30062D01*
X33163Y-30062D01*
X33157Y-30067D01*
X33157Y-30067D01*
X32242Y-30982D01*
X32201Y-31043D01*
X32187Y-31115D01*
X32187Y-31878D01*
X32112Y-31952D01*
X32068Y-32057D01*
X32068Y-32171D01*
X32112Y-32276D01*
X32192Y-32357D01*
X32297Y-32401D01*
X32411Y-32401D01*
X32516Y-32357D01*
X32597Y-32277D01*
X32641Y-32172D01*
X32641Y-32058D01*
X32597Y-31953D01*
X32562Y-31918D01*
X32562Y-31192D01*
X33367Y-30387D01*
X34180Y-30387D01*
X34251Y-30373D01*
X34312Y-30332D01*
X34552Y-30092D01*
X34593Y-30031D01*
X34593Y-30031D01*
X34607Y-29960D01*
X34607Y-27956D01*
X34642Y-27922D01*
X34686Y-27817D01*
X34686Y-27703D01*
X34686Y-30498D01*
X34225Y-30498D01*
X34183Y-30455D01*
X34064Y-30406D01*
X33935Y-30406D01*
X33817Y-30455D01*
X33725Y-30546D01*
X33676Y-30665D01*
X33676Y-30794D01*
X33725Y-30912D01*
X33816Y-31004D01*
X33935Y-31053D01*
X34064Y-31053D01*
X34182Y-31004D01*
X34195Y-30991D01*
X35204Y-30991D01*
X35231Y-31019D01*
X35350Y-31068D01*
X35479Y-31068D01*
X35597Y-31019D01*
X35689Y-30928D01*
X35738Y-30809D01*
X35738Y-30680D01*
X35738Y-37942D01*
X23642Y-37942D01*
X18947Y-33247D01*
X18947Y-21083D01*
X24823Y-15207D01*
X41711Y-15207D01*
X45028Y-18524D01*
X45028Y-30068D01*
X45028Y-30068D01*
G37*
G54D21*
X45028Y-30068D02*
X41908Y-30068D01*
X38335Y-33640D01*
X38335Y-35806D01*
X36199Y-37942D01*
X36023Y-37942D01*
X35738Y-37942D01*
X35738Y-30680D01*
X35689Y-30562D01*
X35598Y-30470D01*
X35479Y-30421D01*
X35350Y-30421D01*
X35232Y-30470D01*
X35204Y-30498D01*
X34686Y-30498D01*
X34686Y-27703D01*
X34642Y-27598D01*
X34562Y-27517D01*
X34457Y-27473D01*
X34343Y-27473D01*
X34238Y-27517D01*
X34157Y-27597D01*
X34113Y-27702D01*
X34113Y-27816D01*
X34157Y-27921D01*
X34232Y-27997D01*
X34232Y-29772D01*
X34207Y-29713D01*
X34127Y-29632D01*
X34022Y-29588D01*
X33996Y-29588D01*
X33996Y-28418D01*
X33952Y-28313D01*
X33872Y-28232D01*
X33767Y-28188D01*
X33689Y-28188D01*
X31987Y-26487D01*
X31926Y-26446D01*
X31855Y-26432D01*
X30266Y-26432D01*
X30212Y-26377D01*
X30107Y-26333D01*
X29993Y-26333D01*
X29888Y-26377D01*
X29807Y-26457D01*
X29763Y-26562D01*
X29763Y-26676D01*
X29807Y-26781D01*
X29887Y-26862D01*
X29992Y-26906D01*
X30106Y-26906D01*
X30211Y-26862D01*
X30267Y-26807D01*
X31777Y-26807D01*
X33423Y-28454D01*
X33423Y-28531D01*
X33467Y-28636D01*
X33547Y-28717D01*
X33652Y-28761D01*
X33766Y-28761D01*
X33871Y-28717D01*
X33952Y-28637D01*
X33996Y-28532D01*
X33996Y-28418D01*
X33996Y-29588D01*
X33908Y-29588D01*
X33803Y-29632D01*
X33747Y-29687D01*
X31511Y-29687D01*
X31467Y-29642D01*
X31467Y-28350D01*
X31467Y-28349D01*
X31453Y-28278D01*
X31453Y-28278D01*
X31412Y-28217D01*
X31412Y-28217D01*
X31186Y-27990D01*
X31186Y-27913D01*
X31142Y-27808D01*
X31062Y-27727D01*
X30988Y-27696D01*
X31069Y-27616D01*
X31146Y-27616D01*
X31251Y-27572D01*
X31332Y-27492D01*
X31376Y-27387D01*
X31376Y-27273D01*
X31332Y-27168D01*
X31252Y-27087D01*
X31147Y-27043D01*
X31033Y-27043D01*
X30928Y-27087D01*
X30847Y-27167D01*
X30803Y-27272D01*
X30803Y-27350D01*
X30437Y-27717D01*
X30396Y-27778D01*
X30382Y-27850D01*
X30382Y-29875D01*
X30396Y-29946D01*
X30437Y-30007D01*
X30742Y-30312D01*
X30803Y-30353D01*
X30875Y-30367D01*
X31728Y-30367D01*
X31782Y-30422D01*
X31887Y-30466D01*
X32001Y-30466D01*
X32106Y-30422D01*
X32187Y-30342D01*
X32231Y-30237D01*
X32231Y-30123D01*
X32206Y-30062D01*
X33163Y-30062D01*
X33157Y-30067D01*
X33157Y-30067D01*
X32242Y-30982D01*
X32201Y-31043D01*
X32187Y-31115D01*
X32187Y-31878D01*
X32112Y-31952D01*
X32068Y-32057D01*
X32068Y-32171D01*
X32112Y-32276D01*
X32192Y-32357D01*
X32297Y-32401D01*
X32411Y-32401D01*
X32516Y-32357D01*
X32597Y-32277D01*
X32641Y-32172D01*
X32641Y-32058D01*
X32597Y-31953D01*
X32562Y-31918D01*
X32562Y-31192D01*
X33367Y-30387D01*
X34180Y-30387D01*
X34251Y-30373D01*
X34312Y-30332D01*
X34552Y-30092D01*
X34593Y-30031D01*
X34593Y-30031D01*
X34607Y-29960D01*
X34607Y-27956D01*
X34642Y-27922D01*
X34686Y-27817D01*
X34686Y-27703D01*
X34686Y-30498D01*
X34225Y-30498D01*
X34183Y-30455D01*
X34064Y-30406D01*
X33935Y-30406D01*
X33817Y-30455D01*
X33725Y-30546D01*
X33676Y-30665D01*
X33676Y-30794D01*
X33725Y-30912D01*
X33816Y-31004D01*
X33935Y-31053D01*
X34064Y-31053D01*
X34182Y-31004D01*
X34195Y-30991D01*
X35204Y-30991D01*
X35231Y-31019D01*
X35350Y-31068D01*
X35479Y-31068D01*
X35597Y-31019D01*
X35689Y-30928D01*
X35738Y-30809D01*
X35738Y-30680D01*
X35738Y-37942D01*
X23642Y-37942D01*
X18947Y-33247D01*
X18947Y-21083D01*
X24823Y-15207D01*
X41711Y-15207D01*
X45028Y-18524D01*
X45028Y-30068D01*
G54D10*
G36*
X51012Y-49438D02*
X50542Y-49438D01*
X50542Y-47374D01*
X50542Y-11941D01*
X50340Y-11452D01*
X49966Y-11078D01*
X49478Y-10875D01*
X48949Y-10874D01*
X48460Y-11076D01*
X48086Y-11450D01*
X47883Y-11939D01*
X47882Y-12468D01*
X48084Y-12956D01*
X48458Y-13331D01*
X48946Y-13534D01*
X49475Y-13534D01*
X49964Y-13332D01*
X50339Y-12958D01*
X50541Y-12470D01*
X50542Y-11941D01*
X50542Y-47374D01*
X50340Y-46885D01*
X49966Y-46511D01*
X49685Y-46394D01*
X49685Y-32249D01*
X49685Y-27249D01*
X49554Y-26930D01*
X49310Y-26686D01*
X48992Y-26554D01*
X48647Y-26554D01*
X48328Y-26685D01*
X48084Y-26929D01*
X48050Y-27012D01*
X48050Y-26605D01*
X47961Y-26391D01*
X47798Y-26227D01*
X47584Y-26139D01*
X47353Y-26138D01*
X47139Y-26227D01*
X47089Y-26277D01*
X47089Y-13833D01*
X47001Y-13619D01*
X46837Y-13456D01*
X46674Y-13388D01*
X46674Y-12426D01*
X46542Y-12107D01*
X46298Y-11863D01*
X45980Y-11731D01*
X45635Y-11731D01*
X45316Y-11863D01*
X45072Y-12106D01*
X44940Y-12425D01*
X44940Y-12770D01*
X45071Y-13088D01*
X45315Y-13332D01*
X45633Y-13465D01*
X45978Y-13465D01*
X46297Y-13333D01*
X46541Y-13090D01*
X46673Y-12771D01*
X46674Y-12426D01*
X46674Y-13388D01*
X46624Y-13367D01*
X46392Y-13367D01*
X46178Y-13455D01*
X46015Y-13618D01*
X45926Y-13832D01*
X45926Y-14063D01*
X46014Y-14277D01*
X46178Y-14441D01*
X46391Y-14530D01*
X46623Y-14530D01*
X46836Y-14442D01*
X47000Y-14278D01*
X47089Y-14064D01*
X47089Y-13833D01*
X47089Y-26277D01*
X46975Y-26390D01*
X46887Y-26604D01*
X46886Y-26835D01*
X46975Y-27049D01*
X47138Y-27213D01*
X47352Y-27301D01*
X47583Y-27302D01*
X47797Y-27213D01*
X47961Y-27050D01*
X48049Y-26836D01*
X48050Y-26605D01*
X48050Y-27012D01*
X47952Y-27248D01*
X47951Y-27592D01*
X48083Y-27911D01*
X48327Y-28155D01*
X48645Y-28288D01*
X48990Y-28288D01*
X49309Y-28156D01*
X49553Y-27912D01*
X49685Y-27594D01*
X49685Y-27249D01*
X49685Y-32249D01*
X49554Y-31930D01*
X49310Y-31686D01*
X48992Y-31554D01*
X48647Y-31554D01*
X48366Y-31670D01*
X48366Y-30026D01*
X48366Y-28419D01*
X48288Y-28217D01*
X48274Y-28196D01*
X48174Y-28173D01*
X48161Y-28185D01*
X48161Y-28160D01*
X48138Y-28060D01*
X47939Y-27972D01*
X47722Y-27967D01*
X47520Y-28046D01*
X47499Y-28060D01*
X47476Y-28160D01*
X47818Y-28502D01*
X48161Y-28160D01*
X48161Y-28185D01*
X47831Y-28515D01*
X48174Y-28858D01*
X48274Y-28835D01*
X48361Y-28636D01*
X48366Y-28419D01*
X48366Y-30026D01*
X48288Y-29823D01*
X48274Y-29802D01*
X48174Y-29779D01*
X47831Y-30122D01*
X48174Y-30464D01*
X48274Y-30441D01*
X48361Y-30243D01*
X48366Y-30026D01*
X48366Y-31670D01*
X48328Y-31685D01*
X48262Y-31751D01*
X48262Y-30837D01*
X48195Y-30674D01*
X48114Y-30592D01*
X48117Y-30591D01*
X48138Y-30577D01*
X48161Y-30477D01*
X47818Y-30134D01*
X47813Y-30140D01*
X47800Y-30127D01*
X47806Y-30122D01*
X47800Y-30116D01*
X47813Y-30103D01*
X47818Y-30109D01*
X48161Y-29766D01*
X48138Y-29666D01*
X48110Y-29654D01*
X48195Y-29570D01*
X48262Y-29407D01*
X48262Y-29230D01*
X48195Y-29067D01*
X48114Y-28986D01*
X48117Y-28985D01*
X48138Y-28970D01*
X48161Y-28871D01*
X47818Y-28528D01*
X47813Y-28534D01*
X47800Y-28521D01*
X47806Y-28515D01*
X47463Y-28173D01*
X47363Y-28196D01*
X47276Y-28394D01*
X47273Y-28501D01*
X47206Y-28473D01*
X47030Y-28473D01*
X46866Y-28540D01*
X46741Y-28665D01*
X46674Y-28828D01*
X46674Y-29005D01*
X46741Y-29168D01*
X46866Y-29293D01*
X46927Y-29318D01*
X46866Y-29343D01*
X46741Y-29468D01*
X46674Y-29631D01*
X46674Y-29808D01*
X46741Y-29971D01*
X46866Y-30096D01*
X46927Y-30122D01*
X46866Y-30147D01*
X46741Y-30271D01*
X46674Y-30434D01*
X46674Y-30611D01*
X46741Y-30774D01*
X46866Y-30899D01*
X46927Y-30925D01*
X46866Y-30950D01*
X46741Y-31074D01*
X46674Y-31238D01*
X46674Y-31414D01*
X46741Y-31577D01*
X46866Y-31702D01*
X47029Y-31770D01*
X47206Y-31770D01*
X47369Y-31703D01*
X47494Y-31578D01*
X47561Y-31415D01*
X47562Y-31296D01*
X47567Y-31301D01*
X47730Y-31369D01*
X47906Y-31369D01*
X48070Y-31301D01*
X48195Y-31176D01*
X48262Y-31013D01*
X48262Y-30837D01*
X48262Y-31751D01*
X48084Y-31929D01*
X47952Y-32248D01*
X47951Y-32592D01*
X48083Y-32911D01*
X48327Y-33155D01*
X48645Y-33288D01*
X48990Y-33288D01*
X49309Y-33156D01*
X49553Y-32912D01*
X49685Y-32594D01*
X49685Y-32249D01*
X49685Y-46394D01*
X49478Y-46308D01*
X48949Y-46308D01*
X48460Y-46510D01*
X48086Y-46883D01*
X48050Y-46970D01*
X48050Y-33006D01*
X47961Y-32793D01*
X47798Y-32629D01*
X47584Y-32540D01*
X47353Y-32540D01*
X47139Y-32628D01*
X46975Y-32792D01*
X46887Y-33005D01*
X46886Y-33237D01*
X46975Y-33451D01*
X47138Y-33614D01*
X47352Y-33703D01*
X47583Y-33703D01*
X47797Y-33615D01*
X47961Y-33451D01*
X48049Y-33238D01*
X48050Y-33006D01*
X48050Y-46970D01*
X47883Y-47372D01*
X47882Y-47901D01*
X48084Y-48389D01*
X48458Y-48764D01*
X48946Y-48967D01*
X49475Y-48967D01*
X49964Y-48765D01*
X50339Y-48391D01*
X50541Y-47903D01*
X50542Y-47374D01*
X50542Y-49438D01*
X47089Y-49438D01*
X47089Y-45778D01*
X47001Y-45564D01*
X46837Y-45401D01*
X46624Y-45312D01*
X46392Y-45312D01*
X46178Y-45400D01*
X46015Y-45563D01*
X45926Y-45777D01*
X45926Y-46008D01*
X46014Y-46222D01*
X46178Y-46386D01*
X46391Y-46475D01*
X46623Y-46475D01*
X46836Y-46386D01*
X47000Y-46223D01*
X47089Y-46009D01*
X47089Y-45778D01*
X47089Y-49438D01*
X46674Y-49438D01*
X46674Y-47072D01*
X46542Y-46753D01*
X46298Y-46509D01*
X45980Y-46377D01*
X45635Y-46377D01*
X45316Y-46508D01*
X45260Y-46564D01*
X45260Y-46148D01*
X45182Y-45945D01*
X45167Y-45924D01*
X45068Y-45901D01*
X45055Y-45914D01*
X45055Y-45888D01*
X45032Y-45788D01*
X44833Y-45701D01*
X44727Y-45698D01*
X44754Y-45631D01*
X44755Y-45455D01*
X44687Y-45292D01*
X44562Y-45167D01*
X44399Y-45099D01*
X44223Y-45099D01*
X44059Y-45166D01*
X43934Y-45291D01*
X43909Y-45352D01*
X43884Y-45292D01*
X43759Y-45167D01*
X43596Y-45099D01*
X43419Y-45099D01*
X43256Y-45166D01*
X43131Y-45291D01*
X43106Y-45352D01*
X43081Y-45292D01*
X42956Y-45167D01*
X42793Y-45099D01*
X42616Y-45099D01*
X42453Y-45166D01*
X42328Y-45291D01*
X42303Y-45352D01*
X42278Y-45292D01*
X42153Y-45167D01*
X41990Y-45099D01*
X41813Y-45099D01*
X41650Y-45166D01*
X41525Y-45291D01*
X41457Y-45454D01*
X41457Y-45631D01*
X41525Y-45794D01*
X41649Y-45919D01*
X41812Y-45987D01*
X41932Y-45987D01*
X41927Y-45992D01*
X41859Y-46155D01*
X41859Y-46332D01*
X41926Y-46495D01*
X42051Y-46620D01*
X42214Y-46687D01*
X42391Y-46688D01*
X42554Y-46620D01*
X42635Y-46539D01*
X42636Y-46542D01*
X42651Y-46563D01*
X42750Y-46586D01*
X43093Y-46244D01*
X43087Y-46238D01*
X43100Y-46225D01*
X43106Y-46231D01*
X43111Y-46225D01*
X43124Y-46238D01*
X43119Y-46244D01*
X43461Y-46586D01*
X43561Y-46563D01*
X43573Y-46536D01*
X43657Y-46620D01*
X43820Y-46687D01*
X43997Y-46688D01*
X44160Y-46620D01*
X44242Y-46539D01*
X44243Y-46542D01*
X44257Y-46563D01*
X44357Y-46586D01*
X44699Y-46244D01*
X44694Y-46238D01*
X44707Y-46225D01*
X44712Y-46231D01*
X45055Y-45888D01*
X45055Y-45914D01*
X44725Y-46244D01*
X45068Y-46586D01*
X45167Y-46563D01*
X45255Y-46365D01*
X45260Y-46148D01*
X45260Y-46564D01*
X45072Y-46752D01*
X45055Y-46794D01*
X45055Y-46599D01*
X44712Y-46256D01*
X44369Y-46599D01*
X44393Y-46699D01*
X44591Y-46786D01*
X44808Y-46791D01*
X45010Y-46713D01*
X45032Y-46699D01*
X45055Y-46599D01*
X45055Y-46794D01*
X44940Y-47070D01*
X44940Y-47415D01*
X45071Y-47734D01*
X45315Y-47978D01*
X45633Y-48110D01*
X45978Y-48111D01*
X46297Y-47979D01*
X46541Y-47735D01*
X46673Y-47417D01*
X46674Y-47072D01*
X46674Y-49438D01*
X43448Y-49438D01*
X43448Y-46599D01*
X43106Y-46256D01*
X42763Y-46599D01*
X42786Y-46699D01*
X42985Y-46786D01*
X43202Y-46791D01*
X43404Y-46713D01*
X43425Y-46699D01*
X43448Y-46599D01*
X43448Y-49438D01*
X41674Y-49438D01*
X41674Y-47072D01*
X41542Y-46753D01*
X41298Y-46509D01*
X40980Y-46377D01*
X40687Y-46377D01*
X40687Y-45778D01*
X40599Y-45564D01*
X40436Y-45401D01*
X40222Y-45312D01*
X39991Y-45312D01*
X39777Y-45400D01*
X39613Y-45563D01*
X39524Y-45777D01*
X39524Y-46008D01*
X39613Y-46222D01*
X39776Y-46386D01*
X39990Y-46475D01*
X40221Y-46475D01*
X40435Y-46386D01*
X40598Y-46223D01*
X40687Y-46009D01*
X40687Y-45778D01*
X40687Y-46377D01*
X40635Y-46377D01*
X40316Y-46508D01*
X40072Y-46752D01*
X39940Y-47070D01*
X39940Y-47415D01*
X40071Y-47734D01*
X40315Y-47978D01*
X40633Y-48110D01*
X40978Y-48111D01*
X41297Y-47979D01*
X41541Y-47735D01*
X41673Y-47417D01*
X41674Y-47072D01*
X41674Y-49438D01*
X39215Y-49438D01*
X39215Y-45778D01*
X39127Y-45564D01*
X38963Y-45401D01*
X38750Y-45312D01*
X38518Y-45312D01*
X38304Y-45400D01*
X38141Y-45563D01*
X38052Y-45777D01*
X38052Y-46008D01*
X38140Y-46222D01*
X38304Y-46386D01*
X38517Y-46475D01*
X38749Y-46475D01*
X38962Y-46386D01*
X39126Y-46223D01*
X39215Y-46009D01*
X39215Y-45778D01*
X39215Y-49438D01*
X38800Y-49438D01*
X38800Y-47072D01*
X38668Y-46753D01*
X38424Y-46509D01*
X38106Y-46377D01*
X37761Y-46377D01*
X37442Y-46508D01*
X37386Y-46564D01*
X37386Y-46148D01*
X37308Y-45945D01*
X37293Y-45924D01*
X37194Y-45901D01*
X37181Y-45914D01*
X37181Y-45888D01*
X37158Y-45788D01*
X36959Y-45701D01*
X36853Y-45698D01*
X36880Y-45631D01*
X36881Y-45455D01*
X36813Y-45292D01*
X36688Y-45167D01*
X36525Y-45099D01*
X36349Y-45099D01*
X36185Y-45166D01*
X36060Y-45291D01*
X36035Y-45352D01*
X36010Y-45292D01*
X35885Y-45167D01*
X35722Y-45099D01*
X35545Y-45099D01*
X35382Y-45166D01*
X35257Y-45291D01*
X35232Y-45352D01*
X35207Y-45292D01*
X35082Y-45167D01*
X34919Y-45099D01*
X34742Y-45099D01*
X34579Y-45166D01*
X34454Y-45291D01*
X34429Y-45352D01*
X34404Y-45292D01*
X34279Y-45167D01*
X34116Y-45099D01*
X33939Y-45099D01*
X33776Y-45166D01*
X33651Y-45291D01*
X33583Y-45454D01*
X33583Y-45631D01*
X33650Y-45794D01*
X33775Y-45919D01*
X33938Y-45987D01*
X34058Y-45987D01*
X34053Y-45992D01*
X33985Y-46155D01*
X33985Y-46332D01*
X34052Y-46495D01*
X34177Y-46620D01*
X34340Y-46687D01*
X34517Y-46688D01*
X34680Y-46620D01*
X34761Y-46539D01*
X34762Y-46542D01*
X34777Y-46563D01*
X34876Y-46586D01*
X35219Y-46244D01*
X35213Y-46238D01*
X35226Y-46225D01*
X35232Y-46231D01*
X35237Y-46225D01*
X35250Y-46238D01*
X35245Y-46244D01*
X35587Y-46586D01*
X35687Y-46563D01*
X35699Y-46536D01*
X35783Y-46620D01*
X35946Y-46687D01*
X36123Y-46688D01*
X36286Y-46620D01*
X36367Y-46539D01*
X36369Y-46542D01*
X36383Y-46563D01*
X36483Y-46586D01*
X36825Y-46244D01*
X36820Y-46238D01*
X36833Y-46225D01*
X36838Y-46231D01*
X37181Y-45888D01*
X37181Y-45914D01*
X36851Y-46244D01*
X37194Y-46586D01*
X37293Y-46563D01*
X37381Y-46365D01*
X37386Y-46148D01*
X37386Y-46564D01*
X37198Y-46752D01*
X37181Y-46794D01*
X37181Y-46599D01*
X36838Y-46256D01*
X36495Y-46599D01*
X36519Y-46699D01*
X36717Y-46786D01*
X36934Y-46791D01*
X37136Y-46713D01*
X37158Y-46699D01*
X37181Y-46599D01*
X37181Y-46794D01*
X37066Y-47070D01*
X37065Y-47415D01*
X37197Y-47734D01*
X37441Y-47978D01*
X37759Y-48110D01*
X38104Y-48111D01*
X38423Y-47979D01*
X38667Y-47735D01*
X38799Y-47417D01*
X38800Y-47072D01*
X38800Y-49438D01*
X35574Y-49438D01*
X35574Y-46599D01*
X35232Y-46256D01*
X34889Y-46599D01*
X34912Y-46699D01*
X35111Y-46786D01*
X35328Y-46791D01*
X35530Y-46713D01*
X35551Y-46699D01*
X35574Y-46599D01*
X35574Y-49438D01*
X33800Y-49438D01*
X33800Y-47072D01*
X33668Y-46753D01*
X33424Y-46509D01*
X33106Y-46377D01*
X32813Y-46377D01*
X32813Y-45778D01*
X32725Y-45564D01*
X32562Y-45401D01*
X32348Y-45312D01*
X32117Y-45312D01*
X31903Y-45400D01*
X31739Y-45563D01*
X31650Y-45777D01*
X31650Y-46008D01*
X31739Y-46222D01*
X31902Y-46386D01*
X32116Y-46475D01*
X32347Y-46475D01*
X32561Y-46386D01*
X32724Y-46223D01*
X32813Y-46009D01*
X32813Y-45778D01*
X32813Y-46377D01*
X32761Y-46377D01*
X32442Y-46508D01*
X32198Y-46752D01*
X32066Y-47070D01*
X32065Y-47415D01*
X32197Y-47734D01*
X32441Y-47978D01*
X32759Y-48110D01*
X33104Y-48111D01*
X33423Y-47979D01*
X33667Y-47735D01*
X33799Y-47417D01*
X33800Y-47072D01*
X33800Y-49438D01*
X31341Y-49438D01*
X31341Y-45778D01*
X31253Y-45564D01*
X31089Y-45401D01*
X30876Y-45312D01*
X30644Y-45312D01*
X30430Y-45400D01*
X30267Y-45563D01*
X30178Y-45777D01*
X30178Y-46008D01*
X30266Y-46222D01*
X30430Y-46386D01*
X30643Y-46475D01*
X30875Y-46475D01*
X31088Y-46386D01*
X31252Y-46223D01*
X31341Y-46009D01*
X31341Y-45778D01*
X31341Y-49438D01*
X30926Y-49438D01*
X30926Y-47072D01*
X30794Y-46753D01*
X30550Y-46509D01*
X30232Y-46377D01*
X29887Y-46377D01*
X29568Y-46508D01*
X29512Y-46564D01*
X29512Y-46148D01*
X29433Y-45945D01*
X29419Y-45924D01*
X29320Y-45901D01*
X29307Y-45914D01*
X29307Y-45888D01*
X29284Y-45788D01*
X29085Y-45701D01*
X28979Y-45698D01*
X29006Y-45631D01*
X29006Y-45455D01*
X28939Y-45292D01*
X28814Y-45167D01*
X28651Y-45099D01*
X28475Y-45099D01*
X28311Y-45166D01*
X28186Y-45291D01*
X28161Y-45352D01*
X28136Y-45292D01*
X28011Y-45167D01*
X27848Y-45099D01*
X27671Y-45099D01*
X27508Y-45166D01*
X27383Y-45291D01*
X27358Y-45352D01*
X27333Y-45292D01*
X27208Y-45167D01*
X27045Y-45099D01*
X26868Y-45099D01*
X26705Y-45166D01*
X26580Y-45291D01*
X26555Y-45352D01*
X26530Y-45292D01*
X26405Y-45167D01*
X26242Y-45099D01*
X26065Y-45099D01*
X25902Y-45166D01*
X25777Y-45291D01*
X25709Y-45454D01*
X25709Y-45631D01*
X25776Y-45794D01*
X25901Y-45919D01*
X26064Y-45987D01*
X26184Y-45987D01*
X26178Y-45992D01*
X26111Y-46155D01*
X26111Y-46332D01*
X26178Y-46495D01*
X26303Y-46620D01*
X26466Y-46687D01*
X26643Y-46688D01*
X26806Y-46620D01*
X26887Y-46539D01*
X26888Y-46542D01*
X26903Y-46563D01*
X27002Y-46586D01*
X27345Y-46244D01*
X27339Y-46238D01*
X27352Y-46225D01*
X27358Y-46231D01*
X27363Y-46225D01*
X27376Y-46238D01*
X27371Y-46244D01*
X27713Y-46586D01*
X27813Y-46563D01*
X27825Y-46536D01*
X27909Y-46620D01*
X28072Y-46687D01*
X28249Y-46688D01*
X28412Y-46620D01*
X28493Y-46539D01*
X28495Y-46542D01*
X28509Y-46563D01*
X28609Y-46586D01*
X28951Y-46244D01*
X28946Y-46238D01*
X28958Y-46225D01*
X28964Y-46231D01*
X29307Y-45888D01*
X29307Y-45914D01*
X28977Y-46244D01*
X29320Y-46586D01*
X29419Y-46563D01*
X29507Y-46365D01*
X29512Y-46148D01*
X29512Y-46564D01*
X29324Y-46752D01*
X29307Y-46794D01*
X29307Y-46599D01*
X28964Y-46256D01*
X28621Y-46599D01*
X28645Y-46699D01*
X28843Y-46786D01*
X29060Y-46791D01*
X29262Y-46713D01*
X29284Y-46699D01*
X29307Y-46599D01*
X29307Y-46794D01*
X29192Y-47070D01*
X29191Y-47415D01*
X29323Y-47734D01*
X29567Y-47978D01*
X29885Y-48110D01*
X30230Y-48111D01*
X30549Y-47979D01*
X30793Y-47735D01*
X30925Y-47417D01*
X30926Y-47072D01*
X30926Y-49438D01*
X27700Y-49438D01*
X27700Y-46599D01*
X27358Y-46256D01*
X27015Y-46599D01*
X27038Y-46699D01*
X27237Y-46786D01*
X27454Y-46791D01*
X27656Y-46713D01*
X27677Y-46699D01*
X27700Y-46599D01*
X27700Y-49438D01*
X25926Y-49438D01*
X25926Y-47072D01*
X25794Y-46753D01*
X25550Y-46509D01*
X25232Y-46377D01*
X24939Y-46377D01*
X24939Y-45778D01*
X24851Y-45564D01*
X24688Y-45401D01*
X24474Y-45312D01*
X24243Y-45312D01*
X24029Y-45400D01*
X23865Y-45563D01*
X23776Y-45777D01*
X23776Y-46008D01*
X23865Y-46222D01*
X24028Y-46386D01*
X24242Y-46475D01*
X24473Y-46475D01*
X24687Y-46386D01*
X24850Y-46223D01*
X24939Y-46009D01*
X24939Y-45778D01*
X24939Y-46377D01*
X24887Y-46377D01*
X24568Y-46508D01*
X24324Y-46752D01*
X24192Y-47070D01*
X24191Y-47415D01*
X24323Y-47734D01*
X24567Y-47978D01*
X24885Y-48110D01*
X25230Y-48111D01*
X25549Y-47979D01*
X25793Y-47735D01*
X25925Y-47417D01*
X25926Y-47072D01*
X25926Y-49438D01*
X23467Y-49438D01*
X23467Y-45778D01*
X23379Y-45564D01*
X23215Y-45401D01*
X23002Y-45312D01*
X22770Y-45312D01*
X22556Y-45400D01*
X22393Y-45563D01*
X22304Y-45777D01*
X22304Y-46008D01*
X22392Y-46222D01*
X22556Y-46386D01*
X22769Y-46475D01*
X23000Y-46475D01*
X23214Y-46386D01*
X23378Y-46223D01*
X23467Y-46009D01*
X23467Y-45778D01*
X23467Y-49438D01*
X23052Y-49438D01*
X23052Y-47072D01*
X22920Y-46753D01*
X22676Y-46509D01*
X22358Y-46377D01*
X22013Y-46377D01*
X21694Y-46508D01*
X21638Y-46564D01*
X21638Y-46148D01*
X21559Y-45945D01*
X21545Y-45924D01*
X21445Y-45901D01*
X21433Y-45914D01*
X21433Y-45888D01*
X21410Y-45788D01*
X21211Y-45701D01*
X21105Y-45698D01*
X21132Y-45631D01*
X21132Y-45455D01*
X21065Y-45292D01*
X20940Y-45167D01*
X20777Y-45099D01*
X20601Y-45099D01*
X20437Y-45166D01*
X20312Y-45291D01*
X20287Y-45352D01*
X20262Y-45292D01*
X20137Y-45167D01*
X19974Y-45099D01*
X19797Y-45099D01*
X19634Y-45166D01*
X19509Y-45291D01*
X19484Y-45352D01*
X19459Y-45292D01*
X19334Y-45167D01*
X19171Y-45099D01*
X18994Y-45099D01*
X18831Y-45166D01*
X18706Y-45291D01*
X18681Y-45352D01*
X18656Y-45292D01*
X18531Y-45167D01*
X18368Y-45099D01*
X18191Y-45099D01*
X18028Y-45166D01*
X17903Y-45291D01*
X17835Y-45454D01*
X17835Y-45631D01*
X17902Y-45794D01*
X18027Y-45919D01*
X18190Y-45987D01*
X18310Y-45987D01*
X18304Y-45992D01*
X18237Y-46155D01*
X18237Y-46332D01*
X18304Y-46495D01*
X18429Y-46620D01*
X18592Y-46687D01*
X18769Y-46688D01*
X18932Y-46620D01*
X19013Y-46539D01*
X19014Y-46542D01*
X19029Y-46563D01*
X19128Y-46586D01*
X19471Y-46244D01*
X19465Y-46238D01*
X19478Y-46225D01*
X19484Y-46231D01*
X19489Y-46225D01*
X19502Y-46238D01*
X19497Y-46244D01*
X19839Y-46586D01*
X19939Y-46563D01*
X19951Y-46536D01*
X20035Y-46620D01*
X20198Y-46687D01*
X20375Y-46688D01*
X20538Y-46620D01*
X20619Y-46539D01*
X20621Y-46542D01*
X20635Y-46563D01*
X20735Y-46586D01*
X21077Y-46244D01*
X21072Y-46238D01*
X21084Y-46225D01*
X21090Y-46231D01*
X21433Y-45888D01*
X21433Y-45914D01*
X21103Y-46244D01*
X21445Y-46586D01*
X21545Y-46563D01*
X21633Y-46365D01*
X21638Y-46148D01*
X21638Y-46564D01*
X21450Y-46752D01*
X21433Y-46794D01*
X21433Y-46599D01*
X21090Y-46256D01*
X20747Y-46599D01*
X20771Y-46699D01*
X20969Y-46786D01*
X21186Y-46791D01*
X21388Y-46713D01*
X21410Y-46699D01*
X21433Y-46599D01*
X21433Y-46794D01*
X21318Y-47070D01*
X21317Y-47415D01*
X21449Y-47734D01*
X21693Y-47978D01*
X22011Y-48110D01*
X22356Y-48111D01*
X22675Y-47979D01*
X22919Y-47735D01*
X23051Y-47417D01*
X23052Y-47072D01*
X23052Y-49438D01*
X19826Y-49438D01*
X19826Y-46599D01*
X19484Y-46256D01*
X19141Y-46599D01*
X19164Y-46699D01*
X19363Y-46786D01*
X19580Y-46791D01*
X19782Y-46713D01*
X19803Y-46699D01*
X19826Y-46599D01*
X19826Y-49438D01*
X18052Y-49438D01*
X18052Y-47072D01*
X17920Y-46753D01*
X17676Y-46509D01*
X17358Y-46377D01*
X17065Y-46377D01*
X17065Y-45778D01*
X16977Y-45564D01*
X16814Y-45401D01*
X16600Y-45312D01*
X16369Y-45312D01*
X16155Y-45400D01*
X16105Y-45450D01*
X16105Y-33006D01*
X16016Y-32793D01*
X15853Y-32629D01*
X15639Y-32540D01*
X15515Y-32540D01*
X15515Y-31682D01*
X15173Y-31339D01*
X15160Y-31352D01*
X15160Y-31326D01*
X14817Y-30984D01*
X14718Y-31007D01*
X14630Y-31205D01*
X14625Y-31422D01*
X14703Y-31625D01*
X14718Y-31646D01*
X14817Y-31669D01*
X15160Y-31326D01*
X15160Y-31352D01*
X14830Y-31682D01*
X14853Y-31781D01*
X15052Y-31869D01*
X15269Y-31874D01*
X15471Y-31796D01*
X15492Y-31781D01*
X15515Y-31682D01*
X15515Y-32540D01*
X15408Y-32540D01*
X15194Y-32628D01*
X15040Y-32782D01*
X15040Y-32249D01*
X14908Y-31930D01*
X14664Y-31686D01*
X14346Y-31554D01*
X14001Y-31554D01*
X13682Y-31685D01*
X13438Y-31929D01*
X13306Y-32248D01*
X13306Y-32592D01*
X13437Y-32911D01*
X13681Y-33155D01*
X14000Y-33288D01*
X14344Y-33288D01*
X14663Y-33156D01*
X14907Y-32912D01*
X15040Y-32594D01*
X15040Y-32249D01*
X15040Y-32782D01*
X15030Y-32792D01*
X14942Y-33005D01*
X14942Y-33237D01*
X15030Y-33451D01*
X15193Y-33614D01*
X15407Y-33703D01*
X15638Y-33703D01*
X15852Y-33615D01*
X16016Y-33451D01*
X16105Y-33238D01*
X16105Y-33006D01*
X16105Y-45450D01*
X15991Y-45563D01*
X15902Y-45777D01*
X15902Y-46008D01*
X15990Y-46222D01*
X16154Y-46386D01*
X16368Y-46475D01*
X16599Y-46475D01*
X16813Y-46386D01*
X16976Y-46223D01*
X17065Y-46009D01*
X17065Y-45778D01*
X17065Y-46377D01*
X17013Y-46377D01*
X16694Y-46508D01*
X16450Y-46752D01*
X16318Y-47070D01*
X16317Y-47415D01*
X16449Y-47734D01*
X16693Y-47978D01*
X17011Y-48110D01*
X17356Y-48111D01*
X17675Y-47979D01*
X17919Y-47735D01*
X18051Y-47417D01*
X18052Y-47072D01*
X18052Y-49438D01*
X15109Y-49438D01*
X15109Y-47374D01*
X14907Y-46885D01*
X14533Y-46511D01*
X14045Y-46308D01*
X13516Y-46308D01*
X13027Y-46510D01*
X12653Y-46883D01*
X12450Y-47372D01*
X12449Y-47901D01*
X12651Y-48389D01*
X13025Y-48764D01*
X13513Y-48967D01*
X14042Y-48967D01*
X14531Y-48765D01*
X14905Y-48391D01*
X15108Y-47903D01*
X15109Y-47374D01*
X15109Y-49438D01*
X11979Y-49438D01*
X11979Y-30758D01*
X14790Y-30758D01*
X14796Y-30774D01*
X14877Y-30856D01*
X14874Y-30857D01*
X14853Y-30871D01*
X14830Y-30971D01*
X15173Y-31313D01*
X15178Y-31308D01*
X15191Y-31321D01*
X15186Y-31326D01*
X15528Y-31669D01*
X15628Y-31646D01*
X15716Y-31447D01*
X15718Y-31341D01*
X15785Y-31369D01*
X15961Y-31369D01*
X16125Y-31301D01*
X16250Y-31176D01*
X16317Y-31013D01*
X16318Y-30837D01*
X16285Y-30758D01*
X18453Y-30758D01*
X18453Y-33288D01*
X23601Y-38435D01*
X36634Y-38435D01*
X38829Y-36241D01*
X38829Y-33878D01*
X42146Y-30561D01*
X45522Y-30561D01*
X45522Y-18286D01*
X45156Y-17920D01*
X45156Y-14211D01*
X45089Y-14048D01*
X44964Y-13923D01*
X44801Y-13855D01*
X44682Y-13855D01*
X44687Y-13850D01*
X44754Y-13687D01*
X44755Y-13510D01*
X44687Y-13347D01*
X44562Y-13222D01*
X44399Y-13154D01*
X44223Y-13154D01*
X44059Y-13221D01*
X43978Y-13303D01*
X43977Y-13300D01*
X43963Y-13278D01*
X43863Y-13255D01*
X43850Y-13268D01*
X43850Y-13242D01*
X43827Y-13143D01*
X43628Y-13055D01*
X43411Y-13050D01*
X43209Y-13128D01*
X43188Y-13143D01*
X43165Y-13242D01*
X43507Y-13585D01*
X43850Y-13242D01*
X43850Y-13268D01*
X43520Y-13598D01*
X43526Y-13603D01*
X43513Y-13616D01*
X43507Y-13611D01*
X43502Y-13616D01*
X43489Y-13603D01*
X43495Y-13598D01*
X43152Y-13255D01*
X43052Y-13278D01*
X43040Y-13306D01*
X42956Y-13222D01*
X42793Y-13154D01*
X42616Y-13154D01*
X42453Y-13221D01*
X42372Y-13303D01*
X42371Y-13300D01*
X42356Y-13278D01*
X42257Y-13255D01*
X42244Y-13268D01*
X42244Y-13242D01*
X42221Y-13143D01*
X42022Y-13055D01*
X41805Y-13050D01*
X41674Y-13101D01*
X41674Y-12426D01*
X41542Y-12107D01*
X41298Y-11863D01*
X40980Y-11731D01*
X40635Y-11731D01*
X40316Y-11863D01*
X40072Y-12106D01*
X39940Y-12425D01*
X39940Y-12770D01*
X40071Y-13088D01*
X40315Y-13332D01*
X40633Y-13465D01*
X40978Y-13465D01*
X41297Y-13333D01*
X41541Y-13090D01*
X41673Y-12771D01*
X41674Y-12426D01*
X41674Y-13101D01*
X41603Y-13128D01*
X41582Y-13143D01*
X41558Y-13242D01*
X41901Y-13585D01*
X42244Y-13242D01*
X42244Y-13268D01*
X41914Y-13598D01*
X41919Y-13603D01*
X41907Y-13616D01*
X41901Y-13611D01*
X41888Y-13624D01*
X41888Y-13598D01*
X41546Y-13255D01*
X41446Y-13278D01*
X41358Y-13477D01*
X41353Y-13694D01*
X41432Y-13896D01*
X41446Y-13917D01*
X41546Y-13941D01*
X41888Y-13598D01*
X41888Y-13624D01*
X41558Y-13953D01*
X41582Y-14053D01*
X41780Y-14141D01*
X41887Y-14143D01*
X41859Y-14210D01*
X41859Y-14387D01*
X41926Y-14550D01*
X42051Y-14675D01*
X42214Y-14743D01*
X42391Y-14743D01*
X42554Y-14675D01*
X42679Y-14551D01*
X42704Y-14489D01*
X42729Y-14550D01*
X42854Y-14675D01*
X43017Y-14743D01*
X43194Y-14743D01*
X43357Y-14675D01*
X43482Y-14551D01*
X43507Y-14489D01*
X43532Y-14550D01*
X43657Y-14675D01*
X43820Y-14743D01*
X43997Y-14743D01*
X44160Y-14675D01*
X44285Y-14551D01*
X44311Y-14489D01*
X44336Y-14550D01*
X44460Y-14675D01*
X44623Y-14743D01*
X44800Y-14743D01*
X44963Y-14675D01*
X45088Y-14551D01*
X45156Y-14387D01*
X45156Y-14211D01*
X45156Y-17920D01*
X41949Y-14713D01*
X40687Y-14713D01*
X40687Y-13833D01*
X40599Y-13619D01*
X40436Y-13456D01*
X40222Y-13367D01*
X39991Y-13367D01*
X39777Y-13455D01*
X39613Y-13618D01*
X39524Y-13832D01*
X39524Y-14063D01*
X39613Y-14277D01*
X39776Y-14441D01*
X39990Y-14530D01*
X40221Y-14530D01*
X40435Y-14442D01*
X40598Y-14278D01*
X40687Y-14064D01*
X40687Y-13833D01*
X40687Y-14713D01*
X39215Y-14713D01*
X39215Y-13833D01*
X39127Y-13619D01*
X38963Y-13456D01*
X38800Y-13388D01*
X38800Y-12426D01*
X38668Y-12107D01*
X38424Y-11863D01*
X38106Y-11731D01*
X37761Y-11731D01*
X37442Y-11863D01*
X37198Y-12106D01*
X37066Y-12425D01*
X37065Y-12770D01*
X37197Y-13088D01*
X37441Y-13332D01*
X37759Y-13465D01*
X38104Y-13465D01*
X38423Y-13333D01*
X38667Y-13090D01*
X38799Y-12771D01*
X38800Y-12426D01*
X38800Y-13388D01*
X38750Y-13367D01*
X38518Y-13367D01*
X38304Y-13455D01*
X38141Y-13618D01*
X38052Y-13832D01*
X38052Y-14063D01*
X38140Y-14277D01*
X38304Y-14441D01*
X38517Y-14530D01*
X38749Y-14530D01*
X38962Y-14442D01*
X39126Y-14278D01*
X39215Y-14064D01*
X39215Y-13833D01*
X39215Y-14713D01*
X36997Y-14713D01*
X37089Y-14675D01*
X37214Y-14551D01*
X37282Y-14387D01*
X37282Y-14211D01*
X37215Y-14048D01*
X37090Y-13923D01*
X36927Y-13855D01*
X36808Y-13855D01*
X36813Y-13850D01*
X36880Y-13687D01*
X36881Y-13510D01*
X36813Y-13347D01*
X36688Y-13222D01*
X36525Y-13154D01*
X36349Y-13154D01*
X36185Y-13221D01*
X36104Y-13303D01*
X36103Y-13300D01*
X36089Y-13278D01*
X35989Y-13255D01*
X35976Y-13268D01*
X35976Y-13242D01*
X35953Y-13143D01*
X35754Y-13055D01*
X35537Y-13050D01*
X35335Y-13128D01*
X35314Y-13143D01*
X35291Y-13242D01*
X35633Y-13585D01*
X35976Y-13242D01*
X35976Y-13268D01*
X35646Y-13598D01*
X35652Y-13603D01*
X35639Y-13616D01*
X35633Y-13611D01*
X35628Y-13616D01*
X35615Y-13603D01*
X35621Y-13598D01*
X35278Y-13255D01*
X35178Y-13278D01*
X35166Y-13306D01*
X35082Y-13222D01*
X34919Y-13154D01*
X34742Y-13154D01*
X34579Y-13221D01*
X34498Y-13303D01*
X34496Y-13300D01*
X34482Y-13278D01*
X34382Y-13255D01*
X34370Y-13268D01*
X34370Y-13242D01*
X34347Y-13143D01*
X34148Y-13055D01*
X33931Y-13050D01*
X33800Y-13101D01*
X33800Y-12426D01*
X33668Y-12107D01*
X33424Y-11863D01*
X33106Y-11731D01*
X32761Y-11731D01*
X32442Y-11863D01*
X32198Y-12106D01*
X32066Y-12425D01*
X32065Y-12770D01*
X32197Y-13088D01*
X32441Y-13332D01*
X32759Y-13465D01*
X33104Y-13465D01*
X33423Y-13333D01*
X33667Y-13090D01*
X33799Y-12771D01*
X33800Y-12426D01*
X33800Y-13101D01*
X33729Y-13128D01*
X33708Y-13143D01*
X33684Y-13242D01*
X34027Y-13585D01*
X34370Y-13242D01*
X34370Y-13268D01*
X34040Y-13598D01*
X34045Y-13603D01*
X34033Y-13616D01*
X34027Y-13611D01*
X34014Y-13624D01*
X34014Y-13598D01*
X33672Y-13255D01*
X33572Y-13278D01*
X33484Y-13477D01*
X33479Y-13694D01*
X33558Y-13896D01*
X33572Y-13917D01*
X33672Y-13941D01*
X34014Y-13598D01*
X34014Y-13624D01*
X33684Y-13953D01*
X33708Y-14053D01*
X33906Y-14141D01*
X34013Y-14143D01*
X33985Y-14210D01*
X33985Y-14387D01*
X34052Y-14550D01*
X34177Y-14675D01*
X34269Y-14713D01*
X32813Y-14713D01*
X32813Y-13833D01*
X32725Y-13619D01*
X32562Y-13456D01*
X32348Y-13367D01*
X32117Y-13367D01*
X31903Y-13455D01*
X31739Y-13618D01*
X31650Y-13832D01*
X31650Y-14063D01*
X31739Y-14277D01*
X31902Y-14441D01*
X32116Y-14530D01*
X32347Y-14530D01*
X32561Y-14442D01*
X32724Y-14278D01*
X32813Y-14064D01*
X32813Y-13833D01*
X32813Y-14713D01*
X31341Y-14713D01*
X31341Y-13833D01*
X31253Y-13619D01*
X31089Y-13456D01*
X30926Y-13388D01*
X30926Y-12426D01*
X30794Y-12107D01*
X30550Y-11863D01*
X30232Y-11731D01*
X29887Y-11731D01*
X29568Y-11863D01*
X29324Y-12106D01*
X29192Y-12425D01*
X29191Y-12770D01*
X29323Y-13088D01*
X29567Y-13332D01*
X29885Y-13465D01*
X30230Y-13465D01*
X30549Y-13333D01*
X30793Y-13090D01*
X30925Y-12771D01*
X30926Y-12426D01*
X30926Y-13388D01*
X30876Y-13367D01*
X30644Y-13367D01*
X30430Y-13455D01*
X30267Y-13618D01*
X30178Y-13832D01*
X30178Y-14063D01*
X30266Y-14277D01*
X30430Y-14441D01*
X30643Y-14530D01*
X30875Y-14530D01*
X31088Y-14442D01*
X31252Y-14278D01*
X31341Y-14064D01*
X31341Y-13833D01*
X31341Y-14713D01*
X29123Y-14713D01*
X29215Y-14675D01*
X29340Y-14551D01*
X29408Y-14387D01*
X29408Y-14211D01*
X29341Y-14048D01*
X29216Y-13923D01*
X29053Y-13855D01*
X28934Y-13855D01*
X28939Y-13850D01*
X29006Y-13687D01*
X29006Y-13510D01*
X28939Y-13347D01*
X28814Y-13222D01*
X28651Y-13154D01*
X28475Y-13154D01*
X28311Y-13221D01*
X28230Y-13303D01*
X28229Y-13300D01*
X28215Y-13278D01*
X28115Y-13255D01*
X28102Y-13268D01*
X28102Y-13242D01*
X28079Y-13143D01*
X27880Y-13055D01*
X27663Y-13050D01*
X27461Y-13128D01*
X27440Y-13143D01*
X27417Y-13242D01*
X27759Y-13585D01*
X28102Y-13242D01*
X28102Y-13268D01*
X27772Y-13598D01*
X27778Y-13603D01*
X27765Y-13616D01*
X27759Y-13611D01*
X27754Y-13616D01*
X27741Y-13603D01*
X27747Y-13598D01*
X27404Y-13255D01*
X27304Y-13278D01*
X27292Y-13306D01*
X27208Y-13222D01*
X27045Y-13154D01*
X26868Y-13154D01*
X26705Y-13221D01*
X26624Y-13303D01*
X26622Y-13300D01*
X26608Y-13278D01*
X26508Y-13255D01*
X26496Y-13268D01*
X26496Y-13242D01*
X26473Y-13143D01*
X26274Y-13055D01*
X26057Y-13050D01*
X25926Y-13101D01*
X25926Y-12426D01*
X25794Y-12107D01*
X25550Y-11863D01*
X25232Y-11731D01*
X24887Y-11731D01*
X24568Y-11863D01*
X24324Y-12106D01*
X24192Y-12425D01*
X24191Y-12770D01*
X24323Y-13088D01*
X24567Y-13332D01*
X24885Y-13465D01*
X25230Y-13465D01*
X25549Y-13333D01*
X25793Y-13090D01*
X25925Y-12771D01*
X25926Y-12426D01*
X25926Y-13101D01*
X25855Y-13128D01*
X25833Y-13143D01*
X25810Y-13242D01*
X26153Y-13585D01*
X26496Y-13242D01*
X26496Y-13268D01*
X26166Y-13598D01*
X26171Y-13603D01*
X26159Y-13616D01*
X26153Y-13611D01*
X26140Y-13624D01*
X26140Y-13598D01*
X25798Y-13255D01*
X25698Y-13278D01*
X25610Y-13477D01*
X25605Y-13694D01*
X25684Y-13896D01*
X25698Y-13917D01*
X25798Y-13941D01*
X26140Y-13598D01*
X26140Y-13624D01*
X25810Y-13953D01*
X25833Y-14053D01*
X26032Y-14141D01*
X26139Y-14143D01*
X26111Y-14210D01*
X26111Y-14387D01*
X26178Y-14550D01*
X26303Y-14675D01*
X26395Y-14713D01*
X24939Y-14713D01*
X24939Y-13833D01*
X24851Y-13619D01*
X24688Y-13456D01*
X24474Y-13367D01*
X24243Y-13367D01*
X24029Y-13455D01*
X23865Y-13618D01*
X23776Y-13832D01*
X23776Y-14063D01*
X23865Y-14277D01*
X24028Y-14441D01*
X24242Y-14530D01*
X24473Y-14530D01*
X24687Y-14442D01*
X24850Y-14278D01*
X24939Y-14064D01*
X24939Y-13833D01*
X24939Y-14713D01*
X24585Y-14713D01*
X23467Y-15831D01*
X23467Y-13833D01*
X23379Y-13619D01*
X23215Y-13456D01*
X23052Y-13388D01*
X23052Y-12426D01*
X22920Y-12107D01*
X22676Y-11863D01*
X22358Y-11731D01*
X22013Y-11731D01*
X21694Y-11863D01*
X21450Y-12106D01*
X21318Y-12425D01*
X21317Y-12770D01*
X21449Y-13088D01*
X21693Y-13332D01*
X22011Y-13465D01*
X22356Y-13465D01*
X22675Y-13333D01*
X22919Y-13090D01*
X23051Y-12771D01*
X23052Y-12426D01*
X23052Y-13388D01*
X23002Y-13367D01*
X22770Y-13367D01*
X22556Y-13455D01*
X22393Y-13618D01*
X22304Y-13832D01*
X22304Y-14063D01*
X22392Y-14277D01*
X22556Y-14441D01*
X22769Y-14530D01*
X23000Y-14530D01*
X23214Y-14442D01*
X23378Y-14278D01*
X23467Y-14064D01*
X23467Y-13833D01*
X23467Y-15831D01*
X21534Y-17764D01*
X21534Y-14211D01*
X21467Y-14048D01*
X21342Y-13923D01*
X21179Y-13855D01*
X21060Y-13855D01*
X21065Y-13850D01*
X21132Y-13687D01*
X21132Y-13510D01*
X21065Y-13347D01*
X20940Y-13222D01*
X20777Y-13154D01*
X20601Y-13154D01*
X20437Y-13221D01*
X20356Y-13303D01*
X20355Y-13300D01*
X20341Y-13278D01*
X20241Y-13255D01*
X20228Y-13268D01*
X20228Y-13242D01*
X20205Y-13143D01*
X20006Y-13055D01*
X19789Y-13050D01*
X19587Y-13128D01*
X19566Y-13143D01*
X19543Y-13242D01*
X19885Y-13585D01*
X20228Y-13242D01*
X20228Y-13268D01*
X19898Y-13598D01*
X19904Y-13603D01*
X19891Y-13616D01*
X19885Y-13611D01*
X19880Y-13616D01*
X19867Y-13603D01*
X19873Y-13598D01*
X19530Y-13255D01*
X19430Y-13278D01*
X19418Y-13306D01*
X19334Y-13222D01*
X19171Y-13154D01*
X18994Y-13154D01*
X18831Y-13221D01*
X18750Y-13303D01*
X18748Y-13300D01*
X18734Y-13278D01*
X18634Y-13255D01*
X18622Y-13268D01*
X18622Y-13242D01*
X18599Y-13143D01*
X18400Y-13055D01*
X18183Y-13050D01*
X18052Y-13101D01*
X18052Y-12426D01*
X17920Y-12107D01*
X17676Y-11863D01*
X17358Y-11731D01*
X17013Y-11731D01*
X16694Y-11863D01*
X16450Y-12106D01*
X16318Y-12425D01*
X16317Y-12770D01*
X16449Y-13088D01*
X16693Y-13332D01*
X17011Y-13465D01*
X17356Y-13465D01*
X17675Y-13333D01*
X17919Y-13090D01*
X18051Y-12771D01*
X18052Y-12426D01*
X18052Y-13101D01*
X17981Y-13128D01*
X17959Y-13143D01*
X17936Y-13242D01*
X18279Y-13585D01*
X18622Y-13242D01*
X18622Y-13268D01*
X18292Y-13598D01*
X18297Y-13603D01*
X18285Y-13616D01*
X18279Y-13611D01*
X18266Y-13624D01*
X18266Y-13598D01*
X17924Y-13255D01*
X17824Y-13278D01*
X17736Y-13477D01*
X17731Y-13694D01*
X17810Y-13896D01*
X17824Y-13917D01*
X17924Y-13941D01*
X18266Y-13598D01*
X18266Y-13624D01*
X17936Y-13953D01*
X17959Y-14053D01*
X18158Y-14141D01*
X18264Y-14143D01*
X18237Y-14210D01*
X18237Y-14387D01*
X18304Y-14550D01*
X18429Y-14675D01*
X18592Y-14743D01*
X18769Y-14743D01*
X18932Y-14675D01*
X19057Y-14551D01*
X19082Y-14489D01*
X19107Y-14550D01*
X19232Y-14675D01*
X19395Y-14743D01*
X19572Y-14743D01*
X19735Y-14675D01*
X19860Y-14551D01*
X19885Y-14489D01*
X19910Y-14550D01*
X20035Y-14675D01*
X20198Y-14743D01*
X20375Y-14743D01*
X20538Y-14675D01*
X20663Y-14551D01*
X20688Y-14489D01*
X20713Y-14550D01*
X20838Y-14675D01*
X21001Y-14743D01*
X21178Y-14743D01*
X21341Y-14675D01*
X21466Y-14551D01*
X21534Y-14387D01*
X21534Y-14211D01*
X21534Y-17764D01*
X18453Y-20845D01*
X18453Y-30461D01*
X17065Y-30461D01*
X17065Y-13833D01*
X16977Y-13619D01*
X16814Y-13456D01*
X16600Y-13367D01*
X16369Y-13367D01*
X16155Y-13455D01*
X15991Y-13618D01*
X15902Y-13832D01*
X15902Y-14063D01*
X15990Y-14277D01*
X16154Y-14441D01*
X16368Y-14530D01*
X16599Y-14530D01*
X16813Y-14442D01*
X16976Y-14278D01*
X17065Y-14064D01*
X17065Y-13833D01*
X17065Y-30461D01*
X16162Y-30461D01*
X16250Y-30373D01*
X16317Y-30210D01*
X16318Y-30034D01*
X16250Y-29870D01*
X16125Y-29745D01*
X16064Y-29720D01*
X16125Y-29695D01*
X16250Y-29570D01*
X16317Y-29407D01*
X16318Y-29230D01*
X16250Y-29067D01*
X16125Y-28942D01*
X16064Y-28917D01*
X16125Y-28892D01*
X16250Y-28767D01*
X16317Y-28604D01*
X16318Y-28427D01*
X16250Y-28264D01*
X16125Y-28139D01*
X16105Y-28131D01*
X16105Y-26605D01*
X16016Y-26391D01*
X15939Y-26313D01*
X15939Y-23527D01*
X15866Y-23351D01*
X15731Y-23216D01*
X15556Y-23143D01*
X15365Y-23143D01*
X15189Y-23216D01*
X15109Y-23296D01*
X15109Y-11941D01*
X14907Y-11452D01*
X14533Y-11078D01*
X14045Y-10875D01*
X13516Y-10874D01*
X13027Y-11076D01*
X12653Y-11450D01*
X12450Y-11939D01*
X12449Y-12468D01*
X12651Y-12956D01*
X13025Y-13331D01*
X13513Y-13534D01*
X14042Y-13534D01*
X14531Y-13332D01*
X14905Y-12958D01*
X15108Y-12470D01*
X15109Y-11941D01*
X15109Y-23296D01*
X15055Y-23350D01*
X14982Y-23526D01*
X14982Y-23716D01*
X15054Y-23892D01*
X15189Y-24027D01*
X15365Y-24100D01*
X15555Y-24100D01*
X15731Y-24027D01*
X15865Y-23893D01*
X15938Y-23717D01*
X15939Y-23527D01*
X15939Y-26313D01*
X15853Y-26227D01*
X15639Y-26139D01*
X15408Y-26138D01*
X15194Y-26227D01*
X15030Y-26390D01*
X14942Y-26604D01*
X14942Y-26835D01*
X15030Y-27049D01*
X15193Y-27213D01*
X15407Y-27301D01*
X15638Y-27302D01*
X15852Y-27213D01*
X16016Y-27050D01*
X16105Y-26836D01*
X16105Y-26605D01*
X16105Y-28131D01*
X15962Y-28071D01*
X15786Y-28071D01*
X15622Y-28139D01*
X15497Y-28263D01*
X15430Y-28427D01*
X15430Y-28546D01*
X15425Y-28541D01*
X15261Y-28473D01*
X15085Y-28473D01*
X15040Y-28491D01*
X15040Y-27249D01*
X14939Y-27004D01*
X14939Y-23527D01*
X14866Y-23351D01*
X14731Y-23216D01*
X14556Y-23143D01*
X14365Y-23143D01*
X14189Y-23216D01*
X14055Y-23350D01*
X13982Y-23526D01*
X13982Y-23716D01*
X14054Y-23892D01*
X14189Y-24027D01*
X14365Y-24100D01*
X14555Y-24100D01*
X14731Y-24027D01*
X14865Y-23893D01*
X14938Y-23717D01*
X14939Y-23527D01*
X14939Y-27004D01*
X14908Y-26930D01*
X14664Y-26686D01*
X14346Y-26554D01*
X14001Y-26554D01*
X13682Y-26685D01*
X13438Y-26929D01*
X13306Y-27248D01*
X13306Y-27592D01*
X13437Y-27911D01*
X13681Y-28155D01*
X14000Y-28288D01*
X14344Y-28288D01*
X14663Y-28156D01*
X14907Y-27912D01*
X15040Y-27594D01*
X15040Y-27249D01*
X15040Y-28491D01*
X14922Y-28540D01*
X14797Y-28665D01*
X14729Y-28828D01*
X14729Y-29005D01*
X14796Y-29168D01*
X14877Y-29249D01*
X14874Y-29251D01*
X14853Y-29265D01*
X14830Y-29365D01*
X15173Y-29707D01*
X15178Y-29702D01*
X15191Y-29714D01*
X15186Y-29720D01*
X15191Y-29726D01*
X15178Y-29738D01*
X15173Y-29733D01*
X15160Y-29746D01*
X15160Y-29720D01*
X14817Y-29377D01*
X14718Y-29400D01*
X14630Y-29599D01*
X14625Y-29816D01*
X14703Y-30018D01*
X14718Y-30040D01*
X14817Y-30063D01*
X15160Y-29720D01*
X15160Y-29746D01*
X14830Y-30075D01*
X14853Y-30175D01*
X14881Y-30187D01*
X14797Y-30271D01*
X14729Y-30434D01*
X14729Y-30461D01*
X11979Y-30461D01*
X11979Y-10404D01*
X51012Y-10404D01*
X51012Y-49438D01*
X51012Y-49438D01*
G37*
G54D21*
X51012Y-49438D02*
X50542Y-49438D01*
X50542Y-47374D01*
X50542Y-11941D01*
X50340Y-11452D01*
X49966Y-11078D01*
X49478Y-10875D01*
X48949Y-10874D01*
X48460Y-11076D01*
X48086Y-11450D01*
X47883Y-11939D01*
X47882Y-12468D01*
X48084Y-12956D01*
X48458Y-13331D01*
X48946Y-13534D01*
X49475Y-13534D01*
X49964Y-13332D01*
X50339Y-12958D01*
X50541Y-12470D01*
X50542Y-11941D01*
X50542Y-47374D01*
X50340Y-46885D01*
X49966Y-46511D01*
X49685Y-46394D01*
X49685Y-32249D01*
X49685Y-27249D01*
X49554Y-26930D01*
X49310Y-26686D01*
X48992Y-26554D01*
X48647Y-26554D01*
X48328Y-26685D01*
X48084Y-26929D01*
X48050Y-27012D01*
X48050Y-26605D01*
X47961Y-26391D01*
X47798Y-26227D01*
X47584Y-26139D01*
X47353Y-26138D01*
X47139Y-26227D01*
X47089Y-26277D01*
X47089Y-13833D01*
X47001Y-13619D01*
X46837Y-13456D01*
X46674Y-13388D01*
X46674Y-12426D01*
X46542Y-12107D01*
X46298Y-11863D01*
X45980Y-11731D01*
X45635Y-11731D01*
X45316Y-11863D01*
X45072Y-12106D01*
X44940Y-12425D01*
X44940Y-12770D01*
X45071Y-13088D01*
X45315Y-13332D01*
X45633Y-13465D01*
X45978Y-13465D01*
X46297Y-13333D01*
X46541Y-13090D01*
X46673Y-12771D01*
X46674Y-12426D01*
X46674Y-13388D01*
X46624Y-13367D01*
X46392Y-13367D01*
X46178Y-13455D01*
X46015Y-13618D01*
X45926Y-13832D01*
X45926Y-14063D01*
X46014Y-14277D01*
X46178Y-14441D01*
X46391Y-14530D01*
X46623Y-14530D01*
X46836Y-14442D01*
X47000Y-14278D01*
X47089Y-14064D01*
X47089Y-13833D01*
X47089Y-26277D01*
X46975Y-26390D01*
X46887Y-26604D01*
X46886Y-26835D01*
X46975Y-27049D01*
X47138Y-27213D01*
X47352Y-27301D01*
X47583Y-27302D01*
X47797Y-27213D01*
X47961Y-27050D01*
X48049Y-26836D01*
X48050Y-26605D01*
X48050Y-27012D01*
X47952Y-27248D01*
X47951Y-27592D01*
X48083Y-27911D01*
X48327Y-28155D01*
X48645Y-28288D01*
X48990Y-28288D01*
X49309Y-28156D01*
X49553Y-27912D01*
X49685Y-27594D01*
X49685Y-27249D01*
X49685Y-32249D01*
X49554Y-31930D01*
X49310Y-31686D01*
X48992Y-31554D01*
X48647Y-31554D01*
X48366Y-31670D01*
X48366Y-30026D01*
X48366Y-28419D01*
X48288Y-28217D01*
X48274Y-28196D01*
X48174Y-28173D01*
X48161Y-28185D01*
X48161Y-28160D01*
X48138Y-28060D01*
X47939Y-27972D01*
X47722Y-27967D01*
X47520Y-28046D01*
X47499Y-28060D01*
X47476Y-28160D01*
X47818Y-28502D01*
X48161Y-28160D01*
X48161Y-28185D01*
X47831Y-28515D01*
X48174Y-28858D01*
X48274Y-28835D01*
X48361Y-28636D01*
X48366Y-28419D01*
X48366Y-30026D01*
X48288Y-29823D01*
X48274Y-29802D01*
X48174Y-29779D01*
X47831Y-30122D01*
X48174Y-30464D01*
X48274Y-30441D01*
X48361Y-30243D01*
X48366Y-30026D01*
X48366Y-31670D01*
X48328Y-31685D01*
X48262Y-31751D01*
X48262Y-30837D01*
X48195Y-30674D01*
X48114Y-30592D01*
X48117Y-30591D01*
X48138Y-30577D01*
X48161Y-30477D01*
X47818Y-30134D01*
X47813Y-30140D01*
X47800Y-30127D01*
X47806Y-30122D01*
X47800Y-30116D01*
X47813Y-30103D01*
X47818Y-30109D01*
X48161Y-29766D01*
X48138Y-29666D01*
X48110Y-29654D01*
X48195Y-29570D01*
X48262Y-29407D01*
X48262Y-29230D01*
X48195Y-29067D01*
X48114Y-28986D01*
X48117Y-28985D01*
X48138Y-28970D01*
X48161Y-28871D01*
X47818Y-28528D01*
X47813Y-28534D01*
X47800Y-28521D01*
X47806Y-28515D01*
X47463Y-28173D01*
X47363Y-28196D01*
X47276Y-28394D01*
X47273Y-28501D01*
X47206Y-28473D01*
X47030Y-28473D01*
X46866Y-28540D01*
X46741Y-28665D01*
X46674Y-28828D01*
X46674Y-29005D01*
X46741Y-29168D01*
X46866Y-29293D01*
X46927Y-29318D01*
X46866Y-29343D01*
X46741Y-29468D01*
X46674Y-29631D01*
X46674Y-29808D01*
X46741Y-29971D01*
X46866Y-30096D01*
X46927Y-30122D01*
X46866Y-30147D01*
X46741Y-30271D01*
X46674Y-30434D01*
X46674Y-30611D01*
X46741Y-30774D01*
X46866Y-30899D01*
X46927Y-30925D01*
X46866Y-30950D01*
X46741Y-31074D01*
X46674Y-31238D01*
X46674Y-31414D01*
X46741Y-31577D01*
X46866Y-31702D01*
X47029Y-31770D01*
X47206Y-31770D01*
X47369Y-31703D01*
X47494Y-31578D01*
X47561Y-31415D01*
X47562Y-31296D01*
X47567Y-31301D01*
X47730Y-31369D01*
X47906Y-31369D01*
X48070Y-31301D01*
X48195Y-31176D01*
X48262Y-31013D01*
X48262Y-30837D01*
X48262Y-31751D01*
X48084Y-31929D01*
X47952Y-32248D01*
X47951Y-32592D01*
X48083Y-32911D01*
X48327Y-33155D01*
X48645Y-33288D01*
X48990Y-33288D01*
X49309Y-33156D01*
X49553Y-32912D01*
X49685Y-32594D01*
X49685Y-32249D01*
X49685Y-46394D01*
X49478Y-46308D01*
X48949Y-46308D01*
X48460Y-46510D01*
X48086Y-46883D01*
X48050Y-46970D01*
X48050Y-33006D01*
X47961Y-32793D01*
X47798Y-32629D01*
X47584Y-32540D01*
X47353Y-32540D01*
X47139Y-32628D01*
X46975Y-32792D01*
X46887Y-33005D01*
X46886Y-33237D01*
X46975Y-33451D01*
X47138Y-33614D01*
X47352Y-33703D01*
X47583Y-33703D01*
X47797Y-33615D01*
X47961Y-33451D01*
X48049Y-33238D01*
X48050Y-33006D01*
X48050Y-46970D01*
X47883Y-47372D01*
X47882Y-47901D01*
X48084Y-48389D01*
X48458Y-48764D01*
X48946Y-48967D01*
X49475Y-48967D01*
X49964Y-48765D01*
X50339Y-48391D01*
X50541Y-47903D01*
X50542Y-47374D01*
X50542Y-49438D01*
X47089Y-49438D01*
X47089Y-45778D01*
X47001Y-45564D01*
X46837Y-45401D01*
X46624Y-45312D01*
X46392Y-45312D01*
X46178Y-45400D01*
X46015Y-45563D01*
X45926Y-45777D01*
X45926Y-46008D01*
X46014Y-46222D01*
X46178Y-46386D01*
X46391Y-46475D01*
X46623Y-46475D01*
X46836Y-46386D01*
X47000Y-46223D01*
X47089Y-46009D01*
X47089Y-45778D01*
X47089Y-49438D01*
X46674Y-49438D01*
X46674Y-47072D01*
X46542Y-46753D01*
X46298Y-46509D01*
X45980Y-46377D01*
X45635Y-46377D01*
X45316Y-46508D01*
X45260Y-46564D01*
X45260Y-46148D01*
X45182Y-45945D01*
X45167Y-45924D01*
X45068Y-45901D01*
X45055Y-45914D01*
X45055Y-45888D01*
X45032Y-45788D01*
X44833Y-45701D01*
X44727Y-45698D01*
X44754Y-45631D01*
X44755Y-45455D01*
X44687Y-45292D01*
X44562Y-45167D01*
X44399Y-45099D01*
X44223Y-45099D01*
X44059Y-45166D01*
X43934Y-45291D01*
X43909Y-45352D01*
X43884Y-45292D01*
X43759Y-45167D01*
X43596Y-45099D01*
X43419Y-45099D01*
X43256Y-45166D01*
X43131Y-45291D01*
X43106Y-45352D01*
X43081Y-45292D01*
X42956Y-45167D01*
X42793Y-45099D01*
X42616Y-45099D01*
X42453Y-45166D01*
X42328Y-45291D01*
X42303Y-45352D01*
X42278Y-45292D01*
X42153Y-45167D01*
X41990Y-45099D01*
X41813Y-45099D01*
X41650Y-45166D01*
X41525Y-45291D01*
X41457Y-45454D01*
X41457Y-45631D01*
X41525Y-45794D01*
X41649Y-45919D01*
X41812Y-45987D01*
X41932Y-45987D01*
X41927Y-45992D01*
X41859Y-46155D01*
X41859Y-46332D01*
X41926Y-46495D01*
X42051Y-46620D01*
X42214Y-46687D01*
X42391Y-46688D01*
X42554Y-46620D01*
X42635Y-46539D01*
X42636Y-46542D01*
X42651Y-46563D01*
X42750Y-46586D01*
X43093Y-46244D01*
X43087Y-46238D01*
X43100Y-46225D01*
X43106Y-46231D01*
X43111Y-46225D01*
X43124Y-46238D01*
X43119Y-46244D01*
X43461Y-46586D01*
X43561Y-46563D01*
X43573Y-46536D01*
X43657Y-46620D01*
X43820Y-46687D01*
X43997Y-46688D01*
X44160Y-46620D01*
X44242Y-46539D01*
X44243Y-46542D01*
X44257Y-46563D01*
X44357Y-46586D01*
X44699Y-46244D01*
X44694Y-46238D01*
X44707Y-46225D01*
X44712Y-46231D01*
X45055Y-45888D01*
X45055Y-45914D01*
X44725Y-46244D01*
X45068Y-46586D01*
X45167Y-46563D01*
X45255Y-46365D01*
X45260Y-46148D01*
X45260Y-46564D01*
X45072Y-46752D01*
X45055Y-46794D01*
X45055Y-46599D01*
X44712Y-46256D01*
X44369Y-46599D01*
X44393Y-46699D01*
X44591Y-46786D01*
X44808Y-46791D01*
X45010Y-46713D01*
X45032Y-46699D01*
X45055Y-46599D01*
X45055Y-46794D01*
X44940Y-47070D01*
X44940Y-47415D01*
X45071Y-47734D01*
X45315Y-47978D01*
X45633Y-48110D01*
X45978Y-48111D01*
X46297Y-47979D01*
X46541Y-47735D01*
X46673Y-47417D01*
X46674Y-47072D01*
X46674Y-49438D01*
X43448Y-49438D01*
X43448Y-46599D01*
X43106Y-46256D01*
X42763Y-46599D01*
X42786Y-46699D01*
X42985Y-46786D01*
X43202Y-46791D01*
X43404Y-46713D01*
X43425Y-46699D01*
X43448Y-46599D01*
X43448Y-49438D01*
X41674Y-49438D01*
X41674Y-47072D01*
X41542Y-46753D01*
X41298Y-46509D01*
X40980Y-46377D01*
X40687Y-46377D01*
X40687Y-45778D01*
X40599Y-45564D01*
X40436Y-45401D01*
X40222Y-45312D01*
X39991Y-45312D01*
X39777Y-45400D01*
X39613Y-45563D01*
X39524Y-45777D01*
X39524Y-46008D01*
X39613Y-46222D01*
X39776Y-46386D01*
X39990Y-46475D01*
X40221Y-46475D01*
X40435Y-46386D01*
X40598Y-46223D01*
X40687Y-46009D01*
X40687Y-45778D01*
X40687Y-46377D01*
X40635Y-46377D01*
X40316Y-46508D01*
X40072Y-46752D01*
X39940Y-47070D01*
X39940Y-47415D01*
X40071Y-47734D01*
X40315Y-47978D01*
X40633Y-48110D01*
X40978Y-48111D01*
X41297Y-47979D01*
X41541Y-47735D01*
X41673Y-47417D01*
X41674Y-47072D01*
X41674Y-49438D01*
X39215Y-49438D01*
X39215Y-45778D01*
X39127Y-45564D01*
X38963Y-45401D01*
X38750Y-45312D01*
X38518Y-45312D01*
X38304Y-45400D01*
X38141Y-45563D01*
X38052Y-45777D01*
X38052Y-46008D01*
X38140Y-46222D01*
X38304Y-46386D01*
X38517Y-46475D01*
X38749Y-46475D01*
X38962Y-46386D01*
X39126Y-46223D01*
X39215Y-46009D01*
X39215Y-45778D01*
X39215Y-49438D01*
X38800Y-49438D01*
X38800Y-47072D01*
X38668Y-46753D01*
X38424Y-46509D01*
X38106Y-46377D01*
X37761Y-46377D01*
X37442Y-46508D01*
X37386Y-46564D01*
X37386Y-46148D01*
X37308Y-45945D01*
X37293Y-45924D01*
X37194Y-45901D01*
X37181Y-45914D01*
X37181Y-45888D01*
X37158Y-45788D01*
X36959Y-45701D01*
X36853Y-45698D01*
X36880Y-45631D01*
X36881Y-45455D01*
X36813Y-45292D01*
X36688Y-45167D01*
X36525Y-45099D01*
X36349Y-45099D01*
X36185Y-45166D01*
X36060Y-45291D01*
X36035Y-45352D01*
X36010Y-45292D01*
X35885Y-45167D01*
X35722Y-45099D01*
X35545Y-45099D01*
X35382Y-45166D01*
X35257Y-45291D01*
X35232Y-45352D01*
X35207Y-45292D01*
X35082Y-45167D01*
X34919Y-45099D01*
X34742Y-45099D01*
X34579Y-45166D01*
X34454Y-45291D01*
X34429Y-45352D01*
X34404Y-45292D01*
X34279Y-45167D01*
X34116Y-45099D01*
X33939Y-45099D01*
X33776Y-45166D01*
X33651Y-45291D01*
X33583Y-45454D01*
X33583Y-45631D01*
X33650Y-45794D01*
X33775Y-45919D01*
X33938Y-45987D01*
X34058Y-45987D01*
X34053Y-45992D01*
X33985Y-46155D01*
X33985Y-46332D01*
X34052Y-46495D01*
X34177Y-46620D01*
X34340Y-46687D01*
X34517Y-46688D01*
X34680Y-46620D01*
X34761Y-46539D01*
X34762Y-46542D01*
X34777Y-46563D01*
X34876Y-46586D01*
X35219Y-46244D01*
X35213Y-46238D01*
X35226Y-46225D01*
X35232Y-46231D01*
X35237Y-46225D01*
X35250Y-46238D01*
X35245Y-46244D01*
X35587Y-46586D01*
X35687Y-46563D01*
X35699Y-46536D01*
X35783Y-46620D01*
X35946Y-46687D01*
X36123Y-46688D01*
X36286Y-46620D01*
X36367Y-46539D01*
X36369Y-46542D01*
X36383Y-46563D01*
X36483Y-46586D01*
X36825Y-46244D01*
X36820Y-46238D01*
X36833Y-46225D01*
X36838Y-46231D01*
X37181Y-45888D01*
X37181Y-45914D01*
X36851Y-46244D01*
X37194Y-46586D01*
X37293Y-46563D01*
X37381Y-46365D01*
X37386Y-46148D01*
X37386Y-46564D01*
X37198Y-46752D01*
X37181Y-46794D01*
X37181Y-46599D01*
X36838Y-46256D01*
X36495Y-46599D01*
X36519Y-46699D01*
X36717Y-46786D01*
X36934Y-46791D01*
X37136Y-46713D01*
X37158Y-46699D01*
X37181Y-46599D01*
X37181Y-46794D01*
X37066Y-47070D01*
X37065Y-47415D01*
X37197Y-47734D01*
X37441Y-47978D01*
X37759Y-48110D01*
X38104Y-48111D01*
X38423Y-47979D01*
X38667Y-47735D01*
X38799Y-47417D01*
X38800Y-47072D01*
X38800Y-49438D01*
X35574Y-49438D01*
X35574Y-46599D01*
X35232Y-46256D01*
X34889Y-46599D01*
X34912Y-46699D01*
X35111Y-46786D01*
X35328Y-46791D01*
X35530Y-46713D01*
X35551Y-46699D01*
X35574Y-46599D01*
X35574Y-49438D01*
X33800Y-49438D01*
X33800Y-47072D01*
X33668Y-46753D01*
X33424Y-46509D01*
X33106Y-46377D01*
X32813Y-46377D01*
X32813Y-45778D01*
X32725Y-45564D01*
X32562Y-45401D01*
X32348Y-45312D01*
X32117Y-45312D01*
X31903Y-45400D01*
X31739Y-45563D01*
X31650Y-45777D01*
X31650Y-46008D01*
X31739Y-46222D01*
X31902Y-46386D01*
X32116Y-46475D01*
X32347Y-46475D01*
X32561Y-46386D01*
X32724Y-46223D01*
X32813Y-46009D01*
X32813Y-45778D01*
X32813Y-46377D01*
X32761Y-46377D01*
X32442Y-46508D01*
X32198Y-46752D01*
X32066Y-47070D01*
X32065Y-47415D01*
X32197Y-47734D01*
X32441Y-47978D01*
X32759Y-48110D01*
X33104Y-48111D01*
X33423Y-47979D01*
X33667Y-47735D01*
X33799Y-47417D01*
X33800Y-47072D01*
X33800Y-49438D01*
X31341Y-49438D01*
X31341Y-45778D01*
X31253Y-45564D01*
X31089Y-45401D01*
X30876Y-45312D01*
X30644Y-45312D01*
X30430Y-45400D01*
X30267Y-45563D01*
X30178Y-45777D01*
X30178Y-46008D01*
X30266Y-46222D01*
X30430Y-46386D01*
X30643Y-46475D01*
X30875Y-46475D01*
X31088Y-46386D01*
X31252Y-46223D01*
X31341Y-46009D01*
X31341Y-45778D01*
X31341Y-49438D01*
X30926Y-49438D01*
X30926Y-47072D01*
X30794Y-46753D01*
X30550Y-46509D01*
X30232Y-46377D01*
X29887Y-46377D01*
X29568Y-46508D01*
X29512Y-46564D01*
X29512Y-46148D01*
X29433Y-45945D01*
X29419Y-45924D01*
X29320Y-45901D01*
X29307Y-45914D01*
X29307Y-45888D01*
X29284Y-45788D01*
X29085Y-45701D01*
X28979Y-45698D01*
X29006Y-45631D01*
X29006Y-45455D01*
X28939Y-45292D01*
X28814Y-45167D01*
X28651Y-45099D01*
X28475Y-45099D01*
X28311Y-45166D01*
X28186Y-45291D01*
X28161Y-45352D01*
X28136Y-45292D01*
X28011Y-45167D01*
X27848Y-45099D01*
X27671Y-45099D01*
X27508Y-45166D01*
X27383Y-45291D01*
X27358Y-45352D01*
X27333Y-45292D01*
X27208Y-45167D01*
X27045Y-45099D01*
X26868Y-45099D01*
X26705Y-45166D01*
X26580Y-45291D01*
X26555Y-45352D01*
X26530Y-45292D01*
X26405Y-45167D01*
X26242Y-45099D01*
X26065Y-45099D01*
X25902Y-45166D01*
X25777Y-45291D01*
X25709Y-45454D01*
X25709Y-45631D01*
X25776Y-45794D01*
X25901Y-45919D01*
X26064Y-45987D01*
X26184Y-45987D01*
X26178Y-45992D01*
X26111Y-46155D01*
X26111Y-46332D01*
X26178Y-46495D01*
X26303Y-46620D01*
X26466Y-46687D01*
X26643Y-46688D01*
X26806Y-46620D01*
X26887Y-46539D01*
X26888Y-46542D01*
X26903Y-46563D01*
X27002Y-46586D01*
X27345Y-46244D01*
X27339Y-46238D01*
X27352Y-46225D01*
X27358Y-46231D01*
X27363Y-46225D01*
X27376Y-46238D01*
X27371Y-46244D01*
X27713Y-46586D01*
X27813Y-46563D01*
X27825Y-46536D01*
X27909Y-46620D01*
X28072Y-46687D01*
X28249Y-46688D01*
X28412Y-46620D01*
X28493Y-46539D01*
X28495Y-46542D01*
X28509Y-46563D01*
X28609Y-46586D01*
X28951Y-46244D01*
X28946Y-46238D01*
X28958Y-46225D01*
X28964Y-46231D01*
X29307Y-45888D01*
X29307Y-45914D01*
X28977Y-46244D01*
X29320Y-46586D01*
X29419Y-46563D01*
X29507Y-46365D01*
X29512Y-46148D01*
X29512Y-46564D01*
X29324Y-46752D01*
X29307Y-46794D01*
X29307Y-46599D01*
X28964Y-46256D01*
X28621Y-46599D01*
X28645Y-46699D01*
X28843Y-46786D01*
X29060Y-46791D01*
X29262Y-46713D01*
X29284Y-46699D01*
X29307Y-46599D01*
X29307Y-46794D01*
X29192Y-47070D01*
X29191Y-47415D01*
X29323Y-47734D01*
X29567Y-47978D01*
X29885Y-48110D01*
X30230Y-48111D01*
X30549Y-47979D01*
X30793Y-47735D01*
X30925Y-47417D01*
X30926Y-47072D01*
X30926Y-49438D01*
X27700Y-49438D01*
X27700Y-46599D01*
X27358Y-46256D01*
X27015Y-46599D01*
X27038Y-46699D01*
X27237Y-46786D01*
X27454Y-46791D01*
X27656Y-46713D01*
X27677Y-46699D01*
X27700Y-46599D01*
X27700Y-49438D01*
X25926Y-49438D01*
X25926Y-47072D01*
X25794Y-46753D01*
X25550Y-46509D01*
X25232Y-46377D01*
X24939Y-46377D01*
X24939Y-45778D01*
X24851Y-45564D01*
X24688Y-45401D01*
X24474Y-45312D01*
X24243Y-45312D01*
X24029Y-45400D01*
X23865Y-45563D01*
X23776Y-45777D01*
X23776Y-46008D01*
X23865Y-46222D01*
X24028Y-46386D01*
X24242Y-46475D01*
X24473Y-46475D01*
X24687Y-46386D01*
X24850Y-46223D01*
X24939Y-46009D01*
X24939Y-45778D01*
X24939Y-46377D01*
X24887Y-46377D01*
X24568Y-46508D01*
X24324Y-46752D01*
X24192Y-47070D01*
X24191Y-47415D01*
X24323Y-47734D01*
X24567Y-47978D01*
X24885Y-48110D01*
X25230Y-48111D01*
X25549Y-47979D01*
X25793Y-47735D01*
X25925Y-47417D01*
X25926Y-47072D01*
X25926Y-49438D01*
X23467Y-49438D01*
X23467Y-45778D01*
X23379Y-45564D01*
X23215Y-45401D01*
X23002Y-45312D01*
X22770Y-45312D01*
X22556Y-45400D01*
X22393Y-45563D01*
X22304Y-45777D01*
X22304Y-46008D01*
X22392Y-46222D01*
X22556Y-46386D01*
X22769Y-46475D01*
X23000Y-46475D01*
X23214Y-46386D01*
X23378Y-46223D01*
X23467Y-46009D01*
X23467Y-45778D01*
X23467Y-49438D01*
X23052Y-49438D01*
X23052Y-47072D01*
X22920Y-46753D01*
X22676Y-46509D01*
X22358Y-46377D01*
X22013Y-46377D01*
X21694Y-46508D01*
X21638Y-46564D01*
X21638Y-46148D01*
X21559Y-45945D01*
X21545Y-45924D01*
X21445Y-45901D01*
X21433Y-45914D01*
X21433Y-45888D01*
X21410Y-45788D01*
X21211Y-45701D01*
X21105Y-45698D01*
X21132Y-45631D01*
X21132Y-45455D01*
X21065Y-45292D01*
X20940Y-45167D01*
X20777Y-45099D01*
X20601Y-45099D01*
X20437Y-45166D01*
X20312Y-45291D01*
X20287Y-45352D01*
X20262Y-45292D01*
X20137Y-45167D01*
X19974Y-45099D01*
X19797Y-45099D01*
X19634Y-45166D01*
X19509Y-45291D01*
X19484Y-45352D01*
X19459Y-45292D01*
X19334Y-45167D01*
X19171Y-45099D01*
X18994Y-45099D01*
X18831Y-45166D01*
X18706Y-45291D01*
X18681Y-45352D01*
X18656Y-45292D01*
X18531Y-45167D01*
X18368Y-45099D01*
X18191Y-45099D01*
X18028Y-45166D01*
X17903Y-45291D01*
X17835Y-45454D01*
X17835Y-45631D01*
X17902Y-45794D01*
X18027Y-45919D01*
X18190Y-45987D01*
X18310Y-45987D01*
X18304Y-45992D01*
X18237Y-46155D01*
X18237Y-46332D01*
X18304Y-46495D01*
X18429Y-46620D01*
X18592Y-46687D01*
X18769Y-46688D01*
X18932Y-46620D01*
X19013Y-46539D01*
X19014Y-46542D01*
X19029Y-46563D01*
X19128Y-46586D01*
X19471Y-46244D01*
X19465Y-46238D01*
X19478Y-46225D01*
X19484Y-46231D01*
X19489Y-46225D01*
X19502Y-46238D01*
X19497Y-46244D01*
X19839Y-46586D01*
X19939Y-46563D01*
X19951Y-46536D01*
X20035Y-46620D01*
X20198Y-46687D01*
X20375Y-46688D01*
X20538Y-46620D01*
X20619Y-46539D01*
X20621Y-46542D01*
X20635Y-46563D01*
X20735Y-46586D01*
X21077Y-46244D01*
X21072Y-46238D01*
X21084Y-46225D01*
X21090Y-46231D01*
X21433Y-45888D01*
X21433Y-45914D01*
X21103Y-46244D01*
X21445Y-46586D01*
X21545Y-46563D01*
X21633Y-46365D01*
X21638Y-46148D01*
X21638Y-46564D01*
X21450Y-46752D01*
X21433Y-46794D01*
X21433Y-46599D01*
X21090Y-46256D01*
X20747Y-46599D01*
X20771Y-46699D01*
X20969Y-46786D01*
X21186Y-46791D01*
X21388Y-46713D01*
X21410Y-46699D01*
X21433Y-46599D01*
X21433Y-46794D01*
X21318Y-47070D01*
X21317Y-47415D01*
X21449Y-47734D01*
X21693Y-47978D01*
X22011Y-48110D01*
X22356Y-48111D01*
X22675Y-47979D01*
X22919Y-47735D01*
X23051Y-47417D01*
X23052Y-47072D01*
X23052Y-49438D01*
X19826Y-49438D01*
X19826Y-46599D01*
X19484Y-46256D01*
X19141Y-46599D01*
X19164Y-46699D01*
X19363Y-46786D01*
X19580Y-46791D01*
X19782Y-46713D01*
X19803Y-46699D01*
X19826Y-46599D01*
X19826Y-49438D01*
X18052Y-49438D01*
X18052Y-47072D01*
X17920Y-46753D01*
X17676Y-46509D01*
X17358Y-46377D01*
X17065Y-46377D01*
X17065Y-45778D01*
X16977Y-45564D01*
X16814Y-45401D01*
X16600Y-45312D01*
X16369Y-45312D01*
X16155Y-45400D01*
X16105Y-45450D01*
X16105Y-33006D01*
X16016Y-32793D01*
X15853Y-32629D01*
X15639Y-32540D01*
X15515Y-32540D01*
X15515Y-31682D01*
X15173Y-31339D01*
X15160Y-31352D01*
X15160Y-31326D01*
X14817Y-30984D01*
X14718Y-31007D01*
X14630Y-31205D01*
X14625Y-31422D01*
X14703Y-31625D01*
X14718Y-31646D01*
X14817Y-31669D01*
X15160Y-31326D01*
X15160Y-31352D01*
X14830Y-31682D01*
X14853Y-31781D01*
X15052Y-31869D01*
X15269Y-31874D01*
X15471Y-31796D01*
X15492Y-31781D01*
X15515Y-31682D01*
X15515Y-32540D01*
X15408Y-32540D01*
X15194Y-32628D01*
X15040Y-32782D01*
X15040Y-32249D01*
X14908Y-31930D01*
X14664Y-31686D01*
X14346Y-31554D01*
X14001Y-31554D01*
X13682Y-31685D01*
X13438Y-31929D01*
X13306Y-32248D01*
X13306Y-32592D01*
X13437Y-32911D01*
X13681Y-33155D01*
X14000Y-33288D01*
X14344Y-33288D01*
X14663Y-33156D01*
X14907Y-32912D01*
X15040Y-32594D01*
X15040Y-32249D01*
X15040Y-32782D01*
X15030Y-32792D01*
X14942Y-33005D01*
X14942Y-33237D01*
X15030Y-33451D01*
X15193Y-33614D01*
X15407Y-33703D01*
X15638Y-33703D01*
X15852Y-33615D01*
X16016Y-33451D01*
X16105Y-33238D01*
X16105Y-33006D01*
X16105Y-45450D01*
X15991Y-45563D01*
X15902Y-45777D01*
X15902Y-46008D01*
X15990Y-46222D01*
X16154Y-46386D01*
X16368Y-46475D01*
X16599Y-46475D01*
X16813Y-46386D01*
X16976Y-46223D01*
X17065Y-46009D01*
X17065Y-45778D01*
X17065Y-46377D01*
X17013Y-46377D01*
X16694Y-46508D01*
X16450Y-46752D01*
X16318Y-47070D01*
X16317Y-47415D01*
X16449Y-47734D01*
X16693Y-47978D01*
X17011Y-48110D01*
X17356Y-48111D01*
X17675Y-47979D01*
X17919Y-47735D01*
X18051Y-47417D01*
X18052Y-47072D01*
X18052Y-49438D01*
X15109Y-49438D01*
X15109Y-47374D01*
X14907Y-46885D01*
X14533Y-46511D01*
X14045Y-46308D01*
X13516Y-46308D01*
X13027Y-46510D01*
X12653Y-46883D01*
X12450Y-47372D01*
X12449Y-47901D01*
X12651Y-48389D01*
X13025Y-48764D01*
X13513Y-48967D01*
X14042Y-48967D01*
X14531Y-48765D01*
X14905Y-48391D01*
X15108Y-47903D01*
X15109Y-47374D01*
X15109Y-49438D01*
X11979Y-49438D01*
X11979Y-30758D01*
X14790Y-30758D01*
X14796Y-30774D01*
X14877Y-30856D01*
X14874Y-30857D01*
X14853Y-30871D01*
X14830Y-30971D01*
X15173Y-31313D01*
X15178Y-31308D01*
X15191Y-31321D01*
X15186Y-31326D01*
X15528Y-31669D01*
X15628Y-31646D01*
X15716Y-31447D01*
X15718Y-31341D01*
X15785Y-31369D01*
X15961Y-31369D01*
X16125Y-31301D01*
X16250Y-31176D01*
X16317Y-31013D01*
X16318Y-30837D01*
X16285Y-30758D01*
X18453Y-30758D01*
X18453Y-33288D01*
X23601Y-38435D01*
X36634Y-38435D01*
X38829Y-36241D01*
X38829Y-33878D01*
X42146Y-30561D01*
X45522Y-30561D01*
X45522Y-18286D01*
X45156Y-17920D01*
X45156Y-14211D01*
X45089Y-14048D01*
X44964Y-13923D01*
X44801Y-13855D01*
X44682Y-13855D01*
X44687Y-13850D01*
X44754Y-13687D01*
X44755Y-13510D01*
X44687Y-13347D01*
X44562Y-13222D01*
X44399Y-13154D01*
X44223Y-13154D01*
X44059Y-13221D01*
X43978Y-13303D01*
X43977Y-13300D01*
X43963Y-13278D01*
X43863Y-13255D01*
X43850Y-13268D01*
X43850Y-13242D01*
X43827Y-13143D01*
X43628Y-13055D01*
X43411Y-13050D01*
X43209Y-13128D01*
X43188Y-13143D01*
X43165Y-13242D01*
X43507Y-13585D01*
X43850Y-13242D01*
X43850Y-13268D01*
X43520Y-13598D01*
X43526Y-13603D01*
X43513Y-13616D01*
X43507Y-13611D01*
X43502Y-13616D01*
X43489Y-13603D01*
X43495Y-13598D01*
X43152Y-13255D01*
X43052Y-13278D01*
X43040Y-13306D01*
X42956Y-13222D01*
X42793Y-13154D01*
X42616Y-13154D01*
X42453Y-13221D01*
X42372Y-13303D01*
X42371Y-13300D01*
X42356Y-13278D01*
X42257Y-13255D01*
X42244Y-13268D01*
X42244Y-13242D01*
X42221Y-13143D01*
X42022Y-13055D01*
X41805Y-13050D01*
X41674Y-13101D01*
X41674Y-12426D01*
X41542Y-12107D01*
X41298Y-11863D01*
X40980Y-11731D01*
X40635Y-11731D01*
X40316Y-11863D01*
X40072Y-12106D01*
X39940Y-12425D01*
X39940Y-12770D01*
X40071Y-13088D01*
X40315Y-13332D01*
X40633Y-13465D01*
X40978Y-13465D01*
X41297Y-13333D01*
X41541Y-13090D01*
X41673Y-12771D01*
X41674Y-12426D01*
X41674Y-13101D01*
X41603Y-13128D01*
X41582Y-13143D01*
X41558Y-13242D01*
X41901Y-13585D01*
X42244Y-13242D01*
X42244Y-13268D01*
X41914Y-13598D01*
X41919Y-13603D01*
X41907Y-13616D01*
X41901Y-13611D01*
X41888Y-13624D01*
X41888Y-13598D01*
X41546Y-13255D01*
X41446Y-13278D01*
X41358Y-13477D01*
X41353Y-13694D01*
X41432Y-13896D01*
X41446Y-13917D01*
X41546Y-13941D01*
X41888Y-13598D01*
X41888Y-13624D01*
X41558Y-13953D01*
X41582Y-14053D01*
X41780Y-14141D01*
X41887Y-14143D01*
X41859Y-14210D01*
X41859Y-14387D01*
X41926Y-14550D01*
X42051Y-14675D01*
X42214Y-14743D01*
X42391Y-14743D01*
X42554Y-14675D01*
X42679Y-14551D01*
X42704Y-14489D01*
X42729Y-14550D01*
X42854Y-14675D01*
X43017Y-14743D01*
X43194Y-14743D01*
X43357Y-14675D01*
X43482Y-14551D01*
X43507Y-14489D01*
X43532Y-14550D01*
X43657Y-14675D01*
X43820Y-14743D01*
X43997Y-14743D01*
X44160Y-14675D01*
X44285Y-14551D01*
X44311Y-14489D01*
X44336Y-14550D01*
X44460Y-14675D01*
X44623Y-14743D01*
X44800Y-14743D01*
X44963Y-14675D01*
X45088Y-14551D01*
X45156Y-14387D01*
X45156Y-14211D01*
X45156Y-17920D01*
X41949Y-14713D01*
X40687Y-14713D01*
X40687Y-13833D01*
X40599Y-13619D01*
X40436Y-13456D01*
X40222Y-13367D01*
X39991Y-13367D01*
X39777Y-13455D01*
X39613Y-13618D01*
X39524Y-13832D01*
X39524Y-14063D01*
X39613Y-14277D01*
X39776Y-14441D01*
X39990Y-14530D01*
X40221Y-14530D01*
X40435Y-14442D01*
X40598Y-14278D01*
X40687Y-14064D01*
X40687Y-13833D01*
X40687Y-14713D01*
X39215Y-14713D01*
X39215Y-13833D01*
X39127Y-13619D01*
X38963Y-13456D01*
X38800Y-13388D01*
X38800Y-12426D01*
X38668Y-12107D01*
X38424Y-11863D01*
X38106Y-11731D01*
X37761Y-11731D01*
X37442Y-11863D01*
X37198Y-12106D01*
X37066Y-12425D01*
X37065Y-12770D01*
X37197Y-13088D01*
X37441Y-13332D01*
X37759Y-13465D01*
X38104Y-13465D01*
X38423Y-13333D01*
X38667Y-13090D01*
X38799Y-12771D01*
X38800Y-12426D01*
X38800Y-13388D01*
X38750Y-13367D01*
X38518Y-13367D01*
X38304Y-13455D01*
X38141Y-13618D01*
X38052Y-13832D01*
X38052Y-14063D01*
X38140Y-14277D01*
X38304Y-14441D01*
X38517Y-14530D01*
X38749Y-14530D01*
X38962Y-14442D01*
X39126Y-14278D01*
X39215Y-14064D01*
X39215Y-13833D01*
X39215Y-14713D01*
X36997Y-14713D01*
X37089Y-14675D01*
X37214Y-14551D01*
X37282Y-14387D01*
X37282Y-14211D01*
X37215Y-14048D01*
X37090Y-13923D01*
X36927Y-13855D01*
X36808Y-13855D01*
X36813Y-13850D01*
X36880Y-13687D01*
X36881Y-13510D01*
X36813Y-13347D01*
X36688Y-13222D01*
X36525Y-13154D01*
X36349Y-13154D01*
X36185Y-13221D01*
X36104Y-13303D01*
X36103Y-13300D01*
X36089Y-13278D01*
X35989Y-13255D01*
X35976Y-13268D01*
X35976Y-13242D01*
X35953Y-13143D01*
X35754Y-13055D01*
X35537Y-13050D01*
X35335Y-13128D01*
X35314Y-13143D01*
X35291Y-13242D01*
X35633Y-13585D01*
X35976Y-13242D01*
X35976Y-13268D01*
X35646Y-13598D01*
X35652Y-13603D01*
X35639Y-13616D01*
X35633Y-13611D01*
X35628Y-13616D01*
X35615Y-13603D01*
X35621Y-13598D01*
X35278Y-13255D01*
X35178Y-13278D01*
X35166Y-13306D01*
X35082Y-13222D01*
X34919Y-13154D01*
X34742Y-13154D01*
X34579Y-13221D01*
X34498Y-13303D01*
X34496Y-13300D01*
X34482Y-13278D01*
X34382Y-13255D01*
X34370Y-13268D01*
X34370Y-13242D01*
X34347Y-13143D01*
X34148Y-13055D01*
X33931Y-13050D01*
X33800Y-13101D01*
X33800Y-12426D01*
X33668Y-12107D01*
X33424Y-11863D01*
X33106Y-11731D01*
X32761Y-11731D01*
X32442Y-11863D01*
X32198Y-12106D01*
X32066Y-12425D01*
X32065Y-12770D01*
X32197Y-13088D01*
X32441Y-13332D01*
X32759Y-13465D01*
X33104Y-13465D01*
X33423Y-13333D01*
X33667Y-13090D01*
X33799Y-12771D01*
X33800Y-12426D01*
X33800Y-13101D01*
X33729Y-13128D01*
X33708Y-13143D01*
X33684Y-13242D01*
X34027Y-13585D01*
X34370Y-13242D01*
X34370Y-13268D01*
X34040Y-13598D01*
X34045Y-13603D01*
X34033Y-13616D01*
X34027Y-13611D01*
X34014Y-13624D01*
X34014Y-13598D01*
X33672Y-13255D01*
X33572Y-13278D01*
X33484Y-13477D01*
X33479Y-13694D01*
X33558Y-13896D01*
X33572Y-13917D01*
X33672Y-13941D01*
X34014Y-13598D01*
X34014Y-13624D01*
X33684Y-13953D01*
X33708Y-14053D01*
X33906Y-14141D01*
X34013Y-14143D01*
X33985Y-14210D01*
X33985Y-14387D01*
X34052Y-14550D01*
X34177Y-14675D01*
X34269Y-14713D01*
X32813Y-14713D01*
X32813Y-13833D01*
X32725Y-13619D01*
X32562Y-13456D01*
X32348Y-13367D01*
X32117Y-13367D01*
X31903Y-13455D01*
X31739Y-13618D01*
X31650Y-13832D01*
X31650Y-14063D01*
X31739Y-14277D01*
X31902Y-14441D01*
X32116Y-14530D01*
X32347Y-14530D01*
X32561Y-14442D01*
X32724Y-14278D01*
X32813Y-14064D01*
X32813Y-13833D01*
X32813Y-14713D01*
X31341Y-14713D01*
X31341Y-13833D01*
X31253Y-13619D01*
X31089Y-13456D01*
X30926Y-13388D01*
X30926Y-12426D01*
X30794Y-12107D01*
X30550Y-11863D01*
X30232Y-11731D01*
X29887Y-11731D01*
X29568Y-11863D01*
X29324Y-12106D01*
X29192Y-12425D01*
X29191Y-12770D01*
X29323Y-13088D01*
X29567Y-13332D01*
X29885Y-13465D01*
X30230Y-13465D01*
X30549Y-13333D01*
X30793Y-13090D01*
X30925Y-12771D01*
X30926Y-12426D01*
X30926Y-13388D01*
X30876Y-13367D01*
X30644Y-13367D01*
X30430Y-13455D01*
X30267Y-13618D01*
X30178Y-13832D01*
X30178Y-14063D01*
X30266Y-14277D01*
X30430Y-14441D01*
X30643Y-14530D01*
X30875Y-14530D01*
X31088Y-14442D01*
X31252Y-14278D01*
X31341Y-14064D01*
X31341Y-13833D01*
X31341Y-14713D01*
X29123Y-14713D01*
X29215Y-14675D01*
X29340Y-14551D01*
X29408Y-14387D01*
X29408Y-14211D01*
X29341Y-14048D01*
X29216Y-13923D01*
X29053Y-13855D01*
X28934Y-13855D01*
X28939Y-13850D01*
X29006Y-13687D01*
X29006Y-13510D01*
X28939Y-13347D01*
X28814Y-13222D01*
X28651Y-13154D01*
X28475Y-13154D01*
X28311Y-13221D01*
X28230Y-13303D01*
X28229Y-13300D01*
X28215Y-13278D01*
X28115Y-13255D01*
X28102Y-13268D01*
X28102Y-13242D01*
X28079Y-13143D01*
X27880Y-13055D01*
X27663Y-13050D01*
X27461Y-13128D01*
X27440Y-13143D01*
X27417Y-13242D01*
X27759Y-13585D01*
X28102Y-13242D01*
X28102Y-13268D01*
X27772Y-13598D01*
X27778Y-13603D01*
X27765Y-13616D01*
X27759Y-13611D01*
X27754Y-13616D01*
X27741Y-13603D01*
X27747Y-13598D01*
X27404Y-13255D01*
X27304Y-13278D01*
X27292Y-13306D01*
X27208Y-13222D01*
X27045Y-13154D01*
X26868Y-13154D01*
X26705Y-13221D01*
X26624Y-13303D01*
X26622Y-13300D01*
X26608Y-13278D01*
X26508Y-13255D01*
X26496Y-13268D01*
X26496Y-13242D01*
X26473Y-13143D01*
X26274Y-13055D01*
X26057Y-13050D01*
X25926Y-13101D01*
X25926Y-12426D01*
X25794Y-12107D01*
X25550Y-11863D01*
X25232Y-11731D01*
X24887Y-11731D01*
X24568Y-11863D01*
X24324Y-12106D01*
X24192Y-12425D01*
X24191Y-12770D01*
X24323Y-13088D01*
X24567Y-13332D01*
X24885Y-13465D01*
X25230Y-13465D01*
X25549Y-13333D01*
X25793Y-13090D01*
X25925Y-12771D01*
X25926Y-12426D01*
X25926Y-13101D01*
X25855Y-13128D01*
X25833Y-13143D01*
X25810Y-13242D01*
X26153Y-13585D01*
X26496Y-13242D01*
X26496Y-13268D01*
X26166Y-13598D01*
X26171Y-13603D01*
X26159Y-13616D01*
X26153Y-13611D01*
X26140Y-13624D01*
X26140Y-13598D01*
X25798Y-13255D01*
X25698Y-13278D01*
X25610Y-13477D01*
X25605Y-13694D01*
X25684Y-13896D01*
X25698Y-13917D01*
X25798Y-13941D01*
X26140Y-13598D01*
X26140Y-13624D01*
X25810Y-13953D01*
X25833Y-14053D01*
X26032Y-14141D01*
X26139Y-14143D01*
X26111Y-14210D01*
X26111Y-14387D01*
X26178Y-14550D01*
X26303Y-14675D01*
X26395Y-14713D01*
X24939Y-14713D01*
X24939Y-13833D01*
X24851Y-13619D01*
X24688Y-13456D01*
X24474Y-13367D01*
X24243Y-13367D01*
X24029Y-13455D01*
X23865Y-13618D01*
X23776Y-13832D01*
X23776Y-14063D01*
X23865Y-14277D01*
X24028Y-14441D01*
X24242Y-14530D01*
X24473Y-14530D01*
X24687Y-14442D01*
X24850Y-14278D01*
X24939Y-14064D01*
X24939Y-13833D01*
X24939Y-14713D01*
X24585Y-14713D01*
X23467Y-15831D01*
X23467Y-13833D01*
X23379Y-13619D01*
X23215Y-13456D01*
X23052Y-13388D01*
X23052Y-12426D01*
X22920Y-12107D01*
X22676Y-11863D01*
X22358Y-11731D01*
X22013Y-11731D01*
X21694Y-11863D01*
X21450Y-12106D01*
X21318Y-12425D01*
X21317Y-12770D01*
X21449Y-13088D01*
X21693Y-13332D01*
X22011Y-13465D01*
X22356Y-13465D01*
X22675Y-13333D01*
X22919Y-13090D01*
X23051Y-12771D01*
X23052Y-12426D01*
X23052Y-13388D01*
X23002Y-13367D01*
X22770Y-13367D01*
X22556Y-13455D01*
X22393Y-13618D01*
X22304Y-13832D01*
X22304Y-14063D01*
X22392Y-14277D01*
X22556Y-14441D01*
X22769Y-14530D01*
X23000Y-14530D01*
X23214Y-14442D01*
X23378Y-14278D01*
X23467Y-14064D01*
X23467Y-13833D01*
X23467Y-15831D01*
X21534Y-17764D01*
X21534Y-14211D01*
X21467Y-14048D01*
X21342Y-13923D01*
X21179Y-13855D01*
X21060Y-13855D01*
X21065Y-13850D01*
X21132Y-13687D01*
X21132Y-13510D01*
X21065Y-13347D01*
X20940Y-13222D01*
X20777Y-13154D01*
X20601Y-13154D01*
X20437Y-13221D01*
X20356Y-13303D01*
X20355Y-13300D01*
X20341Y-13278D01*
X20241Y-13255D01*
X20228Y-13268D01*
X20228Y-13242D01*
X20205Y-13143D01*
X20006Y-13055D01*
X19789Y-13050D01*
X19587Y-13128D01*
X19566Y-13143D01*
X19543Y-13242D01*
X19885Y-13585D01*
X20228Y-13242D01*
X20228Y-13268D01*
X19898Y-13598D01*
X19904Y-13603D01*
X19891Y-13616D01*
X19885Y-13611D01*
X19880Y-13616D01*
X19867Y-13603D01*
X19873Y-13598D01*
X19530Y-13255D01*
X19430Y-13278D01*
X19418Y-13306D01*
X19334Y-13222D01*
X19171Y-13154D01*
X18994Y-13154D01*
X18831Y-13221D01*
X18750Y-13303D01*
X18748Y-13300D01*
X18734Y-13278D01*
X18634Y-13255D01*
X18622Y-13268D01*
X18622Y-13242D01*
X18599Y-13143D01*
X18400Y-13055D01*
X18183Y-13050D01*
X18052Y-13101D01*
X18052Y-12426D01*
X17920Y-12107D01*
X17676Y-11863D01*
X17358Y-11731D01*
X17013Y-11731D01*
X16694Y-11863D01*
X16450Y-12106D01*
X16318Y-12425D01*
X16317Y-12770D01*
X16449Y-13088D01*
X16693Y-13332D01*
X17011Y-13465D01*
X17356Y-13465D01*
X17675Y-13333D01*
X17919Y-13090D01*
X18051Y-12771D01*
X18052Y-12426D01*
X18052Y-13101D01*
X17981Y-13128D01*
X17959Y-13143D01*
X17936Y-13242D01*
X18279Y-13585D01*
X18622Y-13242D01*
X18622Y-13268D01*
X18292Y-13598D01*
X18297Y-13603D01*
X18285Y-13616D01*
X18279Y-13611D01*
X18266Y-13624D01*
X18266Y-13598D01*
X17924Y-13255D01*
X17824Y-13278D01*
X17736Y-13477D01*
X17731Y-13694D01*
X17810Y-13896D01*
X17824Y-13917D01*
X17924Y-13941D01*
X18266Y-13598D01*
X18266Y-13624D01*
X17936Y-13953D01*
X17959Y-14053D01*
X18158Y-14141D01*
X18264Y-14143D01*
X18237Y-14210D01*
X18237Y-14387D01*
X18304Y-14550D01*
X18429Y-14675D01*
X18592Y-14743D01*
X18769Y-14743D01*
X18932Y-14675D01*
X19057Y-14551D01*
X19082Y-14489D01*
X19107Y-14550D01*
X19232Y-14675D01*
X19395Y-14743D01*
X19572Y-14743D01*
X19735Y-14675D01*
X19860Y-14551D01*
X19885Y-14489D01*
X19910Y-14550D01*
X20035Y-14675D01*
X20198Y-14743D01*
X20375Y-14743D01*
X20538Y-14675D01*
X20663Y-14551D01*
X20688Y-14489D01*
X20713Y-14550D01*
X20838Y-14675D01*
X21001Y-14743D01*
X21178Y-14743D01*
X21341Y-14675D01*
X21466Y-14551D01*
X21534Y-14387D01*
X21534Y-14211D01*
X21534Y-17764D01*
X18453Y-20845D01*
X18453Y-30461D01*
X17065Y-30461D01*
X17065Y-13833D01*
X16977Y-13619D01*
X16814Y-13456D01*
X16600Y-13367D01*
X16369Y-13367D01*
X16155Y-13455D01*
X15991Y-13618D01*
X15902Y-13832D01*
X15902Y-14063D01*
X15990Y-14277D01*
X16154Y-14441D01*
X16368Y-14530D01*
X16599Y-14530D01*
X16813Y-14442D01*
X16976Y-14278D01*
X17065Y-14064D01*
X17065Y-13833D01*
X17065Y-30461D01*
X16162Y-30461D01*
X16250Y-30373D01*
X16317Y-30210D01*
X16318Y-30034D01*
X16250Y-29870D01*
X16125Y-29745D01*
X16064Y-29720D01*
X16125Y-29695D01*
X16250Y-29570D01*
X16317Y-29407D01*
X16318Y-29230D01*
X16250Y-29067D01*
X16125Y-28942D01*
X16064Y-28917D01*
X16125Y-28892D01*
X16250Y-28767D01*
X16317Y-28604D01*
X16318Y-28427D01*
X16250Y-28264D01*
X16125Y-28139D01*
X16105Y-28131D01*
X16105Y-26605D01*
X16016Y-26391D01*
X15939Y-26313D01*
X15939Y-23527D01*
X15866Y-23351D01*
X15731Y-23216D01*
X15556Y-23143D01*
X15365Y-23143D01*
X15189Y-23216D01*
X15109Y-23296D01*
X15109Y-11941D01*
X14907Y-11452D01*
X14533Y-11078D01*
X14045Y-10875D01*
X13516Y-10874D01*
X13027Y-11076D01*
X12653Y-11450D01*
X12450Y-11939D01*
X12449Y-12468D01*
X12651Y-12956D01*
X13025Y-13331D01*
X13513Y-13534D01*
X14042Y-13534D01*
X14531Y-13332D01*
X14905Y-12958D01*
X15108Y-12470D01*
X15109Y-11941D01*
X15109Y-23296D01*
X15055Y-23350D01*
X14982Y-23526D01*
X14982Y-23716D01*
X15054Y-23892D01*
X15189Y-24027D01*
X15365Y-24100D01*
X15555Y-24100D01*
X15731Y-24027D01*
X15865Y-23893D01*
X15938Y-23717D01*
X15939Y-23527D01*
X15939Y-26313D01*
X15853Y-26227D01*
X15639Y-26139D01*
X15408Y-26138D01*
X15194Y-26227D01*
X15030Y-26390D01*
X14942Y-26604D01*
X14942Y-26835D01*
X15030Y-27049D01*
X15193Y-27213D01*
X15407Y-27301D01*
X15638Y-27302D01*
X15852Y-27213D01*
X16016Y-27050D01*
X16105Y-26836D01*
X16105Y-26605D01*
X16105Y-28131D01*
X15962Y-28071D01*
X15786Y-28071D01*
X15622Y-28139D01*
X15497Y-28263D01*
X15430Y-28427D01*
X15430Y-28546D01*
X15425Y-28541D01*
X15261Y-28473D01*
X15085Y-28473D01*
X15040Y-28491D01*
X15040Y-27249D01*
X14939Y-27004D01*
X14939Y-23527D01*
X14866Y-23351D01*
X14731Y-23216D01*
X14556Y-23143D01*
X14365Y-23143D01*
X14189Y-23216D01*
X14055Y-23350D01*
X13982Y-23526D01*
X13982Y-23716D01*
X14054Y-23892D01*
X14189Y-24027D01*
X14365Y-24100D01*
X14555Y-24100D01*
X14731Y-24027D01*
X14865Y-23893D01*
X14938Y-23717D01*
X14939Y-23527D01*
X14939Y-27004D01*
X14908Y-26930D01*
X14664Y-26686D01*
X14346Y-26554D01*
X14001Y-26554D01*
X13682Y-26685D01*
X13438Y-26929D01*
X13306Y-27248D01*
X13306Y-27592D01*
X13437Y-27911D01*
X13681Y-28155D01*
X14000Y-28288D01*
X14344Y-28288D01*
X14663Y-28156D01*
X14907Y-27912D01*
X15040Y-27594D01*
X15040Y-27249D01*
X15040Y-28491D01*
X14922Y-28540D01*
X14797Y-28665D01*
X14729Y-28828D01*
X14729Y-29005D01*
X14796Y-29168D01*
X14877Y-29249D01*
X14874Y-29251D01*
X14853Y-29265D01*
X14830Y-29365D01*
X15173Y-29707D01*
X15178Y-29702D01*
X15191Y-29714D01*
X15186Y-29720D01*
X15191Y-29726D01*
X15178Y-29738D01*
X15173Y-29733D01*
X15160Y-29746D01*
X15160Y-29720D01*
X14817Y-29377D01*
X14718Y-29400D01*
X14630Y-29599D01*
X14625Y-29816D01*
X14703Y-30018D01*
X14718Y-30040D01*
X14817Y-30063D01*
X15160Y-29720D01*
X15160Y-29746D01*
X14830Y-30075D01*
X14853Y-30175D01*
X14881Y-30187D01*
X14797Y-30271D01*
X14729Y-30434D01*
X14729Y-30461D01*
X11979Y-30461D01*
X11979Y-10404D01*
X51012Y-10404D01*
X51012Y-49438D01*
M02*
