G04 (created by PCBNEW (2013-07-07 BZR 4022)-stable) date 9/18/2013 14:10:40*
%MOIN*%
G04 Gerber Fmt 3.4, Leading zero omitted, Abs format*
%FSLAX34Y34*%
G01*
G70*
G90*
G04 APERTURE LIST*
%ADD10C,0.00590551*%
%ADD11C,0.011811*%
%ADD12R,0.0374425X0.0728425*%
%ADD13R,0.0374425X0.0925425*%
%ADD14R,0.0885425X0.118143*%
%ADD15R,0.0354425X0.0216425*%
%ADD16R,0.0348425X0.0598425*%
%ADD17R,0.0348425X0.0548425*%
%ADD18R,0.0548425X0.0348425*%
%ADD19C,0.0758425*%
%ADD20C,0.246063*%
%ADD21R,0.0648425X0.0448425*%
%ADD22C,0.153543*%
%ADD23C,0.0689425*%
%ADD24C,0.0964567*%
G04 APERTURE END LIST*
G54D10*
G54D11*
X53703Y-18158D02*
X53506Y-18158D01*
X53506Y-18467D02*
X53506Y-17876D01*
X53787Y-17876D01*
X54012Y-18411D02*
X54041Y-18439D01*
X54012Y-18467D01*
X53984Y-18439D01*
X54012Y-18411D01*
X54012Y-18467D01*
X54294Y-18467D02*
X54294Y-17876D01*
X54491Y-18298D01*
X54687Y-17876D01*
X54687Y-18467D01*
X55222Y-18467D02*
X55222Y-18158D01*
X55194Y-18101D01*
X55137Y-18073D01*
X55025Y-18073D01*
X54969Y-18101D01*
X55222Y-18439D02*
X55165Y-18467D01*
X55025Y-18467D01*
X54969Y-18439D01*
X54940Y-18383D01*
X54940Y-18326D01*
X54969Y-18270D01*
X55025Y-18242D01*
X55165Y-18242D01*
X55222Y-18214D01*
X55475Y-18439D02*
X55531Y-18467D01*
X55643Y-18467D01*
X55700Y-18439D01*
X55728Y-18383D01*
X55728Y-18354D01*
X55700Y-18298D01*
X55643Y-18270D01*
X55559Y-18270D01*
X55503Y-18242D01*
X55475Y-18186D01*
X55475Y-18158D01*
X55503Y-18101D01*
X55559Y-18073D01*
X55643Y-18073D01*
X55700Y-18101D01*
X55981Y-18467D02*
X55981Y-17876D01*
X56037Y-18242D02*
X56206Y-18467D01*
X56206Y-18073D02*
X55981Y-18298D01*
G54D12*
X37991Y-33346D03*
G54D13*
X38582Y-33248D03*
G54D12*
X39173Y-33346D03*
G54D14*
X38582Y-32303D03*
G54D15*
X35661Y-30216D03*
X35661Y-30019D03*
X35661Y-29822D03*
X35661Y-29625D03*
X35208Y-29625D03*
X35208Y-29822D03*
X35208Y-30019D03*
X35208Y-30216D03*
G54D16*
X29996Y-31021D03*
X30496Y-31021D03*
X30996Y-31021D03*
X31496Y-31021D03*
X31996Y-31021D03*
X32496Y-31021D03*
X32996Y-31021D03*
X32996Y-28821D03*
X32496Y-28821D03*
X31996Y-28821D03*
X31496Y-28821D03*
X30996Y-28821D03*
X30496Y-28821D03*
X29996Y-28821D03*
G54D17*
X15260Y-20866D03*
X14660Y-20866D03*
X19985Y-29921D03*
X19385Y-29921D03*
G54D18*
X40944Y-28243D03*
X40944Y-28843D03*
G54D19*
X14460Y-23622D03*
X15460Y-23622D03*
G54D20*
X13779Y-47637D03*
X49212Y-47637D03*
X49212Y-12204D03*
X13779Y-12204D03*
G54D21*
X41043Y-33975D03*
X41043Y-34725D03*
X36122Y-33975D03*
X36122Y-34725D03*
G54D22*
X40807Y-12598D03*
X45807Y-12598D03*
G54D23*
X41901Y-13598D03*
X42303Y-14299D03*
X42704Y-13598D03*
X43106Y-14299D03*
X43507Y-13598D03*
X43909Y-14299D03*
X44311Y-13598D03*
X44712Y-14299D03*
G54D24*
X40106Y-13948D03*
X46507Y-13948D03*
G54D22*
X32933Y-12598D03*
X37933Y-12598D03*
G54D23*
X34027Y-13598D03*
X34429Y-14299D03*
X34830Y-13598D03*
X35232Y-14299D03*
X35633Y-13598D03*
X36035Y-14299D03*
X36437Y-13598D03*
X36838Y-14299D03*
G54D24*
X32232Y-13948D03*
X38633Y-13948D03*
G54D22*
X25059Y-12598D03*
X30059Y-12598D03*
G54D23*
X26153Y-13598D03*
X26555Y-14299D03*
X26956Y-13598D03*
X27358Y-14299D03*
X27759Y-13598D03*
X28161Y-14299D03*
X28562Y-13598D03*
X28964Y-14299D03*
G54D24*
X24358Y-13948D03*
X30759Y-13948D03*
G54D22*
X17185Y-12598D03*
X22185Y-12598D03*
G54D23*
X18279Y-13598D03*
X18681Y-14299D03*
X19082Y-13598D03*
X19484Y-14299D03*
X19885Y-13598D03*
X20287Y-14299D03*
X20688Y-13598D03*
X21090Y-14299D03*
G54D24*
X16484Y-13948D03*
X22885Y-13948D03*
G54D22*
X48818Y-27421D03*
X48818Y-32421D03*
G54D23*
X47818Y-28515D03*
X47118Y-28917D03*
X47818Y-29318D03*
X47118Y-29720D03*
X47818Y-30122D03*
X47118Y-30523D03*
X47818Y-30925D03*
X47118Y-31326D03*
G54D24*
X47468Y-26720D03*
X47468Y-33122D03*
G54D22*
X14173Y-32421D03*
X14173Y-27421D03*
G54D23*
X15173Y-31326D03*
X15874Y-30925D03*
X15173Y-30523D03*
X15874Y-30122D03*
X15173Y-29720D03*
X15874Y-29318D03*
X15173Y-28917D03*
X15874Y-28515D03*
G54D24*
X15523Y-33122D03*
X15523Y-26720D03*
G54D22*
X45807Y-47244D03*
X40807Y-47244D03*
G54D23*
X44712Y-46244D03*
X44311Y-45543D03*
X43909Y-46244D03*
X43507Y-45543D03*
X43106Y-46244D03*
X42704Y-45543D03*
X42303Y-46244D03*
X41901Y-45543D03*
G54D24*
X46507Y-45893D03*
X40106Y-45893D03*
G54D22*
X37933Y-47244D03*
X32933Y-47244D03*
G54D23*
X36838Y-46244D03*
X36437Y-45543D03*
X36035Y-46244D03*
X35633Y-45543D03*
X35232Y-46244D03*
X34830Y-45543D03*
X34429Y-46244D03*
X34027Y-45543D03*
G54D24*
X38633Y-45893D03*
X32232Y-45893D03*
G54D22*
X30059Y-47244D03*
X25059Y-47244D03*
G54D23*
X28964Y-46244D03*
X28562Y-45543D03*
X28161Y-46244D03*
X27759Y-45543D03*
X27358Y-46244D03*
X26956Y-45543D03*
X26555Y-46244D03*
X26153Y-45543D03*
G54D24*
X30759Y-45893D03*
X24358Y-45893D03*
G54D22*
X22185Y-47244D03*
X17185Y-47244D03*
G54D23*
X21090Y-46244D03*
X20688Y-45543D03*
X20287Y-46244D03*
X19885Y-45543D03*
X19484Y-46244D03*
X19082Y-45543D03*
X18681Y-46244D03*
X18279Y-45543D03*
G54D24*
X22885Y-45893D03*
X16484Y-45893D03*
M02*
