G04 (created by PCBNEW (2013-07-07 BZR 4022)-stable) date 9/18/2013 14:10:39*
%MOIN*%
G04 Gerber Fmt 3.4, Leading zero omitted, Abs format*
%FSLAX34Y34*%
G01*
G70*
G90*
G04 APERTURE LIST*
%ADD10C,0.00590551*%
%ADD11C,0.011811*%
%ADD12C,0.0758425*%
%ADD13C,0.246063*%
%ADD14C,0.153543*%
%ADD15C,0.0689425*%
%ADD16C,0.0964567*%
G04 APERTURE END LIST*
G54D10*
G54D11*
X53667Y-16839D02*
X53751Y-16867D01*
X53779Y-16895D01*
X53807Y-16951D01*
X53807Y-17035D01*
X53779Y-17092D01*
X53751Y-17120D01*
X53695Y-17148D01*
X53470Y-17148D01*
X53470Y-16557D01*
X53667Y-16557D01*
X53723Y-16586D01*
X53751Y-16614D01*
X53779Y-16670D01*
X53779Y-16726D01*
X53751Y-16782D01*
X53723Y-16811D01*
X53667Y-16839D01*
X53470Y-16839D01*
X54060Y-17092D02*
X54088Y-17120D01*
X54060Y-17148D01*
X54032Y-17120D01*
X54060Y-17092D01*
X54060Y-17148D01*
X54313Y-17120D02*
X54398Y-17148D01*
X54538Y-17148D01*
X54595Y-17120D01*
X54623Y-17092D01*
X54651Y-17035D01*
X54651Y-16979D01*
X54623Y-16923D01*
X54595Y-16895D01*
X54538Y-16867D01*
X54426Y-16839D01*
X54370Y-16811D01*
X54341Y-16782D01*
X54313Y-16726D01*
X54313Y-16670D01*
X54341Y-16614D01*
X54370Y-16586D01*
X54426Y-16557D01*
X54566Y-16557D01*
X54651Y-16586D01*
X54904Y-17148D02*
X54904Y-16754D01*
X54904Y-16557D02*
X54876Y-16586D01*
X54904Y-16614D01*
X54932Y-16586D01*
X54904Y-16557D01*
X54904Y-16614D01*
X55269Y-17148D02*
X55213Y-17120D01*
X55185Y-17064D01*
X55185Y-16557D01*
X55494Y-17148D02*
X55494Y-16557D01*
X55551Y-16923D02*
X55719Y-17148D01*
X55719Y-16754D02*
X55494Y-16979D01*
X55944Y-17120D02*
X56029Y-17148D01*
X56169Y-17148D01*
X56226Y-17120D01*
X56254Y-17092D01*
X56282Y-17035D01*
X56282Y-16979D01*
X56254Y-16923D01*
X56226Y-16895D01*
X56169Y-16867D01*
X56057Y-16839D01*
X56001Y-16811D01*
X55973Y-16782D01*
X55944Y-16726D01*
X55944Y-16670D01*
X55973Y-16614D01*
X56001Y-16586D01*
X56057Y-16557D01*
X56197Y-16557D01*
X56282Y-16586D01*
%LPC*%
X53641Y-19319D02*
X53726Y-19347D01*
X53754Y-19375D01*
X53782Y-19431D01*
X53782Y-19516D01*
X53754Y-19572D01*
X53726Y-19600D01*
X53669Y-19628D01*
X53444Y-19628D01*
X53444Y-19038D01*
X53641Y-19038D01*
X53697Y-19066D01*
X53726Y-19094D01*
X53754Y-19150D01*
X53754Y-19206D01*
X53726Y-19263D01*
X53697Y-19291D01*
X53641Y-19319D01*
X53444Y-19319D01*
X54035Y-19572D02*
X54063Y-19600D01*
X54035Y-19628D01*
X54007Y-19600D01*
X54035Y-19572D01*
X54035Y-19628D01*
X54316Y-19628D02*
X54316Y-19038D01*
X54513Y-19460D01*
X54710Y-19038D01*
X54710Y-19628D01*
X55244Y-19628D02*
X55244Y-19319D01*
X55216Y-19263D01*
X55160Y-19235D01*
X55047Y-19235D01*
X54991Y-19263D01*
X55244Y-19600D02*
X55188Y-19628D01*
X55047Y-19628D01*
X54991Y-19600D01*
X54963Y-19544D01*
X54963Y-19488D01*
X54991Y-19431D01*
X55047Y-19403D01*
X55188Y-19403D01*
X55244Y-19375D01*
X55497Y-19600D02*
X55553Y-19628D01*
X55666Y-19628D01*
X55722Y-19600D01*
X55750Y-19544D01*
X55750Y-19516D01*
X55722Y-19460D01*
X55666Y-19431D01*
X55582Y-19431D01*
X55525Y-19403D01*
X55497Y-19347D01*
X55497Y-19319D01*
X55525Y-19263D01*
X55582Y-19235D01*
X55666Y-19235D01*
X55722Y-19263D01*
X56003Y-19628D02*
X56003Y-19038D01*
X56060Y-19403D02*
X56228Y-19628D01*
X56228Y-19235D02*
X56003Y-19460D01*
G54D12*
X14460Y-23622D03*
X15460Y-23622D03*
G54D13*
X13779Y-47637D03*
X49212Y-47637D03*
X49212Y-12204D03*
X13779Y-12204D03*
G54D14*
X40807Y-12598D03*
X45807Y-12598D03*
G54D15*
X41901Y-13598D03*
X42303Y-14299D03*
X42704Y-13598D03*
X43106Y-14299D03*
X43507Y-13598D03*
X43909Y-14299D03*
X44311Y-13598D03*
X44712Y-14299D03*
G54D16*
X40106Y-13948D03*
X46507Y-13948D03*
G54D14*
X32933Y-12598D03*
X37933Y-12598D03*
G54D15*
X34027Y-13598D03*
X34429Y-14299D03*
X34830Y-13598D03*
X35232Y-14299D03*
X35633Y-13598D03*
X36035Y-14299D03*
X36437Y-13598D03*
X36838Y-14299D03*
G54D16*
X32232Y-13948D03*
X38633Y-13948D03*
G54D14*
X25059Y-12598D03*
X30059Y-12598D03*
G54D15*
X26153Y-13598D03*
X26555Y-14299D03*
X26956Y-13598D03*
X27358Y-14299D03*
X27759Y-13598D03*
X28161Y-14299D03*
X28562Y-13598D03*
X28964Y-14299D03*
G54D16*
X24358Y-13948D03*
X30759Y-13948D03*
G54D14*
X17185Y-12598D03*
X22185Y-12598D03*
G54D15*
X18279Y-13598D03*
X18681Y-14299D03*
X19082Y-13598D03*
X19484Y-14299D03*
X19885Y-13598D03*
X20287Y-14299D03*
X20688Y-13598D03*
X21090Y-14299D03*
G54D16*
X16484Y-13948D03*
X22885Y-13948D03*
G54D14*
X48818Y-27421D03*
X48818Y-32421D03*
G54D15*
X47818Y-28515D03*
X47118Y-28917D03*
X47818Y-29318D03*
X47118Y-29720D03*
X47818Y-30122D03*
X47118Y-30523D03*
X47818Y-30925D03*
X47118Y-31326D03*
G54D16*
X47468Y-26720D03*
X47468Y-33122D03*
G54D14*
X14173Y-32421D03*
X14173Y-27421D03*
G54D15*
X15173Y-31326D03*
X15874Y-30925D03*
X15173Y-30523D03*
X15874Y-30122D03*
X15173Y-29720D03*
X15874Y-29318D03*
X15173Y-28917D03*
X15874Y-28515D03*
G54D16*
X15523Y-33122D03*
X15523Y-26720D03*
G54D14*
X45807Y-47244D03*
X40807Y-47244D03*
G54D15*
X44712Y-46244D03*
X44311Y-45543D03*
X43909Y-46244D03*
X43507Y-45543D03*
X43106Y-46244D03*
X42704Y-45543D03*
X42303Y-46244D03*
X41901Y-45543D03*
G54D16*
X46507Y-45893D03*
X40106Y-45893D03*
G54D14*
X37933Y-47244D03*
X32933Y-47244D03*
G54D15*
X36838Y-46244D03*
X36437Y-45543D03*
X36035Y-46244D03*
X35633Y-45543D03*
X35232Y-46244D03*
X34830Y-45543D03*
X34429Y-46244D03*
X34027Y-45543D03*
G54D16*
X38633Y-45893D03*
X32232Y-45893D03*
G54D14*
X30059Y-47244D03*
X25059Y-47244D03*
G54D15*
X28964Y-46244D03*
X28562Y-45543D03*
X28161Y-46244D03*
X27759Y-45543D03*
X27358Y-46244D03*
X26956Y-45543D03*
X26555Y-46244D03*
X26153Y-45543D03*
G54D16*
X30759Y-45893D03*
X24358Y-45893D03*
G54D14*
X22185Y-47244D03*
X17185Y-47244D03*
G54D15*
X21090Y-46244D03*
X20688Y-45543D03*
X20287Y-46244D03*
X19885Y-45543D03*
X19484Y-46244D03*
X19082Y-45543D03*
X18681Y-46244D03*
X18279Y-45543D03*
G54D16*
X22885Y-45893D03*
X16484Y-45893D03*
M02*
