G04 (created by PCBNEW (2013-07-07 BZR 4022)-stable) date 9/18/2013 14:10:39*
%MOIN*%
G04 Gerber Fmt 3.4, Leading zero omitted, Abs format*
%FSLAX34Y34*%
G01*
G70*
G90*
G04 APERTURE LIST*
%ADD10C,0.00590551*%
%ADD11C,0.011811*%
%ADD12R,0.0276X0.063*%
%ADD13R,0.0276X0.0827*%
%ADD14R,0.0787X0.1083*%
%ADD15R,0.0256X0.0118*%
%ADD16R,0.025X0.05*%
%ADD17R,0.025X0.045*%
%ADD18R,0.045X0.025*%
%ADD19R,0.055X0.035*%
G04 APERTURE END LIST*
G54D10*
G54D11*
X53681Y-13158D02*
X53484Y-13158D01*
X53484Y-13467D02*
X53484Y-12876D01*
X53765Y-12876D01*
X53990Y-13411D02*
X54018Y-13439D01*
X53990Y-13467D01*
X53962Y-13439D01*
X53990Y-13411D01*
X53990Y-13467D01*
X54271Y-13467D02*
X54271Y-12876D01*
X54496Y-12876D01*
X54552Y-12904D01*
X54580Y-12933D01*
X54609Y-12989D01*
X54609Y-13073D01*
X54580Y-13129D01*
X54552Y-13158D01*
X54496Y-13186D01*
X54271Y-13186D01*
X55115Y-13467D02*
X55115Y-13158D01*
X55087Y-13101D01*
X55030Y-13073D01*
X54918Y-13073D01*
X54862Y-13101D01*
X55115Y-13439D02*
X55059Y-13467D01*
X54918Y-13467D01*
X54862Y-13439D01*
X54834Y-13383D01*
X54834Y-13326D01*
X54862Y-13270D01*
X54918Y-13242D01*
X55059Y-13242D01*
X55115Y-13214D01*
X55368Y-13439D02*
X55424Y-13467D01*
X55537Y-13467D01*
X55593Y-13439D01*
X55621Y-13383D01*
X55621Y-13354D01*
X55593Y-13298D01*
X55537Y-13270D01*
X55452Y-13270D01*
X55396Y-13242D01*
X55368Y-13186D01*
X55368Y-13158D01*
X55396Y-13101D01*
X55452Y-13073D01*
X55537Y-13073D01*
X55593Y-13101D01*
X55790Y-13073D02*
X56015Y-13073D01*
X55874Y-12876D02*
X55874Y-13383D01*
X55902Y-13439D01*
X55958Y-13467D01*
X56015Y-13467D01*
X56437Y-13439D02*
X56380Y-13467D01*
X56268Y-13467D01*
X56212Y-13439D01*
X56183Y-13383D01*
X56183Y-13158D01*
X56212Y-13101D01*
X56268Y-13073D01*
X56380Y-13073D01*
X56437Y-13101D01*
X56465Y-13158D01*
X56465Y-13214D01*
X56183Y-13270D01*
G54D12*
X37991Y-33346D03*
G54D13*
X38582Y-33248D03*
G54D12*
X39173Y-33346D03*
G54D14*
X38582Y-32303D03*
G54D15*
X35661Y-30216D03*
X35661Y-30019D03*
X35661Y-29822D03*
X35661Y-29625D03*
X35208Y-29625D03*
X35208Y-29822D03*
X35208Y-30019D03*
X35208Y-30216D03*
G54D16*
X29996Y-31021D03*
X30496Y-31021D03*
X30996Y-31021D03*
X31496Y-31021D03*
X31996Y-31021D03*
X32496Y-31021D03*
X32996Y-31021D03*
X32996Y-28821D03*
X32496Y-28821D03*
X31996Y-28821D03*
X31496Y-28821D03*
X30996Y-28821D03*
X30496Y-28821D03*
X29996Y-28821D03*
G54D17*
X15260Y-20866D03*
X14660Y-20866D03*
X19985Y-29921D03*
X19385Y-29921D03*
G54D18*
X40944Y-28243D03*
X40944Y-28843D03*
G54D19*
X41043Y-33975D03*
X41043Y-34725D03*
X36122Y-33975D03*
X36122Y-34725D03*
M02*
