M48
;DRILL file {Pcbnew (2013-07-07 BZR 4022)-stable} date 18/09/2013 13:21:21
;FORMAT={-:-/ absolute / metric / decimal}
FMAT,2
METRIC,TZ
T1C0.635
T2C0.813
T3C0.899
T4C1.600
%
G90
G05
M71
T1
X18.6Y-52.6
X20.799Y-33.4
X20.799Y-34.8
X20.8Y-36.
X27.5Y-41.2
X27.5Y-43.
X28.4Y-42.1
X30.2Y-49.2
X39.2Y-37.8
X39.4Y-40.3
X39.4Y-45.5
X39.5Y-47.9
X41.9Y-45.5
X43.2Y-47.9
X44.6Y-40.3
X44.6Y-44.2
X48.9Y-42.9
X48.9Y-45.3
X50.785Y-49.215
X60.9Y-35.3
X62.3Y-34.2
X67.6Y-41.5
X70.7Y-40.3
X70.7Y-42.1
X77.3Y-40.3
X79.1Y-43.
X82.3Y-37.8
X83.2Y-35.2
X84.8Y-46.8
X89.4Y-35.3
X89.4Y-37.8
X91.6Y-43.
X93.1Y-45.5
X94.6Y-37.8
X94.6Y-41.7
X98.7Y-35.3
X98.7Y-46.6
X100.8Y-35.3
X100.8Y-39.1
X102.Y-35.3
X102.Y-41.6
X103.2Y-35.3
X103.2Y-44.1
T2
X75.73Y-54.
X78.27Y-54.
X82.73Y-54.
X85.27Y-54.
X89.73Y-54.
X92.27Y-54.
X96.73Y-54.
X99.27Y-54.
T3
X28.43Y-20.54
X29.45Y-22.32
X30.47Y-20.54
X31.49Y-22.32
X32.51Y-20.54
X33.53Y-22.32
X34.55Y-20.54
X35.57Y-22.32
X48.43Y-20.54
X49.45Y-22.32
X50.47Y-20.54
X51.49Y-22.32
X52.51Y-20.54
X53.53Y-22.32
X54.55Y-20.54
X55.57Y-22.32
X58.43Y-51.68
X59.45Y-53.46
X60.47Y-51.68
X61.49Y-53.46
X62.51Y-51.68
X63.53Y-53.46
X64.55Y-51.68
X65.57Y-53.46
X68.43Y-20.54
X69.45Y-22.32
X70.47Y-20.54
X71.49Y-22.32
X72.51Y-20.54
X73.53Y-22.32
X74.55Y-20.54
X75.57Y-22.32
X88.43Y-20.54
X89.45Y-22.32
X90.47Y-20.54
X91.49Y-22.32
X92.51Y-20.54
X93.53Y-22.32
X94.55Y-20.54
X95.57Y-22.32
T4
X23.87Y-21.43
X40.13Y-21.43
X43.87Y-21.43
X53.87Y-52.57
X60.13Y-21.43
X63.87Y-21.43
X70.13Y-52.57
X80.13Y-21.43
X83.87Y-21.43
X100.13Y-21.43
T0
M30
