M48
;DRILL file {Pcbnew (2013-07-07 BZR 4022)-stable} date 24/09/2013 15:52:33
;FORMAT={-:-/ absolute / metric / decimal}
FMAT,2
METRIC,TZ
T1C0.635
T2C0.813
T3C0.899
T4C1.600
%
G90
G05
M71
T1
X25.Y-39.6
X38.5Y-48.5
X42.4Y-42.9
X42.4Y-47.6
X47.3Y-56.4
X49.Y-56.4
X51.8Y-56.4
X53.8Y-39.2
X54.2Y-56.5
X54.6Y-27.3
X54.6Y-28.5
X54.6Y-29.6
X56.Y-45.6
X56.3Y-39.4
X56.8Y-56.4
X57.5Y-44.6
X58.4Y-56.2
X58.7Y-35.8
X58.7Y-43.
X60.1Y-56.2
X60.8Y-32.1
X60.9Y-62.7
X61.Y-44.4
X61.8Y-31.1
X62.Y-36.9
X62.3Y-54.8
X62.8Y-32.1
X62.8Y-49.5
X75.Y-42.
X85.Y-54.6
X85.2Y-44.8
X85.9Y-56.2
X86.3Y-50.7
X94.1Y-48.3
X95.7Y-61.6
X109.8Y-44.5
T2
X88.213Y-25.395
X88.213Y-27.935
X95.213Y-25.395
X95.213Y-27.935
X102.213Y-25.395
X102.213Y-27.935
X109.213Y-25.395
X109.213Y-27.935
T3
X31.54Y-43.45
X31.54Y-45.49
X31.54Y-47.53
X31.54Y-49.57
X33.32Y-42.43
X33.32Y-44.47
X33.32Y-46.51
X33.32Y-48.55
X69.43Y-29.54
X69.43Y-60.68
X70.45Y-31.32
X70.45Y-62.46
X71.47Y-29.54
X71.47Y-60.68
X72.49Y-31.32
X72.49Y-62.46
X73.51Y-29.54
X73.51Y-60.68
X74.53Y-31.32
X74.53Y-62.46
X75.55Y-29.54
X75.55Y-60.68
X76.57Y-31.32
X76.57Y-62.46
X112.68Y-43.45
X112.68Y-45.49
X112.68Y-47.53
X112.68Y-49.57
X114.46Y-42.43
X114.46Y-44.47
X114.46Y-46.51
X114.46Y-48.55
T4
X32.43Y-37.87
X32.43Y-54.13
X64.87Y-30.43
X64.87Y-61.57
X81.13Y-30.43
X81.13Y-61.57
X113.57Y-37.87
X113.57Y-54.13
T0
M30
