G04 (created by PCBNEW (2013-07-07 BZR 4022)-stable) date 9/18/2013 12:17:53*
%MOIN*%
G04 Gerber Fmt 3.4, Leading zero omitted, Abs format*
%FSLAX34Y34*%
G01*
G70*
G90*
G04 APERTURE LIST*
%ADD10C,0.00590551*%
%ADD11C,0.011811*%
%ADD12C,0.23622*%
%ADD13C,0.1437*%
%ADD14C,0.0591*%
%ADD15C,0.0866142*%
%ADD16C,0.035*%
%ADD17C,0.019685*%
%ADD18C,0.00787402*%
G04 APERTURE END LIST*
G54D10*
G54D11*
X46701Y-7606D02*
X46785Y-7634D01*
X46813Y-7663D01*
X46841Y-7719D01*
X46841Y-7803D01*
X46813Y-7859D01*
X46785Y-7888D01*
X46729Y-7916D01*
X46504Y-7916D01*
X46504Y-7325D01*
X46701Y-7325D01*
X46757Y-7353D01*
X46785Y-7381D01*
X46813Y-7438D01*
X46813Y-7494D01*
X46785Y-7550D01*
X46757Y-7578D01*
X46701Y-7606D01*
X46504Y-7606D01*
X47095Y-7859D02*
X47123Y-7888D01*
X47095Y-7916D01*
X47066Y-7888D01*
X47095Y-7859D01*
X47095Y-7916D01*
X47713Y-7859D02*
X47685Y-7888D01*
X47601Y-7916D01*
X47544Y-7916D01*
X47460Y-7888D01*
X47404Y-7831D01*
X47376Y-7775D01*
X47348Y-7663D01*
X47348Y-7578D01*
X47376Y-7466D01*
X47404Y-7410D01*
X47460Y-7353D01*
X47544Y-7325D01*
X47601Y-7325D01*
X47685Y-7353D01*
X47713Y-7381D01*
X48219Y-7522D02*
X48219Y-7916D01*
X47966Y-7522D02*
X47966Y-7831D01*
X47994Y-7888D01*
X48051Y-7916D01*
X48135Y-7916D01*
X48191Y-7888D01*
X48219Y-7859D01*
G54D12*
X6692Y-6692D03*
X6692Y-22440D03*
X42125Y-22440D03*
X42125Y-6692D03*
G54D13*
X33720Y-7086D03*
X38720Y-7086D03*
G54D14*
X34814Y-8086D03*
X35216Y-8787D03*
X35618Y-8086D03*
X36019Y-8787D03*
X36421Y-8086D03*
X36822Y-8787D03*
X37224Y-8086D03*
X37625Y-8787D03*
G54D15*
X33019Y-8437D03*
X39421Y-8437D03*
G54D13*
X25846Y-7086D03*
X30846Y-7086D03*
G54D14*
X26940Y-8086D03*
X27342Y-8787D03*
X27744Y-8086D03*
X28145Y-8787D03*
X28547Y-8086D03*
X28948Y-8787D03*
X29350Y-8086D03*
X29751Y-8787D03*
G54D15*
X25145Y-8437D03*
X31547Y-8437D03*
G54D13*
X17972Y-7086D03*
X22972Y-7086D03*
G54D14*
X19066Y-8086D03*
X19468Y-8787D03*
X19870Y-8086D03*
X20271Y-8787D03*
X20673Y-8086D03*
X21074Y-8787D03*
X21476Y-8086D03*
X21877Y-8787D03*
G54D15*
X17271Y-8437D03*
X23673Y-8437D03*
G54D13*
X10098Y-7086D03*
X15098Y-7086D03*
G54D14*
X11192Y-8086D03*
X11594Y-8787D03*
X11996Y-8086D03*
X12397Y-8787D03*
X12799Y-8086D03*
X13200Y-8787D03*
X13602Y-8086D03*
X14003Y-8787D03*
G54D15*
X9397Y-8437D03*
X15799Y-8437D03*
G54D13*
X32814Y-22047D03*
X27814Y-22047D03*
G54D14*
X31720Y-21047D03*
X31318Y-20346D03*
X30917Y-21047D03*
X30515Y-20346D03*
X30114Y-21047D03*
X29712Y-20346D03*
X29311Y-21047D03*
X28909Y-20346D03*
G54D15*
X33515Y-20696D03*
X27114Y-20696D03*
G54D13*
X21003Y-22047D03*
X16003Y-22047D03*
G54D14*
X19909Y-21047D03*
X19507Y-20346D03*
X19106Y-21047D03*
X18704Y-20346D03*
X18303Y-21047D03*
X17901Y-20346D03*
X17500Y-21047D03*
X17098Y-20346D03*
G54D15*
X21704Y-20696D03*
X15303Y-20696D03*
G54D16*
X17874Y-14330D03*
X12362Y-11102D03*
G54D17*
X11192Y-8086D02*
X10968Y-8086D01*
X17559Y-21791D02*
X18303Y-21047D01*
X17559Y-22204D02*
X17559Y-21791D01*
X16692Y-23070D02*
X17559Y-22204D01*
X14330Y-23070D02*
X16692Y-23070D01*
X9606Y-18346D02*
X14330Y-23070D01*
X9606Y-9448D02*
X9606Y-18346D01*
X10968Y-8086D02*
X9606Y-9448D01*
X19909Y-21047D02*
X19909Y-21035D01*
X27933Y-23228D02*
X30114Y-21047D01*
X26535Y-23228D02*
X27933Y-23228D01*
X23307Y-20000D02*
X26535Y-23228D01*
X20944Y-20000D02*
X23307Y-20000D01*
X19909Y-21035D02*
X20944Y-20000D01*
X18303Y-21047D02*
X18303Y-21374D01*
X18303Y-21374D02*
X18661Y-21732D01*
X18661Y-21732D02*
X19527Y-21732D01*
X19527Y-21732D02*
X19909Y-21350D01*
X19909Y-21350D02*
X19909Y-21047D01*
X30114Y-21047D02*
X30114Y-21216D01*
X30114Y-21216D02*
X30629Y-21732D01*
X30629Y-21732D02*
X31417Y-21732D01*
X31417Y-21732D02*
X31720Y-21429D01*
X31720Y-21429D02*
X31720Y-21047D01*
X34814Y-8086D02*
X34814Y-7783D01*
X36421Y-7681D02*
X36421Y-8086D01*
X36062Y-7322D02*
X36421Y-7681D01*
X35275Y-7322D02*
X36062Y-7322D01*
X34814Y-7783D02*
X35275Y-7322D01*
X28547Y-8086D02*
X28547Y-8066D01*
X33688Y-9212D02*
X34814Y-8086D01*
X31417Y-9212D02*
X33688Y-9212D01*
X29685Y-7480D02*
X31417Y-9212D01*
X29133Y-7480D02*
X29685Y-7480D01*
X28547Y-8066D02*
X29133Y-7480D01*
X26940Y-8086D02*
X26940Y-7704D01*
X28547Y-7602D02*
X28547Y-8086D01*
X28267Y-7322D02*
X28547Y-7602D01*
X27322Y-7322D02*
X28267Y-7322D01*
X26940Y-7704D02*
X27322Y-7322D01*
X20673Y-8086D02*
X20673Y-8066D01*
X25893Y-9133D02*
X26940Y-8086D01*
X23385Y-9133D02*
X25893Y-9133D01*
X21653Y-7401D02*
X23385Y-9133D01*
X21338Y-7401D02*
X21653Y-7401D01*
X20673Y-8066D02*
X21338Y-7401D01*
X19066Y-8086D02*
X19066Y-7704D01*
X20673Y-7759D02*
X20673Y-8086D01*
X20236Y-7322D02*
X20673Y-7759D01*
X19448Y-7322D02*
X20236Y-7322D01*
X19066Y-7704D02*
X19448Y-7322D01*
X12799Y-8086D02*
X12799Y-8066D01*
X17862Y-9291D02*
X19066Y-8086D01*
X15511Y-9291D02*
X17862Y-9291D01*
X14960Y-8740D02*
X15511Y-9291D01*
X14960Y-8267D02*
X14960Y-8740D01*
X14173Y-7480D02*
X14960Y-8267D01*
X13385Y-7480D02*
X14173Y-7480D01*
X12799Y-8066D02*
X13385Y-7480D01*
X12799Y-7681D02*
X12799Y-8086D01*
X12401Y-7283D02*
X12799Y-7681D01*
X11614Y-7283D02*
X12401Y-7283D01*
X11192Y-7704D02*
X11614Y-7283D01*
X11192Y-8086D02*
X11192Y-7704D01*
X26208Y-9921D02*
X27342Y-8787D01*
X22283Y-9921D02*
X26208Y-9921D01*
X17874Y-14330D02*
X22283Y-9921D01*
X17098Y-20346D02*
X17098Y-16287D01*
X26224Y-10708D02*
X28145Y-8787D01*
X22677Y-10708D02*
X26224Y-10708D01*
X17098Y-16287D02*
X22677Y-10708D01*
X17098Y-20346D02*
X17098Y-20224D01*
X28830Y-18661D02*
X30515Y-20346D01*
X18661Y-18661D02*
X28830Y-18661D01*
X17098Y-20224D02*
X18661Y-18661D01*
X12397Y-11066D02*
X12397Y-8787D01*
X12362Y-11102D02*
X12397Y-11066D01*
G54D10*
G36*
X43946Y-24261D02*
X43446Y-24261D01*
X43446Y-22179D01*
X43446Y-6431D01*
X43246Y-5945D01*
X42874Y-5574D01*
X42389Y-5372D01*
X41864Y-5372D01*
X41378Y-5572D01*
X41007Y-5943D01*
X40805Y-6429D01*
X40805Y-6954D01*
X41005Y-7439D01*
X41377Y-7811D01*
X41862Y-8013D01*
X42387Y-8013D01*
X42872Y-7813D01*
X43244Y-7441D01*
X43446Y-6956D01*
X43446Y-6431D01*
X43446Y-22179D01*
X43246Y-21693D01*
X42874Y-21322D01*
X42389Y-21120D01*
X41864Y-21120D01*
X41378Y-21320D01*
X41007Y-21691D01*
X40805Y-22177D01*
X40805Y-22702D01*
X41005Y-23187D01*
X41377Y-23559D01*
X41862Y-23761D01*
X42387Y-23761D01*
X42872Y-23561D01*
X43244Y-23189D01*
X43446Y-22704D01*
X43446Y-22179D01*
X43446Y-24261D01*
X39993Y-24261D01*
X39993Y-8323D01*
X39906Y-8113D01*
X39745Y-7951D01*
X39578Y-7882D01*
X39578Y-6916D01*
X39448Y-6601D01*
X39207Y-6359D01*
X38891Y-6228D01*
X38550Y-6228D01*
X38235Y-6358D01*
X37993Y-6600D01*
X37862Y-6915D01*
X37862Y-7256D01*
X37992Y-7571D01*
X38233Y-7813D01*
X38549Y-7944D01*
X38890Y-7944D01*
X39205Y-7814D01*
X39447Y-7573D01*
X39578Y-7258D01*
X39578Y-6916D01*
X39578Y-7882D01*
X39535Y-7864D01*
X39307Y-7864D01*
X39097Y-7951D01*
X38936Y-8112D01*
X38848Y-8322D01*
X38848Y-8550D01*
X38935Y-8760D01*
X39096Y-8922D01*
X39306Y-9009D01*
X39534Y-9009D01*
X39745Y-8922D01*
X39906Y-8761D01*
X39993Y-8551D01*
X39993Y-8323D01*
X39993Y-24261D01*
X38060Y-24261D01*
X38060Y-8701D01*
X37994Y-8541D01*
X37872Y-8418D01*
X37712Y-8352D01*
X37573Y-8352D01*
X37592Y-8333D01*
X37659Y-8173D01*
X37659Y-8000D01*
X37593Y-7840D01*
X37471Y-7718D01*
X37311Y-7651D01*
X37138Y-7651D01*
X36978Y-7717D01*
X36882Y-7813D01*
X36804Y-7788D01*
X36719Y-7874D01*
X36719Y-7703D01*
X36690Y-7612D01*
X36488Y-7545D01*
X36276Y-7560D01*
X36151Y-7612D01*
X36123Y-7703D01*
X36421Y-8000D01*
X36719Y-7703D01*
X36719Y-7874D01*
X36507Y-8086D01*
X36512Y-8092D01*
X36426Y-8177D01*
X36421Y-8172D01*
X36415Y-8177D01*
X36329Y-8092D01*
X36335Y-8086D01*
X36037Y-7788D01*
X35959Y-7813D01*
X35864Y-7718D01*
X35704Y-7651D01*
X35531Y-7651D01*
X35372Y-7717D01*
X35276Y-7813D01*
X35198Y-7788D01*
X35112Y-7874D01*
X35112Y-7703D01*
X35084Y-7612D01*
X34882Y-7545D01*
X34670Y-7560D01*
X34578Y-7598D01*
X34578Y-6916D01*
X34448Y-6601D01*
X34207Y-6359D01*
X33891Y-6228D01*
X33550Y-6228D01*
X33235Y-6358D01*
X32993Y-6600D01*
X32862Y-6915D01*
X32862Y-7256D01*
X32992Y-7571D01*
X33233Y-7813D01*
X33549Y-7944D01*
X33890Y-7944D01*
X34205Y-7814D01*
X34447Y-7573D01*
X34578Y-7258D01*
X34578Y-6916D01*
X34578Y-7598D01*
X34545Y-7612D01*
X34517Y-7703D01*
X34814Y-8000D01*
X35112Y-7703D01*
X35112Y-7874D01*
X34900Y-8086D01*
X34906Y-8092D01*
X34820Y-8177D01*
X34814Y-8172D01*
X34729Y-8258D01*
X34729Y-8086D01*
X34431Y-7788D01*
X34340Y-7817D01*
X34273Y-8019D01*
X34289Y-8231D01*
X34340Y-8356D01*
X34431Y-8384D01*
X34729Y-8086D01*
X34729Y-8258D01*
X34517Y-8470D01*
X34545Y-8560D01*
X34747Y-8627D01*
X34813Y-8622D01*
X34781Y-8700D01*
X34781Y-8873D01*
X34847Y-9033D01*
X34969Y-9155D01*
X35129Y-9222D01*
X35302Y-9222D01*
X35462Y-9156D01*
X35584Y-9034D01*
X35618Y-8954D01*
X35650Y-9033D01*
X35773Y-9155D01*
X35932Y-9222D01*
X36105Y-9222D01*
X36265Y-9156D01*
X36388Y-9034D01*
X36421Y-8954D01*
X36453Y-9033D01*
X36576Y-9155D01*
X36735Y-9222D01*
X36908Y-9222D01*
X37068Y-9156D01*
X37191Y-9034D01*
X37224Y-8954D01*
X37257Y-9033D01*
X37379Y-9155D01*
X37539Y-9222D01*
X37712Y-9222D01*
X37871Y-9156D01*
X37994Y-9034D01*
X38060Y-8874D01*
X38060Y-8701D01*
X38060Y-24261D01*
X34088Y-24261D01*
X34088Y-20583D01*
X34001Y-20373D01*
X33840Y-20211D01*
X33630Y-20124D01*
X33592Y-20124D01*
X33592Y-8323D01*
X33505Y-8113D01*
X33344Y-7951D01*
X33134Y-7864D01*
X32906Y-7864D01*
X32695Y-7951D01*
X32534Y-8112D01*
X32447Y-8322D01*
X32447Y-8550D01*
X32534Y-8760D01*
X32695Y-8922D01*
X32905Y-9009D01*
X33133Y-9009D01*
X33343Y-8922D01*
X33504Y-8761D01*
X33592Y-8551D01*
X33592Y-8323D01*
X33592Y-20124D01*
X33402Y-20124D01*
X33191Y-20211D01*
X33030Y-20372D01*
X32943Y-20582D01*
X32943Y-20810D01*
X33030Y-21020D01*
X33191Y-21181D01*
X33401Y-21269D01*
X33629Y-21269D01*
X33839Y-21182D01*
X34000Y-21021D01*
X34088Y-20811D01*
X34088Y-20583D01*
X34088Y-24261D01*
X33672Y-24261D01*
X33672Y-21877D01*
X33542Y-21561D01*
X33301Y-21320D01*
X32986Y-21189D01*
X32645Y-21189D01*
X32329Y-21319D01*
X32261Y-21387D01*
X32261Y-21114D01*
X32246Y-20902D01*
X32194Y-20777D01*
X32119Y-20754D01*
X32119Y-8323D01*
X32032Y-8113D01*
X31871Y-7951D01*
X31704Y-7882D01*
X31704Y-6916D01*
X31574Y-6601D01*
X31333Y-6359D01*
X31017Y-6228D01*
X30676Y-6228D01*
X30361Y-6358D01*
X30119Y-6600D01*
X29988Y-6915D01*
X29988Y-7256D01*
X30118Y-7571D01*
X30359Y-7813D01*
X30675Y-7944D01*
X31016Y-7944D01*
X31331Y-7814D01*
X31573Y-7573D01*
X31704Y-7258D01*
X31704Y-6916D01*
X31704Y-7882D01*
X31661Y-7864D01*
X31433Y-7864D01*
X31223Y-7951D01*
X31062Y-8112D01*
X30974Y-8322D01*
X30974Y-8550D01*
X31061Y-8760D01*
X31222Y-8922D01*
X31432Y-9009D01*
X31660Y-9009D01*
X31871Y-8922D01*
X32032Y-8761D01*
X32119Y-8551D01*
X32119Y-8323D01*
X32119Y-20754D01*
X32103Y-20749D01*
X32018Y-20835D01*
X32018Y-20663D01*
X31989Y-20573D01*
X31788Y-20506D01*
X31721Y-20510D01*
X31753Y-20433D01*
X31753Y-20260D01*
X31687Y-20100D01*
X31565Y-19978D01*
X31405Y-19911D01*
X31232Y-19911D01*
X31072Y-19977D01*
X30950Y-20099D01*
X30917Y-20179D01*
X30884Y-20100D01*
X30762Y-19978D01*
X30602Y-19911D01*
X30429Y-19911D01*
X30420Y-19915D01*
X28998Y-18493D01*
X28921Y-18441D01*
X28830Y-18423D01*
X18661Y-18423D01*
X18570Y-18441D01*
X18493Y-18493D01*
X17336Y-19650D01*
X17336Y-16385D01*
X22775Y-10946D01*
X26224Y-10946D01*
X26224Y-10946D01*
X26315Y-10928D01*
X26315Y-10928D01*
X26392Y-10876D01*
X28050Y-9218D01*
X28058Y-9222D01*
X28231Y-9222D01*
X28391Y-9156D01*
X28514Y-9034D01*
X28547Y-8954D01*
X28579Y-9033D01*
X28702Y-9155D01*
X28861Y-9222D01*
X29034Y-9222D01*
X29194Y-9156D01*
X29317Y-9034D01*
X29350Y-8954D01*
X29383Y-9033D01*
X29505Y-9155D01*
X29665Y-9222D01*
X29838Y-9222D01*
X29997Y-9156D01*
X30120Y-9034D01*
X30186Y-8874D01*
X30186Y-8701D01*
X30120Y-8541D01*
X29998Y-8418D01*
X29838Y-8352D01*
X29699Y-8352D01*
X29718Y-8333D01*
X29785Y-8173D01*
X29785Y-8000D01*
X29719Y-7840D01*
X29597Y-7718D01*
X29437Y-7651D01*
X29264Y-7651D01*
X29104Y-7717D01*
X29008Y-7813D01*
X28930Y-7788D01*
X28844Y-7874D01*
X28844Y-7703D01*
X28816Y-7612D01*
X28614Y-7545D01*
X28402Y-7560D01*
X28277Y-7612D01*
X28249Y-7703D01*
X28547Y-8000D01*
X28844Y-7703D01*
X28844Y-7874D01*
X28632Y-8086D01*
X28638Y-8092D01*
X28552Y-8177D01*
X28547Y-8172D01*
X28541Y-8177D01*
X28455Y-8092D01*
X28461Y-8086D01*
X28163Y-7788D01*
X28085Y-7813D01*
X27990Y-7718D01*
X27830Y-7651D01*
X27657Y-7651D01*
X27498Y-7717D01*
X27402Y-7813D01*
X27324Y-7788D01*
X27238Y-7874D01*
X27238Y-7703D01*
X27210Y-7612D01*
X27008Y-7545D01*
X26796Y-7560D01*
X26704Y-7598D01*
X26704Y-6916D01*
X26574Y-6601D01*
X26333Y-6359D01*
X26017Y-6228D01*
X25676Y-6228D01*
X25361Y-6358D01*
X25119Y-6600D01*
X24988Y-6915D01*
X24988Y-7256D01*
X25118Y-7571D01*
X25359Y-7813D01*
X25675Y-7944D01*
X26016Y-7944D01*
X26331Y-7814D01*
X26573Y-7573D01*
X26704Y-7258D01*
X26704Y-6916D01*
X26704Y-7598D01*
X26671Y-7612D01*
X26643Y-7703D01*
X26940Y-8000D01*
X27238Y-7703D01*
X27238Y-7874D01*
X27026Y-8086D01*
X27032Y-8092D01*
X26946Y-8177D01*
X26940Y-8172D01*
X26855Y-8258D01*
X26855Y-8086D01*
X26557Y-7788D01*
X26466Y-7817D01*
X26399Y-8019D01*
X26415Y-8231D01*
X26466Y-8356D01*
X26557Y-8384D01*
X26855Y-8086D01*
X26855Y-8258D01*
X26643Y-8470D01*
X26671Y-8560D01*
X26873Y-8627D01*
X26939Y-8622D01*
X26907Y-8700D01*
X26907Y-8873D01*
X26911Y-8882D01*
X26110Y-9683D01*
X25718Y-9683D01*
X25718Y-8323D01*
X25631Y-8113D01*
X25470Y-7951D01*
X25260Y-7864D01*
X25032Y-7864D01*
X24821Y-7951D01*
X24660Y-8112D01*
X24573Y-8322D01*
X24573Y-8550D01*
X24660Y-8760D01*
X24820Y-8922D01*
X25031Y-9009D01*
X25259Y-9009D01*
X25469Y-8922D01*
X25630Y-8761D01*
X25718Y-8551D01*
X25718Y-8323D01*
X25718Y-9683D01*
X24245Y-9683D01*
X24245Y-8323D01*
X24158Y-8113D01*
X23997Y-7951D01*
X23830Y-7882D01*
X23830Y-6916D01*
X23700Y-6601D01*
X23459Y-6359D01*
X23143Y-6228D01*
X22802Y-6228D01*
X22487Y-6358D01*
X22245Y-6600D01*
X22114Y-6915D01*
X22114Y-7256D01*
X22244Y-7571D01*
X22485Y-7813D01*
X22801Y-7944D01*
X23142Y-7944D01*
X23457Y-7814D01*
X23699Y-7573D01*
X23830Y-7258D01*
X23830Y-6916D01*
X23830Y-7882D01*
X23787Y-7864D01*
X23559Y-7864D01*
X23349Y-7951D01*
X23188Y-8112D01*
X23100Y-8322D01*
X23100Y-8550D01*
X23187Y-8760D01*
X23348Y-8922D01*
X23558Y-9009D01*
X23786Y-9009D01*
X23997Y-8922D01*
X24158Y-8761D01*
X24245Y-8551D01*
X24245Y-8323D01*
X24245Y-9683D01*
X22312Y-9683D01*
X22312Y-8701D01*
X22246Y-8541D01*
X22124Y-8418D01*
X21964Y-8352D01*
X21825Y-8352D01*
X21844Y-8333D01*
X21911Y-8173D01*
X21911Y-8000D01*
X21845Y-7840D01*
X21723Y-7718D01*
X21563Y-7651D01*
X21390Y-7651D01*
X21230Y-7717D01*
X21134Y-7813D01*
X21056Y-7788D01*
X20970Y-7874D01*
X20970Y-7703D01*
X20942Y-7612D01*
X20740Y-7545D01*
X20528Y-7560D01*
X20403Y-7612D01*
X20375Y-7703D01*
X20673Y-8000D01*
X20970Y-7703D01*
X20970Y-7874D01*
X20758Y-8086D01*
X20764Y-8092D01*
X20678Y-8177D01*
X20673Y-8172D01*
X20667Y-8177D01*
X20581Y-8092D01*
X20587Y-8086D01*
X20289Y-7788D01*
X20211Y-7813D01*
X20116Y-7718D01*
X19956Y-7651D01*
X19783Y-7651D01*
X19624Y-7717D01*
X19528Y-7813D01*
X19450Y-7788D01*
X19364Y-7874D01*
X19364Y-7703D01*
X19336Y-7612D01*
X19134Y-7545D01*
X18922Y-7560D01*
X18830Y-7598D01*
X18830Y-6916D01*
X18700Y-6601D01*
X18459Y-6359D01*
X18143Y-6228D01*
X17802Y-6228D01*
X17487Y-6358D01*
X17245Y-6600D01*
X17114Y-6915D01*
X17114Y-7256D01*
X17244Y-7571D01*
X17485Y-7813D01*
X17801Y-7944D01*
X18142Y-7944D01*
X18457Y-7814D01*
X18699Y-7573D01*
X18830Y-7258D01*
X18830Y-6916D01*
X18830Y-7598D01*
X18797Y-7612D01*
X18769Y-7703D01*
X19066Y-8000D01*
X19364Y-7703D01*
X19364Y-7874D01*
X19152Y-8086D01*
X19158Y-8092D01*
X19072Y-8177D01*
X19066Y-8172D01*
X18981Y-8258D01*
X18981Y-8086D01*
X18683Y-7788D01*
X18592Y-7817D01*
X18525Y-8019D01*
X18541Y-8231D01*
X18592Y-8356D01*
X18683Y-8384D01*
X18981Y-8086D01*
X18981Y-8258D01*
X18769Y-8470D01*
X18797Y-8560D01*
X18999Y-8627D01*
X19065Y-8622D01*
X19033Y-8700D01*
X19033Y-8873D01*
X19099Y-9033D01*
X19221Y-9155D01*
X19381Y-9222D01*
X19554Y-9222D01*
X19714Y-9156D01*
X19836Y-9034D01*
X19870Y-8954D01*
X19902Y-9033D01*
X20024Y-9155D01*
X20184Y-9222D01*
X20357Y-9222D01*
X20517Y-9156D01*
X20640Y-9034D01*
X20673Y-8954D01*
X20705Y-9033D01*
X20828Y-9155D01*
X20987Y-9222D01*
X21160Y-9222D01*
X21320Y-9156D01*
X21443Y-9034D01*
X21476Y-8954D01*
X21509Y-9033D01*
X21631Y-9155D01*
X21791Y-9222D01*
X21964Y-9222D01*
X22123Y-9156D01*
X22246Y-9034D01*
X22312Y-8874D01*
X22312Y-8701D01*
X22312Y-9683D01*
X22283Y-9683D01*
X22192Y-9701D01*
X22115Y-9753D01*
X17852Y-14016D01*
X17844Y-14016D01*
X17844Y-8323D01*
X17757Y-8113D01*
X17596Y-7951D01*
X17386Y-7864D01*
X17158Y-7864D01*
X16947Y-7951D01*
X16786Y-8112D01*
X16699Y-8322D01*
X16699Y-8550D01*
X16786Y-8760D01*
X16946Y-8922D01*
X17157Y-9009D01*
X17385Y-9009D01*
X17595Y-8922D01*
X17756Y-8761D01*
X17843Y-8551D01*
X17844Y-8323D01*
X17844Y-14016D01*
X17811Y-14016D01*
X17696Y-14064D01*
X17607Y-14152D01*
X17559Y-14267D01*
X17559Y-14392D01*
X17607Y-14508D01*
X17695Y-14597D01*
X17811Y-14645D01*
X17936Y-14645D01*
X18051Y-14597D01*
X18140Y-14509D01*
X18188Y-14393D01*
X18188Y-14352D01*
X22381Y-10159D01*
X26208Y-10159D01*
X26208Y-10159D01*
X26299Y-10140D01*
X26299Y-10140D01*
X26376Y-10089D01*
X27247Y-9218D01*
X27255Y-9222D01*
X27374Y-9222D01*
X26125Y-10470D01*
X22677Y-10470D01*
X22586Y-10488D01*
X22509Y-10540D01*
X16930Y-16119D01*
X16878Y-16196D01*
X16860Y-16287D01*
X16860Y-19974D01*
X16852Y-19977D01*
X16729Y-20099D01*
X16663Y-20259D01*
X16663Y-20432D01*
X16729Y-20592D01*
X16851Y-20714D01*
X17011Y-20781D01*
X17150Y-20781D01*
X17131Y-20800D01*
X17065Y-20960D01*
X17065Y-21133D01*
X17131Y-21293D01*
X17253Y-21415D01*
X17413Y-21482D01*
X17586Y-21482D01*
X17746Y-21416D01*
X17841Y-21320D01*
X17919Y-21344D01*
X18217Y-21047D01*
X18211Y-21041D01*
X18297Y-20955D01*
X18303Y-20961D01*
X18308Y-20955D01*
X18394Y-21041D01*
X18388Y-21047D01*
X18686Y-21344D01*
X18764Y-21320D01*
X18859Y-21415D01*
X19019Y-21482D01*
X19192Y-21482D01*
X19352Y-21416D01*
X19447Y-21320D01*
X19525Y-21344D01*
X19823Y-21047D01*
X19818Y-21041D01*
X19903Y-20955D01*
X19909Y-20961D01*
X20207Y-20663D01*
X20178Y-20573D01*
X19977Y-20506D01*
X19910Y-20510D01*
X19942Y-20433D01*
X19942Y-20260D01*
X19876Y-20100D01*
X19754Y-19978D01*
X19594Y-19911D01*
X19421Y-19911D01*
X19261Y-19977D01*
X19139Y-20099D01*
X19106Y-20179D01*
X19073Y-20100D01*
X18951Y-19978D01*
X18791Y-19911D01*
X18618Y-19911D01*
X18458Y-19977D01*
X18336Y-20099D01*
X18303Y-20179D01*
X18270Y-20100D01*
X18148Y-19978D01*
X17988Y-19911D01*
X17815Y-19911D01*
X17699Y-19959D01*
X18759Y-18899D01*
X28732Y-18899D01*
X29744Y-19911D01*
X29626Y-19911D01*
X29466Y-19977D01*
X29344Y-20099D01*
X29311Y-20179D01*
X29278Y-20100D01*
X29156Y-19978D01*
X28996Y-19911D01*
X28823Y-19911D01*
X28663Y-19977D01*
X28540Y-20099D01*
X28474Y-20259D01*
X28474Y-20432D01*
X28540Y-20592D01*
X28662Y-20714D01*
X28822Y-20781D01*
X28961Y-20781D01*
X28942Y-20800D01*
X28876Y-20960D01*
X28876Y-21133D01*
X28942Y-21293D01*
X29064Y-21415D01*
X29224Y-21482D01*
X29397Y-21482D01*
X29557Y-21416D01*
X29652Y-21320D01*
X29730Y-21344D01*
X30028Y-21047D01*
X30022Y-21041D01*
X30108Y-20955D01*
X30114Y-20961D01*
X30119Y-20955D01*
X30205Y-21041D01*
X30199Y-21047D01*
X30497Y-21344D01*
X30575Y-21320D01*
X30670Y-21415D01*
X30830Y-21482D01*
X31003Y-21482D01*
X31163Y-21416D01*
X31258Y-21320D01*
X31336Y-21344D01*
X31634Y-21047D01*
X31629Y-21041D01*
X31714Y-20955D01*
X31720Y-20961D01*
X32018Y-20663D01*
X32018Y-20835D01*
X31806Y-21047D01*
X32103Y-21344D01*
X32194Y-21316D01*
X32261Y-21114D01*
X32261Y-21387D01*
X32088Y-21560D01*
X32018Y-21729D01*
X32018Y-21430D01*
X31720Y-21132D01*
X31422Y-21430D01*
X31450Y-21521D01*
X31652Y-21588D01*
X31865Y-21573D01*
X31989Y-21521D01*
X32018Y-21430D01*
X32018Y-21729D01*
X31957Y-21875D01*
X31956Y-22217D01*
X32087Y-22532D01*
X32328Y-22774D01*
X32643Y-22904D01*
X32984Y-22905D01*
X33300Y-22774D01*
X33541Y-22533D01*
X33672Y-22218D01*
X33672Y-21877D01*
X33672Y-24261D01*
X30411Y-24261D01*
X30411Y-21430D01*
X30114Y-21132D01*
X29816Y-21430D01*
X29844Y-21521D01*
X30046Y-21588D01*
X30258Y-21573D01*
X30383Y-21521D01*
X30411Y-21430D01*
X30411Y-24261D01*
X28672Y-24261D01*
X28672Y-21877D01*
X28542Y-21561D01*
X28301Y-21320D01*
X27986Y-21189D01*
X27686Y-21189D01*
X27686Y-20583D01*
X27599Y-20373D01*
X27438Y-20211D01*
X27228Y-20124D01*
X27000Y-20124D01*
X26790Y-20211D01*
X26629Y-20372D01*
X26541Y-20582D01*
X26541Y-20810D01*
X26628Y-21020D01*
X26789Y-21181D01*
X26999Y-21269D01*
X27227Y-21269D01*
X27438Y-21182D01*
X27599Y-21021D01*
X27686Y-20811D01*
X27686Y-20583D01*
X27686Y-21189D01*
X27645Y-21189D01*
X27329Y-21319D01*
X27088Y-21560D01*
X26957Y-21875D01*
X26956Y-22217D01*
X27087Y-22532D01*
X27328Y-22774D01*
X27643Y-22904D01*
X27984Y-22905D01*
X28300Y-22774D01*
X28541Y-22533D01*
X28672Y-22218D01*
X28672Y-21877D01*
X28672Y-24261D01*
X22277Y-24261D01*
X22277Y-20583D01*
X22190Y-20373D01*
X22029Y-20211D01*
X21819Y-20124D01*
X21591Y-20124D01*
X21380Y-20211D01*
X21219Y-20372D01*
X21132Y-20582D01*
X21132Y-20810D01*
X21219Y-21020D01*
X21380Y-21181D01*
X21590Y-21269D01*
X21818Y-21269D01*
X22028Y-21182D01*
X22189Y-21021D01*
X22277Y-20811D01*
X22277Y-20583D01*
X22277Y-24261D01*
X21861Y-24261D01*
X21861Y-21877D01*
X21731Y-21561D01*
X21490Y-21320D01*
X21175Y-21189D01*
X20834Y-21189D01*
X20518Y-21319D01*
X20450Y-21387D01*
X20450Y-21114D01*
X20435Y-20902D01*
X20383Y-20777D01*
X20292Y-20749D01*
X19995Y-21047D01*
X20292Y-21344D01*
X20383Y-21316D01*
X20450Y-21114D01*
X20450Y-21387D01*
X20277Y-21560D01*
X20207Y-21729D01*
X20207Y-21430D01*
X19909Y-21132D01*
X19611Y-21430D01*
X19639Y-21521D01*
X19841Y-21588D01*
X20054Y-21573D01*
X20178Y-21521D01*
X20207Y-21430D01*
X20207Y-21729D01*
X20146Y-21875D01*
X20145Y-22217D01*
X20276Y-22532D01*
X20517Y-22774D01*
X20832Y-22904D01*
X21173Y-22905D01*
X21489Y-22774D01*
X21730Y-22533D01*
X21861Y-22218D01*
X21861Y-21877D01*
X21861Y-24261D01*
X18600Y-24261D01*
X18600Y-21430D01*
X18303Y-21132D01*
X18005Y-21430D01*
X18033Y-21521D01*
X18235Y-21588D01*
X18447Y-21573D01*
X18572Y-21521D01*
X18600Y-21430D01*
X18600Y-24261D01*
X16861Y-24261D01*
X16861Y-21877D01*
X16731Y-21561D01*
X16490Y-21320D01*
X16371Y-21271D01*
X16371Y-8323D01*
X16284Y-8113D01*
X16123Y-7951D01*
X15956Y-7882D01*
X15956Y-6916D01*
X15826Y-6601D01*
X15585Y-6359D01*
X15269Y-6228D01*
X14928Y-6228D01*
X14613Y-6358D01*
X14371Y-6600D01*
X14240Y-6915D01*
X14240Y-7256D01*
X14370Y-7571D01*
X14611Y-7813D01*
X14927Y-7944D01*
X15268Y-7944D01*
X15583Y-7814D01*
X15825Y-7573D01*
X15956Y-7258D01*
X15956Y-6916D01*
X15956Y-7882D01*
X15913Y-7864D01*
X15685Y-7864D01*
X15475Y-7951D01*
X15314Y-8112D01*
X15226Y-8322D01*
X15226Y-8550D01*
X15313Y-8760D01*
X15474Y-8922D01*
X15684Y-9009D01*
X15912Y-9009D01*
X16123Y-8922D01*
X16284Y-8761D01*
X16371Y-8551D01*
X16371Y-8323D01*
X16371Y-21271D01*
X16175Y-21189D01*
X15875Y-21189D01*
X15875Y-20583D01*
X15788Y-20373D01*
X15627Y-20211D01*
X15417Y-20124D01*
X15189Y-20124D01*
X14979Y-20211D01*
X14818Y-20372D01*
X14730Y-20582D01*
X14730Y-20810D01*
X14817Y-21020D01*
X14978Y-21181D01*
X15188Y-21269D01*
X15416Y-21269D01*
X15626Y-21182D01*
X15788Y-21021D01*
X15875Y-20811D01*
X15875Y-20583D01*
X15875Y-21189D01*
X15834Y-21189D01*
X15518Y-21319D01*
X15277Y-21560D01*
X15146Y-21875D01*
X15145Y-22217D01*
X15276Y-22532D01*
X15517Y-22774D01*
X15832Y-22904D01*
X16173Y-22905D01*
X16489Y-22774D01*
X16730Y-22533D01*
X16861Y-22218D01*
X16861Y-21877D01*
X16861Y-24261D01*
X14438Y-24261D01*
X14438Y-8701D01*
X14372Y-8541D01*
X14250Y-8418D01*
X14090Y-8352D01*
X13951Y-8352D01*
X13970Y-8333D01*
X14037Y-8173D01*
X14037Y-8000D01*
X13971Y-7840D01*
X13849Y-7718D01*
X13689Y-7651D01*
X13516Y-7651D01*
X13356Y-7717D01*
X13260Y-7813D01*
X13182Y-7788D01*
X13096Y-7874D01*
X13096Y-7703D01*
X13068Y-7612D01*
X12866Y-7545D01*
X12654Y-7560D01*
X12529Y-7612D01*
X12501Y-7703D01*
X12799Y-8000D01*
X13096Y-7703D01*
X13096Y-7874D01*
X12884Y-8086D01*
X12890Y-8092D01*
X12804Y-8177D01*
X12799Y-8172D01*
X12793Y-8177D01*
X12707Y-8092D01*
X12713Y-8086D01*
X12415Y-7788D01*
X12337Y-7813D01*
X12242Y-7718D01*
X12082Y-7651D01*
X11909Y-7651D01*
X11750Y-7717D01*
X11654Y-7813D01*
X11576Y-7788D01*
X11490Y-7874D01*
X11490Y-7703D01*
X11462Y-7612D01*
X11260Y-7545D01*
X11048Y-7560D01*
X10956Y-7598D01*
X10956Y-6916D01*
X10826Y-6601D01*
X10585Y-6359D01*
X10269Y-6228D01*
X9928Y-6228D01*
X9613Y-6358D01*
X9371Y-6600D01*
X9240Y-6915D01*
X9240Y-7256D01*
X9370Y-7571D01*
X9611Y-7813D01*
X9927Y-7944D01*
X10268Y-7944D01*
X10583Y-7814D01*
X10825Y-7573D01*
X10956Y-7258D01*
X10956Y-6916D01*
X10956Y-7598D01*
X10923Y-7612D01*
X10895Y-7703D01*
X11192Y-8000D01*
X11490Y-7703D01*
X11490Y-7874D01*
X11278Y-8086D01*
X11284Y-8092D01*
X11198Y-8177D01*
X11192Y-8172D01*
X11107Y-8258D01*
X11107Y-8086D01*
X10809Y-7788D01*
X10718Y-7817D01*
X10651Y-8019D01*
X10667Y-8231D01*
X10718Y-8356D01*
X10809Y-8384D01*
X11107Y-8086D01*
X11107Y-8258D01*
X10895Y-8470D01*
X10923Y-8560D01*
X11125Y-8627D01*
X11191Y-8622D01*
X11159Y-8700D01*
X11159Y-8873D01*
X11225Y-9033D01*
X11347Y-9155D01*
X11507Y-9222D01*
X11680Y-9222D01*
X11840Y-9156D01*
X11962Y-9034D01*
X11996Y-8954D01*
X12028Y-9033D01*
X12150Y-9155D01*
X12159Y-9159D01*
X12159Y-10860D01*
X12095Y-10924D01*
X12047Y-11039D01*
X12047Y-11164D01*
X12095Y-11280D01*
X12183Y-11368D01*
X12299Y-11416D01*
X12424Y-11416D01*
X12540Y-11369D01*
X12628Y-11280D01*
X12676Y-11165D01*
X12676Y-11040D01*
X12635Y-10940D01*
X12635Y-9159D01*
X12643Y-9156D01*
X12766Y-9034D01*
X12799Y-8954D01*
X12831Y-9033D01*
X12954Y-9155D01*
X13113Y-9222D01*
X13286Y-9222D01*
X13446Y-9156D01*
X13569Y-9034D01*
X13602Y-8954D01*
X13635Y-9033D01*
X13757Y-9155D01*
X13917Y-9222D01*
X14090Y-9222D01*
X14249Y-9156D01*
X14372Y-9034D01*
X14438Y-8874D01*
X14438Y-8701D01*
X14438Y-24261D01*
X9970Y-24261D01*
X9970Y-8323D01*
X9883Y-8113D01*
X9722Y-7951D01*
X9512Y-7864D01*
X9284Y-7864D01*
X9073Y-7951D01*
X8912Y-8112D01*
X8825Y-8322D01*
X8825Y-8550D01*
X8912Y-8760D01*
X9072Y-8922D01*
X9283Y-9009D01*
X9511Y-9009D01*
X9721Y-8922D01*
X9882Y-8761D01*
X9969Y-8551D01*
X9970Y-8323D01*
X9970Y-24261D01*
X8013Y-24261D01*
X8013Y-22179D01*
X8013Y-6431D01*
X7813Y-5945D01*
X7441Y-5574D01*
X6956Y-5372D01*
X6431Y-5372D01*
X5945Y-5572D01*
X5574Y-5943D01*
X5372Y-6429D01*
X5372Y-6954D01*
X5572Y-7439D01*
X5943Y-7811D01*
X6429Y-8013D01*
X6954Y-8013D01*
X7439Y-7813D01*
X7811Y-7441D01*
X8013Y-6956D01*
X8013Y-6431D01*
X8013Y-22179D01*
X7813Y-21693D01*
X7441Y-21322D01*
X6956Y-21120D01*
X6431Y-21120D01*
X5945Y-21320D01*
X5574Y-21691D01*
X5372Y-22177D01*
X5372Y-22702D01*
X5572Y-23187D01*
X5943Y-23559D01*
X6429Y-23761D01*
X6954Y-23761D01*
X7439Y-23561D01*
X7811Y-23189D01*
X8013Y-22704D01*
X8013Y-22179D01*
X8013Y-24261D01*
X4872Y-24261D01*
X4872Y-4872D01*
X43946Y-4872D01*
X43946Y-24261D01*
X43946Y-24261D01*
G37*
G54D18*
X43946Y-24261D02*
X43446Y-24261D01*
X43446Y-22179D01*
X43446Y-6431D01*
X43246Y-5945D01*
X42874Y-5574D01*
X42389Y-5372D01*
X41864Y-5372D01*
X41378Y-5572D01*
X41007Y-5943D01*
X40805Y-6429D01*
X40805Y-6954D01*
X41005Y-7439D01*
X41377Y-7811D01*
X41862Y-8013D01*
X42387Y-8013D01*
X42872Y-7813D01*
X43244Y-7441D01*
X43446Y-6956D01*
X43446Y-6431D01*
X43446Y-22179D01*
X43246Y-21693D01*
X42874Y-21322D01*
X42389Y-21120D01*
X41864Y-21120D01*
X41378Y-21320D01*
X41007Y-21691D01*
X40805Y-22177D01*
X40805Y-22702D01*
X41005Y-23187D01*
X41377Y-23559D01*
X41862Y-23761D01*
X42387Y-23761D01*
X42872Y-23561D01*
X43244Y-23189D01*
X43446Y-22704D01*
X43446Y-22179D01*
X43446Y-24261D01*
X39993Y-24261D01*
X39993Y-8323D01*
X39906Y-8113D01*
X39745Y-7951D01*
X39578Y-7882D01*
X39578Y-6916D01*
X39448Y-6601D01*
X39207Y-6359D01*
X38891Y-6228D01*
X38550Y-6228D01*
X38235Y-6358D01*
X37993Y-6600D01*
X37862Y-6915D01*
X37862Y-7256D01*
X37992Y-7571D01*
X38233Y-7813D01*
X38549Y-7944D01*
X38890Y-7944D01*
X39205Y-7814D01*
X39447Y-7573D01*
X39578Y-7258D01*
X39578Y-6916D01*
X39578Y-7882D01*
X39535Y-7864D01*
X39307Y-7864D01*
X39097Y-7951D01*
X38936Y-8112D01*
X38848Y-8322D01*
X38848Y-8550D01*
X38935Y-8760D01*
X39096Y-8922D01*
X39306Y-9009D01*
X39534Y-9009D01*
X39745Y-8922D01*
X39906Y-8761D01*
X39993Y-8551D01*
X39993Y-8323D01*
X39993Y-24261D01*
X38060Y-24261D01*
X38060Y-8701D01*
X37994Y-8541D01*
X37872Y-8418D01*
X37712Y-8352D01*
X37573Y-8352D01*
X37592Y-8333D01*
X37659Y-8173D01*
X37659Y-8000D01*
X37593Y-7840D01*
X37471Y-7718D01*
X37311Y-7651D01*
X37138Y-7651D01*
X36978Y-7717D01*
X36882Y-7813D01*
X36804Y-7788D01*
X36719Y-7874D01*
X36719Y-7703D01*
X36690Y-7612D01*
X36488Y-7545D01*
X36276Y-7560D01*
X36151Y-7612D01*
X36123Y-7703D01*
X36421Y-8000D01*
X36719Y-7703D01*
X36719Y-7874D01*
X36507Y-8086D01*
X36512Y-8092D01*
X36426Y-8177D01*
X36421Y-8172D01*
X36415Y-8177D01*
X36329Y-8092D01*
X36335Y-8086D01*
X36037Y-7788D01*
X35959Y-7813D01*
X35864Y-7718D01*
X35704Y-7651D01*
X35531Y-7651D01*
X35372Y-7717D01*
X35276Y-7813D01*
X35198Y-7788D01*
X35112Y-7874D01*
X35112Y-7703D01*
X35084Y-7612D01*
X34882Y-7545D01*
X34670Y-7560D01*
X34578Y-7598D01*
X34578Y-6916D01*
X34448Y-6601D01*
X34207Y-6359D01*
X33891Y-6228D01*
X33550Y-6228D01*
X33235Y-6358D01*
X32993Y-6600D01*
X32862Y-6915D01*
X32862Y-7256D01*
X32992Y-7571D01*
X33233Y-7813D01*
X33549Y-7944D01*
X33890Y-7944D01*
X34205Y-7814D01*
X34447Y-7573D01*
X34578Y-7258D01*
X34578Y-6916D01*
X34578Y-7598D01*
X34545Y-7612D01*
X34517Y-7703D01*
X34814Y-8000D01*
X35112Y-7703D01*
X35112Y-7874D01*
X34900Y-8086D01*
X34906Y-8092D01*
X34820Y-8177D01*
X34814Y-8172D01*
X34729Y-8258D01*
X34729Y-8086D01*
X34431Y-7788D01*
X34340Y-7817D01*
X34273Y-8019D01*
X34289Y-8231D01*
X34340Y-8356D01*
X34431Y-8384D01*
X34729Y-8086D01*
X34729Y-8258D01*
X34517Y-8470D01*
X34545Y-8560D01*
X34747Y-8627D01*
X34813Y-8622D01*
X34781Y-8700D01*
X34781Y-8873D01*
X34847Y-9033D01*
X34969Y-9155D01*
X35129Y-9222D01*
X35302Y-9222D01*
X35462Y-9156D01*
X35584Y-9034D01*
X35618Y-8954D01*
X35650Y-9033D01*
X35773Y-9155D01*
X35932Y-9222D01*
X36105Y-9222D01*
X36265Y-9156D01*
X36388Y-9034D01*
X36421Y-8954D01*
X36453Y-9033D01*
X36576Y-9155D01*
X36735Y-9222D01*
X36908Y-9222D01*
X37068Y-9156D01*
X37191Y-9034D01*
X37224Y-8954D01*
X37257Y-9033D01*
X37379Y-9155D01*
X37539Y-9222D01*
X37712Y-9222D01*
X37871Y-9156D01*
X37994Y-9034D01*
X38060Y-8874D01*
X38060Y-8701D01*
X38060Y-24261D01*
X34088Y-24261D01*
X34088Y-20583D01*
X34001Y-20373D01*
X33840Y-20211D01*
X33630Y-20124D01*
X33592Y-20124D01*
X33592Y-8323D01*
X33505Y-8113D01*
X33344Y-7951D01*
X33134Y-7864D01*
X32906Y-7864D01*
X32695Y-7951D01*
X32534Y-8112D01*
X32447Y-8322D01*
X32447Y-8550D01*
X32534Y-8760D01*
X32695Y-8922D01*
X32905Y-9009D01*
X33133Y-9009D01*
X33343Y-8922D01*
X33504Y-8761D01*
X33592Y-8551D01*
X33592Y-8323D01*
X33592Y-20124D01*
X33402Y-20124D01*
X33191Y-20211D01*
X33030Y-20372D01*
X32943Y-20582D01*
X32943Y-20810D01*
X33030Y-21020D01*
X33191Y-21181D01*
X33401Y-21269D01*
X33629Y-21269D01*
X33839Y-21182D01*
X34000Y-21021D01*
X34088Y-20811D01*
X34088Y-20583D01*
X34088Y-24261D01*
X33672Y-24261D01*
X33672Y-21877D01*
X33542Y-21561D01*
X33301Y-21320D01*
X32986Y-21189D01*
X32645Y-21189D01*
X32329Y-21319D01*
X32261Y-21387D01*
X32261Y-21114D01*
X32246Y-20902D01*
X32194Y-20777D01*
X32119Y-20754D01*
X32119Y-8323D01*
X32032Y-8113D01*
X31871Y-7951D01*
X31704Y-7882D01*
X31704Y-6916D01*
X31574Y-6601D01*
X31333Y-6359D01*
X31017Y-6228D01*
X30676Y-6228D01*
X30361Y-6358D01*
X30119Y-6600D01*
X29988Y-6915D01*
X29988Y-7256D01*
X30118Y-7571D01*
X30359Y-7813D01*
X30675Y-7944D01*
X31016Y-7944D01*
X31331Y-7814D01*
X31573Y-7573D01*
X31704Y-7258D01*
X31704Y-6916D01*
X31704Y-7882D01*
X31661Y-7864D01*
X31433Y-7864D01*
X31223Y-7951D01*
X31062Y-8112D01*
X30974Y-8322D01*
X30974Y-8550D01*
X31061Y-8760D01*
X31222Y-8922D01*
X31432Y-9009D01*
X31660Y-9009D01*
X31871Y-8922D01*
X32032Y-8761D01*
X32119Y-8551D01*
X32119Y-8323D01*
X32119Y-20754D01*
X32103Y-20749D01*
X32018Y-20835D01*
X32018Y-20663D01*
X31989Y-20573D01*
X31788Y-20506D01*
X31721Y-20510D01*
X31753Y-20433D01*
X31753Y-20260D01*
X31687Y-20100D01*
X31565Y-19978D01*
X31405Y-19911D01*
X31232Y-19911D01*
X31072Y-19977D01*
X30950Y-20099D01*
X30917Y-20179D01*
X30884Y-20100D01*
X30762Y-19978D01*
X30602Y-19911D01*
X30429Y-19911D01*
X30420Y-19915D01*
X28998Y-18493D01*
X28921Y-18441D01*
X28830Y-18423D01*
X18661Y-18423D01*
X18570Y-18441D01*
X18493Y-18493D01*
X17336Y-19650D01*
X17336Y-16385D01*
X22775Y-10946D01*
X26224Y-10946D01*
X26224Y-10946D01*
X26315Y-10928D01*
X26315Y-10928D01*
X26392Y-10876D01*
X28050Y-9218D01*
X28058Y-9222D01*
X28231Y-9222D01*
X28391Y-9156D01*
X28514Y-9034D01*
X28547Y-8954D01*
X28579Y-9033D01*
X28702Y-9155D01*
X28861Y-9222D01*
X29034Y-9222D01*
X29194Y-9156D01*
X29317Y-9034D01*
X29350Y-8954D01*
X29383Y-9033D01*
X29505Y-9155D01*
X29665Y-9222D01*
X29838Y-9222D01*
X29997Y-9156D01*
X30120Y-9034D01*
X30186Y-8874D01*
X30186Y-8701D01*
X30120Y-8541D01*
X29998Y-8418D01*
X29838Y-8352D01*
X29699Y-8352D01*
X29718Y-8333D01*
X29785Y-8173D01*
X29785Y-8000D01*
X29719Y-7840D01*
X29597Y-7718D01*
X29437Y-7651D01*
X29264Y-7651D01*
X29104Y-7717D01*
X29008Y-7813D01*
X28930Y-7788D01*
X28844Y-7874D01*
X28844Y-7703D01*
X28816Y-7612D01*
X28614Y-7545D01*
X28402Y-7560D01*
X28277Y-7612D01*
X28249Y-7703D01*
X28547Y-8000D01*
X28844Y-7703D01*
X28844Y-7874D01*
X28632Y-8086D01*
X28638Y-8092D01*
X28552Y-8177D01*
X28547Y-8172D01*
X28541Y-8177D01*
X28455Y-8092D01*
X28461Y-8086D01*
X28163Y-7788D01*
X28085Y-7813D01*
X27990Y-7718D01*
X27830Y-7651D01*
X27657Y-7651D01*
X27498Y-7717D01*
X27402Y-7813D01*
X27324Y-7788D01*
X27238Y-7874D01*
X27238Y-7703D01*
X27210Y-7612D01*
X27008Y-7545D01*
X26796Y-7560D01*
X26704Y-7598D01*
X26704Y-6916D01*
X26574Y-6601D01*
X26333Y-6359D01*
X26017Y-6228D01*
X25676Y-6228D01*
X25361Y-6358D01*
X25119Y-6600D01*
X24988Y-6915D01*
X24988Y-7256D01*
X25118Y-7571D01*
X25359Y-7813D01*
X25675Y-7944D01*
X26016Y-7944D01*
X26331Y-7814D01*
X26573Y-7573D01*
X26704Y-7258D01*
X26704Y-6916D01*
X26704Y-7598D01*
X26671Y-7612D01*
X26643Y-7703D01*
X26940Y-8000D01*
X27238Y-7703D01*
X27238Y-7874D01*
X27026Y-8086D01*
X27032Y-8092D01*
X26946Y-8177D01*
X26940Y-8172D01*
X26855Y-8258D01*
X26855Y-8086D01*
X26557Y-7788D01*
X26466Y-7817D01*
X26399Y-8019D01*
X26415Y-8231D01*
X26466Y-8356D01*
X26557Y-8384D01*
X26855Y-8086D01*
X26855Y-8258D01*
X26643Y-8470D01*
X26671Y-8560D01*
X26873Y-8627D01*
X26939Y-8622D01*
X26907Y-8700D01*
X26907Y-8873D01*
X26911Y-8882D01*
X26110Y-9683D01*
X25718Y-9683D01*
X25718Y-8323D01*
X25631Y-8113D01*
X25470Y-7951D01*
X25260Y-7864D01*
X25032Y-7864D01*
X24821Y-7951D01*
X24660Y-8112D01*
X24573Y-8322D01*
X24573Y-8550D01*
X24660Y-8760D01*
X24820Y-8922D01*
X25031Y-9009D01*
X25259Y-9009D01*
X25469Y-8922D01*
X25630Y-8761D01*
X25718Y-8551D01*
X25718Y-8323D01*
X25718Y-9683D01*
X24245Y-9683D01*
X24245Y-8323D01*
X24158Y-8113D01*
X23997Y-7951D01*
X23830Y-7882D01*
X23830Y-6916D01*
X23700Y-6601D01*
X23459Y-6359D01*
X23143Y-6228D01*
X22802Y-6228D01*
X22487Y-6358D01*
X22245Y-6600D01*
X22114Y-6915D01*
X22114Y-7256D01*
X22244Y-7571D01*
X22485Y-7813D01*
X22801Y-7944D01*
X23142Y-7944D01*
X23457Y-7814D01*
X23699Y-7573D01*
X23830Y-7258D01*
X23830Y-6916D01*
X23830Y-7882D01*
X23787Y-7864D01*
X23559Y-7864D01*
X23349Y-7951D01*
X23188Y-8112D01*
X23100Y-8322D01*
X23100Y-8550D01*
X23187Y-8760D01*
X23348Y-8922D01*
X23558Y-9009D01*
X23786Y-9009D01*
X23997Y-8922D01*
X24158Y-8761D01*
X24245Y-8551D01*
X24245Y-8323D01*
X24245Y-9683D01*
X22312Y-9683D01*
X22312Y-8701D01*
X22246Y-8541D01*
X22124Y-8418D01*
X21964Y-8352D01*
X21825Y-8352D01*
X21844Y-8333D01*
X21911Y-8173D01*
X21911Y-8000D01*
X21845Y-7840D01*
X21723Y-7718D01*
X21563Y-7651D01*
X21390Y-7651D01*
X21230Y-7717D01*
X21134Y-7813D01*
X21056Y-7788D01*
X20970Y-7874D01*
X20970Y-7703D01*
X20942Y-7612D01*
X20740Y-7545D01*
X20528Y-7560D01*
X20403Y-7612D01*
X20375Y-7703D01*
X20673Y-8000D01*
X20970Y-7703D01*
X20970Y-7874D01*
X20758Y-8086D01*
X20764Y-8092D01*
X20678Y-8177D01*
X20673Y-8172D01*
X20667Y-8177D01*
X20581Y-8092D01*
X20587Y-8086D01*
X20289Y-7788D01*
X20211Y-7813D01*
X20116Y-7718D01*
X19956Y-7651D01*
X19783Y-7651D01*
X19624Y-7717D01*
X19528Y-7813D01*
X19450Y-7788D01*
X19364Y-7874D01*
X19364Y-7703D01*
X19336Y-7612D01*
X19134Y-7545D01*
X18922Y-7560D01*
X18830Y-7598D01*
X18830Y-6916D01*
X18700Y-6601D01*
X18459Y-6359D01*
X18143Y-6228D01*
X17802Y-6228D01*
X17487Y-6358D01*
X17245Y-6600D01*
X17114Y-6915D01*
X17114Y-7256D01*
X17244Y-7571D01*
X17485Y-7813D01*
X17801Y-7944D01*
X18142Y-7944D01*
X18457Y-7814D01*
X18699Y-7573D01*
X18830Y-7258D01*
X18830Y-6916D01*
X18830Y-7598D01*
X18797Y-7612D01*
X18769Y-7703D01*
X19066Y-8000D01*
X19364Y-7703D01*
X19364Y-7874D01*
X19152Y-8086D01*
X19158Y-8092D01*
X19072Y-8177D01*
X19066Y-8172D01*
X18981Y-8258D01*
X18981Y-8086D01*
X18683Y-7788D01*
X18592Y-7817D01*
X18525Y-8019D01*
X18541Y-8231D01*
X18592Y-8356D01*
X18683Y-8384D01*
X18981Y-8086D01*
X18981Y-8258D01*
X18769Y-8470D01*
X18797Y-8560D01*
X18999Y-8627D01*
X19065Y-8622D01*
X19033Y-8700D01*
X19033Y-8873D01*
X19099Y-9033D01*
X19221Y-9155D01*
X19381Y-9222D01*
X19554Y-9222D01*
X19714Y-9156D01*
X19836Y-9034D01*
X19870Y-8954D01*
X19902Y-9033D01*
X20024Y-9155D01*
X20184Y-9222D01*
X20357Y-9222D01*
X20517Y-9156D01*
X20640Y-9034D01*
X20673Y-8954D01*
X20705Y-9033D01*
X20828Y-9155D01*
X20987Y-9222D01*
X21160Y-9222D01*
X21320Y-9156D01*
X21443Y-9034D01*
X21476Y-8954D01*
X21509Y-9033D01*
X21631Y-9155D01*
X21791Y-9222D01*
X21964Y-9222D01*
X22123Y-9156D01*
X22246Y-9034D01*
X22312Y-8874D01*
X22312Y-8701D01*
X22312Y-9683D01*
X22283Y-9683D01*
X22192Y-9701D01*
X22115Y-9753D01*
X17852Y-14016D01*
X17844Y-14016D01*
X17844Y-8323D01*
X17757Y-8113D01*
X17596Y-7951D01*
X17386Y-7864D01*
X17158Y-7864D01*
X16947Y-7951D01*
X16786Y-8112D01*
X16699Y-8322D01*
X16699Y-8550D01*
X16786Y-8760D01*
X16946Y-8922D01*
X17157Y-9009D01*
X17385Y-9009D01*
X17595Y-8922D01*
X17756Y-8761D01*
X17843Y-8551D01*
X17844Y-8323D01*
X17844Y-14016D01*
X17811Y-14016D01*
X17696Y-14064D01*
X17607Y-14152D01*
X17559Y-14267D01*
X17559Y-14392D01*
X17607Y-14508D01*
X17695Y-14597D01*
X17811Y-14645D01*
X17936Y-14645D01*
X18051Y-14597D01*
X18140Y-14509D01*
X18188Y-14393D01*
X18188Y-14352D01*
X22381Y-10159D01*
X26208Y-10159D01*
X26208Y-10159D01*
X26299Y-10140D01*
X26299Y-10140D01*
X26376Y-10089D01*
X27247Y-9218D01*
X27255Y-9222D01*
X27374Y-9222D01*
X26125Y-10470D01*
X22677Y-10470D01*
X22586Y-10488D01*
X22509Y-10540D01*
X16930Y-16119D01*
X16878Y-16196D01*
X16860Y-16287D01*
X16860Y-19974D01*
X16852Y-19977D01*
X16729Y-20099D01*
X16663Y-20259D01*
X16663Y-20432D01*
X16729Y-20592D01*
X16851Y-20714D01*
X17011Y-20781D01*
X17150Y-20781D01*
X17131Y-20800D01*
X17065Y-20960D01*
X17065Y-21133D01*
X17131Y-21293D01*
X17253Y-21415D01*
X17413Y-21482D01*
X17586Y-21482D01*
X17746Y-21416D01*
X17841Y-21320D01*
X17919Y-21344D01*
X18217Y-21047D01*
X18211Y-21041D01*
X18297Y-20955D01*
X18303Y-20961D01*
X18308Y-20955D01*
X18394Y-21041D01*
X18388Y-21047D01*
X18686Y-21344D01*
X18764Y-21320D01*
X18859Y-21415D01*
X19019Y-21482D01*
X19192Y-21482D01*
X19352Y-21416D01*
X19447Y-21320D01*
X19525Y-21344D01*
X19823Y-21047D01*
X19818Y-21041D01*
X19903Y-20955D01*
X19909Y-20961D01*
X20207Y-20663D01*
X20178Y-20573D01*
X19977Y-20506D01*
X19910Y-20510D01*
X19942Y-20433D01*
X19942Y-20260D01*
X19876Y-20100D01*
X19754Y-19978D01*
X19594Y-19911D01*
X19421Y-19911D01*
X19261Y-19977D01*
X19139Y-20099D01*
X19106Y-20179D01*
X19073Y-20100D01*
X18951Y-19978D01*
X18791Y-19911D01*
X18618Y-19911D01*
X18458Y-19977D01*
X18336Y-20099D01*
X18303Y-20179D01*
X18270Y-20100D01*
X18148Y-19978D01*
X17988Y-19911D01*
X17815Y-19911D01*
X17699Y-19959D01*
X18759Y-18899D01*
X28732Y-18899D01*
X29744Y-19911D01*
X29626Y-19911D01*
X29466Y-19977D01*
X29344Y-20099D01*
X29311Y-20179D01*
X29278Y-20100D01*
X29156Y-19978D01*
X28996Y-19911D01*
X28823Y-19911D01*
X28663Y-19977D01*
X28540Y-20099D01*
X28474Y-20259D01*
X28474Y-20432D01*
X28540Y-20592D01*
X28662Y-20714D01*
X28822Y-20781D01*
X28961Y-20781D01*
X28942Y-20800D01*
X28876Y-20960D01*
X28876Y-21133D01*
X28942Y-21293D01*
X29064Y-21415D01*
X29224Y-21482D01*
X29397Y-21482D01*
X29557Y-21416D01*
X29652Y-21320D01*
X29730Y-21344D01*
X30028Y-21047D01*
X30022Y-21041D01*
X30108Y-20955D01*
X30114Y-20961D01*
X30119Y-20955D01*
X30205Y-21041D01*
X30199Y-21047D01*
X30497Y-21344D01*
X30575Y-21320D01*
X30670Y-21415D01*
X30830Y-21482D01*
X31003Y-21482D01*
X31163Y-21416D01*
X31258Y-21320D01*
X31336Y-21344D01*
X31634Y-21047D01*
X31629Y-21041D01*
X31714Y-20955D01*
X31720Y-20961D01*
X32018Y-20663D01*
X32018Y-20835D01*
X31806Y-21047D01*
X32103Y-21344D01*
X32194Y-21316D01*
X32261Y-21114D01*
X32261Y-21387D01*
X32088Y-21560D01*
X32018Y-21729D01*
X32018Y-21430D01*
X31720Y-21132D01*
X31422Y-21430D01*
X31450Y-21521D01*
X31652Y-21588D01*
X31865Y-21573D01*
X31989Y-21521D01*
X32018Y-21430D01*
X32018Y-21729D01*
X31957Y-21875D01*
X31956Y-22217D01*
X32087Y-22532D01*
X32328Y-22774D01*
X32643Y-22904D01*
X32984Y-22905D01*
X33300Y-22774D01*
X33541Y-22533D01*
X33672Y-22218D01*
X33672Y-21877D01*
X33672Y-24261D01*
X30411Y-24261D01*
X30411Y-21430D01*
X30114Y-21132D01*
X29816Y-21430D01*
X29844Y-21521D01*
X30046Y-21588D01*
X30258Y-21573D01*
X30383Y-21521D01*
X30411Y-21430D01*
X30411Y-24261D01*
X28672Y-24261D01*
X28672Y-21877D01*
X28542Y-21561D01*
X28301Y-21320D01*
X27986Y-21189D01*
X27686Y-21189D01*
X27686Y-20583D01*
X27599Y-20373D01*
X27438Y-20211D01*
X27228Y-20124D01*
X27000Y-20124D01*
X26790Y-20211D01*
X26629Y-20372D01*
X26541Y-20582D01*
X26541Y-20810D01*
X26628Y-21020D01*
X26789Y-21181D01*
X26999Y-21269D01*
X27227Y-21269D01*
X27438Y-21182D01*
X27599Y-21021D01*
X27686Y-20811D01*
X27686Y-20583D01*
X27686Y-21189D01*
X27645Y-21189D01*
X27329Y-21319D01*
X27088Y-21560D01*
X26957Y-21875D01*
X26956Y-22217D01*
X27087Y-22532D01*
X27328Y-22774D01*
X27643Y-22904D01*
X27984Y-22905D01*
X28300Y-22774D01*
X28541Y-22533D01*
X28672Y-22218D01*
X28672Y-21877D01*
X28672Y-24261D01*
X22277Y-24261D01*
X22277Y-20583D01*
X22190Y-20373D01*
X22029Y-20211D01*
X21819Y-20124D01*
X21591Y-20124D01*
X21380Y-20211D01*
X21219Y-20372D01*
X21132Y-20582D01*
X21132Y-20810D01*
X21219Y-21020D01*
X21380Y-21181D01*
X21590Y-21269D01*
X21818Y-21269D01*
X22028Y-21182D01*
X22189Y-21021D01*
X22277Y-20811D01*
X22277Y-20583D01*
X22277Y-24261D01*
X21861Y-24261D01*
X21861Y-21877D01*
X21731Y-21561D01*
X21490Y-21320D01*
X21175Y-21189D01*
X20834Y-21189D01*
X20518Y-21319D01*
X20450Y-21387D01*
X20450Y-21114D01*
X20435Y-20902D01*
X20383Y-20777D01*
X20292Y-20749D01*
X19995Y-21047D01*
X20292Y-21344D01*
X20383Y-21316D01*
X20450Y-21114D01*
X20450Y-21387D01*
X20277Y-21560D01*
X20207Y-21729D01*
X20207Y-21430D01*
X19909Y-21132D01*
X19611Y-21430D01*
X19639Y-21521D01*
X19841Y-21588D01*
X20054Y-21573D01*
X20178Y-21521D01*
X20207Y-21430D01*
X20207Y-21729D01*
X20146Y-21875D01*
X20145Y-22217D01*
X20276Y-22532D01*
X20517Y-22774D01*
X20832Y-22904D01*
X21173Y-22905D01*
X21489Y-22774D01*
X21730Y-22533D01*
X21861Y-22218D01*
X21861Y-21877D01*
X21861Y-24261D01*
X18600Y-24261D01*
X18600Y-21430D01*
X18303Y-21132D01*
X18005Y-21430D01*
X18033Y-21521D01*
X18235Y-21588D01*
X18447Y-21573D01*
X18572Y-21521D01*
X18600Y-21430D01*
X18600Y-24261D01*
X16861Y-24261D01*
X16861Y-21877D01*
X16731Y-21561D01*
X16490Y-21320D01*
X16371Y-21271D01*
X16371Y-8323D01*
X16284Y-8113D01*
X16123Y-7951D01*
X15956Y-7882D01*
X15956Y-6916D01*
X15826Y-6601D01*
X15585Y-6359D01*
X15269Y-6228D01*
X14928Y-6228D01*
X14613Y-6358D01*
X14371Y-6600D01*
X14240Y-6915D01*
X14240Y-7256D01*
X14370Y-7571D01*
X14611Y-7813D01*
X14927Y-7944D01*
X15268Y-7944D01*
X15583Y-7814D01*
X15825Y-7573D01*
X15956Y-7258D01*
X15956Y-6916D01*
X15956Y-7882D01*
X15913Y-7864D01*
X15685Y-7864D01*
X15475Y-7951D01*
X15314Y-8112D01*
X15226Y-8322D01*
X15226Y-8550D01*
X15313Y-8760D01*
X15474Y-8922D01*
X15684Y-9009D01*
X15912Y-9009D01*
X16123Y-8922D01*
X16284Y-8761D01*
X16371Y-8551D01*
X16371Y-8323D01*
X16371Y-21271D01*
X16175Y-21189D01*
X15875Y-21189D01*
X15875Y-20583D01*
X15788Y-20373D01*
X15627Y-20211D01*
X15417Y-20124D01*
X15189Y-20124D01*
X14979Y-20211D01*
X14818Y-20372D01*
X14730Y-20582D01*
X14730Y-20810D01*
X14817Y-21020D01*
X14978Y-21181D01*
X15188Y-21269D01*
X15416Y-21269D01*
X15626Y-21182D01*
X15788Y-21021D01*
X15875Y-20811D01*
X15875Y-20583D01*
X15875Y-21189D01*
X15834Y-21189D01*
X15518Y-21319D01*
X15277Y-21560D01*
X15146Y-21875D01*
X15145Y-22217D01*
X15276Y-22532D01*
X15517Y-22774D01*
X15832Y-22904D01*
X16173Y-22905D01*
X16489Y-22774D01*
X16730Y-22533D01*
X16861Y-22218D01*
X16861Y-21877D01*
X16861Y-24261D01*
X14438Y-24261D01*
X14438Y-8701D01*
X14372Y-8541D01*
X14250Y-8418D01*
X14090Y-8352D01*
X13951Y-8352D01*
X13970Y-8333D01*
X14037Y-8173D01*
X14037Y-8000D01*
X13971Y-7840D01*
X13849Y-7718D01*
X13689Y-7651D01*
X13516Y-7651D01*
X13356Y-7717D01*
X13260Y-7813D01*
X13182Y-7788D01*
X13096Y-7874D01*
X13096Y-7703D01*
X13068Y-7612D01*
X12866Y-7545D01*
X12654Y-7560D01*
X12529Y-7612D01*
X12501Y-7703D01*
X12799Y-8000D01*
X13096Y-7703D01*
X13096Y-7874D01*
X12884Y-8086D01*
X12890Y-8092D01*
X12804Y-8177D01*
X12799Y-8172D01*
X12793Y-8177D01*
X12707Y-8092D01*
X12713Y-8086D01*
X12415Y-7788D01*
X12337Y-7813D01*
X12242Y-7718D01*
X12082Y-7651D01*
X11909Y-7651D01*
X11750Y-7717D01*
X11654Y-7813D01*
X11576Y-7788D01*
X11490Y-7874D01*
X11490Y-7703D01*
X11462Y-7612D01*
X11260Y-7545D01*
X11048Y-7560D01*
X10956Y-7598D01*
X10956Y-6916D01*
X10826Y-6601D01*
X10585Y-6359D01*
X10269Y-6228D01*
X9928Y-6228D01*
X9613Y-6358D01*
X9371Y-6600D01*
X9240Y-6915D01*
X9240Y-7256D01*
X9370Y-7571D01*
X9611Y-7813D01*
X9927Y-7944D01*
X10268Y-7944D01*
X10583Y-7814D01*
X10825Y-7573D01*
X10956Y-7258D01*
X10956Y-6916D01*
X10956Y-7598D01*
X10923Y-7612D01*
X10895Y-7703D01*
X11192Y-8000D01*
X11490Y-7703D01*
X11490Y-7874D01*
X11278Y-8086D01*
X11284Y-8092D01*
X11198Y-8177D01*
X11192Y-8172D01*
X11107Y-8258D01*
X11107Y-8086D01*
X10809Y-7788D01*
X10718Y-7817D01*
X10651Y-8019D01*
X10667Y-8231D01*
X10718Y-8356D01*
X10809Y-8384D01*
X11107Y-8086D01*
X11107Y-8258D01*
X10895Y-8470D01*
X10923Y-8560D01*
X11125Y-8627D01*
X11191Y-8622D01*
X11159Y-8700D01*
X11159Y-8873D01*
X11225Y-9033D01*
X11347Y-9155D01*
X11507Y-9222D01*
X11680Y-9222D01*
X11840Y-9156D01*
X11962Y-9034D01*
X11996Y-8954D01*
X12028Y-9033D01*
X12150Y-9155D01*
X12159Y-9159D01*
X12159Y-10860D01*
X12095Y-10924D01*
X12047Y-11039D01*
X12047Y-11164D01*
X12095Y-11280D01*
X12183Y-11368D01*
X12299Y-11416D01*
X12424Y-11416D01*
X12540Y-11369D01*
X12628Y-11280D01*
X12676Y-11165D01*
X12676Y-11040D01*
X12635Y-10940D01*
X12635Y-9159D01*
X12643Y-9156D01*
X12766Y-9034D01*
X12799Y-8954D01*
X12831Y-9033D01*
X12954Y-9155D01*
X13113Y-9222D01*
X13286Y-9222D01*
X13446Y-9156D01*
X13569Y-9034D01*
X13602Y-8954D01*
X13635Y-9033D01*
X13757Y-9155D01*
X13917Y-9222D01*
X14090Y-9222D01*
X14249Y-9156D01*
X14372Y-9034D01*
X14438Y-8874D01*
X14438Y-8701D01*
X14438Y-24261D01*
X9970Y-24261D01*
X9970Y-8323D01*
X9883Y-8113D01*
X9722Y-7951D01*
X9512Y-7864D01*
X9284Y-7864D01*
X9073Y-7951D01*
X8912Y-8112D01*
X8825Y-8322D01*
X8825Y-8550D01*
X8912Y-8760D01*
X9072Y-8922D01*
X9283Y-9009D01*
X9511Y-9009D01*
X9721Y-8922D01*
X9882Y-8761D01*
X9969Y-8551D01*
X9970Y-8323D01*
X9970Y-24261D01*
X8013Y-24261D01*
X8013Y-22179D01*
X8013Y-6431D01*
X7813Y-5945D01*
X7441Y-5574D01*
X6956Y-5372D01*
X6431Y-5372D01*
X5945Y-5572D01*
X5574Y-5943D01*
X5372Y-6429D01*
X5372Y-6954D01*
X5572Y-7439D01*
X5943Y-7811D01*
X6429Y-8013D01*
X6954Y-8013D01*
X7439Y-7813D01*
X7811Y-7441D01*
X8013Y-6956D01*
X8013Y-6431D01*
X8013Y-22179D01*
X7813Y-21693D01*
X7441Y-21322D01*
X6956Y-21120D01*
X6431Y-21120D01*
X5945Y-21320D01*
X5574Y-21691D01*
X5372Y-22177D01*
X5372Y-22702D01*
X5572Y-23187D01*
X5943Y-23559D01*
X6429Y-23761D01*
X6954Y-23761D01*
X7439Y-23561D01*
X7811Y-23189D01*
X8013Y-22704D01*
X8013Y-22179D01*
X8013Y-24261D01*
X4872Y-24261D01*
X4872Y-4872D01*
X43946Y-4872D01*
X43946Y-24261D01*
M02*
