G04 (created by PCBNEW (2013-07-07 BZR 4022)-stable) date 9/18/2013 12:18:54*
%MOIN*%
G04 Gerber Fmt 3.4, Leading zero omitted, Abs format*
%FSLAX34Y34*%
G01*
G70*
G90*
G04 APERTURE LIST*
%ADD10C,0.005*%
%ADD11C,0.011811*%
%ADD12C,0.00590551*%
%ADD13C,0.00787402*%
G04 APERTURE END LIST*
G54D10*
G54D11*
X46479Y-17508D02*
X46676Y-17508D01*
X46760Y-17817D02*
X46479Y-17817D01*
X46479Y-17227D01*
X46760Y-17227D01*
X47266Y-17817D02*
X47266Y-17227D01*
X47266Y-17789D02*
X47210Y-17817D01*
X47097Y-17817D01*
X47041Y-17789D01*
X47013Y-17761D01*
X46985Y-17705D01*
X46985Y-17536D01*
X47013Y-17480D01*
X47041Y-17452D01*
X47097Y-17424D01*
X47210Y-17424D01*
X47266Y-17452D01*
X47800Y-17424D02*
X47800Y-17902D01*
X47772Y-17958D01*
X47744Y-17986D01*
X47688Y-18014D01*
X47604Y-18014D01*
X47547Y-17986D01*
X47800Y-17789D02*
X47744Y-17817D01*
X47632Y-17817D01*
X47575Y-17789D01*
X47547Y-17761D01*
X47519Y-17705D01*
X47519Y-17536D01*
X47547Y-17480D01*
X47575Y-17452D01*
X47632Y-17424D01*
X47744Y-17424D01*
X47800Y-17452D01*
X48307Y-17789D02*
X48250Y-17817D01*
X48138Y-17817D01*
X48082Y-17789D01*
X48053Y-17733D01*
X48053Y-17508D01*
X48082Y-17452D01*
X48138Y-17424D01*
X48250Y-17424D01*
X48307Y-17452D01*
X48335Y-17508D01*
X48335Y-17564D01*
X48053Y-17620D01*
X48588Y-17761D02*
X48616Y-17789D01*
X48588Y-17817D01*
X48560Y-17789D01*
X48588Y-17761D01*
X48588Y-17817D01*
X49206Y-17761D02*
X49178Y-17789D01*
X49094Y-17817D01*
X49038Y-17817D01*
X48953Y-17789D01*
X48897Y-17733D01*
X48869Y-17677D01*
X48841Y-17564D01*
X48841Y-17480D01*
X48869Y-17367D01*
X48897Y-17311D01*
X48953Y-17255D01*
X49038Y-17227D01*
X49094Y-17227D01*
X49178Y-17255D01*
X49206Y-17283D01*
X49713Y-17424D02*
X49713Y-17817D01*
X49460Y-17424D02*
X49460Y-17733D01*
X49488Y-17789D01*
X49544Y-17817D01*
X49628Y-17817D01*
X49685Y-17789D01*
X49713Y-17761D01*
X49910Y-17424D02*
X50134Y-17424D01*
X49994Y-17227D02*
X49994Y-17733D01*
X50022Y-17789D01*
X50078Y-17817D01*
X50134Y-17817D01*
X50303Y-17789D02*
X50359Y-17817D01*
X50472Y-17817D01*
X50528Y-17789D01*
X50556Y-17733D01*
X50556Y-17705D01*
X50528Y-17649D01*
X50472Y-17620D01*
X50388Y-17620D01*
X50331Y-17592D01*
X50303Y-17536D01*
X50303Y-17508D01*
X50331Y-17452D01*
X50388Y-17424D01*
X50472Y-17424D01*
X50528Y-17452D01*
G54D12*
X4724Y-24409D02*
X4724Y-4724D01*
X44094Y-24409D02*
X4724Y-24409D01*
X44094Y-4724D02*
X44094Y-24409D01*
X4724Y-4724D02*
X44094Y-4724D01*
G54D13*
X6102Y-6102D02*
X7283Y-7283D01*
X7283Y-6102D02*
X6102Y-7283D01*
X6102Y-21850D02*
X7283Y-23031D01*
X7283Y-21850D02*
X6102Y-23031D01*
X41535Y-6102D02*
X42716Y-7283D01*
X42716Y-6102D02*
X41535Y-7283D01*
X41535Y-21850D02*
X42716Y-23031D01*
X42716Y-21850D02*
X41535Y-23031D01*
X10738Y-7086D02*
G75*
G03X10738Y-7086I-640J0D01*
G74*
G01*
X15738Y-7086D02*
G75*
G03X15738Y-7086I-640J0D01*
G74*
G01*
X16643Y-22047D02*
G75*
G03X16643Y-22047I-639J0D01*
G74*
G01*
X18612Y-7086D02*
G75*
G03X18612Y-7086I-640J0D01*
G74*
G01*
X21643Y-22047D02*
G75*
G03X21643Y-22047I-640J0D01*
G74*
G01*
X23612Y-7086D02*
G75*
G03X23612Y-7086I-640J0D01*
G74*
G01*
X26486Y-7086D02*
G75*
G03X26486Y-7086I-640J0D01*
G74*
G01*
X28454Y-22047D02*
G75*
G03X28454Y-22047I-640J0D01*
G74*
G01*
X31486Y-7086D02*
G75*
G03X31486Y-7086I-640J0D01*
G74*
G01*
X33454Y-22047D02*
G75*
G03X33454Y-22047I-640J0D01*
G74*
G01*
X34360Y-7086D02*
G75*
G03X34360Y-7086I-640J0D01*
G74*
G01*
X39360Y-7086D02*
G75*
G03X39360Y-7086I-640J0D01*
G74*
G01*
G54D11*
X5763Y-26216D02*
X5763Y-25035D01*
X6044Y-25035D01*
X6213Y-25091D01*
X6325Y-25203D01*
X6382Y-25316D01*
X6438Y-25541D01*
X6438Y-25710D01*
X6382Y-25935D01*
X6325Y-26047D01*
X6213Y-26160D01*
X6044Y-26216D01*
X5763Y-26216D01*
X6944Y-26216D02*
X6944Y-25428D01*
X6944Y-25653D02*
X7000Y-25541D01*
X7057Y-25485D01*
X7169Y-25428D01*
X7282Y-25428D01*
X7675Y-26216D02*
X7675Y-25428D01*
X7675Y-25035D02*
X7619Y-25091D01*
X7675Y-25147D01*
X7732Y-25091D01*
X7675Y-25035D01*
X7675Y-25147D01*
X8406Y-26216D02*
X8294Y-26160D01*
X8238Y-26047D01*
X8238Y-25035D01*
X9025Y-26216D02*
X8913Y-26160D01*
X8856Y-26047D01*
X8856Y-25035D01*
X10375Y-26216D02*
X10375Y-25035D01*
X10769Y-25878D01*
X11162Y-25035D01*
X11162Y-26216D01*
X12231Y-26216D02*
X12231Y-25597D01*
X12175Y-25485D01*
X12062Y-25428D01*
X11837Y-25428D01*
X11725Y-25485D01*
X12231Y-26160D02*
X12118Y-26216D01*
X11837Y-26216D01*
X11725Y-26160D01*
X11669Y-26047D01*
X11669Y-25935D01*
X11725Y-25822D01*
X11837Y-25766D01*
X12118Y-25766D01*
X12231Y-25710D01*
X12793Y-25428D02*
X12793Y-26609D01*
X12793Y-25485D02*
X12906Y-25428D01*
X13131Y-25428D01*
X13243Y-25485D01*
X13300Y-25541D01*
X13356Y-25653D01*
X13356Y-25991D01*
X13300Y-26103D01*
X13243Y-26160D01*
X13131Y-26216D01*
X12906Y-26216D01*
X12793Y-26160D01*
X13862Y-26103D02*
X13918Y-26160D01*
X13862Y-26216D01*
X13806Y-26160D01*
X13862Y-26103D01*
X13862Y-26216D01*
X13862Y-25485D02*
X13918Y-25541D01*
X13862Y-25597D01*
X13806Y-25541D01*
X13862Y-25485D01*
X13862Y-25597D01*
X3513Y-27627D02*
X4694Y-28809D01*
X4694Y-27627D02*
X3513Y-28809D01*
X5651Y-27515D02*
X6382Y-27515D01*
X5988Y-27965D01*
X6157Y-27965D01*
X6269Y-28021D01*
X6325Y-28077D01*
X6382Y-28190D01*
X6382Y-28471D01*
X6325Y-28584D01*
X6269Y-28640D01*
X6157Y-28696D01*
X5819Y-28696D01*
X5707Y-28640D01*
X5651Y-28584D01*
X6888Y-28584D02*
X6944Y-28640D01*
X6888Y-28696D01*
X6832Y-28640D01*
X6888Y-28584D01*
X6888Y-28696D01*
X7675Y-27515D02*
X7788Y-27515D01*
X7900Y-27571D01*
X7956Y-27627D01*
X8013Y-27740D01*
X8069Y-27965D01*
X8069Y-28246D01*
X8013Y-28471D01*
X7956Y-28584D01*
X7900Y-28640D01*
X7788Y-28696D01*
X7675Y-28696D01*
X7563Y-28640D01*
X7507Y-28584D01*
X7450Y-28471D01*
X7394Y-28246D01*
X7394Y-27965D01*
X7450Y-27740D01*
X7507Y-27627D01*
X7563Y-27571D01*
X7675Y-27515D01*
X8800Y-27515D02*
X8913Y-27515D01*
X9025Y-27571D01*
X9081Y-27627D01*
X9138Y-27740D01*
X9194Y-27965D01*
X9194Y-28246D01*
X9138Y-28471D01*
X9081Y-28584D01*
X9025Y-28640D01*
X8913Y-28696D01*
X8800Y-28696D01*
X8688Y-28640D01*
X8631Y-28584D01*
X8575Y-28471D01*
X8519Y-28246D01*
X8519Y-27965D01*
X8575Y-27740D01*
X8631Y-27627D01*
X8688Y-27571D01*
X8800Y-27515D01*
X9700Y-28696D02*
X9700Y-27909D01*
X9700Y-28021D02*
X9756Y-27965D01*
X9869Y-27909D01*
X10037Y-27909D01*
X10150Y-27965D01*
X10206Y-28077D01*
X10206Y-28696D01*
X10206Y-28077D02*
X10262Y-27965D01*
X10375Y-27909D01*
X10544Y-27909D01*
X10656Y-27965D01*
X10712Y-28077D01*
X10712Y-28696D01*
X11275Y-28696D02*
X11275Y-27909D01*
X11275Y-28021D02*
X11331Y-27965D01*
X11444Y-27909D01*
X11612Y-27909D01*
X11725Y-27965D01*
X11781Y-28077D01*
X11781Y-28696D01*
X11781Y-28077D02*
X11837Y-27965D01*
X11950Y-27909D01*
X12118Y-27909D01*
X12231Y-27965D01*
X12287Y-28077D01*
X12287Y-28696D01*
X14593Y-27459D02*
X13581Y-28977D01*
X16112Y-27515D02*
X16224Y-27515D01*
X16337Y-27571D01*
X16393Y-27627D01*
X16449Y-27740D01*
X16505Y-27965D01*
X16505Y-28246D01*
X16449Y-28471D01*
X16393Y-28584D01*
X16337Y-28640D01*
X16224Y-28696D01*
X16112Y-28696D01*
X15999Y-28640D01*
X15943Y-28584D01*
X15887Y-28471D01*
X15830Y-28246D01*
X15830Y-27965D01*
X15887Y-27740D01*
X15943Y-27627D01*
X15999Y-27571D01*
X16112Y-27515D01*
X17012Y-28584D02*
X17068Y-28640D01*
X17012Y-28696D01*
X16955Y-28640D01*
X17012Y-28584D01*
X17012Y-28696D01*
X18193Y-28696D02*
X17518Y-28696D01*
X17855Y-28696D02*
X17855Y-27515D01*
X17743Y-27684D01*
X17630Y-27796D01*
X17518Y-27852D01*
X19318Y-28696D02*
X18643Y-28696D01*
X18980Y-28696D02*
X18980Y-27515D01*
X18868Y-27684D01*
X18755Y-27796D01*
X18643Y-27852D01*
X19992Y-28021D02*
X19880Y-27965D01*
X19824Y-27909D01*
X19767Y-27796D01*
X19767Y-27740D01*
X19824Y-27627D01*
X19880Y-27571D01*
X19992Y-27515D01*
X20217Y-27515D01*
X20330Y-27571D01*
X20386Y-27627D01*
X20442Y-27740D01*
X20442Y-27796D01*
X20386Y-27909D01*
X20330Y-27965D01*
X20217Y-28021D01*
X19992Y-28021D01*
X19880Y-28077D01*
X19824Y-28134D01*
X19767Y-28246D01*
X19767Y-28471D01*
X19824Y-28584D01*
X19880Y-28640D01*
X19992Y-28696D01*
X20217Y-28696D01*
X20330Y-28640D01*
X20386Y-28584D01*
X20442Y-28471D01*
X20442Y-28246D01*
X20386Y-28134D01*
X20330Y-28077D01*
X20217Y-28021D01*
X20892Y-27515D02*
X20892Y-27740D01*
X21342Y-27515D02*
X21342Y-27740D01*
X23086Y-29146D02*
X23030Y-29090D01*
X22917Y-28921D01*
X22861Y-28809D01*
X22805Y-28640D01*
X22748Y-28359D01*
X22748Y-28134D01*
X22805Y-27852D01*
X22861Y-27684D01*
X22917Y-27571D01*
X23030Y-27402D01*
X23086Y-27346D01*
X24042Y-27909D02*
X24042Y-28696D01*
X23761Y-27459D02*
X23480Y-28302D01*
X24211Y-28302D01*
X25561Y-28696D02*
X25561Y-27515D01*
X26067Y-28696D02*
X26067Y-28077D01*
X26010Y-27965D01*
X25898Y-27909D01*
X25729Y-27909D01*
X25617Y-27965D01*
X25561Y-28021D01*
X26798Y-28696D02*
X26685Y-28640D01*
X26629Y-28584D01*
X26573Y-28471D01*
X26573Y-28134D01*
X26629Y-28021D01*
X26685Y-27965D01*
X26798Y-27909D01*
X26967Y-27909D01*
X27079Y-27965D01*
X27135Y-28021D01*
X27192Y-28134D01*
X27192Y-28471D01*
X27135Y-28584D01*
X27079Y-28640D01*
X26967Y-28696D01*
X26798Y-28696D01*
X27866Y-28696D02*
X27754Y-28640D01*
X27698Y-28527D01*
X27698Y-27515D01*
X28766Y-28640D02*
X28654Y-28696D01*
X28429Y-28696D01*
X28316Y-28640D01*
X28260Y-28527D01*
X28260Y-28077D01*
X28316Y-27965D01*
X28429Y-27909D01*
X28654Y-27909D01*
X28766Y-27965D01*
X28823Y-28077D01*
X28823Y-28190D01*
X28260Y-28302D01*
X29273Y-28640D02*
X29385Y-28696D01*
X29610Y-28696D01*
X29723Y-28640D01*
X29779Y-28527D01*
X29779Y-28471D01*
X29723Y-28359D01*
X29610Y-28302D01*
X29441Y-28302D01*
X29329Y-28246D01*
X29273Y-28134D01*
X29273Y-28077D01*
X29329Y-27965D01*
X29441Y-27909D01*
X29610Y-27909D01*
X29723Y-27965D01*
X30172Y-29146D02*
X30229Y-29090D01*
X30341Y-28921D01*
X30397Y-28809D01*
X30454Y-28640D01*
X30510Y-28359D01*
X30510Y-28134D01*
X30454Y-27852D01*
X30397Y-27684D01*
X30341Y-27571D01*
X30229Y-27402D01*
X30172Y-27346D01*
G54D13*
X4694Y-29911D02*
G75*
G03X4694Y-29911I-640J0D01*
G74*
G01*
G54D11*
X5651Y-29208D02*
X6382Y-29208D01*
X5988Y-29658D01*
X6157Y-29658D01*
X6269Y-29714D01*
X6325Y-29770D01*
X6382Y-29883D01*
X6382Y-30164D01*
X6325Y-30276D01*
X6269Y-30333D01*
X6157Y-30389D01*
X5819Y-30389D01*
X5707Y-30333D01*
X5651Y-30276D01*
X6888Y-30276D02*
X6944Y-30333D01*
X6888Y-30389D01*
X6832Y-30333D01*
X6888Y-30276D01*
X6888Y-30389D01*
X7394Y-29320D02*
X7450Y-29264D01*
X7563Y-29208D01*
X7844Y-29208D01*
X7956Y-29264D01*
X8013Y-29320D01*
X8069Y-29433D01*
X8069Y-29545D01*
X8013Y-29714D01*
X7338Y-30389D01*
X8069Y-30389D01*
X9138Y-29208D02*
X8575Y-29208D01*
X8519Y-29770D01*
X8575Y-29714D01*
X8688Y-29658D01*
X8969Y-29658D01*
X9081Y-29714D01*
X9138Y-29770D01*
X9194Y-29883D01*
X9194Y-30164D01*
X9138Y-30276D01*
X9081Y-30333D01*
X8969Y-30389D01*
X8688Y-30389D01*
X8575Y-30333D01*
X8519Y-30276D01*
X9700Y-30389D02*
X9700Y-29602D01*
X9700Y-29714D02*
X9756Y-29658D01*
X9869Y-29602D01*
X10037Y-29602D01*
X10150Y-29658D01*
X10206Y-29770D01*
X10206Y-30389D01*
X10206Y-29770D02*
X10262Y-29658D01*
X10375Y-29602D01*
X10544Y-29602D01*
X10656Y-29658D01*
X10712Y-29770D01*
X10712Y-30389D01*
X11275Y-30389D02*
X11275Y-29602D01*
X11275Y-29714D02*
X11331Y-29658D01*
X11444Y-29602D01*
X11612Y-29602D01*
X11725Y-29658D01*
X11781Y-29770D01*
X11781Y-30389D01*
X11781Y-29770D02*
X11837Y-29658D01*
X11950Y-29602D01*
X12118Y-29602D01*
X12231Y-29658D01*
X12287Y-29770D01*
X12287Y-30389D01*
X14593Y-29152D02*
X13581Y-30670D01*
X16112Y-29208D02*
X16224Y-29208D01*
X16337Y-29264D01*
X16393Y-29320D01*
X16449Y-29433D01*
X16505Y-29658D01*
X16505Y-29939D01*
X16449Y-30164D01*
X16393Y-30276D01*
X16337Y-30333D01*
X16224Y-30389D01*
X16112Y-30389D01*
X15999Y-30333D01*
X15943Y-30276D01*
X15887Y-30164D01*
X15830Y-29939D01*
X15830Y-29658D01*
X15887Y-29433D01*
X15943Y-29320D01*
X15999Y-29264D01*
X16112Y-29208D01*
X17012Y-30276D02*
X17068Y-30333D01*
X17012Y-30389D01*
X16955Y-30333D01*
X17012Y-30276D01*
X17012Y-30389D01*
X18193Y-30389D02*
X17518Y-30389D01*
X17855Y-30389D02*
X17855Y-29208D01*
X17743Y-29377D01*
X17630Y-29489D01*
X17518Y-29545D01*
X18643Y-29320D02*
X18699Y-29264D01*
X18811Y-29208D01*
X19093Y-29208D01*
X19205Y-29264D01*
X19261Y-29320D01*
X19318Y-29433D01*
X19318Y-29545D01*
X19261Y-29714D01*
X18586Y-30389D01*
X19318Y-30389D01*
X19992Y-29714D02*
X19880Y-29658D01*
X19824Y-29602D01*
X19767Y-29489D01*
X19767Y-29433D01*
X19824Y-29320D01*
X19880Y-29264D01*
X19992Y-29208D01*
X20217Y-29208D01*
X20330Y-29264D01*
X20386Y-29320D01*
X20442Y-29433D01*
X20442Y-29489D01*
X20386Y-29602D01*
X20330Y-29658D01*
X20217Y-29714D01*
X19992Y-29714D01*
X19880Y-29770D01*
X19824Y-29827D01*
X19767Y-29939D01*
X19767Y-30164D01*
X19824Y-30276D01*
X19880Y-30333D01*
X19992Y-30389D01*
X20217Y-30389D01*
X20330Y-30333D01*
X20386Y-30276D01*
X20442Y-30164D01*
X20442Y-29939D01*
X20386Y-29827D01*
X20330Y-29770D01*
X20217Y-29714D01*
X20892Y-29208D02*
X20892Y-29433D01*
X21342Y-29208D02*
X21342Y-29433D01*
X23086Y-30839D02*
X23030Y-30783D01*
X22917Y-30614D01*
X22861Y-30501D01*
X22805Y-30333D01*
X22748Y-30052D01*
X22748Y-29827D01*
X22805Y-29545D01*
X22861Y-29377D01*
X22917Y-29264D01*
X23030Y-29095D01*
X23086Y-29039D01*
X24154Y-30389D02*
X23480Y-30389D01*
X23817Y-30389D02*
X23817Y-29208D01*
X23705Y-29377D01*
X23592Y-29489D01*
X23480Y-29545D01*
X24604Y-29320D02*
X24661Y-29264D01*
X24773Y-29208D01*
X25054Y-29208D01*
X25167Y-29264D01*
X25223Y-29320D01*
X25279Y-29433D01*
X25279Y-29545D01*
X25223Y-29714D01*
X24548Y-30389D01*
X25279Y-30389D01*
X26685Y-30389D02*
X26685Y-29208D01*
X27192Y-30389D02*
X27192Y-29770D01*
X27135Y-29658D01*
X27023Y-29602D01*
X26854Y-29602D01*
X26742Y-29658D01*
X26685Y-29714D01*
X27923Y-30389D02*
X27810Y-30333D01*
X27754Y-30276D01*
X27698Y-30164D01*
X27698Y-29827D01*
X27754Y-29714D01*
X27810Y-29658D01*
X27923Y-29602D01*
X28091Y-29602D01*
X28204Y-29658D01*
X28260Y-29714D01*
X28316Y-29827D01*
X28316Y-30164D01*
X28260Y-30276D01*
X28204Y-30333D01*
X28091Y-30389D01*
X27923Y-30389D01*
X28991Y-30389D02*
X28879Y-30333D01*
X28823Y-30220D01*
X28823Y-29208D01*
X29891Y-30333D02*
X29779Y-30389D01*
X29554Y-30389D01*
X29441Y-30333D01*
X29385Y-30220D01*
X29385Y-29770D01*
X29441Y-29658D01*
X29554Y-29602D01*
X29779Y-29602D01*
X29891Y-29658D01*
X29947Y-29770D01*
X29947Y-29883D01*
X29385Y-29995D01*
X30397Y-30333D02*
X30510Y-30389D01*
X30735Y-30389D01*
X30847Y-30333D01*
X30904Y-30220D01*
X30904Y-30164D01*
X30847Y-30052D01*
X30735Y-29995D01*
X30566Y-29995D01*
X30454Y-29939D01*
X30397Y-29827D01*
X30397Y-29770D01*
X30454Y-29658D01*
X30566Y-29602D01*
X30735Y-29602D01*
X30847Y-29658D01*
X31297Y-30839D02*
X31354Y-30783D01*
X31466Y-30614D01*
X31522Y-30501D01*
X31579Y-30333D01*
X31635Y-30052D01*
X31635Y-29827D01*
X31579Y-29545D01*
X31522Y-29377D01*
X31466Y-29264D01*
X31354Y-29095D01*
X31297Y-29039D01*
M02*
