G04 (created by PCBNEW (2013-07-07 BZR 4022)-stable) date 9/18/2013 12:17:53*
%MOIN*%
G04 Gerber Fmt 3.4, Leading zero omitted, Abs format*
%FSLAX34Y34*%
G01*
G70*
G90*
G04 APERTURE LIST*
%ADD10C,0.00590551*%
%ADD11C,0.011811*%
G04 APERTURE END LIST*
G54D10*
G54D11*
X46690Y-10303D02*
X46774Y-10331D01*
X46802Y-10359D01*
X46830Y-10416D01*
X46830Y-10500D01*
X46802Y-10556D01*
X46774Y-10584D01*
X46718Y-10613D01*
X46493Y-10613D01*
X46493Y-10022D01*
X46690Y-10022D01*
X46746Y-10050D01*
X46774Y-10078D01*
X46802Y-10134D01*
X46802Y-10191D01*
X46774Y-10247D01*
X46746Y-10275D01*
X46690Y-10303D01*
X46493Y-10303D01*
X47083Y-10556D02*
X47111Y-10584D01*
X47083Y-10613D01*
X47055Y-10584D01*
X47083Y-10556D01*
X47083Y-10613D01*
X47365Y-10613D02*
X47365Y-10022D01*
X47589Y-10022D01*
X47646Y-10050D01*
X47674Y-10078D01*
X47702Y-10134D01*
X47702Y-10219D01*
X47674Y-10275D01*
X47646Y-10303D01*
X47589Y-10331D01*
X47365Y-10331D01*
X48208Y-10613D02*
X48208Y-10303D01*
X48180Y-10247D01*
X48124Y-10219D01*
X48011Y-10219D01*
X47955Y-10247D01*
X48208Y-10584D02*
X48152Y-10613D01*
X48011Y-10613D01*
X47955Y-10584D01*
X47927Y-10528D01*
X47927Y-10472D01*
X47955Y-10416D01*
X48011Y-10388D01*
X48152Y-10388D01*
X48208Y-10359D01*
X48461Y-10584D02*
X48517Y-10613D01*
X48630Y-10613D01*
X48686Y-10584D01*
X48714Y-10528D01*
X48714Y-10500D01*
X48686Y-10444D01*
X48630Y-10416D01*
X48546Y-10416D01*
X48489Y-10388D01*
X48461Y-10331D01*
X48461Y-10303D01*
X48489Y-10247D01*
X48546Y-10219D01*
X48630Y-10219D01*
X48686Y-10247D01*
X48883Y-10219D02*
X49108Y-10219D01*
X48967Y-10022D02*
X48967Y-10528D01*
X48996Y-10584D01*
X49052Y-10613D01*
X49108Y-10613D01*
X49530Y-10584D02*
X49474Y-10613D01*
X49361Y-10613D01*
X49305Y-10584D01*
X49277Y-10528D01*
X49277Y-10303D01*
X49305Y-10247D01*
X49361Y-10219D01*
X49474Y-10219D01*
X49530Y-10247D01*
X49558Y-10303D01*
X49558Y-10359D01*
X49277Y-10416D01*
M02*
