G04 (created by PCBNEW (2013-07-07 BZR 4022)-stable) date 9/18/2013 12:17:53*
%MOIN*%
G04 Gerber Fmt 3.4, Leading zero omitted, Abs format*
%FSLAX34Y34*%
G01*
G70*
G90*
G04 APERTURE LIST*
%ADD10C,0.00590551*%
%ADD11C,0.011811*%
G04 APERTURE END LIST*
G54D10*
G54D11*
X46479Y-17508D02*
X46676Y-17508D01*
X46760Y-17817D02*
X46479Y-17817D01*
X46479Y-17227D01*
X46760Y-17227D01*
X47266Y-17817D02*
X47266Y-17227D01*
X47266Y-17789D02*
X47210Y-17817D01*
X47097Y-17817D01*
X47041Y-17789D01*
X47013Y-17761D01*
X46985Y-17705D01*
X46985Y-17536D01*
X47013Y-17480D01*
X47041Y-17452D01*
X47097Y-17424D01*
X47210Y-17424D01*
X47266Y-17452D01*
X47800Y-17424D02*
X47800Y-17902D01*
X47772Y-17958D01*
X47744Y-17986D01*
X47688Y-18014D01*
X47604Y-18014D01*
X47547Y-17986D01*
X47800Y-17789D02*
X47744Y-17817D01*
X47632Y-17817D01*
X47575Y-17789D01*
X47547Y-17761D01*
X47519Y-17705D01*
X47519Y-17536D01*
X47547Y-17480D01*
X47575Y-17452D01*
X47632Y-17424D01*
X47744Y-17424D01*
X47800Y-17452D01*
X48307Y-17789D02*
X48250Y-17817D01*
X48138Y-17817D01*
X48082Y-17789D01*
X48053Y-17733D01*
X48053Y-17508D01*
X48082Y-17452D01*
X48138Y-17424D01*
X48250Y-17424D01*
X48307Y-17452D01*
X48335Y-17508D01*
X48335Y-17564D01*
X48053Y-17620D01*
X48588Y-17761D02*
X48616Y-17789D01*
X48588Y-17817D01*
X48560Y-17789D01*
X48588Y-17761D01*
X48588Y-17817D01*
X49206Y-17761D02*
X49178Y-17789D01*
X49094Y-17817D01*
X49038Y-17817D01*
X48953Y-17789D01*
X48897Y-17733D01*
X48869Y-17677D01*
X48841Y-17564D01*
X48841Y-17480D01*
X48869Y-17367D01*
X48897Y-17311D01*
X48953Y-17255D01*
X49038Y-17227D01*
X49094Y-17227D01*
X49178Y-17255D01*
X49206Y-17283D01*
X49713Y-17424D02*
X49713Y-17817D01*
X49460Y-17424D02*
X49460Y-17733D01*
X49488Y-17789D01*
X49544Y-17817D01*
X49628Y-17817D01*
X49685Y-17789D01*
X49713Y-17761D01*
X49910Y-17424D02*
X50134Y-17424D01*
X49994Y-17227D02*
X49994Y-17733D01*
X50022Y-17789D01*
X50078Y-17817D01*
X50134Y-17817D01*
X50303Y-17789D02*
X50359Y-17817D01*
X50472Y-17817D01*
X50528Y-17789D01*
X50556Y-17733D01*
X50556Y-17705D01*
X50528Y-17649D01*
X50472Y-17620D01*
X50388Y-17620D01*
X50331Y-17592D01*
X50303Y-17536D01*
X50303Y-17508D01*
X50331Y-17452D01*
X50388Y-17424D01*
X50472Y-17424D01*
X50528Y-17452D01*
G54D10*
X4724Y-24409D02*
X4724Y-4724D01*
X44094Y-24409D02*
X4724Y-24409D01*
X44094Y-4724D02*
X44094Y-24409D01*
X4724Y-4724D02*
X44094Y-4724D01*
M02*
