G04 (created by PCBNEW (2013-07-07 BZR 4022)-stable) date 9/18/2013 12:17:53*
%MOIN*%
G04 Gerber Fmt 3.4, Leading zero omitted, Abs format*
%FSLAX34Y34*%
G01*
G70*
G90*
G04 APERTURE LIST*
%ADD10C,0.00590551*%
%ADD11C,0.011811*%
G04 APERTURE END LIST*
G54D10*
G54D11*
X46712Y-8984D02*
X46515Y-8984D01*
X46515Y-9294D02*
X46515Y-8703D01*
X46796Y-8703D01*
X47021Y-9237D02*
X47050Y-9266D01*
X47021Y-9294D01*
X46993Y-9266D01*
X47021Y-9237D01*
X47021Y-9294D01*
X47303Y-9294D02*
X47303Y-8703D01*
X47528Y-8703D01*
X47584Y-8731D01*
X47612Y-8759D01*
X47640Y-8816D01*
X47640Y-8900D01*
X47612Y-8956D01*
X47584Y-8984D01*
X47528Y-9012D01*
X47303Y-9012D01*
X48146Y-9294D02*
X48146Y-8984D01*
X48118Y-8928D01*
X48062Y-8900D01*
X47949Y-8900D01*
X47893Y-8928D01*
X48146Y-9266D02*
X48090Y-9294D01*
X47949Y-9294D01*
X47893Y-9266D01*
X47865Y-9209D01*
X47865Y-9153D01*
X47893Y-9097D01*
X47949Y-9069D01*
X48090Y-9069D01*
X48146Y-9041D01*
X48399Y-9266D02*
X48456Y-9294D01*
X48568Y-9294D01*
X48624Y-9266D01*
X48652Y-9209D01*
X48652Y-9181D01*
X48624Y-9125D01*
X48568Y-9097D01*
X48484Y-9097D01*
X48428Y-9069D01*
X48399Y-9012D01*
X48399Y-8984D01*
X48428Y-8928D01*
X48484Y-8900D01*
X48568Y-8900D01*
X48624Y-8928D01*
X48821Y-8900D02*
X49046Y-8900D01*
X48906Y-8703D02*
X48906Y-9209D01*
X48934Y-9266D01*
X48990Y-9294D01*
X49046Y-9294D01*
X49468Y-9266D02*
X49412Y-9294D01*
X49299Y-9294D01*
X49243Y-9266D01*
X49215Y-9209D01*
X49215Y-8984D01*
X49243Y-8928D01*
X49299Y-8900D01*
X49412Y-8900D01*
X49468Y-8928D01*
X49496Y-8984D01*
X49496Y-9041D01*
X49215Y-9097D01*
M02*
