G04 (created by PCBNEW (2013-07-07 BZR 4022)-stable) date 9/18/2013 12:17:53*
%MOIN*%
G04 Gerber Fmt 3.4, Leading zero omitted, Abs format*
%FSLAX34Y34*%
G01*
G70*
G90*
G04 APERTURE LIST*
%ADD10C,0.00590551*%
%ADD11C,0.011811*%
%ADD12C,0.246063*%
%ADD13C,0.153543*%
%ADD14C,0.0689425*%
%ADD15C,0.0964567*%
G04 APERTURE END LIST*
G54D10*
G54D11*
X46678Y-13177D02*
X46763Y-13205D01*
X46791Y-13233D01*
X46819Y-13290D01*
X46819Y-13374D01*
X46791Y-13430D01*
X46763Y-13458D01*
X46706Y-13487D01*
X46482Y-13487D01*
X46482Y-12896D01*
X46678Y-12896D01*
X46735Y-12924D01*
X46763Y-12952D01*
X46791Y-13008D01*
X46791Y-13065D01*
X46763Y-13121D01*
X46735Y-13149D01*
X46678Y-13177D01*
X46482Y-13177D01*
X47072Y-13430D02*
X47100Y-13458D01*
X47072Y-13487D01*
X47044Y-13458D01*
X47072Y-13430D01*
X47072Y-13487D01*
X47325Y-13458D02*
X47410Y-13487D01*
X47550Y-13487D01*
X47606Y-13458D01*
X47634Y-13430D01*
X47663Y-13374D01*
X47663Y-13318D01*
X47634Y-13262D01*
X47606Y-13233D01*
X47550Y-13205D01*
X47438Y-13177D01*
X47381Y-13149D01*
X47353Y-13121D01*
X47325Y-13065D01*
X47325Y-13008D01*
X47353Y-12952D01*
X47381Y-12924D01*
X47438Y-12896D01*
X47578Y-12896D01*
X47663Y-12924D01*
X47916Y-13487D02*
X47916Y-13093D01*
X47916Y-12896D02*
X47888Y-12924D01*
X47916Y-12952D01*
X47944Y-12924D01*
X47916Y-12896D01*
X47916Y-12952D01*
X48281Y-13487D02*
X48225Y-13458D01*
X48197Y-13402D01*
X48197Y-12896D01*
X48506Y-13487D02*
X48506Y-12896D01*
X48562Y-13262D02*
X48731Y-13487D01*
X48731Y-13093D02*
X48506Y-13318D01*
X48956Y-13458D02*
X49041Y-13487D01*
X49181Y-13487D01*
X49237Y-13458D01*
X49266Y-13430D01*
X49294Y-13374D01*
X49294Y-13318D01*
X49266Y-13262D01*
X49237Y-13233D01*
X49181Y-13205D01*
X49069Y-13177D01*
X49012Y-13149D01*
X48984Y-13121D01*
X48956Y-13065D01*
X48956Y-13008D01*
X48984Y-12952D01*
X49012Y-12924D01*
X49069Y-12896D01*
X49209Y-12896D01*
X49294Y-12924D01*
%LPC*%
X46732Y-15992D02*
X46816Y-16020D01*
X46844Y-16048D01*
X46872Y-16105D01*
X46872Y-16189D01*
X46844Y-16245D01*
X46816Y-16273D01*
X46760Y-16302D01*
X46535Y-16302D01*
X46535Y-15711D01*
X46732Y-15711D01*
X46788Y-15739D01*
X46816Y-15767D01*
X46844Y-15823D01*
X46844Y-15880D01*
X46816Y-15936D01*
X46788Y-15964D01*
X46732Y-15992D01*
X46535Y-15992D01*
X47125Y-16245D02*
X47154Y-16273D01*
X47125Y-16302D01*
X47097Y-16273D01*
X47125Y-16245D01*
X47125Y-16302D01*
X47407Y-16302D02*
X47407Y-15711D01*
X47604Y-16133D01*
X47800Y-15711D01*
X47800Y-16302D01*
X48335Y-16302D02*
X48335Y-15992D01*
X48307Y-15936D01*
X48250Y-15908D01*
X48138Y-15908D01*
X48082Y-15936D01*
X48335Y-16273D02*
X48278Y-16302D01*
X48138Y-16302D01*
X48082Y-16273D01*
X48053Y-16217D01*
X48053Y-16161D01*
X48082Y-16105D01*
X48138Y-16077D01*
X48278Y-16077D01*
X48335Y-16048D01*
X48588Y-16273D02*
X48644Y-16302D01*
X48757Y-16302D01*
X48813Y-16273D01*
X48841Y-16217D01*
X48841Y-16189D01*
X48813Y-16133D01*
X48757Y-16105D01*
X48672Y-16105D01*
X48616Y-16077D01*
X48588Y-16020D01*
X48588Y-15992D01*
X48616Y-15936D01*
X48672Y-15908D01*
X48757Y-15908D01*
X48813Y-15936D01*
X49094Y-16302D02*
X49094Y-15711D01*
X49150Y-16077D02*
X49319Y-16302D01*
X49319Y-15908D02*
X49094Y-16133D01*
G54D12*
X6692Y-6692D03*
X6692Y-22440D03*
X42125Y-22440D03*
X42125Y-6692D03*
G54D13*
X33720Y-7086D03*
X38720Y-7086D03*
G54D14*
X34814Y-8086D03*
X35216Y-8787D03*
X35618Y-8086D03*
X36019Y-8787D03*
X36421Y-8086D03*
X36822Y-8787D03*
X37224Y-8086D03*
X37625Y-8787D03*
G54D15*
X33019Y-8437D03*
X39421Y-8437D03*
G54D13*
X25846Y-7086D03*
X30846Y-7086D03*
G54D14*
X26940Y-8086D03*
X27342Y-8787D03*
X27744Y-8086D03*
X28145Y-8787D03*
X28547Y-8086D03*
X28948Y-8787D03*
X29350Y-8086D03*
X29751Y-8787D03*
G54D15*
X25145Y-8437D03*
X31547Y-8437D03*
G54D13*
X17972Y-7086D03*
X22972Y-7086D03*
G54D14*
X19066Y-8086D03*
X19468Y-8787D03*
X19870Y-8086D03*
X20271Y-8787D03*
X20673Y-8086D03*
X21074Y-8787D03*
X21476Y-8086D03*
X21877Y-8787D03*
G54D15*
X17271Y-8437D03*
X23673Y-8437D03*
G54D13*
X10098Y-7086D03*
X15098Y-7086D03*
G54D14*
X11192Y-8086D03*
X11594Y-8787D03*
X11996Y-8086D03*
X12397Y-8787D03*
X12799Y-8086D03*
X13200Y-8787D03*
X13602Y-8086D03*
X14003Y-8787D03*
G54D15*
X9397Y-8437D03*
X15799Y-8437D03*
G54D13*
X32814Y-22047D03*
X27814Y-22047D03*
G54D14*
X31720Y-21047D03*
X31318Y-20346D03*
X30917Y-21047D03*
X30515Y-20346D03*
X30114Y-21047D03*
X29712Y-20346D03*
X29311Y-21047D03*
X28909Y-20346D03*
G54D15*
X33515Y-20696D03*
X27114Y-20696D03*
G54D13*
X21003Y-22047D03*
X16003Y-22047D03*
G54D14*
X19909Y-21047D03*
X19507Y-20346D03*
X19106Y-21047D03*
X18704Y-20346D03*
X18303Y-21047D03*
X17901Y-20346D03*
X17500Y-21047D03*
X17098Y-20346D03*
G54D15*
X21704Y-20696D03*
X15303Y-20696D03*
M02*
