G04 (created by PCBNEW (2013-07-07 BZR 4022)-stable) date 9/18/2013 12:18:54*
%MOIN*%
G04 Gerber Fmt 3.4, Leading zero omitted, Abs format*
%FSLAX34Y34*%
G01*
G70*
G90*
G04 APERTURE LIST*
%ADD10C,0.005*%
%ADD11C,0.011811*%
%ADD12C,0.00590551*%
%ADD13C,0.00787402*%
G04 APERTURE END LIST*
G54D10*
G54D11*
X46479Y-17508D02*
X46676Y-17508D01*
X46760Y-17817D02*
X46479Y-17817D01*
X46479Y-17227D01*
X46760Y-17227D01*
X47266Y-17817D02*
X47266Y-17227D01*
X47266Y-17789D02*
X47210Y-17817D01*
X47097Y-17817D01*
X47041Y-17789D01*
X47013Y-17761D01*
X46985Y-17705D01*
X46985Y-17536D01*
X47013Y-17480D01*
X47041Y-17452D01*
X47097Y-17424D01*
X47210Y-17424D01*
X47266Y-17452D01*
X47800Y-17424D02*
X47800Y-17902D01*
X47772Y-17958D01*
X47744Y-17986D01*
X47688Y-18014D01*
X47604Y-18014D01*
X47547Y-17986D01*
X47800Y-17789D02*
X47744Y-17817D01*
X47632Y-17817D01*
X47575Y-17789D01*
X47547Y-17761D01*
X47519Y-17705D01*
X47519Y-17536D01*
X47547Y-17480D01*
X47575Y-17452D01*
X47632Y-17424D01*
X47744Y-17424D01*
X47800Y-17452D01*
X48307Y-17789D02*
X48250Y-17817D01*
X48138Y-17817D01*
X48082Y-17789D01*
X48053Y-17733D01*
X48053Y-17508D01*
X48082Y-17452D01*
X48138Y-17424D01*
X48250Y-17424D01*
X48307Y-17452D01*
X48335Y-17508D01*
X48335Y-17564D01*
X48053Y-17620D01*
X48588Y-17761D02*
X48616Y-17789D01*
X48588Y-17817D01*
X48560Y-17789D01*
X48588Y-17761D01*
X48588Y-17817D01*
X49206Y-17761D02*
X49178Y-17789D01*
X49094Y-17817D01*
X49038Y-17817D01*
X48953Y-17789D01*
X48897Y-17733D01*
X48869Y-17677D01*
X48841Y-17564D01*
X48841Y-17480D01*
X48869Y-17367D01*
X48897Y-17311D01*
X48953Y-17255D01*
X49038Y-17227D01*
X49094Y-17227D01*
X49178Y-17255D01*
X49206Y-17283D01*
X49713Y-17424D02*
X49713Y-17817D01*
X49460Y-17424D02*
X49460Y-17733D01*
X49488Y-17789D01*
X49544Y-17817D01*
X49628Y-17817D01*
X49685Y-17789D01*
X49713Y-17761D01*
X49910Y-17424D02*
X50134Y-17424D01*
X49994Y-17227D02*
X49994Y-17733D01*
X50022Y-17789D01*
X50078Y-17817D01*
X50134Y-17817D01*
X50303Y-17789D02*
X50359Y-17817D01*
X50472Y-17817D01*
X50528Y-17789D01*
X50556Y-17733D01*
X50556Y-17705D01*
X50528Y-17649D01*
X50472Y-17620D01*
X50388Y-17620D01*
X50331Y-17592D01*
X50303Y-17536D01*
X50303Y-17508D01*
X50331Y-17452D01*
X50388Y-17424D01*
X50472Y-17424D01*
X50528Y-17452D01*
G54D12*
X4724Y-24409D02*
X4724Y-4724D01*
X44094Y-24409D02*
X4724Y-24409D01*
X44094Y-4724D02*
X44094Y-24409D01*
X4724Y-4724D02*
X44094Y-4724D01*
G54D13*
X12237Y-10977D02*
X12487Y-11227D01*
X12487Y-10977D02*
X12237Y-11227D01*
X17749Y-14205D02*
X17999Y-14455D01*
X17999Y-14205D02*
X17749Y-14455D01*
X11369Y-8086D02*
G75*
G03X11369Y-8086I-177J0D01*
G74*
G01*
X11771Y-8787D02*
G75*
G03X11771Y-8787I-177J0D01*
G74*
G01*
X12173Y-8086D02*
G75*
G03X12173Y-8086I-177J0D01*
G74*
G01*
X12574Y-8787D02*
G75*
G03X12574Y-8787I-177J0D01*
G74*
G01*
X12976Y-8086D02*
G75*
G03X12976Y-8086I-177J0D01*
G74*
G01*
X13377Y-8787D02*
G75*
G03X13377Y-8787I-177J0D01*
G74*
G01*
X13779Y-8086D02*
G75*
G03X13779Y-8086I-177J0D01*
G74*
G01*
X14180Y-8787D02*
G75*
G03X14180Y-8787I-177J0D01*
G74*
G01*
X17275Y-20346D02*
G75*
G03X17275Y-20346I-177J0D01*
G74*
G01*
X17677Y-21047D02*
G75*
G03X17677Y-21047I-177J0D01*
G74*
G01*
X18078Y-20346D02*
G75*
G03X18078Y-20346I-177J0D01*
G74*
G01*
X18480Y-21047D02*
G75*
G03X18480Y-21047I-177J0D01*
G74*
G01*
X18881Y-20346D02*
G75*
G03X18881Y-20346I-177J0D01*
G74*
G01*
X19243Y-8086D02*
G75*
G03X19243Y-8086I-177J0D01*
G74*
G01*
X19283Y-21047D02*
G75*
G03X19283Y-21047I-177J0D01*
G74*
G01*
X19645Y-8787D02*
G75*
G03X19645Y-8787I-177J0D01*
G74*
G01*
X19684Y-20346D02*
G75*
G03X19684Y-20346I-177J0D01*
G74*
G01*
X20047Y-8086D02*
G75*
G03X20047Y-8086I-177J0D01*
G74*
G01*
X20086Y-21047D02*
G75*
G03X20086Y-21047I-177J0D01*
G74*
G01*
X20448Y-8787D02*
G75*
G03X20448Y-8787I-177J0D01*
G74*
G01*
X20850Y-8086D02*
G75*
G03X20850Y-8086I-177J0D01*
G74*
G01*
X21251Y-8787D02*
G75*
G03X21251Y-8787I-177J0D01*
G74*
G01*
X21653Y-8086D02*
G75*
G03X21653Y-8086I-177J0D01*
G74*
G01*
X22054Y-8787D02*
G75*
G03X22054Y-8787I-177J0D01*
G74*
G01*
X27117Y-8086D02*
G75*
G03X27117Y-8086I-177J0D01*
G74*
G01*
X27519Y-8787D02*
G75*
G03X27519Y-8787I-177J0D01*
G74*
G01*
X27921Y-8086D02*
G75*
G03X27921Y-8086I-177J0D01*
G74*
G01*
X28322Y-8787D02*
G75*
G03X28322Y-8787I-177J0D01*
G74*
G01*
X28724Y-8086D02*
G75*
G03X28724Y-8086I-177J0D01*
G74*
G01*
X29086Y-20346D02*
G75*
G03X29086Y-20346I-177J0D01*
G74*
G01*
X29125Y-8787D02*
G75*
G03X29125Y-8787I-177J0D01*
G74*
G01*
X29488Y-21047D02*
G75*
G03X29488Y-21047I-177J0D01*
G74*
G01*
X29527Y-8086D02*
G75*
G03X29527Y-8086I-177J0D01*
G74*
G01*
X29889Y-20346D02*
G75*
G03X29889Y-20346I-177J0D01*
G74*
G01*
X29928Y-8787D02*
G75*
G03X29928Y-8787I-177J0D01*
G74*
G01*
X30291Y-21047D02*
G75*
G03X30291Y-21047I-177J0D01*
G74*
G01*
X30692Y-20346D02*
G75*
G03X30692Y-20346I-177J0D01*
G74*
G01*
X31094Y-21047D02*
G75*
G03X31094Y-21047I-177J0D01*
G74*
G01*
X31495Y-20346D02*
G75*
G03X31495Y-20346I-177J0D01*
G74*
G01*
X31897Y-21047D02*
G75*
G03X31897Y-21047I-177J0D01*
G74*
G01*
X34991Y-8086D02*
G75*
G03X34991Y-8086I-177J0D01*
G74*
G01*
X35393Y-8787D02*
G75*
G03X35393Y-8787I-177J0D01*
G74*
G01*
X35795Y-8086D02*
G75*
G03X35795Y-8086I-177J0D01*
G74*
G01*
X36196Y-8787D02*
G75*
G03X36196Y-8787I-177J0D01*
G74*
G01*
X36598Y-8086D02*
G75*
G03X36598Y-8086I-177J0D01*
G74*
G01*
X36999Y-8787D02*
G75*
G03X36999Y-8787I-177J0D01*
G74*
G01*
X37401Y-8086D02*
G75*
G03X37401Y-8086I-177J0D01*
G74*
G01*
X37802Y-8787D02*
G75*
G03X37802Y-8787I-177J0D01*
G74*
G01*
X9397Y-8122D02*
X9397Y-8751D01*
X9082Y-8437D02*
X9712Y-8437D01*
X15303Y-20381D02*
X15303Y-21011D01*
X14988Y-20696D02*
X15618Y-20696D01*
X15799Y-8122D02*
X15799Y-8751D01*
X15484Y-8437D02*
X16114Y-8437D01*
X17271Y-8122D02*
X17271Y-8751D01*
X16956Y-8437D02*
X17586Y-8437D01*
X21704Y-20381D02*
X21704Y-21011D01*
X21389Y-20696D02*
X22019Y-20696D01*
X23673Y-8122D02*
X23673Y-8751D01*
X23358Y-8437D02*
X23988Y-8437D01*
X25145Y-8122D02*
X25145Y-8751D01*
X24830Y-8437D02*
X25460Y-8437D01*
X27114Y-20381D02*
X27114Y-21011D01*
X26799Y-20696D02*
X27429Y-20696D01*
X31547Y-8122D02*
X31547Y-8751D01*
X31232Y-8437D02*
X31862Y-8437D01*
X33019Y-8122D02*
X33019Y-8751D01*
X32704Y-8437D02*
X33334Y-8437D01*
X33515Y-20381D02*
X33515Y-21011D01*
X33200Y-20696D02*
X33830Y-20696D01*
X39421Y-8122D02*
X39421Y-8751D01*
X39106Y-8437D02*
X39736Y-8437D01*
G54D11*
X5763Y-26216D02*
X5763Y-25035D01*
X6044Y-25035D01*
X6213Y-25091D01*
X6325Y-25203D01*
X6382Y-25316D01*
X6438Y-25541D01*
X6438Y-25710D01*
X6382Y-25935D01*
X6325Y-26047D01*
X6213Y-26160D01*
X6044Y-26216D01*
X5763Y-26216D01*
X6944Y-26216D02*
X6944Y-25428D01*
X6944Y-25653D02*
X7000Y-25541D01*
X7057Y-25485D01*
X7169Y-25428D01*
X7282Y-25428D01*
X7675Y-26216D02*
X7675Y-25428D01*
X7675Y-25035D02*
X7619Y-25091D01*
X7675Y-25147D01*
X7732Y-25091D01*
X7675Y-25035D01*
X7675Y-25147D01*
X8406Y-26216D02*
X8294Y-26160D01*
X8238Y-26047D01*
X8238Y-25035D01*
X9025Y-26216D02*
X8913Y-26160D01*
X8856Y-26047D01*
X8856Y-25035D01*
X10375Y-26216D02*
X10375Y-25035D01*
X10769Y-25878D01*
X11162Y-25035D01*
X11162Y-26216D01*
X12231Y-26216D02*
X12231Y-25597D01*
X12175Y-25485D01*
X12062Y-25428D01*
X11837Y-25428D01*
X11725Y-25485D01*
X12231Y-26160D02*
X12118Y-26216D01*
X11837Y-26216D01*
X11725Y-26160D01*
X11669Y-26047D01*
X11669Y-25935D01*
X11725Y-25822D01*
X11837Y-25766D01*
X12118Y-25766D01*
X12231Y-25710D01*
X12793Y-25428D02*
X12793Y-26609D01*
X12793Y-25485D02*
X12906Y-25428D01*
X13131Y-25428D01*
X13243Y-25485D01*
X13300Y-25541D01*
X13356Y-25653D01*
X13356Y-25991D01*
X13300Y-26103D01*
X13243Y-26160D01*
X13131Y-26216D01*
X12906Y-26216D01*
X12793Y-26160D01*
X13862Y-26103D02*
X13918Y-26160D01*
X13862Y-26216D01*
X13806Y-26160D01*
X13862Y-26103D01*
X13862Y-26216D01*
X13862Y-25485D02*
X13918Y-25541D01*
X13862Y-25597D01*
X13806Y-25541D01*
X13862Y-25485D01*
X13862Y-25597D01*
X4444Y-28093D02*
X4694Y-28343D01*
X4694Y-28093D02*
X4444Y-28343D01*
X5988Y-27515D02*
X6100Y-27515D01*
X6213Y-27571D01*
X6269Y-27627D01*
X6325Y-27740D01*
X6382Y-27965D01*
X6382Y-28246D01*
X6325Y-28471D01*
X6269Y-28584D01*
X6213Y-28640D01*
X6100Y-28696D01*
X5988Y-28696D01*
X5875Y-28640D01*
X5819Y-28584D01*
X5763Y-28471D01*
X5707Y-28246D01*
X5707Y-27965D01*
X5763Y-27740D01*
X5819Y-27627D01*
X5875Y-27571D01*
X5988Y-27515D01*
X6888Y-28584D02*
X6944Y-28640D01*
X6888Y-28696D01*
X6832Y-28640D01*
X6888Y-28584D01*
X6888Y-28696D01*
X7956Y-27515D02*
X7732Y-27515D01*
X7619Y-27571D01*
X7563Y-27627D01*
X7450Y-27796D01*
X7394Y-28021D01*
X7394Y-28471D01*
X7450Y-28584D01*
X7507Y-28640D01*
X7619Y-28696D01*
X7844Y-28696D01*
X7956Y-28640D01*
X8013Y-28584D01*
X8069Y-28471D01*
X8069Y-28190D01*
X8013Y-28077D01*
X7956Y-28021D01*
X7844Y-27965D01*
X7619Y-27965D01*
X7507Y-28021D01*
X7450Y-28077D01*
X7394Y-28190D01*
X9081Y-27909D02*
X9081Y-28696D01*
X8800Y-27459D02*
X8519Y-28302D01*
X9250Y-28302D01*
X9700Y-28696D02*
X9700Y-27909D01*
X9700Y-28021D02*
X9756Y-27965D01*
X9869Y-27909D01*
X10037Y-27909D01*
X10150Y-27965D01*
X10206Y-28077D01*
X10206Y-28696D01*
X10206Y-28077D02*
X10262Y-27965D01*
X10375Y-27909D01*
X10544Y-27909D01*
X10656Y-27965D01*
X10712Y-28077D01*
X10712Y-28696D01*
X11275Y-28696D02*
X11275Y-27909D01*
X11275Y-28021D02*
X11331Y-27965D01*
X11444Y-27909D01*
X11612Y-27909D01*
X11725Y-27965D01*
X11781Y-28077D01*
X11781Y-28696D01*
X11781Y-28077D02*
X11837Y-27965D01*
X11950Y-27909D01*
X12118Y-27909D01*
X12231Y-27965D01*
X12287Y-28077D01*
X12287Y-28696D01*
X14593Y-27459D02*
X13581Y-28977D01*
X16112Y-27515D02*
X16224Y-27515D01*
X16337Y-27571D01*
X16393Y-27627D01*
X16449Y-27740D01*
X16505Y-27965D01*
X16505Y-28246D01*
X16449Y-28471D01*
X16393Y-28584D01*
X16337Y-28640D01*
X16224Y-28696D01*
X16112Y-28696D01*
X15999Y-28640D01*
X15943Y-28584D01*
X15887Y-28471D01*
X15830Y-28246D01*
X15830Y-27965D01*
X15887Y-27740D01*
X15943Y-27627D01*
X15999Y-27571D01*
X16112Y-27515D01*
X17012Y-28584D02*
X17068Y-28640D01*
X17012Y-28696D01*
X16955Y-28640D01*
X17012Y-28584D01*
X17012Y-28696D01*
X17799Y-27515D02*
X17911Y-27515D01*
X18024Y-27571D01*
X18080Y-27627D01*
X18136Y-27740D01*
X18193Y-27965D01*
X18193Y-28246D01*
X18136Y-28471D01*
X18080Y-28584D01*
X18024Y-28640D01*
X17911Y-28696D01*
X17799Y-28696D01*
X17687Y-28640D01*
X17630Y-28584D01*
X17574Y-28471D01*
X17518Y-28246D01*
X17518Y-27965D01*
X17574Y-27740D01*
X17630Y-27627D01*
X17687Y-27571D01*
X17799Y-27515D01*
X18643Y-27627D02*
X18699Y-27571D01*
X18811Y-27515D01*
X19093Y-27515D01*
X19205Y-27571D01*
X19261Y-27627D01*
X19318Y-27740D01*
X19318Y-27852D01*
X19261Y-28021D01*
X18586Y-28696D01*
X19318Y-28696D01*
X20386Y-27515D02*
X19824Y-27515D01*
X19767Y-28077D01*
X19824Y-28021D01*
X19936Y-27965D01*
X20217Y-27965D01*
X20330Y-28021D01*
X20386Y-28077D01*
X20442Y-28190D01*
X20442Y-28471D01*
X20386Y-28584D01*
X20330Y-28640D01*
X20217Y-28696D01*
X19936Y-28696D01*
X19824Y-28640D01*
X19767Y-28584D01*
X20892Y-27515D02*
X20892Y-27740D01*
X21342Y-27515D02*
X21342Y-27740D01*
X23086Y-29146D02*
X23030Y-29090D01*
X22917Y-28921D01*
X22861Y-28809D01*
X22805Y-28640D01*
X22748Y-28359D01*
X22748Y-28134D01*
X22805Y-27852D01*
X22861Y-27684D01*
X22917Y-27571D01*
X23030Y-27402D01*
X23086Y-27346D01*
X23480Y-27627D02*
X23536Y-27571D01*
X23648Y-27515D01*
X23929Y-27515D01*
X24042Y-27571D01*
X24098Y-27627D01*
X24154Y-27740D01*
X24154Y-27852D01*
X24098Y-28021D01*
X23423Y-28696D01*
X24154Y-28696D01*
X25561Y-28696D02*
X25561Y-27515D01*
X26067Y-28696D02*
X26067Y-28077D01*
X26010Y-27965D01*
X25898Y-27909D01*
X25729Y-27909D01*
X25617Y-27965D01*
X25561Y-28021D01*
X26798Y-28696D02*
X26685Y-28640D01*
X26629Y-28584D01*
X26573Y-28471D01*
X26573Y-28134D01*
X26629Y-28021D01*
X26685Y-27965D01*
X26798Y-27909D01*
X26967Y-27909D01*
X27079Y-27965D01*
X27135Y-28021D01*
X27192Y-28134D01*
X27192Y-28471D01*
X27135Y-28584D01*
X27079Y-28640D01*
X26967Y-28696D01*
X26798Y-28696D01*
X27866Y-28696D02*
X27754Y-28640D01*
X27698Y-28527D01*
X27698Y-27515D01*
X28766Y-28640D02*
X28654Y-28696D01*
X28429Y-28696D01*
X28316Y-28640D01*
X28260Y-28527D01*
X28260Y-28077D01*
X28316Y-27965D01*
X28429Y-27909D01*
X28654Y-27909D01*
X28766Y-27965D01*
X28823Y-28077D01*
X28823Y-28190D01*
X28260Y-28302D01*
X29273Y-28640D02*
X29385Y-28696D01*
X29610Y-28696D01*
X29723Y-28640D01*
X29779Y-28527D01*
X29779Y-28471D01*
X29723Y-28359D01*
X29610Y-28302D01*
X29441Y-28302D01*
X29329Y-28246D01*
X29273Y-28134D01*
X29273Y-28077D01*
X29329Y-27965D01*
X29441Y-27909D01*
X29610Y-27909D01*
X29723Y-27965D01*
X30172Y-29146D02*
X30229Y-29090D01*
X30341Y-28921D01*
X30397Y-28809D01*
X30454Y-28640D01*
X30510Y-28359D01*
X30510Y-28134D01*
X30454Y-27852D01*
X30397Y-27684D01*
X30341Y-27571D01*
X30229Y-27402D01*
X30172Y-27346D01*
G54D13*
X4694Y-29777D02*
G75*
G03X4694Y-29777I-177J0D01*
G74*
G01*
G54D11*
X5988Y-29074D02*
X6100Y-29074D01*
X6213Y-29130D01*
X6269Y-29187D01*
X6325Y-29299D01*
X6382Y-29524D01*
X6382Y-29805D01*
X6325Y-30030D01*
X6269Y-30143D01*
X6213Y-30199D01*
X6100Y-30255D01*
X5988Y-30255D01*
X5875Y-30199D01*
X5819Y-30143D01*
X5763Y-30030D01*
X5707Y-29805D01*
X5707Y-29524D01*
X5763Y-29299D01*
X5819Y-29187D01*
X5875Y-29130D01*
X5988Y-29074D01*
X6888Y-30143D02*
X6944Y-30199D01*
X6888Y-30255D01*
X6832Y-30199D01*
X6888Y-30143D01*
X6888Y-30255D01*
X7507Y-30255D02*
X7732Y-30255D01*
X7844Y-30199D01*
X7900Y-30143D01*
X8013Y-29974D01*
X8069Y-29749D01*
X8069Y-29299D01*
X8013Y-29187D01*
X7956Y-29130D01*
X7844Y-29074D01*
X7619Y-29074D01*
X7507Y-29130D01*
X7450Y-29187D01*
X7394Y-29299D01*
X7394Y-29580D01*
X7450Y-29693D01*
X7507Y-29749D01*
X7619Y-29805D01*
X7844Y-29805D01*
X7956Y-29749D01*
X8013Y-29693D01*
X8069Y-29580D01*
X8800Y-29074D02*
X8913Y-29074D01*
X9025Y-29130D01*
X9081Y-29187D01*
X9138Y-29299D01*
X9194Y-29524D01*
X9194Y-29805D01*
X9138Y-30030D01*
X9081Y-30143D01*
X9025Y-30199D01*
X8913Y-30255D01*
X8800Y-30255D01*
X8688Y-30199D01*
X8631Y-30143D01*
X8575Y-30030D01*
X8519Y-29805D01*
X8519Y-29524D01*
X8575Y-29299D01*
X8631Y-29187D01*
X8688Y-29130D01*
X8800Y-29074D01*
X9700Y-30255D02*
X9700Y-29468D01*
X9700Y-29580D02*
X9756Y-29524D01*
X9869Y-29468D01*
X10037Y-29468D01*
X10150Y-29524D01*
X10206Y-29636D01*
X10206Y-30255D01*
X10206Y-29636D02*
X10262Y-29524D01*
X10375Y-29468D01*
X10544Y-29468D01*
X10656Y-29524D01*
X10712Y-29636D01*
X10712Y-30255D01*
X11275Y-30255D02*
X11275Y-29468D01*
X11275Y-29580D02*
X11331Y-29524D01*
X11444Y-29468D01*
X11612Y-29468D01*
X11725Y-29524D01*
X11781Y-29636D01*
X11781Y-30255D01*
X11781Y-29636D02*
X11837Y-29524D01*
X11950Y-29468D01*
X12118Y-29468D01*
X12231Y-29524D01*
X12287Y-29636D01*
X12287Y-30255D01*
X14593Y-29018D02*
X13581Y-30536D01*
X16112Y-29074D02*
X16224Y-29074D01*
X16337Y-29130D01*
X16393Y-29187D01*
X16449Y-29299D01*
X16505Y-29524D01*
X16505Y-29805D01*
X16449Y-30030D01*
X16393Y-30143D01*
X16337Y-30199D01*
X16224Y-30255D01*
X16112Y-30255D01*
X15999Y-30199D01*
X15943Y-30143D01*
X15887Y-30030D01*
X15830Y-29805D01*
X15830Y-29524D01*
X15887Y-29299D01*
X15943Y-29187D01*
X15999Y-29130D01*
X16112Y-29074D01*
X17012Y-30143D02*
X17068Y-30199D01*
X17012Y-30255D01*
X16955Y-30199D01*
X17012Y-30143D01*
X17012Y-30255D01*
X17799Y-29074D02*
X17911Y-29074D01*
X18024Y-29130D01*
X18080Y-29187D01*
X18136Y-29299D01*
X18193Y-29524D01*
X18193Y-29805D01*
X18136Y-30030D01*
X18080Y-30143D01*
X18024Y-30199D01*
X17911Y-30255D01*
X17799Y-30255D01*
X17687Y-30199D01*
X17630Y-30143D01*
X17574Y-30030D01*
X17518Y-29805D01*
X17518Y-29524D01*
X17574Y-29299D01*
X17630Y-29187D01*
X17687Y-29130D01*
X17799Y-29074D01*
X18586Y-29074D02*
X19318Y-29074D01*
X18924Y-29524D01*
X19093Y-29524D01*
X19205Y-29580D01*
X19261Y-29636D01*
X19318Y-29749D01*
X19318Y-30030D01*
X19261Y-30143D01*
X19205Y-30199D01*
X19093Y-30255D01*
X18755Y-30255D01*
X18643Y-30199D01*
X18586Y-30143D01*
X20386Y-29074D02*
X19824Y-29074D01*
X19767Y-29636D01*
X19824Y-29580D01*
X19936Y-29524D01*
X20217Y-29524D01*
X20330Y-29580D01*
X20386Y-29636D01*
X20442Y-29749D01*
X20442Y-30030D01*
X20386Y-30143D01*
X20330Y-30199D01*
X20217Y-30255D01*
X19936Y-30255D01*
X19824Y-30199D01*
X19767Y-30143D01*
X20892Y-29074D02*
X20892Y-29299D01*
X21342Y-29074D02*
X21342Y-29299D01*
X23086Y-30705D02*
X23030Y-30649D01*
X22917Y-30480D01*
X22861Y-30368D01*
X22805Y-30199D01*
X22748Y-29918D01*
X22748Y-29693D01*
X22805Y-29411D01*
X22861Y-29243D01*
X22917Y-29130D01*
X23030Y-28962D01*
X23086Y-28905D01*
X24042Y-29468D02*
X24042Y-30255D01*
X23761Y-29018D02*
X23480Y-29861D01*
X24211Y-29861D01*
X24829Y-29580D02*
X24717Y-29524D01*
X24661Y-29468D01*
X24604Y-29355D01*
X24604Y-29299D01*
X24661Y-29187D01*
X24717Y-29130D01*
X24829Y-29074D01*
X25054Y-29074D01*
X25167Y-29130D01*
X25223Y-29187D01*
X25279Y-29299D01*
X25279Y-29355D01*
X25223Y-29468D01*
X25167Y-29524D01*
X25054Y-29580D01*
X24829Y-29580D01*
X24717Y-29636D01*
X24661Y-29693D01*
X24604Y-29805D01*
X24604Y-30030D01*
X24661Y-30143D01*
X24717Y-30199D01*
X24829Y-30255D01*
X25054Y-30255D01*
X25167Y-30199D01*
X25223Y-30143D01*
X25279Y-30030D01*
X25279Y-29805D01*
X25223Y-29693D01*
X25167Y-29636D01*
X25054Y-29580D01*
X26685Y-30255D02*
X26685Y-29074D01*
X27192Y-30255D02*
X27192Y-29636D01*
X27135Y-29524D01*
X27023Y-29468D01*
X26854Y-29468D01*
X26742Y-29524D01*
X26685Y-29580D01*
X27923Y-30255D02*
X27810Y-30199D01*
X27754Y-30143D01*
X27698Y-30030D01*
X27698Y-29693D01*
X27754Y-29580D01*
X27810Y-29524D01*
X27923Y-29468D01*
X28091Y-29468D01*
X28204Y-29524D01*
X28260Y-29580D01*
X28316Y-29693D01*
X28316Y-30030D01*
X28260Y-30143D01*
X28204Y-30199D01*
X28091Y-30255D01*
X27923Y-30255D01*
X28991Y-30255D02*
X28879Y-30199D01*
X28823Y-30086D01*
X28823Y-29074D01*
X29891Y-30199D02*
X29779Y-30255D01*
X29554Y-30255D01*
X29441Y-30199D01*
X29385Y-30086D01*
X29385Y-29636D01*
X29441Y-29524D01*
X29554Y-29468D01*
X29779Y-29468D01*
X29891Y-29524D01*
X29947Y-29636D01*
X29947Y-29749D01*
X29385Y-29861D01*
X30397Y-30199D02*
X30510Y-30255D01*
X30735Y-30255D01*
X30847Y-30199D01*
X30904Y-30086D01*
X30904Y-30030D01*
X30847Y-29918D01*
X30735Y-29861D01*
X30566Y-29861D01*
X30454Y-29805D01*
X30397Y-29693D01*
X30397Y-29636D01*
X30454Y-29524D01*
X30566Y-29468D01*
X30735Y-29468D01*
X30847Y-29524D01*
X31297Y-30705D02*
X31354Y-30649D01*
X31466Y-30480D01*
X31522Y-30368D01*
X31579Y-30199D01*
X31635Y-29918D01*
X31635Y-29693D01*
X31579Y-29411D01*
X31522Y-29243D01*
X31466Y-29130D01*
X31354Y-28962D01*
X31297Y-28905D01*
X4379Y-31021D02*
X4379Y-31651D01*
X4064Y-31336D02*
X4694Y-31336D01*
X6382Y-31814D02*
X5707Y-31814D01*
X6044Y-31814D02*
X6044Y-30633D01*
X5932Y-30802D01*
X5819Y-30914D01*
X5707Y-30971D01*
X6888Y-31702D02*
X6944Y-31758D01*
X6888Y-31814D01*
X6832Y-31758D01*
X6888Y-31702D01*
X6888Y-31814D01*
X7956Y-30633D02*
X7732Y-30633D01*
X7619Y-30689D01*
X7563Y-30746D01*
X7450Y-30914D01*
X7394Y-31139D01*
X7394Y-31589D01*
X7450Y-31702D01*
X7507Y-31758D01*
X7619Y-31814D01*
X7844Y-31814D01*
X7956Y-31758D01*
X8013Y-31702D01*
X8069Y-31589D01*
X8069Y-31308D01*
X8013Y-31196D01*
X7956Y-31139D01*
X7844Y-31083D01*
X7619Y-31083D01*
X7507Y-31139D01*
X7450Y-31196D01*
X7394Y-31308D01*
X8800Y-30633D02*
X8913Y-30633D01*
X9025Y-30689D01*
X9081Y-30746D01*
X9138Y-30858D01*
X9194Y-31083D01*
X9194Y-31364D01*
X9138Y-31589D01*
X9081Y-31702D01*
X9025Y-31758D01*
X8913Y-31814D01*
X8800Y-31814D01*
X8688Y-31758D01*
X8631Y-31702D01*
X8575Y-31589D01*
X8519Y-31364D01*
X8519Y-31083D01*
X8575Y-30858D01*
X8631Y-30746D01*
X8688Y-30689D01*
X8800Y-30633D01*
X9700Y-31814D02*
X9700Y-31027D01*
X9700Y-31139D02*
X9756Y-31083D01*
X9869Y-31027D01*
X10037Y-31027D01*
X10150Y-31083D01*
X10206Y-31196D01*
X10206Y-31814D01*
X10206Y-31196D02*
X10262Y-31083D01*
X10375Y-31027D01*
X10544Y-31027D01*
X10656Y-31083D01*
X10712Y-31196D01*
X10712Y-31814D01*
X11275Y-31814D02*
X11275Y-31027D01*
X11275Y-31139D02*
X11331Y-31083D01*
X11444Y-31027D01*
X11612Y-31027D01*
X11725Y-31083D01*
X11781Y-31196D01*
X11781Y-31814D01*
X11781Y-31196D02*
X11837Y-31083D01*
X11950Y-31027D01*
X12118Y-31027D01*
X12231Y-31083D01*
X12287Y-31196D01*
X12287Y-31814D01*
X14593Y-30577D02*
X13581Y-32095D01*
X16112Y-30633D02*
X16224Y-30633D01*
X16337Y-30689D01*
X16393Y-30746D01*
X16449Y-30858D01*
X16505Y-31083D01*
X16505Y-31364D01*
X16449Y-31589D01*
X16393Y-31702D01*
X16337Y-31758D01*
X16224Y-31814D01*
X16112Y-31814D01*
X15999Y-31758D01*
X15943Y-31702D01*
X15887Y-31589D01*
X15830Y-31364D01*
X15830Y-31083D01*
X15887Y-30858D01*
X15943Y-30746D01*
X15999Y-30689D01*
X16112Y-30633D01*
X17012Y-31702D02*
X17068Y-31758D01*
X17012Y-31814D01*
X16955Y-31758D01*
X17012Y-31702D01*
X17012Y-31814D01*
X17799Y-30633D02*
X17911Y-30633D01*
X18024Y-30689D01*
X18080Y-30746D01*
X18136Y-30858D01*
X18193Y-31083D01*
X18193Y-31364D01*
X18136Y-31589D01*
X18080Y-31702D01*
X18024Y-31758D01*
X17911Y-31814D01*
X17799Y-31814D01*
X17687Y-31758D01*
X17630Y-31702D01*
X17574Y-31589D01*
X17518Y-31364D01*
X17518Y-31083D01*
X17574Y-30858D01*
X17630Y-30746D01*
X17687Y-30689D01*
X17799Y-30633D01*
X19205Y-30633D02*
X18980Y-30633D01*
X18868Y-30689D01*
X18811Y-30746D01*
X18699Y-30914D01*
X18643Y-31139D01*
X18643Y-31589D01*
X18699Y-31702D01*
X18755Y-31758D01*
X18868Y-31814D01*
X19093Y-31814D01*
X19205Y-31758D01*
X19261Y-31702D01*
X19318Y-31589D01*
X19318Y-31308D01*
X19261Y-31196D01*
X19205Y-31139D01*
X19093Y-31083D01*
X18868Y-31083D01*
X18755Y-31139D01*
X18699Y-31196D01*
X18643Y-31308D01*
X19711Y-30633D02*
X20442Y-30633D01*
X20049Y-31083D01*
X20217Y-31083D01*
X20330Y-31139D01*
X20386Y-31196D01*
X20442Y-31308D01*
X20442Y-31589D01*
X20386Y-31702D01*
X20330Y-31758D01*
X20217Y-31814D01*
X19880Y-31814D01*
X19767Y-31758D01*
X19711Y-31702D01*
X20892Y-30633D02*
X20892Y-30858D01*
X21342Y-30633D02*
X21342Y-30858D01*
X23086Y-32264D02*
X23030Y-32208D01*
X22917Y-32039D01*
X22861Y-31927D01*
X22805Y-31758D01*
X22748Y-31477D01*
X22748Y-31252D01*
X22805Y-30971D01*
X22861Y-30802D01*
X22917Y-30689D01*
X23030Y-30521D01*
X23086Y-30464D01*
X24154Y-31814D02*
X23480Y-31814D01*
X23817Y-31814D02*
X23817Y-30633D01*
X23705Y-30802D01*
X23592Y-30914D01*
X23480Y-30971D01*
X24604Y-30746D02*
X24661Y-30689D01*
X24773Y-30633D01*
X25054Y-30633D01*
X25167Y-30689D01*
X25223Y-30746D01*
X25279Y-30858D01*
X25279Y-30971D01*
X25223Y-31139D01*
X24548Y-31814D01*
X25279Y-31814D01*
X26685Y-31814D02*
X26685Y-30633D01*
X27192Y-31814D02*
X27192Y-31196D01*
X27135Y-31083D01*
X27023Y-31027D01*
X26854Y-31027D01*
X26742Y-31083D01*
X26685Y-31139D01*
X27923Y-31814D02*
X27810Y-31758D01*
X27754Y-31702D01*
X27698Y-31589D01*
X27698Y-31252D01*
X27754Y-31139D01*
X27810Y-31083D01*
X27923Y-31027D01*
X28091Y-31027D01*
X28204Y-31083D01*
X28260Y-31139D01*
X28316Y-31252D01*
X28316Y-31589D01*
X28260Y-31702D01*
X28204Y-31758D01*
X28091Y-31814D01*
X27923Y-31814D01*
X28991Y-31814D02*
X28879Y-31758D01*
X28823Y-31645D01*
X28823Y-30633D01*
X29891Y-31758D02*
X29779Y-31814D01*
X29554Y-31814D01*
X29441Y-31758D01*
X29385Y-31645D01*
X29385Y-31196D01*
X29441Y-31083D01*
X29554Y-31027D01*
X29779Y-31027D01*
X29891Y-31083D01*
X29947Y-31196D01*
X29947Y-31308D01*
X29385Y-31420D01*
X30397Y-31758D02*
X30510Y-31814D01*
X30735Y-31814D01*
X30847Y-31758D01*
X30904Y-31645D01*
X30904Y-31589D01*
X30847Y-31477D01*
X30735Y-31420D01*
X30566Y-31420D01*
X30454Y-31364D01*
X30397Y-31252D01*
X30397Y-31196D01*
X30454Y-31083D01*
X30566Y-31027D01*
X30735Y-31027D01*
X30847Y-31083D01*
X31297Y-32264D02*
X31354Y-32208D01*
X31466Y-32039D01*
X31522Y-31927D01*
X31579Y-31758D01*
X31635Y-31477D01*
X31635Y-31252D01*
X31579Y-30971D01*
X31522Y-30802D01*
X31466Y-30689D01*
X31354Y-30521D01*
X31297Y-30464D01*
M02*
