G04 (created by PCBNEW (2013-07-07 BZR 4022)-stable) date 9/18/2013 12:17:53*
%MOIN*%
G04 Gerber Fmt 3.4, Leading zero omitted, Abs format*
%FSLAX34Y34*%
G01*
G70*
G90*
G04 APERTURE LIST*
%ADD10C,0.00590551*%
%ADD11C,0.011811*%
%ADD12C,0.246063*%
%ADD13C,0.153543*%
%ADD14C,0.0689425*%
%ADD15C,0.0964567*%
G04 APERTURE END LIST*
G54D10*
G54D11*
X46735Y-14673D02*
X46538Y-14673D01*
X46538Y-14983D02*
X46538Y-14392D01*
X46819Y-14392D01*
X47044Y-14926D02*
X47072Y-14955D01*
X47044Y-14983D01*
X47016Y-14955D01*
X47044Y-14926D01*
X47044Y-14983D01*
X47325Y-14983D02*
X47325Y-14392D01*
X47522Y-14814D01*
X47719Y-14392D01*
X47719Y-14983D01*
X48253Y-14983D02*
X48253Y-14673D01*
X48225Y-14617D01*
X48169Y-14589D01*
X48056Y-14589D01*
X48000Y-14617D01*
X48253Y-14955D02*
X48197Y-14983D01*
X48056Y-14983D01*
X48000Y-14955D01*
X47972Y-14898D01*
X47972Y-14842D01*
X48000Y-14786D01*
X48056Y-14758D01*
X48197Y-14758D01*
X48253Y-14730D01*
X48506Y-14955D02*
X48562Y-14983D01*
X48675Y-14983D01*
X48731Y-14955D01*
X48759Y-14898D01*
X48759Y-14870D01*
X48731Y-14814D01*
X48675Y-14786D01*
X48591Y-14786D01*
X48534Y-14758D01*
X48506Y-14701D01*
X48506Y-14673D01*
X48534Y-14617D01*
X48591Y-14589D01*
X48675Y-14589D01*
X48731Y-14617D01*
X49012Y-14983D02*
X49012Y-14392D01*
X49069Y-14758D02*
X49237Y-14983D01*
X49237Y-14589D02*
X49012Y-14814D01*
G54D12*
X6692Y-6692D03*
X6692Y-22440D03*
X42125Y-22440D03*
X42125Y-6692D03*
G54D13*
X33720Y-7086D03*
X38720Y-7086D03*
G54D14*
X34814Y-8086D03*
X35216Y-8787D03*
X35618Y-8086D03*
X36019Y-8787D03*
X36421Y-8086D03*
X36822Y-8787D03*
X37224Y-8086D03*
X37625Y-8787D03*
G54D15*
X33019Y-8437D03*
X39421Y-8437D03*
G54D13*
X25846Y-7086D03*
X30846Y-7086D03*
G54D14*
X26940Y-8086D03*
X27342Y-8787D03*
X27744Y-8086D03*
X28145Y-8787D03*
X28547Y-8086D03*
X28948Y-8787D03*
X29350Y-8086D03*
X29751Y-8787D03*
G54D15*
X25145Y-8437D03*
X31547Y-8437D03*
G54D13*
X17972Y-7086D03*
X22972Y-7086D03*
G54D14*
X19066Y-8086D03*
X19468Y-8787D03*
X19870Y-8086D03*
X20271Y-8787D03*
X20673Y-8086D03*
X21074Y-8787D03*
X21476Y-8086D03*
X21877Y-8787D03*
G54D15*
X17271Y-8437D03*
X23673Y-8437D03*
G54D13*
X10098Y-7086D03*
X15098Y-7086D03*
G54D14*
X11192Y-8086D03*
X11594Y-8787D03*
X11996Y-8086D03*
X12397Y-8787D03*
X12799Y-8086D03*
X13200Y-8787D03*
X13602Y-8086D03*
X14003Y-8787D03*
G54D15*
X9397Y-8437D03*
X15799Y-8437D03*
G54D13*
X32814Y-22047D03*
X27814Y-22047D03*
G54D14*
X31720Y-21047D03*
X31318Y-20346D03*
X30917Y-21047D03*
X30515Y-20346D03*
X30114Y-21047D03*
X29712Y-20346D03*
X29311Y-21047D03*
X28909Y-20346D03*
G54D15*
X33515Y-20696D03*
X27114Y-20696D03*
G54D13*
X21003Y-22047D03*
X16003Y-22047D03*
G54D14*
X19909Y-21047D03*
X19507Y-20346D03*
X19106Y-21047D03*
X18704Y-20346D03*
X18303Y-21047D03*
X17901Y-20346D03*
X17500Y-21047D03*
X17098Y-20346D03*
G54D15*
X21704Y-20696D03*
X15303Y-20696D03*
M02*
