M48
;DRILL file {Pcbnew (2013-07-07 BZR 4022)-stable} date 9/18/2013 12:44:37
;FORMAT={-:-/ absolute / metric / decimal}
FMAT,2
METRIC,TZ
T1C0.500
T2C0.635
T3C0.813
T4C0.899
T5C1.600
%
G90
G05
M71
T1
X35.712Y-73.393
X38.76Y-91.846
X38.887Y-96.863
X39.103Y-98.031
X39.116Y-66.421
X39.472Y-95.809
X39.751Y-94.361
X40.17Y-93.078
X45.72Y-88.9
X47.879Y-87.376
X48.26Y-75.946
X49.466Y-86.169
X49.53Y-73.152
X49.53Y-103.632
X50.927Y-102.87
X51.435Y-104.648
X51.689Y-102.108
X52.07Y-75.946
X52.07Y-86.106
X52.451Y-105.41
X52.578Y-101.346
X53.34Y-73.025
X54.102Y-106.172
X56.238Y-97.79
X59.238Y-97.79
X59.563Y-58.674
X61.341Y-84.353
X62.238Y-97.79
X62.344Y-75.044
X62.446Y-79.794
X62.865Y-52.578
X62.992Y-77.724
X63.424Y-78.74
X65.238Y-97.79
X65.278Y-53.721
X65.418Y-85.534
X65.43Y-78.816
X68.4Y-57.4
X68.55Y-70.9
X68.6Y-53.7
X68.6Y-56.
X69.5Y-45.339
X70.Y-58.95
X71.2Y-57.45
X71.5Y-45.466
X73.5Y-45.339
X74.05Y-57.95
X75.6Y-54.1
X76.073Y-56.896
X76.2Y-98.425
X76.454Y-41.529
X76.454Y-42.799
X76.454Y-44.069
X76.556Y-87.452
X76.835Y-97.409
X76.835Y-99.441
X78.397Y-82.982
X78.803Y-74.308
X79.121Y-52.324
X79.311Y-76.276
X81.28Y-97.409
X81.394Y-76.949
X82.105Y-73.609
X82.22Y-82.931
X83.388Y-87.782
X84.238Y-98.298
X84.836Y-53.594
X84.836Y-59.944
X87.238Y-98.298
X88.519Y-80.518
X89.535Y-94.488
X89.535Y-95.504
X89.535Y-96.647
X89.535Y-97.663
X90.932Y-81.788
X91.567Y-91.821
X91.948Y-96.647
X92.202Y-75.819
X92.202Y-88.963
X92.456Y-81.534
X92.964Y-95.377
X93.472Y-73.088
X93.472Y-86.042
X93.472Y-88.9
X93.726Y-94.488
X94.488Y-87.439
X95.631Y-86.36
X95.8Y-67.2
X95.8Y-73.35
X96.012Y-89.027
X97.282Y-73.215
X104.267Y-64.77
T2
X28.9Y-53.6
X35.Y-47.2
X35.Y-48.7
X36.5Y-47.2
X45.339Y-108.839
X45.91Y-99.631
X50.927Y-96.647
X51.689Y-92.202
X52.451Y-95.123
X53.34Y-79.375
X54.Y-52.1
X55.5Y-68.5
X58.547Y-60.071
X59.Y-45.8
X60.Y-44.6
X61.2Y-45.8
X67.Y-91.
X68.5Y-50.
X73.5Y-68.5
X75.946Y-60.071
X76.2Y-63.5
X81.Y-50.
X96.901Y-87.757
X97.282Y-75.184
T3
X25.73Y-83.
X25.73Y-90.5
X25.73Y-98.
X25.73Y-105.5
X28.27Y-83.
X28.27Y-90.5
X28.27Y-98.
X28.27Y-105.5
X86.Y-23.73
X86.Y-26.27
X94.Y-23.73
X94.Y-26.27
X102.Y-23.73
X102.Y-26.27
X110.Y-23.73
X110.Y-26.27
T4
X30.54Y-67.45
X30.54Y-69.49
X30.54Y-71.53
X30.54Y-73.57
X32.32Y-66.43
X32.32Y-68.47
X32.32Y-70.51
X32.32Y-72.55
X57.43Y-109.68
X58.45Y-111.46
X59.47Y-109.68
X60.49Y-111.46
X61.51Y-109.68
X62.53Y-111.46
X63.55Y-109.68
X64.57Y-111.46
X68.43Y-28.54
X69.45Y-30.32
X70.47Y-28.54
X71.49Y-30.32
X72.51Y-28.54
X73.53Y-30.32
X74.55Y-28.54
X75.57Y-30.32
X79.43Y-109.68
X80.45Y-111.46
X81.47Y-109.68
X82.49Y-111.46
X83.51Y-109.68
X84.53Y-111.46
X85.55Y-109.68
X86.57Y-111.46
X111.68Y-67.45
X111.68Y-69.49
X111.68Y-71.53
X111.68Y-73.57
X113.46Y-66.43
X113.46Y-68.47
X113.46Y-70.51
X113.46Y-72.55
T5
X31.43Y-61.87
X31.43Y-78.13
X52.87Y-110.57
X63.87Y-29.43
X69.13Y-110.57
X74.87Y-110.57
X80.13Y-29.43
X91.13Y-110.57
X112.57Y-61.87
X112.57Y-78.13
T0
M30
