G04 (created by PCBNEW (2013-07-07 BZR 4022)-stable) date 24/09/2013 15:52:23*
%MOIN*%
G04 Gerber Fmt 3.4, Leading zero omitted, Abs format*
%FSLAX34Y34*%
G01*
G70*
G90*
G04 APERTURE LIST*
%ADD10C,0.005*%
%ADD11C,0.011811*%
%ADD12C,0.00393701*%
%ADD13C,0.00787402*%
G04 APERTURE END LIST*
G54D10*
G54D11*
X52407Y-22772D02*
X52800Y-22772D01*
X52969Y-23391D02*
X52407Y-23391D01*
X52407Y-22210D01*
X52969Y-22210D01*
X53982Y-23391D02*
X53982Y-22210D01*
X53982Y-23335D02*
X53869Y-23391D01*
X53644Y-23391D01*
X53532Y-23335D01*
X53475Y-23278D01*
X53419Y-23166D01*
X53419Y-22829D01*
X53475Y-22716D01*
X53532Y-22660D01*
X53644Y-22604D01*
X53869Y-22604D01*
X53982Y-22660D01*
X55050Y-22604D02*
X55050Y-23560D01*
X54994Y-23672D01*
X54938Y-23728D01*
X54825Y-23785D01*
X54656Y-23785D01*
X54544Y-23728D01*
X55050Y-23335D02*
X54938Y-23391D01*
X54713Y-23391D01*
X54600Y-23335D01*
X54544Y-23278D01*
X54488Y-23166D01*
X54488Y-22829D01*
X54544Y-22716D01*
X54600Y-22660D01*
X54713Y-22604D01*
X54938Y-22604D01*
X55050Y-22660D01*
X56062Y-23335D02*
X55950Y-23391D01*
X55725Y-23391D01*
X55613Y-23335D01*
X55556Y-23222D01*
X55556Y-22772D01*
X55613Y-22660D01*
X55725Y-22604D01*
X55950Y-22604D01*
X56062Y-22660D01*
X56119Y-22772D01*
X56119Y-22885D01*
X55556Y-22997D01*
X56625Y-23278D02*
X56681Y-23335D01*
X56625Y-23391D01*
X56569Y-23335D01*
X56625Y-23278D01*
X56625Y-23391D01*
X57862Y-23278D02*
X57806Y-23335D01*
X57637Y-23391D01*
X57525Y-23391D01*
X57356Y-23335D01*
X57244Y-23222D01*
X57187Y-23110D01*
X57131Y-22885D01*
X57131Y-22716D01*
X57187Y-22491D01*
X57244Y-22379D01*
X57356Y-22266D01*
X57525Y-22210D01*
X57637Y-22210D01*
X57806Y-22266D01*
X57862Y-22322D01*
X58875Y-22604D02*
X58875Y-23391D01*
X58368Y-22604D02*
X58368Y-23222D01*
X58425Y-23335D01*
X58537Y-23391D01*
X58706Y-23391D01*
X58818Y-23335D01*
X58875Y-23278D01*
X59268Y-22604D02*
X59718Y-22604D01*
X59437Y-22210D02*
X59437Y-23222D01*
X59493Y-23335D01*
X59606Y-23391D01*
X59718Y-23391D01*
X60056Y-23335D02*
X60168Y-23391D01*
X60393Y-23391D01*
X60506Y-23335D01*
X60562Y-23222D01*
X60562Y-23166D01*
X60506Y-23053D01*
X60393Y-22997D01*
X60224Y-22997D01*
X60112Y-22941D01*
X60056Y-22829D01*
X60056Y-22772D01*
X60112Y-22660D01*
X60224Y-22604D01*
X60393Y-22604D01*
X60506Y-22660D01*
G54D12*
X9055Y-27952D02*
X9055Y-8267D01*
X48425Y-27952D02*
X9055Y-27952D01*
X48425Y-8267D02*
X48425Y-27952D01*
X9055Y-8267D02*
X48425Y-8267D01*
G54D13*
X9717Y-15465D02*
X9967Y-15715D01*
X9967Y-15465D02*
X9717Y-15715D01*
X15032Y-18969D02*
X15282Y-19219D01*
X15282Y-18969D02*
X15032Y-19219D01*
X16567Y-16764D02*
X16817Y-17014D01*
X16817Y-16764D02*
X16567Y-17014D01*
X16567Y-18615D02*
X16817Y-18865D01*
X16817Y-18615D02*
X16567Y-18865D01*
X18497Y-22079D02*
X18747Y-22329D01*
X18747Y-22079D02*
X18497Y-22329D01*
X19166Y-22079D02*
X19416Y-22329D01*
X19416Y-22079D02*
X19166Y-22329D01*
X20268Y-22079D02*
X20518Y-22329D01*
X20518Y-22079D02*
X20268Y-22329D01*
X21056Y-15308D02*
X21306Y-15558D01*
X21306Y-15308D02*
X21056Y-15558D01*
X21213Y-22119D02*
X21463Y-22369D01*
X21463Y-22119D02*
X21213Y-22369D01*
X21371Y-10623D02*
X21621Y-10873D01*
X21621Y-10623D02*
X21371Y-10873D01*
X21371Y-11095D02*
X21621Y-11345D01*
X21621Y-11095D02*
X21371Y-11345D01*
X21371Y-11528D02*
X21621Y-11778D01*
X21621Y-11528D02*
X21371Y-11778D01*
X21922Y-17827D02*
X22172Y-18077D01*
X22172Y-17827D02*
X21922Y-18077D01*
X22040Y-15386D02*
X22290Y-15636D01*
X22290Y-15386D02*
X22040Y-15636D01*
X22237Y-22079D02*
X22487Y-22329D01*
X22487Y-22079D02*
X22237Y-22329D01*
X22512Y-17434D02*
X22762Y-17684D01*
X22762Y-17434D02*
X22512Y-17684D01*
X22867Y-22000D02*
X23117Y-22250D01*
X23117Y-22000D02*
X22867Y-22250D01*
X22985Y-13969D02*
X23235Y-14219D01*
X23235Y-13969D02*
X22985Y-14219D01*
X22985Y-16804D02*
X23235Y-17054D01*
X23235Y-16804D02*
X22985Y-17054D01*
X23536Y-22000D02*
X23786Y-22250D01*
X23786Y-22000D02*
X23536Y-22250D01*
X23812Y-12512D02*
X24062Y-12762D01*
X24062Y-12512D02*
X23812Y-12762D01*
X23851Y-24560D02*
X24101Y-24810D01*
X24101Y-24560D02*
X23851Y-24810D01*
X23890Y-17355D02*
X24140Y-17605D01*
X24140Y-17355D02*
X23890Y-17605D01*
X24205Y-12119D02*
X24455Y-12369D01*
X24455Y-12119D02*
X24205Y-12369D01*
X24284Y-14402D02*
X24534Y-14652D01*
X24534Y-14402D02*
X24284Y-14652D01*
X24402Y-21449D02*
X24652Y-21699D01*
X24652Y-21449D02*
X24402Y-21699D01*
X24599Y-12512D02*
X24849Y-12762D01*
X24849Y-12512D02*
X24599Y-12762D01*
X24599Y-19363D02*
X24849Y-19613D01*
X24849Y-19363D02*
X24599Y-19613D01*
X29402Y-16410D02*
X29652Y-16660D01*
X29652Y-16410D02*
X29402Y-16660D01*
X33339Y-21371D02*
X33589Y-21621D01*
X33589Y-21371D02*
X33339Y-21621D01*
X33418Y-17512D02*
X33668Y-17762D01*
X33668Y-17512D02*
X33418Y-17762D01*
X33693Y-22000D02*
X33943Y-22250D01*
X33943Y-22000D02*
X33693Y-22250D01*
X33851Y-19835D02*
X34101Y-20085D01*
X34101Y-19835D02*
X33851Y-20085D01*
X36922Y-18890D02*
X37172Y-19140D01*
X37172Y-18890D02*
X36922Y-19140D01*
X37552Y-24126D02*
X37802Y-24376D01*
X37802Y-24126D02*
X37552Y-24376D01*
X43103Y-17394D02*
X43353Y-17644D01*
X43353Y-17394D02*
X43103Y-17644D01*
X34889Y-9998D02*
G75*
G03X34889Y-9998I-160J0D01*
G74*
G01*
X34889Y-10998D02*
G75*
G03X34889Y-10998I-160J0D01*
G74*
G01*
X37645Y-9998D02*
G75*
G03X37645Y-9998I-160J0D01*
G74*
G01*
X37645Y-10998D02*
G75*
G03X37645Y-10998I-160J0D01*
G74*
G01*
X40401Y-9998D02*
G75*
G03X40401Y-9998I-160J0D01*
G74*
G01*
X40401Y-10998D02*
G75*
G03X40401Y-10998I-160J0D01*
G74*
G01*
X43157Y-9998D02*
G75*
G03X43157Y-9998I-160J0D01*
G74*
G01*
X43157Y-10998D02*
G75*
G03X43157Y-10998I-160J0D01*
G74*
G01*
X12417Y-16929D02*
X12417Y-17283D01*
X12240Y-17106D02*
X12594Y-17106D01*
X12417Y-17732D02*
X12417Y-18086D01*
X12240Y-17909D02*
X12594Y-17909D01*
X12417Y-18535D02*
X12417Y-18889D01*
X12240Y-18712D02*
X12594Y-18712D01*
X12417Y-19338D02*
X12417Y-19692D01*
X12240Y-19515D02*
X12594Y-19515D01*
X13118Y-16527D02*
X13118Y-16881D01*
X12941Y-16704D02*
X13295Y-16704D01*
X13118Y-17330D02*
X13118Y-17684D01*
X12941Y-17507D02*
X13295Y-17507D01*
X13118Y-18134D02*
X13118Y-18488D01*
X12941Y-18311D02*
X13295Y-18311D01*
X13118Y-18937D02*
X13118Y-19291D01*
X12941Y-19114D02*
X13295Y-19114D01*
X27334Y-11452D02*
X27334Y-11806D01*
X27157Y-11629D02*
X27511Y-11629D01*
X27334Y-23712D02*
X27334Y-24066D01*
X27157Y-23889D02*
X27511Y-23889D01*
X27736Y-12153D02*
X27736Y-12507D01*
X27559Y-12330D02*
X27913Y-12330D01*
X27736Y-24413D02*
X27736Y-24767D01*
X27559Y-24590D02*
X27913Y-24590D01*
X28137Y-11452D02*
X28137Y-11806D01*
X27960Y-11629D02*
X28314Y-11629D01*
X28137Y-23712D02*
X28137Y-24066D01*
X27960Y-23889D02*
X28314Y-23889D01*
X28539Y-12153D02*
X28539Y-12507D01*
X28362Y-12330D02*
X28716Y-12330D01*
X28539Y-24413D02*
X28539Y-24767D01*
X28362Y-24590D02*
X28716Y-24590D01*
X28940Y-11452D02*
X28940Y-11806D01*
X28763Y-11629D02*
X29117Y-11629D01*
X28940Y-23712D02*
X28940Y-24066D01*
X28763Y-23889D02*
X29117Y-23889D01*
X29342Y-12153D02*
X29342Y-12507D01*
X29165Y-12330D02*
X29519Y-12330D01*
X29342Y-24413D02*
X29342Y-24767D01*
X29165Y-24590D02*
X29519Y-24590D01*
X29744Y-11452D02*
X29744Y-11806D01*
X29567Y-11629D02*
X29921Y-11629D01*
X29744Y-23712D02*
X29744Y-24066D01*
X29567Y-23889D02*
X29921Y-23889D01*
X30145Y-12153D02*
X30145Y-12507D01*
X29968Y-12330D02*
X30322Y-12330D01*
X30145Y-24413D02*
X30145Y-24767D01*
X29968Y-24590D02*
X30322Y-24590D01*
X44362Y-16929D02*
X44362Y-17283D01*
X44185Y-17106D02*
X44539Y-17106D01*
X44362Y-17732D02*
X44362Y-18086D01*
X44185Y-17909D02*
X44539Y-17909D01*
X44362Y-18535D02*
X44362Y-18889D01*
X44185Y-18712D02*
X44539Y-18712D01*
X44362Y-19338D02*
X44362Y-19692D01*
X44185Y-19515D02*
X44539Y-19515D01*
X45062Y-16527D02*
X45062Y-16881D01*
X44885Y-16704D02*
X45239Y-16704D01*
X45062Y-17330D02*
X45062Y-17684D01*
X44885Y-17507D02*
X45239Y-17507D01*
X45062Y-18134D02*
X45062Y-18488D01*
X44885Y-18311D02*
X45239Y-18311D01*
X45062Y-18937D02*
X45062Y-19291D01*
X44885Y-19114D02*
X45239Y-19114D01*
X12990Y-15132D02*
X12990Y-14686D01*
X12545Y-14686D01*
X12545Y-15132D01*
X12990Y-15132D01*
X12990Y-21533D02*
X12990Y-21088D01*
X12545Y-21088D01*
X12545Y-21533D01*
X12990Y-21533D01*
X25762Y-12203D02*
X25762Y-11757D01*
X25316Y-11757D01*
X25316Y-12203D01*
X25762Y-12203D01*
X25762Y-24462D02*
X25762Y-24017D01*
X25316Y-24017D01*
X25316Y-24462D01*
X25762Y-24462D01*
X32163Y-12203D02*
X32163Y-11757D01*
X31718Y-11757D01*
X31718Y-12203D01*
X32163Y-12203D01*
X32163Y-24462D02*
X32163Y-24017D01*
X31718Y-24017D01*
X31718Y-24462D01*
X32163Y-24462D01*
X44935Y-15132D02*
X44935Y-14686D01*
X44489Y-14686D01*
X44489Y-15132D01*
X44935Y-15132D01*
X44935Y-21533D02*
X44935Y-21088D01*
X44489Y-21088D01*
X44489Y-21533D01*
X44935Y-21533D01*
G54D11*
X10104Y-29749D02*
X10104Y-28568D01*
X10385Y-28568D01*
X10553Y-28624D01*
X10666Y-28737D01*
X10722Y-28849D01*
X10778Y-29074D01*
X10778Y-29243D01*
X10722Y-29468D01*
X10666Y-29580D01*
X10553Y-29693D01*
X10385Y-29749D01*
X10104Y-29749D01*
X11285Y-29749D02*
X11285Y-28962D01*
X11285Y-29187D02*
X11341Y-29074D01*
X11397Y-29018D01*
X11510Y-28962D01*
X11622Y-28962D01*
X12016Y-29749D02*
X12016Y-28962D01*
X12016Y-28568D02*
X11960Y-28624D01*
X12016Y-28681D01*
X12072Y-28624D01*
X12016Y-28568D01*
X12016Y-28681D01*
X12747Y-29749D02*
X12634Y-29693D01*
X12578Y-29580D01*
X12578Y-28568D01*
X13366Y-29749D02*
X13253Y-29693D01*
X13197Y-29580D01*
X13197Y-28568D01*
X14715Y-29749D02*
X14715Y-28568D01*
X15109Y-29412D01*
X15503Y-28568D01*
X15503Y-29749D01*
X16571Y-29749D02*
X16571Y-29131D01*
X16515Y-29018D01*
X16403Y-28962D01*
X16178Y-28962D01*
X16065Y-29018D01*
X16571Y-29693D02*
X16459Y-29749D01*
X16178Y-29749D01*
X16065Y-29693D01*
X16009Y-29580D01*
X16009Y-29468D01*
X16065Y-29356D01*
X16178Y-29299D01*
X16459Y-29299D01*
X16571Y-29243D01*
X17134Y-28962D02*
X17134Y-30143D01*
X17134Y-29018D02*
X17246Y-28962D01*
X17471Y-28962D01*
X17584Y-29018D01*
X17640Y-29074D01*
X17696Y-29187D01*
X17696Y-29524D01*
X17640Y-29637D01*
X17584Y-29693D01*
X17471Y-29749D01*
X17246Y-29749D01*
X17134Y-29693D01*
X18203Y-29637D02*
X18259Y-29693D01*
X18203Y-29749D01*
X18146Y-29693D01*
X18203Y-29637D01*
X18203Y-29749D01*
X18203Y-29018D02*
X18259Y-29074D01*
X18203Y-29131D01*
X18146Y-29074D01*
X18203Y-29018D01*
X18203Y-29131D01*
X8785Y-31626D02*
X9035Y-31876D01*
X9035Y-31626D02*
X8785Y-31876D01*
X10329Y-31048D02*
X10441Y-31048D01*
X10553Y-31105D01*
X10610Y-31161D01*
X10666Y-31273D01*
X10722Y-31498D01*
X10722Y-31780D01*
X10666Y-32005D01*
X10610Y-32117D01*
X10553Y-32173D01*
X10441Y-32230D01*
X10329Y-32230D01*
X10216Y-32173D01*
X10160Y-32117D01*
X10104Y-32005D01*
X10047Y-31780D01*
X10047Y-31498D01*
X10104Y-31273D01*
X10160Y-31161D01*
X10216Y-31105D01*
X10329Y-31048D01*
X11228Y-32117D02*
X11285Y-32173D01*
X11228Y-32230D01*
X11172Y-32173D01*
X11228Y-32117D01*
X11228Y-32230D01*
X12297Y-31048D02*
X12072Y-31048D01*
X11960Y-31105D01*
X11903Y-31161D01*
X11791Y-31330D01*
X11735Y-31555D01*
X11735Y-32005D01*
X11791Y-32117D01*
X11847Y-32173D01*
X11960Y-32230D01*
X12185Y-32230D01*
X12297Y-32173D01*
X12353Y-32117D01*
X12410Y-32005D01*
X12410Y-31723D01*
X12353Y-31611D01*
X12297Y-31555D01*
X12185Y-31498D01*
X11960Y-31498D01*
X11847Y-31555D01*
X11791Y-31611D01*
X11735Y-31723D01*
X13422Y-31442D02*
X13422Y-32230D01*
X13141Y-30992D02*
X12859Y-31836D01*
X13591Y-31836D01*
X14041Y-32230D02*
X14041Y-31442D01*
X14041Y-31555D02*
X14097Y-31498D01*
X14209Y-31442D01*
X14378Y-31442D01*
X14491Y-31498D01*
X14547Y-31611D01*
X14547Y-32230D01*
X14547Y-31611D02*
X14603Y-31498D01*
X14715Y-31442D01*
X14884Y-31442D01*
X14997Y-31498D01*
X15053Y-31611D01*
X15053Y-32230D01*
X15615Y-32230D02*
X15615Y-31442D01*
X15615Y-31555D02*
X15672Y-31498D01*
X15784Y-31442D01*
X15953Y-31442D01*
X16065Y-31498D01*
X16122Y-31611D01*
X16122Y-32230D01*
X16122Y-31611D02*
X16178Y-31498D01*
X16290Y-31442D01*
X16459Y-31442D01*
X16571Y-31498D01*
X16628Y-31611D01*
X16628Y-32230D01*
X18934Y-30992D02*
X17921Y-32511D01*
X20452Y-31048D02*
X20565Y-31048D01*
X20677Y-31105D01*
X20733Y-31161D01*
X20790Y-31273D01*
X20846Y-31498D01*
X20846Y-31780D01*
X20790Y-32005D01*
X20733Y-32117D01*
X20677Y-32173D01*
X20565Y-32230D01*
X20452Y-32230D01*
X20340Y-32173D01*
X20284Y-32117D01*
X20227Y-32005D01*
X20171Y-31780D01*
X20171Y-31498D01*
X20227Y-31273D01*
X20284Y-31161D01*
X20340Y-31105D01*
X20452Y-31048D01*
X21352Y-32117D02*
X21408Y-32173D01*
X21352Y-32230D01*
X21296Y-32173D01*
X21352Y-32117D01*
X21352Y-32230D01*
X22140Y-31048D02*
X22252Y-31048D01*
X22365Y-31105D01*
X22421Y-31161D01*
X22477Y-31273D01*
X22533Y-31498D01*
X22533Y-31780D01*
X22477Y-32005D01*
X22421Y-32117D01*
X22365Y-32173D01*
X22252Y-32230D01*
X22140Y-32230D01*
X22027Y-32173D01*
X21971Y-32117D01*
X21915Y-32005D01*
X21858Y-31780D01*
X21858Y-31498D01*
X21915Y-31273D01*
X21971Y-31161D01*
X22027Y-31105D01*
X22140Y-31048D01*
X22983Y-31161D02*
X23039Y-31105D01*
X23152Y-31048D01*
X23433Y-31048D01*
X23546Y-31105D01*
X23602Y-31161D01*
X23658Y-31273D01*
X23658Y-31386D01*
X23602Y-31555D01*
X22927Y-32230D01*
X23658Y-32230D01*
X24727Y-31048D02*
X24164Y-31048D01*
X24108Y-31611D01*
X24164Y-31555D01*
X24277Y-31498D01*
X24558Y-31498D01*
X24670Y-31555D01*
X24727Y-31611D01*
X24783Y-31723D01*
X24783Y-32005D01*
X24727Y-32117D01*
X24670Y-32173D01*
X24558Y-32230D01*
X24277Y-32230D01*
X24164Y-32173D01*
X24108Y-32117D01*
X25233Y-31048D02*
X25233Y-31273D01*
X25683Y-31048D02*
X25683Y-31273D01*
X27426Y-32679D02*
X27370Y-32623D01*
X27258Y-32455D01*
X27201Y-32342D01*
X27145Y-32173D01*
X27089Y-31892D01*
X27089Y-31667D01*
X27145Y-31386D01*
X27201Y-31217D01*
X27258Y-31105D01*
X27370Y-30936D01*
X27426Y-30880D01*
X27764Y-31048D02*
X28495Y-31048D01*
X28101Y-31498D01*
X28270Y-31498D01*
X28383Y-31555D01*
X28439Y-31611D01*
X28495Y-31723D01*
X28495Y-32005D01*
X28439Y-32117D01*
X28383Y-32173D01*
X28270Y-32230D01*
X27933Y-32230D01*
X27820Y-32173D01*
X27764Y-32117D01*
X29507Y-31048D02*
X29282Y-31048D01*
X29170Y-31105D01*
X29114Y-31161D01*
X29001Y-31330D01*
X28945Y-31555D01*
X28945Y-32005D01*
X29001Y-32117D01*
X29057Y-32173D01*
X29170Y-32230D01*
X29395Y-32230D01*
X29507Y-32173D01*
X29564Y-32117D01*
X29620Y-32005D01*
X29620Y-31723D01*
X29564Y-31611D01*
X29507Y-31555D01*
X29395Y-31498D01*
X29170Y-31498D01*
X29057Y-31555D01*
X29001Y-31611D01*
X28945Y-31723D01*
X31026Y-32230D02*
X31026Y-31048D01*
X31532Y-32230D02*
X31532Y-31611D01*
X31476Y-31498D01*
X31363Y-31442D01*
X31195Y-31442D01*
X31082Y-31498D01*
X31026Y-31555D01*
X32263Y-32230D02*
X32151Y-32173D01*
X32095Y-32117D01*
X32038Y-32005D01*
X32038Y-31667D01*
X32095Y-31555D01*
X32151Y-31498D01*
X32263Y-31442D01*
X32432Y-31442D01*
X32544Y-31498D01*
X32601Y-31555D01*
X32657Y-31667D01*
X32657Y-32005D01*
X32601Y-32117D01*
X32544Y-32173D01*
X32432Y-32230D01*
X32263Y-32230D01*
X33332Y-32230D02*
X33219Y-32173D01*
X33163Y-32061D01*
X33163Y-31048D01*
X34232Y-32173D02*
X34119Y-32230D01*
X33894Y-32230D01*
X33782Y-32173D01*
X33726Y-32061D01*
X33726Y-31611D01*
X33782Y-31498D01*
X33894Y-31442D01*
X34119Y-31442D01*
X34232Y-31498D01*
X34288Y-31611D01*
X34288Y-31723D01*
X33726Y-31836D01*
X34738Y-32173D02*
X34850Y-32230D01*
X35075Y-32230D01*
X35188Y-32173D01*
X35244Y-32061D01*
X35244Y-32005D01*
X35188Y-31892D01*
X35075Y-31836D01*
X34907Y-31836D01*
X34794Y-31780D01*
X34738Y-31667D01*
X34738Y-31611D01*
X34794Y-31498D01*
X34907Y-31442D01*
X35075Y-31442D01*
X35188Y-31498D01*
X35638Y-32679D02*
X35694Y-32623D01*
X35807Y-32455D01*
X35863Y-32342D01*
X35919Y-32173D01*
X35975Y-31892D01*
X35975Y-31667D01*
X35919Y-31386D01*
X35863Y-31217D01*
X35807Y-31105D01*
X35694Y-30936D01*
X35638Y-30880D01*
G54D13*
X9035Y-33311D02*
G75*
G03X9035Y-33311I-160J0D01*
G74*
G01*
G54D11*
X10329Y-32607D02*
X10441Y-32607D01*
X10553Y-32664D01*
X10610Y-32720D01*
X10666Y-32832D01*
X10722Y-33057D01*
X10722Y-33339D01*
X10666Y-33564D01*
X10610Y-33676D01*
X10553Y-33732D01*
X10441Y-33789D01*
X10329Y-33789D01*
X10216Y-33732D01*
X10160Y-33676D01*
X10104Y-33564D01*
X10047Y-33339D01*
X10047Y-33057D01*
X10104Y-32832D01*
X10160Y-32720D01*
X10216Y-32664D01*
X10329Y-32607D01*
X11228Y-33676D02*
X11285Y-33732D01*
X11228Y-33789D01*
X11172Y-33732D01*
X11228Y-33676D01*
X11228Y-33789D01*
X11960Y-33114D02*
X11847Y-33057D01*
X11791Y-33001D01*
X11735Y-32889D01*
X11735Y-32832D01*
X11791Y-32720D01*
X11847Y-32664D01*
X11960Y-32607D01*
X12185Y-32607D01*
X12297Y-32664D01*
X12353Y-32720D01*
X12410Y-32832D01*
X12410Y-32889D01*
X12353Y-33001D01*
X12297Y-33057D01*
X12185Y-33114D01*
X11960Y-33114D01*
X11847Y-33170D01*
X11791Y-33226D01*
X11735Y-33339D01*
X11735Y-33564D01*
X11791Y-33676D01*
X11847Y-33732D01*
X11960Y-33789D01*
X12185Y-33789D01*
X12297Y-33732D01*
X12353Y-33676D01*
X12410Y-33564D01*
X12410Y-33339D01*
X12353Y-33226D01*
X12297Y-33170D01*
X12185Y-33114D01*
X13534Y-33789D02*
X12859Y-33789D01*
X13197Y-33789D02*
X13197Y-32607D01*
X13084Y-32776D01*
X12972Y-32889D01*
X12859Y-32945D01*
X14041Y-33789D02*
X14041Y-33001D01*
X14041Y-33114D02*
X14097Y-33057D01*
X14209Y-33001D01*
X14378Y-33001D01*
X14491Y-33057D01*
X14547Y-33170D01*
X14547Y-33789D01*
X14547Y-33170D02*
X14603Y-33057D01*
X14715Y-33001D01*
X14884Y-33001D01*
X14997Y-33057D01*
X15053Y-33170D01*
X15053Y-33789D01*
X15615Y-33789D02*
X15615Y-33001D01*
X15615Y-33114D02*
X15672Y-33057D01*
X15784Y-33001D01*
X15953Y-33001D01*
X16065Y-33057D01*
X16122Y-33170D01*
X16122Y-33789D01*
X16122Y-33170D02*
X16178Y-33057D01*
X16290Y-33001D01*
X16459Y-33001D01*
X16571Y-33057D01*
X16628Y-33170D01*
X16628Y-33789D01*
X18934Y-32551D02*
X17921Y-34070D01*
X20452Y-32607D02*
X20565Y-32607D01*
X20677Y-32664D01*
X20733Y-32720D01*
X20790Y-32832D01*
X20846Y-33057D01*
X20846Y-33339D01*
X20790Y-33564D01*
X20733Y-33676D01*
X20677Y-33732D01*
X20565Y-33789D01*
X20452Y-33789D01*
X20340Y-33732D01*
X20284Y-33676D01*
X20227Y-33564D01*
X20171Y-33339D01*
X20171Y-33057D01*
X20227Y-32832D01*
X20284Y-32720D01*
X20340Y-32664D01*
X20452Y-32607D01*
X21352Y-33676D02*
X21408Y-33732D01*
X21352Y-33789D01*
X21296Y-33732D01*
X21352Y-33676D01*
X21352Y-33789D01*
X22140Y-32607D02*
X22252Y-32607D01*
X22365Y-32664D01*
X22421Y-32720D01*
X22477Y-32832D01*
X22533Y-33057D01*
X22533Y-33339D01*
X22477Y-33564D01*
X22421Y-33676D01*
X22365Y-33732D01*
X22252Y-33789D01*
X22140Y-33789D01*
X22027Y-33732D01*
X21971Y-33676D01*
X21915Y-33564D01*
X21858Y-33339D01*
X21858Y-33057D01*
X21915Y-32832D01*
X21971Y-32720D01*
X22027Y-32664D01*
X22140Y-32607D01*
X22927Y-32607D02*
X23658Y-32607D01*
X23264Y-33057D01*
X23433Y-33057D01*
X23546Y-33114D01*
X23602Y-33170D01*
X23658Y-33282D01*
X23658Y-33564D01*
X23602Y-33676D01*
X23546Y-33732D01*
X23433Y-33789D01*
X23096Y-33789D01*
X22983Y-33732D01*
X22927Y-33676D01*
X24108Y-32720D02*
X24164Y-32664D01*
X24277Y-32607D01*
X24558Y-32607D01*
X24670Y-32664D01*
X24727Y-32720D01*
X24783Y-32832D01*
X24783Y-32945D01*
X24727Y-33114D01*
X24052Y-33789D01*
X24783Y-33789D01*
X25233Y-32607D02*
X25233Y-32832D01*
X25683Y-32607D02*
X25683Y-32832D01*
X27426Y-34239D02*
X27370Y-34182D01*
X27258Y-34014D01*
X27201Y-33901D01*
X27145Y-33732D01*
X27089Y-33451D01*
X27089Y-33226D01*
X27145Y-32945D01*
X27201Y-32776D01*
X27258Y-32664D01*
X27370Y-32495D01*
X27426Y-32439D01*
X28045Y-33114D02*
X27933Y-33057D01*
X27876Y-33001D01*
X27820Y-32889D01*
X27820Y-32832D01*
X27876Y-32720D01*
X27933Y-32664D01*
X28045Y-32607D01*
X28270Y-32607D01*
X28383Y-32664D01*
X28439Y-32720D01*
X28495Y-32832D01*
X28495Y-32889D01*
X28439Y-33001D01*
X28383Y-33057D01*
X28270Y-33114D01*
X28045Y-33114D01*
X27933Y-33170D01*
X27876Y-33226D01*
X27820Y-33339D01*
X27820Y-33564D01*
X27876Y-33676D01*
X27933Y-33732D01*
X28045Y-33789D01*
X28270Y-33789D01*
X28383Y-33732D01*
X28439Y-33676D01*
X28495Y-33564D01*
X28495Y-33339D01*
X28439Y-33226D01*
X28383Y-33170D01*
X28270Y-33114D01*
X29901Y-33789D02*
X29901Y-32607D01*
X30407Y-33789D02*
X30407Y-33170D01*
X30351Y-33057D01*
X30239Y-33001D01*
X30070Y-33001D01*
X29957Y-33057D01*
X29901Y-33114D01*
X31138Y-33789D02*
X31026Y-33732D01*
X30970Y-33676D01*
X30913Y-33564D01*
X30913Y-33226D01*
X30970Y-33114D01*
X31026Y-33057D01*
X31138Y-33001D01*
X31307Y-33001D01*
X31420Y-33057D01*
X31476Y-33114D01*
X31532Y-33226D01*
X31532Y-33564D01*
X31476Y-33676D01*
X31420Y-33732D01*
X31307Y-33789D01*
X31138Y-33789D01*
X32207Y-33789D02*
X32095Y-33732D01*
X32038Y-33620D01*
X32038Y-32607D01*
X33107Y-33732D02*
X32994Y-33789D01*
X32769Y-33789D01*
X32657Y-33732D01*
X32601Y-33620D01*
X32601Y-33170D01*
X32657Y-33057D01*
X32769Y-33001D01*
X32994Y-33001D01*
X33107Y-33057D01*
X33163Y-33170D01*
X33163Y-33282D01*
X32601Y-33395D01*
X33613Y-33732D02*
X33726Y-33789D01*
X33951Y-33789D01*
X34063Y-33732D01*
X34119Y-33620D01*
X34119Y-33564D01*
X34063Y-33451D01*
X33951Y-33395D01*
X33782Y-33395D01*
X33669Y-33339D01*
X33613Y-33226D01*
X33613Y-33170D01*
X33669Y-33057D01*
X33782Y-33001D01*
X33951Y-33001D01*
X34063Y-33057D01*
X34513Y-34239D02*
X34569Y-34182D01*
X34682Y-34014D01*
X34738Y-33901D01*
X34794Y-33732D01*
X34850Y-33451D01*
X34850Y-33226D01*
X34794Y-32945D01*
X34738Y-32776D01*
X34682Y-32664D01*
X34569Y-32495D01*
X34513Y-32439D01*
X8858Y-34693D02*
X8858Y-35047D01*
X8681Y-34870D02*
X9035Y-34870D01*
X10329Y-34167D02*
X10441Y-34167D01*
X10553Y-34223D01*
X10610Y-34279D01*
X10666Y-34392D01*
X10722Y-34616D01*
X10722Y-34898D01*
X10666Y-35123D01*
X10610Y-35235D01*
X10553Y-35291D01*
X10441Y-35348D01*
X10329Y-35348D01*
X10216Y-35291D01*
X10160Y-35235D01*
X10104Y-35123D01*
X10047Y-34898D01*
X10047Y-34616D01*
X10104Y-34392D01*
X10160Y-34279D01*
X10216Y-34223D01*
X10329Y-34167D01*
X11228Y-35235D02*
X11285Y-35291D01*
X11228Y-35348D01*
X11172Y-35291D01*
X11228Y-35235D01*
X11228Y-35348D01*
X11847Y-35348D02*
X12072Y-35348D01*
X12185Y-35291D01*
X12241Y-35235D01*
X12353Y-35066D01*
X12410Y-34841D01*
X12410Y-34392D01*
X12353Y-34279D01*
X12297Y-34223D01*
X12185Y-34167D01*
X11960Y-34167D01*
X11847Y-34223D01*
X11791Y-34279D01*
X11735Y-34392D01*
X11735Y-34673D01*
X11791Y-34785D01*
X11847Y-34841D01*
X11960Y-34898D01*
X12185Y-34898D01*
X12297Y-34841D01*
X12353Y-34785D01*
X12410Y-34673D01*
X13141Y-34167D02*
X13253Y-34167D01*
X13366Y-34223D01*
X13422Y-34279D01*
X13478Y-34392D01*
X13534Y-34616D01*
X13534Y-34898D01*
X13478Y-35123D01*
X13422Y-35235D01*
X13366Y-35291D01*
X13253Y-35348D01*
X13141Y-35348D01*
X13028Y-35291D01*
X12972Y-35235D01*
X12916Y-35123D01*
X12859Y-34898D01*
X12859Y-34616D01*
X12916Y-34392D01*
X12972Y-34279D01*
X13028Y-34223D01*
X13141Y-34167D01*
X14041Y-35348D02*
X14041Y-34560D01*
X14041Y-34673D02*
X14097Y-34616D01*
X14209Y-34560D01*
X14378Y-34560D01*
X14491Y-34616D01*
X14547Y-34729D01*
X14547Y-35348D01*
X14547Y-34729D02*
X14603Y-34616D01*
X14715Y-34560D01*
X14884Y-34560D01*
X14997Y-34616D01*
X15053Y-34729D01*
X15053Y-35348D01*
X15615Y-35348D02*
X15615Y-34560D01*
X15615Y-34673D02*
X15672Y-34616D01*
X15784Y-34560D01*
X15953Y-34560D01*
X16065Y-34616D01*
X16122Y-34729D01*
X16122Y-35348D01*
X16122Y-34729D02*
X16178Y-34616D01*
X16290Y-34560D01*
X16459Y-34560D01*
X16571Y-34616D01*
X16628Y-34729D01*
X16628Y-35348D01*
X18934Y-34110D02*
X17921Y-35629D01*
X20452Y-34167D02*
X20565Y-34167D01*
X20677Y-34223D01*
X20733Y-34279D01*
X20790Y-34392D01*
X20846Y-34616D01*
X20846Y-34898D01*
X20790Y-35123D01*
X20733Y-35235D01*
X20677Y-35291D01*
X20565Y-35348D01*
X20452Y-35348D01*
X20340Y-35291D01*
X20284Y-35235D01*
X20227Y-35123D01*
X20171Y-34898D01*
X20171Y-34616D01*
X20227Y-34392D01*
X20284Y-34279D01*
X20340Y-34223D01*
X20452Y-34167D01*
X21352Y-35235D02*
X21408Y-35291D01*
X21352Y-35348D01*
X21296Y-35291D01*
X21352Y-35235D01*
X21352Y-35348D01*
X22140Y-34167D02*
X22252Y-34167D01*
X22365Y-34223D01*
X22421Y-34279D01*
X22477Y-34392D01*
X22533Y-34616D01*
X22533Y-34898D01*
X22477Y-35123D01*
X22421Y-35235D01*
X22365Y-35291D01*
X22252Y-35348D01*
X22140Y-35348D01*
X22027Y-35291D01*
X21971Y-35235D01*
X21915Y-35123D01*
X21858Y-34898D01*
X21858Y-34616D01*
X21915Y-34392D01*
X21971Y-34279D01*
X22027Y-34223D01*
X22140Y-34167D01*
X22927Y-34167D02*
X23658Y-34167D01*
X23264Y-34616D01*
X23433Y-34616D01*
X23546Y-34673D01*
X23602Y-34729D01*
X23658Y-34841D01*
X23658Y-35123D01*
X23602Y-35235D01*
X23546Y-35291D01*
X23433Y-35348D01*
X23096Y-35348D01*
X22983Y-35291D01*
X22927Y-35235D01*
X24727Y-34167D02*
X24164Y-34167D01*
X24108Y-34729D01*
X24164Y-34673D01*
X24277Y-34616D01*
X24558Y-34616D01*
X24670Y-34673D01*
X24727Y-34729D01*
X24783Y-34841D01*
X24783Y-35123D01*
X24727Y-35235D01*
X24670Y-35291D01*
X24558Y-35348D01*
X24277Y-35348D01*
X24164Y-35291D01*
X24108Y-35235D01*
X25233Y-34167D02*
X25233Y-34392D01*
X25683Y-34167D02*
X25683Y-34392D01*
X27426Y-35798D02*
X27370Y-35741D01*
X27258Y-35573D01*
X27201Y-35460D01*
X27145Y-35291D01*
X27089Y-35010D01*
X27089Y-34785D01*
X27145Y-34504D01*
X27201Y-34335D01*
X27258Y-34223D01*
X27370Y-34054D01*
X27426Y-33998D01*
X27764Y-34167D02*
X28495Y-34167D01*
X28101Y-34616D01*
X28270Y-34616D01*
X28383Y-34673D01*
X28439Y-34729D01*
X28495Y-34841D01*
X28495Y-35123D01*
X28439Y-35235D01*
X28383Y-35291D01*
X28270Y-35348D01*
X27933Y-35348D01*
X27820Y-35291D01*
X27764Y-35235D01*
X28945Y-34279D02*
X29001Y-34223D01*
X29114Y-34167D01*
X29395Y-34167D01*
X29507Y-34223D01*
X29564Y-34279D01*
X29620Y-34392D01*
X29620Y-34504D01*
X29564Y-34673D01*
X28889Y-35348D01*
X29620Y-35348D01*
X31026Y-35348D02*
X31026Y-34167D01*
X31532Y-35348D02*
X31532Y-34729D01*
X31476Y-34616D01*
X31363Y-34560D01*
X31195Y-34560D01*
X31082Y-34616D01*
X31026Y-34673D01*
X32263Y-35348D02*
X32151Y-35291D01*
X32095Y-35235D01*
X32038Y-35123D01*
X32038Y-34785D01*
X32095Y-34673D01*
X32151Y-34616D01*
X32263Y-34560D01*
X32432Y-34560D01*
X32544Y-34616D01*
X32601Y-34673D01*
X32657Y-34785D01*
X32657Y-35123D01*
X32601Y-35235D01*
X32544Y-35291D01*
X32432Y-35348D01*
X32263Y-35348D01*
X33332Y-35348D02*
X33219Y-35291D01*
X33163Y-35179D01*
X33163Y-34167D01*
X34232Y-35291D02*
X34119Y-35348D01*
X33894Y-35348D01*
X33782Y-35291D01*
X33726Y-35179D01*
X33726Y-34729D01*
X33782Y-34616D01*
X33894Y-34560D01*
X34119Y-34560D01*
X34232Y-34616D01*
X34288Y-34729D01*
X34288Y-34841D01*
X33726Y-34954D01*
X34738Y-35291D02*
X34850Y-35348D01*
X35075Y-35348D01*
X35188Y-35291D01*
X35244Y-35179D01*
X35244Y-35123D01*
X35188Y-35010D01*
X35075Y-34954D01*
X34907Y-34954D01*
X34794Y-34898D01*
X34738Y-34785D01*
X34738Y-34729D01*
X34794Y-34616D01*
X34907Y-34560D01*
X35075Y-34560D01*
X35188Y-34616D01*
X35638Y-35798D02*
X35694Y-35741D01*
X35807Y-35573D01*
X35863Y-35460D01*
X35919Y-35291D01*
X35975Y-35010D01*
X35975Y-34785D01*
X35919Y-34504D01*
X35863Y-34335D01*
X35807Y-34223D01*
X35694Y-34054D01*
X35638Y-33998D01*
G54D13*
X8943Y-36651D02*
X8943Y-36206D01*
X8497Y-36206D01*
X8497Y-36651D01*
X8943Y-36651D01*
G54D11*
X10722Y-36907D02*
X10047Y-36907D01*
X10385Y-36907D02*
X10385Y-35726D01*
X10272Y-35894D01*
X10160Y-36007D01*
X10047Y-36063D01*
X11228Y-36794D02*
X11285Y-36850D01*
X11228Y-36907D01*
X11172Y-36850D01*
X11228Y-36794D01*
X11228Y-36907D01*
X12297Y-35726D02*
X12072Y-35726D01*
X11960Y-35782D01*
X11903Y-35838D01*
X11791Y-36007D01*
X11735Y-36232D01*
X11735Y-36682D01*
X11791Y-36794D01*
X11847Y-36850D01*
X11960Y-36907D01*
X12185Y-36907D01*
X12297Y-36850D01*
X12353Y-36794D01*
X12410Y-36682D01*
X12410Y-36401D01*
X12353Y-36288D01*
X12297Y-36232D01*
X12185Y-36176D01*
X11960Y-36176D01*
X11847Y-36232D01*
X11791Y-36288D01*
X11735Y-36401D01*
X13141Y-35726D02*
X13253Y-35726D01*
X13366Y-35782D01*
X13422Y-35838D01*
X13478Y-35951D01*
X13534Y-36176D01*
X13534Y-36457D01*
X13478Y-36682D01*
X13422Y-36794D01*
X13366Y-36850D01*
X13253Y-36907D01*
X13141Y-36907D01*
X13028Y-36850D01*
X12972Y-36794D01*
X12916Y-36682D01*
X12859Y-36457D01*
X12859Y-36176D01*
X12916Y-35951D01*
X12972Y-35838D01*
X13028Y-35782D01*
X13141Y-35726D01*
X14041Y-36907D02*
X14041Y-36119D01*
X14041Y-36232D02*
X14097Y-36176D01*
X14209Y-36119D01*
X14378Y-36119D01*
X14491Y-36176D01*
X14547Y-36288D01*
X14547Y-36907D01*
X14547Y-36288D02*
X14603Y-36176D01*
X14715Y-36119D01*
X14884Y-36119D01*
X14997Y-36176D01*
X15053Y-36288D01*
X15053Y-36907D01*
X15615Y-36907D02*
X15615Y-36119D01*
X15615Y-36232D02*
X15672Y-36176D01*
X15784Y-36119D01*
X15953Y-36119D01*
X16065Y-36176D01*
X16122Y-36288D01*
X16122Y-36907D01*
X16122Y-36288D02*
X16178Y-36176D01*
X16290Y-36119D01*
X16459Y-36119D01*
X16571Y-36176D01*
X16628Y-36288D01*
X16628Y-36907D01*
X18934Y-35669D02*
X17921Y-37188D01*
X20452Y-35726D02*
X20565Y-35726D01*
X20677Y-35782D01*
X20733Y-35838D01*
X20790Y-35951D01*
X20846Y-36176D01*
X20846Y-36457D01*
X20790Y-36682D01*
X20733Y-36794D01*
X20677Y-36850D01*
X20565Y-36907D01*
X20452Y-36907D01*
X20340Y-36850D01*
X20284Y-36794D01*
X20227Y-36682D01*
X20171Y-36457D01*
X20171Y-36176D01*
X20227Y-35951D01*
X20284Y-35838D01*
X20340Y-35782D01*
X20452Y-35726D01*
X21352Y-36794D02*
X21408Y-36850D01*
X21352Y-36907D01*
X21296Y-36850D01*
X21352Y-36794D01*
X21352Y-36907D01*
X22140Y-35726D02*
X22252Y-35726D01*
X22365Y-35782D01*
X22421Y-35838D01*
X22477Y-35951D01*
X22533Y-36176D01*
X22533Y-36457D01*
X22477Y-36682D01*
X22421Y-36794D01*
X22365Y-36850D01*
X22252Y-36907D01*
X22140Y-36907D01*
X22027Y-36850D01*
X21971Y-36794D01*
X21915Y-36682D01*
X21858Y-36457D01*
X21858Y-36176D01*
X21915Y-35951D01*
X21971Y-35838D01*
X22027Y-35782D01*
X22140Y-35726D01*
X23546Y-35726D02*
X23321Y-35726D01*
X23208Y-35782D01*
X23152Y-35838D01*
X23039Y-36007D01*
X22983Y-36232D01*
X22983Y-36682D01*
X23039Y-36794D01*
X23096Y-36850D01*
X23208Y-36907D01*
X23433Y-36907D01*
X23546Y-36850D01*
X23602Y-36794D01*
X23658Y-36682D01*
X23658Y-36401D01*
X23602Y-36288D01*
X23546Y-36232D01*
X23433Y-36176D01*
X23208Y-36176D01*
X23096Y-36232D01*
X23039Y-36288D01*
X22983Y-36401D01*
X24052Y-35726D02*
X24783Y-35726D01*
X24389Y-36176D01*
X24558Y-36176D01*
X24670Y-36232D01*
X24727Y-36288D01*
X24783Y-36401D01*
X24783Y-36682D01*
X24727Y-36794D01*
X24670Y-36850D01*
X24558Y-36907D01*
X24221Y-36907D01*
X24108Y-36850D01*
X24052Y-36794D01*
X25233Y-35726D02*
X25233Y-35951D01*
X25683Y-35726D02*
X25683Y-35951D01*
X27426Y-37357D02*
X27370Y-37300D01*
X27258Y-37132D01*
X27201Y-37019D01*
X27145Y-36850D01*
X27089Y-36569D01*
X27089Y-36344D01*
X27145Y-36063D01*
X27201Y-35894D01*
X27258Y-35782D01*
X27370Y-35613D01*
X27426Y-35557D01*
X28045Y-36232D02*
X27933Y-36176D01*
X27876Y-36119D01*
X27820Y-36007D01*
X27820Y-35951D01*
X27876Y-35838D01*
X27933Y-35782D01*
X28045Y-35726D01*
X28270Y-35726D01*
X28383Y-35782D01*
X28439Y-35838D01*
X28495Y-35951D01*
X28495Y-36007D01*
X28439Y-36119D01*
X28383Y-36176D01*
X28270Y-36232D01*
X28045Y-36232D01*
X27933Y-36288D01*
X27876Y-36344D01*
X27820Y-36457D01*
X27820Y-36682D01*
X27876Y-36794D01*
X27933Y-36850D01*
X28045Y-36907D01*
X28270Y-36907D01*
X28383Y-36850D01*
X28439Y-36794D01*
X28495Y-36682D01*
X28495Y-36457D01*
X28439Y-36344D01*
X28383Y-36288D01*
X28270Y-36232D01*
X29901Y-36907D02*
X29901Y-35726D01*
X30407Y-36907D02*
X30407Y-36288D01*
X30351Y-36176D01*
X30239Y-36119D01*
X30070Y-36119D01*
X29957Y-36176D01*
X29901Y-36232D01*
X31138Y-36907D02*
X31026Y-36850D01*
X30970Y-36794D01*
X30913Y-36682D01*
X30913Y-36344D01*
X30970Y-36232D01*
X31026Y-36176D01*
X31138Y-36119D01*
X31307Y-36119D01*
X31420Y-36176D01*
X31476Y-36232D01*
X31532Y-36344D01*
X31532Y-36682D01*
X31476Y-36794D01*
X31420Y-36850D01*
X31307Y-36907D01*
X31138Y-36907D01*
X32207Y-36907D02*
X32095Y-36850D01*
X32038Y-36738D01*
X32038Y-35726D01*
X33107Y-36850D02*
X32994Y-36907D01*
X32769Y-36907D01*
X32657Y-36850D01*
X32601Y-36738D01*
X32601Y-36288D01*
X32657Y-36176D01*
X32769Y-36119D01*
X32994Y-36119D01*
X33107Y-36176D01*
X33163Y-36288D01*
X33163Y-36401D01*
X32601Y-36513D01*
X33613Y-36850D02*
X33726Y-36907D01*
X33951Y-36907D01*
X34063Y-36850D01*
X34119Y-36738D01*
X34119Y-36682D01*
X34063Y-36569D01*
X33951Y-36513D01*
X33782Y-36513D01*
X33669Y-36457D01*
X33613Y-36344D01*
X33613Y-36288D01*
X33669Y-36176D01*
X33782Y-36119D01*
X33951Y-36119D01*
X34063Y-36176D01*
X34513Y-37357D02*
X34569Y-37300D01*
X34682Y-37132D01*
X34738Y-37019D01*
X34794Y-36850D01*
X34850Y-36569D01*
X34850Y-36344D01*
X34794Y-36063D01*
X34738Y-35894D01*
X34682Y-35782D01*
X34569Y-35613D01*
X34513Y-35557D01*
M02*
