G04 (created by PCBNEW (2013-07-07 BZR 4022)-stable) date 24/09/2013 15:52:17*
%MOIN*%
G04 Gerber Fmt 3.4, Leading zero omitted, Abs format*
%FSLAX34Y34*%
G01*
G70*
G90*
G04 APERTURE LIST*
%ADD10C,0.00590551*%
%ADD11C,0.011811*%
%ADD12C,0.066*%
%ADD13C,0.23622*%
%ADD14R,0.0256X0.0118*%
%ADD15R,0.0118X0.0256*%
%ADD16R,0.025X0.05*%
%ADD17R,0.035X0.055*%
%ADD18C,0.1437*%
%ADD19C,0.0591*%
%ADD20C,0.0866142*%
%ADD21R,0.0276X0.063*%
%ADD22R,0.0276X0.0827*%
%ADD23R,0.0787X0.1083*%
%ADD24R,0.023622X0.0787402*%
%ADD25R,0.03X0.05*%
%ADD26C,0.035*%
%ADD27C,0.019685*%
%ADD28C,0.0393701*%
%ADD29C,0.00787402*%
%ADD30C,0.01*%
G04 APERTURE END LIST*
G54D10*
G54D11*
X53093Y-9308D02*
X52699Y-9308D01*
X52699Y-9926D02*
X52699Y-8745D01*
X53262Y-8745D01*
X53712Y-9814D02*
X53768Y-9870D01*
X53712Y-9926D01*
X53655Y-9870D01*
X53712Y-9814D01*
X53712Y-9926D01*
X54949Y-9814D02*
X54893Y-9870D01*
X54724Y-9926D01*
X54611Y-9926D01*
X54443Y-9870D01*
X54330Y-9758D01*
X54274Y-9645D01*
X54218Y-9420D01*
X54218Y-9251D01*
X54274Y-9026D01*
X54330Y-8914D01*
X54443Y-8802D01*
X54611Y-8745D01*
X54724Y-8745D01*
X54893Y-8802D01*
X54949Y-8858D01*
X55961Y-9139D02*
X55961Y-9926D01*
X55455Y-9139D02*
X55455Y-9758D01*
X55511Y-9870D01*
X55624Y-9926D01*
X55793Y-9926D01*
X55905Y-9870D01*
X55961Y-9814D01*
G54D12*
X42997Y-10998D03*
X42997Y-9998D03*
X40241Y-10998D03*
X40241Y-9998D03*
X37485Y-10998D03*
X37485Y-9998D03*
X34729Y-10998D03*
X34729Y-9998D03*
G54D13*
X46456Y-10236D03*
X46456Y-25984D03*
X11023Y-25984D03*
X11023Y-10236D03*
G54D14*
X46504Y-12500D03*
X46504Y-12697D03*
X46504Y-12894D03*
X46504Y-13091D03*
X46957Y-13091D03*
X46957Y-12894D03*
X46957Y-12697D03*
X46957Y-12500D03*
G54D15*
X28405Y-17196D03*
X28602Y-17196D03*
X28799Y-17196D03*
X28996Y-17196D03*
X28996Y-16743D03*
X28799Y-16743D03*
X28602Y-16743D03*
X28405Y-16743D03*
G54D14*
X36724Y-24389D03*
X36724Y-24192D03*
X36724Y-23995D03*
X36724Y-23798D03*
X36271Y-23798D03*
X36271Y-23995D03*
X36271Y-24192D03*
X36271Y-24389D03*
G54D16*
X33539Y-20627D03*
X34039Y-20627D03*
X34539Y-20627D03*
X35039Y-20627D03*
X35539Y-20627D03*
X36039Y-20627D03*
X36539Y-20627D03*
X36539Y-18427D03*
X36039Y-18427D03*
X35539Y-18427D03*
X35039Y-18427D03*
X34539Y-18427D03*
X34039Y-18427D03*
X33539Y-18427D03*
G54D15*
X28877Y-20244D03*
X28680Y-20244D03*
X28483Y-20244D03*
X28286Y-20244D03*
X28286Y-20697D03*
X28483Y-20697D03*
X28680Y-20697D03*
X28877Y-20697D03*
G54D17*
X21514Y-13385D03*
X22264Y-13385D03*
X23878Y-13385D03*
X23128Y-13385D03*
G54D18*
X26240Y-10629D03*
X31240Y-10629D03*
G54D19*
X27334Y-11629D03*
X27736Y-12330D03*
X28137Y-11629D03*
X28539Y-12330D03*
X28940Y-11629D03*
X29342Y-12330D03*
X29744Y-11629D03*
X30145Y-12330D03*
G54D20*
X25539Y-11980D03*
X31940Y-11980D03*
G54D18*
X46062Y-15610D03*
X46062Y-20610D03*
G54D19*
X45062Y-16704D03*
X44362Y-17106D03*
X45062Y-17507D03*
X44362Y-17909D03*
X45062Y-18311D03*
X44362Y-18712D03*
X45062Y-19114D03*
X44362Y-19515D03*
G54D20*
X44712Y-14909D03*
X44712Y-21311D03*
G54D18*
X11417Y-20610D03*
X11417Y-15610D03*
G54D19*
X12417Y-19515D03*
X13118Y-19114D03*
X12417Y-18712D03*
X13118Y-18311D03*
X12417Y-17909D03*
X13118Y-17507D03*
X12417Y-17106D03*
X13118Y-16704D03*
G54D20*
X12767Y-21311D03*
X12767Y-14909D03*
G54D18*
X31240Y-25590D03*
X26240Y-25590D03*
G54D19*
X30145Y-24590D03*
X29744Y-23889D03*
X29342Y-24590D03*
X28940Y-23889D03*
X28539Y-24590D03*
X28137Y-23889D03*
X27736Y-24590D03*
X27334Y-23889D03*
G54D20*
X31940Y-24240D03*
X25539Y-24240D03*
G54D21*
X23740Y-10748D03*
G54D22*
X23149Y-10846D03*
G54D21*
X22558Y-10748D03*
G54D23*
X23149Y-11791D03*
G54D24*
X23942Y-16181D03*
X23442Y-16181D03*
X22942Y-16181D03*
X22442Y-16181D03*
X21942Y-16181D03*
X21442Y-16181D03*
X20942Y-16181D03*
X20442Y-16181D03*
X19942Y-16181D03*
X19442Y-16181D03*
X19442Y-19881D03*
X19942Y-19881D03*
X20442Y-19881D03*
X20942Y-19881D03*
X21442Y-19881D03*
X21942Y-19881D03*
X22442Y-19881D03*
X22942Y-19881D03*
X23442Y-19881D03*
X23942Y-19881D03*
G54D25*
X24009Y-21564D03*
X23509Y-21564D03*
X23009Y-21564D03*
X22509Y-21564D03*
X22009Y-21564D03*
X21509Y-21564D03*
X21009Y-21564D03*
X20509Y-21564D03*
X20009Y-21564D03*
X19509Y-21564D03*
X19009Y-21564D03*
X18509Y-21564D03*
X24009Y-25364D03*
X23509Y-25364D03*
X23009Y-25364D03*
X22509Y-25364D03*
X22009Y-25364D03*
X21509Y-25364D03*
X21009Y-25364D03*
X20509Y-25364D03*
X20009Y-25364D03*
X19509Y-25364D03*
X19009Y-25364D03*
X18509Y-25364D03*
G54D26*
X9842Y-15590D03*
X21496Y-11220D03*
X21496Y-11653D03*
X21496Y-10748D03*
X15157Y-19094D03*
X24724Y-19488D03*
X33976Y-19960D03*
X43228Y-17519D03*
X21181Y-15433D03*
X22165Y-15511D03*
X22992Y-22125D03*
X18622Y-22204D03*
X23110Y-14094D03*
X23110Y-16929D03*
X22362Y-22204D03*
X21338Y-22244D03*
X20393Y-22204D03*
X19291Y-22204D03*
X33818Y-22125D03*
X23661Y-22125D03*
X22047Y-17952D03*
X22637Y-17559D03*
X24015Y-17480D03*
X29527Y-16535D03*
X24527Y-21574D03*
X33464Y-21496D03*
X37677Y-24251D03*
X37047Y-19015D03*
X33543Y-17637D03*
X23976Y-24685D03*
X16692Y-18740D03*
X16692Y-16889D03*
X24409Y-14527D03*
X23937Y-12637D03*
X24330Y-12244D03*
X24724Y-12637D03*
G54D27*
X9842Y-15590D02*
X12559Y-12874D01*
X20866Y-13385D02*
X21514Y-13385D01*
X20354Y-12874D02*
X20866Y-13385D01*
X12559Y-12874D02*
X20354Y-12874D01*
G54D28*
X21496Y-10748D02*
X22558Y-10748D01*
X22558Y-10748D02*
X22558Y-10748D01*
G54D27*
X21496Y-11220D02*
X21496Y-11181D01*
X21496Y-11653D02*
X21496Y-11181D01*
X21496Y-11181D02*
X21496Y-10748D01*
G54D29*
X33976Y-19960D02*
X33976Y-20078D01*
X34039Y-20141D02*
X34039Y-20627D01*
X33976Y-20078D02*
X34039Y-20141D01*
X33622Y-20039D02*
X33897Y-20039D01*
X36271Y-24389D02*
X34206Y-24389D01*
X32874Y-23057D02*
X34206Y-24389D01*
X32874Y-20354D02*
X32874Y-23057D01*
X33188Y-20039D02*
X32874Y-20354D01*
X33622Y-20039D02*
X33188Y-20039D01*
X33897Y-20039D02*
X33976Y-19960D01*
X34566Y-19566D02*
X34370Y-19566D01*
X44362Y-17106D02*
X41240Y-17106D01*
X41240Y-17106D02*
X38779Y-19566D01*
X38779Y-19566D02*
X34566Y-19566D01*
X24330Y-19094D02*
X15157Y-19094D01*
X24724Y-19488D02*
X24330Y-19094D01*
X34370Y-19566D02*
X33976Y-19960D01*
X34039Y-20627D02*
X34039Y-20456D01*
X13118Y-19114D02*
X13169Y-19114D01*
X44362Y-18712D02*
X44362Y-18653D01*
X44362Y-18653D02*
X43228Y-17519D01*
X36271Y-24192D02*
X34231Y-24192D01*
X33230Y-20627D02*
X33539Y-20627D01*
X33031Y-20826D02*
X33230Y-20627D01*
X33031Y-22992D02*
X33031Y-20826D01*
X34231Y-24192D02*
X33031Y-22992D01*
X44362Y-18712D02*
X39856Y-18712D01*
X33539Y-20980D02*
X33539Y-20627D01*
X33622Y-21062D02*
X33539Y-20980D01*
X34212Y-21062D02*
X33622Y-21062D01*
X34291Y-20984D02*
X34212Y-21062D01*
X34291Y-20065D02*
X34291Y-20984D01*
X34632Y-19724D02*
X34291Y-20065D01*
X38844Y-19724D02*
X34632Y-19724D01*
X39856Y-18712D02*
X38844Y-19724D01*
G54D27*
X20942Y-16181D02*
X20942Y-15671D01*
X20942Y-15671D02*
X21181Y-15433D01*
X21942Y-16181D02*
X21942Y-15734D01*
X21942Y-15734D02*
X22165Y-15511D01*
G54D29*
X35039Y-20627D02*
X35039Y-21141D01*
X36724Y-22826D02*
X36724Y-23798D01*
X35039Y-21141D02*
X36724Y-22826D01*
G54D27*
X22009Y-25364D02*
X22009Y-25789D01*
X23009Y-25769D02*
X23009Y-25364D01*
X22913Y-25866D02*
X23009Y-25769D01*
X22086Y-25866D02*
X22913Y-25866D01*
X22009Y-25789D02*
X22086Y-25866D01*
X21009Y-25364D02*
X21009Y-24935D01*
X22009Y-24883D02*
X22009Y-25364D01*
X21889Y-24763D02*
X22009Y-24883D01*
X21181Y-24763D02*
X21889Y-24763D01*
X21009Y-24935D02*
X21181Y-24763D01*
X20009Y-25364D02*
X20009Y-25718D01*
X21009Y-25722D02*
X21009Y-25364D01*
X20826Y-25905D02*
X21009Y-25722D01*
X20196Y-25905D02*
X20826Y-25905D01*
X20009Y-25718D02*
X20196Y-25905D01*
X19509Y-25364D02*
X20009Y-25364D01*
X19009Y-25364D02*
X19509Y-25364D01*
X18509Y-25364D02*
X19009Y-25364D01*
X47244Y-14291D02*
X47440Y-14488D01*
X47244Y-14291D02*
X46957Y-14004D01*
X46957Y-13650D02*
X46957Y-14004D01*
X45917Y-17507D02*
X45062Y-17507D01*
X47440Y-15984D02*
X45917Y-17507D01*
X47440Y-14488D02*
X47440Y-15984D01*
X45062Y-17507D02*
X45129Y-17507D01*
X45944Y-16692D02*
X46299Y-16692D01*
X46299Y-16692D02*
X47047Y-15944D01*
X47047Y-15944D02*
X47047Y-15157D01*
X47047Y-15157D02*
X46456Y-14566D01*
X46456Y-14566D02*
X45055Y-14566D01*
X45055Y-14566D02*
X44712Y-14909D01*
X45129Y-17507D02*
X45944Y-16692D01*
X31940Y-11980D02*
X43043Y-11980D01*
X44712Y-13649D02*
X44712Y-14909D01*
X43043Y-11980D02*
X44712Y-13649D01*
X30566Y-11629D02*
X31590Y-11629D01*
X29744Y-11629D02*
X30566Y-11629D01*
X31590Y-11629D02*
X31940Y-11980D01*
X12767Y-14909D02*
X18830Y-14909D01*
X22264Y-13995D02*
X22264Y-13385D01*
X22125Y-14133D02*
X22264Y-13995D01*
X19606Y-14133D02*
X22125Y-14133D01*
X18830Y-14909D02*
X19606Y-14133D01*
X12767Y-21311D02*
X12767Y-21208D01*
X12767Y-21208D02*
X14566Y-19409D01*
X14566Y-19409D02*
X14566Y-16708D01*
X14566Y-16708D02*
X12767Y-14909D01*
X12767Y-21311D02*
X12767Y-21326D01*
X12767Y-21326D02*
X12125Y-21968D01*
X12125Y-21968D02*
X10787Y-21968D01*
X10787Y-21968D02*
X10433Y-21614D01*
X10433Y-21614D02*
X10433Y-20275D01*
X10433Y-20275D02*
X11996Y-18712D01*
X11996Y-18712D02*
X12417Y-18712D01*
X12767Y-21311D02*
X16641Y-21311D01*
X16641Y-21311D02*
X18070Y-19881D01*
X18070Y-19881D02*
X19442Y-19881D01*
X36039Y-18427D02*
X36039Y-17661D01*
X36039Y-17661D02*
X38791Y-14909D01*
X38791Y-14909D02*
X44712Y-14909D01*
X34039Y-18427D02*
X34539Y-18427D01*
X35539Y-18427D02*
X36039Y-18427D01*
X34539Y-18427D02*
X34539Y-18019D01*
X35539Y-17940D02*
X35539Y-18427D01*
X35354Y-17755D02*
X35539Y-17940D01*
X34803Y-17755D02*
X35354Y-17755D01*
X34539Y-18019D02*
X34803Y-17755D01*
X35039Y-20627D02*
X35539Y-20627D01*
X35539Y-20627D02*
X35539Y-21169D01*
X36539Y-21137D02*
X36539Y-20627D01*
X36259Y-21417D02*
X36539Y-21137D01*
X35787Y-21417D02*
X36259Y-21417D01*
X35539Y-21169D02*
X35787Y-21417D01*
X36539Y-20627D02*
X44029Y-20627D01*
X44029Y-20627D02*
X44712Y-21311D01*
X42430Y-22451D02*
X43503Y-21377D01*
X29342Y-24696D02*
X30039Y-25393D01*
X30039Y-25393D02*
X30039Y-25984D01*
X30039Y-25984D02*
X30708Y-26653D01*
X42430Y-22451D02*
X38228Y-26653D01*
X30708Y-26653D02*
X38228Y-26653D01*
X29342Y-24590D02*
X29342Y-24696D01*
X44645Y-21377D02*
X44712Y-21311D01*
X43503Y-21377D02*
X44645Y-21377D01*
X18509Y-21564D02*
X18509Y-22092D01*
X23009Y-22108D02*
X23009Y-21564D01*
X22992Y-22125D02*
X23009Y-22108D01*
X18509Y-22092D02*
X18622Y-22204D01*
X23009Y-21564D02*
X23009Y-21084D01*
X23942Y-20545D02*
X23942Y-19881D01*
X23661Y-20826D02*
X23942Y-20545D01*
X23267Y-20826D02*
X23661Y-20826D01*
X23009Y-21084D02*
X23267Y-20826D01*
X23110Y-16929D02*
X23779Y-16929D01*
X23942Y-16765D02*
X23942Y-16181D01*
X23779Y-16929D02*
X23942Y-16765D01*
X22942Y-16181D02*
X22942Y-16761D01*
X23128Y-14075D02*
X23128Y-13385D01*
X23110Y-14094D02*
X23128Y-14075D01*
X22942Y-16761D02*
X23110Y-16929D01*
X25539Y-24240D02*
X26484Y-24240D01*
X26834Y-24590D02*
X27736Y-24590D01*
X26484Y-24240D02*
X26834Y-24590D01*
X23009Y-25364D02*
X23009Y-25021D01*
X23009Y-25021D02*
X23791Y-24240D01*
X23791Y-24240D02*
X25539Y-24240D01*
G54D29*
X28877Y-20244D02*
X29968Y-20244D01*
X28680Y-20244D02*
X28877Y-20244D01*
X28483Y-20244D02*
X28680Y-20244D01*
X28286Y-20244D02*
X28483Y-20244D01*
X27480Y-19881D02*
X28149Y-19881D01*
X28286Y-20018D02*
X28286Y-20244D01*
X28149Y-19881D02*
X28286Y-20018D01*
G54D27*
X23942Y-19881D02*
X27480Y-19881D01*
X31940Y-22216D02*
X31940Y-24240D01*
X29968Y-20244D02*
X31940Y-22216D01*
X29173Y-19448D02*
X29968Y-20244D01*
X27480Y-19881D02*
X27913Y-19448D01*
X27913Y-19448D02*
X29173Y-19448D01*
G54D29*
X47382Y-13091D02*
X46957Y-13091D01*
X47559Y-13267D02*
X47382Y-13091D01*
X47559Y-13287D02*
X47559Y-13267D01*
X47559Y-13287D02*
X47559Y-13090D01*
X47559Y-13090D02*
X47362Y-12893D01*
X46957Y-12893D02*
X46957Y-12894D01*
X47362Y-12893D02*
X46957Y-12893D01*
X47559Y-12893D02*
X47362Y-12696D01*
X46957Y-12696D02*
X46957Y-12697D01*
X47362Y-12696D02*
X46957Y-12696D01*
X46957Y-13650D02*
X47235Y-13650D01*
X47421Y-12500D02*
X46957Y-12500D01*
X47559Y-12637D02*
X47421Y-12500D01*
X47559Y-13326D02*
X47559Y-13287D01*
X47559Y-13090D02*
X47559Y-12893D01*
X47559Y-12893D02*
X47559Y-12637D01*
X47235Y-13650D02*
X47559Y-13326D01*
X46957Y-13650D02*
X46957Y-13385D01*
X46957Y-13385D02*
X46957Y-13091D01*
G54D27*
X46957Y-13650D02*
X46948Y-13641D01*
X22264Y-13385D02*
X22264Y-12065D01*
X22264Y-12065D02*
X22539Y-11791D01*
X22539Y-11791D02*
X23149Y-11791D01*
X23149Y-11791D02*
X23149Y-13365D01*
X23149Y-13365D02*
X23128Y-13385D01*
X22264Y-13385D02*
X23128Y-13385D01*
X26299Y-8976D02*
X24055Y-8976D01*
X28137Y-11629D02*
X28137Y-11602D01*
X27401Y-10078D02*
X26299Y-8976D01*
X27401Y-10866D02*
X27401Y-10078D01*
X28137Y-11602D02*
X27401Y-10866D01*
X23149Y-9881D02*
X23149Y-10846D01*
X24055Y-8976D02*
X23149Y-9881D01*
X28137Y-11629D02*
X28137Y-11468D01*
X29744Y-11397D02*
X29744Y-11629D01*
X29212Y-10866D02*
X29744Y-11397D01*
X28740Y-10866D02*
X29212Y-10866D01*
X28137Y-11468D02*
X28740Y-10866D01*
X12417Y-17106D02*
X12263Y-17106D01*
X12263Y-17106D02*
X11732Y-17637D01*
X11732Y-17637D02*
X11732Y-18027D01*
X11732Y-18027D02*
X12417Y-18712D01*
X45062Y-17507D02*
X45145Y-17507D01*
X45145Y-17507D02*
X45748Y-18110D01*
X45748Y-18429D02*
X45062Y-19114D01*
X45748Y-18110D02*
X45748Y-18429D01*
G54D29*
X46957Y-12500D02*
X46957Y-12697D01*
X46957Y-12697D02*
X46957Y-12894D01*
X46957Y-12894D02*
X46957Y-13091D01*
G54D27*
X27736Y-24590D02*
X27736Y-25059D01*
X27736Y-25059D02*
X28031Y-25354D01*
X28031Y-25354D02*
X28937Y-25354D01*
X28937Y-25354D02*
X29342Y-24948D01*
X29342Y-24948D02*
X29342Y-24590D01*
G54D29*
X22509Y-21564D02*
X22509Y-22057D01*
X22509Y-22057D02*
X22362Y-22204D01*
X29744Y-23889D02*
X29744Y-22933D01*
X28877Y-22066D02*
X28877Y-20697D01*
X29744Y-22933D02*
X28877Y-22066D01*
X21509Y-21564D02*
X21509Y-22072D01*
X21509Y-22072D02*
X21338Y-22244D01*
X28680Y-20697D02*
X28680Y-22381D01*
X28940Y-22641D02*
X28940Y-23889D01*
X28680Y-22381D02*
X28940Y-22641D01*
X20509Y-21564D02*
X20509Y-22088D01*
X20509Y-22088D02*
X20393Y-22204D01*
X28483Y-20697D02*
X28483Y-22421D01*
X28137Y-22767D02*
X28137Y-23889D01*
X28483Y-22421D02*
X28137Y-22767D01*
X19509Y-21564D02*
X19509Y-21986D01*
X19509Y-21986D02*
X19291Y-22204D01*
X27334Y-23889D02*
X27334Y-23059D01*
X28286Y-22107D02*
X28286Y-20697D01*
X27334Y-23059D02*
X28286Y-22107D01*
X28799Y-16743D02*
X28799Y-12873D01*
X28799Y-12873D02*
X29342Y-12330D01*
X20669Y-22480D02*
X20393Y-22755D01*
X18019Y-22480D02*
X17716Y-22177D01*
X17716Y-22177D02*
X17716Y-21011D01*
X17716Y-21011D02*
X18097Y-20629D01*
X18097Y-20629D02*
X20748Y-20629D01*
X20748Y-20629D02*
X20942Y-20435D01*
X20942Y-20435D02*
X20942Y-19881D01*
X18294Y-22755D02*
X18019Y-22480D01*
X20393Y-22755D02*
X18294Y-22755D01*
X21009Y-21564D02*
X21009Y-22139D01*
X21009Y-22139D02*
X20669Y-22480D01*
X20669Y-22480D02*
X20669Y-22480D01*
X17953Y-22637D02*
X17953Y-22638D01*
X22009Y-22202D02*
X21574Y-22637D01*
X22009Y-22202D02*
X22009Y-21564D01*
X21299Y-22913D02*
X21574Y-22637D01*
X18228Y-22913D02*
X21299Y-22913D01*
X17953Y-22638D02*
X18228Y-22913D01*
X19942Y-20372D02*
X19942Y-19881D01*
X19842Y-20472D02*
X19942Y-20372D01*
X18032Y-20472D02*
X19842Y-20472D01*
X17559Y-20946D02*
X18032Y-20472D01*
X17559Y-22242D02*
X17559Y-20946D01*
X17953Y-22637D02*
X17953Y-22637D01*
X17953Y-22637D02*
X17559Y-22242D01*
X46504Y-13091D02*
X45296Y-13091D01*
X43661Y-10662D02*
X42997Y-9998D01*
X43661Y-11456D02*
X43661Y-10662D01*
X45296Y-13091D02*
X43661Y-11456D01*
X46504Y-12894D02*
X45413Y-12894D01*
X40751Y-9488D02*
X40241Y-9998D01*
X43346Y-9488D02*
X40751Y-9488D01*
X43858Y-10000D02*
X43346Y-9488D01*
X43858Y-11338D02*
X43858Y-10000D01*
X45413Y-12894D02*
X43858Y-11338D01*
X46504Y-12697D02*
X45571Y-12697D01*
X38192Y-9291D02*
X37485Y-9998D01*
X43385Y-9291D02*
X38192Y-9291D01*
X44055Y-9960D02*
X43385Y-9291D01*
X44055Y-11181D02*
X44055Y-9960D01*
X45571Y-12697D02*
X44055Y-11181D01*
X28602Y-16743D02*
X28602Y-12394D01*
X28602Y-12394D02*
X28539Y-12330D01*
X28602Y-12394D02*
X28539Y-12330D01*
X23509Y-21564D02*
X23509Y-21974D01*
X34539Y-21405D02*
X34539Y-20627D01*
X33818Y-22125D02*
X34539Y-21405D01*
X23509Y-21974D02*
X23661Y-22125D01*
X28405Y-16743D02*
X28405Y-13000D01*
X28405Y-13000D02*
X27736Y-12330D01*
X46504Y-12500D02*
X45610Y-12500D01*
X35593Y-9133D02*
X34729Y-9998D01*
X43503Y-9133D02*
X35593Y-9133D01*
X44251Y-9881D02*
X43503Y-9133D01*
X44251Y-11141D02*
X44251Y-9881D01*
X45610Y-12500D02*
X44251Y-11141D01*
X44362Y-19515D02*
X44476Y-19515D01*
X30944Y-8661D02*
X15669Y-8661D01*
X15669Y-8661D02*
X9448Y-14881D01*
X9448Y-14881D02*
X9448Y-16220D01*
X9448Y-16220D02*
X9921Y-16692D01*
X9921Y-16692D02*
X11889Y-16692D01*
X11889Y-16692D02*
X12362Y-16220D01*
X12362Y-16220D02*
X12633Y-16220D01*
X12633Y-16220D02*
X13118Y-16704D01*
X43543Y-8661D02*
X30944Y-8661D01*
X44645Y-9763D02*
X43543Y-8661D01*
X44645Y-10944D02*
X44645Y-9763D01*
X45708Y-12007D02*
X44645Y-10944D01*
X47283Y-12007D02*
X45708Y-12007D01*
X47755Y-12480D02*
X47283Y-12007D01*
X47755Y-17283D02*
X47755Y-12480D01*
X45314Y-19724D02*
X47755Y-17283D01*
X44685Y-19724D02*
X45314Y-19724D01*
X44476Y-19515D02*
X44685Y-19724D01*
X28996Y-16743D02*
X28996Y-13479D01*
X28996Y-13479D02*
X30145Y-12330D01*
X19009Y-21564D02*
X19009Y-21423D01*
X19009Y-21423D02*
X19488Y-20944D01*
X22942Y-20442D02*
X22942Y-19881D01*
X22440Y-20944D02*
X22942Y-20442D01*
X19488Y-20944D02*
X22440Y-20944D01*
X19724Y-22322D02*
X19488Y-22559D01*
X18084Y-22322D02*
X17874Y-22112D01*
X17874Y-22112D02*
X17874Y-21076D01*
X17874Y-21076D02*
X18163Y-20787D01*
X18163Y-20787D02*
X21653Y-20787D01*
X21653Y-20787D02*
X21942Y-20498D01*
X21942Y-20498D02*
X21942Y-19881D01*
X18320Y-22559D02*
X18084Y-22322D01*
X19488Y-22559D02*
X18320Y-22559D01*
X20009Y-21564D02*
X20009Y-22037D01*
X20009Y-22037D02*
X19724Y-22322D01*
X19724Y-22322D02*
X19724Y-22322D01*
X20442Y-16181D02*
X20442Y-16781D01*
X21614Y-17952D02*
X22047Y-17952D01*
X20442Y-16781D02*
X21614Y-17952D01*
X20442Y-16181D02*
X20442Y-15659D01*
X28405Y-17500D02*
X28405Y-17196D01*
X27087Y-18818D02*
X28405Y-17500D01*
X25707Y-18818D02*
X27087Y-18818D01*
X24960Y-18072D02*
X25707Y-18818D01*
X24960Y-15512D02*
X24960Y-18072D01*
X24487Y-15039D02*
X24960Y-15512D01*
X21062Y-15039D02*
X24487Y-15039D01*
X20442Y-15659D02*
X21062Y-15039D01*
X21442Y-16181D02*
X21442Y-16364D01*
X21442Y-16364D02*
X22637Y-17559D01*
X21442Y-16181D02*
X21442Y-15683D01*
X28602Y-17526D02*
X28602Y-17196D01*
X27153Y-18976D02*
X28602Y-17526D01*
X25642Y-18976D02*
X27153Y-18976D01*
X24803Y-18137D02*
X25642Y-18976D01*
X24803Y-15578D02*
X24803Y-18137D01*
X24421Y-15196D02*
X24803Y-15578D01*
X21929Y-15196D02*
X24421Y-15196D01*
X21442Y-15683D02*
X21929Y-15196D01*
X22442Y-16181D02*
X22442Y-16694D01*
X23228Y-17480D02*
X24015Y-17480D01*
X22442Y-16694D02*
X23228Y-17480D01*
X22442Y-16181D02*
X22442Y-15667D01*
X28799Y-17552D02*
X28799Y-17196D01*
X27218Y-19133D02*
X28799Y-17552D01*
X25577Y-19133D02*
X27218Y-19133D01*
X24645Y-18202D02*
X25577Y-19133D01*
X24645Y-15643D02*
X24645Y-18202D01*
X24356Y-15354D02*
X24645Y-15643D01*
X22755Y-15354D02*
X24356Y-15354D01*
X22442Y-15667D02*
X22755Y-15354D01*
X28996Y-17196D02*
X29142Y-17196D01*
X29527Y-16811D02*
X29527Y-16535D01*
X29142Y-17196D02*
X29527Y-16811D01*
X23442Y-16181D02*
X23442Y-15612D01*
X28996Y-17578D02*
X28996Y-17196D01*
X27283Y-19291D02*
X28996Y-17578D01*
X25511Y-19291D02*
X27283Y-19291D01*
X24488Y-18267D02*
X25511Y-19291D01*
X24488Y-15708D02*
X24488Y-18267D01*
X24291Y-15511D02*
X24488Y-15708D01*
X23543Y-15511D02*
X24291Y-15511D01*
X23442Y-15612D02*
X23543Y-15511D01*
X24009Y-21564D02*
X24517Y-21564D01*
X24517Y-21564D02*
X24527Y-21574D01*
X34389Y-23798D02*
X36271Y-23798D01*
X33464Y-22874D02*
X34389Y-23798D01*
X33464Y-21496D02*
X33464Y-22874D01*
X36724Y-24389D02*
X36724Y-24192D01*
X36724Y-24192D02*
X37617Y-24192D01*
X37617Y-24192D02*
X37677Y-24251D01*
X36724Y-24389D02*
X37539Y-24389D01*
X37539Y-24389D02*
X37677Y-24251D01*
G54D27*
X33539Y-18893D02*
X33661Y-19015D01*
X33539Y-18893D02*
X33539Y-18427D01*
X33661Y-19015D02*
X37047Y-19015D01*
X33543Y-17637D02*
X33539Y-17641D01*
X33539Y-17641D02*
X33539Y-18427D01*
X23878Y-13385D02*
X24173Y-13385D01*
X24009Y-24718D02*
X24009Y-25364D01*
X23976Y-24685D02*
X24009Y-24718D01*
X16692Y-16889D02*
X16692Y-18740D01*
X24409Y-13622D02*
X24409Y-14527D01*
X24173Y-13385D02*
X24409Y-13622D01*
G54D29*
X19442Y-16181D02*
X19442Y-15557D01*
X23878Y-14034D02*
X23878Y-13385D01*
X23267Y-14645D02*
X23878Y-14034D01*
X20354Y-14645D02*
X23267Y-14645D01*
X19442Y-15557D02*
X20354Y-14645D01*
G54D28*
X23937Y-12637D02*
X24330Y-12244D01*
X24724Y-12637D02*
X24330Y-12244D01*
X23937Y-12637D02*
X24724Y-12637D01*
X23740Y-10748D02*
X24133Y-10748D01*
X24133Y-10748D02*
X24330Y-10944D01*
X24330Y-10944D02*
X24330Y-12244D01*
G54D27*
X23878Y-13385D02*
X23878Y-12695D01*
X24330Y-10944D02*
X24133Y-10748D01*
X24330Y-12244D02*
X24330Y-10944D01*
X23878Y-12695D02*
X24330Y-12244D01*
X23858Y-13406D02*
X23878Y-13385D01*
G54D10*
G36*
X22086Y-11850D02*
X21299Y-11850D01*
X21299Y-10590D01*
X22086Y-10590D01*
X22086Y-11850D01*
X22086Y-11850D01*
G37*
G54D29*
X22086Y-11850D02*
X21299Y-11850D01*
X21299Y-10590D01*
X22086Y-10590D01*
X22086Y-11850D01*
G54D10*
G36*
X18889Y-22064D02*
X18866Y-22119D01*
X18866Y-22269D01*
X18440Y-22269D01*
X18288Y-22118D01*
X18288Y-22118D01*
X18288Y-22118D01*
X18163Y-21992D01*
X18163Y-21971D01*
X18218Y-22026D01*
X18310Y-22064D01*
X18397Y-22064D01*
X18459Y-22002D01*
X18459Y-21614D01*
X18451Y-21614D01*
X18451Y-21514D01*
X18459Y-21514D01*
X18459Y-21506D01*
X18559Y-21506D01*
X18559Y-21514D01*
X18567Y-21514D01*
X18567Y-21614D01*
X18559Y-21614D01*
X18559Y-22002D01*
X18622Y-22064D01*
X18709Y-22064D01*
X18759Y-22043D01*
X18809Y-22064D01*
X18889Y-22064D01*
X18889Y-22064D01*
G37*
G54D30*
X18889Y-22064D02*
X18866Y-22119D01*
X18866Y-22269D01*
X18440Y-22269D01*
X18288Y-22118D01*
X18288Y-22118D01*
X18288Y-22118D01*
X18163Y-21992D01*
X18163Y-21971D01*
X18218Y-22026D01*
X18310Y-22064D01*
X18397Y-22064D01*
X18459Y-22002D01*
X18459Y-21614D01*
X18451Y-21614D01*
X18451Y-21514D01*
X18459Y-21514D01*
X18459Y-21506D01*
X18559Y-21506D01*
X18559Y-21514D01*
X18567Y-21514D01*
X18567Y-21614D01*
X18559Y-21614D01*
X18559Y-22002D01*
X18622Y-22064D01*
X18709Y-22064D01*
X18759Y-22043D01*
X18809Y-22064D01*
X18889Y-22064D01*
G54D10*
G36*
X21388Y-15328D02*
X21238Y-15478D01*
X21179Y-15565D01*
X21110Y-15537D01*
X21055Y-15537D01*
X20992Y-15599D01*
X20992Y-15537D01*
X20974Y-15537D01*
X21182Y-15328D01*
X21388Y-15328D01*
X21388Y-15328D01*
G37*
G54D30*
X21388Y-15328D02*
X21238Y-15478D01*
X21179Y-15565D01*
X21110Y-15537D01*
X21055Y-15537D01*
X20992Y-15599D01*
X20992Y-15537D01*
X20974Y-15537D01*
X21182Y-15328D01*
X21388Y-15328D01*
G54D10*
G36*
X22000Y-16231D02*
X21992Y-16231D01*
X21992Y-16238D01*
X21892Y-16238D01*
X21892Y-16231D01*
X21885Y-16231D01*
X21885Y-16131D01*
X21892Y-16131D01*
X21892Y-16123D01*
X21992Y-16123D01*
X21992Y-16131D01*
X22000Y-16131D01*
X22000Y-16231D01*
X22000Y-16231D01*
G37*
G54D30*
X22000Y-16231D02*
X21992Y-16231D01*
X21992Y-16238D01*
X21892Y-16238D01*
X21892Y-16231D01*
X21885Y-16231D01*
X21885Y-16131D01*
X21892Y-16131D01*
X21892Y-16123D01*
X21992Y-16123D01*
X21992Y-16131D01*
X22000Y-16131D01*
X22000Y-16231D01*
G54D10*
G36*
X22212Y-17543D02*
X22212Y-17561D01*
X22132Y-17527D01*
X21963Y-17527D01*
X21806Y-17592D01*
X21735Y-17663D01*
X21734Y-17663D01*
X20862Y-16792D01*
X20892Y-16762D01*
X20892Y-16231D01*
X20885Y-16231D01*
X20885Y-16131D01*
X20892Y-16131D01*
X20892Y-16123D01*
X20992Y-16123D01*
X20992Y-16131D01*
X21000Y-16131D01*
X21000Y-16231D01*
X20992Y-16231D01*
X20992Y-16762D01*
X21055Y-16824D01*
X21110Y-16824D01*
X21193Y-16790D01*
X21274Y-16824D01*
X21374Y-16824D01*
X21494Y-16824D01*
X22212Y-17543D01*
X22212Y-17543D01*
G37*
G54D30*
X22212Y-17543D02*
X22212Y-17561D01*
X22132Y-17527D01*
X21963Y-17527D01*
X21806Y-17592D01*
X21735Y-17663D01*
X21734Y-17663D01*
X20862Y-16792D01*
X20892Y-16762D01*
X20892Y-16231D01*
X20885Y-16231D01*
X20885Y-16131D01*
X20892Y-16131D01*
X20892Y-16123D01*
X20992Y-16123D01*
X20992Y-16131D01*
X21000Y-16131D01*
X21000Y-16231D01*
X20992Y-16231D01*
X20992Y-16762D01*
X21055Y-16824D01*
X21110Y-16824D01*
X21193Y-16790D01*
X21274Y-16824D01*
X21374Y-16824D01*
X21494Y-16824D01*
X22212Y-17543D01*
G54D10*
G36*
X22222Y-15486D02*
X22175Y-15556D01*
X22174Y-15563D01*
X22110Y-15537D01*
X22055Y-15537D01*
X21992Y-15599D01*
X21992Y-15542D01*
X22048Y-15486D01*
X22222Y-15486D01*
X22222Y-15486D01*
G37*
G54D30*
X22222Y-15486D02*
X22175Y-15556D01*
X22174Y-15563D01*
X22110Y-15537D01*
X22055Y-15537D01*
X21992Y-15599D01*
X21992Y-15542D01*
X22048Y-15486D01*
X22222Y-15486D01*
G54D10*
G36*
X23000Y-16231D02*
X22992Y-16231D01*
X22992Y-16238D01*
X22892Y-16238D01*
X22892Y-16231D01*
X22885Y-16231D01*
X22885Y-16131D01*
X22892Y-16131D01*
X22892Y-16123D01*
X22992Y-16123D01*
X22992Y-16131D01*
X23000Y-16131D01*
X23000Y-16231D01*
X23000Y-16231D01*
G37*
G54D30*
X23000Y-16231D02*
X22992Y-16231D01*
X22992Y-16238D01*
X22892Y-16238D01*
X22892Y-16231D01*
X22885Y-16231D01*
X22885Y-16131D01*
X22892Y-16131D01*
X22892Y-16123D01*
X22992Y-16123D01*
X22992Y-16131D01*
X23000Y-16131D01*
X23000Y-16231D01*
G54D10*
G36*
X24198Y-17096D02*
X24100Y-17055D01*
X23931Y-17055D01*
X23775Y-17119D01*
X23704Y-17190D01*
X23348Y-17190D01*
X22982Y-16824D01*
X22992Y-16824D01*
X22992Y-16762D01*
X23055Y-16824D01*
X23110Y-16824D01*
X23193Y-16790D01*
X23274Y-16824D01*
X23374Y-16824D01*
X23610Y-16824D01*
X23692Y-16790D01*
X23775Y-16824D01*
X23830Y-16824D01*
X23892Y-16762D01*
X23892Y-16231D01*
X23885Y-16231D01*
X23885Y-16131D01*
X23892Y-16131D01*
X23892Y-16123D01*
X23992Y-16123D01*
X23992Y-16131D01*
X24000Y-16131D01*
X24000Y-16231D01*
X23992Y-16231D01*
X23992Y-16762D01*
X24055Y-16824D01*
X24110Y-16824D01*
X24198Y-16788D01*
X24198Y-17096D01*
X24198Y-17096D01*
G37*
G54D30*
X24198Y-17096D02*
X24100Y-17055D01*
X23931Y-17055D01*
X23775Y-17119D01*
X23704Y-17190D01*
X23348Y-17190D01*
X22982Y-16824D01*
X22992Y-16824D01*
X22992Y-16762D01*
X23055Y-16824D01*
X23110Y-16824D01*
X23193Y-16790D01*
X23274Y-16824D01*
X23374Y-16824D01*
X23610Y-16824D01*
X23692Y-16790D01*
X23775Y-16824D01*
X23830Y-16824D01*
X23892Y-16762D01*
X23892Y-16231D01*
X23885Y-16231D01*
X23885Y-16131D01*
X23892Y-16131D01*
X23892Y-16123D01*
X23992Y-16123D01*
X23992Y-16131D01*
X24000Y-16131D01*
X24000Y-16231D01*
X23992Y-16231D01*
X23992Y-16762D01*
X24055Y-16824D01*
X24110Y-16824D01*
X24198Y-16788D01*
X24198Y-17096D01*
G54D10*
G36*
X48155Y-27683D02*
X47888Y-27683D01*
X47888Y-25700D01*
X47670Y-25174D01*
X47268Y-24771D01*
X46742Y-24553D01*
X46173Y-24552D01*
X45647Y-24770D01*
X45244Y-25172D01*
X45124Y-25461D01*
X45124Y-21793D01*
X44712Y-21381D01*
X44641Y-21452D01*
X44641Y-21311D01*
X44230Y-20899D01*
X44121Y-20943D01*
X44025Y-21197D01*
X44034Y-21469D01*
X44121Y-21678D01*
X44230Y-21722D01*
X44641Y-21311D01*
X44641Y-21452D01*
X44301Y-21793D01*
X44344Y-21902D01*
X44599Y-21998D01*
X44870Y-21989D01*
X45080Y-21902D01*
X45124Y-21793D01*
X45124Y-25461D01*
X45025Y-25698D01*
X45025Y-26267D01*
X45242Y-26793D01*
X45644Y-27196D01*
X46170Y-27415D01*
X46740Y-27415D01*
X47266Y-27198D01*
X47669Y-26795D01*
X47887Y-26270D01*
X47888Y-25700D01*
X47888Y-27683D01*
X32628Y-27683D01*
X32628Y-24353D01*
X32619Y-24082D01*
X32532Y-23872D01*
X32423Y-23828D01*
X32352Y-23899D01*
X32352Y-23757D01*
X32352Y-12462D01*
X31940Y-12051D01*
X31529Y-12462D01*
X31573Y-12571D01*
X31827Y-12667D01*
X32098Y-12658D01*
X32308Y-12571D01*
X32352Y-12462D01*
X32352Y-23757D01*
X32308Y-23648D01*
X32054Y-23553D01*
X31782Y-23561D01*
X31573Y-23648D01*
X31529Y-23757D01*
X31940Y-24169D01*
X32352Y-23757D01*
X32352Y-23899D01*
X32011Y-24240D01*
X32423Y-24651D01*
X32532Y-24608D01*
X32628Y-24353D01*
X32628Y-27683D01*
X32352Y-27683D01*
X32352Y-24722D01*
X31940Y-24310D01*
X31935Y-24316D01*
X31864Y-24245D01*
X31870Y-24240D01*
X31458Y-23828D01*
X31349Y-23872D01*
X31253Y-24126D01*
X31262Y-24398D01*
X31349Y-24608D01*
X31384Y-24622D01*
X31048Y-24621D01*
X30692Y-24769D01*
X30640Y-24820D01*
X30691Y-24699D01*
X30691Y-24482D01*
X30691Y-12222D01*
X30608Y-12022D01*
X30455Y-11868D01*
X30266Y-11790D01*
X30294Y-11710D01*
X30283Y-11493D01*
X30221Y-11344D01*
X30126Y-11317D01*
X30056Y-11388D01*
X30056Y-11247D01*
X30029Y-11152D01*
X29824Y-11079D01*
X29608Y-11090D01*
X29458Y-11152D01*
X29432Y-11247D01*
X29744Y-11559D01*
X30056Y-11247D01*
X30056Y-11388D01*
X29814Y-11629D01*
X29820Y-11635D01*
X29749Y-11706D01*
X29744Y-11700D01*
X29738Y-11706D01*
X29667Y-11635D01*
X29673Y-11629D01*
X29431Y-11387D01*
X29403Y-11321D01*
X29250Y-11167D01*
X29049Y-11084D01*
X28832Y-11084D01*
X28632Y-11167D01*
X28478Y-11320D01*
X28450Y-11387D01*
X28449Y-11388D01*
X28449Y-11247D01*
X28422Y-11152D01*
X28218Y-11079D01*
X28001Y-11090D01*
X27852Y-11152D01*
X27825Y-11247D01*
X28137Y-11559D01*
X28449Y-11247D01*
X28449Y-11388D01*
X28208Y-11629D01*
X28214Y-11635D01*
X28143Y-11706D01*
X28137Y-11700D01*
X28132Y-11706D01*
X28061Y-11635D01*
X28067Y-11629D01*
X27824Y-11387D01*
X27797Y-11321D01*
X27644Y-11167D01*
X27443Y-11084D01*
X27226Y-11084D01*
X27073Y-11147D01*
X27208Y-10823D01*
X27208Y-10438D01*
X27061Y-10082D01*
X26789Y-9809D01*
X26433Y-9661D01*
X26048Y-9661D01*
X25692Y-9808D01*
X25419Y-10080D01*
X25271Y-10436D01*
X25271Y-10821D01*
X25418Y-11177D01*
X25537Y-11296D01*
X25381Y-11302D01*
X25171Y-11388D01*
X25127Y-11498D01*
X25539Y-11909D01*
X25544Y-11904D01*
X25615Y-11974D01*
X25610Y-11980D01*
X26021Y-12391D01*
X26130Y-12348D01*
X26226Y-12093D01*
X26217Y-11822D01*
X26130Y-11612D01*
X26095Y-11598D01*
X26431Y-11598D01*
X26788Y-11451D01*
X26839Y-11400D01*
X26789Y-11520D01*
X26789Y-11737D01*
X26871Y-11938D01*
X27025Y-12092D01*
X27212Y-12169D01*
X27190Y-12221D01*
X27190Y-12438D01*
X27273Y-12639D01*
X27426Y-12792D01*
X27627Y-12876D01*
X27844Y-12876D01*
X27864Y-12868D01*
X28116Y-13120D01*
X28116Y-16518D01*
X28096Y-16565D01*
X28096Y-16665D01*
X28096Y-16921D01*
X28116Y-16970D01*
X28096Y-17018D01*
X28096Y-17118D01*
X28096Y-17374D01*
X28104Y-17392D01*
X26967Y-18529D01*
X25827Y-18529D01*
X25250Y-17952D01*
X25250Y-15512D01*
X25227Y-15402D01*
X25165Y-15308D01*
X25165Y-15308D01*
X24697Y-14840D01*
X24769Y-14768D01*
X24834Y-14612D01*
X24834Y-14443D01*
X24769Y-14287D01*
X24757Y-14275D01*
X24757Y-13622D01*
X24757Y-13622D01*
X24757Y-13622D01*
X24731Y-13488D01*
X24655Y-13375D01*
X24655Y-13375D01*
X24419Y-13139D01*
X24337Y-13084D01*
X24724Y-13084D01*
X24724Y-13084D01*
X24895Y-13050D01*
X24895Y-13050D01*
X25040Y-12953D01*
X25137Y-12808D01*
X25137Y-12808D01*
X25171Y-12637D01*
X25171Y-12637D01*
X25144Y-12505D01*
X25171Y-12571D01*
X25425Y-12667D01*
X25697Y-12658D01*
X25907Y-12571D01*
X25950Y-12462D01*
X25539Y-12051D01*
X25533Y-12056D01*
X25463Y-11985D01*
X25468Y-11980D01*
X25057Y-11568D01*
X24947Y-11612D01*
X24852Y-11866D01*
X24861Y-12138D01*
X24864Y-12145D01*
X24777Y-12059D01*
X24777Y-10944D01*
X24743Y-10773D01*
X24646Y-10628D01*
X24646Y-10628D01*
X24449Y-10432D01*
X24304Y-10335D01*
X24133Y-10301D01*
X24094Y-10301D01*
X24090Y-10291D01*
X24020Y-10221D01*
X23928Y-10183D01*
X23829Y-10183D01*
X23553Y-10183D01*
X23461Y-10220D01*
X23445Y-10236D01*
X23429Y-10220D01*
X23337Y-10182D01*
X23262Y-10182D01*
X23199Y-10245D01*
X23199Y-10796D01*
X23207Y-10796D01*
X23207Y-10896D01*
X23199Y-10896D01*
X23199Y-11062D01*
X23199Y-11447D01*
X23199Y-11741D01*
X23730Y-11741D01*
X23793Y-11678D01*
X23793Y-11313D01*
X23883Y-11313D01*
X23883Y-12059D01*
X23793Y-12149D01*
X23793Y-11903D01*
X23730Y-11841D01*
X23199Y-11841D01*
X23199Y-12520D01*
X23262Y-12582D01*
X23501Y-12582D01*
X23490Y-12637D01*
X23524Y-12808D01*
X23530Y-12818D01*
X23530Y-12930D01*
X23503Y-12957D01*
X23445Y-12898D01*
X23353Y-12860D01*
X23241Y-12860D01*
X23178Y-12923D01*
X23178Y-13335D01*
X23186Y-13335D01*
X23186Y-13435D01*
X23178Y-13435D01*
X23178Y-13848D01*
X23241Y-13910D01*
X23353Y-13910D01*
X23445Y-13872D01*
X23503Y-13814D01*
X23562Y-13872D01*
X23589Y-13884D01*
X23589Y-13914D01*
X23147Y-14356D01*
X23099Y-14356D01*
X23099Y-12520D01*
X23099Y-11841D01*
X23099Y-11741D01*
X23099Y-11447D01*
X23099Y-11062D01*
X23099Y-10896D01*
X23091Y-10896D01*
X23091Y-10796D01*
X23099Y-10796D01*
X23099Y-10245D01*
X23037Y-10182D01*
X22962Y-10182D01*
X22883Y-10214D01*
X22461Y-9792D01*
X21239Y-9792D01*
X20816Y-10215D01*
X20816Y-12225D01*
X21239Y-12648D01*
X22490Y-12648D01*
X22490Y-11438D01*
X22506Y-11422D01*
X22506Y-11678D01*
X22568Y-11741D01*
X22884Y-11741D01*
X23099Y-11741D01*
X23099Y-11841D01*
X22884Y-11841D01*
X22568Y-11841D01*
X22506Y-11903D01*
X22506Y-12283D01*
X22506Y-12382D01*
X22544Y-12474D01*
X22614Y-12544D01*
X22706Y-12582D01*
X22884Y-12582D01*
X23037Y-12582D01*
X23099Y-12520D01*
X23099Y-14356D01*
X23078Y-14356D01*
X23078Y-13848D01*
X23078Y-13435D01*
X23078Y-13335D01*
X23078Y-12923D01*
X23016Y-12860D01*
X22904Y-12860D01*
X22884Y-12868D01*
X22812Y-12898D01*
X22742Y-12969D01*
X22703Y-13060D01*
X22703Y-13160D01*
X22703Y-13273D01*
X22766Y-13335D01*
X22884Y-13335D01*
X23078Y-13335D01*
X23078Y-13435D01*
X22884Y-13435D01*
X22766Y-13435D01*
X22703Y-13498D01*
X22703Y-13611D01*
X22703Y-13710D01*
X22742Y-13802D01*
X22812Y-13872D01*
X22884Y-13902D01*
X22904Y-13910D01*
X23016Y-13910D01*
X23078Y-13848D01*
X23078Y-14356D01*
X22884Y-14356D01*
X22689Y-14356D01*
X22689Y-13611D01*
X22689Y-13160D01*
X22689Y-13060D01*
X22651Y-12969D01*
X22581Y-12898D01*
X22489Y-12860D01*
X22377Y-12860D01*
X22314Y-12923D01*
X22314Y-13335D01*
X22627Y-13335D01*
X22689Y-13273D01*
X22689Y-13160D01*
X22689Y-13611D01*
X22689Y-13498D01*
X22627Y-13435D01*
X22314Y-13435D01*
X22314Y-13848D01*
X22377Y-13910D01*
X22489Y-13910D01*
X22581Y-13872D01*
X22651Y-13802D01*
X22689Y-13710D01*
X22689Y-13611D01*
X22689Y-14356D01*
X20354Y-14356D01*
X20261Y-14374D01*
X20243Y-14378D01*
X20149Y-14441D01*
X19238Y-15352D01*
X19175Y-15446D01*
X19153Y-15557D01*
X19153Y-15605D01*
X19112Y-15645D01*
X19074Y-15737D01*
X19074Y-15836D01*
X19074Y-16624D01*
X19112Y-16716D01*
X19183Y-16786D01*
X19274Y-16824D01*
X19374Y-16824D01*
X19610Y-16824D01*
X19692Y-16790D01*
X19775Y-16824D01*
X19830Y-16824D01*
X19892Y-16762D01*
X19892Y-16231D01*
X19885Y-16231D01*
X19885Y-16131D01*
X19892Y-16131D01*
X19892Y-15599D01*
X19851Y-15558D01*
X20474Y-14935D01*
X20758Y-14935D01*
X20238Y-15454D01*
X20175Y-15548D01*
X20172Y-15563D01*
X20110Y-15537D01*
X20055Y-15537D01*
X19992Y-15599D01*
X19992Y-16131D01*
X20000Y-16131D01*
X20000Y-16231D01*
X19992Y-16231D01*
X19992Y-16762D01*
X20055Y-16824D01*
X20110Y-16824D01*
X20158Y-16805D01*
X20175Y-16892D01*
X20238Y-16986D01*
X21409Y-18157D01*
X21409Y-18157D01*
X21503Y-18220D01*
X21614Y-18242D01*
X21735Y-18242D01*
X21806Y-18312D01*
X21962Y-18377D01*
X22131Y-18377D01*
X22287Y-18313D01*
X22407Y-18193D01*
X22472Y-18037D01*
X22472Y-17950D01*
X22552Y-17983D01*
X22721Y-17984D01*
X22878Y-17919D01*
X22884Y-17913D01*
X22997Y-17800D01*
X23040Y-17696D01*
X23117Y-17747D01*
X23228Y-17769D01*
X23704Y-17769D01*
X23774Y-17840D01*
X23930Y-17905D01*
X24099Y-17905D01*
X24198Y-17864D01*
X24198Y-18267D01*
X24220Y-18378D01*
X24283Y-18472D01*
X24920Y-19109D01*
X24809Y-19063D01*
X24708Y-19063D01*
X24535Y-18889D01*
X24441Y-18827D01*
X24330Y-18805D01*
X22884Y-18805D01*
X17117Y-18805D01*
X17117Y-18655D01*
X17053Y-18499D01*
X17041Y-18487D01*
X17041Y-17142D01*
X17053Y-17130D01*
X17117Y-16974D01*
X17117Y-16805D01*
X17053Y-16649D01*
X16933Y-16529D01*
X16777Y-16464D01*
X16608Y-16464D01*
X16452Y-16529D01*
X16332Y-16648D01*
X16267Y-16804D01*
X16267Y-16973D01*
X16332Y-17130D01*
X16344Y-17142D01*
X16344Y-18487D01*
X16332Y-18499D01*
X16267Y-18655D01*
X16267Y-18805D01*
X15469Y-18805D01*
X15398Y-18734D01*
X15242Y-18669D01*
X15073Y-18669D01*
X14917Y-18733D01*
X14797Y-18853D01*
X14732Y-19009D01*
X14732Y-19178D01*
X14796Y-19334D01*
X14916Y-19454D01*
X15072Y-19519D01*
X15241Y-19519D01*
X15397Y-19454D01*
X15469Y-19383D01*
X19097Y-19383D01*
X19074Y-19438D01*
X19074Y-19537D01*
X19074Y-19769D01*
X19137Y-19831D01*
X19392Y-19831D01*
X19392Y-19824D01*
X19492Y-19824D01*
X19492Y-19831D01*
X19500Y-19831D01*
X19500Y-19931D01*
X19492Y-19931D01*
X19492Y-19939D01*
X19392Y-19939D01*
X19392Y-19931D01*
X19137Y-19931D01*
X19074Y-19994D01*
X19074Y-20183D01*
X18032Y-20183D01*
X17921Y-20205D01*
X17828Y-20267D01*
X17354Y-20741D01*
X17291Y-20835D01*
X17269Y-20946D01*
X17269Y-22242D01*
X17291Y-22353D01*
X17354Y-22447D01*
X17746Y-22839D01*
X17748Y-22842D01*
X18023Y-23118D01*
X18023Y-23118D01*
X18117Y-23180D01*
X18228Y-23202D01*
X21299Y-23202D01*
X21299Y-23202D01*
X21409Y-23180D01*
X21503Y-23118D01*
X21779Y-22842D01*
X21779Y-22842D01*
X21779Y-22842D01*
X22089Y-22532D01*
X22121Y-22564D01*
X22277Y-22629D01*
X22446Y-22629D01*
X22602Y-22565D01*
X22722Y-22445D01*
X22787Y-22289D01*
X22787Y-22120D01*
X22786Y-22119D01*
X22798Y-22059D01*
X22810Y-22064D01*
X22884Y-22064D01*
X22897Y-22064D01*
X22959Y-22002D01*
X22959Y-21614D01*
X22951Y-21614D01*
X22951Y-21514D01*
X22959Y-21514D01*
X22959Y-21127D01*
X22897Y-21064D01*
X22884Y-21064D01*
X22810Y-21064D01*
X22759Y-21085D01*
X22724Y-21070D01*
X22884Y-20910D01*
X23147Y-20647D01*
X23147Y-20647D01*
X23210Y-20553D01*
X23220Y-20502D01*
X23274Y-20525D01*
X23374Y-20525D01*
X23610Y-20525D01*
X23692Y-20491D01*
X23775Y-20525D01*
X23830Y-20525D01*
X23892Y-20463D01*
X23892Y-19931D01*
X23885Y-19931D01*
X23885Y-19831D01*
X23892Y-19831D01*
X23892Y-19824D01*
X23992Y-19824D01*
X23992Y-19831D01*
X24248Y-19831D01*
X24311Y-19769D01*
X24311Y-19600D01*
X24363Y-19728D01*
X24483Y-19848D01*
X24639Y-19913D01*
X24808Y-19913D01*
X24964Y-19848D01*
X25084Y-19729D01*
X25149Y-19573D01*
X25149Y-19404D01*
X25103Y-19291D01*
X25307Y-19495D01*
X25307Y-19495D01*
X25401Y-19558D01*
X25511Y-19580D01*
X27283Y-19580D01*
X27283Y-19580D01*
X27394Y-19558D01*
X27488Y-19495D01*
X29201Y-17782D01*
X29201Y-17782D01*
X29264Y-17688D01*
X29286Y-17578D01*
X29286Y-17578D01*
X29286Y-17441D01*
X29346Y-17401D01*
X29732Y-17015D01*
X29732Y-17015D01*
X29774Y-16952D01*
X29794Y-16921D01*
X29794Y-16921D01*
X29807Y-16856D01*
X29887Y-16776D01*
X29952Y-16620D01*
X29952Y-16451D01*
X29888Y-16295D01*
X29768Y-16175D01*
X29612Y-16110D01*
X29443Y-16110D01*
X29287Y-16174D01*
X29286Y-16175D01*
X29286Y-13599D01*
X30017Y-12868D01*
X30036Y-12876D01*
X30253Y-12876D01*
X30454Y-12793D01*
X30607Y-12640D01*
X30691Y-12439D01*
X30691Y-12222D01*
X30691Y-24482D01*
X30608Y-24281D01*
X30455Y-24128D01*
X30267Y-24050D01*
X30289Y-23998D01*
X30289Y-23781D01*
X30206Y-23581D01*
X30053Y-23427D01*
X30033Y-23419D01*
X30033Y-22933D01*
X30033Y-22933D01*
X30011Y-22822D01*
X30011Y-22822D01*
X29990Y-22791D01*
X29948Y-22728D01*
X29948Y-22728D01*
X29167Y-21946D01*
X29167Y-20922D01*
X29186Y-20875D01*
X29186Y-20775D01*
X29186Y-20519D01*
X29166Y-20470D01*
X29186Y-20422D01*
X29186Y-20322D01*
X29186Y-20165D01*
X29186Y-20066D01*
X29148Y-19974D01*
X29078Y-19904D01*
X28986Y-19866D01*
X28969Y-19866D01*
X28907Y-19928D01*
X28907Y-19930D01*
X28881Y-19904D01*
X28789Y-19866D01*
X28779Y-19866D01*
X28769Y-19866D01*
X28680Y-19902D01*
X28592Y-19866D01*
X28582Y-19866D01*
X28572Y-19866D01*
X28483Y-19902D01*
X28395Y-19866D01*
X28385Y-19866D01*
X28375Y-19866D01*
X28283Y-19904D01*
X28257Y-19930D01*
X28257Y-19928D01*
X28194Y-19866D01*
X28178Y-19866D01*
X28086Y-19904D01*
X28015Y-19974D01*
X27977Y-20066D01*
X27977Y-20165D01*
X27977Y-20131D01*
X28040Y-20194D01*
X28237Y-20194D01*
X28257Y-20194D01*
X28316Y-20194D01*
X28434Y-20194D01*
X28454Y-20194D01*
X28513Y-20194D01*
X28533Y-20194D01*
X28631Y-20194D01*
X28651Y-20194D01*
X28710Y-20194D01*
X28730Y-20194D01*
X28848Y-20194D01*
X28907Y-20194D01*
X28927Y-20194D01*
X29124Y-20194D01*
X29186Y-20131D01*
X29186Y-20165D01*
X29186Y-20322D01*
X29186Y-20356D01*
X29124Y-20294D01*
X28927Y-20294D01*
X28907Y-20294D01*
X28848Y-20294D01*
X28730Y-20294D01*
X28710Y-20294D01*
X28651Y-20294D01*
X28631Y-20294D01*
X28533Y-20294D01*
X28513Y-20294D01*
X28454Y-20294D01*
X28434Y-20294D01*
X28316Y-20294D01*
X28257Y-20294D01*
X28237Y-20294D01*
X28040Y-20294D01*
X27977Y-20356D01*
X27977Y-20322D01*
X27977Y-20422D01*
X27997Y-20470D01*
X27977Y-20519D01*
X27977Y-20618D01*
X27977Y-20874D01*
X27997Y-20922D01*
X27997Y-21987D01*
X27130Y-22854D01*
X27067Y-22948D01*
X27045Y-23059D01*
X27045Y-23419D01*
X27026Y-23427D01*
X26872Y-23580D01*
X26789Y-23780D01*
X26789Y-23997D01*
X26871Y-24198D01*
X27025Y-24351D01*
X27214Y-24430D01*
X27185Y-24509D01*
X27196Y-24726D01*
X27258Y-24875D01*
X27353Y-24902D01*
X27665Y-24590D01*
X27659Y-24584D01*
X27730Y-24514D01*
X27736Y-24519D01*
X27741Y-24514D01*
X27812Y-24584D01*
X27806Y-24590D01*
X28049Y-24832D01*
X28076Y-24899D01*
X28229Y-25052D01*
X28430Y-25135D01*
X28647Y-25136D01*
X28847Y-25053D01*
X29001Y-24899D01*
X29029Y-24833D01*
X29271Y-24590D01*
X29266Y-24584D01*
X29336Y-24514D01*
X29342Y-24519D01*
X29348Y-24514D01*
X29418Y-24584D01*
X29413Y-24590D01*
X29655Y-24832D01*
X29682Y-24899D01*
X29836Y-25052D01*
X30036Y-25135D01*
X30253Y-25136D01*
X30406Y-25073D01*
X30271Y-25397D01*
X30271Y-25782D01*
X30418Y-26138D01*
X30690Y-26411D01*
X31046Y-26558D01*
X31431Y-26559D01*
X31788Y-26412D01*
X32060Y-26139D01*
X32208Y-25784D01*
X32208Y-25398D01*
X32061Y-25042D01*
X31942Y-24923D01*
X32098Y-24918D01*
X32308Y-24831D01*
X32352Y-24722D01*
X32352Y-27683D01*
X29654Y-27683D01*
X29654Y-24973D01*
X29342Y-24661D01*
X29030Y-24973D01*
X29057Y-25068D01*
X29261Y-25140D01*
X29478Y-25129D01*
X29627Y-25068D01*
X29654Y-24973D01*
X29654Y-27683D01*
X28048Y-27683D01*
X28048Y-24973D01*
X27736Y-24661D01*
X27424Y-24973D01*
X27451Y-25068D01*
X27655Y-25140D01*
X27872Y-25129D01*
X28021Y-25068D01*
X28048Y-24973D01*
X28048Y-27683D01*
X27208Y-27683D01*
X27208Y-25398D01*
X27061Y-25042D01*
X26789Y-24769D01*
X26433Y-24622D01*
X26095Y-24621D01*
X26130Y-24608D01*
X26226Y-24353D01*
X26217Y-24082D01*
X26130Y-23872D01*
X26021Y-23828D01*
X25950Y-23899D01*
X25950Y-23757D01*
X25907Y-23648D01*
X25652Y-23553D01*
X25381Y-23561D01*
X25171Y-23648D01*
X25127Y-23757D01*
X25539Y-24169D01*
X25950Y-23757D01*
X25950Y-23899D01*
X25610Y-24240D01*
X25615Y-24245D01*
X25544Y-24316D01*
X25539Y-24310D01*
X25468Y-24381D01*
X25468Y-24240D01*
X25057Y-23828D01*
X24952Y-23870D01*
X24952Y-21490D01*
X24888Y-21334D01*
X24768Y-21214D01*
X24612Y-21149D01*
X24443Y-21149D01*
X24374Y-21178D01*
X24371Y-21173D01*
X24311Y-21112D01*
X24311Y-20226D01*
X24311Y-19994D01*
X24248Y-19931D01*
X23992Y-19931D01*
X23992Y-20463D01*
X24055Y-20525D01*
X24110Y-20525D01*
X24202Y-20487D01*
X24272Y-20417D01*
X24310Y-20325D01*
X24311Y-20226D01*
X24311Y-21112D01*
X24301Y-21102D01*
X24209Y-21064D01*
X24110Y-21064D01*
X23810Y-21064D01*
X23759Y-21085D01*
X23709Y-21064D01*
X23610Y-21064D01*
X23310Y-21064D01*
X23259Y-21085D01*
X23209Y-21064D01*
X23122Y-21064D01*
X23059Y-21127D01*
X23059Y-21514D01*
X23067Y-21514D01*
X23067Y-21614D01*
X23059Y-21614D01*
X23059Y-22002D01*
X23122Y-22064D01*
X23209Y-22064D01*
X23236Y-22053D01*
X23236Y-22053D01*
X23236Y-22054D01*
X23236Y-22054D01*
X23236Y-22210D01*
X23300Y-22366D01*
X23420Y-22486D01*
X23576Y-22550D01*
X23745Y-22551D01*
X23901Y-22486D01*
X24021Y-22367D01*
X24086Y-22210D01*
X24086Y-22064D01*
X24209Y-22064D01*
X24301Y-22026D01*
X24361Y-21966D01*
X24442Y-21999D01*
X24611Y-21999D01*
X24767Y-21935D01*
X24887Y-21815D01*
X24952Y-21659D01*
X24952Y-21490D01*
X24952Y-23870D01*
X24947Y-23872D01*
X24852Y-24126D01*
X24861Y-24398D01*
X24947Y-24608D01*
X25057Y-24651D01*
X25468Y-24240D01*
X25468Y-24381D01*
X25127Y-24722D01*
X25171Y-24831D01*
X25425Y-24927D01*
X25537Y-24923D01*
X25419Y-25041D01*
X25271Y-25397D01*
X25271Y-25782D01*
X25418Y-26138D01*
X25690Y-26411D01*
X26046Y-26558D01*
X26431Y-26559D01*
X26788Y-26412D01*
X27060Y-26139D01*
X27208Y-25784D01*
X27208Y-25398D01*
X27208Y-27683D01*
X24409Y-27683D01*
X24409Y-25565D01*
X24409Y-25065D01*
X24371Y-24973D01*
X24358Y-24959D01*
X24358Y-24873D01*
X24401Y-24769D01*
X24401Y-24600D01*
X24336Y-24444D01*
X24217Y-24324D01*
X24061Y-24260D01*
X23892Y-24259D01*
X23735Y-24324D01*
X23616Y-24443D01*
X23551Y-24600D01*
X23551Y-24769D01*
X23590Y-24864D01*
X23310Y-24864D01*
X23259Y-24885D01*
X23209Y-24864D01*
X23122Y-24864D01*
X23059Y-24927D01*
X23059Y-25314D01*
X23067Y-25314D01*
X23067Y-25414D01*
X23059Y-25414D01*
X23059Y-25802D01*
X23122Y-25864D01*
X23209Y-25864D01*
X23259Y-25843D01*
X23309Y-25864D01*
X23409Y-25864D01*
X23709Y-25864D01*
X23759Y-25843D01*
X23809Y-25864D01*
X23909Y-25864D01*
X24209Y-25864D01*
X24301Y-25826D01*
X24371Y-25756D01*
X24409Y-25664D01*
X24409Y-25565D01*
X24409Y-27683D01*
X22959Y-27683D01*
X22959Y-25802D01*
X22959Y-25414D01*
X22951Y-25414D01*
X22951Y-25314D01*
X22959Y-25314D01*
X22959Y-24927D01*
X22897Y-24864D01*
X22884Y-24864D01*
X22810Y-24864D01*
X22759Y-24885D01*
X22709Y-24864D01*
X22610Y-24864D01*
X22310Y-24864D01*
X22259Y-24885D01*
X22209Y-24864D01*
X22122Y-24864D01*
X22059Y-24927D01*
X22059Y-25314D01*
X22067Y-25314D01*
X22067Y-25414D01*
X22059Y-25414D01*
X22059Y-25802D01*
X22122Y-25864D01*
X22209Y-25864D01*
X22259Y-25843D01*
X22309Y-25864D01*
X22409Y-25864D01*
X22709Y-25864D01*
X22759Y-25843D01*
X22810Y-25864D01*
X22884Y-25864D01*
X22897Y-25864D01*
X22959Y-25802D01*
X22959Y-27683D01*
X22884Y-27683D01*
X21959Y-27683D01*
X21959Y-25802D01*
X21959Y-25414D01*
X21951Y-25414D01*
X21951Y-25314D01*
X21959Y-25314D01*
X21959Y-24927D01*
X21897Y-24864D01*
X21810Y-24864D01*
X21759Y-24885D01*
X21709Y-24864D01*
X21610Y-24864D01*
X21310Y-24864D01*
X21259Y-24885D01*
X21209Y-24864D01*
X21122Y-24864D01*
X21059Y-24927D01*
X21059Y-25314D01*
X21067Y-25314D01*
X21067Y-25414D01*
X21059Y-25414D01*
X21059Y-25802D01*
X21122Y-25864D01*
X21209Y-25864D01*
X21259Y-25843D01*
X21309Y-25864D01*
X21409Y-25864D01*
X21709Y-25864D01*
X21759Y-25843D01*
X21810Y-25864D01*
X21897Y-25864D01*
X21959Y-25802D01*
X21959Y-27683D01*
X20959Y-27683D01*
X20959Y-25802D01*
X20959Y-25414D01*
X20951Y-25414D01*
X20951Y-25314D01*
X20959Y-25314D01*
X20959Y-24927D01*
X20897Y-24864D01*
X20810Y-24864D01*
X20759Y-24885D01*
X20709Y-24864D01*
X20610Y-24864D01*
X20310Y-24864D01*
X20259Y-24885D01*
X20209Y-24864D01*
X20122Y-24864D01*
X20059Y-24927D01*
X20059Y-25314D01*
X20067Y-25314D01*
X20067Y-25414D01*
X20059Y-25414D01*
X20059Y-25802D01*
X20122Y-25864D01*
X20209Y-25864D01*
X20259Y-25843D01*
X20309Y-25864D01*
X20409Y-25864D01*
X20709Y-25864D01*
X20759Y-25843D01*
X20810Y-25864D01*
X20897Y-25864D01*
X20959Y-25802D01*
X20959Y-27683D01*
X19959Y-27683D01*
X19959Y-25802D01*
X19959Y-25414D01*
X19959Y-25314D01*
X19959Y-24927D01*
X19897Y-24864D01*
X19810Y-24864D01*
X19759Y-24885D01*
X19709Y-24864D01*
X19622Y-24864D01*
X19559Y-24927D01*
X19559Y-25314D01*
X19672Y-25314D01*
X19847Y-25314D01*
X19959Y-25314D01*
X19959Y-25414D01*
X19847Y-25414D01*
X19672Y-25414D01*
X19559Y-25414D01*
X19559Y-25802D01*
X19622Y-25864D01*
X19709Y-25864D01*
X19759Y-25843D01*
X19810Y-25864D01*
X19897Y-25864D01*
X19959Y-25802D01*
X19959Y-27683D01*
X19459Y-27683D01*
X19459Y-25802D01*
X19459Y-25414D01*
X19459Y-25314D01*
X19459Y-24927D01*
X19397Y-24864D01*
X19310Y-24864D01*
X19259Y-24885D01*
X19209Y-24864D01*
X19122Y-24864D01*
X19059Y-24927D01*
X19059Y-25314D01*
X19172Y-25314D01*
X19347Y-25314D01*
X19459Y-25314D01*
X19459Y-25414D01*
X19347Y-25414D01*
X19172Y-25414D01*
X19059Y-25414D01*
X19059Y-25802D01*
X19122Y-25864D01*
X19209Y-25864D01*
X19259Y-25843D01*
X19310Y-25864D01*
X19397Y-25864D01*
X19459Y-25802D01*
X19459Y-27683D01*
X18959Y-27683D01*
X18959Y-25802D01*
X18959Y-25414D01*
X18959Y-25314D01*
X18959Y-24927D01*
X18897Y-24864D01*
X18810Y-24864D01*
X18759Y-24885D01*
X18709Y-24864D01*
X18622Y-24864D01*
X18559Y-24927D01*
X18559Y-25314D01*
X18672Y-25314D01*
X18847Y-25314D01*
X18959Y-25314D01*
X18959Y-25414D01*
X18847Y-25414D01*
X18672Y-25414D01*
X18559Y-25414D01*
X18559Y-25802D01*
X18622Y-25864D01*
X18709Y-25864D01*
X18759Y-25843D01*
X18810Y-25864D01*
X18897Y-25864D01*
X18959Y-25802D01*
X18959Y-27683D01*
X18459Y-27683D01*
X18459Y-25802D01*
X18459Y-25414D01*
X18459Y-25314D01*
X18459Y-24927D01*
X18397Y-24864D01*
X18310Y-24864D01*
X18218Y-24902D01*
X18148Y-24972D01*
X18109Y-25064D01*
X18109Y-25164D01*
X18109Y-25252D01*
X18172Y-25314D01*
X18459Y-25314D01*
X18459Y-25414D01*
X18172Y-25414D01*
X18109Y-25477D01*
X18109Y-25565D01*
X18109Y-25664D01*
X18148Y-25756D01*
X18218Y-25826D01*
X18310Y-25864D01*
X18397Y-25864D01*
X18459Y-25802D01*
X18459Y-27683D01*
X13454Y-27683D01*
X13454Y-21424D01*
X13445Y-21152D01*
X13359Y-20943D01*
X13249Y-20899D01*
X12838Y-21311D01*
X13249Y-21722D01*
X13359Y-21678D01*
X13454Y-21424D01*
X13454Y-27683D01*
X13179Y-27683D01*
X13179Y-21793D01*
X12767Y-21381D01*
X12356Y-21793D01*
X12399Y-21902D01*
X12654Y-21998D01*
X12925Y-21989D01*
X13135Y-21902D01*
X13179Y-21793D01*
X13179Y-27683D01*
X12454Y-27683D01*
X12454Y-25700D01*
X12237Y-25174D01*
X11835Y-24771D01*
X11309Y-24553D01*
X10740Y-24552D01*
X10214Y-24770D01*
X9811Y-25172D01*
X9592Y-25698D01*
X9592Y-26267D01*
X9809Y-26793D01*
X10211Y-27196D01*
X10737Y-27415D01*
X11307Y-27415D01*
X11833Y-27198D01*
X12236Y-26795D01*
X12454Y-26270D01*
X12454Y-25700D01*
X12454Y-27683D01*
X9324Y-27683D01*
X9324Y-16505D01*
X9716Y-16897D01*
X9716Y-16897D01*
X9810Y-16960D01*
X9921Y-16982D01*
X11882Y-16982D01*
X11867Y-17025D01*
X11878Y-17242D01*
X11939Y-17391D01*
X12034Y-17418D01*
X12346Y-17106D01*
X12341Y-17100D01*
X12411Y-17030D01*
X12417Y-17035D01*
X12422Y-17030D01*
X12493Y-17100D01*
X12488Y-17106D01*
X12493Y-17111D01*
X12422Y-17182D01*
X12417Y-17177D01*
X12174Y-17419D01*
X12108Y-17446D01*
X11955Y-17600D01*
X11871Y-17800D01*
X11871Y-18017D01*
X11954Y-18218D01*
X12107Y-18371D01*
X12174Y-18399D01*
X12417Y-18641D01*
X12422Y-18636D01*
X12493Y-18707D01*
X12488Y-18712D01*
X12493Y-18718D01*
X12422Y-18788D01*
X12417Y-18783D01*
X12346Y-18854D01*
X12346Y-18712D01*
X12034Y-18400D01*
X11939Y-18427D01*
X11867Y-18631D01*
X11878Y-18848D01*
X11939Y-18997D01*
X12034Y-19024D01*
X12346Y-18712D01*
X12346Y-18854D01*
X12174Y-19025D01*
X12108Y-19053D01*
X11955Y-19206D01*
X11871Y-19406D01*
X11871Y-19623D01*
X11934Y-19776D01*
X11610Y-19641D01*
X11225Y-19641D01*
X10869Y-19788D01*
X10596Y-20060D01*
X10448Y-20416D01*
X10448Y-20802D01*
X10595Y-21158D01*
X10867Y-21430D01*
X11223Y-21578D01*
X11609Y-21578D01*
X11965Y-21431D01*
X12084Y-21312D01*
X12089Y-21469D01*
X12176Y-21678D01*
X12285Y-21722D01*
X12697Y-21311D01*
X12691Y-21305D01*
X12762Y-21234D01*
X12767Y-21240D01*
X13179Y-20828D01*
X13135Y-20719D01*
X12881Y-20623D01*
X12609Y-20632D01*
X12399Y-20719D01*
X12385Y-20755D01*
X12385Y-20418D01*
X12238Y-20062D01*
X12187Y-20011D01*
X12308Y-20061D01*
X12525Y-20061D01*
X12725Y-19978D01*
X12879Y-19825D01*
X12957Y-19638D01*
X13009Y-19659D01*
X13226Y-19659D01*
X13426Y-19576D01*
X13580Y-19423D01*
X13663Y-19223D01*
X13663Y-19006D01*
X13580Y-18805D01*
X13487Y-18712D01*
X13580Y-18620D01*
X13663Y-18420D01*
X13663Y-18202D01*
X13580Y-18002D01*
X13487Y-17909D01*
X13580Y-17817D01*
X13663Y-17616D01*
X13663Y-17399D01*
X13580Y-17199D01*
X13487Y-17106D01*
X13580Y-17014D01*
X13663Y-16813D01*
X13663Y-16596D01*
X13580Y-16396D01*
X13454Y-16269D01*
X13454Y-15022D01*
X13445Y-14751D01*
X13359Y-14541D01*
X13249Y-14497D01*
X13179Y-14568D01*
X13179Y-14427D01*
X13135Y-14318D01*
X12881Y-14222D01*
X12609Y-14231D01*
X12399Y-14318D01*
X12356Y-14427D01*
X12767Y-14838D01*
X13179Y-14427D01*
X13179Y-14568D01*
X12838Y-14909D01*
X13249Y-15320D01*
X13359Y-15277D01*
X13454Y-15022D01*
X13454Y-16269D01*
X13427Y-16242D01*
X13227Y-16159D01*
X13010Y-16159D01*
X12990Y-16167D01*
X12838Y-16015D01*
X12744Y-15953D01*
X12633Y-15931D01*
X12362Y-15931D01*
X12330Y-15937D01*
X12385Y-15803D01*
X12385Y-15466D01*
X12399Y-15500D01*
X12654Y-15596D01*
X12925Y-15587D01*
X13135Y-15500D01*
X13179Y-15391D01*
X12767Y-14980D01*
X12762Y-14985D01*
X12691Y-14915D01*
X12697Y-14909D01*
X12285Y-14497D01*
X12176Y-14541D01*
X12080Y-14795D01*
X12084Y-14907D01*
X11966Y-14789D01*
X11610Y-14641D01*
X11284Y-14641D01*
X12703Y-13222D01*
X20210Y-13222D01*
X20619Y-13632D01*
X20619Y-13632D01*
X20732Y-13707D01*
X20866Y-13734D01*
X21099Y-13734D01*
X21127Y-13802D01*
X21197Y-13872D01*
X21289Y-13910D01*
X21389Y-13910D01*
X21739Y-13910D01*
X21831Y-13872D01*
X21889Y-13814D01*
X21948Y-13872D01*
X22040Y-13910D01*
X22152Y-13910D01*
X22214Y-13848D01*
X22214Y-13435D01*
X22206Y-13435D01*
X22206Y-13335D01*
X22214Y-13335D01*
X22214Y-12923D01*
X22152Y-12860D01*
X22040Y-12860D01*
X21948Y-12898D01*
X21889Y-12957D01*
X21831Y-12899D01*
X21739Y-12860D01*
X21640Y-12860D01*
X21290Y-12860D01*
X21198Y-12898D01*
X21127Y-12969D01*
X21099Y-13037D01*
X21010Y-13037D01*
X20600Y-12627D01*
X20487Y-12552D01*
X20465Y-12547D01*
X20354Y-12525D01*
X20354Y-12525D01*
X12559Y-12525D01*
X12425Y-12552D01*
X12312Y-12627D01*
X12312Y-12627D01*
X9774Y-15165D01*
X9758Y-15165D01*
X9738Y-15173D01*
X9738Y-15001D01*
X15789Y-8950D01*
X30944Y-8950D01*
X35367Y-8950D01*
X34883Y-9434D01*
X34845Y-9418D01*
X34614Y-9418D01*
X34401Y-9506D01*
X34237Y-9669D01*
X34149Y-9882D01*
X34149Y-10113D01*
X34237Y-10326D01*
X34400Y-10489D01*
X34420Y-10498D01*
X34401Y-10506D01*
X34237Y-10669D01*
X34149Y-10882D01*
X34149Y-11113D01*
X34237Y-11326D01*
X34400Y-11489D01*
X34613Y-11578D01*
X34844Y-11578D01*
X35057Y-11490D01*
X35220Y-11327D01*
X35309Y-11114D01*
X35309Y-10883D01*
X35221Y-10670D01*
X35058Y-10506D01*
X35037Y-10498D01*
X35057Y-10490D01*
X35220Y-10327D01*
X35309Y-10114D01*
X35309Y-9883D01*
X35293Y-9843D01*
X35713Y-9423D01*
X37358Y-9423D01*
X37157Y-9506D01*
X36993Y-9669D01*
X36905Y-9882D01*
X36905Y-10113D01*
X36993Y-10326D01*
X37156Y-10489D01*
X37176Y-10498D01*
X37157Y-10506D01*
X36993Y-10669D01*
X36905Y-10882D01*
X36905Y-11113D01*
X36993Y-11326D01*
X37156Y-11489D01*
X37369Y-11578D01*
X37600Y-11578D01*
X37813Y-11490D01*
X37976Y-11327D01*
X38065Y-11114D01*
X38065Y-10883D01*
X37977Y-10670D01*
X37814Y-10506D01*
X37793Y-10498D01*
X37813Y-10490D01*
X37976Y-10327D01*
X38065Y-10114D01*
X38065Y-9883D01*
X38049Y-9843D01*
X38312Y-9580D01*
X39838Y-9580D01*
X39749Y-9669D01*
X39661Y-9882D01*
X39661Y-10113D01*
X39749Y-10326D01*
X39912Y-10489D01*
X39932Y-10498D01*
X39913Y-10506D01*
X39749Y-10669D01*
X39661Y-10882D01*
X39661Y-11113D01*
X39749Y-11326D01*
X39912Y-11489D01*
X40125Y-11578D01*
X40356Y-11578D01*
X40569Y-11490D01*
X40732Y-11327D01*
X40821Y-11114D01*
X40821Y-10883D01*
X40733Y-10670D01*
X40570Y-10506D01*
X40549Y-10498D01*
X40569Y-10490D01*
X40732Y-10327D01*
X40821Y-10114D01*
X40821Y-9883D01*
X40804Y-9843D01*
X40871Y-9777D01*
X42460Y-9777D01*
X42417Y-9882D01*
X42416Y-10113D01*
X42505Y-10326D01*
X42668Y-10489D01*
X42688Y-10498D01*
X42668Y-10506D01*
X42505Y-10669D01*
X42417Y-10882D01*
X42416Y-11113D01*
X42505Y-11326D01*
X42668Y-11489D01*
X42881Y-11578D01*
X43111Y-11578D01*
X43325Y-11490D01*
X43372Y-11443D01*
X43372Y-11456D01*
X43394Y-11567D01*
X43456Y-11661D01*
X45091Y-13295D01*
X45091Y-13295D01*
X45185Y-13358D01*
X45185Y-13358D01*
X45203Y-13362D01*
X45296Y-13380D01*
X46279Y-13380D01*
X46326Y-13400D01*
X46425Y-13400D01*
X46681Y-13400D01*
X46730Y-13380D01*
X46779Y-13400D01*
X46878Y-13400D01*
X46844Y-13400D01*
X46907Y-13337D01*
X46907Y-13140D01*
X46907Y-13120D01*
X46907Y-13061D01*
X46907Y-12943D01*
X46907Y-12923D01*
X46907Y-12864D01*
X46907Y-12844D01*
X46907Y-12746D01*
X46907Y-12726D01*
X46907Y-12667D01*
X46907Y-12647D01*
X46907Y-12529D01*
X46907Y-12470D01*
X46907Y-12450D01*
X46907Y-12442D01*
X47007Y-12442D01*
X47007Y-12450D01*
X47007Y-12470D01*
X47007Y-12529D01*
X47007Y-12647D01*
X47007Y-12667D01*
X47007Y-12726D01*
X47007Y-12746D01*
X47007Y-12844D01*
X47007Y-12864D01*
X47007Y-12923D01*
X47007Y-12943D01*
X47007Y-13061D01*
X47007Y-13120D01*
X47007Y-13140D01*
X47007Y-13337D01*
X47069Y-13400D01*
X47035Y-13400D01*
X47135Y-13400D01*
X47227Y-13362D01*
X47297Y-13291D01*
X47335Y-13199D01*
X47335Y-13183D01*
X47272Y-13120D01*
X47271Y-13120D01*
X47297Y-13094D01*
X47335Y-13002D01*
X47335Y-12992D01*
X47335Y-12982D01*
X47298Y-12894D01*
X47335Y-12805D01*
X47335Y-12795D01*
X47335Y-12785D01*
X47298Y-12697D01*
X47335Y-12608D01*
X47335Y-12598D01*
X47335Y-12588D01*
X47297Y-12496D01*
X47271Y-12470D01*
X47272Y-12470D01*
X47304Y-12438D01*
X47466Y-12600D01*
X47466Y-17163D01*
X45613Y-19016D01*
X45613Y-17588D01*
X45602Y-17371D01*
X45540Y-17222D01*
X45445Y-17195D01*
X45133Y-17507D01*
X45445Y-17819D01*
X45540Y-17793D01*
X45613Y-17588D01*
X45613Y-19016D01*
X45604Y-19025D01*
X45602Y-18978D01*
X45540Y-18829D01*
X45445Y-18802D01*
X45133Y-19114D01*
X45139Y-19119D01*
X45068Y-19190D01*
X45062Y-19184D01*
X45057Y-19190D01*
X44986Y-19119D01*
X44992Y-19114D01*
X44986Y-19108D01*
X45057Y-19037D01*
X45062Y-19043D01*
X45305Y-18801D01*
X45371Y-18773D01*
X45525Y-18620D01*
X45608Y-18420D01*
X45608Y-18202D01*
X45525Y-18002D01*
X45372Y-17848D01*
X45305Y-17821D01*
X45062Y-17578D01*
X45057Y-17584D01*
X44986Y-17513D01*
X44992Y-17507D01*
X44986Y-17502D01*
X45057Y-17431D01*
X45062Y-17437D01*
X45305Y-17194D01*
X45371Y-17167D01*
X45525Y-17014D01*
X45608Y-16813D01*
X45608Y-16596D01*
X45545Y-16444D01*
X45869Y-16578D01*
X46254Y-16578D01*
X46610Y-16431D01*
X46883Y-16159D01*
X47031Y-15803D01*
X47031Y-15418D01*
X46884Y-15062D01*
X46612Y-14789D01*
X46256Y-14641D01*
X45871Y-14641D01*
X45515Y-14788D01*
X45395Y-14907D01*
X45390Y-14751D01*
X45303Y-14541D01*
X45194Y-14497D01*
X45124Y-14568D01*
X45124Y-14427D01*
X45080Y-14318D01*
X44826Y-14222D01*
X44554Y-14231D01*
X44344Y-14318D01*
X44301Y-14427D01*
X44712Y-14838D01*
X45124Y-14427D01*
X45124Y-14568D01*
X44783Y-14909D01*
X44788Y-14915D01*
X44718Y-14985D01*
X44712Y-14980D01*
X44641Y-15050D01*
X44641Y-14909D01*
X44230Y-14497D01*
X44121Y-14541D01*
X44025Y-14795D01*
X44034Y-15067D01*
X44121Y-15277D01*
X44230Y-15320D01*
X44641Y-14909D01*
X44641Y-15050D01*
X44301Y-15391D01*
X44344Y-15500D01*
X44599Y-15596D01*
X44870Y-15587D01*
X45080Y-15500D01*
X45094Y-15465D01*
X45094Y-15802D01*
X45241Y-16158D01*
X45292Y-16209D01*
X45171Y-16159D01*
X44954Y-16159D01*
X44754Y-16242D01*
X44600Y-16395D01*
X44523Y-16582D01*
X44471Y-16560D01*
X44254Y-16560D01*
X44053Y-16643D01*
X43900Y-16796D01*
X43891Y-16816D01*
X41240Y-16816D01*
X41129Y-16838D01*
X41098Y-16859D01*
X41035Y-16901D01*
X38659Y-19277D01*
X37386Y-19277D01*
X37407Y-19256D01*
X37472Y-19100D01*
X37472Y-18931D01*
X37407Y-18775D01*
X37288Y-18655D01*
X37132Y-18590D01*
X36963Y-18590D01*
X36914Y-18610D01*
X36914Y-18128D01*
X36876Y-18036D01*
X36806Y-17965D01*
X36714Y-17927D01*
X36614Y-17927D01*
X36364Y-17927D01*
X36289Y-17958D01*
X36213Y-17927D01*
X36151Y-17927D01*
X36089Y-17990D01*
X36089Y-18377D01*
X36097Y-18377D01*
X36097Y-18477D01*
X36089Y-18477D01*
X36089Y-18485D01*
X35989Y-18485D01*
X35989Y-18477D01*
X35989Y-18377D01*
X35989Y-17990D01*
X35926Y-17927D01*
X35864Y-17927D01*
X35789Y-17958D01*
X35713Y-17927D01*
X35651Y-17927D01*
X35589Y-17990D01*
X35589Y-18377D01*
X35726Y-18377D01*
X35851Y-18377D01*
X35989Y-18377D01*
X35989Y-18477D01*
X35851Y-18477D01*
X35726Y-18477D01*
X35589Y-18477D01*
X35589Y-18485D01*
X35489Y-18485D01*
X35489Y-18477D01*
X35481Y-18477D01*
X35481Y-18377D01*
X35489Y-18377D01*
X35489Y-17990D01*
X35426Y-17927D01*
X35364Y-17927D01*
X35289Y-17958D01*
X35214Y-17927D01*
X35114Y-17927D01*
X34864Y-17927D01*
X34789Y-17958D01*
X34713Y-17927D01*
X34651Y-17927D01*
X34589Y-17990D01*
X34589Y-18377D01*
X34597Y-18377D01*
X34597Y-18477D01*
X34589Y-18477D01*
X34589Y-18485D01*
X34489Y-18485D01*
X34489Y-18477D01*
X34489Y-18377D01*
X34489Y-17990D01*
X34426Y-17927D01*
X34364Y-17927D01*
X34289Y-17958D01*
X34213Y-17927D01*
X34151Y-17927D01*
X34089Y-17990D01*
X34089Y-18377D01*
X34226Y-18377D01*
X34351Y-18377D01*
X34489Y-18377D01*
X34489Y-18477D01*
X34351Y-18477D01*
X34226Y-18477D01*
X34089Y-18477D01*
X34089Y-18485D01*
X33989Y-18485D01*
X33989Y-18477D01*
X33981Y-18477D01*
X33981Y-18377D01*
X33989Y-18377D01*
X33989Y-17990D01*
X33926Y-17927D01*
X33887Y-17927D01*
X33887Y-17894D01*
X33903Y-17878D01*
X33968Y-17722D01*
X33968Y-17553D01*
X33903Y-17397D01*
X33784Y-17277D01*
X33628Y-17212D01*
X33459Y-17212D01*
X33302Y-17277D01*
X33183Y-17396D01*
X33118Y-17552D01*
X33118Y-17721D01*
X33182Y-17878D01*
X33190Y-17886D01*
X33190Y-18063D01*
X33164Y-18127D01*
X33164Y-18227D01*
X33164Y-18727D01*
X33190Y-18791D01*
X33190Y-18893D01*
X33190Y-18893D01*
X33213Y-19004D01*
X33217Y-19027D01*
X33292Y-19140D01*
X33415Y-19262D01*
X33415Y-19262D01*
X33528Y-19337D01*
X33661Y-19364D01*
X33661Y-19364D01*
X33661Y-19364D01*
X34163Y-19364D01*
X33992Y-19535D01*
X33892Y-19535D01*
X33735Y-19600D01*
X33616Y-19719D01*
X33603Y-19750D01*
X33188Y-19750D01*
X33078Y-19772D01*
X33047Y-19792D01*
X32984Y-19834D01*
X32669Y-20149D01*
X32628Y-20211D01*
X32628Y-12093D01*
X32619Y-11822D01*
X32532Y-11612D01*
X32423Y-11568D01*
X32352Y-11639D01*
X32352Y-11498D01*
X32308Y-11388D01*
X32054Y-11293D01*
X31942Y-11296D01*
X32060Y-11179D01*
X32208Y-10823D01*
X32208Y-10438D01*
X32061Y-10082D01*
X31789Y-9809D01*
X31433Y-9661D01*
X31048Y-9661D01*
X30692Y-9808D01*
X30419Y-10080D01*
X30271Y-10436D01*
X30271Y-10821D01*
X30418Y-11177D01*
X30690Y-11450D01*
X31046Y-11598D01*
X31384Y-11598D01*
X31349Y-11612D01*
X31253Y-11866D01*
X31262Y-12138D01*
X31349Y-12348D01*
X31458Y-12391D01*
X31870Y-11980D01*
X31864Y-11974D01*
X31935Y-11904D01*
X31940Y-11909D01*
X32352Y-11498D01*
X32352Y-11639D01*
X32011Y-11980D01*
X32423Y-12391D01*
X32532Y-12348D01*
X32628Y-12093D01*
X32628Y-20211D01*
X32606Y-20243D01*
X32584Y-20354D01*
X32584Y-23057D01*
X32606Y-23168D01*
X32669Y-23261D01*
X34001Y-24594D01*
X34001Y-24594D01*
X34064Y-24636D01*
X34095Y-24656D01*
X34095Y-24656D01*
X34206Y-24678D01*
X34206Y-24678D01*
X36045Y-24678D01*
X36093Y-24698D01*
X36192Y-24698D01*
X36448Y-24698D01*
X36497Y-24678D01*
X36546Y-24698D01*
X36645Y-24698D01*
X36901Y-24698D01*
X36949Y-24678D01*
X37539Y-24678D01*
X37539Y-24678D01*
X37578Y-24671D01*
X37578Y-24671D01*
X37592Y-24676D01*
X37761Y-24677D01*
X37917Y-24612D01*
X38037Y-24493D01*
X38102Y-24336D01*
X38102Y-24167D01*
X38037Y-24011D01*
X37918Y-23891D01*
X37762Y-23827D01*
X37592Y-23826D01*
X37436Y-23891D01*
X37425Y-23903D01*
X37102Y-23903D01*
X37102Y-23886D01*
X37064Y-23795D01*
X37038Y-23768D01*
X37039Y-23768D01*
X37102Y-23706D01*
X37102Y-23689D01*
X37064Y-23598D01*
X36993Y-23527D01*
X36914Y-23494D01*
X36914Y-20828D01*
X36914Y-20427D01*
X36914Y-20327D01*
X36876Y-20235D01*
X36805Y-20165D01*
X36713Y-20127D01*
X36651Y-20127D01*
X36589Y-20190D01*
X36589Y-20577D01*
X36851Y-20577D01*
X36914Y-20515D01*
X36914Y-20427D01*
X36914Y-20828D01*
X36914Y-20740D01*
X36851Y-20677D01*
X36589Y-20677D01*
X36589Y-21065D01*
X36651Y-21127D01*
X36713Y-21127D01*
X36805Y-21089D01*
X36876Y-21019D01*
X36914Y-20927D01*
X36914Y-20828D01*
X36914Y-23494D01*
X36902Y-23489D01*
X36802Y-23489D01*
X36836Y-23489D01*
X36774Y-23551D01*
X36774Y-23686D01*
X36674Y-23686D01*
X36674Y-23551D01*
X36611Y-23489D01*
X36645Y-23489D01*
X36546Y-23489D01*
X36497Y-23509D01*
X36489Y-23506D01*
X36489Y-21065D01*
X36489Y-20677D01*
X36481Y-20677D01*
X36481Y-20577D01*
X36489Y-20577D01*
X36489Y-20190D01*
X36426Y-20127D01*
X36364Y-20127D01*
X36289Y-20158D01*
X36214Y-20127D01*
X36114Y-20127D01*
X35864Y-20127D01*
X35789Y-20158D01*
X35713Y-20127D01*
X35651Y-20127D01*
X35589Y-20190D01*
X35589Y-20577D01*
X35597Y-20577D01*
X35597Y-20677D01*
X35589Y-20677D01*
X35589Y-21065D01*
X35651Y-21127D01*
X35713Y-21127D01*
X35789Y-21096D01*
X35864Y-21127D01*
X35963Y-21127D01*
X36213Y-21127D01*
X36289Y-21096D01*
X36364Y-21127D01*
X36426Y-21127D01*
X36489Y-21065D01*
X36489Y-23506D01*
X36449Y-23489D01*
X36349Y-23489D01*
X36093Y-23489D01*
X36045Y-23509D01*
X35489Y-23509D01*
X35489Y-21065D01*
X35489Y-20677D01*
X35489Y-20577D01*
X35489Y-20190D01*
X35426Y-20127D01*
X35364Y-20127D01*
X35289Y-20158D01*
X35213Y-20127D01*
X35151Y-20127D01*
X35089Y-20190D01*
X35089Y-20577D01*
X35226Y-20577D01*
X35351Y-20577D01*
X35489Y-20577D01*
X35489Y-20677D01*
X35351Y-20677D01*
X35226Y-20677D01*
X35089Y-20677D01*
X35089Y-21065D01*
X35151Y-21127D01*
X35213Y-21127D01*
X35289Y-21096D01*
X35364Y-21127D01*
X35426Y-21127D01*
X35489Y-21065D01*
X35489Y-23509D01*
X34508Y-23509D01*
X33753Y-22754D01*
X33753Y-22550D01*
X33903Y-22551D01*
X34059Y-22486D01*
X34178Y-22367D01*
X34243Y-22210D01*
X34243Y-22110D01*
X34743Y-21610D01*
X34743Y-21610D01*
X34785Y-21547D01*
X34806Y-21516D01*
X34806Y-21516D01*
X34828Y-21405D01*
X34828Y-21405D01*
X34828Y-21112D01*
X34864Y-21127D01*
X34926Y-21127D01*
X34989Y-21065D01*
X34989Y-20677D01*
X34981Y-20677D01*
X34981Y-20577D01*
X34989Y-20577D01*
X34989Y-20190D01*
X34926Y-20127D01*
X34864Y-20127D01*
X34789Y-20158D01*
X34714Y-20127D01*
X34638Y-20127D01*
X34752Y-20013D01*
X38844Y-20013D01*
X38844Y-20013D01*
X38955Y-19991D01*
X39049Y-19929D01*
X39976Y-19001D01*
X43891Y-19001D01*
X43899Y-19021D01*
X43992Y-19114D01*
X43900Y-19206D01*
X43816Y-19406D01*
X43816Y-19623D01*
X43899Y-19824D01*
X44052Y-19977D01*
X44253Y-20061D01*
X44470Y-20061D01*
X44617Y-20000D01*
X44685Y-20013D01*
X45289Y-20013D01*
X45242Y-20060D01*
X45094Y-20416D01*
X45094Y-20754D01*
X45080Y-20719D01*
X44826Y-20623D01*
X44554Y-20632D01*
X44344Y-20719D01*
X44301Y-20828D01*
X44712Y-21240D01*
X44718Y-21234D01*
X44788Y-21305D01*
X44783Y-21311D01*
X45194Y-21722D01*
X45303Y-21678D01*
X45399Y-21424D01*
X45396Y-21313D01*
X45513Y-21430D01*
X45869Y-21578D01*
X46254Y-21578D01*
X46610Y-21431D01*
X46883Y-21159D01*
X47031Y-20803D01*
X47031Y-20418D01*
X46884Y-20062D01*
X46612Y-19789D01*
X46256Y-19641D01*
X45871Y-19641D01*
X45761Y-19686D01*
X47960Y-17488D01*
X47960Y-17488D01*
X48023Y-17394D01*
X48045Y-17283D01*
X48045Y-17283D01*
X48045Y-12480D01*
X48023Y-12369D01*
X47960Y-12275D01*
X47960Y-12275D01*
X47888Y-12203D01*
X47888Y-9952D01*
X47670Y-9426D01*
X47268Y-9023D01*
X46742Y-8805D01*
X46173Y-8804D01*
X45647Y-9022D01*
X45244Y-9424D01*
X45025Y-9950D01*
X45025Y-10519D01*
X45242Y-11045D01*
X45644Y-11448D01*
X46170Y-11667D01*
X46740Y-11667D01*
X47266Y-11450D01*
X47669Y-11047D01*
X47887Y-10522D01*
X47888Y-9952D01*
X47888Y-12203D01*
X47488Y-11803D01*
X47394Y-11740D01*
X47283Y-11718D01*
X45828Y-11718D01*
X44935Y-10825D01*
X44935Y-9763D01*
X44935Y-9763D01*
X44913Y-9653D01*
X44913Y-9653D01*
X44892Y-9621D01*
X44850Y-9559D01*
X44850Y-9559D01*
X43828Y-8537D01*
X48155Y-8537D01*
X48155Y-27683D01*
X48155Y-27683D01*
G37*
G54D30*
X48155Y-27683D02*
X47888Y-27683D01*
X47888Y-25700D01*
X47670Y-25174D01*
X47268Y-24771D01*
X46742Y-24553D01*
X46173Y-24552D01*
X45647Y-24770D01*
X45244Y-25172D01*
X45124Y-25461D01*
X45124Y-21793D01*
X44712Y-21381D01*
X44641Y-21452D01*
X44641Y-21311D01*
X44230Y-20899D01*
X44121Y-20943D01*
X44025Y-21197D01*
X44034Y-21469D01*
X44121Y-21678D01*
X44230Y-21722D01*
X44641Y-21311D01*
X44641Y-21452D01*
X44301Y-21793D01*
X44344Y-21902D01*
X44599Y-21998D01*
X44870Y-21989D01*
X45080Y-21902D01*
X45124Y-21793D01*
X45124Y-25461D01*
X45025Y-25698D01*
X45025Y-26267D01*
X45242Y-26793D01*
X45644Y-27196D01*
X46170Y-27415D01*
X46740Y-27415D01*
X47266Y-27198D01*
X47669Y-26795D01*
X47887Y-26270D01*
X47888Y-25700D01*
X47888Y-27683D01*
X32628Y-27683D01*
X32628Y-24353D01*
X32619Y-24082D01*
X32532Y-23872D01*
X32423Y-23828D01*
X32352Y-23899D01*
X32352Y-23757D01*
X32352Y-12462D01*
X31940Y-12051D01*
X31529Y-12462D01*
X31573Y-12571D01*
X31827Y-12667D01*
X32098Y-12658D01*
X32308Y-12571D01*
X32352Y-12462D01*
X32352Y-23757D01*
X32308Y-23648D01*
X32054Y-23553D01*
X31782Y-23561D01*
X31573Y-23648D01*
X31529Y-23757D01*
X31940Y-24169D01*
X32352Y-23757D01*
X32352Y-23899D01*
X32011Y-24240D01*
X32423Y-24651D01*
X32532Y-24608D01*
X32628Y-24353D01*
X32628Y-27683D01*
X32352Y-27683D01*
X32352Y-24722D01*
X31940Y-24310D01*
X31935Y-24316D01*
X31864Y-24245D01*
X31870Y-24240D01*
X31458Y-23828D01*
X31349Y-23872D01*
X31253Y-24126D01*
X31262Y-24398D01*
X31349Y-24608D01*
X31384Y-24622D01*
X31048Y-24621D01*
X30692Y-24769D01*
X30640Y-24820D01*
X30691Y-24699D01*
X30691Y-24482D01*
X30691Y-12222D01*
X30608Y-12022D01*
X30455Y-11868D01*
X30266Y-11790D01*
X30294Y-11710D01*
X30283Y-11493D01*
X30221Y-11344D01*
X30126Y-11317D01*
X30056Y-11388D01*
X30056Y-11247D01*
X30029Y-11152D01*
X29824Y-11079D01*
X29608Y-11090D01*
X29458Y-11152D01*
X29432Y-11247D01*
X29744Y-11559D01*
X30056Y-11247D01*
X30056Y-11388D01*
X29814Y-11629D01*
X29820Y-11635D01*
X29749Y-11706D01*
X29744Y-11700D01*
X29738Y-11706D01*
X29667Y-11635D01*
X29673Y-11629D01*
X29431Y-11387D01*
X29403Y-11321D01*
X29250Y-11167D01*
X29049Y-11084D01*
X28832Y-11084D01*
X28632Y-11167D01*
X28478Y-11320D01*
X28450Y-11387D01*
X28449Y-11388D01*
X28449Y-11247D01*
X28422Y-11152D01*
X28218Y-11079D01*
X28001Y-11090D01*
X27852Y-11152D01*
X27825Y-11247D01*
X28137Y-11559D01*
X28449Y-11247D01*
X28449Y-11388D01*
X28208Y-11629D01*
X28214Y-11635D01*
X28143Y-11706D01*
X28137Y-11700D01*
X28132Y-11706D01*
X28061Y-11635D01*
X28067Y-11629D01*
X27824Y-11387D01*
X27797Y-11321D01*
X27644Y-11167D01*
X27443Y-11084D01*
X27226Y-11084D01*
X27073Y-11147D01*
X27208Y-10823D01*
X27208Y-10438D01*
X27061Y-10082D01*
X26789Y-9809D01*
X26433Y-9661D01*
X26048Y-9661D01*
X25692Y-9808D01*
X25419Y-10080D01*
X25271Y-10436D01*
X25271Y-10821D01*
X25418Y-11177D01*
X25537Y-11296D01*
X25381Y-11302D01*
X25171Y-11388D01*
X25127Y-11498D01*
X25539Y-11909D01*
X25544Y-11904D01*
X25615Y-11974D01*
X25610Y-11980D01*
X26021Y-12391D01*
X26130Y-12348D01*
X26226Y-12093D01*
X26217Y-11822D01*
X26130Y-11612D01*
X26095Y-11598D01*
X26431Y-11598D01*
X26788Y-11451D01*
X26839Y-11400D01*
X26789Y-11520D01*
X26789Y-11737D01*
X26871Y-11938D01*
X27025Y-12092D01*
X27212Y-12169D01*
X27190Y-12221D01*
X27190Y-12438D01*
X27273Y-12639D01*
X27426Y-12792D01*
X27627Y-12876D01*
X27844Y-12876D01*
X27864Y-12868D01*
X28116Y-13120D01*
X28116Y-16518D01*
X28096Y-16565D01*
X28096Y-16665D01*
X28096Y-16921D01*
X28116Y-16970D01*
X28096Y-17018D01*
X28096Y-17118D01*
X28096Y-17374D01*
X28104Y-17392D01*
X26967Y-18529D01*
X25827Y-18529D01*
X25250Y-17952D01*
X25250Y-15512D01*
X25227Y-15402D01*
X25165Y-15308D01*
X25165Y-15308D01*
X24697Y-14840D01*
X24769Y-14768D01*
X24834Y-14612D01*
X24834Y-14443D01*
X24769Y-14287D01*
X24757Y-14275D01*
X24757Y-13622D01*
X24757Y-13622D01*
X24757Y-13622D01*
X24731Y-13488D01*
X24655Y-13375D01*
X24655Y-13375D01*
X24419Y-13139D01*
X24337Y-13084D01*
X24724Y-13084D01*
X24724Y-13084D01*
X24895Y-13050D01*
X24895Y-13050D01*
X25040Y-12953D01*
X25137Y-12808D01*
X25137Y-12808D01*
X25171Y-12637D01*
X25171Y-12637D01*
X25144Y-12505D01*
X25171Y-12571D01*
X25425Y-12667D01*
X25697Y-12658D01*
X25907Y-12571D01*
X25950Y-12462D01*
X25539Y-12051D01*
X25533Y-12056D01*
X25463Y-11985D01*
X25468Y-11980D01*
X25057Y-11568D01*
X24947Y-11612D01*
X24852Y-11866D01*
X24861Y-12138D01*
X24864Y-12145D01*
X24777Y-12059D01*
X24777Y-10944D01*
X24743Y-10773D01*
X24646Y-10628D01*
X24646Y-10628D01*
X24449Y-10432D01*
X24304Y-10335D01*
X24133Y-10301D01*
X24094Y-10301D01*
X24090Y-10291D01*
X24020Y-10221D01*
X23928Y-10183D01*
X23829Y-10183D01*
X23553Y-10183D01*
X23461Y-10220D01*
X23445Y-10236D01*
X23429Y-10220D01*
X23337Y-10182D01*
X23262Y-10182D01*
X23199Y-10245D01*
X23199Y-10796D01*
X23207Y-10796D01*
X23207Y-10896D01*
X23199Y-10896D01*
X23199Y-11062D01*
X23199Y-11447D01*
X23199Y-11741D01*
X23730Y-11741D01*
X23793Y-11678D01*
X23793Y-11313D01*
X23883Y-11313D01*
X23883Y-12059D01*
X23793Y-12149D01*
X23793Y-11903D01*
X23730Y-11841D01*
X23199Y-11841D01*
X23199Y-12520D01*
X23262Y-12582D01*
X23501Y-12582D01*
X23490Y-12637D01*
X23524Y-12808D01*
X23530Y-12818D01*
X23530Y-12930D01*
X23503Y-12957D01*
X23445Y-12898D01*
X23353Y-12860D01*
X23241Y-12860D01*
X23178Y-12923D01*
X23178Y-13335D01*
X23186Y-13335D01*
X23186Y-13435D01*
X23178Y-13435D01*
X23178Y-13848D01*
X23241Y-13910D01*
X23353Y-13910D01*
X23445Y-13872D01*
X23503Y-13814D01*
X23562Y-13872D01*
X23589Y-13884D01*
X23589Y-13914D01*
X23147Y-14356D01*
X23099Y-14356D01*
X23099Y-12520D01*
X23099Y-11841D01*
X23099Y-11741D01*
X23099Y-11447D01*
X23099Y-11062D01*
X23099Y-10896D01*
X23091Y-10896D01*
X23091Y-10796D01*
X23099Y-10796D01*
X23099Y-10245D01*
X23037Y-10182D01*
X22962Y-10182D01*
X22883Y-10214D01*
X22461Y-9792D01*
X21239Y-9792D01*
X20816Y-10215D01*
X20816Y-12225D01*
X21239Y-12648D01*
X22490Y-12648D01*
X22490Y-11438D01*
X22506Y-11422D01*
X22506Y-11678D01*
X22568Y-11741D01*
X22884Y-11741D01*
X23099Y-11741D01*
X23099Y-11841D01*
X22884Y-11841D01*
X22568Y-11841D01*
X22506Y-11903D01*
X22506Y-12283D01*
X22506Y-12382D01*
X22544Y-12474D01*
X22614Y-12544D01*
X22706Y-12582D01*
X22884Y-12582D01*
X23037Y-12582D01*
X23099Y-12520D01*
X23099Y-14356D01*
X23078Y-14356D01*
X23078Y-13848D01*
X23078Y-13435D01*
X23078Y-13335D01*
X23078Y-12923D01*
X23016Y-12860D01*
X22904Y-12860D01*
X22884Y-12868D01*
X22812Y-12898D01*
X22742Y-12969D01*
X22703Y-13060D01*
X22703Y-13160D01*
X22703Y-13273D01*
X22766Y-13335D01*
X22884Y-13335D01*
X23078Y-13335D01*
X23078Y-13435D01*
X22884Y-13435D01*
X22766Y-13435D01*
X22703Y-13498D01*
X22703Y-13611D01*
X22703Y-13710D01*
X22742Y-13802D01*
X22812Y-13872D01*
X22884Y-13902D01*
X22904Y-13910D01*
X23016Y-13910D01*
X23078Y-13848D01*
X23078Y-14356D01*
X22884Y-14356D01*
X22689Y-14356D01*
X22689Y-13611D01*
X22689Y-13160D01*
X22689Y-13060D01*
X22651Y-12969D01*
X22581Y-12898D01*
X22489Y-12860D01*
X22377Y-12860D01*
X22314Y-12923D01*
X22314Y-13335D01*
X22627Y-13335D01*
X22689Y-13273D01*
X22689Y-13160D01*
X22689Y-13611D01*
X22689Y-13498D01*
X22627Y-13435D01*
X22314Y-13435D01*
X22314Y-13848D01*
X22377Y-13910D01*
X22489Y-13910D01*
X22581Y-13872D01*
X22651Y-13802D01*
X22689Y-13710D01*
X22689Y-13611D01*
X22689Y-14356D01*
X20354Y-14356D01*
X20261Y-14374D01*
X20243Y-14378D01*
X20149Y-14441D01*
X19238Y-15352D01*
X19175Y-15446D01*
X19153Y-15557D01*
X19153Y-15605D01*
X19112Y-15645D01*
X19074Y-15737D01*
X19074Y-15836D01*
X19074Y-16624D01*
X19112Y-16716D01*
X19183Y-16786D01*
X19274Y-16824D01*
X19374Y-16824D01*
X19610Y-16824D01*
X19692Y-16790D01*
X19775Y-16824D01*
X19830Y-16824D01*
X19892Y-16762D01*
X19892Y-16231D01*
X19885Y-16231D01*
X19885Y-16131D01*
X19892Y-16131D01*
X19892Y-15599D01*
X19851Y-15558D01*
X20474Y-14935D01*
X20758Y-14935D01*
X20238Y-15454D01*
X20175Y-15548D01*
X20172Y-15563D01*
X20110Y-15537D01*
X20055Y-15537D01*
X19992Y-15599D01*
X19992Y-16131D01*
X20000Y-16131D01*
X20000Y-16231D01*
X19992Y-16231D01*
X19992Y-16762D01*
X20055Y-16824D01*
X20110Y-16824D01*
X20158Y-16805D01*
X20175Y-16892D01*
X20238Y-16986D01*
X21409Y-18157D01*
X21409Y-18157D01*
X21503Y-18220D01*
X21614Y-18242D01*
X21735Y-18242D01*
X21806Y-18312D01*
X21962Y-18377D01*
X22131Y-18377D01*
X22287Y-18313D01*
X22407Y-18193D01*
X22472Y-18037D01*
X22472Y-17950D01*
X22552Y-17983D01*
X22721Y-17984D01*
X22878Y-17919D01*
X22884Y-17913D01*
X22997Y-17800D01*
X23040Y-17696D01*
X23117Y-17747D01*
X23228Y-17769D01*
X23704Y-17769D01*
X23774Y-17840D01*
X23930Y-17905D01*
X24099Y-17905D01*
X24198Y-17864D01*
X24198Y-18267D01*
X24220Y-18378D01*
X24283Y-18472D01*
X24920Y-19109D01*
X24809Y-19063D01*
X24708Y-19063D01*
X24535Y-18889D01*
X24441Y-18827D01*
X24330Y-18805D01*
X22884Y-18805D01*
X17117Y-18805D01*
X17117Y-18655D01*
X17053Y-18499D01*
X17041Y-18487D01*
X17041Y-17142D01*
X17053Y-17130D01*
X17117Y-16974D01*
X17117Y-16805D01*
X17053Y-16649D01*
X16933Y-16529D01*
X16777Y-16464D01*
X16608Y-16464D01*
X16452Y-16529D01*
X16332Y-16648D01*
X16267Y-16804D01*
X16267Y-16973D01*
X16332Y-17130D01*
X16344Y-17142D01*
X16344Y-18487D01*
X16332Y-18499D01*
X16267Y-18655D01*
X16267Y-18805D01*
X15469Y-18805D01*
X15398Y-18734D01*
X15242Y-18669D01*
X15073Y-18669D01*
X14917Y-18733D01*
X14797Y-18853D01*
X14732Y-19009D01*
X14732Y-19178D01*
X14796Y-19334D01*
X14916Y-19454D01*
X15072Y-19519D01*
X15241Y-19519D01*
X15397Y-19454D01*
X15469Y-19383D01*
X19097Y-19383D01*
X19074Y-19438D01*
X19074Y-19537D01*
X19074Y-19769D01*
X19137Y-19831D01*
X19392Y-19831D01*
X19392Y-19824D01*
X19492Y-19824D01*
X19492Y-19831D01*
X19500Y-19831D01*
X19500Y-19931D01*
X19492Y-19931D01*
X19492Y-19939D01*
X19392Y-19939D01*
X19392Y-19931D01*
X19137Y-19931D01*
X19074Y-19994D01*
X19074Y-20183D01*
X18032Y-20183D01*
X17921Y-20205D01*
X17828Y-20267D01*
X17354Y-20741D01*
X17291Y-20835D01*
X17269Y-20946D01*
X17269Y-22242D01*
X17291Y-22353D01*
X17354Y-22447D01*
X17746Y-22839D01*
X17748Y-22842D01*
X18023Y-23118D01*
X18023Y-23118D01*
X18117Y-23180D01*
X18228Y-23202D01*
X21299Y-23202D01*
X21299Y-23202D01*
X21409Y-23180D01*
X21503Y-23118D01*
X21779Y-22842D01*
X21779Y-22842D01*
X21779Y-22842D01*
X22089Y-22532D01*
X22121Y-22564D01*
X22277Y-22629D01*
X22446Y-22629D01*
X22602Y-22565D01*
X22722Y-22445D01*
X22787Y-22289D01*
X22787Y-22120D01*
X22786Y-22119D01*
X22798Y-22059D01*
X22810Y-22064D01*
X22884Y-22064D01*
X22897Y-22064D01*
X22959Y-22002D01*
X22959Y-21614D01*
X22951Y-21614D01*
X22951Y-21514D01*
X22959Y-21514D01*
X22959Y-21127D01*
X22897Y-21064D01*
X22884Y-21064D01*
X22810Y-21064D01*
X22759Y-21085D01*
X22724Y-21070D01*
X22884Y-20910D01*
X23147Y-20647D01*
X23147Y-20647D01*
X23210Y-20553D01*
X23220Y-20502D01*
X23274Y-20525D01*
X23374Y-20525D01*
X23610Y-20525D01*
X23692Y-20491D01*
X23775Y-20525D01*
X23830Y-20525D01*
X23892Y-20463D01*
X23892Y-19931D01*
X23885Y-19931D01*
X23885Y-19831D01*
X23892Y-19831D01*
X23892Y-19824D01*
X23992Y-19824D01*
X23992Y-19831D01*
X24248Y-19831D01*
X24311Y-19769D01*
X24311Y-19600D01*
X24363Y-19728D01*
X24483Y-19848D01*
X24639Y-19913D01*
X24808Y-19913D01*
X24964Y-19848D01*
X25084Y-19729D01*
X25149Y-19573D01*
X25149Y-19404D01*
X25103Y-19291D01*
X25307Y-19495D01*
X25307Y-19495D01*
X25401Y-19558D01*
X25511Y-19580D01*
X27283Y-19580D01*
X27283Y-19580D01*
X27394Y-19558D01*
X27488Y-19495D01*
X29201Y-17782D01*
X29201Y-17782D01*
X29264Y-17688D01*
X29286Y-17578D01*
X29286Y-17578D01*
X29286Y-17441D01*
X29346Y-17401D01*
X29732Y-17015D01*
X29732Y-17015D01*
X29774Y-16952D01*
X29794Y-16921D01*
X29794Y-16921D01*
X29807Y-16856D01*
X29887Y-16776D01*
X29952Y-16620D01*
X29952Y-16451D01*
X29888Y-16295D01*
X29768Y-16175D01*
X29612Y-16110D01*
X29443Y-16110D01*
X29287Y-16174D01*
X29286Y-16175D01*
X29286Y-13599D01*
X30017Y-12868D01*
X30036Y-12876D01*
X30253Y-12876D01*
X30454Y-12793D01*
X30607Y-12640D01*
X30691Y-12439D01*
X30691Y-12222D01*
X30691Y-24482D01*
X30608Y-24281D01*
X30455Y-24128D01*
X30267Y-24050D01*
X30289Y-23998D01*
X30289Y-23781D01*
X30206Y-23581D01*
X30053Y-23427D01*
X30033Y-23419D01*
X30033Y-22933D01*
X30033Y-22933D01*
X30011Y-22822D01*
X30011Y-22822D01*
X29990Y-22791D01*
X29948Y-22728D01*
X29948Y-22728D01*
X29167Y-21946D01*
X29167Y-20922D01*
X29186Y-20875D01*
X29186Y-20775D01*
X29186Y-20519D01*
X29166Y-20470D01*
X29186Y-20422D01*
X29186Y-20322D01*
X29186Y-20165D01*
X29186Y-20066D01*
X29148Y-19974D01*
X29078Y-19904D01*
X28986Y-19866D01*
X28969Y-19866D01*
X28907Y-19928D01*
X28907Y-19930D01*
X28881Y-19904D01*
X28789Y-19866D01*
X28779Y-19866D01*
X28769Y-19866D01*
X28680Y-19902D01*
X28592Y-19866D01*
X28582Y-19866D01*
X28572Y-19866D01*
X28483Y-19902D01*
X28395Y-19866D01*
X28385Y-19866D01*
X28375Y-19866D01*
X28283Y-19904D01*
X28257Y-19930D01*
X28257Y-19928D01*
X28194Y-19866D01*
X28178Y-19866D01*
X28086Y-19904D01*
X28015Y-19974D01*
X27977Y-20066D01*
X27977Y-20165D01*
X27977Y-20131D01*
X28040Y-20194D01*
X28237Y-20194D01*
X28257Y-20194D01*
X28316Y-20194D01*
X28434Y-20194D01*
X28454Y-20194D01*
X28513Y-20194D01*
X28533Y-20194D01*
X28631Y-20194D01*
X28651Y-20194D01*
X28710Y-20194D01*
X28730Y-20194D01*
X28848Y-20194D01*
X28907Y-20194D01*
X28927Y-20194D01*
X29124Y-20194D01*
X29186Y-20131D01*
X29186Y-20165D01*
X29186Y-20322D01*
X29186Y-20356D01*
X29124Y-20294D01*
X28927Y-20294D01*
X28907Y-20294D01*
X28848Y-20294D01*
X28730Y-20294D01*
X28710Y-20294D01*
X28651Y-20294D01*
X28631Y-20294D01*
X28533Y-20294D01*
X28513Y-20294D01*
X28454Y-20294D01*
X28434Y-20294D01*
X28316Y-20294D01*
X28257Y-20294D01*
X28237Y-20294D01*
X28040Y-20294D01*
X27977Y-20356D01*
X27977Y-20322D01*
X27977Y-20422D01*
X27997Y-20470D01*
X27977Y-20519D01*
X27977Y-20618D01*
X27977Y-20874D01*
X27997Y-20922D01*
X27997Y-21987D01*
X27130Y-22854D01*
X27067Y-22948D01*
X27045Y-23059D01*
X27045Y-23419D01*
X27026Y-23427D01*
X26872Y-23580D01*
X26789Y-23780D01*
X26789Y-23997D01*
X26871Y-24198D01*
X27025Y-24351D01*
X27214Y-24430D01*
X27185Y-24509D01*
X27196Y-24726D01*
X27258Y-24875D01*
X27353Y-24902D01*
X27665Y-24590D01*
X27659Y-24584D01*
X27730Y-24514D01*
X27736Y-24519D01*
X27741Y-24514D01*
X27812Y-24584D01*
X27806Y-24590D01*
X28049Y-24832D01*
X28076Y-24899D01*
X28229Y-25052D01*
X28430Y-25135D01*
X28647Y-25136D01*
X28847Y-25053D01*
X29001Y-24899D01*
X29029Y-24833D01*
X29271Y-24590D01*
X29266Y-24584D01*
X29336Y-24514D01*
X29342Y-24519D01*
X29348Y-24514D01*
X29418Y-24584D01*
X29413Y-24590D01*
X29655Y-24832D01*
X29682Y-24899D01*
X29836Y-25052D01*
X30036Y-25135D01*
X30253Y-25136D01*
X30406Y-25073D01*
X30271Y-25397D01*
X30271Y-25782D01*
X30418Y-26138D01*
X30690Y-26411D01*
X31046Y-26558D01*
X31431Y-26559D01*
X31788Y-26412D01*
X32060Y-26139D01*
X32208Y-25784D01*
X32208Y-25398D01*
X32061Y-25042D01*
X31942Y-24923D01*
X32098Y-24918D01*
X32308Y-24831D01*
X32352Y-24722D01*
X32352Y-27683D01*
X29654Y-27683D01*
X29654Y-24973D01*
X29342Y-24661D01*
X29030Y-24973D01*
X29057Y-25068D01*
X29261Y-25140D01*
X29478Y-25129D01*
X29627Y-25068D01*
X29654Y-24973D01*
X29654Y-27683D01*
X28048Y-27683D01*
X28048Y-24973D01*
X27736Y-24661D01*
X27424Y-24973D01*
X27451Y-25068D01*
X27655Y-25140D01*
X27872Y-25129D01*
X28021Y-25068D01*
X28048Y-24973D01*
X28048Y-27683D01*
X27208Y-27683D01*
X27208Y-25398D01*
X27061Y-25042D01*
X26789Y-24769D01*
X26433Y-24622D01*
X26095Y-24621D01*
X26130Y-24608D01*
X26226Y-24353D01*
X26217Y-24082D01*
X26130Y-23872D01*
X26021Y-23828D01*
X25950Y-23899D01*
X25950Y-23757D01*
X25907Y-23648D01*
X25652Y-23553D01*
X25381Y-23561D01*
X25171Y-23648D01*
X25127Y-23757D01*
X25539Y-24169D01*
X25950Y-23757D01*
X25950Y-23899D01*
X25610Y-24240D01*
X25615Y-24245D01*
X25544Y-24316D01*
X25539Y-24310D01*
X25468Y-24381D01*
X25468Y-24240D01*
X25057Y-23828D01*
X24952Y-23870D01*
X24952Y-21490D01*
X24888Y-21334D01*
X24768Y-21214D01*
X24612Y-21149D01*
X24443Y-21149D01*
X24374Y-21178D01*
X24371Y-21173D01*
X24311Y-21112D01*
X24311Y-20226D01*
X24311Y-19994D01*
X24248Y-19931D01*
X23992Y-19931D01*
X23992Y-20463D01*
X24055Y-20525D01*
X24110Y-20525D01*
X24202Y-20487D01*
X24272Y-20417D01*
X24310Y-20325D01*
X24311Y-20226D01*
X24311Y-21112D01*
X24301Y-21102D01*
X24209Y-21064D01*
X24110Y-21064D01*
X23810Y-21064D01*
X23759Y-21085D01*
X23709Y-21064D01*
X23610Y-21064D01*
X23310Y-21064D01*
X23259Y-21085D01*
X23209Y-21064D01*
X23122Y-21064D01*
X23059Y-21127D01*
X23059Y-21514D01*
X23067Y-21514D01*
X23067Y-21614D01*
X23059Y-21614D01*
X23059Y-22002D01*
X23122Y-22064D01*
X23209Y-22064D01*
X23236Y-22053D01*
X23236Y-22053D01*
X23236Y-22054D01*
X23236Y-22054D01*
X23236Y-22210D01*
X23300Y-22366D01*
X23420Y-22486D01*
X23576Y-22550D01*
X23745Y-22551D01*
X23901Y-22486D01*
X24021Y-22367D01*
X24086Y-22210D01*
X24086Y-22064D01*
X24209Y-22064D01*
X24301Y-22026D01*
X24361Y-21966D01*
X24442Y-21999D01*
X24611Y-21999D01*
X24767Y-21935D01*
X24887Y-21815D01*
X24952Y-21659D01*
X24952Y-21490D01*
X24952Y-23870D01*
X24947Y-23872D01*
X24852Y-24126D01*
X24861Y-24398D01*
X24947Y-24608D01*
X25057Y-24651D01*
X25468Y-24240D01*
X25468Y-24381D01*
X25127Y-24722D01*
X25171Y-24831D01*
X25425Y-24927D01*
X25537Y-24923D01*
X25419Y-25041D01*
X25271Y-25397D01*
X25271Y-25782D01*
X25418Y-26138D01*
X25690Y-26411D01*
X26046Y-26558D01*
X26431Y-26559D01*
X26788Y-26412D01*
X27060Y-26139D01*
X27208Y-25784D01*
X27208Y-25398D01*
X27208Y-27683D01*
X24409Y-27683D01*
X24409Y-25565D01*
X24409Y-25065D01*
X24371Y-24973D01*
X24358Y-24959D01*
X24358Y-24873D01*
X24401Y-24769D01*
X24401Y-24600D01*
X24336Y-24444D01*
X24217Y-24324D01*
X24061Y-24260D01*
X23892Y-24259D01*
X23735Y-24324D01*
X23616Y-24443D01*
X23551Y-24600D01*
X23551Y-24769D01*
X23590Y-24864D01*
X23310Y-24864D01*
X23259Y-24885D01*
X23209Y-24864D01*
X23122Y-24864D01*
X23059Y-24927D01*
X23059Y-25314D01*
X23067Y-25314D01*
X23067Y-25414D01*
X23059Y-25414D01*
X23059Y-25802D01*
X23122Y-25864D01*
X23209Y-25864D01*
X23259Y-25843D01*
X23309Y-25864D01*
X23409Y-25864D01*
X23709Y-25864D01*
X23759Y-25843D01*
X23809Y-25864D01*
X23909Y-25864D01*
X24209Y-25864D01*
X24301Y-25826D01*
X24371Y-25756D01*
X24409Y-25664D01*
X24409Y-25565D01*
X24409Y-27683D01*
X22959Y-27683D01*
X22959Y-25802D01*
X22959Y-25414D01*
X22951Y-25414D01*
X22951Y-25314D01*
X22959Y-25314D01*
X22959Y-24927D01*
X22897Y-24864D01*
X22884Y-24864D01*
X22810Y-24864D01*
X22759Y-24885D01*
X22709Y-24864D01*
X22610Y-24864D01*
X22310Y-24864D01*
X22259Y-24885D01*
X22209Y-24864D01*
X22122Y-24864D01*
X22059Y-24927D01*
X22059Y-25314D01*
X22067Y-25314D01*
X22067Y-25414D01*
X22059Y-25414D01*
X22059Y-25802D01*
X22122Y-25864D01*
X22209Y-25864D01*
X22259Y-25843D01*
X22309Y-25864D01*
X22409Y-25864D01*
X22709Y-25864D01*
X22759Y-25843D01*
X22810Y-25864D01*
X22884Y-25864D01*
X22897Y-25864D01*
X22959Y-25802D01*
X22959Y-27683D01*
X22884Y-27683D01*
X21959Y-27683D01*
X21959Y-25802D01*
X21959Y-25414D01*
X21951Y-25414D01*
X21951Y-25314D01*
X21959Y-25314D01*
X21959Y-24927D01*
X21897Y-24864D01*
X21810Y-24864D01*
X21759Y-24885D01*
X21709Y-24864D01*
X21610Y-24864D01*
X21310Y-24864D01*
X21259Y-24885D01*
X21209Y-24864D01*
X21122Y-24864D01*
X21059Y-24927D01*
X21059Y-25314D01*
X21067Y-25314D01*
X21067Y-25414D01*
X21059Y-25414D01*
X21059Y-25802D01*
X21122Y-25864D01*
X21209Y-25864D01*
X21259Y-25843D01*
X21309Y-25864D01*
X21409Y-25864D01*
X21709Y-25864D01*
X21759Y-25843D01*
X21810Y-25864D01*
X21897Y-25864D01*
X21959Y-25802D01*
X21959Y-27683D01*
X20959Y-27683D01*
X20959Y-25802D01*
X20959Y-25414D01*
X20951Y-25414D01*
X20951Y-25314D01*
X20959Y-25314D01*
X20959Y-24927D01*
X20897Y-24864D01*
X20810Y-24864D01*
X20759Y-24885D01*
X20709Y-24864D01*
X20610Y-24864D01*
X20310Y-24864D01*
X20259Y-24885D01*
X20209Y-24864D01*
X20122Y-24864D01*
X20059Y-24927D01*
X20059Y-25314D01*
X20067Y-25314D01*
X20067Y-25414D01*
X20059Y-25414D01*
X20059Y-25802D01*
X20122Y-25864D01*
X20209Y-25864D01*
X20259Y-25843D01*
X20309Y-25864D01*
X20409Y-25864D01*
X20709Y-25864D01*
X20759Y-25843D01*
X20810Y-25864D01*
X20897Y-25864D01*
X20959Y-25802D01*
X20959Y-27683D01*
X19959Y-27683D01*
X19959Y-25802D01*
X19959Y-25414D01*
X19959Y-25314D01*
X19959Y-24927D01*
X19897Y-24864D01*
X19810Y-24864D01*
X19759Y-24885D01*
X19709Y-24864D01*
X19622Y-24864D01*
X19559Y-24927D01*
X19559Y-25314D01*
X19672Y-25314D01*
X19847Y-25314D01*
X19959Y-25314D01*
X19959Y-25414D01*
X19847Y-25414D01*
X19672Y-25414D01*
X19559Y-25414D01*
X19559Y-25802D01*
X19622Y-25864D01*
X19709Y-25864D01*
X19759Y-25843D01*
X19810Y-25864D01*
X19897Y-25864D01*
X19959Y-25802D01*
X19959Y-27683D01*
X19459Y-27683D01*
X19459Y-25802D01*
X19459Y-25414D01*
X19459Y-25314D01*
X19459Y-24927D01*
X19397Y-24864D01*
X19310Y-24864D01*
X19259Y-24885D01*
X19209Y-24864D01*
X19122Y-24864D01*
X19059Y-24927D01*
X19059Y-25314D01*
X19172Y-25314D01*
X19347Y-25314D01*
X19459Y-25314D01*
X19459Y-25414D01*
X19347Y-25414D01*
X19172Y-25414D01*
X19059Y-25414D01*
X19059Y-25802D01*
X19122Y-25864D01*
X19209Y-25864D01*
X19259Y-25843D01*
X19310Y-25864D01*
X19397Y-25864D01*
X19459Y-25802D01*
X19459Y-27683D01*
X18959Y-27683D01*
X18959Y-25802D01*
X18959Y-25414D01*
X18959Y-25314D01*
X18959Y-24927D01*
X18897Y-24864D01*
X18810Y-24864D01*
X18759Y-24885D01*
X18709Y-24864D01*
X18622Y-24864D01*
X18559Y-24927D01*
X18559Y-25314D01*
X18672Y-25314D01*
X18847Y-25314D01*
X18959Y-25314D01*
X18959Y-25414D01*
X18847Y-25414D01*
X18672Y-25414D01*
X18559Y-25414D01*
X18559Y-25802D01*
X18622Y-25864D01*
X18709Y-25864D01*
X18759Y-25843D01*
X18810Y-25864D01*
X18897Y-25864D01*
X18959Y-25802D01*
X18959Y-27683D01*
X18459Y-27683D01*
X18459Y-25802D01*
X18459Y-25414D01*
X18459Y-25314D01*
X18459Y-24927D01*
X18397Y-24864D01*
X18310Y-24864D01*
X18218Y-24902D01*
X18148Y-24972D01*
X18109Y-25064D01*
X18109Y-25164D01*
X18109Y-25252D01*
X18172Y-25314D01*
X18459Y-25314D01*
X18459Y-25414D01*
X18172Y-25414D01*
X18109Y-25477D01*
X18109Y-25565D01*
X18109Y-25664D01*
X18148Y-25756D01*
X18218Y-25826D01*
X18310Y-25864D01*
X18397Y-25864D01*
X18459Y-25802D01*
X18459Y-27683D01*
X13454Y-27683D01*
X13454Y-21424D01*
X13445Y-21152D01*
X13359Y-20943D01*
X13249Y-20899D01*
X12838Y-21311D01*
X13249Y-21722D01*
X13359Y-21678D01*
X13454Y-21424D01*
X13454Y-27683D01*
X13179Y-27683D01*
X13179Y-21793D01*
X12767Y-21381D01*
X12356Y-21793D01*
X12399Y-21902D01*
X12654Y-21998D01*
X12925Y-21989D01*
X13135Y-21902D01*
X13179Y-21793D01*
X13179Y-27683D01*
X12454Y-27683D01*
X12454Y-25700D01*
X12237Y-25174D01*
X11835Y-24771D01*
X11309Y-24553D01*
X10740Y-24552D01*
X10214Y-24770D01*
X9811Y-25172D01*
X9592Y-25698D01*
X9592Y-26267D01*
X9809Y-26793D01*
X10211Y-27196D01*
X10737Y-27415D01*
X11307Y-27415D01*
X11833Y-27198D01*
X12236Y-26795D01*
X12454Y-26270D01*
X12454Y-25700D01*
X12454Y-27683D01*
X9324Y-27683D01*
X9324Y-16505D01*
X9716Y-16897D01*
X9716Y-16897D01*
X9810Y-16960D01*
X9921Y-16982D01*
X11882Y-16982D01*
X11867Y-17025D01*
X11878Y-17242D01*
X11939Y-17391D01*
X12034Y-17418D01*
X12346Y-17106D01*
X12341Y-17100D01*
X12411Y-17030D01*
X12417Y-17035D01*
X12422Y-17030D01*
X12493Y-17100D01*
X12488Y-17106D01*
X12493Y-17111D01*
X12422Y-17182D01*
X12417Y-17177D01*
X12174Y-17419D01*
X12108Y-17446D01*
X11955Y-17600D01*
X11871Y-17800D01*
X11871Y-18017D01*
X11954Y-18218D01*
X12107Y-18371D01*
X12174Y-18399D01*
X12417Y-18641D01*
X12422Y-18636D01*
X12493Y-18707D01*
X12488Y-18712D01*
X12493Y-18718D01*
X12422Y-18788D01*
X12417Y-18783D01*
X12346Y-18854D01*
X12346Y-18712D01*
X12034Y-18400D01*
X11939Y-18427D01*
X11867Y-18631D01*
X11878Y-18848D01*
X11939Y-18997D01*
X12034Y-19024D01*
X12346Y-18712D01*
X12346Y-18854D01*
X12174Y-19025D01*
X12108Y-19053D01*
X11955Y-19206D01*
X11871Y-19406D01*
X11871Y-19623D01*
X11934Y-19776D01*
X11610Y-19641D01*
X11225Y-19641D01*
X10869Y-19788D01*
X10596Y-20060D01*
X10448Y-20416D01*
X10448Y-20802D01*
X10595Y-21158D01*
X10867Y-21430D01*
X11223Y-21578D01*
X11609Y-21578D01*
X11965Y-21431D01*
X12084Y-21312D01*
X12089Y-21469D01*
X12176Y-21678D01*
X12285Y-21722D01*
X12697Y-21311D01*
X12691Y-21305D01*
X12762Y-21234D01*
X12767Y-21240D01*
X13179Y-20828D01*
X13135Y-20719D01*
X12881Y-20623D01*
X12609Y-20632D01*
X12399Y-20719D01*
X12385Y-20755D01*
X12385Y-20418D01*
X12238Y-20062D01*
X12187Y-20011D01*
X12308Y-20061D01*
X12525Y-20061D01*
X12725Y-19978D01*
X12879Y-19825D01*
X12957Y-19638D01*
X13009Y-19659D01*
X13226Y-19659D01*
X13426Y-19576D01*
X13580Y-19423D01*
X13663Y-19223D01*
X13663Y-19006D01*
X13580Y-18805D01*
X13487Y-18712D01*
X13580Y-18620D01*
X13663Y-18420D01*
X13663Y-18202D01*
X13580Y-18002D01*
X13487Y-17909D01*
X13580Y-17817D01*
X13663Y-17616D01*
X13663Y-17399D01*
X13580Y-17199D01*
X13487Y-17106D01*
X13580Y-17014D01*
X13663Y-16813D01*
X13663Y-16596D01*
X13580Y-16396D01*
X13454Y-16269D01*
X13454Y-15022D01*
X13445Y-14751D01*
X13359Y-14541D01*
X13249Y-14497D01*
X13179Y-14568D01*
X13179Y-14427D01*
X13135Y-14318D01*
X12881Y-14222D01*
X12609Y-14231D01*
X12399Y-14318D01*
X12356Y-14427D01*
X12767Y-14838D01*
X13179Y-14427D01*
X13179Y-14568D01*
X12838Y-14909D01*
X13249Y-15320D01*
X13359Y-15277D01*
X13454Y-15022D01*
X13454Y-16269D01*
X13427Y-16242D01*
X13227Y-16159D01*
X13010Y-16159D01*
X12990Y-16167D01*
X12838Y-16015D01*
X12744Y-15953D01*
X12633Y-15931D01*
X12362Y-15931D01*
X12330Y-15937D01*
X12385Y-15803D01*
X12385Y-15466D01*
X12399Y-15500D01*
X12654Y-15596D01*
X12925Y-15587D01*
X13135Y-15500D01*
X13179Y-15391D01*
X12767Y-14980D01*
X12762Y-14985D01*
X12691Y-14915D01*
X12697Y-14909D01*
X12285Y-14497D01*
X12176Y-14541D01*
X12080Y-14795D01*
X12084Y-14907D01*
X11966Y-14789D01*
X11610Y-14641D01*
X11284Y-14641D01*
X12703Y-13222D01*
X20210Y-13222D01*
X20619Y-13632D01*
X20619Y-13632D01*
X20732Y-13707D01*
X20866Y-13734D01*
X21099Y-13734D01*
X21127Y-13802D01*
X21197Y-13872D01*
X21289Y-13910D01*
X21389Y-13910D01*
X21739Y-13910D01*
X21831Y-13872D01*
X21889Y-13814D01*
X21948Y-13872D01*
X22040Y-13910D01*
X22152Y-13910D01*
X22214Y-13848D01*
X22214Y-13435D01*
X22206Y-13435D01*
X22206Y-13335D01*
X22214Y-13335D01*
X22214Y-12923D01*
X22152Y-12860D01*
X22040Y-12860D01*
X21948Y-12898D01*
X21889Y-12957D01*
X21831Y-12899D01*
X21739Y-12860D01*
X21640Y-12860D01*
X21290Y-12860D01*
X21198Y-12898D01*
X21127Y-12969D01*
X21099Y-13037D01*
X21010Y-13037D01*
X20600Y-12627D01*
X20487Y-12552D01*
X20465Y-12547D01*
X20354Y-12525D01*
X20354Y-12525D01*
X12559Y-12525D01*
X12425Y-12552D01*
X12312Y-12627D01*
X12312Y-12627D01*
X9774Y-15165D01*
X9758Y-15165D01*
X9738Y-15173D01*
X9738Y-15001D01*
X15789Y-8950D01*
X30944Y-8950D01*
X35367Y-8950D01*
X34883Y-9434D01*
X34845Y-9418D01*
X34614Y-9418D01*
X34401Y-9506D01*
X34237Y-9669D01*
X34149Y-9882D01*
X34149Y-10113D01*
X34237Y-10326D01*
X34400Y-10489D01*
X34420Y-10498D01*
X34401Y-10506D01*
X34237Y-10669D01*
X34149Y-10882D01*
X34149Y-11113D01*
X34237Y-11326D01*
X34400Y-11489D01*
X34613Y-11578D01*
X34844Y-11578D01*
X35057Y-11490D01*
X35220Y-11327D01*
X35309Y-11114D01*
X35309Y-10883D01*
X35221Y-10670D01*
X35058Y-10506D01*
X35037Y-10498D01*
X35057Y-10490D01*
X35220Y-10327D01*
X35309Y-10114D01*
X35309Y-9883D01*
X35293Y-9843D01*
X35713Y-9423D01*
X37358Y-9423D01*
X37157Y-9506D01*
X36993Y-9669D01*
X36905Y-9882D01*
X36905Y-10113D01*
X36993Y-10326D01*
X37156Y-10489D01*
X37176Y-10498D01*
X37157Y-10506D01*
X36993Y-10669D01*
X36905Y-10882D01*
X36905Y-11113D01*
X36993Y-11326D01*
X37156Y-11489D01*
X37369Y-11578D01*
X37600Y-11578D01*
X37813Y-11490D01*
X37976Y-11327D01*
X38065Y-11114D01*
X38065Y-10883D01*
X37977Y-10670D01*
X37814Y-10506D01*
X37793Y-10498D01*
X37813Y-10490D01*
X37976Y-10327D01*
X38065Y-10114D01*
X38065Y-9883D01*
X38049Y-9843D01*
X38312Y-9580D01*
X39838Y-9580D01*
X39749Y-9669D01*
X39661Y-9882D01*
X39661Y-10113D01*
X39749Y-10326D01*
X39912Y-10489D01*
X39932Y-10498D01*
X39913Y-10506D01*
X39749Y-10669D01*
X39661Y-10882D01*
X39661Y-11113D01*
X39749Y-11326D01*
X39912Y-11489D01*
X40125Y-11578D01*
X40356Y-11578D01*
X40569Y-11490D01*
X40732Y-11327D01*
X40821Y-11114D01*
X40821Y-10883D01*
X40733Y-10670D01*
X40570Y-10506D01*
X40549Y-10498D01*
X40569Y-10490D01*
X40732Y-10327D01*
X40821Y-10114D01*
X40821Y-9883D01*
X40804Y-9843D01*
X40871Y-9777D01*
X42460Y-9777D01*
X42417Y-9882D01*
X42416Y-10113D01*
X42505Y-10326D01*
X42668Y-10489D01*
X42688Y-10498D01*
X42668Y-10506D01*
X42505Y-10669D01*
X42417Y-10882D01*
X42416Y-11113D01*
X42505Y-11326D01*
X42668Y-11489D01*
X42881Y-11578D01*
X43111Y-11578D01*
X43325Y-11490D01*
X43372Y-11443D01*
X43372Y-11456D01*
X43394Y-11567D01*
X43456Y-11661D01*
X45091Y-13295D01*
X45091Y-13295D01*
X45185Y-13358D01*
X45185Y-13358D01*
X45203Y-13362D01*
X45296Y-13380D01*
X46279Y-13380D01*
X46326Y-13400D01*
X46425Y-13400D01*
X46681Y-13400D01*
X46730Y-13380D01*
X46779Y-13400D01*
X46878Y-13400D01*
X46844Y-13400D01*
X46907Y-13337D01*
X46907Y-13140D01*
X46907Y-13120D01*
X46907Y-13061D01*
X46907Y-12943D01*
X46907Y-12923D01*
X46907Y-12864D01*
X46907Y-12844D01*
X46907Y-12746D01*
X46907Y-12726D01*
X46907Y-12667D01*
X46907Y-12647D01*
X46907Y-12529D01*
X46907Y-12470D01*
X46907Y-12450D01*
X46907Y-12442D01*
X47007Y-12442D01*
X47007Y-12450D01*
X47007Y-12470D01*
X47007Y-12529D01*
X47007Y-12647D01*
X47007Y-12667D01*
X47007Y-12726D01*
X47007Y-12746D01*
X47007Y-12844D01*
X47007Y-12864D01*
X47007Y-12923D01*
X47007Y-12943D01*
X47007Y-13061D01*
X47007Y-13120D01*
X47007Y-13140D01*
X47007Y-13337D01*
X47069Y-13400D01*
X47035Y-13400D01*
X47135Y-13400D01*
X47227Y-13362D01*
X47297Y-13291D01*
X47335Y-13199D01*
X47335Y-13183D01*
X47272Y-13120D01*
X47271Y-13120D01*
X47297Y-13094D01*
X47335Y-13002D01*
X47335Y-12992D01*
X47335Y-12982D01*
X47298Y-12894D01*
X47335Y-12805D01*
X47335Y-12795D01*
X47335Y-12785D01*
X47298Y-12697D01*
X47335Y-12608D01*
X47335Y-12598D01*
X47335Y-12588D01*
X47297Y-12496D01*
X47271Y-12470D01*
X47272Y-12470D01*
X47304Y-12438D01*
X47466Y-12600D01*
X47466Y-17163D01*
X45613Y-19016D01*
X45613Y-17588D01*
X45602Y-17371D01*
X45540Y-17222D01*
X45445Y-17195D01*
X45133Y-17507D01*
X45445Y-17819D01*
X45540Y-17793D01*
X45613Y-17588D01*
X45613Y-19016D01*
X45604Y-19025D01*
X45602Y-18978D01*
X45540Y-18829D01*
X45445Y-18802D01*
X45133Y-19114D01*
X45139Y-19119D01*
X45068Y-19190D01*
X45062Y-19184D01*
X45057Y-19190D01*
X44986Y-19119D01*
X44992Y-19114D01*
X44986Y-19108D01*
X45057Y-19037D01*
X45062Y-19043D01*
X45305Y-18801D01*
X45371Y-18773D01*
X45525Y-18620D01*
X45608Y-18420D01*
X45608Y-18202D01*
X45525Y-18002D01*
X45372Y-17848D01*
X45305Y-17821D01*
X45062Y-17578D01*
X45057Y-17584D01*
X44986Y-17513D01*
X44992Y-17507D01*
X44986Y-17502D01*
X45057Y-17431D01*
X45062Y-17437D01*
X45305Y-17194D01*
X45371Y-17167D01*
X45525Y-17014D01*
X45608Y-16813D01*
X45608Y-16596D01*
X45545Y-16444D01*
X45869Y-16578D01*
X46254Y-16578D01*
X46610Y-16431D01*
X46883Y-16159D01*
X47031Y-15803D01*
X47031Y-15418D01*
X46884Y-15062D01*
X46612Y-14789D01*
X46256Y-14641D01*
X45871Y-14641D01*
X45515Y-14788D01*
X45395Y-14907D01*
X45390Y-14751D01*
X45303Y-14541D01*
X45194Y-14497D01*
X45124Y-14568D01*
X45124Y-14427D01*
X45080Y-14318D01*
X44826Y-14222D01*
X44554Y-14231D01*
X44344Y-14318D01*
X44301Y-14427D01*
X44712Y-14838D01*
X45124Y-14427D01*
X45124Y-14568D01*
X44783Y-14909D01*
X44788Y-14915D01*
X44718Y-14985D01*
X44712Y-14980D01*
X44641Y-15050D01*
X44641Y-14909D01*
X44230Y-14497D01*
X44121Y-14541D01*
X44025Y-14795D01*
X44034Y-15067D01*
X44121Y-15277D01*
X44230Y-15320D01*
X44641Y-14909D01*
X44641Y-15050D01*
X44301Y-15391D01*
X44344Y-15500D01*
X44599Y-15596D01*
X44870Y-15587D01*
X45080Y-15500D01*
X45094Y-15465D01*
X45094Y-15802D01*
X45241Y-16158D01*
X45292Y-16209D01*
X45171Y-16159D01*
X44954Y-16159D01*
X44754Y-16242D01*
X44600Y-16395D01*
X44523Y-16582D01*
X44471Y-16560D01*
X44254Y-16560D01*
X44053Y-16643D01*
X43900Y-16796D01*
X43891Y-16816D01*
X41240Y-16816D01*
X41129Y-16838D01*
X41098Y-16859D01*
X41035Y-16901D01*
X38659Y-19277D01*
X37386Y-19277D01*
X37407Y-19256D01*
X37472Y-19100D01*
X37472Y-18931D01*
X37407Y-18775D01*
X37288Y-18655D01*
X37132Y-18590D01*
X36963Y-18590D01*
X36914Y-18610D01*
X36914Y-18128D01*
X36876Y-18036D01*
X36806Y-17965D01*
X36714Y-17927D01*
X36614Y-17927D01*
X36364Y-17927D01*
X36289Y-17958D01*
X36213Y-17927D01*
X36151Y-17927D01*
X36089Y-17990D01*
X36089Y-18377D01*
X36097Y-18377D01*
X36097Y-18477D01*
X36089Y-18477D01*
X36089Y-18485D01*
X35989Y-18485D01*
X35989Y-18477D01*
X35989Y-18377D01*
X35989Y-17990D01*
X35926Y-17927D01*
X35864Y-17927D01*
X35789Y-17958D01*
X35713Y-17927D01*
X35651Y-17927D01*
X35589Y-17990D01*
X35589Y-18377D01*
X35726Y-18377D01*
X35851Y-18377D01*
X35989Y-18377D01*
X35989Y-18477D01*
X35851Y-18477D01*
X35726Y-18477D01*
X35589Y-18477D01*
X35589Y-18485D01*
X35489Y-18485D01*
X35489Y-18477D01*
X35481Y-18477D01*
X35481Y-18377D01*
X35489Y-18377D01*
X35489Y-17990D01*
X35426Y-17927D01*
X35364Y-17927D01*
X35289Y-17958D01*
X35214Y-17927D01*
X35114Y-17927D01*
X34864Y-17927D01*
X34789Y-17958D01*
X34713Y-17927D01*
X34651Y-17927D01*
X34589Y-17990D01*
X34589Y-18377D01*
X34597Y-18377D01*
X34597Y-18477D01*
X34589Y-18477D01*
X34589Y-18485D01*
X34489Y-18485D01*
X34489Y-18477D01*
X34489Y-18377D01*
X34489Y-17990D01*
X34426Y-17927D01*
X34364Y-17927D01*
X34289Y-17958D01*
X34213Y-17927D01*
X34151Y-17927D01*
X34089Y-17990D01*
X34089Y-18377D01*
X34226Y-18377D01*
X34351Y-18377D01*
X34489Y-18377D01*
X34489Y-18477D01*
X34351Y-18477D01*
X34226Y-18477D01*
X34089Y-18477D01*
X34089Y-18485D01*
X33989Y-18485D01*
X33989Y-18477D01*
X33981Y-18477D01*
X33981Y-18377D01*
X33989Y-18377D01*
X33989Y-17990D01*
X33926Y-17927D01*
X33887Y-17927D01*
X33887Y-17894D01*
X33903Y-17878D01*
X33968Y-17722D01*
X33968Y-17553D01*
X33903Y-17397D01*
X33784Y-17277D01*
X33628Y-17212D01*
X33459Y-17212D01*
X33302Y-17277D01*
X33183Y-17396D01*
X33118Y-17552D01*
X33118Y-17721D01*
X33182Y-17878D01*
X33190Y-17886D01*
X33190Y-18063D01*
X33164Y-18127D01*
X33164Y-18227D01*
X33164Y-18727D01*
X33190Y-18791D01*
X33190Y-18893D01*
X33190Y-18893D01*
X33213Y-19004D01*
X33217Y-19027D01*
X33292Y-19140D01*
X33415Y-19262D01*
X33415Y-19262D01*
X33528Y-19337D01*
X33661Y-19364D01*
X33661Y-19364D01*
X33661Y-19364D01*
X34163Y-19364D01*
X33992Y-19535D01*
X33892Y-19535D01*
X33735Y-19600D01*
X33616Y-19719D01*
X33603Y-19750D01*
X33188Y-19750D01*
X33078Y-19772D01*
X33047Y-19792D01*
X32984Y-19834D01*
X32669Y-20149D01*
X32628Y-20211D01*
X32628Y-12093D01*
X32619Y-11822D01*
X32532Y-11612D01*
X32423Y-11568D01*
X32352Y-11639D01*
X32352Y-11498D01*
X32308Y-11388D01*
X32054Y-11293D01*
X31942Y-11296D01*
X32060Y-11179D01*
X32208Y-10823D01*
X32208Y-10438D01*
X32061Y-10082D01*
X31789Y-9809D01*
X31433Y-9661D01*
X31048Y-9661D01*
X30692Y-9808D01*
X30419Y-10080D01*
X30271Y-10436D01*
X30271Y-10821D01*
X30418Y-11177D01*
X30690Y-11450D01*
X31046Y-11598D01*
X31384Y-11598D01*
X31349Y-11612D01*
X31253Y-11866D01*
X31262Y-12138D01*
X31349Y-12348D01*
X31458Y-12391D01*
X31870Y-11980D01*
X31864Y-11974D01*
X31935Y-11904D01*
X31940Y-11909D01*
X32352Y-11498D01*
X32352Y-11639D01*
X32011Y-11980D01*
X32423Y-12391D01*
X32532Y-12348D01*
X32628Y-12093D01*
X32628Y-20211D01*
X32606Y-20243D01*
X32584Y-20354D01*
X32584Y-23057D01*
X32606Y-23168D01*
X32669Y-23261D01*
X34001Y-24594D01*
X34001Y-24594D01*
X34064Y-24636D01*
X34095Y-24656D01*
X34095Y-24656D01*
X34206Y-24678D01*
X34206Y-24678D01*
X36045Y-24678D01*
X36093Y-24698D01*
X36192Y-24698D01*
X36448Y-24698D01*
X36497Y-24678D01*
X36546Y-24698D01*
X36645Y-24698D01*
X36901Y-24698D01*
X36949Y-24678D01*
X37539Y-24678D01*
X37539Y-24678D01*
X37578Y-24671D01*
X37578Y-24671D01*
X37592Y-24676D01*
X37761Y-24677D01*
X37917Y-24612D01*
X38037Y-24493D01*
X38102Y-24336D01*
X38102Y-24167D01*
X38037Y-24011D01*
X37918Y-23891D01*
X37762Y-23827D01*
X37592Y-23826D01*
X37436Y-23891D01*
X37425Y-23903D01*
X37102Y-23903D01*
X37102Y-23886D01*
X37064Y-23795D01*
X37038Y-23768D01*
X37039Y-23768D01*
X37102Y-23706D01*
X37102Y-23689D01*
X37064Y-23598D01*
X36993Y-23527D01*
X36914Y-23494D01*
X36914Y-20828D01*
X36914Y-20427D01*
X36914Y-20327D01*
X36876Y-20235D01*
X36805Y-20165D01*
X36713Y-20127D01*
X36651Y-20127D01*
X36589Y-20190D01*
X36589Y-20577D01*
X36851Y-20577D01*
X36914Y-20515D01*
X36914Y-20427D01*
X36914Y-20828D01*
X36914Y-20740D01*
X36851Y-20677D01*
X36589Y-20677D01*
X36589Y-21065D01*
X36651Y-21127D01*
X36713Y-21127D01*
X36805Y-21089D01*
X36876Y-21019D01*
X36914Y-20927D01*
X36914Y-20828D01*
X36914Y-23494D01*
X36902Y-23489D01*
X36802Y-23489D01*
X36836Y-23489D01*
X36774Y-23551D01*
X36774Y-23686D01*
X36674Y-23686D01*
X36674Y-23551D01*
X36611Y-23489D01*
X36645Y-23489D01*
X36546Y-23489D01*
X36497Y-23509D01*
X36489Y-23506D01*
X36489Y-21065D01*
X36489Y-20677D01*
X36481Y-20677D01*
X36481Y-20577D01*
X36489Y-20577D01*
X36489Y-20190D01*
X36426Y-20127D01*
X36364Y-20127D01*
X36289Y-20158D01*
X36214Y-20127D01*
X36114Y-20127D01*
X35864Y-20127D01*
X35789Y-20158D01*
X35713Y-20127D01*
X35651Y-20127D01*
X35589Y-20190D01*
X35589Y-20577D01*
X35597Y-20577D01*
X35597Y-20677D01*
X35589Y-20677D01*
X35589Y-21065D01*
X35651Y-21127D01*
X35713Y-21127D01*
X35789Y-21096D01*
X35864Y-21127D01*
X35963Y-21127D01*
X36213Y-21127D01*
X36289Y-21096D01*
X36364Y-21127D01*
X36426Y-21127D01*
X36489Y-21065D01*
X36489Y-23506D01*
X36449Y-23489D01*
X36349Y-23489D01*
X36093Y-23489D01*
X36045Y-23509D01*
X35489Y-23509D01*
X35489Y-21065D01*
X35489Y-20677D01*
X35489Y-20577D01*
X35489Y-20190D01*
X35426Y-20127D01*
X35364Y-20127D01*
X35289Y-20158D01*
X35213Y-20127D01*
X35151Y-20127D01*
X35089Y-20190D01*
X35089Y-20577D01*
X35226Y-20577D01*
X35351Y-20577D01*
X35489Y-20577D01*
X35489Y-20677D01*
X35351Y-20677D01*
X35226Y-20677D01*
X35089Y-20677D01*
X35089Y-21065D01*
X35151Y-21127D01*
X35213Y-21127D01*
X35289Y-21096D01*
X35364Y-21127D01*
X35426Y-21127D01*
X35489Y-21065D01*
X35489Y-23509D01*
X34508Y-23509D01*
X33753Y-22754D01*
X33753Y-22550D01*
X33903Y-22551D01*
X34059Y-22486D01*
X34178Y-22367D01*
X34243Y-22210D01*
X34243Y-22110D01*
X34743Y-21610D01*
X34743Y-21610D01*
X34785Y-21547D01*
X34806Y-21516D01*
X34806Y-21516D01*
X34828Y-21405D01*
X34828Y-21405D01*
X34828Y-21112D01*
X34864Y-21127D01*
X34926Y-21127D01*
X34989Y-21065D01*
X34989Y-20677D01*
X34981Y-20677D01*
X34981Y-20577D01*
X34989Y-20577D01*
X34989Y-20190D01*
X34926Y-20127D01*
X34864Y-20127D01*
X34789Y-20158D01*
X34714Y-20127D01*
X34638Y-20127D01*
X34752Y-20013D01*
X38844Y-20013D01*
X38844Y-20013D01*
X38955Y-19991D01*
X39049Y-19929D01*
X39976Y-19001D01*
X43891Y-19001D01*
X43899Y-19021D01*
X43992Y-19114D01*
X43900Y-19206D01*
X43816Y-19406D01*
X43816Y-19623D01*
X43899Y-19824D01*
X44052Y-19977D01*
X44253Y-20061D01*
X44470Y-20061D01*
X44617Y-20000D01*
X44685Y-20013D01*
X45289Y-20013D01*
X45242Y-20060D01*
X45094Y-20416D01*
X45094Y-20754D01*
X45080Y-20719D01*
X44826Y-20623D01*
X44554Y-20632D01*
X44344Y-20719D01*
X44301Y-20828D01*
X44712Y-21240D01*
X44718Y-21234D01*
X44788Y-21305D01*
X44783Y-21311D01*
X45194Y-21722D01*
X45303Y-21678D01*
X45399Y-21424D01*
X45396Y-21313D01*
X45513Y-21430D01*
X45869Y-21578D01*
X46254Y-21578D01*
X46610Y-21431D01*
X46883Y-21159D01*
X47031Y-20803D01*
X47031Y-20418D01*
X46884Y-20062D01*
X46612Y-19789D01*
X46256Y-19641D01*
X45871Y-19641D01*
X45761Y-19686D01*
X47960Y-17488D01*
X47960Y-17488D01*
X48023Y-17394D01*
X48045Y-17283D01*
X48045Y-17283D01*
X48045Y-12480D01*
X48023Y-12369D01*
X47960Y-12275D01*
X47960Y-12275D01*
X47888Y-12203D01*
X47888Y-9952D01*
X47670Y-9426D01*
X47268Y-9023D01*
X46742Y-8805D01*
X46173Y-8804D01*
X45647Y-9022D01*
X45244Y-9424D01*
X45025Y-9950D01*
X45025Y-10519D01*
X45242Y-11045D01*
X45644Y-11448D01*
X46170Y-11667D01*
X46740Y-11667D01*
X47266Y-11450D01*
X47669Y-11047D01*
X47887Y-10522D01*
X47888Y-9952D01*
X47888Y-12203D01*
X47488Y-11803D01*
X47394Y-11740D01*
X47283Y-11718D01*
X45828Y-11718D01*
X44935Y-10825D01*
X44935Y-9763D01*
X44935Y-9763D01*
X44913Y-9653D01*
X44913Y-9653D01*
X44892Y-9621D01*
X44850Y-9559D01*
X44850Y-9559D01*
X43828Y-8537D01*
X48155Y-8537D01*
X48155Y-27683D01*
M02*
