G04 (created by PCBNEW (2013-07-07 BZR 4022)-stable) date 24/09/2013 15:52:17*
%MOIN*%
G04 Gerber Fmt 3.4, Leading zero omitted, Abs format*
%FSLAX34Y34*%
G01*
G70*
G90*
G04 APERTURE LIST*
%ADD10C,0.00590551*%
%ADD11C,0.011811*%
%ADD12C,0.066*%
%ADD13C,0.23622*%
%ADD14C,0.1437*%
%ADD15C,0.0591*%
%ADD16C,0.0866142*%
%ADD17C,0.035*%
%ADD18C,0.019685*%
%ADD19C,0.00787402*%
%ADD20C,0.01*%
G04 APERTURE END LIST*
G54D10*
G54D11*
X53008Y-11670D02*
X53177Y-11726D01*
X53233Y-11782D01*
X53290Y-11895D01*
X53290Y-12064D01*
X53233Y-12176D01*
X53177Y-12232D01*
X53065Y-12289D01*
X52615Y-12289D01*
X52615Y-11107D01*
X53008Y-11107D01*
X53121Y-11164D01*
X53177Y-11220D01*
X53233Y-11332D01*
X53233Y-11445D01*
X53177Y-11557D01*
X53121Y-11614D01*
X53008Y-11670D01*
X52615Y-11670D01*
X53796Y-12176D02*
X53852Y-12232D01*
X53796Y-12289D01*
X53740Y-12232D01*
X53796Y-12176D01*
X53796Y-12289D01*
X55033Y-12176D02*
X54977Y-12232D01*
X54808Y-12289D01*
X54696Y-12289D01*
X54527Y-12232D01*
X54415Y-12120D01*
X54358Y-12007D01*
X54302Y-11782D01*
X54302Y-11614D01*
X54358Y-11389D01*
X54415Y-11276D01*
X54527Y-11164D01*
X54696Y-11107D01*
X54808Y-11107D01*
X54977Y-11164D01*
X55033Y-11220D01*
X56046Y-11501D02*
X56046Y-12289D01*
X55539Y-11501D02*
X55539Y-12120D01*
X55596Y-12232D01*
X55708Y-12289D01*
X55877Y-12289D01*
X55989Y-12232D01*
X56046Y-12176D01*
G54D12*
X42997Y-10998D03*
X42997Y-9998D03*
X40241Y-10998D03*
X40241Y-9998D03*
X37485Y-10998D03*
X37485Y-9998D03*
X34729Y-10998D03*
X34729Y-9998D03*
G54D13*
X46456Y-10236D03*
X46456Y-25984D03*
X11023Y-25984D03*
X11023Y-10236D03*
G54D14*
X26240Y-10629D03*
X31240Y-10629D03*
G54D15*
X27334Y-11629D03*
X27736Y-12330D03*
X28137Y-11629D03*
X28539Y-12330D03*
X28940Y-11629D03*
X29342Y-12330D03*
X29744Y-11629D03*
X30145Y-12330D03*
G54D16*
X25539Y-11980D03*
X31940Y-11980D03*
G54D14*
X46062Y-15610D03*
X46062Y-20610D03*
G54D15*
X45062Y-16704D03*
X44362Y-17106D03*
X45062Y-17507D03*
X44362Y-17909D03*
X45062Y-18311D03*
X44362Y-18712D03*
X45062Y-19114D03*
X44362Y-19515D03*
G54D16*
X44712Y-14909D03*
X44712Y-21311D03*
G54D14*
X11417Y-20610D03*
X11417Y-15610D03*
G54D15*
X12417Y-19515D03*
X13118Y-19114D03*
X12417Y-18712D03*
X13118Y-18311D03*
X12417Y-17909D03*
X13118Y-17507D03*
X12417Y-17106D03*
X13118Y-16704D03*
G54D16*
X12767Y-21311D03*
X12767Y-14909D03*
G54D14*
X31240Y-25590D03*
X26240Y-25590D03*
G54D15*
X30145Y-24590D03*
X29744Y-23889D03*
X29342Y-24590D03*
X28940Y-23889D03*
X28539Y-24590D03*
X28137Y-23889D03*
X27736Y-24590D03*
X27334Y-23889D03*
G54D16*
X31940Y-24240D03*
X25539Y-24240D03*
G54D17*
X9842Y-15590D03*
X21496Y-11220D03*
X21496Y-11653D03*
X21496Y-10748D03*
X15157Y-19094D03*
X24724Y-19488D03*
X33976Y-19960D03*
X43228Y-17519D03*
X21181Y-15433D03*
X22165Y-15511D03*
X22992Y-22125D03*
X18622Y-22204D03*
X23110Y-14094D03*
X23110Y-16929D03*
X22362Y-22204D03*
X21338Y-22244D03*
X20393Y-22204D03*
X19291Y-22204D03*
X33818Y-22125D03*
X23661Y-22125D03*
X22047Y-17952D03*
X22637Y-17559D03*
X24015Y-17480D03*
X29527Y-16535D03*
X24527Y-21574D03*
X33464Y-21496D03*
X37677Y-24251D03*
X37047Y-19015D03*
X33543Y-17637D03*
X23976Y-24685D03*
X16692Y-18740D03*
X16692Y-16889D03*
X24409Y-14527D03*
X23937Y-12637D03*
X24330Y-12244D03*
X24724Y-12637D03*
G54D18*
X45062Y-18311D02*
X45062Y-18370D01*
X45062Y-18370D02*
X46141Y-19448D01*
X46141Y-19448D02*
X46850Y-19448D01*
X46850Y-19448D02*
X47401Y-20000D01*
X47401Y-20000D02*
X47401Y-21732D01*
X47401Y-21732D02*
X42047Y-27086D01*
X42047Y-27086D02*
X31259Y-27086D01*
X31259Y-27086D02*
X30145Y-25972D01*
X30145Y-25972D02*
X30145Y-24590D01*
X13110Y-10748D02*
X9842Y-14015D01*
X9842Y-14015D02*
X9842Y-15590D01*
X27334Y-11629D02*
X27334Y-10090D01*
X12161Y-17909D02*
X12417Y-17909D01*
X9842Y-15590D02*
X12161Y-17909D01*
X28539Y-24590D02*
X28539Y-24610D01*
X28539Y-24610D02*
X27322Y-25826D01*
X27322Y-25826D02*
X27322Y-26299D01*
X27322Y-26299D02*
X26456Y-27165D01*
X26456Y-27165D02*
X15196Y-27165D01*
X15196Y-27165D02*
X10393Y-22362D01*
X10393Y-22362D02*
X10393Y-20157D01*
X10393Y-20157D02*
X11035Y-19515D01*
X11035Y-19515D02*
X12417Y-19515D01*
X28940Y-11629D02*
X28940Y-11531D01*
X46287Y-16704D02*
X45062Y-16704D01*
X47244Y-15748D02*
X46287Y-16704D01*
X47244Y-14488D02*
X47244Y-15748D01*
X44881Y-12125D02*
X47244Y-14488D01*
X44881Y-9921D02*
X44881Y-12125D01*
X43937Y-8976D02*
X44881Y-9921D01*
X31496Y-8976D02*
X43937Y-8976D01*
X28940Y-11531D02*
X31496Y-8976D01*
X27334Y-11629D02*
X27334Y-11562D01*
X28255Y-10944D02*
X28940Y-11629D01*
X27952Y-10944D02*
X28255Y-10944D01*
X27334Y-11562D02*
X27952Y-10944D01*
X12417Y-19515D02*
X12271Y-19515D01*
X12271Y-19515D02*
X11811Y-19055D01*
X11811Y-19055D02*
X11811Y-18515D01*
X11811Y-18515D02*
X12417Y-17909D01*
X45062Y-16704D02*
X45129Y-16704D01*
X45669Y-17704D02*
X45062Y-18311D01*
X45669Y-17244D02*
X45669Y-17704D01*
X45129Y-16704D02*
X45669Y-17244D01*
X28539Y-24590D02*
X28539Y-24720D01*
X28539Y-24720D02*
X29133Y-25314D01*
X29133Y-25314D02*
X29421Y-25314D01*
X29421Y-25314D02*
X30145Y-24590D01*
X21496Y-10748D02*
X13110Y-10748D01*
X21496Y-10078D02*
X21496Y-10748D01*
X22519Y-9055D02*
X21496Y-10078D01*
X26299Y-9055D02*
X22519Y-9055D01*
X27334Y-10090D02*
X26299Y-9055D01*
G54D19*
X15137Y-19114D02*
X13118Y-19114D01*
X15157Y-19094D02*
X15137Y-19114D01*
X33503Y-19488D02*
X24724Y-19488D01*
X33976Y-19960D02*
X33503Y-19488D01*
X17940Y-17507D02*
X13118Y-17507D01*
X19133Y-18700D02*
X17940Y-17507D01*
X35669Y-18700D02*
X19133Y-18700D01*
X36850Y-17519D02*
X35669Y-18700D01*
X43228Y-17519D02*
X36850Y-17519D01*
G54D18*
X21259Y-15511D02*
X22165Y-15511D01*
X21181Y-15433D02*
X21259Y-15511D01*
X22480Y-14094D02*
X23110Y-14094D01*
X22125Y-14448D02*
X22480Y-14094D01*
X22125Y-15472D02*
X22125Y-14448D01*
X22165Y-15511D02*
X22125Y-15472D01*
X18622Y-22204D02*
X18622Y-19842D01*
X13531Y-21311D02*
X12767Y-21311D01*
X16535Y-18307D02*
X13531Y-21311D01*
X17086Y-18307D02*
X16535Y-18307D01*
X18622Y-19842D02*
X17086Y-18307D01*
X22598Y-21732D02*
X22992Y-22125D01*
X19094Y-21732D02*
X22598Y-21732D01*
X18622Y-22204D02*
X19094Y-21732D01*
X23110Y-16929D02*
X23110Y-14094D01*
G54D19*
X28295Y-22440D02*
X29744Y-23889D01*
X22598Y-22440D02*
X28295Y-22440D01*
X22362Y-22204D02*
X22598Y-22440D01*
X27649Y-22598D02*
X28940Y-23889D01*
X21692Y-22598D02*
X27649Y-22598D01*
X21338Y-22244D02*
X21692Y-22598D01*
X27003Y-22755D02*
X28137Y-23889D01*
X20944Y-22755D02*
X27003Y-22755D01*
X20393Y-22204D02*
X20944Y-22755D01*
X26358Y-22913D02*
X27334Y-23889D01*
X20000Y-22913D02*
X26358Y-22913D01*
X19291Y-22204D02*
X20000Y-22913D01*
X23661Y-22125D02*
X33818Y-22125D01*
X41751Y-12244D02*
X42997Y-10998D01*
X34815Y-12244D02*
X41751Y-12244D01*
X29106Y-17952D02*
X34815Y-12244D01*
X22047Y-17952D02*
X29106Y-17952D01*
X22047Y-17952D02*
X22047Y-17952D01*
X39152Y-12086D02*
X40241Y-10998D01*
X34750Y-12086D02*
X39152Y-12086D01*
X29041Y-17795D02*
X34750Y-12086D01*
X22874Y-17795D02*
X29041Y-17795D01*
X22637Y-17559D02*
X22874Y-17795D01*
X36554Y-11929D02*
X37485Y-10998D01*
X34685Y-11929D02*
X36554Y-11929D01*
X29133Y-17480D02*
X34685Y-11929D01*
X24015Y-17480D02*
X29133Y-17480D01*
X34729Y-11662D02*
X34729Y-10998D01*
X29868Y-16522D02*
X34729Y-11662D01*
X29540Y-16522D02*
X29868Y-16522D01*
X29527Y-16535D02*
X29540Y-16522D01*
X17799Y-18311D02*
X17362Y-17874D01*
X17799Y-18311D02*
X19173Y-19685D01*
X19173Y-19685D02*
X22637Y-19685D01*
X24527Y-21574D02*
X22637Y-19685D01*
X13555Y-17874D02*
X13118Y-18311D01*
X17362Y-17874D02*
X13555Y-17874D01*
X24606Y-21496D02*
X33464Y-21496D01*
X24527Y-21574D02*
X24606Y-21496D01*
X44362Y-17909D02*
X37051Y-17909D01*
X37051Y-17909D02*
X33464Y-21496D01*
G54D18*
X37677Y-19645D02*
X37677Y-24251D01*
X37047Y-19015D02*
X37677Y-19645D01*
X16692Y-16889D02*
X16692Y-17007D01*
X16692Y-17007D02*
X16929Y-17244D01*
X16929Y-17244D02*
X18897Y-17244D01*
X18897Y-17244D02*
X20000Y-18346D01*
X20000Y-18346D02*
X32834Y-18346D01*
X32834Y-18346D02*
X33543Y-17637D01*
X23267Y-23976D02*
X23976Y-24685D01*
X19724Y-23976D02*
X23267Y-23976D01*
X17834Y-22086D02*
X19724Y-23976D01*
X17834Y-19881D02*
X17834Y-22086D01*
X16692Y-18740D02*
X17834Y-19881D01*
X22519Y-16889D02*
X16692Y-16889D01*
X23031Y-17401D02*
X22519Y-16889D01*
X23385Y-17401D02*
X23031Y-17401D01*
X23622Y-17165D02*
X23385Y-17401D01*
X23622Y-15314D02*
X23622Y-17165D01*
X24409Y-14527D02*
X23622Y-15314D01*
G54D10*
G36*
X48155Y-27683D02*
X47888Y-27683D01*
X47888Y-25700D01*
X47888Y-9952D01*
X47670Y-9426D01*
X47268Y-9023D01*
X46742Y-8805D01*
X46173Y-8804D01*
X45647Y-9022D01*
X45244Y-9424D01*
X45025Y-9950D01*
X45025Y-10519D01*
X45242Y-11045D01*
X45644Y-11448D01*
X46170Y-11667D01*
X46740Y-11667D01*
X47266Y-11450D01*
X47669Y-11047D01*
X47887Y-10522D01*
X47888Y-9952D01*
X47888Y-25700D01*
X47670Y-25174D01*
X47268Y-24771D01*
X47031Y-24673D01*
X47031Y-20418D01*
X47031Y-15418D01*
X46884Y-15062D01*
X46612Y-14789D01*
X46256Y-14641D01*
X45871Y-14641D01*
X45515Y-14788D01*
X45395Y-14907D01*
X45395Y-14774D01*
X45292Y-14523D01*
X45100Y-14330D01*
X44849Y-14226D01*
X44577Y-14226D01*
X44326Y-14330D01*
X44133Y-14522D01*
X44029Y-14772D01*
X44029Y-15044D01*
X44133Y-15295D01*
X44325Y-15488D01*
X44576Y-15592D01*
X44847Y-15592D01*
X45094Y-15490D01*
X45094Y-15802D01*
X45241Y-16158D01*
X45289Y-16206D01*
X45143Y-16154D01*
X44926Y-16165D01*
X44777Y-16227D01*
X44751Y-16322D01*
X45062Y-16634D01*
X45068Y-16628D01*
X45139Y-16699D01*
X45133Y-16704D01*
X45445Y-17016D01*
X45540Y-16989D01*
X45613Y-16785D01*
X45602Y-16568D01*
X45551Y-16446D01*
X45869Y-16578D01*
X46254Y-16578D01*
X46610Y-16431D01*
X46883Y-16159D01*
X47031Y-15803D01*
X47031Y-15418D01*
X47031Y-20418D01*
X46884Y-20062D01*
X46612Y-19789D01*
X46256Y-19641D01*
X45871Y-19641D01*
X45613Y-19748D01*
X45613Y-18391D01*
X45602Y-18174D01*
X45540Y-18025D01*
X45445Y-17999D01*
X45133Y-18311D01*
X45445Y-18622D01*
X45540Y-18596D01*
X45613Y-18391D01*
X45613Y-19748D01*
X45608Y-19750D01*
X45608Y-19006D01*
X45525Y-18805D01*
X45372Y-18651D01*
X45305Y-18624D01*
X45062Y-18381D01*
X45057Y-18387D01*
X44986Y-18316D01*
X44992Y-18311D01*
X44986Y-18305D01*
X45057Y-18234D01*
X45062Y-18240D01*
X45305Y-17997D01*
X45371Y-17970D01*
X45525Y-17817D01*
X45608Y-17616D01*
X45608Y-17399D01*
X45525Y-17199D01*
X45372Y-17045D01*
X45305Y-17017D01*
X45062Y-16775D01*
X45057Y-16781D01*
X44986Y-16710D01*
X44992Y-16704D01*
X44680Y-16392D01*
X44585Y-16419D01*
X44526Y-16584D01*
X44471Y-16560D01*
X44254Y-16560D01*
X44053Y-16643D01*
X43900Y-16796D01*
X43816Y-16997D01*
X43816Y-17214D01*
X43899Y-17414D01*
X43992Y-17507D01*
X43900Y-17600D01*
X43891Y-17620D01*
X43646Y-17620D01*
X43653Y-17604D01*
X43653Y-17435D01*
X43588Y-17279D01*
X43469Y-17159D01*
X43357Y-17112D01*
X43357Y-12184D01*
X42788Y-11615D01*
X42842Y-11562D01*
X42881Y-11578D01*
X43111Y-11578D01*
X43325Y-11490D01*
X43488Y-11327D01*
X43576Y-11114D01*
X43577Y-10883D01*
X43489Y-10670D01*
X43326Y-10506D01*
X43305Y-10498D01*
X43325Y-10490D01*
X43488Y-10327D01*
X43576Y-10114D01*
X43577Y-9883D01*
X43489Y-9670D01*
X43326Y-9506D01*
X43112Y-9418D01*
X42882Y-9418D01*
X42668Y-9506D01*
X42505Y-9669D01*
X42417Y-9882D01*
X42416Y-10113D01*
X42505Y-10326D01*
X42668Y-10489D01*
X42688Y-10498D01*
X42668Y-10506D01*
X42505Y-10669D01*
X42417Y-10882D01*
X42416Y-11113D01*
X42433Y-11152D01*
X42379Y-11206D01*
X41359Y-10186D01*
X40791Y-10186D01*
X40821Y-10114D01*
X40821Y-9883D01*
X40733Y-9670D01*
X40570Y-9506D01*
X40357Y-9418D01*
X40126Y-9418D01*
X39913Y-9506D01*
X39749Y-9669D01*
X39661Y-9882D01*
X39661Y-10113D01*
X39691Y-10186D01*
X38035Y-10186D01*
X38065Y-10114D01*
X38065Y-9883D01*
X37977Y-9670D01*
X37814Y-9506D01*
X37601Y-9418D01*
X37370Y-9418D01*
X37157Y-9506D01*
X36993Y-9669D01*
X36905Y-9882D01*
X36905Y-10113D01*
X36935Y-10186D01*
X35279Y-10186D01*
X35309Y-10114D01*
X35309Y-9883D01*
X35221Y-9670D01*
X35058Y-9506D01*
X34845Y-9418D01*
X34614Y-9418D01*
X34401Y-9506D01*
X34237Y-9669D01*
X34149Y-9882D01*
X34149Y-10113D01*
X34179Y-10186D01*
X33443Y-10186D01*
X32257Y-11372D01*
X32077Y-11297D01*
X31942Y-11297D01*
X32060Y-11179D01*
X32208Y-10823D01*
X32208Y-10438D01*
X32061Y-10082D01*
X31789Y-9809D01*
X31433Y-9661D01*
X31048Y-9661D01*
X30692Y-9808D01*
X30419Y-10080D01*
X30271Y-10436D01*
X30271Y-10821D01*
X30418Y-11177D01*
X30690Y-11450D01*
X31046Y-11598D01*
X31359Y-11598D01*
X31257Y-11843D01*
X31257Y-12115D01*
X31332Y-12297D01*
X30691Y-12938D01*
X30691Y-12222D01*
X30608Y-12022D01*
X30455Y-11868D01*
X30267Y-11790D01*
X30289Y-11738D01*
X30289Y-11521D01*
X30206Y-11321D01*
X30053Y-11167D01*
X29853Y-11084D01*
X29636Y-11084D01*
X29435Y-11167D01*
X29281Y-11320D01*
X29254Y-11387D01*
X29252Y-11388D01*
X29252Y-11247D01*
X29226Y-11152D01*
X29021Y-11079D01*
X28804Y-11090D01*
X28655Y-11152D01*
X28629Y-11247D01*
X28940Y-11559D01*
X29252Y-11247D01*
X29252Y-11388D01*
X29011Y-11629D01*
X29017Y-11635D01*
X28946Y-11706D01*
X28940Y-11700D01*
X28935Y-11706D01*
X28864Y-11635D01*
X28870Y-11629D01*
X28627Y-11387D01*
X28600Y-11321D01*
X28447Y-11167D01*
X28246Y-11084D01*
X28029Y-11084D01*
X27829Y-11167D01*
X27675Y-11320D01*
X27647Y-11387D01*
X27646Y-11388D01*
X27646Y-11247D01*
X27619Y-11152D01*
X27415Y-11079D01*
X27198Y-11090D01*
X27076Y-11141D01*
X27208Y-10823D01*
X27208Y-10438D01*
X27061Y-10082D01*
X26789Y-9809D01*
X26433Y-9661D01*
X26048Y-9661D01*
X25692Y-9808D01*
X25419Y-10080D01*
X25271Y-10436D01*
X25271Y-10821D01*
X25418Y-11177D01*
X25537Y-11297D01*
X25404Y-11297D01*
X25152Y-11400D01*
X24960Y-11592D01*
X24856Y-11843D01*
X24856Y-12115D01*
X24914Y-12256D01*
X24809Y-12212D01*
X24755Y-12212D01*
X24755Y-12159D01*
X24691Y-12003D01*
X24571Y-11884D01*
X24415Y-11819D01*
X24246Y-11819D01*
X24090Y-11883D01*
X23970Y-12003D01*
X23905Y-12159D01*
X23905Y-12212D01*
X23852Y-12212D01*
X23696Y-12277D01*
X23576Y-12396D01*
X23512Y-12552D01*
X23511Y-12721D01*
X23576Y-12878D01*
X23695Y-12997D01*
X23852Y-13062D01*
X24021Y-13062D01*
X24177Y-12998D01*
X24297Y-12878D01*
X24330Y-12797D01*
X24363Y-12878D01*
X24483Y-12997D01*
X24639Y-13062D01*
X24808Y-13062D01*
X24964Y-12998D01*
X25084Y-12878D01*
X25149Y-12722D01*
X25149Y-12556D01*
X25151Y-12559D01*
X25402Y-12663D01*
X25674Y-12663D01*
X25925Y-12559D01*
X26118Y-12367D01*
X26222Y-12116D01*
X26222Y-11845D01*
X26120Y-11598D01*
X26431Y-11598D01*
X26788Y-11451D01*
X26836Y-11403D01*
X26784Y-11549D01*
X26795Y-11765D01*
X26857Y-11915D01*
X26951Y-11941D01*
X27263Y-11629D01*
X27258Y-11624D01*
X27329Y-11553D01*
X27334Y-11559D01*
X27646Y-11247D01*
X27646Y-11388D01*
X27405Y-11629D01*
X27410Y-11635D01*
X27340Y-11706D01*
X27334Y-11700D01*
X27022Y-12012D01*
X27049Y-12107D01*
X27213Y-12165D01*
X27190Y-12221D01*
X27190Y-12438D01*
X27273Y-12639D01*
X27426Y-12792D01*
X27627Y-12876D01*
X27844Y-12876D01*
X28044Y-12793D01*
X28137Y-12700D01*
X28229Y-12792D01*
X28430Y-12876D01*
X28647Y-12876D01*
X28847Y-12793D01*
X28940Y-12700D01*
X29033Y-12792D01*
X29233Y-12876D01*
X29450Y-12876D01*
X29651Y-12793D01*
X29744Y-12700D01*
X29836Y-12792D01*
X30036Y-12876D01*
X30253Y-12876D01*
X30454Y-12793D01*
X30607Y-12640D01*
X30691Y-12439D01*
X30691Y-12222D01*
X30691Y-12938D01*
X30294Y-13335D01*
X25590Y-13335D01*
X16121Y-13335D01*
X13450Y-16005D01*
X13450Y-14774D01*
X13347Y-14523D01*
X13155Y-14330D01*
X12904Y-14226D01*
X12632Y-14226D01*
X12454Y-14299D01*
X12454Y-9952D01*
X12237Y-9426D01*
X11835Y-9023D01*
X11309Y-8805D01*
X10740Y-8804D01*
X10214Y-9022D01*
X9811Y-9424D01*
X9592Y-9950D01*
X9592Y-10519D01*
X9809Y-11045D01*
X10211Y-11448D01*
X10737Y-11667D01*
X11307Y-11667D01*
X11833Y-11450D01*
X12236Y-11047D01*
X12454Y-10522D01*
X12454Y-9952D01*
X12454Y-14299D01*
X12381Y-14330D01*
X12188Y-14522D01*
X12084Y-14772D01*
X12084Y-14907D01*
X11966Y-14789D01*
X11610Y-14641D01*
X11225Y-14641D01*
X10869Y-14788D01*
X10596Y-15060D01*
X10448Y-15416D01*
X10448Y-15802D01*
X10595Y-16158D01*
X10867Y-16430D01*
X11223Y-16578D01*
X11609Y-16578D01*
X11965Y-16431D01*
X12237Y-16159D01*
X12385Y-15803D01*
X12385Y-15490D01*
X12631Y-15592D01*
X12902Y-15592D01*
X13154Y-15488D01*
X13346Y-15296D01*
X13450Y-15045D01*
X13450Y-14774D01*
X13450Y-16005D01*
X13276Y-16179D01*
X13227Y-16159D01*
X13010Y-16159D01*
X12809Y-16242D01*
X12655Y-16395D01*
X12578Y-16582D01*
X12526Y-16560D01*
X12309Y-16560D01*
X12108Y-16643D01*
X11955Y-16796D01*
X11871Y-16997D01*
X11871Y-17214D01*
X11954Y-17414D01*
X12107Y-17568D01*
X12174Y-17596D01*
X12417Y-17838D01*
X12422Y-17833D01*
X12493Y-17903D01*
X12488Y-17909D01*
X12493Y-17915D01*
X12422Y-17985D01*
X12417Y-17980D01*
X12346Y-18050D01*
X12346Y-17909D01*
X12034Y-17597D01*
X11939Y-17624D01*
X11867Y-17828D01*
X11878Y-18045D01*
X11939Y-18194D01*
X12034Y-18221D01*
X12346Y-17909D01*
X12346Y-18050D01*
X12174Y-18222D01*
X12108Y-18249D01*
X11955Y-18403D01*
X11871Y-18603D01*
X11871Y-18820D01*
X11954Y-19021D01*
X12107Y-19174D01*
X12174Y-19202D01*
X12417Y-19445D01*
X12422Y-19439D01*
X12493Y-19510D01*
X12488Y-19515D01*
X12799Y-19827D01*
X12894Y-19800D01*
X12942Y-19668D01*
X12942Y-20643D01*
X12904Y-20628D01*
X12632Y-20627D01*
X12385Y-20729D01*
X12385Y-20418D01*
X12238Y-20062D01*
X12190Y-20014D01*
X12336Y-20066D01*
X12553Y-20055D01*
X12702Y-19993D01*
X12729Y-19898D01*
X12417Y-19586D01*
X12411Y-19592D01*
X12341Y-19521D01*
X12346Y-19515D01*
X12034Y-19203D01*
X11939Y-19230D01*
X11867Y-19435D01*
X11878Y-19651D01*
X11928Y-19773D01*
X11610Y-19641D01*
X11225Y-19641D01*
X10869Y-19788D01*
X10596Y-20060D01*
X10448Y-20416D01*
X10448Y-20802D01*
X10595Y-21158D01*
X10867Y-21430D01*
X11223Y-21578D01*
X11609Y-21578D01*
X11965Y-21431D01*
X12084Y-21312D01*
X12084Y-21446D01*
X12188Y-21697D01*
X12380Y-21889D01*
X12631Y-21993D01*
X12902Y-21994D01*
X12942Y-21978D01*
X12942Y-22855D01*
X16121Y-26034D01*
X24036Y-26034D01*
X25222Y-24848D01*
X25402Y-24923D01*
X25537Y-24923D01*
X25419Y-25041D01*
X25271Y-25397D01*
X25271Y-25782D01*
X25418Y-26138D01*
X25690Y-26411D01*
X26046Y-26558D01*
X26431Y-26559D01*
X26788Y-26412D01*
X27060Y-26139D01*
X27208Y-25784D01*
X27208Y-25398D01*
X27061Y-25042D01*
X26789Y-24769D01*
X26433Y-24622D01*
X26120Y-24621D01*
X26222Y-24376D01*
X26222Y-24104D01*
X26206Y-24065D01*
X26817Y-24065D01*
X26871Y-24198D01*
X27025Y-24351D01*
X27212Y-24429D01*
X27190Y-24481D01*
X27190Y-24698D01*
X27273Y-24899D01*
X27426Y-25052D01*
X27627Y-25135D01*
X27844Y-25136D01*
X28044Y-25053D01*
X28198Y-24899D01*
X28226Y-24833D01*
X28468Y-24590D01*
X28463Y-24584D01*
X28533Y-24514D01*
X28539Y-24519D01*
X28544Y-24514D01*
X28615Y-24584D01*
X28610Y-24590D01*
X28852Y-24832D01*
X28879Y-24899D01*
X29033Y-25052D01*
X29233Y-25135D01*
X29450Y-25136D01*
X29651Y-25053D01*
X29804Y-24899D01*
X29832Y-24833D01*
X30074Y-24590D01*
X30069Y-24584D01*
X30140Y-24514D01*
X30145Y-24519D01*
X30457Y-24207D01*
X30430Y-24113D01*
X30298Y-24065D01*
X30687Y-24065D01*
X31244Y-24622D01*
X31048Y-24621D01*
X30692Y-24769D01*
X30644Y-24817D01*
X30695Y-24671D01*
X30684Y-24454D01*
X30623Y-24305D01*
X30528Y-24278D01*
X30216Y-24590D01*
X30221Y-24596D01*
X30151Y-24666D01*
X30145Y-24661D01*
X29833Y-24973D01*
X29860Y-25068D01*
X30064Y-25140D01*
X30281Y-25129D01*
X30403Y-25079D01*
X30271Y-25397D01*
X30271Y-25782D01*
X30418Y-26138D01*
X30690Y-26411D01*
X31046Y-26558D01*
X31431Y-26559D01*
X31788Y-26412D01*
X32060Y-26139D01*
X32208Y-25784D01*
X32208Y-25586D01*
X32656Y-26034D01*
X40965Y-26034D01*
X43357Y-23642D01*
X43357Y-18198D01*
X43891Y-18198D01*
X43899Y-18218D01*
X43992Y-18311D01*
X43900Y-18403D01*
X43816Y-18603D01*
X43816Y-18820D01*
X43899Y-19021D01*
X43992Y-19114D01*
X43900Y-19206D01*
X43816Y-19406D01*
X43816Y-19623D01*
X43899Y-19824D01*
X44052Y-19977D01*
X44253Y-20061D01*
X44470Y-20061D01*
X44670Y-19978D01*
X44824Y-19825D01*
X44902Y-19638D01*
X44954Y-19659D01*
X45171Y-19659D01*
X45371Y-19576D01*
X45525Y-19423D01*
X45608Y-19223D01*
X45608Y-19006D01*
X45608Y-19750D01*
X45515Y-19788D01*
X45242Y-20060D01*
X45094Y-20416D01*
X45094Y-20729D01*
X44849Y-20628D01*
X44577Y-20627D01*
X44326Y-20731D01*
X44133Y-20923D01*
X44029Y-21174D01*
X44029Y-21446D01*
X44133Y-21697D01*
X44325Y-21889D01*
X44576Y-21993D01*
X44847Y-21994D01*
X45099Y-21890D01*
X45291Y-21698D01*
X45395Y-21447D01*
X45395Y-21312D01*
X45513Y-21430D01*
X45869Y-21578D01*
X46254Y-21578D01*
X46610Y-21431D01*
X46883Y-21159D01*
X47031Y-20803D01*
X47031Y-20418D01*
X47031Y-24673D01*
X46742Y-24553D01*
X46173Y-24552D01*
X45647Y-24770D01*
X45244Y-25172D01*
X45025Y-25698D01*
X45025Y-26267D01*
X45242Y-26793D01*
X45644Y-27196D01*
X46170Y-27415D01*
X46740Y-27415D01*
X47266Y-27198D01*
X47669Y-26795D01*
X47887Y-26270D01*
X47888Y-25700D01*
X47888Y-27683D01*
X43357Y-27683D01*
X28851Y-27683D01*
X28851Y-24973D01*
X28539Y-24661D01*
X28227Y-24973D01*
X28254Y-25068D01*
X28458Y-25140D01*
X28675Y-25129D01*
X28824Y-25068D01*
X28851Y-24973D01*
X28851Y-27683D01*
X12454Y-27683D01*
X12454Y-25700D01*
X12237Y-25174D01*
X11835Y-24771D01*
X11309Y-24553D01*
X10740Y-24552D01*
X10214Y-24770D01*
X9811Y-25172D01*
X9592Y-25698D01*
X9592Y-26267D01*
X9809Y-26793D01*
X10211Y-27196D01*
X10737Y-27415D01*
X11307Y-27415D01*
X11833Y-27198D01*
X12236Y-26795D01*
X12454Y-26270D01*
X12454Y-25700D01*
X12454Y-27683D01*
X9324Y-27683D01*
X9324Y-8537D01*
X48155Y-8537D01*
X48155Y-27683D01*
X48155Y-27683D01*
G37*
G54D20*
X48155Y-27683D02*
X47888Y-27683D01*
X47888Y-25700D01*
X47888Y-9952D01*
X47670Y-9426D01*
X47268Y-9023D01*
X46742Y-8805D01*
X46173Y-8804D01*
X45647Y-9022D01*
X45244Y-9424D01*
X45025Y-9950D01*
X45025Y-10519D01*
X45242Y-11045D01*
X45644Y-11448D01*
X46170Y-11667D01*
X46740Y-11667D01*
X47266Y-11450D01*
X47669Y-11047D01*
X47887Y-10522D01*
X47888Y-9952D01*
X47888Y-25700D01*
X47670Y-25174D01*
X47268Y-24771D01*
X47031Y-24673D01*
X47031Y-20418D01*
X47031Y-15418D01*
X46884Y-15062D01*
X46612Y-14789D01*
X46256Y-14641D01*
X45871Y-14641D01*
X45515Y-14788D01*
X45395Y-14907D01*
X45395Y-14774D01*
X45292Y-14523D01*
X45100Y-14330D01*
X44849Y-14226D01*
X44577Y-14226D01*
X44326Y-14330D01*
X44133Y-14522D01*
X44029Y-14772D01*
X44029Y-15044D01*
X44133Y-15295D01*
X44325Y-15488D01*
X44576Y-15592D01*
X44847Y-15592D01*
X45094Y-15490D01*
X45094Y-15802D01*
X45241Y-16158D01*
X45289Y-16206D01*
X45143Y-16154D01*
X44926Y-16165D01*
X44777Y-16227D01*
X44751Y-16322D01*
X45062Y-16634D01*
X45068Y-16628D01*
X45139Y-16699D01*
X45133Y-16704D01*
X45445Y-17016D01*
X45540Y-16989D01*
X45613Y-16785D01*
X45602Y-16568D01*
X45551Y-16446D01*
X45869Y-16578D01*
X46254Y-16578D01*
X46610Y-16431D01*
X46883Y-16159D01*
X47031Y-15803D01*
X47031Y-15418D01*
X47031Y-20418D01*
X46884Y-20062D01*
X46612Y-19789D01*
X46256Y-19641D01*
X45871Y-19641D01*
X45613Y-19748D01*
X45613Y-18391D01*
X45602Y-18174D01*
X45540Y-18025D01*
X45445Y-17999D01*
X45133Y-18311D01*
X45445Y-18622D01*
X45540Y-18596D01*
X45613Y-18391D01*
X45613Y-19748D01*
X45608Y-19750D01*
X45608Y-19006D01*
X45525Y-18805D01*
X45372Y-18651D01*
X45305Y-18624D01*
X45062Y-18381D01*
X45057Y-18387D01*
X44986Y-18316D01*
X44992Y-18311D01*
X44986Y-18305D01*
X45057Y-18234D01*
X45062Y-18240D01*
X45305Y-17997D01*
X45371Y-17970D01*
X45525Y-17817D01*
X45608Y-17616D01*
X45608Y-17399D01*
X45525Y-17199D01*
X45372Y-17045D01*
X45305Y-17017D01*
X45062Y-16775D01*
X45057Y-16781D01*
X44986Y-16710D01*
X44992Y-16704D01*
X44680Y-16392D01*
X44585Y-16419D01*
X44526Y-16584D01*
X44471Y-16560D01*
X44254Y-16560D01*
X44053Y-16643D01*
X43900Y-16796D01*
X43816Y-16997D01*
X43816Y-17214D01*
X43899Y-17414D01*
X43992Y-17507D01*
X43900Y-17600D01*
X43891Y-17620D01*
X43646Y-17620D01*
X43653Y-17604D01*
X43653Y-17435D01*
X43588Y-17279D01*
X43469Y-17159D01*
X43357Y-17112D01*
X43357Y-12184D01*
X42788Y-11615D01*
X42842Y-11562D01*
X42881Y-11578D01*
X43111Y-11578D01*
X43325Y-11490D01*
X43488Y-11327D01*
X43576Y-11114D01*
X43577Y-10883D01*
X43489Y-10670D01*
X43326Y-10506D01*
X43305Y-10498D01*
X43325Y-10490D01*
X43488Y-10327D01*
X43576Y-10114D01*
X43577Y-9883D01*
X43489Y-9670D01*
X43326Y-9506D01*
X43112Y-9418D01*
X42882Y-9418D01*
X42668Y-9506D01*
X42505Y-9669D01*
X42417Y-9882D01*
X42416Y-10113D01*
X42505Y-10326D01*
X42668Y-10489D01*
X42688Y-10498D01*
X42668Y-10506D01*
X42505Y-10669D01*
X42417Y-10882D01*
X42416Y-11113D01*
X42433Y-11152D01*
X42379Y-11206D01*
X41359Y-10186D01*
X40791Y-10186D01*
X40821Y-10114D01*
X40821Y-9883D01*
X40733Y-9670D01*
X40570Y-9506D01*
X40357Y-9418D01*
X40126Y-9418D01*
X39913Y-9506D01*
X39749Y-9669D01*
X39661Y-9882D01*
X39661Y-10113D01*
X39691Y-10186D01*
X38035Y-10186D01*
X38065Y-10114D01*
X38065Y-9883D01*
X37977Y-9670D01*
X37814Y-9506D01*
X37601Y-9418D01*
X37370Y-9418D01*
X37157Y-9506D01*
X36993Y-9669D01*
X36905Y-9882D01*
X36905Y-10113D01*
X36935Y-10186D01*
X35279Y-10186D01*
X35309Y-10114D01*
X35309Y-9883D01*
X35221Y-9670D01*
X35058Y-9506D01*
X34845Y-9418D01*
X34614Y-9418D01*
X34401Y-9506D01*
X34237Y-9669D01*
X34149Y-9882D01*
X34149Y-10113D01*
X34179Y-10186D01*
X33443Y-10186D01*
X32257Y-11372D01*
X32077Y-11297D01*
X31942Y-11297D01*
X32060Y-11179D01*
X32208Y-10823D01*
X32208Y-10438D01*
X32061Y-10082D01*
X31789Y-9809D01*
X31433Y-9661D01*
X31048Y-9661D01*
X30692Y-9808D01*
X30419Y-10080D01*
X30271Y-10436D01*
X30271Y-10821D01*
X30418Y-11177D01*
X30690Y-11450D01*
X31046Y-11598D01*
X31359Y-11598D01*
X31257Y-11843D01*
X31257Y-12115D01*
X31332Y-12297D01*
X30691Y-12938D01*
X30691Y-12222D01*
X30608Y-12022D01*
X30455Y-11868D01*
X30267Y-11790D01*
X30289Y-11738D01*
X30289Y-11521D01*
X30206Y-11321D01*
X30053Y-11167D01*
X29853Y-11084D01*
X29636Y-11084D01*
X29435Y-11167D01*
X29281Y-11320D01*
X29254Y-11387D01*
X29252Y-11388D01*
X29252Y-11247D01*
X29226Y-11152D01*
X29021Y-11079D01*
X28804Y-11090D01*
X28655Y-11152D01*
X28629Y-11247D01*
X28940Y-11559D01*
X29252Y-11247D01*
X29252Y-11388D01*
X29011Y-11629D01*
X29017Y-11635D01*
X28946Y-11706D01*
X28940Y-11700D01*
X28935Y-11706D01*
X28864Y-11635D01*
X28870Y-11629D01*
X28627Y-11387D01*
X28600Y-11321D01*
X28447Y-11167D01*
X28246Y-11084D01*
X28029Y-11084D01*
X27829Y-11167D01*
X27675Y-11320D01*
X27647Y-11387D01*
X27646Y-11388D01*
X27646Y-11247D01*
X27619Y-11152D01*
X27415Y-11079D01*
X27198Y-11090D01*
X27076Y-11141D01*
X27208Y-10823D01*
X27208Y-10438D01*
X27061Y-10082D01*
X26789Y-9809D01*
X26433Y-9661D01*
X26048Y-9661D01*
X25692Y-9808D01*
X25419Y-10080D01*
X25271Y-10436D01*
X25271Y-10821D01*
X25418Y-11177D01*
X25537Y-11297D01*
X25404Y-11297D01*
X25152Y-11400D01*
X24960Y-11592D01*
X24856Y-11843D01*
X24856Y-12115D01*
X24914Y-12256D01*
X24809Y-12212D01*
X24755Y-12212D01*
X24755Y-12159D01*
X24691Y-12003D01*
X24571Y-11884D01*
X24415Y-11819D01*
X24246Y-11819D01*
X24090Y-11883D01*
X23970Y-12003D01*
X23905Y-12159D01*
X23905Y-12212D01*
X23852Y-12212D01*
X23696Y-12277D01*
X23576Y-12396D01*
X23512Y-12552D01*
X23511Y-12721D01*
X23576Y-12878D01*
X23695Y-12997D01*
X23852Y-13062D01*
X24021Y-13062D01*
X24177Y-12998D01*
X24297Y-12878D01*
X24330Y-12797D01*
X24363Y-12878D01*
X24483Y-12997D01*
X24639Y-13062D01*
X24808Y-13062D01*
X24964Y-12998D01*
X25084Y-12878D01*
X25149Y-12722D01*
X25149Y-12556D01*
X25151Y-12559D01*
X25402Y-12663D01*
X25674Y-12663D01*
X25925Y-12559D01*
X26118Y-12367D01*
X26222Y-12116D01*
X26222Y-11845D01*
X26120Y-11598D01*
X26431Y-11598D01*
X26788Y-11451D01*
X26836Y-11403D01*
X26784Y-11549D01*
X26795Y-11765D01*
X26857Y-11915D01*
X26951Y-11941D01*
X27263Y-11629D01*
X27258Y-11624D01*
X27329Y-11553D01*
X27334Y-11559D01*
X27646Y-11247D01*
X27646Y-11388D01*
X27405Y-11629D01*
X27410Y-11635D01*
X27340Y-11706D01*
X27334Y-11700D01*
X27022Y-12012D01*
X27049Y-12107D01*
X27213Y-12165D01*
X27190Y-12221D01*
X27190Y-12438D01*
X27273Y-12639D01*
X27426Y-12792D01*
X27627Y-12876D01*
X27844Y-12876D01*
X28044Y-12793D01*
X28137Y-12700D01*
X28229Y-12792D01*
X28430Y-12876D01*
X28647Y-12876D01*
X28847Y-12793D01*
X28940Y-12700D01*
X29033Y-12792D01*
X29233Y-12876D01*
X29450Y-12876D01*
X29651Y-12793D01*
X29744Y-12700D01*
X29836Y-12792D01*
X30036Y-12876D01*
X30253Y-12876D01*
X30454Y-12793D01*
X30607Y-12640D01*
X30691Y-12439D01*
X30691Y-12222D01*
X30691Y-12938D01*
X30294Y-13335D01*
X25590Y-13335D01*
X16121Y-13335D01*
X13450Y-16005D01*
X13450Y-14774D01*
X13347Y-14523D01*
X13155Y-14330D01*
X12904Y-14226D01*
X12632Y-14226D01*
X12454Y-14299D01*
X12454Y-9952D01*
X12237Y-9426D01*
X11835Y-9023D01*
X11309Y-8805D01*
X10740Y-8804D01*
X10214Y-9022D01*
X9811Y-9424D01*
X9592Y-9950D01*
X9592Y-10519D01*
X9809Y-11045D01*
X10211Y-11448D01*
X10737Y-11667D01*
X11307Y-11667D01*
X11833Y-11450D01*
X12236Y-11047D01*
X12454Y-10522D01*
X12454Y-9952D01*
X12454Y-14299D01*
X12381Y-14330D01*
X12188Y-14522D01*
X12084Y-14772D01*
X12084Y-14907D01*
X11966Y-14789D01*
X11610Y-14641D01*
X11225Y-14641D01*
X10869Y-14788D01*
X10596Y-15060D01*
X10448Y-15416D01*
X10448Y-15802D01*
X10595Y-16158D01*
X10867Y-16430D01*
X11223Y-16578D01*
X11609Y-16578D01*
X11965Y-16431D01*
X12237Y-16159D01*
X12385Y-15803D01*
X12385Y-15490D01*
X12631Y-15592D01*
X12902Y-15592D01*
X13154Y-15488D01*
X13346Y-15296D01*
X13450Y-15045D01*
X13450Y-14774D01*
X13450Y-16005D01*
X13276Y-16179D01*
X13227Y-16159D01*
X13010Y-16159D01*
X12809Y-16242D01*
X12655Y-16395D01*
X12578Y-16582D01*
X12526Y-16560D01*
X12309Y-16560D01*
X12108Y-16643D01*
X11955Y-16796D01*
X11871Y-16997D01*
X11871Y-17214D01*
X11954Y-17414D01*
X12107Y-17568D01*
X12174Y-17596D01*
X12417Y-17838D01*
X12422Y-17833D01*
X12493Y-17903D01*
X12488Y-17909D01*
X12493Y-17915D01*
X12422Y-17985D01*
X12417Y-17980D01*
X12346Y-18050D01*
X12346Y-17909D01*
X12034Y-17597D01*
X11939Y-17624D01*
X11867Y-17828D01*
X11878Y-18045D01*
X11939Y-18194D01*
X12034Y-18221D01*
X12346Y-17909D01*
X12346Y-18050D01*
X12174Y-18222D01*
X12108Y-18249D01*
X11955Y-18403D01*
X11871Y-18603D01*
X11871Y-18820D01*
X11954Y-19021D01*
X12107Y-19174D01*
X12174Y-19202D01*
X12417Y-19445D01*
X12422Y-19439D01*
X12493Y-19510D01*
X12488Y-19515D01*
X12799Y-19827D01*
X12894Y-19800D01*
X12942Y-19668D01*
X12942Y-20643D01*
X12904Y-20628D01*
X12632Y-20627D01*
X12385Y-20729D01*
X12385Y-20418D01*
X12238Y-20062D01*
X12190Y-20014D01*
X12336Y-20066D01*
X12553Y-20055D01*
X12702Y-19993D01*
X12729Y-19898D01*
X12417Y-19586D01*
X12411Y-19592D01*
X12341Y-19521D01*
X12346Y-19515D01*
X12034Y-19203D01*
X11939Y-19230D01*
X11867Y-19435D01*
X11878Y-19651D01*
X11928Y-19773D01*
X11610Y-19641D01*
X11225Y-19641D01*
X10869Y-19788D01*
X10596Y-20060D01*
X10448Y-20416D01*
X10448Y-20802D01*
X10595Y-21158D01*
X10867Y-21430D01*
X11223Y-21578D01*
X11609Y-21578D01*
X11965Y-21431D01*
X12084Y-21312D01*
X12084Y-21446D01*
X12188Y-21697D01*
X12380Y-21889D01*
X12631Y-21993D01*
X12902Y-21994D01*
X12942Y-21978D01*
X12942Y-22855D01*
X16121Y-26034D01*
X24036Y-26034D01*
X25222Y-24848D01*
X25402Y-24923D01*
X25537Y-24923D01*
X25419Y-25041D01*
X25271Y-25397D01*
X25271Y-25782D01*
X25418Y-26138D01*
X25690Y-26411D01*
X26046Y-26558D01*
X26431Y-26559D01*
X26788Y-26412D01*
X27060Y-26139D01*
X27208Y-25784D01*
X27208Y-25398D01*
X27061Y-25042D01*
X26789Y-24769D01*
X26433Y-24622D01*
X26120Y-24621D01*
X26222Y-24376D01*
X26222Y-24104D01*
X26206Y-24065D01*
X26817Y-24065D01*
X26871Y-24198D01*
X27025Y-24351D01*
X27212Y-24429D01*
X27190Y-24481D01*
X27190Y-24698D01*
X27273Y-24899D01*
X27426Y-25052D01*
X27627Y-25135D01*
X27844Y-25136D01*
X28044Y-25053D01*
X28198Y-24899D01*
X28226Y-24833D01*
X28468Y-24590D01*
X28463Y-24584D01*
X28533Y-24514D01*
X28539Y-24519D01*
X28544Y-24514D01*
X28615Y-24584D01*
X28610Y-24590D01*
X28852Y-24832D01*
X28879Y-24899D01*
X29033Y-25052D01*
X29233Y-25135D01*
X29450Y-25136D01*
X29651Y-25053D01*
X29804Y-24899D01*
X29832Y-24833D01*
X30074Y-24590D01*
X30069Y-24584D01*
X30140Y-24514D01*
X30145Y-24519D01*
X30457Y-24207D01*
X30430Y-24113D01*
X30298Y-24065D01*
X30687Y-24065D01*
X31244Y-24622D01*
X31048Y-24621D01*
X30692Y-24769D01*
X30644Y-24817D01*
X30695Y-24671D01*
X30684Y-24454D01*
X30623Y-24305D01*
X30528Y-24278D01*
X30216Y-24590D01*
X30221Y-24596D01*
X30151Y-24666D01*
X30145Y-24661D01*
X29833Y-24973D01*
X29860Y-25068D01*
X30064Y-25140D01*
X30281Y-25129D01*
X30403Y-25079D01*
X30271Y-25397D01*
X30271Y-25782D01*
X30418Y-26138D01*
X30690Y-26411D01*
X31046Y-26558D01*
X31431Y-26559D01*
X31788Y-26412D01*
X32060Y-26139D01*
X32208Y-25784D01*
X32208Y-25586D01*
X32656Y-26034D01*
X40965Y-26034D01*
X43357Y-23642D01*
X43357Y-18198D01*
X43891Y-18198D01*
X43899Y-18218D01*
X43992Y-18311D01*
X43900Y-18403D01*
X43816Y-18603D01*
X43816Y-18820D01*
X43899Y-19021D01*
X43992Y-19114D01*
X43900Y-19206D01*
X43816Y-19406D01*
X43816Y-19623D01*
X43899Y-19824D01*
X44052Y-19977D01*
X44253Y-20061D01*
X44470Y-20061D01*
X44670Y-19978D01*
X44824Y-19825D01*
X44902Y-19638D01*
X44954Y-19659D01*
X45171Y-19659D01*
X45371Y-19576D01*
X45525Y-19423D01*
X45608Y-19223D01*
X45608Y-19006D01*
X45608Y-19750D01*
X45515Y-19788D01*
X45242Y-20060D01*
X45094Y-20416D01*
X45094Y-20729D01*
X44849Y-20628D01*
X44577Y-20627D01*
X44326Y-20731D01*
X44133Y-20923D01*
X44029Y-21174D01*
X44029Y-21446D01*
X44133Y-21697D01*
X44325Y-21889D01*
X44576Y-21993D01*
X44847Y-21994D01*
X45099Y-21890D01*
X45291Y-21698D01*
X45395Y-21447D01*
X45395Y-21312D01*
X45513Y-21430D01*
X45869Y-21578D01*
X46254Y-21578D01*
X46610Y-21431D01*
X46883Y-21159D01*
X47031Y-20803D01*
X47031Y-20418D01*
X47031Y-24673D01*
X46742Y-24553D01*
X46173Y-24552D01*
X45647Y-24770D01*
X45244Y-25172D01*
X45025Y-25698D01*
X45025Y-26267D01*
X45242Y-26793D01*
X45644Y-27196D01*
X46170Y-27415D01*
X46740Y-27415D01*
X47266Y-27198D01*
X47669Y-26795D01*
X47887Y-26270D01*
X47888Y-25700D01*
X47888Y-27683D01*
X43357Y-27683D01*
X28851Y-27683D01*
X28851Y-24973D01*
X28539Y-24661D01*
X28227Y-24973D01*
X28254Y-25068D01*
X28458Y-25140D01*
X28675Y-25129D01*
X28824Y-25068D01*
X28851Y-24973D01*
X28851Y-27683D01*
X12454Y-27683D01*
X12454Y-25700D01*
X12237Y-25174D01*
X11835Y-24771D01*
X11309Y-24553D01*
X10740Y-24552D01*
X10214Y-24770D01*
X9811Y-25172D01*
X9592Y-25698D01*
X9592Y-26267D01*
X9809Y-26793D01*
X10211Y-27196D01*
X10737Y-27415D01*
X11307Y-27415D01*
X11833Y-27198D01*
X12236Y-26795D01*
X12454Y-26270D01*
X12454Y-25700D01*
X12454Y-27683D01*
X9324Y-27683D01*
X9324Y-8537D01*
X48155Y-8537D01*
X48155Y-27683D01*
G54D10*
G36*
X26607Y-23572D02*
X25963Y-23572D01*
X25889Y-23645D01*
X25675Y-23557D01*
X25404Y-23556D01*
X25152Y-23660D01*
X24960Y-23852D01*
X24856Y-24103D01*
X24856Y-24375D01*
X24945Y-24590D01*
X23995Y-25540D01*
X16162Y-25540D01*
X13435Y-22813D01*
X13435Y-21659D01*
X13531Y-21659D01*
X13531Y-21659D01*
X13531Y-21659D01*
X13642Y-21637D01*
X13664Y-21632D01*
X13664Y-21632D01*
X13777Y-21557D01*
X16679Y-18655D01*
X16942Y-18655D01*
X18273Y-19986D01*
X18273Y-21952D01*
X18261Y-21963D01*
X18197Y-22119D01*
X18196Y-22288D01*
X18261Y-22445D01*
X18380Y-22564D01*
X18537Y-22629D01*
X18706Y-22629D01*
X18862Y-22565D01*
X18956Y-22471D01*
X19050Y-22564D01*
X19206Y-22629D01*
X19307Y-22629D01*
X19795Y-23118D01*
X19795Y-23118D01*
X19889Y-23180D01*
X19889Y-23180D01*
X19907Y-23184D01*
X20000Y-23202D01*
X26238Y-23202D01*
X26607Y-23572D01*
X26607Y-23572D01*
G37*
G54D20*
X26607Y-23572D02*
X25963Y-23572D01*
X25889Y-23645D01*
X25675Y-23557D01*
X25404Y-23556D01*
X25152Y-23660D01*
X24960Y-23852D01*
X24856Y-24103D01*
X24856Y-24375D01*
X24945Y-24590D01*
X23995Y-25540D01*
X16162Y-25540D01*
X13435Y-22813D01*
X13435Y-21659D01*
X13531Y-21659D01*
X13531Y-21659D01*
X13531Y-21659D01*
X13642Y-21637D01*
X13664Y-21632D01*
X13664Y-21632D01*
X13777Y-21557D01*
X16679Y-18655D01*
X16942Y-18655D01*
X18273Y-19986D01*
X18273Y-21952D01*
X18261Y-21963D01*
X18197Y-22119D01*
X18196Y-22288D01*
X18261Y-22445D01*
X18380Y-22564D01*
X18537Y-22629D01*
X18706Y-22629D01*
X18862Y-22565D01*
X18956Y-22471D01*
X19050Y-22564D01*
X19206Y-22629D01*
X19307Y-22629D01*
X19795Y-23118D01*
X19795Y-23118D01*
X19889Y-23180D01*
X19889Y-23180D01*
X19907Y-23184D01*
X20000Y-23202D01*
X26238Y-23202D01*
X26607Y-23572D01*
G54D10*
G36*
X34440Y-11542D02*
X29787Y-16194D01*
X29768Y-16175D01*
X29612Y-16110D01*
X29443Y-16110D01*
X29287Y-16174D01*
X29167Y-16294D01*
X29102Y-16450D01*
X29102Y-16619D01*
X29167Y-16775D01*
X29286Y-16895D01*
X29302Y-16902D01*
X29013Y-17190D01*
X24327Y-17190D01*
X24256Y-17120D01*
X24100Y-17055D01*
X23931Y-17055D01*
X23775Y-17119D01*
X23655Y-17239D01*
X23590Y-17395D01*
X23590Y-17505D01*
X23062Y-17505D01*
X23062Y-17474D01*
X23010Y-17347D01*
X23025Y-17354D01*
X23194Y-17354D01*
X23350Y-17289D01*
X23470Y-17170D01*
X23535Y-17014D01*
X23535Y-16844D01*
X23470Y-16688D01*
X23458Y-16676D01*
X23458Y-14347D01*
X23470Y-14335D01*
X23535Y-14179D01*
X23535Y-14010D01*
X23470Y-13854D01*
X23446Y-13829D01*
X30335Y-13829D01*
X31590Y-12574D01*
X31804Y-12663D01*
X32076Y-12663D01*
X32327Y-12559D01*
X32519Y-12367D01*
X32623Y-12116D01*
X32624Y-11845D01*
X32535Y-11629D01*
X33485Y-10679D01*
X34233Y-10679D01*
X34149Y-10882D01*
X34149Y-11113D01*
X34237Y-11326D01*
X34400Y-11489D01*
X34440Y-11506D01*
X34440Y-11542D01*
X34440Y-11542D01*
G37*
G54D20*
X34440Y-11542D02*
X29787Y-16194D01*
X29768Y-16175D01*
X29612Y-16110D01*
X29443Y-16110D01*
X29287Y-16174D01*
X29167Y-16294D01*
X29102Y-16450D01*
X29102Y-16619D01*
X29167Y-16775D01*
X29286Y-16895D01*
X29302Y-16902D01*
X29013Y-17190D01*
X24327Y-17190D01*
X24256Y-17120D01*
X24100Y-17055D01*
X23931Y-17055D01*
X23775Y-17119D01*
X23655Y-17239D01*
X23590Y-17395D01*
X23590Y-17505D01*
X23062Y-17505D01*
X23062Y-17474D01*
X23010Y-17347D01*
X23025Y-17354D01*
X23194Y-17354D01*
X23350Y-17289D01*
X23470Y-17170D01*
X23535Y-17014D01*
X23535Y-16844D01*
X23470Y-16688D01*
X23458Y-16676D01*
X23458Y-14347D01*
X23470Y-14335D01*
X23535Y-14179D01*
X23535Y-14010D01*
X23470Y-13854D01*
X23446Y-13829D01*
X30335Y-13829D01*
X31590Y-12574D01*
X31804Y-12663D01*
X32076Y-12663D01*
X32327Y-12559D01*
X32519Y-12367D01*
X32623Y-12116D01*
X32624Y-11845D01*
X32535Y-11629D01*
X33485Y-10679D01*
X34233Y-10679D01*
X34149Y-10882D01*
X34149Y-11113D01*
X34237Y-11326D01*
X34400Y-11489D01*
X34440Y-11506D01*
X34440Y-11542D01*
G54D10*
G36*
X42863Y-17230D02*
X36850Y-17230D01*
X36739Y-17252D01*
X36708Y-17273D01*
X36645Y-17315D01*
X35549Y-18411D01*
X19253Y-18411D01*
X18145Y-17303D01*
X18051Y-17240D01*
X17940Y-17218D01*
X13588Y-17218D01*
X13580Y-17199D01*
X13487Y-17106D01*
X13580Y-17014D01*
X13663Y-16813D01*
X13663Y-16596D01*
X13585Y-16406D01*
X16162Y-13829D01*
X22261Y-13829D01*
X22233Y-13848D01*
X22233Y-13848D01*
X21879Y-14202D01*
X21804Y-14315D01*
X21799Y-14337D01*
X21777Y-14448D01*
X21777Y-14448D01*
X21777Y-15163D01*
X21512Y-15163D01*
X21422Y-15072D01*
X21266Y-15008D01*
X21096Y-15007D01*
X20940Y-15072D01*
X20821Y-15192D01*
X20756Y-15348D01*
X20756Y-15517D01*
X20820Y-15673D01*
X20940Y-15793D01*
X21096Y-15857D01*
X21249Y-15858D01*
X21249Y-15858D01*
X21259Y-15860D01*
X21259Y-15860D01*
X21259Y-15860D01*
X21912Y-15860D01*
X21924Y-15871D01*
X22080Y-15936D01*
X22249Y-15936D01*
X22405Y-15872D01*
X22525Y-15752D01*
X22590Y-15596D01*
X22590Y-15427D01*
X22525Y-15271D01*
X22474Y-15219D01*
X22474Y-14593D01*
X22624Y-14442D01*
X22761Y-14442D01*
X22761Y-16676D01*
X22750Y-16688D01*
X22685Y-16844D01*
X22685Y-17013D01*
X22737Y-17140D01*
X22722Y-17134D01*
X22553Y-17133D01*
X22397Y-17198D01*
X22277Y-17317D01*
X22212Y-17474D01*
X22212Y-17561D01*
X22132Y-17527D01*
X21963Y-17527D01*
X21806Y-17592D01*
X21687Y-17711D01*
X21622Y-17867D01*
X21622Y-18036D01*
X21686Y-18193D01*
X21806Y-18312D01*
X21962Y-18377D01*
X22131Y-18377D01*
X22287Y-18313D01*
X22358Y-18242D01*
X29106Y-18242D01*
X29106Y-18242D01*
X29217Y-18220D01*
X29311Y-18157D01*
X34935Y-12533D01*
X41751Y-12533D01*
X41751Y-12533D01*
X41861Y-12511D01*
X41955Y-12448D01*
X42521Y-11883D01*
X42863Y-12225D01*
X42863Y-17230D01*
X42863Y-17230D01*
G37*
G54D20*
X42863Y-17230D02*
X36850Y-17230D01*
X36739Y-17252D01*
X36708Y-17273D01*
X36645Y-17315D01*
X35549Y-18411D01*
X19253Y-18411D01*
X18145Y-17303D01*
X18051Y-17240D01*
X17940Y-17218D01*
X13588Y-17218D01*
X13580Y-17199D01*
X13487Y-17106D01*
X13580Y-17014D01*
X13663Y-16813D01*
X13663Y-16596D01*
X13585Y-16406D01*
X16162Y-13829D01*
X22261Y-13829D01*
X22233Y-13848D01*
X22233Y-13848D01*
X21879Y-14202D01*
X21804Y-14315D01*
X21799Y-14337D01*
X21777Y-14448D01*
X21777Y-14448D01*
X21777Y-15163D01*
X21512Y-15163D01*
X21422Y-15072D01*
X21266Y-15008D01*
X21096Y-15007D01*
X20940Y-15072D01*
X20821Y-15192D01*
X20756Y-15348D01*
X20756Y-15517D01*
X20820Y-15673D01*
X20940Y-15793D01*
X21096Y-15857D01*
X21249Y-15858D01*
X21249Y-15858D01*
X21259Y-15860D01*
X21259Y-15860D01*
X21259Y-15860D01*
X21912Y-15860D01*
X21924Y-15871D01*
X22080Y-15936D01*
X22249Y-15936D01*
X22405Y-15872D01*
X22525Y-15752D01*
X22590Y-15596D01*
X22590Y-15427D01*
X22525Y-15271D01*
X22474Y-15219D01*
X22474Y-14593D01*
X22624Y-14442D01*
X22761Y-14442D01*
X22761Y-16676D01*
X22750Y-16688D01*
X22685Y-16844D01*
X22685Y-17013D01*
X22737Y-17140D01*
X22722Y-17134D01*
X22553Y-17133D01*
X22397Y-17198D01*
X22277Y-17317D01*
X22212Y-17474D01*
X22212Y-17561D01*
X22132Y-17527D01*
X21963Y-17527D01*
X21806Y-17592D01*
X21687Y-17711D01*
X21622Y-17867D01*
X21622Y-18036D01*
X21686Y-18193D01*
X21806Y-18312D01*
X21962Y-18377D01*
X22131Y-18377D01*
X22287Y-18313D01*
X22358Y-18242D01*
X29106Y-18242D01*
X29106Y-18242D01*
X29217Y-18220D01*
X29311Y-18157D01*
X34935Y-12533D01*
X41751Y-12533D01*
X41751Y-12533D01*
X41861Y-12511D01*
X41955Y-12448D01*
X42521Y-11883D01*
X42863Y-12225D01*
X42863Y-17230D01*
G54D10*
G36*
X42863Y-23601D02*
X40924Y-25540D01*
X32697Y-25540D01*
X32079Y-24922D01*
X32327Y-24819D01*
X32519Y-24627D01*
X32623Y-24376D01*
X32624Y-24104D01*
X32520Y-23853D01*
X32328Y-23661D01*
X32077Y-23557D01*
X31805Y-23556D01*
X31554Y-23660D01*
X31362Y-23852D01*
X31258Y-24101D01*
X30729Y-23572D01*
X30197Y-23572D01*
X30053Y-23427D01*
X29853Y-23344D01*
X29636Y-23344D01*
X29616Y-23352D01*
X28678Y-22415D01*
X33507Y-22415D01*
X33577Y-22486D01*
X33733Y-22550D01*
X33903Y-22551D01*
X34059Y-22486D01*
X34178Y-22367D01*
X34243Y-22210D01*
X34243Y-22041D01*
X34179Y-21885D01*
X34059Y-21765D01*
X33903Y-21701D01*
X33839Y-21701D01*
X33889Y-21580D01*
X33889Y-21480D01*
X37171Y-18198D01*
X42863Y-18198D01*
X42863Y-23601D01*
X42863Y-23601D01*
G37*
G54D20*
X42863Y-23601D02*
X40924Y-25540D01*
X32697Y-25540D01*
X32079Y-24922D01*
X32327Y-24819D01*
X32519Y-24627D01*
X32623Y-24376D01*
X32624Y-24104D01*
X32520Y-23853D01*
X32328Y-23661D01*
X32077Y-23557D01*
X31805Y-23556D01*
X31554Y-23660D01*
X31362Y-23852D01*
X31258Y-24101D01*
X30729Y-23572D01*
X30197Y-23572D01*
X30053Y-23427D01*
X29853Y-23344D01*
X29636Y-23344D01*
X29616Y-23352D01*
X28678Y-22415D01*
X33507Y-22415D01*
X33577Y-22486D01*
X33733Y-22550D01*
X33903Y-22551D01*
X34059Y-22486D01*
X34178Y-22367D01*
X34243Y-22210D01*
X34243Y-22041D01*
X34179Y-21885D01*
X34059Y-21765D01*
X33903Y-21701D01*
X33839Y-21701D01*
X33889Y-21580D01*
X33889Y-21480D01*
X37171Y-18198D01*
X42863Y-18198D01*
X42863Y-23601D01*
M02*
