G04 (created by PCBNEW (2013-07-07 BZR 4022)-stable) date 24/09/2013 15:52:17*
%MOIN*%
G04 Gerber Fmt 3.4, Leading zero omitted, Abs format*
%FSLAX34Y34*%
G01*
G70*
G90*
G04 APERTURE LIST*
%ADD10C,0.00590551*%
%ADD11C,0.011811*%
%ADD12C,0.0758425*%
%ADD13C,0.246063*%
%ADD14R,0.033474X0.019674*%
%ADD15R,0.019674X0.033474*%
%ADD16R,0.0348425X0.0598425*%
%ADD17R,0.0448425X0.0648425*%
%ADD18C,0.153543*%
%ADD19C,0.0689425*%
%ADD20C,0.0964567*%
%ADD21R,0.0374425X0.0728425*%
%ADD22R,0.0374425X0.0925425*%
%ADD23R,0.0885425X0.118143*%
%ADD24R,0.0334646X0.0885827*%
%ADD25R,0.0398425X0.0598425*%
G04 APERTURE END LIST*
G54D10*
G54D11*
X52840Y-18560D02*
X52446Y-18560D01*
X52446Y-19178D02*
X52446Y-17997D01*
X53008Y-17997D01*
X53458Y-19066D02*
X53515Y-19122D01*
X53458Y-19178D01*
X53402Y-19122D01*
X53458Y-19066D01*
X53458Y-19178D01*
X54021Y-19178D02*
X54021Y-17997D01*
X54415Y-18841D01*
X54808Y-17997D01*
X54808Y-19178D01*
X55877Y-19178D02*
X55877Y-18560D01*
X55821Y-18447D01*
X55708Y-18391D01*
X55483Y-18391D01*
X55371Y-18447D01*
X55877Y-19122D02*
X55764Y-19178D01*
X55483Y-19178D01*
X55371Y-19122D01*
X55314Y-19010D01*
X55314Y-18897D01*
X55371Y-18785D01*
X55483Y-18728D01*
X55764Y-18728D01*
X55877Y-18672D01*
X56383Y-19122D02*
X56496Y-19178D01*
X56721Y-19178D01*
X56833Y-19122D01*
X56889Y-19010D01*
X56889Y-18953D01*
X56833Y-18841D01*
X56721Y-18785D01*
X56552Y-18785D01*
X56439Y-18728D01*
X56383Y-18616D01*
X56383Y-18560D01*
X56439Y-18447D01*
X56552Y-18391D01*
X56721Y-18391D01*
X56833Y-18447D01*
X57395Y-19178D02*
X57395Y-17997D01*
X57508Y-18728D02*
X57845Y-19178D01*
X57845Y-18391D02*
X57395Y-18841D01*
G54D12*
X42997Y-10998D03*
X42997Y-9998D03*
X40241Y-10998D03*
X40241Y-9998D03*
X37485Y-10998D03*
X37485Y-9998D03*
X34729Y-10998D03*
X34729Y-9998D03*
G54D13*
X46456Y-10236D03*
X46456Y-25984D03*
X11023Y-25984D03*
X11023Y-10236D03*
G54D14*
X46504Y-12500D03*
X46504Y-12697D03*
X46504Y-12894D03*
X46504Y-13091D03*
X46957Y-13091D03*
X46957Y-12894D03*
X46957Y-12697D03*
X46957Y-12500D03*
G54D15*
X28405Y-17196D03*
X28602Y-17196D03*
X28799Y-17196D03*
X28996Y-17196D03*
X28996Y-16743D03*
X28799Y-16743D03*
X28602Y-16743D03*
X28405Y-16743D03*
G54D14*
X36724Y-24389D03*
X36724Y-24192D03*
X36724Y-23995D03*
X36724Y-23798D03*
X36271Y-23798D03*
X36271Y-23995D03*
X36271Y-24192D03*
X36271Y-24389D03*
G54D16*
X33539Y-20627D03*
X34039Y-20627D03*
X34539Y-20627D03*
X35039Y-20627D03*
X35539Y-20627D03*
X36039Y-20627D03*
X36539Y-20627D03*
X36539Y-18427D03*
X36039Y-18427D03*
X35539Y-18427D03*
X35039Y-18427D03*
X34539Y-18427D03*
X34039Y-18427D03*
X33539Y-18427D03*
G54D15*
X28877Y-20244D03*
X28680Y-20244D03*
X28483Y-20244D03*
X28286Y-20244D03*
X28286Y-20697D03*
X28483Y-20697D03*
X28680Y-20697D03*
X28877Y-20697D03*
G54D17*
X21514Y-13385D03*
X22264Y-13385D03*
X23878Y-13385D03*
X23128Y-13385D03*
G54D18*
X26240Y-10629D03*
X31240Y-10629D03*
G54D19*
X27334Y-11629D03*
X27736Y-12330D03*
X28137Y-11629D03*
X28539Y-12330D03*
X28940Y-11629D03*
X29342Y-12330D03*
X29744Y-11629D03*
X30145Y-12330D03*
G54D20*
X25539Y-11980D03*
X31940Y-11980D03*
G54D18*
X46062Y-15610D03*
X46062Y-20610D03*
G54D19*
X45062Y-16704D03*
X44362Y-17106D03*
X45062Y-17507D03*
X44362Y-17909D03*
X45062Y-18311D03*
X44362Y-18712D03*
X45062Y-19114D03*
X44362Y-19515D03*
G54D20*
X44712Y-14909D03*
X44712Y-21311D03*
G54D18*
X11417Y-20610D03*
X11417Y-15610D03*
G54D19*
X12417Y-19515D03*
X13118Y-19114D03*
X12417Y-18712D03*
X13118Y-18311D03*
X12417Y-17909D03*
X13118Y-17507D03*
X12417Y-17106D03*
X13118Y-16704D03*
G54D20*
X12767Y-21311D03*
X12767Y-14909D03*
G54D18*
X31240Y-25590D03*
X26240Y-25590D03*
G54D19*
X30145Y-24590D03*
X29744Y-23889D03*
X29342Y-24590D03*
X28940Y-23889D03*
X28539Y-24590D03*
X28137Y-23889D03*
X27736Y-24590D03*
X27334Y-23889D03*
G54D20*
X31940Y-24240D03*
X25539Y-24240D03*
G54D21*
X23740Y-10748D03*
G54D22*
X23149Y-10846D03*
G54D21*
X22558Y-10748D03*
G54D23*
X23149Y-11791D03*
G54D24*
X23942Y-16181D03*
X23442Y-16181D03*
X22942Y-16181D03*
X22442Y-16181D03*
X21942Y-16181D03*
X21442Y-16181D03*
X20942Y-16181D03*
X20442Y-16181D03*
X19942Y-16181D03*
X19442Y-16181D03*
X19442Y-19881D03*
X19942Y-19881D03*
X20442Y-19881D03*
X20942Y-19881D03*
X21442Y-19881D03*
X21942Y-19881D03*
X22442Y-19881D03*
X22942Y-19881D03*
X23442Y-19881D03*
X23942Y-19881D03*
G54D25*
X24009Y-21564D03*
X23509Y-21564D03*
X23009Y-21564D03*
X22509Y-21564D03*
X22009Y-21564D03*
X21509Y-21564D03*
X21009Y-21564D03*
X20509Y-21564D03*
X20009Y-21564D03*
X19509Y-21564D03*
X19009Y-21564D03*
X18509Y-21564D03*
X24009Y-25364D03*
X23509Y-25364D03*
X23009Y-25364D03*
X22509Y-25364D03*
X22009Y-25364D03*
X21509Y-25364D03*
X21009Y-25364D03*
X20509Y-25364D03*
X20009Y-25364D03*
X19509Y-25364D03*
X19009Y-25364D03*
X18509Y-25364D03*
M02*
