G04 (created by PCBNEW (2013-07-07 BZR 4022)-stable) date 24/09/2013 15:52:17*
%MOIN*%
G04 Gerber Fmt 3.4, Leading zero omitted, Abs format*
%FSLAX34Y34*%
G01*
G70*
G90*
G04 APERTURE LIST*
%ADD10C,0.00590551*%
%ADD11C,0.00984252*%
%ADD12C,0.011811*%
%ADD13C,0.00787402*%
%ADD14C,0.0295276*%
%ADD15C,0.008*%
%ADD16C,0.003*%
%ADD17C,0.01*%
%ADD18C,0.006*%
%ADD19C,0.0098*%
%ADD20C,0.005*%
%ADD21C,0.0039*%
%ADD22C,0.012*%
%ADD23C,0.0758425*%
%ADD24C,0.246063*%
%ADD25R,0.033474X0.019674*%
%ADD26R,0.019674X0.033474*%
%ADD27R,0.0348425X0.0598425*%
%ADD28R,0.0448425X0.0648425*%
%ADD29C,0.153543*%
%ADD30C,0.0689425*%
%ADD31C,0.0964567*%
%ADD32R,0.0374425X0.0728425*%
%ADD33R,0.0374425X0.0925425*%
%ADD34R,0.0885425X0.118143*%
%ADD35R,0.0334646X0.0885827*%
%ADD36R,0.0398425X0.0598425*%
G04 APERTURE END LIST*
G54D10*
G54D11*
X12933Y-26694D02*
X12982Y-26301D01*
X13076Y-26301D01*
X13129Y-26319D01*
X13162Y-26357D01*
X13176Y-26394D01*
X13186Y-26469D01*
X13179Y-26526D01*
X13151Y-26601D01*
X13127Y-26638D01*
X13085Y-26676D01*
X13026Y-26694D01*
X12933Y-26694D01*
X13479Y-26676D02*
X13439Y-26694D01*
X13364Y-26694D01*
X13329Y-26676D01*
X13315Y-26638D01*
X13333Y-26488D01*
X13357Y-26451D01*
X13397Y-26432D01*
X13472Y-26432D01*
X13507Y-26451D01*
X13521Y-26488D01*
X13516Y-26526D01*
X13324Y-26563D01*
X13647Y-26676D02*
X13682Y-26694D01*
X13757Y-26694D01*
X13797Y-26676D01*
X13821Y-26638D01*
X13823Y-26619D01*
X13809Y-26582D01*
X13774Y-26563D01*
X13718Y-26563D01*
X13682Y-26544D01*
X13668Y-26507D01*
X13671Y-26488D01*
X13694Y-26451D01*
X13734Y-26432D01*
X13790Y-26432D01*
X13825Y-26451D01*
X13982Y-26694D02*
X14015Y-26432D01*
X14032Y-26301D02*
X14011Y-26319D01*
X14027Y-26338D01*
X14048Y-26319D01*
X14032Y-26301D01*
X14027Y-26338D01*
X14371Y-26432D02*
X14332Y-26751D01*
X14308Y-26788D01*
X14287Y-26807D01*
X14247Y-26826D01*
X14191Y-26826D01*
X14156Y-26807D01*
X14341Y-26676D02*
X14301Y-26694D01*
X14226Y-26694D01*
X14191Y-26676D01*
X14175Y-26657D01*
X14161Y-26619D01*
X14175Y-26507D01*
X14198Y-26469D01*
X14219Y-26451D01*
X14259Y-26432D01*
X14334Y-26432D01*
X14369Y-26451D01*
X14559Y-26432D02*
X14526Y-26694D01*
X14554Y-26469D02*
X14575Y-26451D01*
X14615Y-26432D01*
X14671Y-26432D01*
X14707Y-26451D01*
X14721Y-26488D01*
X14695Y-26694D01*
X15035Y-26676D02*
X14995Y-26694D01*
X14920Y-26694D01*
X14885Y-26676D01*
X14871Y-26638D01*
X14889Y-26488D01*
X14913Y-26451D01*
X14953Y-26432D01*
X15028Y-26432D01*
X15063Y-26451D01*
X15077Y-26488D01*
X15072Y-26526D01*
X14880Y-26563D01*
X15389Y-26694D02*
X15438Y-26301D01*
X15391Y-26676D02*
X15351Y-26694D01*
X15276Y-26694D01*
X15241Y-26676D01*
X15224Y-26657D01*
X15210Y-26619D01*
X15224Y-26507D01*
X15248Y-26469D01*
X15269Y-26451D01*
X15309Y-26432D01*
X15384Y-26432D01*
X15419Y-26451D01*
X15876Y-26694D02*
X15925Y-26301D01*
X15906Y-26451D02*
X15946Y-26432D01*
X16021Y-26432D01*
X16056Y-26451D01*
X16073Y-26469D01*
X16087Y-26507D01*
X16073Y-26619D01*
X16049Y-26657D01*
X16028Y-26676D01*
X15988Y-26694D01*
X15913Y-26694D01*
X15878Y-26676D01*
X16227Y-26432D02*
X16288Y-26694D01*
X16415Y-26432D02*
X16288Y-26694D01*
X16239Y-26788D01*
X16218Y-26807D01*
X16178Y-26826D01*
X16827Y-26582D02*
X17015Y-26582D01*
X16776Y-26694D02*
X16956Y-26301D01*
X17038Y-26694D01*
X17226Y-26694D02*
X17191Y-26676D01*
X17177Y-26638D01*
X17219Y-26301D01*
X17376Y-26694D02*
X17409Y-26432D01*
X17425Y-26301D02*
X17404Y-26319D01*
X17420Y-26338D01*
X17441Y-26319D01*
X17425Y-26301D01*
X17420Y-26338D01*
X17547Y-26676D02*
X17582Y-26694D01*
X17657Y-26694D01*
X17697Y-26676D01*
X17720Y-26638D01*
X17723Y-26619D01*
X17709Y-26582D01*
X17673Y-26563D01*
X17617Y-26563D01*
X17582Y-26544D01*
X17568Y-26507D01*
X17570Y-26488D01*
X17594Y-26451D01*
X17634Y-26432D01*
X17690Y-26432D01*
X17725Y-26451D01*
X17859Y-26432D02*
X18008Y-26432D01*
X17931Y-26301D02*
X17889Y-26638D01*
X17903Y-26676D01*
X17938Y-26694D01*
X17976Y-26694D01*
X18276Y-26694D02*
X18301Y-26488D01*
X18287Y-26451D01*
X18252Y-26432D01*
X18177Y-26432D01*
X18137Y-26451D01*
X18278Y-26676D02*
X18238Y-26694D01*
X18144Y-26694D01*
X18109Y-26676D01*
X18095Y-26638D01*
X18100Y-26601D01*
X18123Y-26563D01*
X18163Y-26544D01*
X18257Y-26544D01*
X18297Y-26526D01*
X18463Y-26694D02*
X18496Y-26432D01*
X18512Y-26301D02*
X18491Y-26319D01*
X18508Y-26338D01*
X18529Y-26319D01*
X18512Y-26301D01*
X18508Y-26338D01*
X18651Y-26694D02*
X18683Y-26432D01*
X18674Y-26507D02*
X18697Y-26469D01*
X18719Y-26451D01*
X18758Y-26432D01*
X18796Y-26432D01*
X19206Y-26301D02*
X19251Y-26694D01*
X19361Y-26413D01*
X19401Y-26694D01*
X19543Y-26301D01*
X19644Y-26694D02*
X19677Y-26432D01*
X19693Y-26301D02*
X19672Y-26319D01*
X19689Y-26338D01*
X19710Y-26319D01*
X19693Y-26301D01*
X19689Y-26338D01*
X20003Y-26676D02*
X19963Y-26694D01*
X19888Y-26694D01*
X19853Y-26676D01*
X19836Y-26657D01*
X19822Y-26619D01*
X19836Y-26507D01*
X19860Y-26469D01*
X19881Y-26451D01*
X19921Y-26432D01*
X19996Y-26432D01*
X20031Y-26451D01*
X20169Y-26694D02*
X20218Y-26301D01*
X20225Y-26544D02*
X20319Y-26694D01*
X20352Y-26432D02*
X20183Y-26582D01*
X13101Y-27344D02*
X13127Y-27138D01*
X13113Y-27100D01*
X13078Y-27081D01*
X13003Y-27081D01*
X12963Y-27100D01*
X13104Y-27325D02*
X13064Y-27344D01*
X12970Y-27344D01*
X12935Y-27325D01*
X12921Y-27288D01*
X12926Y-27250D01*
X12949Y-27213D01*
X12989Y-27194D01*
X13083Y-27194D01*
X13122Y-27175D01*
X13322Y-27081D02*
X13289Y-27344D01*
X13317Y-27119D02*
X13338Y-27100D01*
X13378Y-27081D01*
X13434Y-27081D01*
X13469Y-27100D01*
X13483Y-27138D01*
X13458Y-27344D01*
X13814Y-27344D02*
X13863Y-26950D01*
X13816Y-27325D02*
X13776Y-27344D01*
X13701Y-27344D01*
X13666Y-27325D01*
X13650Y-27306D01*
X13636Y-27269D01*
X13650Y-27156D01*
X13673Y-27119D01*
X13694Y-27100D01*
X13734Y-27081D01*
X13809Y-27081D01*
X13844Y-27100D01*
X14531Y-27306D02*
X14510Y-27325D01*
X14451Y-27344D01*
X14414Y-27344D01*
X14360Y-27325D01*
X14327Y-27288D01*
X14313Y-27250D01*
X14303Y-27175D01*
X14311Y-27119D01*
X14339Y-27044D01*
X14362Y-27006D01*
X14404Y-26969D01*
X14463Y-26950D01*
X14500Y-26950D01*
X14554Y-26969D01*
X14571Y-26988D01*
X14695Y-27344D02*
X14728Y-27081D01*
X14718Y-27156D02*
X14742Y-27119D01*
X14763Y-27100D01*
X14803Y-27081D01*
X14840Y-27081D01*
X15107Y-27344D02*
X15133Y-27138D01*
X15119Y-27100D01*
X15084Y-27081D01*
X15009Y-27081D01*
X14969Y-27100D01*
X15110Y-27325D02*
X15070Y-27344D01*
X14976Y-27344D01*
X14941Y-27325D01*
X14927Y-27288D01*
X14932Y-27250D01*
X14955Y-27213D01*
X14995Y-27194D01*
X15089Y-27194D01*
X15128Y-27175D01*
X15295Y-27344D02*
X15328Y-27081D01*
X15344Y-26950D02*
X15323Y-26969D01*
X15339Y-26988D01*
X15360Y-26969D01*
X15344Y-26950D01*
X15339Y-26988D01*
X15684Y-27081D02*
X15644Y-27400D01*
X15621Y-27438D01*
X15599Y-27456D01*
X15560Y-27475D01*
X15503Y-27475D01*
X15468Y-27456D01*
X15653Y-27325D02*
X15613Y-27344D01*
X15538Y-27344D01*
X15503Y-27325D01*
X15487Y-27306D01*
X15473Y-27269D01*
X15487Y-27156D01*
X15510Y-27119D01*
X15531Y-27100D01*
X15571Y-27081D01*
X15646Y-27081D01*
X15681Y-27100D01*
X16295Y-27138D02*
X16349Y-27156D01*
X16366Y-27175D01*
X16380Y-27213D01*
X16373Y-27269D01*
X16349Y-27306D01*
X16328Y-27325D01*
X16288Y-27344D01*
X16138Y-27344D01*
X16188Y-26950D01*
X16319Y-26950D01*
X16354Y-26969D01*
X16370Y-26988D01*
X16384Y-27025D01*
X16380Y-27063D01*
X16356Y-27100D01*
X16335Y-27119D01*
X16295Y-27138D01*
X16164Y-27138D01*
X16588Y-27344D02*
X16553Y-27325D01*
X16539Y-27288D01*
X16581Y-26950D01*
X16907Y-27344D02*
X16933Y-27138D01*
X16919Y-27100D01*
X16884Y-27081D01*
X16809Y-27081D01*
X16769Y-27100D01*
X16909Y-27325D02*
X16870Y-27344D01*
X16776Y-27344D01*
X16741Y-27325D01*
X16727Y-27288D01*
X16731Y-27250D01*
X16755Y-27213D01*
X16795Y-27194D01*
X16888Y-27194D01*
X16928Y-27175D01*
X17266Y-27325D02*
X17226Y-27344D01*
X17151Y-27344D01*
X17116Y-27325D01*
X17099Y-27306D01*
X17085Y-27269D01*
X17099Y-27156D01*
X17123Y-27119D01*
X17144Y-27100D01*
X17184Y-27081D01*
X17259Y-27081D01*
X17294Y-27100D01*
X17432Y-27344D02*
X17481Y-26950D01*
X17488Y-27194D02*
X17582Y-27344D01*
X17615Y-27081D02*
X17446Y-27231D01*
X17751Y-27344D02*
X17784Y-27081D01*
X17779Y-27119D02*
X17800Y-27100D01*
X17840Y-27081D01*
X17896Y-27081D01*
X17931Y-27100D01*
X17945Y-27138D01*
X17919Y-27344D01*
X17945Y-27138D02*
X17969Y-27100D01*
X18008Y-27081D01*
X18065Y-27081D01*
X18100Y-27100D01*
X18114Y-27138D01*
X18088Y-27344D01*
X18332Y-27344D02*
X18297Y-27325D01*
X18280Y-27306D01*
X18266Y-27269D01*
X18280Y-27156D01*
X18304Y-27119D01*
X18325Y-27100D01*
X18365Y-27081D01*
X18421Y-27081D01*
X18456Y-27100D01*
X18473Y-27119D01*
X18487Y-27156D01*
X18473Y-27269D01*
X18449Y-27306D01*
X18428Y-27325D01*
X18388Y-27344D01*
X18332Y-27344D01*
X18632Y-27344D02*
X18665Y-27081D01*
X18655Y-27156D02*
X18679Y-27119D01*
X18700Y-27100D01*
X18740Y-27081D01*
X18777Y-27081D01*
X19028Y-27325D02*
X18988Y-27344D01*
X18913Y-27344D01*
X18878Y-27325D01*
X18864Y-27288D01*
X18883Y-27138D01*
X18906Y-27100D01*
X18946Y-27081D01*
X19021Y-27081D01*
X19056Y-27100D01*
X19070Y-27138D01*
X19065Y-27175D01*
X18873Y-27213D01*
G54D12*
X52890Y-16237D02*
X52497Y-16237D01*
X52497Y-16856D02*
X52497Y-15674D01*
X53059Y-15674D01*
X53509Y-16743D02*
X53565Y-16799D01*
X53509Y-16856D01*
X53453Y-16799D01*
X53509Y-16743D01*
X53509Y-16856D01*
X54015Y-16799D02*
X54184Y-16856D01*
X54465Y-16856D01*
X54578Y-16799D01*
X54634Y-16743D01*
X54690Y-16631D01*
X54690Y-16518D01*
X54634Y-16406D01*
X54578Y-16349D01*
X54465Y-16293D01*
X54240Y-16237D01*
X54128Y-16181D01*
X54071Y-16124D01*
X54015Y-16012D01*
X54015Y-15899D01*
X54071Y-15787D01*
X54128Y-15731D01*
X54240Y-15674D01*
X54521Y-15674D01*
X54690Y-15731D01*
X55196Y-16856D02*
X55196Y-16068D01*
X55196Y-15674D02*
X55140Y-15731D01*
X55196Y-15787D01*
X55253Y-15731D01*
X55196Y-15674D01*
X55196Y-15787D01*
X55928Y-16856D02*
X55815Y-16799D01*
X55759Y-16687D01*
X55759Y-15674D01*
X56377Y-16856D02*
X56377Y-15674D01*
X56490Y-16406D02*
X56827Y-16856D01*
X56827Y-16068D02*
X56377Y-16518D01*
X57277Y-16799D02*
X57446Y-16856D01*
X57727Y-16856D01*
X57840Y-16799D01*
X57896Y-16743D01*
X57952Y-16631D01*
X57952Y-16518D01*
X57896Y-16406D01*
X57840Y-16349D01*
X57727Y-16293D01*
X57502Y-16237D01*
X57390Y-16181D01*
X57334Y-16124D01*
X57277Y-16012D01*
X57277Y-15899D01*
X57334Y-15787D01*
X57390Y-15731D01*
X57502Y-15674D01*
X57784Y-15674D01*
X57952Y-15731D01*
G54D13*
X15551Y-16732D02*
X15551Y-14960D01*
X17322Y-14960D02*
X15551Y-16732D01*
X17322Y-14960D02*
X15551Y-14960D01*
X17322Y-21259D02*
X15551Y-19488D01*
X15551Y-21259D02*
X17322Y-21259D01*
X15551Y-17519D02*
X15551Y-21259D01*
X38779Y-18110D02*
X41929Y-21259D01*
X41929Y-14960D02*
X38779Y-18110D01*
X41929Y-19094D02*
X41929Y-16732D01*
X39371Y-25093D02*
X39071Y-25206D01*
X39371Y-25318D01*
X39559Y-25206D02*
X39859Y-25206D01*
X40046Y-25206D02*
X40346Y-25206D01*
X40534Y-25206D02*
X40834Y-25206D01*
X41021Y-25206D02*
X41321Y-25206D01*
X41509Y-25206D02*
X41809Y-25206D01*
X41996Y-25206D02*
X42296Y-25206D01*
X42484Y-25206D02*
X42784Y-25206D01*
X42971Y-25206D02*
X43271Y-25206D01*
X43458Y-25206D02*
X43758Y-25206D01*
X43946Y-25206D02*
X44246Y-25206D01*
X44433Y-25206D02*
X44733Y-25206D01*
X44921Y-25206D02*
X45221Y-25206D01*
G54D12*
X21557Y-9215D02*
X21557Y-8624D01*
X21698Y-8624D01*
X21782Y-8652D01*
X21839Y-8709D01*
X21867Y-8765D01*
X21895Y-8877D01*
X21895Y-8962D01*
X21867Y-9074D01*
X21839Y-9131D01*
X21782Y-9187D01*
X21698Y-9215D01*
X21557Y-9215D01*
X22401Y-9215D02*
X22401Y-8906D01*
X22373Y-8849D01*
X22317Y-8821D01*
X22204Y-8821D01*
X22148Y-8849D01*
X22401Y-9187D02*
X22345Y-9215D01*
X22204Y-9215D01*
X22148Y-9187D01*
X22120Y-9131D01*
X22120Y-9074D01*
X22148Y-9018D01*
X22204Y-8990D01*
X22345Y-8990D01*
X22401Y-8962D01*
X22598Y-8821D02*
X22823Y-8821D01*
X22682Y-8624D02*
X22682Y-9131D01*
X22710Y-9187D01*
X22767Y-9215D01*
X22823Y-9215D01*
X23273Y-9215D02*
X23273Y-8906D01*
X23245Y-8849D01*
X23188Y-8821D01*
X23076Y-8821D01*
X23020Y-8849D01*
X23273Y-9187D02*
X23217Y-9215D01*
X23076Y-9215D01*
X23020Y-9187D01*
X22992Y-9131D01*
X22992Y-9074D01*
X23020Y-9018D01*
X23076Y-8990D01*
X23217Y-8990D01*
X23273Y-8962D01*
X24116Y-8624D02*
X24229Y-8624D01*
X24285Y-8652D01*
X24341Y-8709D01*
X24370Y-8821D01*
X24370Y-9018D01*
X24341Y-9131D01*
X24285Y-9187D01*
X24229Y-9215D01*
X24116Y-9215D01*
X24060Y-9187D01*
X24004Y-9131D01*
X23976Y-9018D01*
X23976Y-8821D01*
X24004Y-8709D01*
X24060Y-8652D01*
X24116Y-8624D01*
X24876Y-8821D02*
X24876Y-9215D01*
X24623Y-8821D02*
X24623Y-9131D01*
X24651Y-9187D01*
X24707Y-9215D01*
X24791Y-9215D01*
X24848Y-9187D01*
X24876Y-9159D01*
X25073Y-8821D02*
X25298Y-8821D01*
X25157Y-8624D02*
X25157Y-9131D01*
X25185Y-9187D01*
X25241Y-9215D01*
X25298Y-9215D01*
X32249Y-27601D02*
X32249Y-27010D01*
X32390Y-27010D01*
X32474Y-27038D01*
X32530Y-27095D01*
X32559Y-27151D01*
X32587Y-27263D01*
X32587Y-27348D01*
X32559Y-27460D01*
X32530Y-27516D01*
X32474Y-27573D01*
X32390Y-27601D01*
X32249Y-27601D01*
X33093Y-27601D02*
X33093Y-27291D01*
X33065Y-27235D01*
X33008Y-27207D01*
X32896Y-27207D01*
X32840Y-27235D01*
X33093Y-27573D02*
X33037Y-27601D01*
X32896Y-27601D01*
X32840Y-27573D01*
X32812Y-27516D01*
X32812Y-27460D01*
X32840Y-27404D01*
X32896Y-27376D01*
X33037Y-27376D01*
X33093Y-27348D01*
X33290Y-27207D02*
X33515Y-27207D01*
X33374Y-27010D02*
X33374Y-27516D01*
X33402Y-27573D01*
X33458Y-27601D01*
X33515Y-27601D01*
X33965Y-27601D02*
X33965Y-27291D01*
X33937Y-27235D01*
X33880Y-27207D01*
X33768Y-27207D01*
X33712Y-27235D01*
X33965Y-27573D02*
X33908Y-27601D01*
X33768Y-27601D01*
X33712Y-27573D01*
X33683Y-27516D01*
X33683Y-27460D01*
X33712Y-27404D01*
X33768Y-27376D01*
X33908Y-27376D01*
X33965Y-27348D01*
X34696Y-27601D02*
X34696Y-27010D01*
X34977Y-27207D02*
X34977Y-27601D01*
X34977Y-27263D02*
X35005Y-27235D01*
X35061Y-27207D01*
X35146Y-27207D01*
X35202Y-27235D01*
X35230Y-27291D01*
X35230Y-27601D01*
G54D13*
X39390Y-24385D02*
X39090Y-24497D01*
X39390Y-24610D01*
X39878Y-24441D02*
X40009Y-24441D01*
X40065Y-24647D02*
X39878Y-24647D01*
X39878Y-24253D01*
X40065Y-24253D01*
X40234Y-24385D02*
X40234Y-24647D01*
X40234Y-24422D02*
X40253Y-24403D01*
X40290Y-24385D01*
X40346Y-24385D01*
X40384Y-24403D01*
X40403Y-24441D01*
X40403Y-24647D01*
X40759Y-24647D02*
X40759Y-24441D01*
X40740Y-24403D01*
X40703Y-24385D01*
X40628Y-24385D01*
X40590Y-24403D01*
X40759Y-24628D02*
X40721Y-24647D01*
X40628Y-24647D01*
X40590Y-24628D01*
X40571Y-24591D01*
X40571Y-24553D01*
X40590Y-24516D01*
X40628Y-24497D01*
X40721Y-24497D01*
X40759Y-24478D01*
X40946Y-24647D02*
X40946Y-24253D01*
X40946Y-24403D02*
X40984Y-24385D01*
X41059Y-24385D01*
X41096Y-24403D01*
X41115Y-24422D01*
X41134Y-24460D01*
X41134Y-24572D01*
X41115Y-24610D01*
X41096Y-24628D01*
X41059Y-24647D01*
X40984Y-24647D01*
X40946Y-24628D01*
X41359Y-24647D02*
X41321Y-24628D01*
X41302Y-24591D01*
X41302Y-24253D01*
X41659Y-24628D02*
X41621Y-24647D01*
X41546Y-24647D01*
X41509Y-24628D01*
X41490Y-24591D01*
X41490Y-24441D01*
X41509Y-24403D01*
X41546Y-24385D01*
X41621Y-24385D01*
X41659Y-24403D01*
X41677Y-24441D01*
X41677Y-24478D01*
X41490Y-24516D01*
X42259Y-24797D02*
X42240Y-24778D01*
X42202Y-24722D01*
X42184Y-24685D01*
X42165Y-24628D01*
X42146Y-24535D01*
X42146Y-24460D01*
X42165Y-24366D01*
X42184Y-24310D01*
X42202Y-24272D01*
X42240Y-24216D01*
X42259Y-24197D01*
X42577Y-24647D02*
X42577Y-24253D01*
X42577Y-24628D02*
X42540Y-24647D01*
X42465Y-24647D01*
X42427Y-24628D01*
X42409Y-24610D01*
X42390Y-24572D01*
X42390Y-24460D01*
X42409Y-24422D01*
X42427Y-24403D01*
X42465Y-24385D01*
X42540Y-24385D01*
X42577Y-24403D01*
X42915Y-24628D02*
X42877Y-24647D01*
X42802Y-24647D01*
X42765Y-24628D01*
X42746Y-24591D01*
X42746Y-24441D01*
X42765Y-24403D01*
X42802Y-24385D01*
X42877Y-24385D01*
X42915Y-24403D01*
X42934Y-24441D01*
X42934Y-24478D01*
X42746Y-24516D01*
X43046Y-24385D02*
X43196Y-24385D01*
X43102Y-24647D02*
X43102Y-24310D01*
X43121Y-24272D01*
X43158Y-24253D01*
X43196Y-24253D01*
X43496Y-24647D02*
X43496Y-24441D01*
X43477Y-24403D01*
X43440Y-24385D01*
X43365Y-24385D01*
X43327Y-24403D01*
X43496Y-24628D02*
X43458Y-24647D01*
X43365Y-24647D01*
X43327Y-24628D01*
X43308Y-24591D01*
X43308Y-24553D01*
X43327Y-24516D01*
X43365Y-24497D01*
X43458Y-24497D01*
X43496Y-24478D01*
X43852Y-24385D02*
X43852Y-24647D01*
X43683Y-24385D02*
X43683Y-24591D01*
X43702Y-24628D01*
X43740Y-24647D01*
X43796Y-24647D01*
X43833Y-24628D01*
X43852Y-24610D01*
X44096Y-24647D02*
X44058Y-24628D01*
X44040Y-24591D01*
X44040Y-24253D01*
X44190Y-24385D02*
X44340Y-24385D01*
X44246Y-24253D02*
X44246Y-24591D01*
X44265Y-24628D01*
X44302Y-24647D01*
X44340Y-24647D01*
X44977Y-24647D02*
X44752Y-24647D01*
X44865Y-24647D02*
X44865Y-24253D01*
X44827Y-24310D01*
X44790Y-24347D01*
X44752Y-24366D01*
X45108Y-24797D02*
X45127Y-24778D01*
X45164Y-24722D01*
X45183Y-24685D01*
X45202Y-24628D01*
X45221Y-24535D01*
X45221Y-24460D01*
X45202Y-24366D01*
X45183Y-24310D01*
X45164Y-24272D01*
X45127Y-24216D01*
X45108Y-24197D01*
X39407Y-23597D02*
X39107Y-23710D01*
X39407Y-23822D01*
X40119Y-23860D02*
X39988Y-23672D01*
X39895Y-23860D02*
X39895Y-23466D01*
X40044Y-23466D01*
X40082Y-23485D01*
X40101Y-23503D01*
X40119Y-23541D01*
X40119Y-23597D01*
X40101Y-23635D01*
X40082Y-23653D01*
X40044Y-23672D01*
X39895Y-23672D01*
X40438Y-23841D02*
X40401Y-23860D01*
X40326Y-23860D01*
X40288Y-23841D01*
X40269Y-23803D01*
X40269Y-23653D01*
X40288Y-23616D01*
X40326Y-23597D01*
X40401Y-23597D01*
X40438Y-23616D01*
X40457Y-23653D01*
X40457Y-23691D01*
X40269Y-23728D01*
X40607Y-23841D02*
X40644Y-23860D01*
X40719Y-23860D01*
X40757Y-23841D01*
X40776Y-23803D01*
X40776Y-23785D01*
X40757Y-23747D01*
X40719Y-23728D01*
X40663Y-23728D01*
X40626Y-23710D01*
X40607Y-23672D01*
X40607Y-23653D01*
X40626Y-23616D01*
X40663Y-23597D01*
X40719Y-23597D01*
X40757Y-23616D01*
X41094Y-23841D02*
X41057Y-23860D01*
X40982Y-23860D01*
X40944Y-23841D01*
X40926Y-23803D01*
X40926Y-23653D01*
X40944Y-23616D01*
X40982Y-23597D01*
X41057Y-23597D01*
X41094Y-23616D01*
X41113Y-23653D01*
X41113Y-23691D01*
X40926Y-23728D01*
X41226Y-23597D02*
X41376Y-23597D01*
X41282Y-23466D02*
X41282Y-23803D01*
X41301Y-23841D01*
X41338Y-23860D01*
X41376Y-23860D01*
X42219Y-24010D02*
X42200Y-23991D01*
X42163Y-23935D01*
X42144Y-23897D01*
X42125Y-23841D01*
X42107Y-23747D01*
X42107Y-23672D01*
X42125Y-23578D01*
X42144Y-23522D01*
X42163Y-23485D01*
X42200Y-23428D01*
X42219Y-23410D01*
X42538Y-23860D02*
X42538Y-23466D01*
X42538Y-23841D02*
X42500Y-23860D01*
X42425Y-23860D01*
X42388Y-23841D01*
X42369Y-23822D01*
X42350Y-23785D01*
X42350Y-23672D01*
X42369Y-23635D01*
X42388Y-23616D01*
X42425Y-23597D01*
X42500Y-23597D01*
X42538Y-23616D01*
X42875Y-23841D02*
X42838Y-23860D01*
X42763Y-23860D01*
X42725Y-23841D01*
X42707Y-23803D01*
X42707Y-23653D01*
X42725Y-23616D01*
X42763Y-23597D01*
X42838Y-23597D01*
X42875Y-23616D01*
X42894Y-23653D01*
X42894Y-23691D01*
X42707Y-23728D01*
X43007Y-23597D02*
X43157Y-23597D01*
X43063Y-23860D02*
X43063Y-23522D01*
X43082Y-23485D01*
X43119Y-23466D01*
X43157Y-23466D01*
X43457Y-23860D02*
X43457Y-23653D01*
X43438Y-23616D01*
X43400Y-23597D01*
X43325Y-23597D01*
X43288Y-23616D01*
X43457Y-23841D02*
X43419Y-23860D01*
X43325Y-23860D01*
X43288Y-23841D01*
X43269Y-23803D01*
X43269Y-23766D01*
X43288Y-23728D01*
X43325Y-23710D01*
X43419Y-23710D01*
X43457Y-23691D01*
X43813Y-23597D02*
X43813Y-23860D01*
X43644Y-23597D02*
X43644Y-23803D01*
X43663Y-23841D01*
X43700Y-23860D01*
X43757Y-23860D01*
X43794Y-23841D01*
X43813Y-23822D01*
X44056Y-23860D02*
X44019Y-23841D01*
X44000Y-23803D01*
X44000Y-23466D01*
X44150Y-23597D02*
X44300Y-23597D01*
X44206Y-23466D02*
X44206Y-23803D01*
X44225Y-23841D01*
X44263Y-23860D01*
X44300Y-23860D01*
X44806Y-23466D02*
X44844Y-23466D01*
X44881Y-23485D01*
X44900Y-23503D01*
X44919Y-23541D01*
X44938Y-23616D01*
X44938Y-23710D01*
X44919Y-23785D01*
X44900Y-23822D01*
X44881Y-23841D01*
X44844Y-23860D01*
X44806Y-23860D01*
X44769Y-23841D01*
X44750Y-23822D01*
X44731Y-23785D01*
X44713Y-23710D01*
X44713Y-23616D01*
X44731Y-23541D01*
X44750Y-23503D01*
X44769Y-23485D01*
X44806Y-23466D01*
X45069Y-24010D02*
X45088Y-23991D01*
X45125Y-23935D01*
X45144Y-23897D01*
X45163Y-23841D01*
X45181Y-23747D01*
X45181Y-23672D01*
X45163Y-23578D01*
X45144Y-23522D01*
X45125Y-23485D01*
X45088Y-23428D01*
X45069Y-23410D01*
X39407Y-22810D02*
X39107Y-22922D01*
X39407Y-23035D01*
X40119Y-23035D02*
X40101Y-23053D01*
X40044Y-23072D01*
X40007Y-23072D01*
X39951Y-23053D01*
X39913Y-23016D01*
X39895Y-22979D01*
X39876Y-22904D01*
X39876Y-22847D01*
X39895Y-22772D01*
X39913Y-22735D01*
X39951Y-22697D01*
X40007Y-22679D01*
X40044Y-22679D01*
X40101Y-22697D01*
X40119Y-22716D01*
X40344Y-23072D02*
X40307Y-23053D01*
X40288Y-23016D01*
X40288Y-22679D01*
X40551Y-23072D02*
X40513Y-23053D01*
X40494Y-23035D01*
X40476Y-22997D01*
X40476Y-22885D01*
X40494Y-22847D01*
X40513Y-22829D01*
X40551Y-22810D01*
X40607Y-22810D01*
X40644Y-22829D01*
X40663Y-22847D01*
X40682Y-22885D01*
X40682Y-22997D01*
X40663Y-23035D01*
X40644Y-23053D01*
X40607Y-23072D01*
X40551Y-23072D01*
X41019Y-23053D02*
X40982Y-23072D01*
X40907Y-23072D01*
X40869Y-23053D01*
X40851Y-23035D01*
X40832Y-22997D01*
X40832Y-22885D01*
X40851Y-22847D01*
X40869Y-22829D01*
X40907Y-22810D01*
X40982Y-22810D01*
X41019Y-22829D01*
X41188Y-23072D02*
X41188Y-22679D01*
X41226Y-22922D02*
X41338Y-23072D01*
X41338Y-22810D02*
X41188Y-22960D01*
X42219Y-23222D02*
X42200Y-23203D01*
X42163Y-23147D01*
X42144Y-23110D01*
X42125Y-23053D01*
X42107Y-22960D01*
X42107Y-22885D01*
X42125Y-22791D01*
X42144Y-22735D01*
X42163Y-22697D01*
X42200Y-22641D01*
X42219Y-22622D01*
X42538Y-23072D02*
X42538Y-22679D01*
X42538Y-23053D02*
X42500Y-23072D01*
X42425Y-23072D01*
X42388Y-23053D01*
X42369Y-23035D01*
X42350Y-22997D01*
X42350Y-22885D01*
X42369Y-22847D01*
X42388Y-22829D01*
X42425Y-22810D01*
X42500Y-22810D01*
X42538Y-22829D01*
X42875Y-23053D02*
X42838Y-23072D01*
X42763Y-23072D01*
X42725Y-23053D01*
X42707Y-23016D01*
X42707Y-22866D01*
X42725Y-22829D01*
X42763Y-22810D01*
X42838Y-22810D01*
X42875Y-22829D01*
X42894Y-22866D01*
X42894Y-22904D01*
X42707Y-22941D01*
X43007Y-22810D02*
X43157Y-22810D01*
X43063Y-23072D02*
X43063Y-22735D01*
X43082Y-22697D01*
X43119Y-22679D01*
X43157Y-22679D01*
X43457Y-23072D02*
X43457Y-22866D01*
X43438Y-22829D01*
X43400Y-22810D01*
X43325Y-22810D01*
X43288Y-22829D01*
X43457Y-23053D02*
X43419Y-23072D01*
X43325Y-23072D01*
X43288Y-23053D01*
X43269Y-23016D01*
X43269Y-22979D01*
X43288Y-22941D01*
X43325Y-22922D01*
X43419Y-22922D01*
X43457Y-22904D01*
X43813Y-22810D02*
X43813Y-23072D01*
X43644Y-22810D02*
X43644Y-23016D01*
X43663Y-23053D01*
X43700Y-23072D01*
X43757Y-23072D01*
X43794Y-23053D01*
X43813Y-23035D01*
X44056Y-23072D02*
X44019Y-23053D01*
X44000Y-23016D01*
X44000Y-22679D01*
X44150Y-22810D02*
X44300Y-22810D01*
X44206Y-22679D02*
X44206Y-23016D01*
X44225Y-23053D01*
X44263Y-23072D01*
X44300Y-23072D01*
X44938Y-23072D02*
X44713Y-23072D01*
X44825Y-23072D02*
X44825Y-22679D01*
X44788Y-22735D01*
X44750Y-22772D01*
X44713Y-22791D01*
X45069Y-23222D02*
X45088Y-23203D01*
X45125Y-23147D01*
X45144Y-23110D01*
X45163Y-23053D01*
X45181Y-22960D01*
X45181Y-22885D01*
X45163Y-22791D01*
X45144Y-22735D01*
X45125Y-22697D01*
X45088Y-22641D01*
X45069Y-22622D01*
G54D12*
X40250Y-22190D02*
X40222Y-22218D01*
X40137Y-22246D01*
X40081Y-22246D01*
X39997Y-22218D01*
X39940Y-22162D01*
X39912Y-22106D01*
X39884Y-21993D01*
X39884Y-21909D01*
X39912Y-21796D01*
X39940Y-21740D01*
X39997Y-21684D01*
X40081Y-21656D01*
X40137Y-21656D01*
X40222Y-21684D01*
X40250Y-21712D01*
X40587Y-22246D02*
X40531Y-22218D01*
X40503Y-22190D01*
X40475Y-22134D01*
X40475Y-21965D01*
X40503Y-21909D01*
X40531Y-21881D01*
X40587Y-21853D01*
X40672Y-21853D01*
X40728Y-21881D01*
X40756Y-21909D01*
X40784Y-21965D01*
X40784Y-22134D01*
X40756Y-22190D01*
X40728Y-22218D01*
X40672Y-22246D01*
X40587Y-22246D01*
X41037Y-21853D02*
X41037Y-22246D01*
X41037Y-21909D02*
X41065Y-21881D01*
X41122Y-21853D01*
X41206Y-21853D01*
X41262Y-21881D01*
X41290Y-21937D01*
X41290Y-22246D01*
X41487Y-21853D02*
X41712Y-21853D01*
X41571Y-21656D02*
X41571Y-22162D01*
X41600Y-22218D01*
X41656Y-22246D01*
X41712Y-22246D01*
X41909Y-22246D02*
X41909Y-21853D01*
X41909Y-21965D02*
X41937Y-21909D01*
X41965Y-21881D01*
X42021Y-21853D01*
X42078Y-21853D01*
X42359Y-22246D02*
X42303Y-22218D01*
X42275Y-22190D01*
X42246Y-22134D01*
X42246Y-21965D01*
X42275Y-21909D01*
X42303Y-21881D01*
X42359Y-21853D01*
X42443Y-21853D01*
X42500Y-21881D01*
X42528Y-21909D01*
X42556Y-21965D01*
X42556Y-22134D01*
X42528Y-22190D01*
X42500Y-22218D01*
X42443Y-22246D01*
X42359Y-22246D01*
X42893Y-22246D02*
X42837Y-22218D01*
X42809Y-22162D01*
X42809Y-21656D01*
X43568Y-22246D02*
X43568Y-21853D01*
X43568Y-21656D02*
X43540Y-21684D01*
X43568Y-21712D01*
X43596Y-21684D01*
X43568Y-21656D01*
X43568Y-21712D01*
X43849Y-21853D02*
X43849Y-22246D01*
X43849Y-21909D02*
X43877Y-21881D01*
X43934Y-21853D01*
X44018Y-21853D01*
X44074Y-21881D01*
X44102Y-21937D01*
X44102Y-22246D01*
X11093Y-22584D02*
X11065Y-22612D01*
X10981Y-22640D01*
X10925Y-22640D01*
X10840Y-22612D01*
X10784Y-22556D01*
X10756Y-22500D01*
X10728Y-22387D01*
X10728Y-22303D01*
X10756Y-22190D01*
X10784Y-22134D01*
X10840Y-22078D01*
X10925Y-22050D01*
X10981Y-22050D01*
X11065Y-22078D01*
X11093Y-22106D01*
X11431Y-22640D02*
X11375Y-22612D01*
X11347Y-22584D01*
X11318Y-22528D01*
X11318Y-22359D01*
X11347Y-22303D01*
X11375Y-22275D01*
X11431Y-22246D01*
X11515Y-22246D01*
X11571Y-22275D01*
X11600Y-22303D01*
X11628Y-22359D01*
X11628Y-22528D01*
X11600Y-22584D01*
X11571Y-22612D01*
X11515Y-22640D01*
X11431Y-22640D01*
X11881Y-22246D02*
X11881Y-22640D01*
X11881Y-22303D02*
X11909Y-22275D01*
X11965Y-22246D01*
X12050Y-22246D01*
X12106Y-22275D01*
X12134Y-22331D01*
X12134Y-22640D01*
X12331Y-22246D02*
X12556Y-22246D01*
X12415Y-22050D02*
X12415Y-22556D01*
X12443Y-22612D01*
X12500Y-22640D01*
X12556Y-22640D01*
X12753Y-22640D02*
X12753Y-22246D01*
X12753Y-22359D02*
X12781Y-22303D01*
X12809Y-22275D01*
X12865Y-22246D01*
X12921Y-22246D01*
X13203Y-22640D02*
X13146Y-22612D01*
X13118Y-22584D01*
X13090Y-22528D01*
X13090Y-22359D01*
X13118Y-22303D01*
X13146Y-22275D01*
X13203Y-22246D01*
X13287Y-22246D01*
X13343Y-22275D01*
X13371Y-22303D01*
X13399Y-22359D01*
X13399Y-22528D01*
X13371Y-22584D01*
X13343Y-22612D01*
X13287Y-22640D01*
X13203Y-22640D01*
X13737Y-22640D02*
X13681Y-22612D01*
X13652Y-22556D01*
X13652Y-22050D01*
X14524Y-22050D02*
X14637Y-22050D01*
X14693Y-22078D01*
X14749Y-22134D01*
X14777Y-22246D01*
X14777Y-22443D01*
X14749Y-22556D01*
X14693Y-22612D01*
X14637Y-22640D01*
X14524Y-22640D01*
X14468Y-22612D01*
X14412Y-22556D01*
X14384Y-22443D01*
X14384Y-22246D01*
X14412Y-22134D01*
X14468Y-22078D01*
X14524Y-22050D01*
X15284Y-22246D02*
X15284Y-22640D01*
X15030Y-22246D02*
X15030Y-22556D01*
X15059Y-22612D01*
X15115Y-22640D01*
X15199Y-22640D01*
X15255Y-22612D01*
X15284Y-22584D01*
X15480Y-22246D02*
X15705Y-22246D01*
X15565Y-22050D02*
X15565Y-22556D01*
X15593Y-22612D01*
X15649Y-22640D01*
X15705Y-22640D01*
G54D13*
X44440Y-11975D02*
G75*
G03X44440Y-9075I-1450J1450D01*
G74*
G01*
X33139Y-8875D02*
G75*
G03X33090Y-12025I1550J-1599D01*
G74*
G01*
X12787Y-12521D02*
X12787Y-12840D01*
X12806Y-12877D01*
X12825Y-12896D01*
X12862Y-12915D01*
X12937Y-12915D01*
X12975Y-12896D01*
X12994Y-12877D01*
X13012Y-12840D01*
X13012Y-12521D01*
X13275Y-12521D02*
X13350Y-12521D01*
X13387Y-12540D01*
X13425Y-12577D01*
X13443Y-12652D01*
X13443Y-12784D01*
X13425Y-12859D01*
X13387Y-12896D01*
X13350Y-12915D01*
X13275Y-12915D01*
X13237Y-12896D01*
X13200Y-12859D01*
X13181Y-12784D01*
X13181Y-12652D01*
X13200Y-12577D01*
X13237Y-12540D01*
X13275Y-12521D01*
X13743Y-12709D02*
X13800Y-12727D01*
X13818Y-12746D01*
X13837Y-12784D01*
X13837Y-12840D01*
X13818Y-12877D01*
X13800Y-12896D01*
X13762Y-12915D01*
X13612Y-12915D01*
X13612Y-12521D01*
X13743Y-12521D01*
X13781Y-12540D01*
X13800Y-12559D01*
X13818Y-12596D01*
X13818Y-12634D01*
X13800Y-12671D01*
X13781Y-12690D01*
X13743Y-12709D01*
X13612Y-12709D01*
X14437Y-12709D02*
X14493Y-12727D01*
X14512Y-12746D01*
X14531Y-12784D01*
X14531Y-12840D01*
X14512Y-12877D01*
X14493Y-12896D01*
X14456Y-12915D01*
X14306Y-12915D01*
X14306Y-12521D01*
X14437Y-12521D01*
X14475Y-12540D01*
X14493Y-12559D01*
X14512Y-12596D01*
X14512Y-12634D01*
X14493Y-12671D01*
X14475Y-12690D01*
X14437Y-12709D01*
X14306Y-12709D01*
X14700Y-12521D02*
X14700Y-12840D01*
X14718Y-12877D01*
X14737Y-12896D01*
X14775Y-12915D01*
X14850Y-12915D01*
X14887Y-12896D01*
X14906Y-12877D01*
X14925Y-12840D01*
X14925Y-12521D01*
X15112Y-12915D02*
X15112Y-12521D01*
X15487Y-12915D02*
X15299Y-12915D01*
X15299Y-12521D01*
X15618Y-12915D02*
X15618Y-12521D01*
X15712Y-12521D01*
X15768Y-12540D01*
X15806Y-12577D01*
X15824Y-12615D01*
X15843Y-12690D01*
X15843Y-12746D01*
X15824Y-12821D01*
X15806Y-12859D01*
X15768Y-12896D01*
X15712Y-12915D01*
X15618Y-12915D01*
X15993Y-12802D02*
X16181Y-12802D01*
X15956Y-12915D02*
X16087Y-12521D01*
X16218Y-12915D01*
X16574Y-12877D02*
X16556Y-12896D01*
X16499Y-12915D01*
X16462Y-12915D01*
X16406Y-12896D01*
X16368Y-12859D01*
X16349Y-12821D01*
X16331Y-12746D01*
X16331Y-12690D01*
X16349Y-12615D01*
X16368Y-12577D01*
X16406Y-12540D01*
X16462Y-12521D01*
X16499Y-12521D01*
X16556Y-12540D01*
X16574Y-12559D01*
X16818Y-12521D02*
X16893Y-12521D01*
X16931Y-12540D01*
X16968Y-12577D01*
X16987Y-12652D01*
X16987Y-12784D01*
X16968Y-12859D01*
X16931Y-12896D01*
X16893Y-12915D01*
X16818Y-12915D01*
X16781Y-12896D01*
X16743Y-12859D01*
X16724Y-12784D01*
X16724Y-12652D01*
X16743Y-12577D01*
X16781Y-12540D01*
X16818Y-12521D01*
X17155Y-12915D02*
X17155Y-12521D01*
X17287Y-12802D01*
X17418Y-12521D01*
X17418Y-12915D01*
X17605Y-12915D02*
X17605Y-12521D01*
X17755Y-12521D01*
X17793Y-12540D01*
X17812Y-12559D01*
X17830Y-12596D01*
X17830Y-12652D01*
X17812Y-12690D01*
X17793Y-12709D01*
X17755Y-12727D01*
X17605Y-12727D01*
X18524Y-12915D02*
X18393Y-12727D01*
X18299Y-12915D02*
X18299Y-12521D01*
X18449Y-12521D01*
X18487Y-12540D01*
X18505Y-12559D01*
X18524Y-12596D01*
X18524Y-12652D01*
X18505Y-12690D01*
X18487Y-12709D01*
X18449Y-12727D01*
X18299Y-12727D01*
X18693Y-12709D02*
X18824Y-12709D01*
X18880Y-12915D02*
X18693Y-12915D01*
X18693Y-12521D01*
X18880Y-12521D01*
X19255Y-12540D02*
X19218Y-12521D01*
X19161Y-12521D01*
X19105Y-12540D01*
X19068Y-12577D01*
X19049Y-12615D01*
X19030Y-12690D01*
X19030Y-12746D01*
X19049Y-12821D01*
X19068Y-12859D01*
X19105Y-12896D01*
X19161Y-12915D01*
X19199Y-12915D01*
X19255Y-12896D01*
X19274Y-12877D01*
X19274Y-12746D01*
X19199Y-12746D01*
X19743Y-12915D02*
X19743Y-12652D01*
X19743Y-12521D02*
X19724Y-12540D01*
X19743Y-12559D01*
X19761Y-12540D01*
X19743Y-12521D01*
X19743Y-12559D01*
X19911Y-12896D02*
X19949Y-12915D01*
X20024Y-12915D01*
X20061Y-12896D01*
X20080Y-12859D01*
X20080Y-12840D01*
X20061Y-12802D01*
X20024Y-12784D01*
X19968Y-12784D01*
X19930Y-12765D01*
X19911Y-12727D01*
X19911Y-12709D01*
X19930Y-12671D01*
X19968Y-12652D01*
X20024Y-12652D01*
X20061Y-12671D01*
X20230Y-12896D02*
X20268Y-12915D01*
X20343Y-12915D01*
X20380Y-12896D01*
X20399Y-12859D01*
X20399Y-12840D01*
X20380Y-12802D01*
X20343Y-12784D01*
X20286Y-12784D01*
X20249Y-12765D01*
X20230Y-12727D01*
X20230Y-12709D01*
X20249Y-12671D01*
X20286Y-12652D01*
X20343Y-12652D01*
X20380Y-12671D01*
X20549Y-12559D02*
X20568Y-12540D01*
X20605Y-12521D01*
X20699Y-12521D01*
X20736Y-12540D01*
X20755Y-12559D01*
X20774Y-12596D01*
X20774Y-12634D01*
X20755Y-12690D01*
X20530Y-12915D01*
X20774Y-12915D01*
G54D12*
X13160Y-8803D02*
X13160Y-9196D01*
X13020Y-8578D02*
X12879Y-9000D01*
X13245Y-9000D01*
X14116Y-8887D02*
X14201Y-8915D01*
X14229Y-8943D01*
X14257Y-9000D01*
X14257Y-9084D01*
X14229Y-9140D01*
X14201Y-9168D01*
X14145Y-9196D01*
X13920Y-9196D01*
X13920Y-8606D01*
X14116Y-8606D01*
X14173Y-8634D01*
X14201Y-8662D01*
X14229Y-8718D01*
X14229Y-8775D01*
X14201Y-8831D01*
X14173Y-8859D01*
X14116Y-8887D01*
X13920Y-8887D01*
X14510Y-9196D02*
X14510Y-8803D01*
X14510Y-8606D02*
X14482Y-8634D01*
X14510Y-8662D01*
X14538Y-8634D01*
X14510Y-8606D01*
X14510Y-8662D01*
X14707Y-8803D02*
X14932Y-8803D01*
X14791Y-8606D02*
X14791Y-9112D01*
X14820Y-9168D01*
X14876Y-9196D01*
X14932Y-9196D01*
G54D14*
X13593Y-11979D02*
X13200Y-10854D01*
X12919Y-11979D02*
X12919Y-9617D01*
X13368Y-9617D01*
X13481Y-9730D01*
X13537Y-9842D01*
X13593Y-10067D01*
X13593Y-10404D01*
X13537Y-10629D01*
X13481Y-10742D01*
X13368Y-10854D01*
X12919Y-10854D01*
X14100Y-10742D02*
X14493Y-10742D01*
X14662Y-11979D02*
X14100Y-11979D01*
X14100Y-9617D01*
X14662Y-9617D01*
X15787Y-9730D02*
X15674Y-9617D01*
X15506Y-9617D01*
X15337Y-9730D01*
X15224Y-9955D01*
X15168Y-10179D01*
X15112Y-10629D01*
X15112Y-10967D01*
X15168Y-11417D01*
X15224Y-11642D01*
X15337Y-11867D01*
X15506Y-11979D01*
X15618Y-11979D01*
X15787Y-11867D01*
X15843Y-11754D01*
X15843Y-10967D01*
X15618Y-10967D01*
X16349Y-11979D02*
X16349Y-9617D01*
X16856Y-11867D02*
X17024Y-11979D01*
X17305Y-11979D01*
X17418Y-11867D01*
X17474Y-11754D01*
X17530Y-11529D01*
X17530Y-11304D01*
X17474Y-11079D01*
X17418Y-10967D01*
X17305Y-10854D01*
X17080Y-10742D01*
X16968Y-10629D01*
X16912Y-10517D01*
X16856Y-10292D01*
X16856Y-10067D01*
X16912Y-9842D01*
X16968Y-9730D01*
X17080Y-9617D01*
X17362Y-9617D01*
X17530Y-9730D01*
X17868Y-9617D02*
X18543Y-9617D01*
X18205Y-11979D02*
X18205Y-9617D01*
X18937Y-10742D02*
X19330Y-10742D01*
X19499Y-11979D02*
X18937Y-11979D01*
X18937Y-9617D01*
X19499Y-9617D01*
X20680Y-11979D02*
X20286Y-10854D01*
X20005Y-11979D02*
X20005Y-9617D01*
X20455Y-9617D01*
X20568Y-9730D01*
X20624Y-9842D01*
X20680Y-10067D01*
X20680Y-10404D01*
X20624Y-10629D01*
X20568Y-10742D01*
X20455Y-10854D01*
X20005Y-10854D01*
G54D12*
X42336Y-12331D02*
X42421Y-12359D01*
X42449Y-12387D01*
X42477Y-12443D01*
X42477Y-12528D01*
X42449Y-12584D01*
X42421Y-12612D01*
X42365Y-12640D01*
X42140Y-12640D01*
X42140Y-12050D01*
X42336Y-12050D01*
X42393Y-12078D01*
X42421Y-12106D01*
X42449Y-12162D01*
X42449Y-12218D01*
X42421Y-12275D01*
X42393Y-12303D01*
X42336Y-12331D01*
X42140Y-12331D01*
X42730Y-12640D02*
X42730Y-12246D01*
X42730Y-12050D02*
X42702Y-12078D01*
X42730Y-12106D01*
X42758Y-12078D01*
X42730Y-12050D01*
X42730Y-12106D01*
X42927Y-12246D02*
X43152Y-12246D01*
X43011Y-12050D02*
X43011Y-12556D01*
X43039Y-12612D01*
X43096Y-12640D01*
X43152Y-12640D01*
X43911Y-12050D02*
X43967Y-12050D01*
X44024Y-12078D01*
X44052Y-12106D01*
X44080Y-12162D01*
X44108Y-12275D01*
X44108Y-12415D01*
X44080Y-12528D01*
X44052Y-12584D01*
X44024Y-12612D01*
X43967Y-12640D01*
X43911Y-12640D01*
X43855Y-12612D01*
X43827Y-12584D01*
X43799Y-12528D01*
X43771Y-12415D01*
X43771Y-12275D01*
X43799Y-12162D01*
X43827Y-12106D01*
X43855Y-12078D01*
X43911Y-12050D01*
X33970Y-12331D02*
X34055Y-12359D01*
X34083Y-12387D01*
X34111Y-12443D01*
X34111Y-12528D01*
X34083Y-12584D01*
X34055Y-12612D01*
X33998Y-12640D01*
X33773Y-12640D01*
X33773Y-12050D01*
X33970Y-12050D01*
X34026Y-12078D01*
X34055Y-12106D01*
X34083Y-12162D01*
X34083Y-12218D01*
X34055Y-12275D01*
X34026Y-12303D01*
X33970Y-12331D01*
X33773Y-12331D01*
X34364Y-12640D02*
X34364Y-12246D01*
X34364Y-12050D02*
X34336Y-12078D01*
X34364Y-12106D01*
X34392Y-12078D01*
X34364Y-12050D01*
X34364Y-12106D01*
X34561Y-12246D02*
X34786Y-12246D01*
X34645Y-12050D02*
X34645Y-12556D01*
X34673Y-12612D01*
X34730Y-12640D01*
X34786Y-12640D01*
X35376Y-12050D02*
X35742Y-12050D01*
X35545Y-12275D01*
X35629Y-12275D01*
X35686Y-12303D01*
X35714Y-12331D01*
X35742Y-12387D01*
X35742Y-12528D01*
X35714Y-12584D01*
X35686Y-12612D01*
X35629Y-12640D01*
X35461Y-12640D01*
X35404Y-12612D01*
X35376Y-12584D01*
G54D15*
X43747Y-9378D02*
X42247Y-9378D01*
G54D16*
X43704Y-10398D02*
G75*
G03X43704Y-10398I-707J0D01*
G74*
G01*
G54D17*
X42246Y-9398D02*
G75*
G03X43747Y-9398I750J-999D01*
G74*
G01*
G54D18*
X42547Y-10398D02*
G75*
G03X42997Y-10848I450J0D01*
G74*
G01*
X43447Y-10398D02*
G75*
G03X42997Y-9948I-450J0D01*
G74*
G01*
X42347Y-10398D02*
G75*
G03X42997Y-11048I650J0D01*
G74*
G01*
X43647Y-10398D02*
G75*
G03X42997Y-9748I-650J0D01*
G74*
G01*
X42147Y-10398D02*
G75*
G03X42997Y-11248I850J0D01*
G74*
G01*
X43847Y-10398D02*
G75*
G03X42997Y-9548I-850J0D01*
G74*
G01*
G54D15*
X40991Y-9378D02*
X39491Y-9378D01*
G54D16*
X40948Y-10398D02*
G75*
G03X40948Y-10398I-707J0D01*
G74*
G01*
G54D17*
X39490Y-9398D02*
G75*
G03X40991Y-9398I750J-999D01*
G74*
G01*
G54D18*
X39791Y-10398D02*
G75*
G03X40241Y-10848I450J0D01*
G74*
G01*
X40691Y-10398D02*
G75*
G03X40241Y-9948I-450J0D01*
G74*
G01*
X39591Y-10398D02*
G75*
G03X40241Y-11048I650J0D01*
G74*
G01*
X40891Y-10398D02*
G75*
G03X40241Y-9748I-650J0D01*
G74*
G01*
X39391Y-10398D02*
G75*
G03X40241Y-11248I850J0D01*
G74*
G01*
X41091Y-10398D02*
G75*
G03X40241Y-9548I-850J0D01*
G74*
G01*
G54D15*
X38235Y-9378D02*
X36735Y-9378D01*
G54D16*
X38192Y-10398D02*
G75*
G03X38192Y-10398I-707J0D01*
G74*
G01*
G54D17*
X36734Y-9398D02*
G75*
G03X38235Y-9398I750J-999D01*
G74*
G01*
G54D18*
X37035Y-10398D02*
G75*
G03X37485Y-10848I450J0D01*
G74*
G01*
X37935Y-10398D02*
G75*
G03X37485Y-9948I-450J0D01*
G74*
G01*
X36835Y-10398D02*
G75*
G03X37485Y-11048I650J0D01*
G74*
G01*
X38135Y-10398D02*
G75*
G03X37485Y-9748I-650J0D01*
G74*
G01*
X36635Y-10398D02*
G75*
G03X37485Y-11248I850J0D01*
G74*
G01*
X38335Y-10398D02*
G75*
G03X37485Y-9548I-850J0D01*
G74*
G01*
G54D15*
X35479Y-9378D02*
X33979Y-9378D01*
G54D16*
X35436Y-10398D02*
G75*
G03X35436Y-10398I-707J0D01*
G74*
G01*
G54D17*
X33978Y-9398D02*
G75*
G03X35479Y-9398I750J-999D01*
G74*
G01*
G54D18*
X34279Y-10398D02*
G75*
G03X34729Y-10848I450J0D01*
G74*
G01*
X35179Y-10398D02*
G75*
G03X34729Y-9948I-450J0D01*
G74*
G01*
X34079Y-10398D02*
G75*
G03X34729Y-11048I650J0D01*
G74*
G01*
X35379Y-10398D02*
G75*
G03X34729Y-9748I-650J0D01*
G74*
G01*
X33879Y-10398D02*
G75*
G03X34729Y-11248I850J0D01*
G74*
G01*
X35579Y-10398D02*
G75*
G03X34729Y-9548I-850J0D01*
G74*
G01*
G54D19*
X47236Y-12260D02*
X46201Y-12260D01*
X46201Y-12260D02*
X46201Y-13315D01*
X46201Y-13315D02*
X47228Y-13315D01*
X47244Y-13311D02*
X47244Y-12260D01*
X28165Y-16464D02*
X28165Y-17499D01*
X28165Y-17499D02*
X29220Y-17499D01*
X29220Y-17499D02*
X29220Y-16472D01*
X29216Y-16456D02*
X28165Y-16456D01*
X35992Y-24629D02*
X37027Y-24629D01*
X37027Y-24629D02*
X37027Y-23574D01*
X37027Y-23574D02*
X36000Y-23574D01*
X35984Y-23578D02*
X35984Y-24629D01*
G54D20*
X33339Y-18747D02*
X33339Y-20307D01*
X33339Y-20307D02*
X36739Y-20307D01*
X36739Y-20307D02*
X36739Y-18747D01*
X36739Y-18747D02*
X33339Y-18747D01*
X34039Y-18747D02*
X34039Y-18317D01*
X34539Y-18747D02*
X34539Y-18317D01*
X35039Y-18747D02*
X35039Y-18317D01*
X33539Y-18747D02*
X33539Y-18317D01*
X35539Y-18317D02*
X35539Y-18747D01*
X36039Y-18317D02*
X36039Y-18747D01*
X36539Y-18317D02*
X36539Y-18747D01*
X36539Y-20307D02*
X36539Y-20737D01*
X36039Y-20307D02*
X36039Y-20737D01*
X33539Y-20307D02*
X33539Y-20737D01*
X34039Y-20737D02*
X34039Y-20307D01*
X35539Y-20737D02*
X35539Y-20307D01*
X35039Y-20737D02*
X35039Y-20307D01*
X34539Y-20737D02*
X34539Y-20307D01*
X33815Y-20017D02*
G75*
G03X33815Y-20017I-186J0D01*
G74*
G01*
G54D19*
X29117Y-20976D02*
X29117Y-19941D01*
X29117Y-19941D02*
X28062Y-19941D01*
X28062Y-19941D02*
X28062Y-20968D01*
X28066Y-20984D02*
X29117Y-20984D01*
G54D21*
X21289Y-13685D02*
G75*
G03X21289Y-13685I-50J0D01*
G74*
G01*
X21689Y-13685D02*
X21289Y-13685D01*
X21289Y-13685D02*
X21289Y-13085D01*
X21289Y-13085D02*
X21689Y-13085D01*
X22089Y-13085D02*
X22489Y-13085D01*
X22489Y-13085D02*
X22489Y-13685D01*
X22489Y-13685D02*
X22089Y-13685D01*
X24203Y-13085D02*
G75*
G03X24203Y-13085I-50J0D01*
G74*
G01*
X23703Y-13085D02*
X24103Y-13085D01*
X24103Y-13085D02*
X24103Y-13685D01*
X24103Y-13685D02*
X23703Y-13685D01*
X23303Y-13685D02*
X22903Y-13685D01*
X22903Y-13685D02*
X22903Y-13085D01*
X22903Y-13085D02*
X23303Y-13085D01*
G54D10*
X31940Y-14736D02*
X25539Y-14736D01*
X25539Y-14736D02*
X25539Y-8523D01*
X25539Y-8523D02*
X31940Y-8523D01*
X31940Y-8523D02*
X31940Y-14736D01*
X41956Y-21311D02*
X41956Y-14909D01*
X41956Y-14909D02*
X48169Y-14909D01*
X48169Y-14909D02*
X48169Y-21311D01*
X48169Y-21311D02*
X41956Y-21311D01*
X15523Y-14909D02*
X15523Y-21311D01*
X15523Y-21311D02*
X9311Y-21311D01*
X9311Y-21311D02*
X9311Y-14909D01*
X9311Y-14909D02*
X15523Y-14909D01*
X25539Y-21484D02*
X31940Y-21484D01*
X31940Y-21484D02*
X31940Y-27696D01*
X31940Y-27696D02*
X25539Y-27696D01*
X25539Y-27696D02*
X25539Y-21484D01*
G54D20*
X22659Y-10511D02*
X22459Y-10511D01*
X22459Y-10511D02*
X22459Y-10981D01*
X22659Y-10511D02*
X22659Y-10981D01*
X23249Y-10511D02*
X23249Y-10981D01*
X23049Y-10511D02*
X23049Y-10981D01*
X23249Y-10511D02*
X23049Y-10511D01*
X23839Y-10511D02*
X23639Y-10511D01*
X23639Y-10511D02*
X23639Y-10981D01*
X23839Y-10511D02*
X23839Y-10981D01*
X23504Y-12206D02*
X22794Y-12206D01*
X22794Y-12206D02*
X22794Y-12011D01*
X23504Y-12206D02*
X23504Y-12011D01*
X24054Y-10981D02*
X24054Y-12011D01*
X24054Y-12011D02*
X22244Y-12011D01*
X22244Y-12011D02*
X22244Y-10981D01*
X22244Y-10981D02*
X24054Y-10981D01*
X24192Y-19481D02*
X24192Y-16581D01*
X19192Y-16581D02*
X19192Y-19481D01*
X24192Y-19481D02*
X19192Y-19481D01*
X19192Y-16581D02*
X24192Y-16581D01*
X19192Y-17781D02*
X19692Y-17781D01*
X19692Y-17781D02*
X19692Y-18281D01*
X19692Y-18281D02*
X19192Y-18281D01*
X18259Y-25114D02*
X24259Y-25114D01*
X24259Y-25114D02*
X24259Y-21814D01*
X24259Y-23714D02*
X23759Y-23714D01*
X23759Y-23714D02*
X23759Y-23214D01*
X23759Y-23214D02*
X24259Y-23214D01*
X18259Y-21814D02*
X18259Y-25114D01*
X24259Y-21814D02*
X18259Y-21814D01*
G54D12*
X42575Y-9097D02*
X42575Y-8506D01*
X42716Y-8506D01*
X42800Y-8534D01*
X42857Y-8591D01*
X42885Y-8647D01*
X42913Y-8759D01*
X42913Y-8844D01*
X42885Y-8956D01*
X42857Y-9012D01*
X42800Y-9069D01*
X42716Y-9097D01*
X42575Y-9097D01*
X43419Y-8703D02*
X43419Y-9097D01*
X43278Y-8478D02*
X43138Y-8900D01*
X43503Y-8900D01*
X39820Y-9097D02*
X39820Y-8506D01*
X39960Y-8506D01*
X40044Y-8534D01*
X40101Y-8591D01*
X40129Y-8647D01*
X40157Y-8759D01*
X40157Y-8844D01*
X40129Y-8956D01*
X40101Y-9012D01*
X40044Y-9069D01*
X39960Y-9097D01*
X39820Y-9097D01*
X40354Y-8506D02*
X40719Y-8506D01*
X40523Y-8731D01*
X40607Y-8731D01*
X40663Y-8759D01*
X40691Y-8787D01*
X40719Y-8844D01*
X40719Y-8984D01*
X40691Y-9041D01*
X40663Y-9069D01*
X40607Y-9097D01*
X40438Y-9097D01*
X40382Y-9069D01*
X40354Y-9041D01*
X37064Y-9097D02*
X37064Y-8506D01*
X37204Y-8506D01*
X37289Y-8534D01*
X37345Y-8591D01*
X37373Y-8647D01*
X37401Y-8759D01*
X37401Y-8844D01*
X37373Y-8956D01*
X37345Y-9012D01*
X37289Y-9069D01*
X37204Y-9097D01*
X37064Y-9097D01*
X37626Y-8562D02*
X37654Y-8534D01*
X37710Y-8506D01*
X37851Y-8506D01*
X37907Y-8534D01*
X37935Y-8562D01*
X37964Y-8619D01*
X37964Y-8675D01*
X37935Y-8759D01*
X37598Y-9097D01*
X37964Y-9097D01*
X34327Y-9097D02*
X34327Y-8506D01*
X34468Y-8506D01*
X34552Y-8534D01*
X34609Y-8591D01*
X34637Y-8647D01*
X34665Y-8759D01*
X34665Y-8844D01*
X34637Y-8956D01*
X34609Y-9012D01*
X34552Y-9069D01*
X34468Y-9097D01*
X34327Y-9097D01*
X35227Y-9097D02*
X34890Y-9097D01*
X35059Y-9097D02*
X35059Y-8506D01*
X35002Y-8591D01*
X34946Y-8647D01*
X34890Y-8675D01*
G54D10*
G54D22*
X45330Y-13246D02*
X45816Y-13246D01*
X45873Y-13218D01*
X45902Y-13189D01*
X45930Y-13132D01*
X45930Y-13018D01*
X45902Y-12961D01*
X45873Y-12932D01*
X45816Y-12904D01*
X45330Y-12904D01*
X45587Y-12532D02*
X45559Y-12589D01*
X45530Y-12618D01*
X45473Y-12646D01*
X45445Y-12646D01*
X45387Y-12618D01*
X45359Y-12589D01*
X45330Y-12532D01*
X45330Y-12418D01*
X45359Y-12361D01*
X45387Y-12332D01*
X45445Y-12304D01*
X45473Y-12304D01*
X45530Y-12332D01*
X45559Y-12361D01*
X45587Y-12418D01*
X45587Y-12532D01*
X45616Y-12589D01*
X45645Y-12618D01*
X45702Y-12646D01*
X45816Y-12646D01*
X45873Y-12618D01*
X45902Y-12589D01*
X45930Y-12532D01*
X45930Y-12418D01*
X45902Y-12361D01*
X45873Y-12332D01*
X45816Y-12304D01*
X45702Y-12304D01*
X45645Y-12332D01*
X45616Y-12361D01*
X45587Y-12418D01*
X28243Y-15587D02*
X28243Y-16073D01*
X28272Y-16130D01*
X28300Y-16159D01*
X28357Y-16187D01*
X28472Y-16187D01*
X28529Y-16159D01*
X28557Y-16130D01*
X28586Y-16073D01*
X28586Y-15587D01*
X28815Y-15587D02*
X29215Y-15587D01*
X28957Y-16187D01*
X36038Y-24800D02*
X36038Y-25286D01*
X36067Y-25343D01*
X36096Y-25371D01*
X36153Y-25400D01*
X36267Y-25400D01*
X36324Y-25371D01*
X36353Y-25343D01*
X36381Y-25286D01*
X36381Y-24800D01*
X36924Y-24800D02*
X36810Y-24800D01*
X36753Y-24828D01*
X36724Y-24857D01*
X36667Y-24943D01*
X36638Y-25057D01*
X36638Y-25286D01*
X36667Y-25343D01*
X36696Y-25371D01*
X36753Y-25400D01*
X36867Y-25400D01*
X36924Y-25371D01*
X36953Y-25343D01*
X36981Y-25286D01*
X36981Y-25143D01*
X36953Y-25086D01*
X36924Y-25057D01*
X36867Y-25028D01*
X36753Y-25028D01*
X36696Y-25057D01*
X36667Y-25086D01*
X36638Y-25143D01*
G54D12*
X36872Y-19202D02*
X36872Y-19680D01*
X36900Y-19737D01*
X36928Y-19765D01*
X36984Y-19793D01*
X37097Y-19793D01*
X37153Y-19765D01*
X37181Y-19737D01*
X37209Y-19680D01*
X37209Y-19202D01*
X37800Y-19793D02*
X37462Y-19793D01*
X37631Y-19793D02*
X37631Y-19202D01*
X37575Y-19287D01*
X37518Y-19343D01*
X37462Y-19371D01*
G54D22*
X27162Y-20929D02*
X27648Y-20929D01*
X27705Y-20901D01*
X27733Y-20872D01*
X27762Y-20815D01*
X27762Y-20701D01*
X27733Y-20643D01*
X27705Y-20615D01*
X27648Y-20586D01*
X27162Y-20586D01*
X27162Y-20015D02*
X27162Y-20301D01*
X27448Y-20329D01*
X27419Y-20301D01*
X27391Y-20243D01*
X27391Y-20101D01*
X27419Y-20043D01*
X27448Y-20015D01*
X27505Y-19986D01*
X27648Y-19986D01*
X27705Y-20015D01*
X27733Y-20043D01*
X27762Y-20101D01*
X27762Y-20243D01*
X27733Y-20301D01*
X27705Y-20329D01*
G54D12*
X21791Y-14395D02*
X21763Y-14423D01*
X21678Y-14451D01*
X21622Y-14451D01*
X21538Y-14423D01*
X21482Y-14367D01*
X21453Y-14311D01*
X21425Y-14198D01*
X21425Y-14114D01*
X21453Y-14001D01*
X21482Y-13945D01*
X21538Y-13889D01*
X21622Y-13861D01*
X21678Y-13861D01*
X21763Y-13889D01*
X21791Y-13917D01*
X22353Y-14451D02*
X22016Y-14451D01*
X22185Y-14451D02*
X22185Y-13861D01*
X22128Y-13945D01*
X22072Y-14001D01*
X22016Y-14029D01*
X23405Y-14395D02*
X23377Y-14423D01*
X23293Y-14451D01*
X23236Y-14451D01*
X23152Y-14423D01*
X23096Y-14367D01*
X23068Y-14311D01*
X23039Y-14198D01*
X23039Y-14114D01*
X23068Y-14001D01*
X23096Y-13945D01*
X23152Y-13889D01*
X23236Y-13861D01*
X23293Y-13861D01*
X23377Y-13889D01*
X23405Y-13917D01*
X23630Y-13917D02*
X23658Y-13889D01*
X23714Y-13861D01*
X23855Y-13861D01*
X23911Y-13889D01*
X23939Y-13917D01*
X23967Y-13973D01*
X23967Y-14029D01*
X23939Y-14114D01*
X23602Y-14451D01*
X23967Y-14451D01*
G54D22*
X32319Y-13816D02*
X32319Y-14244D01*
X32291Y-14330D01*
X32233Y-14387D01*
X32148Y-14416D01*
X32091Y-14416D01*
X32862Y-14016D02*
X32862Y-14416D01*
X32719Y-13787D02*
X32576Y-14216D01*
X32948Y-14216D01*
X47240Y-14012D02*
X47240Y-14441D01*
X47212Y-14527D01*
X47155Y-14584D01*
X47069Y-14612D01*
X47012Y-14612D01*
X47498Y-14070D02*
X47526Y-14041D01*
X47583Y-14012D01*
X47726Y-14012D01*
X47783Y-14041D01*
X47812Y-14070D01*
X47840Y-14127D01*
X47840Y-14184D01*
X47812Y-14270D01*
X47469Y-14612D01*
X47840Y-14612D01*
X9721Y-21532D02*
X9721Y-21961D01*
X9692Y-22046D01*
X9635Y-22104D01*
X9549Y-22132D01*
X9492Y-22132D01*
X9949Y-21532D02*
X10321Y-21532D01*
X10121Y-21761D01*
X10206Y-21761D01*
X10264Y-21789D01*
X10292Y-21818D01*
X10321Y-21875D01*
X10321Y-22018D01*
X10292Y-22075D01*
X10264Y-22104D01*
X10206Y-22132D01*
X10035Y-22132D01*
X9978Y-22104D01*
X9949Y-22075D01*
X32319Y-26060D02*
X32319Y-26488D01*
X32291Y-26574D01*
X32233Y-26631D01*
X32148Y-26660D01*
X32091Y-26660D01*
X32919Y-26660D02*
X32576Y-26660D01*
X32748Y-26660D02*
X32748Y-26060D01*
X32691Y-26145D01*
X32633Y-26203D01*
X32576Y-26231D01*
G54D12*
X24333Y-11946D02*
X24811Y-11946D01*
X24867Y-11917D01*
X24895Y-11889D01*
X24924Y-11833D01*
X24924Y-11721D01*
X24895Y-11664D01*
X24867Y-11636D01*
X24811Y-11608D01*
X24333Y-11608D01*
X24924Y-11299D02*
X24924Y-11186D01*
X24895Y-11130D01*
X24867Y-11102D01*
X24783Y-11046D01*
X24670Y-11017D01*
X24446Y-11017D01*
X24389Y-11046D01*
X24361Y-11074D01*
X24333Y-11130D01*
X24333Y-11242D01*
X24361Y-11299D01*
X24389Y-11327D01*
X24446Y-11355D01*
X24586Y-11355D01*
X24642Y-11327D01*
X24670Y-11299D01*
X24699Y-11242D01*
X24699Y-11130D01*
X24670Y-11074D01*
X24642Y-11046D01*
X24586Y-11017D01*
G54D20*
X21235Y-17174D02*
X21235Y-17660D01*
X21264Y-17717D01*
X21292Y-17745D01*
X21350Y-17774D01*
X21464Y-17774D01*
X21521Y-17745D01*
X21550Y-17717D01*
X21578Y-17660D01*
X21578Y-17174D01*
X21807Y-17174D02*
X22178Y-17174D01*
X21978Y-17402D01*
X22064Y-17402D01*
X22121Y-17431D01*
X22150Y-17460D01*
X22178Y-17517D01*
X22178Y-17660D01*
X22150Y-17717D01*
X22121Y-17745D01*
X22064Y-17774D01*
X21892Y-17774D01*
X21835Y-17745D01*
X21807Y-17717D01*
X19621Y-18174D02*
X19954Y-18174D01*
X19740Y-18774D01*
X20359Y-18374D02*
X20359Y-18774D01*
X20240Y-18145D02*
X20121Y-18574D01*
X20431Y-18574D01*
X20597Y-18602D02*
X20835Y-18602D01*
X20550Y-18774D02*
X20716Y-18174D01*
X20883Y-18774D01*
X21335Y-18717D02*
X21311Y-18745D01*
X21240Y-18774D01*
X21192Y-18774D01*
X21121Y-18745D01*
X21073Y-18688D01*
X21050Y-18631D01*
X21026Y-18517D01*
X21026Y-18431D01*
X21050Y-18317D01*
X21073Y-18260D01*
X21121Y-18202D01*
X21192Y-18174D01*
X21240Y-18174D01*
X21311Y-18202D01*
X21335Y-18231D01*
X21526Y-18231D02*
X21550Y-18202D01*
X21597Y-18174D01*
X21716Y-18174D01*
X21764Y-18202D01*
X21788Y-18231D01*
X21811Y-18288D01*
X21811Y-18345D01*
X21788Y-18431D01*
X21502Y-18774D01*
X21811Y-18774D01*
X22240Y-18374D02*
X22240Y-18774D01*
X22121Y-18145D02*
X22002Y-18574D01*
X22311Y-18574D01*
X22716Y-18374D02*
X22716Y-18774D01*
X22597Y-18145D02*
X22478Y-18574D01*
X22788Y-18574D01*
X22954Y-18745D02*
X23026Y-18774D01*
X23145Y-18774D01*
X23192Y-18745D01*
X23216Y-18717D01*
X23240Y-18660D01*
X23240Y-18602D01*
X23216Y-18545D01*
X23192Y-18517D01*
X23145Y-18488D01*
X23050Y-18460D01*
X23002Y-18431D01*
X22978Y-18402D01*
X22954Y-18345D01*
X22954Y-18288D01*
X22978Y-18231D01*
X23002Y-18202D01*
X23050Y-18174D01*
X23169Y-18174D01*
X23240Y-18202D01*
X23740Y-18717D02*
X23716Y-18745D01*
X23645Y-18774D01*
X23597Y-18774D01*
X23526Y-18745D01*
X23478Y-18688D01*
X23454Y-18631D01*
X23431Y-18517D01*
X23431Y-18431D01*
X23454Y-18317D01*
X23478Y-18260D01*
X23526Y-18202D01*
X23597Y-18174D01*
X23645Y-18174D01*
X23716Y-18202D01*
X23740Y-18231D01*
X20802Y-23707D02*
X20802Y-24193D01*
X20831Y-24250D01*
X20859Y-24278D01*
X20916Y-24307D01*
X21031Y-24307D01*
X21088Y-24278D01*
X21116Y-24250D01*
X21145Y-24193D01*
X21145Y-23707D01*
X21402Y-23764D02*
X21431Y-23735D01*
X21488Y-23707D01*
X21631Y-23707D01*
X21688Y-23735D01*
X21716Y-23764D01*
X21745Y-23821D01*
X21745Y-23878D01*
X21716Y-23964D01*
X21374Y-24307D01*
X21745Y-24307D01*
X19702Y-23050D02*
X19674Y-23078D01*
X19588Y-23107D01*
X19531Y-23107D01*
X19445Y-23078D01*
X19388Y-23021D01*
X19359Y-22964D01*
X19331Y-22850D01*
X19331Y-22764D01*
X19359Y-22650D01*
X19388Y-22593D01*
X19445Y-22535D01*
X19531Y-22507D01*
X19588Y-22507D01*
X19674Y-22535D01*
X19702Y-22564D01*
X19959Y-23107D02*
X19959Y-22507D01*
X20102Y-22507D01*
X20188Y-22535D01*
X20245Y-22593D01*
X20274Y-22650D01*
X20302Y-22764D01*
X20302Y-22850D01*
X20274Y-22964D01*
X20245Y-23021D01*
X20188Y-23078D01*
X20102Y-23107D01*
X19959Y-23107D01*
X20816Y-22707D02*
X20816Y-23107D01*
X20674Y-22478D02*
X20531Y-22907D01*
X20902Y-22907D01*
X21416Y-22507D02*
X21131Y-22507D01*
X21102Y-22793D01*
X21131Y-22764D01*
X21188Y-22735D01*
X21331Y-22735D01*
X21388Y-22764D01*
X21416Y-22793D01*
X21445Y-22850D01*
X21445Y-22993D01*
X21416Y-23050D01*
X21388Y-23078D01*
X21331Y-23107D01*
X21188Y-23107D01*
X21131Y-23078D01*
X21102Y-23050D01*
X21816Y-22507D02*
X21874Y-22507D01*
X21931Y-22535D01*
X21959Y-22564D01*
X21988Y-22621D01*
X22016Y-22735D01*
X22016Y-22878D01*
X21988Y-22993D01*
X21959Y-23050D01*
X21931Y-23078D01*
X21874Y-23107D01*
X21816Y-23107D01*
X21759Y-23078D01*
X21731Y-23050D01*
X21702Y-22993D01*
X21674Y-22878D01*
X21674Y-22735D01*
X21702Y-22621D01*
X21731Y-22564D01*
X21759Y-22535D01*
X21816Y-22507D01*
X22359Y-22764D02*
X22302Y-22735D01*
X22274Y-22707D01*
X22245Y-22650D01*
X22245Y-22621D01*
X22274Y-22564D01*
X22302Y-22535D01*
X22359Y-22507D01*
X22474Y-22507D01*
X22531Y-22535D01*
X22559Y-22564D01*
X22588Y-22621D01*
X22588Y-22650D01*
X22559Y-22707D01*
X22531Y-22735D01*
X22474Y-22764D01*
X22359Y-22764D01*
X22302Y-22793D01*
X22274Y-22821D01*
X22245Y-22878D01*
X22245Y-22993D01*
X22274Y-23050D01*
X22302Y-23078D01*
X22359Y-23107D01*
X22474Y-23107D01*
X22531Y-23078D01*
X22559Y-23050D01*
X22588Y-22993D01*
X22588Y-22878D01*
X22559Y-22821D01*
X22531Y-22793D01*
X22474Y-22764D01*
X23045Y-22793D02*
X23131Y-22821D01*
X23159Y-22850D01*
X23188Y-22907D01*
X23188Y-22993D01*
X23159Y-23050D01*
X23131Y-23078D01*
X23074Y-23107D01*
X22845Y-23107D01*
X22845Y-22507D01*
X23045Y-22507D01*
X23102Y-22535D01*
X23131Y-22564D01*
X23159Y-22621D01*
X23159Y-22678D01*
X23131Y-22735D01*
X23102Y-22764D01*
X23045Y-22793D01*
X22845Y-22793D01*
G54D10*
G36*
X31769Y-21406D02*
X25711Y-21406D01*
X28740Y-18377D01*
X31769Y-21406D01*
X31769Y-21406D01*
G37*
G54D17*
X31769Y-21406D02*
X25711Y-21406D01*
X28740Y-18377D01*
X31769Y-21406D01*
G54D10*
G36*
X28619Y-14813D02*
X25640Y-17792D01*
X25640Y-14813D01*
X28619Y-14813D01*
X28619Y-14813D01*
G37*
G54D17*
X28619Y-14813D02*
X25640Y-17792D01*
X25640Y-14813D01*
X28619Y-14813D01*
G54D10*
G36*
X31839Y-17792D02*
X28860Y-14813D01*
X31839Y-14813D01*
X31839Y-17792D01*
X31839Y-17792D01*
G37*
G54D17*
X31839Y-17792D02*
X28860Y-14813D01*
X31839Y-14813D01*
X31839Y-17792D01*
%LPC*%
G54D12*
X52840Y-18560D02*
X52446Y-18560D01*
X52446Y-19178D02*
X52446Y-17997D01*
X53008Y-17997D01*
X53458Y-19066D02*
X53515Y-19122D01*
X53458Y-19178D01*
X53402Y-19122D01*
X53458Y-19066D01*
X53458Y-19178D01*
X54021Y-19178D02*
X54021Y-17997D01*
X54415Y-18841D01*
X54808Y-17997D01*
X54808Y-19178D01*
X55877Y-19178D02*
X55877Y-18560D01*
X55821Y-18447D01*
X55708Y-18391D01*
X55483Y-18391D01*
X55371Y-18447D01*
X55877Y-19122D02*
X55764Y-19178D01*
X55483Y-19178D01*
X55371Y-19122D01*
X55314Y-19010D01*
X55314Y-18897D01*
X55371Y-18785D01*
X55483Y-18728D01*
X55764Y-18728D01*
X55877Y-18672D01*
X56383Y-19122D02*
X56496Y-19178D01*
X56721Y-19178D01*
X56833Y-19122D01*
X56889Y-19010D01*
X56889Y-18953D01*
X56833Y-18841D01*
X56721Y-18785D01*
X56552Y-18785D01*
X56439Y-18728D01*
X56383Y-18616D01*
X56383Y-18560D01*
X56439Y-18447D01*
X56552Y-18391D01*
X56721Y-18391D01*
X56833Y-18447D01*
X57395Y-19178D02*
X57395Y-17997D01*
X57508Y-18728D02*
X57845Y-19178D01*
X57845Y-18391D02*
X57395Y-18841D01*
G54D23*
X42997Y-10998D03*
X42997Y-9998D03*
X40241Y-10998D03*
X40241Y-9998D03*
X37485Y-10998D03*
X37485Y-9998D03*
X34729Y-10998D03*
X34729Y-9998D03*
G54D24*
X46456Y-10236D03*
X46456Y-25984D03*
X11023Y-25984D03*
X11023Y-10236D03*
G54D25*
X46504Y-12500D03*
X46504Y-12697D03*
X46504Y-12894D03*
X46504Y-13091D03*
X46957Y-13091D03*
X46957Y-12894D03*
X46957Y-12697D03*
X46957Y-12500D03*
G54D26*
X28405Y-17196D03*
X28602Y-17196D03*
X28799Y-17196D03*
X28996Y-17196D03*
X28996Y-16743D03*
X28799Y-16743D03*
X28602Y-16743D03*
X28405Y-16743D03*
G54D25*
X36724Y-24389D03*
X36724Y-24192D03*
X36724Y-23995D03*
X36724Y-23798D03*
X36271Y-23798D03*
X36271Y-23995D03*
X36271Y-24192D03*
X36271Y-24389D03*
G54D27*
X33539Y-20627D03*
X34039Y-20627D03*
X34539Y-20627D03*
X35039Y-20627D03*
X35539Y-20627D03*
X36039Y-20627D03*
X36539Y-20627D03*
X36539Y-18427D03*
X36039Y-18427D03*
X35539Y-18427D03*
X35039Y-18427D03*
X34539Y-18427D03*
X34039Y-18427D03*
X33539Y-18427D03*
G54D26*
X28877Y-20244D03*
X28680Y-20244D03*
X28483Y-20244D03*
X28286Y-20244D03*
X28286Y-20697D03*
X28483Y-20697D03*
X28680Y-20697D03*
X28877Y-20697D03*
G54D28*
X21514Y-13385D03*
X22264Y-13385D03*
X23878Y-13385D03*
X23128Y-13385D03*
G54D29*
X26240Y-10629D03*
X31240Y-10629D03*
G54D30*
X27334Y-11629D03*
X27736Y-12330D03*
X28137Y-11629D03*
X28539Y-12330D03*
X28940Y-11629D03*
X29342Y-12330D03*
X29744Y-11629D03*
X30145Y-12330D03*
G54D31*
X25539Y-11980D03*
X31940Y-11980D03*
G54D29*
X46062Y-15610D03*
X46062Y-20610D03*
G54D30*
X45062Y-16704D03*
X44362Y-17106D03*
X45062Y-17507D03*
X44362Y-17909D03*
X45062Y-18311D03*
X44362Y-18712D03*
X45062Y-19114D03*
X44362Y-19515D03*
G54D31*
X44712Y-14909D03*
X44712Y-21311D03*
G54D29*
X11417Y-20610D03*
X11417Y-15610D03*
G54D30*
X12417Y-19515D03*
X13118Y-19114D03*
X12417Y-18712D03*
X13118Y-18311D03*
X12417Y-17909D03*
X13118Y-17507D03*
X12417Y-17106D03*
X13118Y-16704D03*
G54D31*
X12767Y-21311D03*
X12767Y-14909D03*
G54D29*
X31240Y-25590D03*
X26240Y-25590D03*
G54D30*
X30145Y-24590D03*
X29744Y-23889D03*
X29342Y-24590D03*
X28940Y-23889D03*
X28539Y-24590D03*
X28137Y-23889D03*
X27736Y-24590D03*
X27334Y-23889D03*
G54D31*
X31940Y-24240D03*
X25539Y-24240D03*
G54D32*
X23740Y-10748D03*
G54D33*
X23149Y-10846D03*
G54D32*
X22558Y-10748D03*
G54D34*
X23149Y-11791D03*
G54D35*
X23942Y-16181D03*
X23442Y-16181D03*
X22942Y-16181D03*
X22442Y-16181D03*
X21942Y-16181D03*
X21442Y-16181D03*
X20942Y-16181D03*
X20442Y-16181D03*
X19942Y-16181D03*
X19442Y-16181D03*
X19442Y-19881D03*
X19942Y-19881D03*
X20442Y-19881D03*
X20942Y-19881D03*
X21442Y-19881D03*
X21942Y-19881D03*
X22442Y-19881D03*
X22942Y-19881D03*
X23442Y-19881D03*
X23942Y-19881D03*
G54D36*
X24009Y-21564D03*
X23509Y-21564D03*
X23009Y-21564D03*
X22509Y-21564D03*
X22009Y-21564D03*
X21509Y-21564D03*
X21009Y-21564D03*
X20509Y-21564D03*
X20009Y-21564D03*
X19509Y-21564D03*
X19009Y-21564D03*
X18509Y-21564D03*
X24009Y-25364D03*
X23509Y-25364D03*
X23009Y-25364D03*
X22509Y-25364D03*
X22009Y-25364D03*
X21509Y-25364D03*
X21009Y-25364D03*
X20509Y-25364D03*
X20009Y-25364D03*
X19509Y-25364D03*
X19009Y-25364D03*
X18509Y-25364D03*
M02*
