G04 (created by PCBNEW (2013-07-07 BZR 4022)-stable) date 24/09/2013 15:52:17*
%MOIN*%
G04 Gerber Fmt 3.4, Leading zero omitted, Abs format*
%FSLAX34Y34*%
G01*
G70*
G90*
G04 APERTURE LIST*
%ADD10C,0.00590551*%
%ADD11C,0.011811*%
%ADD12R,0.0256X0.0118*%
%ADD13R,0.0118X0.0256*%
%ADD14R,0.025X0.05*%
%ADD15R,0.035X0.055*%
%ADD16R,0.0276X0.063*%
%ADD17R,0.0276X0.0827*%
%ADD18R,0.0787X0.1083*%
%ADD19R,0.023622X0.0787402*%
%ADD20R,0.03X0.05*%
G04 APERTURE END LIST*
G54D10*
G54D11*
X52952Y-14032D02*
X52559Y-14032D01*
X52559Y-14651D02*
X52559Y-13470D01*
X53121Y-13470D01*
X53571Y-14538D02*
X53627Y-14595D01*
X53571Y-14651D01*
X53515Y-14595D01*
X53571Y-14538D01*
X53571Y-14651D01*
X54133Y-14651D02*
X54133Y-13470D01*
X54583Y-13470D01*
X54696Y-13526D01*
X54752Y-13582D01*
X54808Y-13695D01*
X54808Y-13863D01*
X54752Y-13976D01*
X54696Y-14032D01*
X54583Y-14088D01*
X54133Y-14088D01*
X55821Y-14651D02*
X55821Y-14032D01*
X55764Y-13920D01*
X55652Y-13863D01*
X55427Y-13863D01*
X55314Y-13920D01*
X55821Y-14595D02*
X55708Y-14651D01*
X55427Y-14651D01*
X55314Y-14595D01*
X55258Y-14482D01*
X55258Y-14370D01*
X55314Y-14257D01*
X55427Y-14201D01*
X55708Y-14201D01*
X55821Y-14145D01*
X56327Y-14595D02*
X56439Y-14651D01*
X56664Y-14651D01*
X56777Y-14595D01*
X56833Y-14482D01*
X56833Y-14426D01*
X56777Y-14313D01*
X56664Y-14257D01*
X56496Y-14257D01*
X56383Y-14201D01*
X56327Y-14088D01*
X56327Y-14032D01*
X56383Y-13920D01*
X56496Y-13863D01*
X56664Y-13863D01*
X56777Y-13920D01*
X57170Y-13863D02*
X57620Y-13863D01*
X57339Y-13470D02*
X57339Y-14482D01*
X57395Y-14595D01*
X57508Y-14651D01*
X57620Y-14651D01*
X58464Y-14595D02*
X58352Y-14651D01*
X58127Y-14651D01*
X58014Y-14595D01*
X57958Y-14482D01*
X57958Y-14032D01*
X58014Y-13920D01*
X58127Y-13863D01*
X58352Y-13863D01*
X58464Y-13920D01*
X58520Y-14032D01*
X58520Y-14145D01*
X57958Y-14257D01*
G54D12*
X46504Y-12500D03*
X46504Y-12697D03*
X46504Y-12894D03*
X46504Y-13091D03*
X46957Y-13091D03*
X46957Y-12894D03*
X46957Y-12697D03*
X46957Y-12500D03*
G54D13*
X28405Y-17196D03*
X28602Y-17196D03*
X28799Y-17196D03*
X28996Y-17196D03*
X28996Y-16743D03*
X28799Y-16743D03*
X28602Y-16743D03*
X28405Y-16743D03*
G54D12*
X36724Y-24389D03*
X36724Y-24192D03*
X36724Y-23995D03*
X36724Y-23798D03*
X36271Y-23798D03*
X36271Y-23995D03*
X36271Y-24192D03*
X36271Y-24389D03*
G54D14*
X33539Y-20627D03*
X34039Y-20627D03*
X34539Y-20627D03*
X35039Y-20627D03*
X35539Y-20627D03*
X36039Y-20627D03*
X36539Y-20627D03*
X36539Y-18427D03*
X36039Y-18427D03*
X35539Y-18427D03*
X35039Y-18427D03*
X34539Y-18427D03*
X34039Y-18427D03*
X33539Y-18427D03*
G54D13*
X28877Y-20244D03*
X28680Y-20244D03*
X28483Y-20244D03*
X28286Y-20244D03*
X28286Y-20697D03*
X28483Y-20697D03*
X28680Y-20697D03*
X28877Y-20697D03*
G54D15*
X21514Y-13385D03*
X22264Y-13385D03*
X23878Y-13385D03*
X23128Y-13385D03*
G54D16*
X23740Y-10748D03*
G54D17*
X23149Y-10846D03*
G54D16*
X22558Y-10748D03*
G54D18*
X23149Y-11791D03*
G54D19*
X23942Y-16181D03*
X23442Y-16181D03*
X22942Y-16181D03*
X22442Y-16181D03*
X21942Y-16181D03*
X21442Y-16181D03*
X20942Y-16181D03*
X20442Y-16181D03*
X19942Y-16181D03*
X19442Y-16181D03*
X19442Y-19881D03*
X19942Y-19881D03*
X20442Y-19881D03*
X20942Y-19881D03*
X21442Y-19881D03*
X21942Y-19881D03*
X22442Y-19881D03*
X22942Y-19881D03*
X23442Y-19881D03*
X23942Y-19881D03*
G54D20*
X24009Y-21564D03*
X23509Y-21564D03*
X23009Y-21564D03*
X22509Y-21564D03*
X22009Y-21564D03*
X21509Y-21564D03*
X21009Y-21564D03*
X20509Y-21564D03*
X20009Y-21564D03*
X19509Y-21564D03*
X19009Y-21564D03*
X18509Y-21564D03*
X24009Y-25364D03*
X23509Y-25364D03*
X23009Y-25364D03*
X22509Y-25364D03*
X22009Y-25364D03*
X21509Y-25364D03*
X21009Y-25364D03*
X20509Y-25364D03*
X20009Y-25364D03*
X19509Y-25364D03*
X19009Y-25364D03*
X18509Y-25364D03*
M02*
