M48
;DRILL file {Pcbnew (2013-07-07 BZR 4022)-stable} date 9/18/2013 12:24:18
;FORMAT={-:-/ absolute / metric / decimal}
FMAT,2
METRIC,TZ
T1C0.500
T2C0.635
T3C0.813
T4C0.899
T5C1.600
%
G90
G05
M71
T1
X56.49Y-64.719
X56.7Y-79.1
X57.874Y-73.596
X57.9Y-79.1
X58.28Y-87.389
X59.512Y-74.219
X59.842Y-66.535
X59.88Y-87.389
X60.43Y-106.718
X60.731Y-62.332
X61.85Y-53.55
X62.281Y-61.328
X62.446Y-102.146
X62.47Y-105.778
X62.738Y-71.577
X63.475Y-103.035
X63.932Y-70.18
X64.51Y-106.68
X64.681Y-103.645
X64.694Y-71.349
X66.04Y-103.607
X66.37Y-69.025
X66.55Y-107.734
X71.387Y-60.414
X73.206Y-47.676
X74.854Y-47.422
X75.12Y-53.213
X75.489Y-96.241
X76.594Y-46.66
X77.45Y-45.7
X78.321Y-74.968
X79.223Y-96.291
X80.188Y-58.039
X81.4Y-48.6
X81.61Y-65.824
X82.779Y-70.079
X84.303Y-60.401
X87.249Y-94.958
X87.757Y-95.822
X88.875Y-96.495
X88.938Y-93.345
X88.976Y-53.721
X89.611Y-94.145
X90.551Y-97.955
X91.148Y-95.669
X92.685Y-59.919
X92.812Y-76.556
X93.98Y-92.456
X94.043Y-76.873
X94.234Y-56.274
X95.847Y-92.342
X96.037Y-64.287
X96.126Y-90.729
X97.269Y-87.871
X97.701Y-93.497
X97.739Y-66.497
X101.067Y-62.357
X106.401Y-72.326
X107.Y-69.5
X107.467Y-73.025
X111.Y-69.45
T2
X39.6Y-56.5
X40.8Y-55.2
X40.8Y-56.5
X48.4Y-54.5
X48.7Y-56.3
X49.475Y-55.575
X61.Y-55.65
X66.129Y-91.275
X69.2Y-63.85
X70.3Y-50.1
X71.971Y-50.127
X72.72Y-75.933
X74.231Y-91.135
X77.47Y-75.832
X79.096Y-50.038
X82.321Y-66.878
X84.049Y-92.685
X86.462Y-90.272
X88.811Y-77.229
X90.119Y-66.827
X96.406Y-76.886
X99.898Y-77.597
T3
X30.23Y-57.75
X30.23Y-85.5
X30.23Y-93.
X30.23Y-100.5
X30.23Y-108.
X32.77Y-57.75
X32.77Y-85.5
X32.77Y-93.
X32.77Y-100.5
X32.77Y-108.
X40.5Y-25.73
X40.5Y-28.27
X91.Y-25.73
X91.Y-28.27
X98.5Y-25.73
X98.5Y-28.27
X106.Y-25.73
X106.Y-28.27
X113.Y-25.73
X113.Y-28.27
T4
X34.54Y-69.45
X34.54Y-71.49
X34.54Y-73.53
X34.54Y-75.57
X36.32Y-68.43
X36.32Y-70.47
X36.32Y-72.51
X36.32Y-74.55
X50.43Y-30.54
X51.45Y-32.32
X52.47Y-30.54
X53.49Y-32.32
X54.51Y-30.54
X55.53Y-32.32
X56.55Y-30.54
X57.57Y-32.32
X60.43Y-111.68
X61.45Y-113.46
X62.47Y-111.68
X63.49Y-113.46
X64.51Y-111.68
X65.53Y-113.46
X66.55Y-111.68
X67.57Y-113.46
X72.43Y-30.54
X73.45Y-32.32
X74.47Y-30.54
X75.49Y-32.32
X76.51Y-30.54
X77.53Y-32.32
X78.55Y-30.54
X79.57Y-32.32
X84.43Y-111.68
X85.45Y-113.46
X86.47Y-111.68
X87.49Y-113.46
X88.51Y-111.68
X89.53Y-113.46
X90.55Y-111.68
X91.57Y-113.46
X115.68Y-69.45
X115.68Y-71.49
X115.68Y-73.53
X115.68Y-75.57
X117.46Y-68.43
X117.46Y-70.47
X117.46Y-72.51
X117.46Y-74.55
T5
X35.43Y-63.87
X35.43Y-80.13
X45.87Y-31.43
X55.87Y-112.57
X62.13Y-31.43
X67.87Y-31.43
X72.13Y-112.57
X79.87Y-112.57
X84.13Y-31.43
X96.13Y-112.57
X116.57Y-63.87
X116.57Y-80.13
T0
M30
