M48
;DRILL file {Pcbnew (2013-mar-13)-testing} date Tue 15 Oct 2013 19:00:00 BST
;FORMAT={-:-/ absolute / metric / decimal}
FMAT,2
METRIC,TZ
T1C0.635
T2C0.740
T3C0.800
T4C0.813
T5C0.899
T6C1.000
T7C1.016
T8C1.600
%
G90
G05
M71
T1
X20.1Y-43.75
X23.05Y-23.75
X24.4Y-29.4
X25.1Y-45.35
X25.6Y-27.1
X26.Y-60.2
X28.05Y-46.4
X29.4Y-33.6
X31.5Y-49.4
X32.6Y-27.1
X33.45Y-55.65
X34.4Y-36.2
X35.65Y-44.65
X36.15Y-30.3
X36.9Y-44.2
X37.35Y-39.95
X37.6Y-49.4
X38.05Y-31.5
X38.8Y-33.7
X38.95Y-25.6
X39.Y-29.3
X39.05Y-48.55
X39.6Y-37.95
X39.6Y-40.25
X40.05Y-36.1
X40.5Y-45.15
X41.3Y-47.7
X41.35Y-24.2
X41.4Y-27.1
X41.6Y-44.2
X42.45Y-31.5
X42.5Y-48.8
X43.1Y-27.1
X43.45Y-52.35
X43.55Y-34.8
X43.9Y-43.7
X44.55Y-38.65
X44.6Y-32.4
X45.9Y-26.9
X45.9Y-45.6
X46.75Y-36.45
X47.15Y-32.4
X47.3Y-27.05
X47.6Y-29.85
X47.65Y-50.75
X48.4Y-24.05
X48.4Y-26.95
X48.75Y-55.2
X49.85Y-42.2
X50.2Y-58.5
X50.8Y-27.85
X51.25Y-49.2
X51.7Y-21.4
X51.7Y-23.1
X51.7Y-35.1
X52.8Y-27.5
X53.2Y-21.3
X53.2Y-23.4
X53.7Y-30.
X53.7Y-46.4
X53.75Y-26.6
X54.3Y-35.1
X54.75Y-27.5
X54.85Y-23.8
X55.4Y-33.8
X55.7Y-38.7
X55.85Y-31.35
X57.55Y-49.15
X58.Y-44.15
X58.55Y-27.65
X58.8Y-49.85
X59.3Y-36.8
X60.35Y-37.75
X60.65Y-40.75
X60.7Y-59.1
X61.75Y-32.5
X61.75Y-36.35
X62.Y-49.85
X62.15Y-43.95
X62.2Y-24.95
X62.55Y-54.85
X62.9Y-46.35
X63.2Y-28.65
X63.35Y-38.8
X63.95Y-42.95
X64.6Y-50.95
X64.6Y-53.3
X64.9Y-30.2
X65.25Y-44.25
X65.7Y-32.5
X65.9Y-46.
X66.45Y-51.15
X66.45Y-52.9
X67.2Y-30.2
X67.6Y-54.5
X67.65Y-49.65
X69.05Y-58.9
X69.2Y-38.3
X69.3Y-31.1
X69.7Y-27.4
X69.9Y-26.1
X70.1Y-29.9
X70.6Y-32.5
X70.75Y-45.55
X72.45Y-45.6
X72.45Y-47.65
X73.Y-43.3
X73.15Y-48.4
X73.9Y-23.6
X76.2Y-27.4
X76.3Y-44.6
X77.Y-42.1
X77.Y-47.3
X77.7Y-34.1
X79.4Y-23.5
X80.Y-28.6
X80.7Y-36.4
X81.5Y-29.9
X82.7Y-23.5
X83.15Y-47.25
X84.6Y-40.9
X85.45Y-60.4
X86.8Y-34.5
X87.4Y-60.35
X89.4Y-60.3
X89.875Y-29.9
X93.4Y-38.1
T2
X49.Y-17.6
X51.Y-17.6
X53.Y-17.6
X63.Y-17.6
X65.Y-17.6
X67.Y-17.6
T3
X77.525Y-15.7
X77.525Y-21.1
X80.025Y-15.7
X80.025Y-21.1
X82.525Y-15.7
X82.525Y-21.1
X91.5Y-15.7
X91.5Y-21.1
X94.Y-15.7
X94.Y-21.1
X96.5Y-15.7
X96.5Y-21.1
T4
X44.73Y-57.
X47.27Y-57.
X76.53Y-57.
X79.07Y-57.
T5
X27.43Y-51.68
X28.45Y-53.46
X29.47Y-51.68
X30.49Y-53.46
X31.51Y-51.68
X32.53Y-53.46
X33.55Y-51.68
X34.57Y-53.46
X89.23Y-51.48
X90.25Y-53.26
X91.27Y-51.48
X92.29Y-53.26
X93.31Y-51.48
X94.33Y-53.26
X95.35Y-51.48
X96.37Y-53.26
T6
X25.9Y-16.7
X28.4Y-16.7
X30.9Y-16.7
X33.4Y-16.7
T7
X104.035Y-45.425
X106.575Y-45.425
X109.115Y-45.425
T8
X22.87Y-52.57
X39.13Y-52.57
X84.67Y-52.37
X100.93Y-52.37
T0
M30
