M48
;DRILL file {Pcbnew (2013-07-07 BZR 4022)-stable} date 9/18/2013 12:18:35
;FORMAT={-:-/ absolute / metric / decimal}
FMAT,2
METRIC,TZ
T1C0.635
T2C0.899
T3C1.600
%
G90
G05
M71
T1
X31.4Y-28.2
X45.4Y-36.4
T2
X28.43Y-20.54
X29.45Y-22.32
X30.47Y-20.54
X31.49Y-22.32
X32.51Y-20.54
X33.53Y-22.32
X34.55Y-20.54
X35.57Y-22.32
X43.43Y-51.68
X44.45Y-53.46
X45.47Y-51.68
X46.49Y-53.46
X47.51Y-51.68
X48.43Y-20.54
X48.53Y-53.46
X49.45Y-22.32
X49.55Y-51.68
X50.47Y-20.54
X50.57Y-53.46
X51.49Y-22.32
X52.51Y-20.54
X53.53Y-22.32
X54.55Y-20.54
X55.57Y-22.32
X68.43Y-20.54
X69.45Y-22.32
X70.47Y-20.54
X71.49Y-22.32
X72.51Y-20.54
X73.43Y-51.68
X73.53Y-22.32
X74.45Y-53.46
X74.55Y-20.54
X75.47Y-51.68
X75.57Y-22.32
X76.49Y-53.46
X77.51Y-51.68
X78.53Y-53.46
X79.55Y-51.68
X80.57Y-53.46
X88.43Y-20.54
X89.45Y-22.32
X90.47Y-20.54
X91.49Y-22.32
X92.51Y-20.54
X93.53Y-22.32
X94.55Y-20.54
X95.57Y-22.32
T3
X23.87Y-21.43
X38.87Y-52.57
X40.13Y-21.43
X43.87Y-21.43
X55.13Y-52.57
X60.13Y-21.43
X63.87Y-21.43
X68.87Y-52.57
X80.13Y-21.43
X83.87Y-21.43
X85.13Y-52.57
X100.13Y-21.43
T0
M30
