G04 (created by PCBNEW (2013-07-07 BZR 4022)-stable) date 18/09/2013 12:22:05*
%MOIN*%
G04 Gerber Fmt 3.4, Leading zero omitted, Abs format*
%FSLAX34Y34*%
G01*
G70*
G90*
G04 APERTURE LIST*
%ADD10C,0.005*%
%ADD11C,0.011811*%
%ADD12C,0.00590551*%
%ADD13C,0.00787402*%
G04 APERTURE END LIST*
G54D10*
G54D11*
X45331Y-14969D02*
X45528Y-14969D01*
X45613Y-15278D02*
X45331Y-15278D01*
X45331Y-14687D01*
X45613Y-14687D01*
X46119Y-15278D02*
X46119Y-14687D01*
X46119Y-15250D02*
X46062Y-15278D01*
X45950Y-15278D01*
X45894Y-15250D01*
X45866Y-15222D01*
X45838Y-15165D01*
X45838Y-14997D01*
X45866Y-14940D01*
X45894Y-14912D01*
X45950Y-14884D01*
X46062Y-14884D01*
X46119Y-14912D01*
X46653Y-14884D02*
X46653Y-15362D01*
X46625Y-15419D01*
X46597Y-15447D01*
X46541Y-15475D01*
X46456Y-15475D01*
X46400Y-15447D01*
X46653Y-15250D02*
X46597Y-15278D01*
X46484Y-15278D01*
X46428Y-15250D01*
X46400Y-15222D01*
X46372Y-15165D01*
X46372Y-14997D01*
X46400Y-14940D01*
X46428Y-14912D01*
X46484Y-14884D01*
X46597Y-14884D01*
X46653Y-14912D01*
X47159Y-15250D02*
X47103Y-15278D01*
X46991Y-15278D01*
X46934Y-15250D01*
X46906Y-15194D01*
X46906Y-14969D01*
X46934Y-14912D01*
X46991Y-14884D01*
X47103Y-14884D01*
X47159Y-14912D01*
X47187Y-14969D01*
X47187Y-15025D01*
X46906Y-15081D01*
X48228Y-15222D02*
X48200Y-15250D01*
X48115Y-15278D01*
X48059Y-15278D01*
X47975Y-15250D01*
X47919Y-15194D01*
X47890Y-15137D01*
X47862Y-15025D01*
X47862Y-14940D01*
X47890Y-14828D01*
X47919Y-14772D01*
X47975Y-14715D01*
X48059Y-14687D01*
X48115Y-14687D01*
X48200Y-14715D01*
X48228Y-14744D01*
X48734Y-14884D02*
X48734Y-15278D01*
X48481Y-14884D02*
X48481Y-15194D01*
X48509Y-15250D01*
X48565Y-15278D01*
X48650Y-15278D01*
X48706Y-15250D01*
X48734Y-15222D01*
X48931Y-14884D02*
X49156Y-14884D01*
X49015Y-14687D02*
X49015Y-15194D01*
X49043Y-15250D01*
X49100Y-15278D01*
X49156Y-15278D01*
X49325Y-15250D02*
X49381Y-15278D01*
X49493Y-15278D01*
X49550Y-15250D01*
X49578Y-15194D01*
X49578Y-15165D01*
X49550Y-15109D01*
X49493Y-15081D01*
X49409Y-15081D01*
X49353Y-15053D01*
X49325Y-14997D01*
X49325Y-14969D01*
X49353Y-14912D01*
X49409Y-14884D01*
X49493Y-14884D01*
X49550Y-14912D01*
G54D12*
X4724Y-24409D02*
X4724Y-4724D01*
X44094Y-24409D02*
X4724Y-24409D01*
X44094Y-4724D02*
X44094Y-24409D01*
X4724Y-4724D02*
X44094Y-4724D01*
G54D13*
X5229Y-11371D02*
X5479Y-11621D01*
X5479Y-11371D02*
X5229Y-11621D01*
X5465Y-11764D02*
X5715Y-12014D01*
X5715Y-11764D02*
X5465Y-12014D01*
X5780Y-11371D02*
X6030Y-11621D01*
X6030Y-11371D02*
X5780Y-11621D01*
X10268Y-8260D02*
X10518Y-8510D01*
X10518Y-8260D02*
X10268Y-8510D01*
X11607Y-9245D02*
X11857Y-9495D01*
X11857Y-9245D02*
X11607Y-9495D01*
X14126Y-8851D02*
X14376Y-9101D01*
X14376Y-8851D02*
X14126Y-9101D01*
X14599Y-6804D02*
X14849Y-7054D01*
X14849Y-6804D02*
X14599Y-7054D01*
X16095Y-11607D02*
X16345Y-11857D01*
X16345Y-11607D02*
X16095Y-11857D01*
X16252Y-17315D02*
X16502Y-17565D01*
X16502Y-17315D02*
X16252Y-17565D01*
X16764Y-21764D02*
X17014Y-22014D01*
X17014Y-21764D02*
X16764Y-22014D01*
X16961Y-11607D02*
X17211Y-11857D01*
X17211Y-11607D02*
X16961Y-11857D01*
X18693Y-17276D02*
X18943Y-17526D01*
X18943Y-17276D02*
X18693Y-17526D01*
X27591Y-11371D02*
X27841Y-11621D01*
X27841Y-11371D02*
X27591Y-11621D01*
X29599Y-17473D02*
X29849Y-17723D01*
X29849Y-17473D02*
X29599Y-17723D01*
X29717Y-9245D02*
X29967Y-9495D01*
X29967Y-9245D02*
X29717Y-9495D01*
X30504Y-8851D02*
X30754Y-9101D01*
X30754Y-8851D02*
X30504Y-9101D01*
X32158Y-17473D02*
X32408Y-17723D01*
X32408Y-17473D02*
X32158Y-17723D01*
X32788Y-9481D02*
X33038Y-9731D01*
X33038Y-9481D02*
X32788Y-9731D01*
X33536Y-9914D02*
X33786Y-10164D01*
X33786Y-9914D02*
X33536Y-10164D01*
X33536Y-11961D02*
X33786Y-12211D01*
X33786Y-11961D02*
X33536Y-12211D01*
X35386Y-10701D02*
X35636Y-10951D01*
X35636Y-10701D02*
X35386Y-10951D01*
X37591Y-20426D02*
X37841Y-20676D01*
X37841Y-20426D02*
X37591Y-20676D01*
X41056Y-12000D02*
X41306Y-12250D01*
X41306Y-12000D02*
X41056Y-12250D01*
X42512Y-13457D02*
X42762Y-13707D01*
X42762Y-13457D02*
X42512Y-13707D01*
X27612Y-6692D02*
G75*
G03X27612Y-6692I-160J0D01*
G74*
G01*
X28612Y-6692D02*
G75*
G03X28612Y-6692I-160J0D01*
G74*
G01*
X30368Y-6692D02*
G75*
G03X30368Y-6692I-160J0D01*
G74*
G01*
X31368Y-6692D02*
G75*
G03X31368Y-6692I-160J0D01*
G74*
G01*
X33124Y-6692D02*
G75*
G03X33124Y-6692I-160J0D01*
G74*
G01*
X34124Y-6692D02*
G75*
G03X34124Y-6692I-160J0D01*
G74*
G01*
X35880Y-6692D02*
G75*
G03X35880Y-6692I-160J0D01*
G74*
G01*
X36880Y-6692D02*
G75*
G03X36880Y-6692I-160J0D01*
G74*
G01*
X18476Y-7909D02*
X18476Y-8263D01*
X18299Y-8086D02*
X18653Y-8086D01*
X18877Y-8610D02*
X18877Y-8964D01*
X18700Y-8787D02*
X19054Y-8787D01*
X19279Y-7909D02*
X19279Y-8263D01*
X19102Y-8086D02*
X19456Y-8086D01*
X19681Y-8610D02*
X19681Y-8964D01*
X19504Y-8787D02*
X19858Y-8787D01*
X20082Y-7909D02*
X20082Y-8263D01*
X19905Y-8086D02*
X20259Y-8086D01*
X20484Y-8610D02*
X20484Y-8964D01*
X20307Y-8787D02*
X20661Y-8787D01*
X20885Y-7909D02*
X20885Y-8263D01*
X20708Y-8086D02*
X21062Y-8086D01*
X21287Y-8610D02*
X21287Y-8964D01*
X21110Y-8787D02*
X21464Y-8787D01*
X14551Y-13566D02*
X14551Y-13204D01*
X14189Y-13204D01*
X14189Y-13566D01*
X14551Y-13566D01*
X15196Y-13169D02*
X13543Y-13169D01*
X15196Y-13602D02*
X13543Y-13602D01*
X13543Y-13169D02*
G75*
G03X13543Y-13602I0J-216D01*
G74*
G01*
X15196Y-13602D02*
G75*
G03X15196Y-13169I0J216D01*
G74*
G01*
X14551Y-16322D02*
X14551Y-15960D01*
X14189Y-15960D01*
X14189Y-16322D01*
X14551Y-16322D01*
X15196Y-15925D02*
X13543Y-15925D01*
X15196Y-16358D02*
X13543Y-16358D01*
X13543Y-15925D02*
G75*
G03X13543Y-16358I0J-216D01*
G74*
G01*
X15196Y-16358D02*
G75*
G03X15196Y-15925I0J216D01*
G74*
G01*
X14551Y-19078D02*
X14551Y-18716D01*
X14189Y-18716D01*
X14189Y-19078D01*
X14551Y-19078D01*
X15196Y-18681D02*
X13543Y-18681D01*
X15196Y-19114D02*
X13543Y-19114D01*
X13543Y-18681D02*
G75*
G03X13543Y-19114I0J-216D01*
G74*
G01*
X15196Y-19114D02*
G75*
G03X15196Y-18681I0J216D01*
G74*
G01*
X21243Y-13566D02*
X21243Y-13204D01*
X20882Y-13204D01*
X20882Y-13566D01*
X21243Y-13566D01*
X21889Y-13169D02*
X20236Y-13169D01*
X21889Y-13602D02*
X20236Y-13602D01*
X20236Y-13169D02*
G75*
G03X20236Y-13602I0J-216D01*
G74*
G01*
X21889Y-13602D02*
G75*
G03X21889Y-13169I0J216D01*
G74*
G01*
X21243Y-16322D02*
X21243Y-15960D01*
X20882Y-15960D01*
X20882Y-16322D01*
X21243Y-16322D01*
X21889Y-15925D02*
X20236Y-15925D01*
X21889Y-16358D02*
X20236Y-16358D01*
X20236Y-15925D02*
G75*
G03X20236Y-16358I0J-216D01*
G74*
G01*
X21889Y-16358D02*
G75*
G03X21889Y-15925I0J216D01*
G74*
G01*
X21243Y-19078D02*
X21243Y-18716D01*
X20882Y-18716D01*
X20882Y-19078D01*
X21243Y-19078D01*
X21889Y-18681D02*
X20236Y-18681D01*
X21889Y-19114D02*
X20236Y-19114D01*
X20236Y-18681D02*
G75*
G03X20236Y-19114I0J-216D01*
G74*
G01*
X21889Y-19114D02*
G75*
G03X21889Y-18681I0J216D01*
G74*
G01*
X27936Y-13566D02*
X27936Y-13204D01*
X27574Y-13204D01*
X27574Y-13566D01*
X27936Y-13566D01*
X28582Y-13169D02*
X26929Y-13169D01*
X28582Y-13602D02*
X26929Y-13602D01*
X26929Y-13169D02*
G75*
G03X26929Y-13602I0J-216D01*
G74*
G01*
X28582Y-13602D02*
G75*
G03X28582Y-13169I0J216D01*
G74*
G01*
X27936Y-16322D02*
X27936Y-15960D01*
X27574Y-15960D01*
X27574Y-16322D01*
X27936Y-16322D01*
X28582Y-15925D02*
X26929Y-15925D01*
X28582Y-16358D02*
X26929Y-16358D01*
X26929Y-15925D02*
G75*
G03X26929Y-16358I0J-216D01*
G74*
G01*
X28582Y-16358D02*
G75*
G03X28582Y-15925I0J216D01*
G74*
G01*
X27936Y-19078D02*
X27936Y-18716D01*
X27574Y-18716D01*
X27574Y-19078D01*
X27936Y-19078D01*
X28582Y-18681D02*
X26929Y-18681D01*
X28582Y-19114D02*
X26929Y-19114D01*
X26929Y-18681D02*
G75*
G03X26929Y-19114I0J-216D01*
G74*
G01*
X28582Y-19114D02*
G75*
G03X28582Y-18681I0J216D01*
G74*
G01*
X34629Y-13566D02*
X34629Y-13204D01*
X34267Y-13204D01*
X34267Y-13566D01*
X34629Y-13566D01*
X35275Y-13169D02*
X33622Y-13169D01*
X35275Y-13602D02*
X33622Y-13602D01*
X33622Y-13169D02*
G75*
G03X33622Y-13602I0J-216D01*
G74*
G01*
X35275Y-13602D02*
G75*
G03X35275Y-13169I0J216D01*
G74*
G01*
X34629Y-16322D02*
X34629Y-15960D01*
X34267Y-15960D01*
X34267Y-16322D01*
X34629Y-16322D01*
X35275Y-15925D02*
X33622Y-15925D01*
X35275Y-16358D02*
X33622Y-16358D01*
X33622Y-15925D02*
G75*
G03X33622Y-16358I0J-216D01*
G74*
G01*
X35275Y-16358D02*
G75*
G03X35275Y-15925I0J216D01*
G74*
G01*
X34629Y-19078D02*
X34629Y-18716D01*
X34267Y-18716D01*
X34267Y-19078D01*
X34629Y-19078D01*
X35275Y-18681D02*
X33622Y-18681D01*
X35275Y-19114D02*
X33622Y-19114D01*
X33622Y-18681D02*
G75*
G03X33622Y-19114I0J-216D01*
G74*
G01*
X35275Y-19114D02*
G75*
G03X35275Y-18681I0J216D01*
G74*
G01*
X16681Y-8751D02*
X16996Y-8437D01*
X16681Y-8122D01*
X16366Y-8437D01*
X16681Y-8751D01*
X23082Y-8751D02*
X23397Y-8437D01*
X23082Y-8122D01*
X22767Y-8437D01*
X23082Y-8751D01*
G54D11*
X5763Y-26216D02*
X5763Y-25035D01*
X6044Y-25035D01*
X6213Y-25091D01*
X6325Y-25203D01*
X6382Y-25316D01*
X6438Y-25541D01*
X6438Y-25710D01*
X6382Y-25935D01*
X6325Y-26047D01*
X6213Y-26160D01*
X6044Y-26216D01*
X5763Y-26216D01*
X6944Y-26216D02*
X6944Y-25428D01*
X6944Y-25653D02*
X7000Y-25541D01*
X7057Y-25485D01*
X7169Y-25428D01*
X7282Y-25428D01*
X7675Y-26216D02*
X7675Y-25428D01*
X7675Y-25035D02*
X7619Y-25091D01*
X7675Y-25147D01*
X7732Y-25091D01*
X7675Y-25035D01*
X7675Y-25147D01*
X8406Y-26216D02*
X8294Y-26160D01*
X8238Y-26047D01*
X8238Y-25035D01*
X9025Y-26216D02*
X8913Y-26160D01*
X8856Y-26047D01*
X8856Y-25035D01*
X10375Y-26216D02*
X10375Y-25035D01*
X10769Y-25878D01*
X11162Y-25035D01*
X11162Y-26216D01*
X12231Y-26216D02*
X12231Y-25597D01*
X12175Y-25485D01*
X12062Y-25428D01*
X11837Y-25428D01*
X11725Y-25485D01*
X12231Y-26160D02*
X12118Y-26216D01*
X11837Y-26216D01*
X11725Y-26160D01*
X11669Y-26047D01*
X11669Y-25935D01*
X11725Y-25822D01*
X11837Y-25766D01*
X12118Y-25766D01*
X12231Y-25710D01*
X12793Y-25428D02*
X12793Y-26609D01*
X12793Y-25485D02*
X12906Y-25428D01*
X13131Y-25428D01*
X13243Y-25485D01*
X13300Y-25541D01*
X13356Y-25653D01*
X13356Y-25991D01*
X13300Y-26103D01*
X13243Y-26160D01*
X13131Y-26216D01*
X12906Y-26216D01*
X12793Y-26160D01*
X13862Y-26103D02*
X13918Y-26160D01*
X13862Y-26216D01*
X13806Y-26160D01*
X13862Y-26103D01*
X13862Y-26216D01*
X13862Y-25485D02*
X13918Y-25541D01*
X13862Y-25597D01*
X13806Y-25541D01*
X13862Y-25485D01*
X13862Y-25597D01*
X4444Y-28093D02*
X4694Y-28343D01*
X4694Y-28093D02*
X4444Y-28343D01*
X5988Y-27515D02*
X6100Y-27515D01*
X6213Y-27571D01*
X6269Y-27627D01*
X6325Y-27740D01*
X6382Y-27965D01*
X6382Y-28246D01*
X6325Y-28471D01*
X6269Y-28584D01*
X6213Y-28640D01*
X6100Y-28696D01*
X5988Y-28696D01*
X5875Y-28640D01*
X5819Y-28584D01*
X5763Y-28471D01*
X5707Y-28246D01*
X5707Y-27965D01*
X5763Y-27740D01*
X5819Y-27627D01*
X5875Y-27571D01*
X5988Y-27515D01*
X6888Y-28584D02*
X6944Y-28640D01*
X6888Y-28696D01*
X6832Y-28640D01*
X6888Y-28584D01*
X6888Y-28696D01*
X7956Y-27515D02*
X7732Y-27515D01*
X7619Y-27571D01*
X7563Y-27627D01*
X7450Y-27796D01*
X7394Y-28021D01*
X7394Y-28471D01*
X7450Y-28584D01*
X7507Y-28640D01*
X7619Y-28696D01*
X7844Y-28696D01*
X7956Y-28640D01*
X8013Y-28584D01*
X8069Y-28471D01*
X8069Y-28190D01*
X8013Y-28077D01*
X7956Y-28021D01*
X7844Y-27965D01*
X7619Y-27965D01*
X7507Y-28021D01*
X7450Y-28077D01*
X7394Y-28190D01*
X9081Y-27909D02*
X9081Y-28696D01*
X8800Y-27459D02*
X8519Y-28302D01*
X9250Y-28302D01*
X9700Y-28696D02*
X9700Y-27909D01*
X9700Y-28021D02*
X9756Y-27965D01*
X9869Y-27909D01*
X10037Y-27909D01*
X10150Y-27965D01*
X10206Y-28077D01*
X10206Y-28696D01*
X10206Y-28077D02*
X10262Y-27965D01*
X10375Y-27909D01*
X10544Y-27909D01*
X10656Y-27965D01*
X10712Y-28077D01*
X10712Y-28696D01*
X11275Y-28696D02*
X11275Y-27909D01*
X11275Y-28021D02*
X11331Y-27965D01*
X11444Y-27909D01*
X11612Y-27909D01*
X11725Y-27965D01*
X11781Y-28077D01*
X11781Y-28696D01*
X11781Y-28077D02*
X11837Y-27965D01*
X11950Y-27909D01*
X12118Y-27909D01*
X12231Y-27965D01*
X12287Y-28077D01*
X12287Y-28696D01*
X14593Y-27459D02*
X13581Y-28977D01*
X16112Y-27515D02*
X16224Y-27515D01*
X16337Y-27571D01*
X16393Y-27627D01*
X16449Y-27740D01*
X16505Y-27965D01*
X16505Y-28246D01*
X16449Y-28471D01*
X16393Y-28584D01*
X16337Y-28640D01*
X16224Y-28696D01*
X16112Y-28696D01*
X15999Y-28640D01*
X15943Y-28584D01*
X15887Y-28471D01*
X15830Y-28246D01*
X15830Y-27965D01*
X15887Y-27740D01*
X15943Y-27627D01*
X15999Y-27571D01*
X16112Y-27515D01*
X17012Y-28584D02*
X17068Y-28640D01*
X17012Y-28696D01*
X16955Y-28640D01*
X17012Y-28584D01*
X17012Y-28696D01*
X17799Y-27515D02*
X17911Y-27515D01*
X18024Y-27571D01*
X18080Y-27627D01*
X18136Y-27740D01*
X18193Y-27965D01*
X18193Y-28246D01*
X18136Y-28471D01*
X18080Y-28584D01*
X18024Y-28640D01*
X17911Y-28696D01*
X17799Y-28696D01*
X17687Y-28640D01*
X17630Y-28584D01*
X17574Y-28471D01*
X17518Y-28246D01*
X17518Y-27965D01*
X17574Y-27740D01*
X17630Y-27627D01*
X17687Y-27571D01*
X17799Y-27515D01*
X18643Y-27627D02*
X18699Y-27571D01*
X18811Y-27515D01*
X19093Y-27515D01*
X19205Y-27571D01*
X19261Y-27627D01*
X19318Y-27740D01*
X19318Y-27852D01*
X19261Y-28021D01*
X18586Y-28696D01*
X19318Y-28696D01*
X20386Y-27515D02*
X19824Y-27515D01*
X19767Y-28077D01*
X19824Y-28021D01*
X19936Y-27965D01*
X20217Y-27965D01*
X20330Y-28021D01*
X20386Y-28077D01*
X20442Y-28190D01*
X20442Y-28471D01*
X20386Y-28584D01*
X20330Y-28640D01*
X20217Y-28696D01*
X19936Y-28696D01*
X19824Y-28640D01*
X19767Y-28584D01*
X20892Y-27515D02*
X20892Y-27740D01*
X21342Y-27515D02*
X21342Y-27740D01*
X23086Y-29146D02*
X23030Y-29090D01*
X22917Y-28921D01*
X22861Y-28809D01*
X22805Y-28640D01*
X22748Y-28359D01*
X22748Y-28134D01*
X22805Y-27852D01*
X22861Y-27684D01*
X22917Y-27571D01*
X23030Y-27402D01*
X23086Y-27346D01*
X23480Y-27627D02*
X23536Y-27571D01*
X23648Y-27515D01*
X23929Y-27515D01*
X24042Y-27571D01*
X24098Y-27627D01*
X24154Y-27740D01*
X24154Y-27852D01*
X24098Y-28021D01*
X23423Y-28696D01*
X24154Y-28696D01*
X25167Y-27909D02*
X25167Y-28696D01*
X24886Y-27459D02*
X24604Y-28302D01*
X25336Y-28302D01*
X26685Y-28696D02*
X26685Y-27515D01*
X27192Y-28696D02*
X27192Y-28077D01*
X27135Y-27965D01*
X27023Y-27909D01*
X26854Y-27909D01*
X26742Y-27965D01*
X26685Y-28021D01*
X27923Y-28696D02*
X27810Y-28640D01*
X27754Y-28584D01*
X27698Y-28471D01*
X27698Y-28134D01*
X27754Y-28021D01*
X27810Y-27965D01*
X27923Y-27909D01*
X28091Y-27909D01*
X28204Y-27965D01*
X28260Y-28021D01*
X28316Y-28134D01*
X28316Y-28471D01*
X28260Y-28584D01*
X28204Y-28640D01*
X28091Y-28696D01*
X27923Y-28696D01*
X28991Y-28696D02*
X28879Y-28640D01*
X28823Y-28527D01*
X28823Y-27515D01*
X29891Y-28640D02*
X29779Y-28696D01*
X29554Y-28696D01*
X29441Y-28640D01*
X29385Y-28527D01*
X29385Y-28077D01*
X29441Y-27965D01*
X29554Y-27909D01*
X29779Y-27909D01*
X29891Y-27965D01*
X29947Y-28077D01*
X29947Y-28190D01*
X29385Y-28302D01*
X30397Y-28640D02*
X30510Y-28696D01*
X30735Y-28696D01*
X30847Y-28640D01*
X30904Y-28527D01*
X30904Y-28471D01*
X30847Y-28359D01*
X30735Y-28302D01*
X30566Y-28302D01*
X30454Y-28246D01*
X30397Y-28134D01*
X30397Y-28077D01*
X30454Y-27965D01*
X30566Y-27909D01*
X30735Y-27909D01*
X30847Y-27965D01*
X31297Y-29146D02*
X31354Y-29090D01*
X31466Y-28921D01*
X31522Y-28809D01*
X31579Y-28640D01*
X31635Y-28359D01*
X31635Y-28134D01*
X31579Y-27852D01*
X31522Y-27684D01*
X31466Y-27571D01*
X31354Y-27402D01*
X31297Y-27346D01*
G54D13*
X4694Y-29777D02*
G75*
G03X4694Y-29777I-160J0D01*
G74*
G01*
G54D11*
X5988Y-29074D02*
X6100Y-29074D01*
X6213Y-29130D01*
X6269Y-29187D01*
X6325Y-29299D01*
X6382Y-29524D01*
X6382Y-29805D01*
X6325Y-30030D01*
X6269Y-30143D01*
X6213Y-30199D01*
X6100Y-30255D01*
X5988Y-30255D01*
X5875Y-30199D01*
X5819Y-30143D01*
X5763Y-30030D01*
X5707Y-29805D01*
X5707Y-29524D01*
X5763Y-29299D01*
X5819Y-29187D01*
X5875Y-29130D01*
X5988Y-29074D01*
X6888Y-30143D02*
X6944Y-30199D01*
X6888Y-30255D01*
X6832Y-30199D01*
X6888Y-30143D01*
X6888Y-30255D01*
X7619Y-29580D02*
X7507Y-29524D01*
X7450Y-29468D01*
X7394Y-29355D01*
X7394Y-29299D01*
X7450Y-29187D01*
X7507Y-29130D01*
X7619Y-29074D01*
X7844Y-29074D01*
X7956Y-29130D01*
X8013Y-29187D01*
X8069Y-29299D01*
X8069Y-29355D01*
X8013Y-29468D01*
X7956Y-29524D01*
X7844Y-29580D01*
X7619Y-29580D01*
X7507Y-29636D01*
X7450Y-29693D01*
X7394Y-29805D01*
X7394Y-30030D01*
X7450Y-30143D01*
X7507Y-30199D01*
X7619Y-30255D01*
X7844Y-30255D01*
X7956Y-30199D01*
X8013Y-30143D01*
X8069Y-30030D01*
X8069Y-29805D01*
X8013Y-29693D01*
X7956Y-29636D01*
X7844Y-29580D01*
X9194Y-30255D02*
X8519Y-30255D01*
X8856Y-30255D02*
X8856Y-29074D01*
X8744Y-29243D01*
X8631Y-29355D01*
X8519Y-29411D01*
X9700Y-30255D02*
X9700Y-29468D01*
X9700Y-29580D02*
X9756Y-29524D01*
X9869Y-29468D01*
X10037Y-29468D01*
X10150Y-29524D01*
X10206Y-29636D01*
X10206Y-30255D01*
X10206Y-29636D02*
X10262Y-29524D01*
X10375Y-29468D01*
X10544Y-29468D01*
X10656Y-29524D01*
X10712Y-29636D01*
X10712Y-30255D01*
X11275Y-30255D02*
X11275Y-29468D01*
X11275Y-29580D02*
X11331Y-29524D01*
X11444Y-29468D01*
X11612Y-29468D01*
X11725Y-29524D01*
X11781Y-29636D01*
X11781Y-30255D01*
X11781Y-29636D02*
X11837Y-29524D01*
X11950Y-29468D01*
X12118Y-29468D01*
X12231Y-29524D01*
X12287Y-29636D01*
X12287Y-30255D01*
X14593Y-29018D02*
X13581Y-30536D01*
X16112Y-29074D02*
X16224Y-29074D01*
X16337Y-29130D01*
X16393Y-29187D01*
X16449Y-29299D01*
X16505Y-29524D01*
X16505Y-29805D01*
X16449Y-30030D01*
X16393Y-30143D01*
X16337Y-30199D01*
X16224Y-30255D01*
X16112Y-30255D01*
X15999Y-30199D01*
X15943Y-30143D01*
X15887Y-30030D01*
X15830Y-29805D01*
X15830Y-29524D01*
X15887Y-29299D01*
X15943Y-29187D01*
X15999Y-29130D01*
X16112Y-29074D01*
X17012Y-30143D02*
X17068Y-30199D01*
X17012Y-30255D01*
X16955Y-30199D01*
X17012Y-30143D01*
X17012Y-30255D01*
X17799Y-29074D02*
X17911Y-29074D01*
X18024Y-29130D01*
X18080Y-29187D01*
X18136Y-29299D01*
X18193Y-29524D01*
X18193Y-29805D01*
X18136Y-30030D01*
X18080Y-30143D01*
X18024Y-30199D01*
X17911Y-30255D01*
X17799Y-30255D01*
X17687Y-30199D01*
X17630Y-30143D01*
X17574Y-30030D01*
X17518Y-29805D01*
X17518Y-29524D01*
X17574Y-29299D01*
X17630Y-29187D01*
X17687Y-29130D01*
X17799Y-29074D01*
X18586Y-29074D02*
X19318Y-29074D01*
X18924Y-29524D01*
X19093Y-29524D01*
X19205Y-29580D01*
X19261Y-29636D01*
X19318Y-29749D01*
X19318Y-30030D01*
X19261Y-30143D01*
X19205Y-30199D01*
X19093Y-30255D01*
X18755Y-30255D01*
X18643Y-30199D01*
X18586Y-30143D01*
X19767Y-29187D02*
X19824Y-29130D01*
X19936Y-29074D01*
X20217Y-29074D01*
X20330Y-29130D01*
X20386Y-29187D01*
X20442Y-29299D01*
X20442Y-29411D01*
X20386Y-29580D01*
X19711Y-30255D01*
X20442Y-30255D01*
X20892Y-29074D02*
X20892Y-29299D01*
X21342Y-29074D02*
X21342Y-29299D01*
X23086Y-30705D02*
X23030Y-30649D01*
X22917Y-30480D01*
X22861Y-30368D01*
X22805Y-30199D01*
X22748Y-29918D01*
X22748Y-29693D01*
X22805Y-29411D01*
X22861Y-29243D01*
X22917Y-29130D01*
X23030Y-28962D01*
X23086Y-28905D01*
X23705Y-29580D02*
X23592Y-29524D01*
X23536Y-29468D01*
X23480Y-29355D01*
X23480Y-29299D01*
X23536Y-29187D01*
X23592Y-29130D01*
X23705Y-29074D01*
X23929Y-29074D01*
X24042Y-29130D01*
X24098Y-29187D01*
X24154Y-29299D01*
X24154Y-29355D01*
X24098Y-29468D01*
X24042Y-29524D01*
X23929Y-29580D01*
X23705Y-29580D01*
X23592Y-29636D01*
X23536Y-29693D01*
X23480Y-29805D01*
X23480Y-30030D01*
X23536Y-30143D01*
X23592Y-30199D01*
X23705Y-30255D01*
X23929Y-30255D01*
X24042Y-30199D01*
X24098Y-30143D01*
X24154Y-30030D01*
X24154Y-29805D01*
X24098Y-29693D01*
X24042Y-29636D01*
X23929Y-29580D01*
X25561Y-30255D02*
X25561Y-29074D01*
X26067Y-30255D02*
X26067Y-29636D01*
X26010Y-29524D01*
X25898Y-29468D01*
X25729Y-29468D01*
X25617Y-29524D01*
X25561Y-29580D01*
X26798Y-30255D02*
X26685Y-30199D01*
X26629Y-30143D01*
X26573Y-30030D01*
X26573Y-29693D01*
X26629Y-29580D01*
X26685Y-29524D01*
X26798Y-29468D01*
X26967Y-29468D01*
X27079Y-29524D01*
X27135Y-29580D01*
X27192Y-29693D01*
X27192Y-30030D01*
X27135Y-30143D01*
X27079Y-30199D01*
X26967Y-30255D01*
X26798Y-30255D01*
X27866Y-30255D02*
X27754Y-30199D01*
X27698Y-30086D01*
X27698Y-29074D01*
X28766Y-30199D02*
X28654Y-30255D01*
X28429Y-30255D01*
X28316Y-30199D01*
X28260Y-30086D01*
X28260Y-29636D01*
X28316Y-29524D01*
X28429Y-29468D01*
X28654Y-29468D01*
X28766Y-29524D01*
X28823Y-29636D01*
X28823Y-29749D01*
X28260Y-29861D01*
X29273Y-30199D02*
X29385Y-30255D01*
X29610Y-30255D01*
X29723Y-30199D01*
X29779Y-30086D01*
X29779Y-30030D01*
X29723Y-29918D01*
X29610Y-29861D01*
X29441Y-29861D01*
X29329Y-29805D01*
X29273Y-29693D01*
X29273Y-29636D01*
X29329Y-29524D01*
X29441Y-29468D01*
X29610Y-29468D01*
X29723Y-29524D01*
X30172Y-30705D02*
X30229Y-30649D01*
X30341Y-30480D01*
X30397Y-30368D01*
X30454Y-30199D01*
X30510Y-29918D01*
X30510Y-29693D01*
X30454Y-29411D01*
X30397Y-29243D01*
X30341Y-29130D01*
X30229Y-28962D01*
X30172Y-28905D01*
X4517Y-31159D02*
X4517Y-31513D01*
X4340Y-31336D02*
X4694Y-31336D01*
X5988Y-30633D02*
X6100Y-30633D01*
X6213Y-30689D01*
X6269Y-30746D01*
X6325Y-30858D01*
X6382Y-31083D01*
X6382Y-31364D01*
X6325Y-31589D01*
X6269Y-31702D01*
X6213Y-31758D01*
X6100Y-31814D01*
X5988Y-31814D01*
X5875Y-31758D01*
X5819Y-31702D01*
X5763Y-31589D01*
X5707Y-31364D01*
X5707Y-31083D01*
X5763Y-30858D01*
X5819Y-30746D01*
X5875Y-30689D01*
X5988Y-30633D01*
X6888Y-31702D02*
X6944Y-31758D01*
X6888Y-31814D01*
X6832Y-31758D01*
X6888Y-31702D01*
X6888Y-31814D01*
X7507Y-31814D02*
X7732Y-31814D01*
X7844Y-31758D01*
X7900Y-31702D01*
X8013Y-31533D01*
X8069Y-31308D01*
X8069Y-30858D01*
X8013Y-30746D01*
X7956Y-30689D01*
X7844Y-30633D01*
X7619Y-30633D01*
X7507Y-30689D01*
X7450Y-30746D01*
X7394Y-30858D01*
X7394Y-31139D01*
X7450Y-31252D01*
X7507Y-31308D01*
X7619Y-31364D01*
X7844Y-31364D01*
X7956Y-31308D01*
X8013Y-31252D01*
X8069Y-31139D01*
X8800Y-30633D02*
X8913Y-30633D01*
X9025Y-30689D01*
X9081Y-30746D01*
X9138Y-30858D01*
X9194Y-31083D01*
X9194Y-31364D01*
X9138Y-31589D01*
X9081Y-31702D01*
X9025Y-31758D01*
X8913Y-31814D01*
X8800Y-31814D01*
X8688Y-31758D01*
X8631Y-31702D01*
X8575Y-31589D01*
X8519Y-31364D01*
X8519Y-31083D01*
X8575Y-30858D01*
X8631Y-30746D01*
X8688Y-30689D01*
X8800Y-30633D01*
X9700Y-31814D02*
X9700Y-31027D01*
X9700Y-31139D02*
X9756Y-31083D01*
X9869Y-31027D01*
X10037Y-31027D01*
X10150Y-31083D01*
X10206Y-31196D01*
X10206Y-31814D01*
X10206Y-31196D02*
X10262Y-31083D01*
X10375Y-31027D01*
X10544Y-31027D01*
X10656Y-31083D01*
X10712Y-31196D01*
X10712Y-31814D01*
X11275Y-31814D02*
X11275Y-31027D01*
X11275Y-31139D02*
X11331Y-31083D01*
X11444Y-31027D01*
X11612Y-31027D01*
X11725Y-31083D01*
X11781Y-31196D01*
X11781Y-31814D01*
X11781Y-31196D02*
X11837Y-31083D01*
X11950Y-31027D01*
X12118Y-31027D01*
X12231Y-31083D01*
X12287Y-31196D01*
X12287Y-31814D01*
X14593Y-30577D02*
X13581Y-32095D01*
X16112Y-30633D02*
X16224Y-30633D01*
X16337Y-30689D01*
X16393Y-30746D01*
X16449Y-30858D01*
X16505Y-31083D01*
X16505Y-31364D01*
X16449Y-31589D01*
X16393Y-31702D01*
X16337Y-31758D01*
X16224Y-31814D01*
X16112Y-31814D01*
X15999Y-31758D01*
X15943Y-31702D01*
X15887Y-31589D01*
X15830Y-31364D01*
X15830Y-31083D01*
X15887Y-30858D01*
X15943Y-30746D01*
X15999Y-30689D01*
X16112Y-30633D01*
X17012Y-31702D02*
X17068Y-31758D01*
X17012Y-31814D01*
X16955Y-31758D01*
X17012Y-31702D01*
X17012Y-31814D01*
X17799Y-30633D02*
X17911Y-30633D01*
X18024Y-30689D01*
X18080Y-30746D01*
X18136Y-30858D01*
X18193Y-31083D01*
X18193Y-31364D01*
X18136Y-31589D01*
X18080Y-31702D01*
X18024Y-31758D01*
X17911Y-31814D01*
X17799Y-31814D01*
X17687Y-31758D01*
X17630Y-31702D01*
X17574Y-31589D01*
X17518Y-31364D01*
X17518Y-31083D01*
X17574Y-30858D01*
X17630Y-30746D01*
X17687Y-30689D01*
X17799Y-30633D01*
X18586Y-30633D02*
X19318Y-30633D01*
X18924Y-31083D01*
X19093Y-31083D01*
X19205Y-31139D01*
X19261Y-31196D01*
X19318Y-31308D01*
X19318Y-31589D01*
X19261Y-31702D01*
X19205Y-31758D01*
X19093Y-31814D01*
X18755Y-31814D01*
X18643Y-31758D01*
X18586Y-31702D01*
X20386Y-30633D02*
X19824Y-30633D01*
X19767Y-31196D01*
X19824Y-31139D01*
X19936Y-31083D01*
X20217Y-31083D01*
X20330Y-31139D01*
X20386Y-31196D01*
X20442Y-31308D01*
X20442Y-31589D01*
X20386Y-31702D01*
X20330Y-31758D01*
X20217Y-31814D01*
X19936Y-31814D01*
X19824Y-31758D01*
X19767Y-31702D01*
X20892Y-30633D02*
X20892Y-30858D01*
X21342Y-30633D02*
X21342Y-30858D01*
X23086Y-32264D02*
X23030Y-32208D01*
X22917Y-32039D01*
X22861Y-31927D01*
X22805Y-31758D01*
X22748Y-31477D01*
X22748Y-31252D01*
X22805Y-30971D01*
X22861Y-30802D01*
X22917Y-30689D01*
X23030Y-30521D01*
X23086Y-30464D01*
X23705Y-31139D02*
X23592Y-31083D01*
X23536Y-31027D01*
X23480Y-30914D01*
X23480Y-30858D01*
X23536Y-30746D01*
X23592Y-30689D01*
X23705Y-30633D01*
X23929Y-30633D01*
X24042Y-30689D01*
X24098Y-30746D01*
X24154Y-30858D01*
X24154Y-30914D01*
X24098Y-31027D01*
X24042Y-31083D01*
X23929Y-31139D01*
X23705Y-31139D01*
X23592Y-31196D01*
X23536Y-31252D01*
X23480Y-31364D01*
X23480Y-31589D01*
X23536Y-31702D01*
X23592Y-31758D01*
X23705Y-31814D01*
X23929Y-31814D01*
X24042Y-31758D01*
X24098Y-31702D01*
X24154Y-31589D01*
X24154Y-31364D01*
X24098Y-31252D01*
X24042Y-31196D01*
X23929Y-31139D01*
X25561Y-31814D02*
X25561Y-30633D01*
X26067Y-31814D02*
X26067Y-31196D01*
X26010Y-31083D01*
X25898Y-31027D01*
X25729Y-31027D01*
X25617Y-31083D01*
X25561Y-31139D01*
X26798Y-31814D02*
X26685Y-31758D01*
X26629Y-31702D01*
X26573Y-31589D01*
X26573Y-31252D01*
X26629Y-31139D01*
X26685Y-31083D01*
X26798Y-31027D01*
X26967Y-31027D01*
X27079Y-31083D01*
X27135Y-31139D01*
X27192Y-31252D01*
X27192Y-31589D01*
X27135Y-31702D01*
X27079Y-31758D01*
X26967Y-31814D01*
X26798Y-31814D01*
X27866Y-31814D02*
X27754Y-31758D01*
X27698Y-31645D01*
X27698Y-30633D01*
X28766Y-31758D02*
X28654Y-31814D01*
X28429Y-31814D01*
X28316Y-31758D01*
X28260Y-31645D01*
X28260Y-31196D01*
X28316Y-31083D01*
X28429Y-31027D01*
X28654Y-31027D01*
X28766Y-31083D01*
X28823Y-31196D01*
X28823Y-31308D01*
X28260Y-31420D01*
X29273Y-31758D02*
X29385Y-31814D01*
X29610Y-31814D01*
X29723Y-31758D01*
X29779Y-31645D01*
X29779Y-31589D01*
X29723Y-31477D01*
X29610Y-31420D01*
X29441Y-31420D01*
X29329Y-31364D01*
X29273Y-31252D01*
X29273Y-31196D01*
X29329Y-31083D01*
X29441Y-31027D01*
X29610Y-31027D01*
X29723Y-31083D01*
X30172Y-32264D02*
X30229Y-32208D01*
X30341Y-32039D01*
X30397Y-31927D01*
X30454Y-31758D01*
X30510Y-31477D01*
X30510Y-31252D01*
X30454Y-30971D01*
X30397Y-30802D01*
X30341Y-30689D01*
X30229Y-30521D01*
X30172Y-30464D01*
G54D13*
X4619Y-33076D02*
X4619Y-32714D01*
X4258Y-32714D01*
X4258Y-33076D01*
X4619Y-33076D01*
G54D11*
X6382Y-33373D02*
X5707Y-33373D01*
X6044Y-33373D02*
X6044Y-32192D01*
X5932Y-32361D01*
X5819Y-32473D01*
X5707Y-32530D01*
X6888Y-33261D02*
X6944Y-33317D01*
X6888Y-33373D01*
X6832Y-33317D01*
X6888Y-33261D01*
X6888Y-33373D01*
X7338Y-32192D02*
X8069Y-32192D01*
X7675Y-32642D01*
X7844Y-32642D01*
X7956Y-32698D01*
X8013Y-32755D01*
X8069Y-32867D01*
X8069Y-33148D01*
X8013Y-33261D01*
X7956Y-33317D01*
X7844Y-33373D01*
X7507Y-33373D01*
X7394Y-33317D01*
X7338Y-33261D01*
X8800Y-32192D02*
X8913Y-32192D01*
X9025Y-32248D01*
X9081Y-32305D01*
X9138Y-32417D01*
X9194Y-32642D01*
X9194Y-32923D01*
X9138Y-33148D01*
X9081Y-33261D01*
X9025Y-33317D01*
X8913Y-33373D01*
X8800Y-33373D01*
X8688Y-33317D01*
X8631Y-33261D01*
X8575Y-33148D01*
X8519Y-32923D01*
X8519Y-32642D01*
X8575Y-32417D01*
X8631Y-32305D01*
X8688Y-32248D01*
X8800Y-32192D01*
X9700Y-33373D02*
X9700Y-32586D01*
X9700Y-32698D02*
X9756Y-32642D01*
X9869Y-32586D01*
X10037Y-32586D01*
X10150Y-32642D01*
X10206Y-32755D01*
X10206Y-33373D01*
X10206Y-32755D02*
X10262Y-32642D01*
X10375Y-32586D01*
X10544Y-32586D01*
X10656Y-32642D01*
X10712Y-32755D01*
X10712Y-33373D01*
X11275Y-33373D02*
X11275Y-32586D01*
X11275Y-32698D02*
X11331Y-32642D01*
X11444Y-32586D01*
X11612Y-32586D01*
X11725Y-32642D01*
X11781Y-32755D01*
X11781Y-33373D01*
X11781Y-32755D02*
X11837Y-32642D01*
X11950Y-32586D01*
X12118Y-32586D01*
X12231Y-32642D01*
X12287Y-32755D01*
X12287Y-33373D01*
X14593Y-32136D02*
X13581Y-33654D01*
X16112Y-32192D02*
X16224Y-32192D01*
X16337Y-32248D01*
X16393Y-32305D01*
X16449Y-32417D01*
X16505Y-32642D01*
X16505Y-32923D01*
X16449Y-33148D01*
X16393Y-33261D01*
X16337Y-33317D01*
X16224Y-33373D01*
X16112Y-33373D01*
X15999Y-33317D01*
X15943Y-33261D01*
X15887Y-33148D01*
X15830Y-32923D01*
X15830Y-32642D01*
X15887Y-32417D01*
X15943Y-32305D01*
X15999Y-32248D01*
X16112Y-32192D01*
X17012Y-33261D02*
X17068Y-33317D01*
X17012Y-33373D01*
X16955Y-33317D01*
X17012Y-33261D01*
X17012Y-33373D01*
X17799Y-32192D02*
X17911Y-32192D01*
X18024Y-32248D01*
X18080Y-32305D01*
X18136Y-32417D01*
X18193Y-32642D01*
X18193Y-32923D01*
X18136Y-33148D01*
X18080Y-33261D01*
X18024Y-33317D01*
X17911Y-33373D01*
X17799Y-33373D01*
X17687Y-33317D01*
X17630Y-33261D01*
X17574Y-33148D01*
X17518Y-32923D01*
X17518Y-32642D01*
X17574Y-32417D01*
X17630Y-32305D01*
X17687Y-32248D01*
X17799Y-32192D01*
X19261Y-32192D02*
X18699Y-32192D01*
X18643Y-32755D01*
X18699Y-32698D01*
X18811Y-32642D01*
X19093Y-32642D01*
X19205Y-32698D01*
X19261Y-32755D01*
X19318Y-32867D01*
X19318Y-33148D01*
X19261Y-33261D01*
X19205Y-33317D01*
X19093Y-33373D01*
X18811Y-33373D01*
X18699Y-33317D01*
X18643Y-33261D01*
X20442Y-33373D02*
X19767Y-33373D01*
X20105Y-33373D02*
X20105Y-32192D01*
X19992Y-32361D01*
X19880Y-32473D01*
X19767Y-32530D01*
X20892Y-32192D02*
X20892Y-32417D01*
X21342Y-32192D02*
X21342Y-32417D01*
X23086Y-33823D02*
X23030Y-33767D01*
X22917Y-33598D01*
X22861Y-33486D01*
X22805Y-33317D01*
X22748Y-33036D01*
X22748Y-32811D01*
X22805Y-32530D01*
X22861Y-32361D01*
X22917Y-32248D01*
X23030Y-32080D01*
X23086Y-32023D01*
X23761Y-32192D02*
X23873Y-32192D01*
X23986Y-32248D01*
X24042Y-32305D01*
X24098Y-32417D01*
X24154Y-32642D01*
X24154Y-32923D01*
X24098Y-33148D01*
X24042Y-33261D01*
X23986Y-33317D01*
X23873Y-33373D01*
X23761Y-33373D01*
X23648Y-33317D01*
X23592Y-33261D01*
X23536Y-33148D01*
X23480Y-32923D01*
X23480Y-32642D01*
X23536Y-32417D01*
X23592Y-32305D01*
X23648Y-32248D01*
X23761Y-32192D01*
X25561Y-33373D02*
X25561Y-32192D01*
X26067Y-33373D02*
X26067Y-32755D01*
X26010Y-32642D01*
X25898Y-32586D01*
X25729Y-32586D01*
X25617Y-32642D01*
X25561Y-32698D01*
X26798Y-33373D02*
X26685Y-33317D01*
X26629Y-33261D01*
X26573Y-33148D01*
X26573Y-32811D01*
X26629Y-32698D01*
X26685Y-32642D01*
X26798Y-32586D01*
X26967Y-32586D01*
X27079Y-32642D01*
X27135Y-32698D01*
X27192Y-32811D01*
X27192Y-33148D01*
X27135Y-33261D01*
X27079Y-33317D01*
X26967Y-33373D01*
X26798Y-33373D01*
X27866Y-33373D02*
X27754Y-33317D01*
X27698Y-33205D01*
X27698Y-32192D01*
X28766Y-33317D02*
X28654Y-33373D01*
X28429Y-33373D01*
X28316Y-33317D01*
X28260Y-33205D01*
X28260Y-32755D01*
X28316Y-32642D01*
X28429Y-32586D01*
X28654Y-32586D01*
X28766Y-32642D01*
X28823Y-32755D01*
X28823Y-32867D01*
X28260Y-32980D01*
X29273Y-33317D02*
X29385Y-33373D01*
X29610Y-33373D01*
X29723Y-33317D01*
X29779Y-33205D01*
X29779Y-33148D01*
X29723Y-33036D01*
X29610Y-32980D01*
X29441Y-32980D01*
X29329Y-32923D01*
X29273Y-32811D01*
X29273Y-32755D01*
X29329Y-32642D01*
X29441Y-32586D01*
X29610Y-32586D01*
X29723Y-32642D01*
X31185Y-32923D02*
X32085Y-32923D01*
X31635Y-33373D02*
X31635Y-32473D01*
X34166Y-33373D02*
X33491Y-33373D01*
X33828Y-33373D02*
X33828Y-32192D01*
X33716Y-32361D01*
X33603Y-32473D01*
X33491Y-32530D01*
X34616Y-32305D02*
X34672Y-32248D01*
X34784Y-32192D01*
X35066Y-32192D01*
X35178Y-32248D01*
X35234Y-32305D01*
X35291Y-32417D01*
X35291Y-32530D01*
X35234Y-32698D01*
X34559Y-33373D01*
X35291Y-33373D01*
X36640Y-33317D02*
X36753Y-33373D01*
X36978Y-33373D01*
X37090Y-33317D01*
X37147Y-33205D01*
X37147Y-33148D01*
X37090Y-33036D01*
X36978Y-32980D01*
X36809Y-32980D01*
X36697Y-32923D01*
X36640Y-32811D01*
X36640Y-32755D01*
X36697Y-32642D01*
X36809Y-32586D01*
X36978Y-32586D01*
X37090Y-32642D01*
X37821Y-33373D02*
X37709Y-33317D01*
X37653Y-33205D01*
X37653Y-32192D01*
X38440Y-33373D02*
X38328Y-33317D01*
X38271Y-33261D01*
X38215Y-33148D01*
X38215Y-32811D01*
X38271Y-32698D01*
X38328Y-32642D01*
X38440Y-32586D01*
X38609Y-32586D01*
X38721Y-32642D01*
X38778Y-32698D01*
X38834Y-32811D01*
X38834Y-33148D01*
X38778Y-33261D01*
X38721Y-33317D01*
X38609Y-33373D01*
X38440Y-33373D01*
X39171Y-32586D02*
X39621Y-32586D01*
X39340Y-32192D02*
X39340Y-33205D01*
X39396Y-33317D01*
X39509Y-33373D01*
X39621Y-33373D01*
X39959Y-33317D02*
X40071Y-33373D01*
X40296Y-33373D01*
X40409Y-33317D01*
X40465Y-33205D01*
X40465Y-33148D01*
X40409Y-33036D01*
X40296Y-32980D01*
X40127Y-32980D01*
X40015Y-32923D01*
X39959Y-32811D01*
X39959Y-32755D01*
X40015Y-32642D01*
X40127Y-32586D01*
X40296Y-32586D01*
X40409Y-32642D01*
X40859Y-33823D02*
X40915Y-33767D01*
X41027Y-33598D01*
X41084Y-33486D01*
X41140Y-33317D01*
X41196Y-33036D01*
X41196Y-32811D01*
X41140Y-32530D01*
X41084Y-32361D01*
X41027Y-32248D01*
X40915Y-32080D01*
X40859Y-32023D01*
G54D13*
X4379Y-34769D02*
X4694Y-34454D01*
X4379Y-34139D01*
X4064Y-34454D01*
X4379Y-34769D01*
G54D11*
X6382Y-34932D02*
X5707Y-34932D01*
X6044Y-34932D02*
X6044Y-33751D01*
X5932Y-33920D01*
X5819Y-34032D01*
X5707Y-34089D01*
X6888Y-34820D02*
X6944Y-34876D01*
X6888Y-34932D01*
X6832Y-34876D01*
X6888Y-34820D01*
X6888Y-34932D01*
X7956Y-33751D02*
X7732Y-33751D01*
X7619Y-33807D01*
X7563Y-33864D01*
X7450Y-34032D01*
X7394Y-34257D01*
X7394Y-34707D01*
X7450Y-34820D01*
X7507Y-34876D01*
X7619Y-34932D01*
X7844Y-34932D01*
X7956Y-34876D01*
X8013Y-34820D01*
X8069Y-34707D01*
X8069Y-34426D01*
X8013Y-34314D01*
X7956Y-34257D01*
X7844Y-34201D01*
X7619Y-34201D01*
X7507Y-34257D01*
X7450Y-34314D01*
X7394Y-34426D01*
X8800Y-33751D02*
X8913Y-33751D01*
X9025Y-33807D01*
X9081Y-33864D01*
X9138Y-33976D01*
X9194Y-34201D01*
X9194Y-34482D01*
X9138Y-34707D01*
X9081Y-34820D01*
X9025Y-34876D01*
X8913Y-34932D01*
X8800Y-34932D01*
X8688Y-34876D01*
X8631Y-34820D01*
X8575Y-34707D01*
X8519Y-34482D01*
X8519Y-34201D01*
X8575Y-33976D01*
X8631Y-33864D01*
X8688Y-33807D01*
X8800Y-33751D01*
X9700Y-34932D02*
X9700Y-34145D01*
X9700Y-34257D02*
X9756Y-34201D01*
X9869Y-34145D01*
X10037Y-34145D01*
X10150Y-34201D01*
X10206Y-34314D01*
X10206Y-34932D01*
X10206Y-34314D02*
X10262Y-34201D01*
X10375Y-34145D01*
X10544Y-34145D01*
X10656Y-34201D01*
X10712Y-34314D01*
X10712Y-34932D01*
X11275Y-34932D02*
X11275Y-34145D01*
X11275Y-34257D02*
X11331Y-34201D01*
X11444Y-34145D01*
X11612Y-34145D01*
X11725Y-34201D01*
X11781Y-34314D01*
X11781Y-34932D01*
X11781Y-34314D02*
X11837Y-34201D01*
X11950Y-34145D01*
X12118Y-34145D01*
X12231Y-34201D01*
X12287Y-34314D01*
X12287Y-34932D01*
X14593Y-33695D02*
X13581Y-35214D01*
X16112Y-33751D02*
X16224Y-33751D01*
X16337Y-33807D01*
X16393Y-33864D01*
X16449Y-33976D01*
X16505Y-34201D01*
X16505Y-34482D01*
X16449Y-34707D01*
X16393Y-34820D01*
X16337Y-34876D01*
X16224Y-34932D01*
X16112Y-34932D01*
X15999Y-34876D01*
X15943Y-34820D01*
X15887Y-34707D01*
X15830Y-34482D01*
X15830Y-34201D01*
X15887Y-33976D01*
X15943Y-33864D01*
X15999Y-33807D01*
X16112Y-33751D01*
X17012Y-34820D02*
X17068Y-34876D01*
X17012Y-34932D01*
X16955Y-34876D01*
X17012Y-34820D01*
X17012Y-34932D01*
X17799Y-33751D02*
X17911Y-33751D01*
X18024Y-33807D01*
X18080Y-33864D01*
X18136Y-33976D01*
X18193Y-34201D01*
X18193Y-34482D01*
X18136Y-34707D01*
X18080Y-34820D01*
X18024Y-34876D01*
X17911Y-34932D01*
X17799Y-34932D01*
X17687Y-34876D01*
X17630Y-34820D01*
X17574Y-34707D01*
X17518Y-34482D01*
X17518Y-34201D01*
X17574Y-33976D01*
X17630Y-33864D01*
X17687Y-33807D01*
X17799Y-33751D01*
X19205Y-33751D02*
X18980Y-33751D01*
X18868Y-33807D01*
X18811Y-33864D01*
X18699Y-34032D01*
X18643Y-34257D01*
X18643Y-34707D01*
X18699Y-34820D01*
X18755Y-34876D01*
X18868Y-34932D01*
X19093Y-34932D01*
X19205Y-34876D01*
X19261Y-34820D01*
X19318Y-34707D01*
X19318Y-34426D01*
X19261Y-34314D01*
X19205Y-34257D01*
X19093Y-34201D01*
X18868Y-34201D01*
X18755Y-34257D01*
X18699Y-34314D01*
X18643Y-34426D01*
X19711Y-33751D02*
X20442Y-33751D01*
X20049Y-34201D01*
X20217Y-34201D01*
X20330Y-34257D01*
X20386Y-34314D01*
X20442Y-34426D01*
X20442Y-34707D01*
X20386Y-34820D01*
X20330Y-34876D01*
X20217Y-34932D01*
X19880Y-34932D01*
X19767Y-34876D01*
X19711Y-34820D01*
X20892Y-33751D02*
X20892Y-33976D01*
X21342Y-33751D02*
X21342Y-33976D01*
X23086Y-35382D02*
X23030Y-35326D01*
X22917Y-35157D01*
X22861Y-35045D01*
X22805Y-34876D01*
X22748Y-34595D01*
X22748Y-34370D01*
X22805Y-34089D01*
X22861Y-33920D01*
X22917Y-33807D01*
X23030Y-33639D01*
X23086Y-33582D01*
X23480Y-33864D02*
X23536Y-33807D01*
X23648Y-33751D01*
X23929Y-33751D01*
X24042Y-33807D01*
X24098Y-33864D01*
X24154Y-33976D01*
X24154Y-34089D01*
X24098Y-34257D01*
X23423Y-34932D01*
X24154Y-34932D01*
X25561Y-34932D02*
X25561Y-33751D01*
X26067Y-34932D02*
X26067Y-34314D01*
X26010Y-34201D01*
X25898Y-34145D01*
X25729Y-34145D01*
X25617Y-34201D01*
X25561Y-34257D01*
X26798Y-34932D02*
X26685Y-34876D01*
X26629Y-34820D01*
X26573Y-34707D01*
X26573Y-34370D01*
X26629Y-34257D01*
X26685Y-34201D01*
X26798Y-34145D01*
X26967Y-34145D01*
X27079Y-34201D01*
X27135Y-34257D01*
X27192Y-34370D01*
X27192Y-34707D01*
X27135Y-34820D01*
X27079Y-34876D01*
X26967Y-34932D01*
X26798Y-34932D01*
X27866Y-34932D02*
X27754Y-34876D01*
X27698Y-34764D01*
X27698Y-33751D01*
X28766Y-34876D02*
X28654Y-34932D01*
X28429Y-34932D01*
X28316Y-34876D01*
X28260Y-34764D01*
X28260Y-34314D01*
X28316Y-34201D01*
X28429Y-34145D01*
X28654Y-34145D01*
X28766Y-34201D01*
X28823Y-34314D01*
X28823Y-34426D01*
X28260Y-34539D01*
X29273Y-34876D02*
X29385Y-34932D01*
X29610Y-34932D01*
X29723Y-34876D01*
X29779Y-34764D01*
X29779Y-34707D01*
X29723Y-34595D01*
X29610Y-34539D01*
X29441Y-34539D01*
X29329Y-34482D01*
X29273Y-34370D01*
X29273Y-34314D01*
X29329Y-34201D01*
X29441Y-34145D01*
X29610Y-34145D01*
X29723Y-34201D01*
X30172Y-35382D02*
X30229Y-35326D01*
X30341Y-35157D01*
X30397Y-35045D01*
X30454Y-34876D01*
X30510Y-34595D01*
X30510Y-34370D01*
X30454Y-34089D01*
X30397Y-33920D01*
X30341Y-33807D01*
X30229Y-33639D01*
X30172Y-33582D01*
M02*
