G04 (created by PCBNEW (2013-mar-13)-testing) date Thu 26 Sep 2013 17:04:14 BST*
%MOIN*%
G04 Gerber Fmt 3.4, Leading zero omitted, Abs format*
%FSLAX34Y34*%
G01*
G70*
G90*
G04 APERTURE LIST*
%ADD10C,0.005906*%
%ADD11C,0.011811*%
%ADD12C,0.075843*%
%ADD13R,0.059843X0.034843*%
%ADD14R,0.246063X0.159449*%
%ADD15R,0.044843X0.064843*%
%ADD16R,0.064843X0.044843*%
%ADD17C,0.246063*%
%ADD18C,0.153543*%
%ADD19C,0.068943*%
%ADD20C,0.096457*%
%ADD21R,0.088583X0.127953*%
%ADD22C,0.147638*%
%ADD23R,0.037443X0.072843*%
%ADD24R,0.037443X0.092543*%
%ADD25R,0.088543X0.118143*%
%ADD26R,0.064943X0.096443*%
%ADD27R,0.064943X0.045243*%
%ADD28R,0.069843X0.069843*%
%ADD29C,0.069843*%
G04 APERTURE END LIST*
G54D10*
G54D11*
X45565Y-12910D02*
X45368Y-12910D01*
X45368Y-13219D02*
X45368Y-12629D01*
X45649Y-12629D01*
X45874Y-13163D02*
X45902Y-13191D01*
X45874Y-13219D01*
X45846Y-13191D01*
X45874Y-13163D01*
X45874Y-13219D01*
X46605Y-13219D02*
X46605Y-12629D01*
X46802Y-13051D01*
X46999Y-12629D01*
X46999Y-13219D01*
X47533Y-13219D02*
X47533Y-12910D01*
X47505Y-12854D01*
X47449Y-12826D01*
X47336Y-12826D01*
X47280Y-12854D01*
X47533Y-13191D02*
X47477Y-13219D01*
X47336Y-13219D01*
X47280Y-13191D01*
X47252Y-13135D01*
X47252Y-13079D01*
X47280Y-13023D01*
X47336Y-12994D01*
X47477Y-12994D01*
X47533Y-12966D01*
X47786Y-13191D02*
X47843Y-13219D01*
X47955Y-13219D01*
X48011Y-13191D01*
X48039Y-13135D01*
X48039Y-13107D01*
X48011Y-13051D01*
X47955Y-13023D01*
X47871Y-13023D01*
X47814Y-12994D01*
X47786Y-12938D01*
X47786Y-12910D01*
X47814Y-12854D01*
X47871Y-12826D01*
X47955Y-12826D01*
X48011Y-12854D01*
X48293Y-13219D02*
X48293Y-12629D01*
X48349Y-12994D02*
X48517Y-13219D01*
X48517Y-12826D02*
X48293Y-13051D01*
G54D12*
X35720Y-6692D03*
X36720Y-6692D03*
X32964Y-6692D03*
X33964Y-6692D03*
X30208Y-6692D03*
X31208Y-6692D03*
X27452Y-6692D03*
X28452Y-6692D03*
G54D13*
X39648Y-12082D03*
X39648Y-12582D03*
X39648Y-13082D03*
X39648Y-13582D03*
X39648Y-14082D03*
X39648Y-14582D03*
X39648Y-15082D03*
X41848Y-15082D03*
X41848Y-14582D03*
X41848Y-14082D03*
X41848Y-13582D03*
X41848Y-13082D03*
X41848Y-12582D03*
X41848Y-12082D03*
X13304Y-9374D03*
X13304Y-8874D03*
X13304Y-8374D03*
X13304Y-7874D03*
X13304Y-7374D03*
X13304Y-6874D03*
X13304Y-6374D03*
X11104Y-6374D03*
X11104Y-6874D03*
X11104Y-7374D03*
X11104Y-7874D03*
X11104Y-8374D03*
X11104Y-8874D03*
X11104Y-9374D03*
G54D14*
X34448Y-13385D03*
X34448Y-16141D03*
X34448Y-18897D03*
X27755Y-13385D03*
X27755Y-16141D03*
X27755Y-18897D03*
X21062Y-13385D03*
X21062Y-16141D03*
X21062Y-18897D03*
X14370Y-13385D03*
X14370Y-16141D03*
X14370Y-18897D03*
G54D15*
X9430Y-21259D03*
X8680Y-21259D03*
G54D16*
X6692Y-19703D03*
X6692Y-20453D03*
G54D17*
X42125Y-22440D03*
X42125Y-6692D03*
X6692Y-6692D03*
X6692Y-22440D03*
G54D18*
X17381Y-7086D03*
X22381Y-7086D03*
G54D19*
X18476Y-8086D03*
X18877Y-8787D03*
X19279Y-8086D03*
X19681Y-8787D03*
X20082Y-8086D03*
X20484Y-8787D03*
X20885Y-8086D03*
X21287Y-8787D03*
G54D20*
X16681Y-8437D03*
X23082Y-8437D03*
G54D21*
X6889Y-16732D03*
X6889Y-12401D03*
X9251Y-12401D03*
X9251Y-16732D03*
G54D22*
X6929Y-14566D03*
X8661Y-14566D03*
G54D23*
X9803Y-18385D03*
G54D24*
X9212Y-18483D03*
G54D23*
X8621Y-18385D03*
G54D25*
X9212Y-19428D03*
G54D26*
X6890Y-9842D03*
G54D27*
X6890Y-10846D03*
G54D28*
X5649Y-18511D03*
G54D29*
X5649Y-19511D03*
M02*
