G04 (created by PCBNEW (2013-mar-13)-testing) date Thu 26 Sep 2013 17:04:14 BST*
%MOIN*%
G04 Gerber Fmt 3.4, Leading zero omitted, Abs format*
%FSLAX34Y34*%
G01*
G70*
G90*
G04 APERTURE LIST*
%ADD10C,0.005906*%
%ADD11C,0.011811*%
%ADD12R,0.011800X0.025600*%
%ADD13R,0.025600X0.011800*%
G04 APERTURE END LIST*
G54D10*
G54D11*
X45579Y-9485D02*
X45663Y-9513D01*
X45691Y-9541D01*
X45719Y-9597D01*
X45719Y-9682D01*
X45691Y-9738D01*
X45663Y-9766D01*
X45607Y-9794D01*
X45382Y-9794D01*
X45382Y-9204D01*
X45579Y-9204D01*
X45635Y-9232D01*
X45663Y-9260D01*
X45691Y-9316D01*
X45691Y-9372D01*
X45663Y-9429D01*
X45635Y-9457D01*
X45579Y-9485D01*
X45382Y-9485D01*
X45973Y-9738D02*
X46001Y-9766D01*
X45973Y-9794D01*
X45944Y-9766D01*
X45973Y-9738D01*
X45973Y-9794D01*
X46704Y-9794D02*
X46704Y-9204D01*
X46929Y-9204D01*
X46985Y-9232D01*
X47013Y-9260D01*
X47041Y-9316D01*
X47041Y-9401D01*
X47013Y-9457D01*
X46985Y-9485D01*
X46929Y-9513D01*
X46704Y-9513D01*
X47547Y-9794D02*
X47547Y-9485D01*
X47519Y-9429D01*
X47463Y-9401D01*
X47350Y-9401D01*
X47294Y-9429D01*
X47547Y-9766D02*
X47491Y-9794D01*
X47350Y-9794D01*
X47294Y-9766D01*
X47266Y-9710D01*
X47266Y-9654D01*
X47294Y-9597D01*
X47350Y-9569D01*
X47491Y-9569D01*
X47547Y-9541D01*
X47800Y-9766D02*
X47857Y-9794D01*
X47969Y-9794D01*
X48025Y-9766D01*
X48053Y-9710D01*
X48053Y-9682D01*
X48025Y-9625D01*
X47969Y-9597D01*
X47885Y-9597D01*
X47829Y-9569D01*
X47800Y-9513D01*
X47800Y-9485D01*
X47829Y-9429D01*
X47885Y-9401D01*
X47969Y-9401D01*
X48025Y-9429D01*
X48222Y-9401D02*
X48447Y-9401D01*
X48307Y-9204D02*
X48307Y-9710D01*
X48335Y-9766D01*
X48391Y-9794D01*
X48447Y-9794D01*
X48869Y-9766D02*
X48813Y-9794D01*
X48700Y-9794D01*
X48644Y-9766D01*
X48616Y-9710D01*
X48616Y-9485D01*
X48644Y-9429D01*
X48700Y-9401D01*
X48813Y-9401D01*
X48869Y-9429D01*
X48897Y-9485D01*
X48897Y-9541D01*
X48616Y-9597D01*
G54D12*
X18011Y-21881D03*
X17814Y-21881D03*
X17617Y-21881D03*
X17420Y-21881D03*
X17420Y-21428D03*
X17617Y-21428D03*
X17814Y-21428D03*
X18011Y-21428D03*
X31397Y-21881D03*
X31200Y-21881D03*
X31003Y-21881D03*
X30806Y-21881D03*
X30806Y-21428D03*
X31003Y-21428D03*
X31200Y-21428D03*
X31397Y-21428D03*
G54D13*
X35008Y-9546D03*
X35008Y-9349D03*
X35008Y-9152D03*
X35008Y-8955D03*
X35461Y-8955D03*
X35461Y-9152D03*
X35461Y-9349D03*
X35461Y-9546D03*
X28180Y-8956D03*
X28180Y-9153D03*
X28180Y-9350D03*
X28180Y-9547D03*
X27727Y-9547D03*
X27727Y-9350D03*
X27727Y-9153D03*
X27727Y-8956D03*
M02*
