G04 (created by PCBNEW (2013-mar-13)-testing) date Thu 26 Sep 2013 17:04:14 BST*
%MOIN*%
G04 Gerber Fmt 3.4, Leading zero omitted, Abs format*
%FSLAX34Y34*%
G01*
G70*
G90*
G04 APERTURE LIST*
%ADD10C,0.005906*%
%ADD11C,0.011811*%
%ADD12R,0.050000X0.025000*%
%ADD13R,0.035000X0.055000*%
%ADD14R,0.055000X0.035000*%
%ADD15R,0.078740X0.118110*%
%ADD16R,0.027600X0.063000*%
%ADD17R,0.027600X0.082700*%
%ADD18R,0.078700X0.108300*%
%ADD19R,0.055100X0.086600*%
%ADD20R,0.055100X0.035400*%
G04 APERTURE END LIST*
G54D10*
G54D11*
X45621Y-8186D02*
X45424Y-8186D01*
X45424Y-8495D02*
X45424Y-7904D01*
X45705Y-7904D01*
X45930Y-8439D02*
X45958Y-8467D01*
X45930Y-8495D01*
X45902Y-8467D01*
X45930Y-8439D01*
X45930Y-8495D01*
X46661Y-8495D02*
X46661Y-7904D01*
X46886Y-7904D01*
X46943Y-7933D01*
X46971Y-7961D01*
X46999Y-8017D01*
X46999Y-8101D01*
X46971Y-8158D01*
X46943Y-8186D01*
X46886Y-8214D01*
X46661Y-8214D01*
X47505Y-8495D02*
X47505Y-8186D01*
X47477Y-8129D01*
X47421Y-8101D01*
X47308Y-8101D01*
X47252Y-8129D01*
X47505Y-8467D02*
X47449Y-8495D01*
X47308Y-8495D01*
X47252Y-8467D01*
X47224Y-8411D01*
X47224Y-8354D01*
X47252Y-8298D01*
X47308Y-8270D01*
X47449Y-8270D01*
X47505Y-8242D01*
X47758Y-8467D02*
X47814Y-8495D01*
X47927Y-8495D01*
X47983Y-8467D01*
X48011Y-8411D01*
X48011Y-8383D01*
X47983Y-8326D01*
X47927Y-8298D01*
X47843Y-8298D01*
X47786Y-8270D01*
X47758Y-8214D01*
X47758Y-8186D01*
X47786Y-8129D01*
X47843Y-8101D01*
X47927Y-8101D01*
X47983Y-8129D01*
X48180Y-8101D02*
X48405Y-8101D01*
X48264Y-7904D02*
X48264Y-8411D01*
X48293Y-8467D01*
X48349Y-8495D01*
X48405Y-8495D01*
X48827Y-8467D02*
X48771Y-8495D01*
X48658Y-8495D01*
X48602Y-8467D01*
X48574Y-8411D01*
X48574Y-8186D01*
X48602Y-8129D01*
X48658Y-8101D01*
X48771Y-8101D01*
X48827Y-8129D01*
X48855Y-8186D01*
X48855Y-8242D01*
X48574Y-8298D01*
G54D12*
X39648Y-12082D03*
X39648Y-12582D03*
X39648Y-13082D03*
X39648Y-13582D03*
X39648Y-14082D03*
X39648Y-14582D03*
X39648Y-15082D03*
X41848Y-15082D03*
X41848Y-14582D03*
X41848Y-14082D03*
X41848Y-13582D03*
X41848Y-13082D03*
X41848Y-12582D03*
X41848Y-12082D03*
X13304Y-9374D03*
X13304Y-8874D03*
X13304Y-8374D03*
X13304Y-7874D03*
X13304Y-7374D03*
X13304Y-6874D03*
X13304Y-6374D03*
X11104Y-6374D03*
X11104Y-6874D03*
X11104Y-7374D03*
X11104Y-7874D03*
X11104Y-8374D03*
X11104Y-8874D03*
X11104Y-9374D03*
G54D13*
X9430Y-21259D03*
X8680Y-21259D03*
G54D14*
X6692Y-19703D03*
X6692Y-20453D03*
G54D15*
X6889Y-16732D03*
X6889Y-12401D03*
X9251Y-12401D03*
X9251Y-16732D03*
G54D16*
X9803Y-18385D03*
G54D17*
X9212Y-18483D03*
G54D16*
X8621Y-18385D03*
G54D18*
X9212Y-19428D03*
G54D19*
X6890Y-9842D03*
G54D20*
X6890Y-10846D03*
M02*
