G04 (created by PCBNEW (2013-mar-13)-testing) date Thu 26 Sep 2013 17:04:14 BST*
%MOIN*%
G04 Gerber Fmt 3.4, Leading zero omitted, Abs format*
%FSLAX34Y34*%
G01*
G70*
G90*
G04 APERTURE LIST*
%ADD10C,0.005906*%
%ADD11C,0.011811*%
G04 APERTURE END LIST*
G54D10*
G54D11*
X45331Y-14997D02*
X45528Y-14997D01*
X45613Y-15306D02*
X45331Y-15306D01*
X45331Y-14715D01*
X45613Y-14715D01*
X46119Y-15306D02*
X46119Y-14715D01*
X46119Y-15278D02*
X46062Y-15306D01*
X45950Y-15306D01*
X45894Y-15278D01*
X45866Y-15250D01*
X45838Y-15194D01*
X45838Y-15025D01*
X45866Y-14969D01*
X45894Y-14940D01*
X45950Y-14912D01*
X46062Y-14912D01*
X46119Y-14940D01*
X46653Y-14912D02*
X46653Y-15390D01*
X46625Y-15447D01*
X46597Y-15475D01*
X46541Y-15503D01*
X46456Y-15503D01*
X46400Y-15475D01*
X46653Y-15278D02*
X46597Y-15306D01*
X46484Y-15306D01*
X46428Y-15278D01*
X46400Y-15250D01*
X46372Y-15194D01*
X46372Y-15025D01*
X46400Y-14969D01*
X46428Y-14940D01*
X46484Y-14912D01*
X46597Y-14912D01*
X46653Y-14940D01*
X47159Y-15278D02*
X47103Y-15306D01*
X46991Y-15306D01*
X46934Y-15278D01*
X46906Y-15222D01*
X46906Y-14997D01*
X46934Y-14940D01*
X46991Y-14912D01*
X47103Y-14912D01*
X47159Y-14940D01*
X47187Y-14997D01*
X47187Y-15053D01*
X46906Y-15109D01*
X48228Y-15250D02*
X48200Y-15278D01*
X48115Y-15306D01*
X48059Y-15306D01*
X47975Y-15278D01*
X47919Y-15222D01*
X47890Y-15165D01*
X47862Y-15053D01*
X47862Y-14969D01*
X47890Y-14856D01*
X47919Y-14800D01*
X47975Y-14744D01*
X48059Y-14715D01*
X48115Y-14715D01*
X48200Y-14744D01*
X48228Y-14772D01*
X48734Y-14912D02*
X48734Y-15306D01*
X48481Y-14912D02*
X48481Y-15222D01*
X48509Y-15278D01*
X48565Y-15306D01*
X48650Y-15306D01*
X48706Y-15278D01*
X48734Y-15250D01*
X48931Y-14912D02*
X49156Y-14912D01*
X49015Y-14715D02*
X49015Y-15222D01*
X49043Y-15278D01*
X49100Y-15306D01*
X49156Y-15306D01*
X49325Y-15278D02*
X49381Y-15306D01*
X49493Y-15306D01*
X49550Y-15278D01*
X49578Y-15222D01*
X49578Y-15194D01*
X49550Y-15137D01*
X49493Y-15109D01*
X49409Y-15109D01*
X49353Y-15081D01*
X49325Y-15025D01*
X49325Y-14997D01*
X49353Y-14940D01*
X49409Y-14912D01*
X49493Y-14912D01*
X49550Y-14940D01*
G54D10*
X4724Y-24409D02*
X4724Y-4724D01*
X44094Y-24409D02*
X4724Y-24409D01*
X44094Y-4724D02*
X44094Y-24409D01*
X4724Y-4724D02*
X44094Y-4724D01*
M02*
