G04 (created by PCBNEW (2013-mar-13)-testing) date Thu 26 Sep 2013 17:04:14 BST*
%MOIN*%
G04 Gerber Fmt 3.4, Leading zero omitted, Abs format*
%FSLAX34Y34*%
G01*
G70*
G90*
G04 APERTURE LIST*
%ADD10C,0.005906*%
%ADD11C,0.011811*%
%ADD12C,0.066000*%
%ADD13R,0.236220X0.149606*%
%ADD14R,0.011800X0.025600*%
%ADD15R,0.025600X0.011800*%
%ADD16C,0.236220*%
%ADD17C,0.143700*%
%ADD18C,0.059100*%
%ADD19C,0.086614*%
%ADD20C,0.137795*%
%ADD21R,0.060000X0.060000*%
%ADD22C,0.060000*%
%ADD23C,0.035000*%
%ADD24C,0.019685*%
%ADD25C,0.007874*%
G04 APERTURE END LIST*
G54D10*
G54D11*
X45649Y-7083D02*
X45733Y-7111D01*
X45762Y-7140D01*
X45790Y-7196D01*
X45790Y-7280D01*
X45762Y-7336D01*
X45733Y-7365D01*
X45677Y-7393D01*
X45452Y-7393D01*
X45452Y-6802D01*
X45649Y-6802D01*
X45705Y-6830D01*
X45733Y-6858D01*
X45762Y-6915D01*
X45762Y-6971D01*
X45733Y-7027D01*
X45705Y-7055D01*
X45649Y-7083D01*
X45452Y-7083D01*
X46043Y-7336D02*
X46071Y-7365D01*
X46043Y-7393D01*
X46015Y-7365D01*
X46043Y-7336D01*
X46043Y-7393D01*
X47111Y-7336D02*
X47083Y-7365D01*
X46999Y-7393D01*
X46943Y-7393D01*
X46858Y-7365D01*
X46802Y-7308D01*
X46774Y-7252D01*
X46746Y-7140D01*
X46746Y-7055D01*
X46774Y-6943D01*
X46802Y-6886D01*
X46858Y-6830D01*
X46943Y-6802D01*
X46999Y-6802D01*
X47083Y-6830D01*
X47111Y-6858D01*
X47618Y-6999D02*
X47618Y-7393D01*
X47365Y-6999D02*
X47365Y-7308D01*
X47393Y-7365D01*
X47449Y-7393D01*
X47533Y-7393D01*
X47589Y-7365D01*
X47618Y-7336D01*
G54D12*
X35720Y-6692D03*
X36720Y-6692D03*
X32964Y-6692D03*
X33964Y-6692D03*
X30208Y-6692D03*
X31208Y-6692D03*
X27452Y-6692D03*
X28452Y-6692D03*
G54D13*
X34448Y-13385D03*
X34448Y-16141D03*
X34448Y-18897D03*
X27755Y-13385D03*
X27755Y-16141D03*
X27755Y-18897D03*
X21062Y-13385D03*
X21062Y-16141D03*
X21062Y-18897D03*
X14370Y-13385D03*
X14370Y-16141D03*
X14370Y-18897D03*
G54D14*
X18011Y-21881D03*
X17814Y-21881D03*
X17617Y-21881D03*
X17420Y-21881D03*
X17420Y-21428D03*
X17617Y-21428D03*
X17814Y-21428D03*
X18011Y-21428D03*
X31397Y-21881D03*
X31200Y-21881D03*
X31003Y-21881D03*
X30806Y-21881D03*
X30806Y-21428D03*
X31003Y-21428D03*
X31200Y-21428D03*
X31397Y-21428D03*
G54D15*
X35008Y-9546D03*
X35008Y-9349D03*
X35008Y-9152D03*
X35008Y-8955D03*
X35461Y-8955D03*
X35461Y-9152D03*
X35461Y-9349D03*
X35461Y-9546D03*
X28180Y-8956D03*
X28180Y-9153D03*
X28180Y-9350D03*
X28180Y-9547D03*
X27727Y-9547D03*
X27727Y-9350D03*
X27727Y-9153D03*
X27727Y-8956D03*
G54D16*
X42125Y-22440D03*
X42125Y-6692D03*
X6692Y-6692D03*
X6692Y-22440D03*
G54D17*
X17381Y-7086D03*
X22381Y-7086D03*
G54D18*
X18476Y-8086D03*
X18877Y-8787D03*
X19279Y-8086D03*
X19681Y-8787D03*
X20082Y-8086D03*
X20484Y-8787D03*
X20885Y-8086D03*
X21287Y-8787D03*
G54D19*
X16681Y-8437D03*
X23082Y-8437D03*
G54D20*
X6929Y-14566D03*
X8661Y-14566D03*
G54D21*
X5649Y-18511D03*
G54D22*
X5649Y-19511D03*
G54D23*
X29724Y-17598D03*
X32283Y-17598D03*
X16377Y-17440D03*
X18818Y-17401D03*
X5905Y-11496D03*
X5354Y-11496D03*
X5590Y-11889D03*
X16889Y-21889D03*
X37716Y-20551D03*
X30629Y-8976D03*
X14251Y-8976D03*
X16220Y-11732D03*
X14724Y-6929D03*
X17086Y-11732D03*
X29842Y-9370D03*
X27716Y-11496D03*
X42637Y-13582D03*
X35511Y-10826D03*
X32913Y-9606D03*
X10393Y-8385D03*
X33661Y-10039D03*
X33661Y-12086D03*
X11732Y-9370D03*
X41181Y-12125D03*
G54D24*
X14409Y-5354D02*
X10472Y-5354D01*
X10472Y-5354D02*
X5905Y-9921D01*
X15354Y-6299D02*
X14409Y-5354D01*
X5905Y-11496D02*
X5905Y-9921D01*
X15354Y-8346D02*
X15354Y-6299D01*
X16456Y-9448D02*
X15354Y-8346D01*
X17086Y-9448D02*
X16456Y-9448D01*
X18448Y-8086D02*
X17086Y-9448D01*
X18448Y-8086D02*
X18476Y-8086D01*
X20082Y-8086D02*
X20082Y-7641D01*
X18476Y-7586D02*
X18476Y-8086D01*
X18818Y-7244D02*
X18476Y-7586D01*
X19685Y-7244D02*
X18818Y-7244D01*
X20082Y-7641D02*
X19685Y-7244D01*
G54D25*
X18011Y-21881D02*
X30806Y-21881D01*
X16897Y-21881D02*
X17420Y-21881D01*
G54D24*
X16889Y-21889D02*
X16897Y-21881D01*
X37716Y-20551D02*
X39133Y-20551D01*
X39606Y-6692D02*
X36720Y-6692D01*
X43228Y-10314D02*
X39606Y-6692D01*
X43228Y-16456D02*
X43228Y-10314D01*
X39133Y-20551D02*
X43228Y-16456D01*
X36386Y-21881D02*
X37716Y-20551D01*
X31889Y-21881D02*
X36386Y-21881D01*
G54D25*
X31397Y-21881D02*
X31889Y-21881D01*
X17420Y-21881D02*
X17617Y-21881D01*
X17617Y-21881D02*
X17814Y-21881D01*
X17814Y-21881D02*
X18011Y-21881D01*
X30806Y-21881D02*
X31003Y-21881D01*
X31003Y-21881D02*
X31200Y-21881D01*
X31200Y-21881D02*
X31397Y-21881D01*
X30629Y-8956D02*
X30629Y-8976D01*
X28180Y-8956D02*
X30629Y-8956D01*
X30629Y-8956D02*
X35007Y-8956D01*
X35007Y-8956D02*
X35008Y-8955D01*
X31586Y-8070D02*
X30208Y-6692D01*
X36021Y-8070D02*
X31586Y-8070D01*
X36219Y-8268D02*
X36021Y-8070D01*
X36219Y-8858D02*
X36219Y-8268D01*
X35924Y-9152D02*
X36219Y-8858D01*
X35461Y-9152D02*
X35924Y-9152D01*
X34145Y-7874D02*
X32964Y-6692D01*
X36220Y-7874D02*
X34145Y-7874D01*
X36417Y-8070D02*
X36220Y-7874D01*
X36417Y-9055D02*
X36417Y-8070D01*
X36122Y-9349D02*
X36417Y-9055D01*
X35461Y-9349D02*
X36122Y-9349D01*
X14251Y-9763D02*
X14251Y-8976D01*
X16220Y-11732D02*
X14251Y-9763D01*
X17814Y-16634D02*
X21062Y-13385D01*
X17814Y-21428D02*
X17814Y-16634D01*
X14724Y-9370D02*
X14724Y-6929D01*
X17086Y-11732D02*
X14724Y-9370D01*
X18011Y-21428D02*
X18532Y-21428D01*
X18532Y-21428D02*
X21062Y-18897D01*
X17617Y-21428D02*
X17617Y-16633D01*
X17617Y-16633D02*
X14370Y-13385D01*
X27727Y-9350D02*
X24664Y-9350D01*
X20696Y-9803D02*
X19681Y-8787D01*
X24212Y-9803D02*
X20696Y-9803D01*
X24664Y-9350D02*
X24212Y-9803D01*
X27727Y-8956D02*
X23995Y-8956D01*
X21830Y-9330D02*
X21287Y-8787D01*
X23622Y-9330D02*
X21830Y-9330D01*
X23995Y-8956D02*
X23622Y-9330D01*
X27727Y-9153D02*
X24310Y-9153D01*
X21263Y-9566D02*
X20484Y-8787D01*
X23897Y-9566D02*
X21263Y-9566D01*
X24310Y-9153D02*
X23897Y-9566D01*
X28180Y-9153D02*
X29626Y-9153D01*
X29626Y-9153D02*
X29842Y-9370D01*
X29842Y-9370D02*
X32519Y-9370D01*
X32519Y-9370D02*
X32736Y-9152D01*
X32736Y-9152D02*
X35008Y-9152D01*
X27727Y-9547D02*
X24861Y-9547D01*
X20169Y-10078D02*
X18877Y-8787D01*
X24330Y-10078D02*
X20169Y-10078D01*
X24861Y-9547D02*
X24330Y-10078D01*
X31200Y-16634D02*
X34448Y-13385D01*
X31200Y-21428D02*
X31200Y-16634D01*
X30806Y-21428D02*
X30286Y-21428D01*
X30286Y-21428D02*
X27755Y-18897D01*
X27755Y-11535D02*
X27755Y-13385D01*
X27716Y-11496D02*
X27755Y-11535D01*
X31003Y-21428D02*
X31003Y-16633D01*
X31003Y-16633D02*
X27755Y-13385D01*
X31397Y-21428D02*
X31917Y-21428D01*
X31917Y-21428D02*
X34448Y-18897D01*
X28180Y-9350D02*
X28996Y-9350D01*
X32716Y-9803D02*
X32913Y-9606D01*
X29448Y-9803D02*
X32716Y-9803D01*
X28996Y-9350D02*
X29448Y-9803D01*
X35008Y-9349D02*
X33169Y-9349D01*
X33169Y-9349D02*
X32913Y-9606D01*
X42637Y-13582D02*
X42637Y-11496D01*
X42637Y-11496D02*
X41968Y-10826D01*
X41968Y-10826D02*
X35511Y-10826D01*
X14370Y-18897D02*
X13740Y-18897D01*
X10393Y-15551D02*
X10393Y-8385D01*
X13740Y-18897D02*
X10393Y-15551D01*
X16900Y-21428D02*
X14370Y-18897D01*
X17420Y-21428D02*
X16900Y-21428D01*
X36614Y-7586D02*
X35720Y-6692D01*
X36614Y-9251D02*
X36614Y-7586D01*
X36319Y-9546D02*
X36614Y-9251D01*
X35461Y-9546D02*
X36319Y-9546D01*
X34153Y-9546D02*
X35008Y-9546D01*
X33661Y-10039D02*
X34153Y-9546D01*
X29133Y-10039D02*
X33661Y-10039D01*
X28642Y-9547D02*
X29133Y-10039D01*
X28180Y-9547D02*
X28642Y-9547D01*
X33661Y-12086D02*
X33661Y-10039D01*
X29027Y-8267D02*
X27452Y-6692D01*
X35236Y-8267D02*
X29027Y-8267D01*
X35461Y-8492D02*
X35236Y-8267D01*
X35461Y-8955D02*
X35461Y-8492D01*
G54D24*
X14370Y-16141D02*
X12755Y-16141D01*
X11732Y-15118D02*
X11732Y-9370D01*
X12755Y-16141D02*
X11732Y-15118D01*
X34448Y-16141D02*
X37165Y-16141D01*
X37165Y-16141D02*
X41181Y-12125D01*
X21062Y-16141D02*
X27755Y-16141D01*
G54D10*
G36*
X17440Y-18228D02*
X16692Y-18228D01*
X16692Y-17378D01*
X16644Y-17263D01*
X16556Y-17174D01*
X16440Y-17126D01*
X16315Y-17126D01*
X16200Y-17174D01*
X16111Y-17262D01*
X16063Y-17378D01*
X16063Y-17503D01*
X16111Y-17618D01*
X16199Y-17707D01*
X16315Y-17755D01*
X16440Y-17755D01*
X16555Y-17707D01*
X16644Y-17619D01*
X16692Y-17503D01*
X16692Y-17378D01*
X16692Y-18228D01*
X15790Y-18228D01*
X15790Y-16937D01*
X15790Y-16221D01*
X15790Y-16062D01*
X15790Y-15346D01*
X15754Y-15258D01*
X15686Y-15190D01*
X15598Y-15154D01*
X15503Y-15154D01*
X14449Y-15154D01*
X14389Y-15214D01*
X14389Y-16122D01*
X15730Y-16122D01*
X15790Y-16062D01*
X15790Y-16221D01*
X15730Y-16161D01*
X14389Y-16161D01*
X14389Y-17069D01*
X14449Y-17129D01*
X15503Y-17129D01*
X15598Y-17129D01*
X15686Y-17092D01*
X15754Y-17025D01*
X15790Y-16937D01*
X15790Y-18228D01*
X15688Y-18228D01*
X15688Y-18122D01*
X15667Y-18071D01*
X15629Y-18032D01*
X15578Y-18011D01*
X15523Y-18011D01*
X14350Y-18011D01*
X14350Y-17069D01*
X14350Y-16161D01*
X14350Y-16122D01*
X14350Y-15214D01*
X14290Y-15154D01*
X13236Y-15154D01*
X13141Y-15154D01*
X13053Y-15190D01*
X12986Y-15258D01*
X12949Y-15346D01*
X12949Y-16062D01*
X13009Y-16122D01*
X14350Y-16122D01*
X14350Y-16161D01*
X13009Y-16161D01*
X12949Y-16221D01*
X12949Y-16937D01*
X12986Y-17025D01*
X13053Y-17092D01*
X13141Y-17129D01*
X13236Y-17129D01*
X14290Y-17129D01*
X14350Y-17069D01*
X14350Y-18011D01*
X13161Y-18011D01*
X13121Y-18028D01*
X10570Y-15477D01*
X10570Y-8650D01*
X10658Y-8563D01*
X10706Y-8448D01*
X10706Y-8323D01*
X10659Y-8208D01*
X10599Y-8149D01*
X13188Y-8149D01*
X13188Y-12500D01*
X13161Y-12500D01*
X13110Y-12520D01*
X13072Y-12559D01*
X13051Y-12610D01*
X13051Y-12665D01*
X13051Y-14161D01*
X13072Y-14211D01*
X13110Y-14250D01*
X13161Y-14271D01*
X13216Y-14271D01*
X15005Y-14271D01*
X17440Y-16706D01*
X17440Y-18228D01*
X17440Y-18228D01*
G37*
G54D25*
X17440Y-18228D02*
X16692Y-18228D01*
X16692Y-17378D01*
X16644Y-17263D01*
X16556Y-17174D01*
X16440Y-17126D01*
X16315Y-17126D01*
X16200Y-17174D01*
X16111Y-17262D01*
X16063Y-17378D01*
X16063Y-17503D01*
X16111Y-17618D01*
X16199Y-17707D01*
X16315Y-17755D01*
X16440Y-17755D01*
X16555Y-17707D01*
X16644Y-17619D01*
X16692Y-17503D01*
X16692Y-17378D01*
X16692Y-18228D01*
X15790Y-18228D01*
X15790Y-16937D01*
X15790Y-16221D01*
X15790Y-16062D01*
X15790Y-15346D01*
X15754Y-15258D01*
X15686Y-15190D01*
X15598Y-15154D01*
X15503Y-15154D01*
X14449Y-15154D01*
X14389Y-15214D01*
X14389Y-16122D01*
X15730Y-16122D01*
X15790Y-16062D01*
X15790Y-16221D01*
X15730Y-16161D01*
X14389Y-16161D01*
X14389Y-17069D01*
X14449Y-17129D01*
X15503Y-17129D01*
X15598Y-17129D01*
X15686Y-17092D01*
X15754Y-17025D01*
X15790Y-16937D01*
X15790Y-18228D01*
X15688Y-18228D01*
X15688Y-18122D01*
X15667Y-18071D01*
X15629Y-18032D01*
X15578Y-18011D01*
X15523Y-18011D01*
X14350Y-18011D01*
X14350Y-17069D01*
X14350Y-16161D01*
X14350Y-16122D01*
X14350Y-15214D01*
X14290Y-15154D01*
X13236Y-15154D01*
X13141Y-15154D01*
X13053Y-15190D01*
X12986Y-15258D01*
X12949Y-15346D01*
X12949Y-16062D01*
X13009Y-16122D01*
X14350Y-16122D01*
X14350Y-16161D01*
X13009Y-16161D01*
X12949Y-16221D01*
X12949Y-16937D01*
X12986Y-17025D01*
X13053Y-17092D01*
X13141Y-17129D01*
X13236Y-17129D01*
X14290Y-17129D01*
X14350Y-17069D01*
X14350Y-18011D01*
X13161Y-18011D01*
X13121Y-18028D01*
X10570Y-15477D01*
X10570Y-8650D01*
X10658Y-8563D01*
X10706Y-8448D01*
X10706Y-8323D01*
X10659Y-8208D01*
X10599Y-8149D01*
X13188Y-8149D01*
X13188Y-12500D01*
X13161Y-12500D01*
X13110Y-12520D01*
X13072Y-12559D01*
X13051Y-12610D01*
X13051Y-12665D01*
X13051Y-14161D01*
X13072Y-14211D01*
X13110Y-14250D01*
X13161Y-14271D01*
X13216Y-14271D01*
X15005Y-14271D01*
X17440Y-16706D01*
X17440Y-18228D01*
G54D10*
G36*
X30826Y-18228D02*
X30038Y-18228D01*
X30038Y-17536D01*
X29991Y-17420D01*
X29902Y-17332D01*
X29787Y-17284D01*
X29662Y-17284D01*
X29546Y-17331D01*
X29458Y-17420D01*
X29410Y-17535D01*
X29409Y-17660D01*
X29457Y-17776D01*
X29546Y-17864D01*
X29661Y-17912D01*
X29786Y-17912D01*
X29902Y-17865D01*
X29990Y-17776D01*
X30038Y-17661D01*
X30038Y-17536D01*
X30038Y-18228D01*
X29176Y-18228D01*
X29176Y-16937D01*
X29176Y-16221D01*
X29176Y-16062D01*
X29176Y-15346D01*
X29139Y-15258D01*
X29072Y-15190D01*
X28984Y-15154D01*
X28889Y-15154D01*
X27835Y-15154D01*
X27775Y-15214D01*
X27775Y-16122D01*
X29116Y-16122D01*
X29176Y-16062D01*
X29176Y-16221D01*
X29116Y-16161D01*
X27775Y-16161D01*
X27775Y-17069D01*
X27835Y-17129D01*
X28889Y-17129D01*
X28984Y-17129D01*
X29072Y-17092D01*
X29139Y-17025D01*
X29176Y-16937D01*
X29176Y-18228D01*
X29074Y-18228D01*
X29074Y-18122D01*
X29053Y-18071D01*
X29015Y-18032D01*
X28964Y-18011D01*
X28909Y-18011D01*
X27736Y-18011D01*
X27736Y-17069D01*
X27736Y-16161D01*
X27736Y-16122D01*
X27736Y-15214D01*
X27676Y-15154D01*
X26622Y-15154D01*
X26527Y-15154D01*
X26439Y-15190D01*
X26371Y-15258D01*
X26335Y-15346D01*
X26335Y-16062D01*
X26395Y-16122D01*
X27736Y-16122D01*
X27736Y-16161D01*
X26395Y-16161D01*
X26335Y-16221D01*
X26335Y-16937D01*
X26371Y-17025D01*
X26439Y-17092D01*
X26527Y-17129D01*
X26622Y-17129D01*
X27676Y-17129D01*
X27736Y-17069D01*
X27736Y-18011D01*
X26547Y-18011D01*
X26496Y-18032D01*
X26457Y-18071D01*
X26437Y-18122D01*
X26437Y-18177D01*
X26437Y-18228D01*
X22483Y-18228D01*
X22483Y-16937D01*
X22483Y-16221D01*
X22483Y-16062D01*
X22483Y-15346D01*
X22447Y-15258D01*
X22379Y-15190D01*
X22291Y-15154D01*
X22196Y-15154D01*
X21142Y-15154D01*
X21082Y-15214D01*
X21082Y-16122D01*
X22423Y-16122D01*
X22483Y-16062D01*
X22483Y-16221D01*
X22423Y-16161D01*
X21082Y-16161D01*
X21082Y-17069D01*
X21142Y-17129D01*
X22196Y-17129D01*
X22291Y-17129D01*
X22379Y-17092D01*
X22447Y-17025D01*
X22483Y-16937D01*
X22483Y-18228D01*
X22383Y-18228D01*
X22383Y-18121D01*
X22362Y-18070D01*
X22323Y-18031D01*
X22271Y-18010D01*
X22216Y-18010D01*
X21043Y-18010D01*
X21043Y-17069D01*
X21043Y-16161D01*
X21043Y-16122D01*
X21043Y-15214D01*
X20983Y-15154D01*
X19929Y-15154D01*
X19834Y-15154D01*
X19746Y-15190D01*
X19678Y-15258D01*
X19642Y-15346D01*
X19642Y-16062D01*
X19702Y-16122D01*
X21043Y-16122D01*
X21043Y-16161D01*
X19702Y-16161D01*
X19642Y-16221D01*
X19642Y-16937D01*
X19678Y-17025D01*
X19746Y-17092D01*
X19834Y-17129D01*
X19929Y-17129D01*
X20983Y-17129D01*
X21043Y-17069D01*
X21043Y-18010D01*
X19854Y-18010D01*
X19802Y-18031D01*
X19763Y-18070D01*
X19742Y-18121D01*
X19742Y-18177D01*
X19742Y-18228D01*
X19133Y-18228D01*
X19133Y-17339D01*
X19085Y-17223D01*
X18997Y-17135D01*
X18881Y-17087D01*
X18756Y-17087D01*
X18641Y-17134D01*
X18552Y-17223D01*
X18504Y-17338D01*
X18504Y-17463D01*
X18552Y-17579D01*
X18640Y-17667D01*
X18756Y-17715D01*
X18881Y-17715D01*
X18996Y-17668D01*
X19085Y-17579D01*
X19133Y-17464D01*
X19133Y-17339D01*
X19133Y-18228D01*
X17991Y-18228D01*
X17991Y-16707D01*
X20427Y-14271D01*
X22271Y-14271D01*
X22322Y-14250D01*
X22360Y-14211D01*
X22381Y-14161D01*
X22381Y-14106D01*
X22381Y-13425D01*
X26437Y-13425D01*
X26437Y-14161D01*
X26457Y-14211D01*
X26496Y-14250D01*
X26547Y-14271D01*
X26602Y-14271D01*
X28391Y-14271D01*
X30826Y-16706D01*
X30826Y-18228D01*
X30826Y-18228D01*
G37*
G54D25*
X30826Y-18228D02*
X30038Y-18228D01*
X30038Y-17536D01*
X29991Y-17420D01*
X29902Y-17332D01*
X29787Y-17284D01*
X29662Y-17284D01*
X29546Y-17331D01*
X29458Y-17420D01*
X29410Y-17535D01*
X29409Y-17660D01*
X29457Y-17776D01*
X29546Y-17864D01*
X29661Y-17912D01*
X29786Y-17912D01*
X29902Y-17865D01*
X29990Y-17776D01*
X30038Y-17661D01*
X30038Y-17536D01*
X30038Y-18228D01*
X29176Y-18228D01*
X29176Y-16937D01*
X29176Y-16221D01*
X29176Y-16062D01*
X29176Y-15346D01*
X29139Y-15258D01*
X29072Y-15190D01*
X28984Y-15154D01*
X28889Y-15154D01*
X27835Y-15154D01*
X27775Y-15214D01*
X27775Y-16122D01*
X29116Y-16122D01*
X29176Y-16062D01*
X29176Y-16221D01*
X29116Y-16161D01*
X27775Y-16161D01*
X27775Y-17069D01*
X27835Y-17129D01*
X28889Y-17129D01*
X28984Y-17129D01*
X29072Y-17092D01*
X29139Y-17025D01*
X29176Y-16937D01*
X29176Y-18228D01*
X29074Y-18228D01*
X29074Y-18122D01*
X29053Y-18071D01*
X29015Y-18032D01*
X28964Y-18011D01*
X28909Y-18011D01*
X27736Y-18011D01*
X27736Y-17069D01*
X27736Y-16161D01*
X27736Y-16122D01*
X27736Y-15214D01*
X27676Y-15154D01*
X26622Y-15154D01*
X26527Y-15154D01*
X26439Y-15190D01*
X26371Y-15258D01*
X26335Y-15346D01*
X26335Y-16062D01*
X26395Y-16122D01*
X27736Y-16122D01*
X27736Y-16161D01*
X26395Y-16161D01*
X26335Y-16221D01*
X26335Y-16937D01*
X26371Y-17025D01*
X26439Y-17092D01*
X26527Y-17129D01*
X26622Y-17129D01*
X27676Y-17129D01*
X27736Y-17069D01*
X27736Y-18011D01*
X26547Y-18011D01*
X26496Y-18032D01*
X26457Y-18071D01*
X26437Y-18122D01*
X26437Y-18177D01*
X26437Y-18228D01*
X22483Y-18228D01*
X22483Y-16937D01*
X22483Y-16221D01*
X22483Y-16062D01*
X22483Y-15346D01*
X22447Y-15258D01*
X22379Y-15190D01*
X22291Y-15154D01*
X22196Y-15154D01*
X21142Y-15154D01*
X21082Y-15214D01*
X21082Y-16122D01*
X22423Y-16122D01*
X22483Y-16062D01*
X22483Y-16221D01*
X22423Y-16161D01*
X21082Y-16161D01*
X21082Y-17069D01*
X21142Y-17129D01*
X22196Y-17129D01*
X22291Y-17129D01*
X22379Y-17092D01*
X22447Y-17025D01*
X22483Y-16937D01*
X22483Y-18228D01*
X22383Y-18228D01*
X22383Y-18121D01*
X22362Y-18070D01*
X22323Y-18031D01*
X22271Y-18010D01*
X22216Y-18010D01*
X21043Y-18010D01*
X21043Y-17069D01*
X21043Y-16161D01*
X21043Y-16122D01*
X21043Y-15214D01*
X20983Y-15154D01*
X19929Y-15154D01*
X19834Y-15154D01*
X19746Y-15190D01*
X19678Y-15258D01*
X19642Y-15346D01*
X19642Y-16062D01*
X19702Y-16122D01*
X21043Y-16122D01*
X21043Y-16161D01*
X19702Y-16161D01*
X19642Y-16221D01*
X19642Y-16937D01*
X19678Y-17025D01*
X19746Y-17092D01*
X19834Y-17129D01*
X19929Y-17129D01*
X20983Y-17129D01*
X21043Y-17069D01*
X21043Y-18010D01*
X19854Y-18010D01*
X19802Y-18031D01*
X19763Y-18070D01*
X19742Y-18121D01*
X19742Y-18177D01*
X19742Y-18228D01*
X19133Y-18228D01*
X19133Y-17339D01*
X19085Y-17223D01*
X18997Y-17135D01*
X18881Y-17087D01*
X18756Y-17087D01*
X18641Y-17134D01*
X18552Y-17223D01*
X18504Y-17338D01*
X18504Y-17463D01*
X18552Y-17579D01*
X18640Y-17667D01*
X18756Y-17715D01*
X18881Y-17715D01*
X18996Y-17668D01*
X19085Y-17579D01*
X19133Y-17464D01*
X19133Y-17339D01*
X19133Y-18228D01*
X17991Y-18228D01*
X17991Y-16707D01*
X20427Y-14271D01*
X22271Y-14271D01*
X22322Y-14250D01*
X22360Y-14211D01*
X22381Y-14161D01*
X22381Y-14106D01*
X22381Y-13425D01*
X26437Y-13425D01*
X26437Y-14161D01*
X26457Y-14211D01*
X26496Y-14250D01*
X26547Y-14271D01*
X26602Y-14271D01*
X28391Y-14271D01*
X30826Y-16706D01*
X30826Y-18228D01*
G54D10*
G36*
X42795Y-13920D02*
X38487Y-18228D01*
X35869Y-18228D01*
X35869Y-16937D01*
X35869Y-16221D01*
X35869Y-16062D01*
X35869Y-15346D01*
X35832Y-15258D01*
X35765Y-15190D01*
X35677Y-15154D01*
X35582Y-15154D01*
X34528Y-15154D01*
X34468Y-15214D01*
X34468Y-16122D01*
X35809Y-16122D01*
X35869Y-16062D01*
X35869Y-16221D01*
X35809Y-16161D01*
X34468Y-16161D01*
X34468Y-17069D01*
X34528Y-17129D01*
X35582Y-17129D01*
X35677Y-17129D01*
X35765Y-17092D01*
X35832Y-17025D01*
X35869Y-16937D01*
X35869Y-18228D01*
X35767Y-18228D01*
X35767Y-18122D01*
X35746Y-18071D01*
X35707Y-18032D01*
X35657Y-18011D01*
X35602Y-18011D01*
X34429Y-18011D01*
X34429Y-17069D01*
X34429Y-16161D01*
X34429Y-16122D01*
X34429Y-15214D01*
X34369Y-15154D01*
X33315Y-15154D01*
X33220Y-15154D01*
X33132Y-15190D01*
X33064Y-15258D01*
X33028Y-15346D01*
X33028Y-16062D01*
X33088Y-16122D01*
X34429Y-16122D01*
X34429Y-16161D01*
X33088Y-16161D01*
X33028Y-16221D01*
X33028Y-16937D01*
X33064Y-17025D01*
X33132Y-17092D01*
X33220Y-17129D01*
X33315Y-17129D01*
X34369Y-17129D01*
X34429Y-17069D01*
X34429Y-18011D01*
X33240Y-18011D01*
X33189Y-18032D01*
X33150Y-18071D01*
X33129Y-18122D01*
X33129Y-18177D01*
X33129Y-18228D01*
X32597Y-18228D01*
X32597Y-17536D01*
X32550Y-17420D01*
X32461Y-17332D01*
X32346Y-17284D01*
X32221Y-17284D01*
X32105Y-17331D01*
X32017Y-17420D01*
X31969Y-17535D01*
X31969Y-17660D01*
X32016Y-17776D01*
X32105Y-17864D01*
X32220Y-17912D01*
X32345Y-17912D01*
X32461Y-17865D01*
X32549Y-17776D01*
X32597Y-17661D01*
X32597Y-17536D01*
X32597Y-18228D01*
X31377Y-18228D01*
X31377Y-16707D01*
X33813Y-14271D01*
X35657Y-14271D01*
X35707Y-14250D01*
X35746Y-14211D01*
X35767Y-14161D01*
X35767Y-14106D01*
X35767Y-13425D01*
X36787Y-13425D01*
X39209Y-11003D01*
X41895Y-11003D01*
X42460Y-11569D01*
X42460Y-13317D01*
X42372Y-13405D01*
X42325Y-13520D01*
X42324Y-13644D01*
X42372Y-13759D01*
X42460Y-13847D01*
X42575Y-13895D01*
X42699Y-13895D01*
X42795Y-13856D01*
X42795Y-13920D01*
X42795Y-13920D01*
G37*
G54D25*
X42795Y-13920D02*
X38487Y-18228D01*
X35869Y-18228D01*
X35869Y-16937D01*
X35869Y-16221D01*
X35869Y-16062D01*
X35869Y-15346D01*
X35832Y-15258D01*
X35765Y-15190D01*
X35677Y-15154D01*
X35582Y-15154D01*
X34528Y-15154D01*
X34468Y-15214D01*
X34468Y-16122D01*
X35809Y-16122D01*
X35869Y-16062D01*
X35869Y-16221D01*
X35809Y-16161D01*
X34468Y-16161D01*
X34468Y-17069D01*
X34528Y-17129D01*
X35582Y-17129D01*
X35677Y-17129D01*
X35765Y-17092D01*
X35832Y-17025D01*
X35869Y-16937D01*
X35869Y-18228D01*
X35767Y-18228D01*
X35767Y-18122D01*
X35746Y-18071D01*
X35707Y-18032D01*
X35657Y-18011D01*
X35602Y-18011D01*
X34429Y-18011D01*
X34429Y-17069D01*
X34429Y-16161D01*
X34429Y-16122D01*
X34429Y-15214D01*
X34369Y-15154D01*
X33315Y-15154D01*
X33220Y-15154D01*
X33132Y-15190D01*
X33064Y-15258D01*
X33028Y-15346D01*
X33028Y-16062D01*
X33088Y-16122D01*
X34429Y-16122D01*
X34429Y-16161D01*
X33088Y-16161D01*
X33028Y-16221D01*
X33028Y-16937D01*
X33064Y-17025D01*
X33132Y-17092D01*
X33220Y-17129D01*
X33315Y-17129D01*
X34369Y-17129D01*
X34429Y-17069D01*
X34429Y-18011D01*
X33240Y-18011D01*
X33189Y-18032D01*
X33150Y-18071D01*
X33129Y-18122D01*
X33129Y-18177D01*
X33129Y-18228D01*
X32597Y-18228D01*
X32597Y-17536D01*
X32550Y-17420D01*
X32461Y-17332D01*
X32346Y-17284D01*
X32221Y-17284D01*
X32105Y-17331D01*
X32017Y-17420D01*
X31969Y-17535D01*
X31969Y-17660D01*
X32016Y-17776D01*
X32105Y-17864D01*
X32220Y-17912D01*
X32345Y-17912D01*
X32461Y-17865D01*
X32549Y-17776D01*
X32597Y-17661D01*
X32597Y-17536D01*
X32597Y-18228D01*
X31377Y-18228D01*
X31377Y-16707D01*
X33813Y-14271D01*
X35657Y-14271D01*
X35707Y-14250D01*
X35746Y-14211D01*
X35767Y-14161D01*
X35767Y-14106D01*
X35767Y-13425D01*
X36787Y-13425D01*
X39209Y-11003D01*
X41895Y-11003D01*
X42460Y-11569D01*
X42460Y-13317D01*
X42372Y-13405D01*
X42325Y-13520D01*
X42324Y-13644D01*
X42372Y-13759D01*
X42460Y-13847D01*
X42575Y-13895D01*
X42699Y-13895D01*
X42795Y-13856D01*
X42795Y-13920D01*
G54D10*
G36*
X43927Y-24242D02*
X43466Y-24242D01*
X43466Y-16456D01*
X43466Y-10314D01*
X43448Y-10223D01*
X43448Y-10223D01*
X43446Y-10221D01*
X43446Y-6431D01*
X43246Y-5945D01*
X42874Y-5574D01*
X42389Y-5372D01*
X41864Y-5372D01*
X41378Y-5572D01*
X41007Y-5943D01*
X40805Y-6429D01*
X40805Y-6954D01*
X41005Y-7439D01*
X41377Y-7811D01*
X41862Y-8013D01*
X42387Y-8013D01*
X42872Y-7813D01*
X43244Y-7441D01*
X43446Y-6956D01*
X43446Y-6431D01*
X43446Y-10221D01*
X43427Y-10193D01*
X43396Y-10146D01*
X39774Y-6524D01*
X39697Y-6473D01*
X39606Y-6455D01*
X37130Y-6455D01*
X37118Y-6427D01*
X36986Y-6295D01*
X36814Y-6223D01*
X36627Y-6223D01*
X36454Y-6294D01*
X36322Y-6426D01*
X36251Y-6599D01*
X36251Y-6785D01*
X36322Y-6958D01*
X36454Y-7090D01*
X36626Y-7162D01*
X36813Y-7162D01*
X36986Y-7091D01*
X37118Y-6959D01*
X37129Y-6930D01*
X39507Y-6930D01*
X42773Y-10196D01*
X39156Y-10196D01*
X38704Y-10649D01*
X36791Y-10649D01*
X36791Y-9251D01*
X36791Y-7586D01*
X36777Y-7518D01*
X36777Y-7518D01*
X36739Y-7461D01*
X36151Y-6873D01*
X36188Y-6786D01*
X36188Y-6600D01*
X36117Y-6428D01*
X35985Y-6296D01*
X35813Y-6225D01*
X35627Y-6225D01*
X35455Y-6296D01*
X35324Y-6427D01*
X35252Y-6599D01*
X35252Y-6785D01*
X35323Y-6957D01*
X35455Y-7089D01*
X35627Y-7160D01*
X35813Y-7160D01*
X35901Y-7124D01*
X36437Y-7659D01*
X36437Y-7840D01*
X36345Y-7748D01*
X36288Y-7710D01*
X36220Y-7696D01*
X34434Y-7696D01*
X34434Y-6599D01*
X34362Y-6427D01*
X34230Y-6295D01*
X34058Y-6223D01*
X33871Y-6223D01*
X33699Y-6294D01*
X33566Y-6426D01*
X33495Y-6599D01*
X33495Y-6785D01*
X33566Y-6958D01*
X33698Y-7090D01*
X33870Y-7162D01*
X34057Y-7162D01*
X34230Y-7091D01*
X34362Y-6959D01*
X34433Y-6786D01*
X34434Y-6599D01*
X34434Y-7696D01*
X34219Y-7696D01*
X33395Y-6873D01*
X33432Y-6786D01*
X33432Y-6600D01*
X33361Y-6428D01*
X33229Y-6296D01*
X33058Y-6225D01*
X32871Y-6225D01*
X32699Y-6296D01*
X32568Y-6427D01*
X32496Y-6599D01*
X32496Y-6785D01*
X32567Y-6957D01*
X32699Y-7089D01*
X32871Y-7160D01*
X33057Y-7160D01*
X33145Y-7124D01*
X33914Y-7893D01*
X31678Y-7893D01*
X31678Y-6599D01*
X31606Y-6427D01*
X31474Y-6295D01*
X31302Y-6223D01*
X31115Y-6223D01*
X30943Y-6294D01*
X30810Y-6426D01*
X30739Y-6599D01*
X30739Y-6785D01*
X30810Y-6958D01*
X30942Y-7090D01*
X31114Y-7162D01*
X31301Y-7162D01*
X31474Y-7091D01*
X31606Y-6959D01*
X31677Y-6786D01*
X31678Y-6599D01*
X31678Y-7893D01*
X31659Y-7893D01*
X30640Y-6873D01*
X30676Y-6786D01*
X30676Y-6600D01*
X30605Y-6428D01*
X30473Y-6296D01*
X30302Y-6225D01*
X30116Y-6225D01*
X29944Y-6296D01*
X29812Y-6427D01*
X29740Y-6599D01*
X29740Y-6785D01*
X29811Y-6957D01*
X29943Y-7089D01*
X30115Y-7160D01*
X30301Y-7160D01*
X30389Y-7124D01*
X31355Y-8090D01*
X29100Y-8090D01*
X28922Y-7911D01*
X28922Y-6599D01*
X28850Y-6427D01*
X28718Y-6295D01*
X28546Y-6223D01*
X28359Y-6223D01*
X28187Y-6294D01*
X28055Y-6426D01*
X27983Y-6599D01*
X27983Y-6785D01*
X28054Y-6958D01*
X28186Y-7090D01*
X28358Y-7162D01*
X28545Y-7162D01*
X28718Y-7091D01*
X28850Y-6959D01*
X28922Y-6786D01*
X28922Y-6599D01*
X28922Y-7911D01*
X27884Y-6873D01*
X27920Y-6786D01*
X27920Y-6600D01*
X27849Y-6428D01*
X27718Y-6296D01*
X27546Y-6225D01*
X27360Y-6225D01*
X27188Y-6296D01*
X27056Y-6427D01*
X26985Y-6599D01*
X26984Y-6785D01*
X27055Y-6957D01*
X27187Y-7089D01*
X27359Y-7160D01*
X27545Y-7160D01*
X27633Y-7124D01*
X28902Y-8392D01*
X28959Y-8431D01*
X29027Y-8444D01*
X35162Y-8444D01*
X35284Y-8566D01*
X35284Y-8768D01*
X35255Y-8780D01*
X35234Y-8800D01*
X35214Y-8780D01*
X35163Y-8759D01*
X35108Y-8759D01*
X34852Y-8759D01*
X34803Y-8779D01*
X30875Y-8779D01*
X30807Y-8711D01*
X30692Y-8663D01*
X30567Y-8663D01*
X30452Y-8711D01*
X30384Y-8779D01*
X28383Y-8779D01*
X28336Y-8760D01*
X28281Y-8760D01*
X28025Y-8760D01*
X27974Y-8781D01*
X27954Y-8801D01*
X27933Y-8781D01*
X27883Y-8760D01*
X27828Y-8760D01*
X27572Y-8760D01*
X27524Y-8779D01*
X23995Y-8779D01*
X23927Y-8793D01*
X23870Y-8831D01*
X23655Y-9046D01*
X23655Y-8323D01*
X23568Y-8113D01*
X23407Y-7951D01*
X23239Y-7882D01*
X23239Y-6916D01*
X23109Y-6601D01*
X22868Y-6359D01*
X22553Y-6228D01*
X22211Y-6228D01*
X21896Y-6358D01*
X21655Y-6600D01*
X21524Y-6915D01*
X21523Y-7256D01*
X21654Y-7571D01*
X21895Y-7813D01*
X22210Y-7944D01*
X22551Y-7944D01*
X22867Y-7814D01*
X23108Y-7573D01*
X23239Y-7258D01*
X23239Y-6916D01*
X23239Y-7882D01*
X23197Y-7864D01*
X22969Y-7864D01*
X22758Y-7951D01*
X22597Y-8112D01*
X22510Y-8322D01*
X22510Y-8550D01*
X22597Y-8760D01*
X22757Y-8922D01*
X22968Y-9009D01*
X23196Y-9009D01*
X23406Y-8922D01*
X23567Y-8761D01*
X23655Y-8551D01*
X23655Y-8323D01*
X23655Y-9046D01*
X23548Y-9153D01*
X21904Y-9153D01*
X21692Y-8941D01*
X21720Y-8873D01*
X21720Y-8701D01*
X21654Y-8542D01*
X21533Y-8420D01*
X21373Y-8354D01*
X21233Y-8354D01*
X21254Y-8333D01*
X21320Y-8173D01*
X21320Y-8000D01*
X21254Y-7840D01*
X21132Y-7718D01*
X20972Y-7651D01*
X20799Y-7651D01*
X20639Y-7717D01*
X20547Y-7810D01*
X20537Y-7785D01*
X20535Y-7782D01*
X20439Y-7757D01*
X20411Y-7785D01*
X20411Y-7729D01*
X20387Y-7634D01*
X20190Y-7552D01*
X19977Y-7551D01*
X19781Y-7632D01*
X19778Y-7634D01*
X19753Y-7729D01*
X20082Y-8058D01*
X20411Y-7729D01*
X20411Y-7785D01*
X20110Y-8086D01*
X20116Y-8092D01*
X20088Y-8120D01*
X20082Y-8114D01*
X20077Y-8120D01*
X20049Y-8092D01*
X20054Y-8086D01*
X19725Y-7757D01*
X19630Y-7782D01*
X19618Y-7810D01*
X19526Y-7718D01*
X19366Y-7651D01*
X19193Y-7651D01*
X19033Y-7717D01*
X18941Y-7810D01*
X18930Y-7785D01*
X18928Y-7782D01*
X18833Y-7757D01*
X18805Y-7785D01*
X18805Y-7729D01*
X18780Y-7634D01*
X18584Y-7552D01*
X18371Y-7551D01*
X18239Y-7605D01*
X18239Y-6916D01*
X18109Y-6601D01*
X17868Y-6359D01*
X17553Y-6228D01*
X17211Y-6228D01*
X16896Y-6358D01*
X16655Y-6600D01*
X16524Y-6915D01*
X16523Y-7256D01*
X16654Y-7571D01*
X16895Y-7813D01*
X17210Y-7944D01*
X17551Y-7944D01*
X17867Y-7814D01*
X18108Y-7573D01*
X18239Y-7258D01*
X18239Y-6916D01*
X18239Y-7605D01*
X18174Y-7632D01*
X18171Y-7634D01*
X18147Y-7729D01*
X18476Y-8058D01*
X18805Y-7729D01*
X18805Y-7785D01*
X18504Y-8086D01*
X18509Y-8092D01*
X18481Y-8120D01*
X18476Y-8114D01*
X18448Y-8142D01*
X18448Y-8086D01*
X18119Y-7757D01*
X18023Y-7782D01*
X17941Y-7978D01*
X17941Y-8191D01*
X18021Y-8388D01*
X18023Y-8391D01*
X18119Y-8415D01*
X18448Y-8086D01*
X18448Y-8142D01*
X18147Y-8443D01*
X18171Y-8539D01*
X18368Y-8621D01*
X18477Y-8621D01*
X18444Y-8700D01*
X18444Y-8873D01*
X18510Y-9032D01*
X18632Y-9154D01*
X18791Y-9220D01*
X18963Y-9220D01*
X19032Y-9192D01*
X20044Y-10204D01*
X20101Y-10242D01*
X20169Y-10255D01*
X24330Y-10255D01*
X24398Y-10242D01*
X24398Y-10242D01*
X24455Y-10204D01*
X24934Y-9725D01*
X27524Y-9725D01*
X27572Y-9744D01*
X27627Y-9744D01*
X27883Y-9744D01*
X27933Y-9723D01*
X27954Y-9703D01*
X27974Y-9723D01*
X28025Y-9744D01*
X28080Y-9744D01*
X28336Y-9744D01*
X28383Y-9725D01*
X28569Y-9725D01*
X29008Y-10164D01*
X29066Y-10203D01*
X29066Y-10203D01*
X29133Y-10216D01*
X33396Y-10216D01*
X33484Y-10304D01*
X33484Y-10304D01*
X33484Y-11821D01*
X33396Y-11909D01*
X33348Y-12024D01*
X33348Y-12148D01*
X33396Y-12263D01*
X33484Y-12351D01*
X33598Y-12399D01*
X33723Y-12399D01*
X33838Y-12351D01*
X33926Y-12264D01*
X33974Y-12149D01*
X33974Y-12024D01*
X33926Y-11909D01*
X33838Y-11821D01*
X33838Y-11821D01*
X33838Y-10304D01*
X33926Y-10216D01*
X33974Y-10101D01*
X33974Y-9977D01*
X33974Y-9977D01*
X34227Y-9724D01*
X34805Y-9724D01*
X34852Y-9743D01*
X34907Y-9743D01*
X35163Y-9743D01*
X35214Y-9722D01*
X35234Y-9702D01*
X35255Y-9722D01*
X35305Y-9743D01*
X35360Y-9743D01*
X35616Y-9743D01*
X35664Y-9724D01*
X36319Y-9724D01*
X36386Y-9710D01*
X36386Y-9710D01*
X36444Y-9672D01*
X36739Y-9377D01*
X36777Y-9319D01*
X36791Y-9251D01*
X36791Y-10649D01*
X35776Y-10649D01*
X35689Y-10561D01*
X35574Y-10514D01*
X35449Y-10513D01*
X35334Y-10561D01*
X35246Y-10649D01*
X35199Y-10764D01*
X35198Y-10888D01*
X35246Y-11003D01*
X35334Y-11091D01*
X35449Y-11139D01*
X35573Y-11139D01*
X35688Y-11092D01*
X35776Y-11004D01*
X35776Y-11003D01*
X38349Y-11003D01*
X36597Y-12755D01*
X35767Y-12755D01*
X35767Y-12610D01*
X35746Y-12559D01*
X35707Y-12520D01*
X35657Y-12500D01*
X35602Y-12500D01*
X33240Y-12500D01*
X33189Y-12520D01*
X33150Y-12559D01*
X33129Y-12610D01*
X33129Y-12665D01*
X33129Y-12755D01*
X29074Y-12755D01*
X29074Y-12610D01*
X29053Y-12559D01*
X29015Y-12520D01*
X28964Y-12500D01*
X28909Y-12500D01*
X27933Y-12500D01*
X27933Y-11721D01*
X27981Y-11673D01*
X28029Y-11558D01*
X28029Y-11434D01*
X27981Y-11319D01*
X27893Y-11231D01*
X27779Y-11183D01*
X27654Y-11183D01*
X27539Y-11230D01*
X27451Y-11318D01*
X27403Y-11433D01*
X27403Y-11558D01*
X27451Y-11673D01*
X27539Y-11761D01*
X27578Y-11777D01*
X27578Y-12500D01*
X26547Y-12500D01*
X26496Y-12520D01*
X26457Y-12559D01*
X26437Y-12610D01*
X26437Y-12665D01*
X26437Y-12755D01*
X22381Y-12755D01*
X22381Y-12610D01*
X22360Y-12559D01*
X22322Y-12520D01*
X22271Y-12500D01*
X22216Y-12500D01*
X19854Y-12500D01*
X19803Y-12520D01*
X19765Y-12559D01*
X19744Y-12610D01*
X19744Y-12665D01*
X19744Y-12755D01*
X17401Y-12755D01*
X17401Y-11670D01*
X17353Y-11554D01*
X17264Y-11465D01*
X17253Y-11461D01*
X17253Y-8323D01*
X17166Y-8113D01*
X17005Y-7951D01*
X16795Y-7864D01*
X16567Y-7864D01*
X16357Y-7951D01*
X16196Y-8112D01*
X16108Y-8322D01*
X16108Y-8550D01*
X16195Y-8760D01*
X16356Y-8922D01*
X16566Y-9009D01*
X16794Y-9009D01*
X17004Y-8922D01*
X17166Y-8761D01*
X17253Y-8551D01*
X17253Y-8323D01*
X17253Y-11461D01*
X17149Y-11417D01*
X17024Y-11417D01*
X14903Y-9296D01*
X14903Y-7194D01*
X14990Y-7107D01*
X15038Y-6991D01*
X15038Y-6866D01*
X14991Y-6751D01*
X14902Y-6662D01*
X14787Y-6614D01*
X14662Y-6614D01*
X14546Y-6662D01*
X14458Y-6750D01*
X14410Y-6866D01*
X14409Y-6991D01*
X14457Y-7106D01*
X14545Y-7195D01*
X14545Y-8868D01*
X14517Y-8799D01*
X14429Y-8711D01*
X14314Y-8663D01*
X14190Y-8663D01*
X14075Y-8711D01*
X13986Y-8798D01*
X13939Y-8913D01*
X13939Y-9038D01*
X13986Y-9153D01*
X14074Y-9241D01*
X14074Y-9241D01*
X14074Y-9763D01*
X14088Y-9831D01*
X14126Y-9889D01*
X15907Y-11670D01*
X15907Y-11794D01*
X15955Y-11909D01*
X16043Y-11997D01*
X16157Y-12045D01*
X16282Y-12045D01*
X16397Y-11997D01*
X16485Y-11909D01*
X16533Y-11794D01*
X16533Y-11670D01*
X16485Y-11555D01*
X16397Y-11467D01*
X16282Y-11419D01*
X16158Y-11419D01*
X16158Y-11419D01*
X14429Y-9690D01*
X14429Y-9241D01*
X14516Y-9153D01*
X14545Y-9084D01*
X14545Y-9370D01*
X14559Y-9438D01*
X14598Y-9496D01*
X16772Y-11670D01*
X16772Y-11794D01*
X16819Y-11910D01*
X16908Y-11998D01*
X17023Y-12046D01*
X17148Y-12046D01*
X17264Y-11998D01*
X17352Y-11910D01*
X17400Y-11795D01*
X17401Y-11670D01*
X17401Y-12755D01*
X15688Y-12755D01*
X15688Y-12610D01*
X15667Y-12559D01*
X15629Y-12520D01*
X15578Y-12500D01*
X15523Y-12500D01*
X13818Y-12500D01*
X13818Y-7637D01*
X9409Y-7637D01*
X9409Y-14208D01*
X9364Y-14098D01*
X9131Y-13865D01*
X8826Y-13738D01*
X8497Y-13738D01*
X8192Y-13864D01*
X8013Y-14043D01*
X8013Y-6431D01*
X7813Y-5945D01*
X7441Y-5574D01*
X6956Y-5372D01*
X6431Y-5372D01*
X5945Y-5572D01*
X5574Y-5943D01*
X5372Y-6429D01*
X5372Y-6954D01*
X5572Y-7439D01*
X5943Y-7811D01*
X6429Y-8013D01*
X6954Y-8013D01*
X7439Y-7813D01*
X7811Y-7441D01*
X8013Y-6956D01*
X8013Y-6431D01*
X8013Y-14043D01*
X7959Y-14097D01*
X7833Y-14401D01*
X7832Y-14730D01*
X7958Y-15035D01*
X8191Y-15268D01*
X8495Y-15395D01*
X8825Y-15395D01*
X9130Y-15269D01*
X9363Y-15036D01*
X9409Y-14925D01*
X9409Y-16551D01*
X11794Y-18937D01*
X13051Y-18937D01*
X13051Y-19673D01*
X13072Y-19723D01*
X13110Y-19762D01*
X13161Y-19783D01*
X13216Y-19783D01*
X15005Y-19783D01*
X16775Y-21553D01*
X16815Y-21580D01*
X16711Y-21623D01*
X16623Y-21711D01*
X16575Y-21826D01*
X16575Y-21952D01*
X16623Y-22067D01*
X16711Y-22156D01*
X16826Y-22204D01*
X16952Y-22204D01*
X17067Y-22156D01*
X17156Y-22068D01*
X17159Y-22060D01*
X17231Y-22060D01*
X17243Y-22088D01*
X17282Y-22127D01*
X17333Y-22148D01*
X17389Y-22148D01*
X17507Y-22148D01*
X17519Y-22144D01*
X17530Y-22148D01*
X17586Y-22148D01*
X17704Y-22148D01*
X17716Y-22144D01*
X17727Y-22148D01*
X17783Y-22148D01*
X17901Y-22148D01*
X17913Y-22144D01*
X17924Y-22148D01*
X17980Y-22148D01*
X18098Y-22148D01*
X18149Y-22127D01*
X18188Y-22088D01*
X18200Y-22060D01*
X30617Y-22060D01*
X30629Y-22088D01*
X30668Y-22127D01*
X30719Y-22148D01*
X30775Y-22148D01*
X30893Y-22148D01*
X30904Y-22144D01*
X30916Y-22148D01*
X30972Y-22148D01*
X31090Y-22148D01*
X31101Y-22144D01*
X31113Y-22148D01*
X31169Y-22148D01*
X31287Y-22148D01*
X31298Y-22144D01*
X31310Y-22148D01*
X31366Y-22148D01*
X31484Y-22148D01*
X31535Y-22127D01*
X31574Y-22088D01*
X31586Y-22060D01*
X31737Y-22060D01*
X31798Y-22101D01*
X31889Y-22119D01*
X36386Y-22119D01*
X36386Y-22119D01*
X36477Y-22101D01*
X36477Y-22101D01*
X36554Y-22049D01*
X37738Y-20865D01*
X37778Y-20865D01*
X37894Y-20817D01*
X37923Y-20788D01*
X39133Y-20788D01*
X39133Y-20788D01*
X39224Y-20770D01*
X39224Y-20770D01*
X39302Y-20719D01*
X43346Y-16674D01*
X43396Y-16624D01*
X43396Y-16624D01*
X43448Y-16547D01*
X43466Y-16456D01*
X43466Y-16456D01*
X43466Y-24242D01*
X43446Y-24242D01*
X43446Y-22179D01*
X43346Y-21936D01*
X43246Y-21693D01*
X42874Y-21322D01*
X42389Y-21120D01*
X41864Y-21120D01*
X41378Y-21320D01*
X41007Y-21691D01*
X40805Y-22177D01*
X40805Y-22702D01*
X41005Y-23187D01*
X41377Y-23559D01*
X41862Y-23761D01*
X42387Y-23761D01*
X42872Y-23561D01*
X43244Y-23189D01*
X43346Y-22945D01*
X43446Y-22704D01*
X43446Y-22179D01*
X43446Y-24242D01*
X43346Y-24242D01*
X8013Y-24242D01*
X8013Y-22179D01*
X7813Y-21693D01*
X7757Y-21638D01*
X7757Y-14402D01*
X7631Y-14098D01*
X7398Y-13865D01*
X7094Y-13738D01*
X6765Y-13738D01*
X6460Y-13864D01*
X6227Y-14097D01*
X6100Y-14401D01*
X6100Y-14730D01*
X6226Y-15035D01*
X6459Y-15268D01*
X6763Y-15395D01*
X7093Y-15395D01*
X7397Y-15269D01*
X7630Y-15036D01*
X7757Y-14732D01*
X7757Y-14402D01*
X7757Y-21638D01*
X7441Y-21322D01*
X6956Y-21120D01*
X6431Y-21120D01*
X6188Y-21220D01*
X6188Y-18859D01*
X6188Y-18591D01*
X6188Y-18432D01*
X6188Y-18164D01*
X6152Y-18076D01*
X6085Y-18008D01*
X5997Y-17972D01*
X5901Y-17972D01*
X5729Y-17972D01*
X5669Y-18032D01*
X5669Y-18492D01*
X6129Y-18492D01*
X6188Y-18432D01*
X6188Y-18591D01*
X6129Y-18531D01*
X5669Y-18531D01*
X5669Y-18991D01*
X5729Y-19051D01*
X5901Y-19051D01*
X5997Y-19051D01*
X6085Y-19014D01*
X6152Y-18947D01*
X6188Y-18859D01*
X6188Y-21220D01*
X6089Y-21261D01*
X6089Y-19424D01*
X6022Y-19263D01*
X5898Y-19139D01*
X5737Y-19072D01*
X5629Y-19072D01*
X5629Y-18991D01*
X5629Y-18531D01*
X5629Y-18492D01*
X5629Y-18032D01*
X5570Y-17972D01*
X5397Y-17972D01*
X5301Y-17972D01*
X5214Y-18008D01*
X5146Y-18076D01*
X5110Y-18164D01*
X5110Y-18432D01*
X5170Y-18492D01*
X5629Y-18492D01*
X5629Y-18531D01*
X5170Y-18531D01*
X5110Y-18591D01*
X5110Y-18859D01*
X5146Y-18947D01*
X5214Y-19014D01*
X5301Y-19051D01*
X5397Y-19051D01*
X5570Y-19051D01*
X5629Y-18991D01*
X5629Y-19072D01*
X5562Y-19072D01*
X5401Y-19139D01*
X5277Y-19262D01*
X5210Y-19424D01*
X5210Y-19598D01*
X5276Y-19760D01*
X5400Y-19884D01*
X5561Y-19951D01*
X5736Y-19951D01*
X5898Y-19884D01*
X6021Y-19761D01*
X6088Y-19599D01*
X6089Y-19424D01*
X6089Y-21261D01*
X5945Y-21320D01*
X5574Y-21691D01*
X5372Y-22177D01*
X5372Y-22702D01*
X5572Y-23187D01*
X5943Y-23559D01*
X6429Y-23761D01*
X6954Y-23761D01*
X7439Y-23561D01*
X7811Y-23189D01*
X8013Y-22704D01*
X8013Y-22179D01*
X8013Y-24242D01*
X4891Y-24242D01*
X4891Y-4891D01*
X43927Y-4891D01*
X43927Y-24242D01*
X43927Y-24242D01*
G37*
G54D25*
X43927Y-24242D02*
X43466Y-24242D01*
X43466Y-16456D01*
X43466Y-10314D01*
X43448Y-10223D01*
X43448Y-10223D01*
X43446Y-10221D01*
X43446Y-6431D01*
X43246Y-5945D01*
X42874Y-5574D01*
X42389Y-5372D01*
X41864Y-5372D01*
X41378Y-5572D01*
X41007Y-5943D01*
X40805Y-6429D01*
X40805Y-6954D01*
X41005Y-7439D01*
X41377Y-7811D01*
X41862Y-8013D01*
X42387Y-8013D01*
X42872Y-7813D01*
X43244Y-7441D01*
X43446Y-6956D01*
X43446Y-6431D01*
X43446Y-10221D01*
X43427Y-10193D01*
X43396Y-10146D01*
X39774Y-6524D01*
X39697Y-6473D01*
X39606Y-6455D01*
X37130Y-6455D01*
X37118Y-6427D01*
X36986Y-6295D01*
X36814Y-6223D01*
X36627Y-6223D01*
X36454Y-6294D01*
X36322Y-6426D01*
X36251Y-6599D01*
X36251Y-6785D01*
X36322Y-6958D01*
X36454Y-7090D01*
X36626Y-7162D01*
X36813Y-7162D01*
X36986Y-7091D01*
X37118Y-6959D01*
X37129Y-6930D01*
X39507Y-6930D01*
X42773Y-10196D01*
X39156Y-10196D01*
X38704Y-10649D01*
X36791Y-10649D01*
X36791Y-9251D01*
X36791Y-7586D01*
X36777Y-7518D01*
X36777Y-7518D01*
X36739Y-7461D01*
X36151Y-6873D01*
X36188Y-6786D01*
X36188Y-6600D01*
X36117Y-6428D01*
X35985Y-6296D01*
X35813Y-6225D01*
X35627Y-6225D01*
X35455Y-6296D01*
X35324Y-6427D01*
X35252Y-6599D01*
X35252Y-6785D01*
X35323Y-6957D01*
X35455Y-7089D01*
X35627Y-7160D01*
X35813Y-7160D01*
X35901Y-7124D01*
X36437Y-7659D01*
X36437Y-7840D01*
X36345Y-7748D01*
X36288Y-7710D01*
X36220Y-7696D01*
X34434Y-7696D01*
X34434Y-6599D01*
X34362Y-6427D01*
X34230Y-6295D01*
X34058Y-6223D01*
X33871Y-6223D01*
X33699Y-6294D01*
X33566Y-6426D01*
X33495Y-6599D01*
X33495Y-6785D01*
X33566Y-6958D01*
X33698Y-7090D01*
X33870Y-7162D01*
X34057Y-7162D01*
X34230Y-7091D01*
X34362Y-6959D01*
X34433Y-6786D01*
X34434Y-6599D01*
X34434Y-7696D01*
X34219Y-7696D01*
X33395Y-6873D01*
X33432Y-6786D01*
X33432Y-6600D01*
X33361Y-6428D01*
X33229Y-6296D01*
X33058Y-6225D01*
X32871Y-6225D01*
X32699Y-6296D01*
X32568Y-6427D01*
X32496Y-6599D01*
X32496Y-6785D01*
X32567Y-6957D01*
X32699Y-7089D01*
X32871Y-7160D01*
X33057Y-7160D01*
X33145Y-7124D01*
X33914Y-7893D01*
X31678Y-7893D01*
X31678Y-6599D01*
X31606Y-6427D01*
X31474Y-6295D01*
X31302Y-6223D01*
X31115Y-6223D01*
X30943Y-6294D01*
X30810Y-6426D01*
X30739Y-6599D01*
X30739Y-6785D01*
X30810Y-6958D01*
X30942Y-7090D01*
X31114Y-7162D01*
X31301Y-7162D01*
X31474Y-7091D01*
X31606Y-6959D01*
X31677Y-6786D01*
X31678Y-6599D01*
X31678Y-7893D01*
X31659Y-7893D01*
X30640Y-6873D01*
X30676Y-6786D01*
X30676Y-6600D01*
X30605Y-6428D01*
X30473Y-6296D01*
X30302Y-6225D01*
X30116Y-6225D01*
X29944Y-6296D01*
X29812Y-6427D01*
X29740Y-6599D01*
X29740Y-6785D01*
X29811Y-6957D01*
X29943Y-7089D01*
X30115Y-7160D01*
X30301Y-7160D01*
X30389Y-7124D01*
X31355Y-8090D01*
X29100Y-8090D01*
X28922Y-7911D01*
X28922Y-6599D01*
X28850Y-6427D01*
X28718Y-6295D01*
X28546Y-6223D01*
X28359Y-6223D01*
X28187Y-6294D01*
X28055Y-6426D01*
X27983Y-6599D01*
X27983Y-6785D01*
X28054Y-6958D01*
X28186Y-7090D01*
X28358Y-7162D01*
X28545Y-7162D01*
X28718Y-7091D01*
X28850Y-6959D01*
X28922Y-6786D01*
X28922Y-6599D01*
X28922Y-7911D01*
X27884Y-6873D01*
X27920Y-6786D01*
X27920Y-6600D01*
X27849Y-6428D01*
X27718Y-6296D01*
X27546Y-6225D01*
X27360Y-6225D01*
X27188Y-6296D01*
X27056Y-6427D01*
X26985Y-6599D01*
X26984Y-6785D01*
X27055Y-6957D01*
X27187Y-7089D01*
X27359Y-7160D01*
X27545Y-7160D01*
X27633Y-7124D01*
X28902Y-8392D01*
X28959Y-8431D01*
X29027Y-8444D01*
X35162Y-8444D01*
X35284Y-8566D01*
X35284Y-8768D01*
X35255Y-8780D01*
X35234Y-8800D01*
X35214Y-8780D01*
X35163Y-8759D01*
X35108Y-8759D01*
X34852Y-8759D01*
X34803Y-8779D01*
X30875Y-8779D01*
X30807Y-8711D01*
X30692Y-8663D01*
X30567Y-8663D01*
X30452Y-8711D01*
X30384Y-8779D01*
X28383Y-8779D01*
X28336Y-8760D01*
X28281Y-8760D01*
X28025Y-8760D01*
X27974Y-8781D01*
X27954Y-8801D01*
X27933Y-8781D01*
X27883Y-8760D01*
X27828Y-8760D01*
X27572Y-8760D01*
X27524Y-8779D01*
X23995Y-8779D01*
X23927Y-8793D01*
X23870Y-8831D01*
X23655Y-9046D01*
X23655Y-8323D01*
X23568Y-8113D01*
X23407Y-7951D01*
X23239Y-7882D01*
X23239Y-6916D01*
X23109Y-6601D01*
X22868Y-6359D01*
X22553Y-6228D01*
X22211Y-6228D01*
X21896Y-6358D01*
X21655Y-6600D01*
X21524Y-6915D01*
X21523Y-7256D01*
X21654Y-7571D01*
X21895Y-7813D01*
X22210Y-7944D01*
X22551Y-7944D01*
X22867Y-7814D01*
X23108Y-7573D01*
X23239Y-7258D01*
X23239Y-6916D01*
X23239Y-7882D01*
X23197Y-7864D01*
X22969Y-7864D01*
X22758Y-7951D01*
X22597Y-8112D01*
X22510Y-8322D01*
X22510Y-8550D01*
X22597Y-8760D01*
X22757Y-8922D01*
X22968Y-9009D01*
X23196Y-9009D01*
X23406Y-8922D01*
X23567Y-8761D01*
X23655Y-8551D01*
X23655Y-8323D01*
X23655Y-9046D01*
X23548Y-9153D01*
X21904Y-9153D01*
X21692Y-8941D01*
X21720Y-8873D01*
X21720Y-8701D01*
X21654Y-8542D01*
X21533Y-8420D01*
X21373Y-8354D01*
X21233Y-8354D01*
X21254Y-8333D01*
X21320Y-8173D01*
X21320Y-8000D01*
X21254Y-7840D01*
X21132Y-7718D01*
X20972Y-7651D01*
X20799Y-7651D01*
X20639Y-7717D01*
X20547Y-7810D01*
X20537Y-7785D01*
X20535Y-7782D01*
X20439Y-7757D01*
X20411Y-7785D01*
X20411Y-7729D01*
X20387Y-7634D01*
X20190Y-7552D01*
X19977Y-7551D01*
X19781Y-7632D01*
X19778Y-7634D01*
X19753Y-7729D01*
X20082Y-8058D01*
X20411Y-7729D01*
X20411Y-7785D01*
X20110Y-8086D01*
X20116Y-8092D01*
X20088Y-8120D01*
X20082Y-8114D01*
X20077Y-8120D01*
X20049Y-8092D01*
X20054Y-8086D01*
X19725Y-7757D01*
X19630Y-7782D01*
X19618Y-7810D01*
X19526Y-7718D01*
X19366Y-7651D01*
X19193Y-7651D01*
X19033Y-7717D01*
X18941Y-7810D01*
X18930Y-7785D01*
X18928Y-7782D01*
X18833Y-7757D01*
X18805Y-7785D01*
X18805Y-7729D01*
X18780Y-7634D01*
X18584Y-7552D01*
X18371Y-7551D01*
X18239Y-7605D01*
X18239Y-6916D01*
X18109Y-6601D01*
X17868Y-6359D01*
X17553Y-6228D01*
X17211Y-6228D01*
X16896Y-6358D01*
X16655Y-6600D01*
X16524Y-6915D01*
X16523Y-7256D01*
X16654Y-7571D01*
X16895Y-7813D01*
X17210Y-7944D01*
X17551Y-7944D01*
X17867Y-7814D01*
X18108Y-7573D01*
X18239Y-7258D01*
X18239Y-6916D01*
X18239Y-7605D01*
X18174Y-7632D01*
X18171Y-7634D01*
X18147Y-7729D01*
X18476Y-8058D01*
X18805Y-7729D01*
X18805Y-7785D01*
X18504Y-8086D01*
X18509Y-8092D01*
X18481Y-8120D01*
X18476Y-8114D01*
X18448Y-8142D01*
X18448Y-8086D01*
X18119Y-7757D01*
X18023Y-7782D01*
X17941Y-7978D01*
X17941Y-8191D01*
X18021Y-8388D01*
X18023Y-8391D01*
X18119Y-8415D01*
X18448Y-8086D01*
X18448Y-8142D01*
X18147Y-8443D01*
X18171Y-8539D01*
X18368Y-8621D01*
X18477Y-8621D01*
X18444Y-8700D01*
X18444Y-8873D01*
X18510Y-9032D01*
X18632Y-9154D01*
X18791Y-9220D01*
X18963Y-9220D01*
X19032Y-9192D01*
X20044Y-10204D01*
X20101Y-10242D01*
X20169Y-10255D01*
X24330Y-10255D01*
X24398Y-10242D01*
X24398Y-10242D01*
X24455Y-10204D01*
X24934Y-9725D01*
X27524Y-9725D01*
X27572Y-9744D01*
X27627Y-9744D01*
X27883Y-9744D01*
X27933Y-9723D01*
X27954Y-9703D01*
X27974Y-9723D01*
X28025Y-9744D01*
X28080Y-9744D01*
X28336Y-9744D01*
X28383Y-9725D01*
X28569Y-9725D01*
X29008Y-10164D01*
X29066Y-10203D01*
X29066Y-10203D01*
X29133Y-10216D01*
X33396Y-10216D01*
X33484Y-10304D01*
X33484Y-10304D01*
X33484Y-11821D01*
X33396Y-11909D01*
X33348Y-12024D01*
X33348Y-12148D01*
X33396Y-12263D01*
X33484Y-12351D01*
X33598Y-12399D01*
X33723Y-12399D01*
X33838Y-12351D01*
X33926Y-12264D01*
X33974Y-12149D01*
X33974Y-12024D01*
X33926Y-11909D01*
X33838Y-11821D01*
X33838Y-11821D01*
X33838Y-10304D01*
X33926Y-10216D01*
X33974Y-10101D01*
X33974Y-9977D01*
X33974Y-9977D01*
X34227Y-9724D01*
X34805Y-9724D01*
X34852Y-9743D01*
X34907Y-9743D01*
X35163Y-9743D01*
X35214Y-9722D01*
X35234Y-9702D01*
X35255Y-9722D01*
X35305Y-9743D01*
X35360Y-9743D01*
X35616Y-9743D01*
X35664Y-9724D01*
X36319Y-9724D01*
X36386Y-9710D01*
X36386Y-9710D01*
X36444Y-9672D01*
X36739Y-9377D01*
X36777Y-9319D01*
X36791Y-9251D01*
X36791Y-10649D01*
X35776Y-10649D01*
X35689Y-10561D01*
X35574Y-10514D01*
X35449Y-10513D01*
X35334Y-10561D01*
X35246Y-10649D01*
X35199Y-10764D01*
X35198Y-10888D01*
X35246Y-11003D01*
X35334Y-11091D01*
X35449Y-11139D01*
X35573Y-11139D01*
X35688Y-11092D01*
X35776Y-11004D01*
X35776Y-11003D01*
X38349Y-11003D01*
X36597Y-12755D01*
X35767Y-12755D01*
X35767Y-12610D01*
X35746Y-12559D01*
X35707Y-12520D01*
X35657Y-12500D01*
X35602Y-12500D01*
X33240Y-12500D01*
X33189Y-12520D01*
X33150Y-12559D01*
X33129Y-12610D01*
X33129Y-12665D01*
X33129Y-12755D01*
X29074Y-12755D01*
X29074Y-12610D01*
X29053Y-12559D01*
X29015Y-12520D01*
X28964Y-12500D01*
X28909Y-12500D01*
X27933Y-12500D01*
X27933Y-11721D01*
X27981Y-11673D01*
X28029Y-11558D01*
X28029Y-11434D01*
X27981Y-11319D01*
X27893Y-11231D01*
X27779Y-11183D01*
X27654Y-11183D01*
X27539Y-11230D01*
X27451Y-11318D01*
X27403Y-11433D01*
X27403Y-11558D01*
X27451Y-11673D01*
X27539Y-11761D01*
X27578Y-11777D01*
X27578Y-12500D01*
X26547Y-12500D01*
X26496Y-12520D01*
X26457Y-12559D01*
X26437Y-12610D01*
X26437Y-12665D01*
X26437Y-12755D01*
X22381Y-12755D01*
X22381Y-12610D01*
X22360Y-12559D01*
X22322Y-12520D01*
X22271Y-12500D01*
X22216Y-12500D01*
X19854Y-12500D01*
X19803Y-12520D01*
X19765Y-12559D01*
X19744Y-12610D01*
X19744Y-12665D01*
X19744Y-12755D01*
X17401Y-12755D01*
X17401Y-11670D01*
X17353Y-11554D01*
X17264Y-11465D01*
X17253Y-11461D01*
X17253Y-8323D01*
X17166Y-8113D01*
X17005Y-7951D01*
X16795Y-7864D01*
X16567Y-7864D01*
X16357Y-7951D01*
X16196Y-8112D01*
X16108Y-8322D01*
X16108Y-8550D01*
X16195Y-8760D01*
X16356Y-8922D01*
X16566Y-9009D01*
X16794Y-9009D01*
X17004Y-8922D01*
X17166Y-8761D01*
X17253Y-8551D01*
X17253Y-8323D01*
X17253Y-11461D01*
X17149Y-11417D01*
X17024Y-11417D01*
X14903Y-9296D01*
X14903Y-7194D01*
X14990Y-7107D01*
X15038Y-6991D01*
X15038Y-6866D01*
X14991Y-6751D01*
X14902Y-6662D01*
X14787Y-6614D01*
X14662Y-6614D01*
X14546Y-6662D01*
X14458Y-6750D01*
X14410Y-6866D01*
X14409Y-6991D01*
X14457Y-7106D01*
X14545Y-7195D01*
X14545Y-8868D01*
X14517Y-8799D01*
X14429Y-8711D01*
X14314Y-8663D01*
X14190Y-8663D01*
X14075Y-8711D01*
X13986Y-8798D01*
X13939Y-8913D01*
X13939Y-9038D01*
X13986Y-9153D01*
X14074Y-9241D01*
X14074Y-9241D01*
X14074Y-9763D01*
X14088Y-9831D01*
X14126Y-9889D01*
X15907Y-11670D01*
X15907Y-11794D01*
X15955Y-11909D01*
X16043Y-11997D01*
X16157Y-12045D01*
X16282Y-12045D01*
X16397Y-11997D01*
X16485Y-11909D01*
X16533Y-11794D01*
X16533Y-11670D01*
X16485Y-11555D01*
X16397Y-11467D01*
X16282Y-11419D01*
X16158Y-11419D01*
X16158Y-11419D01*
X14429Y-9690D01*
X14429Y-9241D01*
X14516Y-9153D01*
X14545Y-9084D01*
X14545Y-9370D01*
X14559Y-9438D01*
X14598Y-9496D01*
X16772Y-11670D01*
X16772Y-11794D01*
X16819Y-11910D01*
X16908Y-11998D01*
X17023Y-12046D01*
X17148Y-12046D01*
X17264Y-11998D01*
X17352Y-11910D01*
X17400Y-11795D01*
X17401Y-11670D01*
X17401Y-12755D01*
X15688Y-12755D01*
X15688Y-12610D01*
X15667Y-12559D01*
X15629Y-12520D01*
X15578Y-12500D01*
X15523Y-12500D01*
X13818Y-12500D01*
X13818Y-7637D01*
X9409Y-7637D01*
X9409Y-14208D01*
X9364Y-14098D01*
X9131Y-13865D01*
X8826Y-13738D01*
X8497Y-13738D01*
X8192Y-13864D01*
X8013Y-14043D01*
X8013Y-6431D01*
X7813Y-5945D01*
X7441Y-5574D01*
X6956Y-5372D01*
X6431Y-5372D01*
X5945Y-5572D01*
X5574Y-5943D01*
X5372Y-6429D01*
X5372Y-6954D01*
X5572Y-7439D01*
X5943Y-7811D01*
X6429Y-8013D01*
X6954Y-8013D01*
X7439Y-7813D01*
X7811Y-7441D01*
X8013Y-6956D01*
X8013Y-6431D01*
X8013Y-14043D01*
X7959Y-14097D01*
X7833Y-14401D01*
X7832Y-14730D01*
X7958Y-15035D01*
X8191Y-15268D01*
X8495Y-15395D01*
X8825Y-15395D01*
X9130Y-15269D01*
X9363Y-15036D01*
X9409Y-14925D01*
X9409Y-16551D01*
X11794Y-18937D01*
X13051Y-18937D01*
X13051Y-19673D01*
X13072Y-19723D01*
X13110Y-19762D01*
X13161Y-19783D01*
X13216Y-19783D01*
X15005Y-19783D01*
X16775Y-21553D01*
X16815Y-21580D01*
X16711Y-21623D01*
X16623Y-21711D01*
X16575Y-21826D01*
X16575Y-21952D01*
X16623Y-22067D01*
X16711Y-22156D01*
X16826Y-22204D01*
X16952Y-22204D01*
X17067Y-22156D01*
X17156Y-22068D01*
X17159Y-22060D01*
X17231Y-22060D01*
X17243Y-22088D01*
X17282Y-22127D01*
X17333Y-22148D01*
X17389Y-22148D01*
X17507Y-22148D01*
X17519Y-22144D01*
X17530Y-22148D01*
X17586Y-22148D01*
X17704Y-22148D01*
X17716Y-22144D01*
X17727Y-22148D01*
X17783Y-22148D01*
X17901Y-22148D01*
X17913Y-22144D01*
X17924Y-22148D01*
X17980Y-22148D01*
X18098Y-22148D01*
X18149Y-22127D01*
X18188Y-22088D01*
X18200Y-22060D01*
X30617Y-22060D01*
X30629Y-22088D01*
X30668Y-22127D01*
X30719Y-22148D01*
X30775Y-22148D01*
X30893Y-22148D01*
X30904Y-22144D01*
X30916Y-22148D01*
X30972Y-22148D01*
X31090Y-22148D01*
X31101Y-22144D01*
X31113Y-22148D01*
X31169Y-22148D01*
X31287Y-22148D01*
X31298Y-22144D01*
X31310Y-22148D01*
X31366Y-22148D01*
X31484Y-22148D01*
X31535Y-22127D01*
X31574Y-22088D01*
X31586Y-22060D01*
X31737Y-22060D01*
X31798Y-22101D01*
X31889Y-22119D01*
X36386Y-22119D01*
X36386Y-22119D01*
X36477Y-22101D01*
X36477Y-22101D01*
X36554Y-22049D01*
X37738Y-20865D01*
X37778Y-20865D01*
X37894Y-20817D01*
X37923Y-20788D01*
X39133Y-20788D01*
X39133Y-20788D01*
X39224Y-20770D01*
X39224Y-20770D01*
X39302Y-20719D01*
X43346Y-16674D01*
X43396Y-16624D01*
X43396Y-16624D01*
X43448Y-16547D01*
X43466Y-16456D01*
X43466Y-16456D01*
X43466Y-24242D01*
X43446Y-24242D01*
X43446Y-22179D01*
X43346Y-21936D01*
X43246Y-21693D01*
X42874Y-21322D01*
X42389Y-21120D01*
X41864Y-21120D01*
X41378Y-21320D01*
X41007Y-21691D01*
X40805Y-22177D01*
X40805Y-22702D01*
X41005Y-23187D01*
X41377Y-23559D01*
X41862Y-23761D01*
X42387Y-23761D01*
X42872Y-23561D01*
X43244Y-23189D01*
X43346Y-22945D01*
X43446Y-22704D01*
X43446Y-22179D01*
X43446Y-24242D01*
X43346Y-24242D01*
X8013Y-24242D01*
X8013Y-22179D01*
X7813Y-21693D01*
X7757Y-21638D01*
X7757Y-14402D01*
X7631Y-14098D01*
X7398Y-13865D01*
X7094Y-13738D01*
X6765Y-13738D01*
X6460Y-13864D01*
X6227Y-14097D01*
X6100Y-14401D01*
X6100Y-14730D01*
X6226Y-15035D01*
X6459Y-15268D01*
X6763Y-15395D01*
X7093Y-15395D01*
X7397Y-15269D01*
X7630Y-15036D01*
X7757Y-14732D01*
X7757Y-14402D01*
X7757Y-21638D01*
X7441Y-21322D01*
X6956Y-21120D01*
X6431Y-21120D01*
X6188Y-21220D01*
X6188Y-18859D01*
X6188Y-18591D01*
X6188Y-18432D01*
X6188Y-18164D01*
X6152Y-18076D01*
X6085Y-18008D01*
X5997Y-17972D01*
X5901Y-17972D01*
X5729Y-17972D01*
X5669Y-18032D01*
X5669Y-18492D01*
X6129Y-18492D01*
X6188Y-18432D01*
X6188Y-18591D01*
X6129Y-18531D01*
X5669Y-18531D01*
X5669Y-18991D01*
X5729Y-19051D01*
X5901Y-19051D01*
X5997Y-19051D01*
X6085Y-19014D01*
X6152Y-18947D01*
X6188Y-18859D01*
X6188Y-21220D01*
X6089Y-21261D01*
X6089Y-19424D01*
X6022Y-19263D01*
X5898Y-19139D01*
X5737Y-19072D01*
X5629Y-19072D01*
X5629Y-18991D01*
X5629Y-18531D01*
X5629Y-18492D01*
X5629Y-18032D01*
X5570Y-17972D01*
X5397Y-17972D01*
X5301Y-17972D01*
X5214Y-18008D01*
X5146Y-18076D01*
X5110Y-18164D01*
X5110Y-18432D01*
X5170Y-18492D01*
X5629Y-18492D01*
X5629Y-18531D01*
X5170Y-18531D01*
X5110Y-18591D01*
X5110Y-18859D01*
X5146Y-18947D01*
X5214Y-19014D01*
X5301Y-19051D01*
X5397Y-19051D01*
X5570Y-19051D01*
X5629Y-18991D01*
X5629Y-19072D01*
X5562Y-19072D01*
X5401Y-19139D01*
X5277Y-19262D01*
X5210Y-19424D01*
X5210Y-19598D01*
X5276Y-19760D01*
X5400Y-19884D01*
X5561Y-19951D01*
X5736Y-19951D01*
X5898Y-19884D01*
X6021Y-19761D01*
X6088Y-19599D01*
X6089Y-19424D01*
X6089Y-21261D01*
X5945Y-21320D01*
X5574Y-21691D01*
X5372Y-22177D01*
X5372Y-22702D01*
X5572Y-23187D01*
X5943Y-23559D01*
X6429Y-23761D01*
X6954Y-23761D01*
X7439Y-23561D01*
X7811Y-23189D01*
X8013Y-22704D01*
X8013Y-22179D01*
X8013Y-24242D01*
X4891Y-24242D01*
X4891Y-4891D01*
X43927Y-4891D01*
X43927Y-24242D01*
M02*
