G04 (created by PCBNEW (2013-mar-13)-testing) date Thu 26 Sep 2013 17:04:14 BST*
%MOIN*%
G04 Gerber Fmt 3.4, Leading zero omitted, Abs format*
%FSLAX34Y34*%
G01*
G70*
G90*
G04 APERTURE LIST*
%ADD10C,0.005906*%
%ADD11C,0.011811*%
%ADD12C,0.009800*%
%ADD13C,0.012000*%
%ADD14C,0.075843*%
%ADD15R,0.246063X0.159449*%
%ADD16R,0.021643X0.035443*%
%ADD17R,0.035443X0.021643*%
%ADD18C,0.246063*%
%ADD19C,0.153543*%
%ADD20C,0.068943*%
%ADD21C,0.096457*%
%ADD22C,0.147638*%
%ADD23R,0.069843X0.069843*%
%ADD24C,0.069843*%
G04 APERTURE END LIST*
G54D10*
G54D11*
X45587Y-11808D02*
X45672Y-11836D01*
X45700Y-11864D01*
X45728Y-11920D01*
X45728Y-12005D01*
X45700Y-12061D01*
X45672Y-12089D01*
X45615Y-12117D01*
X45390Y-12117D01*
X45390Y-11526D01*
X45587Y-11526D01*
X45643Y-11555D01*
X45672Y-11583D01*
X45700Y-11639D01*
X45700Y-11695D01*
X45672Y-11751D01*
X45643Y-11780D01*
X45587Y-11808D01*
X45390Y-11808D01*
X45981Y-12061D02*
X46009Y-12089D01*
X45981Y-12117D01*
X45953Y-12089D01*
X45981Y-12061D01*
X45981Y-12117D01*
X46684Y-12089D02*
X46768Y-12117D01*
X46909Y-12117D01*
X46965Y-12089D01*
X46993Y-12061D01*
X47021Y-12005D01*
X47021Y-11948D01*
X46993Y-11892D01*
X46965Y-11864D01*
X46909Y-11836D01*
X46796Y-11808D01*
X46740Y-11780D01*
X46712Y-11751D01*
X46684Y-11695D01*
X46684Y-11639D01*
X46712Y-11583D01*
X46740Y-11555D01*
X46796Y-11526D01*
X46937Y-11526D01*
X47021Y-11555D01*
X47275Y-12117D02*
X47275Y-11723D01*
X47275Y-11526D02*
X47246Y-11555D01*
X47275Y-11583D01*
X47303Y-11555D01*
X47275Y-11526D01*
X47275Y-11583D01*
X47640Y-12117D02*
X47584Y-12089D01*
X47556Y-12033D01*
X47556Y-11526D01*
X47865Y-12117D02*
X47865Y-11526D01*
X47921Y-11892D02*
X48090Y-12117D01*
X48090Y-11723D02*
X47865Y-11948D01*
X48315Y-12089D02*
X48399Y-12117D01*
X48540Y-12117D01*
X48596Y-12089D01*
X48624Y-12061D01*
X48652Y-12005D01*
X48652Y-11948D01*
X48624Y-11892D01*
X48596Y-11864D01*
X48540Y-11836D01*
X48428Y-11808D01*
X48371Y-11780D01*
X48343Y-11751D01*
X48315Y-11695D01*
X48315Y-11639D01*
X48343Y-11583D01*
X48371Y-11555D01*
X48428Y-11526D01*
X48568Y-11526D01*
X48652Y-11555D01*
G54D12*
X18251Y-21149D02*
X18251Y-22184D01*
X18251Y-22184D02*
X17196Y-22184D01*
X17196Y-22184D02*
X17196Y-21157D01*
X17200Y-21141D02*
X18251Y-21141D01*
X31637Y-21149D02*
X31637Y-22184D01*
X31637Y-22184D02*
X30582Y-22184D01*
X30582Y-22184D02*
X30582Y-21157D01*
X30586Y-21141D02*
X31637Y-21141D01*
X35740Y-9786D02*
X34705Y-9786D01*
X34705Y-9786D02*
X34705Y-8731D01*
X34705Y-8731D02*
X35732Y-8731D01*
X35748Y-8735D02*
X35748Y-9786D01*
X27448Y-8716D02*
X28483Y-8716D01*
X28483Y-8716D02*
X28483Y-9771D01*
X28483Y-9771D02*
X27456Y-9771D01*
X27440Y-9767D02*
X27440Y-8716D01*
G54D13*
X18193Y-20163D02*
X18193Y-20649D01*
X18165Y-20706D01*
X18136Y-20735D01*
X18079Y-20763D01*
X17965Y-20763D01*
X17907Y-20735D01*
X17879Y-20706D01*
X17850Y-20649D01*
X17850Y-20163D01*
X17279Y-20163D02*
X17565Y-20163D01*
X17593Y-20449D01*
X17565Y-20421D01*
X17507Y-20392D01*
X17365Y-20392D01*
X17307Y-20421D01*
X17279Y-20449D01*
X17250Y-20506D01*
X17250Y-20649D01*
X17279Y-20706D01*
X17307Y-20735D01*
X17365Y-20763D01*
X17507Y-20763D01*
X17565Y-20735D01*
X17593Y-20706D01*
X31579Y-20163D02*
X31579Y-20649D01*
X31550Y-20706D01*
X31522Y-20735D01*
X31465Y-20763D01*
X31350Y-20763D01*
X31293Y-20735D01*
X31265Y-20706D01*
X31236Y-20649D01*
X31236Y-20163D01*
X30693Y-20363D02*
X30693Y-20763D01*
X30836Y-20135D02*
X30979Y-20563D01*
X30608Y-20563D01*
X36068Y-8814D02*
X36554Y-8814D01*
X36611Y-8843D01*
X36640Y-8871D01*
X36668Y-8929D01*
X36668Y-9043D01*
X36640Y-9100D01*
X36611Y-9129D01*
X36554Y-9157D01*
X36068Y-9157D01*
X36068Y-9386D02*
X36068Y-9757D01*
X36297Y-9557D01*
X36297Y-9643D01*
X36325Y-9700D01*
X36354Y-9729D01*
X36411Y-9757D01*
X36554Y-9757D01*
X36611Y-9729D01*
X36640Y-9700D01*
X36668Y-9643D01*
X36668Y-9471D01*
X36640Y-9414D01*
X36611Y-9386D01*
X26463Y-8774D02*
X26948Y-8774D01*
X27006Y-8803D01*
X27034Y-8831D01*
X27063Y-8889D01*
X27063Y-9003D01*
X27034Y-9060D01*
X27006Y-9089D01*
X26948Y-9117D01*
X26463Y-9117D01*
X26463Y-9660D02*
X26463Y-9546D01*
X26491Y-9489D01*
X26520Y-9460D01*
X26606Y-9403D01*
X26720Y-9374D01*
X26948Y-9374D01*
X27006Y-9403D01*
X27034Y-9431D01*
X27063Y-9489D01*
X27063Y-9603D01*
X27034Y-9660D01*
X27006Y-9689D01*
X26948Y-9717D01*
X26806Y-9717D01*
X26748Y-9689D01*
X26720Y-9660D01*
X26691Y-9603D01*
X26691Y-9489D01*
X26720Y-9431D01*
X26748Y-9403D01*
X26806Y-9374D01*
%LPC*%
G54D11*
X45523Y-13934D02*
X45607Y-13962D01*
X45635Y-13990D01*
X45663Y-14046D01*
X45663Y-14131D01*
X45635Y-14187D01*
X45607Y-14215D01*
X45551Y-14243D01*
X45326Y-14243D01*
X45326Y-13652D01*
X45523Y-13652D01*
X45579Y-13681D01*
X45607Y-13709D01*
X45635Y-13765D01*
X45635Y-13821D01*
X45607Y-13877D01*
X45579Y-13906D01*
X45523Y-13934D01*
X45326Y-13934D01*
X45916Y-14187D02*
X45944Y-14215D01*
X45916Y-14243D01*
X45888Y-14215D01*
X45916Y-14187D01*
X45916Y-14243D01*
X46647Y-14243D02*
X46647Y-13652D01*
X46844Y-14074D01*
X47041Y-13652D01*
X47041Y-14243D01*
X47575Y-14243D02*
X47575Y-13934D01*
X47547Y-13877D01*
X47491Y-13849D01*
X47379Y-13849D01*
X47322Y-13877D01*
X47575Y-14215D02*
X47519Y-14243D01*
X47379Y-14243D01*
X47322Y-14215D01*
X47294Y-14159D01*
X47294Y-14102D01*
X47322Y-14046D01*
X47379Y-14018D01*
X47519Y-14018D01*
X47575Y-13990D01*
X47829Y-14215D02*
X47885Y-14243D01*
X47997Y-14243D01*
X48053Y-14215D01*
X48082Y-14159D01*
X48082Y-14131D01*
X48053Y-14074D01*
X47997Y-14046D01*
X47913Y-14046D01*
X47857Y-14018D01*
X47829Y-13962D01*
X47829Y-13934D01*
X47857Y-13877D01*
X47913Y-13849D01*
X47997Y-13849D01*
X48053Y-13877D01*
X48335Y-14243D02*
X48335Y-13652D01*
X48391Y-14018D02*
X48560Y-14243D01*
X48560Y-13849D02*
X48335Y-14074D01*
G54D14*
X35720Y-6692D03*
X36720Y-6692D03*
X32964Y-6692D03*
X33964Y-6692D03*
X30208Y-6692D03*
X31208Y-6692D03*
X27452Y-6692D03*
X28452Y-6692D03*
G54D15*
X34448Y-13385D03*
X34448Y-16141D03*
X34448Y-18897D03*
X27755Y-13385D03*
X27755Y-16141D03*
X27755Y-18897D03*
X21062Y-13385D03*
X21062Y-16141D03*
X21062Y-18897D03*
X14370Y-13385D03*
X14370Y-16141D03*
X14370Y-18897D03*
G54D16*
X18011Y-21881D03*
X17814Y-21881D03*
X17617Y-21881D03*
X17420Y-21881D03*
X17420Y-21428D03*
X17617Y-21428D03*
X17814Y-21428D03*
X18011Y-21428D03*
X31397Y-21881D03*
X31200Y-21881D03*
X31003Y-21881D03*
X30806Y-21881D03*
X30806Y-21428D03*
X31003Y-21428D03*
X31200Y-21428D03*
X31397Y-21428D03*
G54D17*
X35008Y-9546D03*
X35008Y-9349D03*
X35008Y-9152D03*
X35008Y-8955D03*
X35461Y-8955D03*
X35461Y-9152D03*
X35461Y-9349D03*
X35461Y-9546D03*
X28180Y-8956D03*
X28180Y-9153D03*
X28180Y-9350D03*
X28180Y-9547D03*
X27727Y-9547D03*
X27727Y-9350D03*
X27727Y-9153D03*
X27727Y-8956D03*
G54D18*
X42125Y-22440D03*
X42125Y-6692D03*
X6692Y-6692D03*
X6692Y-22440D03*
G54D19*
X17381Y-7086D03*
X22381Y-7086D03*
G54D20*
X18476Y-8086D03*
X18877Y-8787D03*
X19279Y-8086D03*
X19681Y-8787D03*
X20082Y-8086D03*
X20484Y-8787D03*
X20885Y-8086D03*
X21287Y-8787D03*
G54D21*
X16681Y-8437D03*
X23082Y-8437D03*
G54D22*
X6929Y-14566D03*
X8661Y-14566D03*
G54D23*
X5649Y-18511D03*
G54D24*
X5649Y-19511D03*
M02*
