G04 (created by PCBNEW (2013-07-07 BZR 4022)-stable) date 18/09/2013 12:22:05*
%MOIN*%
G04 Gerber Fmt 3.4, Leading zero omitted, Abs format*
%FSLAX34Y34*%
G01*
G70*
G90*
G04 APERTURE LIST*
%ADD10C,0.005*%
%ADD11C,0.011811*%
%ADD12C,0.00590551*%
%ADD13C,0.00787402*%
G04 APERTURE END LIST*
G54D10*
G54D11*
X45331Y-14969D02*
X45528Y-14969D01*
X45613Y-15278D02*
X45331Y-15278D01*
X45331Y-14687D01*
X45613Y-14687D01*
X46119Y-15278D02*
X46119Y-14687D01*
X46119Y-15250D02*
X46062Y-15278D01*
X45950Y-15278D01*
X45894Y-15250D01*
X45866Y-15222D01*
X45838Y-15165D01*
X45838Y-14997D01*
X45866Y-14940D01*
X45894Y-14912D01*
X45950Y-14884D01*
X46062Y-14884D01*
X46119Y-14912D01*
X46653Y-14884D02*
X46653Y-15362D01*
X46625Y-15419D01*
X46597Y-15447D01*
X46541Y-15475D01*
X46456Y-15475D01*
X46400Y-15447D01*
X46653Y-15250D02*
X46597Y-15278D01*
X46484Y-15278D01*
X46428Y-15250D01*
X46400Y-15222D01*
X46372Y-15165D01*
X46372Y-14997D01*
X46400Y-14940D01*
X46428Y-14912D01*
X46484Y-14884D01*
X46597Y-14884D01*
X46653Y-14912D01*
X47159Y-15250D02*
X47103Y-15278D01*
X46991Y-15278D01*
X46934Y-15250D01*
X46906Y-15194D01*
X46906Y-14969D01*
X46934Y-14912D01*
X46991Y-14884D01*
X47103Y-14884D01*
X47159Y-14912D01*
X47187Y-14969D01*
X47187Y-15025D01*
X46906Y-15081D01*
X48228Y-15222D02*
X48200Y-15250D01*
X48115Y-15278D01*
X48059Y-15278D01*
X47975Y-15250D01*
X47919Y-15194D01*
X47890Y-15137D01*
X47862Y-15025D01*
X47862Y-14940D01*
X47890Y-14828D01*
X47919Y-14772D01*
X47975Y-14715D01*
X48059Y-14687D01*
X48115Y-14687D01*
X48200Y-14715D01*
X48228Y-14744D01*
X48734Y-14884D02*
X48734Y-15278D01*
X48481Y-14884D02*
X48481Y-15194D01*
X48509Y-15250D01*
X48565Y-15278D01*
X48650Y-15278D01*
X48706Y-15250D01*
X48734Y-15222D01*
X48931Y-14884D02*
X49156Y-14884D01*
X49015Y-14687D02*
X49015Y-15194D01*
X49043Y-15250D01*
X49100Y-15278D01*
X49156Y-15278D01*
X49325Y-15250D02*
X49381Y-15278D01*
X49493Y-15278D01*
X49550Y-15250D01*
X49578Y-15194D01*
X49578Y-15165D01*
X49550Y-15109D01*
X49493Y-15081D01*
X49409Y-15081D01*
X49353Y-15053D01*
X49325Y-14997D01*
X49325Y-14969D01*
X49353Y-14912D01*
X49409Y-14884D01*
X49493Y-14884D01*
X49550Y-14912D01*
G54D12*
X4724Y-24409D02*
X4724Y-4724D01*
X44094Y-24409D02*
X4724Y-24409D01*
X44094Y-4724D02*
X44094Y-24409D01*
X4724Y-4724D02*
X44094Y-4724D01*
G54D13*
X6633Y-14271D02*
X7224Y-14862D01*
X7224Y-14271D02*
X6633Y-14862D01*
X6673Y-14468D02*
X6673Y-14665D01*
X7185Y-14468D02*
X7185Y-14665D01*
X6673Y-14665D02*
G75*
G03X7185Y-14665I255J0D01*
G74*
G01*
X7185Y-14468D02*
G75*
G03X6673Y-14468I-255J0D01*
G74*
G01*
X9055Y-14566D02*
G75*
G03X9055Y-14566I-393J0D01*
G74*
G01*
X6692Y-6102D02*
X6692Y-7283D01*
X6102Y-6692D02*
X7283Y-6692D01*
X6692Y-21850D02*
X6692Y-23031D01*
X6102Y-22440D02*
X7283Y-22440D01*
X42125Y-6102D02*
X42125Y-7283D01*
X41535Y-6692D02*
X42716Y-6692D01*
X42125Y-21850D02*
X42125Y-23031D01*
X41535Y-22440D02*
X42716Y-22440D01*
X17834Y-7539D02*
X17834Y-6634D01*
X16929Y-6634D01*
X16929Y-7539D01*
X17834Y-7539D01*
X22834Y-7539D02*
X22834Y-6634D01*
X21929Y-6634D01*
X21929Y-7539D01*
X22834Y-7539D01*
G54D11*
X5763Y-26216D02*
X5763Y-25035D01*
X6044Y-25035D01*
X6213Y-25091D01*
X6325Y-25203D01*
X6382Y-25316D01*
X6438Y-25541D01*
X6438Y-25710D01*
X6382Y-25935D01*
X6325Y-26047D01*
X6213Y-26160D01*
X6044Y-26216D01*
X5763Y-26216D01*
X6944Y-26216D02*
X6944Y-25428D01*
X6944Y-25653D02*
X7000Y-25541D01*
X7057Y-25485D01*
X7169Y-25428D01*
X7282Y-25428D01*
X7675Y-26216D02*
X7675Y-25428D01*
X7675Y-25035D02*
X7619Y-25091D01*
X7675Y-25147D01*
X7732Y-25091D01*
X7675Y-25035D01*
X7675Y-25147D01*
X8406Y-26216D02*
X8294Y-26160D01*
X8238Y-26047D01*
X8238Y-25035D01*
X9025Y-26216D02*
X8913Y-26160D01*
X8856Y-26047D01*
X8856Y-25035D01*
X10375Y-26216D02*
X10375Y-25035D01*
X10769Y-25878D01*
X11162Y-25035D01*
X11162Y-26216D01*
X12231Y-26216D02*
X12231Y-25597D01*
X12175Y-25485D01*
X12062Y-25428D01*
X11837Y-25428D01*
X11725Y-25485D01*
X12231Y-26160D02*
X12118Y-26216D01*
X11837Y-26216D01*
X11725Y-26160D01*
X11669Y-26047D01*
X11669Y-25935D01*
X11725Y-25822D01*
X11837Y-25766D01*
X12118Y-25766D01*
X12231Y-25710D01*
X12793Y-25428D02*
X12793Y-26609D01*
X12793Y-25485D02*
X12906Y-25428D01*
X13131Y-25428D01*
X13243Y-25485D01*
X13300Y-25541D01*
X13356Y-25653D01*
X13356Y-25991D01*
X13300Y-26103D01*
X13243Y-26160D01*
X13131Y-26216D01*
X12906Y-26216D01*
X12793Y-26160D01*
X13862Y-26103D02*
X13918Y-26160D01*
X13862Y-26216D01*
X13806Y-26160D01*
X13862Y-26103D01*
X13862Y-26216D01*
X13862Y-25485D02*
X13918Y-25541D01*
X13862Y-25597D01*
X13806Y-25541D01*
X13862Y-25485D01*
X13862Y-25597D01*
X4104Y-27923D02*
X4694Y-28513D01*
X4694Y-27923D02*
X4104Y-28513D01*
X6382Y-28696D02*
X5707Y-28696D01*
X6044Y-28696D02*
X6044Y-27515D01*
X5932Y-27684D01*
X5819Y-27796D01*
X5707Y-27852D01*
X6888Y-28584D02*
X6944Y-28640D01*
X6888Y-28696D01*
X6832Y-28640D01*
X6888Y-28584D01*
X6888Y-28696D01*
X8013Y-27515D02*
X7450Y-27515D01*
X7394Y-28077D01*
X7450Y-28021D01*
X7563Y-27965D01*
X7844Y-27965D01*
X7956Y-28021D01*
X8013Y-28077D01*
X8069Y-28190D01*
X8069Y-28471D01*
X8013Y-28584D01*
X7956Y-28640D01*
X7844Y-28696D01*
X7563Y-28696D01*
X7450Y-28640D01*
X7394Y-28584D01*
X8800Y-27515D02*
X8913Y-27515D01*
X9025Y-27571D01*
X9081Y-27627D01*
X9138Y-27740D01*
X9194Y-27965D01*
X9194Y-28246D01*
X9138Y-28471D01*
X9081Y-28584D01*
X9025Y-28640D01*
X8913Y-28696D01*
X8800Y-28696D01*
X8688Y-28640D01*
X8631Y-28584D01*
X8575Y-28471D01*
X8519Y-28246D01*
X8519Y-27965D01*
X8575Y-27740D01*
X8631Y-27627D01*
X8688Y-27571D01*
X8800Y-27515D01*
X9700Y-28696D02*
X9700Y-27909D01*
X9700Y-28021D02*
X9756Y-27965D01*
X9869Y-27909D01*
X10037Y-27909D01*
X10150Y-27965D01*
X10206Y-28077D01*
X10206Y-28696D01*
X10206Y-28077D02*
X10262Y-27965D01*
X10375Y-27909D01*
X10544Y-27909D01*
X10656Y-27965D01*
X10712Y-28077D01*
X10712Y-28696D01*
X11275Y-28696D02*
X11275Y-27909D01*
X11275Y-28021D02*
X11331Y-27965D01*
X11444Y-27909D01*
X11612Y-27909D01*
X11725Y-27965D01*
X11781Y-28077D01*
X11781Y-28696D01*
X11781Y-28077D02*
X11837Y-27965D01*
X11950Y-27909D01*
X12118Y-27909D01*
X12231Y-27965D01*
X12287Y-28077D01*
X12287Y-28696D01*
X14593Y-27459D02*
X13581Y-28977D01*
X16112Y-27515D02*
X16224Y-27515D01*
X16337Y-27571D01*
X16393Y-27627D01*
X16449Y-27740D01*
X16505Y-27965D01*
X16505Y-28246D01*
X16449Y-28471D01*
X16393Y-28584D01*
X16337Y-28640D01*
X16224Y-28696D01*
X16112Y-28696D01*
X15999Y-28640D01*
X15943Y-28584D01*
X15887Y-28471D01*
X15830Y-28246D01*
X15830Y-27965D01*
X15887Y-27740D01*
X15943Y-27627D01*
X15999Y-27571D01*
X16112Y-27515D01*
X17012Y-28584D02*
X17068Y-28640D01*
X17012Y-28696D01*
X16955Y-28640D01*
X17012Y-28584D01*
X17012Y-28696D01*
X17799Y-27515D02*
X17911Y-27515D01*
X18024Y-27571D01*
X18080Y-27627D01*
X18136Y-27740D01*
X18193Y-27965D01*
X18193Y-28246D01*
X18136Y-28471D01*
X18080Y-28584D01*
X18024Y-28640D01*
X17911Y-28696D01*
X17799Y-28696D01*
X17687Y-28640D01*
X17630Y-28584D01*
X17574Y-28471D01*
X17518Y-28246D01*
X17518Y-27965D01*
X17574Y-27740D01*
X17630Y-27627D01*
X17687Y-27571D01*
X17799Y-27515D01*
X19261Y-27515D02*
X18699Y-27515D01*
X18643Y-28077D01*
X18699Y-28021D01*
X18811Y-27965D01*
X19093Y-27965D01*
X19205Y-28021D01*
X19261Y-28077D01*
X19318Y-28190D01*
X19318Y-28471D01*
X19261Y-28584D01*
X19205Y-28640D01*
X19093Y-28696D01*
X18811Y-28696D01*
X18699Y-28640D01*
X18643Y-28584D01*
X19880Y-28696D02*
X20105Y-28696D01*
X20217Y-28640D01*
X20274Y-28584D01*
X20386Y-28415D01*
X20442Y-28190D01*
X20442Y-27740D01*
X20386Y-27627D01*
X20330Y-27571D01*
X20217Y-27515D01*
X19992Y-27515D01*
X19880Y-27571D01*
X19824Y-27627D01*
X19767Y-27740D01*
X19767Y-28021D01*
X19824Y-28134D01*
X19880Y-28190D01*
X19992Y-28246D01*
X20217Y-28246D01*
X20330Y-28190D01*
X20386Y-28134D01*
X20442Y-28021D01*
X20892Y-27515D02*
X20892Y-27740D01*
X21342Y-27515D02*
X21342Y-27740D01*
X23086Y-29146D02*
X23030Y-29090D01*
X22917Y-28921D01*
X22861Y-28809D01*
X22805Y-28640D01*
X22748Y-28359D01*
X22748Y-28134D01*
X22805Y-27852D01*
X22861Y-27684D01*
X22917Y-27571D01*
X23030Y-27402D01*
X23086Y-27346D01*
X24154Y-28696D02*
X23480Y-28696D01*
X23817Y-28696D02*
X23817Y-27515D01*
X23705Y-27684D01*
X23592Y-27796D01*
X23480Y-27852D01*
X25504Y-28640D02*
X25617Y-28696D01*
X25842Y-28696D01*
X25954Y-28640D01*
X26010Y-28527D01*
X26010Y-28471D01*
X25954Y-28359D01*
X25842Y-28302D01*
X25673Y-28302D01*
X25561Y-28246D01*
X25504Y-28134D01*
X25504Y-28077D01*
X25561Y-27965D01*
X25673Y-27909D01*
X25842Y-27909D01*
X25954Y-27965D01*
X26685Y-28696D02*
X26573Y-28640D01*
X26517Y-28527D01*
X26517Y-27515D01*
X27304Y-28696D02*
X27192Y-28640D01*
X27135Y-28584D01*
X27079Y-28471D01*
X27079Y-28134D01*
X27135Y-28021D01*
X27192Y-27965D01*
X27304Y-27909D01*
X27473Y-27909D01*
X27585Y-27965D01*
X27642Y-28021D01*
X27698Y-28134D01*
X27698Y-28471D01*
X27642Y-28584D01*
X27585Y-28640D01*
X27473Y-28696D01*
X27304Y-28696D01*
X28035Y-27909D02*
X28485Y-27909D01*
X28204Y-27515D02*
X28204Y-28527D01*
X28260Y-28640D01*
X28373Y-28696D01*
X28485Y-28696D01*
X28766Y-29146D02*
X28823Y-29090D01*
X28935Y-28921D01*
X28991Y-28809D01*
X29048Y-28640D01*
X29104Y-28359D01*
X29104Y-28134D01*
X29048Y-27852D01*
X28991Y-27684D01*
X28935Y-27571D01*
X28823Y-27402D01*
X28766Y-27346D01*
G54D13*
X4694Y-29777D02*
G75*
G03X4694Y-29777I-393J0D01*
G74*
G01*
G54D11*
X5707Y-29187D02*
X5763Y-29130D01*
X5875Y-29074D01*
X6157Y-29074D01*
X6269Y-29130D01*
X6325Y-29187D01*
X6382Y-29299D01*
X6382Y-29411D01*
X6325Y-29580D01*
X5651Y-30255D01*
X6382Y-30255D01*
X6888Y-30143D02*
X6944Y-30199D01*
X6888Y-30255D01*
X6832Y-30199D01*
X6888Y-30143D01*
X6888Y-30255D01*
X7675Y-29074D02*
X7788Y-29074D01*
X7900Y-29130D01*
X7956Y-29187D01*
X8013Y-29299D01*
X8069Y-29524D01*
X8069Y-29805D01*
X8013Y-30030D01*
X7956Y-30143D01*
X7900Y-30199D01*
X7788Y-30255D01*
X7675Y-30255D01*
X7563Y-30199D01*
X7507Y-30143D01*
X7450Y-30030D01*
X7394Y-29805D01*
X7394Y-29524D01*
X7450Y-29299D01*
X7507Y-29187D01*
X7563Y-29130D01*
X7675Y-29074D01*
X8800Y-29074D02*
X8913Y-29074D01*
X9025Y-29130D01*
X9081Y-29187D01*
X9138Y-29299D01*
X9194Y-29524D01*
X9194Y-29805D01*
X9138Y-30030D01*
X9081Y-30143D01*
X9025Y-30199D01*
X8913Y-30255D01*
X8800Y-30255D01*
X8688Y-30199D01*
X8631Y-30143D01*
X8575Y-30030D01*
X8519Y-29805D01*
X8519Y-29524D01*
X8575Y-29299D01*
X8631Y-29187D01*
X8688Y-29130D01*
X8800Y-29074D01*
X9700Y-30255D02*
X9700Y-29468D01*
X9700Y-29580D02*
X9756Y-29524D01*
X9869Y-29468D01*
X10037Y-29468D01*
X10150Y-29524D01*
X10206Y-29636D01*
X10206Y-30255D01*
X10206Y-29636D02*
X10262Y-29524D01*
X10375Y-29468D01*
X10544Y-29468D01*
X10656Y-29524D01*
X10712Y-29636D01*
X10712Y-30255D01*
X11275Y-30255D02*
X11275Y-29468D01*
X11275Y-29580D02*
X11331Y-29524D01*
X11444Y-29468D01*
X11612Y-29468D01*
X11725Y-29524D01*
X11781Y-29636D01*
X11781Y-30255D01*
X11781Y-29636D02*
X11837Y-29524D01*
X11950Y-29468D01*
X12118Y-29468D01*
X12231Y-29524D01*
X12287Y-29636D01*
X12287Y-30255D01*
X14593Y-29018D02*
X13581Y-30536D01*
X16112Y-29074D02*
X16224Y-29074D01*
X16337Y-29130D01*
X16393Y-29187D01*
X16449Y-29299D01*
X16505Y-29524D01*
X16505Y-29805D01*
X16449Y-30030D01*
X16393Y-30143D01*
X16337Y-30199D01*
X16224Y-30255D01*
X16112Y-30255D01*
X15999Y-30199D01*
X15943Y-30143D01*
X15887Y-30030D01*
X15830Y-29805D01*
X15830Y-29524D01*
X15887Y-29299D01*
X15943Y-29187D01*
X15999Y-29130D01*
X16112Y-29074D01*
X17012Y-30143D02*
X17068Y-30199D01*
X17012Y-30255D01*
X16955Y-30199D01*
X17012Y-30143D01*
X17012Y-30255D01*
X17799Y-29074D02*
X17911Y-29074D01*
X18024Y-29130D01*
X18080Y-29187D01*
X18136Y-29299D01*
X18193Y-29524D01*
X18193Y-29805D01*
X18136Y-30030D01*
X18080Y-30143D01*
X18024Y-30199D01*
X17911Y-30255D01*
X17799Y-30255D01*
X17687Y-30199D01*
X17630Y-30143D01*
X17574Y-30030D01*
X17518Y-29805D01*
X17518Y-29524D01*
X17574Y-29299D01*
X17630Y-29187D01*
X17687Y-29130D01*
X17799Y-29074D01*
X18586Y-29074D02*
X19374Y-29074D01*
X18868Y-30255D01*
X19880Y-30255D02*
X20105Y-30255D01*
X20217Y-30199D01*
X20274Y-30143D01*
X20386Y-29974D01*
X20442Y-29749D01*
X20442Y-29299D01*
X20386Y-29187D01*
X20330Y-29130D01*
X20217Y-29074D01*
X19992Y-29074D01*
X19880Y-29130D01*
X19824Y-29187D01*
X19767Y-29299D01*
X19767Y-29580D01*
X19824Y-29693D01*
X19880Y-29749D01*
X19992Y-29805D01*
X20217Y-29805D01*
X20330Y-29749D01*
X20386Y-29693D01*
X20442Y-29580D01*
X20892Y-29074D02*
X20892Y-29299D01*
X21342Y-29074D02*
X21342Y-29299D01*
X23086Y-30705D02*
X23030Y-30649D01*
X22917Y-30480D01*
X22861Y-30368D01*
X22805Y-30199D01*
X22748Y-29918D01*
X22748Y-29693D01*
X22805Y-29411D01*
X22861Y-29243D01*
X22917Y-29130D01*
X23030Y-28962D01*
X23086Y-28905D01*
X24154Y-30255D02*
X23480Y-30255D01*
X23817Y-30255D02*
X23817Y-29074D01*
X23705Y-29243D01*
X23592Y-29355D01*
X23480Y-29411D01*
X25561Y-30255D02*
X25561Y-29074D01*
X26067Y-30255D02*
X26067Y-29636D01*
X26010Y-29524D01*
X25898Y-29468D01*
X25729Y-29468D01*
X25617Y-29524D01*
X25561Y-29580D01*
X26798Y-30255D02*
X26685Y-30199D01*
X26629Y-30143D01*
X26573Y-30030D01*
X26573Y-29693D01*
X26629Y-29580D01*
X26685Y-29524D01*
X26798Y-29468D01*
X26967Y-29468D01*
X27079Y-29524D01*
X27135Y-29580D01*
X27192Y-29693D01*
X27192Y-30030D01*
X27135Y-30143D01*
X27079Y-30199D01*
X26967Y-30255D01*
X26798Y-30255D01*
X27866Y-30255D02*
X27754Y-30199D01*
X27698Y-30086D01*
X27698Y-29074D01*
X28766Y-30199D02*
X28654Y-30255D01*
X28429Y-30255D01*
X28316Y-30199D01*
X28260Y-30086D01*
X28260Y-29636D01*
X28316Y-29524D01*
X28429Y-29468D01*
X28654Y-29468D01*
X28766Y-29524D01*
X28823Y-29636D01*
X28823Y-29749D01*
X28260Y-29861D01*
X29216Y-30705D02*
X29273Y-30649D01*
X29385Y-30480D01*
X29441Y-30368D01*
X29498Y-30199D01*
X29554Y-29918D01*
X29554Y-29693D01*
X29498Y-29411D01*
X29441Y-29243D01*
X29385Y-29130D01*
X29273Y-28962D01*
X29216Y-28905D01*
X4104Y-30746D02*
X4104Y-31927D01*
X3513Y-31336D02*
X4694Y-31336D01*
X5651Y-30633D02*
X6382Y-30633D01*
X5988Y-31083D01*
X6157Y-31083D01*
X6269Y-31139D01*
X6325Y-31196D01*
X6382Y-31308D01*
X6382Y-31589D01*
X6325Y-31702D01*
X6269Y-31758D01*
X6157Y-31814D01*
X5819Y-31814D01*
X5707Y-31758D01*
X5651Y-31702D01*
X6888Y-31702D02*
X6944Y-31758D01*
X6888Y-31814D01*
X6832Y-31758D01*
X6888Y-31702D01*
X6888Y-31814D01*
X7675Y-30633D02*
X7788Y-30633D01*
X7900Y-30689D01*
X7956Y-30746D01*
X8013Y-30858D01*
X8069Y-31083D01*
X8069Y-31364D01*
X8013Y-31589D01*
X7956Y-31702D01*
X7900Y-31758D01*
X7788Y-31814D01*
X7675Y-31814D01*
X7563Y-31758D01*
X7507Y-31702D01*
X7450Y-31589D01*
X7394Y-31364D01*
X7394Y-31083D01*
X7450Y-30858D01*
X7507Y-30746D01*
X7563Y-30689D01*
X7675Y-30633D01*
X8800Y-30633D02*
X8913Y-30633D01*
X9025Y-30689D01*
X9081Y-30746D01*
X9138Y-30858D01*
X9194Y-31083D01*
X9194Y-31364D01*
X9138Y-31589D01*
X9081Y-31702D01*
X9025Y-31758D01*
X8913Y-31814D01*
X8800Y-31814D01*
X8688Y-31758D01*
X8631Y-31702D01*
X8575Y-31589D01*
X8519Y-31364D01*
X8519Y-31083D01*
X8575Y-30858D01*
X8631Y-30746D01*
X8688Y-30689D01*
X8800Y-30633D01*
X9700Y-31814D02*
X9700Y-31027D01*
X9700Y-31139D02*
X9756Y-31083D01*
X9869Y-31027D01*
X10037Y-31027D01*
X10150Y-31083D01*
X10206Y-31196D01*
X10206Y-31814D01*
X10206Y-31196D02*
X10262Y-31083D01*
X10375Y-31027D01*
X10544Y-31027D01*
X10656Y-31083D01*
X10712Y-31196D01*
X10712Y-31814D01*
X11275Y-31814D02*
X11275Y-31027D01*
X11275Y-31139D02*
X11331Y-31083D01*
X11444Y-31027D01*
X11612Y-31027D01*
X11725Y-31083D01*
X11781Y-31196D01*
X11781Y-31814D01*
X11781Y-31196D02*
X11837Y-31083D01*
X11950Y-31027D01*
X12118Y-31027D01*
X12231Y-31083D01*
X12287Y-31196D01*
X12287Y-31814D01*
X14593Y-30577D02*
X13581Y-32095D01*
X16112Y-30633D02*
X16224Y-30633D01*
X16337Y-30689D01*
X16393Y-30746D01*
X16449Y-30858D01*
X16505Y-31083D01*
X16505Y-31364D01*
X16449Y-31589D01*
X16393Y-31702D01*
X16337Y-31758D01*
X16224Y-31814D01*
X16112Y-31814D01*
X15999Y-31758D01*
X15943Y-31702D01*
X15887Y-31589D01*
X15830Y-31364D01*
X15830Y-31083D01*
X15887Y-30858D01*
X15943Y-30746D01*
X15999Y-30689D01*
X16112Y-30633D01*
X17012Y-31702D02*
X17068Y-31758D01*
X17012Y-31814D01*
X16955Y-31758D01*
X17012Y-31702D01*
X17012Y-31814D01*
X18193Y-31814D02*
X17518Y-31814D01*
X17855Y-31814D02*
X17855Y-30633D01*
X17743Y-30802D01*
X17630Y-30914D01*
X17518Y-30971D01*
X19318Y-31814D02*
X18643Y-31814D01*
X18980Y-31814D02*
X18980Y-30633D01*
X18868Y-30802D01*
X18755Y-30914D01*
X18643Y-30971D01*
X19992Y-31139D02*
X19880Y-31083D01*
X19824Y-31027D01*
X19767Y-30914D01*
X19767Y-30858D01*
X19824Y-30746D01*
X19880Y-30689D01*
X19992Y-30633D01*
X20217Y-30633D01*
X20330Y-30689D01*
X20386Y-30746D01*
X20442Y-30858D01*
X20442Y-30914D01*
X20386Y-31027D01*
X20330Y-31083D01*
X20217Y-31139D01*
X19992Y-31139D01*
X19880Y-31196D01*
X19824Y-31252D01*
X19767Y-31364D01*
X19767Y-31589D01*
X19824Y-31702D01*
X19880Y-31758D01*
X19992Y-31814D01*
X20217Y-31814D01*
X20330Y-31758D01*
X20386Y-31702D01*
X20442Y-31589D01*
X20442Y-31364D01*
X20386Y-31252D01*
X20330Y-31196D01*
X20217Y-31139D01*
X20892Y-30633D02*
X20892Y-30858D01*
X21342Y-30633D02*
X21342Y-30858D01*
X23086Y-32264D02*
X23030Y-32208D01*
X22917Y-32039D01*
X22861Y-31927D01*
X22805Y-31758D01*
X22748Y-31477D01*
X22748Y-31252D01*
X22805Y-30971D01*
X22861Y-30802D01*
X22917Y-30689D01*
X23030Y-30521D01*
X23086Y-30464D01*
X24042Y-31027D02*
X24042Y-31814D01*
X23761Y-30577D02*
X23480Y-31420D01*
X24211Y-31420D01*
X25561Y-31814D02*
X25561Y-30633D01*
X26067Y-31814D02*
X26067Y-31196D01*
X26010Y-31083D01*
X25898Y-31027D01*
X25729Y-31027D01*
X25617Y-31083D01*
X25561Y-31139D01*
X26798Y-31814D02*
X26685Y-31758D01*
X26629Y-31702D01*
X26573Y-31589D01*
X26573Y-31252D01*
X26629Y-31139D01*
X26685Y-31083D01*
X26798Y-31027D01*
X26967Y-31027D01*
X27079Y-31083D01*
X27135Y-31139D01*
X27192Y-31252D01*
X27192Y-31589D01*
X27135Y-31702D01*
X27079Y-31758D01*
X26967Y-31814D01*
X26798Y-31814D01*
X27866Y-31814D02*
X27754Y-31758D01*
X27698Y-31645D01*
X27698Y-30633D01*
X28766Y-31758D02*
X28654Y-31814D01*
X28429Y-31814D01*
X28316Y-31758D01*
X28260Y-31645D01*
X28260Y-31196D01*
X28316Y-31083D01*
X28429Y-31027D01*
X28654Y-31027D01*
X28766Y-31083D01*
X28823Y-31196D01*
X28823Y-31308D01*
X28260Y-31420D01*
X29273Y-31758D02*
X29385Y-31814D01*
X29610Y-31814D01*
X29723Y-31758D01*
X29779Y-31645D01*
X29779Y-31589D01*
X29723Y-31477D01*
X29610Y-31420D01*
X29441Y-31420D01*
X29329Y-31364D01*
X29273Y-31252D01*
X29273Y-31196D01*
X29329Y-31083D01*
X29441Y-31027D01*
X29610Y-31027D01*
X29723Y-31083D01*
X30172Y-32264D02*
X30229Y-32208D01*
X30341Y-32039D01*
X30397Y-31927D01*
X30454Y-31758D01*
X30510Y-31477D01*
X30510Y-31252D01*
X30454Y-30971D01*
X30397Y-30802D01*
X30341Y-30689D01*
X30229Y-30521D01*
X30172Y-30464D01*
G54D13*
X4507Y-33482D02*
X4507Y-32576D01*
X3602Y-32576D01*
X3602Y-33482D01*
X4507Y-33482D01*
G54D11*
X5651Y-32326D02*
X6382Y-32326D01*
X5988Y-32776D01*
X6157Y-32776D01*
X6269Y-32832D01*
X6325Y-32888D01*
X6382Y-33001D01*
X6382Y-33282D01*
X6325Y-33395D01*
X6269Y-33451D01*
X6157Y-33507D01*
X5819Y-33507D01*
X5707Y-33451D01*
X5651Y-33395D01*
X6888Y-33395D02*
X6944Y-33451D01*
X6888Y-33507D01*
X6832Y-33451D01*
X6888Y-33395D01*
X6888Y-33507D01*
X7394Y-32438D02*
X7450Y-32382D01*
X7563Y-32326D01*
X7844Y-32326D01*
X7956Y-32382D01*
X8013Y-32438D01*
X8069Y-32551D01*
X8069Y-32663D01*
X8013Y-32832D01*
X7338Y-33507D01*
X8069Y-33507D01*
X9138Y-32326D02*
X8575Y-32326D01*
X8519Y-32888D01*
X8575Y-32832D01*
X8688Y-32776D01*
X8969Y-32776D01*
X9081Y-32832D01*
X9138Y-32888D01*
X9194Y-33001D01*
X9194Y-33282D01*
X9138Y-33395D01*
X9081Y-33451D01*
X8969Y-33507D01*
X8688Y-33507D01*
X8575Y-33451D01*
X8519Y-33395D01*
X9700Y-33507D02*
X9700Y-32720D01*
X9700Y-32832D02*
X9756Y-32776D01*
X9869Y-32720D01*
X10037Y-32720D01*
X10150Y-32776D01*
X10206Y-32888D01*
X10206Y-33507D01*
X10206Y-32888D02*
X10262Y-32776D01*
X10375Y-32720D01*
X10544Y-32720D01*
X10656Y-32776D01*
X10712Y-32888D01*
X10712Y-33507D01*
X11275Y-33507D02*
X11275Y-32720D01*
X11275Y-32832D02*
X11331Y-32776D01*
X11444Y-32720D01*
X11612Y-32720D01*
X11725Y-32776D01*
X11781Y-32888D01*
X11781Y-33507D01*
X11781Y-32888D02*
X11837Y-32776D01*
X11950Y-32720D01*
X12118Y-32720D01*
X12231Y-32776D01*
X12287Y-32888D01*
X12287Y-33507D01*
X14593Y-32270D02*
X13581Y-33788D01*
X16112Y-32326D02*
X16224Y-32326D01*
X16337Y-32382D01*
X16393Y-32438D01*
X16449Y-32551D01*
X16505Y-32776D01*
X16505Y-33057D01*
X16449Y-33282D01*
X16393Y-33395D01*
X16337Y-33451D01*
X16224Y-33507D01*
X16112Y-33507D01*
X15999Y-33451D01*
X15943Y-33395D01*
X15887Y-33282D01*
X15830Y-33057D01*
X15830Y-32776D01*
X15887Y-32551D01*
X15943Y-32438D01*
X15999Y-32382D01*
X16112Y-32326D01*
X17012Y-33395D02*
X17068Y-33451D01*
X17012Y-33507D01*
X16955Y-33451D01*
X17012Y-33395D01*
X17012Y-33507D01*
X18193Y-33507D02*
X17518Y-33507D01*
X17855Y-33507D02*
X17855Y-32326D01*
X17743Y-32495D01*
X17630Y-32607D01*
X17518Y-32663D01*
X18643Y-32438D02*
X18699Y-32382D01*
X18811Y-32326D01*
X19093Y-32326D01*
X19205Y-32382D01*
X19261Y-32438D01*
X19318Y-32551D01*
X19318Y-32663D01*
X19261Y-32832D01*
X18586Y-33507D01*
X19318Y-33507D01*
X19992Y-32832D02*
X19880Y-32776D01*
X19824Y-32720D01*
X19767Y-32607D01*
X19767Y-32551D01*
X19824Y-32438D01*
X19880Y-32382D01*
X19992Y-32326D01*
X20217Y-32326D01*
X20330Y-32382D01*
X20386Y-32438D01*
X20442Y-32551D01*
X20442Y-32607D01*
X20386Y-32720D01*
X20330Y-32776D01*
X20217Y-32832D01*
X19992Y-32832D01*
X19880Y-32888D01*
X19824Y-32945D01*
X19767Y-33057D01*
X19767Y-33282D01*
X19824Y-33395D01*
X19880Y-33451D01*
X19992Y-33507D01*
X20217Y-33507D01*
X20330Y-33451D01*
X20386Y-33395D01*
X20442Y-33282D01*
X20442Y-33057D01*
X20386Y-32945D01*
X20330Y-32888D01*
X20217Y-32832D01*
X20892Y-32326D02*
X20892Y-32551D01*
X21342Y-32326D02*
X21342Y-32551D01*
X23086Y-33957D02*
X23030Y-33901D01*
X22917Y-33732D01*
X22861Y-33620D01*
X22805Y-33451D01*
X22748Y-33170D01*
X22748Y-32945D01*
X22805Y-32663D01*
X22861Y-32495D01*
X22917Y-32382D01*
X23030Y-32214D01*
X23086Y-32157D01*
X23480Y-32438D02*
X23536Y-32382D01*
X23648Y-32326D01*
X23929Y-32326D01*
X24042Y-32382D01*
X24098Y-32438D01*
X24154Y-32551D01*
X24154Y-32663D01*
X24098Y-32832D01*
X23423Y-33507D01*
X24154Y-33507D01*
X25561Y-33507D02*
X25561Y-32326D01*
X26067Y-33507D02*
X26067Y-32888D01*
X26010Y-32776D01*
X25898Y-32720D01*
X25729Y-32720D01*
X25617Y-32776D01*
X25561Y-32832D01*
X26798Y-33507D02*
X26685Y-33451D01*
X26629Y-33395D01*
X26573Y-33282D01*
X26573Y-32945D01*
X26629Y-32832D01*
X26685Y-32776D01*
X26798Y-32720D01*
X26967Y-32720D01*
X27079Y-32776D01*
X27135Y-32832D01*
X27192Y-32945D01*
X27192Y-33282D01*
X27135Y-33395D01*
X27079Y-33451D01*
X26967Y-33507D01*
X26798Y-33507D01*
X27866Y-33507D02*
X27754Y-33451D01*
X27698Y-33338D01*
X27698Y-32326D01*
X28766Y-33451D02*
X28654Y-33507D01*
X28429Y-33507D01*
X28316Y-33451D01*
X28260Y-33338D01*
X28260Y-32888D01*
X28316Y-32776D01*
X28429Y-32720D01*
X28654Y-32720D01*
X28766Y-32776D01*
X28823Y-32888D01*
X28823Y-33001D01*
X28260Y-33113D01*
X29273Y-33451D02*
X29385Y-33507D01*
X29610Y-33507D01*
X29723Y-33451D01*
X29779Y-33338D01*
X29779Y-33282D01*
X29723Y-33170D01*
X29610Y-33113D01*
X29441Y-33113D01*
X29329Y-33057D01*
X29273Y-32945D01*
X29273Y-32888D01*
X29329Y-32776D01*
X29441Y-32720D01*
X29610Y-32720D01*
X29723Y-32776D01*
X30172Y-33957D02*
X30229Y-33901D01*
X30341Y-33732D01*
X30397Y-33620D01*
X30454Y-33451D01*
X30510Y-33170D01*
X30510Y-32945D01*
X30454Y-32663D01*
X30397Y-32495D01*
X30341Y-32382D01*
X30229Y-32214D01*
X30172Y-32157D01*
M02*
