G04 (created by PCBNEW (2013-mar-13)-testing) date Thu 26 Sep 2013 17:04:14 BST*
%MOIN*%
G04 Gerber Fmt 3.4, Leading zero omitted, Abs format*
%FSLAX34Y34*%
G01*
G70*
G90*
G04 APERTURE LIST*
%ADD10C,0.005906*%
%ADD11C,0.011811*%
%ADD12C,0.075843*%
%ADD13R,0.246063X0.159449*%
%ADD14R,0.021643X0.035443*%
%ADD15R,0.035443X0.021643*%
%ADD16C,0.246063*%
%ADD17C,0.153543*%
%ADD18C,0.068943*%
%ADD19C,0.096457*%
%ADD20C,0.147638*%
%ADD21R,0.069843X0.069843*%
%ADD22C,0.069843*%
G04 APERTURE END LIST*
G54D10*
G54D11*
X45523Y-13934D02*
X45607Y-13962D01*
X45635Y-13990D01*
X45663Y-14046D01*
X45663Y-14131D01*
X45635Y-14187D01*
X45607Y-14215D01*
X45551Y-14243D01*
X45326Y-14243D01*
X45326Y-13652D01*
X45523Y-13652D01*
X45579Y-13681D01*
X45607Y-13709D01*
X45635Y-13765D01*
X45635Y-13821D01*
X45607Y-13877D01*
X45579Y-13906D01*
X45523Y-13934D01*
X45326Y-13934D01*
X45916Y-14187D02*
X45944Y-14215D01*
X45916Y-14243D01*
X45888Y-14215D01*
X45916Y-14187D01*
X45916Y-14243D01*
X46647Y-14243D02*
X46647Y-13652D01*
X46844Y-14074D01*
X47041Y-13652D01*
X47041Y-14243D01*
X47575Y-14243D02*
X47575Y-13934D01*
X47547Y-13877D01*
X47491Y-13849D01*
X47379Y-13849D01*
X47322Y-13877D01*
X47575Y-14215D02*
X47519Y-14243D01*
X47379Y-14243D01*
X47322Y-14215D01*
X47294Y-14159D01*
X47294Y-14102D01*
X47322Y-14046D01*
X47379Y-14018D01*
X47519Y-14018D01*
X47575Y-13990D01*
X47829Y-14215D02*
X47885Y-14243D01*
X47997Y-14243D01*
X48053Y-14215D01*
X48082Y-14159D01*
X48082Y-14131D01*
X48053Y-14074D01*
X47997Y-14046D01*
X47913Y-14046D01*
X47857Y-14018D01*
X47829Y-13962D01*
X47829Y-13934D01*
X47857Y-13877D01*
X47913Y-13849D01*
X47997Y-13849D01*
X48053Y-13877D01*
X48335Y-14243D02*
X48335Y-13652D01*
X48391Y-14018D02*
X48560Y-14243D01*
X48560Y-13849D02*
X48335Y-14074D01*
G54D12*
X35720Y-6692D03*
X36720Y-6692D03*
X32964Y-6692D03*
X33964Y-6692D03*
X30208Y-6692D03*
X31208Y-6692D03*
X27452Y-6692D03*
X28452Y-6692D03*
G54D13*
X34448Y-13385D03*
X34448Y-16141D03*
X34448Y-18897D03*
X27755Y-13385D03*
X27755Y-16141D03*
X27755Y-18897D03*
X21062Y-13385D03*
X21062Y-16141D03*
X21062Y-18897D03*
X14370Y-13385D03*
X14370Y-16141D03*
X14370Y-18897D03*
G54D14*
X18011Y-21881D03*
X17814Y-21881D03*
X17617Y-21881D03*
X17420Y-21881D03*
X17420Y-21428D03*
X17617Y-21428D03*
X17814Y-21428D03*
X18011Y-21428D03*
X31397Y-21881D03*
X31200Y-21881D03*
X31003Y-21881D03*
X30806Y-21881D03*
X30806Y-21428D03*
X31003Y-21428D03*
X31200Y-21428D03*
X31397Y-21428D03*
G54D15*
X35008Y-9546D03*
X35008Y-9349D03*
X35008Y-9152D03*
X35008Y-8955D03*
X35461Y-8955D03*
X35461Y-9152D03*
X35461Y-9349D03*
X35461Y-9546D03*
X28180Y-8956D03*
X28180Y-9153D03*
X28180Y-9350D03*
X28180Y-9547D03*
X27727Y-9547D03*
X27727Y-9350D03*
X27727Y-9153D03*
X27727Y-8956D03*
G54D16*
X42125Y-22440D03*
X42125Y-6692D03*
X6692Y-6692D03*
X6692Y-22440D03*
G54D17*
X17381Y-7086D03*
X22381Y-7086D03*
G54D18*
X18476Y-8086D03*
X18877Y-8787D03*
X19279Y-8086D03*
X19681Y-8787D03*
X20082Y-8086D03*
X20484Y-8787D03*
X20885Y-8086D03*
X21287Y-8787D03*
G54D19*
X16681Y-8437D03*
X23082Y-8437D03*
G54D20*
X6929Y-14566D03*
X8661Y-14566D03*
G54D21*
X5649Y-18511D03*
G54D22*
X5649Y-19511D03*
M02*
