M48
;DRILL file {Pcbnew (2013-mar-13)-testing} date Thu 26 Sep 2013 17:04:29 BST
;FORMAT={-:-/ absolute / metric / decimal}
FMAT,2
METRIC,TZ
T1C0.635
T2C0.813
T3C0.899
T4C1.016
T5C1.300
T6C1.600
%
G90
G05
M71
T1
X13.6Y-29.2
X14.2Y-30.2
X15.Y-29.2
X26.4Y-21.3
X29.8Y-23.8
X36.2Y-22.8
X37.4Y-17.6
X41.2Y-29.8
X41.6Y-44.3
X42.9Y-55.6
X43.4Y-29.8
X47.8Y-44.2
X70.4Y-29.2
X75.5Y-44.7
X75.8Y-23.8
X77.8Y-22.8
X82.Y-44.7
X83.6Y-24.4
X85.5Y-25.5
X85.5Y-30.7
X90.2Y-27.5
X95.8Y-52.2
X104.6Y-30.8
X108.3Y-34.5
T2
X69.73Y-17.
X72.27Y-17.
X76.73Y-17.
X79.27Y-17.
X83.73Y-17.
X86.27Y-17.
X90.73Y-17.
X93.27Y-17.
T3
X46.93Y-20.54
X47.95Y-22.32
X48.97Y-20.54
X49.99Y-22.32
X51.01Y-20.54
X52.03Y-22.32
X53.05Y-20.54
X54.07Y-22.32
T4
X14.35Y-47.02
X14.35Y-49.56
T6
X42.37Y-21.43
X58.63Y-21.43
T5
X38.6Y-34.G85X34.4Y-34.
G05
X38.6Y-41.G85X34.4Y-41.
G05
X38.6Y-48.G85X34.4Y-48.
G05
X55.6Y-34.G85X51.4Y-34.
G05
X55.6Y-41.G85X51.4Y-41.
G05
X55.6Y-48.G85X51.4Y-48.
G05
X72.6Y-34.G85X68.4Y-34.
G05
X72.6Y-41.G85X68.4Y-41.
G05
X72.6Y-48.G85X68.4Y-48.
G05
X89.6Y-34.G85X85.4Y-34.
G05
X89.6Y-41.G85X85.4Y-41.
G05
X89.6Y-48.G85X85.4Y-48.
G05
T0
M30
