G04 (created by PCBNEW (2013-07-07 BZR 4022)-stable) date 9/18/2013 13:06:53*
%MOIN*%
G04 Gerber Fmt 3.4, Leading zero omitted, Abs format*
%FSLAX34Y34*%
G01*
G70*
G90*
G04 APERTURE LIST*
%ADD10C,0.00590551*%
%ADD11C,0.011811*%
%ADD12R,0.025X0.05*%
%ADD13R,0.0256X0.0118*%
%ADD14R,0.055X0.035*%
%ADD15R,0.0276X0.063*%
%ADD16R,0.0276X0.0827*%
%ADD17R,0.0787X0.1083*%
G04 APERTURE END LIST*
G54D10*
G54D11*
X46597Y-7803D02*
X46400Y-7803D01*
X46400Y-8113D02*
X46400Y-7522D01*
X46681Y-7522D01*
X46906Y-8113D02*
X46906Y-7719D01*
X46906Y-7831D02*
X46934Y-7775D01*
X46962Y-7747D01*
X47019Y-7719D01*
X47075Y-7719D01*
X47356Y-8113D02*
X47300Y-8084D01*
X47272Y-8056D01*
X47244Y-8000D01*
X47244Y-7831D01*
X47272Y-7775D01*
X47300Y-7747D01*
X47356Y-7719D01*
X47440Y-7719D01*
X47497Y-7747D01*
X47525Y-7775D01*
X47553Y-7831D01*
X47553Y-8000D01*
X47525Y-8056D01*
X47497Y-8084D01*
X47440Y-8113D01*
X47356Y-8113D01*
X47806Y-7719D02*
X47806Y-8113D01*
X47806Y-7775D02*
X47834Y-7747D01*
X47890Y-7719D01*
X47975Y-7719D01*
X48031Y-7747D01*
X48059Y-7803D01*
X48059Y-8113D01*
X48256Y-7719D02*
X48481Y-7719D01*
X48340Y-7522D02*
X48340Y-8028D01*
X48368Y-8084D01*
X48425Y-8113D01*
X48481Y-8113D01*
X49128Y-8113D02*
X49128Y-7522D01*
X49353Y-7522D01*
X49409Y-7550D01*
X49437Y-7578D01*
X49465Y-7634D01*
X49465Y-7719D01*
X49437Y-7775D01*
X49409Y-7803D01*
X49353Y-7831D01*
X49128Y-7831D01*
X49971Y-8113D02*
X49971Y-7803D01*
X49943Y-7747D01*
X49887Y-7719D01*
X49775Y-7719D01*
X49718Y-7747D01*
X49971Y-8084D02*
X49915Y-8113D01*
X49775Y-8113D01*
X49718Y-8084D01*
X49690Y-8028D01*
X49690Y-7972D01*
X49718Y-7916D01*
X49775Y-7888D01*
X49915Y-7888D01*
X49971Y-7859D01*
X50224Y-8084D02*
X50281Y-8113D01*
X50393Y-8113D01*
X50449Y-8084D01*
X50478Y-8028D01*
X50478Y-8000D01*
X50449Y-7944D01*
X50393Y-7916D01*
X50309Y-7916D01*
X50253Y-7888D01*
X50224Y-7831D01*
X50224Y-7803D01*
X50253Y-7747D01*
X50309Y-7719D01*
X50393Y-7719D01*
X50449Y-7747D01*
X50646Y-7719D02*
X50871Y-7719D01*
X50731Y-7522D02*
X50731Y-8028D01*
X50759Y-8084D01*
X50815Y-8113D01*
X50871Y-8113D01*
X51293Y-8084D02*
X51237Y-8113D01*
X51124Y-8113D01*
X51068Y-8084D01*
X51040Y-8028D01*
X51040Y-7803D01*
X51068Y-7747D01*
X51124Y-7719D01*
X51237Y-7719D01*
X51293Y-7747D01*
X51321Y-7803D01*
X51321Y-7859D01*
X51040Y-7916D01*
G54D12*
X35889Y-13466D03*
X35389Y-13466D03*
X34889Y-13466D03*
X34389Y-13466D03*
X33889Y-13466D03*
X33389Y-13466D03*
X32889Y-13466D03*
X32889Y-15666D03*
X33389Y-15666D03*
X33889Y-15666D03*
X34389Y-15666D03*
X34889Y-15666D03*
X35389Y-15666D03*
X35889Y-15666D03*
X18840Y-15666D03*
X19340Y-15666D03*
X19840Y-15666D03*
X20340Y-15666D03*
X20840Y-15666D03*
X21340Y-15666D03*
X21840Y-15666D03*
X22340Y-15666D03*
X22340Y-13466D03*
X21840Y-13466D03*
X21340Y-13466D03*
X20840Y-13466D03*
X20340Y-13466D03*
X19840Y-13466D03*
X19340Y-13466D03*
X18840Y-13466D03*
X25828Y-15686D03*
X26328Y-15686D03*
X26828Y-15686D03*
X27328Y-15686D03*
X27828Y-15686D03*
X28328Y-15686D03*
X28828Y-15686D03*
X29328Y-15686D03*
X29328Y-13486D03*
X28828Y-13486D03*
X28328Y-13486D03*
X27828Y-13486D03*
X27328Y-13486D03*
X26828Y-13486D03*
X26328Y-13486D03*
X25828Y-13486D03*
G54D13*
X29086Y-10590D03*
X29086Y-10393D03*
X29086Y-10196D03*
X29086Y-9999D03*
X28633Y-9999D03*
X28633Y-10196D03*
X28633Y-10393D03*
X28633Y-10590D03*
X19909Y-18760D03*
X19909Y-18957D03*
X19909Y-19154D03*
X19909Y-19351D03*
X20362Y-19351D03*
X20362Y-19154D03*
X20362Y-18957D03*
X20362Y-18760D03*
X36602Y-9823D03*
X36602Y-10020D03*
X36602Y-10217D03*
X36602Y-10414D03*
X37055Y-10414D03*
X37055Y-10217D03*
X37055Y-10020D03*
X37055Y-9823D03*
X39201Y-17697D03*
X39201Y-17894D03*
X39201Y-18091D03*
X39201Y-18288D03*
X39654Y-18288D03*
X39654Y-18091D03*
X39654Y-17894D03*
X39654Y-17697D03*
X36527Y-20039D03*
X36527Y-19842D03*
X36527Y-19645D03*
X36527Y-19448D03*
X36074Y-19448D03*
X36074Y-19645D03*
X36074Y-19842D03*
X36074Y-20039D03*
X30559Y-10000D03*
X30559Y-10197D03*
X30559Y-10394D03*
X30559Y-10591D03*
X31012Y-10591D03*
X31012Y-10394D03*
X31012Y-10197D03*
X31012Y-10000D03*
X12409Y-10079D03*
X12409Y-10276D03*
X12409Y-10473D03*
X12409Y-10670D03*
X12862Y-10670D03*
X12862Y-10473D03*
X12862Y-10276D03*
X12862Y-10079D03*
G54D14*
X11771Y-19270D03*
X11771Y-20020D03*
X15531Y-19565D03*
X15531Y-20315D03*
G54D15*
X14291Y-18818D03*
G54D16*
X13700Y-18916D03*
G54D15*
X13109Y-18818D03*
G54D17*
X13700Y-19861D03*
M02*
