G04 (created by PCBNEW (2013-07-07 BZR 4022)-stable) date 9/18/2013 13:06:53*
%MOIN*%
G04 Gerber Fmt 3.4, Leading zero omitted, Abs format*
%FSLAX34Y34*%
G01*
G70*
G90*
G04 APERTURE LIST*
%ADD10C,0.00590551*%
%ADD11C,0.011811*%
G04 APERTURE END LIST*
G54D10*
G54D11*
X46597Y-8787D02*
X46681Y-8816D01*
X46709Y-8844D01*
X46737Y-8900D01*
X46737Y-8984D01*
X46709Y-9041D01*
X46681Y-9069D01*
X46625Y-9097D01*
X46400Y-9097D01*
X46400Y-8506D01*
X46597Y-8506D01*
X46653Y-8534D01*
X46681Y-8562D01*
X46709Y-8619D01*
X46709Y-8675D01*
X46681Y-8731D01*
X46653Y-8759D01*
X46597Y-8787D01*
X46400Y-8787D01*
X47244Y-9097D02*
X47244Y-8787D01*
X47215Y-8731D01*
X47159Y-8703D01*
X47047Y-8703D01*
X46991Y-8731D01*
X47244Y-9069D02*
X47187Y-9097D01*
X47047Y-9097D01*
X46991Y-9069D01*
X46962Y-9012D01*
X46962Y-8956D01*
X46991Y-8900D01*
X47047Y-8872D01*
X47187Y-8872D01*
X47244Y-8844D01*
X47778Y-9069D02*
X47722Y-9097D01*
X47609Y-9097D01*
X47553Y-9069D01*
X47525Y-9041D01*
X47497Y-8984D01*
X47497Y-8816D01*
X47525Y-8759D01*
X47553Y-8731D01*
X47609Y-8703D01*
X47722Y-8703D01*
X47778Y-8731D01*
X48031Y-9097D02*
X48031Y-8506D01*
X48087Y-8872D02*
X48256Y-9097D01*
X48256Y-8703D02*
X48031Y-8928D01*
X48959Y-9097D02*
X48959Y-8506D01*
X49184Y-8506D01*
X49240Y-8534D01*
X49268Y-8562D01*
X49296Y-8619D01*
X49296Y-8703D01*
X49268Y-8759D01*
X49240Y-8787D01*
X49184Y-8816D01*
X48959Y-8816D01*
X49803Y-9097D02*
X49803Y-8787D01*
X49775Y-8731D01*
X49718Y-8703D01*
X49606Y-8703D01*
X49550Y-8731D01*
X49803Y-9069D02*
X49746Y-9097D01*
X49606Y-9097D01*
X49550Y-9069D01*
X49521Y-9012D01*
X49521Y-8956D01*
X49550Y-8900D01*
X49606Y-8872D01*
X49746Y-8872D01*
X49803Y-8844D01*
X50056Y-9069D02*
X50112Y-9097D01*
X50224Y-9097D01*
X50281Y-9069D01*
X50309Y-9012D01*
X50309Y-8984D01*
X50281Y-8928D01*
X50224Y-8900D01*
X50140Y-8900D01*
X50084Y-8872D01*
X50056Y-8816D01*
X50056Y-8787D01*
X50084Y-8731D01*
X50140Y-8703D01*
X50224Y-8703D01*
X50281Y-8731D01*
X50478Y-8703D02*
X50703Y-8703D01*
X50562Y-8506D02*
X50562Y-9012D01*
X50590Y-9069D01*
X50646Y-9097D01*
X50703Y-9097D01*
X51124Y-9069D02*
X51068Y-9097D01*
X50956Y-9097D01*
X50899Y-9069D01*
X50871Y-9012D01*
X50871Y-8787D01*
X50899Y-8731D01*
X50956Y-8703D01*
X51068Y-8703D01*
X51124Y-8731D01*
X51152Y-8787D01*
X51152Y-8844D01*
X50871Y-8900D01*
M02*
