G04 (created by PCBNEW (2013-07-07 BZR 4022)-stable) date 9/18/2013 13:06:53*
%MOIN*%
G04 Gerber Fmt 3.4, Leading zero omitted, Abs format*
%FSLAX34Y34*%
G01*
G70*
G90*
G04 APERTURE LIST*
%ADD10C,0.00590551*%
%ADD11C,0.011811*%
%ADD12C,0.0590551*%
%ADD13C,0.23622*%
%ADD14C,0.1437*%
%ADD15C,0.0591*%
%ADD16C,0.0866142*%
%ADD17C,0.0255906*%
%ADD18C,0.0314961*%
%ADD19C,0.019685*%
%ADD20C,0.00787402*%
G04 APERTURE END LIST*
G54D10*
G54D11*
X46597Y-6819D02*
X46681Y-6847D01*
X46709Y-6875D01*
X46737Y-6931D01*
X46737Y-7016D01*
X46709Y-7072D01*
X46681Y-7100D01*
X46625Y-7128D01*
X46400Y-7128D01*
X46400Y-6538D01*
X46597Y-6538D01*
X46653Y-6566D01*
X46681Y-6594D01*
X46709Y-6650D01*
X46709Y-6706D01*
X46681Y-6763D01*
X46653Y-6791D01*
X46597Y-6819D01*
X46400Y-6819D01*
X47244Y-7128D02*
X47244Y-6819D01*
X47215Y-6763D01*
X47159Y-6735D01*
X47047Y-6735D01*
X46991Y-6763D01*
X47244Y-7100D02*
X47187Y-7128D01*
X47047Y-7128D01*
X46991Y-7100D01*
X46962Y-7044D01*
X46962Y-6988D01*
X46991Y-6931D01*
X47047Y-6903D01*
X47187Y-6903D01*
X47244Y-6875D01*
X47778Y-7100D02*
X47722Y-7128D01*
X47609Y-7128D01*
X47553Y-7100D01*
X47525Y-7072D01*
X47497Y-7016D01*
X47497Y-6847D01*
X47525Y-6791D01*
X47553Y-6763D01*
X47609Y-6735D01*
X47722Y-6735D01*
X47778Y-6763D01*
X48031Y-7128D02*
X48031Y-6538D01*
X48087Y-6903D02*
X48256Y-7128D01*
X48256Y-6735D02*
X48031Y-6960D01*
X49296Y-7072D02*
X49268Y-7100D01*
X49184Y-7128D01*
X49128Y-7128D01*
X49043Y-7100D01*
X48987Y-7044D01*
X48959Y-6988D01*
X48931Y-6875D01*
X48931Y-6791D01*
X48959Y-6678D01*
X48987Y-6622D01*
X49043Y-6566D01*
X49128Y-6538D01*
X49184Y-6538D01*
X49268Y-6566D01*
X49296Y-6594D01*
X49634Y-7128D02*
X49578Y-7100D01*
X49550Y-7072D01*
X49521Y-7016D01*
X49521Y-6847D01*
X49550Y-6791D01*
X49578Y-6763D01*
X49634Y-6735D01*
X49718Y-6735D01*
X49775Y-6763D01*
X49803Y-6791D01*
X49831Y-6847D01*
X49831Y-7016D01*
X49803Y-7072D01*
X49775Y-7100D01*
X49718Y-7128D01*
X49634Y-7128D01*
X50084Y-6735D02*
X50084Y-7325D01*
X50084Y-6763D02*
X50140Y-6735D01*
X50253Y-6735D01*
X50309Y-6763D01*
X50337Y-6791D01*
X50365Y-6847D01*
X50365Y-7016D01*
X50337Y-7072D01*
X50309Y-7100D01*
X50253Y-7128D01*
X50140Y-7128D01*
X50084Y-7100D01*
X50618Y-6735D02*
X50618Y-7325D01*
X50618Y-6763D02*
X50674Y-6735D01*
X50787Y-6735D01*
X50843Y-6763D01*
X50871Y-6791D01*
X50899Y-6847D01*
X50899Y-7016D01*
X50871Y-7072D01*
X50843Y-7100D01*
X50787Y-7128D01*
X50674Y-7128D01*
X50618Y-7100D01*
X51377Y-7100D02*
X51321Y-7128D01*
X51209Y-7128D01*
X51152Y-7100D01*
X51124Y-7044D01*
X51124Y-6819D01*
X51152Y-6763D01*
X51209Y-6735D01*
X51321Y-6735D01*
X51377Y-6763D01*
X51406Y-6819D01*
X51406Y-6875D01*
X51124Y-6931D01*
X51659Y-7128D02*
X51659Y-6735D01*
X51659Y-6847D02*
X51687Y-6791D01*
X51715Y-6763D01*
X51771Y-6735D01*
X51827Y-6735D01*
G54D12*
X41625Y-16791D03*
X42625Y-16791D03*
X31023Y-6917D03*
X31023Y-5917D03*
X41625Y-19311D03*
X42625Y-19311D03*
X33779Y-6917D03*
X33779Y-5917D03*
X36535Y-6917D03*
X36535Y-5917D03*
X39291Y-6917D03*
X39291Y-5917D03*
G54D13*
X6692Y-6692D03*
X6692Y-22440D03*
X42125Y-22440D03*
X42125Y-6692D03*
G54D14*
X21909Y-6830D03*
X26909Y-6830D03*
G54D15*
X23003Y-7830D03*
X23405Y-8531D03*
X23807Y-7830D03*
X24208Y-8531D03*
X24610Y-7830D03*
X25011Y-8531D03*
X25413Y-7830D03*
X25814Y-8531D03*
G54D16*
X21208Y-8181D03*
X27610Y-8181D03*
G54D14*
X6830Y-14330D03*
X6830Y-9330D03*
G54D15*
X7830Y-13236D03*
X8531Y-12834D03*
X7830Y-12433D03*
X8531Y-12031D03*
X7830Y-11629D03*
X8531Y-11228D03*
X7830Y-10826D03*
X8531Y-10425D03*
G54D16*
X8181Y-15031D03*
X8181Y-8629D03*
G54D14*
X41988Y-9330D03*
X41988Y-14330D03*
G54D15*
X40988Y-10425D03*
X40287Y-10826D03*
X40988Y-11228D03*
X40287Y-11629D03*
X40988Y-12031D03*
X40287Y-12433D03*
X40988Y-12834D03*
X40287Y-13236D03*
G54D16*
X40637Y-8629D03*
X40637Y-15031D03*
G54D14*
X34586Y-22303D03*
X29586Y-22303D03*
G54D15*
X33492Y-21303D03*
X33090Y-20602D03*
X32688Y-21303D03*
X32287Y-20602D03*
X31885Y-21303D03*
X31484Y-20602D03*
X31082Y-21303D03*
X30681Y-20602D03*
G54D16*
X35287Y-20952D03*
X28885Y-20952D03*
G54D14*
X14232Y-6830D03*
X19232Y-6830D03*
G54D15*
X15326Y-7830D03*
X15728Y-8531D03*
X16129Y-7830D03*
X16531Y-8531D03*
X16933Y-7830D03*
X17334Y-8531D03*
X17736Y-7830D03*
X18137Y-8531D03*
G54D16*
X13531Y-8181D03*
X19933Y-8181D03*
G54D14*
X26909Y-22303D03*
X21909Y-22303D03*
G54D15*
X25814Y-21303D03*
X25413Y-20602D03*
X25011Y-21303D03*
X24610Y-20602D03*
X24208Y-21303D03*
X23807Y-20602D03*
X23405Y-21303D03*
X23003Y-20602D03*
G54D16*
X27610Y-20952D03*
X21208Y-20952D03*
G54D17*
X31062Y-18425D03*
X32165Y-17322D03*
G54D18*
X9763Y-19251D03*
X10275Y-19251D03*
X10787Y-19251D03*
G54D17*
X26830Y-16259D03*
X21338Y-16555D03*
X19842Y-16889D03*
X19566Y-19881D03*
X29803Y-19389D03*
X12401Y-11220D03*
X21338Y-14035D03*
X29330Y-14035D03*
X13070Y-11535D03*
X19842Y-14291D03*
X27834Y-14291D03*
X24271Y-19724D03*
X22783Y-19598D03*
X23799Y-18602D03*
X29823Y-10394D03*
X22893Y-11555D03*
X20846Y-11043D03*
X29822Y-9901D03*
X22342Y-9488D03*
X29094Y-9488D03*
X25826Y-14586D03*
X33877Y-14586D03*
X18858Y-14291D03*
X18858Y-15137D03*
X33385Y-15137D03*
G54D18*
X32874Y-12381D03*
X32874Y-9566D03*
G54D17*
X10472Y-10669D03*
X25039Y-11850D03*
X25039Y-12224D03*
X20846Y-15137D03*
X28838Y-15137D03*
X19350Y-14881D03*
X27322Y-14881D03*
X33818Y-17696D03*
X38602Y-17696D03*
G54D18*
X17047Y-20078D03*
X16732Y-19763D03*
X18051Y-15708D03*
X35885Y-16338D03*
X18996Y-12716D03*
X17736Y-15374D03*
X36053Y-9822D03*
X25374Y-13484D03*
X35807Y-14074D03*
G54D19*
X8937Y-18425D02*
X9763Y-19251D01*
X8937Y-18425D02*
X8937Y-17952D01*
X7881Y-13236D02*
X8937Y-14291D01*
X7830Y-13236D02*
X7881Y-13236D01*
X8937Y-17952D02*
X8937Y-14291D01*
X15326Y-7830D02*
X15326Y-7842D01*
X15326Y-7842D02*
X14153Y-9015D01*
X14153Y-9015D02*
X8858Y-9015D01*
X8858Y-9015D02*
X7204Y-10669D01*
X7830Y-11629D02*
X7622Y-11629D01*
X7622Y-11629D02*
X7244Y-12007D01*
X7244Y-12007D02*
X7244Y-12649D01*
X7244Y-12649D02*
X7830Y-13236D01*
X7204Y-11003D02*
X7830Y-11629D01*
X7204Y-10669D02*
X7204Y-11003D01*
G54D20*
X33090Y-20622D02*
X33090Y-18877D01*
X30472Y-16259D02*
X26830Y-16259D01*
X33090Y-18877D02*
X30472Y-16259D01*
X32287Y-20622D02*
X32287Y-18645D01*
X30196Y-16555D02*
X21338Y-16555D01*
X32287Y-18645D02*
X30196Y-16555D01*
X31484Y-20622D02*
X31484Y-18295D01*
X30078Y-16889D02*
X19842Y-16889D01*
X31484Y-18295D02*
X30078Y-16889D01*
X23003Y-20602D02*
X23003Y-20622D01*
X19566Y-19881D02*
X22283Y-19881D01*
X22283Y-19881D02*
X23003Y-20602D01*
X23003Y-20622D02*
X23003Y-20500D01*
X23003Y-20500D02*
X24114Y-19389D01*
X29803Y-19389D02*
X24114Y-19389D01*
X16811Y-11220D02*
X12401Y-11220D01*
X19625Y-14035D02*
X16811Y-11220D01*
X21338Y-14035D02*
X19625Y-14035D01*
X29330Y-14035D02*
X21338Y-14035D01*
X16614Y-11535D02*
X19370Y-14291D01*
X13070Y-11535D02*
X16614Y-11535D01*
X19842Y-14291D02*
X19370Y-14291D01*
X27834Y-14291D02*
X19842Y-14291D01*
X24496Y-19704D02*
X25413Y-20622D01*
X24291Y-19704D02*
X24496Y-19704D01*
X24271Y-19724D02*
X24291Y-19704D01*
X23779Y-18602D02*
X23799Y-18602D01*
X23779Y-18602D02*
X22783Y-19598D01*
X28662Y-11555D02*
X22893Y-11555D01*
X29823Y-10394D02*
X28662Y-11555D01*
X29822Y-9901D02*
X28681Y-11043D01*
X28681Y-11043D02*
X20846Y-11043D01*
X29094Y-9488D02*
X22342Y-9488D01*
X8531Y-12834D02*
X16968Y-12834D01*
X18720Y-14586D02*
X25826Y-14586D01*
X16968Y-12834D02*
X18720Y-14586D01*
X33877Y-14586D02*
X36547Y-14586D01*
X36547Y-14586D02*
X40307Y-10826D01*
X33877Y-14586D02*
X25826Y-14586D01*
X16598Y-12031D02*
X8531Y-12031D01*
X18858Y-14291D02*
X16598Y-12031D01*
X33385Y-15137D02*
X36799Y-15137D01*
X36799Y-15137D02*
X40307Y-11629D01*
X19409Y-15688D02*
X18858Y-15137D01*
X28858Y-15688D02*
X19409Y-15688D01*
X29389Y-15157D02*
X28858Y-15688D01*
X33366Y-15157D02*
X29389Y-15157D01*
X33385Y-15137D02*
X33366Y-15157D01*
G54D19*
X32874Y-9566D02*
X32874Y-12381D01*
G54D20*
X25039Y-11850D02*
X18444Y-11850D01*
X17263Y-10669D02*
X10472Y-10669D01*
X18444Y-11850D02*
X17263Y-10669D01*
X25039Y-12224D02*
X18248Y-12224D01*
X9696Y-10425D02*
X8531Y-10425D01*
X10236Y-10964D02*
X9696Y-10425D01*
X16988Y-10964D02*
X10236Y-10964D01*
X18248Y-12224D02*
X16988Y-10964D01*
X28838Y-15137D02*
X20846Y-15137D01*
X27322Y-14881D02*
X19350Y-14881D01*
X33818Y-17696D02*
X38602Y-17696D01*
G54D19*
X16732Y-19763D02*
X17736Y-18759D01*
X17736Y-18759D02*
X17736Y-16023D01*
X17736Y-16023D02*
X18051Y-15708D01*
X17736Y-16023D02*
X17736Y-15374D01*
X35807Y-10068D02*
X35807Y-14074D01*
X36053Y-9822D02*
X35807Y-10068D01*
X29842Y-13484D02*
X25374Y-13484D01*
X30433Y-14074D02*
X29842Y-13484D01*
X35807Y-14074D02*
X30433Y-14074D01*
G54D10*
G36*
X37204Y-13678D02*
X36473Y-14409D01*
X34076Y-14409D01*
X34028Y-14361D01*
X33931Y-14320D01*
X33825Y-14320D01*
X33727Y-14361D01*
X33679Y-14409D01*
X28073Y-14409D01*
X28100Y-14344D01*
X28100Y-14238D01*
X28089Y-14212D01*
X29132Y-14212D01*
X29179Y-14260D01*
X29277Y-14301D01*
X29383Y-14301D01*
X29481Y-14260D01*
X29555Y-14186D01*
X29596Y-14088D01*
X29596Y-13982D01*
X29556Y-13885D01*
X29481Y-13810D01*
X29383Y-13769D01*
X29278Y-13769D01*
X29180Y-13810D01*
X29132Y-13858D01*
X21537Y-13858D01*
X21489Y-13810D01*
X21391Y-13769D01*
X21285Y-13769D01*
X21188Y-13810D01*
X21139Y-13858D01*
X19699Y-13858D01*
X18241Y-12400D01*
X18248Y-12401D01*
X24840Y-12401D01*
X24888Y-12449D01*
X24986Y-12490D01*
X25091Y-12490D01*
X25189Y-12449D01*
X25264Y-12375D01*
X25278Y-12342D01*
X27684Y-12342D01*
X27800Y-12294D01*
X28362Y-11732D01*
X28662Y-11732D01*
X28730Y-11718D01*
X28730Y-11718D01*
X28787Y-11680D01*
X29808Y-10660D01*
X29876Y-10660D01*
X29973Y-10619D01*
X30048Y-10545D01*
X30089Y-10447D01*
X30089Y-10341D01*
X30048Y-10243D01*
X29974Y-10169D01*
X29940Y-10154D01*
X29964Y-10130D01*
X29973Y-10126D01*
X30047Y-10052D01*
X30051Y-10043D01*
X30393Y-9701D01*
X30480Y-9665D01*
X32595Y-9665D01*
X32623Y-9733D01*
X32637Y-9748D01*
X32637Y-12200D01*
X32623Y-12214D01*
X32578Y-12322D01*
X32578Y-12440D01*
X32623Y-12548D01*
X32706Y-12632D01*
X32815Y-12677D01*
X32932Y-12677D01*
X33041Y-12632D01*
X33124Y-12549D01*
X33169Y-12440D01*
X33169Y-12323D01*
X33124Y-12214D01*
X33110Y-12200D01*
X33110Y-9748D01*
X33124Y-9734D01*
X33152Y-9665D01*
X37168Y-9665D01*
X37204Y-9701D01*
X37204Y-13678D01*
X37204Y-13678D01*
G37*
G54D20*
X37204Y-13678D02*
X36473Y-14409D01*
X34076Y-14409D01*
X34028Y-14361D01*
X33931Y-14320D01*
X33825Y-14320D01*
X33727Y-14361D01*
X33679Y-14409D01*
X28073Y-14409D01*
X28100Y-14344D01*
X28100Y-14238D01*
X28089Y-14212D01*
X29132Y-14212D01*
X29179Y-14260D01*
X29277Y-14301D01*
X29383Y-14301D01*
X29481Y-14260D01*
X29555Y-14186D01*
X29596Y-14088D01*
X29596Y-13982D01*
X29556Y-13885D01*
X29481Y-13810D01*
X29383Y-13769D01*
X29278Y-13769D01*
X29180Y-13810D01*
X29132Y-13858D01*
X21537Y-13858D01*
X21489Y-13810D01*
X21391Y-13769D01*
X21285Y-13769D01*
X21188Y-13810D01*
X21139Y-13858D01*
X19699Y-13858D01*
X18241Y-12400D01*
X18248Y-12401D01*
X24840Y-12401D01*
X24888Y-12449D01*
X24986Y-12490D01*
X25091Y-12490D01*
X25189Y-12449D01*
X25264Y-12375D01*
X25278Y-12342D01*
X27684Y-12342D01*
X27800Y-12294D01*
X28362Y-11732D01*
X28662Y-11732D01*
X28730Y-11718D01*
X28730Y-11718D01*
X28787Y-11680D01*
X29808Y-10660D01*
X29876Y-10660D01*
X29973Y-10619D01*
X30048Y-10545D01*
X30089Y-10447D01*
X30089Y-10341D01*
X30048Y-10243D01*
X29974Y-10169D01*
X29940Y-10154D01*
X29964Y-10130D01*
X29973Y-10126D01*
X30047Y-10052D01*
X30051Y-10043D01*
X30393Y-9701D01*
X30480Y-9665D01*
X32595Y-9665D01*
X32623Y-9733D01*
X32637Y-9748D01*
X32637Y-12200D01*
X32623Y-12214D01*
X32578Y-12322D01*
X32578Y-12440D01*
X32623Y-12548D01*
X32706Y-12632D01*
X32815Y-12677D01*
X32932Y-12677D01*
X33041Y-12632D01*
X33124Y-12549D01*
X33169Y-12440D01*
X33169Y-12323D01*
X33124Y-12214D01*
X33110Y-12200D01*
X33110Y-9748D01*
X33124Y-9734D01*
X33152Y-9665D01*
X37168Y-9665D01*
X37204Y-9701D01*
X37204Y-13678D01*
G54D10*
G36*
X37204Y-20534D02*
X37168Y-20570D01*
X35712Y-20570D01*
X35611Y-20469D01*
X35401Y-20381D01*
X35174Y-20381D01*
X34964Y-20468D01*
X34861Y-20570D01*
X33523Y-20570D01*
X33523Y-20516D01*
X33458Y-20357D01*
X33336Y-20235D01*
X33267Y-20206D01*
X33267Y-18877D01*
X33254Y-18810D01*
X33215Y-18752D01*
X32431Y-17968D01*
X32431Y-17270D01*
X32390Y-17172D01*
X32316Y-17097D01*
X32218Y-17057D01*
X32112Y-17057D01*
X32015Y-17097D01*
X31940Y-17172D01*
X31899Y-17269D01*
X31899Y-17375D01*
X31939Y-17473D01*
X32014Y-17547D01*
X32112Y-17588D01*
X32217Y-17588D01*
X32315Y-17548D01*
X32390Y-17473D01*
X32431Y-17375D01*
X32431Y-17270D01*
X32431Y-17968D01*
X30597Y-16134D01*
X30540Y-16096D01*
X30472Y-16082D01*
X27029Y-16082D01*
X26981Y-16034D01*
X26883Y-15994D01*
X26778Y-15994D01*
X26680Y-16034D01*
X26605Y-16109D01*
X26565Y-16206D01*
X26564Y-16312D01*
X26591Y-16377D01*
X21537Y-16377D01*
X21489Y-16329D01*
X21391Y-16289D01*
X21285Y-16289D01*
X21188Y-16329D01*
X21113Y-16404D01*
X21072Y-16502D01*
X21072Y-16607D01*
X21113Y-16705D01*
X21120Y-16712D01*
X20041Y-16712D01*
X19993Y-16664D01*
X19895Y-16624D01*
X19789Y-16623D01*
X19692Y-16664D01*
X19617Y-16739D01*
X19576Y-16836D01*
X19576Y-16942D01*
X19617Y-17040D01*
X19691Y-17114D01*
X19789Y-17155D01*
X19895Y-17155D01*
X19992Y-17115D01*
X20041Y-17066D01*
X30005Y-17066D01*
X31097Y-18159D01*
X31010Y-18159D01*
X30912Y-18199D01*
X30837Y-18274D01*
X30797Y-18372D01*
X30797Y-18477D01*
X30837Y-18575D01*
X30912Y-18650D01*
X31009Y-18690D01*
X31115Y-18690D01*
X31213Y-18650D01*
X31288Y-18575D01*
X31307Y-18530D01*
X31307Y-20206D01*
X31239Y-20234D01*
X31117Y-20356D01*
X31082Y-20439D01*
X31048Y-20357D01*
X30926Y-20235D01*
X30767Y-20169D01*
X30595Y-20168D01*
X30435Y-20234D01*
X30313Y-20356D01*
X30247Y-20515D01*
X30247Y-20570D01*
X29311Y-20570D01*
X29209Y-20469D01*
X28999Y-20381D01*
X28772Y-20381D01*
X28562Y-20468D01*
X28460Y-20570D01*
X28035Y-20570D01*
X27934Y-20469D01*
X27724Y-20381D01*
X27497Y-20381D01*
X27287Y-20468D01*
X27184Y-20570D01*
X25846Y-20570D01*
X25846Y-20516D01*
X25780Y-20357D01*
X25659Y-20235D01*
X25499Y-20169D01*
X25327Y-20168D01*
X25245Y-20203D01*
X24621Y-19579D01*
X24602Y-19566D01*
X29604Y-19566D01*
X29652Y-19614D01*
X29750Y-19655D01*
X29855Y-19655D01*
X29953Y-19615D01*
X30028Y-19540D01*
X30068Y-19442D01*
X30068Y-19337D01*
X30028Y-19239D01*
X29953Y-19164D01*
X29856Y-19124D01*
X29750Y-19123D01*
X29652Y-19164D01*
X29604Y-19212D01*
X24114Y-19212D01*
X24065Y-19222D01*
X24065Y-18549D01*
X24024Y-18452D01*
X23949Y-18377D01*
X23852Y-18336D01*
X23746Y-18336D01*
X23648Y-18376D01*
X23574Y-18451D01*
X23533Y-18549D01*
X23533Y-18597D01*
X22798Y-19332D01*
X22730Y-19332D01*
X22633Y-19373D01*
X22558Y-19447D01*
X22517Y-19545D01*
X22517Y-19651D01*
X22558Y-19748D01*
X22632Y-19823D01*
X22730Y-19864D01*
X22836Y-19864D01*
X22933Y-19823D01*
X23008Y-19749D01*
X23049Y-19651D01*
X23049Y-19583D01*
X23764Y-18868D01*
X23851Y-18868D01*
X23949Y-18827D01*
X24024Y-18753D01*
X24064Y-18655D01*
X24065Y-18549D01*
X24065Y-19222D01*
X24046Y-19226D01*
X23988Y-19264D01*
X23084Y-20169D01*
X22918Y-20168D01*
X22849Y-20197D01*
X22408Y-19756D01*
X22351Y-19718D01*
X22283Y-19704D01*
X19765Y-19704D01*
X19717Y-19656D01*
X19620Y-19616D01*
X19514Y-19616D01*
X19416Y-19656D01*
X19341Y-19731D01*
X19301Y-19828D01*
X19301Y-19934D01*
X19341Y-20032D01*
X19416Y-20107D01*
X19513Y-20147D01*
X19619Y-20147D01*
X19717Y-20107D01*
X19765Y-20059D01*
X22210Y-20059D01*
X22598Y-20447D01*
X22570Y-20515D01*
X22570Y-20570D01*
X21634Y-20570D01*
X21532Y-20469D01*
X21322Y-20381D01*
X21095Y-20381D01*
X20885Y-20468D01*
X20783Y-20570D01*
X13598Y-20570D01*
X13562Y-20534D01*
X13562Y-13011D01*
X16895Y-13011D01*
X18595Y-14711D01*
X18652Y-14750D01*
X18720Y-14763D01*
X19111Y-14763D01*
X19084Y-14828D01*
X19084Y-14934D01*
X19124Y-15032D01*
X19199Y-15107D01*
X19297Y-15147D01*
X19403Y-15147D01*
X19500Y-15107D01*
X19549Y-15059D01*
X20591Y-15059D01*
X20580Y-15084D01*
X20580Y-15190D01*
X20621Y-15288D01*
X20695Y-15362D01*
X20793Y-15403D01*
X20899Y-15403D01*
X20996Y-15363D01*
X21045Y-15314D01*
X28639Y-15314D01*
X28687Y-15362D01*
X28785Y-15403D01*
X28891Y-15403D01*
X28894Y-15402D01*
X28784Y-15511D01*
X19482Y-15511D01*
X19124Y-15152D01*
X19124Y-15085D01*
X19083Y-14987D01*
X19008Y-14912D01*
X18911Y-14872D01*
X18805Y-14872D01*
X18707Y-14912D01*
X18633Y-14987D01*
X18592Y-15084D01*
X18592Y-15190D01*
X18632Y-15288D01*
X18707Y-15362D01*
X18805Y-15403D01*
X18873Y-15403D01*
X19284Y-15814D01*
X19284Y-15814D01*
X19341Y-15852D01*
X19409Y-15866D01*
X19409Y-15866D01*
X28858Y-15866D01*
X28926Y-15852D01*
X28926Y-15852D01*
X28983Y-15814D01*
X29463Y-15334D01*
X33206Y-15334D01*
X33235Y-15362D01*
X33332Y-15403D01*
X33438Y-15403D01*
X33536Y-15363D01*
X33584Y-15314D01*
X36799Y-15314D01*
X36867Y-15301D01*
X36867Y-15301D01*
X36924Y-15263D01*
X37204Y-14982D01*
X37204Y-17519D01*
X34017Y-17519D01*
X33969Y-17471D01*
X33871Y-17431D01*
X33766Y-17431D01*
X33668Y-17471D01*
X33593Y-17546D01*
X33553Y-17643D01*
X33553Y-17749D01*
X33593Y-17847D01*
X33668Y-17922D01*
X33765Y-17962D01*
X33871Y-17962D01*
X33969Y-17922D01*
X34017Y-17874D01*
X37204Y-17874D01*
X37204Y-20534D01*
X37204Y-20534D01*
G37*
G54D20*
X37204Y-20534D02*
X37168Y-20570D01*
X35712Y-20570D01*
X35611Y-20469D01*
X35401Y-20381D01*
X35174Y-20381D01*
X34964Y-20468D01*
X34861Y-20570D01*
X33523Y-20570D01*
X33523Y-20516D01*
X33458Y-20357D01*
X33336Y-20235D01*
X33267Y-20206D01*
X33267Y-18877D01*
X33254Y-18810D01*
X33215Y-18752D01*
X32431Y-17968D01*
X32431Y-17270D01*
X32390Y-17172D01*
X32316Y-17097D01*
X32218Y-17057D01*
X32112Y-17057D01*
X32015Y-17097D01*
X31940Y-17172D01*
X31899Y-17269D01*
X31899Y-17375D01*
X31939Y-17473D01*
X32014Y-17547D01*
X32112Y-17588D01*
X32217Y-17588D01*
X32315Y-17548D01*
X32390Y-17473D01*
X32431Y-17375D01*
X32431Y-17270D01*
X32431Y-17968D01*
X30597Y-16134D01*
X30540Y-16096D01*
X30472Y-16082D01*
X27029Y-16082D01*
X26981Y-16034D01*
X26883Y-15994D01*
X26778Y-15994D01*
X26680Y-16034D01*
X26605Y-16109D01*
X26565Y-16206D01*
X26564Y-16312D01*
X26591Y-16377D01*
X21537Y-16377D01*
X21489Y-16329D01*
X21391Y-16289D01*
X21285Y-16289D01*
X21188Y-16329D01*
X21113Y-16404D01*
X21072Y-16502D01*
X21072Y-16607D01*
X21113Y-16705D01*
X21120Y-16712D01*
X20041Y-16712D01*
X19993Y-16664D01*
X19895Y-16624D01*
X19789Y-16623D01*
X19692Y-16664D01*
X19617Y-16739D01*
X19576Y-16836D01*
X19576Y-16942D01*
X19617Y-17040D01*
X19691Y-17114D01*
X19789Y-17155D01*
X19895Y-17155D01*
X19992Y-17115D01*
X20041Y-17066D01*
X30005Y-17066D01*
X31097Y-18159D01*
X31010Y-18159D01*
X30912Y-18199D01*
X30837Y-18274D01*
X30797Y-18372D01*
X30797Y-18477D01*
X30837Y-18575D01*
X30912Y-18650D01*
X31009Y-18690D01*
X31115Y-18690D01*
X31213Y-18650D01*
X31288Y-18575D01*
X31307Y-18530D01*
X31307Y-20206D01*
X31239Y-20234D01*
X31117Y-20356D01*
X31082Y-20439D01*
X31048Y-20357D01*
X30926Y-20235D01*
X30767Y-20169D01*
X30595Y-20168D01*
X30435Y-20234D01*
X30313Y-20356D01*
X30247Y-20515D01*
X30247Y-20570D01*
X29311Y-20570D01*
X29209Y-20469D01*
X28999Y-20381D01*
X28772Y-20381D01*
X28562Y-20468D01*
X28460Y-20570D01*
X28035Y-20570D01*
X27934Y-20469D01*
X27724Y-20381D01*
X27497Y-20381D01*
X27287Y-20468D01*
X27184Y-20570D01*
X25846Y-20570D01*
X25846Y-20516D01*
X25780Y-20357D01*
X25659Y-20235D01*
X25499Y-20169D01*
X25327Y-20168D01*
X25245Y-20203D01*
X24621Y-19579D01*
X24602Y-19566D01*
X29604Y-19566D01*
X29652Y-19614D01*
X29750Y-19655D01*
X29855Y-19655D01*
X29953Y-19615D01*
X30028Y-19540D01*
X30068Y-19442D01*
X30068Y-19337D01*
X30028Y-19239D01*
X29953Y-19164D01*
X29856Y-19124D01*
X29750Y-19123D01*
X29652Y-19164D01*
X29604Y-19212D01*
X24114Y-19212D01*
X24065Y-19222D01*
X24065Y-18549D01*
X24024Y-18452D01*
X23949Y-18377D01*
X23852Y-18336D01*
X23746Y-18336D01*
X23648Y-18376D01*
X23574Y-18451D01*
X23533Y-18549D01*
X23533Y-18597D01*
X22798Y-19332D01*
X22730Y-19332D01*
X22633Y-19373D01*
X22558Y-19447D01*
X22517Y-19545D01*
X22517Y-19651D01*
X22558Y-19748D01*
X22632Y-19823D01*
X22730Y-19864D01*
X22836Y-19864D01*
X22933Y-19823D01*
X23008Y-19749D01*
X23049Y-19651D01*
X23049Y-19583D01*
X23764Y-18868D01*
X23851Y-18868D01*
X23949Y-18827D01*
X24024Y-18753D01*
X24064Y-18655D01*
X24065Y-18549D01*
X24065Y-19222D01*
X24046Y-19226D01*
X23988Y-19264D01*
X23084Y-20169D01*
X22918Y-20168D01*
X22849Y-20197D01*
X22408Y-19756D01*
X22351Y-19718D01*
X22283Y-19704D01*
X19765Y-19704D01*
X19717Y-19656D01*
X19620Y-19616D01*
X19514Y-19616D01*
X19416Y-19656D01*
X19341Y-19731D01*
X19301Y-19828D01*
X19301Y-19934D01*
X19341Y-20032D01*
X19416Y-20107D01*
X19513Y-20147D01*
X19619Y-20147D01*
X19717Y-20107D01*
X19765Y-20059D01*
X22210Y-20059D01*
X22598Y-20447D01*
X22570Y-20515D01*
X22570Y-20570D01*
X21634Y-20570D01*
X21532Y-20469D01*
X21322Y-20381D01*
X21095Y-20381D01*
X20885Y-20468D01*
X20783Y-20570D01*
X13598Y-20570D01*
X13562Y-20534D01*
X13562Y-13011D01*
X16895Y-13011D01*
X18595Y-14711D01*
X18652Y-14750D01*
X18720Y-14763D01*
X19111Y-14763D01*
X19084Y-14828D01*
X19084Y-14934D01*
X19124Y-15032D01*
X19199Y-15107D01*
X19297Y-15147D01*
X19403Y-15147D01*
X19500Y-15107D01*
X19549Y-15059D01*
X20591Y-15059D01*
X20580Y-15084D01*
X20580Y-15190D01*
X20621Y-15288D01*
X20695Y-15362D01*
X20793Y-15403D01*
X20899Y-15403D01*
X20996Y-15363D01*
X21045Y-15314D01*
X28639Y-15314D01*
X28687Y-15362D01*
X28785Y-15403D01*
X28891Y-15403D01*
X28894Y-15402D01*
X28784Y-15511D01*
X19482Y-15511D01*
X19124Y-15152D01*
X19124Y-15085D01*
X19083Y-14987D01*
X19008Y-14912D01*
X18911Y-14872D01*
X18805Y-14872D01*
X18707Y-14912D01*
X18633Y-14987D01*
X18592Y-15084D01*
X18592Y-15190D01*
X18632Y-15288D01*
X18707Y-15362D01*
X18805Y-15403D01*
X18873Y-15403D01*
X19284Y-15814D01*
X19284Y-15814D01*
X19341Y-15852D01*
X19409Y-15866D01*
X19409Y-15866D01*
X28858Y-15866D01*
X28926Y-15852D01*
X28926Y-15852D01*
X28983Y-15814D01*
X29463Y-15334D01*
X33206Y-15334D01*
X33235Y-15362D01*
X33332Y-15403D01*
X33438Y-15403D01*
X33536Y-15363D01*
X33584Y-15314D01*
X36799Y-15314D01*
X36867Y-15301D01*
X36867Y-15301D01*
X36924Y-15263D01*
X37204Y-14982D01*
X37204Y-17519D01*
X34017Y-17519D01*
X33969Y-17471D01*
X33871Y-17431D01*
X33766Y-17431D01*
X33668Y-17471D01*
X33593Y-17546D01*
X33553Y-17643D01*
X33553Y-17749D01*
X33593Y-17847D01*
X33668Y-17922D01*
X33765Y-17962D01*
X33871Y-17962D01*
X33969Y-17922D01*
X34017Y-17874D01*
X37204Y-17874D01*
X37204Y-20534D01*
G54D10*
G36*
X43927Y-24242D02*
X43445Y-24242D01*
X43445Y-22179D01*
X43445Y-6431D01*
X43244Y-5946D01*
X42874Y-5575D01*
X42389Y-5374D01*
X41864Y-5373D01*
X41379Y-5574D01*
X41008Y-5944D01*
X40807Y-6429D01*
X40806Y-6954D01*
X41007Y-7439D01*
X41377Y-7810D01*
X41862Y-8011D01*
X42387Y-8012D01*
X42872Y-7811D01*
X43243Y-7440D01*
X43444Y-6956D01*
X43445Y-6431D01*
X43445Y-22179D01*
X43244Y-21694D01*
X43059Y-21508D01*
X43059Y-19225D01*
X43059Y-16705D01*
X42993Y-16546D01*
X42871Y-16424D01*
X42844Y-16413D01*
X42844Y-14161D01*
X42844Y-9161D01*
X42714Y-8846D01*
X42473Y-8605D01*
X42159Y-8474D01*
X41818Y-8474D01*
X41503Y-8604D01*
X41262Y-8845D01*
X41208Y-8974D01*
X41208Y-8516D01*
X41122Y-8306D01*
X40961Y-8146D01*
X40751Y-8059D01*
X40524Y-8058D01*
X40314Y-8145D01*
X40154Y-8306D01*
X40067Y-8515D01*
X40066Y-8742D01*
X40153Y-8952D01*
X40314Y-9113D01*
X40523Y-9200D01*
X40750Y-9200D01*
X40960Y-9114D01*
X41121Y-8953D01*
X41208Y-8743D01*
X41208Y-8516D01*
X41208Y-8974D01*
X41132Y-9159D01*
X41131Y-9500D01*
X41261Y-9815D01*
X41502Y-10056D01*
X41817Y-10186D01*
X42157Y-10187D01*
X42472Y-10057D01*
X42713Y-9816D01*
X42844Y-9501D01*
X42844Y-9161D01*
X42844Y-14161D01*
X42714Y-13846D01*
X42473Y-13605D01*
X42159Y-13474D01*
X41818Y-13474D01*
X41523Y-13596D01*
X41523Y-11926D01*
X41523Y-10320D01*
X41442Y-10123D01*
X41440Y-10120D01*
X41345Y-10096D01*
X41317Y-10123D01*
X41317Y-10068D01*
X41292Y-9972D01*
X41096Y-9890D01*
X40883Y-9889D01*
X40686Y-9970D01*
X40683Y-9972D01*
X40659Y-10068D01*
X40988Y-10397D01*
X41317Y-10068D01*
X41317Y-10123D01*
X41016Y-10425D01*
X41345Y-10754D01*
X41440Y-10729D01*
X41522Y-10533D01*
X41523Y-10320D01*
X41523Y-11926D01*
X41442Y-11729D01*
X41440Y-11727D01*
X41345Y-11702D01*
X41016Y-12031D01*
X41345Y-12360D01*
X41440Y-12335D01*
X41522Y-12139D01*
X41523Y-11926D01*
X41523Y-13596D01*
X41503Y-13604D01*
X41421Y-13686D01*
X41421Y-12748D01*
X41355Y-12589D01*
X41263Y-12496D01*
X41289Y-12485D01*
X41292Y-12483D01*
X41317Y-12388D01*
X40988Y-12059D01*
X40982Y-12064D01*
X40954Y-12037D01*
X40960Y-12031D01*
X40954Y-12025D01*
X40982Y-11998D01*
X40988Y-12003D01*
X41317Y-11674D01*
X41292Y-11579D01*
X41262Y-11566D01*
X41355Y-11474D01*
X41421Y-11314D01*
X41421Y-11142D01*
X41355Y-10983D01*
X41263Y-10890D01*
X41289Y-10879D01*
X41292Y-10877D01*
X41317Y-10782D01*
X40988Y-10453D01*
X40982Y-10458D01*
X40954Y-10430D01*
X40960Y-10425D01*
X40631Y-10096D01*
X40535Y-10120D01*
X40453Y-10317D01*
X40453Y-10426D01*
X40373Y-10393D01*
X40201Y-10393D01*
X40042Y-10459D01*
X39920Y-10581D01*
X39854Y-10740D01*
X39854Y-10912D01*
X39888Y-10995D01*
X39724Y-11158D01*
X39724Y-6831D01*
X39724Y-5831D01*
X39658Y-5672D01*
X39536Y-5550D01*
X39377Y-5484D01*
X39205Y-5484D01*
X39046Y-5549D01*
X38924Y-5671D01*
X38858Y-5830D01*
X38858Y-6003D01*
X38923Y-6162D01*
X39045Y-6284D01*
X39204Y-6350D01*
X39377Y-6350D01*
X39536Y-6284D01*
X39658Y-6162D01*
X39724Y-6003D01*
X39724Y-5831D01*
X39724Y-6831D01*
X39658Y-6672D01*
X39536Y-6550D01*
X39377Y-6484D01*
X39205Y-6484D01*
X39046Y-6549D01*
X38924Y-6671D01*
X38858Y-6830D01*
X38858Y-7003D01*
X38923Y-7162D01*
X39045Y-7284D01*
X39204Y-7350D01*
X39377Y-7350D01*
X39536Y-7284D01*
X39658Y-7162D01*
X39724Y-7003D01*
X39724Y-6831D01*
X39724Y-11158D01*
X37677Y-13206D01*
X37677Y-9275D01*
X37595Y-9192D01*
X36968Y-9192D01*
X36968Y-6831D01*
X36968Y-5831D01*
X36902Y-5672D01*
X36781Y-5550D01*
X36621Y-5484D01*
X36449Y-5484D01*
X36290Y-5549D01*
X36168Y-5671D01*
X36102Y-5830D01*
X36102Y-6003D01*
X36168Y-6162D01*
X36289Y-6284D01*
X36448Y-6350D01*
X36621Y-6350D01*
X36780Y-6284D01*
X36902Y-6162D01*
X36968Y-6003D01*
X36968Y-5831D01*
X36968Y-6831D01*
X36902Y-6672D01*
X36781Y-6550D01*
X36621Y-6484D01*
X36449Y-6484D01*
X36290Y-6549D01*
X36168Y-6671D01*
X36102Y-6830D01*
X36102Y-7003D01*
X36168Y-7162D01*
X36289Y-7284D01*
X36448Y-7350D01*
X36621Y-7350D01*
X36780Y-7284D01*
X36902Y-7162D01*
X36968Y-7003D01*
X36968Y-6831D01*
X36968Y-9192D01*
X34212Y-9192D01*
X34212Y-6831D01*
X34212Y-5831D01*
X34146Y-5672D01*
X34025Y-5550D01*
X33866Y-5484D01*
X33693Y-5484D01*
X33534Y-5549D01*
X33412Y-5671D01*
X33346Y-5830D01*
X33346Y-6003D01*
X33412Y-6162D01*
X33533Y-6284D01*
X33693Y-6350D01*
X33865Y-6350D01*
X34024Y-6284D01*
X34146Y-6162D01*
X34212Y-6003D01*
X34212Y-5831D01*
X34212Y-6831D01*
X34146Y-6672D01*
X34025Y-6550D01*
X33866Y-6484D01*
X33693Y-6484D01*
X33534Y-6549D01*
X33412Y-6671D01*
X33346Y-6830D01*
X33346Y-7003D01*
X33412Y-7162D01*
X33533Y-7284D01*
X33693Y-7350D01*
X33865Y-7350D01*
X34024Y-7284D01*
X34146Y-7162D01*
X34212Y-7003D01*
X34212Y-6831D01*
X34212Y-9192D01*
X31456Y-9192D01*
X31456Y-6831D01*
X31456Y-5831D01*
X31390Y-5672D01*
X31269Y-5550D01*
X31110Y-5484D01*
X30937Y-5484D01*
X30778Y-5549D01*
X30656Y-5671D01*
X30590Y-5830D01*
X30590Y-6003D01*
X30656Y-6162D01*
X30777Y-6284D01*
X30937Y-6350D01*
X31109Y-6350D01*
X31268Y-6284D01*
X31390Y-6162D01*
X31456Y-6003D01*
X31456Y-5831D01*
X31456Y-6831D01*
X31390Y-6672D01*
X31269Y-6550D01*
X31110Y-6484D01*
X30937Y-6484D01*
X30778Y-6549D01*
X30656Y-6671D01*
X30590Y-6830D01*
X30590Y-7003D01*
X30656Y-7162D01*
X30777Y-7284D01*
X30937Y-7350D01*
X31109Y-7350D01*
X31268Y-7284D01*
X31390Y-7162D01*
X31456Y-7003D01*
X31456Y-6831D01*
X31456Y-9192D01*
X30070Y-9192D01*
X29955Y-9240D01*
X29360Y-9836D01*
X29360Y-9435D01*
X29319Y-9337D01*
X29245Y-9263D01*
X29147Y-9222D01*
X29041Y-9222D01*
X28944Y-9262D01*
X28895Y-9311D01*
X28181Y-9311D01*
X28181Y-8068D01*
X28094Y-7858D01*
X27934Y-7697D01*
X27765Y-7627D01*
X27765Y-6661D01*
X27635Y-6346D01*
X27395Y-6105D01*
X27080Y-5974D01*
X26739Y-5974D01*
X26425Y-6104D01*
X26183Y-6345D01*
X26053Y-6659D01*
X26053Y-7000D01*
X26183Y-7315D01*
X26423Y-7556D01*
X26738Y-7686D01*
X27079Y-7687D01*
X27393Y-7557D01*
X27634Y-7316D01*
X27765Y-7001D01*
X27765Y-6661D01*
X27765Y-7627D01*
X27724Y-7610D01*
X27497Y-7610D01*
X27287Y-7696D01*
X27126Y-7857D01*
X27039Y-8067D01*
X27039Y-8294D01*
X27125Y-8504D01*
X27286Y-8664D01*
X27496Y-8751D01*
X27723Y-8752D01*
X27933Y-8665D01*
X28093Y-8504D01*
X28181Y-8295D01*
X28181Y-8068D01*
X28181Y-9311D01*
X26248Y-9311D01*
X26248Y-8445D01*
X26182Y-8286D01*
X26060Y-8164D01*
X25901Y-8098D01*
X25758Y-8098D01*
X25780Y-8076D01*
X25846Y-7917D01*
X25846Y-7744D01*
X25780Y-7585D01*
X25659Y-7463D01*
X25499Y-7397D01*
X25327Y-7397D01*
X25168Y-7463D01*
X25075Y-7555D01*
X25064Y-7529D01*
X25062Y-7526D01*
X24967Y-7501D01*
X24939Y-7529D01*
X24939Y-7473D01*
X24914Y-7378D01*
X24718Y-7296D01*
X24505Y-7295D01*
X24308Y-7376D01*
X24305Y-7378D01*
X24281Y-7473D01*
X24610Y-7802D01*
X24939Y-7473D01*
X24939Y-7529D01*
X24638Y-7830D01*
X24643Y-7836D01*
X24615Y-7864D01*
X24610Y-7858D01*
X24604Y-7864D01*
X24576Y-7836D01*
X24582Y-7830D01*
X24253Y-7501D01*
X24157Y-7526D01*
X24145Y-7556D01*
X24052Y-7463D01*
X23893Y-7397D01*
X23721Y-7397D01*
X23561Y-7463D01*
X23469Y-7555D01*
X23458Y-7529D01*
X23456Y-7526D01*
X23360Y-7501D01*
X23333Y-7529D01*
X23333Y-7473D01*
X23308Y-7378D01*
X23112Y-7296D01*
X22899Y-7295D01*
X22765Y-7350D01*
X22765Y-6661D01*
X22635Y-6346D01*
X22395Y-6105D01*
X22080Y-5974D01*
X21739Y-5974D01*
X21425Y-6104D01*
X21183Y-6345D01*
X21053Y-6659D01*
X21053Y-7000D01*
X21183Y-7315D01*
X21423Y-7556D01*
X21738Y-7686D01*
X22079Y-7687D01*
X22393Y-7557D01*
X22634Y-7316D01*
X22765Y-7001D01*
X22765Y-6661D01*
X22765Y-7350D01*
X22702Y-7376D01*
X22699Y-7378D01*
X22674Y-7473D01*
X23003Y-7802D01*
X23333Y-7473D01*
X23333Y-7529D01*
X23031Y-7830D01*
X23037Y-7836D01*
X23009Y-7864D01*
X23003Y-7858D01*
X22976Y-7886D01*
X22976Y-7830D01*
X22646Y-7501D01*
X22551Y-7526D01*
X22469Y-7722D01*
X22468Y-7935D01*
X22549Y-8132D01*
X22551Y-8135D01*
X22646Y-8159D01*
X22976Y-7830D01*
X22976Y-7886D01*
X22674Y-8187D01*
X22699Y-8283D01*
X22895Y-8365D01*
X23005Y-8365D01*
X22972Y-8444D01*
X22972Y-8617D01*
X23037Y-8776D01*
X23159Y-8898D01*
X23318Y-8964D01*
X23491Y-8964D01*
X23650Y-8899D01*
X23772Y-8777D01*
X23807Y-8694D01*
X23841Y-8776D01*
X23962Y-8898D01*
X24122Y-8964D01*
X24294Y-8964D01*
X24453Y-8899D01*
X24575Y-8777D01*
X24610Y-8694D01*
X24644Y-8776D01*
X24766Y-8898D01*
X24925Y-8964D01*
X25097Y-8964D01*
X25256Y-8899D01*
X25378Y-8777D01*
X25413Y-8694D01*
X25447Y-8776D01*
X25569Y-8898D01*
X25728Y-8964D01*
X25900Y-8964D01*
X26060Y-8899D01*
X26182Y-8777D01*
X26248Y-8618D01*
X26248Y-8445D01*
X26248Y-9311D01*
X22541Y-9311D01*
X22493Y-9263D01*
X22395Y-9222D01*
X22289Y-9222D01*
X22192Y-9262D01*
X22117Y-9337D01*
X22076Y-9435D01*
X22076Y-9540D01*
X22117Y-9638D01*
X22191Y-9713D01*
X22289Y-9753D01*
X22395Y-9753D01*
X22492Y-9713D01*
X22541Y-9665D01*
X28895Y-9665D01*
X28943Y-9713D01*
X29041Y-9753D01*
X29147Y-9753D01*
X29244Y-9713D01*
X29319Y-9638D01*
X29360Y-9541D01*
X29360Y-9435D01*
X29360Y-9836D01*
X28330Y-10866D01*
X21779Y-10866D01*
X21779Y-8068D01*
X21692Y-7858D01*
X21532Y-7697D01*
X21322Y-7610D01*
X21095Y-7610D01*
X20885Y-7696D01*
X20724Y-7857D01*
X20637Y-8067D01*
X20637Y-8294D01*
X20724Y-8504D01*
X20884Y-8664D01*
X21094Y-8751D01*
X21321Y-8752D01*
X21531Y-8665D01*
X21692Y-8504D01*
X21779Y-8295D01*
X21779Y-8068D01*
X21779Y-10866D01*
X21045Y-10866D01*
X20997Y-10818D01*
X20899Y-10777D01*
X20793Y-10777D01*
X20696Y-10817D01*
X20621Y-10892D01*
X20580Y-10990D01*
X20580Y-11095D01*
X20621Y-11193D01*
X20695Y-11268D01*
X20793Y-11309D01*
X20899Y-11309D01*
X20996Y-11268D01*
X21045Y-11220D01*
X27975Y-11220D01*
X27818Y-11377D01*
X23092Y-11377D01*
X23044Y-11329D01*
X22946Y-11289D01*
X22841Y-11289D01*
X22743Y-11329D01*
X22668Y-11404D01*
X22627Y-11502D01*
X22627Y-11607D01*
X22654Y-11673D01*
X20504Y-11673D01*
X20504Y-8068D01*
X20417Y-7858D01*
X20256Y-7697D01*
X20088Y-7627D01*
X20088Y-6661D01*
X19958Y-6346D01*
X19717Y-6105D01*
X19403Y-5974D01*
X19062Y-5974D01*
X18747Y-6104D01*
X18506Y-6345D01*
X18376Y-6659D01*
X18375Y-7000D01*
X18505Y-7315D01*
X18746Y-7556D01*
X19061Y-7686D01*
X19401Y-7687D01*
X19716Y-7557D01*
X19957Y-7316D01*
X20088Y-7001D01*
X20088Y-6661D01*
X20088Y-7627D01*
X20047Y-7610D01*
X19820Y-7610D01*
X19610Y-7696D01*
X19449Y-7857D01*
X19362Y-8067D01*
X19362Y-8294D01*
X19448Y-8504D01*
X19609Y-8664D01*
X19819Y-8751D01*
X20046Y-8752D01*
X20256Y-8665D01*
X20416Y-8504D01*
X20503Y-8295D01*
X20504Y-8068D01*
X20504Y-11673D01*
X18571Y-11673D01*
X18571Y-8445D01*
X18505Y-8286D01*
X18383Y-8164D01*
X18224Y-8098D01*
X18081Y-8098D01*
X18103Y-8076D01*
X18169Y-7917D01*
X18169Y-7744D01*
X18103Y-7585D01*
X17981Y-7463D01*
X17822Y-7397D01*
X17650Y-7397D01*
X17491Y-7463D01*
X17398Y-7555D01*
X17387Y-7529D01*
X17385Y-7526D01*
X17290Y-7501D01*
X17262Y-7529D01*
X17262Y-7473D01*
X17237Y-7378D01*
X17041Y-7296D01*
X16828Y-7295D01*
X16631Y-7376D01*
X16628Y-7378D01*
X16603Y-7473D01*
X16933Y-7802D01*
X17262Y-7473D01*
X17262Y-7529D01*
X16960Y-7830D01*
X16966Y-7836D01*
X16938Y-7864D01*
X16933Y-7858D01*
X16927Y-7864D01*
X16899Y-7836D01*
X16905Y-7830D01*
X16576Y-7501D01*
X16480Y-7526D01*
X16468Y-7556D01*
X16375Y-7463D01*
X16216Y-7397D01*
X16044Y-7397D01*
X15884Y-7463D01*
X15792Y-7555D01*
X15781Y-7529D01*
X15779Y-7526D01*
X15683Y-7501D01*
X15655Y-7529D01*
X15655Y-7473D01*
X15631Y-7378D01*
X15434Y-7296D01*
X15222Y-7295D01*
X15088Y-7350D01*
X15088Y-6661D01*
X14958Y-6346D01*
X14717Y-6105D01*
X14403Y-5974D01*
X14062Y-5974D01*
X13747Y-6104D01*
X13506Y-6345D01*
X13376Y-6659D01*
X13375Y-7000D01*
X13505Y-7315D01*
X13746Y-7556D01*
X14061Y-7686D01*
X14401Y-7687D01*
X14716Y-7557D01*
X14957Y-7316D01*
X15088Y-7001D01*
X15088Y-6661D01*
X15088Y-7350D01*
X15025Y-7376D01*
X15022Y-7378D01*
X14997Y-7473D01*
X15326Y-7802D01*
X15655Y-7473D01*
X15655Y-7529D01*
X15354Y-7830D01*
X15360Y-7836D01*
X15332Y-7864D01*
X15326Y-7858D01*
X15298Y-7886D01*
X15298Y-7830D01*
X14969Y-7501D01*
X14874Y-7526D01*
X14792Y-7722D01*
X14791Y-7935D01*
X14872Y-8132D01*
X14874Y-8135D01*
X14969Y-8159D01*
X15298Y-7830D01*
X15298Y-7886D01*
X14997Y-8187D01*
X15022Y-8283D01*
X15218Y-8365D01*
X15328Y-8365D01*
X15295Y-8444D01*
X15294Y-8617D01*
X15360Y-8776D01*
X15482Y-8898D01*
X15641Y-8964D01*
X15814Y-8964D01*
X15973Y-8899D01*
X16095Y-8777D01*
X16129Y-8694D01*
X16163Y-8776D01*
X16285Y-8898D01*
X16444Y-8964D01*
X16617Y-8964D01*
X16776Y-8899D01*
X16898Y-8777D01*
X16933Y-8694D01*
X16967Y-8776D01*
X17088Y-8898D01*
X17248Y-8964D01*
X17420Y-8964D01*
X17579Y-8899D01*
X17701Y-8777D01*
X17736Y-8694D01*
X17770Y-8776D01*
X17892Y-8898D01*
X18051Y-8964D01*
X18223Y-8964D01*
X18382Y-8899D01*
X18504Y-8777D01*
X18571Y-8618D01*
X18571Y-8445D01*
X18571Y-11673D01*
X18518Y-11673D01*
X17389Y-10544D01*
X17331Y-10505D01*
X17263Y-10492D01*
X14102Y-10492D01*
X14102Y-8068D01*
X14015Y-7858D01*
X13855Y-7697D01*
X13645Y-7610D01*
X13418Y-7610D01*
X13208Y-7696D01*
X13047Y-7857D01*
X12960Y-8067D01*
X12960Y-8294D01*
X13047Y-8504D01*
X13207Y-8664D01*
X13417Y-8751D01*
X13644Y-8752D01*
X13854Y-8665D01*
X14015Y-8504D01*
X14102Y-8295D01*
X14102Y-8068D01*
X14102Y-10492D01*
X10671Y-10492D01*
X10623Y-10444D01*
X10525Y-10403D01*
X10419Y-10403D01*
X10322Y-10443D01*
X10247Y-10518D01*
X10206Y-10616D01*
X10206Y-10684D01*
X9822Y-10299D01*
X9764Y-10261D01*
X9696Y-10248D01*
X8927Y-10248D01*
X8899Y-10180D01*
X8777Y-10058D01*
X8752Y-10047D01*
X8752Y-8516D01*
X8665Y-8306D01*
X8504Y-8146D01*
X8295Y-8059D01*
X8068Y-8058D01*
X8012Y-8082D01*
X8012Y-6431D01*
X7811Y-5946D01*
X7440Y-5575D01*
X6956Y-5374D01*
X6431Y-5373D01*
X5946Y-5574D01*
X5575Y-5944D01*
X5374Y-6429D01*
X5373Y-6954D01*
X5574Y-7439D01*
X5944Y-7810D01*
X6429Y-8011D01*
X6954Y-8012D01*
X7439Y-7811D01*
X7810Y-7440D01*
X8011Y-6956D01*
X8012Y-6431D01*
X8012Y-8082D01*
X7858Y-8145D01*
X7697Y-8306D01*
X7610Y-8515D01*
X7610Y-8742D01*
X7696Y-8952D01*
X7857Y-9113D01*
X8067Y-9200D01*
X8294Y-9200D01*
X8504Y-9114D01*
X8664Y-8953D01*
X8751Y-8743D01*
X8752Y-8516D01*
X8752Y-10047D01*
X8618Y-9991D01*
X8445Y-9991D01*
X8286Y-10057D01*
X8164Y-10179D01*
X8098Y-10338D01*
X8098Y-10481D01*
X8076Y-10459D01*
X7917Y-10393D01*
X7744Y-10393D01*
X7687Y-10417D01*
X7687Y-9161D01*
X7557Y-8846D01*
X7316Y-8605D01*
X7001Y-8474D01*
X6661Y-8474D01*
X6346Y-8604D01*
X6105Y-8845D01*
X5974Y-9159D01*
X5974Y-9500D01*
X6104Y-9815D01*
X6345Y-10056D01*
X6659Y-10186D01*
X7000Y-10187D01*
X7315Y-10057D01*
X7556Y-9816D01*
X7686Y-9501D01*
X7687Y-9161D01*
X7687Y-10417D01*
X7585Y-10459D01*
X7463Y-10581D01*
X7397Y-10740D01*
X7397Y-10912D01*
X7463Y-11071D01*
X7555Y-11164D01*
X7529Y-11175D01*
X7526Y-11177D01*
X7501Y-11272D01*
X7830Y-11602D01*
X7836Y-11596D01*
X7864Y-11624D01*
X7858Y-11629D01*
X7864Y-11635D01*
X7836Y-11663D01*
X7830Y-11657D01*
X7802Y-11685D01*
X7802Y-11629D01*
X7473Y-11300D01*
X7378Y-11325D01*
X7296Y-11521D01*
X7295Y-11734D01*
X7376Y-11931D01*
X7378Y-11934D01*
X7473Y-11959D01*
X7802Y-11629D01*
X7802Y-11685D01*
X7501Y-11986D01*
X7526Y-12082D01*
X7556Y-12094D01*
X7463Y-12187D01*
X7397Y-12346D01*
X7397Y-12518D01*
X7463Y-12678D01*
X7555Y-12770D01*
X7529Y-12781D01*
X7526Y-12783D01*
X7501Y-12879D01*
X7830Y-13208D01*
X7836Y-13202D01*
X7864Y-13230D01*
X7858Y-13236D01*
X8187Y-13565D01*
X8283Y-13540D01*
X8365Y-13344D01*
X8365Y-13234D01*
X8444Y-13267D01*
X8617Y-13268D01*
X8776Y-13202D01*
X8898Y-13080D01*
X8927Y-13011D01*
X13090Y-13011D01*
X13090Y-20961D01*
X13172Y-21043D01*
X20637Y-21043D01*
X20637Y-21065D01*
X20724Y-21275D01*
X20884Y-21436D01*
X21094Y-21523D01*
X21321Y-21523D01*
X21531Y-21436D01*
X21692Y-21276D01*
X21779Y-21066D01*
X21779Y-21043D01*
X23052Y-21043D01*
X23038Y-21057D01*
X22972Y-21216D01*
X22972Y-21388D01*
X23037Y-21548D01*
X23159Y-21670D01*
X23318Y-21736D01*
X23491Y-21736D01*
X23650Y-21670D01*
X23743Y-21578D01*
X23754Y-21604D01*
X23756Y-21607D01*
X23851Y-21632D01*
X24180Y-21303D01*
X24175Y-21297D01*
X24203Y-21269D01*
X24208Y-21275D01*
X24214Y-21269D01*
X24242Y-21297D01*
X24236Y-21303D01*
X24565Y-21632D01*
X24661Y-21607D01*
X24673Y-21577D01*
X24766Y-21670D01*
X24925Y-21736D01*
X25097Y-21736D01*
X25256Y-21670D01*
X25349Y-21578D01*
X25360Y-21604D01*
X25362Y-21607D01*
X25458Y-21632D01*
X25787Y-21303D01*
X25781Y-21297D01*
X25809Y-21269D01*
X25814Y-21275D01*
X25820Y-21269D01*
X25848Y-21297D01*
X25842Y-21303D01*
X26171Y-21632D01*
X26267Y-21607D01*
X26349Y-21411D01*
X26350Y-21198D01*
X26286Y-21043D01*
X27039Y-21043D01*
X27039Y-21065D01*
X27125Y-21275D01*
X27286Y-21436D01*
X27496Y-21523D01*
X27723Y-21523D01*
X27933Y-21436D01*
X28093Y-21276D01*
X28181Y-21066D01*
X28181Y-21043D01*
X28314Y-21043D01*
X28314Y-21065D01*
X28401Y-21275D01*
X28562Y-21436D01*
X28771Y-21523D01*
X28998Y-21523D01*
X29208Y-21436D01*
X29369Y-21276D01*
X29456Y-21066D01*
X29456Y-21043D01*
X30729Y-21043D01*
X30715Y-21057D01*
X30649Y-21216D01*
X30649Y-21388D01*
X30715Y-21548D01*
X30836Y-21670D01*
X30996Y-21736D01*
X31168Y-21736D01*
X31327Y-21670D01*
X31420Y-21578D01*
X31431Y-21604D01*
X31433Y-21607D01*
X31528Y-21632D01*
X31857Y-21303D01*
X31852Y-21297D01*
X31880Y-21269D01*
X31885Y-21275D01*
X31891Y-21269D01*
X31919Y-21297D01*
X31913Y-21303D01*
X32242Y-21632D01*
X32338Y-21607D01*
X32350Y-21577D01*
X32443Y-21670D01*
X32602Y-21736D01*
X32774Y-21736D01*
X32934Y-21670D01*
X33026Y-21578D01*
X33037Y-21604D01*
X33039Y-21607D01*
X33135Y-21632D01*
X33464Y-21303D01*
X33458Y-21297D01*
X33486Y-21269D01*
X33492Y-21275D01*
X33497Y-21269D01*
X33525Y-21297D01*
X33519Y-21303D01*
X33849Y-21632D01*
X33944Y-21607D01*
X34026Y-21411D01*
X34027Y-21198D01*
X33963Y-21043D01*
X34716Y-21043D01*
X34716Y-21065D01*
X34803Y-21275D01*
X34963Y-21436D01*
X35173Y-21523D01*
X35400Y-21523D01*
X35610Y-21436D01*
X35771Y-21276D01*
X35858Y-21066D01*
X35858Y-21043D01*
X37595Y-21043D01*
X37677Y-20961D01*
X37677Y-17874D01*
X38403Y-17874D01*
X38451Y-17922D01*
X38549Y-17962D01*
X38654Y-17962D01*
X38752Y-17922D01*
X38827Y-17847D01*
X38868Y-17749D01*
X38868Y-17644D01*
X38827Y-17546D01*
X38753Y-17471D01*
X38655Y-17431D01*
X38549Y-17431D01*
X38452Y-17471D01*
X38403Y-17519D01*
X37677Y-17519D01*
X37677Y-14510D01*
X39863Y-12324D01*
X39854Y-12346D01*
X39854Y-12518D01*
X39919Y-12678D01*
X40041Y-12800D01*
X40124Y-12834D01*
X40042Y-12868D01*
X39920Y-12990D01*
X39854Y-13149D01*
X39854Y-13322D01*
X39919Y-13481D01*
X40041Y-13603D01*
X40200Y-13669D01*
X40373Y-13669D01*
X40532Y-13603D01*
X40654Y-13481D01*
X40720Y-13322D01*
X40720Y-13180D01*
X40742Y-13201D01*
X40901Y-13267D01*
X41073Y-13268D01*
X41233Y-13202D01*
X41355Y-13080D01*
X41421Y-12921D01*
X41421Y-12748D01*
X41421Y-13686D01*
X41262Y-13845D01*
X41132Y-14159D01*
X41131Y-14500D01*
X41261Y-14815D01*
X41502Y-15056D01*
X41817Y-15186D01*
X42157Y-15187D01*
X42472Y-15057D01*
X42713Y-14816D01*
X42844Y-14501D01*
X42844Y-14161D01*
X42844Y-16413D01*
X42712Y-16358D01*
X42540Y-16358D01*
X42380Y-16423D01*
X42259Y-16545D01*
X42192Y-16704D01*
X42192Y-16877D01*
X42258Y-17036D01*
X42380Y-17158D01*
X42539Y-17224D01*
X42711Y-17224D01*
X42870Y-17158D01*
X42992Y-17036D01*
X43058Y-16877D01*
X43059Y-16705D01*
X43059Y-19225D01*
X42993Y-19066D01*
X42871Y-18944D01*
X42712Y-18878D01*
X42540Y-18877D01*
X42380Y-18943D01*
X42259Y-19065D01*
X42192Y-19224D01*
X42192Y-19396D01*
X42258Y-19556D01*
X42380Y-19677D01*
X42539Y-19744D01*
X42711Y-19744D01*
X42870Y-19678D01*
X42992Y-19556D01*
X43058Y-19397D01*
X43059Y-19225D01*
X43059Y-21508D01*
X42874Y-21323D01*
X42389Y-21122D01*
X42059Y-21121D01*
X42059Y-19225D01*
X42059Y-16705D01*
X41993Y-16546D01*
X41871Y-16424D01*
X41712Y-16358D01*
X41540Y-16358D01*
X41380Y-16423D01*
X41259Y-16545D01*
X41208Y-16666D01*
X41208Y-14918D01*
X41122Y-14708D01*
X40961Y-14547D01*
X40751Y-14460D01*
X40524Y-14460D01*
X40314Y-14547D01*
X40154Y-14707D01*
X40067Y-14917D01*
X40066Y-15144D01*
X40153Y-15354D01*
X40314Y-15515D01*
X40523Y-15602D01*
X40750Y-15602D01*
X40960Y-15515D01*
X41121Y-15355D01*
X41208Y-15145D01*
X41208Y-14918D01*
X41208Y-16666D01*
X41192Y-16704D01*
X41192Y-16877D01*
X41258Y-17036D01*
X41380Y-17158D01*
X41539Y-17224D01*
X41711Y-17224D01*
X41870Y-17158D01*
X41992Y-17036D01*
X42058Y-16877D01*
X42059Y-16705D01*
X42059Y-19225D01*
X41993Y-19066D01*
X41871Y-18944D01*
X41712Y-18878D01*
X41540Y-18877D01*
X41380Y-18943D01*
X41259Y-19065D01*
X41192Y-19224D01*
X41192Y-19396D01*
X41258Y-19556D01*
X41380Y-19677D01*
X41539Y-19744D01*
X41711Y-19744D01*
X41870Y-19678D01*
X41992Y-19556D01*
X42058Y-19397D01*
X42059Y-19225D01*
X42059Y-21121D01*
X41864Y-21121D01*
X41379Y-21322D01*
X41008Y-21692D01*
X40807Y-22177D01*
X40806Y-22702D01*
X41007Y-23187D01*
X41377Y-23558D01*
X41862Y-23759D01*
X42387Y-23760D01*
X42872Y-23559D01*
X43243Y-23189D01*
X43444Y-22704D01*
X43445Y-22179D01*
X43445Y-24242D01*
X37677Y-24242D01*
X35443Y-24242D01*
X35443Y-22133D01*
X35312Y-21818D01*
X35072Y-21577D01*
X34757Y-21447D01*
X34417Y-21446D01*
X34102Y-21576D01*
X33861Y-21817D01*
X33821Y-21913D01*
X33821Y-21660D01*
X33492Y-21330D01*
X33163Y-21660D01*
X33187Y-21755D01*
X33384Y-21837D01*
X33596Y-21838D01*
X33793Y-21757D01*
X33796Y-21755D01*
X33821Y-21660D01*
X33821Y-21913D01*
X33730Y-22132D01*
X33730Y-22472D01*
X33860Y-22787D01*
X34100Y-23028D01*
X34415Y-23159D01*
X34756Y-23159D01*
X35071Y-23029D01*
X35312Y-22788D01*
X35442Y-22474D01*
X35443Y-22133D01*
X35443Y-24242D01*
X32214Y-24242D01*
X32214Y-21660D01*
X31885Y-21330D01*
X31556Y-21660D01*
X31581Y-21755D01*
X31777Y-21837D01*
X31990Y-21838D01*
X32187Y-21757D01*
X32190Y-21755D01*
X32214Y-21660D01*
X32214Y-24242D01*
X30443Y-24242D01*
X30443Y-22133D01*
X30312Y-21818D01*
X30072Y-21577D01*
X29757Y-21447D01*
X29417Y-21446D01*
X29102Y-21576D01*
X28861Y-21817D01*
X28730Y-22132D01*
X28730Y-22472D01*
X28860Y-22787D01*
X29100Y-23028D01*
X29415Y-23159D01*
X29756Y-23159D01*
X30071Y-23029D01*
X30312Y-22788D01*
X30442Y-22474D01*
X30443Y-22133D01*
X30443Y-24242D01*
X27765Y-24242D01*
X27765Y-22133D01*
X27635Y-21818D01*
X27395Y-21577D01*
X27080Y-21447D01*
X26739Y-21446D01*
X26425Y-21576D01*
X26183Y-21817D01*
X26144Y-21913D01*
X26144Y-21660D01*
X25814Y-21330D01*
X25485Y-21660D01*
X25510Y-21755D01*
X25706Y-21837D01*
X25919Y-21838D01*
X26116Y-21757D01*
X26119Y-21755D01*
X26144Y-21660D01*
X26144Y-21913D01*
X26053Y-22132D01*
X26053Y-22472D01*
X26183Y-22787D01*
X26423Y-23028D01*
X26738Y-23159D01*
X27079Y-23159D01*
X27393Y-23029D01*
X27634Y-22788D01*
X27765Y-22474D01*
X27765Y-22133D01*
X27765Y-24242D01*
X24537Y-24242D01*
X24537Y-21660D01*
X24208Y-21330D01*
X23879Y-21660D01*
X23904Y-21755D01*
X24100Y-21837D01*
X24313Y-21838D01*
X24510Y-21757D01*
X24513Y-21755D01*
X24537Y-21660D01*
X24537Y-24242D01*
X22765Y-24242D01*
X22765Y-22133D01*
X22635Y-21818D01*
X22395Y-21577D01*
X22080Y-21447D01*
X21739Y-21446D01*
X21425Y-21576D01*
X21183Y-21817D01*
X21053Y-22132D01*
X21053Y-22472D01*
X21183Y-22787D01*
X21423Y-23028D01*
X21738Y-23159D01*
X22079Y-23159D01*
X22393Y-23029D01*
X22634Y-22788D01*
X22765Y-22474D01*
X22765Y-22133D01*
X22765Y-24242D01*
X8752Y-24242D01*
X8752Y-14918D01*
X8665Y-14708D01*
X8504Y-14547D01*
X8295Y-14460D01*
X8159Y-14460D01*
X8159Y-13593D01*
X7830Y-13264D01*
X7802Y-13291D01*
X7802Y-13236D01*
X7473Y-12907D01*
X7378Y-12931D01*
X7296Y-13128D01*
X7295Y-13340D01*
X7376Y-13537D01*
X7378Y-13540D01*
X7473Y-13565D01*
X7802Y-13236D01*
X7802Y-13291D01*
X7501Y-13593D01*
X7526Y-13688D01*
X7722Y-13770D01*
X7935Y-13771D01*
X8132Y-13690D01*
X8135Y-13688D01*
X8159Y-13593D01*
X8159Y-14460D01*
X8068Y-14460D01*
X7858Y-14547D01*
X7697Y-14707D01*
X7687Y-14732D01*
X7687Y-14161D01*
X7557Y-13846D01*
X7316Y-13605D01*
X7001Y-13474D01*
X6661Y-13474D01*
X6346Y-13604D01*
X6105Y-13845D01*
X5974Y-14159D01*
X5974Y-14500D01*
X6104Y-14815D01*
X6345Y-15056D01*
X6659Y-15186D01*
X7000Y-15187D01*
X7315Y-15057D01*
X7556Y-14816D01*
X7686Y-14501D01*
X7687Y-14161D01*
X7687Y-14732D01*
X7610Y-14917D01*
X7610Y-15144D01*
X7696Y-15354D01*
X7857Y-15515D01*
X8067Y-15602D01*
X8294Y-15602D01*
X8504Y-15515D01*
X8664Y-15355D01*
X8751Y-15145D01*
X8752Y-14918D01*
X8752Y-24242D01*
X8012Y-24242D01*
X8012Y-22179D01*
X7811Y-21694D01*
X7440Y-21323D01*
X6956Y-21122D01*
X6431Y-21121D01*
X5946Y-21322D01*
X5575Y-21692D01*
X5374Y-22177D01*
X5373Y-22702D01*
X5574Y-23187D01*
X5944Y-23558D01*
X6429Y-23759D01*
X6954Y-23760D01*
X7439Y-23559D01*
X7810Y-23189D01*
X8011Y-22704D01*
X8012Y-22179D01*
X8012Y-24242D01*
X4891Y-24242D01*
X4891Y-4891D01*
X43927Y-4891D01*
X43927Y-24242D01*
X43927Y-24242D01*
G37*
G54D20*
X43927Y-24242D02*
X43445Y-24242D01*
X43445Y-22179D01*
X43445Y-6431D01*
X43244Y-5946D01*
X42874Y-5575D01*
X42389Y-5374D01*
X41864Y-5373D01*
X41379Y-5574D01*
X41008Y-5944D01*
X40807Y-6429D01*
X40806Y-6954D01*
X41007Y-7439D01*
X41377Y-7810D01*
X41862Y-8011D01*
X42387Y-8012D01*
X42872Y-7811D01*
X43243Y-7440D01*
X43444Y-6956D01*
X43445Y-6431D01*
X43445Y-22179D01*
X43244Y-21694D01*
X43059Y-21508D01*
X43059Y-19225D01*
X43059Y-16705D01*
X42993Y-16546D01*
X42871Y-16424D01*
X42844Y-16413D01*
X42844Y-14161D01*
X42844Y-9161D01*
X42714Y-8846D01*
X42473Y-8605D01*
X42159Y-8474D01*
X41818Y-8474D01*
X41503Y-8604D01*
X41262Y-8845D01*
X41208Y-8974D01*
X41208Y-8516D01*
X41122Y-8306D01*
X40961Y-8146D01*
X40751Y-8059D01*
X40524Y-8058D01*
X40314Y-8145D01*
X40154Y-8306D01*
X40067Y-8515D01*
X40066Y-8742D01*
X40153Y-8952D01*
X40314Y-9113D01*
X40523Y-9200D01*
X40750Y-9200D01*
X40960Y-9114D01*
X41121Y-8953D01*
X41208Y-8743D01*
X41208Y-8516D01*
X41208Y-8974D01*
X41132Y-9159D01*
X41131Y-9500D01*
X41261Y-9815D01*
X41502Y-10056D01*
X41817Y-10186D01*
X42157Y-10187D01*
X42472Y-10057D01*
X42713Y-9816D01*
X42844Y-9501D01*
X42844Y-9161D01*
X42844Y-14161D01*
X42714Y-13846D01*
X42473Y-13605D01*
X42159Y-13474D01*
X41818Y-13474D01*
X41523Y-13596D01*
X41523Y-11926D01*
X41523Y-10320D01*
X41442Y-10123D01*
X41440Y-10120D01*
X41345Y-10096D01*
X41317Y-10123D01*
X41317Y-10068D01*
X41292Y-9972D01*
X41096Y-9890D01*
X40883Y-9889D01*
X40686Y-9970D01*
X40683Y-9972D01*
X40659Y-10068D01*
X40988Y-10397D01*
X41317Y-10068D01*
X41317Y-10123D01*
X41016Y-10425D01*
X41345Y-10754D01*
X41440Y-10729D01*
X41522Y-10533D01*
X41523Y-10320D01*
X41523Y-11926D01*
X41442Y-11729D01*
X41440Y-11727D01*
X41345Y-11702D01*
X41016Y-12031D01*
X41345Y-12360D01*
X41440Y-12335D01*
X41522Y-12139D01*
X41523Y-11926D01*
X41523Y-13596D01*
X41503Y-13604D01*
X41421Y-13686D01*
X41421Y-12748D01*
X41355Y-12589D01*
X41263Y-12496D01*
X41289Y-12485D01*
X41292Y-12483D01*
X41317Y-12388D01*
X40988Y-12059D01*
X40982Y-12064D01*
X40954Y-12037D01*
X40960Y-12031D01*
X40954Y-12025D01*
X40982Y-11998D01*
X40988Y-12003D01*
X41317Y-11674D01*
X41292Y-11579D01*
X41262Y-11566D01*
X41355Y-11474D01*
X41421Y-11314D01*
X41421Y-11142D01*
X41355Y-10983D01*
X41263Y-10890D01*
X41289Y-10879D01*
X41292Y-10877D01*
X41317Y-10782D01*
X40988Y-10453D01*
X40982Y-10458D01*
X40954Y-10430D01*
X40960Y-10425D01*
X40631Y-10096D01*
X40535Y-10120D01*
X40453Y-10317D01*
X40453Y-10426D01*
X40373Y-10393D01*
X40201Y-10393D01*
X40042Y-10459D01*
X39920Y-10581D01*
X39854Y-10740D01*
X39854Y-10912D01*
X39888Y-10995D01*
X39724Y-11158D01*
X39724Y-6831D01*
X39724Y-5831D01*
X39658Y-5672D01*
X39536Y-5550D01*
X39377Y-5484D01*
X39205Y-5484D01*
X39046Y-5549D01*
X38924Y-5671D01*
X38858Y-5830D01*
X38858Y-6003D01*
X38923Y-6162D01*
X39045Y-6284D01*
X39204Y-6350D01*
X39377Y-6350D01*
X39536Y-6284D01*
X39658Y-6162D01*
X39724Y-6003D01*
X39724Y-5831D01*
X39724Y-6831D01*
X39658Y-6672D01*
X39536Y-6550D01*
X39377Y-6484D01*
X39205Y-6484D01*
X39046Y-6549D01*
X38924Y-6671D01*
X38858Y-6830D01*
X38858Y-7003D01*
X38923Y-7162D01*
X39045Y-7284D01*
X39204Y-7350D01*
X39377Y-7350D01*
X39536Y-7284D01*
X39658Y-7162D01*
X39724Y-7003D01*
X39724Y-6831D01*
X39724Y-11158D01*
X37677Y-13206D01*
X37677Y-9275D01*
X37595Y-9192D01*
X36968Y-9192D01*
X36968Y-6831D01*
X36968Y-5831D01*
X36902Y-5672D01*
X36781Y-5550D01*
X36621Y-5484D01*
X36449Y-5484D01*
X36290Y-5549D01*
X36168Y-5671D01*
X36102Y-5830D01*
X36102Y-6003D01*
X36168Y-6162D01*
X36289Y-6284D01*
X36448Y-6350D01*
X36621Y-6350D01*
X36780Y-6284D01*
X36902Y-6162D01*
X36968Y-6003D01*
X36968Y-5831D01*
X36968Y-6831D01*
X36902Y-6672D01*
X36781Y-6550D01*
X36621Y-6484D01*
X36449Y-6484D01*
X36290Y-6549D01*
X36168Y-6671D01*
X36102Y-6830D01*
X36102Y-7003D01*
X36168Y-7162D01*
X36289Y-7284D01*
X36448Y-7350D01*
X36621Y-7350D01*
X36780Y-7284D01*
X36902Y-7162D01*
X36968Y-7003D01*
X36968Y-6831D01*
X36968Y-9192D01*
X34212Y-9192D01*
X34212Y-6831D01*
X34212Y-5831D01*
X34146Y-5672D01*
X34025Y-5550D01*
X33866Y-5484D01*
X33693Y-5484D01*
X33534Y-5549D01*
X33412Y-5671D01*
X33346Y-5830D01*
X33346Y-6003D01*
X33412Y-6162D01*
X33533Y-6284D01*
X33693Y-6350D01*
X33865Y-6350D01*
X34024Y-6284D01*
X34146Y-6162D01*
X34212Y-6003D01*
X34212Y-5831D01*
X34212Y-6831D01*
X34146Y-6672D01*
X34025Y-6550D01*
X33866Y-6484D01*
X33693Y-6484D01*
X33534Y-6549D01*
X33412Y-6671D01*
X33346Y-6830D01*
X33346Y-7003D01*
X33412Y-7162D01*
X33533Y-7284D01*
X33693Y-7350D01*
X33865Y-7350D01*
X34024Y-7284D01*
X34146Y-7162D01*
X34212Y-7003D01*
X34212Y-6831D01*
X34212Y-9192D01*
X31456Y-9192D01*
X31456Y-6831D01*
X31456Y-5831D01*
X31390Y-5672D01*
X31269Y-5550D01*
X31110Y-5484D01*
X30937Y-5484D01*
X30778Y-5549D01*
X30656Y-5671D01*
X30590Y-5830D01*
X30590Y-6003D01*
X30656Y-6162D01*
X30777Y-6284D01*
X30937Y-6350D01*
X31109Y-6350D01*
X31268Y-6284D01*
X31390Y-6162D01*
X31456Y-6003D01*
X31456Y-5831D01*
X31456Y-6831D01*
X31390Y-6672D01*
X31269Y-6550D01*
X31110Y-6484D01*
X30937Y-6484D01*
X30778Y-6549D01*
X30656Y-6671D01*
X30590Y-6830D01*
X30590Y-7003D01*
X30656Y-7162D01*
X30777Y-7284D01*
X30937Y-7350D01*
X31109Y-7350D01*
X31268Y-7284D01*
X31390Y-7162D01*
X31456Y-7003D01*
X31456Y-6831D01*
X31456Y-9192D01*
X30070Y-9192D01*
X29955Y-9240D01*
X29360Y-9836D01*
X29360Y-9435D01*
X29319Y-9337D01*
X29245Y-9263D01*
X29147Y-9222D01*
X29041Y-9222D01*
X28944Y-9262D01*
X28895Y-9311D01*
X28181Y-9311D01*
X28181Y-8068D01*
X28094Y-7858D01*
X27934Y-7697D01*
X27765Y-7627D01*
X27765Y-6661D01*
X27635Y-6346D01*
X27395Y-6105D01*
X27080Y-5974D01*
X26739Y-5974D01*
X26425Y-6104D01*
X26183Y-6345D01*
X26053Y-6659D01*
X26053Y-7000D01*
X26183Y-7315D01*
X26423Y-7556D01*
X26738Y-7686D01*
X27079Y-7687D01*
X27393Y-7557D01*
X27634Y-7316D01*
X27765Y-7001D01*
X27765Y-6661D01*
X27765Y-7627D01*
X27724Y-7610D01*
X27497Y-7610D01*
X27287Y-7696D01*
X27126Y-7857D01*
X27039Y-8067D01*
X27039Y-8294D01*
X27125Y-8504D01*
X27286Y-8664D01*
X27496Y-8751D01*
X27723Y-8752D01*
X27933Y-8665D01*
X28093Y-8504D01*
X28181Y-8295D01*
X28181Y-8068D01*
X28181Y-9311D01*
X26248Y-9311D01*
X26248Y-8445D01*
X26182Y-8286D01*
X26060Y-8164D01*
X25901Y-8098D01*
X25758Y-8098D01*
X25780Y-8076D01*
X25846Y-7917D01*
X25846Y-7744D01*
X25780Y-7585D01*
X25659Y-7463D01*
X25499Y-7397D01*
X25327Y-7397D01*
X25168Y-7463D01*
X25075Y-7555D01*
X25064Y-7529D01*
X25062Y-7526D01*
X24967Y-7501D01*
X24939Y-7529D01*
X24939Y-7473D01*
X24914Y-7378D01*
X24718Y-7296D01*
X24505Y-7295D01*
X24308Y-7376D01*
X24305Y-7378D01*
X24281Y-7473D01*
X24610Y-7802D01*
X24939Y-7473D01*
X24939Y-7529D01*
X24638Y-7830D01*
X24643Y-7836D01*
X24615Y-7864D01*
X24610Y-7858D01*
X24604Y-7864D01*
X24576Y-7836D01*
X24582Y-7830D01*
X24253Y-7501D01*
X24157Y-7526D01*
X24145Y-7556D01*
X24052Y-7463D01*
X23893Y-7397D01*
X23721Y-7397D01*
X23561Y-7463D01*
X23469Y-7555D01*
X23458Y-7529D01*
X23456Y-7526D01*
X23360Y-7501D01*
X23333Y-7529D01*
X23333Y-7473D01*
X23308Y-7378D01*
X23112Y-7296D01*
X22899Y-7295D01*
X22765Y-7350D01*
X22765Y-6661D01*
X22635Y-6346D01*
X22395Y-6105D01*
X22080Y-5974D01*
X21739Y-5974D01*
X21425Y-6104D01*
X21183Y-6345D01*
X21053Y-6659D01*
X21053Y-7000D01*
X21183Y-7315D01*
X21423Y-7556D01*
X21738Y-7686D01*
X22079Y-7687D01*
X22393Y-7557D01*
X22634Y-7316D01*
X22765Y-7001D01*
X22765Y-6661D01*
X22765Y-7350D01*
X22702Y-7376D01*
X22699Y-7378D01*
X22674Y-7473D01*
X23003Y-7802D01*
X23333Y-7473D01*
X23333Y-7529D01*
X23031Y-7830D01*
X23037Y-7836D01*
X23009Y-7864D01*
X23003Y-7858D01*
X22976Y-7886D01*
X22976Y-7830D01*
X22646Y-7501D01*
X22551Y-7526D01*
X22469Y-7722D01*
X22468Y-7935D01*
X22549Y-8132D01*
X22551Y-8135D01*
X22646Y-8159D01*
X22976Y-7830D01*
X22976Y-7886D01*
X22674Y-8187D01*
X22699Y-8283D01*
X22895Y-8365D01*
X23005Y-8365D01*
X22972Y-8444D01*
X22972Y-8617D01*
X23037Y-8776D01*
X23159Y-8898D01*
X23318Y-8964D01*
X23491Y-8964D01*
X23650Y-8899D01*
X23772Y-8777D01*
X23807Y-8694D01*
X23841Y-8776D01*
X23962Y-8898D01*
X24122Y-8964D01*
X24294Y-8964D01*
X24453Y-8899D01*
X24575Y-8777D01*
X24610Y-8694D01*
X24644Y-8776D01*
X24766Y-8898D01*
X24925Y-8964D01*
X25097Y-8964D01*
X25256Y-8899D01*
X25378Y-8777D01*
X25413Y-8694D01*
X25447Y-8776D01*
X25569Y-8898D01*
X25728Y-8964D01*
X25900Y-8964D01*
X26060Y-8899D01*
X26182Y-8777D01*
X26248Y-8618D01*
X26248Y-8445D01*
X26248Y-9311D01*
X22541Y-9311D01*
X22493Y-9263D01*
X22395Y-9222D01*
X22289Y-9222D01*
X22192Y-9262D01*
X22117Y-9337D01*
X22076Y-9435D01*
X22076Y-9540D01*
X22117Y-9638D01*
X22191Y-9713D01*
X22289Y-9753D01*
X22395Y-9753D01*
X22492Y-9713D01*
X22541Y-9665D01*
X28895Y-9665D01*
X28943Y-9713D01*
X29041Y-9753D01*
X29147Y-9753D01*
X29244Y-9713D01*
X29319Y-9638D01*
X29360Y-9541D01*
X29360Y-9435D01*
X29360Y-9836D01*
X28330Y-10866D01*
X21779Y-10866D01*
X21779Y-8068D01*
X21692Y-7858D01*
X21532Y-7697D01*
X21322Y-7610D01*
X21095Y-7610D01*
X20885Y-7696D01*
X20724Y-7857D01*
X20637Y-8067D01*
X20637Y-8294D01*
X20724Y-8504D01*
X20884Y-8664D01*
X21094Y-8751D01*
X21321Y-8752D01*
X21531Y-8665D01*
X21692Y-8504D01*
X21779Y-8295D01*
X21779Y-8068D01*
X21779Y-10866D01*
X21045Y-10866D01*
X20997Y-10818D01*
X20899Y-10777D01*
X20793Y-10777D01*
X20696Y-10817D01*
X20621Y-10892D01*
X20580Y-10990D01*
X20580Y-11095D01*
X20621Y-11193D01*
X20695Y-11268D01*
X20793Y-11309D01*
X20899Y-11309D01*
X20996Y-11268D01*
X21045Y-11220D01*
X27975Y-11220D01*
X27818Y-11377D01*
X23092Y-11377D01*
X23044Y-11329D01*
X22946Y-11289D01*
X22841Y-11289D01*
X22743Y-11329D01*
X22668Y-11404D01*
X22627Y-11502D01*
X22627Y-11607D01*
X22654Y-11673D01*
X20504Y-11673D01*
X20504Y-8068D01*
X20417Y-7858D01*
X20256Y-7697D01*
X20088Y-7627D01*
X20088Y-6661D01*
X19958Y-6346D01*
X19717Y-6105D01*
X19403Y-5974D01*
X19062Y-5974D01*
X18747Y-6104D01*
X18506Y-6345D01*
X18376Y-6659D01*
X18375Y-7000D01*
X18505Y-7315D01*
X18746Y-7556D01*
X19061Y-7686D01*
X19401Y-7687D01*
X19716Y-7557D01*
X19957Y-7316D01*
X20088Y-7001D01*
X20088Y-6661D01*
X20088Y-7627D01*
X20047Y-7610D01*
X19820Y-7610D01*
X19610Y-7696D01*
X19449Y-7857D01*
X19362Y-8067D01*
X19362Y-8294D01*
X19448Y-8504D01*
X19609Y-8664D01*
X19819Y-8751D01*
X20046Y-8752D01*
X20256Y-8665D01*
X20416Y-8504D01*
X20503Y-8295D01*
X20504Y-8068D01*
X20504Y-11673D01*
X18571Y-11673D01*
X18571Y-8445D01*
X18505Y-8286D01*
X18383Y-8164D01*
X18224Y-8098D01*
X18081Y-8098D01*
X18103Y-8076D01*
X18169Y-7917D01*
X18169Y-7744D01*
X18103Y-7585D01*
X17981Y-7463D01*
X17822Y-7397D01*
X17650Y-7397D01*
X17491Y-7463D01*
X17398Y-7555D01*
X17387Y-7529D01*
X17385Y-7526D01*
X17290Y-7501D01*
X17262Y-7529D01*
X17262Y-7473D01*
X17237Y-7378D01*
X17041Y-7296D01*
X16828Y-7295D01*
X16631Y-7376D01*
X16628Y-7378D01*
X16603Y-7473D01*
X16933Y-7802D01*
X17262Y-7473D01*
X17262Y-7529D01*
X16960Y-7830D01*
X16966Y-7836D01*
X16938Y-7864D01*
X16933Y-7858D01*
X16927Y-7864D01*
X16899Y-7836D01*
X16905Y-7830D01*
X16576Y-7501D01*
X16480Y-7526D01*
X16468Y-7556D01*
X16375Y-7463D01*
X16216Y-7397D01*
X16044Y-7397D01*
X15884Y-7463D01*
X15792Y-7555D01*
X15781Y-7529D01*
X15779Y-7526D01*
X15683Y-7501D01*
X15655Y-7529D01*
X15655Y-7473D01*
X15631Y-7378D01*
X15434Y-7296D01*
X15222Y-7295D01*
X15088Y-7350D01*
X15088Y-6661D01*
X14958Y-6346D01*
X14717Y-6105D01*
X14403Y-5974D01*
X14062Y-5974D01*
X13747Y-6104D01*
X13506Y-6345D01*
X13376Y-6659D01*
X13375Y-7000D01*
X13505Y-7315D01*
X13746Y-7556D01*
X14061Y-7686D01*
X14401Y-7687D01*
X14716Y-7557D01*
X14957Y-7316D01*
X15088Y-7001D01*
X15088Y-6661D01*
X15088Y-7350D01*
X15025Y-7376D01*
X15022Y-7378D01*
X14997Y-7473D01*
X15326Y-7802D01*
X15655Y-7473D01*
X15655Y-7529D01*
X15354Y-7830D01*
X15360Y-7836D01*
X15332Y-7864D01*
X15326Y-7858D01*
X15298Y-7886D01*
X15298Y-7830D01*
X14969Y-7501D01*
X14874Y-7526D01*
X14792Y-7722D01*
X14791Y-7935D01*
X14872Y-8132D01*
X14874Y-8135D01*
X14969Y-8159D01*
X15298Y-7830D01*
X15298Y-7886D01*
X14997Y-8187D01*
X15022Y-8283D01*
X15218Y-8365D01*
X15328Y-8365D01*
X15295Y-8444D01*
X15294Y-8617D01*
X15360Y-8776D01*
X15482Y-8898D01*
X15641Y-8964D01*
X15814Y-8964D01*
X15973Y-8899D01*
X16095Y-8777D01*
X16129Y-8694D01*
X16163Y-8776D01*
X16285Y-8898D01*
X16444Y-8964D01*
X16617Y-8964D01*
X16776Y-8899D01*
X16898Y-8777D01*
X16933Y-8694D01*
X16967Y-8776D01*
X17088Y-8898D01*
X17248Y-8964D01*
X17420Y-8964D01*
X17579Y-8899D01*
X17701Y-8777D01*
X17736Y-8694D01*
X17770Y-8776D01*
X17892Y-8898D01*
X18051Y-8964D01*
X18223Y-8964D01*
X18382Y-8899D01*
X18504Y-8777D01*
X18571Y-8618D01*
X18571Y-8445D01*
X18571Y-11673D01*
X18518Y-11673D01*
X17389Y-10544D01*
X17331Y-10505D01*
X17263Y-10492D01*
X14102Y-10492D01*
X14102Y-8068D01*
X14015Y-7858D01*
X13855Y-7697D01*
X13645Y-7610D01*
X13418Y-7610D01*
X13208Y-7696D01*
X13047Y-7857D01*
X12960Y-8067D01*
X12960Y-8294D01*
X13047Y-8504D01*
X13207Y-8664D01*
X13417Y-8751D01*
X13644Y-8752D01*
X13854Y-8665D01*
X14015Y-8504D01*
X14102Y-8295D01*
X14102Y-8068D01*
X14102Y-10492D01*
X10671Y-10492D01*
X10623Y-10444D01*
X10525Y-10403D01*
X10419Y-10403D01*
X10322Y-10443D01*
X10247Y-10518D01*
X10206Y-10616D01*
X10206Y-10684D01*
X9822Y-10299D01*
X9764Y-10261D01*
X9696Y-10248D01*
X8927Y-10248D01*
X8899Y-10180D01*
X8777Y-10058D01*
X8752Y-10047D01*
X8752Y-8516D01*
X8665Y-8306D01*
X8504Y-8146D01*
X8295Y-8059D01*
X8068Y-8058D01*
X8012Y-8082D01*
X8012Y-6431D01*
X7811Y-5946D01*
X7440Y-5575D01*
X6956Y-5374D01*
X6431Y-5373D01*
X5946Y-5574D01*
X5575Y-5944D01*
X5374Y-6429D01*
X5373Y-6954D01*
X5574Y-7439D01*
X5944Y-7810D01*
X6429Y-8011D01*
X6954Y-8012D01*
X7439Y-7811D01*
X7810Y-7440D01*
X8011Y-6956D01*
X8012Y-6431D01*
X8012Y-8082D01*
X7858Y-8145D01*
X7697Y-8306D01*
X7610Y-8515D01*
X7610Y-8742D01*
X7696Y-8952D01*
X7857Y-9113D01*
X8067Y-9200D01*
X8294Y-9200D01*
X8504Y-9114D01*
X8664Y-8953D01*
X8751Y-8743D01*
X8752Y-8516D01*
X8752Y-10047D01*
X8618Y-9991D01*
X8445Y-9991D01*
X8286Y-10057D01*
X8164Y-10179D01*
X8098Y-10338D01*
X8098Y-10481D01*
X8076Y-10459D01*
X7917Y-10393D01*
X7744Y-10393D01*
X7687Y-10417D01*
X7687Y-9161D01*
X7557Y-8846D01*
X7316Y-8605D01*
X7001Y-8474D01*
X6661Y-8474D01*
X6346Y-8604D01*
X6105Y-8845D01*
X5974Y-9159D01*
X5974Y-9500D01*
X6104Y-9815D01*
X6345Y-10056D01*
X6659Y-10186D01*
X7000Y-10187D01*
X7315Y-10057D01*
X7556Y-9816D01*
X7686Y-9501D01*
X7687Y-9161D01*
X7687Y-10417D01*
X7585Y-10459D01*
X7463Y-10581D01*
X7397Y-10740D01*
X7397Y-10912D01*
X7463Y-11071D01*
X7555Y-11164D01*
X7529Y-11175D01*
X7526Y-11177D01*
X7501Y-11272D01*
X7830Y-11602D01*
X7836Y-11596D01*
X7864Y-11624D01*
X7858Y-11629D01*
X7864Y-11635D01*
X7836Y-11663D01*
X7830Y-11657D01*
X7802Y-11685D01*
X7802Y-11629D01*
X7473Y-11300D01*
X7378Y-11325D01*
X7296Y-11521D01*
X7295Y-11734D01*
X7376Y-11931D01*
X7378Y-11934D01*
X7473Y-11959D01*
X7802Y-11629D01*
X7802Y-11685D01*
X7501Y-11986D01*
X7526Y-12082D01*
X7556Y-12094D01*
X7463Y-12187D01*
X7397Y-12346D01*
X7397Y-12518D01*
X7463Y-12678D01*
X7555Y-12770D01*
X7529Y-12781D01*
X7526Y-12783D01*
X7501Y-12879D01*
X7830Y-13208D01*
X7836Y-13202D01*
X7864Y-13230D01*
X7858Y-13236D01*
X8187Y-13565D01*
X8283Y-13540D01*
X8365Y-13344D01*
X8365Y-13234D01*
X8444Y-13267D01*
X8617Y-13268D01*
X8776Y-13202D01*
X8898Y-13080D01*
X8927Y-13011D01*
X13090Y-13011D01*
X13090Y-20961D01*
X13172Y-21043D01*
X20637Y-21043D01*
X20637Y-21065D01*
X20724Y-21275D01*
X20884Y-21436D01*
X21094Y-21523D01*
X21321Y-21523D01*
X21531Y-21436D01*
X21692Y-21276D01*
X21779Y-21066D01*
X21779Y-21043D01*
X23052Y-21043D01*
X23038Y-21057D01*
X22972Y-21216D01*
X22972Y-21388D01*
X23037Y-21548D01*
X23159Y-21670D01*
X23318Y-21736D01*
X23491Y-21736D01*
X23650Y-21670D01*
X23743Y-21578D01*
X23754Y-21604D01*
X23756Y-21607D01*
X23851Y-21632D01*
X24180Y-21303D01*
X24175Y-21297D01*
X24203Y-21269D01*
X24208Y-21275D01*
X24214Y-21269D01*
X24242Y-21297D01*
X24236Y-21303D01*
X24565Y-21632D01*
X24661Y-21607D01*
X24673Y-21577D01*
X24766Y-21670D01*
X24925Y-21736D01*
X25097Y-21736D01*
X25256Y-21670D01*
X25349Y-21578D01*
X25360Y-21604D01*
X25362Y-21607D01*
X25458Y-21632D01*
X25787Y-21303D01*
X25781Y-21297D01*
X25809Y-21269D01*
X25814Y-21275D01*
X25820Y-21269D01*
X25848Y-21297D01*
X25842Y-21303D01*
X26171Y-21632D01*
X26267Y-21607D01*
X26349Y-21411D01*
X26350Y-21198D01*
X26286Y-21043D01*
X27039Y-21043D01*
X27039Y-21065D01*
X27125Y-21275D01*
X27286Y-21436D01*
X27496Y-21523D01*
X27723Y-21523D01*
X27933Y-21436D01*
X28093Y-21276D01*
X28181Y-21066D01*
X28181Y-21043D01*
X28314Y-21043D01*
X28314Y-21065D01*
X28401Y-21275D01*
X28562Y-21436D01*
X28771Y-21523D01*
X28998Y-21523D01*
X29208Y-21436D01*
X29369Y-21276D01*
X29456Y-21066D01*
X29456Y-21043D01*
X30729Y-21043D01*
X30715Y-21057D01*
X30649Y-21216D01*
X30649Y-21388D01*
X30715Y-21548D01*
X30836Y-21670D01*
X30996Y-21736D01*
X31168Y-21736D01*
X31327Y-21670D01*
X31420Y-21578D01*
X31431Y-21604D01*
X31433Y-21607D01*
X31528Y-21632D01*
X31857Y-21303D01*
X31852Y-21297D01*
X31880Y-21269D01*
X31885Y-21275D01*
X31891Y-21269D01*
X31919Y-21297D01*
X31913Y-21303D01*
X32242Y-21632D01*
X32338Y-21607D01*
X32350Y-21577D01*
X32443Y-21670D01*
X32602Y-21736D01*
X32774Y-21736D01*
X32934Y-21670D01*
X33026Y-21578D01*
X33037Y-21604D01*
X33039Y-21607D01*
X33135Y-21632D01*
X33464Y-21303D01*
X33458Y-21297D01*
X33486Y-21269D01*
X33492Y-21275D01*
X33497Y-21269D01*
X33525Y-21297D01*
X33519Y-21303D01*
X33849Y-21632D01*
X33944Y-21607D01*
X34026Y-21411D01*
X34027Y-21198D01*
X33963Y-21043D01*
X34716Y-21043D01*
X34716Y-21065D01*
X34803Y-21275D01*
X34963Y-21436D01*
X35173Y-21523D01*
X35400Y-21523D01*
X35610Y-21436D01*
X35771Y-21276D01*
X35858Y-21066D01*
X35858Y-21043D01*
X37595Y-21043D01*
X37677Y-20961D01*
X37677Y-17874D01*
X38403Y-17874D01*
X38451Y-17922D01*
X38549Y-17962D01*
X38654Y-17962D01*
X38752Y-17922D01*
X38827Y-17847D01*
X38868Y-17749D01*
X38868Y-17644D01*
X38827Y-17546D01*
X38753Y-17471D01*
X38655Y-17431D01*
X38549Y-17431D01*
X38452Y-17471D01*
X38403Y-17519D01*
X37677Y-17519D01*
X37677Y-14510D01*
X39863Y-12324D01*
X39854Y-12346D01*
X39854Y-12518D01*
X39919Y-12678D01*
X40041Y-12800D01*
X40124Y-12834D01*
X40042Y-12868D01*
X39920Y-12990D01*
X39854Y-13149D01*
X39854Y-13322D01*
X39919Y-13481D01*
X40041Y-13603D01*
X40200Y-13669D01*
X40373Y-13669D01*
X40532Y-13603D01*
X40654Y-13481D01*
X40720Y-13322D01*
X40720Y-13180D01*
X40742Y-13201D01*
X40901Y-13267D01*
X41073Y-13268D01*
X41233Y-13202D01*
X41355Y-13080D01*
X41421Y-12921D01*
X41421Y-12748D01*
X41421Y-13686D01*
X41262Y-13845D01*
X41132Y-14159D01*
X41131Y-14500D01*
X41261Y-14815D01*
X41502Y-15056D01*
X41817Y-15186D01*
X42157Y-15187D01*
X42472Y-15057D01*
X42713Y-14816D01*
X42844Y-14501D01*
X42844Y-14161D01*
X42844Y-16413D01*
X42712Y-16358D01*
X42540Y-16358D01*
X42380Y-16423D01*
X42259Y-16545D01*
X42192Y-16704D01*
X42192Y-16877D01*
X42258Y-17036D01*
X42380Y-17158D01*
X42539Y-17224D01*
X42711Y-17224D01*
X42870Y-17158D01*
X42992Y-17036D01*
X43058Y-16877D01*
X43059Y-16705D01*
X43059Y-19225D01*
X42993Y-19066D01*
X42871Y-18944D01*
X42712Y-18878D01*
X42540Y-18877D01*
X42380Y-18943D01*
X42259Y-19065D01*
X42192Y-19224D01*
X42192Y-19396D01*
X42258Y-19556D01*
X42380Y-19677D01*
X42539Y-19744D01*
X42711Y-19744D01*
X42870Y-19678D01*
X42992Y-19556D01*
X43058Y-19397D01*
X43059Y-19225D01*
X43059Y-21508D01*
X42874Y-21323D01*
X42389Y-21122D01*
X42059Y-21121D01*
X42059Y-19225D01*
X42059Y-16705D01*
X41993Y-16546D01*
X41871Y-16424D01*
X41712Y-16358D01*
X41540Y-16358D01*
X41380Y-16423D01*
X41259Y-16545D01*
X41208Y-16666D01*
X41208Y-14918D01*
X41122Y-14708D01*
X40961Y-14547D01*
X40751Y-14460D01*
X40524Y-14460D01*
X40314Y-14547D01*
X40154Y-14707D01*
X40067Y-14917D01*
X40066Y-15144D01*
X40153Y-15354D01*
X40314Y-15515D01*
X40523Y-15602D01*
X40750Y-15602D01*
X40960Y-15515D01*
X41121Y-15355D01*
X41208Y-15145D01*
X41208Y-14918D01*
X41208Y-16666D01*
X41192Y-16704D01*
X41192Y-16877D01*
X41258Y-17036D01*
X41380Y-17158D01*
X41539Y-17224D01*
X41711Y-17224D01*
X41870Y-17158D01*
X41992Y-17036D01*
X42058Y-16877D01*
X42059Y-16705D01*
X42059Y-19225D01*
X41993Y-19066D01*
X41871Y-18944D01*
X41712Y-18878D01*
X41540Y-18877D01*
X41380Y-18943D01*
X41259Y-19065D01*
X41192Y-19224D01*
X41192Y-19396D01*
X41258Y-19556D01*
X41380Y-19677D01*
X41539Y-19744D01*
X41711Y-19744D01*
X41870Y-19678D01*
X41992Y-19556D01*
X42058Y-19397D01*
X42059Y-19225D01*
X42059Y-21121D01*
X41864Y-21121D01*
X41379Y-21322D01*
X41008Y-21692D01*
X40807Y-22177D01*
X40806Y-22702D01*
X41007Y-23187D01*
X41377Y-23558D01*
X41862Y-23759D01*
X42387Y-23760D01*
X42872Y-23559D01*
X43243Y-23189D01*
X43444Y-22704D01*
X43445Y-22179D01*
X43445Y-24242D01*
X37677Y-24242D01*
X35443Y-24242D01*
X35443Y-22133D01*
X35312Y-21818D01*
X35072Y-21577D01*
X34757Y-21447D01*
X34417Y-21446D01*
X34102Y-21576D01*
X33861Y-21817D01*
X33821Y-21913D01*
X33821Y-21660D01*
X33492Y-21330D01*
X33163Y-21660D01*
X33187Y-21755D01*
X33384Y-21837D01*
X33596Y-21838D01*
X33793Y-21757D01*
X33796Y-21755D01*
X33821Y-21660D01*
X33821Y-21913D01*
X33730Y-22132D01*
X33730Y-22472D01*
X33860Y-22787D01*
X34100Y-23028D01*
X34415Y-23159D01*
X34756Y-23159D01*
X35071Y-23029D01*
X35312Y-22788D01*
X35442Y-22474D01*
X35443Y-22133D01*
X35443Y-24242D01*
X32214Y-24242D01*
X32214Y-21660D01*
X31885Y-21330D01*
X31556Y-21660D01*
X31581Y-21755D01*
X31777Y-21837D01*
X31990Y-21838D01*
X32187Y-21757D01*
X32190Y-21755D01*
X32214Y-21660D01*
X32214Y-24242D01*
X30443Y-24242D01*
X30443Y-22133D01*
X30312Y-21818D01*
X30072Y-21577D01*
X29757Y-21447D01*
X29417Y-21446D01*
X29102Y-21576D01*
X28861Y-21817D01*
X28730Y-22132D01*
X28730Y-22472D01*
X28860Y-22787D01*
X29100Y-23028D01*
X29415Y-23159D01*
X29756Y-23159D01*
X30071Y-23029D01*
X30312Y-22788D01*
X30442Y-22474D01*
X30443Y-22133D01*
X30443Y-24242D01*
X27765Y-24242D01*
X27765Y-22133D01*
X27635Y-21818D01*
X27395Y-21577D01*
X27080Y-21447D01*
X26739Y-21446D01*
X26425Y-21576D01*
X26183Y-21817D01*
X26144Y-21913D01*
X26144Y-21660D01*
X25814Y-21330D01*
X25485Y-21660D01*
X25510Y-21755D01*
X25706Y-21837D01*
X25919Y-21838D01*
X26116Y-21757D01*
X26119Y-21755D01*
X26144Y-21660D01*
X26144Y-21913D01*
X26053Y-22132D01*
X26053Y-22472D01*
X26183Y-22787D01*
X26423Y-23028D01*
X26738Y-23159D01*
X27079Y-23159D01*
X27393Y-23029D01*
X27634Y-22788D01*
X27765Y-22474D01*
X27765Y-22133D01*
X27765Y-24242D01*
X24537Y-24242D01*
X24537Y-21660D01*
X24208Y-21330D01*
X23879Y-21660D01*
X23904Y-21755D01*
X24100Y-21837D01*
X24313Y-21838D01*
X24510Y-21757D01*
X24513Y-21755D01*
X24537Y-21660D01*
X24537Y-24242D01*
X22765Y-24242D01*
X22765Y-22133D01*
X22635Y-21818D01*
X22395Y-21577D01*
X22080Y-21447D01*
X21739Y-21446D01*
X21425Y-21576D01*
X21183Y-21817D01*
X21053Y-22132D01*
X21053Y-22472D01*
X21183Y-22787D01*
X21423Y-23028D01*
X21738Y-23159D01*
X22079Y-23159D01*
X22393Y-23029D01*
X22634Y-22788D01*
X22765Y-22474D01*
X22765Y-22133D01*
X22765Y-24242D01*
X8752Y-24242D01*
X8752Y-14918D01*
X8665Y-14708D01*
X8504Y-14547D01*
X8295Y-14460D01*
X8159Y-14460D01*
X8159Y-13593D01*
X7830Y-13264D01*
X7802Y-13291D01*
X7802Y-13236D01*
X7473Y-12907D01*
X7378Y-12931D01*
X7296Y-13128D01*
X7295Y-13340D01*
X7376Y-13537D01*
X7378Y-13540D01*
X7473Y-13565D01*
X7802Y-13236D01*
X7802Y-13291D01*
X7501Y-13593D01*
X7526Y-13688D01*
X7722Y-13770D01*
X7935Y-13771D01*
X8132Y-13690D01*
X8135Y-13688D01*
X8159Y-13593D01*
X8159Y-14460D01*
X8068Y-14460D01*
X7858Y-14547D01*
X7697Y-14707D01*
X7687Y-14732D01*
X7687Y-14161D01*
X7557Y-13846D01*
X7316Y-13605D01*
X7001Y-13474D01*
X6661Y-13474D01*
X6346Y-13604D01*
X6105Y-13845D01*
X5974Y-14159D01*
X5974Y-14500D01*
X6104Y-14815D01*
X6345Y-15056D01*
X6659Y-15186D01*
X7000Y-15187D01*
X7315Y-15057D01*
X7556Y-14816D01*
X7686Y-14501D01*
X7687Y-14161D01*
X7687Y-14732D01*
X7610Y-14917D01*
X7610Y-15144D01*
X7696Y-15354D01*
X7857Y-15515D01*
X8067Y-15602D01*
X8294Y-15602D01*
X8504Y-15515D01*
X8664Y-15355D01*
X8751Y-15145D01*
X8752Y-14918D01*
X8752Y-24242D01*
X8012Y-24242D01*
X8012Y-22179D01*
X7811Y-21694D01*
X7440Y-21323D01*
X6956Y-21122D01*
X6431Y-21121D01*
X5946Y-21322D01*
X5575Y-21692D01*
X5374Y-22177D01*
X5373Y-22702D01*
X5574Y-23187D01*
X5944Y-23558D01*
X6429Y-23759D01*
X6954Y-23760D01*
X7439Y-23559D01*
X7810Y-23189D01*
X8011Y-22704D01*
X8012Y-22179D01*
X8012Y-24242D01*
X4891Y-24242D01*
X4891Y-4891D01*
X43927Y-4891D01*
X43927Y-24242D01*
M02*
