G04 (created by PCBNEW (2013-07-07 BZR 4022)-stable) date 9/18/2013 13:06:53*
%MOIN*%
G04 Gerber Fmt 3.4, Leading zero omitted, Abs format*
%FSLAX34Y34*%
G01*
G70*
G90*
G04 APERTURE LIST*
%ADD10C,0.00590551*%
%ADD11C,0.011811*%
%ADD12C,0.0688976*%
%ADD13R,0.0348425X0.0598425*%
%ADD14R,0.033474X0.019674*%
%ADD15R,0.0354425X0.0216425*%
%ADD16C,0.246063*%
%ADD17R,0.0648425X0.0448425*%
%ADD18C,0.153543*%
%ADD19C,0.0689425*%
%ADD20C,0.0964567*%
%ADD21R,0.0374425X0.0728425*%
%ADD22R,0.0374425X0.0925425*%
%ADD23R,0.0885425X0.118143*%
G04 APERTURE END LIST*
G54D10*
G54D11*
X46597Y-11740D02*
X46400Y-11740D01*
X46400Y-12050D02*
X46400Y-11459D01*
X46681Y-11459D01*
X46906Y-12050D02*
X46906Y-11656D01*
X46906Y-11768D02*
X46934Y-11712D01*
X46962Y-11684D01*
X47019Y-11656D01*
X47075Y-11656D01*
X47356Y-12050D02*
X47300Y-12021D01*
X47272Y-11993D01*
X47244Y-11937D01*
X47244Y-11768D01*
X47272Y-11712D01*
X47300Y-11684D01*
X47356Y-11656D01*
X47440Y-11656D01*
X47497Y-11684D01*
X47525Y-11712D01*
X47553Y-11768D01*
X47553Y-11937D01*
X47525Y-11993D01*
X47497Y-12021D01*
X47440Y-12050D01*
X47356Y-12050D01*
X47806Y-11656D02*
X47806Y-12050D01*
X47806Y-11712D02*
X47834Y-11684D01*
X47890Y-11656D01*
X47975Y-11656D01*
X48031Y-11684D01*
X48059Y-11740D01*
X48059Y-12050D01*
X48256Y-11656D02*
X48481Y-11656D01*
X48340Y-11459D02*
X48340Y-11965D01*
X48368Y-12021D01*
X48425Y-12050D01*
X48481Y-12050D01*
X49128Y-12050D02*
X49128Y-11459D01*
X49325Y-11881D01*
X49521Y-11459D01*
X49521Y-12050D01*
X50056Y-12050D02*
X50056Y-11740D01*
X50028Y-11684D01*
X49971Y-11656D01*
X49859Y-11656D01*
X49803Y-11684D01*
X50056Y-12021D02*
X50000Y-12050D01*
X49859Y-12050D01*
X49803Y-12021D01*
X49775Y-11965D01*
X49775Y-11909D01*
X49803Y-11853D01*
X49859Y-11825D01*
X50000Y-11825D01*
X50056Y-11796D01*
X50309Y-12021D02*
X50365Y-12050D01*
X50478Y-12050D01*
X50534Y-12021D01*
X50562Y-11965D01*
X50562Y-11937D01*
X50534Y-11881D01*
X50478Y-11853D01*
X50393Y-11853D01*
X50337Y-11825D01*
X50309Y-11768D01*
X50309Y-11740D01*
X50337Y-11684D01*
X50393Y-11656D01*
X50478Y-11656D01*
X50534Y-11684D01*
X50815Y-12050D02*
X50815Y-11459D01*
X50871Y-11825D02*
X51040Y-12050D01*
X51040Y-11656D02*
X50815Y-11881D01*
G54D12*
X41625Y-16791D03*
X42625Y-16791D03*
X31023Y-6917D03*
X31023Y-5917D03*
X41625Y-19311D03*
X42625Y-19311D03*
X33779Y-6917D03*
X33779Y-5917D03*
X36535Y-6917D03*
X36535Y-5917D03*
X39291Y-6917D03*
X39291Y-5917D03*
G54D13*
X35889Y-13466D03*
X35389Y-13466D03*
X34889Y-13466D03*
X34389Y-13466D03*
X33889Y-13466D03*
X33389Y-13466D03*
X32889Y-13466D03*
X32889Y-15666D03*
X33389Y-15666D03*
X33889Y-15666D03*
X34389Y-15666D03*
X34889Y-15666D03*
X35389Y-15666D03*
X35889Y-15666D03*
X18840Y-15666D03*
X19340Y-15666D03*
X19840Y-15666D03*
X20340Y-15666D03*
X20840Y-15666D03*
X21340Y-15666D03*
X21840Y-15666D03*
X22340Y-15666D03*
X22340Y-13466D03*
X21840Y-13466D03*
X21340Y-13466D03*
X20840Y-13466D03*
X20340Y-13466D03*
X19840Y-13466D03*
X19340Y-13466D03*
X18840Y-13466D03*
X25828Y-15686D03*
X26328Y-15686D03*
X26828Y-15686D03*
X27328Y-15686D03*
X27828Y-15686D03*
X28328Y-15686D03*
X28828Y-15686D03*
X29328Y-15686D03*
X29328Y-13486D03*
X28828Y-13486D03*
X28328Y-13486D03*
X27828Y-13486D03*
X27328Y-13486D03*
X26828Y-13486D03*
X26328Y-13486D03*
X25828Y-13486D03*
G54D14*
X29086Y-10590D03*
X29086Y-10393D03*
X29086Y-10196D03*
X29086Y-9999D03*
X28633Y-9999D03*
X28633Y-10196D03*
X28633Y-10393D03*
X28633Y-10590D03*
X19909Y-18760D03*
X19909Y-18957D03*
X19909Y-19154D03*
X19909Y-19351D03*
X20362Y-19351D03*
X20362Y-19154D03*
X20362Y-18957D03*
X20362Y-18760D03*
X36602Y-9823D03*
X36602Y-10020D03*
X36602Y-10217D03*
X36602Y-10414D03*
X37055Y-10414D03*
X37055Y-10217D03*
X37055Y-10020D03*
X37055Y-9823D03*
G54D15*
X39201Y-17697D03*
X39201Y-17894D03*
X39201Y-18091D03*
X39201Y-18288D03*
X39654Y-18288D03*
X39654Y-18091D03*
X39654Y-17894D03*
X39654Y-17697D03*
G54D14*
X36527Y-20039D03*
X36527Y-19842D03*
X36527Y-19645D03*
X36527Y-19448D03*
X36074Y-19448D03*
X36074Y-19645D03*
X36074Y-19842D03*
X36074Y-20039D03*
X30559Y-10000D03*
X30559Y-10197D03*
X30559Y-10394D03*
X30559Y-10591D03*
X31012Y-10591D03*
X31012Y-10394D03*
X31012Y-10197D03*
X31012Y-10000D03*
X12409Y-10079D03*
X12409Y-10276D03*
X12409Y-10473D03*
X12409Y-10670D03*
X12862Y-10670D03*
X12862Y-10473D03*
X12862Y-10276D03*
X12862Y-10079D03*
G54D16*
X6692Y-6692D03*
X6692Y-22440D03*
X42125Y-22440D03*
X42125Y-6692D03*
G54D17*
X11771Y-19270D03*
X11771Y-20020D03*
X15531Y-19565D03*
X15531Y-20315D03*
G54D18*
X21909Y-6830D03*
X26909Y-6830D03*
G54D19*
X23003Y-7830D03*
X23405Y-8531D03*
X23807Y-7830D03*
X24208Y-8531D03*
X24610Y-7830D03*
X25011Y-8531D03*
X25413Y-7830D03*
X25814Y-8531D03*
G54D20*
X21208Y-8181D03*
X27610Y-8181D03*
G54D18*
X6830Y-14330D03*
X6830Y-9330D03*
G54D19*
X7830Y-13236D03*
X8531Y-12834D03*
X7830Y-12433D03*
X8531Y-12031D03*
X7830Y-11629D03*
X8531Y-11228D03*
X7830Y-10826D03*
X8531Y-10425D03*
G54D20*
X8181Y-15031D03*
X8181Y-8629D03*
G54D18*
X41988Y-9330D03*
X41988Y-14330D03*
G54D19*
X40988Y-10425D03*
X40287Y-10826D03*
X40988Y-11228D03*
X40287Y-11629D03*
X40988Y-12031D03*
X40287Y-12433D03*
X40988Y-12834D03*
X40287Y-13236D03*
G54D20*
X40637Y-8629D03*
X40637Y-15031D03*
G54D18*
X34586Y-22303D03*
X29586Y-22303D03*
G54D19*
X33492Y-21303D03*
X33090Y-20602D03*
X32688Y-21303D03*
X32287Y-20602D03*
X31885Y-21303D03*
X31484Y-20602D03*
X31082Y-21303D03*
X30681Y-20602D03*
G54D20*
X35287Y-20952D03*
X28885Y-20952D03*
G54D18*
X14232Y-6830D03*
X19232Y-6830D03*
G54D19*
X15326Y-7830D03*
X15728Y-8531D03*
X16129Y-7830D03*
X16531Y-8531D03*
X16933Y-7830D03*
X17334Y-8531D03*
X17736Y-7830D03*
X18137Y-8531D03*
G54D20*
X13531Y-8181D03*
X19933Y-8181D03*
G54D18*
X26909Y-22303D03*
X21909Y-22303D03*
G54D19*
X25814Y-21303D03*
X25413Y-20602D03*
X25011Y-21303D03*
X24610Y-20602D03*
X24208Y-21303D03*
X23807Y-20602D03*
X23405Y-21303D03*
X23003Y-20602D03*
G54D20*
X27610Y-20952D03*
X21208Y-20952D03*
G54D21*
X14291Y-18818D03*
G54D22*
X13700Y-18916D03*
G54D21*
X13109Y-18818D03*
G54D23*
X13700Y-19861D03*
M02*
