G04 (created by PCBNEW (2013-07-07 BZR 4022)-stable) date 9/18/2013 13:07:00*
%MOIN*%
G04 Gerber Fmt 3.4, Leading zero omitted, Abs format*
%FSLAX34Y34*%
G01*
G70*
G90*
G04 APERTURE LIST*
%ADD10C,0.005*%
%ADD11C,0.011811*%
%ADD12C,0.00590551*%
%ADD13C,0.00787402*%
G04 APERTURE END LIST*
G54D10*
G54D11*
X46400Y-13709D02*
X46597Y-13709D01*
X46681Y-14018D02*
X46400Y-14018D01*
X46400Y-13428D01*
X46681Y-13428D01*
X47187Y-14018D02*
X47187Y-13428D01*
X47187Y-13990D02*
X47131Y-14018D01*
X47019Y-14018D01*
X46962Y-13990D01*
X46934Y-13962D01*
X46906Y-13906D01*
X46906Y-13737D01*
X46934Y-13681D01*
X46962Y-13652D01*
X47019Y-13624D01*
X47131Y-13624D01*
X47187Y-13652D01*
X47722Y-13624D02*
X47722Y-14102D01*
X47694Y-14159D01*
X47665Y-14187D01*
X47609Y-14215D01*
X47525Y-14215D01*
X47469Y-14187D01*
X47722Y-13990D02*
X47665Y-14018D01*
X47553Y-14018D01*
X47497Y-13990D01*
X47469Y-13962D01*
X47440Y-13906D01*
X47440Y-13737D01*
X47469Y-13681D01*
X47497Y-13652D01*
X47553Y-13624D01*
X47665Y-13624D01*
X47722Y-13652D01*
X48228Y-13990D02*
X48172Y-14018D01*
X48059Y-14018D01*
X48003Y-13990D01*
X47975Y-13934D01*
X47975Y-13709D01*
X48003Y-13652D01*
X48059Y-13624D01*
X48172Y-13624D01*
X48228Y-13652D01*
X48256Y-13709D01*
X48256Y-13765D01*
X47975Y-13821D01*
X49296Y-13962D02*
X49268Y-13990D01*
X49184Y-14018D01*
X49128Y-14018D01*
X49043Y-13990D01*
X48987Y-13934D01*
X48959Y-13877D01*
X48931Y-13765D01*
X48931Y-13681D01*
X48959Y-13568D01*
X48987Y-13512D01*
X49043Y-13456D01*
X49128Y-13428D01*
X49184Y-13428D01*
X49268Y-13456D01*
X49296Y-13484D01*
X49803Y-13624D02*
X49803Y-14018D01*
X49550Y-13624D02*
X49550Y-13934D01*
X49578Y-13990D01*
X49634Y-14018D01*
X49718Y-14018D01*
X49775Y-13990D01*
X49803Y-13962D01*
X50000Y-13624D02*
X50224Y-13624D01*
X50084Y-13428D02*
X50084Y-13934D01*
X50112Y-13990D01*
X50168Y-14018D01*
X50224Y-14018D01*
X50393Y-13990D02*
X50449Y-14018D01*
X50562Y-14018D01*
X50618Y-13990D01*
X50646Y-13934D01*
X50646Y-13906D01*
X50618Y-13849D01*
X50562Y-13821D01*
X50478Y-13821D01*
X50421Y-13793D01*
X50393Y-13737D01*
X50393Y-13709D01*
X50421Y-13652D01*
X50478Y-13624D01*
X50562Y-13624D01*
X50618Y-13652D01*
G54D12*
X4724Y-24409D02*
X4724Y-4724D01*
X44094Y-4724D02*
X44094Y-24409D01*
X44094Y-24409D02*
X4724Y-24409D01*
X4724Y-4724D02*
X44094Y-4724D01*
G54D13*
X10374Y-10570D02*
X10570Y-10767D01*
X10570Y-10570D02*
X10374Y-10767D01*
X12303Y-11122D02*
X12500Y-11318D01*
X12500Y-11122D02*
X12303Y-11318D01*
X12972Y-11437D02*
X13169Y-11633D01*
X13169Y-11437D02*
X12972Y-11633D01*
X18759Y-14192D02*
X18956Y-14389D01*
X18956Y-14192D02*
X18759Y-14389D01*
X18759Y-15039D02*
X18956Y-15236D01*
X18956Y-15039D02*
X18759Y-15236D01*
X19251Y-14783D02*
X19448Y-14980D01*
X19448Y-14783D02*
X19251Y-14980D01*
X19468Y-19783D02*
X19665Y-19980D01*
X19665Y-19783D02*
X19468Y-19980D01*
X19744Y-14192D02*
X19940Y-14389D01*
X19940Y-14192D02*
X19744Y-14389D01*
X19744Y-16791D02*
X19940Y-16988D01*
X19940Y-16791D02*
X19744Y-16988D01*
X20748Y-10944D02*
X20944Y-11141D01*
X20944Y-10944D02*
X20748Y-11141D01*
X20748Y-15039D02*
X20944Y-15236D01*
X20944Y-15039D02*
X20748Y-15236D01*
X21240Y-13937D02*
X21437Y-14133D01*
X21437Y-13937D02*
X21240Y-14133D01*
X21240Y-16456D02*
X21437Y-16653D01*
X21437Y-16456D02*
X21240Y-16653D01*
X22244Y-9389D02*
X22440Y-9586D01*
X22440Y-9389D02*
X22244Y-9586D01*
X22685Y-19500D02*
X22881Y-19696D01*
X22881Y-19500D02*
X22685Y-19696D01*
X22795Y-11456D02*
X22992Y-11653D01*
X22992Y-11456D02*
X22795Y-11653D01*
X23700Y-18503D02*
X23897Y-18700D01*
X23897Y-18503D02*
X23700Y-18700D01*
X24173Y-19625D02*
X24370Y-19822D01*
X24370Y-19625D02*
X24173Y-19822D01*
X24940Y-11751D02*
X25137Y-11948D01*
X25137Y-11751D02*
X24940Y-11948D01*
X24940Y-12125D02*
X25137Y-12322D01*
X25137Y-12125D02*
X24940Y-12322D01*
X25728Y-14488D02*
X25925Y-14685D01*
X25925Y-14488D02*
X25728Y-14685D01*
X26732Y-16161D02*
X26929Y-16358D01*
X26929Y-16161D02*
X26732Y-16358D01*
X27224Y-14783D02*
X27421Y-14980D01*
X27421Y-14783D02*
X27224Y-14980D01*
X27736Y-14192D02*
X27933Y-14389D01*
X27933Y-14192D02*
X27736Y-14389D01*
X28740Y-15039D02*
X28937Y-15236D01*
X28937Y-15039D02*
X28740Y-15236D01*
X28996Y-9389D02*
X29192Y-9586D01*
X29192Y-9389D02*
X28996Y-9586D01*
X29232Y-13937D02*
X29429Y-14133D01*
X29429Y-13937D02*
X29232Y-14133D01*
X29704Y-19291D02*
X29901Y-19488D01*
X29901Y-19291D02*
X29704Y-19488D01*
X29724Y-9803D02*
X29921Y-10000D01*
X29921Y-9803D02*
X29724Y-10000D01*
X29724Y-10295D02*
X29921Y-10492D01*
X29921Y-10295D02*
X29724Y-10492D01*
X30964Y-18326D02*
X31161Y-18523D01*
X31161Y-18326D02*
X30964Y-18523D01*
X32066Y-17224D02*
X32263Y-17421D01*
X32263Y-17224D02*
X32066Y-17421D01*
X33287Y-15039D02*
X33484Y-15236D01*
X33484Y-15039D02*
X33287Y-15236D01*
X33720Y-17598D02*
X33917Y-17795D01*
X33917Y-17598D02*
X33720Y-17795D01*
X33779Y-14488D02*
X33976Y-14685D01*
X33976Y-14488D02*
X33779Y-14685D01*
X38503Y-17598D02*
X38700Y-17795D01*
X38700Y-17598D02*
X38503Y-17795D01*
X9881Y-19251D02*
G75*
G03X9881Y-19251I-118J0D01*
G74*
G01*
X10393Y-19251D02*
G75*
G03X10393Y-19251I-118J0D01*
G74*
G01*
X10905Y-19251D02*
G75*
G03X10905Y-19251I-118J0D01*
G74*
G01*
X16850Y-19763D02*
G75*
G03X16850Y-19763I-118J0D01*
G74*
G01*
X17165Y-20078D02*
G75*
G03X17165Y-20078I-118J0D01*
G74*
G01*
X17854Y-15374D02*
G75*
G03X17854Y-15374I-118J0D01*
G74*
G01*
X18169Y-15708D02*
G75*
G03X18169Y-15708I-118J0D01*
G74*
G01*
X19114Y-12716D02*
G75*
G03X19114Y-12716I-118J0D01*
G74*
G01*
X25492Y-13484D02*
G75*
G03X25492Y-13484I-118J0D01*
G74*
G01*
X32992Y-9566D02*
G75*
G03X32992Y-9566I-118J0D01*
G74*
G01*
X32992Y-12381D02*
G75*
G03X32992Y-12381I-118J0D01*
G74*
G01*
X35925Y-14074D02*
G75*
G03X35925Y-14074I-118J0D01*
G74*
G01*
X36003Y-16338D02*
G75*
G03X36003Y-16338I-118J0D01*
G74*
G01*
X36171Y-9822D02*
G75*
G03X36171Y-9822I-118J0D01*
G74*
G01*
X31023Y-5759D02*
X31023Y-6074D01*
X30866Y-5917D02*
X31181Y-5917D01*
X31023Y-6759D02*
X31023Y-7074D01*
X30866Y-6917D02*
X31181Y-6917D01*
X33779Y-5759D02*
X33779Y-6074D01*
X33622Y-5917D02*
X33937Y-5917D01*
X33779Y-6759D02*
X33779Y-7074D01*
X33622Y-6917D02*
X33937Y-6917D01*
X36535Y-5759D02*
X36535Y-6074D01*
X36377Y-5917D02*
X36692Y-5917D01*
X36535Y-6759D02*
X36535Y-7074D01*
X36377Y-6917D02*
X36692Y-6917D01*
X39291Y-5759D02*
X39291Y-6074D01*
X39133Y-5917D02*
X39448Y-5917D01*
X39291Y-6759D02*
X39291Y-7074D01*
X39133Y-6917D02*
X39448Y-6917D01*
X41625Y-16633D02*
X41625Y-16948D01*
X41468Y-16791D02*
X41783Y-16791D01*
X41625Y-19153D02*
X41625Y-19468D01*
X41468Y-19311D02*
X41783Y-19311D01*
X42625Y-16633D02*
X42625Y-16948D01*
X42468Y-16791D02*
X42783Y-16791D01*
X42625Y-19153D02*
X42625Y-19468D01*
X42468Y-19311D02*
X42783Y-19311D01*
X7955Y-10951D02*
X7955Y-10701D01*
X7705Y-10701D01*
X7705Y-10951D01*
X7955Y-10951D01*
X7955Y-11755D02*
X7955Y-11504D01*
X7705Y-11504D01*
X7705Y-11755D01*
X7955Y-11755D01*
X7955Y-12558D02*
X7955Y-12307D01*
X7705Y-12307D01*
X7705Y-12558D01*
X7955Y-12558D01*
X7955Y-13361D02*
X7955Y-13111D01*
X7705Y-13111D01*
X7705Y-13361D01*
X7955Y-13361D01*
X8656Y-10550D02*
X8656Y-10300D01*
X8406Y-10300D01*
X8406Y-10550D01*
X8656Y-10550D01*
X8656Y-11353D02*
X8656Y-11103D01*
X8406Y-11103D01*
X8406Y-11353D01*
X8656Y-11353D01*
X8656Y-12156D02*
X8656Y-11906D01*
X8406Y-11906D01*
X8406Y-12156D01*
X8656Y-12156D01*
X8656Y-12959D02*
X8656Y-12709D01*
X8406Y-12709D01*
X8406Y-12959D01*
X8656Y-12959D01*
X15451Y-7955D02*
X15451Y-7705D01*
X15201Y-7705D01*
X15201Y-7955D01*
X15451Y-7955D01*
X15853Y-8656D02*
X15853Y-8406D01*
X15603Y-8406D01*
X15603Y-8656D01*
X15853Y-8656D01*
X16255Y-7955D02*
X16255Y-7705D01*
X16004Y-7705D01*
X16004Y-7955D01*
X16255Y-7955D01*
X16656Y-8656D02*
X16656Y-8406D01*
X16406Y-8406D01*
X16406Y-8656D01*
X16656Y-8656D01*
X17058Y-7955D02*
X17058Y-7705D01*
X16807Y-7705D01*
X16807Y-7955D01*
X17058Y-7955D01*
X17459Y-8656D02*
X17459Y-8406D01*
X17209Y-8406D01*
X17209Y-8656D01*
X17459Y-8656D01*
X17861Y-7955D02*
X17861Y-7705D01*
X17611Y-7705D01*
X17611Y-7955D01*
X17861Y-7955D01*
X18262Y-8656D02*
X18262Y-8406D01*
X18012Y-8406D01*
X18012Y-8656D01*
X18262Y-8656D01*
X23129Y-7955D02*
X23129Y-7705D01*
X22878Y-7705D01*
X22878Y-7955D01*
X23129Y-7955D01*
X23129Y-20727D02*
X23129Y-20477D01*
X22878Y-20477D01*
X22878Y-20727D01*
X23129Y-20727D01*
X23530Y-8656D02*
X23530Y-8406D01*
X23280Y-8406D01*
X23280Y-8656D01*
X23530Y-8656D01*
X23530Y-21428D02*
X23530Y-21177D01*
X23280Y-21177D01*
X23280Y-21428D01*
X23530Y-21428D01*
X23932Y-7955D02*
X23932Y-7705D01*
X23681Y-7705D01*
X23681Y-7955D01*
X23932Y-7955D01*
X23932Y-20727D02*
X23932Y-20477D01*
X23681Y-20477D01*
X23681Y-20727D01*
X23932Y-20727D01*
X24333Y-8656D02*
X24333Y-8406D01*
X24083Y-8406D01*
X24083Y-8656D01*
X24333Y-8656D01*
X24333Y-21428D02*
X24333Y-21177D01*
X24083Y-21177D01*
X24083Y-21428D01*
X24333Y-21428D01*
X24735Y-7955D02*
X24735Y-7705D01*
X24485Y-7705D01*
X24485Y-7955D01*
X24735Y-7955D01*
X24735Y-20727D02*
X24735Y-20477D01*
X24485Y-20477D01*
X24485Y-20727D01*
X24735Y-20727D01*
X25136Y-8656D02*
X25136Y-8406D01*
X24886Y-8406D01*
X24886Y-8656D01*
X25136Y-8656D01*
X25136Y-21428D02*
X25136Y-21177D01*
X24886Y-21177D01*
X24886Y-21428D01*
X25136Y-21428D01*
X25538Y-7955D02*
X25538Y-7705D01*
X25288Y-7705D01*
X25288Y-7955D01*
X25538Y-7955D01*
X25538Y-20727D02*
X25538Y-20477D01*
X25288Y-20477D01*
X25288Y-20727D01*
X25538Y-20727D01*
X25940Y-8656D02*
X25940Y-8406D01*
X25689Y-8406D01*
X25689Y-8656D01*
X25940Y-8656D01*
X25940Y-21428D02*
X25940Y-21177D01*
X25689Y-21177D01*
X25689Y-21428D01*
X25940Y-21428D01*
X30806Y-20727D02*
X30806Y-20477D01*
X30555Y-20477D01*
X30555Y-20727D01*
X30806Y-20727D01*
X31207Y-21428D02*
X31207Y-21177D01*
X30957Y-21177D01*
X30957Y-21428D01*
X31207Y-21428D01*
X31609Y-20727D02*
X31609Y-20477D01*
X31359Y-20477D01*
X31359Y-20727D01*
X31609Y-20727D01*
X32010Y-21428D02*
X32010Y-21177D01*
X31760Y-21177D01*
X31760Y-21428D01*
X32010Y-21428D01*
X32412Y-20727D02*
X32412Y-20477D01*
X32162Y-20477D01*
X32162Y-20727D01*
X32412Y-20727D01*
X32814Y-21428D02*
X32814Y-21177D01*
X32563Y-21177D01*
X32563Y-21428D01*
X32814Y-21428D01*
X33215Y-20727D02*
X33215Y-20477D01*
X32965Y-20477D01*
X32965Y-20727D01*
X33215Y-20727D01*
X33617Y-21428D02*
X33617Y-21177D01*
X33366Y-21177D01*
X33366Y-21428D01*
X33617Y-21428D01*
X40412Y-10951D02*
X40412Y-10701D01*
X40162Y-10701D01*
X40162Y-10951D01*
X40412Y-10951D01*
X40412Y-11755D02*
X40412Y-11504D01*
X40162Y-11504D01*
X40162Y-11755D01*
X40412Y-11755D01*
X40412Y-12558D02*
X40412Y-12307D01*
X40162Y-12307D01*
X40162Y-12558D01*
X40412Y-12558D01*
X40412Y-13361D02*
X40412Y-13111D01*
X40162Y-13111D01*
X40162Y-13361D01*
X40412Y-13361D01*
X41113Y-10550D02*
X41113Y-10300D01*
X40863Y-10300D01*
X40863Y-10550D01*
X41113Y-10550D01*
X41113Y-11353D02*
X41113Y-11103D01*
X40863Y-11103D01*
X40863Y-11353D01*
X41113Y-11353D01*
X41113Y-12156D02*
X41113Y-11906D01*
X40863Y-11906D01*
X40863Y-12156D01*
X41113Y-12156D01*
X41113Y-12959D02*
X41113Y-12709D01*
X40863Y-12709D01*
X40863Y-12959D01*
X41113Y-12959D01*
X8181Y-8944D02*
X8496Y-8629D01*
X8181Y-8314D01*
X7866Y-8629D01*
X8181Y-8944D01*
X8181Y-15346D02*
X8496Y-15031D01*
X8181Y-14716D01*
X7866Y-15031D01*
X8181Y-15346D01*
X13531Y-8496D02*
X13846Y-8181D01*
X13531Y-7866D01*
X13216Y-8181D01*
X13531Y-8496D01*
X19933Y-8496D02*
X20248Y-8181D01*
X19933Y-7866D01*
X19618Y-8181D01*
X19933Y-8496D01*
X21208Y-8496D02*
X21523Y-8181D01*
X21208Y-7866D01*
X20893Y-8181D01*
X21208Y-8496D01*
X21208Y-21267D02*
X21523Y-20952D01*
X21208Y-20637D01*
X20893Y-20952D01*
X21208Y-21267D01*
X27610Y-8496D02*
X27925Y-8181D01*
X27610Y-7866D01*
X27295Y-8181D01*
X27610Y-8496D01*
X27610Y-21267D02*
X27925Y-20952D01*
X27610Y-20637D01*
X27295Y-20952D01*
X27610Y-21267D01*
X28885Y-21267D02*
X29200Y-20952D01*
X28885Y-20637D01*
X28570Y-20952D01*
X28885Y-21267D01*
X35287Y-21267D02*
X35602Y-20952D01*
X35287Y-20637D01*
X34972Y-20952D01*
X35287Y-21267D01*
X40637Y-8944D02*
X40952Y-8629D01*
X40637Y-8314D01*
X40322Y-8629D01*
X40637Y-8944D01*
X40637Y-15346D02*
X40952Y-15031D01*
X40637Y-14716D01*
X40322Y-15031D01*
X40637Y-15346D01*
G54D11*
X5763Y-26216D02*
X5763Y-25035D01*
X6044Y-25035D01*
X6213Y-25091D01*
X6325Y-25203D01*
X6382Y-25316D01*
X6438Y-25541D01*
X6438Y-25710D01*
X6382Y-25935D01*
X6325Y-26047D01*
X6213Y-26160D01*
X6044Y-26216D01*
X5763Y-26216D01*
X6944Y-26216D02*
X6944Y-25428D01*
X6944Y-25653D02*
X7000Y-25541D01*
X7057Y-25485D01*
X7169Y-25428D01*
X7282Y-25428D01*
X7675Y-26216D02*
X7675Y-25428D01*
X7675Y-25035D02*
X7619Y-25091D01*
X7675Y-25147D01*
X7732Y-25091D01*
X7675Y-25035D01*
X7675Y-25147D01*
X8406Y-26216D02*
X8294Y-26160D01*
X8238Y-26047D01*
X8238Y-25035D01*
X9025Y-26216D02*
X8913Y-26160D01*
X8856Y-26047D01*
X8856Y-25035D01*
X10375Y-26216D02*
X10375Y-25035D01*
X10769Y-25878D01*
X11162Y-25035D01*
X11162Y-26216D01*
X12231Y-26216D02*
X12231Y-25597D01*
X12175Y-25485D01*
X12062Y-25428D01*
X11837Y-25428D01*
X11725Y-25485D01*
X12231Y-26160D02*
X12118Y-26216D01*
X11837Y-26216D01*
X11725Y-26160D01*
X11669Y-26047D01*
X11669Y-25935D01*
X11725Y-25822D01*
X11837Y-25766D01*
X12118Y-25766D01*
X12231Y-25710D01*
X12793Y-25428D02*
X12793Y-26609D01*
X12793Y-25485D02*
X12906Y-25428D01*
X13131Y-25428D01*
X13243Y-25485D01*
X13300Y-25541D01*
X13356Y-25653D01*
X13356Y-25991D01*
X13300Y-26103D01*
X13243Y-26160D01*
X13131Y-26216D01*
X12906Y-26216D01*
X12793Y-26160D01*
X13862Y-26103D02*
X13918Y-26160D01*
X13862Y-26216D01*
X13806Y-26160D01*
X13862Y-26103D01*
X13862Y-26216D01*
X13862Y-25485D02*
X13918Y-25541D01*
X13862Y-25597D01*
X13806Y-25541D01*
X13862Y-25485D01*
X13862Y-25597D01*
X4498Y-28120D02*
X4694Y-28316D01*
X4694Y-28120D02*
X4498Y-28316D01*
X5988Y-27515D02*
X6100Y-27515D01*
X6213Y-27571D01*
X6269Y-27627D01*
X6325Y-27740D01*
X6382Y-27965D01*
X6382Y-28246D01*
X6325Y-28471D01*
X6269Y-28584D01*
X6213Y-28640D01*
X6100Y-28696D01*
X5988Y-28696D01*
X5875Y-28640D01*
X5819Y-28584D01*
X5763Y-28471D01*
X5707Y-28246D01*
X5707Y-27965D01*
X5763Y-27740D01*
X5819Y-27627D01*
X5875Y-27571D01*
X5988Y-27515D01*
X6888Y-28584D02*
X6944Y-28640D01*
X6888Y-28696D01*
X6832Y-28640D01*
X6888Y-28584D01*
X6888Y-28696D01*
X8013Y-27515D02*
X7450Y-27515D01*
X7394Y-28077D01*
X7450Y-28021D01*
X7563Y-27965D01*
X7844Y-27965D01*
X7956Y-28021D01*
X8013Y-28077D01*
X8069Y-28190D01*
X8069Y-28471D01*
X8013Y-28584D01*
X7956Y-28640D01*
X7844Y-28696D01*
X7563Y-28696D01*
X7450Y-28640D01*
X7394Y-28584D01*
X8800Y-27515D02*
X8913Y-27515D01*
X9025Y-27571D01*
X9081Y-27627D01*
X9138Y-27740D01*
X9194Y-27965D01*
X9194Y-28246D01*
X9138Y-28471D01*
X9081Y-28584D01*
X9025Y-28640D01*
X8913Y-28696D01*
X8800Y-28696D01*
X8688Y-28640D01*
X8631Y-28584D01*
X8575Y-28471D01*
X8519Y-28246D01*
X8519Y-27965D01*
X8575Y-27740D01*
X8631Y-27627D01*
X8688Y-27571D01*
X8800Y-27515D01*
X9700Y-28696D02*
X9700Y-27909D01*
X9700Y-28021D02*
X9756Y-27965D01*
X9869Y-27909D01*
X10037Y-27909D01*
X10150Y-27965D01*
X10206Y-28077D01*
X10206Y-28696D01*
X10206Y-28077D02*
X10262Y-27965D01*
X10375Y-27909D01*
X10544Y-27909D01*
X10656Y-27965D01*
X10712Y-28077D01*
X10712Y-28696D01*
X11275Y-28696D02*
X11275Y-27909D01*
X11275Y-28021D02*
X11331Y-27965D01*
X11444Y-27909D01*
X11612Y-27909D01*
X11725Y-27965D01*
X11781Y-28077D01*
X11781Y-28696D01*
X11781Y-28077D02*
X11837Y-27965D01*
X11950Y-27909D01*
X12118Y-27909D01*
X12231Y-27965D01*
X12287Y-28077D01*
X12287Y-28696D01*
X14593Y-27459D02*
X13581Y-28977D01*
X16112Y-27515D02*
X16224Y-27515D01*
X16337Y-27571D01*
X16393Y-27627D01*
X16449Y-27740D01*
X16505Y-27965D01*
X16505Y-28246D01*
X16449Y-28471D01*
X16393Y-28584D01*
X16337Y-28640D01*
X16224Y-28696D01*
X16112Y-28696D01*
X15999Y-28640D01*
X15943Y-28584D01*
X15887Y-28471D01*
X15830Y-28246D01*
X15830Y-27965D01*
X15887Y-27740D01*
X15943Y-27627D01*
X15999Y-27571D01*
X16112Y-27515D01*
X17012Y-28584D02*
X17068Y-28640D01*
X17012Y-28696D01*
X16955Y-28640D01*
X17012Y-28584D01*
X17012Y-28696D01*
X17799Y-27515D02*
X17911Y-27515D01*
X18024Y-27571D01*
X18080Y-27627D01*
X18136Y-27740D01*
X18193Y-27965D01*
X18193Y-28246D01*
X18136Y-28471D01*
X18080Y-28584D01*
X18024Y-28640D01*
X17911Y-28696D01*
X17799Y-28696D01*
X17687Y-28640D01*
X17630Y-28584D01*
X17574Y-28471D01*
X17518Y-28246D01*
X17518Y-27965D01*
X17574Y-27740D01*
X17630Y-27627D01*
X17687Y-27571D01*
X17799Y-27515D01*
X18643Y-27627D02*
X18699Y-27571D01*
X18811Y-27515D01*
X19093Y-27515D01*
X19205Y-27571D01*
X19261Y-27627D01*
X19318Y-27740D01*
X19318Y-27852D01*
X19261Y-28021D01*
X18586Y-28696D01*
X19318Y-28696D01*
X20049Y-27515D02*
X20161Y-27515D01*
X20274Y-27571D01*
X20330Y-27627D01*
X20386Y-27740D01*
X20442Y-27965D01*
X20442Y-28246D01*
X20386Y-28471D01*
X20330Y-28584D01*
X20274Y-28640D01*
X20161Y-28696D01*
X20049Y-28696D01*
X19936Y-28640D01*
X19880Y-28584D01*
X19824Y-28471D01*
X19767Y-28246D01*
X19767Y-27965D01*
X19824Y-27740D01*
X19880Y-27627D01*
X19936Y-27571D01*
X20049Y-27515D01*
X20892Y-27515D02*
X20892Y-27740D01*
X21342Y-27515D02*
X21342Y-27740D01*
X23086Y-29146D02*
X23030Y-29090D01*
X22917Y-28921D01*
X22861Y-28809D01*
X22805Y-28640D01*
X22748Y-28359D01*
X22748Y-28134D01*
X22805Y-27852D01*
X22861Y-27684D01*
X22917Y-27571D01*
X23030Y-27402D01*
X23086Y-27346D01*
X23423Y-27515D02*
X24154Y-27515D01*
X23761Y-27965D01*
X23929Y-27965D01*
X24042Y-28021D01*
X24098Y-28077D01*
X24154Y-28190D01*
X24154Y-28471D01*
X24098Y-28584D01*
X24042Y-28640D01*
X23929Y-28696D01*
X23592Y-28696D01*
X23480Y-28640D01*
X23423Y-28584D01*
X25167Y-27515D02*
X24942Y-27515D01*
X24829Y-27571D01*
X24773Y-27627D01*
X24661Y-27796D01*
X24604Y-28021D01*
X24604Y-28471D01*
X24661Y-28584D01*
X24717Y-28640D01*
X24829Y-28696D01*
X25054Y-28696D01*
X25167Y-28640D01*
X25223Y-28584D01*
X25279Y-28471D01*
X25279Y-28190D01*
X25223Y-28077D01*
X25167Y-28021D01*
X25054Y-27965D01*
X24829Y-27965D01*
X24717Y-28021D01*
X24661Y-28077D01*
X24604Y-28190D01*
X26685Y-28696D02*
X26685Y-27515D01*
X27192Y-28696D02*
X27192Y-28077D01*
X27135Y-27965D01*
X27023Y-27909D01*
X26854Y-27909D01*
X26742Y-27965D01*
X26685Y-28021D01*
X27923Y-28696D02*
X27810Y-28640D01*
X27754Y-28584D01*
X27698Y-28471D01*
X27698Y-28134D01*
X27754Y-28021D01*
X27810Y-27965D01*
X27923Y-27909D01*
X28091Y-27909D01*
X28204Y-27965D01*
X28260Y-28021D01*
X28316Y-28134D01*
X28316Y-28471D01*
X28260Y-28584D01*
X28204Y-28640D01*
X28091Y-28696D01*
X27923Y-28696D01*
X28991Y-28696D02*
X28879Y-28640D01*
X28823Y-28527D01*
X28823Y-27515D01*
X29891Y-28640D02*
X29779Y-28696D01*
X29554Y-28696D01*
X29441Y-28640D01*
X29385Y-28527D01*
X29385Y-28077D01*
X29441Y-27965D01*
X29554Y-27909D01*
X29779Y-27909D01*
X29891Y-27965D01*
X29947Y-28077D01*
X29947Y-28190D01*
X29385Y-28302D01*
X30397Y-28640D02*
X30510Y-28696D01*
X30735Y-28696D01*
X30847Y-28640D01*
X30904Y-28527D01*
X30904Y-28471D01*
X30847Y-28359D01*
X30735Y-28302D01*
X30566Y-28302D01*
X30454Y-28246D01*
X30397Y-28134D01*
X30397Y-28077D01*
X30454Y-27965D01*
X30566Y-27909D01*
X30735Y-27909D01*
X30847Y-27965D01*
X31297Y-29146D02*
X31354Y-29090D01*
X31466Y-28921D01*
X31522Y-28809D01*
X31579Y-28640D01*
X31635Y-28359D01*
X31635Y-28134D01*
X31579Y-27852D01*
X31522Y-27684D01*
X31466Y-27571D01*
X31354Y-27402D01*
X31297Y-27346D01*
G54D13*
X4694Y-29777D02*
G75*
G03X4694Y-29777I-118J0D01*
G74*
G01*
G54D11*
X5988Y-29074D02*
X6100Y-29074D01*
X6213Y-29130D01*
X6269Y-29187D01*
X6325Y-29299D01*
X6382Y-29524D01*
X6382Y-29805D01*
X6325Y-30030D01*
X6269Y-30143D01*
X6213Y-30199D01*
X6100Y-30255D01*
X5988Y-30255D01*
X5875Y-30199D01*
X5819Y-30143D01*
X5763Y-30030D01*
X5707Y-29805D01*
X5707Y-29524D01*
X5763Y-29299D01*
X5819Y-29187D01*
X5875Y-29130D01*
X5988Y-29074D01*
X6888Y-30143D02*
X6944Y-30199D01*
X6888Y-30255D01*
X6832Y-30199D01*
X6888Y-30143D01*
X6888Y-30255D01*
X7956Y-29074D02*
X7732Y-29074D01*
X7619Y-29130D01*
X7563Y-29187D01*
X7450Y-29355D01*
X7394Y-29580D01*
X7394Y-30030D01*
X7450Y-30143D01*
X7507Y-30199D01*
X7619Y-30255D01*
X7844Y-30255D01*
X7956Y-30199D01*
X8013Y-30143D01*
X8069Y-30030D01*
X8069Y-29749D01*
X8013Y-29636D01*
X7956Y-29580D01*
X7844Y-29524D01*
X7619Y-29524D01*
X7507Y-29580D01*
X7450Y-29636D01*
X7394Y-29749D01*
X8800Y-29074D02*
X8913Y-29074D01*
X9025Y-29130D01*
X9081Y-29187D01*
X9138Y-29299D01*
X9194Y-29524D01*
X9194Y-29805D01*
X9138Y-30030D01*
X9081Y-30143D01*
X9025Y-30199D01*
X8913Y-30255D01*
X8800Y-30255D01*
X8688Y-30199D01*
X8631Y-30143D01*
X8575Y-30030D01*
X8519Y-29805D01*
X8519Y-29524D01*
X8575Y-29299D01*
X8631Y-29187D01*
X8688Y-29130D01*
X8800Y-29074D01*
X9700Y-30255D02*
X9700Y-29468D01*
X9700Y-29580D02*
X9756Y-29524D01*
X9869Y-29468D01*
X10037Y-29468D01*
X10150Y-29524D01*
X10206Y-29636D01*
X10206Y-30255D01*
X10206Y-29636D02*
X10262Y-29524D01*
X10375Y-29468D01*
X10544Y-29468D01*
X10656Y-29524D01*
X10712Y-29636D01*
X10712Y-30255D01*
X11275Y-30255D02*
X11275Y-29468D01*
X11275Y-29580D02*
X11331Y-29524D01*
X11444Y-29468D01*
X11612Y-29468D01*
X11725Y-29524D01*
X11781Y-29636D01*
X11781Y-30255D01*
X11781Y-29636D02*
X11837Y-29524D01*
X11950Y-29468D01*
X12118Y-29468D01*
X12231Y-29524D01*
X12287Y-29636D01*
X12287Y-30255D01*
X14593Y-29018D02*
X13581Y-30536D01*
X16112Y-29074D02*
X16224Y-29074D01*
X16337Y-29130D01*
X16393Y-29187D01*
X16449Y-29299D01*
X16505Y-29524D01*
X16505Y-29805D01*
X16449Y-30030D01*
X16393Y-30143D01*
X16337Y-30199D01*
X16224Y-30255D01*
X16112Y-30255D01*
X15999Y-30199D01*
X15943Y-30143D01*
X15887Y-30030D01*
X15830Y-29805D01*
X15830Y-29524D01*
X15887Y-29299D01*
X15943Y-29187D01*
X15999Y-29130D01*
X16112Y-29074D01*
X17012Y-30143D02*
X17068Y-30199D01*
X17012Y-30255D01*
X16955Y-30199D01*
X17012Y-30143D01*
X17012Y-30255D01*
X17799Y-29074D02*
X17911Y-29074D01*
X18024Y-29130D01*
X18080Y-29187D01*
X18136Y-29299D01*
X18193Y-29524D01*
X18193Y-29805D01*
X18136Y-30030D01*
X18080Y-30143D01*
X18024Y-30199D01*
X17911Y-30255D01*
X17799Y-30255D01*
X17687Y-30199D01*
X17630Y-30143D01*
X17574Y-30030D01*
X17518Y-29805D01*
X17518Y-29524D01*
X17574Y-29299D01*
X17630Y-29187D01*
X17687Y-29130D01*
X17799Y-29074D01*
X18643Y-29187D02*
X18699Y-29130D01*
X18811Y-29074D01*
X19093Y-29074D01*
X19205Y-29130D01*
X19261Y-29187D01*
X19318Y-29299D01*
X19318Y-29411D01*
X19261Y-29580D01*
X18586Y-30255D01*
X19318Y-30255D01*
X20330Y-29468D02*
X20330Y-30255D01*
X20049Y-29018D02*
X19767Y-29861D01*
X20499Y-29861D01*
X20892Y-29074D02*
X20892Y-29299D01*
X21342Y-29074D02*
X21342Y-29299D01*
X23086Y-30705D02*
X23030Y-30649D01*
X22917Y-30480D01*
X22861Y-30368D01*
X22805Y-30199D01*
X22748Y-29918D01*
X22748Y-29693D01*
X22805Y-29411D01*
X22861Y-29243D01*
X22917Y-29130D01*
X23030Y-28962D01*
X23086Y-28905D01*
X24154Y-30255D02*
X23480Y-30255D01*
X23817Y-30255D02*
X23817Y-29074D01*
X23705Y-29243D01*
X23592Y-29355D01*
X23480Y-29411D01*
X25167Y-29468D02*
X25167Y-30255D01*
X24886Y-29018D02*
X24604Y-29861D01*
X25336Y-29861D01*
X26685Y-30255D02*
X26685Y-29074D01*
X27192Y-30255D02*
X27192Y-29636D01*
X27135Y-29524D01*
X27023Y-29468D01*
X26854Y-29468D01*
X26742Y-29524D01*
X26685Y-29580D01*
X27923Y-30255D02*
X27810Y-30199D01*
X27754Y-30143D01*
X27698Y-30030D01*
X27698Y-29693D01*
X27754Y-29580D01*
X27810Y-29524D01*
X27923Y-29468D01*
X28091Y-29468D01*
X28204Y-29524D01*
X28260Y-29580D01*
X28316Y-29693D01*
X28316Y-30030D01*
X28260Y-30143D01*
X28204Y-30199D01*
X28091Y-30255D01*
X27923Y-30255D01*
X28991Y-30255D02*
X28879Y-30199D01*
X28823Y-30086D01*
X28823Y-29074D01*
X29891Y-30199D02*
X29779Y-30255D01*
X29554Y-30255D01*
X29441Y-30199D01*
X29385Y-30086D01*
X29385Y-29636D01*
X29441Y-29524D01*
X29554Y-29468D01*
X29779Y-29468D01*
X29891Y-29524D01*
X29947Y-29636D01*
X29947Y-29749D01*
X29385Y-29861D01*
X30397Y-30199D02*
X30510Y-30255D01*
X30735Y-30255D01*
X30847Y-30199D01*
X30904Y-30086D01*
X30904Y-30030D01*
X30847Y-29918D01*
X30735Y-29861D01*
X30566Y-29861D01*
X30454Y-29805D01*
X30397Y-29693D01*
X30397Y-29636D01*
X30454Y-29524D01*
X30566Y-29468D01*
X30735Y-29468D01*
X30847Y-29524D01*
X31297Y-30705D02*
X31354Y-30649D01*
X31466Y-30480D01*
X31522Y-30368D01*
X31579Y-30199D01*
X31635Y-29918D01*
X31635Y-29693D01*
X31579Y-29411D01*
X31522Y-29243D01*
X31466Y-29130D01*
X31354Y-28962D01*
X31297Y-28905D01*
X4537Y-31179D02*
X4537Y-31494D01*
X4379Y-31336D02*
X4694Y-31336D01*
X5988Y-30633D02*
X6100Y-30633D01*
X6213Y-30689D01*
X6269Y-30746D01*
X6325Y-30858D01*
X6382Y-31083D01*
X6382Y-31364D01*
X6325Y-31589D01*
X6269Y-31702D01*
X6213Y-31758D01*
X6100Y-31814D01*
X5988Y-31814D01*
X5875Y-31758D01*
X5819Y-31702D01*
X5763Y-31589D01*
X5707Y-31364D01*
X5707Y-31083D01*
X5763Y-30858D01*
X5819Y-30746D01*
X5875Y-30689D01*
X5988Y-30633D01*
X6888Y-31702D02*
X6944Y-31758D01*
X6888Y-31814D01*
X6832Y-31758D01*
X6888Y-31702D01*
X6888Y-31814D01*
X7619Y-31139D02*
X7507Y-31083D01*
X7450Y-31027D01*
X7394Y-30914D01*
X7394Y-30858D01*
X7450Y-30746D01*
X7507Y-30689D01*
X7619Y-30633D01*
X7844Y-30633D01*
X7956Y-30689D01*
X8013Y-30746D01*
X8069Y-30858D01*
X8069Y-30914D01*
X8013Y-31027D01*
X7956Y-31083D01*
X7844Y-31139D01*
X7619Y-31139D01*
X7507Y-31196D01*
X7450Y-31252D01*
X7394Y-31364D01*
X7394Y-31589D01*
X7450Y-31702D01*
X7507Y-31758D01*
X7619Y-31814D01*
X7844Y-31814D01*
X7956Y-31758D01*
X8013Y-31702D01*
X8069Y-31589D01*
X8069Y-31364D01*
X8013Y-31252D01*
X7956Y-31196D01*
X7844Y-31139D01*
X8800Y-30633D02*
X8913Y-30633D01*
X9025Y-30689D01*
X9081Y-30746D01*
X9138Y-30858D01*
X9194Y-31083D01*
X9194Y-31364D01*
X9138Y-31589D01*
X9081Y-31702D01*
X9025Y-31758D01*
X8913Y-31814D01*
X8800Y-31814D01*
X8688Y-31758D01*
X8631Y-31702D01*
X8575Y-31589D01*
X8519Y-31364D01*
X8519Y-31083D01*
X8575Y-30858D01*
X8631Y-30746D01*
X8688Y-30689D01*
X8800Y-30633D01*
X9700Y-31814D02*
X9700Y-31027D01*
X9700Y-31139D02*
X9756Y-31083D01*
X9869Y-31027D01*
X10037Y-31027D01*
X10150Y-31083D01*
X10206Y-31196D01*
X10206Y-31814D01*
X10206Y-31196D02*
X10262Y-31083D01*
X10375Y-31027D01*
X10544Y-31027D01*
X10656Y-31083D01*
X10712Y-31196D01*
X10712Y-31814D01*
X11275Y-31814D02*
X11275Y-31027D01*
X11275Y-31139D02*
X11331Y-31083D01*
X11444Y-31027D01*
X11612Y-31027D01*
X11725Y-31083D01*
X11781Y-31196D01*
X11781Y-31814D01*
X11781Y-31196D02*
X11837Y-31083D01*
X11950Y-31027D01*
X12118Y-31027D01*
X12231Y-31083D01*
X12287Y-31196D01*
X12287Y-31814D01*
X14593Y-30577D02*
X13581Y-32095D01*
X16112Y-30633D02*
X16224Y-30633D01*
X16337Y-30689D01*
X16393Y-30746D01*
X16449Y-30858D01*
X16505Y-31083D01*
X16505Y-31364D01*
X16449Y-31589D01*
X16393Y-31702D01*
X16337Y-31758D01*
X16224Y-31814D01*
X16112Y-31814D01*
X15999Y-31758D01*
X15943Y-31702D01*
X15887Y-31589D01*
X15830Y-31364D01*
X15830Y-31083D01*
X15887Y-30858D01*
X15943Y-30746D01*
X15999Y-30689D01*
X16112Y-30633D01*
X17012Y-31702D02*
X17068Y-31758D01*
X17012Y-31814D01*
X16955Y-31758D01*
X17012Y-31702D01*
X17012Y-31814D01*
X17799Y-30633D02*
X17911Y-30633D01*
X18024Y-30689D01*
X18080Y-30746D01*
X18136Y-30858D01*
X18193Y-31083D01*
X18193Y-31364D01*
X18136Y-31589D01*
X18080Y-31702D01*
X18024Y-31758D01*
X17911Y-31814D01*
X17799Y-31814D01*
X17687Y-31758D01*
X17630Y-31702D01*
X17574Y-31589D01*
X17518Y-31364D01*
X17518Y-31083D01*
X17574Y-30858D01*
X17630Y-30746D01*
X17687Y-30689D01*
X17799Y-30633D01*
X18586Y-30633D02*
X19318Y-30633D01*
X18924Y-31083D01*
X19093Y-31083D01*
X19205Y-31139D01*
X19261Y-31196D01*
X19318Y-31308D01*
X19318Y-31589D01*
X19261Y-31702D01*
X19205Y-31758D01*
X19093Y-31814D01*
X18755Y-31814D01*
X18643Y-31758D01*
X18586Y-31702D01*
X20442Y-31814D02*
X19767Y-31814D01*
X20105Y-31814D02*
X20105Y-30633D01*
X19992Y-30802D01*
X19880Y-30914D01*
X19767Y-30971D01*
X20892Y-30633D02*
X20892Y-30858D01*
X21342Y-30633D02*
X21342Y-30858D01*
X23086Y-32264D02*
X23030Y-32208D01*
X22917Y-32039D01*
X22861Y-31927D01*
X22805Y-31758D01*
X22748Y-31477D01*
X22748Y-31252D01*
X22805Y-30971D01*
X22861Y-30802D01*
X22917Y-30689D01*
X23030Y-30521D01*
X23086Y-30464D01*
X24154Y-31814D02*
X23480Y-31814D01*
X23817Y-31814D02*
X23817Y-30633D01*
X23705Y-30802D01*
X23592Y-30914D01*
X23480Y-30971D01*
X24604Y-30746D02*
X24661Y-30689D01*
X24773Y-30633D01*
X25054Y-30633D01*
X25167Y-30689D01*
X25223Y-30746D01*
X25279Y-30858D01*
X25279Y-30971D01*
X25223Y-31139D01*
X24548Y-31814D01*
X25279Y-31814D01*
X26685Y-31814D02*
X26685Y-30633D01*
X27192Y-31814D02*
X27192Y-31196D01*
X27135Y-31083D01*
X27023Y-31027D01*
X26854Y-31027D01*
X26742Y-31083D01*
X26685Y-31139D01*
X27923Y-31814D02*
X27810Y-31758D01*
X27754Y-31702D01*
X27698Y-31589D01*
X27698Y-31252D01*
X27754Y-31139D01*
X27810Y-31083D01*
X27923Y-31027D01*
X28091Y-31027D01*
X28204Y-31083D01*
X28260Y-31139D01*
X28316Y-31252D01*
X28316Y-31589D01*
X28260Y-31702D01*
X28204Y-31758D01*
X28091Y-31814D01*
X27923Y-31814D01*
X28991Y-31814D02*
X28879Y-31758D01*
X28823Y-31645D01*
X28823Y-30633D01*
X29891Y-31758D02*
X29779Y-31814D01*
X29554Y-31814D01*
X29441Y-31758D01*
X29385Y-31645D01*
X29385Y-31196D01*
X29441Y-31083D01*
X29554Y-31027D01*
X29779Y-31027D01*
X29891Y-31083D01*
X29947Y-31196D01*
X29947Y-31308D01*
X29385Y-31420D01*
X30397Y-31758D02*
X30510Y-31814D01*
X30735Y-31814D01*
X30847Y-31758D01*
X30904Y-31645D01*
X30904Y-31589D01*
X30847Y-31477D01*
X30735Y-31420D01*
X30566Y-31420D01*
X30454Y-31364D01*
X30397Y-31252D01*
X30397Y-31196D01*
X30454Y-31083D01*
X30566Y-31027D01*
X30735Y-31027D01*
X30847Y-31083D01*
X31297Y-32264D02*
X31354Y-32208D01*
X31466Y-32039D01*
X31522Y-31927D01*
X31579Y-31758D01*
X31635Y-31477D01*
X31635Y-31252D01*
X31579Y-30971D01*
X31522Y-30802D01*
X31466Y-30689D01*
X31354Y-30521D01*
X31297Y-30464D01*
G54D13*
X4643Y-33020D02*
X4643Y-32770D01*
X4392Y-32770D01*
X4392Y-33020D01*
X4643Y-33020D01*
G54D11*
X5988Y-32192D02*
X6100Y-32192D01*
X6213Y-32248D01*
X6269Y-32305D01*
X6325Y-32417D01*
X6382Y-32642D01*
X6382Y-32923D01*
X6325Y-33148D01*
X6269Y-33261D01*
X6213Y-33317D01*
X6100Y-33373D01*
X5988Y-33373D01*
X5875Y-33317D01*
X5819Y-33261D01*
X5763Y-33148D01*
X5707Y-32923D01*
X5707Y-32642D01*
X5763Y-32417D01*
X5819Y-32305D01*
X5875Y-32248D01*
X5988Y-32192D01*
X6888Y-33261D02*
X6944Y-33317D01*
X6888Y-33373D01*
X6832Y-33317D01*
X6888Y-33261D01*
X6888Y-33373D01*
X7507Y-33373D02*
X7732Y-33373D01*
X7844Y-33317D01*
X7900Y-33261D01*
X8013Y-33092D01*
X8069Y-32867D01*
X8069Y-32417D01*
X8013Y-32305D01*
X7956Y-32248D01*
X7844Y-32192D01*
X7619Y-32192D01*
X7507Y-32248D01*
X7450Y-32305D01*
X7394Y-32417D01*
X7394Y-32698D01*
X7450Y-32811D01*
X7507Y-32867D01*
X7619Y-32923D01*
X7844Y-32923D01*
X7956Y-32867D01*
X8013Y-32811D01*
X8069Y-32698D01*
X8800Y-32192D02*
X8913Y-32192D01*
X9025Y-32248D01*
X9081Y-32305D01*
X9138Y-32417D01*
X9194Y-32642D01*
X9194Y-32923D01*
X9138Y-33148D01*
X9081Y-33261D01*
X9025Y-33317D01*
X8913Y-33373D01*
X8800Y-33373D01*
X8688Y-33317D01*
X8631Y-33261D01*
X8575Y-33148D01*
X8519Y-32923D01*
X8519Y-32642D01*
X8575Y-32417D01*
X8631Y-32305D01*
X8688Y-32248D01*
X8800Y-32192D01*
X9700Y-33373D02*
X9700Y-32586D01*
X9700Y-32698D02*
X9756Y-32642D01*
X9869Y-32586D01*
X10037Y-32586D01*
X10150Y-32642D01*
X10206Y-32755D01*
X10206Y-33373D01*
X10206Y-32755D02*
X10262Y-32642D01*
X10375Y-32586D01*
X10544Y-32586D01*
X10656Y-32642D01*
X10712Y-32755D01*
X10712Y-33373D01*
X11275Y-33373D02*
X11275Y-32586D01*
X11275Y-32698D02*
X11331Y-32642D01*
X11444Y-32586D01*
X11612Y-32586D01*
X11725Y-32642D01*
X11781Y-32755D01*
X11781Y-33373D01*
X11781Y-32755D02*
X11837Y-32642D01*
X11950Y-32586D01*
X12118Y-32586D01*
X12231Y-32642D01*
X12287Y-32755D01*
X12287Y-33373D01*
X14593Y-32136D02*
X13581Y-33654D01*
X16112Y-32192D02*
X16224Y-32192D01*
X16337Y-32248D01*
X16393Y-32305D01*
X16449Y-32417D01*
X16505Y-32642D01*
X16505Y-32923D01*
X16449Y-33148D01*
X16393Y-33261D01*
X16337Y-33317D01*
X16224Y-33373D01*
X16112Y-33373D01*
X15999Y-33317D01*
X15943Y-33261D01*
X15887Y-33148D01*
X15830Y-32923D01*
X15830Y-32642D01*
X15887Y-32417D01*
X15943Y-32305D01*
X15999Y-32248D01*
X16112Y-32192D01*
X17012Y-33261D02*
X17068Y-33317D01*
X17012Y-33373D01*
X16955Y-33317D01*
X17012Y-33261D01*
X17012Y-33373D01*
X17799Y-32192D02*
X17911Y-32192D01*
X18024Y-32248D01*
X18080Y-32305D01*
X18136Y-32417D01*
X18193Y-32642D01*
X18193Y-32923D01*
X18136Y-33148D01*
X18080Y-33261D01*
X18024Y-33317D01*
X17911Y-33373D01*
X17799Y-33373D01*
X17687Y-33317D01*
X17630Y-33261D01*
X17574Y-33148D01*
X17518Y-32923D01*
X17518Y-32642D01*
X17574Y-32417D01*
X17630Y-32305D01*
X17687Y-32248D01*
X17799Y-32192D01*
X18586Y-32192D02*
X19318Y-32192D01*
X18924Y-32642D01*
X19093Y-32642D01*
X19205Y-32698D01*
X19261Y-32755D01*
X19318Y-32867D01*
X19318Y-33148D01*
X19261Y-33261D01*
X19205Y-33317D01*
X19093Y-33373D01*
X18755Y-33373D01*
X18643Y-33317D01*
X18586Y-33261D01*
X20386Y-32192D02*
X19824Y-32192D01*
X19767Y-32755D01*
X19824Y-32698D01*
X19936Y-32642D01*
X20217Y-32642D01*
X20330Y-32698D01*
X20386Y-32755D01*
X20442Y-32867D01*
X20442Y-33148D01*
X20386Y-33261D01*
X20330Y-33317D01*
X20217Y-33373D01*
X19936Y-33373D01*
X19824Y-33317D01*
X19767Y-33261D01*
X20892Y-32192D02*
X20892Y-32417D01*
X21342Y-32192D02*
X21342Y-32417D01*
X23086Y-33823D02*
X23030Y-33767D01*
X22917Y-33598D01*
X22861Y-33486D01*
X22805Y-33317D01*
X22748Y-33036D01*
X22748Y-32811D01*
X22805Y-32530D01*
X22861Y-32361D01*
X22917Y-32248D01*
X23030Y-32080D01*
X23086Y-32023D01*
X24042Y-32586D02*
X24042Y-33373D01*
X23761Y-32136D02*
X23480Y-32980D01*
X24211Y-32980D01*
X24829Y-32698D02*
X24717Y-32642D01*
X24661Y-32586D01*
X24604Y-32473D01*
X24604Y-32417D01*
X24661Y-32305D01*
X24717Y-32248D01*
X24829Y-32192D01*
X25054Y-32192D01*
X25167Y-32248D01*
X25223Y-32305D01*
X25279Y-32417D01*
X25279Y-32473D01*
X25223Y-32586D01*
X25167Y-32642D01*
X25054Y-32698D01*
X24829Y-32698D01*
X24717Y-32755D01*
X24661Y-32811D01*
X24604Y-32923D01*
X24604Y-33148D01*
X24661Y-33261D01*
X24717Y-33317D01*
X24829Y-33373D01*
X25054Y-33373D01*
X25167Y-33317D01*
X25223Y-33261D01*
X25279Y-33148D01*
X25279Y-32923D01*
X25223Y-32811D01*
X25167Y-32755D01*
X25054Y-32698D01*
X26685Y-33373D02*
X26685Y-32192D01*
X27192Y-33373D02*
X27192Y-32755D01*
X27135Y-32642D01*
X27023Y-32586D01*
X26854Y-32586D01*
X26742Y-32642D01*
X26685Y-32698D01*
X27923Y-33373D02*
X27810Y-33317D01*
X27754Y-33261D01*
X27698Y-33148D01*
X27698Y-32811D01*
X27754Y-32698D01*
X27810Y-32642D01*
X27923Y-32586D01*
X28091Y-32586D01*
X28204Y-32642D01*
X28260Y-32698D01*
X28316Y-32811D01*
X28316Y-33148D01*
X28260Y-33261D01*
X28204Y-33317D01*
X28091Y-33373D01*
X27923Y-33373D01*
X28991Y-33373D02*
X28879Y-33317D01*
X28823Y-33205D01*
X28823Y-32192D01*
X29891Y-33317D02*
X29779Y-33373D01*
X29554Y-33373D01*
X29441Y-33317D01*
X29385Y-33205D01*
X29385Y-32755D01*
X29441Y-32642D01*
X29554Y-32586D01*
X29779Y-32586D01*
X29891Y-32642D01*
X29947Y-32755D01*
X29947Y-32867D01*
X29385Y-32980D01*
X30397Y-33317D02*
X30510Y-33373D01*
X30735Y-33373D01*
X30847Y-33317D01*
X30904Y-33205D01*
X30904Y-33148D01*
X30847Y-33036D01*
X30735Y-32980D01*
X30566Y-32980D01*
X30454Y-32923D01*
X30397Y-32811D01*
X30397Y-32755D01*
X30454Y-32642D01*
X30566Y-32586D01*
X30735Y-32586D01*
X30847Y-32642D01*
X31297Y-33823D02*
X31354Y-33767D01*
X31466Y-33598D01*
X31522Y-33486D01*
X31579Y-33317D01*
X31635Y-33036D01*
X31635Y-32811D01*
X31579Y-32530D01*
X31522Y-32361D01*
X31466Y-32248D01*
X31354Y-32080D01*
X31297Y-32023D01*
G54D13*
X4379Y-34769D02*
X4694Y-34454D01*
X4379Y-34139D01*
X4064Y-34454D01*
X4379Y-34769D01*
G54D11*
X6382Y-34932D02*
X5707Y-34932D01*
X6044Y-34932D02*
X6044Y-33751D01*
X5932Y-33920D01*
X5819Y-34032D01*
X5707Y-34089D01*
X6888Y-34820D02*
X6944Y-34876D01*
X6888Y-34932D01*
X6832Y-34876D01*
X6888Y-34820D01*
X6888Y-34932D01*
X7956Y-33751D02*
X7732Y-33751D01*
X7619Y-33807D01*
X7563Y-33864D01*
X7450Y-34032D01*
X7394Y-34257D01*
X7394Y-34707D01*
X7450Y-34820D01*
X7507Y-34876D01*
X7619Y-34932D01*
X7844Y-34932D01*
X7956Y-34876D01*
X8013Y-34820D01*
X8069Y-34707D01*
X8069Y-34426D01*
X8013Y-34314D01*
X7956Y-34257D01*
X7844Y-34201D01*
X7619Y-34201D01*
X7507Y-34257D01*
X7450Y-34314D01*
X7394Y-34426D01*
X8800Y-33751D02*
X8913Y-33751D01*
X9025Y-33807D01*
X9081Y-33864D01*
X9138Y-33976D01*
X9194Y-34201D01*
X9194Y-34482D01*
X9138Y-34707D01*
X9081Y-34820D01*
X9025Y-34876D01*
X8913Y-34932D01*
X8800Y-34932D01*
X8688Y-34876D01*
X8631Y-34820D01*
X8575Y-34707D01*
X8519Y-34482D01*
X8519Y-34201D01*
X8575Y-33976D01*
X8631Y-33864D01*
X8688Y-33807D01*
X8800Y-33751D01*
X9700Y-34932D02*
X9700Y-34145D01*
X9700Y-34257D02*
X9756Y-34201D01*
X9869Y-34145D01*
X10037Y-34145D01*
X10150Y-34201D01*
X10206Y-34314D01*
X10206Y-34932D01*
X10206Y-34314D02*
X10262Y-34201D01*
X10375Y-34145D01*
X10544Y-34145D01*
X10656Y-34201D01*
X10712Y-34314D01*
X10712Y-34932D01*
X11275Y-34932D02*
X11275Y-34145D01*
X11275Y-34257D02*
X11331Y-34201D01*
X11444Y-34145D01*
X11612Y-34145D01*
X11725Y-34201D01*
X11781Y-34314D01*
X11781Y-34932D01*
X11781Y-34314D02*
X11837Y-34201D01*
X11950Y-34145D01*
X12118Y-34145D01*
X12231Y-34201D01*
X12287Y-34314D01*
X12287Y-34932D01*
X14593Y-33695D02*
X13581Y-35214D01*
X16112Y-33751D02*
X16224Y-33751D01*
X16337Y-33807D01*
X16393Y-33864D01*
X16449Y-33976D01*
X16505Y-34201D01*
X16505Y-34482D01*
X16449Y-34707D01*
X16393Y-34820D01*
X16337Y-34876D01*
X16224Y-34932D01*
X16112Y-34932D01*
X15999Y-34876D01*
X15943Y-34820D01*
X15887Y-34707D01*
X15830Y-34482D01*
X15830Y-34201D01*
X15887Y-33976D01*
X15943Y-33864D01*
X15999Y-33807D01*
X16112Y-33751D01*
X17012Y-34820D02*
X17068Y-34876D01*
X17012Y-34932D01*
X16955Y-34876D01*
X17012Y-34820D01*
X17012Y-34932D01*
X17799Y-33751D02*
X17911Y-33751D01*
X18024Y-33807D01*
X18080Y-33864D01*
X18136Y-33976D01*
X18193Y-34201D01*
X18193Y-34482D01*
X18136Y-34707D01*
X18080Y-34820D01*
X18024Y-34876D01*
X17911Y-34932D01*
X17799Y-34932D01*
X17687Y-34876D01*
X17630Y-34820D01*
X17574Y-34707D01*
X17518Y-34482D01*
X17518Y-34201D01*
X17574Y-33976D01*
X17630Y-33864D01*
X17687Y-33807D01*
X17799Y-33751D01*
X19205Y-33751D02*
X18980Y-33751D01*
X18868Y-33807D01*
X18811Y-33864D01*
X18699Y-34032D01*
X18643Y-34257D01*
X18643Y-34707D01*
X18699Y-34820D01*
X18755Y-34876D01*
X18868Y-34932D01*
X19093Y-34932D01*
X19205Y-34876D01*
X19261Y-34820D01*
X19318Y-34707D01*
X19318Y-34426D01*
X19261Y-34314D01*
X19205Y-34257D01*
X19093Y-34201D01*
X18868Y-34201D01*
X18755Y-34257D01*
X18699Y-34314D01*
X18643Y-34426D01*
X19711Y-33751D02*
X20442Y-33751D01*
X20049Y-34201D01*
X20217Y-34201D01*
X20330Y-34257D01*
X20386Y-34314D01*
X20442Y-34426D01*
X20442Y-34707D01*
X20386Y-34820D01*
X20330Y-34876D01*
X20217Y-34932D01*
X19880Y-34932D01*
X19767Y-34876D01*
X19711Y-34820D01*
X20892Y-33751D02*
X20892Y-33976D01*
X21342Y-33751D02*
X21342Y-33976D01*
X23086Y-35382D02*
X23030Y-35326D01*
X22917Y-35157D01*
X22861Y-35045D01*
X22805Y-34876D01*
X22748Y-34595D01*
X22748Y-34370D01*
X22805Y-34089D01*
X22861Y-33920D01*
X22917Y-33807D01*
X23030Y-33639D01*
X23086Y-33582D01*
X24154Y-34932D02*
X23480Y-34932D01*
X23817Y-34932D02*
X23817Y-33751D01*
X23705Y-33920D01*
X23592Y-34032D01*
X23480Y-34089D01*
X24604Y-33864D02*
X24661Y-33807D01*
X24773Y-33751D01*
X25054Y-33751D01*
X25167Y-33807D01*
X25223Y-33864D01*
X25279Y-33976D01*
X25279Y-34089D01*
X25223Y-34257D01*
X24548Y-34932D01*
X25279Y-34932D01*
X26685Y-34932D02*
X26685Y-33751D01*
X27192Y-34932D02*
X27192Y-34314D01*
X27135Y-34201D01*
X27023Y-34145D01*
X26854Y-34145D01*
X26742Y-34201D01*
X26685Y-34257D01*
X27923Y-34932D02*
X27810Y-34876D01*
X27754Y-34820D01*
X27698Y-34707D01*
X27698Y-34370D01*
X27754Y-34257D01*
X27810Y-34201D01*
X27923Y-34145D01*
X28091Y-34145D01*
X28204Y-34201D01*
X28260Y-34257D01*
X28316Y-34370D01*
X28316Y-34707D01*
X28260Y-34820D01*
X28204Y-34876D01*
X28091Y-34932D01*
X27923Y-34932D01*
X28991Y-34932D02*
X28879Y-34876D01*
X28823Y-34764D01*
X28823Y-33751D01*
X29891Y-34876D02*
X29779Y-34932D01*
X29554Y-34932D01*
X29441Y-34876D01*
X29385Y-34764D01*
X29385Y-34314D01*
X29441Y-34201D01*
X29554Y-34145D01*
X29779Y-34145D01*
X29891Y-34201D01*
X29947Y-34314D01*
X29947Y-34426D01*
X29385Y-34539D01*
X30397Y-34876D02*
X30510Y-34932D01*
X30735Y-34932D01*
X30847Y-34876D01*
X30904Y-34764D01*
X30904Y-34707D01*
X30847Y-34595D01*
X30735Y-34539D01*
X30566Y-34539D01*
X30454Y-34482D01*
X30397Y-34370D01*
X30397Y-34314D01*
X30454Y-34201D01*
X30566Y-34145D01*
X30735Y-34145D01*
X30847Y-34201D01*
X31297Y-35382D02*
X31354Y-35326D01*
X31466Y-35157D01*
X31522Y-35045D01*
X31579Y-34876D01*
X31635Y-34595D01*
X31635Y-34370D01*
X31579Y-34089D01*
X31522Y-33920D01*
X31466Y-33807D01*
X31354Y-33639D01*
X31297Y-33582D01*
M02*
