G04 (created by PCBNEW (2013-07-07 BZR 4022)-stable) date 9/18/2013 13:06:53*
%MOIN*%
G04 Gerber Fmt 3.4, Leading zero omitted, Abs format*
%FSLAX34Y34*%
G01*
G70*
G90*
G04 APERTURE LIST*
%ADD10C,0.00590551*%
%ADD11C,0.011811*%
%ADD12C,0.0688976*%
%ADD13C,0.246063*%
%ADD14C,0.153543*%
%ADD15C,0.0689425*%
%ADD16C,0.0964567*%
G04 APERTURE END LIST*
G54D10*
G54D11*
X46597Y-10756D02*
X46681Y-10784D01*
X46709Y-10812D01*
X46737Y-10868D01*
X46737Y-10953D01*
X46709Y-11009D01*
X46681Y-11037D01*
X46625Y-11065D01*
X46400Y-11065D01*
X46400Y-10475D01*
X46597Y-10475D01*
X46653Y-10503D01*
X46681Y-10531D01*
X46709Y-10587D01*
X46709Y-10643D01*
X46681Y-10700D01*
X46653Y-10728D01*
X46597Y-10756D01*
X46400Y-10756D01*
X47244Y-11065D02*
X47244Y-10756D01*
X47215Y-10700D01*
X47159Y-10672D01*
X47047Y-10672D01*
X46991Y-10700D01*
X47244Y-11037D02*
X47187Y-11065D01*
X47047Y-11065D01*
X46991Y-11037D01*
X46962Y-10981D01*
X46962Y-10925D01*
X46991Y-10868D01*
X47047Y-10840D01*
X47187Y-10840D01*
X47244Y-10812D01*
X47778Y-11037D02*
X47722Y-11065D01*
X47609Y-11065D01*
X47553Y-11037D01*
X47525Y-11009D01*
X47497Y-10953D01*
X47497Y-10784D01*
X47525Y-10728D01*
X47553Y-10700D01*
X47609Y-10672D01*
X47722Y-10672D01*
X47778Y-10700D01*
X48031Y-11065D02*
X48031Y-10475D01*
X48087Y-10840D02*
X48256Y-11065D01*
X48256Y-10672D02*
X48031Y-10897D01*
X48931Y-11037D02*
X49015Y-11065D01*
X49156Y-11065D01*
X49212Y-11037D01*
X49240Y-11009D01*
X49268Y-10953D01*
X49268Y-10897D01*
X49240Y-10840D01*
X49212Y-10812D01*
X49156Y-10784D01*
X49043Y-10756D01*
X48987Y-10728D01*
X48959Y-10700D01*
X48931Y-10643D01*
X48931Y-10587D01*
X48959Y-10531D01*
X48987Y-10503D01*
X49043Y-10475D01*
X49184Y-10475D01*
X49268Y-10503D01*
X49521Y-11065D02*
X49521Y-10672D01*
X49521Y-10475D02*
X49493Y-10503D01*
X49521Y-10531D01*
X49550Y-10503D01*
X49521Y-10475D01*
X49521Y-10531D01*
X49887Y-11065D02*
X49831Y-11037D01*
X49803Y-10981D01*
X49803Y-10475D01*
X50112Y-11065D02*
X50112Y-10475D01*
X50168Y-10840D02*
X50337Y-11065D01*
X50337Y-10672D02*
X50112Y-10897D01*
%LPC*%
X46597Y-12724D02*
X46681Y-12753D01*
X46709Y-12781D01*
X46737Y-12837D01*
X46737Y-12921D01*
X46709Y-12978D01*
X46681Y-13006D01*
X46625Y-13034D01*
X46400Y-13034D01*
X46400Y-12443D01*
X46597Y-12443D01*
X46653Y-12471D01*
X46681Y-12500D01*
X46709Y-12556D01*
X46709Y-12612D01*
X46681Y-12668D01*
X46653Y-12696D01*
X46597Y-12724D01*
X46400Y-12724D01*
X47244Y-13034D02*
X47244Y-12724D01*
X47215Y-12668D01*
X47159Y-12640D01*
X47047Y-12640D01*
X46991Y-12668D01*
X47244Y-13006D02*
X47187Y-13034D01*
X47047Y-13034D01*
X46991Y-13006D01*
X46962Y-12949D01*
X46962Y-12893D01*
X46991Y-12837D01*
X47047Y-12809D01*
X47187Y-12809D01*
X47244Y-12781D01*
X47778Y-13006D02*
X47722Y-13034D01*
X47609Y-13034D01*
X47553Y-13006D01*
X47525Y-12978D01*
X47497Y-12921D01*
X47497Y-12753D01*
X47525Y-12696D01*
X47553Y-12668D01*
X47609Y-12640D01*
X47722Y-12640D01*
X47778Y-12668D01*
X48031Y-13034D02*
X48031Y-12443D01*
X48087Y-12809D02*
X48256Y-13034D01*
X48256Y-12640D02*
X48031Y-12865D01*
X48959Y-13034D02*
X48959Y-12443D01*
X49156Y-12865D01*
X49353Y-12443D01*
X49353Y-13034D01*
X49887Y-13034D02*
X49887Y-12724D01*
X49859Y-12668D01*
X49803Y-12640D01*
X49690Y-12640D01*
X49634Y-12668D01*
X49887Y-13006D02*
X49831Y-13034D01*
X49690Y-13034D01*
X49634Y-13006D01*
X49606Y-12949D01*
X49606Y-12893D01*
X49634Y-12837D01*
X49690Y-12809D01*
X49831Y-12809D01*
X49887Y-12781D01*
X50140Y-13006D02*
X50196Y-13034D01*
X50309Y-13034D01*
X50365Y-13006D01*
X50393Y-12949D01*
X50393Y-12921D01*
X50365Y-12865D01*
X50309Y-12837D01*
X50224Y-12837D01*
X50168Y-12809D01*
X50140Y-12753D01*
X50140Y-12724D01*
X50168Y-12668D01*
X50224Y-12640D01*
X50309Y-12640D01*
X50365Y-12668D01*
X50646Y-13034D02*
X50646Y-12443D01*
X50703Y-12809D02*
X50871Y-13034D01*
X50871Y-12640D02*
X50646Y-12865D01*
G54D12*
X41625Y-16791D03*
X42625Y-16791D03*
X31023Y-6917D03*
X31023Y-5917D03*
X41625Y-19311D03*
X42625Y-19311D03*
X33779Y-6917D03*
X33779Y-5917D03*
X36535Y-6917D03*
X36535Y-5917D03*
X39291Y-6917D03*
X39291Y-5917D03*
G54D13*
X6692Y-6692D03*
X6692Y-22440D03*
X42125Y-22440D03*
X42125Y-6692D03*
G54D14*
X21909Y-6830D03*
X26909Y-6830D03*
G54D15*
X23003Y-7830D03*
X23405Y-8531D03*
X23807Y-7830D03*
X24208Y-8531D03*
X24610Y-7830D03*
X25011Y-8531D03*
X25413Y-7830D03*
X25814Y-8531D03*
G54D16*
X21208Y-8181D03*
X27610Y-8181D03*
G54D14*
X6830Y-14330D03*
X6830Y-9330D03*
G54D15*
X7830Y-13236D03*
X8531Y-12834D03*
X7830Y-12433D03*
X8531Y-12031D03*
X7830Y-11629D03*
X8531Y-11228D03*
X7830Y-10826D03*
X8531Y-10425D03*
G54D16*
X8181Y-15031D03*
X8181Y-8629D03*
G54D14*
X41988Y-9330D03*
X41988Y-14330D03*
G54D15*
X40988Y-10425D03*
X40287Y-10826D03*
X40988Y-11228D03*
X40287Y-11629D03*
X40988Y-12031D03*
X40287Y-12433D03*
X40988Y-12834D03*
X40287Y-13236D03*
G54D16*
X40637Y-8629D03*
X40637Y-15031D03*
G54D14*
X34586Y-22303D03*
X29586Y-22303D03*
G54D15*
X33492Y-21303D03*
X33090Y-20602D03*
X32688Y-21303D03*
X32287Y-20602D03*
X31885Y-21303D03*
X31484Y-20602D03*
X31082Y-21303D03*
X30681Y-20602D03*
G54D16*
X35287Y-20952D03*
X28885Y-20952D03*
G54D14*
X14232Y-6830D03*
X19232Y-6830D03*
G54D15*
X15326Y-7830D03*
X15728Y-8531D03*
X16129Y-7830D03*
X16531Y-8531D03*
X16933Y-7830D03*
X17334Y-8531D03*
X17736Y-7830D03*
X18137Y-8531D03*
G54D16*
X13531Y-8181D03*
X19933Y-8181D03*
G54D14*
X26909Y-22303D03*
X21909Y-22303D03*
G54D15*
X25814Y-21303D03*
X25413Y-20602D03*
X25011Y-21303D03*
X24610Y-20602D03*
X24208Y-21303D03*
X23807Y-20602D03*
X23405Y-21303D03*
X23003Y-20602D03*
G54D16*
X27610Y-20952D03*
X21208Y-20952D03*
M02*
