M48
;DRILL file {Pcbnew (2013-07-07 BZR 4022)-stable} date 9/18/2013 14:02:05
;FORMAT={-:-/ absolute / metric / decimal}
FMAT,2
METRIC,TZ
T1C0.500
T2C0.635
T3C0.813
T4C0.899
T5C1.600
%
G90
G05
M71
T1
X36.703Y-68.529
X52.65Y-73.6
X53.7Y-73.3
X56.325Y-59.055
X58.141Y-59.068
X58.331Y-50.99
X59.741Y-50.94
X61.976Y-62.179
X61.976Y-64.059
X62.713Y-68.047
X63.221Y-66.269
X63.817Y-56.464
X63.843Y-59.017
X65.964Y-69.418
X70.4Y-94.4
X70.4Y-103.9
X72.403Y-74.092
X72.45Y-102.7
X72.682Y-87.744
X73.076Y-65.265
X73.838Y-87.846
X74.5Y-101.7
X74.701Y-68.097
X75.12Y-66.116
X75.26Y-87.77
X75.311Y-90.157
X75.933Y-71.018
X76.55Y-100.75
X77.724Y-87.706
X78.943Y-69.418
X79.845Y-75.362
X80.251Y-81.699
X81.458Y-82.677
X82.271Y-76.721
X82.677Y-66.256
X84.988Y-66.243
X96.2Y-74.7
X98.819Y-60.173
X105.575Y-46.05
X105.626Y-45.072
X106.858Y-44.361
X109.25Y-68.
X111.76Y-49.276
X112.649Y-50.089
X113.614Y-50.978
T2
X33.65Y-62.5
X35.2Y-62.5
X36.Y-61.5
X40.4Y-53.7
X41.25Y-51.3
X41.25Y-52.85
X51.2Y-74.
X57.6Y-80.4
X59.804Y-61.671
X71.857Y-63.729
X78.219Y-82.982
X86.512Y-63.741
X86.995Y-52.756
X87.427Y-67.412
X87.528Y-61.951
X91.757Y-55.474
X93.777Y-59.03
X97.384Y-60.287
X104.826Y-54.242
X117.272Y-52.603
X117.85Y-59.8
X119.05Y-49.962
T3
X47.73Y-47.5
X50.27Y-47.5
X67.73Y-47.5
X70.27Y-47.5
X87.73Y-47.5
X88.73Y-117.
X90.27Y-47.5
X91.27Y-117.
X95.73Y-117.
X98.27Y-117.
X102.73Y-117.
X105.27Y-117.
X107.73Y-47.5
X109.73Y-117.
X110.27Y-47.5
X112.27Y-117.
T4
X32.54Y-70.45
X32.54Y-72.49
X32.54Y-74.53
X32.54Y-76.57
X34.32Y-69.43
X34.32Y-71.47
X34.32Y-73.51
X34.32Y-75.55
X40.43Y-31.54
X41.45Y-33.32
X42.47Y-31.54
X43.49Y-33.32
X44.51Y-31.54
X45.53Y-33.32
X46.55Y-31.54
X47.57Y-33.32
X60.43Y-31.54
X61.45Y-33.32
X62.47Y-31.54
X63.49Y-33.32
X64.51Y-31.54
X65.53Y-33.32
X66.55Y-31.54
X67.57Y-33.32
X70.43Y-112.68
X71.45Y-114.46
X72.47Y-112.68
X73.49Y-114.46
X74.51Y-112.68
X75.53Y-114.46
X76.55Y-112.68
X77.57Y-114.46
X80.43Y-31.54
X81.45Y-33.32
X82.47Y-31.54
X83.49Y-33.32
X84.51Y-31.54
X85.53Y-33.32
X86.55Y-31.54
X87.57Y-33.32
X100.43Y-31.54
X101.45Y-33.32
X102.47Y-31.54
X103.49Y-33.32
X104.51Y-31.54
X105.53Y-33.32
X106.55Y-31.54
X107.57Y-33.32
X113.68Y-70.45
X113.68Y-72.49
X113.68Y-74.53
X113.68Y-76.57
X115.46Y-69.43
X115.46Y-71.47
X115.46Y-73.51
X115.46Y-75.55
T5
X33.43Y-64.87
X33.43Y-81.13
X35.87Y-32.43
X52.13Y-32.43
X55.87Y-32.43
X65.87Y-113.57
X72.13Y-32.43
X75.87Y-32.43
X82.13Y-113.57
X92.13Y-32.43
X95.87Y-32.43
X112.13Y-32.43
X114.57Y-64.87
X114.57Y-81.13
T0
M30
