M48
;DRILL file {Pcbnew (2013-07-07 BZR 4022)-stable} date 9/18/2013 12:00:12
;FORMAT={-:-/ absolute / metric / decimal}
FMAT,2
METRIC,TZ
T1C0.500
T2C0.680
T3C0.813
T4C0.899
T5C1.600
%
G90
G05
M71
T1
X24.676Y-99.733
X25.717Y-100.711
X26.467Y-99.276
X27.724Y-100.178
X29.083Y-101.054
X30.531Y-101.054
X31.877Y-70.18
X31.953Y-72.466
X31.979Y-101.054
X33.439Y-101.054
X41.631Y-101.054
X45.86Y-101.054
X51.575Y-55.435
X52.883Y-46.685
X59.563Y-103.124
X65.989Y-40.03
X67.751Y-39.976
X69.323Y-40.367
X70.682Y-40.316
X73.431Y-100.279
X74.816Y-46.66
X74.879Y-49.86
X75.12Y-102.464
X79.819Y-55.308
X80.569Y-56.401
X81.191Y-46.126
X95.263Y-89.662
X96.114Y-91.084
X98.666Y-98.933
X102.87Y-51.676
X108.763Y-98.946
T2
X35.6Y-40.7
X36.6Y-39.7
X37.516Y-38.824
X49.Y-38.3
X50.4Y-38.3
X50.4Y-39.95
X62.459Y-53.823
X73.876Y-50.762
X77.381Y-75.286
X81.572Y-72.86
X83.693Y-78.588
X88.278Y-74.054
T3
X42.Y-91.73
X42.Y-94.27
X59.Y-91.73
X59.Y-94.27
X76.Y-91.73
X76.Y-94.27
X80.5Y-19.73
X80.5Y-22.27
X88.Y-19.73
X88.Y-22.27
X92.Y-91.73
X92.Y-94.27
X95.5Y-19.73
X95.5Y-22.27
X103.Y-19.73
X103.Y-22.27
T4
X25.54Y-63.45
X25.54Y-65.49
X25.54Y-67.53
X25.54Y-69.57
X27.32Y-62.43
X27.32Y-64.47
X27.32Y-66.51
X27.32Y-68.55
X33.43Y-105.68
X34.45Y-107.46
X35.47Y-105.68
X36.49Y-107.46
X37.51Y-105.68
X38.53Y-107.46
X39.55Y-105.68
X40.57Y-107.46
X53.43Y-105.68
X54.45Y-107.46
X55.47Y-105.68
X56.49Y-107.46
X57.51Y-105.68
X58.53Y-107.46
X59.55Y-105.68
X60.57Y-107.46
X63.43Y-24.54
X64.45Y-26.32
X65.47Y-24.54
X66.49Y-26.32
X67.51Y-24.54
X68.53Y-26.32
X69.55Y-24.54
X70.57Y-26.32
X73.43Y-105.68
X74.45Y-107.46
X75.47Y-105.68
X76.49Y-107.46
X77.51Y-105.68
X78.53Y-107.46
X79.55Y-105.68
X80.57Y-107.46
X93.43Y-105.68
X94.45Y-107.46
X95.47Y-105.68
X96.49Y-107.46
X97.51Y-105.68
X98.53Y-107.46
X99.55Y-105.68
X100.57Y-107.46
X106.68Y-63.45
X106.68Y-65.49
X106.68Y-67.53
X106.68Y-69.57
X108.46Y-62.43
X108.46Y-64.47
X108.46Y-66.51
X108.46Y-68.55
T5
X26.43Y-57.87
X26.43Y-74.13
X28.87Y-106.57
X45.13Y-106.57
X48.87Y-106.57
X58.87Y-25.43
X65.13Y-106.57
X68.87Y-106.57
X75.13Y-25.43
X85.13Y-106.57
X88.87Y-106.57
X105.13Y-106.57
X107.57Y-57.87
X107.57Y-74.13
T0
M30
